<svg about="DATA_PUBLISHED_DATE:2021-11-24,RENDER_DATE:2022-01-05" xmlns="http://www.w3.org/2000/svg" viewBox="0,0,615,400"><g transform="translate(0,0)" style="fill:#CCCCCC;"></g><g class="fg-line postvax-deaths_l1 line_s1" stroke="#1f2574" stroke-width="2px" fill="none"><path d="M50,354.12370414771436L54.73109243697479,353.94946839318783L59.462184873949575,353.95134003852104L64.19327731092437,353.78036822146953L68.92436974789916,353.61006873022484L73.65546218487395,353.61386690734L78.38655462184873,353.61821865848225L83.11764705882352,353.1038580256043L87.84873949579831,352.76112372245245L92.5798319327731,352.93752831000205L97.31092436974791,353.1139743540839L102.0420168067227,353.4602444667807L106.77310924369749,353.12198036637693L111.50420168067227,353.29670947571725L116.23529411764704,353.29883060118493L120.96638655462185,353.80929581802303L125.69747899159663,353.47074435050655L130.42857142857144,352.9663633791394L135.1596638655462,352.63250603308484L139.890756302521,351.962257405117L144.6218487394958,350.7906894819648L149.3529411764706,350.796697743171L154.08403361344537,350.1271449207466L158.8151260504202,349.9685445143097L163.54621848739495,349.4757894475204L168.27731092436977,349.3187165272146L173.00840336134453,349.4955564829264L177.73949579831933,349.3405436316654L182.4705882352941,349.01562090506394L187.2016806722689,348.8531841881463L191.9327731092437,348.3656967032183L196.66386554621852,348.2120953071089L201.39495798319325,347.56287499182497L206.12605042016807,347.41027152405417L210.85714285714286,347.2601287084605L215.58823529411765,346.93980443294174L220.31932773109241,346.1200970174787L225.05042016806723,346.2953203234745L229.781512605042,345.981582173908L234.51260504201682,346.4868478839529L239.2436974789916,345.3550812475859L243.97478991596637,345.20904491955076L248.7058823529412,345.5455660259753L253.43697478991595,346.20174699154495L258.16806722689074,344.2609803709596L262.89915966386553,343.79043220434875L267.6302521008404,341.6979466074394L272.3613445378151,341.39373836211087L277.0924369747899,341.74221903098453L281.8235294117647,340.14214458595126L286.5546218487395,338.6981931645446L291.2857142857143,338.240900453527L296.01680672268907,336.6607735761116L300.74789915966386,336.369128283227L305.47899159663865,335.9192409341814L310.2100840336135,334.839605694944L314.94117647058823,334.0674201389801L319.672268907563,334.2422711055454L324.4033613445378,333.96133903146125L329.1344537815126,334.0029625483669L333.8655462184874,334.5203043101161L338.5966386554622,335.0347191796736L343.32773109243703,334.45156271466203L348.05882352941177,336.0610350568574L352.7899159663865,335.1299536356754L357.5210084033613,335.1714421177958L362.25210084033614,336.313599439109L366.98319327731093,336.9789850017768L371.7142857142857,335.45253122081056L376.44537815126057,334.72507463215624L381.1764705882353,332.8906152201005L385.90756302521004,333.84361265051655L390.63865546218483,334.19962865811084L395.3697478991597,334.24366132396443L400.10084033613447,333.04661243429604L404.83193277310926,334.1684694941833L409.56302521008405,336.0683946508432L414.29411764705884,337.632306413478L419.02521008403363,337.95300043932116L423.75630252100837,338.57428738227844L428.4873949579832,338.9198969020974L433.218487394958,340.02073280372633L437.9495798319328,339.4387801197251L442.68067226890753,338.5634450018473L447.4117647058824,338.58753546019346L452.14285714285717,339.5116176867632L456.8739495798319,339.99615055782766L461.6050420168067,339.72178438957366L466.33613445378154,339.4480199436418L471.06722689075633,340.0800239696197L475.79831932773106,340.8653496396434L480.52941176470586,340.2831003781276L485.2605042016807,338.94329812531794L489.99159663865544,339.57028273365984L494.7226890756302,339.44505288218363L499.4537815126051,340.06601204984065L504.1848739495798,340.53434851943194L508.9159663865546,341.4539754643567L513.6470588235294,342.2112691203423L518.3781512605042,343.556065520395L523.109243697479,342.8253883223049L527.8403361344538,344.0282750662682L532.5714285714286,344.93225676151707L537.3025210084033,345.3904030913074L542.0336134453781,344.9630492018L546.7647058823529,345.4144544505611L551.4957983193277,344.68254086167786L556.2268907563025,345.57770354997325L560.9579831932773,345.0001773497959L565.6890756302521,344.13012331146524L570.420168067227,344.4359361539439L575.1512605042018,343.86511754274943L579.8823529411765,343.43474802267275L584.6134453781511,344.17167682449224L589.344537815126,344.3297696206052L594.0756302521008,344.77934003972155L598.8067226890756,345.37332271995075L603.5378151260504,344.94602566132113L608.2689075630252,345.54091159639006L613,345.69264541682827"></path></g><g class="fg-line postvax-deaths_l2 line_s2" stroke="#dc4567" stroke-width="2px" fill="none"><path d="M50,330.92861969168894L54.73109243697479,332.484795990117L59.462184873949575,331.44015955895577L64.19327731092437,331.02085088686977L68.92436974789916,332.20558531735594L73.65546218487395,331.46908650415077L78.38655462184873,330.0650213570359L83.11764705882352,329.66589117443834L87.84873949579831,327.02763539518935L92.5798319327731,325.625925495493L97.31092436974791,323.5475246901931L102.0420168067227,322.4404516776311L106.77310924369749,321.9934190554728L111.50420168067227,320.8664648117651L116.23529411764704,318.4654403525088L120.96638655462185,319.12317232477454L125.69747899159663,318.05227265936884L130.42857142857144,315.91238276070106L135.1596638655462,315.1072729510133L139.890756302521,311.9483633018915L144.6218487394958,309.0769187838423L149.3529411764706,307.94702338537L154.08403361344537,303.4850971859821L158.8151260504202,302.6449359516704L163.54621848739495,301.439570079913L168.27731092436977,297.15278974846115L173.00840336134453,295.9205401461898L177.73949579831933,298.767108339807L182.4705882352941,289.9586106351058L187.2016806722689,287.78831074256067L191.9327731092437,276.7605030161222L196.66386554621852,269.7863292350587L201.39495798319325,264.5120942627525L206.12605042016807,258.8240162972424L210.85714285714286,247.32470979879994L215.58823529411765,245.54087039710677L220.31932773109241,235.0024657534871L225.05042016806723,230.84463396429115L229.781512605042,223.3462064844285L234.51260504201682,214.3070261246526L239.2436974789916,204.09266729852354L243.97478991596637,183.0137422728404L248.7058823529412,173.88640517125822L253.43697478991595,172.03085086633055L258.16806722689074,159.90373246776835L262.89915966386553,146.03210517177587L267.6302521008404,142.18500964778775L272.3613445378151,133.7425890829075L277.0924369747899,137.84235305465947L281.8235294117647,130.79088165004245L286.5546218487395,122.59752674230036L291.2857142857143,123.8978887203266L296.01680672268907,122.09508532715286L300.74789915966386,108.34618578665565L305.47899159663865,99.42228045932596L310.2100840336135,92.0102377537851L314.94117647058823,80.89678965249921L319.672268907563,77.45261170186481L324.4033613445378,75.04422486539877L329.1344537815126,71.77621949973155L333.8655462184874,70.55144570492861L338.5966386554622,60.78317308946605L343.32773109243703,54.65279863522228L348.05882352941177,62.06149747960313L352.7899159663865,50.25995306113768L357.5210084033613,40.217615440930835L362.25210084033614,40.51049985052793L366.98319327731093,35.83508686948507L371.7142857142857,41.20503240192078L376.44537815126057,38.29047678291091L381.1764705882353,34.91586281990686L385.90756302521004,44.45894671163304L390.63865546218483,42.00778222135261L395.3697478991597,44.34691552854033L400.10084033613447,51.849686190921204L404.83193277310926,55.645413709343586L409.56302521008405,60.07318062051793L414.29411764705884,54.316393846115375L419.02521008403363,62.95894388313236L423.75630252100837,68.82907353967639L428.4873949579832,73.80377711962929L433.218487394958,63.67243610116252L437.9495798319328,68.18190622641669L442.68067226890753,74.76145880149984L447.4117647058824,79.74746929585001L452.14285714285717,75.65933120473339L456.8739495798319,81.30533445650994L461.6050420168067,81.15731685396811L466.33613445378154,92.39264488225588L471.06722689075633,101.39929107523992L475.79831932773106,105.31165060552873L480.52941176470586,107.38880708138872L485.2605042016807,114.85189586121555L489.99159663865544,124.12203191304687L494.7226890756302,124.19843267122752L499.4537815126051,121.0310525828631L504.1848739495798,115.99121722392891L508.9159663865546,116.81256234061917L513.6470588235294,133.65233232385583L518.3781512605042,135.25421251256898L523.109243697479,139.58619111699122L527.8403361344538,150.59687656018187L532.5714285714286,168.9075917340374L537.3025210084033,179.67803201331105L542.0336134453781,189.99042828687877L546.7647058823529,188.12824068584231L551.4957983193277,190.29628512515023L556.2268907563025,190.17491092589634L560.9579831932773,192.99530787566877L565.6890756302521,196.33792014306383L570.420168067227,182.46857229447275L575.1512605042018,179.16804319381168L579.8823529411765,185.65117475497453L584.6134453781511,192.84011844990863L589.344537815126,196.69865979895053L594.0756302521008,194.64571714391698L598.8067226890756,196.10264538531507L603.5378151260504,212.66391785347128L608.2689075630252,219.1356392198973L613,217.31113035515548"></path></g><g class="left-y-axis"><g class="y-tick"><line style="stroke-width: 0.5px; stroke:black; opacity:0.15;" x1="613" y1="355" x2="50" y2="355"></line><text style="font-family:sans-serif; font-weight:300; font-size: 0.85rem; fill:black;text-anchor: end; dominant-baseline:middle;" x="40" y="355">0</text></g><g class="y-tick"><line style="stroke-width: 0.5px; stroke:black; opacity:0.15;" x1="613" y1="305" x2="50" y2="305"></line><text style="font-family:sans-serif; font-weight:300; font-size: 0.85rem; fill:black;text-anchor: end; dominant-baseline:middle;" x="40" y="305">2</text></g><g class="y-tick"><line style="stroke-width: 0.5px; stroke:black; opacity:0.15;" x1="613" y1="255" x2="50" y2="255"></line><text style="font-family:sans-serif; font-weight:300; font-size: 0.85rem; fill:black;text-anchor: end; dominant-baseline:middle;" x="40" y="255">4</text></g><g class="y-tick"><line style="stroke-width: 0.5px; stroke:black; opacity:0.15;" x1="613" y1="204.99999999999997" x2="50" y2="204.99999999999997"></line><text style="font-family:sans-serif; font-weight:300; font-size: 0.85rem; fill:black;text-anchor: end; dominant-baseline:middle;" x="40" y="204.99999999999997">6</text></g><g class="y-tick"><line style="stroke-width: 0.5px; stroke:black; opacity:0.15;" x1="613" y1="154.99999999999997" x2="50" y2="154.99999999999997"></line><text style="font-family:sans-serif; font-weight:300; font-size: 0.85rem; fill:black;text-anchor: end; dominant-baseline:middle;" x="40" y="154.99999999999997">8</text></g><g class="y-tick"><line style="stroke-width: 0.5px; stroke:black; opacity:0.15;" x1="613" y1="104.99999999999999" x2="50" y2="104.99999999999999"></line><text style="font-family:sans-serif; font-weight:300; font-size: 0.85rem; fill:black;text-anchor: end; dominant-baseline:middle;" x="40" y="104.99999999999999">10</text></g><g class="y-tick"><line style="stroke-width: 0.5px; stroke:black; opacity:0.15;" x1="613" y1="54.999999999999986" x2="50" y2="54.999999999999986"></line><text style="font-family:sans-serif; font-weight:300; font-size: 0.85rem; fill:black;text-anchor: end; dominant-baseline:middle;" x="40" y="54.999999999999986">12</text></g></g><g class="date-axis" style="stroke-width: 0.5px; stroke:black;"><g class="x-tick"><text style="font-family:sans-serif; font-weight:300; font-size: 0.85rem; fill:black;text-anchor: start; dominant-baseline:hanging;" x="50" y="372">7/3/2021</text></g><g class="x-tick"></g><g class="x-tick"></g><g class="x-tick"></g><g class="x-tick"></g><g class="x-tick"></g><g class="x-tick"></g><g class="x-tick"></g><g class="x-tick"></g><g class="x-tick"></g><g class="x-tick"></g><g class="x-tick"></g><g class="x-tick"></g><g class="x-tick"></g><g class="x-tick"></g><g class="x-tick"></g><g class="x-tick"></g><g class="x-tick"></g><g class="x-tick"></g><g class="x-tick"></g><g class="x-tick"></g><g class="x-tick"></g><g class="x-tick"></g><g class="x-tick"></g><g class="x-tick"></g><g class="x-tick"></g><g class="x-tick"></g><g class="x-tick"></g><g class="x-tick"></g><g class="x-tick"></g><g class="x-tick"></g><g class="x-tick"></g><g class="x-tick"></g><g class="x-tick"></g><g class="x-tick"></g><g class="x-tick"></g><g class="x-tick"></g><g class="x-tick"></g><g class="x-tick"></g><g class="x-tick"></g><g class="x-tick"></g><g class="x-tick"></g><g class="x-tick"></g><g class="x-tick"></g><g class="x-tick"></g><g class="x-tick"></g><g class="x-tick"></g><g class="x-tick"></g><g class="x-tick"></g><g class="x-tick"></g><g class="x-tick"></g><g class="x-tick"></g><g class="x-tick"></g><g class="x-tick"></g><g class="x-tick"></g><g class="x-tick"></g><g class="x-tick"></g><g class="x-tick"></g><g class="x-tick"></g><g class="x-tick"></g><g class="x-tick"></g><g class="x-tick"></g><g class="x-tick"></g><g class="x-tick"></g><g class="x-tick"></g><g class="x-tick"></g><g class="x-tick"></g><g class="x-tick"></g><g class="x-tick"></g><g class="x-tick"></g><g class="x-tick"></g><g class="x-tick"></g><g class="x-tick"></g><g class="x-tick"></g><g class="x-tick"></g><g class="x-tick"></g><g class="x-tick"></g><g class="x-tick"></g><g class="x-tick"></g><g class="x-tick"></g><g class="x-tick"></g><g class="x-tick"></g><g class="x-tick"></g><g class="x-tick"></g><g class="x-tick"></g><g class="x-tick"></g><g class="x-tick"></g><g class="x-tick"></g><g class="x-tick"></g><g class="x-tick"></g><g class="x-tick"></g><g class="x-tick"></g><g class="x-tick"></g><g class="x-tick"></g><g class="x-tick"></g><g class="x-tick"></g><g class="x-tick"></g><g class="x-tick"></g><g class="x-tick"></g><g class="x-tick"></g><g class="x-tick"></g><g class="x-tick"></g><g class="x-tick"></g><g class="x-tick"></g><g class="x-tick"></g><g class="x-tick"></g><g class="x-tick"></g><g class="x-tick"></g><g class="x-tick"></g><g class="x-tick"></g><g class="x-tick"></g><g class="x-tick"></g><g class="x-tick"></g><g class="x-tick"></g><g class="x-tick"></g><g class="x-tick"></g><g class="x-tick"></g><g class="x-tick"></g><g class="x-tick"></g><g class="x-tick"><text style="font-family:sans-serif; font-weight:300; font-size: 0.85rem; fill:black;text-anchor: end; dominant-baseline:hanging;" x="613" y="372">10/30/2021</text></g></g></svg>