<svg about="DATA_PUBLISHED_DATE:2021-09-22,RENDER_DATE:2021-09-24" xmlns="http://www.w3.org/2000/svg" viewBox="0,0,615,400"><g transform="translate(0,0)" style="fill:#CCCCCC;"></g><g class="fg-line postvax-hospitalizations_l1 line_s1" stroke="#1f2574" stroke-width="2px" fill="none"><path d="M50,349.97971777777775L54.73109243697479,350.09027411111106L59.462184873949575,350.31944533333336L64.19327731092437,350.7980908888889L68.92436974789916,350.9450385555556L73.65546218487395,350.7108890555556L78.38655462184873,351.238203L83.11764705882352,351.4310861666667L87.84873949579831,351.5249483333333L92.5798319327731,351.4236891666667L97.31092436974791,351.4835238333333L102.0420168067227,351.40228827777776L106.77310924369749,351.67574327777777L111.50420168067227,351.5292051111111L116.23529411764704,351.3666025555556L120.96638655462185,350.9818242222222L125.69747899159663,351.42066883333337L130.42857142857144,351.53316722222223L135.1596638655462,351.83560500000004L139.890756302521,352.00269472222226L144.6218487394958,352.2303528888889L149.3529411764706,352.44538083333333L154.08403361344537,352.5204377777778L158.8151260504202,352.54231027777774L163.54621848739495,352.26361627777777L168.27731092436977,352.1095496666666L173.00840336134453,351.48147488888884L177.73949579831933,351.5767439444444L182.4705882352941,351.48284711111114L187.2016806722689,351.49335977777775L191.9327731092437,351.16632744444445L196.66386554621852,351.3651956666667L201.39495798319325,351.5603791111111L206.12605042016807,351.97930483333334L210.85714285714286,351.82758616666666L215.58823529411765,351.83775144444445L220.31932773109241,351.8424141111111L225.05042016806723,351.7884215L229.781512605042,351.863516L234.51260504201682,351.209135L239.2436974789916,351.11480266666666L243.97478991596637,351.0234906666667L248.7058823529412,350.8723273888889L253.43697478991595,350.82260022222226L258.16806722689074,350.89097805555554L262.89915966386553,350.85259194444444L267.6302521008404,351.3036045555555L272.3613445378151,351.480198L277.0924369747899,351.65639061111114L281.8235294117647,351.61244772222227L286.5546218487395,351.45551027777776L291.2857142857143,351.3591802777778L296.01680672268907,351.3189915L300.74789915966386,351.22426483333334L305.47899159663865,351.0235961111111L310.2100840336135,350.8781318888889L314.94117647058823,350.56942594444445L319.672268907563,350.5202556111111L324.4033613445378,350.0535808888889L329.1344537815126,349.3838021111111L333.8655462184874,349.0301674444445L338.5966386554622,348.05099805555557L343.32773109243703,347.7037442222222L348.05882352941177,347.2470448333333L352.7899159663865,346.9929388888889L357.5210084033613,347.0057431666666L362.25210084033614,346.3481179444445L366.98319327731093,345.27774705555555L371.7142857142857,344.88139872222223L376.44537815126057,343.87049777777776L381.1764705882353,343.3159965L385.90756302521004,342.64795105555555L390.63865546218483,341.63110188888885L395.3697478991597,340.94186283333335L400.10084033613447,339.99387105555553L404.83193277310926,339.55932872222223L409.56302521008405,339.13037783333334L414.29411764705884,338.84345988888884L419.02521008403363,338.0879461111111L423.75630252100837,336.89392788888887L428.4873949579832,335.7550679444445L433.218487394958,335.32866144444444L437.9495798319328,334.7506453333333L442.68067226890753,334.4836737222222L447.4117647058824,333.9012852777778L452.14285714285717,333.15586672222224L456.8739495798319,333.0353632222222L461.6050420168067,333.5724148888889L466.33613445378154,334.2073760555555L471.06722689075633,333.2846403888889L475.79831932773106,332.4696017777778L480.52941176470586,332.29185277777776L485.2605042016807,331.99838933333336L489.99159663865544,331.6242941111111L494.7226890756302,331.40809688888885L499.4537815126051,331.68932372222224L504.1848739495798,332.36578883333334L508.9159663865546,332.7481903333333L513.6470588235294,332.5207452222222L518.3781512605042,333.1249382777778L523.109243697479,332.50562188888887L527.8403361344538,332.43669227777775L532.5714285714286,331.82263944444446L537.3025210084033,332.24739205555557L542.0336134453781,332.5294010555556L546.7647058823529,333.092569L551.4957983193277,333.6940053333333L556.2268907563025,335.3937315L560.9579831932773,335.4712772222222L565.6890756302521,336.42834155555556L570.420168067227,336.9444834444445L575.1512605042018,336.4884253888889L579.8823529411765,337.0946413888889L584.6134453781511,337.4950782222222L589.344537815126,337.37705988888894L594.0756302521008,338.42810483333335L598.8067226890756,338.4081455L603.5378151260504,338.87199344444446L608.2689075630252,340.1623041111111L613,340.8083745"></path></g><g class="fg-line postvax-hospitalizations_l2 line_s2" stroke="#dc4567" stroke-width="2px" fill="none"><path d="M50,312.6591769444445L54.73109243697479,311.7143586111111L59.462184873949575,314.20685294444445L64.19327731092437,314.1154333333333L68.92436974789916,313.91063927777776L73.65546218487395,317.5295987777778L78.38655462184873,319.9449980555556L83.11764705882352,321.94789144444445L87.84873949579831,321.96328705555555L92.5798319327731,322.4689769444444L97.31092436974791,321.80766766666665L102.0420168067227,322.1673661111111L106.77310924369749,319.98282011111115L111.50420168067227,319.84925955555553L116.23529411764704,318.48560505555554L120.96638655462185,318.98663444444446L125.69747899159663,317.7849223888889L130.42857142857144,316.9208448888889L135.1596638655462,317.36634838888887L139.890756302521,318.71664105555556L144.6218487394958,318.7893146666666L149.3529411764706,318.49430855555556L154.08403361344537,318.94885355555556L158.8151260504202,320.09675355555555L163.54621848739495,319.3704558333333L168.27731092436977,316.8024394444445L173.00840336134453,315.1622164444444L177.73949579831933,314.01140516666663L182.4705882352941,313.6640177222222L187.2016806722689,313.4022526111111L191.9327731092437,313.2635339444444L196.66386554621852,312.9140628888889L201.39495798319325,314.59707394444445L206.12605042016807,314.98697211111113L210.85714285714286,314.97713544444446L215.58823529411765,315.0480822222222L220.31932773109241,313.7240993888889L225.05042016806723,311.60625855555554L229.781512605042,313.1145821111111L234.51260504201682,311.6562919444445L239.2436974789916,309.79363605555557L243.97478991596637,309.76561311111107L248.7058823529412,308.405296L253.43697478991595,308.81896466666666L258.16806722689074,306.9852308888889L262.89915966386553,304.73619477777777L267.6302521008404,305.0141434444444L272.3613445378151,303.4411802777778L277.0924369747899,300.8809703888889L281.8235294117647,300.6971857777778L286.5546218487395,298.47243655555553L291.2857142857143,298.2382343333333L296.01680672268907,296.89296688888885L300.74789915966386,290.53000927777776L305.47899159663865,286.91015494444446L310.2100840336135,284.187947L314.94117647058823,278.90726827777775L319.672268907563,275.94627055555554L324.4033613445378,272.62798444444445L329.1344537815126,262.9407982777778L333.8655462184874,256.69418272222225L338.5966386554622,255.16112305555555L343.32773109243703,249.4330587222222L348.05882352941177,244.3994406666667L352.7899159663865,239.4085601111111L357.5210084033613,231.54394649999998L362.25210084033614,228.89931099999998L366.98319327731093,227.64159711111108L371.7142857142857,218.76392022222225L376.44537815126057,209.15737522222224L381.1764705882353,206.62751383333332L385.90756302521004,202.46130127777778L390.63865546218483,194.07277755555558L395.3697478991597,187.3163966111111L400.10084033613447,178.8880661666667L404.83193277310926,170.36330172222222L409.56302521008405,160.40154472222218L414.29411764705884,146.0582958888889L419.02521008403363,135.30682283333329L423.75630252100837,123.03536161111109L428.4873949579832,110.4460633888889L433.218487394958,97.21399677777777L437.9495798319328,89.37964644444443L442.68067226890753,86.65818672222218L447.4117647058824,87.10623605555554L452.14285714285717,80.48728605555551L456.8739495798319,77.75488538888887L461.6050420168067,68.09528666666665L466.33613445378154,62.983804388888885L471.06722689075633,58.08689650000002L475.79831932773106,49.20194105555556L480.52941176470586,38.31893255555555L485.2605042016807,43.31793449999998L489.99159663865544,37.04366505555552L494.7226890756302,36.37934700000001L499.4537815126051,37.75106944444449L504.1848739495798,39.667709999999985L508.9159663865546,40.01441350000004L513.6470588235294,48.486143722222224L518.3781512605042,46.23666777777778L523.109243697479,51.51777550000003L527.8403361344538,56.909399111111114L532.5714285714286,58.86347388888892L537.3025210084033,61.042640055555594L542.0336134453781,66.61248716666668L546.7647058823529,72.88931761111112L551.4957983193277,83.30275455555554L556.2268907563025,90.15984288888889L560.9579831932773,99.68115627777777L565.6890756302521,108.95640711111113L570.420168067227,117.43379883333336L575.1512605042018,126.17077022222223L579.8823529411765,131.86246777777777L584.6134453781511,138.84793761111112L589.344537815126,146.3861855L594.0756302521008,154.7920873333333L598.8067226890756,160.34332133333336L603.5378151260504,167.18795566666665L608.2689075630252,173.0114761111111L613,177.84272388888886"></path></g><g class="left-y-axis"><g class="y-tick"><line style="stroke-width: 0.5px; stroke:black; opacity:0.15;" x1="613" y1="355" x2="50" y2="355"></line><text style="font-family:sans-serif; font-weight:300; font-size: 0.85rem; fill:black;text-anchor: end; dominant-baseline:middle;" x="40" y="355">0</text></g><g class="y-tick"><line style="stroke-width: 0.5px; stroke:black; opacity:0.15;" x1="613" y1="282.7777777777778" x2="50" y2="282.7777777777778"></line><text style="font-family:sans-serif; font-weight:300; font-size: 0.85rem; fill:black;text-anchor: end; dominant-baseline:middle;" x="40" y="282.7777777777778">10</text></g><g class="y-tick"><line style="stroke-width: 0.5px; stroke:black; opacity:0.15;" x1="613" y1="210.55555555555557" x2="50" y2="210.55555555555557"></line><text style="font-family:sans-serif; font-weight:300; font-size: 0.85rem; fill:black;text-anchor: end; dominant-baseline:middle;" x="40" y="210.55555555555557">20</text></g><g class="y-tick"><line style="stroke-width: 0.5px; stroke:black; opacity:0.15;" x1="613" y1="138.33333333333334" x2="50" y2="138.33333333333334"></line><text style="font-family:sans-serif; font-weight:300; font-size: 0.85rem; fill:black;text-anchor: end; dominant-baseline:middle;" x="40" y="138.33333333333334">30</text></g><g class="y-tick"><line style="stroke-width: 0.5px; stroke:black; opacity:0.15;" x1="613" y1="66.11111111111113" x2="50" y2="66.11111111111113"></line><text style="font-family:sans-serif; font-weight:300; font-size: 0.85rem; fill:black;text-anchor: end; dominant-baseline:middle;" x="40" y="66.11111111111113">40</text></g></g><g class="date-axis" style="stroke-width: 0.5px; stroke:black;"><g class="x-tick"><text style="font-family:sans-serif; font-weight:300; font-size: 0.85rem; fill:black;text-anchor: start; dominant-baseline:hanging;" x="50" y="372">5/8/2021</text></g><g class="x-tick"></g><g class="x-tick"></g><g class="x-tick"></g><g class="x-tick"></g><g class="x-tick"></g><g class="x-tick"></g><g class="x-tick"></g><g class="x-tick"></g><g class="x-tick"></g><g class="x-tick"></g><g class="x-tick"></g><g class="x-tick"></g><g class="x-tick"></g><g class="x-tick"></g><g class="x-tick"></g><g class="x-tick"></g><g class="x-tick"></g><g class="x-tick"></g><g class="x-tick"></g><g class="x-tick"></g><g class="x-tick"></g><g class="x-tick"></g><g class="x-tick"></g><g class="x-tick"></g><g class="x-tick"></g><g class="x-tick"></g><g class="x-tick"></g><g class="x-tick"></g><g class="x-tick"></g><g class="x-tick"></g><g class="x-tick"></g><g class="x-tick"></g><g class="x-tick"></g><g class="x-tick"></g><g class="x-tick"></g><g class="x-tick"></g><g class="x-tick"></g><g class="x-tick"></g><g class="x-tick"></g><g class="x-tick"></g><g class="x-tick"></g><g class="x-tick"></g><g class="x-tick"></g><g class="x-tick"></g><g class="x-tick"></g><g class="x-tick"></g><g class="x-tick"></g><g class="x-tick"></g><g class="x-tick"></g><g class="x-tick"></g><g class="x-tick"></g><g class="x-tick"></g><g class="x-tick"></g><g class="x-tick"></g><g class="x-tick"></g><g class="x-tick"></g><g class="x-tick"></g><g class="x-tick"></g><g class="x-tick"></g><g class="x-tick"></g><g class="x-tick"></g><g class="x-tick"></g><g class="x-tick"></g><g class="x-tick"></g><g class="x-tick"></g><g class="x-tick"></g><g class="x-tick"></g><g class="x-tick"></g><g class="x-tick"></g><g class="x-tick"></g><g class="x-tick"></g><g class="x-tick"></g><g class="x-tick"></g><g class="x-tick"></g><g class="x-tick"></g><g class="x-tick"></g><g class="x-tick"></g><g class="x-tick"></g><g class="x-tick"></g><g class="x-tick"></g><g class="x-tick"></g><g class="x-tick"></g><g class="x-tick"></g><g class="x-tick"></g><g class="x-tick"></g><g class="x-tick"></g><g class="x-tick"></g><g class="x-tick"></g><g class="x-tick"></g><g class="x-tick"></g><g class="x-tick"></g><g class="x-tick"></g><g class="x-tick"></g><g class="x-tick"></g><g class="x-tick"></g><g class="x-tick"></g><g class="x-tick"></g><g class="x-tick"></g><g class="x-tick"></g><g class="x-tick"></g><g class="x-tick"></g><g class="x-tick"></g><g class="x-tick"></g><g class="x-tick"></g><g class="x-tick"></g><g class="x-tick"></g><g class="x-tick"></g><g class="x-tick"></g><g class="x-tick"></g><g class="x-tick"></g><g class="x-tick"></g><g class="x-tick"></g><g class="x-tick"></g><g class="x-tick"></g><g class="x-tick"></g><g class="x-tick"></g><g class="x-tick"></g><g class="x-tick"></g><g class="x-tick"><text style="font-family:sans-serif; font-weight:300; font-size: 0.85rem; fill:black;text-anchor: end; dominant-baseline:hanging;" x="613" y="372">9/4/2021</text></g></g></svg>