<svg about="DATA_PUBLISHED_DATE:2021-10-13,RENDER_DATE:2021-10-14" xmlns="http://www.w3.org/2000/svg" viewBox="0,0,615,400"><g transform="translate(0,0)" style="fill:#CCCCCC;"></g><g class="fg-line postvax-hospitalizations_l1 line_s1" stroke="#1f2574" stroke-width="2px" fill="none"><path d="M50,342.411983L58.93650793650794,341.8235835L67.87301587301587,340.79746221874996L76.8095238095238,339.9162633125L85.74603174603175,339.54480171874997L94.68253968253967,339.11735359374995L103.61904761904762,338.72399634375L112.55555555555556,338.2931580625L121.4920634920635,337.5724331875L130.42857142857144,337.54074853125L139.36507936507934,337.03607471875L148.3015873015873,337.0069965625L157.23809523809524,336.4470036875L166.17460317460316,335.89271903125L175.11111111111111,335.549725L184.04761904761904,335.33272006249996L192.984126984127,334.1038788125L201.9206349206349,334.24427840625003L210.85714285714286,334.41097984375L219.79365079365078,334.52014165624996L228.7301587301587,334.5236845625L237.66666666666666,334.32166171875L246.60317460317458,334.63346103125L255.53968253968253,334.51857759374997L264.4761904761905,334.02272631249997L273.41269841269843,333.22394171875L282.3492063492063,333.33396640625L291.2857142857143,333.42227621874997L300.22222222222223,333.41523590625L309.1587301587301,333.4807238125L318.0952380952381,334.65800706249996L327.031746031746,334.57805584375L335.9682539682539,335.09696140625L344.9047619047619,335.45218803125L353.8412698412698,334.94345375L362.77777777777777,335.10146021875L371.7142857142857,335.33078671874995L380.6507936507936,334.98284171875L389.58730158730157,336.2881420625L398.5238095238095,335.99614134374997L407.4603174603174,335.94704928125003L416.3968253968254,336.7396255625L425.3333333333333,337.48752409375L434.26984126984127,337.71433225000004L443.20634920634916,339.13900753125L452.14285714285717,338.9013468125L461.07936507936506,339.8376685625L470.015873015873,340.18490262500006L478.95238095238096,340.510633875L487.88888888888886,340.71622034375L496.8253968253968,340.99247278125L505.76190476190476,340.515580375L514.6984126984127,340.99151403125L523.6349206349206,341.2522651875L532.5714285714286,341.61772646875L541.5079365079365,342.53993428124994L550.4444444444445,342.68567159375L559.3809523809524,342.85140412500004L568.3174603174602,343.6953925625L577.2539682539682,344.08609740625L586.1904761904761,344.88874096874997L595.1269841269841,345.81905753125L604.063492063492,346.12465299999997L613,346.34341496875004"></path></g><g class="fg-line postvax-hospitalizations_l2 line_s2" stroke="#dc4567" stroke-width="2px" fill="none"><path d="M50,190.80403015624998L58.93650793650794,182.91365050000002L67.87301587301587,171.32251859375003L76.8095238095238,159.04123496875L85.74603174603175,148.71317940625L94.68253968253967,139.42865212499999L103.61904761904762,132.24628171875L112.55555555555556,129.06860315625L121.4920634920635,124.01549015625L130.42857142857144,117.37989121875L139.36507936507934,107.6776999375L148.3015873015873,99.96289259374998L157.23809523809524,94.0129173125L166.17460317460316,87.72148159375001L175.11111111111111,81.0289065L184.04761904761904,81.05100365625002L192.984126984127,75.1056035625L201.9206349206349,71.22209487499997L210.85714285714286,71.03583453125002L219.79365079365078,68.62467456250005L228.7301587301587,63.88740631249995L237.66666666666666,64.44120428125001L246.60317460317458,60.771134875L255.53968253968253,62.49110312500001L264.4761904761905,63.613286281250026L273.41269841269843,63.47468393749996L282.3492063492063,64.26368115625002L291.2857142857143,60.75378353125003L300.22222222222223,63.12004271875003L309.1587301587301,68.01019625L318.0952380952381,70.13082693749998L327.031746031746,76.52466203125002L335.9682539682539,77.26442703125L344.9047619047619,80.80040631250006L353.8412698412698,91.85673609374996L362.77777777777777,92.69220587499997L371.7142857142857,94.60612721875L380.6507936507936,98.47984040624999L389.58730158730157,101.43694512500002L398.5238095238095,105.78935324999998L407.4603174603174,110.03899921875L416.3968253968254,112.51574134375001L425.3333333333333,119.65861165625002L434.26984126984127,124.05107196874998L443.20634920634916,135.61700337499997L452.14285714285717,138.97224081250002L461.07936507936506,146.734522125L470.015873015873,154.34460065625L478.95238095238096,159.76628396874997L487.88888888888886,165.1467L496.8253968253968,170.92009099999999L505.76190476190476,172.31636818750002L514.6984126984127,181.63989425L523.6349206349206,188.05919634375L532.5714285714286,194.99630590625003L541.5079365079365,201.26855687500003L550.4444444444445,208.04353896874997L559.3809523809524,213.40603246875L568.3174603174602,221.69386031249996L577.2539682539682,230.95305546875L586.1904761904761,239.55041168749997L595.1269841269841,246.13501487499997L604.063492063492,256.04113959375L613,260.9589295"></path></g><g class="left-y-axis"><g class="y-tick"><line style="stroke-width: 0.5px; stroke:black; opacity:0.15;" x1="613" y1="355" x2="50" y2="355"></line><text style="font-family:sans-serif; font-weight:300; font-size: 0.85rem; fill:black;text-anchor: end; dominant-baseline:middle;" x="40" y="355">0</text></g><g class="y-tick"><line style="stroke-width: 0.5px; stroke:black; opacity:0.15;" x1="613" y1="273.75" x2="50" y2="273.75"></line><text style="font-family:sans-serif; font-weight:300; font-size: 0.85rem; fill:black;text-anchor: end; dominant-baseline:middle;" x="40" y="273.75">20</text></g><g class="y-tick"><line style="stroke-width: 0.5px; stroke:black; opacity:0.15;" x1="613" y1="192.5" x2="50" y2="192.5"></line><text style="font-family:sans-serif; font-weight:300; font-size: 0.85rem; fill:black;text-anchor: end; dominant-baseline:middle;" x="40" y="192.5">40</text></g><g class="y-tick"><line style="stroke-width: 0.5px; stroke:black; opacity:0.15;" x1="613" y1="111.25" x2="50" y2="111.25"></line><text style="font-family:sans-serif; font-weight:300; font-size: 0.85rem; fill:black;text-anchor: end; dominant-baseline:middle;" x="40" y="111.25">60</text></g><g class="y-tick"><line style="stroke-width: 0.5px; stroke:black; opacity:0.15;" x1="613" y1="30" x2="50" y2="30"></line><text style="font-family:sans-serif; font-weight:300; font-size: 0.85rem; fill:black;text-anchor: end; dominant-baseline:middle;" x="40" y="30">80</text></g></g><g class="date-axis" style="stroke-width: 0.5px; stroke:black;"><g class="x-tick"><text style="font-family:sans-serif; font-weight:300; font-size: 0.85rem; fill:black;text-anchor: start; dominant-baseline:hanging;" x="50" y="372">7/24/2021</text></g><g class="x-tick"></g><g class="x-tick"></g><g class="x-tick"></g><g class="x-tick"></g><g class="x-tick"></g><g class="x-tick"></g><g class="x-tick"></g><g class="x-tick"></g><g class="x-tick"></g><g class="x-tick"></g><g class="x-tick"></g><g class="x-tick"></g><g class="x-tick"></g><g class="x-tick"></g><g class="x-tick"></g><g class="x-tick"></g><g class="x-tick"></g><g class="x-tick"></g><g class="x-tick"></g><g class="x-tick"></g><g class="x-tick"></g><g class="x-tick"></g><g class="x-tick"></g><g class="x-tick"></g><g class="x-tick"></g><g class="x-tick"></g><g class="x-tick"></g><g class="x-tick"></g><g class="x-tick"></g><g class="x-tick"></g><g class="x-tick"></g><g class="x-tick"></g><g class="x-tick"></g><g class="x-tick"></g><g class="x-tick"></g><g class="x-tick"></g><g class="x-tick"></g><g class="x-tick"></g><g class="x-tick"></g><g class="x-tick"></g><g class="x-tick"></g><g class="x-tick"></g><g class="x-tick"></g><g class="x-tick"></g><g class="x-tick"></g><g class="x-tick"></g><g class="x-tick"></g><g class="x-tick"></g><g class="x-tick"></g><g class="x-tick"></g><g class="x-tick"></g><g class="x-tick"></g><g class="x-tick"></g><g class="x-tick"></g><g class="x-tick"></g><g class="x-tick"></g><g class="x-tick"></g><g class="x-tick"></g><g class="x-tick"></g><g class="x-tick"></g><g class="x-tick"></g><g class="x-tick"></g><g class="x-tick"><text style="font-family:sans-serif; font-weight:300; font-size: 0.85rem; fill:black;text-anchor: end; dominant-baseline:hanging;" x="613" y="372">9/25/2021</text></g></g></svg>