<svg about="DATA_PUBLISHED_DATE:2021-11-17,RENDER_DATE:2021-11-17" xmlns="http://www.w3.org/2000/svg" viewBox="0,0,615,400"><g transform="translate(0,0)" style="fill:#CCCCCC;"></g><g class="fg-line postvax-cases_l1 line_s1" stroke="#1f2574" stroke-width="2px" fill="none"><path d="M50,345.2561808825L54.73109243697479,344.44520155749996L59.462184873949575,343.306737575L64.19327731092437,342.282578205L68.92436974789916,341.3287452925L73.65546218487395,340.003996705L78.38655462184873,338.80391285250005L83.11764705882352,337.839534145L87.84873949579831,336.9625715L92.5798319327731,335.15098809L97.31092436974791,333.6130864L102.0420168067227,331.5647173825L106.77310924369749,330.398905495L111.50420168067227,329.47897167499997L116.23529411764704,328.5852254125L120.96638655462185,327.6123670325L125.69747899159663,326.1606399375L130.42857142857144,324.7370109775L135.1596638655462,323.26479331499996L139.890756302521,321.71017817499995L144.6218487394958,320.192881745L149.3529411764706,319.27707324749997L154.08403361344537,318.309983325L158.8151260504202,317.198060695L163.54621848739495,315.3189888575L168.27731092436977,314.534776565L173.00840336134453,313.56391934L177.73949579831933,312.82695112749997L182.4705882352941,312.2851992025L187.2016806722689,311.951602335L191.9327731092437,311.22168828L196.66386554621852,310.97613674L201.39495798319325,310.892722565L206.12605042016807,310.60941051000003L210.85714285714286,310.65554949250003L215.58823529411765,310.830779775L220.31932773109241,311.4488852825L225.05042016806723,311.70911902250003L229.781512605042,312.497442955L234.51260504201682,312.677659615L239.2436974789916,313.61777554500003L243.97478991596637,313.88088680249996L248.7058823529412,314.25816653L253.43697478991595,314.4683410075L258.16806722689074,315.1833871575L262.89915966386553,315.6238088275L267.6302521008404,316.44748242500003L272.3613445378151,317.0433285525L277.0924369747899,317.91236870499995L281.8235294117647,318.46198670250004L286.5546218487395,319.050968895L291.2857142857143,319.8743999125L296.01680672268907,320.87651180250003L300.74789915966386,321.12001746749996L305.47899159663865,321.758764245L310.2100840336135,322.07240322L314.94117647058823,322.5843574875L319.672268907563,323.06227882750005L324.4033613445378,325.417499325L329.1344537815126,325.2154514725L333.8655462184874,326.01734630000004L338.5966386554622,326.1612729725L343.32773109243703,326.7156561525L348.05882352941177,326.69298457499997L352.7899159663865,326.568896325L357.5210084033613,325.48147291L362.25210084033614,326.875718165L366.98319327731093,327.79791119L371.7142857142857,328.6288748625L376.44537815126057,329.4289946375L381.1764705882353,330.04046598499997L385.90756302521004,330.54237394999996L390.63865546218483,330.95097058L395.3697478991597,331.59126101L400.10084033613447,332.0942016625L404.83193277310926,332.70137283750006L409.56302521008405,333.03900445L414.29411764705884,333.21713041749996L419.02521008403363,333.4146999L423.75630252100837,333.83581761L428.4873949579832,334.139262375L433.218487394958,334.6116775975L437.9495798319328,334.9557602975L442.68067226890753,335.2134378475L447.4117647058824,335.6433795675L452.14285714285717,335.81796882000003L456.8739495798319,335.83088405999996L461.6050420168067,335.8918740475L466.33613445378154,335.912969765L471.06722689075633,336.0236113025L475.79831932773106,336.013978985L480.52941176470586,335.8805888125L485.2605042016807,335.8903495375L489.99159663865544,336.42195977250003L494.7226890756302,336.50922730999997L499.4537815126051,336.6335864475L504.1848739495798,336.7701755625L508.9159663865546,336.786743575L513.6470588235294,336.788962675L518.3781512605042,336.5280658375L523.109243697479,335.914580075L527.8403361344538,335.63180950250006L532.5714285714286,335.1830073175L537.3025210084033,334.6291802775L542.0336134453781,334.24768035999995L546.7647058823529,334.042248835L551.4957983193277,334.0130636075L556.2268907563025,333.8053997225L560.9579831932773,333.7655024625L565.6890756302521,333.56907997L570.420168067227,333.7712924025L575.1512605042018,334.17572097249996L579.8823529411765,334.321184895L584.6134453781511,334.5368443L589.344537815126,334.73443445249995L594.0756302521008,334.97502607L598.8067226890756,335.3022374675L603.5378151260504,335.40149744L608.2689075630252,335.639020765L613,336.09143938750003"></path></g><g class="fg-line postvax-cases_l2 line_s2" stroke="#dc4567" stroke-width="2px" fill="none"><path d="M50,284.4869788175L54.73109243697479,279.79071724749997L59.462184873949575,271.53945650250006L64.19327731092437,266.3043030075L68.92436974789916,260.78395886L73.65546218487395,254.07654646000003L78.38655462184873,247.06749181L83.11764705882352,242.92840679499997L87.84873949579831,237.77913984749998L92.5798319327731,229.50713441749997L97.31092436974791,220.41863502999996L102.0420168067227,211.171054935L106.77310924369749,203.46943874000002L111.50420168067227,196.40695136L116.23529411764704,189.4681532925L120.96638655462185,184.81821436250002L125.69747899159663,173.92876016999998L130.42857142857144,164.70015455L135.1596638655462,155.0023316425L139.890756302521,144.10801922000002L144.6218487394958,134.7193254575L149.3529411764706,129.63155377500001L154.08403361344537,123.47806068250003L158.8151260504202,115.78920970749999L163.54621848739495,106.83007280000001L168.27731092436977,99.20739484750001L173.00840336134453,92.20941103L177.73949579831933,86.00906782250001L182.4705882352941,81.93870201000001L187.2016806722689,81.64173160250002L191.9327731092437,75.30088930250002L196.66386554621852,69.387358205L201.39495798319325,65.12464201999998L206.12605042016807,64.76091323250002L210.85714285714286,62.35787194249997L215.58823529411765,62.58344446499999L220.31932773109241,63.3502277875L225.05042016806723,64.38523533249999L229.781512605042,66.13622418250002L234.51260504201682,68.452547445L239.2436974789916,68.73732749249999L243.97478991596637,68.89656410250002L248.7058823529412,70.5294305L253.43697478991595,73.41260326L258.16806722689074,75.24099550749999L262.89915966386553,80.22562925249997L267.6302521008404,83.2985216075L272.3613445378151,88.1322726075L277.0924369747899,94.2797840425L281.8235294117647,96.96901574999998L286.5546218487395,99.12544174250002L291.2857142857143,105.90807042000002L296.01680672268907,110.345642195L300.74789915966386,112.0354673775L305.47899159663865,115.48628520249997L310.2100840336135,117.8422330825L314.94117647058823,120.905135815L319.672268907563,124.76511342999997L324.4033613445378,143.62971489999998L329.1344537815126,142.7331693475L333.8655462184874,147.72861165L338.5966386554622,148.60028505L343.32773109243703,149.5128325625L348.05882352941177,150.70464822L352.7899159663865,150.882927165L357.5210084033613,137.9993370625L362.25210084033614,146.23355516500004L366.98319327731093,153.31462741L371.7142857142857,160.45691382750002L376.44537815126057,166.43760286L381.1764705882353,170.7077548175L385.90756302521004,174.44885779999998L390.63865546218483,179.99219183L395.3697478991597,185.91487847L400.10084033613447,190.15601436249997L404.83193277310926,194.8067804175L409.56302521008405,198.34866428249995L414.29411764705884,200.91676329L419.02521008403363,202.51253669L423.75630252100837,207.19492176749998L428.4873949579832,210.0031034425L433.218487394958,214.04910862L437.9495798319328,216.4939404575L442.68067226890753,218.01756236249997L447.4117647058824,219.0003115975L452.14285714285717,220.1187553525L456.8739495798319,223.1823064925L461.6050420168067,225.2989737725L466.33613445378154,225.9887769775L471.06722689075633,227.06960201500002L475.79831932773106,228.88646943749998L480.52941176470586,230.0112499125L485.2605042016807,230.55480448250003L489.99159663865544,233.40622181749998L494.7226890756302,234.83569330250003L499.4537815126051,235.6617002375L504.1848739495798,235.59296644249997L508.9159663865546,234.98992114249998L513.6470588235294,234.062700725L518.3781512605042,232.86296956250004L523.109243697479,228.10092422250003L527.8403361344538,225.674537435L532.5714285714286,223.3681608625L537.3025210084033,220.96888823999998L542.0336134453781,218.0697684775L546.7647058823529,216.18949209250002L551.4957983193277,216.23141647499995L556.2268907563025,215.39986533249999L560.9579831932773,213.11921176250002L565.6890756302521,212.34284019249998L570.420168067227,211.8954700225L575.1512605042018,213.6198379275L579.8823529411765,214.79877022749997L584.6134453781511,215.727808565L589.344537815126,215.79128551749997L594.0756302521008,217.84615385249998L598.8067226890756,219.63609073499998L603.5378151260504,220.5106473725L608.2689075630252,221.68010384249996L613,224.278581185"></path></g><g class="left-y-axis"><g class="y-tick"><line style="stroke-width: 0.5px; stroke:black; opacity:0.15;" x1="613" y1="355" x2="50" y2="355"></line><text style="font-family:sans-serif; font-weight:300; font-size: 0.85rem; fill:black;text-anchor: end; dominant-baseline:middle;" x="40" y="355">0</text></g><g class="y-tick"><line style="stroke-width: 0.5px; stroke:black; opacity:0.15;" x1="613" y1="290" x2="50" y2="290"></line><text style="font-family:sans-serif; font-weight:300; font-size: 0.85rem; fill:black;text-anchor: end; dominant-baseline:middle;" x="40" y="290">20</text></g><g class="y-tick"><line style="stroke-width: 0.5px; stroke:black; opacity:0.15;" x1="613" y1="225" x2="50" y2="225"></line><text style="font-family:sans-serif; font-weight:300; font-size: 0.85rem; fill:black;text-anchor: end; dominant-baseline:middle;" x="40" y="225">40</text></g><g class="y-tick"><line style="stroke-width: 0.5px; stroke:black; opacity:0.15;" x1="613" y1="160" x2="50" y2="160"></line><text style="font-family:sans-serif; font-weight:300; font-size: 0.85rem; fill:black;text-anchor: end; dominant-baseline:middle;" x="40" y="160">60</text></g><g class="y-tick"><line style="stroke-width: 0.5px; stroke:black; opacity:0.15;" x1="613" y1="94.99999999999999" x2="50" y2="94.99999999999999"></line><text style="font-family:sans-serif; font-weight:300; font-size: 0.85rem; fill:black;text-anchor: end; dominant-baseline:middle;" x="40" y="94.99999999999999">80</text></g><g class="y-tick"><line style="stroke-width: 0.5px; stroke:black; opacity:0.15;" x1="613" y1="30" x2="50" y2="30"></line><text style="font-family:sans-serif; font-weight:300; font-size: 0.85rem; fill:black;text-anchor: end; dominant-baseline:middle;" x="40" y="30">100</text></g></g><g class="date-axis" style="stroke-width: 0.5px; stroke:black;"><g class="x-tick"><text style="font-family:sans-serif; font-weight:300; font-size: 0.85rem; fill:black;text-anchor: start; dominant-baseline:hanging;" x="50" y="372">7/10/2021</text></g><g class="x-tick"></g><g class="x-tick"></g><g class="x-tick"></g><g class="x-tick"></g><g class="x-tick"></g><g class="x-tick"></g><g class="x-tick"></g><g class="x-tick"></g><g class="x-tick"></g><g class="x-tick"></g><g class="x-tick"></g><g class="x-tick"></g><g class="x-tick"></g><g class="x-tick"></g><g class="x-tick"></g><g class="x-tick"></g><g class="x-tick"></g><g class="x-tick"></g><g class="x-tick"></g><g class="x-tick"></g><g class="x-tick"></g><g class="x-tick"></g><g class="x-tick"></g><g class="x-tick"></g><g class="x-tick"></g><g class="x-tick"></g><g class="x-tick"></g><g class="x-tick"></g><g class="x-tick"></g><g class="x-tick"></g><g class="x-tick"></g><g class="x-tick"></g><g class="x-tick"></g><g class="x-tick"></g><g class="x-tick"></g><g class="x-tick"></g><g class="x-tick"></g><g class="x-tick"></g><g class="x-tick"></g><g class="x-tick"></g><g class="x-tick"></g><g class="x-tick"></g><g class="x-tick"></g><g class="x-tick"></g><g class="x-tick"></g><g class="x-tick"></g><g class="x-tick"></g><g class="x-tick"></g><g class="x-tick"></g><g class="x-tick"></g><g class="x-tick"></g><g class="x-tick"></g><g class="x-tick"></g><g class="x-tick"></g><g class="x-tick"></g><g class="x-tick"></g><g class="x-tick"></g><g class="x-tick"></g><g class="x-tick"></g><g class="x-tick"></g><g class="x-tick"></g><g class="x-tick"></g><g class="x-tick"></g><g class="x-tick"></g><g class="x-tick"></g><g class="x-tick"></g><g class="x-tick"></g><g class="x-tick"></g><g class="x-tick"></g><g class="x-tick"></g><g class="x-tick"></g><g class="x-tick"></g><g class="x-tick"></g><g class="x-tick"></g><g class="x-tick"></g><g class="x-tick"></g><g class="x-tick"></g><g class="x-tick"></g><g class="x-tick"></g><g class="x-tick"></g><g class="x-tick"></g><g class="x-tick"></g><g class="x-tick"></g><g class="x-tick"></g><g class="x-tick"></g><g class="x-tick"></g><g class="x-tick"></g><g class="x-tick"></g><g class="x-tick"></g><g class="x-tick"></g><g class="x-tick"></g><g class="x-tick"></g><g class="x-tick"></g><g class="x-tick"></g><g class="x-tick"></g><g class="x-tick"></g><g class="x-tick"></g><g class="x-tick"></g><g class="x-tick"></g><g class="x-tick"></g><g class="x-tick"></g><g class="x-tick"></g><g class="x-tick"></g><g class="x-tick"></g><g class="x-tick"></g><g class="x-tick"></g><g class="x-tick"></g><g class="x-tick"></g><g class="x-tick"></g><g class="x-tick"></g><g class="x-tick"></g><g class="x-tick"></g><g class="x-tick"></g><g class="x-tick"></g><g class="x-tick"></g><g class="x-tick"></g><g class="x-tick"></g><g class="x-tick"></g><g class="x-tick"><text style="font-family:sans-serif; font-weight:300; font-size: 0.85rem; fill:black;text-anchor: end; dominant-baseline:hanging;" x="613" y="372">11/6/2021</text></g></g></svg>