<svg about="DATA_PUBLISHED_DATE:2021-12-29,RENDER_DATE:2021-12-30" xmlns="http://www.w3.org/2000/svg" viewBox="0,0,615,400"><g transform="translate(0,0)" style="fill:#CCCCCC;"></g><g class="fg-line postvax-deaths_l1 line_s1" stroke="#1f2574" stroke-width="2px" fill="none"><path d="M50,346.78442017857145L54.73109243697479,346.94651625L59.462184873949575,346.65622625L64.19327731092437,346.97221446428574L68.92436974789916,345.77407875L73.65546218487395,345.33755035714285L78.38655462184873,345.49873410714287L83.11764705882352,346.1061916071429L87.84873949579831,344.16106428571425L92.5798319327731,343.72711035714286L97.31092436974791,341.9425307142857L102.0420168067227,341.8120432142857L106.77310924369749,342.43470839285715L111.50420168067227,341.10405625000004L116.23529411764704,339.76818785714283L120.96638655462185,339.49440785714285L125.69747899159663,338.1812685714286L130.42857142857144,337.9111564285714L135.1596638655462,337.494655L139.890756302521,336.34737946428567L144.6218487394958,335.63298767857145L149.3529411764706,335.79479357142856L154.08403361344537,335.53493517857146L158.8151260504202,335.57354749999996L163.54621848739495,335.90545142857144L168.27731092436977,336.38180392857146L173.00840336134453,335.8427821428571L177.73949579831933,337.0401007142857L182.4705882352941,336.0332507142857L187.2016806722689,336.0729842857143L191.9327731092437,336.9857676785714L196.66386554621852,337.7479391071429L201.39495798319325,336.3370444642857L206.12605042016807,335.66570589285715L210.85714285714286,334.2576851785714L215.58823529411765,335.13968875L220.31932773109241,335.1825957142857L225.05042016806723,335.0813860714286L229.781512605042,333.83257125L234.51260504201682,334.7294923214286L239.2436974789916,336.63218625L243.97478991596637,338.08024464285717L248.7058823529412,338.51970732142854L253.43697478991595,339.0947692857143L258.16806722689074,339.4162917857143L262.89915966386553,340.4360976785714L267.6302521008404,339.7580826785714L272.3613445378151,338.8097489285714L277.0924369747899,338.8335505357143L281.8235294117647,339.26781785714286L286.5546218487395,339.8590323214286L291.2857142857143,339.74760142857144L296.01680672268907,339.6362007142857L300.74789915966386,340.50169660714283L305.47899159663865,341.09068017857146L310.2100840336135,340.1364755357143L314.94117647058823,339.3145180357143L319.672268907563,339.89603124999996L324.4033613445378,339.5049007142858L329.1344537815126,339.8047851785715L333.8655462184874,340.10213232142854L338.5966386554622,341.23126589285715L343.32773109243703,342.3458719642857L348.05882352941177,343.3153725L352.7899159663865,342.6410880357143L357.5210084033613,343.7555803571429L362.25210084033614,344.73052232142857L366.98319327731093,345.2927282142857L371.7142857142857,344.62629482142853L376.44537815126057,344.77213625L381.1764705882353,344.09614785714285L385.90756302521004,344.6535669642857L390.63865546218483,344.12166267857145L395.3697478991597,343.1835223214286L400.10084033613447,343.33300375L404.83193277310926,343.07934125L409.56302521008405,342.8182803571429L414.29411764705884,343.3650882142857L419.02521008403363,343.9188325L423.75630252100837,344.60607749999997L428.4873949579832,345.15645339285714L433.218487394958,344.4932421428572L437.9495798319328,344.6415280357143L442.68067226890753,344.78305392857146L447.4117647058824,344.6524480357143L452.14285714285717,344.5296328571429L456.8739495798319,344.13769678571424L461.6050420168067,342.9425301785714L466.33613445378154,343.35601839285715L471.06722689075633,343.77200214285716L475.79831932773106,343.78005053571434L480.52941176470586,342.84968000000003L485.2605042016807,342.46319L489.99159663865544,342.0774498214286L494.7226890756302,343.2892819642857L499.4537815126051,342.90361839285714L504.1848739495798,342.9197175L508.9159663865546,343.0607280357143L513.6470588235294,343.1979616071429L518.3781512605042,342.54967017857143L523.109243697479,344.01909267857144L527.8403361344538,343.76671160714284L532.5714285714286,344.8350725L537.3025210084033,344.5850639285714L542.0336134453781,344.85550803571425L546.7647058823529,345.38623303571427L551.4957983193277,346.44910607142856L556.2268907563025,345.2751178571429L560.9579831932773,345.28464732142857L565.6890756302521,345.2933480357143L570.420168067227,345.3045489285714L575.1512605042018,345.83397625000003L579.8823529411765,345.44413178571426L584.6134453781511,345.32254L589.344537815126,346.2465869642857L594.0756302521008,346.77719357142854L598.8067226890756,345.8721382142857L603.5378151260504,346.1423571428572L608.2689075630252,345.4964382142857L613,346.1500410714286"></path></g><g class="fg-line postvax-deaths_l2 line_s2" stroke="#dc4567" stroke-width="2px" fill="none"><path d="M50,242.77726553571426L54.73109243697479,238.89581607142858L59.462184873949575,231.56301285714287L64.19327731092437,223.1263494642857L68.92436974789916,212.91529517857143L73.65546218487395,192.90249625L78.38655462184873,183.35255928571428L83.11764705882352,181.6140019642857L87.84873949579831,170.28190196428574L92.5798319327731,156.62458714285714L97.31092436974791,151.96037750000002L102.0420168067227,144.4025303571429L106.77310924369749,147.1250669642857L111.50420168067227,141.23017517857141L116.23529411764704,133.21600017857142L120.96638655462185,134.39092624999998L125.69747899159663,132.67022303571426L130.42857142857144,120.89578178571426L135.1596638655462,111.07604607142855L139.890756302521,104.84533410714285L144.6218487394958,93.70829446428571L149.3529411764706,88.99556696428574L154.08403361344537,85.58045535714288L158.8151260504202,82.47230625L163.54621848739495,80.51853625000003L168.27731092436977,71.71914267857144L173.00840336134453,64.39784910714286L177.73949579831933,72.7946535714286L182.4705882352941,62.90738517857142L187.2016806722689,53.0923039285714L191.9327731092437,51.75425803571431L196.66386554621852,46.93487714285717L201.39495798319325,52.66537928571428L206.12605042016807,51.84977553571429L210.85714285714286,47.47146607142858L215.58823529411765,56.35668285714284L220.31932773109241,54.41436214285716L225.05042016806723,58.15504250000002L229.781512605042,65.9190510714286L234.51260504201682,69.42460553571426L239.2436974789916,72.69445839285714L243.97478991596637,67.29043267857143L248.7058823529412,74.10968946428571L253.43697478991595,80.8124360714286L258.16806722689074,83.7667069642857L262.89915966386553,74.67173285714287L267.6302521008404,78.00190803571431L272.3613445378151,84.9208214285714L277.0924369747899,88.70133053571428L281.8235294117647,86.12462607142857L286.5546218487395,90.50986035714287L291.2857142857143,91.1759757142857L296.01680672268907,99.92688392857143L300.74789915966386,109.1451282142857L305.47899159663865,112.31934285714289L310.2100840336135,115.520175L314.94117647058823,122.47574374999999L319.672268907563,131.09439553571428L324.4033613445378,129.82352482142858L329.1344537815126,126.38558428571429L333.8655462184874,120.3205294642857L338.5966386554622,121.02726053571429L343.32773109243703,136.28526535714286L348.05882352941177,135.9976496428571L352.7899159663865,139.98109803571427L357.5210084033613,150.6498451785714L362.25210084033614,169.4852967857143L366.98319327731093,179.04550839285716L371.7142857142857,188.16582785714286L376.44537815126057,185.03181571428573L381.1764705882353,188.3921276785714L385.90756302521004,186.86258249999997L390.63865546218483,189.44183821428575L395.3697478991597,190.21759232142855L400.10084033613447,174.42497410714287L404.83193277310926,169.84961017857142L409.56302521008405,174.46293642857142L414.29411764705884,177.90335857142856L419.02521008403363,177.6818710714286L423.75630252100837,174.7184375L428.4873949579832,174.09242017857142L433.218487394958,192.28079446428572L437.9495798319328,196.30689214285715L442.68067226890753,193.57737500000005L447.4117647058824,195.26027607142856L452.14285714285717,193.26138910714286L456.8739495798319,193.71685107142858L461.6050420168067,193.2227442857143L466.33613445378154,196.07964053571428L471.06722689075633,193.4773307142857L475.79831932773106,195.01885214285713L480.52941176470586,188.03709767857143L485.2605042016807,188.82817785714286L489.99159663865544,184.74411642857146L494.7226890756302,186.01965089285716L499.4537815126051,177.5028355357143L504.1848739495798,179.16445607142862L508.9159663865546,185.17567L513.6470588235294,193.3773119642857L518.3781512605042,195.6682044642857L523.109243697479,201.47949L527.8403361344538,196.80927017857144L532.5714285714286,203.18532446428574L537.3025210084033,196.8310173214286L542.0336134453781,194.90071696428572L546.7647058823529,199.24357821428572L551.4957983193277,200.59706625L556.2268907563025,198.32052714285715L560.9579831932773,206.86505107142855L565.6890756302521,211.91744303571426L570.420168067227,221.06990267857145L575.1512605042018,226.9493198214286L579.8823529411765,228.83380678571427L584.6134453781511,225.08856482142858L589.344537815126,233.42253982142853L594.0756302521008,228.56691446428573L598.8067226890756,221.53944875L603.5378151260504,223.49405678571426L608.2689075630252,219.28589642857142L613,222.2843348214286"></path></g><g class="left-y-axis"><g class="y-tick"><line style="stroke-width: 0.5px; stroke:black; opacity:0.15;" x1="613" y1="355" x2="50" y2="355"></line><text style="font-family:sans-serif; font-weight:300; font-size: 0.85rem; fill:black;text-anchor: end; dominant-baseline:middle;" x="40" y="355">0</text></g><g class="y-tick"><line style="stroke-width: 0.5px; stroke:black; opacity:0.15;" x1="613" y1="308.5714285714286" x2="50" y2="308.5714285714286"></line><text style="font-family:sans-serif; font-weight:300; font-size: 0.85rem; fill:black;text-anchor: end; dominant-baseline:middle;" x="40" y="308.5714285714286">2</text></g><g class="y-tick"><line style="stroke-width: 0.5px; stroke:black; opacity:0.15;" x1="613" y1="262.14285714285717" x2="50" y2="262.14285714285717"></line><text style="font-family:sans-serif; font-weight:300; font-size: 0.85rem; fill:black;text-anchor: end; dominant-baseline:middle;" x="40" y="262.14285714285717">4</text></g><g class="y-tick"><line style="stroke-width: 0.5px; stroke:black; opacity:0.15;" x1="613" y1="215.7142857142857" x2="50" y2="215.7142857142857"></line><text style="font-family:sans-serif; font-weight:300; font-size: 0.85rem; fill:black;text-anchor: end; dominant-baseline:middle;" x="40" y="215.7142857142857">6</text></g><g class="y-tick"><line style="stroke-width: 0.5px; stroke:black; opacity:0.15;" x1="613" y1="169.2857142857143" x2="50" y2="169.2857142857143"></line><text style="font-family:sans-serif; font-weight:300; font-size: 0.85rem; fill:black;text-anchor: end; dominant-baseline:middle;" x="40" y="169.2857142857143">8</text></g><g class="y-tick"><line style="stroke-width: 0.5px; stroke:black; opacity:0.15;" x1="613" y1="122.85714285714285" x2="50" y2="122.85714285714285"></line><text style="font-family:sans-serif; font-weight:300; font-size: 0.85rem; fill:black;text-anchor: end; dominant-baseline:middle;" x="40" y="122.85714285714285">10</text></g><g class="y-tick"><line style="stroke-width: 0.5px; stroke:black; opacity:0.15;" x1="613" y1="76.42857142857144" x2="50" y2="76.42857142857144"></line><text style="font-family:sans-serif; font-weight:300; font-size: 0.85rem; fill:black;text-anchor: end; dominant-baseline:middle;" x="40" y="76.42857142857144">12</text></g><g class="y-tick"><line style="stroke-width: 0.5px; stroke:black; opacity:0.15;" x1="613" y1="30" x2="50" y2="30"></line><text style="font-family:sans-serif; font-weight:300; font-size: 0.85rem; fill:black;text-anchor: end; dominant-baseline:middle;" x="40" y="30">14</text></g></g><g class="date-axis" style="stroke-width: 0.5px; stroke:black;"><g class="x-tick"><text style="font-family:sans-serif; font-weight:300; font-size: 0.85rem; fill:black;text-anchor: start; dominant-baseline:hanging;" x="50" y="372">8/8/2021</text></g><g class="x-tick"></g><g class="x-tick"></g><g class="x-tick"></g><g class="x-tick"></g><g class="x-tick"></g><g class="x-tick"></g><g class="x-tick"></g><g class="x-tick"></g><g class="x-tick"></g><g class="x-tick"></g><g class="x-tick"></g><g class="x-tick"></g><g class="x-tick"></g><g class="x-tick"></g><g class="x-tick"></g><g class="x-tick"></g><g class="x-tick"></g><g class="x-tick"></g><g class="x-tick"></g><g class="x-tick"></g><g class="x-tick"></g><g class="x-tick"></g><g class="x-tick"></g><g class="x-tick"></g><g class="x-tick"></g><g class="x-tick"></g><g class="x-tick"></g><g class="x-tick"></g><g class="x-tick"></g><g class="x-tick"></g><g class="x-tick"></g><g class="x-tick"></g><g class="x-tick"></g><g class="x-tick"></g><g class="x-tick"></g><g class="x-tick"></g><g class="x-tick"></g><g class="x-tick"></g><g class="x-tick"></g><g class="x-tick"></g><g class="x-tick"></g><g class="x-tick"></g><g class="x-tick"></g><g class="x-tick"></g><g class="x-tick"></g><g class="x-tick"></g><g class="x-tick"></g><g class="x-tick"></g><g class="x-tick"></g><g class="x-tick"></g><g class="x-tick"></g><g class="x-tick"></g><g class="x-tick"></g><g class="x-tick"></g><g class="x-tick"></g><g class="x-tick"></g><g class="x-tick"></g><g class="x-tick"></g><g class="x-tick"></g><g class="x-tick"></g><g class="x-tick"></g><g class="x-tick"></g><g class="x-tick"></g><g class="x-tick"></g><g class="x-tick"></g><g class="x-tick"></g><g class="x-tick"></g><g class="x-tick"></g><g class="x-tick"></g><g class="x-tick"></g><g class="x-tick"></g><g class="x-tick"></g><g class="x-tick"></g><g class="x-tick"></g><g class="x-tick"></g><g class="x-tick"></g><g class="x-tick"></g><g class="x-tick"></g><g class="x-tick"></g><g class="x-tick"></g><g class="x-tick"></g><g class="x-tick"></g><g class="x-tick"></g><g class="x-tick"></g><g class="x-tick"></g><g class="x-tick"></g><g class="x-tick"></g><g class="x-tick"></g><g class="x-tick"></g><g class="x-tick"></g><g class="x-tick"></g><g class="x-tick"></g><g class="x-tick"></g><g class="x-tick"></g><g class="x-tick"></g><g class="x-tick"></g><g class="x-tick"></g><g class="x-tick"></g><g class="x-tick"></g><g class="x-tick"></g><g class="x-tick"></g><g class="x-tick"></g><g class="x-tick"></g><g class="x-tick"></g><g class="x-tick"></g><g class="x-tick"></g><g class="x-tick"></g><g class="x-tick"></g><g class="x-tick"></g><g class="x-tick"></g><g class="x-tick"></g><g class="x-tick"></g><g class="x-tick"></g><g class="x-tick"></g><g class="x-tick"></g><g class="x-tick"></g><g class="x-tick"></g><g class="x-tick"></g><g class="x-tick"><text style="font-family:sans-serif; font-weight:300; font-size: 0.85rem; fill:black;text-anchor: end; dominant-baseline:hanging;" x="613" y="372">12/5/2021</text></g></g></svg>