<svg about="DATA_PUBLISHED_DATE:2021-09-15,RENDER_DATE:2021-09-21" viewBox="0,0,615,400"><g transform="translate(0,0)" style="fill:#CCCCCC;"></g><g class="fg-line postvax-cases_l1 line_s1"><path d="M50,352.90752987999997L54.73109243697479,352.92686819249997L59.462184873949575,353.00269436499997L64.19327731092437,353.044922915L68.92436974789916,353.11210353499996L73.65546218487395,353.18019148999997L78.38655462184873,353.236093375L83.11764705882352,353.26350030000003L87.84873949579831,353.27319504999997L92.5798319327731,353.2362947775L97.31092436974791,353.18829699L102.0420168067227,353.23500498249996L106.77310924369749,353.24541587000004L111.50420168067227,353.2850189075L116.23529411764704,353.3528599925L120.96638655462185,353.39976142499995L125.69747899159663,353.4370253075L130.42857142857144,353.540005555L135.1596638655462,353.5847404725L139.890756302521,353.616775365L144.6218487394958,353.640354895L149.3529411764706,353.65415189250007L154.08403361344537,353.63872024249997L158.8151260504202,353.8083275375L163.54621848739495,353.71663600249997L168.27731092436977,353.68303867249995L173.00840336134453,353.625985995L177.73949579831933,353.61623716500003L182.4705882352941,353.5781910075L187.2016806722689,353.55088090000004L191.9327731092437,353.405540705L196.66386554621852,353.48117119499994L201.39495798319325,353.4728082625L206.12605042016807,353.4765438125L210.85714285714286,353.447499895L215.58823529411765,353.41435834500004L220.31932773109241,353.3786361325L225.05042016806723,353.36209512749997L229.781512605042,353.31638007500004L234.51260504201682,353.26400668249994L239.2436974789916,353.2241871625L243.97478991596637,353.1583791475L248.7058823529412,353.1202579475L253.43697478991595,353.00144396L258.16806722689074,352.7761972175L262.89915966386553,352.6327032175L267.6302521008404,352.53917926749995L272.3613445378151,352.37558132000004L277.0924369747899,352.2212989125L281.8235294117647,352.0673473225L286.5546218487395,351.896960645L291.2857142857143,351.610021915L296.01680672268907,351.29338468500004L300.74789915966386,350.91502651L305.47899159663865,350.571877015L310.2100840336135,350.184548255L314.94117647058823,349.89930141L319.672268907563,349.6638337425L324.4033613445378,349.1440186675L329.1344537815126,348.3463798775L333.8655462184874,347.49215020249994L338.5966386554622,346.74505616000005L343.32773109243703,345.99199037249997L348.05882352941177,345.30386257500004L352.7899159663865,344.53908693999995L357.5210084033613,343.425198255L362.25210084033614,342.385089965L366.98319327731093,341.4072041275L371.7142857142857,340.17831396500003L376.44537815126057,339.015252325L381.1764705882353,338.0731218825L385.90756302521004,337.1713618675L390.63865546218483,335.32766673500004L395.3697478991597,333.88585799L400.10084033613447,331.8723800625L404.83193277310926,330.65793465499996L409.56302521008405,329.69305548L414.29411764705884,328.79658978L419.02521008403363,327.861502185L423.75630252100837,326.4096985525L428.4873949579832,324.95657951500004L433.218487394958,323.5476593075L437.9495798319328,321.9750743L442.68067226890753,320.54242594000004L447.4117647058824,319.64350057499996L452.14285714285717,318.6840025225L456.8739495798319,317.6513017625L461.6050420168067,315.8101535575L466.33613445378154,315.00809951250005L471.06722689075633,314.12045948L475.79831932773106,313.3615714475L480.52941176470586,312.8761363025L485.2605042016807,312.5642791075L489.99159663865544,311.842602405L494.7226890756302,311.6569860975L499.4537815126051,311.599554925L504.1848739495798,311.2677197525L508.9159663865546,311.22974672000004L513.6470588235294,311.4110876525L518.3781512605042,311.96639578250006L523.109243697479,312.36968487L527.8403361344538,313.19033950999994L532.5714285714286,313.4297485175L537.3025210084033,314.4250915025L542.0336134453781,314.8123683925L546.7647058823529,315.1058292225L551.4957983193277,315.40258776250005L556.2268907563025,315.94077486000003L560.9579831932773,316.366249715L565.6890756302521,317.26008707500006L570.420168067227,317.84306836999997L575.1512605042018,318.73611832L579.8823529411765,319.3585788925L584.6134453781511,320.10108617749995L589.344537815126,321.2545037675L594.0756302521008,322.45226309L598.8067226890756,323.104343025L603.5378151260504,324.19332761L608.2689075630252,325.0624115725L613,326.070806135"></path></g><g class="fg-line postvax-cases_l2 line_s2"><path d="M50,330.131014235L54.73109243697479,330.60514259750005L59.462184873949575,331.24932324499997L64.19327731092437,331.4087351925L68.92436974789916,332.18774173249994L73.65546218487395,332.9108670575L78.38655462184873,333.41666478499997L83.11764705882352,333.760849535L87.84873949579831,334.001880325L92.5798319327731,334.7731584625L97.31092436974791,335.2262011175L102.0420168067227,335.4772994975L106.77310924369749,335.7530571875L111.50420168067227,336.05422601L116.23529411764704,336.3393064225L120.96638655462185,336.7077768625L125.69747899159663,336.85886331750004L130.42857142857144,337.03892232000004L135.1596638655462,337.270322645L139.890756302521,337.1228867525L144.6218487394958,337.17539661250004L149.3529411764706,337.197650045L154.08403361344537,337.193773965L158.8151260504202,338.63283909250003L163.54621848739495,338.02709811249997L168.27731092436977,337.55629768500006L173.00840336134453,337.2489929275L177.73949579831933,337.0773914L182.4705882352941,336.8711527375L187.2016806722689,336.83922567999997L191.9327731092437,335.5290924725L196.66386554621852,335.83525869L201.39495798319325,336.212639265L206.12605042016807,336.46608076499996L210.85714285714286,336.38791439749997L215.58823529411765,336.269257775L220.31932773109241,335.97025241250003L225.05042016806723,335.4728165125L229.781512605042,335.4938531125L234.51260504201682,334.71781028000004L239.2436974789916,334.07144069249995L243.97478991596637,333.7798685025L248.7058823529412,333.4391308975L253.43697478991595,333.2293727775L258.16806722689074,332.4614815625L262.89915966386553,331.50320333250005L267.6302521008404,331.10398357L272.3613445378151,329.98154849L277.0924369747899,328.45977772L281.8235294117647,327.266252725L286.5546218487395,325.97393657L291.2857142857143,324.3010809375L296.01680672268907,322.338739095L300.74789915966386,319.56453009250004L305.47899159663865,316.898237015L310.2100840336135,314.609477425L314.94117647058823,312.46971473499997L319.672268907563,311.1873328225L324.4033613445378,308.343308945L329.1344537815126,302.38618887999996L333.8655462184874,296.58251285250003L338.5966386554622,291.71755467L343.32773109243703,286.21278130499996L348.05882352941177,281.2847272L352.7899159663865,276.21542568999996L357.5210084033613,267.5459764275L362.25210084033614,262.11315078250004L366.98319327731093,256.3848955225L371.7142857142857,249.19565447L376.44537815126057,241.78837966L381.1764705882353,237.457099005L385.90756302521004,232.1897670325L390.63865546218483,223.4471534125L395.3697478991597,213.347115315L400.10084033613447,203.39263513L404.83193277310926,195.0309738675L409.56302521008405,187.386136895L414.29411764705884,179.784939785L419.02521008403363,174.54783915L423.75630252100837,162.515529705L428.4873949579832,152.44290366750002L433.218487394958,141.44650702250001L437.9495798319328,129.60138331000002L442.68067226890753,118.8155715525L447.4117647058824,113.18905958999999L452.14285714285717,106.52756188999997L456.8739495798319,97.87448619250002L461.6050420168067,87.554292835L466.33613445378154,79.05028661L471.06722689075633,71.05856101749998L475.79831932773106,63.82271434750001L480.52941176470586,58.95629847500001L485.2605042016807,58.716497810000014L489.99159663865544,51.63299869249999L494.7226890756302,45.009242884999985L499.4537815126051,40.07799077999998L504.1848739495798,38.83829696750003L508.9159663865546,36.06244450499999L513.6470588235294,36.164155725L518.3781512605042,37.27428146250002L523.109243697479,38.528026130000015L527.8403361344538,41.06300871000002L532.5714285714286,43.84350880250001L537.3025210084033,44.86364366500001L542.0336134453781,45.55147974249998L546.7647058823529,47.86258854249999L551.4957983193277,51.250969869999984L556.2268907563025,53.575749892499985L560.9579831932773,59.56399598749998L565.6890756302521,63.94450123999998L570.420168067227,70.22935345L575.1512605042018,78.05249345000003L579.8823529411765,82.4125348825L584.6134453781511,85.80962497500003L589.344537815126,94.84576995L594.0756302521008,100.88205253999999L598.8067226890756,106.00107966749998L603.5378151260504,111.91967192499999L608.2689075630252,118.34181167499997L613,124.14940122249999"></path></g><g class="left-y-axis"><g class="y-tick"><line style="stroke-width: 0.5px; stroke:black; opacity:0.15;" x1="613" y1="355" x2="50" y2="355"></line><text style="font-family:sans-serif; font-weight:300; font-size: 0.85rem; fill:black;text-anchor: end; dominant-baseline:middle;" x="40" y="355">0</text></g><g class="y-tick"><line style="stroke-width: 0.5px; stroke:black; opacity:0.15;" x1="613" y1="290" x2="50" y2="290"></line><text style="font-family:sans-serif; font-weight:300; font-size: 0.85rem; fill:black;text-anchor: end; dominant-baseline:middle;" x="40" y="290">20</text></g><g class="y-tick"><line style="stroke-width: 0.5px; stroke:black; opacity:0.15;" x1="613" y1="225" x2="50" y2="225"></line><text style="font-family:sans-serif; font-weight:300; font-size: 0.85rem; fill:black;text-anchor: end; dominant-baseline:middle;" x="40" y="225">40</text></g><g class="y-tick"><line style="stroke-width: 0.5px; stroke:black; opacity:0.15;" x1="613" y1="160" x2="50" y2="160"></line><text style="font-family:sans-serif; font-weight:300; font-size: 0.85rem; fill:black;text-anchor: end; dominant-baseline:middle;" x="40" y="160">60</text></g><g class="y-tick"><line style="stroke-width: 0.5px; stroke:black; opacity:0.15;" x1="613" y1="94.99999999999999" x2="50" y2="94.99999999999999"></line><text style="font-family:sans-serif; font-weight:300; font-size: 0.85rem; fill:black;text-anchor: end; dominant-baseline:middle;" x="40" y="94.99999999999999">80</text></g><g class="y-tick"><line style="stroke-width: 0.5px; stroke:black; opacity:0.15;" x1="613" y1="30" x2="50" y2="30"></line><text style="font-family:sans-serif; font-weight:300; font-size: 0.85rem; fill:black;text-anchor: end; dominant-baseline:middle;" x="40" y="30">100</text></g></g><g class="date-axis"><g class="x-tick"><text style="font-family:sans-serif; font-weight:300; font-size: 0.85rem; fill:black;text-anchor: start; dominant-baseline:hanging;" x="50" y="372">5/8/2021</text></g><g class="x-tick"></g><g class="x-tick"></g><g class="x-tick"></g><g class="x-tick"></g><g class="x-tick"></g><g class="x-tick"></g><g class="x-tick"></g><g class="x-tick"></g><g class="x-tick"></g><g class="x-tick"></g><g class="x-tick"></g><g class="x-tick"></g><g class="x-tick"></g><g class="x-tick"></g><g class="x-tick"></g><g class="x-tick"></g><g class="x-tick"></g><g class="x-tick"></g><g class="x-tick"></g><g class="x-tick"></g><g class="x-tick"></g><g class="x-tick"></g><g class="x-tick"></g><g class="x-tick"></g><g class="x-tick"></g><g class="x-tick"></g><g class="x-tick"></g><g class="x-tick"></g><g class="x-tick"></g><g class="x-tick"></g><g class="x-tick"></g><g class="x-tick"></g><g class="x-tick"></g><g class="x-tick"></g><g class="x-tick"></g><g class="x-tick"></g><g class="x-tick"></g><g class="x-tick"></g><g class="x-tick"></g><g class="x-tick"></g><g class="x-tick"></g><g class="x-tick"></g><g class="x-tick"></g><g class="x-tick"></g><g class="x-tick"></g><g class="x-tick"></g><g class="x-tick"></g><g class="x-tick"></g><g class="x-tick"></g><g class="x-tick"></g><g class="x-tick"></g><g class="x-tick"></g><g class="x-tick"></g><g class="x-tick"></g><g class="x-tick"></g><g class="x-tick"></g><g class="x-tick"></g><g class="x-tick"></g><g class="x-tick"></g><g class="x-tick"></g><g class="x-tick"></g><g class="x-tick"></g><g class="x-tick"></g><g class="x-tick"></g><g class="x-tick"></g><g class="x-tick"></g><g class="x-tick"></g><g class="x-tick"></g><g class="x-tick"></g><g class="x-tick"></g><g class="x-tick"></g><g class="x-tick"></g><g class="x-tick"></g><g class="x-tick"></g><g class="x-tick"></g><g class="x-tick"></g><g class="x-tick"></g><g class="x-tick"></g><g class="x-tick"></g><g class="x-tick"></g><g class="x-tick"></g><g class="x-tick"></g><g class="x-tick"></g><g class="x-tick"></g><g class="x-tick"></g><g class="x-tick"></g><g class="x-tick"></g><g class="x-tick"></g><g class="x-tick"></g><g class="x-tick"></g><g class="x-tick"></g><g class="x-tick"></g><g class="x-tick"></g><g class="x-tick"></g><g class="x-tick"></g><g class="x-tick"></g><g class="x-tick"></g><g class="x-tick"></g><g class="x-tick"></g><g class="x-tick"></g><g class="x-tick"></g><g class="x-tick"></g><g class="x-tick"></g><g class="x-tick"></g><g class="x-tick"></g><g class="x-tick"></g><g class="x-tick"></g><g class="x-tick"></g><g class="x-tick"></g><g class="x-tick"></g><g class="x-tick"></g><g class="x-tick"></g><g class="x-tick"></g><g class="x-tick"></g><g class="x-tick"></g><g class="x-tick"></g><g class="x-tick"></g><g class="x-tick"></g><g class="x-tick"><text style="font-family:sans-serif; font-weight:300; font-size: 0.85rem; fill:black;text-anchor: end; dominant-baseline:hanging;" x="613" y="372">9/4/2021</text></g></g></svg>