<svg about="DATA_PUBLISHED_DATE:2021-10-20,RENDER_DATE:2021-10-21" xmlns="http://www.w3.org/2000/svg" viewBox="0,0,615,400"><g transform="translate(0,0)" style="fill:#CCCCCC;"></g><g class="fg-line postvax-hospitalizations_l1 line_s1" stroke="#1f2574" stroke-width="2px" fill="none"><path d="M50,342.31500462500003L58.042857142857144,341.69916293750003L66.08571428571429,340.64646965624996L74.12857142857143,339.79506553125003L82.17142857142856,339.42444528125L90.21428571428572,338.96978125L98.25714285714287,338.52126296875L106.30000000000001,338.09134321875L114.34285714285713,337.39976353124996L122.38571428571427,337.42448140625L130.42857142857144,336.89286428125L138.47142857142856,336.80835575000003L146.5142857142857,336.30528134375L154.55714285714285,335.80777134375L162.60000000000002,335.46538546875L170.64285714285714,335.22094971875003L178.68571428571428,333.91073415625L186.72857142857143,334.02358350000003L194.77142857142854,334.1628029375L202.8142857142857,334.27222393750003L210.85714285714286,334.27629009375L218.9,334.07484778125L226.94285714285712,334.44147540625L234.9857142857143,334.3821105L243.02857142857144,333.9696928125L251.07142857142858,333.19962928125L259.1142857142857,333.19994696875L267.15714285714284,333.206317375L275.20000000000005,333.22689353125L283.2428571428572,333.21037946875L291.2857142857143,334.38646834375L299.32857142857137,334.19804512499996L307.37142857142857,334.63514046875L315.4142857142857,334.99058240625L323.45714285714286,334.6191858125L331.5,334.83160134375004L339.5428571428571,335.06079296875L347.5857142857143,334.71382053125L355.6285714285714,336.07179606249997L363.67142857142863,335.88848834375L371.7142857142857,335.8666219375L379.75714285714287,336.49724949999995L387.8,337.05671546875L395.84285714285716,337.229911625L403.88571428571424,338.57320934374997L411.92857142857144,338.31028271875L419.9714285714286,339.11306521875L428.0142857142857,339.514369125L436.0571428571429,339.78810809375L444.09999999999997,340.02092996874995L452.14285714285717,340.217856L460.18571428571425,339.71692903125L468.2285714285714,340.03551962499995L476.2714285714286,340.24500203125L484.31428571428575,340.37490575L492.35714285714283,341.24594109375L500.40000000000003,341.34053559375L508.4428571428571,341.58554009374996L516.4857142857144,342.37638981249995L524.5285714285715,342.690993875L532.5714285714286,343.54706134375L540.6142857142858,344.42624403125L548.6571428571427,344.65637896875L556.7,344.69492925000003L564.7428571428571,345.40255459375004L572.7857142857143,345.80815865625L580.8285714285714,346.75477518749994L588.8714285714285,347.1817675L596.9142857142857,347.42723796875003L604.9571428571428,347.59658409375L613,347.990060375"></path></g><g class="fg-line postvax-hospitalizations_l2 line_s2" stroke="#dc4567" stroke-width="2px" fill="none"><path d="M50,190.6169361875L58.042857142857144,182.71415128125L66.08571428571429,171.22843921875003L74.12857142857143,158.92764300000002L82.17142857142856,148.3951819375L90.21428571428572,139.158759125L98.25714285714287,131.90065153125L106.30000000000001,128.844620875L114.34285714285713,123.59264078125L122.38571428571427,116.62515753124998L130.42857142857144,106.71555693749998L138.47142857142856,98.791422375L146.5142857142857,92.5041600625L154.55714285714285,86.12871590625L162.60000000000002,78.83473440624996L170.64285714285714,78.39675100000001L178.68571428571428,72.4949809375L186.72857142857143,67.99987425L194.77142857142854,67.66286631250001L202.8142857142857,65.16402256250005L210.85714285714286,60.25848231250001L218.9,60.99762006250001L226.94285714285712,57.852613343749994L234.9857142857143,59.22342800000001L243.02857142857144,60.464442531249986L251.07142857142858,60.10411909375004L259.1142857142857,60.80814465625002L267.15714285714284,56.78646465625002L275.20000000000005,59.07150959374998L283.2428571428572,63.19542159375004L291.2857142857143,65.22412034374999L299.32857142857137,71.03884809375L307.37142857142857,71.46881699999996L315.4142857142857,74.40782978124994L323.45714285714286,85.08383278124995L331.5,85.67668965625002L339.5428571428571,87.14514162500001L347.5857142857143,90.54890278124999L355.6285714285714,93.75748234374998L363.67142857142863,97.56150456249998L371.7142857142857,101.47748115625L379.75714285714287,103.3107041875L387.8,110.2095360625L395.84285714285716,114.21538693749999L403.88571428571424,125.59537040625003L411.92857142857144,127.84190365625001L419.9714285714286,134.79772509375L428.0142857142857,141.2101185L436.0571428571429,146.17526009375L444.09999999999997,150.82325084375L452.14285714285717,156.8868079375L460.18571428571425,156.96207021875L468.2285714285714,164.89349859375L476.2714285714286,171.2334421875L484.31428571428575,177.31824696874997L492.35714285714283,182.32093662499997L500.40000000000003,187.86445106250002L508.4428571428571,191.84757184375L516.4857142857144,197.98125296875003L524.5285714285715,206.59899196875L532.5714285714286,214.30426218749997L540.6142857142858,220.38934281249996L548.6571428571427,229.4610710625L556.7,233.5833093125L564.7428571428571,239.0810174375L572.7857142857143,245.81224193749998L580.8285714285714,252.54127959375L588.8714285714285,257.58842599999997L596.9142857142857,262.41486368750003L604.9571428571428,266.17612890625L613,270.61338721875006"></path></g><g class="left-y-axis"><g class="y-tick"><line style="stroke-width: 0.5px; stroke:black; opacity:0.15;" x1="613" y1="355" x2="50" y2="355"></line><text style="font-family:sans-serif; font-weight:300; font-size: 0.85rem; fill:black;text-anchor: end; dominant-baseline:middle;" x="40" y="355">0</text></g><g class="y-tick"><line style="stroke-width: 0.5px; stroke:black; opacity:0.15;" x1="613" y1="273.75" x2="50" y2="273.75"></line><text style="font-family:sans-serif; font-weight:300; font-size: 0.85rem; fill:black;text-anchor: end; dominant-baseline:middle;" x="40" y="273.75">20</text></g><g class="y-tick"><line style="stroke-width: 0.5px; stroke:black; opacity:0.15;" x1="613" y1="192.5" x2="50" y2="192.5"></line><text style="font-family:sans-serif; font-weight:300; font-size: 0.85rem; fill:black;text-anchor: end; dominant-baseline:middle;" x="40" y="192.5">40</text></g><g class="y-tick"><line style="stroke-width: 0.5px; stroke:black; opacity:0.15;" x1="613" y1="111.25" x2="50" y2="111.25"></line><text style="font-family:sans-serif; font-weight:300; font-size: 0.85rem; fill:black;text-anchor: end; dominant-baseline:middle;" x="40" y="111.25">60</text></g><g class="y-tick"><line style="stroke-width: 0.5px; stroke:black; opacity:0.15;" x1="613" y1="30" x2="50" y2="30"></line><text style="font-family:sans-serif; font-weight:300; font-size: 0.85rem; fill:black;text-anchor: end; dominant-baseline:middle;" x="40" y="30">80</text></g></g><g class="date-axis" style="stroke-width: 0.5px; stroke:black;"><g class="x-tick"><text style="font-family:sans-serif; font-weight:300; font-size: 0.85rem; fill:black;text-anchor: start; dominant-baseline:hanging;" x="50" y="372">7/24/2021</text></g><g class="x-tick"></g><g class="x-tick"></g><g class="x-tick"></g><g class="x-tick"></g><g class="x-tick"></g><g class="x-tick"></g><g class="x-tick"></g><g class="x-tick"></g><g class="x-tick"></g><g class="x-tick"></g><g class="x-tick"></g><g class="x-tick"></g><g class="x-tick"></g><g class="x-tick"></g><g class="x-tick"></g><g class="x-tick"></g><g class="x-tick"></g><g class="x-tick"></g><g class="x-tick"></g><g class="x-tick"></g><g class="x-tick"></g><g class="x-tick"></g><g class="x-tick"></g><g class="x-tick"></g><g class="x-tick"></g><g class="x-tick"></g><g class="x-tick"></g><g class="x-tick"></g><g class="x-tick"></g><g class="x-tick"></g><g class="x-tick"></g><g class="x-tick"></g><g class="x-tick"></g><g class="x-tick"></g><g class="x-tick"></g><g class="x-tick"></g><g class="x-tick"></g><g class="x-tick"></g><g class="x-tick"></g><g class="x-tick"></g><g class="x-tick"></g><g class="x-tick"></g><g class="x-tick"></g><g class="x-tick"></g><g class="x-tick"></g><g class="x-tick"></g><g class="x-tick"></g><g class="x-tick"></g><g class="x-tick"></g><g class="x-tick"></g><g class="x-tick"></g><g class="x-tick"></g><g class="x-tick"></g><g class="x-tick"></g><g class="x-tick"></g><g class="x-tick"></g><g class="x-tick"></g><g class="x-tick"></g><g class="x-tick"></g><g class="x-tick"></g><g class="x-tick"></g><g class="x-tick"></g><g class="x-tick"></g><g class="x-tick"></g><g class="x-tick"></g><g class="x-tick"></g><g class="x-tick"></g><g class="x-tick"></g><g class="x-tick"></g><g class="x-tick"><text style="font-family:sans-serif; font-weight:300; font-size: 0.85rem; fill:black;text-anchor: end; dominant-baseline:hanging;" x="613" y="372">10/2/2021</text></g></g></svg>