<svg about="DATA_PUBLISHED_DATE:2021-12-15,RENDER_DATE:2021-12-20" xmlns="http://www.w3.org/2000/svg" viewBox="0,0,615,400"><g transform="translate(0,0)" style="fill:#CCCCCC;"></g><g class="fg-line postvax-hospitalizations_l1 line_s1" stroke="#1f2574" stroke-width="2px" fill="none"><path d="M50,335.43777410714284L54.73109243697479,334.8032937857143L59.462184873949575,334.65195985714286L64.19327731092437,334.074966L68.92436974789916,334.01960085714285L73.65546218487395,333.3512485714285L78.38655462184873,332.96540857142855L83.11764705882352,332.4413275L87.84873949579831,332.1740549285715L92.5798319327731,331.07606007142857L97.31092436974791,331.0846762857143L102.0420168067227,331.2434499285714L106.77310924369749,331.30876239285715L111.50420168067227,330.95776239285715L116.23529411764704,330.74191085714284L120.96638655462185,331.2666790714286L125.69747899159663,331.0873691428571L130.42857142857144,330.67321282142854L135.1596638655462,329.9571440357143L139.890756302521,330.1444173928571L144.6218487394958,330.2202533571429L149.3529411764706,330.09845867857143L154.08403361344537,329.9933606428571L158.8151260504202,331.28774000000004L163.54621848739495,331.0896464642857L168.27731092436977,331.45559460714287L173.00840336134453,331.70295675L177.73949579831933,331.60400307142856L182.4705882352941,332.1089639285714L187.2016806722689,332.3031593214286L191.9327731092437,331.87203521428575L196.66386554621852,333.5098258214286L201.39495798319325,333.3461010357143L206.12605042016807,333.3875891428571L210.85714285714286,333.8217515357143L215.58823529411765,334.26349292857145L220.31932773109241,334.42627382142854L225.05042016806723,335.8692185714286L229.781512605042,335.3579411071429L234.51260504201682,335.9503766428571L239.2436974789916,336.3667160357143L243.97478991596637,336.7057732142857L248.7058823529412,336.90959742857143L253.43697478991595,336.9257531785714L258.16806722689074,336.41830375L262.89915966386553,336.71613746428574L267.6302521008404,337.123804L272.3613445378151,337.10078285714286L277.0924369747899,338.087611L281.8235294117647,338.14024614285717L286.5546218487395,338.466483L291.2857142857143,339.0993160357143L296.01680672268907,339.30776639285716L300.74789915966386,340.1310433928572L305.47899159663865,340.95077371428573L310.2100840336135,340.87222632142857L314.94117647058823,340.6958850357143L319.672268907563,341.3262336785714L324.4033613445378,341.4931100357143L329.1344537815126,342.2753158571429L333.8655462184874,342.21498517857145L338.5966386554622,342.51830767857143L343.32773109243703,342.79714653571426L348.05882352941177,343.09134489285714L352.7899159663865,343.2391005714286L357.5210084033613,342.8432115714286L362.25210084033614,342.58536353571424L366.98319327731093,342.4382768928572L371.7142857142857,342.01395457142854L376.44537815126057,342.01046778571424L381.1764705882353,342.32696625L385.90756302521004,342.22407357142856L390.63865546218483,342.40259096428576L395.3697478991597,342.44788667857136L400.10084033613447,342.65824989285716L404.83193277310926,342.4301848571429L409.56302521008405,341.60342199999997L414.29411764705884,341.7521991071428L419.02521008403363,341.32248875L423.75630252100837,341.14777292857144L428.4873949579832,340.97322007142856L433.218487394958,340.8806786428571L437.9495798319328,340.16355592857144L442.68067226890753,340.4568805L447.4117647058824,340.0891077142858L452.14285714285717,339.9605381785714L456.8739495798319,339.40919982142856L461.6050420168067,339.6698739642857L466.33613445378154,339.19994903571427L471.06722689075633,340.1877814285714L475.79831932773106,340.58442117857146L480.52941176470586,340.83660725000004L485.2605042016807,341.1379235714286L489.99159663865544,342.0405015L494.7226890756302,342.3756651785714L499.4537815126051,342.46845546428574L504.1848739495798,342.58813392857144L508.9159663865546,343.2466647142857L513.6470588235294,343.38886475000004L518.3781512605042,343.42003410714284L523.109243697479,343.72689539285716L527.8403361344538,343.71273792857147L532.5714285714286,344.7113315357143L537.3025210084033,345.36185942857145L542.0336134453781,345.1354091785714L546.7647058823529,345.0890962142857L551.4957983193277,345.2523121428572L556.2268907563025,345.3699691071429L560.9579831932773,345.69887978571427L565.6890756302521,345.5237061785714L570.420168067227,345.6926959642857L575.1512605042018,346.0748978214286L579.8823529411765,346.6613895714286L584.6134453781511,346.71738242857145L589.344537815126,347.20068389285717L594.0756302521008,347.0244266428571L598.8067226890756,347.5055854285714L603.5378151260504,347.45975764285714L608.2689075630252,347.7308805357143L613,347.70889010714285"></path></g><g class="fg-line postvax-hospitalizations_l2 line_s2" stroke="#dc4567" stroke-width="2px" fill="none"><path d="M50,117.61914246428573L54.73109243697479,110.96185082142858L59.462184873949575,102.67588528571427L64.19327731092437,91.56475557142858L68.92436974789916,81.03153667857141L73.65546218487395,73.83501803571428L78.38655462184873,67.56236714285713L83.11764705882352,59.44436021428574L87.84873949579831,58.140044678571385L92.5798319327731,51.902854071428585L97.31092436974791,47.12755060714284L102.0420168067227,48.265076142857154L106.77310924369749,46.60240400000002L111.50420168067227,40.42170210714286L116.23529411764704,41.29884042857144L120.96638655462185,39.26114707142855L125.69747899159663,40.248474321428574L130.42857142857144,39.74921767857147L135.1596638655462,38.661573607142834L139.890756302521,36.889803607142795L144.6218487394958,32.81931232142858L149.3529411764706,34.59920267857146L154.08403361344537,37.37172103571426L158.8151260504202,38.04004964285713L163.54621848739495,43.65744064285714L168.27731092436977,43.50589732142857L173.00840336134453,46.06631696428569L177.73949579831933,56.18337010714283L182.4705882352941,56.13032592857141L187.2016806722689,56.955497678571376L191.9327731092437,61.09599071428572L196.66386554621852,64.13378846428571L201.39495798319325,66.59448557142856L206.12605042016807,70.75280764285716L210.85714285714286,71.21331035714286L215.58823529411765,78.78335057142856L220.31932773109241,84.96623785714286L225.05042016806723,97.44758660714285L229.781512605042,98.69297082142859L234.51260504201682,106.0851947142857L239.2436974789916,111.66760875L243.97478991596637,116.14113949999998L248.7058823529412,119.9563609285714L253.43697478991595,124.84971182142854L258.16806722689074,123.02305860714286L262.89915966386553,131.51271L267.6302521008404,137.0593805357143L272.3613445378151,143.16582039285717L277.0924369747899,147.17687335714285L281.8235294117647,152.16454621428574L286.5546218487395,155.53288196428574L291.2857142857143,159.26984896428576L296.01680672268907,164.9442746785714L300.74789915966386,169.64031342857143L305.47899159663865,174.6358587142857L310.2100840336135,183.3894347142857L314.94117647058823,184.03266403571428L319.672268907563,186.66974421428574L324.4033613445378,190.86988682142857L329.1344537815126,196.24371353571428L333.8655462184874,200.54771082142858L338.5966386554622,201.11277160714286L343.32773109243703,198.6125545L348.05882352941177,201.1009416071429L352.7899159663865,205.1641217857143L357.5210084033613,206.22275310714286L362.25210084033614,206.96969642857144L366.98319327731093,206.3451643571429L371.7142857142857,207.30462842857145L376.44537815126057,210.68168207142858L381.1764705882353,211.0938470714286L385.90756302521004,211.08113214285714L390.63865546218483,214.56526121428573L395.3697478991597,218.50494046428568L400.10084033613447,218.92963653571428L404.83193277310926,218.37008542857143L409.56302521008405,216.22087528571427L414.29411764705884,217.134298L419.02521008403363,216.38010207142858L423.75630252100837,212.14504517857142L428.4873949579832,206.4359675L433.218487394958,206.72210260714283L437.9495798319328,204.0467871071429L442.68067226890753,200.91444964285714L447.4117647058824,197.28260482142858L452.14285714285717,196.40012953571429L456.8739495798319,192.16258546428574L461.6050420168067,190.00072307142855L466.33613445378154,185.87409546428572L471.06722689075633,184.54156760714287L475.79831932773106,184.66186542857145L480.52941176470586,184.93584878571428L485.2605042016807,185.18573014285715L489.99159663865544,188.3772385L494.7226890756302,188.53127410714288L499.4537815126051,188.40454825L504.1848739495798,191.3360510357143L508.9159663865546,194.49133303571426L513.6470588235294,196.60957532142854L518.3781512605042,197.27389714285715L523.109243697479,201.6849587142857L527.8403361344538,207.2014855L532.5714285714286,213.7438422857143L537.3025210084033,216.92891982142856L542.0336134453781,218.86238753571428L546.7647058823529,218.92763917857144L551.4957983193277,223.69264617857147L556.2268907563025,227.19999975000002L560.9579831932773,229.74125692857143L565.6890756302521,231.41256339285712L570.420168067227,234.60297371428572L575.1512605042018,239.0446860357143L579.8823529411765,245.5441530357143L584.6134453781511,245.88920739285712L589.344537815126,251.01783275L594.0756302521008,252.06119L598.8067226890756,255.07359782142862L603.5378151260504,258.7747841785714L608.2689075630252,260.56126228571424L613,261.3297596071429"></path></g><g class="left-y-axis"><g class="y-tick"><line style="stroke-width: 0.5px; stroke:black; opacity:0.15;" x1="613" y1="355" x2="50" y2="355"></line><text style="font-family:sans-serif; font-weight:300; font-size: 0.85rem; fill:black;text-anchor: end; dominant-baseline:middle;" x="40" y="355">0</text></g><g class="y-tick"><line style="stroke-width: 0.5px; stroke:black; opacity:0.15;" x1="613" y1="262.14285714285717" x2="50" y2="262.14285714285717"></line><text style="font-family:sans-serif; font-weight:300; font-size: 0.85rem; fill:black;text-anchor: end; dominant-baseline:middle;" x="40" y="262.14285714285717">20</text></g><g class="y-tick"><line style="stroke-width: 0.5px; stroke:black; opacity:0.15;" x1="613" y1="169.2857142857143" x2="50" y2="169.2857142857143"></line><text style="font-family:sans-serif; font-weight:300; font-size: 0.85rem; fill:black;text-anchor: end; dominant-baseline:middle;" x="40" y="169.2857142857143">40</text></g><g class="y-tick"><line style="stroke-width: 0.5px; stroke:black; opacity:0.15;" x1="613" y1="76.42857142857144" x2="50" y2="76.42857142857144"></line><text style="font-family:sans-serif; font-weight:300; font-size: 0.85rem; fill:black;text-anchor: end; dominant-baseline:middle;" x="40" y="76.42857142857144">60</text></g></g><g class="date-axis" style="stroke-width: 0.5px; stroke:black;"><g class="x-tick"><text style="font-family:sans-serif; font-weight:300; font-size: 0.85rem; fill:black;text-anchor: start; dominant-baseline:hanging;" x="50" y="372">7/31/2021</text></g><g class="x-tick"></g><g class="x-tick"></g><g class="x-tick"></g><g class="x-tick"></g><g class="x-tick"></g><g class="x-tick"></g><g class="x-tick"></g><g class="x-tick"></g><g class="x-tick"></g><g class="x-tick"></g><g class="x-tick"></g><g class="x-tick"></g><g class="x-tick"></g><g class="x-tick"></g><g class="x-tick"></g><g class="x-tick"></g><g class="x-tick"></g><g class="x-tick"></g><g class="x-tick"></g><g class="x-tick"></g><g class="x-tick"></g><g class="x-tick"></g><g class="x-tick"></g><g class="x-tick"></g><g class="x-tick"></g><g class="x-tick"></g><g class="x-tick"></g><g class="x-tick"></g><g class="x-tick"></g><g class="x-tick"></g><g class="x-tick"></g><g class="x-tick"></g><g class="x-tick"></g><g class="x-tick"></g><g class="x-tick"></g><g class="x-tick"></g><g class="x-tick"></g><g class="x-tick"></g><g class="x-tick"></g><g class="x-tick"></g><g class="x-tick"></g><g class="x-tick"></g><g class="x-tick"></g><g class="x-tick"></g><g class="x-tick"></g><g class="x-tick"></g><g class="x-tick"></g><g class="x-tick"></g><g class="x-tick"></g><g class="x-tick"></g><g class="x-tick"></g><g class="x-tick"></g><g class="x-tick"></g><g class="x-tick"></g><g class="x-tick"></g><g class="x-tick"></g><g class="x-tick"></g><g class="x-tick"></g><g class="x-tick"></g><g class="x-tick"></g><g class="x-tick"></g><g class="x-tick"></g><g class="x-tick"></g><g class="x-tick"></g><g class="x-tick"></g><g class="x-tick"></g><g class="x-tick"></g><g class="x-tick"></g><g class="x-tick"></g><g class="x-tick"></g><g class="x-tick"></g><g class="x-tick"></g><g class="x-tick"></g><g class="x-tick"></g><g class="x-tick"></g><g class="x-tick"></g><g class="x-tick"></g><g class="x-tick"></g><g class="x-tick"></g><g class="x-tick"></g><g class="x-tick"></g><g class="x-tick"></g><g class="x-tick"></g><g class="x-tick"></g><g class="x-tick"></g><g class="x-tick"></g><g class="x-tick"></g><g class="x-tick"></g><g class="x-tick"></g><g class="x-tick"></g><g class="x-tick"></g><g class="x-tick"></g><g class="x-tick"></g><g class="x-tick"></g><g class="x-tick"></g><g class="x-tick"></g><g class="x-tick"></g><g class="x-tick"></g><g class="x-tick"></g><g class="x-tick"></g><g class="x-tick"></g><g class="x-tick"></g><g class="x-tick"></g><g class="x-tick"></g><g class="x-tick"></g><g class="x-tick"></g><g class="x-tick"></g><g class="x-tick"></g><g class="x-tick"></g><g class="x-tick"></g><g class="x-tick"></g><g class="x-tick"></g><g class="x-tick"></g><g class="x-tick"></g><g class="x-tick"></g><g class="x-tick"></g><g class="x-tick"></g><g class="x-tick"></g><g class="x-tick"><text style="font-family:sans-serif; font-weight:300; font-size: 0.85rem; fill:black;text-anchor: end; dominant-baseline:hanging;" x="613" y="372">11/27/2021</text></g></g></svg>