<svg about="DATA_PUBLISHED_DATE:2021-11-03,RENDER_DATE:2021-11-09" xmlns="http://www.w3.org/2000/svg" viewBox="0,0,615,400"><g transform="translate(0,0)" style="fill:#CCCCCC;"></g><g class="fg-line postvax-cases_l1 line_s1" stroke="#1f2574" stroke-width="2px" fill="none"><path d="M50,351.5661070916667L54.73109243697479,351.25688790000004L59.462184873949575,350.8887493861111L64.19327731092437,350.4714424888889L68.92436974789916,350.09020531944446L73.65546218487395,349.64757026944443L78.38655462184873,349.30899426111114L83.11764705882352,349.0275393861111L87.84873949579831,348.39559089722223L92.5798319327731,347.5216197472222L97.31092436974791,346.5597558861111L102.0420168067227,345.75669843611115L106.77310924369749,344.90595640833334L111.50420168067227,344.1545076944445L116.23529411764704,343.2623198972222L120.96638655462185,341.99543494166664L125.69747899159663,340.8736442861111L130.42857142857144,339.80452627222223L135.1596638655462,338.3252365916666L139.890756302521,336.99232315555554L144.6218487394958,335.9242440944445L149.3529411764706,334.9458188111111L154.08403361344537,332.9400480888889L158.8151260504202,331.25141453333333L163.54621848739495,328.9744348861111L168.27731092436977,327.69722648611116L173.00840336134453,326.66838229166666L177.73949579831933,325.63102616666663L182.4705882352941,324.56601907777775L187.2016806722689,322.9429838472222L191.9327731092437,321.3362110388889L196.66386554621852,319.707959125L201.39495798319325,317.96048626944446L206.12605042016807,316.28203344722226L210.85714285714286,315.28285554166666L215.58823529411765,314.1892697222222L220.31932773109241,312.9767513805555L225.05042016806723,310.91800486388894L229.781512605042,310.07002100277776L234.51260504201682,309.02170634722216L239.2436974789916,308.20142266944447L243.97478991596637,307.6330207444444L248.7058823529412,307.28642770833335L253.43697478991595,306.4641257083333L258.16806722689074,306.18573406666667L262.89915966386553,306.07793954722223L267.6302521008404,305.7526342277778L272.3613445378151,305.79390489444444L277.0924369747899,306.00345846666664L281.8235294117647,306.6838422833334L286.5546218487395,307.0366767638889L291.2857142857143,307.90117004722225L296.01680672268907,308.12327421666663L300.74789915966386,309.18860814722217L305.47899159663865,309.49544241666666L310.2100840336135,309.87607945555555L314.94117647058823,310.0782051888889L319.672268907563,310.8008138361111L324.4033613445378,311.33672569166663L329.1344537815126,312.2504854361111L333.8655462184874,312.8598704388889L338.5966386554622,313.80742743888885L343.32773109243703,314.4382246694444L348.05882352941177,315.12969076944444L352.7899159663865,316.1010321L357.5210084033613,317.14630201111106L362.25210084033614,317.4170137583333L366.98319327731093,318.187329625L371.7142857142857,318.5764924972222L376.44537815126057,319.1697312833333L381.1764705882353,319.67995531944445L385.90756302521004,322.2577036888889L390.63865546218483,322.0844368722222L395.3697478991597,322.9763138611111L400.10084033613447,323.11004052777776L404.83193277310926,323.7027415111111L409.56302521008405,323.6606966944445L414.29411764705884,323.54359825555554L419.02521008403363,322.3752543111111L423.75630252100837,323.9028921111111L428.4873949579832,324.8865636527778L433.218487394958,325.8131812638889L437.9495798319328,326.7031449055556L442.68067226890753,327.37876552222224L447.4117647058824,327.93487327500003L452.14285714285717,328.3708959472222L456.8739495798319,329.0853958083333L461.6050420168067,329.6517706722222L466.33613445378154,330.3571714L471.06722689075633,330.7301927138889L475.79831932773106,330.9328137833333L480.52941176470586,331.15254325L485.2605042016807,331.6185330166667L489.99159663865544,331.95585445277777L494.7226890756302,332.5659949361111L499.4537815126051,332.9003546472222L504.1848739495798,333.19119660555555L508.9159663865546,333.6831046527778L513.6470588235294,333.87039980555556L518.3781512605042,333.9161997805556L523.109243697479,334.01542885277775L527.8403361344538,334.0134836916667L532.5714285714286,334.1769952L537.3025210084033,334.170261525L542.0336134453781,334.0418595861111L546.7647058823529,334.0886329722223L551.4957983193277,334.6505864638889L556.2268907563025,334.7854395083333L560.9579831932773,334.9434004861111L565.6890756302521,335.13958911944445L570.420168067227,335.1661299555555L575.1512605042018,335.15687583333334L579.8823529411765,334.9110097222223L584.6134453781511,334.3259387277778L589.344537815126,334.1824987861111L594.0756302521008,333.82484906944444L598.8067226890756,333.4281135166667L603.5378151260504,333.39602070555554L608.2689075630252,333.5624313222222L613,334.02977204166666"></path></g><g class="fg-line postvax-cases_l2 line_s2" stroke="#dc4567" stroke-width="2px" fill="none"><path d="M50,323.79837619166665L54.73109243697479,322.0829311111111L59.462184873949575,320.1294146833334L64.19327731092437,317.24567097777776L68.92436974789916,314.4275633333333L73.65546218487395,312.08196531666664L78.38655462184873,309.9546022722222L83.11764705882352,308.6175536083333L87.84873949579831,305.62486520833335L92.5798319327731,299.2406076027778L97.31092436974791,293.10600365833335L102.0420168067227,287.95629621666666L106.77310924369749,282.11304386666666L111.50420168067227,276.86103097499995L116.23529411764704,271.59221594444443L120.96638655462185,262.4435240472222L125.69747899159663,256.5878128944444L130.42857142857144,250.4746364888889L135.1596638655462,243.06661335555555L139.890756302521,235.27522820277778L144.6218487394958,230.6945846388889L149.3529411764706,225.04163820555556L154.08403361344537,215.8106564888889L158.8151260504202,205.69601743055557L163.54621848739495,195.44332620833336L168.27731092436977,186.8562047722222L173.00840336134453,179.0446575583333L177.73949579831933,171.4030712611111L182.4705882352941,166.23390866944445L187.2016806722689,154.17681928888885L191.9327731092437,144.0687704361111L196.66386554621852,133.26723860555555L201.39495798319325,121.31257853611113L206.12605042016807,110.8211508L210.85714285714286,105.16761936666668L215.58823529411765,98.45514025277777L220.31932773109241,90.03025451944445L225.05042016806723,79.93564958055555L229.781512605042,71.5863354111111L234.51260504201682,63.775995897222224L239.2436974789916,56.94922114444441L243.97478991596637,52.43728619166663L248.7058823529412,52.05171258333331L253.43697478991595,44.96460091388889L258.16806722689074,38.609207063888874L262.89915966386553,33.939942391666676L267.6302521008404,33.531798002777755L272.3613445378151,30.91658370555553L277.0924369747899,31.147696369444475L281.8235294117647,31.972113577777773L286.5546218487395,33.02366866388888L291.2857142857143,34.83133534722221L296.01680672268907,37.2647784083333L300.74789915966386,37.61890656944445L305.47899159663865,37.70507136388889L310.2100840336135,39.469184761111094L314.94117647058823,42.741350736111094L319.672268907563,44.7972681638889L324.4033613445378,50.27672970555555L329.1344537815126,53.75300333611112L333.8655462184874,59.107059077777784L338.5966386554622,66.0279042861111L343.32773109243703,69.00785539444445L348.05882352941177,71.2985123777778L352.7899159663865,78.75428350000003L357.5210084033613,83.82545259722218L362.25210084033614,85.72657223611112L366.98319327731093,89.44112315555557L371.7142857142857,92.10651091666668L376.44537815126057,95.50567721388886L381.1764705882353,99.8355177L385.90756302521004,120.94756984444446L390.63865546218483,119.89142593888889L395.3697478991597,125.21737347777778L400.10084033613447,126.22228398611111L404.83193277310926,127.07484583333331L409.56302521008405,128.4662055722222L414.29411764705884,128.6245536972222L419.02521008403363,114.04528166666668L423.75630252100837,123.15087863611107L428.4873949579832,131.06118663333334L433.218487394958,139.0158472L437.9495798319328,145.6793290611111L442.68067226890753,150.34242209166666L447.4117647058824,154.44599689166665L452.14285714285717,161.13619064722224L456.8739495798319,167.63135432222222L461.6050420168067,172.43427441388891L466.33613445378154,177.63294935277779L471.06722689075633,181.65546579444447L475.79831932773106,184.5538620527778L480.52941176470586,186.42500672500003L485.2605042016807,191.30429983055558L489.99159663865544,194.60793194444443L494.7226890756302,199.05818200555552L499.4537815126051,201.81463379166667L504.1848739495798,203.69923631666668L508.9159663865546,204.88672767222226L513.6470588235294,206.23141921666667L518.3781512605042,209.70441717222224L523.109243697479,212.07000940555554L527.8403361344538,212.86906448055558L532.5714285714286,214.01103669722224L537.3025210084033,215.98424144444442L542.0336134453781,217.2185393361111L546.7647058823529,217.89837090555557L551.4957983193277,221.10278665833337L556.2268907563025,222.61821341388887L560.9579831932773,223.57377357500002L565.6890756302521,223.62340724999999L570.420168067227,223.10141518055553L575.1512605042018,222.42392238333335L579.8823529411765,221.43527285277779L584.6134453781511,216.87920874999998L589.344537815126,215.0810925888889L594.0756302521008,214.06269613333336L598.8067226890756,212.5656341527778L603.5378151260504,210.91584542777778L608.2689075630252,210.99408246111113L613,213.42847769999997"></path></g><g class="left-y-axis"><g class="y-tick"><line style="stroke-width: 0.5px; stroke:black; opacity:0.15;" x1="613" y1="355" x2="50" y2="355"></line><text style="font-family:sans-serif; font-weight:300; font-size: 0.85rem; fill:black;text-anchor: end; dominant-baseline:middle;" x="40" y="355">0</text></g><g class="y-tick"><line style="stroke-width: 0.5px; stroke:black; opacity:0.15;" x1="613" y1="282.7777777777778" x2="50" y2="282.7777777777778"></line><text style="font-family:sans-serif; font-weight:300; font-size: 0.85rem; fill:black;text-anchor: end; dominant-baseline:middle;" x="40" y="282.7777777777778">20</text></g><g class="y-tick"><line style="stroke-width: 0.5px; stroke:black; opacity:0.15;" x1="613" y1="210.55555555555557" x2="50" y2="210.55555555555557"></line><text style="font-family:sans-serif; font-weight:300; font-size: 0.85rem; fill:black;text-anchor: end; dominant-baseline:middle;" x="40" y="210.55555555555557">40</text></g><g class="y-tick"><line style="stroke-width: 0.5px; stroke:black; opacity:0.15;" x1="613" y1="138.33333333333334" x2="50" y2="138.33333333333334"></line><text style="font-family:sans-serif; font-weight:300; font-size: 0.85rem; fill:black;text-anchor: end; dominant-baseline:middle;" x="40" y="138.33333333333334">60</text></g><g class="y-tick"><line style="stroke-width: 0.5px; stroke:black; opacity:0.15;" x1="613" y1="66.11111111111113" x2="50" y2="66.11111111111113"></line><text style="font-family:sans-serif; font-weight:300; font-size: 0.85rem; fill:black;text-anchor: end; dominant-baseline:middle;" x="40" y="66.11111111111113">80</text></g></g><g class="date-axis" style="stroke-width: 0.5px; stroke:black;"><g class="x-tick"><text style="font-family:sans-serif; font-weight:300; font-size: 0.85rem; fill:black;text-anchor: start; dominant-baseline:hanging;" x="50" y="372">6/27/2021</text></g><g class="x-tick"></g><g class="x-tick"></g><g class="x-tick"></g><g class="x-tick"></g><g class="x-tick"></g><g class="x-tick"></g><g class="x-tick"></g><g class="x-tick"></g><g class="x-tick"></g><g class="x-tick"></g><g class="x-tick"></g><g class="x-tick"></g><g class="x-tick"></g><g class="x-tick"></g><g class="x-tick"></g><g class="x-tick"></g><g class="x-tick"></g><g class="x-tick"></g><g class="x-tick"></g><g class="x-tick"></g><g class="x-tick"></g><g class="x-tick"></g><g class="x-tick"></g><g class="x-tick"></g><g class="x-tick"></g><g class="x-tick"></g><g class="x-tick"></g><g class="x-tick"></g><g class="x-tick"></g><g class="x-tick"></g><g class="x-tick"></g><g class="x-tick"></g><g class="x-tick"></g><g class="x-tick"></g><g class="x-tick"></g><g class="x-tick"></g><g class="x-tick"></g><g class="x-tick"></g><g class="x-tick"></g><g class="x-tick"></g><g class="x-tick"></g><g class="x-tick"></g><g class="x-tick"></g><g class="x-tick"></g><g class="x-tick"></g><g class="x-tick"></g><g class="x-tick"></g><g class="x-tick"></g><g class="x-tick"></g><g class="x-tick"></g><g class="x-tick"></g><g class="x-tick"></g><g class="x-tick"></g><g class="x-tick"></g><g class="x-tick"></g><g class="x-tick"></g><g class="x-tick"></g><g class="x-tick"></g><g class="x-tick"></g><g class="x-tick"></g><g class="x-tick"></g><g class="x-tick"></g><g class="x-tick"></g><g class="x-tick"></g><g class="x-tick"></g><g class="x-tick"></g><g class="x-tick"></g><g class="x-tick"></g><g class="x-tick"></g><g class="x-tick"></g><g class="x-tick"></g><g class="x-tick"></g><g class="x-tick"></g><g class="x-tick"></g><g class="x-tick"></g><g class="x-tick"></g><g class="x-tick"></g><g class="x-tick"></g><g class="x-tick"></g><g class="x-tick"></g><g class="x-tick"></g><g class="x-tick"></g><g class="x-tick"></g><g class="x-tick"></g><g class="x-tick"></g><g class="x-tick"></g><g class="x-tick"></g><g class="x-tick"></g><g class="x-tick"></g><g class="x-tick"></g><g class="x-tick"></g><g class="x-tick"></g><g class="x-tick"></g><g class="x-tick"></g><g class="x-tick"></g><g class="x-tick"></g><g class="x-tick"></g><g class="x-tick"></g><g class="x-tick"></g><g class="x-tick"></g><g class="x-tick"></g><g class="x-tick"></g><g class="x-tick"></g><g class="x-tick"></g><g class="x-tick"></g><g class="x-tick"></g><g class="x-tick"></g><g class="x-tick"></g><g class="x-tick"></g><g class="x-tick"></g><g class="x-tick"></g><g class="x-tick"></g><g class="x-tick"></g><g class="x-tick"></g><g class="x-tick"></g><g class="x-tick"></g><g class="x-tick"></g><g class="x-tick"></g><g class="x-tick"><text style="font-family:sans-serif; font-weight:300; font-size: 0.85rem; fill:black;text-anchor: end; dominant-baseline:hanging;" x="613" y="372">10/24/2021</text></g></g></svg>