<svg about="DATA_PUBLISHED_DATE:2021-10-06,RENDER_DATE:2021-10-06" xmlns="http://www.w3.org/2000/svg" viewBox="0,0,615,400"><g transform="translate(0,0)" style="fill:#CCCCCC;"></g><g class="fg-line postvax-hospitalizations_l1 line_s1" stroke="#1f2574" stroke-width="2px" fill="none"><path d="M50,351.73936664999997L54.73109243697479,351.71563254999995L59.462184873949575,351.7705829L64.19327731092437,351.6350813L68.92436974789916,351.88350935L73.65546218487395,351.81503510000005L78.38655462184873,351.6693857L83.11764705882352,351.38364179999996L87.84873949579831,351.77860195L92.5798319327731,351.82098L97.31092436974791,352.09392280000003L102.0420168067227,352.2450296L106.77310924369749,352.45066555000005L111.50420168067227,352.64476594999996L116.23529411764704,352.6568137L120.96638655462185,352.67748305L125.69747899159663,352.48252659999997L130.42857142857144,352.39859470000005L135.1596638655462,351.83332740000003L139.890756302521,351.91906955L144.6218487394958,351.83456240000004L149.3529411764706,351.8440238L154.08403361344537,351.5496947L158.8151260504202,351.67675085L163.54621848739495,351.8011524L168.27731092436977,352.17878485000006L173.00840336134453,351.9918715L177.73949579831933,352.001511L182.4705882352941,351.95518549999997L187.2016806722689,351.85603384999996L191.9327731092437,351.9755331L196.66386554621852,351.3373553L201.39495798319325,351.25355925L206.12605042016807,351.22231635L210.85714285714286,351.03743425L215.58823529411765,351.0424633L220.31932773109241,351.0553385L225.05042016806723,350.97264875L229.781512605042,351.47755315L234.51260504201682,351.6372354L239.2436974789916,351.69953399999997L243.97478991596637,351.70923459999995L248.7058823529412,351.51995589999996L253.43697478991595,351.48232544999996L258.16806722689074,351.4950401L262.89915966386553,351.3625311L267.6302521008404,351.1826527L272.3613445378151,351.14763849999997L277.0924369747899,350.8700716L281.8235294117647,350.8733645L286.5546218487395,350.5008638L291.2857142857143,349.89818249999996L296.01680672268907,349.5800205L300.74789915966386,348.60482875L305.47899159663865,348.24575185L310.2100840336135,347.8350201L314.94117647058823,347.51287815L319.672268907563,347.52485049999996L324.4033613445378,346.8402913L329.1344537815126,345.8776309L333.8655462184874,345.47509175L338.5966386554622,344.61246439999996L343.32773109243703,344.16012745L348.05882352941177,343.60523545L352.7899159663865,342.5977764L357.5210084033613,341.88591265L362.25210084033614,340.9874508L366.98319327731093,340.50519760000003L371.7142857142857,339.98254105L376.44537815126057,339.5875783L381.1764705882353,338.9080787L385.90756302521004,337.65173855L390.63865546218483,336.81125410000004L395.3697478991597,336.47446635L400.10084033613447,336.04660385L404.83193277310926,335.80763395L409.56302521008405,335.329739L414.29411764705884,334.6592276L419.02521008403363,334.7784285L423.75630252100837,334.94559095L428.4873949579832,335.3826113L433.218487394958,334.4631876L437.9495798319328,333.68624324999996L442.68067226890753,333.3922476L447.4117647058824,332.9934596L452.14285714285717,332.5683128L456.8739495798319,332.7348298L461.6050420168067,332.81002895L466.33613445378154,333.46516525000004L471.06722689075633,333.76640905L475.79831932773106,333.51816949999994L480.52941176470586,333.9285119L485.2605042016807,333.01595675000004L489.99159663865544,332.3773155L494.7226890756302,331.82758125L499.4537815126051,332.2128434L504.1848739495798,332.47026810000006L508.9159663865546,332.8464179L513.6470588235294,333.12322105L518.3781512605042,334.65665359999997L523.109243697479,334.77452395L527.8403361344538,335.1542962L532.5714285714286,334.96278085L537.3025210084033,333.89973575L542.0336134453781,334.01121205000004L546.7647058823529,334.3744236L551.4957983193277,333.57498339999995L556.2268907563025,334.3118598L560.9579831932773,334.12919354999997L565.6890756302521,334.5566615L570.420168067227,335.4258415L575.1512605042018,336.1454123L579.8823529411765,336.20190185L584.6134453781511,337.79627515L589.344537815126,338.13133325L594.0756302521008,339.02485964999994L598.8067226890756,339.09691735L603.5378151260504,339.34759115L608.2689075630252,339.5835938L613,339.80998945000005"></path></g><g class="fg-line postvax-hospitalizations_l2 line_s2" stroke="#dc4567" stroke-width="2px" fill="none"><path d="M50,325.1996892L54.73109243697479,325.6543057L59.462184873949575,325.19541740000005L64.19327731092437,325.65872310000003L68.92436974789916,323.76592635L73.65546218487395,323.57808804999996L78.38655462184873,322.28086485L83.11764705882352,322.66015805L87.84873949579831,321.5792425L92.5798319327731,320.80246194999995L97.31092436974791,321.12971354999996L102.0420168067227,322.34497695L106.77310924369749,322.4103832L111.50420168067227,322.06720594999996L116.23529411764704,322.4757849L120.96638655462185,323.3497008L125.69747899159663,322.5335777L130.42857142857144,320.2986398L135.1596638655462,318.81856055L139.890756302521,317.77867104999996L144.6218487394958,317.4632124L149.3529411764706,317.22626075L154.08403361344537,317.2679784L158.8151260504202,317.03734735L163.54621848739495,318.55140274999997L168.27731092436977,318.90170789999996L173.00840336134453,319.06663890000004L177.73949579831933,319.1307601L182.4705882352941,318.02691775L187.2016806722689,315.77050125000005L191.9327731092437,317.1265579L196.66386554621852,315.546365L201.39495798319325,313.77775725L206.12605042016807,313.6585726L210.85714285714286,312.61190165L215.58823529411765,312.80182709999997L220.31932773109241,311.42126740000003L225.05042016806723,309.30284525L229.781512605042,309.7350296L234.51260504201682,308.59706225L239.2436974789916,306.1990257L243.97478991596637,305.84442145L248.7058823529412,303.8415043L253.43697478991595,303.8192795L258.16806722689074,302.7036702L262.89915966386553,296.78424110000003L267.6302521008404,293.33128575L272.3613445378151,290.97636175L277.0924369747899,286.02667415L281.8235294117647,283.26282995L286.5546218487395,279.9791125L291.2857142857143,271.35575620000003L296.01680672268907,265.63107555L300.74789915966386,263.64909035L305.47899159663865,258.1857604L310.2100840336135,253.8507609L314.94117647058823,248.9535257L319.672268907563,241.76835224999996L324.4033613445378,238.87242220000002L329.1344537815126,237.4253467L333.8655462184874,229.73092425000002L338.5966386554622,221.3812446L343.32773109243703,218.58418734999998L348.05882352941177,215.0394546L352.7899159663865,206.55495325000004L357.5210084033613,200.76565870000002L362.25210084033614,192.85197110000001L366.98319327731093,184.9527421L371.7142857142857,175.12222140000003L376.44537815126057,161.87867095000001L381.1764705882353,152.29595819999997L385.90756302521004,141.11652565000003L390.63865546218483,128.04346955L395.3697478991597,115.23387340000002L400.10084033613447,107.38066310000002L404.83193277310926,104.438559L409.56302521008405,103.8176465L414.29411764705884,96.62863349999998L419.02521008403363,93.32921269999997L423.75630252100837,83.55825215000002L428.4873949579832,78.31776105L433.218487394958,72.36372855000002L437.9495798319328,63.579107900000004L442.68067226890753,53.830616549999974L447.4117647058824,58.300457249999994L452.14285714285717,52.3432456L456.8739495798319,50.38380629999996L461.6050420168067,51.6379501L466.33613445378154,52.568255449999974L471.06722689075633,51.355978149999984L475.79831932773106,58.3155002L480.52941176470586,55.19316085L485.2605042016807,57.003345200000005L489.99159663865544,60.30670695000005L494.7226890756302,58.47836355000002L499.4537815126051,57.293116500000004L504.1848739495798,56.096402800000014L508.9159663865546,58.965399450000035L513.6470588235294,66.44297019999999L518.3781512605042,70.4593098L523.109243697479,74.77498675000002L527.8403361344538,80.1989527L532.5714285714286,84.2486412L537.3025210084033,93.56363910000003L542.0336134453781,94.91266339999999L546.7647058823529,96.36574360000003L551.4957983193277,98.73483825L556.2268907563025,103.71949650000002L560.9579831932773,106.82327574999997L565.6890756302521,110.09591784999999L570.420168067227,110.97638705L575.1512605042018,113.01797140000002L579.8823529411765,116.49802134999996L584.6134453781511,128.66197705000002L589.344537815126,130.19366825000003L594.0756302521008,136.03669635L598.8067226890756,144.93830855L603.5378151260504,149.7011803L608.2689075630252,156.9359104L613,161.25192730000003"></path></g><g class="left-y-axis"><g class="y-tick"><line style="stroke-width: 0.5px; stroke:black; opacity:0.15;" x1="613" y1="355" x2="50" y2="355"></line><text style="font-family:sans-serif; font-weight:300; font-size: 0.85rem; fill:black;text-anchor: end; dominant-baseline:middle;" x="40" y="355">0</text></g><g class="y-tick"><line style="stroke-width: 0.5px; stroke:black; opacity:0.15;" x1="613" y1="290" x2="50" y2="290"></line><text style="font-family:sans-serif; font-weight:300; font-size: 0.85rem; fill:black;text-anchor: end; dominant-baseline:middle;" x="40" y="290">10</text></g><g class="y-tick"><line style="stroke-width: 0.5px; stroke:black; opacity:0.15;" x1="613" y1="225" x2="50" y2="225"></line><text style="font-family:sans-serif; font-weight:300; font-size: 0.85rem; fill:black;text-anchor: end; dominant-baseline:middle;" x="40" y="225">20</text></g><g class="y-tick"><line style="stroke-width: 0.5px; stroke:black; opacity:0.15;" x1="613" y1="160" x2="50" y2="160"></line><text style="font-family:sans-serif; font-weight:300; font-size: 0.85rem; fill:black;text-anchor: end; dominant-baseline:middle;" x="40" y="160">30</text></g><g class="y-tick"><line style="stroke-width: 0.5px; stroke:black; opacity:0.15;" x1="613" y1="94.99999999999999" x2="50" y2="94.99999999999999"></line><text style="font-family:sans-serif; font-weight:300; font-size: 0.85rem; fill:black;text-anchor: end; dominant-baseline:middle;" x="40" y="94.99999999999999">40</text></g><g class="y-tick"><line style="stroke-width: 0.5px; stroke:black; opacity:0.15;" x1="613" y1="30" x2="50" y2="30"></line><text style="font-family:sans-serif; font-weight:300; font-size: 0.85rem; fill:black;text-anchor: end; dominant-baseline:middle;" x="40" y="30">50</text></g></g><g class="date-axis" style="stroke-width: 0.5px; stroke:black;"><g class="x-tick"><text style="font-family:sans-serif; font-weight:300; font-size: 0.85rem; fill:black;text-anchor: start; dominant-baseline:hanging;" x="50" y="372">5/16/2021</text></g><g class="x-tick"></g><g class="x-tick"></g><g class="x-tick"></g><g class="x-tick"></g><g class="x-tick"></g><g class="x-tick"></g><g class="x-tick"></g><g class="x-tick"></g><g class="x-tick"></g><g class="x-tick"></g><g class="x-tick"></g><g class="x-tick"></g><g class="x-tick"></g><g class="x-tick"></g><g class="x-tick"></g><g class="x-tick"></g><g class="x-tick"></g><g class="x-tick"></g><g class="x-tick"></g><g class="x-tick"></g><g class="x-tick"></g><g class="x-tick"></g><g class="x-tick"></g><g class="x-tick"></g><g class="x-tick"></g><g class="x-tick"></g><g class="x-tick"></g><g class="x-tick"></g><g class="x-tick"></g><g class="x-tick"></g><g class="x-tick"></g><g class="x-tick"></g><g class="x-tick"></g><g class="x-tick"></g><g class="x-tick"></g><g class="x-tick"></g><g class="x-tick"></g><g class="x-tick"></g><g class="x-tick"></g><g class="x-tick"></g><g class="x-tick"></g><g class="x-tick"></g><g class="x-tick"></g><g class="x-tick"></g><g class="x-tick"></g><g class="x-tick"></g><g class="x-tick"></g><g class="x-tick"></g><g class="x-tick"></g><g class="x-tick"></g><g class="x-tick"></g><g class="x-tick"></g><g class="x-tick"></g><g class="x-tick"></g><g class="x-tick"></g><g class="x-tick"></g><g class="x-tick"></g><g class="x-tick"></g><g class="x-tick"></g><g class="x-tick"></g><g class="x-tick"></g><g class="x-tick"></g><g class="x-tick"></g><g class="x-tick"></g><g class="x-tick"></g><g class="x-tick"></g><g class="x-tick"></g><g class="x-tick"></g><g class="x-tick"></g><g class="x-tick"></g><g class="x-tick"></g><g class="x-tick"></g><g class="x-tick"></g><g class="x-tick"></g><g class="x-tick"></g><g class="x-tick"></g><g class="x-tick"></g><g class="x-tick"></g><g class="x-tick"></g><g class="x-tick"></g><g class="x-tick"></g><g class="x-tick"></g><g class="x-tick"></g><g class="x-tick"></g><g class="x-tick"></g><g class="x-tick"></g><g class="x-tick"></g><g class="x-tick"></g><g class="x-tick"></g><g class="x-tick"></g><g class="x-tick"></g><g class="x-tick"></g><g class="x-tick"></g><g class="x-tick"></g><g class="x-tick"></g><g class="x-tick"></g><g class="x-tick"></g><g class="x-tick"></g><g class="x-tick"></g><g class="x-tick"></g><g class="x-tick"></g><g class="x-tick"></g><g class="x-tick"></g><g class="x-tick"></g><g class="x-tick"></g><g class="x-tick"></g><g class="x-tick"></g><g class="x-tick"></g><g class="x-tick"></g><g class="x-tick"></g><g class="x-tick"></g><g class="x-tick"></g><g class="x-tick"></g><g class="x-tick"></g><g class="x-tick"></g><g class="x-tick"></g><g class="x-tick"></g><g class="x-tick"></g><g class="x-tick"><text style="font-family:sans-serif; font-weight:300; font-size: 0.85rem; fill:black;text-anchor: end; dominant-baseline:hanging;" x="613" y="372">9/12/2021</text></g></g></svg>