<svg about="DATA_PUBLISHED_DATE:2021-12-22,RENDER_DATE:2021-12-26" xmlns="http://www.w3.org/2000/svg" viewBox="0,0,615,400"><g transform="translate(0,0)" style="fill:#CCCCCC;"></g><g class="fg-line postvax-hospitalizations_l1 line_s1" stroke="#1f2574" stroke-width="2px" fill="none"><path d="M50,334.03958232142855L54.73109243697479,333.37184335714284L59.462184873949575,332.98635064285713L64.19327731092437,332.46275057142856L68.92436974789916,332.1957287142857L73.65546218487395,331.1595873928571L78.38655462184873,331.16807592857145L83.11764705882352,331.2962898214286L87.84873949579831,331.27067564285716L92.5798319327731,330.9200958214286L97.31092436974791,330.6743206071428L102.0420168067227,331.1986426428572L106.77310924369749,330.9894930714286L111.50420168067227,330.51574242857146L116.23529411764704,329.86068217857144L120.96638655462185,330.1079245357143L125.69747899159663,330.18377396428576L130.42857142857144,330.09205664285713L135.1596638655462,329.95718442857145L139.890756302521,331.25043975L144.6218487394958,331.08240128571424L149.3529411764706,331.44804717857147L154.08403361344537,331.72490400000004L158.8151260504202,331.5963836785714L163.54621848739495,332.1008937142857L168.27731092436977,332.2949266071429L173.00840336134453,331.8347233571429L177.73949579831933,333.47106725000003L182.4705882352941,333.307589L187.2016806722689,333.3491226071429L191.9327731092437,333.84152871428574L196.66386554621852,334.25362732142855L201.39495798319325,334.44546275000005L206.12605042016807,335.8870401785714L210.85714285714286,335.40528617857143L215.58823529411765,335.96808264285715L220.31932773109241,336.4419187142857L225.05042016806723,336.7804842142857L229.781512605042,337.04165653571425L234.51260504201682,337.0576855357143L239.2436974789916,336.5504496785714L243.97478991596637,336.8477387857143L248.7058823529412,337.2261896785714L253.43697478991595,337.11730725L258.16806722689074,338.0462111071428L262.89915966386553,338.07041107142857L267.6302521008404,338.36798153571425L272.3613445378151,338.9434437142857L277.0924369747899,339.1237504642857L281.8235294117647,339.97492685714286L286.5546218487395,340.7942151785714L291.2857142857143,340.77248985714283L296.01680672268907,340.59647032142857L300.74789915966386,341.2825471785714L305.47899159663865,341.5054795357143L310.2100840336135,342.3149565714286L314.94117647058823,342.25461939285714L319.672268907563,342.58554878571425L324.4033613445378,342.80832607142855L329.1344537815126,343.1300445L333.8655462184874,343.2498580714286L338.5966386554622,342.85432564285713L343.32773109243703,342.5690141785714L348.05882352941177,342.42208957142856L352.7899159663865,342.02579153571423L357.5210084033613,342.04986289285716L362.25210084033614,342.31098785714283L366.98319327731093,342.20820242857144L371.7142857142857,342.359099L376.44537815126057,342.37698096428574L381.1764705882353,342.55986774999997L385.90756302521004,342.30481749999996L390.63865546218483,341.45171571428574L395.3697478991597,341.6005318214286L400.10084033613447,341.14405167857143L404.83193277310926,340.9969511071429L409.56302521008405,340.87715425000005L414.29411764705884,340.78481339285713L419.02521008403363,339.9869978214286L423.75630252100837,340.33451846428574L428.4873949579832,339.9942694642857L433.218487394958,339.83879039285716L437.9495798319328,339.28808810714287L442.68067226890753,339.57567782142854L447.4117647058824,339.18723596428566L452.14285714285717,340.2011514642857L456.8739495798319,340.5435835357143L461.6050420168067,340.7418005714286L466.33613445378154,341.0966727142857L471.06722689075633,341.89103725L475.79831932773106,342.17238325000005L480.52941176470586,342.1848790357143L485.2605042016807,342.33152135714283L489.99159663865544,342.8827970357143L494.7226890756302,343.05185785714286L499.4537815126051,342.97624289285716L504.1848739495798,343.28330800000003L508.9159663865546,343.16300600000005L513.6470588235294,344.1080307857143L518.3781512605042,344.75864550000006L523.109243697479,344.6925878571429L527.8403361344538,344.51388475000005L532.5714285714286,344.73024607142855L537.3025210084033,344.8484100357143L542.0336134453781,345.1776067142857L546.7647058823529,345.0296049642857L551.4957983193277,345.0933184285714L556.2268907563025,345.37045475L560.9579831932773,346.00963178571425L565.6890756302521,345.93406557142856L570.420168067227,346.2861622142857L575.1512605042018,346.08469425L579.8823529411765,346.3824290714286L584.6134453781511,346.39014317857146L589.344537815126,346.6098273928571L594.0756302521008,346.40508203571426L598.8067226890756,346.43396710714285L603.5378151260504,346.5207072857143L608.2689075630252,346.7381842857142L613,346.09321621428575"></path></g><g class="fg-line postvax-hospitalizations_l2 line_s2" stroke="#dc4567" stroke-width="2px" fill="none"><path d="M50,80.69264896428571L54.73109243697479,73.55496460714286L59.462184873949575,67.27587082142858L64.19327731092437,59.21711371428573L68.92436974789916,57.712244857142856L73.65546218487395,51.33490867857142L78.38655462184873,46.6867619285714L83.11764705882352,47.88972482142857L87.84873949579831,46.42696342857139L92.5798319327731,40.24030800000003L97.31092436974791,41.322685678571425L102.0420168067227,39.42075132142856L106.77310924369749,40.340533821428615L111.50420168067227,39.841149499999986L116.23529411764704,38.68321814285711L120.96638655462185,36.62913410714285L125.69747899159663,32.482517607142796L130.42857142857144,34.049283642857155L135.1596638655462,36.89414978571426L139.890756302521,37.56040257142858L144.6218487394958,43.17918503571432L149.3529411764706,42.95222546428574L154.08403361344537,45.511228571428546L158.8151260504202,55.70668425000004L163.54621848739495,55.65122253571428L168.27731092436977,56.62451535714284L173.00840336134453,60.84265739285715L177.73949579831933,63.882465035714304L182.4705882352941,66.34427410714284L187.2016806722689,70.50516321428572L191.9327731092437,70.73632132142856L196.66386554621852,78.38777821428569L201.39495798319325,84.34501614285713L206.12605042016807,96.98774503571427L210.85714285714286,98.15473042857141L215.58823529411765,105.78550896428574L220.31932773109241,111.05789482142856L225.05042016806723,115.53262853571428L229.781512605042,119.27019492857143L234.51260504201682,124.08740900000001L239.2436974789916,122.25636039285712L243.97478991596637,130.75055853571425L248.7058823529412,136.13655510714284L253.43697478991595,142.650317L258.16806722689074,146.9074827142857L262.89915966386553,151.8990476785714L267.6302521008404,155.2700094285714L272.3613445378151,159.01014889285713L277.0924369747899,164.77131525L281.8235294117647,169.4711736785714L286.5546218487395,174.55325439285713L291.2857142857143,183.06120932142855L296.01680672268907,183.78570210714284L300.74789915966386,186.42394485714289L305.47899159663865,190.54272557142855L310.2100840336135,195.8354466785714L314.94117647058823,200.22715032142855L319.672268907563,200.62018860714284L324.4033613445378,198.28648850000005L329.1344537815126,200.51872639285713L333.8655462184874,204.6714765714286L338.5966386554622,205.8153205714286L343.32773109243703,206.38816417857146L348.05882352941177,205.67348732142858L352.7899159663865,206.6315534285714L357.5210084033613,209.92117928571426L362.25210084033614,210.5965701428571L366.98319327731093,210.40713182142858L371.7142857142857,213.89267000000004L376.44537815126057,217.83473521428573L381.1764705882353,218.5262270357143L385.90756302521004,217.87540339285712L390.63865546218483,215.90194210714284L395.3697478991597,216.45415192857143L400.10084033613447,215.60763928571427L404.83193277310926,211.54801878571433L409.56302521008405,205.55792335714287L414.29411764705884,205.47662321428572L419.02521008403363,202.88598367857145L423.75630252100837,199.56152107142856L428.4873949579832,195.83072489285715L433.218487394958,195.13114660714285L437.9495798319328,190.42138357142858L442.68067226890753,188.43944628571424L447.4117647058824,183.83616114285715L452.14285714285717,182.21427325000002L456.8739495798319,181.94720775L461.6050420168067,182.3087456428572L466.33613445378154,182.27054142857145L471.06722689075633,184.97985657142857L475.79831932773106,184.7430755L480.52941176470586,184.41395774999998L485.2605042016807,187.24106542857146L489.99159663865544,190.28772732142858L494.7226890756302,191.91645739285713L499.4537815126051,192.5762273571429L504.1848739495798,197.1706307142857L508.9159663865546,202.0920435L513.6470588235294,207.83934442857145L518.3781512605042,210.81095035714284L523.109243697479,213.01688182142857L527.8403361344538,212.6743745357143L532.5714285714286,216.84238299999998L537.3025210084033,218.43613982142858L542.0336134453781,220.14514860714286L546.7647058823529,221.2779853214286L551.4957983193277,223.42113003571427L556.2268907563025,226.39460610714286L560.9579831932773,232.05549371428572L565.6890756302521,231.77106485714287L570.420168067227,236.2302538214286L575.1512605042018,235.56424896428572L579.8823529411765,237.67788739285712L584.6134453781511,240.37591017857147L589.344537815126,240.71535410714287L594.0756302521008,240.90443167857143L598.8067226890756,243.12284082142858L603.5378151260504,244.7032847142857L608.2689075630252,248.58719628571427L613,250.50259307142858"></path></g><g class="left-y-axis"><g class="y-tick"><line style="stroke-width: 0.5px; stroke:black; opacity:0.15;" x1="613" y1="355" x2="50" y2="355"></line><text style="font-family:sans-serif; font-weight:300; font-size: 0.85rem; fill:black;text-anchor: end; dominant-baseline:middle;" x="40" y="355">0</text></g><g class="y-tick"><line style="stroke-width: 0.5px; stroke:black; opacity:0.15;" x1="613" y1="262.14285714285717" x2="50" y2="262.14285714285717"></line><text style="font-family:sans-serif; font-weight:300; font-size: 0.85rem; fill:black;text-anchor: end; dominant-baseline:middle;" x="40" y="262.14285714285717">20</text></g><g class="y-tick"><line style="stroke-width: 0.5px; stroke:black; opacity:0.15;" x1="613" y1="169.2857142857143" x2="50" y2="169.2857142857143"></line><text style="font-family:sans-serif; font-weight:300; font-size: 0.85rem; fill:black;text-anchor: end; dominant-baseline:middle;" x="40" y="169.2857142857143">40</text></g><g class="y-tick"><line style="stroke-width: 0.5px; stroke:black; opacity:0.15;" x1="613" y1="76.42857142857144" x2="50" y2="76.42857142857144"></line><text style="font-family:sans-serif; font-weight:300; font-size: 0.85rem; fill:black;text-anchor: end; dominant-baseline:middle;" x="40" y="76.42857142857144">60</text></g></g><g class="date-axis" style="stroke-width: 0.5px; stroke:black;"><g class="x-tick"><text style="font-family:sans-serif; font-weight:300; font-size: 0.85rem; fill:black;text-anchor: start; dominant-baseline:hanging;" x="50" y="372">8/4/2021</text></g><g class="x-tick"></g><g class="x-tick"></g><g class="x-tick"></g><g class="x-tick"></g><g class="x-tick"></g><g class="x-tick"></g><g class="x-tick"></g><g class="x-tick"></g><g class="x-tick"></g><g class="x-tick"></g><g class="x-tick"></g><g class="x-tick"></g><g class="x-tick"></g><g class="x-tick"></g><g class="x-tick"></g><g class="x-tick"></g><g class="x-tick"></g><g class="x-tick"></g><g class="x-tick"></g><g class="x-tick"></g><g class="x-tick"></g><g class="x-tick"></g><g class="x-tick"></g><g class="x-tick"></g><g class="x-tick"></g><g class="x-tick"></g><g class="x-tick"></g><g class="x-tick"></g><g class="x-tick"></g><g class="x-tick"></g><g class="x-tick"></g><g class="x-tick"></g><g class="x-tick"></g><g class="x-tick"></g><g class="x-tick"></g><g class="x-tick"></g><g class="x-tick"></g><g class="x-tick"></g><g class="x-tick"></g><g class="x-tick"></g><g class="x-tick"></g><g class="x-tick"></g><g class="x-tick"></g><g class="x-tick"></g><g class="x-tick"></g><g class="x-tick"></g><g class="x-tick"></g><g class="x-tick"></g><g class="x-tick"></g><g class="x-tick"></g><g class="x-tick"></g><g class="x-tick"></g><g class="x-tick"></g><g class="x-tick"></g><g class="x-tick"></g><g class="x-tick"></g><g class="x-tick"></g><g class="x-tick"></g><g class="x-tick"></g><g class="x-tick"></g><g class="x-tick"></g><g class="x-tick"></g><g class="x-tick"></g><g class="x-tick"></g><g class="x-tick"></g><g class="x-tick"></g><g class="x-tick"></g><g class="x-tick"></g><g class="x-tick"></g><g class="x-tick"></g><g class="x-tick"></g><g class="x-tick"></g><g class="x-tick"></g><g class="x-tick"></g><g class="x-tick"></g><g class="x-tick"></g><g class="x-tick"></g><g class="x-tick"></g><g class="x-tick"></g><g class="x-tick"></g><g class="x-tick"></g><g class="x-tick"></g><g class="x-tick"></g><g class="x-tick"></g><g class="x-tick"></g><g class="x-tick"></g><g class="x-tick"></g><g class="x-tick"></g><g class="x-tick"></g><g class="x-tick"></g><g class="x-tick"></g><g class="x-tick"></g><g class="x-tick"></g><g class="x-tick"></g><g class="x-tick"></g><g class="x-tick"></g><g class="x-tick"></g><g class="x-tick"></g><g class="x-tick"></g><g class="x-tick"></g><g class="x-tick"></g><g class="x-tick"></g><g class="x-tick"></g><g class="x-tick"></g><g class="x-tick"></g><g class="x-tick"></g><g class="x-tick"></g><g class="x-tick"></g><g class="x-tick"></g><g class="x-tick"></g><g class="x-tick"></g><g class="x-tick"></g><g class="x-tick"></g><g class="x-tick"></g><g class="x-tick"></g><g class="x-tick"></g><g class="x-tick"></g><g class="x-tick"></g><g class="x-tick"><text style="font-family:sans-serif; font-weight:300; font-size: 0.85rem; fill:black;text-anchor: end; dominant-baseline:hanging;" x="613" y="372">12/1/2021</text></g></g></svg>