<svg about="DATA_PUBLISHED_DATE:2021-12-29,RENDER_DATE:2021-12-30" xmlns="http://www.w3.org/2000/svg" viewBox="0,0,615,400"><g transform="translate(0,0)" style="fill:#CCCCCC;"></g><g class="fg-line postvax-cases_l1 line_s1" stroke="#1f2574" stroke-width="2px" fill="none"><path d="M50,310.7643646166666L54.73109243697479,311.54491505833334L59.462184873949575,312.0518747222223L64.19327731092437,312.88846805555556L68.92436974789916,313.5703533361111L73.65546218487395,314.53532560555556L78.38655462184873,315.17327431666666L83.11764705882352,315.8157996777778L87.84873949579831,316.7360716277778L92.5798319327731,317.79867014166666L97.31092436974791,318.04307220000004L102.0420168067227,318.72269652777777L106.77310924369749,319.0828967361111L111.50420168067227,319.61688903333334L116.23529411764704,320.16732279166666L120.96638655462185,322.71342244444446L125.69747899159663,322.50109748888883L130.42857142857144,323.31258746111115L135.1596638655462,323.4729467222222L139.890756302521,324.05358746111114L144.6218487394958,324.05169664722223L149.3529411764706,323.8666426222222L154.08403361344537,322.64721174722223L158.8151260504202,324.1470079888889L163.54621848739495,325.1586927972222L168.27731092436977,326.1327672333333L173.00840336134453,326.97049387777776L177.73949579831933,327.65192347222217L182.4705882352941,328.23246808333334L187.2016806722689,328.6790521361111L191.9327731092437,329.38793986111114L196.66386554621852,329.9629720027778L201.39495798319325,330.5790600222222L206.12605042016807,331.024037275L210.85714285714286,331.2014244777778L215.58823529411765,331.4017251194445L220.31932773109241,331.85737194166666L225.05042016806723,332.1490789777778L229.781512605042,332.67159039722225L234.51260504201682,333.04126471666666L239.2436974789916,333.25293291944445L243.97478991596637,333.7048747416667L248.7058823529412,333.8867548888889L253.43697478991595,333.9557540138889L258.16806722689074,333.99122913611114L262.89915966386553,334.05546730000003L267.6302521008404,334.1837546583333L272.3613445378151,334.2030913638889L277.0924369747899,334.0748401166667L281.8235294117647,334.1060534416667L286.5546218487395,334.62579990555554L291.2857142857143,334.7847293472222L296.01680672268907,334.8654322277778L300.74789915966386,334.95926680555556L305.47899159663865,334.95205729444444L310.2100840336135,334.9258092472222L314.94117647058823,334.60373767777776L319.672268907563,333.90779874722216L324.4033613445378,333.57269727777776L329.1344537815126,333.0397618805556L333.8655462184874,332.46822511388893L338.5966386554622,332.0485169722222L343.32773109243703,331.79758425555553L348.05882352941177,331.74731390555553L352.7899159663865,331.55507438333336L357.5210084033613,331.48663725555554L362.25210084033614,331.31435677777773L366.98319327731093,331.4124800916667L371.7142857142857,331.70704116944444L376.44537815126057,331.75435882222223L381.1764705882353,331.84656605277775L385.90756302521004,331.7426585694445L390.63865546218483,331.82619303055554L395.3697478991597,331.84668189722225L400.10084033613447,331.7905576111111L404.83193277310926,331.7455701361111L409.56302521008405,331.8017147527778L414.29411764705884,331.8832362L419.02521008403363,332.3510510944445L423.75630252100837,332.69949684722224L428.4873949579832,333.32630098333334L433.218487394958,334.12805478611114L437.9495798319328,334.45526146388886L442.68067226890753,334.79344675L447.4117647058824,334.9415434L452.14285714285717,335.01677757777776L456.8739495798319,335.14440092499996L461.6050420168067,335.2543761944445L466.33613445378154,335.16915097500004L471.06722689075633,335.40908074444445L475.79831932773106,335.416005375L480.52941176470586,335.59365102500004L485.2605042016807,336.2327622972223L489.99159663865544,336.4850506611111L494.7226890756302,336.6359414444445L499.4537815126051,337.7889111555556L504.1848739495798,337.81692326666666L508.9159663865546,337.1955062583333L513.6470588235294,336.0648345444444L518.3781512605042,334.3030226166667L523.109243697479,333.07959323055553L527.8403361344538,331.50916748333333L532.5714285714286,329.2776824555556L537.3025210084033,328.32025943055555L542.0336134453781,328.43458211666666L546.7647058823529,329.03780649166663L551.4957983193277,329.6548388166667L556.2268907563025,330.2445524L560.9579831932773,330.97187340277776L565.6890756302521,331.19681532777776L570.420168067227,331.1525605472222L575.1512605042018,330.92345703333336L579.8823529411765,330.1275949027778L584.6134453781511,328.28270001111105L589.344537815126,325.8590970833333L594.0756302521008,322.4634971916667L598.8067226890756,318.5245192194444L603.5378151260504,314.3641122833333L608.2689075630252,310.0578625L613,305.9269564277778"></path></g><g class="fg-line postvax-cases_l2 line_s2" stroke="#dc4567" stroke-width="2px" fill="none"><path d="M50,46.665566016666695L54.73109243697479,48.5466941472222L59.462184873949575,53.07504048055553L64.19327731092437,56.38706340833335L68.92436974789916,60.83955972499998L73.65546218487395,67.10713149722224L78.38655462184873,69.86147323888889L83.11764705882352,72.25482455277775L87.84873949579831,78.7901063L92.5798319327731,83.63105893888886L97.31092436974791,85.09909134166666L102.0420168067227,89.07667837499997L106.77310924369749,91.5886052527778L111.50420168067227,94.69198301944442L116.23529411764704,98.74937033611111L120.96638655462185,120.97665178333335L125.69747899159663,119.88001266111111L130.42857142857144,125.28819108611111L135.1596638655462,126.62094501944446L139.890756302521,127.58280458333333L144.6218487394958,129.01906198888892L149.3529411764706,129.250428225L154.08403361344537,114.26910476111112L158.8151260504202,123.82651416666667L163.54621848739495,131.66868280833336L168.27731092436977,139.79883207222224L173.00840336134453,146.8556118527778L177.73949579831933,151.43569110833332L182.4705882352941,155.57882996388892L187.2016806722689,162.12231785277777L191.9327731092437,168.91919108888888L196.66386554621852,174.11638850555556L201.39495798319325,179.295737175L206.12605042016807,182.87977185L210.85714285714286,185.7029314388889L215.58823529411765,187.2808624111111L220.31932773109241,191.65738629444445L225.05042016806723,194.9137682472222L229.781512605042,199.26865937222223L234.51260504201682,201.71103148333333L239.2436974789916,203.32387355833336L243.97478991596637,204.41581314444446L248.7058823529412,205.76841461111113L253.43697478991595,209.4156428277778L258.16806722689074,211.6782164888889L262.89915966386553,212.35740206666668L267.6302521008404,213.73113153055556L272.3613445378151,215.84779178333332L277.0924369747899,216.94906305833334L281.8235294117647,217.13841336666667L286.5546218487395,220.58978755555557L291.2857142857143,221.89983388333332L296.01680672268907,222.94234013888888L300.74789915966386,222.733891025L305.47899159663865,221.72604912500003L310.2100840336135,220.6156400416667L314.94117647058823,219.77497402499998L319.672268907563,214.37955788055555L324.4033613445378,211.75241041388887L329.1344537815126,209.53375165555553L333.8655462184874,206.99791037500003L338.5966386554622,203.79743885833332L343.32773109243703,201.8078716972222L348.05882352941177,201.50800282777777L352.7899159663865,200.50724852777782L357.5210084033613,197.75130049166665L362.25210084033614,196.27937495L366.98319327731093,194.64999373333336L371.7142857142857,195.43261077777777L376.44537815126057,195.64972785833334L381.1764705882353,195.6384275722222L385.90756302521004,194.41681609166667L390.63865546218483,195.39118458055557L395.3697478991597,195.49783658055554L400.10084033613447,195.52376627222225L404.83193277310926,195.2077403888889L409.56302521008405,196.04565369166667L414.29411764705884,195.84805820555553L419.02521008403363,198.74234043333334L423.75630252100837,200.139238425L428.4873949579832,201.978362075L433.218487394958,208.4875362472222L437.9495798319328,209.8950645555555L442.68067226890753,210.42211752500003L447.4117647058824,211.47089963888888L452.14285714285717,212.13027639444442L456.8739495798319,214.65458447222224L461.6050420168067,216.65927727777776L466.33613445378154,214.85190930555555L471.06722689075633,216.46019340000004L475.79831932773106,217.08533880833335L480.52941176470586,217.84612112500002L485.2605042016807,221.56359895833333L489.99159663865544,223.02165938611108L494.7226890756302,224.2719108777778L499.4537815126051,234.30260611944445L504.1848739495798,234.3760572388889L508.9159663865546,229.85993289166663L513.6470588235294,224.5084419416667L518.3781512605042,212.43637110833333L523.109243697479,203.46514867500002L527.8403361344538,191.6534127361111L532.5714285714286,174.3252582416667L537.3025210084033,167.13436724722223L542.0336134453781,167.22026962222222L546.7647058823529,169.07218808888888L551.4957983193277,171.32888401666668L556.2268907563025,172.4826864138889L560.9579831932773,175.79747209444443L565.6890756302521,177.9095594888889L570.420168067227,178.50875624722224L575.1512605042018,178.1681666833333L579.8823529411765,177.00303605000002L584.6134453781511,173.6269779027778L589.344537815126,168.36521703333335L594.0756302521008,157.1244631222222L598.8067226890756,143.18755738333334L603.5378151260504,126.68217292499997L608.2689075630252,113.44554793611108L613,100.53237923333333"></path></g><g class="left-y-axis"><g class="y-tick"><line style="stroke-width: 0.5px; stroke:black; opacity:0.15;" x1="613" y1="355" x2="50" y2="355"></line><text style="font-family:sans-serif; font-weight:300; font-size: 0.85rem; fill:black;text-anchor: end; dominant-baseline:middle;" x="40" y="355">0</text></g><g class="y-tick"><line style="stroke-width: 0.5px; stroke:black; opacity:0.15;" x1="613" y1="282.7777777777778" x2="50" y2="282.7777777777778"></line><text style="font-family:sans-serif; font-weight:300; font-size: 0.85rem; fill:black;text-anchor: end; dominant-baseline:middle;" x="40" y="282.7777777777778">20</text></g><g class="y-tick"><line style="stroke-width: 0.5px; stroke:black; opacity:0.15;" x1="613" y1="210.55555555555557" x2="50" y2="210.55555555555557"></line><text style="font-family:sans-serif; font-weight:300; font-size: 0.85rem; fill:black;text-anchor: end; dominant-baseline:middle;" x="40" y="210.55555555555557">40</text></g><g class="y-tick"><line style="stroke-width: 0.5px; stroke:black; opacity:0.15;" x1="613" y1="138.33333333333334" x2="50" y2="138.33333333333334"></line><text style="font-family:sans-serif; font-weight:300; font-size: 0.85rem; fill:black;text-anchor: end; dominant-baseline:middle;" x="40" y="138.33333333333334">60</text></g><g class="y-tick"><line style="stroke-width: 0.5px; stroke:black; opacity:0.15;" x1="613" y1="66.11111111111113" x2="50" y2="66.11111111111113"></line><text style="font-family:sans-serif; font-weight:300; font-size: 0.85rem; fill:black;text-anchor: end; dominant-baseline:middle;" x="40" y="66.11111111111113">80</text></g></g><g class="date-axis" style="stroke-width: 0.5px; stroke:black;"><g class="x-tick"><text style="font-family:sans-serif; font-weight:300; font-size: 0.85rem; fill:black;text-anchor: start; dominant-baseline:hanging;" x="50" y="372">8/22/2021</text></g><g class="x-tick"></g><g class="x-tick"></g><g class="x-tick"></g><g class="x-tick"></g><g class="x-tick"></g><g class="x-tick"></g><g class="x-tick"></g><g class="x-tick"></g><g class="x-tick"></g><g class="x-tick"></g><g class="x-tick"></g><g class="x-tick"></g><g class="x-tick"></g><g class="x-tick"></g><g class="x-tick"></g><g class="x-tick"></g><g class="x-tick"></g><g class="x-tick"></g><g class="x-tick"></g><g class="x-tick"></g><g class="x-tick"></g><g class="x-tick"></g><g class="x-tick"></g><g class="x-tick"></g><g class="x-tick"></g><g class="x-tick"></g><g class="x-tick"></g><g class="x-tick"></g><g class="x-tick"></g><g class="x-tick"></g><g class="x-tick"></g><g class="x-tick"></g><g class="x-tick"></g><g class="x-tick"></g><g class="x-tick"></g><g class="x-tick"></g><g class="x-tick"></g><g class="x-tick"></g><g class="x-tick"></g><g class="x-tick"></g><g class="x-tick"></g><g class="x-tick"></g><g class="x-tick"></g><g class="x-tick"></g><g class="x-tick"></g><g class="x-tick"></g><g class="x-tick"></g><g class="x-tick"></g><g class="x-tick"></g><g class="x-tick"></g><g class="x-tick"></g><g class="x-tick"></g><g class="x-tick"></g><g class="x-tick"></g><g class="x-tick"></g><g class="x-tick"></g><g class="x-tick"></g><g class="x-tick"></g><g class="x-tick"></g><g class="x-tick"></g><g class="x-tick"></g><g class="x-tick"></g><g class="x-tick"></g><g class="x-tick"></g><g class="x-tick"></g><g class="x-tick"></g><g class="x-tick"></g><g class="x-tick"></g><g class="x-tick"></g><g class="x-tick"></g><g class="x-tick"></g><g class="x-tick"></g><g class="x-tick"></g><g class="x-tick"></g><g class="x-tick"></g><g class="x-tick"></g><g class="x-tick"></g><g class="x-tick"></g><g class="x-tick"></g><g class="x-tick"></g><g class="x-tick"></g><g class="x-tick"></g><g class="x-tick"></g><g class="x-tick"></g><g class="x-tick"></g><g class="x-tick"></g><g class="x-tick"></g><g class="x-tick"></g><g class="x-tick"></g><g class="x-tick"></g><g class="x-tick"></g><g class="x-tick"></g><g class="x-tick"></g><g class="x-tick"></g><g class="x-tick"></g><g class="x-tick"></g><g class="x-tick"></g><g class="x-tick"></g><g class="x-tick"></g><g class="x-tick"></g><g class="x-tick"></g><g class="x-tick"></g><g class="x-tick"></g><g class="x-tick"></g><g class="x-tick"></g><g class="x-tick"></g><g class="x-tick"></g><g class="x-tick"></g><g class="x-tick"></g><g class="x-tick"></g><g class="x-tick"></g><g class="x-tick"></g><g class="x-tick"></g><g class="x-tick"></g><g class="x-tick"></g><g class="x-tick"></g><g class="x-tick"></g><g class="x-tick"></g><g class="x-tick"><text style="font-family:sans-serif; font-weight:300; font-size: 0.85rem; fill:black;text-anchor: end; dominant-baseline:hanging;" x="613" y="372">12/19/2021</text></g></g></svg>