<svg about="DATA_PUBLISHED_DATE:2021-11-03,RENDER_DATE:2021-11-09" xmlns="http://www.w3.org/2000/svg" viewBox="0,0,615,400"><g transform="translate(0,0)" style="fill:#CCCCCC;"></g><g class="fg-line postvax-hospitalizations_l1 line_s1" stroke="#1f2574" stroke-width="2px" fill="none"><path d="M50,342.21393571874995L56.62352941176471,341.570471875L63.24705882352941,340.43433159375L69.87058823529412,339.584123875L76.49411764705881,339.18611425L83.11764705882352,338.676116125L89.74117647058824,338.172605L96.36470588235295,337.68755834374997L102.98823529411766,336.91291718750006L109.61176470588236,336.9383785L116.23529411764704,336.46397396875L122.85882352941178,336.38034659375006L129.4823529411765,335.82279121874996L136.1058823529412,335.410027L142.7294117647059,335.20721075L149.3529411764706,335.10187134375L155.9764705882353,333.87628659374997L162.60000000000002,333.96148940625L169.2235294117647,334.0731581875L175.84705882352944,334.29313565625L182.4705882352941,334.13194540625L189.09411764705885,333.82075912500005L195.71764705882356,334.18714950000003L202.3411764705882,334.12818150000004L208.96470588235294,333.634160375L215.58823529411765,332.89282196874996L222.2117647058824,332.92097387499996L228.83529411764707,333.00989875L235.45882352941177,333.030689L242.08235294117648,332.95969803125L248.7058823529412,334.02593325000004L255.32941176470587,333.86558068749997L261.9529411764706,334.32995815625L268.5764705882353,334.57690778125004L275.20000000000005,334.23382518750003L281.8235294117647,334.33819121875L288.4470588235294,334.51336296875L295.0705882352941,334.1677006875L301.6941176470588,335.57924028124995L308.3176470588235,335.28939675L314.94117647058823,335.2955676875L321.56470588235294,335.71223271875L328.1882352941177,336.35254203125L334.8117647058823,336.499279125L341.4352941176471,337.92271778125L348.05882352941177,337.60800646875003L354.6823529411764,338.35797890625L361.30588235294124,338.73371099999997L367.9294117647059,339.14157503125L374.55294117647054,339.26914321875L381.1764705882353,339.41352121875L387.8,338.9940124375L394.4235294117648,339.1819534375L401.0470588235294,339.3929255625L407.67058823529413,339.36670659375005L414.29411764705884,340.16058125L420.91764705882355,340.20415725000004L427.54117647058825,340.4235623125L434.16470588235296,340.92624428125L440.78823529411767,341.1917550625L447.4117647058824,342.04968153125L454.0352941176471,342.77453959375003L460.65882352941173,342.80049368749997L467.2823529411765,342.78954403125L473.9058823529412,343.41995953125L480.52941176470586,343.54429925L487.1529411764706,344.41639734374996L493.77647058823527,344.43466925L500.40000000000003,344.81335559375003L507.02352941176474,344.96217715625L513.6470588235294,345.1786600625L520.2705882352941,345.36457428125L526.8941176470588,345.277937L533.5176470588234,345.19009315625L540.1411764705882,345.2805556875L546.7647058823529,345.01311034375L553.3882352941176,345.2583159375L560.0117647058823,345.67353715625L566.635294117647,345.6528765L573.2588235294118,346.16959074999994L579.8823529411765,346.35857946875007L586.5058823529412,346.851162875L593.1294117647059,347.34258846875L599.7529411764705,347.30321553125L606.3764705882354,347.6369974375L613,347.7665521875"></path></g><g class="fg-line postvax-hospitalizations_l2 line_s2" stroke="#dc4567" stroke-width="2px" fill="none"><path d="M50,188.64501778125L56.62352941176471,180.85630259375L63.24705882352941,169.85259153125L69.87058823529412,157.7221294375L76.49411764705881,146.98405021875L83.11764705882352,137.5425073125L89.74117647058824,129.95137465625L96.36470588235295,126.94758165625001L102.98823529411766,121.36759328125001L109.61176470588236,113.93407953125L116.23529411764704,103.805823L122.85882352941178,95.21176390625001L129.4823529411765,88.70536993750005L136.1058823529412,82.43110599999999L142.7294117647059,75.11357134375004L149.3529411764706,74.20989096875L155.9764705882353,68.27944250000004L162.60000000000002,63.35632746875001L169.2235294117647,63.84807562500001L175.84705882352944,62.117723218749965L182.4705882352941,57.31227565625L189.09411764705885,58.172705437499985L195.71764705882356,55.42009843749999L202.3411764705882,56.71033787499999L208.96470588235294,58.07377340624997L215.58823529411765,57.3569570625L222.2117647058824,56.66990421874996L228.83529411764707,52.19849003124998L235.45882352941177,54.39882656250002L242.08235294117648,57.82132031250002L248.7058823529412,59.33305821875003L255.32941176470587,64.55994790624996L261.9529411764706,64.60086703124995L268.5764705882353,67.28937184374999L275.20000000000005,77.78895265625L281.8235294117647,77.99332646874998L288.4470588235294,79.590866L295.0705882352941,83.39279806249996L301.6941176470588,85.98046471875006L308.3176470588235,88.93982412500002L314.94117647058823,92.29523625000004L321.56470588235294,93.18028721874998L328.1882352941177,99.45675303124999L334.8117647058823,103.81872387500002L341.4352941176471,114.17870134374998L348.05882352941177,115.90952621875L354.6823529411764,121.89637559375001L361.30588235294124,127.71103184374999L367.9294117647059,131.521164875L374.55294117647054,136.27866275L381.1764705882353,141.5476155625L387.8,140.99416453125L394.4235294117648,149.009369375L401.0470588235294,155.34398215624998L407.67058823529413,161.35002196875L414.29411764705884,166.10343906249997L420.91764705882355,170.01219090625L427.54117647058825,173.40721484374998L434.16470588235296,177.3772519375L440.78823529411767,183.19017796875L447.4117647058824,187.97856059375L454.0352941176471,193.14034303124998L460.65882352941173,201.0319869375L467.2823529411765,203.20286221875L473.9058823529412,206.45431171875L480.52941176470586,211.99676584375L487.1529411764706,217.94676671874998L493.77647058823527,223.5273851875L500.40000000000003,225.32048615625L507.02352941176474,225.5921833125L513.6470588235294,228.34610371875002L520.2705882352941,233.25438940624997L526.8941176470588,237.65061403125003L533.5176470588234,240.75381234374998L540.1411764705882,241.8635195625L546.7647058823529,245.36896590625003L553.3882352941176,250.52781521875002L560.0117647058823,253.6018126875L566.635294117647,256.037537375L573.2588235294118,261.7346005L579.8823529411765,266.78000409375L586.5058823529412,270.75439456249995L593.1294117647059,275.10882865625L599.7529411764705,277.21494971875L606.3764705882354,282.379440625L613,285.9581561875"></path></g><g class="left-y-axis"><g class="y-tick"><line style="stroke-width: 0.5px; stroke:black; opacity:0.15;" x1="613" y1="355" x2="50" y2="355"></line><text style="font-family:sans-serif; font-weight:300; font-size: 0.85rem; fill:black;text-anchor: end; dominant-baseline:middle;" x="40" y="355">0</text></g><g class="y-tick"><line style="stroke-width: 0.5px; stroke:black; opacity:0.15;" x1="613" y1="273.75" x2="50" y2="273.75"></line><text style="font-family:sans-serif; font-weight:300; font-size: 0.85rem; fill:black;text-anchor: end; dominant-baseline:middle;" x="40" y="273.75">20</text></g><g class="y-tick"><line style="stroke-width: 0.5px; stroke:black; opacity:0.15;" x1="613" y1="192.5" x2="50" y2="192.5"></line><text style="font-family:sans-serif; font-weight:300; font-size: 0.85rem; fill:black;text-anchor: end; dominant-baseline:middle;" x="40" y="192.5">40</text></g><g class="y-tick"><line style="stroke-width: 0.5px; stroke:black; opacity:0.15;" x1="613" y1="111.25" x2="50" y2="111.25"></line><text style="font-family:sans-serif; font-weight:300; font-size: 0.85rem; fill:black;text-anchor: end; dominant-baseline:middle;" x="40" y="111.25">60</text></g><g class="y-tick"><line style="stroke-width: 0.5px; stroke:black; opacity:0.15;" x1="613" y1="30" x2="50" y2="30"></line><text style="font-family:sans-serif; font-weight:300; font-size: 0.85rem; fill:black;text-anchor: end; dominant-baseline:middle;" x="40" y="30">80</text></g></g><g class="date-axis" style="stroke-width: 0.5px; stroke:black;"><g class="x-tick"><text style="font-family:sans-serif; font-weight:300; font-size: 0.85rem; fill:black;text-anchor: start; dominant-baseline:hanging;" x="50" y="372">7/24/2021</text></g><g class="x-tick"></g><g class="x-tick"></g><g class="x-tick"></g><g class="x-tick"></g><g class="x-tick"></g><g class="x-tick"></g><g class="x-tick"></g><g class="x-tick"></g><g class="x-tick"></g><g class="x-tick"></g><g class="x-tick"></g><g class="x-tick"></g><g class="x-tick"></g><g class="x-tick"></g><g class="x-tick"></g><g class="x-tick"></g><g class="x-tick"></g><g class="x-tick"></g><g class="x-tick"></g><g class="x-tick"></g><g class="x-tick"></g><g class="x-tick"></g><g class="x-tick"></g><g class="x-tick"></g><g class="x-tick"></g><g class="x-tick"></g><g class="x-tick"></g><g class="x-tick"></g><g class="x-tick"></g><g class="x-tick"></g><g class="x-tick"></g><g class="x-tick"></g><g class="x-tick"></g><g class="x-tick"></g><g class="x-tick"></g><g class="x-tick"></g><g class="x-tick"></g><g class="x-tick"></g><g class="x-tick"></g><g class="x-tick"></g><g class="x-tick"></g><g class="x-tick"></g><g class="x-tick"></g><g class="x-tick"></g><g class="x-tick"></g><g class="x-tick"></g><g class="x-tick"></g><g class="x-tick"></g><g class="x-tick"></g><g class="x-tick"></g><g class="x-tick"></g><g class="x-tick"></g><g class="x-tick"></g><g class="x-tick"></g><g class="x-tick"></g><g class="x-tick"></g><g class="x-tick"></g><g class="x-tick"></g><g class="x-tick"></g><g class="x-tick"></g><g class="x-tick"></g><g class="x-tick"></g><g class="x-tick"></g><g class="x-tick"></g><g class="x-tick"></g><g class="x-tick"></g><g class="x-tick"></g><g class="x-tick"></g><g class="x-tick"></g><g class="x-tick"></g><g class="x-tick"></g><g class="x-tick"></g><g class="x-tick"></g><g class="x-tick"></g><g class="x-tick"></g><g class="x-tick"></g><g class="x-tick"></g><g class="x-tick"></g><g class="x-tick"></g><g class="x-tick"></g><g class="x-tick"></g><g class="x-tick"></g><g class="x-tick"></g><g class="x-tick"></g><g class="x-tick"><text style="font-family:sans-serif; font-weight:300; font-size: 0.85rem; fill:black;text-anchor: end; dominant-baseline:hanging;" x="613" y="372">10/17/2021</text></g></g></svg>