<svg about="DATA_PUBLISHED_DATE:2021-12-15,RENDER_DATE:2021-12-18" xmlns="http://www.w3.org/2000/svg" viewBox="0,0,615,400"><g transform="translate(0,0)" style="fill:#CCCCCC;"></g><g class="fg-line postvax-deaths_l1 line_s1" stroke="#1f2574" stroke-width="2px" fill="none"><path d="M50,351.1052092857143L54.73109243697479,350.4847982142858L59.462184873949575,350.3378239285714L64.19327731092437,349.88122678571426L68.92436974789916,349.42600625L73.65546218487395,349.59041446428574L78.38655462184873,349.44741214285716L83.11764705882352,349.1467360714286L87.84873949579831,348.996405L92.5798319327731,348.5451842857143L97.31092436974791,348.4033983928571L102.0420168067227,348.1086280357143L106.77310924369749,347.9672135714286L111.50420168067227,347.8280764285714L116.23529411764704,347.5312492857143L120.96638655462185,346.7716894642857L125.69747899159663,346.9340408928572L130.42857142857144,346.64331214285716L135.1596638655462,347.11149089285715L139.890756302521,345.9112891071428L144.6218487394958,345.4738298214286L149.3529411764706,345.63510875L154.08403361344537,346.24343214285716L158.8151260504202,344.29510124999996L163.54621848739495,343.8602582142857L168.27731092436977,341.9223969642857L173.00840336134453,341.7917191071428L177.73949579831933,342.26554821428573L182.4705882352941,340.93302267857143L187.2016806722689,339.59519267857144L191.9327731092437,339.3212385714286L196.66386554621852,338.0063582142857L201.39495798319325,337.73608821428576L206.12605042016807,337.31920839285715L210.85714285714286,336.31878642857146L215.58823529411765,335.60332678571433L220.31932773109241,335.76539035714285L225.05042016806723,335.50516285714286L229.781512605042,335.543875L234.51260504201682,335.87631285714286L239.2436974789916,336.3534221428572L243.97478991596637,335.81362035714284L248.7058823529412,337.01276125000004L253.43697478991595,336.00437214285716L258.16806722689074,336.0441939285714L262.89915966386553,336.95840499999997L267.6302521008404,337.72176035714284L272.3613445378151,336.30875785714284L277.0924369747899,335.78094625L281.8235294117647,334.3705925L286.5546218487395,335.2538125L291.2857142857143,335.4403207142857L296.01680672268907,335.19487375L300.74789915966386,334.08714375L305.47899159663865,334.9849005357143L310.2100840336135,336.74716892857145L314.94117647058823,338.19720517857144L319.672268907563,338.63722499999994L324.4033613445378,339.07087249999995L329.1344537815126,339.6766608928571L333.8655462184874,340.5558694642857L338.5966386554622,340.0179271428571L343.32773109243703,339.06748089285713L348.05882352941177,339.09089482142855L352.7899159663865,339.52557303571433L357.5210084033613,340.25755196428577L362.25210084033614,340.0050525L366.98319327731093,339.89298089285717L371.7142857142857,340.61952767857144L376.44537815126057,341.06980125L381.1764705882353,340.11418053571424L385.90756302521004,339.29099732142856L390.63865546218483,339.7346269642857L395.3697478991597,339.34314821428575L400.10084033613447,339.64370821428565L404.83193277310926,339.94171232142855L409.56302521008405,341.21068875L414.29411764705884,342.32696625L419.02521008403363,343.29791303571426L423.75630252100837,342.62263267857145L428.4873949579832,343.73880339285716L433.218487394958,344.71520785714284L437.9495798319328,345.27824714285714L442.68067226890753,344.6108178571428L447.4117647058824,344.75685428571427L452.14285714285717,343.9433282142857L456.8739495798319,344.6380969642857L461.6050420168067,344.2415969642857L466.33613445378154,343.4379346428571L471.06722689075633,343.723215L475.79831932773106,343.4686076785714L480.52941176470586,343.20683875L485.2605042016807,343.88976589285716L489.99159663865544,344.3083914285714L494.7226890756302,344.8610283928572L499.4537815126051,345.27689142857145L504.1848739495798,344.47765839285717L508.9159663865546,344.62617178571423L513.6470588235294,344.76789035714285L518.3781512605042,344.63708946428574L523.109243697479,344.37966392857146L527.8403361344538,344.12158375L532.5714285714286,342.9246366071429L537.3025210084033,343.47278160714285L542.0336134453781,343.88921571428574L546.7647058823529,344.03095517857145L551.4957983193277,343.2328294642857L556.2268907563025,342.97891625L560.9579831932773,342.45859821428576L565.6890756302521,343.5385291071429L570.420168067227,343.1520089285714L575.1512605042018,343.3007544642857L579.8823529411765,343.3088539285714L584.6134453781511,343.44620125L589.344537815126,342.92930035714284L594.0756302521008,344.5329269642857L598.8067226890756,344.67666285714284L603.5378151260504,345.74557857142855L608.2689075630252,345.62600178571427L613,346.0280778571429"></path></g><g class="fg-line postvax-deaths_l2 line_s2" stroke="#dc4567" stroke-width="2px" fill="none"><path d="M50,310.5674114285714L54.73109243697479,306.412695L59.462184873949575,305.62809160714284L64.19327731092437,304.50316214285715L68.92436974789916,300.50955285714286L73.65546218487395,299.9989314285714L78.38655462184873,302.6481642857143L83.11764705882352,294.4469448214286L87.84873949579831,292.1035694642857L92.5798319327731,281.51068196428565L97.31092436974791,275.3386394642857L102.0420168067227,270.42570732142855L106.77310924369749,265.1269189285714L111.50420168067227,254.41661589285712L116.23529411764704,252.42247160714285L120.96638655462185,242.93984214285715L125.69747899159663,239.06484160714288L130.42857142857144,231.7438405357143L135.1596638655462,223.32086660714285L139.890756302521,213.12627125L144.6218487394958,193.1448325L149.3529411764706,183.61038178571428L154.08403361344537,181.87500482142858L158.8151260504202,170.56181053571424L163.54621848739495,156.92760089285716L168.27731092436977,152.27263982142856L173.00840336134453,144.72852857142857L177.73949579831933,147.80302625000002L182.4705882352941,142.27546339285712L187.2016806722689,134.63247553571432L191.9327731092437,135.81413607142855L196.66386554621852,134.46568785714283L201.39495798319325,122.72019482142854L206.12605042016807,112.9278194642857L210.85714285714286,106.35341999999999L215.58823529411765,95.24166535714286L220.31932773109241,90.54005982142854L225.05042016806723,87.88217964285714L229.781512605042,84.41807660714285L234.51260504201682,83.60822767857145L239.2436974789916,75.2201982142857L243.97478991596637,68.6971998214286L248.7058823529412,76.71631946428569L253.43697478991595,66.8565576785714L258.16806722689074,56.696110535714304L262.89915966386553,56.93246678571429L267.6302521008404,51.759478928571426L272.3613445378151,57.11405589285713L277.0924369747899,55.53751803571427L281.8235294117647,51.5771446428571L286.5546218487395,59.66033803571426L291.2857142857143,57.73709250000002L296.01680672268907,60.684183214285724L300.74789915966386,67.64125625000001L305.47899159663865,71.14868642857145L310.2100840336135,74.42246714285717L314.94117647058823,68.62481303571427L319.672268907563,76.66425678571426L324.4033613445378,83.35773625000002L329.1344537815126,85.49339946428569L333.8655462184874,76.42235464285714L338.5966386554622,79.33972875L343.32773109243703,86.2576880357143L348.05882352941177,90.03836196428571L352.7899159663865,87.04914428571425L357.5210084033613,91.00860535714284L362.25210084033614,92.09959089285715L366.98319327731093,101.26302624999997L371.7142857142857,111.75063696428569L376.44537815126057,115.3602471428571L381.1764705882353,118.99278375000002L385.90756302521004,125.50999250000001L390.63865546218483,134.12500428571428L395.3697478991597,133.3016260714286L400.10084033613447,129.88415357142858L404.83193277310926,123.84363392857144L409.56302521008405,124.12580589285713L414.29411764705884,139.36081L419.02521008403363,139.07763285714285L423.75630252100837,143.06477696428573L428.4873949579832,153.27878642857138L433.218487394958,171.63960803571428L437.9495798319328,180.29289553571428L442.68067226890753,189.85104107142857L447.4117647058824,186.2769232142857L452.14285714285717,189.63206535714286L456.8739495798319,188.10913160714284L461.6050420168067,190.6874517857143L466.33613445378154,191.92172053571431L471.06722689075633,178.45994196428572L475.79831932773106,173.91261624999999L480.52941176470586,178.98849642857144L485.2605042016807,182.8904557142857L489.99159663865544,184.0810932142857L494.7226890756302,181.14482964285713L499.4537815126051,180.07442357142858L504.1848739495798,196.36852839285714L508.9159663865546,200.40423910714287L513.6470588235294,197.69066089285718L518.3781512605042,198.43029589285712L523.109243697479,195.4978696428571L527.8403361344538,195.48334446428572L532.5714285714286,195.95101714285715L537.3025210084033,199.2892755357143L542.0336134453781,198.62914714285714L546.7647058823529,200.1786658928571L551.4957983193277,195.14898910714285L556.2268907563025,195.963525L560.9579831932773,192.88898089285715L565.6890756302521,194.19281821428572L570.420168067227,187.68571928571427L575.1512605042018,188.40147375L579.8823529411765,198.86758803571428L584.6134453781511,208.05846267857143L589.344537815126,211.89580035714283L594.0756302521008,219.2614425L598.8067226890756,216.67829375L603.5378151260504,222.1203398214286L608.2689075630252,217.39159910714284L613,213.4885023214286"></path></g><g class="left-y-axis"><g class="y-tick"><line style="stroke-width: 0.5px; stroke:black; opacity:0.15;" x1="613" y1="355" x2="50" y2="355"></line><text style="font-family:sans-serif; font-weight:300; font-size: 0.85rem; fill:black;text-anchor: end; dominant-baseline:middle;" x="40" y="355">0</text></g><g class="y-tick"><line style="stroke-width: 0.5px; stroke:black; opacity:0.15;" x1="613" y1="308.5714285714286" x2="50" y2="308.5714285714286"></line><text style="font-family:sans-serif; font-weight:300; font-size: 0.85rem; fill:black;text-anchor: end; dominant-baseline:middle;" x="40" y="308.5714285714286">2</text></g><g class="y-tick"><line style="stroke-width: 0.5px; stroke:black; opacity:0.15;" x1="613" y1="262.14285714285717" x2="50" y2="262.14285714285717"></line><text style="font-family:sans-serif; font-weight:300; font-size: 0.85rem; fill:black;text-anchor: end; dominant-baseline:middle;" x="40" y="262.14285714285717">4</text></g><g class="y-tick"><line style="stroke-width: 0.5px; stroke:black; opacity:0.15;" x1="613" y1="215.7142857142857" x2="50" y2="215.7142857142857"></line><text style="font-family:sans-serif; font-weight:300; font-size: 0.85rem; fill:black;text-anchor: end; dominant-baseline:middle;" x="40" y="215.7142857142857">6</text></g><g class="y-tick"><line style="stroke-width: 0.5px; stroke:black; opacity:0.15;" x1="613" y1="169.2857142857143" x2="50" y2="169.2857142857143"></line><text style="font-family:sans-serif; font-weight:300; font-size: 0.85rem; fill:black;text-anchor: end; dominant-baseline:middle;" x="40" y="169.2857142857143">8</text></g><g class="y-tick"><line style="stroke-width: 0.5px; stroke:black; opacity:0.15;" x1="613" y1="122.85714285714285" x2="50" y2="122.85714285714285"></line><text style="font-family:sans-serif; font-weight:300; font-size: 0.85rem; fill:black;text-anchor: end; dominant-baseline:middle;" x="40" y="122.85714285714285">10</text></g><g class="y-tick"><line style="stroke-width: 0.5px; stroke:black; opacity:0.15;" x1="613" y1="76.42857142857144" x2="50" y2="76.42857142857144"></line><text style="font-family:sans-serif; font-weight:300; font-size: 0.85rem; fill:black;text-anchor: end; dominant-baseline:middle;" x="40" y="76.42857142857144">12</text></g><g class="y-tick"><line style="stroke-width: 0.5px; stroke:black; opacity:0.15;" x1="613" y1="30" x2="50" y2="30"></line><text style="font-family:sans-serif; font-weight:300; font-size: 0.85rem; fill:black;text-anchor: end; dominant-baseline:middle;" x="40" y="30">14</text></g></g><g class="date-axis" style="stroke-width: 0.5px; stroke:black;"><g class="x-tick"><text style="font-family:sans-serif; font-weight:300; font-size: 0.85rem; fill:black;text-anchor: start; dominant-baseline:hanging;" x="50" y="372">7/24/2021</text></g><g class="x-tick"></g><g class="x-tick"></g><g class="x-tick"></g><g class="x-tick"></g><g class="x-tick"></g><g class="x-tick"></g><g class="x-tick"></g><g class="x-tick"></g><g class="x-tick"></g><g class="x-tick"></g><g class="x-tick"></g><g class="x-tick"></g><g class="x-tick"></g><g class="x-tick"></g><g class="x-tick"></g><g class="x-tick"></g><g class="x-tick"></g><g class="x-tick"></g><g class="x-tick"></g><g class="x-tick"></g><g class="x-tick"></g><g class="x-tick"></g><g class="x-tick"></g><g class="x-tick"></g><g class="x-tick"></g><g class="x-tick"></g><g class="x-tick"></g><g class="x-tick"></g><g class="x-tick"></g><g class="x-tick"></g><g class="x-tick"></g><g class="x-tick"></g><g class="x-tick"></g><g class="x-tick"></g><g class="x-tick"></g><g class="x-tick"></g><g class="x-tick"></g><g class="x-tick"></g><g class="x-tick"></g><g class="x-tick"></g><g class="x-tick"></g><g class="x-tick"></g><g class="x-tick"></g><g class="x-tick"></g><g class="x-tick"></g><g class="x-tick"></g><g class="x-tick"></g><g class="x-tick"></g><g class="x-tick"></g><g class="x-tick"></g><g class="x-tick"></g><g class="x-tick"></g><g class="x-tick"></g><g class="x-tick"></g><g class="x-tick"></g><g class="x-tick"></g><g class="x-tick"></g><g class="x-tick"></g><g class="x-tick"></g><g class="x-tick"></g><g class="x-tick"></g><g class="x-tick"></g><g class="x-tick"></g><g class="x-tick"></g><g class="x-tick"></g><g class="x-tick"></g><g class="x-tick"></g><g class="x-tick"></g><g class="x-tick"></g><g class="x-tick"></g><g class="x-tick"></g><g class="x-tick"></g><g class="x-tick"></g><g class="x-tick"></g><g class="x-tick"></g><g class="x-tick"></g><g class="x-tick"></g><g class="x-tick"></g><g class="x-tick"></g><g class="x-tick"></g><g class="x-tick"></g><g class="x-tick"></g><g class="x-tick"></g><g class="x-tick"></g><g class="x-tick"></g><g class="x-tick"></g><g class="x-tick"></g><g class="x-tick"></g><g class="x-tick"></g><g class="x-tick"></g><g class="x-tick"></g><g class="x-tick"></g><g class="x-tick"></g><g class="x-tick"></g><g class="x-tick"></g><g class="x-tick"></g><g class="x-tick"></g><g class="x-tick"></g><g class="x-tick"></g><g class="x-tick"></g><g class="x-tick"></g><g class="x-tick"></g><g class="x-tick"></g><g class="x-tick"></g><g class="x-tick"></g><g class="x-tick"></g><g class="x-tick"></g><g class="x-tick"></g><g class="x-tick"></g><g class="x-tick"></g><g class="x-tick"></g><g class="x-tick"></g><g class="x-tick"></g><g class="x-tick"></g><g class="x-tick"></g><g class="x-tick"></g><g class="x-tick"></g><g class="x-tick"></g><g class="x-tick"><text style="font-family:sans-serif; font-weight:300; font-size: 0.85rem; fill:black;text-anchor: end; dominant-baseline:hanging;" x="613" y="372">11/20/2021</text></g></g></svg>