<svg about="DATA_PUBLISHED_DATE:2021-09-15,RENDER_DATE:2021-09-21" viewBox="0,0,615,400"><g transform="translate(0,0)" style="fill:#CCCCCC;"></g><g class="fg-line postvax-deaths_l1 line_s1"><path d="M50,352.16403375L54.73109243697479,351.729148L59.462184873949575,352.70705675000005L64.19327731092437,352.30100500000003L68.92436974789916,351.91765775L73.65546218487395,351.9816535L78.38655462184873,352.46681350000006L83.11764705882352,352.50164374999997L87.84873949579831,352.93312025L92.5798319327731,352.55758275L97.31092436974791,351.804119L102.0420168067227,352.25910925L106.77310924369749,350.40223799999995L111.50420168067227,350.12070675L116.23529411764704,349.07442125L120.96638655462185,349.47655675L125.69747899159663,348.82651125L130.42857142857144,349.648511L135.1596638655462,349.3854365L139.890756302521,350.51941025L144.6218487394958,350.260135L149.3529411764706,350.98497275000005L154.08403361344537,350.67466924999997L158.8151260504202,351.71563125L163.54621848739495,351.77058225L168.27731092436977,352.14299325L173.00840336134453,352.81845699999997L177.73949579831933,352.5500265L182.4705882352941,352.577736L187.2016806722689,352.58909475L191.9327731092437,352.6137785L196.66386554621852,352.35081775L201.39495798319325,352.09392149999996L206.12605042016807,352.41721525L210.85714285714286,353.30044499999997L215.58823529411765,352.75691825L220.31932773109241,352.768394L225.05042016806723,352.78807925L229.781512605042,353.08453125L234.51260504201682,353.10314075L239.2436974789916,353.12146425000003L243.97478991596637,352.60962175L248.7058823529412,353.4172825L253.43697478991595,353.42201125L258.16806722689074,352.9089045L262.89915966386553,352.663341L267.6302521008404,352.67825525L272.3613445378151,352.43525925L277.0924369747899,352.96059249999996L281.8235294117647,352.71301725L286.5546218487395,352.97012474999997L291.2857142857143,353.2251815L296.01680672268907,353.23572775L300.74789915966386,353.24393725L305.47899159663865,352.75213425L310.2100840336135,352.7632135L314.94117647058823,352.27573624999997L319.672268907563,352.52653875L324.4033613445378,352.78112749999997L329.1344537815126,353.28101000000004L333.8655462184874,353.28769850000003L338.5966386554622,353.78160749999995L343.32773109243703,353.54391225L348.05882352941177,353.3062235L352.7899159663865,353.06664324999997L357.5210084033613,352.83157075L362.25210084033614,352.3592775L366.98319327731093,351.88900574999997L371.7142857142857,352.13699049999997L376.44537815126057,351.90860000000004L381.1764705882353,352.62647949999996L385.90756302521004,352.62837099999996L390.63865546218483,352.63203375L395.3697478991597,352.63804625L400.10084033613447,352.87913775L404.83193277310926,352.64883299999997L409.56302521008405,352.88929724999997L414.29411764705884,352.658505L419.02521008403363,351.95835750000003L423.75630252100837,351.9632195L428.4873949579832,351.9692515L433.218487394958,352.4401505L437.9495798319328,352.2122215L442.68067226890753,352.217623L447.4117647058824,351.52568175L452.14285714285717,352.22078849999997L456.8739495798319,351.7606145L461.6050420168067,351.30589075L466.33613445378154,350.85154725L471.06722689075633,349.708246L475.79831932773106,348.34088325L480.52941176470586,349.036861L485.2605042016807,348.5815685L489.99159663865544,348.59167275L494.7226890756302,347.91644299999996L499.4537815126051,347.6992975L504.1848739495798,348.39364700000004L508.9159663865546,348.178068L513.6470588235294,347.2772655L518.3781512605042,347.054387L523.109243697479,346.612127L527.8403361344538,346.6251335L532.5714285714286,345.73372025000003L537.3025210084033,344.8444325L542.0336134453781,344.6360165L546.7647058823529,344.6462865L551.4957983193277,342.84915025L556.2268907563025,342.4130815L560.9579831932773,341.98205675L565.6890756302521,342.67223975L570.420168067227,342.46412925L575.1512605042018,342.03633499999995L579.8823529411765,341.825072L584.6134453781511,343.39282325L589.344537815126,340.95339924999996L594.0756302521008,341.19481900000005L598.8067226890756,338.321195L603.5378151260504,337.67643075L608.2689075630252,338.14705024999995L613,337.49866875"></path></g><g class="fg-line postvax-deaths_l2 line_s2"><path d="M50,289.72191699999996L54.73109243697479,290.95498325L59.462184873949575,292.08264875L64.19327731092437,291.23849375L68.92436974789916,294.15038000000004L73.65546218487395,293.613623L78.38655462184873,293.6231845L83.11764705882352,295.39567275L87.84873949579831,297.3647795L92.5798319327731,296.42409299999997L97.31092436974791,297.63943374999997L102.0420168067227,297.57834675000004L106.77310924369749,295.61154425L111.50420168067227,293.28339374999996L116.23529411764704,294.916015L120.96638655462185,294.14968775L125.69747899159663,298.666606L130.42857142857144,293.99935575L135.1596638655462,291.61436925L139.890756302521,292.389829L144.6218487394958,294.1736305L149.3529411764706,293.22314850000004L154.08403361344537,294.12126L158.8151260504202,292.31000575L163.54621848739495,298.47406625L168.27731092436977,296.0399885L173.00840336134453,297.6671855L177.73949579831933,297.64254074999997L182.4705882352941,297.1123L187.2016806722689,295.80653775L191.9327731092437,293.83783074999997L196.66386554621852,290.87961575L201.39495798319325,294.94365624999995L206.12605042016807,293.39388075L210.85714285714286,294.80506L215.58823529411765,294.80444575L220.31932773109241,298.708089L225.05042016806723,296.842576L229.781512605042,296.62441325000003L234.51260504201682,294.737733L239.2436974789916,297.28978575L243.97478991596637,295.7277285L248.7058823529412,295.64338775L253.43697478991595,294.98172675L258.16806722689074,299.586382L262.89915966386553,300.82857425L267.6302521008404,305.14107075000004L272.3613445378151,305.6570115L277.0924369747899,307.0307085L281.8235294117647,309.06987549999997L286.5546218487395,309.87881999999996L291.2857142857143,310.3414185L296.01680672268907,305.5614745L300.74789915966386,302.57287199999996L305.47899159663865,302.24268175000003L310.2100840336135,302.30994375L314.94117647058823,301.10915L319.672268907563,301.4582325L324.4033613445378,302.01118425L329.1344537815126,306.268629L333.8655462184874,312.882288L338.5966386554622,310.74017075L343.32773109243703,309.48370774999995L348.05882352941177,308.29748374999997L352.7899159663865,305.354508L357.5210084033613,302.20204375L362.25210084033614,301.8416415L366.98319327731093,291.38675225000003L371.7142857142857,291.48898099999997L376.44537815126057,290.585975L381.1764705882353,292.29697649999997L385.90756302521004,293.66521025L390.63865546218483,295.43617100000006L395.3697478991597,295.677841L400.10084033613447,296.91019875L404.83193277310926,296.659081L409.56302521008405,290.85806175L414.29411764705884,290.14785224999997L419.02521008403363,288.02857925000006L423.75630252100837,285.30344775L428.4873949579832,285.526297L433.218487394958,288.83244725L437.9495798319328,285.008715L442.68067226890753,288.2932495L447.4117647058824,285.557562L452.14285714285717,288.10709275L456.8739495798319,285.88381975000004L461.6050420168067,280.83889999999997L466.33613445378154,279.44902125L471.06722689075633,277.515411L475.79831932773106,272.32783575L480.52941176470586,271.49378825L485.2605042016807,264.93286050000006L489.99159663865544,262.2851895L494.7226890756302,260.16688825L499.4537815126051,251.55034525000002L504.1848739495798,248.25818625L508.9159663865546,252.4628835L513.6470588235294,237.24115425000002L518.3781512605042,234.2144065L523.109243697479,219.13884925L527.8403361344538,209.94206425000002L532.5714285714286,204.0214125L537.3025210084033,200.29264525L542.0336134453781,182.77614624999998L546.7647058823529,182.0580035L551.4957983193277,166.92691349999998L556.2268907563025,161.97326675000002L560.9579831932773,146.46924575L565.6890756302521,131.445682L570.420168067227,115.10420100000002L575.1512605042018,86.630717L579.8823529411765,73.25559875L584.6134453781511,66.2709295L589.344537815126,48.95257974999995L594.0756302521008,36.15541875000001L598.8067226890756,42.46308699999999L603.5378151260504,31.35334875000001L608.2689075630252,43.54148574999996L613,45.04148099999999"></path></g><g class="left-y-axis"><g class="y-tick"><line style="stroke-width: 0.5px; stroke:black; opacity:0.15;" x1="613" y1="355" x2="50" y2="355"></line><text style="font-family:sans-serif; font-weight:300; font-size: 0.85rem; fill:black;text-anchor: end; dominant-baseline:middle;" x="40" y="355">0</text></g><g class="y-tick"><line style="stroke-width: 0.5px; stroke:black; opacity:0.15;" x1="613" y1="290" x2="50" y2="290"></line><text style="font-family:sans-serif; font-weight:300; font-size: 0.85rem; fill:black;text-anchor: end; dominant-baseline:middle;" x="40" y="290">2</text></g><g class="y-tick"><line style="stroke-width: 0.5px; stroke:black; opacity:0.15;" x1="613" y1="225" x2="50" y2="225"></line><text style="font-family:sans-serif; font-weight:300; font-size: 0.85rem; fill:black;text-anchor: end; dominant-baseline:middle;" x="40" y="225">4</text></g><g class="y-tick"><line style="stroke-width: 0.5px; stroke:black; opacity:0.15;" x1="613" y1="160" x2="50" y2="160"></line><text style="font-family:sans-serif; font-weight:300; font-size: 0.85rem; fill:black;text-anchor: end; dominant-baseline:middle;" x="40" y="160">6</text></g><g class="y-tick"><line style="stroke-width: 0.5px; stroke:black; opacity:0.15;" x1="613" y1="94.99999999999999" x2="50" y2="94.99999999999999"></line><text style="font-family:sans-serif; font-weight:300; font-size: 0.85rem; fill:black;text-anchor: end; dominant-baseline:middle;" x="40" y="94.99999999999999">8</text></g><g class="y-tick"><line style="stroke-width: 0.5px; stroke:black; opacity:0.15;" x1="613" y1="30" x2="50" y2="30"></line><text style="font-family:sans-serif; font-weight:300; font-size: 0.85rem; fill:black;text-anchor: end; dominant-baseline:middle;" x="40" y="30">10</text></g></g><g class="date-axis"><g class="x-tick"><text style="font-family:sans-serif; font-weight:300; font-size: 0.85rem; fill:black;text-anchor: start; dominant-baseline:hanging;" x="50" y="372">4/24/2021</text></g><g class="x-tick"></g><g class="x-tick"></g><g class="x-tick"></g><g class="x-tick"></g><g class="x-tick"></g><g class="x-tick"></g><g class="x-tick"></g><g class="x-tick"></g><g class="x-tick"></g><g class="x-tick"></g><g class="x-tick"></g><g class="x-tick"></g><g class="x-tick"></g><g class="x-tick"></g><g class="x-tick"></g><g class="x-tick"></g><g class="x-tick"></g><g class="x-tick"></g><g class="x-tick"></g><g class="x-tick"></g><g class="x-tick"></g><g class="x-tick"></g><g class="x-tick"></g><g class="x-tick"></g><g class="x-tick"></g><g class="x-tick"></g><g class="x-tick"></g><g class="x-tick"></g><g class="x-tick"></g><g class="x-tick"></g><g class="x-tick"></g><g class="x-tick"></g><g class="x-tick"></g><g class="x-tick"></g><g class="x-tick"></g><g class="x-tick"></g><g class="x-tick"></g><g class="x-tick"></g><g class="x-tick"></g><g class="x-tick"></g><g class="x-tick"></g><g class="x-tick"></g><g class="x-tick"></g><g class="x-tick"></g><g class="x-tick"></g><g class="x-tick"></g><g class="x-tick"></g><g class="x-tick"></g><g class="x-tick"></g><g class="x-tick"></g><g class="x-tick"></g><g class="x-tick"></g><g class="x-tick"></g><g class="x-tick"></g><g class="x-tick"></g><g class="x-tick"></g><g class="x-tick"></g><g class="x-tick"></g><g class="x-tick"></g><g class="x-tick"></g><g class="x-tick"></g><g class="x-tick"></g><g class="x-tick"></g><g class="x-tick"></g><g class="x-tick"></g><g class="x-tick"></g><g class="x-tick"></g><g class="x-tick"></g><g class="x-tick"></g><g class="x-tick"></g><g class="x-tick"></g><g class="x-tick"></g><g class="x-tick"></g><g class="x-tick"></g><g class="x-tick"></g><g class="x-tick"></g><g class="x-tick"></g><g class="x-tick"></g><g class="x-tick"></g><g class="x-tick"></g><g class="x-tick"></g><g class="x-tick"></g><g class="x-tick"></g><g class="x-tick"></g><g class="x-tick"></g><g class="x-tick"></g><g class="x-tick"></g><g class="x-tick"></g><g class="x-tick"></g><g class="x-tick"></g><g class="x-tick"></g><g class="x-tick"></g><g class="x-tick"></g><g class="x-tick"></g><g class="x-tick"></g><g class="x-tick"></g><g class="x-tick"></g><g class="x-tick"></g><g class="x-tick"></g><g class="x-tick"></g><g class="x-tick"></g><g class="x-tick"></g><g class="x-tick"></g><g class="x-tick"></g><g class="x-tick"></g><g class="x-tick"></g><g class="x-tick"></g><g class="x-tick"></g><g class="x-tick"></g><g class="x-tick"></g><g class="x-tick"></g><g class="x-tick"></g><g class="x-tick"></g><g class="x-tick"></g><g class="x-tick"></g><g class="x-tick"></g><g class="x-tick"></g><g class="x-tick"></g><g class="x-tick"><text style="font-family:sans-serif; font-weight:300; font-size: 0.85rem; fill:black;text-anchor: end; dominant-baseline:hanging;" x="613" y="372">8/21/2021</text></g></g></svg>