<svg about="DATA_PUBLISHED_DATE:2021-11-24,RENDER_DATE:2021-11-30" xmlns="http://www.w3.org/2000/svg" viewBox="0,0,615,400"><g transform="translate(0,0)" style="fill:#CCCCCC;"></g><g class="fg-line postvax-deaths_l1 line_s1" stroke="#1f2574" stroke-width="2px" fill="none"><path d="M50,354.26984687500004L54.73109243697479,354.1245190625L59.462184873949575,354.12588000000005L64.19327731092437,353.9827865625L68.92436974789916,353.84015625L73.65546218487395,353.84279484375L78.38655462184873,353.8457259375L83.11764705882352,353.41539953125005L87.84873949579831,353.1286946875L92.5798319327731,353.275395625L97.31092436974791,353.422246875L102.0420168067227,353.7114278125L106.77310924369749,353.4277678125L111.50420168067227,353.57345109375L116.23529411764704,353.57493593749996L120.96638655462185,354.00254453125L125.69747899159663,353.718744375L130.42857142857144,353.29536078125L135.1596638655462,353.01482078125L139.890756302521,352.45199390625L144.6218487394958,351.46806046875L149.3529411764706,351.47227124999995L154.08403361344537,350.910013125L158.8151260504202,350.77566015624996L163.54621848739495,350.36070421875L168.27731092436977,350.227578125L173.00840336134453,350.37492296875L177.73949579831933,350.24333656249996L182.4705882352941,349.96927625L187.2016806722689,349.83231515625L191.9327731092437,349.42118L196.66386554621852,349.29058890625L201.39495798319325,348.7429984375L206.12605042016807,348.61320765625L210.85714285714286,348.48519015625004L215.58823529411765,348.21463984375004L220.31932773109241,347.5243946875L225.05042016806723,347.670900625L229.781512605042,347.40506484375L234.51260504201682,347.82913703124996L239.2436974789916,346.87422L243.97478991596637,346.74918234374996L248.7058823529412,347.03159109374997L253.43697478991595,347.58411750000005L258.16806722689074,345.94641609375003L262.89915966386553,345.54753546874997L267.6302521008404,343.78068109375L272.3613445378151,343.52167640625L277.0924369747899,343.81238890625L281.8235294117647,342.45994406249997L286.5546218487395,341.24008906250003L291.2857142857143,340.85057859375L296.01680672268907,339.51246828125L300.74789915966386,339.2626184375L305.47899159663865,338.87893765625L310.2100840336135,337.9611315625L314.94117647058823,337.30470875000003L319.672268907563,337.4506540625L324.4033613445378,337.209036875L329.1344537815126,337.2397128125L333.8655462184874,337.673120625L338.5966386554622,338.10446265625L343.32773109243703,337.60448265625L348.05882352941177,338.962655625L352.7899159663865,338.17242218750005L357.5210084033613,338.2031225L362.25210084033614,339.16618484375L366.98319327731093,339.72576578125L371.7142857142857,338.42772187500003L376.44537815126057,337.80372593749996L381.1764705882353,336.24205624999996L385.90756302521004,337.048454375L390.63865546218483,337.34598984375003L395.3697478991597,337.37887984375L400.10084033613447,336.35855046875L404.83193277310926,337.3075321875L409.56302521008405,338.91488468750003L414.29411764705884,340.23994421875L419.02521008403363,340.511045L423.75630252100837,341.038609375L428.4873949579832,341.32939093749997L433.218487394958,342.26305906249996L437.9495798319328,341.76632296875L442.68067226890753,341.017663125L447.4117647058824,341.03483937500005L452.14285714285717,341.8200515625L456.8739495798319,342.230823125L461.6050420168067,341.995929375L466.33613445378154,341.76136265625L471.06722689075633,342.29789500000004L475.79831932773106,342.963698125L480.52941176470586,342.46570265624996L485.2605042016807,341.3237075L489.99159663865544,341.85646984375L494.7226890756302,341.74850890625004L499.4537815126051,342.27632921875L504.1848739495798,342.67432828125004L508.9159663865546,343.45563640625L513.6470588235294,344.09961375L518.3781512605042,345.24534234375L523.109243697479,344.62217921875L527.8403361344538,345.6470159375L532.5714285714286,346.41713796875L537.3025210084033,346.8072171875L542.0336134453781,346.44163484375L546.7647058823529,346.82563656250005L551.4957983193277,346.2011084375L556.2268907563025,346.9639646875L560.9579831932773,346.47089093750003L565.6890756302521,345.72823750000003L570.420168067227,345.98856046875L575.1512605042018,345.5004571875L579.8823529411765,345.1324271875L584.6134453781511,345.7608390625L589.344537815126,345.89526109375L594.0756302521008,346.27847875000003L598.8067226890756,346.78492625L603.5378151260504,346.4199309375L608.2689075630252,346.92668109374995L613,347.05559234375"></path></g><g class="fg-line postvax-deaths_l2 line_s2" stroke="#dc4567" stroke-width="2px" fill="none"><path d="M50,332.74512125L54.73109243697479,334.18488140625L59.462184873949575,333.22371828125006L64.19327731092437,332.83982015624997L68.92436974789916,333.93842374999997L73.65546218487395,333.26175140625L78.38655462184873,331.96962656249997L83.11764705882352,331.6052040625L87.84873949579831,329.17039546875003L92.5798319327731,327.88072640625L97.31092436974791,325.967286875L102.0420168067227,324.95217578125L106.77310924369749,324.5453509375L111.50420168067227,323.51271015625L116.23529411764704,321.30073578125L120.96638655462185,321.90731171875L125.69747899159663,320.9218L130.42857142857144,318.9549365625L135.1596638655462,318.21928890625L139.890756302521,315.3134496875L144.6218487394958,312.6755425L149.3529411764706,311.6404459375L154.08403361344537,307.53163140624997L158.8151260504202,306.76680484375004L163.54621848739495,305.66830078124997L168.27731092436977,301.73191703125L173.00840336134453,300.6103765625L177.73949579831933,303.24774546875L182.4705882352941,295.1530821875L187.2016806722689,293.16103734374997L191.9327731092437,283.033876875L196.66386554621852,276.64268890625004L201.39495798319325,272.13669999999996L206.12605042016807,266.9340878125L210.85714285714286,256.40118109375L215.58823529411765,254.779238125L220.31932773109241,245.11069531249998L225.05042016806723,241.32328546875L229.781512605042,234.47937249999998L234.51260504201682,225.893945L239.2436974789916,216.56902671875L243.97478991596637,197.29425375000002L248.7058823529412,188.97009984375L253.43697478991595,187.28334171875002L258.16806722689074,176.23230578124998L262.89915966386553,163.60470296875002L267.6302521008404,160.1609684375L272.3613445378151,152.52060234375L277.0924369747899,156.37513078125L281.8235294117647,149.99887453124998L286.5546218487395,142.53500781250003L291.2857142857143,143.81296874999998L296.01680672268907,142.25317796875L300.74789915966386,129.762511875L305.47899159663865,121.67118999999997L310.2100840336135,115.01826734375001L314.94117647058823,104.97267375000001L319.672268907563,101.85694546874996L324.4033613445378,99.67641281249998L329.1344537815126,96.71957499999999L333.8655462184874,95.61858671875L338.5966386554622,86.71771015625L343.32773109243703,81.222949375L348.05882352941177,88.07384171874999L352.7899159663865,77.338305625L357.5210084033613,68.17960453125L362.25210084033614,68.817545L366.98319327731093,64.56465390625002L371.7142857142857,69.46241203125001L376.44537815126057,66.89217390624997L381.1764705882353,63.914217187499986L385.90756302521004,72.62220218750002L390.63865546218483,70.37922484375L395.3697478991597,72.1115540625L400.10084033613447,78.943155625L404.83193277310926,82.39490749999999L409.56302521008405,86.50137796874999L414.29411764705884,81.32178796875L419.02521008403363,89.2035315625L423.75630252100837,94.54675703125L428.4873949579832,99.05943484375003L433.218487394958,89.82533781250002L437.9495798319328,93.92032156249999L442.68067226890753,99.95715187500002L447.4117647058824,104.54897734375L452.14285714285717,100.83913890625L456.8739495798319,105.9682990625L461.6050420168067,105.82827687500003L466.33613445378154,116.05203749999998L471.06722689075633,124.24705874999998L475.79831932773106,127.8429846875L480.52941176470586,129.76573546875002L485.2605042016807,136.55789828125003L489.99159663865544,144.97895499999996L494.7226890756302,145.03800140625003L499.4537815126051,142.15028296875002L504.1848739495798,137.55483375L508.9159663865546,138.33011312499997L513.6470588235294,153.66960531249998L518.3781512605042,155.12490859374998L523.109243697479,159.04634640625L527.8403361344538,169.04775015625L532.5714285714286,185.6898525L537.3025210084033,195.47511093749998L542.0336134453781,204.875553125L546.7647058823529,203.20277203125002L551.4957983193277,205.18088046875L556.2268907563025,205.06573703125L560.9579831932773,207.62432796875L565.6890756302521,210.65839390625L570.420168067227,198.02662296875002L575.1512605042018,195.0375796875L579.8823529411765,200.95191749999995L584.6134453781511,207.49247140625L589.344537815126,210.99031234375L594.0756302521008,209.10725828125L598.8067226890756,210.422913125L603.5378151260504,225.482779375L608.2689075630252,231.38017046875L613,229.72788671875"></path></g><g class="left-y-axis"><g class="y-tick"><line style="stroke-width: 0.5px; stroke:black; opacity:0.15;" x1="613" y1="355" x2="50" y2="355"></line><text style="font-family:sans-serif; font-weight:300; font-size: 0.85rem; fill:black;text-anchor: end; dominant-baseline:middle;" x="40" y="355">0</text></g><g class="y-tick"><line style="stroke-width: 0.5px; stroke:black; opacity:0.15;" x1="613" y1="253.4375" x2="50" y2="253.4375"></line><text style="font-family:sans-serif; font-weight:300; font-size: 0.85rem; fill:black;text-anchor: end; dominant-baseline:middle;" x="40" y="253.4375">5</text></g><g class="y-tick"><line style="stroke-width: 0.5px; stroke:black; opacity:0.15;" x1="613" y1="151.875" x2="50" y2="151.875"></line><text style="font-family:sans-serif; font-weight:300; font-size: 0.85rem; fill:black;text-anchor: end; dominant-baseline:middle;" x="40" y="151.875">10</text></g><g class="y-tick"><line style="stroke-width: 0.5px; stroke:black; opacity:0.15;" x1="613" y1="50.3125" x2="50" y2="50.3125"></line><text style="font-family:sans-serif; font-weight:300; font-size: 0.85rem; fill:black;text-anchor: end; dominant-baseline:middle;" x="40" y="50.3125">15</text></g></g><g class="date-axis" style="stroke-width: 0.5px; stroke:black;"><g class="x-tick"><text style="font-family:sans-serif; font-weight:300; font-size: 0.85rem; fill:black;text-anchor: start; dominant-baseline:hanging;" x="50" y="372">7/3/2021</text></g><g class="x-tick"></g><g class="x-tick"></g><g class="x-tick"></g><g class="x-tick"></g><g class="x-tick"></g><g class="x-tick"></g><g class="x-tick"></g><g class="x-tick"></g><g class="x-tick"></g><g class="x-tick"></g><g class="x-tick"></g><g class="x-tick"></g><g class="x-tick"></g><g class="x-tick"></g><g class="x-tick"></g><g class="x-tick"></g><g class="x-tick"></g><g class="x-tick"></g><g class="x-tick"></g><g class="x-tick"></g><g class="x-tick"></g><g class="x-tick"></g><g class="x-tick"></g><g class="x-tick"></g><g class="x-tick"></g><g class="x-tick"></g><g class="x-tick"></g><g class="x-tick"></g><g class="x-tick"></g><g class="x-tick"></g><g class="x-tick"></g><g class="x-tick"></g><g class="x-tick"></g><g class="x-tick"></g><g class="x-tick"></g><g class="x-tick"></g><g class="x-tick"></g><g class="x-tick"></g><g class="x-tick"></g><g class="x-tick"></g><g class="x-tick"></g><g class="x-tick"></g><g class="x-tick"></g><g class="x-tick"></g><g class="x-tick"></g><g class="x-tick"></g><g class="x-tick"></g><g class="x-tick"></g><g class="x-tick"></g><g class="x-tick"></g><g class="x-tick"></g><g class="x-tick"></g><g class="x-tick"></g><g class="x-tick"></g><g class="x-tick"></g><g class="x-tick"></g><g class="x-tick"></g><g class="x-tick"></g><g class="x-tick"></g><g class="x-tick"></g><g class="x-tick"></g><g class="x-tick"></g><g class="x-tick"></g><g class="x-tick"></g><g class="x-tick"></g><g class="x-tick"></g><g class="x-tick"></g><g class="x-tick"></g><g class="x-tick"></g><g class="x-tick"></g><g class="x-tick"></g><g class="x-tick"></g><g class="x-tick"></g><g class="x-tick"></g><g class="x-tick"></g><g class="x-tick"></g><g class="x-tick"></g><g class="x-tick"></g><g class="x-tick"></g><g class="x-tick"></g><g class="x-tick"></g><g class="x-tick"></g><g class="x-tick"></g><g class="x-tick"></g><g class="x-tick"></g><g class="x-tick"></g><g class="x-tick"></g><g class="x-tick"></g><g class="x-tick"></g><g class="x-tick"></g><g class="x-tick"></g><g class="x-tick"></g><g class="x-tick"></g><g class="x-tick"></g><g class="x-tick"></g><g class="x-tick"></g><g class="x-tick"></g><g class="x-tick"></g><g class="x-tick"></g><g class="x-tick"></g><g class="x-tick"></g><g class="x-tick"></g><g class="x-tick"></g><g class="x-tick"></g><g class="x-tick"></g><g class="x-tick"></g><g class="x-tick"></g><g class="x-tick"></g><g class="x-tick"></g><g class="x-tick"></g><g class="x-tick"></g><g class="x-tick"></g><g class="x-tick"></g><g class="x-tick"></g><g class="x-tick"></g><g class="x-tick"></g><g class="x-tick"></g><g class="x-tick"></g><g class="x-tick"><text style="font-family:sans-serif; font-weight:300; font-size: 0.85rem; fill:black;text-anchor: end; dominant-baseline:hanging;" x="613" y="372">10/30/2021</text></g></g></svg>