<svg about="DATA_PUBLISHED_DATE:2021-10-13,RENDER_DATE:2021-10-17" xmlns="http://www.w3.org/2000/svg" viewBox="0,0,615,400"><g transform="translate(0,0)" style="fill:#CCCCCC;"></g><g class="fg-line postvax-deaths_l1 line_s1" stroke="#1f2574" stroke-width="2px" fill="none"><path d="M50,353.6183175L54.73109243697479,353.6248175L59.462184873949575,353.6389L64.19327731092437,353.4328825L68.92436974789916,353.2317525L73.65546218487395,353.4720675L78.38655462184873,353.70732L83.11764705882352,353.50714L87.84873949579831,353.30262999999997L92.5798319327731,353.317615L97.31092436974791,353.54315999999994L102.0420168067227,353.5573425L106.77310924369749,353.57127249999996L111.50420168067227,353.384015L116.23529411764704,353.996885L120.96638655462185,353.9998825L125.69747899159663,353.80720500000007L130.42857142857144,353.61773999999997L135.1596638655462,353.822775L139.890756302521,353.63456499999995L144.6218487394958,353.83669000000003L149.3529411764706,353.6471575L154.08403361344537,354.03511000000003L158.8151260504202,354.03583L163.54621848739495,354.23325000000006L168.27731092436977,354.2368075L173.00840336134453,354.05019749999997L177.73949579831933,354.05486249999996L182.4705882352941,353.8698125L187.2016806722689,353.87124500000004L191.9327731092437,354.062425L196.66386554621852,354.25289250000003L201.39495798319325,354.06975500000004L206.12605042016807,354.4439875L210.85714285714286,354.2616875L215.58823529411765,353.89578750000004L220.31932773109241,353.89714749999996L225.05042016806723,353.717235L229.781512605042,353.53926750000005L234.51260504201682,353.543875L239.2436974789916,353.54828L243.97478991596637,353.5530425L248.7058823529412,354.0973525L253.43697478991595,353.917685L258.16806722689074,353.9193575L262.89915966386553,353.74244L267.6302521008404,353.5660875L272.3613445378151,353.5693325L277.0924369747899,353.57293L281.8235294117647,353.2189925L286.5546218487395,352.686425L291.2857142857143,352.86779L296.01680672268907,353.04933L300.74789915966386,353.4068575L305.47899159663865,353.0561375L310.2100840336135,353.23625749999997L314.94117647058823,353.06190499999997L319.672268907563,353.766775L324.4033613445378,353.4158925L329.1344537815126,352.892425L333.8655462184874,352.5455475L338.5966386554622,351.8496475L343.32773109243703,350.6330625L348.05882352941177,350.6382475L352.7899159663865,350.11742499999997L357.5210084033613,349.9509825L362.25210084033614,349.6114L366.98319327731093,349.446195L371.7142857142857,349.8010975L376.44537815126057,349.63737249999997L381.1764705882353,349.29785749999996L385.90756302521004,348.9555075L390.63865546218483,348.61904250000003L395.3697478991597,348.284515L400.10084033613447,347.60679250000004L404.83193277310926,347.274055L409.56302521008405,347.2868125L414.29411764705884,346.951905L419.02521008403363,346.09826000000004L423.75630252100837,345.937035L428.4873949579832,345.9497875L433.218487394958,346.4736425L437.9495798319328,345.803225L442.68067226890753,345.30707L447.4117647058824,345.6557775L452.14285714285717,346.16898L456.8739495798319,344.48257L461.6050420168067,343.9883075L466.33613445378154,341.97159L471.06722689075633,341.3121875L475.79831932773106,341.6707825L480.52941176470586,339.997705L485.2605042016807,338.994275L489.99159663865544,338.342785L494.7226890756302,336.686615L499.4537815126051,336.54407499999996L504.1848739495798,335.90036000000003L508.9159663865546,335.0981525L513.6470588235294,334.28497L518.3781512605042,334.46471499999996L523.109243697479,334.33067500000004L527.8403361344538,334.86540749999995L532.5714285714286,335.39811749999996L537.3025210084033,336.0942325L542.0336134453781,335.471515L546.7647058823529,337.14867999999996L551.4957983193277,336.1699375L556.2268907563025,336.86373000000003L560.9579831932773,337.391455L565.6890756302521,338.737045L570.420168067227,337.78267500000004L575.1512605042018,337.4941475L579.8823529411765,336.2109275L584.6134453781511,337.20489L589.344537815126,336.9122975L594.0756302521008,337.43348000000003L598.8067226890756,335.676445L603.5378151260504,336.84355500000004L608.2689075630252,339.14688250000006L613,340.94264000000004"></path></g><g class="fg-line postvax-deaths_l2 line_s2" stroke="#dc4567" stroke-width="2px" fill="none"><path d="M50,324.904745L54.73109243697479,322.4675175L59.462184873949575,322.00624500000004L64.19327731092437,321.178095L68.92436974789916,323.0596775L73.65546218487395,322.54296500000004L78.38655462184873,323.5167675L83.11764705882352,322.1064875L87.84873949579831,325.717875L92.5798319327731,327.096655L97.31092436974791,328.4598825L102.0420168067227,328.583505L106.77310924369749,330.6136675L111.50420168067227,329.15681249999994L116.23529411764704,329.97129249999995L120.96638655462185,329.2617525L125.69747899159663,329.772205L130.42857142857144,330.27381999999994L135.1596638655462,332.74917L139.890756302521,332.9477L144.6218487394958,335.1232425L149.3529411764706,336.040345L154.08403361344537,336.33889750000003L158.8151260504202,336.3270775L163.54621848739495,334.5522525L168.27731092436977,333.7805975L173.00840336134453,333.68161249999997L177.73949579831933,333.2347725L182.4705882352941,333.836775L187.2016806722689,335.5148125L191.9327731092437,336.81641L196.66386554621852,337.77229L201.39495798319325,339.4338125L206.12605042016807,339.02334499999995L210.85714285714286,338.25168L215.58823529411765,336.1033275L220.31932773109241,333.9796575L225.05042016806723,333.1974825L229.781512605042,333.45262499999995L234.51260504201682,328.7505325L239.2436974789916,327.573005L243.97478991596637,327.08759999999995L248.7058823529412,327.3678525L253.43697478991595,328.7731375L258.16806722689074,327.594075L262.89915966386553,327.122475L267.6302521008404,328.467265L272.3613445378151,327.63690249999996L277.0924369747899,326.0529825L281.8235294117647,325.9728325L286.5546218487395,323.72564L291.2857142857143,322.517135L296.01680672268907,320.9178325L300.74789915966386,320.42420999999996L305.47899159663865,319.5617825L310.2100840336135,318.67948L314.94117647058823,316.350865L319.672268907563,316.719095L324.4033613445378,315.5169675L329.1344537815126,312.739405L333.8655462184874,311.4675275L338.5966386554622,309.0541175L343.32773109243703,305.4535275L348.05882352941177,303.8096325L352.7899159663865,299.1628875L357.5210084033613,297.0838925L362.25210084033614,295.7439L366.98319327731093,290.5429075L371.7142857142857,289.17373249999997L376.44537815126057,292.79729499999996L381.1764705882353,283.6701675L385.90756302521004,282.01541249999997L390.63865546218483,271.97834750000004L395.3697478991597,264.1763975L400.10084033613447,260.2640375L404.83193277310926,254.32307749999998L409.56302521008405,241.8683425L414.29411764705884,239.91085999999999L419.02521008403363,227.290915L423.75630252100837,221.88691250000005L428.4873949579832,214.76047750000004L433.218487394958,204.29985249999996L437.9495798319328,194.15913249999997L442.68067226890753,171.4603325L447.4117647058824,162.5544425L452.14285714285717,161.3421275L456.8739495798319,149.5522025L461.6050420168067,134.61296999999996L466.33613445378154,130.487475L471.06722689075633,122.07336999999998L475.79831932773106,128.60366250000004L480.52941176470586,122.16128749999999L485.2605042016807,115.21851250000002L489.99159663865544,119.05502750000004L494.7226890756302,118.58364999999998L499.4537815126051,105.62340999999999L504.1848739495798,99.40224249999999L508.9159663865546,89.72862500000004L513.6470588235294,78.01463249999998L518.3781512605042,74.27695250000002L523.109243697479,71.78971999999999L527.8403361344538,70.60091999999997L532.5714285714286,70.34868999999999L537.3025210084033,60.57572000000005L542.0336134453781,58.19913L546.7647058823529,69.00973499999994L551.4957983193277,59.65686750000002L556.2268907563025,50.581659999999985L560.9579831932773,51.176537499999995L565.6890756302521,46.717654999999965L570.420168067227,55.32708999999999L575.1512605042018,55.820167499999975L579.8823529411765,55.695867500000006L584.6134453781511,65.51208249999996L589.344537815126,67.38998749999998L594.0756302521008,70.31991750000003L598.8067226890756,83.35771L603.5378151260504,86.94618249999999L608.2689075630252,92.83271499999995L613,91.59783000000002"></path></g><g class="left-y-axis"><g class="y-tick"><line style="stroke-width: 0.5px; stroke:black; opacity:0.15;" x1="613" y1="355" x2="50" y2="355"></line><text style="font-family:sans-serif; font-weight:300; font-size: 0.85rem; fill:black;text-anchor: end; dominant-baseline:middle;" x="40" y="355">0</text></g><g class="y-tick"><line style="stroke-width: 0.5px; stroke:black; opacity:0.15;" x1="613" y1="305" x2="50" y2="305"></line><text style="font-family:sans-serif; font-weight:300; font-size: 0.85rem; fill:black;text-anchor: end; dominant-baseline:middle;" x="40" y="305">2</text></g><g class="y-tick"><line style="stroke-width: 0.5px; stroke:black; opacity:0.15;" x1="613" y1="255" x2="50" y2="255"></line><text style="font-family:sans-serif; font-weight:300; font-size: 0.85rem; fill:black;text-anchor: end; dominant-baseline:middle;" x="40" y="255">4</text></g><g class="y-tick"><line style="stroke-width: 0.5px; stroke:black; opacity:0.15;" x1="613" y1="204.99999999999997" x2="50" y2="204.99999999999997"></line><text style="font-family:sans-serif; font-weight:300; font-size: 0.85rem; fill:black;text-anchor: end; dominant-baseline:middle;" x="40" y="204.99999999999997">6</text></g><g class="y-tick"><line style="stroke-width: 0.5px; stroke:black; opacity:0.15;" x1="613" y1="154.99999999999997" x2="50" y2="154.99999999999997"></line><text style="font-family:sans-serif; font-weight:300; font-size: 0.85rem; fill:black;text-anchor: end; dominant-baseline:middle;" x="40" y="154.99999999999997">8</text></g><g class="y-tick"><line style="stroke-width: 0.5px; stroke:black; opacity:0.15;" x1="613" y1="104.99999999999999" x2="50" y2="104.99999999999999"></line><text style="font-family:sans-serif; font-weight:300; font-size: 0.85rem; fill:black;text-anchor: end; dominant-baseline:middle;" x="40" y="104.99999999999999">10</text></g><g class="y-tick"><line style="stroke-width: 0.5px; stroke:black; opacity:0.15;" x1="613" y1="54.999999999999986" x2="50" y2="54.999999999999986"></line><text style="font-family:sans-serif; font-weight:300; font-size: 0.85rem; fill:black;text-anchor: end; dominant-baseline:middle;" x="40" y="54.999999999999986">12</text></g></g><g class="date-axis" style="stroke-width: 0.5px; stroke:black;"><g class="x-tick"><text style="font-family:sans-serif; font-weight:300; font-size: 0.85rem; fill:black;text-anchor: start; dominant-baseline:hanging;" x="50" y="372">5/22/2021</text></g><g class="x-tick"></g><g class="x-tick"></g><g class="x-tick"></g><g class="x-tick"></g><g class="x-tick"></g><g class="x-tick"></g><g class="x-tick"></g><g class="x-tick"></g><g class="x-tick"></g><g class="x-tick"></g><g class="x-tick"></g><g class="x-tick"></g><g class="x-tick"></g><g class="x-tick"></g><g class="x-tick"></g><g class="x-tick"></g><g class="x-tick"></g><g class="x-tick"></g><g class="x-tick"></g><g class="x-tick"></g><g class="x-tick"></g><g class="x-tick"></g><g class="x-tick"></g><g class="x-tick"></g><g class="x-tick"></g><g class="x-tick"></g><g class="x-tick"></g><g class="x-tick"></g><g class="x-tick"></g><g class="x-tick"></g><g class="x-tick"></g><g class="x-tick"></g><g class="x-tick"></g><g class="x-tick"></g><g class="x-tick"></g><g class="x-tick"></g><g class="x-tick"></g><g class="x-tick"></g><g class="x-tick"></g><g class="x-tick"></g><g class="x-tick"></g><g class="x-tick"></g><g class="x-tick"></g><g class="x-tick"></g><g class="x-tick"></g><g class="x-tick"></g><g class="x-tick"></g><g class="x-tick"></g><g class="x-tick"></g><g class="x-tick"></g><g class="x-tick"></g><g class="x-tick"></g><g class="x-tick"></g><g class="x-tick"></g><g class="x-tick"></g><g class="x-tick"></g><g class="x-tick"></g><g class="x-tick"></g><g class="x-tick"></g><g class="x-tick"></g><g class="x-tick"></g><g class="x-tick"></g><g class="x-tick"></g><g class="x-tick"></g><g class="x-tick"></g><g class="x-tick"></g><g class="x-tick"></g><g class="x-tick"></g><g class="x-tick"></g><g class="x-tick"></g><g class="x-tick"></g><g class="x-tick"></g><g class="x-tick"></g><g class="x-tick"></g><g class="x-tick"></g><g class="x-tick"></g><g class="x-tick"></g><g class="x-tick"></g><g class="x-tick"></g><g class="x-tick"></g><g class="x-tick"></g><g class="x-tick"></g><g class="x-tick"></g><g class="x-tick"></g><g class="x-tick"></g><g class="x-tick"></g><g class="x-tick"></g><g class="x-tick"></g><g class="x-tick"></g><g class="x-tick"></g><g class="x-tick"></g><g class="x-tick"></g><g class="x-tick"></g><g class="x-tick"></g><g class="x-tick"></g><g class="x-tick"></g><g class="x-tick"></g><g class="x-tick"></g><g class="x-tick"></g><g class="x-tick"></g><g class="x-tick"></g><g class="x-tick"></g><g class="x-tick"></g><g class="x-tick"></g><g class="x-tick"></g><g class="x-tick"></g><g class="x-tick"></g><g class="x-tick"></g><g class="x-tick"></g><g class="x-tick"></g><g class="x-tick"></g><g class="x-tick"></g><g class="x-tick"></g><g class="x-tick"></g><g class="x-tick"></g><g class="x-tick"></g><g class="x-tick"></g><g class="x-tick"></g><g class="x-tick"><text style="font-family:sans-serif; font-weight:300; font-size: 0.85rem; fill:black;text-anchor: end; dominant-baseline:hanging;" x="613" y="372">9/18/2021</text></g></g></svg>