<svg about="DATA_PUBLISHED_DATE:2021-09-29,RENDER_DATE:2021-10-03" xmlns="http://www.w3.org/2000/svg" viewBox="0,0,615,400"><g transform="translate(0,0)" style="fill:#CCCCCC;"></g><g class="fg-line postvax-hospitalizations_l1 line_s1" stroke="#1f2574" stroke-width="2px" fill="none"><path d="M50,351.72106004999995L54.73109243697479,351.80590974999996L59.462184873949575,351.71563254999995L64.19327731092437,351.7705829L68.92436974789916,351.6350813L73.65546218487395,351.88350935L78.38655462184873,351.81503510000005L83.11764705882352,351.6693857L87.84873949579831,351.32336925L92.5798319327731,351.71894625L97.31092436974791,351.76210885L102.0420168067227,352.0358011L106.77310924369749,352.18763459999997L111.50420168067227,352.3940135L116.23529411764704,352.58868850000005L120.96638655462185,352.6568137L125.69747899159663,352.67748305L130.42857142857144,352.48252659999997L135.1596638655462,352.39859470000005L139.890756302521,351.83332740000003L144.6218487394958,351.91906955L149.3529411764706,351.83456240000004L154.08403361344537,351.8440238L158.8151260504202,351.5496947L163.54621848739495,351.7286761L168.27731092436977,351.9043412L173.00840336134453,352.28137434999996L177.73949579831933,352.14482755L182.4705882352941,352.1539763L187.2016806722689,352.15817269999997L191.9327731092437,352.10957935L196.66386554621852,352.1771644L201.39495798319325,351.5882215L206.12605042016807,351.5033224L210.85714285714286,351.4211416L215.58823529411765,351.28509465L220.31932773109241,351.2403402L225.05042016806723,351.2525719L229.781512605042,351.21821875L234.51260504201682,351.6243212L239.2436974789916,351.78344250000004L243.97478991596637,351.89367925000005L248.7058823529412,351.85441535L253.43697478991595,351.66495790000005L258.16806722689074,351.6268874L262.89915966386553,351.59106590000005L267.6302521008404,351.50611545000004L272.3613445378151,351.32580285000006L277.0924369747899,351.24275885000003L281.8235294117647,350.96501255L286.5546218487395,350.96823005L291.2857142857143,350.5482228L296.01680672268907,349.9454219L300.74789915966386,349.6271507L305.47899159663865,348.65185169999995L310.2100840336135,348.3395605L314.94117647058823,347.92868054999997L319.672268907563,347.60646710000003L324.4033613445378,347.61828995L329.1344537815126,346.93354485000003L333.8655462184874,345.9241735L338.5966386554622,345.5680177L343.32773109243703,344.61246439999996L348.05882352941177,344.11380325L352.7899159663865,343.55891515L357.5210084033613,342.5977764L362.25210084033614,341.9782653L366.98319327731093,341.12573245L371.7142857142857,340.6892581L376.44537815126057,340.2121659L381.1764705882353,339.90867049999997L385.90756302521004,339.2290006L390.63865546218483,338.10947634999997L395.3697478991597,337.1311568L400.10084033613447,336.74824244999996L404.83193277310926,336.22884825L409.56302521008405,336.03503125L414.29411764705884,335.46602255L419.02521008403363,334.79543835L423.75630252100837,334.73308905L428.4873949579832,335.03613010000004L433.218487394958,335.56341660000004L437.9495798319328,334.8694103L442.68067226890753,334.18191244999997L447.4117647058824,334.0674897L452.14285714285717,333.71350945L456.8739495798319,333.33251844999995L461.6050420168067,333.31839264999996L466.33613445378154,333.48245265L471.06722689075633,333.91287485L475.79831932773106,334.2581347L480.52941176470586,334.00943755000003L485.2605042016807,334.59815620000006L489.99159663865544,333.77402705L494.7226890756302,333.668768L499.4537815126051,333.07293185000003L504.1848739495798,333.58984499999997L508.9159663865546,333.8007635L513.6470588235294,334.13132555L518.3781512605042,334.3632007L523.109243697479,336.02761799999996L527.8403361344538,335.79021395000007L532.5714285714286,336.12453105000003L537.3025210084033,335.97565115L542.0336134453781,335.0426665L546.7647058823529,335.28459L551.4957983193277,335.82260279999997L556.2268907563025,335.0646573L560.9579831932773,335.93017065L565.6890756302521,336.00669320000003L570.420168067227,336.56176525L575.1512605042018,337.42675535L579.8823529411765,338.01349345L584.6134453781511,337.93844705L589.344537815126,339.61631675L594.0756302521008,340.1209709L598.8067226890756,340.88142995L603.5378151260504,340.7777309L608.2689075630252,341.2826418L613,341.77366805"></path></g><g class="fg-line postvax-hospitalizations_l2 line_s2" stroke="#dc4567" stroke-width="2px" fill="none"><path d="M50,325.18595405L54.73109243697479,325.1996892L59.462184873949575,325.6543057L64.19327731092437,325.05838504999997L68.92436974789916,325.4506295L73.65546218487395,323.554885L78.38655462184873,323.4355853L83.11764705882352,322.06513440000003L87.84873949579831,322.587971L92.5798319327731,321.50643015L97.31092436974791,320.80246194999995L102.0420168067227,321.20431794999996L106.77310924369749,322.4205674L111.50420168067227,322.4103832L116.23529411764704,322.22254945L120.96638655462185,322.5539682L125.69747899159663,323.5870782L130.42857142857144,322.7734771L135.1596638655462,320.46041765L139.890756302521,318.98227735L144.6218487394958,318.02736625L149.3529411764706,317.63041384999997L154.08403361344537,317.39414405L158.8151260504202,317.2679784L163.54621848739495,317.03734735L168.27731092436977,318.55140274999997L173.00840336134453,318.90170789999996L177.73949579831933,318.89220489999997L182.4705882352941,319.043274L187.2016806722689,317.85168945L191.9327731092437,315.77050125000005L196.66386554621852,317.1265579L201.39495798319325,315.7240841L206.12605042016807,313.95659565L210.85714285714286,313.9287776L215.58823529411765,312.7024746L220.31932773109241,312.98332465L225.05042016806723,311.51262750000006L229.781512605042,309.394791L234.51260504201682,309.7350296L239.2436974789916,308.59706225L243.97478991596637,306.29287335L248.7058823529412,306.1274672L253.43697478991595,304.1251929L258.16806722689074,303.9144109L262.89915966386553,302.79945095L267.6302521008404,296.88062440000004L272.3613445378151,293.42824885L277.0924369747899,290.97636175L281.8235294117647,286.12464735000003L286.5546218487395,283.5572364L291.2857142857143,280.47137569999995L296.01680672268907,271.65236745L300.74789915966386,265.92897185L305.47899159663865,264.44691465L310.2100840336135,258.98753475L314.94117647058823,254.45403695L319.672268907563,249.6584884L324.4033613445378,242.37440965L329.1344537815126,239.88663670000003L333.8655462184874,238.7486973L338.5966386554622,230.8548724L343.32773109243703,222.51012820000003L348.05882352941177,219.92159745L352.7899159663865,216.06857620000002L357.5210084033613,208.20548849999997L362.25210084033614,202.32148635000001L366.98319327731093,194.41509499999995L371.7142857142857,186.20924865L376.44537815126057,176.8072593L381.1764705882353,163.88704810000002L385.90756302521004,154.73306885L390.63865546218483,143.46103795L395.3697478991597,131.043839L400.10084033613447,119.3287551L404.83193277310926,112.36556055L409.56302521008405,109.78357854999997L414.29411764705884,109.9520605L419.02521008403363,102.99732829999996L423.75630252100837,100.06704185000002L428.4873949579832,90.67220509999996L433.218487394958,84.80424820000003L437.9495798319328,79.56465279999998L442.68067226890753,70.6040284L447.4117647058824,60.88482930000001L452.14285714285717,65.59541375000002L456.8739495798319,60.133048399999964L461.6050420168067,59.37021425000002L466.33613445378154,60.672787599999985L471.06722689075633,61.41878024999999L475.79831932773106,60.73132399999996L480.52941176470586,67.72658694999998L485.2605042016807,65.09244375000006L489.99159663865544,68.13234229999996L494.7226890756302,71.72800515L499.4537815126051,71.14716385000001L504.1848739495798,70.50318349999996L508.9159663865546,72.15221009999999L513.6470588235294,75.67410120000001L518.3781512605042,82.69628715000002L523.109243697479,86.5446934L527.8403361344538,91.54686394999996L532.5714285714286,97.78130124999998L537.3025210084033,102.28226264999999L542.0336134453781,110.19824149999997L546.7647058823529,112.09411535000004L551.4957983193277,115.69472600000003L556.2268907563025,119.40138349999998L560.9579831932773,126.11705740000002L565.6890756302521,129.7182745L570.420168067227,135.13281675000002L575.1512605042018,137.6784475L579.8823529411765,140.31785115000002L584.6134453781511,144.23976979999998L589.344537815126,158.35835219999998L594.0756302521008,161.5499406L598.8067226890756,170.27412165L603.5378151260504,180.9077765L608.2689075630252,187.31518529999997L613,197.84188460000001"></path></g><g class="left-y-axis"><g class="y-tick"><line style="stroke-width: 0.5px; stroke:black; opacity:0.15;" x1="613" y1="355" x2="50" y2="355"></line><text style="font-family:sans-serif; font-weight:300; font-size: 0.85rem; fill:black;text-anchor: end; dominant-baseline:middle;" x="40" y="355">0</text></g><g class="y-tick"><line style="stroke-width: 0.5px; stroke:black; opacity:0.15;" x1="613" y1="290" x2="50" y2="290"></line><text style="font-family:sans-serif; font-weight:300; font-size: 0.85rem; fill:black;text-anchor: end; dominant-baseline:middle;" x="40" y="290">10</text></g><g class="y-tick"><line style="stroke-width: 0.5px; stroke:black; opacity:0.15;" x1="613" y1="225" x2="50" y2="225"></line><text style="font-family:sans-serif; font-weight:300; font-size: 0.85rem; fill:black;text-anchor: end; dominant-baseline:middle;" x="40" y="225">20</text></g><g class="y-tick"><line style="stroke-width: 0.5px; stroke:black; opacity:0.15;" x1="613" y1="160" x2="50" y2="160"></line><text style="font-family:sans-serif; font-weight:300; font-size: 0.85rem; fill:black;text-anchor: end; dominant-baseline:middle;" x="40" y="160">30</text></g><g class="y-tick"><line style="stroke-width: 0.5px; stroke:black; opacity:0.15;" x1="613" y1="94.99999999999999" x2="50" y2="94.99999999999999"></line><text style="font-family:sans-serif; font-weight:300; font-size: 0.85rem; fill:black;text-anchor: end; dominant-baseline:middle;" x="40" y="94.99999999999999">40</text></g><g class="y-tick"><line style="stroke-width: 0.5px; stroke:black; opacity:0.15;" x1="613" y1="30" x2="50" y2="30"></line><text style="font-family:sans-serif; font-weight:300; font-size: 0.85rem; fill:black;text-anchor: end; dominant-baseline:middle;" x="40" y="30">50</text></g></g><g class="date-axis" style="stroke-width: 0.5px; stroke:black;"><g class="x-tick"><text style="font-family:sans-serif; font-weight:300; font-size: 0.85rem; fill:black;text-anchor: start; dominant-baseline:hanging;" x="50" y="372">5/15/2021</text></g><g class="x-tick"></g><g class="x-tick"></g><g class="x-tick"></g><g class="x-tick"></g><g class="x-tick"></g><g class="x-tick"></g><g class="x-tick"></g><g class="x-tick"></g><g class="x-tick"></g><g class="x-tick"></g><g class="x-tick"></g><g class="x-tick"></g><g class="x-tick"></g><g class="x-tick"></g><g class="x-tick"></g><g class="x-tick"></g><g class="x-tick"></g><g class="x-tick"></g><g class="x-tick"></g><g class="x-tick"></g><g class="x-tick"></g><g class="x-tick"></g><g class="x-tick"></g><g class="x-tick"></g><g class="x-tick"></g><g class="x-tick"></g><g class="x-tick"></g><g class="x-tick"></g><g class="x-tick"></g><g class="x-tick"></g><g class="x-tick"></g><g class="x-tick"></g><g class="x-tick"></g><g class="x-tick"></g><g class="x-tick"></g><g class="x-tick"></g><g class="x-tick"></g><g class="x-tick"></g><g class="x-tick"></g><g class="x-tick"></g><g class="x-tick"></g><g class="x-tick"></g><g class="x-tick"></g><g class="x-tick"></g><g class="x-tick"></g><g class="x-tick"></g><g class="x-tick"></g><g class="x-tick"></g><g class="x-tick"></g><g class="x-tick"></g><g class="x-tick"></g><g class="x-tick"></g><g class="x-tick"></g><g class="x-tick"></g><g class="x-tick"></g><g class="x-tick"></g><g class="x-tick"></g><g class="x-tick"></g><g class="x-tick"></g><g class="x-tick"></g><g class="x-tick"></g><g class="x-tick"></g><g class="x-tick"></g><g class="x-tick"></g><g class="x-tick"></g><g class="x-tick"></g><g class="x-tick"></g><g class="x-tick"></g><g class="x-tick"></g><g class="x-tick"></g><g class="x-tick"></g><g class="x-tick"></g><g class="x-tick"></g><g class="x-tick"></g><g class="x-tick"></g><g class="x-tick"></g><g class="x-tick"></g><g class="x-tick"></g><g class="x-tick"></g><g class="x-tick"></g><g class="x-tick"></g><g class="x-tick"></g><g class="x-tick"></g><g class="x-tick"></g><g class="x-tick"></g><g class="x-tick"></g><g class="x-tick"></g><g class="x-tick"></g><g class="x-tick"></g><g class="x-tick"></g><g class="x-tick"></g><g class="x-tick"></g><g class="x-tick"></g><g class="x-tick"></g><g class="x-tick"></g><g class="x-tick"></g><g class="x-tick"></g><g class="x-tick"></g><g class="x-tick"></g><g class="x-tick"></g><g class="x-tick"></g><g class="x-tick"></g><g class="x-tick"></g><g class="x-tick"></g><g class="x-tick"></g><g class="x-tick"></g><g class="x-tick"></g><g class="x-tick"></g><g class="x-tick"></g><g class="x-tick"></g><g class="x-tick"></g><g class="x-tick"></g><g class="x-tick"></g><g class="x-tick"></g><g class="x-tick"></g><g class="x-tick"></g><g class="x-tick"></g><g class="x-tick"></g><g class="x-tick"><text style="font-family:sans-serif; font-weight:300; font-size: 0.85rem; fill:black;text-anchor: end; dominant-baseline:hanging;" x="613" y="372">9/11/2021</text></g></g></svg>