<svg about="DATA_PUBLISHED_DATE:2021-11-24,RENDER_DATE:2022-01-28" xmlns="http://www.w3.org/2000/svg" viewBox="0,0,615,400"><g transform="translate(0,0)" style="fill:#CCCCCC;"></g><g class="fg-line postvax-cases_l1 line_s1" stroke="#1f2574" stroke-width="2px" fill="none"><path d="M50,326.3403907054709L54.73109243697479,325.2802515022622L59.462184873949575,323.69092966437813L64.19327731092437,322.1683332841623L68.92436974789916,320.56009672054637L73.65546218487395,318.893445215177L78.38655462184873,317.22053944760347L83.11764705882352,316.2263951504519L87.84873949579831,315.16568011417337L92.5798319327731,313.95651408205475L97.31092436974791,311.89257425683707L102.0420168067227,311.017760865234L106.77310924369749,309.9661444285232L111.50420168067227,309.1770343431959L116.23529411764704,308.5654143861395L120.96638655462185,308.2140568393542L125.69747899159663,307.37281049440213L130.42857142857144,307.11183696293347L135.1596638655462,307.04967070636474L139.890756302521,306.6905818112367L144.6218487394958,306.74582182795484L149.3529411764706,306.9600648881929L154.08403361344537,307.6228558215695L158.8151260504202,307.9119300087252L163.54621848739495,308.74130870493167L168.27731092436977,308.95182394962325L173.00840336134453,309.9560748983553L177.73949579831933,310.24708486151536L182.4705882352941,310.651993229538L187.2016806722689,310.86675859034955L191.9327731092437,311.66608940879337L196.66386554621852,312.1768338308391L201.39495798319325,313.05091483740455L206.12605042016807,313.7347852886651L210.85714285714286,314.691122733966L215.58823529411765,315.3078160618365L220.31932773109241,315.9593247781741L225.05042016806723,316.8431652390295L229.781512605042,317.888266532457L234.51260504201682,318.1603613578484L239.2436974789916,318.85086958914417L243.97478991596637,319.17722433256074L248.7058823529412,319.71495470306024L253.43697478991595,320.2510736795323L258.16806722689074,322.83769443404753L262.89915966386553,322.6329209332316L267.6302521008404,323.4466827248501L272.3613445378151,323.60693889589976L277.0924369747899,324.2091466747013L281.8235294117647,324.2179581903576L286.5546218487395,324.0475484917587L291.2857142857143,322.8092694227071L296.01680672268907,324.3518718623851L300.74789915966386,325.36636237120825L305.47899159663865,326.28523541083393L310.2100840336135,327.1296670231131L314.94117647058823,327.79317498783917L319.672268907563,328.3778424178159L324.4033613445378,328.8414983097986L329.1344537815126,329.5212893411497L333.8655462184874,330.07582408249965L338.5966386554622,330.73771893830343L343.32773109243703,331.1637823458373L348.05882352941177,331.34798384348346L352.7899159663865,331.535606951731L357.5210084033613,331.98146801910497L362.25210084033614,332.3087403906973L366.98319327731093,332.8239165936391L371.7142857142857,333.19205209494334L376.44537815126057,333.42561150848127L381.1764705882353,333.86806723909694L385.90756302521004,334.0677631355196L390.63865546218483,334.1104598019393L395.3697478991597,334.16717290873567L400.10084033613447,334.20309431380747L404.83193277310926,334.3205807013185L409.56302521008405,334.3197358755845L414.29411764705884,334.2140163644468L419.02521008403363,334.2128278736191L423.75630252100837,334.78305100659605L428.4873949579832,334.8986796852239L433.218487394958,335.02145187351636L437.9495798319328,335.1209471948846L442.68067226890753,335.1443856832144L447.4117647058824,335.1302291366298L452.14285714285717,334.8447616886914L456.8739495798319,334.15333268585147L461.6050420168067,333.824395163423L466.33613445378154,333.31786023360706L471.06722689075633,332.77454647844627L475.79831932773106,332.3642816386583L480.52941176470586,332.13268279217135L485.2605042016807,332.088178650262L489.99159663865544,331.88116751131133L494.7226890756302,331.82814154307096L499.4537815126051,331.6434768308732L504.1848739495798,331.80624212948254L508.9159663865546,332.2099030062359L513.6470588235294,332.34483247684733L518.3781512605042,332.5504136367664L523.109243697479,332.65007513318164L527.8403361344538,332.8078429197397L532.5714285714286,333.0068520551457L537.3025210084033,332.9841604022273L542.0336134453781,332.965113713174L546.7647058823529,333.08028956571474L551.4957983193277,333.16534577177936L556.2268907563025,333.6468367529257L560.9579831932773,334.13751711616186L565.6890756302521,334.87231126772525L570.420168067227,335.81191771242555L575.1512605042018,336.3691067482798L579.8823529411765,336.89150229119457L584.6134453781511,337.40605603683645L589.344537815126,338.0963179086894L594.0756302521008,338.8813516516661L598.8067226890756,339.55053498984057L603.5378151260504,340.0077164511414L608.2689075630252,341.27808270835646L613,342.77679238016736"></path></g><g class="fg-line postvax-cases_l2 line_s2" stroke="#dc4567" stroke-width="2px" fill="none"><path d="M50,182.29940253898076L54.73109243697479,177.335342923667L59.462184873949575,165.92040389957077L64.19327731092437,156.17178181887695L68.92436974789916,145.72164824554392L73.65546218487395,134.02182938258983L78.38655462184873,123.67237316671287L83.11764705882352,117.88454201138735L87.84873949579831,111.33029522793792L92.5798319327731,103.00197806757657L97.31092436974791,92.86629581428804L102.0420168067227,84.5576815864373L106.77310924369749,77.03614106987129L111.50420168067227,70.42436158919018L116.23529411764704,65.89403549289516L120.96638655462185,65.3438352453304L125.69747899159663,57.618280749953854L130.42857142857144,50.8737418153906L135.1596638655462,45.35891659327645L139.890756302521,43.58140608750466L144.6218487394958,40.071612995992645L149.3529411764706,40.0562349180787L154.08403361344537,40.953683154409774L158.8151260504202,41.28660034772365L163.54621848739495,42.23519817242883L168.27731092436977,44.03408666193091L173.00840336134453,44.19888145252908L177.73949579831933,43.79006005568121L182.4705882352941,45.23129243178748L187.2016806722689,47.82483407164181L191.9327731092437,49.72944944620508L196.66386554621852,54.27453257148577L201.39495798319325,57.530572169674045L206.12605042016807,62.02321919885563L210.85714285714286,68.30041610999842L215.58823529411765,71.08840149289038L220.31932773109241,73.42241715075457L225.05042016806723,79.96929880456338L229.781512605042,84.77862375850583L234.51260504201682,86.11934740519723L239.2436974789916,90.06849377664138L243.97478991596637,92.69541350018605L248.7058823529412,95.7729352162772L253.43697478991595,99.88590881309146L258.16806722689074,121.94368234432598L262.89915966386553,120.88327855171542L267.6302521008404,126.34333122031086L272.3613445378151,127.63413490916986L277.0924369747899,128.54350476903204L281.8235294117647,129.9086812915114L286.5546218487395,130.13500516351283L291.2857142857143,115.22604696235086L296.01680672268907,124.63989444884282L300.74789915966386,132.57380284853588L305.47899159663865,140.76663892512136L310.2100840336135,147.73636103825314L314.94117647058823,152.3972889480357L319.672268907563,156.48245317935334L324.4033613445378,162.96023028335884L329.1344537815126,169.82118479680295L333.8655462184874,174.88712837234027L338.5966386554622,179.94035095599207L343.32773109243703,183.50547142909136L348.05882352941177,186.25290794204096L352.7899159663865,187.8566610095075L357.5210084033613,192.2715567890102L362.25210084033614,195.40224386906496L366.98319327731093,199.7415064519152L371.7142857142857,202.22668083396394L376.44537815126057,203.874427708121L381.1764705882353,204.99567405365502L385.90756302521004,206.3149696347398L390.63865546218483,209.9718562847638L395.3697478991597,212.2111773021466L400.10084033613447,212.9509087797052L404.83193277310926,214.34046739661926L409.56302521008405,216.5170705829778L414.29411764705884,217.5730414004168L419.02521008403363,217.8991067099028L423.75630252100837,221.3206009558979L428.4873949579832,222.695432828045L433.218487394958,223.70944061213146L437.9495798319328,223.54268110572497L442.68067226890753,222.5709731578769L447.4117647058824,221.53537572844252L452.14285714285717,220.55547938277866L456.8739495798319,215.17851498232616L461.6050420168067,212.6294307535082L466.33613445378154,210.33457083661605L471.06722689075633,207.8228821025566L475.79831932773106,204.66696966398246L480.52941176470586,202.79512990323641L485.2605042016807,202.68542175788357L489.99159663865544,201.78509978668234L494.7226890756302,199.1344159513145L499.4537815126051,198.12381082484077L504.1848739495798,197.56969885552178L508.9159663865546,199.2705973244241L513.6470588235294,200.01677837868618L518.3781512605042,200.50359886290974L523.109243697479,200.1503843483795L527.8403361344538,201.97351797946456L532.5714285714286,202.85003500111034L537.3025210084033,202.68036968445142L542.0336134453781,202.3501547152706L546.7647058823529,203.60470391622673L551.4957983193277,204.0843155148049L556.2268907563025,207.9224312053869L560.9579831932773,209.93765927657296L565.6890756302521,212.7600502000004L570.420168067227,220.33631939824696L575.1512605042018,223.11920697808478L579.8823529411765,224.86140426787813L584.6134453781511,227.85795423053523L589.344537815126,230.94292761809393L594.0756302521008,235.69996801277543L598.8067226890756,240.80972773209166L603.5378151260504,242.69910716848904L608.2689075630252,251.83495175104179L613,262.41608159775325"></path></g><g class="left-y-axis"><g class="y-tick"><line style="stroke-width: 0.5px; stroke:black; opacity:0.15;" x1="613" y1="355" x2="50" y2="355"></line><text style="font-family:sans-serif; font-weight:300; font-size: 0.85rem; fill:black;text-anchor: end; dominant-baseline:middle;" x="40" y="355">0</text></g><g class="y-tick"><line style="stroke-width: 0.5px; stroke:black; opacity:0.15;" x1="613" y1="282.7777777777778" x2="50" y2="282.7777777777778"></line><text style="font-family:sans-serif; font-weight:300; font-size: 0.85rem; fill:black;text-anchor: end; dominant-baseline:middle;" x="40" y="282.7777777777778">20</text></g><g class="y-tick"><line style="stroke-width: 0.5px; stroke:black; opacity:0.15;" x1="613" y1="210.55555555555557" x2="50" y2="210.55555555555557"></line><text style="font-family:sans-serif; font-weight:300; font-size: 0.85rem; fill:black;text-anchor: end; dominant-baseline:middle;" x="40" y="210.55555555555557">40</text></g><g class="y-tick"><line style="stroke-width: 0.5px; stroke:black; opacity:0.15;" x1="613" y1="138.33333333333334" x2="50" y2="138.33333333333334"></line><text style="font-family:sans-serif; font-weight:300; font-size: 0.85rem; fill:black;text-anchor: end; dominant-baseline:middle;" x="40" y="138.33333333333334">60</text></g><g class="y-tick"><line style="stroke-width: 0.5px; stroke:black; opacity:0.15;" x1="613" y1="66.11111111111113" x2="50" y2="66.11111111111113"></line><text style="font-family:sans-serif; font-weight:300; font-size: 0.85rem; fill:black;text-anchor: end; dominant-baseline:middle;" x="40" y="66.11111111111113">80</text></g></g><g class="date-axis" style="stroke-width: 0.5px; stroke:black;"><g class="x-tick"><text style="font-family:sans-serif; font-weight:300; font-size: 0.85rem; fill:black;text-anchor: start; dominant-baseline:hanging;" x="50" y="372">7/24/2021</text></g><g class="x-tick"></g><g class="x-tick"></g><g class="x-tick"></g><g class="x-tick"></g><g class="x-tick"></g><g class="x-tick"></g><g class="x-tick"></g><g class="x-tick"></g><g class="x-tick"></g><g class="x-tick"></g><g class="x-tick"></g><g class="x-tick"></g><g class="x-tick"></g><g class="x-tick"></g><g class="x-tick"></g><g class="x-tick"></g><g class="x-tick"></g><g class="x-tick"></g><g class="x-tick"></g><g class="x-tick"></g><g class="x-tick"></g><g class="x-tick"></g><g class="x-tick"></g><g class="x-tick"></g><g class="x-tick"></g><g class="x-tick"></g><g class="x-tick"></g><g class="x-tick"></g><g class="x-tick"></g><g class="x-tick"></g><g class="x-tick"></g><g class="x-tick"></g><g class="x-tick"></g><g class="x-tick"></g><g class="x-tick"></g><g class="x-tick"></g><g class="x-tick"></g><g class="x-tick"></g><g class="x-tick"></g><g class="x-tick"></g><g class="x-tick"></g><g class="x-tick"></g><g class="x-tick"></g><g class="x-tick"></g><g class="x-tick"></g><g class="x-tick"></g><g class="x-tick"></g><g class="x-tick"></g><g class="x-tick"></g><g class="x-tick"></g><g class="x-tick"></g><g class="x-tick"></g><g class="x-tick"></g><g class="x-tick"></g><g class="x-tick"></g><g class="x-tick"></g><g class="x-tick"></g><g class="x-tick"></g><g class="x-tick"></g><g class="x-tick"></g><g class="x-tick"></g><g class="x-tick"></g><g class="x-tick"></g><g class="x-tick"></g><g class="x-tick"></g><g class="x-tick"></g><g class="x-tick"></g><g class="x-tick"></g><g class="x-tick"></g><g class="x-tick"></g><g class="x-tick"></g><g class="x-tick"></g><g class="x-tick"></g><g class="x-tick"></g><g class="x-tick"></g><g class="x-tick"></g><g class="x-tick"></g><g class="x-tick"></g><g class="x-tick"></g><g class="x-tick"></g><g class="x-tick"></g><g class="x-tick"></g><g class="x-tick"></g><g class="x-tick"></g><g class="x-tick"></g><g class="x-tick"></g><g class="x-tick"></g><g class="x-tick"></g><g class="x-tick"></g><g class="x-tick"></g><g class="x-tick"></g><g class="x-tick"></g><g class="x-tick"></g><g class="x-tick"></g><g class="x-tick"></g><g class="x-tick"></g><g class="x-tick"></g><g class="x-tick"></g><g class="x-tick"></g><g class="x-tick"></g><g class="x-tick"></g><g class="x-tick"></g><g class="x-tick"></g><g class="x-tick"></g><g class="x-tick"></g><g class="x-tick"></g><g class="x-tick"></g><g class="x-tick"></g><g class="x-tick"></g><g class="x-tick"></g><g class="x-tick"></g><g class="x-tick"></g><g class="x-tick"></g><g class="x-tick"></g><g class="x-tick"></g><g class="x-tick"></g><g class="x-tick"></g><g class="x-tick"></g><g class="x-tick"><text style="font-family:sans-serif; font-weight:300; font-size: 0.85rem; fill:black;text-anchor: end; dominant-baseline:hanging;" x="613" y="372">11/20/2021</text></g></g></svg>