<svg about="DATA_PUBLISHED_DATE:2021-11-24,RENDER_DATE:2022-01-15" xmlns="http://www.w3.org/2000/svg" viewBox="0,0,615,400"><g transform="translate(0,0)" style="fill:#CCCCCC;"></g><g class="fg-line postvax-hospitalizations_l1 line_s1" stroke="#1f2574" stroke-width="2px" fill="none"><path d="M50,340.8865119650702L54.73109243697479,339.9589606272897L59.462184873949575,338.74121098766955L64.19327731092437,337.8390757902193L68.92436974789916,337.2495697883897L73.65546218487395,336.63040905925527L78.38655462184873,336.0503328574545L83.11764705882352,335.55076794145776L87.84873949579831,334.9148640093754L92.5798319327731,334.7938076732306L97.31092436974791,334.1538007097066L102.0420168067227,334.06744434206985L106.77310924369749,333.36691678502154L111.50420168067227,333.04134995889683L116.23529411764704,332.6993422940575L120.96638655462185,332.4008818275516L125.69747899159663,331.2392746403846L130.42857142857144,331.33895104899875L135.1596638655462,331.5584275661703L139.890756302521,331.86620698270843L144.6218487394958,331.4527530315196L149.3529411764706,331.1147464848347L154.08403361344537,331.61014696244314L158.8151260504202,331.3695078898648L163.54621848739495,330.83328582689103L168.27731092436977,329.9647939373115L173.00840336134453,330.0621289674267L177.73949579831933,330.25830143900805L182.4705882352941,330.19614851608105L187.2016806722689,330.1506969921212L191.9327731092437,331.4774067079861L196.66386554621852,331.30838531279875L201.39495798319325,331.7343547773302L206.12605042016807,331.9519090371829L210.85714285714286,331.7926889592706L215.58823529411765,332.14993190743627L220.31932773109241,332.3444216066238L225.05042016806723,331.88251895956995L229.781512605042,333.5234847450883L234.51260504201682,333.3296243281461L239.2436974789916,333.28266392401235L243.97478991596637,333.6296252232485L248.7058823529412,334.1896849493802L253.43697478991595,334.3234370145384L258.16806722689074,335.7986720099879L262.89915966386553,335.22785899835617L267.6302521008404,335.9671217993921L272.3613445378151,336.5293175009899L277.0924369747899,336.8973880644252L281.8235294117647,337.0722694843068L286.5546218487395,337.23263478370586L291.2857142857143,336.7519983185068L296.01680672268907,337.22212953909707L300.74789915966386,337.5145906078795L305.47899159663865,337.43317813747586L310.2100840336135,338.39251855956076L314.94117647058823,338.4161580709228L319.672268907563,338.68578008581625L324.4033613445378,339.3769323513153L329.1344537815126,339.4712147225969L333.8655462184874,340.35263493402283L338.5966386554622,341.1452836444107L343.32773109243703,341.1224165934909L348.05882352941177,341.08631147676977L352.7899159663865,341.633135600257L357.5210084033613,341.71520632364076L362.25210084033614,342.58293820402974L366.98319327731093,342.49370591307L371.7142857142857,342.85302961567015L376.44537815126057,342.96406596214615L381.1764705882353,343.1471034386523L385.90756302521004,343.4065896210573L390.63865546218483,343.03715401957817L395.3697478991597,342.72270245343776L400.10084033613447,342.6026565745177L404.83193277310926,342.09382670555505L409.56302521008405,342.22803400925056L414.29411764705884,342.517178961982L419.02521008403363,342.35859259896694L423.75630252100837,342.59207694869053L428.4873949579832,342.6091523431793L433.218487394958,342.791803787285L437.9495798319328,342.7820839303765L442.68067226890753,342.08902316441623L447.4117647058824,342.2375307827471L452.14285714285717,341.9157773294829L456.8739495798319,341.8487456022283L461.6050420168067,341.8363679146682L466.33613445378154,341.9330652240336L471.06722689075633,341.266717000127L475.79831932773106,341.7490712712682L480.52941176470586,341.5692498737079L485.2605042016807,341.6025630826585L489.99159663865544,341.3730091084285L494.7226890756302,341.79449016152597L499.4537815126051,341.2934452060252L504.1848739495798,342.28161838316197L508.9159663865546,342.70318507530715L513.6470588235294,343.2245344246836L518.3781512605042,343.3637845580417L523.109243697479,344.4820357602021L527.8403361344538,344.97715609001597L532.5714285714286,345.33659332157146L537.3025210084033,345.6148377925947L542.0336134453781,346.35149514339594L546.7647058823529,346.5989354702882L551.4957983193277,346.8434191274817L556.2268907563025,347.09318581038167L560.9579831932773,347.71720073872234L565.6890756302521,348.8212676449761L570.420168067227,349.7361993631741L575.1512605042018,349.8494618063665L579.8823529411765,350.30619205191493L584.6134453781511,350.9743800242547L589.344537815126,351.69779452554786L594.0756302521008,352.04703288098557L598.8067226890756,352.5549223922145L603.5378151260504,352.9024963393864L608.2689075630252,353.51498865925396L613,353.80742011899974"></path></g><g class="fg-line postvax-hospitalizations_l2 line_s2" stroke="#dc4567" stroke-width="2px" fill="none"><path d="M50,182.5578527131458L54.73109243697479,174.7995143012284L59.462184873949575,163.50576805551125L64.19327731092437,150.54926336873788L68.92436974789916,139.312544633548L73.65546218487395,130.13984652816836L78.38655462184873,121.98095086892337L83.11764705882352,119.07175055299469L87.84873949579831,112.75580775365485L92.5798319327731,104.49948479961866L97.31092436974791,93.94582419346868L102.0420168067227,83.77678220549939L106.77310924369749,77.00560901155298L111.50420168067227,70.43971004064429L116.23529411764704,62.75021630515096L120.96638655462185,61.05945246143499L125.69747899159663,54.92123387301788L130.42857142857144,49.642335203910655L135.1596638655462,50.45628842597413L139.890756302521,48.20357445726343L144.6218487394958,42.73254998991252L149.3529411764706,43.412192449225515L154.08403361344537,41.591045266639014L158.8151260504202,42.52336765676582L163.54621848739495,42.873164271853454L168.27731092436977,42.01851745836875L173.00840336134453,40.41493159896874L177.73949579831933,36.10258534617683L182.4705882352941,37.89335239007702L187.2016806722689,40.73790558144093L191.9327731092437,41.99864039447329L196.66386554621852,47.26595291719367L201.39495798319325,47.210720343961L206.12605042016807,50.369921379686296L210.85714285714286,60.34331885577223L215.58823529411765,60.60500368416443L220.31932773109241,61.51334824145691L225.05042016806723,65.15135113229508L229.781512605042,67.83346899915028L234.51260504201682,70.60916659662813L239.2436974789916,74.40260236989451L243.97478991596637,75.27024860045333L248.7058823529412,82.29896405324226L253.43697478991595,88.31716085356042L258.16806722689074,100.77772269585705L262.89915966386553,102.50390784593378L267.6302521008404,109.58288503846887L272.3613445378151,115.24620356768045L277.0924369747899,119.73006846730527L281.8235294117647,123.94230378597341L286.5546218487395,128.59022186271613L291.2857142857143,126.39317917509865L296.01680672268907,134.5514123173107L300.74789915966386,140.41907175195735L305.47899159663865,146.68252481426373L310.2100840336135,150.78286853945954L314.94117647058823,155.4388929668149L319.672268907563,159.12891817153113L324.4033613445378,163.34724239342898L329.1344537815126,169.34859435932756L333.8655462184874,173.5546967006369L338.5966386554622,178.13627654552752L343.32773109243703,186.79282075719743L348.05882352941177,187.61253665022144L352.7899159663865,190.079586254813L357.5210084033613,194.69958715134052L362.25210084033614,199.47863538553239L366.98319327731093,203.9486661733452L371.7142857142857,205.20686336692742L376.44537815126057,203.16373302015765L381.1764705882353,205.57036681674123L385.90756302521004,209.7103969960354L390.63865546218483,211.1284537936637L395.3697478991597,212.58373333952704L400.10084033613447,212.07012462318963L404.83193277310926,212.7864267862941L409.56302521008405,216.26355092177621L414.29411764705884,217.0403296987736L419.02521008403363,217.299390863867L423.75630252100837,220.79679036895246L428.4873949579832,225.01377128437542L433.218487394958,225.99962179844619L437.9495798319328,225.83128276393612L442.68067226890753,224.2674792530171L447.4117647058824,225.73830221573718L452.14285714285717,225.45153182952987L456.8739495798319,222.08415910147292L461.6050420168067,217.254186042307L466.33613445378154,218.76607834506285L471.06722689075633,217.79643606274735L475.79831932773106,216.03489609559074L480.52941176470586,213.74864901868554L485.2605042016807,214.36933994535326L489.99159663865544,212.81325265140234L494.7226890756302,213.52142155666016L499.4537815126051,211.64150340757135L504.1848739495798,212.5561419204981L508.9159663865546,215.70836511631006L513.6470588235294,217.93304436720678L518.3781512605042,220.57890603369458L523.109243697479,226.812328447168L527.8403361344538,230.78277586871468L532.5714285714286,233.25933134805123L537.3025210084033,239.46383181172095L542.0336134453781,245.01246855238003L546.7647058823529,251.08245299865226L551.4957983193277,254.60091018141785L556.2268907563025,264.81471625994317L560.9579831932773,274.14081808807634L565.6890756302521,286.3629076430054L570.420168067227,294.49600320806303L575.1512605042018,301.9692961016381L579.8823529411765,306.6577852988737L584.6134453781511,313.087562574255L589.344537815126,317.8513792881592L594.0756302521008,321.4654687391298L598.8067226890756,325.31201250278406L603.5378151260504,329.18983548071697L608.2689075630252,334.290586689451L613,339.682066618176"></path></g><g class="left-y-axis"><g class="y-tick"><line style="stroke-width: 0.5px; stroke:black; opacity:0.15;" x1="613" y1="355" x2="50" y2="355"></line><text style="font-family:sans-serif; font-weight:300; font-size: 0.85rem; fill:black;text-anchor: end; dominant-baseline:middle;" x="40" y="355">0</text></g><g class="y-tick"><line style="stroke-width: 0.5px; stroke:black; opacity:0.15;" x1="613" y1="262.14285714285717" x2="50" y2="262.14285714285717"></line><text style="font-family:sans-serif; font-weight:300; font-size: 0.85rem; fill:black;text-anchor: end; dominant-baseline:middle;" x="40" y="262.14285714285717">20</text></g><g class="y-tick"><line style="stroke-width: 0.5px; stroke:black; opacity:0.15;" x1="613" y1="169.2857142857143" x2="50" y2="169.2857142857143"></line><text style="font-family:sans-serif; font-weight:300; font-size: 0.85rem; fill:black;text-anchor: end; dominant-baseline:middle;" x="40" y="169.2857142857143">40</text></g><g class="y-tick"><line style="stroke-width: 0.5px; stroke:black; opacity:0.15;" x1="613" y1="76.42857142857144" x2="50" y2="76.42857142857144"></line><text style="font-family:sans-serif; font-weight:300; font-size: 0.85rem; fill:black;text-anchor: end; dominant-baseline:middle;" x="40" y="76.42857142857144">60</text></g></g><g class="date-axis" style="stroke-width: 0.5px; stroke:black;"><g class="x-tick"><text style="font-family:sans-serif; font-weight:300; font-size: 0.85rem; fill:black;text-anchor: start; dominant-baseline:hanging;" x="50" y="372">7/24/2021</text></g><g class="x-tick"></g><g class="x-tick"></g><g class="x-tick"></g><g class="x-tick"></g><g class="x-tick"></g><g class="x-tick"></g><g class="x-tick"></g><g class="x-tick"></g><g class="x-tick"></g><g class="x-tick"></g><g class="x-tick"></g><g class="x-tick"></g><g class="x-tick"></g><g class="x-tick"></g><g class="x-tick"></g><g class="x-tick"></g><g class="x-tick"></g><g class="x-tick"></g><g class="x-tick"></g><g class="x-tick"></g><g class="x-tick"></g><g class="x-tick"></g><g class="x-tick"></g><g class="x-tick"></g><g class="x-tick"></g><g class="x-tick"></g><g class="x-tick"></g><g class="x-tick"></g><g class="x-tick"></g><g class="x-tick"></g><g class="x-tick"></g><g class="x-tick"></g><g class="x-tick"></g><g class="x-tick"></g><g class="x-tick"></g><g class="x-tick"></g><g class="x-tick"></g><g class="x-tick"></g><g class="x-tick"></g><g class="x-tick"></g><g class="x-tick"></g><g class="x-tick"></g><g class="x-tick"></g><g class="x-tick"></g><g class="x-tick"></g><g class="x-tick"></g><g class="x-tick"></g><g class="x-tick"></g><g class="x-tick"></g><g class="x-tick"></g><g class="x-tick"></g><g class="x-tick"></g><g class="x-tick"></g><g class="x-tick"></g><g class="x-tick"></g><g class="x-tick"></g><g class="x-tick"></g><g class="x-tick"></g><g class="x-tick"></g><g class="x-tick"></g><g class="x-tick"></g><g class="x-tick"></g><g class="x-tick"></g><g class="x-tick"></g><g class="x-tick"></g><g class="x-tick"></g><g class="x-tick"></g><g class="x-tick"></g><g class="x-tick"></g><g class="x-tick"></g><g class="x-tick"></g><g class="x-tick"></g><g class="x-tick"></g><g class="x-tick"></g><g class="x-tick"></g><g class="x-tick"></g><g class="x-tick"></g><g class="x-tick"></g><g class="x-tick"></g><g class="x-tick"></g><g class="x-tick"></g><g class="x-tick"></g><g class="x-tick"></g><g class="x-tick"></g><g class="x-tick"></g><g class="x-tick"></g><g class="x-tick"></g><g class="x-tick"></g><g class="x-tick"></g><g class="x-tick"></g><g class="x-tick"></g><g class="x-tick"></g><g class="x-tick"></g><g class="x-tick"></g><g class="x-tick"></g><g class="x-tick"></g><g class="x-tick"></g><g class="x-tick"></g><g class="x-tick"></g><g class="x-tick"></g><g class="x-tick"></g><g class="x-tick"></g><g class="x-tick"></g><g class="x-tick"></g><g class="x-tick"></g><g class="x-tick"></g><g class="x-tick"></g><g class="x-tick"></g><g class="x-tick"></g><g class="x-tick"></g><g class="x-tick"></g><g class="x-tick"></g><g class="x-tick"></g><g class="x-tick"></g><g class="x-tick"></g><g class="x-tick"></g><g class="x-tick"></g><g class="x-tick"></g><g class="x-tick"><text style="font-family:sans-serif; font-weight:300; font-size: 0.85rem; fill:black;text-anchor: end; dominant-baseline:hanging;" x="613" y="372">11/20/2021</text></g></g></svg>