<svg about="DATA_PUBLISHED_DATE:2021-12-29,RENDER_DATE:2021-12-29" xmlns="http://www.w3.org/2000/svg" viewBox="0,0,615,400"><g transform="translate(0,0)" style="fill:#CCCCCC;"></g><g class="fg-line postvax-hospitalizations_l1 line_s1" stroke="#1f2574" stroke-width="2px" fill="none"><path d="M50,331.2429791428571L54.73109243697479,331.00379864285713L59.462184873949575,330.5002524642857L64.19327731092437,329.8756298571429L68.92436974789916,330.1526900357143L73.65546218487395,330.22842339285717L78.38655462184873,330.10683764285716L83.11764705882352,330.00191L87.84873949579831,331.3241534642857L92.5798319327731,331.2454036428571L97.31092436974791,331.6105750357143L102.0420168067227,331.8573401071428L106.77310924369749,331.6694195357143L111.50420168067227,332.14396828571427L116.23529411764704,332.27876435714285L120.96638655462185,331.78938353571425L125.69747899159663,333.4248638571429L130.42857142857144,333.2909671071429L135.1596638655462,333.3032038214286L139.890756302521,333.79544557142856L144.6218487394958,334.1781980714286L149.3529411764706,334.3991929642857L154.08403361344537,335.8691545L158.8151260504202,335.32962014285715L163.54621848739495,335.8922555L168.27731092436977,336.337044L173.00840336134453,336.64684978571427L177.73949579831933,336.9369002142857L182.4705882352941,336.9818040714286L187.2016806722689,336.47503621428575L191.9327731092437,336.77231975L196.66386554621852,337.12210425L201.39495798319325,337.0991434642857L206.12605042016807,338.05604746428577L210.85714285714286,338.1086802857143L215.58823529411765,338.3492211428571L220.31932773109241,338.92435600000005L225.05042016806723,339.07628375L229.781512605042,339.92706875L234.51260504201682,340.717758L239.2436974789916,340.6962652857143L243.97478991596637,340.5204843928571L248.7058823529412,341.17815346428574L253.43697478991595,341.3731279285714L258.16806722689074,342.1823890714286L262.89915966386553,342.1502781428571L267.6302521008404,342.45339032142857L272.3613445378151,342.73197985714285L277.0924369747899,343.0536151785715L281.8235294117647,343.20118607142854L286.5546218487395,342.80597075L291.2857142857143,342.52091185714283L296.01680672268907,342.31890207142857L300.74789915966386,341.92298242857146L305.47899159663865,341.8646272857143L310.2100840336135,342.15330900000004L314.94117647058823,342.05068374999996L319.672268907563,342.20166017857144L324.4033613445378,342.2197585L329.1344537815126,342.4027729642857L333.8655462184874,342.0660841071429L338.5966386554622,341.26849092857145L343.32773109243703,341.3901221785714L348.05882352941177,340.93403017857145L352.7899159663865,340.7600414285714L357.5210084033613,340.64059464285714L362.25210084033614,340.5214185357143L366.98319327731093,339.83290371428575L371.7142857142857,340.1262686785714L376.44537815126057,339.6510337142857L381.1764705882353,339.5228620714286L385.90756302521004,338.99987671428573L390.63865546218483,339.2606316428571L395.3697478991597,338.89973167857147L400.10084033613447,339.9672554642857L404.83193277310926,340.3098040714286L409.56302521008405,340.615617L414.29411764705884,340.86282360714284L419.02521008403363,341.5496047857143L423.75630252100837,341.85795457142854L428.4873949579832,341.79037267857143L433.218487394958,341.85702414285714L437.9495798319328,342.4353365714286L442.68067226890753,342.49777L447.4117647058824,342.5826395714286L452.14285714285717,342.9166485714286L456.8739495798319,342.8234938214286L461.6050420168067,343.76835750000004L466.33613445378154,344.365818L471.06722689075633,344.24722178571426L475.79831932773106,344.20159225L480.52941176470586,344.2853401071429L485.2605042016807,344.4039739285714L489.99159663865544,344.7599724285714L494.7226890756302,344.53321900000003L499.4537815126051,344.62385360714285L504.1848739495798,344.9014672142857L508.9159663865546,345.4088432857143L513.6470588235294,345.30721485714287L518.3781512605042,345.60717267857143L523.109243697479,345.2225509642857L527.8403361344538,345.4684515357143L532.5714285714286,345.31958249999997L537.3025210084033,345.5927918928571L542.0336134453781,345.31020253571427L546.7647058823529,345.28704814285715L551.4957983193277,345.2702293928572L556.2268907563025,345.17527275L560.9579831932773,344.21898717857147L565.6890756302521,343.8640073214286L570.420168067227,343.40690875L575.1512605042018,343.46554107142856L579.8823529411765,343.2868189285714L584.6134453781511,343.32383735714285L589.344537815126,344.4260288928571L594.0756302521008,345.49915985714284L598.8067226890756,345.99268814285716L603.5378151260504,346.3620042142857L608.2689075630252,346.5733684285714L613,347.3273675"></path></g><g class="fg-line postvax-hospitalizations_l2 line_s2" stroke="#dc4567" stroke-width="2px" fill="none"><path d="M50,38.57913596428575L54.73109243697479,39.35647653571426L59.462184873949575,38.78056074999995L64.19327731092437,37.54527892857139L68.92436974789916,35.55281907142859L73.65546218487395,31.749168571428598L78.38655462184873,33.45603792857137L83.11764705882352,36.158756964285736L87.84873949579831,36.89247696428569L92.5798319327731,42.511167964285704L97.31092436974791,42.35290875000001L102.0420168067227,44.90984857142854L106.77310924369749,55.035125142857176L111.50420168067227,54.97651046428573L116.23529411764704,55.9487776785714L120.96638655462185,60.38991474999998L125.69747899159663,63.42910535714283L130.42857142857144,65.88957821428566L135.1596638655462,70.12639846428571L139.890756302521,70.04950810714284L144.6218487394958,77.6258872142857L149.3529411764706,83.66133500000001L154.08403361344537,96.15570742857142L158.8151260504202,97.47438564285719L163.54621848739495,105.02939089285712L168.27731092436977,110.30160264285718L173.00840336134453,115.01266753571424L177.73949579831933,118.75133475000001L182.4705882352941,123.25278532142856L187.2016806722689,121.49579028571428L191.9327731092437,129.83223900000002L196.66386554621852,135.21761760714284L201.39495798319325,141.48872335714285L206.12605042016807,145.66084075000003L210.85714285714286,150.57046764285715L215.58823529411765,154.10593557142857L220.31932773109241,158.01247317857138L225.05042016806723,163.7743364285714L229.781512605042,168.55682099999999L234.51260504201682,173.63914453571428L239.2436974789916,182.23307078571426L243.97478991596637,183.03994457142858L248.7058823529412,186.01666646428572L253.43697478991595,189.88379085714283L258.16806722689074,195.17862910714288L262.89915966386553,199.48630678571425L267.6302521008404,199.96177992857145L272.3613445378151,197.53676317857142L277.0924369747899,199.85497610714285L281.8235294117647,203.92394267857142L286.5546218487395,205.15214924999998L291.2857142857143,205.98359907142859L296.01680672268907,205.35354060714286L300.74789915966386,206.39885760714287L305.47899159663865,209.6026546785714L310.2100840336135,210.1014888214286L314.94117647058823,209.7343284285714L319.672268907563,212.86585524999995L324.4033613445378,216.451486L329.1344537815126,217.04858528571427L333.8655462184874,216.30117814285717L338.5966386554622,214.31821107142858L343.32773109243703,214.95706589285714L348.05882352941177,214.19823825L352.7899159663865,210.22005021428575L357.5210084033613,204.58379760714286L362.25210084033614,204.86491657142858L366.98319327731093,202.17747114285714L371.7142857142857,198.56869760714284L376.44537815126057,194.6460539285714L381.1764705882353,193.94404974999998L385.90756302521004,189.13075750000002L390.63865546218483,186.8617542142857L395.3697478991597,181.40371025000002L400.10084033613447,179.20682260714284L404.83193277310926,179.20959903571426L409.56302521008405,179.28129496428568L414.29411764705884,178.95450096428573L419.02521008403363,181.46398474999995L423.75630252100837,181.21502128571433L428.4873949579832,180.58688775000002L433.218487394958,183.59647039285716L437.9495798319328,186.24497339285713L442.68067226890753,187.57562135714284L447.4117647058824,188.32746846428572L452.14285714285717,192.13217846428572L456.8739495798319,195.76928317857144L461.6050420168067,201.98706942857143L466.33613445378154,204.84034935714286L471.06722689075633,206.72519521428575L475.79831932773106,206.3665781428571L480.52941176470586,210.0353550357143L485.2605042016807,211.501801L489.99159663865544,213.58110782142856L494.7226890756302,214.0847022857143L499.4537815126051,215.29014864285713L504.1848739495798,217.41326314285712L508.9159663865546,222.95621057142856L513.6470588235294,222.45433953571427L518.3781512605042,226.26271971428574L523.109243697479,224.41664914285715L527.8403361344538,225.44643810714285L532.5714285714286,227.4698955357143L537.3025210084033,225.44738385714288L542.0336134453781,223.3952609642857L546.7647058823529,222.3422688571429L551.4957983193277,220.14456639285714L556.2268907563025,219.3618419642857L560.9579831932773,215.81736039285713L565.6890756302521,213.4250474642857L570.420168067227,210.82654571428574L575.1512605042018,213.68499685714286L579.8823529411765,216.34989564285715L584.6134453781511,217.82410307142857L589.344537815126,219.71899885714285L594.0756302521008,226.30451657142856L598.8067226890756,230.55774003571432L603.5378151260504,237.62897582142858L608.2689075630252,238.36522200000002L613,243.3804144642857"></path></g><g class="left-y-axis"><g class="y-tick"><line style="stroke-width: 0.5px; stroke:black; opacity:0.15;" x1="613" y1="355" x2="50" y2="355"></line><text style="font-family:sans-serif; font-weight:300; font-size: 0.85rem; fill:black;text-anchor: end; dominant-baseline:middle;" x="40" y="355">0</text></g><g class="y-tick"><line style="stroke-width: 0.5px; stroke:black; opacity:0.15;" x1="613" y1="262.14285714285717" x2="50" y2="262.14285714285717"></line><text style="font-family:sans-serif; font-weight:300; font-size: 0.85rem; fill:black;text-anchor: end; dominant-baseline:middle;" x="40" y="262.14285714285717">20</text></g><g class="y-tick"><line style="stroke-width: 0.5px; stroke:black; opacity:0.15;" x1="613" y1="169.2857142857143" x2="50" y2="169.2857142857143"></line><text style="font-family:sans-serif; font-weight:300; font-size: 0.85rem; fill:black;text-anchor: end; dominant-baseline:middle;" x="40" y="169.2857142857143">40</text></g><g class="y-tick"><line style="stroke-width: 0.5px; stroke:black; opacity:0.15;" x1="613" y1="76.42857142857144" x2="50" y2="76.42857142857144"></line><text style="font-family:sans-serif; font-weight:300; font-size: 0.85rem; fill:black;text-anchor: end; dominant-baseline:middle;" x="40" y="76.42857142857144">60</text></g></g><g class="date-axis" style="stroke-width: 0.5px; stroke:black;"><g class="x-tick"><text style="font-family:sans-serif; font-weight:300; font-size: 0.85rem; fill:black;text-anchor: start; dominant-baseline:hanging;" x="50" y="372">8/15/2021</text></g><g class="x-tick"></g><g class="x-tick"></g><g class="x-tick"></g><g class="x-tick"></g><g class="x-tick"></g><g class="x-tick"></g><g class="x-tick"></g><g class="x-tick"></g><g class="x-tick"></g><g class="x-tick"></g><g class="x-tick"></g><g class="x-tick"></g><g class="x-tick"></g><g class="x-tick"></g><g class="x-tick"></g><g class="x-tick"></g><g class="x-tick"></g><g class="x-tick"></g><g class="x-tick"></g><g class="x-tick"></g><g class="x-tick"></g><g class="x-tick"></g><g class="x-tick"></g><g class="x-tick"></g><g class="x-tick"></g><g class="x-tick"></g><g class="x-tick"></g><g class="x-tick"></g><g class="x-tick"></g><g class="x-tick"></g><g class="x-tick"></g><g class="x-tick"></g><g class="x-tick"></g><g class="x-tick"></g><g class="x-tick"></g><g class="x-tick"></g><g class="x-tick"></g><g class="x-tick"></g><g class="x-tick"></g><g class="x-tick"></g><g class="x-tick"></g><g class="x-tick"></g><g class="x-tick"></g><g class="x-tick"></g><g class="x-tick"></g><g class="x-tick"></g><g class="x-tick"></g><g class="x-tick"></g><g class="x-tick"></g><g class="x-tick"></g><g class="x-tick"></g><g class="x-tick"></g><g class="x-tick"></g><g class="x-tick"></g><g class="x-tick"></g><g class="x-tick"></g><g class="x-tick"></g><g class="x-tick"></g><g class="x-tick"></g><g class="x-tick"></g><g class="x-tick"></g><g class="x-tick"></g><g class="x-tick"></g><g class="x-tick"></g><g class="x-tick"></g><g class="x-tick"></g><g class="x-tick"></g><g class="x-tick"></g><g class="x-tick"></g><g class="x-tick"></g><g class="x-tick"></g><g class="x-tick"></g><g class="x-tick"></g><g class="x-tick"></g><g class="x-tick"></g><g class="x-tick"></g><g class="x-tick"></g><g class="x-tick"></g><g class="x-tick"></g><g class="x-tick"></g><g class="x-tick"></g><g class="x-tick"></g><g class="x-tick"></g><g class="x-tick"></g><g class="x-tick"></g><g class="x-tick"></g><g class="x-tick"></g><g class="x-tick"></g><g class="x-tick"></g><g class="x-tick"></g><g class="x-tick"></g><g class="x-tick"></g><g class="x-tick"></g><g class="x-tick"></g><g class="x-tick"></g><g class="x-tick"></g><g class="x-tick"></g><g class="x-tick"></g><g class="x-tick"></g><g class="x-tick"></g><g class="x-tick"></g><g class="x-tick"></g><g class="x-tick"></g><g class="x-tick"></g><g class="x-tick"></g><g class="x-tick"></g><g class="x-tick"></g><g class="x-tick"></g><g class="x-tick"></g><g class="x-tick"></g><g class="x-tick"></g><g class="x-tick"></g><g class="x-tick"></g><g class="x-tick"></g><g class="x-tick"></g><g class="x-tick"></g><g class="x-tick"></g><g class="x-tick"></g><g class="x-tick"><text style="font-family:sans-serif; font-weight:300; font-size: 0.85rem; fill:black;text-anchor: end; dominant-baseline:hanging;" x="613" y="372">12/12/2021</text></g></g></svg>