<svg about="DATA_PUBLISHED_DATE:2021-11-24,RENDER_DATE:2021-11-29" xmlns="http://www.w3.org/2000/svg" viewBox="0,0,615,400"><g transform="translate(0,0)" style="fill:#CCCCCC;"></g><g class="fg-line postvax-hospitalizations_l1 line_s1" stroke="#1f2574" stroke-width="2px" fill="none"><path d="M50,342.2437361875L55.36190476190477,341.40432171875L60.72380952380952,340.29929409375L66.08571428571429,339.47944624999997L71.44761904761904,338.94220296875L76.8095238095238,338.3777555625L82.17142857142856,337.90399209375005L87.53333333333333,337.44836484374997L92.8952380952381,336.87120059375L98.25714285714287,336.75725681250003L103.61904761904762,336.17286821874995L108.98095238095237,336.11775796875L114.34285714285713,335.47863003124996L119.70476190476191,335.12290006250004L125.06666666666666,334.81008959375L130.42857142857144,334.53899165625L135.7904761904762,333.48286840625L141.15238095238095,333.56847584375004L146.5142857142857,333.7356359375L151.87619047619046,334.03824303125003L157.23809523809524,333.65788740625L162.60000000000002,333.34790728125L167.96190476190475,333.82353624999996L173.32380952380953,333.62805687499997L178.68571428571428,333.13603693749997L184.04761904761904,332.3424495L189.40952380952382,332.39863590625L194.77142857142854,332.57020503125L200.13333333333333,332.509683125L205.4952380952381,332.439193875L210.85714285714286,333.61260475L216.21904761904761,333.45331046875003L221.5809523809524,333.86306925L226.94285714285712,334.05616475L232.3047619047619,333.9042589375L237.66666666666666,334.22491653125L243.02857142857144,334.39976774999997L248.3904761904762,334.00127346874996L253.75238095238095,335.5175036875L259.1142857142857,335.30914375L264.4761904761905,335.26172178124995L269.8380952380952,335.57054531250003L275.20000000000005,336.07593453125L280.56190476190477,336.19584937499997L285.9238095238095,337.50991740625L291.2857142857143,336.95743325000007L296.647619047619,337.65378271875L302.0095238095238,338.16256656250005L307.37142857142857,338.51803246875L312.73333333333335,338.672663L318.0952380952381,338.81721L323.45714285714286,338.42630893750004L328.81904761904764,338.85168925L334.18095238095236,339.11538490625003L339.5428571428571,339.03746209375L344.9047619047619,339.88260753125L350.26666666666665,339.90033303124994L355.6285714285714,340.1455573125L360.9904761904762,340.7254564375L366.352380952381,340.80860565625L371.7142857142857,341.58722034375L377.0761904761905,342.31123868749995L382.43809523809523,342.31232459375L387.8,342.27618621875L393.1619047619048,342.77624381249996L398.5238095238095,342.8757311875L403.88571428571424,343.66972081250003L409.247619047619,343.58649440625L414.6095238095238,343.91452625L419.9714285714286,344.01367278125L425.3333333333333,344.17957675L430.69523809523815,344.4168495L436.0571428571429,344.0513114375L441.4190476190476,343.76171531250003L446.7809523809524,343.6504856875L452.14285714285717,343.20801646875L457.5047619047619,343.30340234375L462.8666666666666,343.56726821875L468.2285714285714,343.42109378125L473.59047619047624,343.63502137499995L478.95238095238096,343.65002621875L484.31428571428575,343.8170368125L489.67619047619047,343.8073973125L495.0380952380952,343.16931831249997L500.40000000000003,343.30437328125L505.76190476190476,343.00836815625L511.1238095238095,342.97105815624997L516.4857142857144,342.95890518749997L521.847619047619,343.0720019375L527.2095238095238,342.4340480625L532.5714285714286,342.87558371874997L537.9333333333333,342.7092515625L543.295238095238,342.73938434375L548.6571428571427,342.50281034375L554.0190476190476,342.93938203125L559.3809523809524,342.45334128124995L564.7428571428571,343.36094887499996L570.104761904762,343.74703425L575.4666666666667,344.22539728125L580.8285714285714,344.35313934375L586.1904761904761,345.38052528125L591.552380952381,345.78561625L596.9142857142857,346.11567284374996L602.2761904761904,346.37109359374995L607.6380952380953,347.0723245625L613,347.29927368750003"></path></g><g class="fg-line postvax-hospitalizations_l2 line_s2" stroke="#dc4567" stroke-width="2px" fill="none"><path d="M50,185.4298321875L55.36190476190477,177.68066015625L60.72380952380952,166.63997953125L66.08571428571429,154.0283159375L71.44761904761904,143.0623755625L76.8095238095238,134.08958665625L82.17142857142856,126.52808587499999L87.53333333333333,123.76169725000001L92.8952380952381,117.58938134374999L98.25714285714287,109.67548225L103.61904761904762,99.37533240624998L108.98095238095237,89.70846943750001L114.34285714285713,83.09649759374996L119.70476190476191,76.32003593749997L125.06666666666666,68.7668945625L130.42857142857144,67.39090875000001L135.7904761904762,61.346108218750004L141.15238095238095,56.042804937499994L146.5142857142857,56.628935937499946L151.87619047619046,54.58811062500002L157.23809523809524,49.18507174999996L162.60000000000002,49.747462718750015L167.96190476190475,47.8456679375L173.32380952380953,48.89000425000005L178.68571428571428,49.38162809375001L184.04761904761904,49.020394656250005L189.40952380952382,47.728028093750055L194.77142857142854,43.93678771874995L200.13333333333333,46.03401678125001L205.4952380952381,48.882675093749995L210.85714285714286,50.272223562499995L216.21904761904761,55.882209843750054L221.5809523809524,55.72545787500003L226.94285714285712,58.64025165625L232.3047619047619,68.31717459375L237.66666666666666,68.48024618750004L243.02857142857144,69.40827921875004L248.3904761904762,72.79641153125L253.75238095238095,75.03134553125001L259.1142857142857,77.78611459374997L264.4761904761905,81.52993096874995L269.8380952380952,82.86411934375002L275.20000000000005,89.72107171875L280.56190476190477,95.49888109375L285.9238095238095,107.57966978124999L291.2857142857143,109.20191296875001L296.647619047619,115.85836106250001L302.0095238095238,121.42718284375L307.37142857142857,125.3633874375L312.73333333333335,129.65076712500002L318.0952380952381,134.06947565624998L323.45714285714286,132.45700724999998L328.81904761904764,140.61685578125002L334.18095238095236,146.458772625L339.5428571428571,152.52732253125L344.9047619047619,156.77312415625002L350.26666666666665,161.30774109375L355.6285714285714,165.0996310625L360.9904761904762,168.916175125L366.352380952381,175.03675996875L371.7142857142857,179.40263203125L377.0761904761905,183.897393L382.43809523809523,192.26225924999997L387.8,193.35268909374997L393.1619047619048,195.61654362499996L398.5238095238095,200.06523584374997L403.88571428571424,204.50523756249999L409.247619047619,208.56140493750001L414.6095238095238,209.71728165624995L419.9714285714286,207.91269478125L425.3333333333333,209.96087809374998L430.69523809523815,214.18886078125L436.0571428571429,215.49204456249998L441.4190476190476,216.74679765625L446.7809523809524,216.32904671874996L452.14285714285717,216.94363715625L457.5047619047619,220.28785303125002L462.8666666666666,221.15177574999998L468.2285714285714,221.40606793750004L473.59047619047624,224.73829862500003L478.95238095238096,228.86455834375L484.31428571428575,229.7366060625L489.67619047619047,229.74018268749998L495.0380952380952,228.31603715625002L500.40000000000003,229.77828731249997L505.76190476190476,229.41632628125L511.1238095238095,225.941539625L516.4857142857144,221.3853085625L521.847619047619,222.775961625L527.2095238095238,221.81859856250003L532.5714285714286,220.20020703124996L537.9333333333333,218.1584575L543.295238095238,218.950242L548.6571428571427,217.602077L554.0190476190476,218.19714915625002L559.3809523809524,216.35194256250003L564.7428571428571,217.427998875L570.104761904762,220.16707003125L575.4666666666667,222.26682759375L580.8285714285714,224.76758559375L586.1904761904761,230.68567065625L591.552380952381,234.57212790625L596.9142857142857,236.9031355625L602.2761904761904,242.88472684375L607.6380952380953,248.41821584375L613,254.18367968750002"></path></g><g class="left-y-axis"><g class="y-tick"><line style="stroke-width: 0.5px; stroke:black; opacity:0.15;" x1="613" y1="355" x2="50" y2="355"></line><text style="font-family:sans-serif; font-weight:300; font-size: 0.85rem; fill:black;text-anchor: end; dominant-baseline:middle;" x="40" y="355">0</text></g><g class="y-tick"><line style="stroke-width: 0.5px; stroke:black; opacity:0.15;" x1="613" y1="273.75" x2="50" y2="273.75"></line><text style="font-family:sans-serif; font-weight:300; font-size: 0.85rem; fill:black;text-anchor: end; dominant-baseline:middle;" x="40" y="273.75">20</text></g><g class="y-tick"><line style="stroke-width: 0.5px; stroke:black; opacity:0.15;" x1="613" y1="192.5" x2="50" y2="192.5"></line><text style="font-family:sans-serif; font-weight:300; font-size: 0.85rem; fill:black;text-anchor: end; dominant-baseline:middle;" x="40" y="192.5">40</text></g><g class="y-tick"><line style="stroke-width: 0.5px; stroke:black; opacity:0.15;" x1="613" y1="111.25" x2="50" y2="111.25"></line><text style="font-family:sans-serif; font-weight:300; font-size: 0.85rem; fill:black;text-anchor: end; dominant-baseline:middle;" x="40" y="111.25">60</text></g><g class="y-tick"><line style="stroke-width: 0.5px; stroke:black; opacity:0.15;" x1="613" y1="30" x2="50" y2="30"></line><text style="font-family:sans-serif; font-weight:300; font-size: 0.85rem; fill:black;text-anchor: end; dominant-baseline:middle;" x="40" y="30">80</text></g></g><g class="date-axis" style="stroke-width: 0.5px; stroke:black;"><g class="x-tick"><text style="font-family:sans-serif; font-weight:300; font-size: 0.85rem; fill:black;text-anchor: start; dominant-baseline:hanging;" x="50" y="372">7/24/2021</text></g><g class="x-tick"></g><g class="x-tick"></g><g class="x-tick"></g><g class="x-tick"></g><g class="x-tick"></g><g class="x-tick"></g><g class="x-tick"></g><g class="x-tick"></g><g class="x-tick"></g><g class="x-tick"></g><g class="x-tick"></g><g class="x-tick"></g><g class="x-tick"></g><g class="x-tick"></g><g class="x-tick"></g><g class="x-tick"></g><g class="x-tick"></g><g class="x-tick"></g><g class="x-tick"></g><g class="x-tick"></g><g class="x-tick"></g><g class="x-tick"></g><g class="x-tick"></g><g class="x-tick"></g><g class="x-tick"></g><g class="x-tick"></g><g class="x-tick"></g><g class="x-tick"></g><g class="x-tick"></g><g class="x-tick"></g><g class="x-tick"></g><g class="x-tick"></g><g class="x-tick"></g><g class="x-tick"></g><g class="x-tick"></g><g class="x-tick"></g><g class="x-tick"></g><g class="x-tick"></g><g class="x-tick"></g><g class="x-tick"></g><g class="x-tick"></g><g class="x-tick"></g><g class="x-tick"></g><g class="x-tick"></g><g class="x-tick"></g><g class="x-tick"></g><g class="x-tick"></g><g class="x-tick"></g><g class="x-tick"></g><g class="x-tick"></g><g class="x-tick"></g><g class="x-tick"></g><g class="x-tick"></g><g class="x-tick"></g><g class="x-tick"></g><g class="x-tick"></g><g class="x-tick"></g><g class="x-tick"></g><g class="x-tick"></g><g class="x-tick"></g><g class="x-tick"></g><g class="x-tick"></g><g class="x-tick"></g><g class="x-tick"></g><g class="x-tick"></g><g class="x-tick"></g><g class="x-tick"></g><g class="x-tick"></g><g class="x-tick"></g><g class="x-tick"></g><g class="x-tick"></g><g class="x-tick"></g><g class="x-tick"></g><g class="x-tick"></g><g class="x-tick"></g><g class="x-tick"></g><g class="x-tick"></g><g class="x-tick"></g><g class="x-tick"></g><g class="x-tick"></g><g class="x-tick"></g><g class="x-tick"></g><g class="x-tick"></g><g class="x-tick"></g><g class="x-tick"></g><g class="x-tick"></g><g class="x-tick"></g><g class="x-tick"></g><g class="x-tick"></g><g class="x-tick"></g><g class="x-tick"></g><g class="x-tick"></g><g class="x-tick"></g><g class="x-tick"></g><g class="x-tick"></g><g class="x-tick"></g><g class="x-tick"></g><g class="x-tick"></g><g class="x-tick"></g><g class="x-tick"></g><g class="x-tick"></g><g class="x-tick"></g><g class="x-tick"></g><g class="x-tick"></g><g class="x-tick"><text style="font-family:sans-serif; font-weight:300; font-size: 0.85rem; fill:black;text-anchor: end; dominant-baseline:hanging;" x="613" y="372">11/6/2021</text></g></g></svg>