<svg about="DATA_PUBLISHED_DATE:2021-12-08,RENDER_DATE:2021-12-08" xmlns="http://www.w3.org/2000/svg" viewBox="0,0,615,400"><g transform="translate(0,0)" style="fill:#CCCCCC;"></g><g class="fg-line postvax-cases_l1 line_s1" stroke="#1f2574" stroke-width="2px" fill="none"><path d="M50,316.143588575L54.73109243697479,315.0460728194445L59.462184873949575,313.8244517333333L64.19327731092437,311.8019030666667L68.92436974789916,310.9356777861111L73.65546218487395,309.91190095555555L78.38655462184873,309.12881865555556L83.11764705882352,308.49915058333335L87.84873949579831,308.1933803638888L92.5798319327731,307.35099426666665L97.31092436974791,307.0999673361111L102.0420168067227,307.01199041388895L106.77310924369749,306.62759352222224L111.50420168067227,306.6900607972222L116.23529411764704,306.89001285833336L120.96638655462185,307.516706025L125.69747899159663,307.8102992527778L130.42857142857144,308.6622011333333L135.1596638655462,308.9240895638889L139.890756302521,309.9528057083333L144.6218487394958,310.2248344277778L149.3529411764706,310.64324943055556L154.08403361344537,310.8624122055556L158.8151260504202,311.65142817500004L163.54621848739495,312.13139218333333L168.27731092436977,312.9766038666666L173.00840336134453,313.63890944999997L177.73949579831933,314.59653495L182.4705882352941,315.233299L187.2016806722689,315.8908975L191.9327731092437,316.7943791916667L196.66386554621852,317.8588371027778L201.39495798319325,318.11695065833334L206.12605042016807,318.8066485055556L210.85714285714286,319.16466117500005L215.58823529411765,319.6994448111111L220.31932773109241,320.22577548611116L225.05042016806723,322.81350922777773L229.781512605042,322.6136825805555L234.51260504201682,323.4309419166667L239.2436974789916,323.586578025L243.97478991596637,324.1498625L248.7058823529412,324.14757041944443L253.43697478991595,323.984227225L258.16806722689074,322.7500940361111L262.89915966386553,324.27069107222223L267.6302521008404,325.2929756111111L272.3613445378151,326.25979980277776L277.0924369747899,327.1387558027778L281.8235294117647,327.7925085416667L286.5546218487395,328.3653152277778L291.2857142857143,328.80399585833334L296.01680672268907,329.4853065388889L300.74789915966386,330.0436161666667L305.47899159663865,330.6827444111111L310.2100840336135,331.0843002194444L314.94117647058823,331.2815593305555L319.672268907563,331.48213470555555L324.4033613445378,331.9538016805555L329.1344537815126,332.2676281444445L333.8655462184874,332.78005925555556L338.5966386554622,333.14566161388893L343.32773109243703,333.3877592777778L348.05882352941177,333.83400904999996L352.7899159663865,334.03779798888894L357.5210084033613,334.0783810277778L362.25210084033614,334.11570883055555L366.98319327731093,334.16895300277776L371.7142857142857,334.2842306472222L376.44537815126057,334.2706674944444L381.1764705882353,334.15665103055557L385.90756302521004,334.144789325L390.63865546218483,334.7036230333333L395.3697478991597,334.84492165833336L400.10084033613447,334.94206784166664L404.83193277310926,335.04586655833333L409.56302521008405,335.0737380527778L414.29411764705884,335.0533253805556L419.02521008403363,334.7449173527778L423.75630252100837,334.05883679166664L428.4873949579832,333.7177686111111L433.218487394958,333.2099812444444L437.9495798319328,332.6464462305555L442.68067226890753,332.21798193888884L447.4117647058824,331.9763057277778L452.14285714285717,331.92984062222223L456.8739495798319,331.7170237972222L461.6050420168067,331.66223081944446L466.33613445378154,331.4738660555555L471.06722689075633,331.53996199166664L475.79831932773106,331.86163648333337L480.52941176470586,331.90643841944444L485.2605042016807,331.99657735L489.99159663865544,331.92082133055555L494.7226890756302,331.98914915000006L499.4537815126051,332.02982524722216L504.1848739495798,332.00399681111116L508.9159663865546,331.917455125L513.6470588235294,331.9665335555556L518.3781512605042,332.04979758055555L523.109243697479,332.47976470833333L527.8403361344538,332.8774553277778L532.5714285714286,333.5066023888889L537.3025210084033,334.30526800555555L542.0336134453781,334.6522739361111L546.7647058823529,334.98869468888887L551.4957983193277,335.1533274833334L556.2268907563025,335.2641386527778L560.9579831932773,335.37150778333336L565.6890756302521,335.4655437888889L570.420168067227,335.4108880333333L575.1512605042018,335.6618901194445L579.8823529411765,335.75008760833333L584.6134453781511,335.987481475L589.344537815126,336.71182432222224L594.0756302521008,337.08842980833333L598.8067226890756,337.3998191333333L603.5378151260504,338.7835588138889L608.2689075630252,339.14487008888887L613,339.00812962500004"></path></g><g class="fg-line postvax-cases_l2 line_s2" stroke="#dc4567" stroke-width="2px" fill="none"><path d="M50,117.82708220000002L54.73109243697479,111.31317024999998L59.462184873949575,102.99201758333334L64.19327731092437,92.7393975722222L68.92436974789916,84.39746599444443L73.65546218487395,76.81760174722221L78.38655462184873,70.14218707777775L83.11764705882352,65.65003483888887L87.84873949579831,65.04172648888891L92.5798319327731,57.36462809166666L97.31092436974791,50.571391425L102.0420168067227,45.071893200000005L106.77310924369749,43.24733410000001L111.50420168067227,39.72860998055555L116.23529411764704,39.78583850833332L120.96638655462185,40.71013731666669L125.69747899159663,40.949018961111115L130.42857142857144,41.82515150555558L135.1596638655462,43.525228744444476L139.890756302521,43.69139445555556L144.6218487394958,43.271050902777795L149.3529411764706,44.645064886111086L154.08403361344537,47.24616078611109L158.8151260504202,49.14361846944446L163.54621848739495,53.77018716944446L168.27731092436977,57.07217243611112L173.00840336134453,61.5908270888889L177.73949579831933,67.90873226111111L182.4705882352941,70.66518632222224L187.2016806722689,73.03065729444441L191.9327731092437,79.5856706222222L196.66386554621852,84.40040897777779L201.39495798319325,85.79979971944442L206.12605042016807,89.75302890555554L210.85714285714286,92.29213430555556L215.58823529411765,95.37298534722225L220.31932773109241,99.48063716388891L225.05042016806723,121.56437304444444L229.781512605042,120.4329974888889L234.51260504201682,125.89406486111112L239.2436974789916,127.17157655833333L243.97478991596637,128.14629120833334L248.7058823529412,129.524794525L253.43697478991595,129.725864875L258.16806722689074,114.78539990555555L262.89915966386553,124.2830588555556L267.6302521008404,132.14659176944446L272.3613445378151,140.29005975000004L277.0924369747899,147.231564125L281.8235294117647,151.912493625L286.5546218487395,156.03017060833332L291.2857142857143,162.6026803111111L296.01680672268907,169.4558512388889L300.74789915966386,174.5611469972222L305.47899159663865,179.71251800555552L310.2100840336135,183.38061696388888L314.94117647058823,186.1067715277778L319.672268907563,187.68679394722224L324.4033613445378,191.99108712222218L329.1344537815126,195.17902374999997L333.8655462184874,199.55283153611109L338.5966386554622,201.9623023083333L343.32773109243703,203.55832303333332L348.05882352941177,204.68062029166666L352.7899159663865,205.97561110277778L357.5210084033613,209.6451096555556L362.25210084033614,211.90075449722224L366.98319327731093,212.61324260833334L371.7142857142857,214.01770353055554L376.44537815126057,216.20371589444446L381.1764705882353,217.3159223361111L385.90756302521004,217.66278970833335L390.63865546218483,221.10423131944444L395.3697478991597,222.46019350277777L400.10084033613447,223.4881539861111L404.83193277310926,223.33324873055557L409.56302521008405,222.2790199777778L414.29411764705884,221.15456749999998L419.02521008403363,220.22722315277778L423.75630252100837,214.82874637499998L428.4873949579832,212.22240483055555L433.218487394958,209.8461644777778L437.9495798319328,207.20424680833338L442.68067226890753,203.99184306111113L447.4117647058824,202.0119138111111L452.14285714285717,201.75670470833336L456.8739495798319,200.83493880555554L461.6050420168067,198.13656358055556L466.33613445378154,196.83449910833335L471.06722689075633,195.41212436666666L475.79831932773106,196.06667328333333L480.52941176470586,196.24969732222223L485.2605042016807,196.13070514444448L489.99159663865544,194.83148326666665L494.7226890756302,195.7838560444444L499.4537815126051,195.82726275555555L504.1848739495798,195.70772205000003L508.9159663865546,195.53112040833335L513.6470588235294,196.42782798055558L518.3781512605042,196.35201385833332L523.109243697479,199.39379390555558L527.8403361344538,200.72255181944445L532.5714285714286,202.8014252972222L537.3025210084033,209.28520079166668L542.0336134453781,210.7542347L546.7647058823529,211.44370988611112L551.4957983193277,212.5578592138889L556.2268907563025,213.35204596944445L560.9579831932773,215.92625880833333L565.6890756302521,218.02198743611112L570.420168067227,216.52408525833332L575.1512605042018,218.37359850833334L579.8823529411765,219.37331176111113L584.6134453781511,220.4028814638889L589.344537815126,224.57581736666666L594.0756302521008,226.85667711666667L598.8067226890756,229.07108187777774L603.5378151260504,240.80007985833336L608.2689075630252,243.33346825555554L613,241.63974064999996"></path></g><g class="left-y-axis"><g class="y-tick"><line style="stroke-width: 0.5px; stroke:black; opacity:0.15;" x1="613" y1="355" x2="50" y2="355"></line><text style="font-family:sans-serif; font-weight:300; font-size: 0.85rem; fill:black;text-anchor: end; dominant-baseline:middle;" x="40" y="355">0</text></g><g class="y-tick"><line style="stroke-width: 0.5px; stroke:black; opacity:0.15;" x1="613" y1="282.7777777777778" x2="50" y2="282.7777777777778"></line><text style="font-family:sans-serif; font-weight:300; font-size: 0.85rem; fill:black;text-anchor: end; dominant-baseline:middle;" x="40" y="282.7777777777778">20</text></g><g class="y-tick"><line style="stroke-width: 0.5px; stroke:black; opacity:0.15;" x1="613" y1="210.55555555555557" x2="50" y2="210.55555555555557"></line><text style="font-family:sans-serif; font-weight:300; font-size: 0.85rem; fill:black;text-anchor: end; dominant-baseline:middle;" x="40" y="210.55555555555557">40</text></g><g class="y-tick"><line style="stroke-width: 0.5px; stroke:black; opacity:0.15;" x1="613" y1="138.33333333333334" x2="50" y2="138.33333333333334"></line><text style="font-family:sans-serif; font-weight:300; font-size: 0.85rem; fill:black;text-anchor: end; dominant-baseline:middle;" x="40" y="138.33333333333334">60</text></g><g class="y-tick"><line style="stroke-width: 0.5px; stroke:black; opacity:0.15;" x1="613" y1="66.11111111111113" x2="50" y2="66.11111111111113"></line><text style="font-family:sans-serif; font-weight:300; font-size: 0.85rem; fill:black;text-anchor: end; dominant-baseline:middle;" x="40" y="66.11111111111113">80</text></g></g><g class="date-axis" style="stroke-width: 0.5px; stroke:black;"><g class="x-tick"><text style="font-family:sans-serif; font-weight:300; font-size: 0.85rem; fill:black;text-anchor: start; dominant-baseline:hanging;" x="50" y="372">7/31/2021</text></g><g class="x-tick"></g><g class="x-tick"></g><g class="x-tick"></g><g class="x-tick"></g><g class="x-tick"></g><g class="x-tick"></g><g class="x-tick"></g><g class="x-tick"></g><g class="x-tick"></g><g class="x-tick"></g><g class="x-tick"></g><g class="x-tick"></g><g class="x-tick"></g><g class="x-tick"></g><g class="x-tick"></g><g class="x-tick"></g><g class="x-tick"></g><g class="x-tick"></g><g class="x-tick"></g><g class="x-tick"></g><g class="x-tick"></g><g class="x-tick"></g><g class="x-tick"></g><g class="x-tick"></g><g class="x-tick"></g><g class="x-tick"></g><g class="x-tick"></g><g class="x-tick"></g><g class="x-tick"></g><g class="x-tick"></g><g class="x-tick"></g><g class="x-tick"></g><g class="x-tick"></g><g class="x-tick"></g><g class="x-tick"></g><g class="x-tick"></g><g class="x-tick"></g><g class="x-tick"></g><g class="x-tick"></g><g class="x-tick"></g><g class="x-tick"></g><g class="x-tick"></g><g class="x-tick"></g><g class="x-tick"></g><g class="x-tick"></g><g class="x-tick"></g><g class="x-tick"></g><g class="x-tick"></g><g class="x-tick"></g><g class="x-tick"></g><g class="x-tick"></g><g class="x-tick"></g><g class="x-tick"></g><g class="x-tick"></g><g class="x-tick"></g><g class="x-tick"></g><g class="x-tick"></g><g class="x-tick"></g><g class="x-tick"></g><g class="x-tick"></g><g class="x-tick"></g><g class="x-tick"></g><g class="x-tick"></g><g class="x-tick"></g><g class="x-tick"></g><g class="x-tick"></g><g class="x-tick"></g><g class="x-tick"></g><g class="x-tick"></g><g class="x-tick"></g><g class="x-tick"></g><g class="x-tick"></g><g class="x-tick"></g><g class="x-tick"></g><g class="x-tick"></g><g class="x-tick"></g><g class="x-tick"></g><g class="x-tick"></g><g class="x-tick"></g><g class="x-tick"></g><g class="x-tick"></g><g class="x-tick"></g><g class="x-tick"></g><g class="x-tick"></g><g class="x-tick"></g><g class="x-tick"></g><g class="x-tick"></g><g class="x-tick"></g><g class="x-tick"></g><g class="x-tick"></g><g class="x-tick"></g><g class="x-tick"></g><g class="x-tick"></g><g class="x-tick"></g><g class="x-tick"></g><g class="x-tick"></g><g class="x-tick"></g><g class="x-tick"></g><g class="x-tick"></g><g class="x-tick"></g><g class="x-tick"></g><g class="x-tick"></g><g class="x-tick"></g><g class="x-tick"></g><g class="x-tick"></g><g class="x-tick"></g><g class="x-tick"></g><g class="x-tick"></g><g class="x-tick"></g><g class="x-tick"></g><g class="x-tick"></g><g class="x-tick"></g><g class="x-tick"></g><g class="x-tick"></g><g class="x-tick"></g><g class="x-tick"></g><g class="x-tick"></g><g class="x-tick"></g><g class="x-tick"><text style="font-family:sans-serif; font-weight:300; font-size: 0.85rem; fill:black;text-anchor: end; dominant-baseline:hanging;" x="613" y="372">11/27/2021</text></g></g></svg>