<svg about="DATA_PUBLISHED_DATE:2021-11-10,RENDER_DATE:2021-11-13" xmlns="http://www.w3.org/2000/svg" viewBox="0,0,615,400"><g transform="translate(0,0)" style="fill:#CCCCCC;"></g><g class="fg-line postvax-hospitalizations_l1 line_s1" stroke="#1f2574" stroke-width="2px" fill="none"><path d="M50,342.09067215625L56.1195652173913,341.3335931875L62.23913043478261,340.22519693749996L68.3586956521739,339.37468046875L74.47826086956522,339.004863375L80.59782608695652,338.43852771875L86.71739130434783,337.99121600000007L92.83695652173914,337.53404215625L98.95652173913044,336.89899053125004L105.07608695652175,336.84057178125L111.19565217391303,336.310096625L117.31521739130434,336.11507265625L123.43478260869566,335.5853474375L129.55434782608694,335.2561094375L135.67391304347828,334.96995953125L141.79347826086956,334.78129337499996L147.91304347826087,333.72159918750003L154.0326086956522,333.83480643750005L160.1521739130435,334.0297381875L166.27173913043478,334.2775831875L172.39130434782606,333.97838981250004L178.51086956521738,333.66713203125L184.6304347826087,334.06142040625L190.75,333.94757534375003L196.8695652173913,333.508538125L202.9891304347826,332.76689909375006L209.1086956521739,332.82268371875L215.22826086956525,332.96667334375L221.34782608695656,332.96024403125L227.4673913043478,332.88929815625L233.58695652173913,333.92917993749995L239.70652173913044,333.71439109374995L245.82608695652172,334.07055331249995L251.94565217391303,334.15518453125003L258.0652173913044,333.8940766875L264.1847826086956,334.10731L270.304347826087,334.33692249999996L276.42391304347825,334.09950553125L282.54347826086956,335.62015249999996L288.6630434782609,335.41096503125L294.78260869565213,335.57838918749997L300.90217391304344,335.9142750625L307.02173913043475,336.50117428125003L313.14130434782606,336.56757178125L319.2608695652174,337.8047041875L325.3804347826087,337.356712L331.5,338.1610000625L337.6195652173913,338.45760196875L343.7391304347826,338.81342578125L349.85869565217394,338.94159928125L355.9782608695652,339.165796875L362.09782608695656,338.74661553125003L368.2173913043478,339.01437653125L374.3369565217391,339.2258674375L380.4565217391305,339.20005065624997L386.57608695652175,340.04730290624997L392.6956521739131,340.09106984375L398.8152173913044,340.25833759375L404.9347826086956,340.78755987499994L411.0543478260869,340.94912915625L417.17391304347825,341.8080070625L423.2934782608695,342.533768625L429.4130434782609,342.53433575L435.5326086956522,342.47185937499995L441.65217391304344,343.02509875L447.7717391304348,343.17613965625003L453.89130434782606,343.92026534375L460.0108695652174,343.81054209375003L466.1304347826087,344.21632328125L472.25,344.36648140625L478.3695652173913,344.55811156249996L484.4891304347826,344.79582712499996L490.60869565217394,344.63333971875L496.7282608695652,344.46977290625L502.84782608695656,344.4082150625L508.9673913043478,344.06536118749995L515.0869565217391,344.23594759375L521.2065217391305,344.55060609375L527.3260869565217,344.47971668749994L533.4456521739131,344.74403634375005L539.5652173913043,344.90974531250004L545.6847826086957,345.202121L551.8043478260869,345.41810178125L557.9239130434783,345.12923121875L564.0434782608695,345.3388151875L570.1630434782609,345.24267125L576.2826086956521,345.22802634375L582.4021739130435,345.43980365625L588.5217391304348,345.47515146874997L594.6413043478261,345.13399815625L600.7608695652174,345.6233283125L606.8804347826087,345.6800083125L613,345.78407534375003"></path></g><g class="fg-line postvax-hospitalizations_l2 line_s2" stroke="#dc4567" stroke-width="2px" fill="none"><path d="M50,186.8023608125L56.1195652173913,179.31858215625L62.23913043478261,168.3035785625L68.3586956521739,155.97218481249996L74.47826086956522,145.1592788125L80.59782608695652,135.76912775L86.71739130434783,127.97624321875L92.83695652173914,125.2195603125L98.95652173913044,118.99754500000002L105.07608695652175,111.10438781250001L111.19565217391303,100.89442059374998L117.31521739130434,91.76804603124995L123.43478260869566,85.04898059374996L129.55434782608694,79.20650190625L135.67391304347828,72.06926424999996L141.79347826086956,70.96349765624998L147.91304347826087,64.94848581250004L154.0326086956522,60.00519031249997L160.1521739130435,60.28067087499999L166.27173913043478,58.39713012500003L172.39130434782606,52.96274946875001L178.51086956521738,53.202353687499965L184.6304347826087,50.908342812499995L190.75,52.30582696875001L196.8695652173913,53.02209284374996L202.9891304347826,52.683232406249985L209.1086956521739,51.760083312500036L215.22826086956525,47.729378874999966L221.34782608695656,49.90773971875001L227.4673913043478,52.96921331249999L233.58695652173913,54.37962109375001L239.70652173913044,60.07265381249999L245.82608695652172,59.869467062499986L251.94565217391303,62.803791718750034L258.0652173913044,72.48885996875L264.1847826086956,72.81422884374999L270.304347826087,74.32845462499996L276.42391304347825,78.31929700000003L282.54347826086956,80.65634965625001L288.6630434782609,83.36464046874995L294.78260869565213,87.05870746874999L300.90217391304344,88.27868962499998L307.02173913043475,94.84103234375002L313.14130434782606,100.16802365624999L319.2608695652174,110.967670875L325.3804347826087,112.68250371874998L331.5,118.96261725000001L337.6195652173913,124.53684418750001L343.7391304347826,127.86809784375001L349.85869565217394,132.6951566875L355.9782608695652,137.18707878125L362.09782608695656,136.3747709375L368.2173913043478,144.1433629375L374.3369565217391,150.7776155625L380.4565217391305,156.69479265625L386.57608695652175,161.90787228125L392.6956521739131,165.72978696875L398.8152173913044,169.44098350000002L404.9347826086956,173.17228453125L411.0543478260869,179.05556209375L417.17391304347825,183.18719121875L423.2934782608695,188.01200390625002L429.4130434782609,195.96992546875L435.5326086956522,197.88516509375L441.65217391304344,200.06915128125002L447.7717391304348,205.34644521875L453.89130434782606,210.3723894375L460.0108695652174,215.5166064375L466.1304347826087,217.11361662500002L472.25,215.68204403125L478.3695652173913,217.661079125L484.4891304347826,223.06148671875L490.60869565217394,225.48954018749998L496.7282608695652,228.21378565624997L502.84782608695656,228.00895074999997L508.9673913043478,229.00397887499997L515.0869565217391,233.41571453125L521.2065217391305,236.27892593750002L527.3260869565217,237.40921621875L533.4456521739131,241.916791125L539.5652173913043,245.758775375L545.6847826086957,248.43452434374998L551.8043478260869,251.56664603125L557.9239130434783,251.81895571875L564.0434782608695,254.56091124999998L570.1630434782609,255.81859381249998L576.2826086956521,255.6296501875L582.4021739130435,254.74049528125002L588.5217391304348,257.76161321875L594.6413043478261,260.06725096875005L600.7608695652174,262.4036885625L606.8804347826087,262.36111153125L613,264.65462068749997"></path></g><g class="left-y-axis"><g class="y-tick"><line style="stroke-width: 0.5px; stroke:black; opacity:0.15;" x1="613" y1="355" x2="50" y2="355"></line><text style="font-family:sans-serif; font-weight:300; font-size: 0.85rem; fill:black;text-anchor: end; dominant-baseline:middle;" x="40" y="355">0</text></g><g class="y-tick"><line style="stroke-width: 0.5px; stroke:black; opacity:0.15;" x1="613" y1="273.75" x2="50" y2="273.75"></line><text style="font-family:sans-serif; font-weight:300; font-size: 0.85rem; fill:black;text-anchor: end; dominant-baseline:middle;" x="40" y="273.75">20</text></g><g class="y-tick"><line style="stroke-width: 0.5px; stroke:black; opacity:0.15;" x1="613" y1="192.5" x2="50" y2="192.5"></line><text style="font-family:sans-serif; font-weight:300; font-size: 0.85rem; fill:black;text-anchor: end; dominant-baseline:middle;" x="40" y="192.5">40</text></g><g class="y-tick"><line style="stroke-width: 0.5px; stroke:black; opacity:0.15;" x1="613" y1="111.25" x2="50" y2="111.25"></line><text style="font-family:sans-serif; font-weight:300; font-size: 0.85rem; fill:black;text-anchor: end; dominant-baseline:middle;" x="40" y="111.25">60</text></g><g class="y-tick"><line style="stroke-width: 0.5px; stroke:black; opacity:0.15;" x1="613" y1="30" x2="50" y2="30"></line><text style="font-family:sans-serif; font-weight:300; font-size: 0.85rem; fill:black;text-anchor: end; dominant-baseline:middle;" x="40" y="30">80</text></g></g><g class="date-axis" style="stroke-width: 0.5px; stroke:black;"><g class="x-tick"><text style="font-family:sans-serif; font-weight:300; font-size: 0.85rem; fill:black;text-anchor: start; dominant-baseline:hanging;" x="50" y="372">7/24/2021</text></g><g class="x-tick"></g><g class="x-tick"></g><g class="x-tick"></g><g class="x-tick"></g><g class="x-tick"></g><g class="x-tick"></g><g class="x-tick"></g><g class="x-tick"></g><g class="x-tick"></g><g class="x-tick"></g><g class="x-tick"></g><g class="x-tick"></g><g class="x-tick"></g><g class="x-tick"></g><g class="x-tick"></g><g class="x-tick"></g><g class="x-tick"></g><g class="x-tick"></g><g class="x-tick"></g><g class="x-tick"></g><g class="x-tick"></g><g class="x-tick"></g><g class="x-tick"></g><g class="x-tick"></g><g class="x-tick"></g><g class="x-tick"></g><g class="x-tick"></g><g class="x-tick"></g><g class="x-tick"></g><g class="x-tick"></g><g class="x-tick"></g><g class="x-tick"></g><g class="x-tick"></g><g class="x-tick"></g><g class="x-tick"></g><g class="x-tick"></g><g class="x-tick"></g><g class="x-tick"></g><g class="x-tick"></g><g class="x-tick"></g><g class="x-tick"></g><g class="x-tick"></g><g class="x-tick"></g><g class="x-tick"></g><g class="x-tick"></g><g class="x-tick"></g><g class="x-tick"></g><g class="x-tick"></g><g class="x-tick"></g><g class="x-tick"></g><g class="x-tick"></g><g class="x-tick"></g><g class="x-tick"></g><g class="x-tick"></g><g class="x-tick"></g><g class="x-tick"></g><g class="x-tick"></g><g class="x-tick"></g><g class="x-tick"></g><g class="x-tick"></g><g class="x-tick"></g><g class="x-tick"></g><g class="x-tick"></g><g class="x-tick"></g><g class="x-tick"></g><g class="x-tick"></g><g class="x-tick"></g><g class="x-tick"></g><g class="x-tick"></g><g class="x-tick"></g><g class="x-tick"></g><g class="x-tick"></g><g class="x-tick"></g><g class="x-tick"></g><g class="x-tick"></g><g class="x-tick"></g><g class="x-tick"></g><g class="x-tick"></g><g class="x-tick"></g><g class="x-tick"></g><g class="x-tick"></g><g class="x-tick"></g><g class="x-tick"></g><g class="x-tick"></g><g class="x-tick"></g><g class="x-tick"></g><g class="x-tick"></g><g class="x-tick"></g><g class="x-tick"></g><g class="x-tick"></g><g class="x-tick"></g><g class="x-tick"><text style="font-family:sans-serif; font-weight:300; font-size: 0.85rem; fill:black;text-anchor: end; dominant-baseline:hanging;" x="613" y="372">10/24/2021</text></g></g></svg>