<svg about="DATA_PUBLISHED_DATE:2021-10-20,RENDER_DATE:2021-10-21" xmlns="http://www.w3.org/2000/svg" viewBox="0,0,615,400"><g transform="translate(0,0)" style="fill:#CCCCCC;"></g><g class="fg-line postvax-cases_l1 line_s1" stroke="#1f2574" stroke-width="2px" fill="none"><path d="M50,353.2208434722222L54.73109243697479,353.1844860833333L59.462184873949575,353.15523326666664L64.19327731092437,353.11364720555554L68.92436974789916,353.0453235027778L73.65546218487395,353.01004706388886L78.38655462184873,352.94618687499997L83.11764705882352,352.89903244444446L87.84873949579831,352.7605448527778L92.5798319327731,352.5134952L97.31092436974791,352.35354540277774L102.0420168067227,352.2565236222222L106.77310924369749,352.06380559166666L111.50420168067227,351.88942099166667L116.23529411764704,351.7233149L120.96638655462185,351.5576184527778L125.69747899159663,351.24283493611114L130.42857142857144,350.87965794444443L135.1596638655462,350.45934978055556L139.890756302521,350.0699275583333L144.6218487394958,349.6347543277778L149.3529411764706,349.29587473333333L154.08403361344537,349.0167667555555L158.8151260504202,348.42061412777775L163.54621848739495,347.53278891388885L168.27731092436977,346.5673905333333L173.00840336134453,345.75321656666665L177.73949579831933,344.89644225L182.4705882352941,344.1468520305555L187.2016806722689,343.2666609583333L191.9327731092437,341.9908543916667L196.66386554621852,340.8551794472222L201.39495798319325,339.7901536888889L206.12605042016807,338.35532065L210.85714285714286,337.054119775L215.58823529411765,336.00782427222225L220.31932773109241,335.0106640027778L225.05042016806723,332.9851337138889L229.781512605042,331.3251506777778L234.51260504201682,329.0584543194445L239.2436974789916,327.7773014305555L243.97478991596637,326.7119441722222L248.7058823529412,325.6810493L253.43697478991595,324.64264779444443L258.16806722689074,323.020384475L262.89915966386553,321.4444555388889L267.6302521008404,319.8468771972222L272.3613445378151,318.10987298888887L277.0924369747899,316.46913829444446L281.8235294117647,315.443651025L286.5546218487395,314.3463189666667L291.2857142857143,313.1794700944444L296.01680672268907,311.1106875777778L300.74789915966386,310.23888287777777L305.47899159663865,309.15196894722226L310.2100840336135,308.28098494444447L314.94117647058823,307.7167850166667L319.672268907563,307.3747138138889L324.4033613445378,306.5168878694445L329.1344537815126,306.27978690000003L333.8655462184874,306.1738690027778L338.5966386554622,305.8724068027778L343.32773109243703,305.96707117777777L348.05882352941177,306.1470751722222L352.7899159663865,306.7888208944444L357.5210084033613,307.19316722499997L362.25210084033614,308.02162295555553L366.98319327731093,308.22652046944444L371.7142857142857,309.2951454944444L376.44537815126057,309.619006225L381.1764705882353,310.0314236777778L385.90756302521004,310.23604476111115L390.63865546218483,310.910400875L395.3697478991597,311.456149975L400.10084033613447,312.4382904416667L404.83193277310926,313.07205380277776L409.56302521008405,313.97422624999996L414.29411764705884,314.61019101666665L419.02521008403363,315.3238677611111L423.75630252100837,316.3174110694444L428.4873949579832,317.37280704166665L433.218487394958,317.66471416944444L437.9495798319328,318.38973612222225L442.68067226890753,318.8192302305556L447.4117647058824,319.41740262499997L452.14285714285717,319.98038864166665L456.8739495798319,322.55307575L461.6050420168067,322.3670781777777L466.33613445378154,323.200066575L471.06722689075633,323.36650434722225L475.79831932773106,323.9874449777778L480.52941176470586,323.9566509388889L485.2605042016807,323.8273960555556L489.99159663865544,322.6311490194445L494.7226890756302,324.169006625L499.4537815126051,325.13166872222223L504.1848739495798,326.08650449444445L508.9159663865546,326.92492060833337L513.6470588235294,327.5983392055556L518.3781512605042,328.1431333111111L523.109243697479,328.61438511666665L527.8403361344538,329.3563826138889L532.5714285714286,329.99427195833334L537.3025210084033,330.71797964722225L542.0336134453781,331.13632452222225L546.7647058823529,331.36149976111113L551.4957983193277,331.58569140555556L556.2268907563025,332.08110031666666L560.9579831932773,332.34875106944446L565.6890756302521,332.9564264277778L570.420168067227,333.24905823333336L575.1512605042018,333.5232387777778L579.8823529411765,334.05862546944445L584.6134453781511,334.286920275L589.344537815126,334.4548712833333L594.0756302521008,334.7100615361111L598.8067226890756,334.799922375L603.5378151260504,335.18907069444447L608.2689075630252,335.47463793888886L613,335.58675474166665"></path></g><g class="fg-line postvax-cases_l2 line_s2" stroke="#dc4567" stroke-width="2px" fill="none"><path d="M50,334.4026057583333L54.73109243697479,334.0613426138889L59.462184873949575,333.4888173416667L64.19327731092437,333.5347336666666L68.92436974789916,332.7253726611111L73.65546218487395,332.03899718055555L78.38655462184873,331.7860193833333L83.11764705882352,331.4727597916667L87.84873949579831,331.25512101388887L92.5798319327731,330.49894950833334L97.31092436974791,329.54149228611107L102.0420168067227,329.13527998611113L106.77310924369749,328.015497975L111.50420168067227,326.482939675L116.23529411764704,325.23598845000004L120.96638655462185,323.86442475L125.69747899159663,322.15068501666667L130.42857142857144,320.16347410555557L135.1596638655462,317.28235361944445L139.890756302521,314.5287380722222L144.6218487394958,312.17552739999996L149.3529411764706,310.01408554166665L154.08403361344537,308.6939147055556L158.8151260504202,305.67305433055554L163.54621848739495,299.36285349999997L168.27731092436977,293.27638935L173.00840336134453,288.09001670833334L177.73949579831933,282.29183514166664L182.4705882352941,277.0825947777778L187.2016806722689,271.78176417777775L191.9327731092437,262.6426971916667L196.66386554621852,256.8682498333334L201.39495798319325,250.68705410555555L206.12605042016807,243.2389469166667L210.85714285714286,235.42380708055555L215.58823529411765,230.79927403611111L220.31932773109241,225.21163786944447L225.05042016806723,215.97386498888892L229.781512605042,205.75555465L234.51260504201682,195.61284494444442L239.2436974789916,187.05766219722221L243.97478991596637,179.33271834722225L248.7058823529412,171.75529889444448L253.43697478991595,166.48143845555555L258.16806722689074,154.52697808055558L262.89915966386553,144.42556691944446L267.6302521008404,133.58295440277774L272.3613445378151,121.615575025L277.0924369747899,111.0825450138889L281.8235294117647,105.47276457500003L286.5546218487395,98.87164129444446L291.2857142857143,90.3543521027778L296.01680672268907,80.28307562777778L300.74789915966386,71.94562886944445L305.47899159663865,64.22390844166664L310.2100840336135,57.45573996388892L314.94117647058823,52.82689554166667L319.672268907563,52.403792522222204L324.4033613445378,45.43431073888891L329.1344537815126,39.031623755555565L333.8655462184874,34.40833491944442L338.5966386554622,33.82824819722221L343.32773109243703,31.10365244166665L348.05882352941177,31.36260948055556L352.7899159663865,32.22366047222223L357.5210084033613,33.1093337527778L362.25210084033614,35.00672611111111L366.98319327731093,37.45088138888892L371.7142857142857,37.92274000555559L376.44537815126057,38.00570365833334L381.1764705882353,39.84892285000002L385.90756302521004,43.21609264444446L390.63865546218483,45.38957640277778L395.3697478991597,50.957375544444446L400.10084033613447,54.4652755027778L404.83193277310926,59.84912273055555L409.56302521008405,66.99393504444441L414.29411764705884,70.1637307138889L419.02521008403363,72.49818054444448L423.75630252100837,79.78141310277779L428.4873949579832,84.56575113888886L433.218487394958,86.72756338888888L437.9495798319328,90.8095761L442.68067226890753,93.70298350000004L447.4117647058824,96.98254087777778L452.14285714285717,101.2424676888889L456.8739495798319,122.61006502222222L461.6050420168067,122.03540984444444L466.33613445378154,127.18429474722224L471.06722689075633,128.04337656388887L475.79831932773106,128.59990345833333L480.52941176470586,129.8915356472222L485.2605042016807,130.07336007499998L489.99159663865544,115.56653393888888L494.7226890756302,124.64544465277778L499.4537815126051,132.50364005555554L504.1848739495798,140.26553864444446L508.9159663865546,147.02470256388887L513.6470588235294,151.7258900361111L518.3781512605042,155.7435753166667L523.109243697479,162.587196625L527.8403361344538,168.9151802277778L532.5714285714286,173.9052384611111L537.3025210084033,179.20630093055556L542.0336134453781,183.239100625L546.7647058823529,186.32323828333332L551.4957983193277,188.2982390888889L556.2268907563025,193.28397919166667L560.9579831932773,196.8530678388889L565.6890756302521,201.25124152499998L570.420168067227,204.13522804166664L575.1512605042018,206.67770679722219L579.8823529411765,208.0967631083333L584.6134453781511,209.95767385555556L589.344537815126,213.6066765361111L594.0756302521008,216.57146668333334L598.8067226890756,218.42000771388888L603.5378151260504,220.85714866111107L608.2689075630252,223.87556741944442L613,226.46257742222224"></path></g><g class="left-y-axis"><g class="y-tick"><line style="stroke-width: 0.5px; stroke:black; opacity:0.15;" x1="613" y1="355" x2="50" y2="355"></line><text style="font-family:sans-serif; font-weight:300; font-size: 0.85rem; fill:black;text-anchor: end; dominant-baseline:middle;" x="40" y="355">0</text></g><g class="y-tick"><line style="stroke-width: 0.5px; stroke:black; opacity:0.15;" x1="613" y1="282.7777777777778" x2="50" y2="282.7777777777778"></line><text style="font-family:sans-serif; font-weight:300; font-size: 0.85rem; fill:black;text-anchor: end; dominant-baseline:middle;" x="40" y="282.7777777777778">20</text></g><g class="y-tick"><line style="stroke-width: 0.5px; stroke:black; opacity:0.15;" x1="613" y1="210.55555555555557" x2="50" y2="210.55555555555557"></line><text style="font-family:sans-serif; font-weight:300; font-size: 0.85rem; fill:black;text-anchor: end; dominant-baseline:middle;" x="40" y="210.55555555555557">40</text></g><g class="y-tick"><line style="stroke-width: 0.5px; stroke:black; opacity:0.15;" x1="613" y1="138.33333333333334" x2="50" y2="138.33333333333334"></line><text style="font-family:sans-serif; font-weight:300; font-size: 0.85rem; fill:black;text-anchor: end; dominant-baseline:middle;" x="40" y="138.33333333333334">60</text></g><g class="y-tick"><line style="stroke-width: 0.5px; stroke:black; opacity:0.15;" x1="613" y1="66.11111111111113" x2="50" y2="66.11111111111113"></line><text style="font-family:sans-serif; font-weight:300; font-size: 0.85rem; fill:black;text-anchor: end; dominant-baseline:middle;" x="40" y="66.11111111111113">80</text></g></g><g class="date-axis" style="stroke-width: 0.5px; stroke:black;"><g class="x-tick"><text style="font-family:sans-serif; font-weight:300; font-size: 0.85rem; fill:black;text-anchor: start; dominant-baseline:hanging;" x="50" y="372">6/12/2021</text></g><g class="x-tick"></g><g class="x-tick"></g><g class="x-tick"></g><g class="x-tick"></g><g class="x-tick"></g><g class="x-tick"></g><g class="x-tick"></g><g class="x-tick"></g><g class="x-tick"></g><g class="x-tick"></g><g class="x-tick"></g><g class="x-tick"></g><g class="x-tick"></g><g class="x-tick"></g><g class="x-tick"></g><g class="x-tick"></g><g class="x-tick"></g><g class="x-tick"></g><g class="x-tick"></g><g class="x-tick"></g><g class="x-tick"></g><g class="x-tick"></g><g class="x-tick"></g><g class="x-tick"></g><g class="x-tick"></g><g class="x-tick"></g><g class="x-tick"></g><g class="x-tick"></g><g class="x-tick"></g><g class="x-tick"></g><g class="x-tick"></g><g class="x-tick"></g><g class="x-tick"></g><g class="x-tick"></g><g class="x-tick"></g><g class="x-tick"></g><g class="x-tick"></g><g class="x-tick"></g><g class="x-tick"></g><g class="x-tick"></g><g class="x-tick"></g><g class="x-tick"></g><g class="x-tick"></g><g class="x-tick"></g><g class="x-tick"></g><g class="x-tick"></g><g class="x-tick"></g><g class="x-tick"></g><g class="x-tick"></g><g class="x-tick"></g><g class="x-tick"></g><g class="x-tick"></g><g class="x-tick"></g><g class="x-tick"></g><g class="x-tick"></g><g class="x-tick"></g><g class="x-tick"></g><g class="x-tick"></g><g class="x-tick"></g><g class="x-tick"></g><g class="x-tick"></g><g class="x-tick"></g><g class="x-tick"></g><g class="x-tick"></g><g class="x-tick"></g><g class="x-tick"></g><g class="x-tick"></g><g class="x-tick"></g><g class="x-tick"></g><g class="x-tick"></g><g class="x-tick"></g><g class="x-tick"></g><g class="x-tick"></g><g class="x-tick"></g><g class="x-tick"></g><g class="x-tick"></g><g class="x-tick"></g><g class="x-tick"></g><g class="x-tick"></g><g class="x-tick"></g><g class="x-tick"></g><g class="x-tick"></g><g class="x-tick"></g><g class="x-tick"></g><g class="x-tick"></g><g class="x-tick"></g><g class="x-tick"></g><g class="x-tick"></g><g class="x-tick"></g><g class="x-tick"></g><g class="x-tick"></g><g class="x-tick"></g><g class="x-tick"></g><g class="x-tick"></g><g class="x-tick"></g><g class="x-tick"></g><g class="x-tick"></g><g class="x-tick"></g><g class="x-tick"></g><g class="x-tick"></g><g class="x-tick"></g><g class="x-tick"></g><g class="x-tick"></g><g class="x-tick"></g><g class="x-tick"></g><g class="x-tick"></g><g class="x-tick"></g><g class="x-tick"></g><g class="x-tick"></g><g class="x-tick"></g><g class="x-tick"></g><g class="x-tick"></g><g class="x-tick"></g><g class="x-tick"></g><g class="x-tick"></g><g class="x-tick"></g><g class="x-tick"></g><g class="x-tick"></g><g class="x-tick"><text style="font-family:sans-serif; font-weight:300; font-size: 0.85rem; fill:black;text-anchor: end; dominant-baseline:hanging;" x="613" y="372">10/9/2021</text></g></g></svg>