<svg about="DATA_PUBLISHED_DATE:2021-10-06,RENDER_DATE:2021-10-06" xmlns="http://www.w3.org/2000/svg" viewBox="0,0,615,400"><g transform="translate(0,0)" style="fill:#CCCCCC;"></g><g class="fg-line postvax-deaths_l1 line_s1" stroke="#1f2574" stroke-width="2px" fill="none"><path d="M50,350.75119750000005L54.73109243697479,350.25116249999996L59.462184873949575,350.88347L64.19327731092437,350.68110499999995L68.92436974789916,351.55339250000003L73.65546218487395,351.35395L78.38655462184873,351.9115175L83.11764705882352,351.6728225L87.84873949579831,352.4735625L92.5798319327731,352.51583250000004L97.31092436974791,352.8023025L102.0420168067227,353.32189L106.77310924369749,353.115405L111.50420168067227,353.13671999999997L116.23529411764704,353.1454575L120.96638655462185,353.16444500000006L125.69747899159663,352.9621675L130.42857142857144,352.764555L135.1596638655462,353.01324250000005L139.890756302521,353.69265L144.6218487394958,353.27455249999997L149.3529411764706,353.28337999999997L154.08403361344537,353.2985225L158.8151260504202,353.5265625L163.54621848739495,353.5408775L168.27731092436977,353.5549725L173.00840336134453,353.36555500000003L177.73949579831933,353.98543750000005L182.4705882352941,353.98847L187.2016806722689,353.59253250000006L191.9327731092437,353.20257L196.66386554621852,353.2140425L201.39495798319325,353.02712249999996L206.12605042016807,353.2351275L210.85714285714286,353.0453125L215.58823529411765,353.243375L220.31932773109241,353.43972L225.05042016806723,353.6428675L229.781512605042,353.6491825L234.51260504201682,353.2708725L239.2436974789916,353.27939499999997L243.97478991596637,352.713905L248.7058823529412,352.90707249999997L253.43697478991595,353.1035275L258.16806722689074,353.4887975L262.89915966386553,353.49467999999996L267.6302521008404,353.87533L272.3613445378151,353.69325499999997L277.0924369747899,353.3248375L281.8235294117647,353.1410025L286.5546218487395,352.961305L291.2857142857143,352.59934250000003L296.01680672268907,352.2387625L300.74789915966386,352.4306325L305.47899159663865,352.25615250000004L310.2100840336135,353.174215L314.94117647058823,353.17566999999997L319.672268907563,353.1784875L324.4033613445378,353.18311250000005L329.1344537815126,353.36856750000004L333.8655462184874,353.19141L338.5966386554622,353.3763825L343.32773109243703,352.6585025L348.05882352941177,352.12033749999995L352.7899159663865,352.1249425L357.5210084033613,352.1306525L362.25210084033614,352.49385500000005L366.98319327731093,352.319445L371.7142857142857,352.32464L376.44537815126057,352.32744749999995L381.1764705882353,352.86214500000006L385.90756302521004,352.508165L390.63865546218483,352.15837750000003L395.3697478991597,351.8088825L400.10084033613447,350.92942L404.83193277310926,349.7009675L409.56302521008405,350.0601225L414.29411764705884,349.710085L419.02521008403363,349.71841L423.75630252100837,349.19957L428.4873949579832,349.03308000000004L433.218487394958,349.56772L437.9495798319328,349.57744L442.68067226890753,349.059435L447.4117647058824,348.71336L452.14285714285717,348.3734075L456.8739495798319,348.20956750000005L461.6050420168067,347.52439000000004L466.33613445378154,346.8408275L471.06722689075633,346.854395L475.79831932773106,346.5161875L480.52941176470586,345.3070125L485.2605042016807,344.97196L489.99159663865544,344.8135475L494.7226890756302,345.172275L499.4537815126051,344.6682375L504.1848739495798,343.824425L508.9159663865546,344.00658000000004L513.6470588235294,344.6977725L518.3781512605042,342.82284999999996L523.109243697479,342.66782750000004L527.8403361344538,340.28844000000004L532.5714285714286,339.62405L537.3025210084033,340.33042750000004L542.0336134453781,338.47002L546.7647058823529,337.62666249999995L551.4957983193277,337.14003750000006L556.2268907563025,335.29765499999996L560.9579831932773,335.66316L565.6890756302521,335.0135925L570.420168067227,334.0349925L575.1512605042018,333.7207325L579.8823529411765,334.07061L584.6134453781511,333.76709L589.344537815126,333.9720475L594.0756302521008,334.176215L598.8067226890756,334.881905L603.5378151260504,334.58933750000006L608.2689075630252,336.11867750000005L613,335.46387"></path></g><g class="fg-line postvax-deaths_l2 line_s2" stroke="#dc4567" stroke-width="2px" fill="none"><path d="M50,307.6967475L54.73109243697479,311.4175775L59.462184873949575,307.82550000000003L64.19327731092437,305.98919L68.92436974789916,306.5835075L73.65546218487395,307.9534L78.38655462184873,307.47934499999997L83.11764705882352,307.91147249999995L87.84873949579831,306.5162625L92.5798319327731,311.25499L97.31092436974791,309.11256999999995L102.0420168067227,310.3567025L106.77310924369749,310.33079000000004L111.50420168067227,309.917845L116.23529411764704,308.9112825L120.96638655462185,307.3920825L125.69747899159663,305.10969249999994L130.42857142857144,308.5158725L135.1596638655462,307.31994499999996L139.890756302521,308.4012725L144.6218487394958,307.799515L149.3529411764706,311.09712L154.08403361344537,309.65486000000004L158.8151260504202,309.17301000000003L163.54621848739495,307.711075L168.27731092436977,309.6630075L173.00840336134453,308.1305875L177.73949579831933,308.6979825L182.4705882352941,307.86353999999994L187.2016806722689,311.072585L191.9327731092437,312.6734475L196.66386554621852,315.9857175L201.39495798319325,316.37795750000004L206.12605042016807,317.765095L210.85714285714286,319.66913500000004L215.58823529411765,320.6283775L220.31932773109241,321.3208275L225.05042016806723,317.30991500000005L229.781512605042,315.0132075L234.51260504201682,314.76136749999995L239.2436974789916,314.815605L243.97478991596637,313.89385500000003L248.7058823529412,314.16305750000004L253.43697478991595,314.5907575L258.16806722689074,317.86796749999996L262.89915966386553,322.957785L267.6302521008404,321.312355L272.3613445378151,319.9874675L277.0924369747899,319.07498749999996L281.8235294117647,316.81116000000003L286.5546218487395,314.38618749999995L291.2857142857143,314.10895500000004L296.01680672268907,306.0667325L300.74789915966386,306.14537L305.47899159663865,305.8261225L310.2100840336135,306.390085L314.94117647058823,307.44194749999997L319.672268907563,308.80300750000004L324.4033613445378,308.9873L329.1344537815126,309.93361999999996L333.8655462184874,309.73879999999997L338.5966386554622,305.27457749999996L343.32773109243703,305.1137325L348.05882352941177,303.4835225L352.7899159663865,300.99876750000004L357.5210084033613,301.1686075L362.25210084033614,303.3188325L366.98319327731093,299.9815825L371.7142857142857,302.108255L376.44537815126057,299.6043225L381.1764705882353,301.5648375L385.90756302521004,300.246655L390.63865546218483,295.95835000000005L395.3697478991597,295.68146L400.10084033613447,294.18829000000005L404.83193277310926,289.7858L409.56302521008405,288.7316824999999L414.29411764705884,283.6798675L419.02521008403363,281.63151750000003L423.75630252100837,279.57862L428.4873949579832,271.6931875L433.218487394958,269.139735L437.9495798319328,273.18847250000005L442.68067226890753,261.467035L447.4117647058824,259.1317125L452.14285714285717,247.09277000000003L456.8739495798319,239.99680250000003L461.6050420168067,236.28179500000002L466.33613445378154,230.36862L471.06722689075633,215.98327499999996L475.79831932773106,215.8412075L480.52941176470586,202.43721499999998L485.2605042016807,197.26530250000002L489.99159663865544,185.72939250000002L494.7226890756302,173.67954L499.4537815126051,162.40255000000002L504.1848739495798,137.7443825L508.9159663865546,126.50968L513.6470588235294,120.66259000000001L518.3781512605042,106.82883000000002L523.109243697479,93.71949500000001L527.8403361344538,91.602955L532.5714285714286,82.94651249999998L537.3025210084033,90.34383749999996L542.0336134453781,84.90393500000003L546.7647058823529,81.15679500000002L551.4957983193277,85.50420499999998L556.2268907563025,86.14144250000001L560.9579831932773,71.73407749999998L565.6890756302521,65.68294250000005L570.420168067227,56.589367499999994L575.1512605042018,44.699534999999955L579.8823529411765,40.364452499999985L584.6134453781511,38.98009999999995L589.344537815126,40.42751250000001L594.0756302521008,40.71676499999999L598.8067226890756,33.36236999999998L603.5378151260504,32.15764499999996L608.2689075630252,43.45208250000001L613,36.87880750000002"></path></g><g class="left-y-axis"><g class="y-tick"><line style="stroke-width: 0.5px; stroke:black; opacity:0.15;" x1="613" y1="355" x2="50" y2="355"></line><text style="font-family:sans-serif; font-weight:300; font-size: 0.85rem; fill:black;text-anchor: end; dominant-baseline:middle;" x="40" y="355">0</text></g><g class="y-tick"><line style="stroke-width: 0.5px; stroke:black; opacity:0.15;" x1="613" y1="305" x2="50" y2="305"></line><text style="font-family:sans-serif; font-weight:300; font-size: 0.85rem; fill:black;text-anchor: end; dominant-baseline:middle;" x="40" y="305">2</text></g><g class="y-tick"><line style="stroke-width: 0.5px; stroke:black; opacity:0.15;" x1="613" y1="255" x2="50" y2="255"></line><text style="font-family:sans-serif; font-weight:300; font-size: 0.85rem; fill:black;text-anchor: end; dominant-baseline:middle;" x="40" y="255">4</text></g><g class="y-tick"><line style="stroke-width: 0.5px; stroke:black; opacity:0.15;" x1="613" y1="204.99999999999997" x2="50" y2="204.99999999999997"></line><text style="font-family:sans-serif; font-weight:300; font-size: 0.85rem; fill:black;text-anchor: end; dominant-baseline:middle;" x="40" y="204.99999999999997">6</text></g><g class="y-tick"><line style="stroke-width: 0.5px; stroke:black; opacity:0.15;" x1="613" y1="154.99999999999997" x2="50" y2="154.99999999999997"></line><text style="font-family:sans-serif; font-weight:300; font-size: 0.85rem; fill:black;text-anchor: end; dominant-baseline:middle;" x="40" y="154.99999999999997">8</text></g><g class="y-tick"><line style="stroke-width: 0.5px; stroke:black; opacity:0.15;" x1="613" y1="104.99999999999999" x2="50" y2="104.99999999999999"></line><text style="font-family:sans-serif; font-weight:300; font-size: 0.85rem; fill:black;text-anchor: end; dominant-baseline:middle;" x="40" y="104.99999999999999">10</text></g><g class="y-tick"><line style="stroke-width: 0.5px; stroke:black; opacity:0.15;" x1="613" y1="54.999999999999986" x2="50" y2="54.999999999999986"></line><text style="font-family:sans-serif; font-weight:300; font-size: 0.85rem; fill:black;text-anchor: end; dominant-baseline:middle;" x="40" y="54.999999999999986">12</text></g></g><g class="date-axis" style="stroke-width: 0.5px; stroke:black;"><g class="x-tick"><text style="font-family:sans-serif; font-weight:300; font-size: 0.85rem; fill:black;text-anchor: start; dominant-baseline:hanging;" x="50" y="372">5/9/2021</text></g><g class="x-tick"></g><g class="x-tick"></g><g class="x-tick"></g><g class="x-tick"></g><g class="x-tick"></g><g class="x-tick"></g><g class="x-tick"></g><g class="x-tick"></g><g class="x-tick"></g><g class="x-tick"></g><g class="x-tick"></g><g class="x-tick"></g><g class="x-tick"></g><g class="x-tick"></g><g class="x-tick"></g><g class="x-tick"></g><g class="x-tick"></g><g class="x-tick"></g><g class="x-tick"></g><g class="x-tick"></g><g class="x-tick"></g><g class="x-tick"></g><g class="x-tick"></g><g class="x-tick"></g><g class="x-tick"></g><g class="x-tick"></g><g class="x-tick"></g><g class="x-tick"></g><g class="x-tick"></g><g class="x-tick"></g><g class="x-tick"></g><g class="x-tick"></g><g class="x-tick"></g><g class="x-tick"></g><g class="x-tick"></g><g class="x-tick"></g><g class="x-tick"></g><g class="x-tick"></g><g class="x-tick"></g><g class="x-tick"></g><g class="x-tick"></g><g class="x-tick"></g><g class="x-tick"></g><g class="x-tick"></g><g class="x-tick"></g><g class="x-tick"></g><g class="x-tick"></g><g class="x-tick"></g><g class="x-tick"></g><g class="x-tick"></g><g class="x-tick"></g><g class="x-tick"></g><g class="x-tick"></g><g class="x-tick"></g><g class="x-tick"></g><g class="x-tick"></g><g class="x-tick"></g><g class="x-tick"></g><g class="x-tick"></g><g class="x-tick"></g><g class="x-tick"></g><g class="x-tick"></g><g class="x-tick"></g><g class="x-tick"></g><g class="x-tick"></g><g class="x-tick"></g><g class="x-tick"></g><g class="x-tick"></g><g class="x-tick"></g><g class="x-tick"></g><g class="x-tick"></g><g class="x-tick"></g><g class="x-tick"></g><g class="x-tick"></g><g class="x-tick"></g><g class="x-tick"></g><g class="x-tick"></g><g class="x-tick"></g><g class="x-tick"></g><g class="x-tick"></g><g class="x-tick"></g><g class="x-tick"></g><g class="x-tick"></g><g class="x-tick"></g><g class="x-tick"></g><g class="x-tick"></g><g class="x-tick"></g><g class="x-tick"></g><g class="x-tick"></g><g class="x-tick"></g><g class="x-tick"></g><g class="x-tick"></g><g class="x-tick"></g><g class="x-tick"></g><g class="x-tick"></g><g class="x-tick"></g><g class="x-tick"></g><g class="x-tick"></g><g class="x-tick"></g><g class="x-tick"></g><g class="x-tick"></g><g class="x-tick"></g><g class="x-tick"></g><g class="x-tick"></g><g class="x-tick"></g><g class="x-tick"></g><g class="x-tick"></g><g class="x-tick"></g><g class="x-tick"></g><g class="x-tick"></g><g class="x-tick"></g><g class="x-tick"></g><g class="x-tick"></g><g class="x-tick"></g><g class="x-tick"></g><g class="x-tick"></g><g class="x-tick"></g><g class="x-tick"></g><g class="x-tick"><text style="font-family:sans-serif; font-weight:300; font-size: 0.85rem; fill:black;text-anchor: end; dominant-baseline:hanging;" x="613" y="372">9/5/2021</text></g></g></svg>