<svg about="DATA_PUBLISHED_DATE:2021-11-24,RENDER_DATE:2022-01-06" xmlns="http://www.w3.org/2000/svg" viewBox="0,0,615,400"><g transform="translate(0,0)" style="fill:#CCCCCC;"></g><g class="fg-line postvax-cases_l1 line_s1" stroke="#1f2574" stroke-width="2px" fill="none"><path d="M50,336.35197006901166L54.73109243697479,335.3930711367797L59.462184873949575,333.44580240986784L64.19327731092437,331.79639445566784L68.92436974789916,329.5793153747687L73.65546218487395,328.29749253107786L78.38655462184873,327.3038592741332L83.11764705882352,326.3403907054709L87.84873949579831,325.2802515022622L92.5798319327731,323.69092966437813L97.31092436974791,322.1683332841623L102.0420168067227,320.56009672054637L106.77310924369749,318.893445215177L111.50420168067227,317.22053944760347L116.23529411764704,316.2263951504519L120.96638655462185,315.16568011417337L125.69747899159663,313.95651408205475L130.42857142857144,311.89257425683707L135.1596638655462,311.017760865234L139.890756302521,309.9661444285232L144.6218487394958,309.1770343431959L149.3529411764706,308.5654143861395L154.08403361344537,308.2140568393542L158.8151260504202,307.37281049440213L163.54621848739495,307.11183696293347L168.27731092436977,307.04967070636474L173.00840336134453,306.6905818112367L177.73949579831933,306.74582182795484L182.4705882352941,306.9600648881929L187.2016806722689,307.6228558215695L191.9327731092437,307.9119300087252L196.66386554621852,308.74130870493167L201.39495798319325,308.95182394962325L206.12605042016807,309.9560748983553L210.85714285714286,310.24708486151536L215.58823529411765,310.651993229538L220.31932773109241,310.86675859034955L225.05042016806723,311.66608940879337L229.781512605042,312.1768338308391L234.51260504201682,313.05091483740455L239.2436974789916,313.7347852886651L243.97478991596637,314.691122733966L248.7058823529412,315.3078160618365L253.43697478991595,315.9593247781741L258.16806722689074,316.8431652390295L262.89915966386553,317.888266532457L267.6302521008404,318.1603613578484L272.3613445378151,318.85086958914417L277.0924369747899,319.17722433256074L281.8235294117647,319.71495470306024L286.5546218487395,320.2510736795323L291.2857142857143,322.83769443404753L296.01680672268907,322.6329209332316L300.74789915966386,323.4466827248501L305.47899159663865,323.60693889589976L310.2100840336135,324.2091466747013L314.94117647058823,324.2179581903576L319.672268907563,324.0475484917587L324.4033613445378,322.8092694227071L329.1344537815126,324.3518718623851L333.8655462184874,325.36636237120825L338.5966386554622,326.28523541083393L343.32773109243703,327.1296670231131L348.05882352941177,327.79317498783917L352.7899159663865,328.3778424178159L357.5210084033613,328.8414983097986L362.25210084033614,329.5212893411497L366.98319327731093,330.07582408249965L371.7142857142857,330.73771893830343L376.44537815126057,331.1637823458373L381.1764705882353,331.34798384348346L385.90756302521004,331.535606951731L390.63865546218483,331.98146801910497L395.3697478991597,332.3087403906973L400.10084033613447,332.8239165936391L404.83193277310926,333.19205209494334L409.56302521008405,333.42561150848127L414.29411764705884,333.86806723909694L419.02521008403363,334.0677631355196L423.75630252100837,334.1104598019393L428.4873949579832,334.16717290873567L433.218487394958,334.20309431380747L437.9495798319328,334.3205807013185L442.68067226890753,334.3197358755845L447.4117647058824,334.2140163644468L452.14285714285717,334.2128278736191L456.8739495798319,334.78305100659605L461.6050420168067,334.8986796852239L466.33613445378154,335.02145187351636L471.06722689075633,335.1209471948846L475.79831932773106,335.1443856832144L480.52941176470586,335.1302291366298L485.2605042016807,334.8447616886914L489.99159663865544,334.15333268585147L494.7226890756302,333.824395163423L499.4537815126051,333.31786023360706L504.1848739495798,332.77454647844627L508.9159663865546,332.3642816386583L513.6470588235294,332.13268279217135L518.3781512605042,332.088178650262L523.109243697479,331.88116751131133L527.8403361344538,331.82814154307096L532.5714285714286,331.6434768308732L537.3025210084033,331.80624212948254L542.0336134453781,332.2099030062359L546.7647058823529,332.34483247684733L551.4957983193277,332.5504136367664L556.2268907563025,332.65007513318164L560.9579831932773,332.8078429197397L565.6890756302521,333.0068520551457L570.420168067227,332.9841604022273L575.1512605042018,332.965113713174L579.8823529411765,333.08028956571474L584.6134453781511,333.16534577177936L589.344537815126,333.6468367529257L594.0756302521008,334.13751711616186L598.8067226890756,334.87231126772525L603.5378151260504,335.81191771242555L608.2689075630252,336.3691067482798L613,336.89150229119457"></path></g><g class="fg-line postvax-cases_l2 line_s2" stroke="#dc4567" stroke-width="2px" fill="none"><path d="M50,238.61823765302677L54.73109243697479,233.16052151974066L59.462184873949575,224.14512998064018L64.19327731092437,214.60789526630575L68.92436974789916,204.89011203789326L73.65546218487395,196.75683301301868L78.38655462184873,189.43003354143812L83.11764705882352,182.29940253898076L87.84873949579831,177.335342923667L92.5798319327731,165.92040389957077L97.31092436974791,156.17178181887695L102.0420168067227,145.72164824554392L106.77310924369749,134.02182938258983L111.50420168067227,123.67237316671287L116.23529411764704,117.88454201138735L120.96638655462185,111.33029522793792L125.69747899159663,103.00197806757657L130.42857142857144,92.86629581428804L135.1596638655462,84.5576815864373L139.890756302521,77.03614106987129L144.6218487394958,70.42436158919018L149.3529411764706,65.89403549289516L154.08403361344537,65.3438352453304L158.8151260504202,57.618280749953854L163.54621848739495,50.8737418153906L168.27731092436977,45.35891659327645L173.00840336134453,43.58140608750466L177.73949579831933,40.071612995992645L182.4705882352941,40.0562349180787L187.2016806722689,40.953683154409774L191.9327731092437,41.28660034772365L196.66386554621852,42.23519817242883L201.39495798319325,44.03408666193091L206.12605042016807,44.19888145252908L210.85714285714286,43.79006005568121L215.58823529411765,45.23129243178748L220.31932773109241,47.82483407164181L225.05042016806723,49.72944944620508L229.781512605042,54.27453257148577L234.51260504201682,57.530572169674045L239.2436974789916,62.02321919885563L243.97478991596637,68.30041610999842L248.7058823529412,71.08840149289038L253.43697478991595,73.42241715075457L258.16806722689074,79.96929880456338L262.89915966386553,84.77862375850583L267.6302521008404,86.11934740519723L272.3613445378151,90.06849377664138L277.0924369747899,92.69541350018605L281.8235294117647,95.7729352162772L286.5546218487395,99.88590881309146L291.2857142857143,121.94368234432598L296.01680672268907,120.88327855171542L300.74789915966386,126.34333122031086L305.47899159663865,127.63413490916986L310.2100840336135,128.54350476903204L314.94117647058823,129.9086812915114L319.672268907563,130.13500516351283L324.4033613445378,115.22604696235086L329.1344537815126,124.63989444884282L333.8655462184874,132.57380284853588L338.5966386554622,140.76663892512136L343.32773109243703,147.73636103825314L348.05882352941177,152.3972889480357L352.7899159663865,156.48245317935334L357.5210084033613,162.96023028335884L362.25210084033614,169.82118479680295L366.98319327731093,174.88712837234027L371.7142857142857,179.94035095599207L376.44537815126057,183.50547142909136L381.1764705882353,186.25290794204096L385.90756302521004,187.8566610095075L390.63865546218483,192.2715567890102L395.3697478991597,195.40224386906496L400.10084033613447,199.7415064519152L404.83193277310926,202.22668083396394L409.56302521008405,203.874427708121L414.29411764705884,204.99567405365502L419.02521008403363,206.3149696347398L423.75630252100837,209.9718562847638L428.4873949579832,212.2111773021466L433.218487394958,212.9509087797052L437.9495798319328,214.34046739661926L442.68067226890753,216.5170705829778L447.4117647058824,217.5730414004168L452.14285714285717,217.8991067099028L456.8739495798319,221.3206009558979L461.6050420168067,222.695432828045L466.33613445378154,223.70944061213146L471.06722689075633,223.54268110572497L475.79831932773106,222.5709731578769L480.52941176470586,221.53537572844252L485.2605042016807,220.55547938277866L489.99159663865544,215.17851498232616L494.7226890756302,212.6294307535082L499.4537815126051,210.33457083661605L504.1848739495798,207.8228821025566L508.9159663865546,204.66696966398246L513.6470588235294,202.79512990323641L518.3781512605042,202.68542175788357L523.109243697479,201.78509978668234L527.8403361344538,199.1344159513145L532.5714285714286,198.12381082484077L537.3025210084033,197.56969885552178L542.0336134453781,199.2705973244241L546.7647058823529,200.01677837868618L551.4957983193277,200.50359886290974L556.2268907563025,200.1503843483795L560.9579831932773,201.97351797946456L565.6890756302521,202.85003500111034L570.420168067227,202.68036968445142L575.1512605042018,202.3501547152706L579.8823529411765,203.60470391622673L584.6134453781511,204.0843155148049L589.344537815126,207.9224312053869L594.0756302521008,209.93765927657296L598.8067226890756,212.7600502000004L603.5378151260504,220.33631939824696L608.2689075630252,223.11920697808478L613,224.86140426787813"></path></g><g class="left-y-axis"><g class="y-tick"><line style="stroke-width: 0.5px; stroke:black; opacity:0.15;" x1="613" y1="355" x2="50" y2="355"></line><text style="font-family:sans-serif; font-weight:300; font-size: 0.85rem; fill:black;text-anchor: end; dominant-baseline:middle;" x="40" y="355">0</text></g><g class="y-tick"><line style="stroke-width: 0.5px; stroke:black; opacity:0.15;" x1="613" y1="282.7777777777778" x2="50" y2="282.7777777777778"></line><text style="font-family:sans-serif; font-weight:300; font-size: 0.85rem; fill:black;text-anchor: end; dominant-baseline:middle;" x="40" y="282.7777777777778">20</text></g><g class="y-tick"><line style="stroke-width: 0.5px; stroke:black; opacity:0.15;" x1="613" y1="210.55555555555557" x2="50" y2="210.55555555555557"></line><text style="font-family:sans-serif; font-weight:300; font-size: 0.85rem; fill:black;text-anchor: end; dominant-baseline:middle;" x="40" y="210.55555555555557">40</text></g><g class="y-tick"><line style="stroke-width: 0.5px; stroke:black; opacity:0.15;" x1="613" y1="138.33333333333334" x2="50" y2="138.33333333333334"></line><text style="font-family:sans-serif; font-weight:300; font-size: 0.85rem; fill:black;text-anchor: end; dominant-baseline:middle;" x="40" y="138.33333333333334">60</text></g><g class="y-tick"><line style="stroke-width: 0.5px; stroke:black; opacity:0.15;" x1="613" y1="66.11111111111113" x2="50" y2="66.11111111111113"></line><text style="font-family:sans-serif; font-weight:300; font-size: 0.85rem; fill:black;text-anchor: end; dominant-baseline:middle;" x="40" y="66.11111111111113">80</text></g></g><g class="date-axis" style="stroke-width: 0.5px; stroke:black;"><g class="x-tick"><text style="font-family:sans-serif; font-weight:300; font-size: 0.85rem; fill:black;text-anchor: start; dominant-baseline:hanging;" x="50" y="372">7/17/2021</text></g><g class="x-tick"></g><g class="x-tick"></g><g class="x-tick"></g><g class="x-tick"></g><g class="x-tick"></g><g class="x-tick"></g><g class="x-tick"></g><g class="x-tick"></g><g class="x-tick"></g><g class="x-tick"></g><g class="x-tick"></g><g class="x-tick"></g><g class="x-tick"></g><g class="x-tick"></g><g class="x-tick"></g><g class="x-tick"></g><g class="x-tick"></g><g class="x-tick"></g><g class="x-tick"></g><g class="x-tick"></g><g class="x-tick"></g><g class="x-tick"></g><g class="x-tick"></g><g class="x-tick"></g><g class="x-tick"></g><g class="x-tick"></g><g class="x-tick"></g><g class="x-tick"></g><g class="x-tick"></g><g class="x-tick"></g><g class="x-tick"></g><g class="x-tick"></g><g class="x-tick"></g><g class="x-tick"></g><g class="x-tick"></g><g class="x-tick"></g><g class="x-tick"></g><g class="x-tick"></g><g class="x-tick"></g><g class="x-tick"></g><g class="x-tick"></g><g class="x-tick"></g><g class="x-tick"></g><g class="x-tick"></g><g class="x-tick"></g><g class="x-tick"></g><g class="x-tick"></g><g class="x-tick"></g><g class="x-tick"></g><g class="x-tick"></g><g class="x-tick"></g><g class="x-tick"></g><g class="x-tick"></g><g class="x-tick"></g><g class="x-tick"></g><g class="x-tick"></g><g class="x-tick"></g><g class="x-tick"></g><g class="x-tick"></g><g class="x-tick"></g><g class="x-tick"></g><g class="x-tick"></g><g class="x-tick"></g><g class="x-tick"></g><g class="x-tick"></g><g class="x-tick"></g><g class="x-tick"></g><g class="x-tick"></g><g class="x-tick"></g><g class="x-tick"></g><g class="x-tick"></g><g class="x-tick"></g><g class="x-tick"></g><g class="x-tick"></g><g class="x-tick"></g><g class="x-tick"></g><g class="x-tick"></g><g class="x-tick"></g><g class="x-tick"></g><g class="x-tick"></g><g class="x-tick"></g><g class="x-tick"></g><g class="x-tick"></g><g class="x-tick"></g><g class="x-tick"></g><g class="x-tick"></g><g class="x-tick"></g><g class="x-tick"></g><g class="x-tick"></g><g class="x-tick"></g><g class="x-tick"></g><g class="x-tick"></g><g class="x-tick"></g><g class="x-tick"></g><g class="x-tick"></g><g class="x-tick"></g><g class="x-tick"></g><g class="x-tick"></g><g class="x-tick"></g><g class="x-tick"></g><g class="x-tick"></g><g class="x-tick"></g><g class="x-tick"></g><g class="x-tick"></g><g class="x-tick"></g><g class="x-tick"></g><g class="x-tick"></g><g class="x-tick"></g><g class="x-tick"></g><g class="x-tick"></g><g class="x-tick"></g><g class="x-tick"></g><g class="x-tick"></g><g class="x-tick"></g><g class="x-tick"></g><g class="x-tick"></g><g class="x-tick"></g><g class="x-tick"></g><g class="x-tick"><text style="font-family:sans-serif; font-weight:300; font-size: 0.85rem; fill:black;text-anchor: end; dominant-baseline:hanging;" x="613" y="372">11/13/2021</text></g></g></svg>