<svg about="DATA_PUBLISHED_DATE:2021-11-24,RENDER_DATE:2022-01-25" xmlns="http://www.w3.org/2000/svg" viewBox="0,0,615,400"><g transform="translate(0,0)" style="fill:#CCCCCC;"></g><g class="fg-line postvax-deaths_l1 line_s1" stroke="#1f2574" stroke-width="2px" fill="none"><path d="M50,350.796697743171L54.73109243697479,350.1271449207466L59.462184873949575,349.9685445143097L64.19327731092437,349.4757894475204L68.92436974789916,349.3187165272146L73.65546218487395,349.4955564829264L78.38655462184873,349.3405436316654L83.11764705882352,349.01562090506394L87.84873949579831,348.8531841881463L92.5798319327731,348.3656967032183L97.31092436974791,348.2120953071089L102.0420168067227,347.56287499182497L106.77310924369749,347.41027152405417L111.50420168067227,347.2601287084605L116.23529411764704,346.93980443294174L120.96638655462185,346.1200970174787L125.69747899159663,346.2953203234745L130.42857142857144,345.981582173908L135.1596638655462,346.4868478839529L139.890756302521,345.3550812475859L144.6218487394958,345.20904491955076L149.3529411764706,345.5455660259753L154.08403361344537,346.20174699154495L158.8151260504202,344.2609803709596L163.54621848739495,343.79043220434875L168.27731092436977,341.6979466074394L173.00840336134453,341.39373836211087L177.73949579831933,341.74221903098453L182.4705882352941,340.14214458595126L187.2016806722689,338.6981931645446L191.9327731092437,338.240900453527L196.66386554621852,336.6607735761116L201.39495798319325,336.369128283227L206.12605042016807,335.9192409341814L210.85714285714286,334.839605694944L215.58823529411765,334.0674201389801L220.31932773109241,334.2422711055454L225.05042016806723,333.96133903146125L229.781512605042,334.0029625483669L234.51260504201682,334.5203043101161L239.2436974789916,335.0347191796736L243.97478991596637,334.45156271466203L248.7058823529412,336.0610350568574L253.43697478991595,335.1299536356754L258.16806722689074,335.1714421177958L262.89915966386553,336.313599439109L267.6302521008404,336.9789850017768L272.3613445378151,335.45253122081056L277.0924369747899,334.72507463215624L281.8235294117647,332.8906152201005L286.5546218487395,333.84361265051655L291.2857142857143,334.19962865811084L296.01680672268907,334.24366132396443L300.74789915966386,333.04661243429604L305.47899159663865,334.1684694941833L310.2100840336135,336.0683946508432L314.94117647058823,337.632306413478L319.672268907563,337.95300043932116L324.4033613445378,338.57428738227844L329.1344537815126,338.9198969020974L333.8655462184874,340.02073280372633L338.5966386554622,339.4387801197251L343.32773109243703,338.5634450018473L348.05882352941177,338.58753546019346L352.7899159663865,339.5116176867632L357.5210084033613,339.99615055782766L362.25210084033614,339.72178438957366L366.98319327731093,339.4480199436418L371.7142857142857,340.0800239696197L376.44537815126057,340.8653496396434L381.1764705882353,340.2831003781276L385.90756302521004,338.94329812531794L390.63865546218483,339.57028273365984L395.3697478991597,339.44505288218363L400.10084033613447,340.06601204984065L404.83193277310926,340.53434851943194L409.56302521008405,341.4539754643567L414.29411764705884,342.2112691203423L419.02521008403363,343.556065520395L423.75630252100837,342.8253883223049L428.4873949579832,344.0282750662682L433.218487394958,344.93225676151707L437.9495798319328,345.3904030913074L442.68067226890753,344.9630492018L447.4117647058824,345.4144544505611L452.14285714285717,344.68254086167786L456.8739495798319,345.57770354997325L461.6050420168067,345.0001773497959L466.33613445378154,344.13012331146524L471.06722689075633,344.4359361539439L475.79831932773106,343.86511754274943L480.52941176470586,343.43474802267275L485.2605042016807,344.17167682449224L489.99159663865544,344.3297696206052L494.7226890756302,344.77934003972155L499.4537815126051,345.37332271995075L504.1848739495798,344.94602566132113L508.9159663865546,345.54091159639006L513.6470588235294,345.69264541682827L518.3781512605042,345.40526229843886L523.109243697479,345.270364440897L527.8403361344538,345.8600616949898L532.5714285714286,345.2889699331841L537.3025210084033,346.1671495204715L542.0336134453781,346.46719420502274L546.7647058823529,346.9065684550331L551.4957983193277,346.33156891078517L556.2268907563025,346.34064678060054L560.9579831932773,345.6287509505618L565.6890756302521,346.5024426819019L570.420168067227,346.65520086469616L575.1512605042018,347.2403210952832L579.8823529411765,347.5325782644101L584.6134453781511,348.3965887305655L589.344537815126,348.5471791287071L594.0756302521008,349.8430511850892L598.8067226890756,349.8481642377765L603.5378151260504,350.7110441214327L608.2689075630252,351.28747164813495L613,352.14596267794803"></path></g><g class="fg-line postvax-deaths_l2 line_s2" stroke="#dc4567" stroke-width="2px" fill="none"><path d="M50,307.94702338537L54.73109243697479,303.4850971859821L59.462184873949575,302.6449359516704L64.19327731092437,301.439570079913L68.92436974789916,297.15278974846115L73.65546218487395,295.9205401461898L78.38655462184873,298.767108339807L83.11764705882352,289.9586106351058L87.84873949579831,287.78831074256067L92.5798319327731,276.7605030161222L97.31092436974791,269.7863292350587L102.0420168067227,264.5120942627525L106.77310924369749,258.8240162972424L111.50420168067227,247.32470979879994L116.23529411764704,245.54087039710677L120.96638655462185,235.0024657534871L125.69747899159663,230.84463396429115L130.42857142857144,223.3462064844285L135.1596638655462,214.3070261246526L139.890756302521,204.09266729852354L144.6218487394958,183.0137422728404L149.3529411764706,173.88640517125822L154.08403361344537,172.03085086633055L158.8151260504202,159.90373246776835L163.54621848739495,146.03210517177587L168.27731092436977,142.18500964778775L173.00840336134453,133.7425890829075L177.73949579831933,137.84235305465947L182.4705882352941,130.79088165004245L187.2016806722689,122.59752674230036L191.9327731092437,123.8978887203266L196.66386554621852,122.09508532715286L201.39495798319325,108.34618578665565L206.12605042016807,99.42228045932596L210.85714285714286,92.0102377537851L215.58823529411765,80.89678965249921L220.31932773109241,77.45261170186481L225.05042016806723,75.04422486539877L229.781512605042,71.77621949973155L234.51260504201682,70.55144570492861L239.2436974789916,60.78317308946605L243.97478991596637,54.65279863522228L248.7058823529412,62.06149747960313L253.43697478991595,50.25995306113768L258.16806722689074,40.217615440930835L262.89915966386553,40.51049985052793L267.6302521008404,35.83508686948507L272.3613445378151,41.20503240192078L277.0924369747899,38.29047678291091L281.8235294117647,34.91586281990686L286.5546218487395,44.45894671163304L291.2857142857143,42.00778222135261L296.01680672268907,44.34691552854033L300.74789915966386,51.849686190921204L305.47899159663865,55.645413709343586L310.2100840336135,60.07318062051793L314.94117647058823,54.316393846115375L319.672268907563,62.95894388313236L324.4033613445378,68.82907353967639L329.1344537815126,73.80377711962929L333.8655462184874,63.67243610116252L338.5966386554622,68.18190622641669L343.32773109243703,74.76145880149984L348.05882352941177,79.74746929585001L352.7899159663865,75.65933120473339L357.5210084033613,81.30533445650994L362.25210084033614,81.15731685396811L366.98319327731093,92.39264488225588L371.7142857142857,101.39929107523992L376.44537815126057,105.31165060552873L381.1764705882353,107.38880708138872L385.90756302521004,114.85189586121555L390.63865546218483,124.12203191304687L395.3697478991597,124.19843267122752L400.10084033613447,121.0310525828631L404.83193277310926,115.99121722392891L409.56302521008405,116.81256234061917L414.29411764705884,133.65233232385583L419.02521008403363,135.25421251256898L423.75630252100837,139.58619111699122L428.4873949579832,150.59687656018187L433.218487394958,168.9075917340374L437.9495798319328,179.67803201331105L442.68067226890753,189.99042828687877L447.4117647058824,188.12824068584231L452.14285714285717,190.29628512515023L456.8739495798319,190.17491092589634L461.6050420168067,192.99530787566877L466.33613445378154,196.33792014306383L471.06722689075633,182.46857229447275L475.79831932773106,179.16804319381168L480.52941176470586,185.65117475497453L485.2605042016807,192.84011844990863L489.99159663865544,196.69865979895053L494.7226890756302,194.64571714391698L499.4537815126051,196.10264538531507L504.1848739495798,212.66391785347128L508.9159663865546,219.1356392198973L513.6470588235294,217.31113035515548L518.3781512605042,220.17341253756695L523.109243697479,217.66385168933027L527.8403361344538,217.75829781188153L532.5714285714286,219.9031671958198L537.3025210084033,223.08227559614494L542.0336134453781,223.56280134297268L546.7647058823529,229.9653209600944L551.4957983193277,228.77133204995337L556.2268907563025,231.90877357074936L560.9579831932773,237.67783370678976L565.6890756302521,243.49650827600902L570.420168067227,245.70245740811387L575.1512605042018,252.6031623859299L579.8823529411765,262.41211224377787L584.6134453781511,272.8855279759238L589.344537815126,277.3283748619041L594.0756302521008,281.81016049345806L598.8067226890756,285.26311661727794L603.5378151260504,294.6685480527194L608.2689075630252,302.49181613942204L613,308.8756560618154"></path></g><g class="left-y-axis"><g class="y-tick"><line style="stroke-width: 0.5px; stroke:black; opacity:0.15;" x1="613" y1="355" x2="50" y2="355"></line><text style="font-family:sans-serif; font-weight:300; font-size: 0.85rem; fill:black;text-anchor: end; dominant-baseline:middle;" x="40" y="355">0</text></g><g class="y-tick"><line style="stroke-width: 0.5px; stroke:black; opacity:0.15;" x1="613" y1="305" x2="50" y2="305"></line><text style="font-family:sans-serif; font-weight:300; font-size: 0.85rem; fill:black;text-anchor: end; dominant-baseline:middle;" x="40" y="305">2</text></g><g class="y-tick"><line style="stroke-width: 0.5px; stroke:black; opacity:0.15;" x1="613" y1="255" x2="50" y2="255"></line><text style="font-family:sans-serif; font-weight:300; font-size: 0.85rem; fill:black;text-anchor: end; dominant-baseline:middle;" x="40" y="255">4</text></g><g class="y-tick"><line style="stroke-width: 0.5px; stroke:black; opacity:0.15;" x1="613" y1="204.99999999999997" x2="50" y2="204.99999999999997"></line><text style="font-family:sans-serif; font-weight:300; font-size: 0.85rem; fill:black;text-anchor: end; dominant-baseline:middle;" x="40" y="204.99999999999997">6</text></g><g class="y-tick"><line style="stroke-width: 0.5px; stroke:black; opacity:0.15;" x1="613" y1="154.99999999999997" x2="50" y2="154.99999999999997"></line><text style="font-family:sans-serif; font-weight:300; font-size: 0.85rem; fill:black;text-anchor: end; dominant-baseline:middle;" x="40" y="154.99999999999997">8</text></g><g class="y-tick"><line style="stroke-width: 0.5px; stroke:black; opacity:0.15;" x1="613" y1="104.99999999999999" x2="50" y2="104.99999999999999"></line><text style="font-family:sans-serif; font-weight:300; font-size: 0.85rem; fill:black;text-anchor: end; dominant-baseline:middle;" x="40" y="104.99999999999999">10</text></g><g class="y-tick"><line style="stroke-width: 0.5px; stroke:black; opacity:0.15;" x1="613" y1="54.999999999999986" x2="50" y2="54.999999999999986"></line><text style="font-family:sans-serif; font-weight:300; font-size: 0.85rem; fill:black;text-anchor: end; dominant-baseline:middle;" x="40" y="54.999999999999986">12</text></g></g><g class="date-axis" style="stroke-width: 0.5px; stroke:black;"><g class="x-tick"><text style="font-family:sans-serif; font-weight:300; font-size: 0.85rem; fill:black;text-anchor: start; dominant-baseline:hanging;" x="50" y="372">7/24/2021</text></g><g class="x-tick"></g><g class="x-tick"></g><g class="x-tick"></g><g class="x-tick"></g><g class="x-tick"></g><g class="x-tick"></g><g class="x-tick"></g><g class="x-tick"></g><g class="x-tick"></g><g class="x-tick"></g><g class="x-tick"></g><g class="x-tick"></g><g class="x-tick"></g><g class="x-tick"></g><g class="x-tick"></g><g class="x-tick"></g><g class="x-tick"></g><g class="x-tick"></g><g class="x-tick"></g><g class="x-tick"></g><g class="x-tick"></g><g class="x-tick"></g><g class="x-tick"></g><g class="x-tick"></g><g class="x-tick"></g><g class="x-tick"></g><g class="x-tick"></g><g class="x-tick"></g><g class="x-tick"></g><g class="x-tick"></g><g class="x-tick"></g><g class="x-tick"></g><g class="x-tick"></g><g class="x-tick"></g><g class="x-tick"></g><g class="x-tick"></g><g class="x-tick"></g><g class="x-tick"></g><g class="x-tick"></g><g class="x-tick"></g><g class="x-tick"></g><g class="x-tick"></g><g class="x-tick"></g><g class="x-tick"></g><g class="x-tick"></g><g class="x-tick"></g><g class="x-tick"></g><g class="x-tick"></g><g class="x-tick"></g><g class="x-tick"></g><g class="x-tick"></g><g class="x-tick"></g><g class="x-tick"></g><g class="x-tick"></g><g class="x-tick"></g><g class="x-tick"></g><g class="x-tick"></g><g class="x-tick"></g><g class="x-tick"></g><g class="x-tick"></g><g class="x-tick"></g><g class="x-tick"></g><g class="x-tick"></g><g class="x-tick"></g><g class="x-tick"></g><g class="x-tick"></g><g class="x-tick"></g><g class="x-tick"></g><g class="x-tick"></g><g class="x-tick"></g><g class="x-tick"></g><g class="x-tick"></g><g class="x-tick"></g><g class="x-tick"></g><g class="x-tick"></g><g class="x-tick"></g><g class="x-tick"></g><g class="x-tick"></g><g class="x-tick"></g><g class="x-tick"></g><g class="x-tick"></g><g class="x-tick"></g><g class="x-tick"></g><g class="x-tick"></g><g class="x-tick"></g><g class="x-tick"></g><g class="x-tick"></g><g class="x-tick"></g><g class="x-tick"></g><g class="x-tick"></g><g class="x-tick"></g><g class="x-tick"></g><g class="x-tick"></g><g class="x-tick"></g><g class="x-tick"></g><g class="x-tick"></g><g class="x-tick"></g><g class="x-tick"></g><g class="x-tick"></g><g class="x-tick"></g><g class="x-tick"></g><g class="x-tick"></g><g class="x-tick"></g><g class="x-tick"></g><g class="x-tick"></g><g class="x-tick"></g><g class="x-tick"></g><g class="x-tick"></g><g class="x-tick"></g><g class="x-tick"></g><g class="x-tick"></g><g class="x-tick"></g><g class="x-tick"></g><g class="x-tick"></g><g class="x-tick"></g><g class="x-tick"></g><g class="x-tick"></g><g class="x-tick"></g><g class="x-tick"><text style="font-family:sans-serif; font-weight:300; font-size: 0.85rem; fill:black;text-anchor: end; dominant-baseline:hanging;" x="613" y="372">11/20/2021</text></g></g></svg>