<svg about="DATA_PUBLISHED_DATE:2021-11-10,RENDER_DATE:2021-11-13" xmlns="http://www.w3.org/2000/svg" viewBox="0,0,615,400"><g transform="translate(0,0)" style="fill:#CCCCCC;"></g><g class="fg-line postvax-cases_l1 line_s1" stroke="#1f2574" stroke-width="2px" fill="none"><path d="M50,349.0304399027778L54.73109243697479,348.39797491666667L59.462184873949575,347.52587923333334L64.19327731092437,346.56581890555555L68.92436974789916,345.76210011666666L73.65546218487395,344.90807894722224L78.38655462184873,344.15088419722224L83.11764705882352,343.2554012611111L87.84873949579831,341.99007074444444L92.5798319327731,340.849482775L97.31092436974791,339.77445597222226L102.0420168067227,338.30679536944444L106.77310924369749,336.97033116388883L111.50420168067227,335.8912642861111L116.23529411764704,334.91206579166663L120.96638655462185,332.89966109722224L125.69747899159663,331.2098153638889L130.42857142857144,328.94883413055555L135.1596638655462,327.66562366666665L139.890756302521,326.6536883916667L144.6218487394958,325.6457490277778L149.3529411764706,324.56984515833335L154.08403361344537,322.96312954999996L158.8151260504202,321.38017880833337L163.54621848739495,319.73059876944444L168.27731092436977,317.97428446944446L173.00840336134453,316.299558675L177.73949579831933,315.2871400888889L182.4705882352941,314.21513177777774L187.2016806722689,312.97433850833335L191.9327731092437,310.914053875L196.66386554621852,310.05306665555554L201.39495798319325,309.00896880277776L206.12605042016807,308.17330078055556L210.85714285714286,307.5946448888889L215.58823529411765,307.21571615833335L220.31932773109241,306.3879631861111L225.05042016806723,306.0848859888889L229.781512605042,306.0042219277778L234.51260504201682,305.66407017500006L239.2436974789916,305.7080326722222L243.97478991596637,305.9056170361111L248.7058823529412,306.6061672833333L253.43697478991595,306.9252518861111L258.16806722689074,307.8103926361111L262.89915966386553,308.0378348944445L267.6302521008404,309.10169747777775L272.3613445378151,309.4066756361111L277.0924369747899,309.7999667305555L281.8235294117647,310.02183354166664L286.5546218487395,310.79616120833333L291.2857142857143,311.29863709999995L296.01680672268907,312.1722013138889L300.74789915966386,312.81151856388885L305.47899159663865,313.7744226777778L310.2100840336135,314.40814389722226L314.94117647058823,315.0712430583334L319.672268907563,316.03140814444447L324.4033613445378,317.12322488055554L329.1344537815126,317.4062977861111L333.8655462184874,318.14855430833336L338.5966386554622,318.5286379805555L343.32773109243703,319.1033415833333L348.05882352941177,319.6187871055556L352.7899159663865,322.2008722027778L357.5210084033613,321.987566325L362.25210084033614,322.8709040472222L366.98319327731093,323.0263042777778L371.7142857142857,323.6198642L376.44537815126057,323.5827727083333L381.1764705882353,323.46575216111114L385.90756302521004,322.2759318916667L390.63865546218483,323.8306718027778L395.3697478991597,324.85270970277776L400.10084033613447,325.74979232500004L404.83193277310926,326.6219378777778L409.56302521008405,327.3004248861111L414.29411764705884,327.85695441666667L419.02521008403363,328.2956188333333L423.75630252100837,329.0085006277778L428.4873949579832,329.55689237499996L433.218487394958,330.25839155L437.9495798319328,330.65501981666665L442.68067226890753,330.85328411666666L447.4117647058824,331.0686289722222L452.14285714285717,331.5328135083333L456.8739495798319,331.8476305L461.6050420168067,332.4171186111111L466.33613445378154,332.7863697083333L471.06722689075633,333.0640161611111L475.79831932773106,333.5426742833333L480.52941176470586,333.7347548083333L485.2605042016807,333.7695351166667L489.99159663865544,333.86457298888894L494.7226890756302,333.8878931111111L499.4537815126051,334.0154627611111L504.1848739495798,334.0091082166666L508.9159663865546,333.878608475L513.6470588235294,333.8984463666667L518.3781512605042,334.4790462638889L523.109243697479,334.5963896805556L527.8403361344538,334.7279826861111L532.5714285714286,334.9091949944445L537.3025210084033,334.92522962777775L542.0336134453781,334.9231215333333L546.7647058823529,334.65052070555555L551.4957983193277,334.0076064638889L556.2268907563025,333.6835579194444L560.9579831932773,333.1925366166667L565.6890756302521,332.5779277444444L570.420168067227,332.1995889972222L575.1512605042018,331.9906438611111L579.8823529411765,331.9690930388889L584.6134453781511,331.7953159361111L589.344537815126,331.8082852055556L594.0756302521008,331.6604445472222L598.8067226890756,332.0358197638889L603.5378151260504,332.6382759472222L608.2689075630252,332.99448667222225L613,333.54617373888885"></path></g><g class="fg-line postvax-cases_l2 line_s2" stroke="#dc4567" stroke-width="2px" fill="none"><path d="M50,308.56665413055555L54.73109243697479,305.5460095555556L59.462184873949575,299.14744241666665L64.19327731092437,293.0142048444444L68.92436974789916,287.85596785L73.65546218487395,282.0141643861111L78.38655462184873,276.7376419805555L83.11764705882352,271.4976816777778L87.84873949579831,262.348828725L92.5798319327731,256.5214942972222L97.31092436974791,250.3991737277778L102.0420168067227,242.95929145833335L106.77310924369749,235.16823332777778L111.50420168067227,230.58460994722222L116.23529411764704,224.87939293333335L120.96638655462185,215.67538563888888L125.69747899159663,205.55426005L130.42857142857144,195.30587450000002L135.1596638655462,186.75171308333336L139.890756302521,178.9073038916667L144.6218487394958,171.23288735833333L149.3529411764706,166.0714744277778L154.08403361344537,153.9897694388889L158.8151260504202,143.78532916111112L163.54621848739495,133.00998008888888L168.27731092436977,120.96296061666668L173.00840336134453,110.5089772138889L177.73949579831933,104.85676567777776L182.4705882352941,98.06055489999997L187.2016806722689,89.57233551388889L191.9327731092437,79.53234386388891L196.66386554621852,71.06132380277782L201.39495798319325,63.24924914999998L206.12605042016807,56.42073651388887L210.85714285714286,51.88081906111114L215.58823529411765,51.52289305833333L220.31932773109241,44.45171631944447L225.05042016806723,38.04241500833338L229.781512605042,33.28994185L234.51260504201682,32.918651522222234L239.2436974789916,30.27907497222219L243.97478991596637,30.53728317500002L248.7058823529412,31.365954416666646L253.43697478991595,32.457201175000016L258.16806722689074,34.318603502777805L262.89915966386553,36.84933079999997L267.6302521008404,37.185904122222226L272.3613445378151,37.28528865277779L277.0924369747899,39.1234066083333L281.8235294117647,42.3552475222222L286.5546218487395,44.442311325000006L291.2857142857143,49.91420213611113L296.01680672268907,53.408686672222224L300.74789915966386,58.782350422222194L305.47899159663865,65.63966986666665L310.2100840336135,68.51727630833334L314.94117647058823,70.9047691361111L319.672268907563,78.37582345555556L324.4033613445378,83.4000298L329.1344537815126,85.27764590833334L333.8655462184874,89.01716971944444L338.5966386554622,91.58624560833334L343.32773109243703,95.05183508055555L348.05882352941177,99.3694901972222L352.7899159663865,120.36620767777778L357.5210084033613,119.36642805277776L362.25210084033614,124.88470228611111L366.98319327731093,125.90822323333333L371.7142857142857,126.91615053611113L376.44537815126057,128.28772156666665L381.1764705882353,128.47938345555556L385.90756302521004,114.03887613333336L390.63865546218483,123.16379724166666L395.3697478991597,131.03716714722225L400.10084033613447,138.97808721944443L404.83193277310926,145.6870740638889L409.56302521008405,150.39867818333332L414.29411764705884,154.50825551666668L419.02521008403363,160.81599226944445L423.75630252100837,167.3473374L428.4873949579832,172.09850579166667L433.218487394958,177.25379478333332L437.9495798319328,181.164737425L442.68067226890753,184.03729495555555L447.4117647058824,185.83786013611112L452.14285714285717,191.0642766777778L456.8739495798319,194.27701669166666L461.6050420168067,198.702119625L466.33613445378154,201.42373354166665L471.06722689075633,203.17587065277777L475.79831932773106,204.2598933111111L480.52941176470586,205.54600909444446L485.2605042016807,208.85688365277775L489.99159663865544,211.19265673888887L494.7226890756302,211.95222178611112L499.4537815126051,213.15292735277777L504.1848739495798,215.20084028333335L508.9159663865546,216.47971640277774L513.6470588235294,217.17461165L518.3781512605042,220.44761951944443L523.109243697479,221.98997436666667L527.8403361344538,223.00999961388885L532.5714285714286,222.9910397277778L537.3025210084033,222.35727174444446L542.0336134453781,221.40090460833335L546.7647058823529,220.05628348055552L551.4957983193277,214.9586384388889L556.2268907563025,212.20419345555553L560.9579831932773,209.6880601027778L565.6890756302521,207.13271066111113L570.420168067227,203.93249105555557L575.1512605042018,201.82267505L579.8823529411765,202.25687746944445L584.6134453781511,201.5576083722222L589.344537815126,199.50871264166665L594.0756302521008,199.23431774166664L598.8067226890756,199.1514591361111L603.5378151260504,201.93013973055557L608.2689075630252,204.612352525L613,206.86081970555557"></path></g><g class="left-y-axis"><g class="y-tick"><line style="stroke-width: 0.5px; stroke:black; opacity:0.15;" x1="613" y1="355" x2="50" y2="355"></line><text style="font-family:sans-serif; font-weight:300; font-size: 0.85rem; fill:black;text-anchor: end; dominant-baseline:middle;" x="40" y="355">0</text></g><g class="y-tick"><line style="stroke-width: 0.5px; stroke:black; opacity:0.15;" x1="613" y1="282.7777777777778" x2="50" y2="282.7777777777778"></line><text style="font-family:sans-serif; font-weight:300; font-size: 0.85rem; fill:black;text-anchor: end; dominant-baseline:middle;" x="40" y="282.7777777777778">20</text></g><g class="y-tick"><line style="stroke-width: 0.5px; stroke:black; opacity:0.15;" x1="613" y1="210.55555555555557" x2="50" y2="210.55555555555557"></line><text style="font-family:sans-serif; font-weight:300; font-size: 0.85rem; fill:black;text-anchor: end; dominant-baseline:middle;" x="40" y="210.55555555555557">40</text></g><g class="y-tick"><line style="stroke-width: 0.5px; stroke:black; opacity:0.15;" x1="613" y1="138.33333333333334" x2="50" y2="138.33333333333334"></line><text style="font-family:sans-serif; font-weight:300; font-size: 0.85rem; fill:black;text-anchor: end; dominant-baseline:middle;" x="40" y="138.33333333333334">60</text></g><g class="y-tick"><line style="stroke-width: 0.5px; stroke:black; opacity:0.15;" x1="613" y1="66.11111111111113" x2="50" y2="66.11111111111113"></line><text style="font-family:sans-serif; font-weight:300; font-size: 0.85rem; fill:black;text-anchor: end; dominant-baseline:middle;" x="40" y="66.11111111111113">80</text></g></g><g class="date-axis" style="stroke-width: 0.5px; stroke:black;"><g class="x-tick"><text style="font-family:sans-serif; font-weight:300; font-size: 0.85rem; fill:black;text-anchor: start; dominant-baseline:hanging;" x="50" y="372">7/4/2021</text></g><g class="x-tick"></g><g class="x-tick"></g><g class="x-tick"></g><g class="x-tick"></g><g class="x-tick"></g><g class="x-tick"></g><g class="x-tick"></g><g class="x-tick"></g><g class="x-tick"></g><g class="x-tick"></g><g class="x-tick"></g><g class="x-tick"></g><g class="x-tick"></g><g class="x-tick"></g><g class="x-tick"></g><g class="x-tick"></g><g class="x-tick"></g><g class="x-tick"></g><g class="x-tick"></g><g class="x-tick"></g><g class="x-tick"></g><g class="x-tick"></g><g class="x-tick"></g><g class="x-tick"></g><g class="x-tick"></g><g class="x-tick"></g><g class="x-tick"></g><g class="x-tick"></g><g class="x-tick"></g><g class="x-tick"></g><g class="x-tick"></g><g class="x-tick"></g><g class="x-tick"></g><g class="x-tick"></g><g class="x-tick"></g><g class="x-tick"></g><g class="x-tick"></g><g class="x-tick"></g><g class="x-tick"></g><g class="x-tick"></g><g class="x-tick"></g><g class="x-tick"></g><g class="x-tick"></g><g class="x-tick"></g><g class="x-tick"></g><g class="x-tick"></g><g class="x-tick"></g><g class="x-tick"></g><g class="x-tick"></g><g class="x-tick"></g><g class="x-tick"></g><g class="x-tick"></g><g class="x-tick"></g><g class="x-tick"></g><g class="x-tick"></g><g class="x-tick"></g><g class="x-tick"></g><g class="x-tick"></g><g class="x-tick"></g><g class="x-tick"></g><g class="x-tick"></g><g class="x-tick"></g><g class="x-tick"></g><g class="x-tick"></g><g class="x-tick"></g><g class="x-tick"></g><g class="x-tick"></g><g class="x-tick"></g><g class="x-tick"></g><g class="x-tick"></g><g class="x-tick"></g><g class="x-tick"></g><g class="x-tick"></g><g class="x-tick"></g><g class="x-tick"></g><g class="x-tick"></g><g class="x-tick"></g><g class="x-tick"></g><g class="x-tick"></g><g class="x-tick"></g><g class="x-tick"></g><g class="x-tick"></g><g class="x-tick"></g><g class="x-tick"></g><g class="x-tick"></g><g class="x-tick"></g><g class="x-tick"></g><g class="x-tick"></g><g class="x-tick"></g><g class="x-tick"></g><g class="x-tick"></g><g class="x-tick"></g><g class="x-tick"></g><g class="x-tick"></g><g class="x-tick"></g><g class="x-tick"></g><g class="x-tick"></g><g class="x-tick"></g><g class="x-tick"></g><g class="x-tick"></g><g class="x-tick"></g><g class="x-tick"></g><g class="x-tick"></g><g class="x-tick"></g><g class="x-tick"></g><g class="x-tick"></g><g class="x-tick"></g><g class="x-tick"></g><g class="x-tick"></g><g class="x-tick"></g><g class="x-tick"></g><g class="x-tick"></g><g class="x-tick"></g><g class="x-tick"></g><g class="x-tick"></g><g class="x-tick"></g><g class="x-tick"></g><g class="x-tick"></g><g class="x-tick"><text style="font-family:sans-serif; font-weight:300; font-size: 0.85rem; fill:black;text-anchor: end; dominant-baseline:hanging;" x="613" y="372">10/31/2021</text></g></g></svg>