<svg about="DATA_PUBLISHED_DATE:2021-10-07,RENDER_DATE:2021-10-11" xmlns="http://www.w3.org/2000/svg" viewBox="0,0,615,400"><g transform="translate(0,0)" style="fill:#CCCCCC;"></g><g class="fg-line postvax-hospitalizations_l1 line_s1" stroke="#1f2574" stroke-width="2px" fill="none"><path d="M50,342.55622043750003L60.05357142857142,341.93814478125L70.10714285714286,340.93807346875L80.16071428571428,340.0548238125L90.21428571428572,339.71064759374997L100.26785714285714,339.28207537500003L110.32142857142858,338.85949290625L120.375,338.37138921875L130.42857142857144,337.705412625L140.48214285714286,337.70159996875L150.53571428571428,337.19571471874997L160.58928571428572,337.13857849999994L170.64285714285714,336.49360015625L180.69642857142858,335.99416615625L190.75,335.67845871875L200.80357142857142,335.40536365625L210.85714285714286,334.22989471875L220.91071428571428,334.34277412499995L230.96428571428572,334.5376108125L241.01785714285714,334.70241018749994L251.07142857142858,334.70589865625L261.125,334.4481635L271.17857142857144,334.73293215625L281.23214285714283,334.56262159374995L291.2857142857143,334.17627378125L301.3392857142857,333.513952625L311.39285714285717,333.59677603125L321.44642857142856,333.71280062500006L331.5,333.78823759375L341.55357142857144,333.99091246874997L351.60714285714283,335.115217875L361.6607142857143,335.0074226875L371.7142857142857,335.36301290625L381.76785714285717,335.85509987499995L391.82142857142856,335.42684575L401.875,335.63915525000004L411.92857142857144,335.84144865625L421.98214285714283,335.65516353124997L432.0357142857143,336.98876853124995L442.0892857142857,336.99276278125L452.14285714285717,337.26602359375005L462.19642857142856,338.0843155L472.25,338.91255565625L482.30357142857144,339.19256225L492.35714285714283,340.61691090625L502.4107142857143,340.617259875L512.4642857142857,341.525316375L522.5178571428572,341.60325421875L532.5714285714286,342.03289528125003L542.625,342.18359534375L552.6785714285714,342.53886909375L562.7321428571428,342.29709265625L572.7857142857143,342.7969918125L582.8392857142857,343.05517790625L592.8928571428572,343.57648846875L602.9464285714286,344.52228681250006L613,344.8763304375"></path></g><g class="fg-line postvax-hospitalizations_l2 line_s2" stroke="#dc4567" stroke-width="2px" fill="none"><path d="M50,191.16925865624998L60.05357142857142,183.558842125L70.10714285714286,171.60078928124997L80.16071428571428,159.30976946875L90.21428571428572,148.39194615625001L100.26785714285714,138.767711L110.32142857142858,130.96553674999998L120.375,127.25128359374997L130.42857142857144,121.58191534375L140.48214285714286,114.64284278124998L150.53571428571428,104.47539571875002L160.58928571428572,96.60158009375002L170.64285714285714,90.64190884374999L180.69642857142858,83.71772696874996L190.75,76.72461949999999L200.80357142857142,76.99106587500005L210.85714285714286,70.79477146874999L220.91071428571428,66.71478037499998L230.96428571428572,66.45115987500003L241.01785714285714,64.12152128125L251.07142857142858,59.18476396874999L261.125,60.34534668750004L271.17857142857144,56.96674337499998L281.23214285714283,59.44241178125L291.2857142857143,62.08066956249998L301.3392857142857,62.742127031250014L311.39285714285717,63.84633728124997L321.44642857142856,61.74809381250001L331.5,64.41609396874996L341.55357142857144,69.53701415625002L351.60714285714283,72.82381878124998L361.6607142857143,79.7796105625L371.7142857142857,82.6073981875L381.76785714285717,87.94591115624999L391.82142857142856,100.38259556250001L401.875,102.96764759375L411.92857142857144,106.86078806249999L421.98214285714283,111.27833187499999L432.0357142857143,114.73344262500001L442.0892857142857,118.66933724999998L452.14285714285717,123.86557659375L462.19642857142856,127.22688828124998L472.25,133.56414249999997L482.30357142857144,137.93761021875L492.35714285714283,150.48481696875L502.4107142857143,155.48647637500002L512.4642857142857,164.67574575000003L522.5178571428572,174.01331953125L532.5714285714286,181.266544L542.625,188.7600795625L552.6785714285714,195.58127503125002L562.7321428571428,199.56237390625003L572.7857142857143,210.23107334375L582.8392857142857,218.40254834375L592.8928571428572,225.6925595625L602.9464285714286,233.93975265625L613,241.9162914375"></path></g><g class="left-y-axis"><g class="y-tick"><line style="stroke-width: 0.5px; stroke:black; opacity:0.15;" x1="613" y1="355" x2="50" y2="355"></line><text style="font-family:sans-serif; font-weight:300; font-size: 0.85rem; fill:black;text-anchor: end; dominant-baseline:middle;" x="40" y="355">0</text></g><g class="y-tick"><line style="stroke-width: 0.5px; stroke:black; opacity:0.15;" x1="613" y1="273.75" x2="50" y2="273.75"></line><text style="font-family:sans-serif; font-weight:300; font-size: 0.85rem; fill:black;text-anchor: end; dominant-baseline:middle;" x="40" y="273.75">20</text></g><g class="y-tick"><line style="stroke-width: 0.5px; stroke:black; opacity:0.15;" x1="613" y1="192.5" x2="50" y2="192.5"></line><text style="font-family:sans-serif; font-weight:300; font-size: 0.85rem; fill:black;text-anchor: end; dominant-baseline:middle;" x="40" y="192.5">40</text></g><g class="y-tick"><line style="stroke-width: 0.5px; stroke:black; opacity:0.15;" x1="613" y1="111.25" x2="50" y2="111.25"></line><text style="font-family:sans-serif; font-weight:300; font-size: 0.85rem; fill:black;text-anchor: end; dominant-baseline:middle;" x="40" y="111.25">60</text></g><g class="y-tick"><line style="stroke-width: 0.5px; stroke:black; opacity:0.15;" x1="613" y1="30" x2="50" y2="30"></line><text style="font-family:sans-serif; font-weight:300; font-size: 0.85rem; fill:black;text-anchor: end; dominant-baseline:middle;" x="40" y="30">80</text></g></g><g class="date-axis" style="stroke-width: 0.5px; stroke:black;"><g class="x-tick"><text style="font-family:sans-serif; font-weight:300; font-size: 0.85rem; fill:black;text-anchor: start; dominant-baseline:hanging;" x="50" y="372">7/24/2021</text></g><g class="x-tick"></g><g class="x-tick"></g><g class="x-tick"></g><g class="x-tick"></g><g class="x-tick"></g><g class="x-tick"></g><g class="x-tick"></g><g class="x-tick"></g><g class="x-tick"></g><g class="x-tick"></g><g class="x-tick"></g><g class="x-tick"></g><g class="x-tick"></g><g class="x-tick"></g><g class="x-tick"></g><g class="x-tick"></g><g class="x-tick"></g><g class="x-tick"></g><g class="x-tick"></g><g class="x-tick"></g><g class="x-tick"></g><g class="x-tick"></g><g class="x-tick"></g><g class="x-tick"></g><g class="x-tick"></g><g class="x-tick"></g><g class="x-tick"></g><g class="x-tick"></g><g class="x-tick"></g><g class="x-tick"></g><g class="x-tick"></g><g class="x-tick"></g><g class="x-tick"></g><g class="x-tick"></g><g class="x-tick"></g><g class="x-tick"></g><g class="x-tick"></g><g class="x-tick"></g><g class="x-tick"></g><g class="x-tick"></g><g class="x-tick"></g><g class="x-tick"></g><g class="x-tick"></g><g class="x-tick"></g><g class="x-tick"></g><g class="x-tick"></g><g class="x-tick"></g><g class="x-tick"></g><g class="x-tick"></g><g class="x-tick"></g><g class="x-tick"></g><g class="x-tick"></g><g class="x-tick"></g><g class="x-tick"></g><g class="x-tick"></g><g class="x-tick"><text style="font-family:sans-serif; font-weight:300; font-size: 0.85rem; fill:black;text-anchor: end; dominant-baseline:hanging;" x="613" y="372">9/18/2021</text></g></g></svg>