<svg about="DATA_PUBLISHED_DATE:2021-10-07,RENDER_DATE:2021-10-07" xmlns="http://www.w3.org/2000/svg" viewBox="0,0,615,400"><g transform="translate(0,0)" style="fill:#CCCCCC;"></g><g class="fg-line postvax-cases_l1 line_s1" stroke="#1f2574" stroke-width="2px" fill="none"><path d="M50,353.65255377L54.73109243697479,353.637366195L59.462184873949575,353.8082893175L64.19327731092437,353.72296124999997L68.92436974789916,353.689706145L73.65546218487395,353.6278762925L78.38655462184873,353.62096835250003L83.11764705882352,353.578090875L87.84873949579831,353.5484692375L92.5798319327731,353.4019552725L97.31092436974791,353.4667073625L102.0420168067227,353.463705825L106.77310924369749,353.46245883250003L111.50420168067227,353.4313233125L116.23529411764704,353.401109005L120.96638655462185,353.36575817L125.69747899159663,353.339342885L130.42857142857144,353.299256345L135.1596638655462,353.230098295L139.890756302521,353.19579399249994L144.6218487394958,353.1357045475L149.3529411764706,353.0956193725L154.08403361344537,352.9730371725L158.8151260504202,352.749979175L163.54621848739495,352.61281858L168.27731092436977,352.52999376L173.00840336134453,352.35831946499997L177.73949579831933,352.2007906325L182.4705882352941,352.050778725L187.2016806722689,351.893965575L191.9327731092437,351.60971687L196.66386554621852,351.27937494250006L201.39495798319325,350.895072615L206.12605042016807,350.5481052475L210.85714285714286,350.1597492275L215.58823529411765,349.8630847425L220.31932773109241,349.61806090500005L225.05042016806723,349.0984120675L229.781512605042,348.30116747L234.51260504201682,347.44318846500005L239.2436974789916,346.696083145L243.97478991596637,345.924499865L248.7058823529412,345.2381843L253.43697478991595,344.4711443575L258.16806722689074,343.332830265L262.89915966386553,342.304793645L267.6302521008404,341.34295539749996L272.3613445378151,340.08400315750004L277.0924369747899,338.93412702750004L281.8235294117647,337.998422745L286.5546218487395,337.0910470875L291.2857142857143,335.26648038249994L296.01680672268907,333.7946552875L300.74789915966386,331.754271585L305.47899159663865,330.56728659749996L310.2100840336135,329.5821256675L314.94117647058823,328.67600808500003L319.672268907563,327.74729075000005L324.4033613445378,326.2728448225L329.1344537815126,324.856032315L333.8655462184874,323.4378024175L338.5966386554622,321.8823041875L343.32773109243703,320.4362167525L348.05882352941177,319.50762301500004L352.7899159663865,318.518825335L357.5210084033613,317.4759508075L362.25210084033614,315.60065904500004L366.98319327731093,314.78436558000004L371.7142857142857,313.82745407249996L376.44537815126057,313.04315685750004L381.1764705882353,312.562869745L385.90756302521004,312.2363089975L390.63865546218483,311.49303289249997L395.3697478991597,311.28119175L400.10084033613447,311.21437409L404.83193277310926,310.92871966250004L409.56302521008405,310.99640812750005L414.29411764705884,311.13469124L419.02521008403363,311.7119758375L423.75630252100837,312.0748768825L428.4873949579832,312.8340227375L433.218487394958,313.0526246925L437.9495798319328,314.0312579L442.68067226890753,314.33513195750004L447.4117647058824,314.71027399750005L452.14285714285717,314.9082981225L456.8739495798319,315.48899262L461.6050420168067,315.9797401825L466.33613445378154,316.84470590750004L471.06722689075633,317.38654353500004L475.79831932773106,318.181780835L480.52941176470586,318.7538884425L485.2605042016807,319.43520658L489.99159663865544,320.35402178250007L494.7226890756302,321.27647435250003L499.4537815126051,321.576837175L504.1848739495798,322.27662984L508.9159663865546,322.6770363075L513.6470588235294,323.2318704575L518.3781512605042,323.7335335025L523.109243697479,326.05993631499996L527.8403361344538,325.92597385L532.5714285714286,326.61761054249996L537.3025210084033,326.77182899L542.0336134453781,327.3787359725L546.7647058823529,327.35060117750004L551.4957983193277,327.216726105L556.2268907563025,326.059647845L560.9579831932773,327.430201835L565.6890756302521,328.3070227475L570.420168067227,329.164396765L575.1512605042018,329.9440492425L579.8823529411765,330.54331755500004L584.6134453781511,331.08751165999996L589.344537815126,331.7166143225L594.0756302521008,332.5593667525L598.8067226890756,333.2931679375L603.5378151260504,334.1080692975L608.2689075630252,334.64416043750003L613,335.19175999"></path></g><g class="fg-line postvax-cases_l2 line_s2" stroke="#dc4567" stroke-width="2px" fill="none"><path d="M50,337.9640218525L54.73109243697479,337.96813651499997L59.462184873949575,339.33485774749994L64.19327731092437,338.75542665499995L68.92436974789916,338.30568847L73.65546218487395,338.0211185025L78.38655462184873,337.85878058000003L83.11764705882352,337.6728366725L87.84873949579831,337.64592247999997L92.5798319327731,336.3973063125L97.31092436974791,336.7012877825L102.0420168067227,337.064493775L106.77310924369749,337.32116479999996L111.50420168067227,337.23700592L116.23529411764704,337.13165535L120.96638655462185,336.844322655L125.69747899159663,336.3840701025L130.42857142857144,336.38237383L135.1596638655462,335.65817980750006L139.890756302521,335.045231465L144.6218487394958,334.78382489750004L149.3529411764706,334.47373336249996L154.08403361344537,334.27202861250004L158.8151260504202,333.540870035L163.54621848739495,332.65505877749996L168.27731092436977,332.2574722375L173.00840336134453,331.21285831L177.73949579831933,329.8037479775L182.4705882352941,328.6470746025L187.2016806722689,327.41961664999997L191.9327731092437,325.8553400075L196.66386554621852,324.02866688L201.39495798319325,321.41079571499995L206.12605042016807,318.90494594L210.85714285714286,316.75108500999994L215.58823529411765,314.7707141825L220.31932773109241,313.5690834275L225.05042016806723,310.86597383L229.781512605042,305.20834425500004L234.51260504201682,299.7506860425L239.2436974789916,295.1222124525L243.97478991596637,289.936380665L248.7058823529412,285.281906815L253.43697478991595,280.4972013375L258.16806722689074,272.3488600975L262.89915966386553,267.2132895275L267.6302521008404,261.73806824999997L272.3613445378151,255.0448030675L277.0924369747899,247.97876197500003L281.8235294117647,243.797103L286.5546218487395,238.8156629975L291.2857142857143,230.4959259225L296.01680672268907,221.0784377125L300.74789915966386,211.7893861875L305.47899159663865,203.8815806975L310.2100840336135,196.7712048275L314.94117647058823,189.789893445L319.672268907563,184.87147737749999L324.4033613445378,173.6781429525L329.1344537815126,164.15663300000003L333.8655462184874,153.811922L338.5966386554622,142.46799710250002L343.32773109243703,132.3321788775L348.05882352941177,126.89347563999999L352.7899159663865,120.61444590250002L357.5210084033613,112.3132075025L362.25210084033614,102.62777691000001L366.98319327731093,94.60683336250001L371.7142857142857,87.1312123525L376.44537815126057,80.4070734375L381.1764705882353,75.88972680499998L385.90756302521004,75.61237674499999L390.63865546218483,69.14389816999999L395.3697478991597,63.13904515999997L400.10084033613447,58.874041040000016L404.83193277310926,58.351648000000026L409.56302521008405,55.905847955000006L414.29411764705884,56.251545157500004L419.02521008403363,57.115553432500015L423.75630252100837,58.12513278250002L428.4873949579832,60.26547319249996L433.218487394958,62.88169605499999L437.9495798319328,63.594013309999994L442.68067226890753,64.32285103L447.4117647058824,66.42440662249999L452.14285714285717,69.68413068750002L456.8739495798319,72.19028944000002L461.6050420168067,77.80835059000002L466.33613445378154,81.40440233499999L471.06722689075633,86.84145473499999L475.79831932773106,93.9308432425L480.52941176470586,97.27229587L485.2605042016807,99.790162325L489.99159663865544,106.66749960999996L494.7226890756302,111.06583120999998L499.4537815126051,113.34179597250001L504.1848739495798,117.27016717249997L508.9159663865546,120.34551623500002L513.6470588235294,123.4281931375L518.3781512605042,127.34288047249998L523.109243697479,146.90785899000002L527.8403361344538,147.15164493500004L532.5714285714286,151.8588205575L537.3025210084033,153.10636796249997L542.0336134453781,153.80996397250001L546.7647058823529,155.2008245475L551.4957983193277,155.29098179L556.2268907563025,142.48776422L560.9579831932773,150.85117180499998L565.6890756302521,158.29348866750001L570.420168067227,165.55374651L575.1512605042018,171.9413354775L579.8823529411765,176.25125866L584.6134453781511,180.07414656L589.344537815126,187.46814638749998L594.0756302521008,193.3939088275L598.8067226890756,198.88588047500002L603.5378151260504,204.578580085L608.2689075630252,209.4260374075L613,213.7795210225"></path></g><g class="left-y-axis"><g class="y-tick"><line style="stroke-width: 0.5px; stroke:black; opacity:0.15;" x1="613" y1="355" x2="50" y2="355"></line><text style="font-family:sans-serif; font-weight:300; font-size: 0.85rem; fill:black;text-anchor: end; dominant-baseline:middle;" x="40" y="355">0</text></g><g class="y-tick"><line style="stroke-width: 0.5px; stroke:black; opacity:0.15;" x1="613" y1="290" x2="50" y2="290"></line><text style="font-family:sans-serif; font-weight:300; font-size: 0.85rem; fill:black;text-anchor: end; dominant-baseline:middle;" x="40" y="290">20</text></g><g class="y-tick"><line style="stroke-width: 0.5px; stroke:black; opacity:0.15;" x1="613" y1="225" x2="50" y2="225"></line><text style="font-family:sans-serif; font-weight:300; font-size: 0.85rem; fill:black;text-anchor: end; dominant-baseline:middle;" x="40" y="225">40</text></g><g class="y-tick"><line style="stroke-width: 0.5px; stroke:black; opacity:0.15;" x1="613" y1="160" x2="50" y2="160"></line><text style="font-family:sans-serif; font-weight:300; font-size: 0.85rem; fill:black;text-anchor: end; dominant-baseline:middle;" x="40" y="160">60</text></g><g class="y-tick"><line style="stroke-width: 0.5px; stroke:black; opacity:0.15;" x1="613" y1="94.99999999999999" x2="50" y2="94.99999999999999"></line><text style="font-family:sans-serif; font-weight:300; font-size: 0.85rem; fill:black;text-anchor: end; dominant-baseline:middle;" x="40" y="94.99999999999999">80</text></g><g class="y-tick"><line style="stroke-width: 0.5px; stroke:black; opacity:0.15;" x1="613" y1="30" x2="50" y2="30"></line><text style="font-family:sans-serif; font-weight:300; font-size: 0.85rem; fill:black;text-anchor: end; dominant-baseline:middle;" x="40" y="30">100</text></g></g><g class="date-axis" style="stroke-width: 0.5px; stroke:black;"><g class="x-tick"><text style="font-family:sans-serif; font-weight:300; font-size: 0.85rem; fill:black;text-anchor: start; dominant-baseline:hanging;" x="50" y="372">5/29/2021</text></g><g class="x-tick"></g><g class="x-tick"></g><g class="x-tick"></g><g class="x-tick"></g><g class="x-tick"></g><g class="x-tick"></g><g class="x-tick"></g><g class="x-tick"></g><g class="x-tick"></g><g class="x-tick"></g><g class="x-tick"></g><g class="x-tick"></g><g class="x-tick"></g><g class="x-tick"></g><g class="x-tick"></g><g class="x-tick"></g><g class="x-tick"></g><g class="x-tick"></g><g class="x-tick"></g><g class="x-tick"></g><g class="x-tick"></g><g class="x-tick"></g><g class="x-tick"></g><g class="x-tick"></g><g class="x-tick"></g><g class="x-tick"></g><g class="x-tick"></g><g class="x-tick"></g><g class="x-tick"></g><g class="x-tick"></g><g class="x-tick"></g><g class="x-tick"></g><g class="x-tick"></g><g class="x-tick"></g><g class="x-tick"></g><g class="x-tick"></g><g class="x-tick"></g><g class="x-tick"></g><g class="x-tick"></g><g class="x-tick"></g><g class="x-tick"></g><g class="x-tick"></g><g class="x-tick"></g><g class="x-tick"></g><g class="x-tick"></g><g class="x-tick"></g><g class="x-tick"></g><g class="x-tick"></g><g class="x-tick"></g><g class="x-tick"></g><g class="x-tick"></g><g class="x-tick"></g><g class="x-tick"></g><g class="x-tick"></g><g class="x-tick"></g><g class="x-tick"></g><g class="x-tick"></g><g class="x-tick"></g><g class="x-tick"></g><g class="x-tick"></g><g class="x-tick"></g><g class="x-tick"></g><g class="x-tick"></g><g class="x-tick"></g><g class="x-tick"></g><g class="x-tick"></g><g class="x-tick"></g><g class="x-tick"></g><g class="x-tick"></g><g class="x-tick"></g><g class="x-tick"></g><g class="x-tick"></g><g class="x-tick"></g><g class="x-tick"></g><g class="x-tick"></g><g class="x-tick"></g><g class="x-tick"></g><g class="x-tick"></g><g class="x-tick"></g><g class="x-tick"></g><g class="x-tick"></g><g class="x-tick"></g><g class="x-tick"></g><g class="x-tick"></g><g class="x-tick"></g><g class="x-tick"></g><g class="x-tick"></g><g class="x-tick"></g><g class="x-tick"></g><g class="x-tick"></g><g class="x-tick"></g><g class="x-tick"></g><g class="x-tick"></g><g class="x-tick"></g><g class="x-tick"></g><g class="x-tick"></g><g class="x-tick"></g><g class="x-tick"></g><g class="x-tick"></g><g class="x-tick"></g><g class="x-tick"></g><g class="x-tick"></g><g class="x-tick"></g><g class="x-tick"></g><g class="x-tick"></g><g class="x-tick"></g><g class="x-tick"></g><g class="x-tick"></g><g class="x-tick"></g><g class="x-tick"></g><g class="x-tick"></g><g class="x-tick"></g><g class="x-tick"></g><g class="x-tick"></g><g class="x-tick"></g><g class="x-tick"></g><g class="x-tick"></g><g class="x-tick"></g><g class="x-tick"><text style="font-family:sans-serif; font-weight:300; font-size: 0.85rem; fill:black;text-anchor: end; dominant-baseline:hanging;" x="613" y="372">9/25/2021</text></g></g></svg>