<svg meta="{&quot;DATA_PUBLISHED_DATE&quot;:&quot;2023-12-13&quot;,&quot;RENDER_DATE&quot;:&quot;2023-12-13&quot;,&quot;FIRST_DATE&quot;:&quot;2023-09-26&quot;,&quot;LAST_DATE&quot;:&quot;2023-11-20&quot;}" xmlns="http://www.w3.org/2000/svg" viewBox="0,0,200,100"><g transform="translate(0,0)"></g><g class="fg-bars death-date" fill="#00183f" stroke="none"><g><rect x="197" y="30.76923076923077" width="2" height="69.23076923076923" id="death-date-0"></rect></g><g><rect x="193.43636363636364" y="38.46153846153846" width="2" height="61.53846153846154" id="death-date-1"></rect></g><g><rect x="189.87272727272727" y="65.38461538461539" width="2" height="34.61538461538461" id="death-date-2"></rect></g><g><rect x="186.30909090909088" y="61.53846153846154" width="2" height="38.46153846153846" id="death-date-3"></rect></g><g><rect x="182.74545454545455" y="42.307692307692314" width="2" height="57.692307692307686" id="death-date-4"></rect></g><g><rect x="179.1818181818182" y="46.15384615384615" width="2" height="53.84615384615385" id="death-date-5"></rect></g><g><rect x="175.61818181818182" y="30.76923076923077" width="2" height="69.23076923076923" id="death-date-6"></rect></g><g><rect x="172.05454545454546" y="57.692307692307686" width="2" height="42.307692307692314" id="death-date-7"></rect></g><g><rect x="168.49090909090907" y="30.76923076923077" width="2" height="69.23076923076923" id="death-date-8"></rect></g><g><rect x="164.92727272727274" y="73.07692307692308" width="2" height="26.92307692307692" id="death-date-9"></rect></g><g><rect x="161.36363636363637" y="26.923076923076927" width="2" height="73.07692307692307" id="death-date-10"></rect></g><g><rect x="157.8" y="50" width="2" height="50" id="death-date-11"></rect></g><g><rect x="154.23636363636365" y="65.38461538461539" width="2" height="34.61538461538461" id="death-date-12"></rect></g><g><rect x="150.6727272727273" y="57.692307692307686" width="2" height="42.307692307692314" id="death-date-13"></rect></g><g><rect x="147.1090909090909" y="38.46153846153846" width="2" height="61.53846153846154" id="death-date-14"></rect></g><g><rect x="143.54545454545453" y="69.23076923076923" width="2" height="30.769230769230774" id="death-date-15"></rect></g><g><rect x="139.9818181818182" y="50" width="2" height="50" id="death-date-16"></rect></g><g><rect x="136.41818181818184" y="53.84615384615385" width="2" height="46.15384615384615" id="death-date-17"></rect></g><g><rect x="132.85454545454544" y="61.53846153846154" width="2" height="38.46153846153846" id="death-date-18"></rect></g><g><rect x="129.29090909090908" y="76.92307692307692" width="2" height="23.07692307692308" id="death-date-19"></rect></g><g><rect x="125.72727272727273" y="65.38461538461539" width="2" height="34.61538461538461" id="death-date-20"></rect></g><g><rect x="122.16363636363636" y="42.307692307692314" width="2" height="57.692307692307686" id="death-date-21"></rect></g><g><rect x="118.6" y="53.84615384615385" width="2" height="46.15384615384615" id="death-date-22"></rect></g><g><rect x="115.03636363636363" y="57.692307692307686" width="2" height="42.307692307692314" id="death-date-23"></rect></g><g><rect x="111.47272727272728" y="53.84615384615385" width="2" height="46.15384615384615" id="death-date-24"></rect></g><g><rect x="107.90909090909089" y="46.15384615384615" width="2" height="53.84615384615385" id="death-date-25"></rect></g><g><rect x="104.34545454545456" y="42.307692307692314" width="2" height="57.692307692307686" id="death-date-26"></rect></g><g><rect x="100.78181818181817" y="42.307692307692314" width="2" height="57.692307692307686" id="death-date-27"></rect></g><g><rect x="97.21818181818183" y="57.692307692307686" width="2" height="42.307692307692314" id="death-date-28"></rect></g><g><rect x="93.65454545454546" y="69.23076923076923" width="2" height="30.769230769230774" id="death-date-29"></rect></g><g><rect x="90.09090909090911" y="26.923076923076927" width="2" height="73.07692307692307" id="death-date-30"></rect></g><g><rect x="86.52727272727273" y="30.76923076923077" width="2" height="69.23076923076923" id="death-date-31"></rect></g><g><rect x="82.96363636363637" y="30.76923076923077" width="2" height="69.23076923076923" id="death-date-32"></rect></g><g><rect x="79.4" y="65.38461538461539" width="2" height="34.61538461538461" id="death-date-33"></rect></g><g><rect x="75.83636363636364" y="53.84615384615385" width="2" height="46.15384615384615" id="death-date-34"></rect></g><g><rect x="72.27272727272727" y="19.23076923076923" width="2" height="80.76923076923077" id="death-date-35"></rect></g><g><rect x="68.70909090909092" y="61.53846153846154" width="2" height="38.46153846153846" id="death-date-36"></rect></g><g><rect x="65.14545454545454" y="42.307692307692314" width="2" height="57.692307692307686" id="death-date-37"></rect></g><g><rect x="61.58181818181818" y="38.46153846153846" width="2" height="61.53846153846154" id="death-date-38"></rect></g><g><rect x="58.018181818181816" y="57.692307692307686" width="2" height="42.307692307692314" id="death-date-39"></rect></g><g><rect x="54.454545454545446" y="46.15384615384615" width="2" height="53.84615384615385" id="death-date-40"></rect></g><g><rect x="50.89090909090908" y="42.307692307692314" width="2" height="57.692307692307686" id="death-date-41"></rect></g><g><rect x="47.32727272727273" y="61.53846153846154" width="2" height="38.46153846153846" id="death-date-42"></rect></g><g><rect x="43.76363636363636" y="53.84615384615385" width="2" height="46.15384615384615" id="death-date-43"></rect></g><g><rect x="40.199999999999996" y="15.384615384615385" width="2" height="84.61538461538461" id="death-date-44"></rect></g><g><rect x="36.636363636363626" y="42.307692307692314" width="2" height="57.692307692307686" id="death-date-45"></rect></g><g><rect x="33.072727272727285" y="34.61538461538461" width="2" height="65.38461538461539" id="death-date-46"></rect></g><g><rect x="29.509090909090922" y="50" width="2" height="50" id="death-date-47"></rect></g><g><rect x="25.945454545454556" y="11.538461538461542" width="2" height="88.46153846153845" id="death-date-48"></rect></g><g><rect x="22.38181818181819" y="50" width="2" height="50" id="death-date-49"></rect></g><g><rect x="18.818181818181824" y="61.53846153846154" width="2" height="38.46153846153846" id="death-date-50"></rect></g><g><rect x="15.254545454545461" y="23.076923076923073" width="2" height="76.92307692307693" id="death-date-51"></rect></g><g><rect x="11.690909090909095" y="34.61538461538461" width="2" height="65.38461538461539" id="death-date-52"></rect></g><g><rect x="8.12727272727273" y="3.8461538461538436" width="2" height="96.15384615384616" id="death-date-53"></rect></g><g><rect x="4.563636363636365" y="30.76923076923077" width="2" height="69.23076923076923" id="death-date-54"></rect></g><g><rect x="1" y="0" width="2" height="100" id="death-date-55"></rect></g></g><g class="fg-line death-date" fill="none" stroke="#92c5de" stroke-width="2" stroke-linecap="round"><path d="M198,45.05494505494505L194.43636363636364,48.90109890109889L190.87272727272727,47.802197802197796L187.30909090909088,48.90109890109889L183.74545454545455,43.956043956043956L180.1818181818182,45.05494505494505L176.61818181818182,47.802197802197796L173.05454545454546,51.64835164835164L169.49090909090907,48.90109890109889L165.92727272727274,54.395604395604394L162.36363636363637,51.098901098901095L158.8,54.94505494505495L155.23636363636365,56.59340659340659L151.6727272727273,58.241758241758234L148.1090909090909,59.34065934065934L144.54545454545453,59.89010989010989L140.9818181818182,57.692307692307686L137.41818181818184,58.791208791208796L133.85454545454544,58.791208791208796L130.29090909090908,56.59340659340659L126.72727272727273,51.64835164835164L123.16363636363636,48.35164835164834L119.6,50.54945054945055L116.03636363636363,52.74725274725274L112.47272727272728,48.35164835164834L108.90909090909089,45.05494505494505L105.34545454545456,42.85714285714286L101.78181818181817,46.15384615384615L98.21818181818183,47.802197802197796L94.65454545454546,42.307692307692314L91.09090909090911,41.208791208791204L87.52727272727273,43.40659340659341L83.96363636363637,44.505494505494504L80.4,48.35164835164834L76.83636363636364,45.604395604395606L73.27272727272727,43.956043956043956L69.70909090909092,50L66.14545454545454,48.90109890109889L62.58181818181818,45.05494505494505L59.018181818181816,45.604395604395606L55.454545454545446,42.307692307692314L51.89090909090908,42.85714285714286L48.32727272727273,38.46153846153846L44.76363636363636,36.81318681318682L41.199999999999996,37.91208791208791L37.636363636363626,39.01098901098901L34.072727272727285,37.91208791208791L30.509090909090922,33.51648351648352L26.945454545454556,30.76923076923077L23.38181818181819,29.120879120879128L19.818181818181824,24.725274725274716L16.25454545454546,23.076923076923073L12.690909090909095,24.175824175824168L9.12727272727273,24.725274725274716L5.563636363636365,26.923076923076927L2,24.725274725274716"></path></g></svg>