<svg meta="{&quot;DATA_PUBLISHED_DATE&quot;:&quot;2023-12-06&quot;,&quot;RENDER_DATE&quot;:&quot;2023-12-06&quot;,&quot;FIRST_DATE&quot;:&quot;2023-10-08&quot;,&quot;LAST_DATE&quot;:&quot;2023-12-02&quot;}" xmlns="http://www.w3.org/2000/svg" viewBox="0,0,200,100"><g transform="translate(0,0)"></g><g class="fg-bars admissions-count" fill="#00183f" stroke="none"><g><rect x="197" y="5.75" width="2" height="94.25" id="admissions-count-0"></rect></g><g><rect x="193.43636363636364" y="13.249999999999995" width="2" height="86.75" id="admissions-count-1"></rect></g><g><rect x="189.87272727272727" y="8.499999999999996" width="2" height="91.5" id="admissions-count-2"></rect></g><g><rect x="186.30909090909088" y="10.999999999999998" width="2" height="89" id="admissions-count-3"></rect></g><g><rect x="182.74545454545455" y="7.499999999999996" width="2" height="92.5" id="admissions-count-4"></rect></g><g><rect x="179.1818181818182" y="8.999999999999996" width="2" height="91" id="admissions-count-5"></rect></g><g><rect x="175.61818181818182" y="15.000000000000002" width="2" height="85" id="admissions-count-6"></rect></g><g><rect x="172.05454545454546" y="6.999999999999995" width="2" height="93" id="admissions-count-7"></rect></g><g><rect x="168.49090909090907" y="18.500000000000007" width="2" height="81.5" id="admissions-count-8"></rect></g><g><rect x="164.92727272727274" y="12.5" width="2" height="87.5" id="admissions-count-9"></rect></g><g><rect x="161.36363636363637" y="33.25" width="2" height="66.75" id="admissions-count-10"></rect></g><g><rect x="157.8" y="47" width="2" height="53" id="admissions-count-11"></rect></g><g><rect x="154.23636363636365" y="12.5" width="2" height="87.5" id="admissions-count-12"></rect></g><g><rect x="150.6727272727273" y="32.75" width="2" height="67.25" id="admissions-count-13"></rect></g><g><rect x="147.1090909090909" y="26" width="2" height="74" id="admissions-count-14"></rect></g><g><rect x="143.54545454545453" y="27" width="2" height="73" id="admissions-count-15"></rect></g><g><rect x="139.9818181818182" y="28.749999999999996" width="2" height="71.25" id="admissions-count-16"></rect></g><g><rect x="136.41818181818184" y="21.750000000000004" width="2" height="78.25" id="admissions-count-17"></rect></g><g><rect x="132.85454545454544" y="25" width="2" height="75" id="admissions-count-18"></rect></g><g><rect x="129.29090909090908" y="39.24999999999999" width="2" height="60.75000000000001" id="admissions-count-19"></rect></g><g><rect x="125.72727272727273" y="30.000000000000004" width="2" height="70" id="admissions-count-20"></rect></g><g><rect x="122.16363636363636" y="30.25" width="2" height="69.75" id="admissions-count-21"></rect></g><g><rect x="118.6" y="28.249999999999996" width="2" height="71.75" id="admissions-count-22"></rect></g><g><rect x="115.03636363636363" y="37.74999999999999" width="2" height="62.25000000000001" id="admissions-count-23"></rect></g><g><rect x="111.47272727272728" y="39.5" width="2" height="60.5" id="admissions-count-24"></rect></g><g><rect x="107.90909090909089" y="37.5" width="2" height="62.5" id="admissions-count-25"></rect></g><g><rect x="104.34545454545456" y="44.99999999999999" width="2" height="55.00000000000001" id="admissions-count-26"></rect></g><g><rect x="100.78181818181817" y="38.74999999999999" width="2" height="61.25000000000001" id="admissions-count-27"></rect></g><g><rect x="97.21818181818183" y="35.75000000000001" width="2" height="64.25" id="admissions-count-28"></rect></g><g><rect x="93.65454545454546" y="39.5" width="2" height="60.5" id="admissions-count-29"></rect></g><g><rect x="90.09090909090911" y="37.74999999999999" width="2" height="62.25000000000001" id="admissions-count-30"></rect></g><g><rect x="86.52727272727273" y="38.74999999999999" width="2" height="61.25000000000001" id="admissions-count-31"></rect></g><g><rect x="82.96363636363637" y="39" width="2" height="61" id="admissions-count-32"></rect></g><g><rect x="79.4" y="44.25" width="2" height="55.75" id="admissions-count-33"></rect></g><g><rect x="75.83636363636364" y="52.25" width="2" height="47.75" id="admissions-count-34"></rect></g><g><rect x="72.27272727272727" y="42.50000000000001" width="2" height="57.49999999999999" id="admissions-count-35"></rect></g><g><rect x="68.70909090909092" y="50.5" width="2" height="49.5" id="admissions-count-36"></rect></g><g><rect x="65.14545454545454" y="44.75" width="2" height="55.25" id="admissions-count-37"></rect></g><g><rect x="61.58181818181818" y="47" width="2" height="53" id="admissions-count-38"></rect></g><g><rect x="58.018181818181816" y="42.25" width="2" height="57.75" id="admissions-count-39"></rect></g><g><rect x="54.454545454545446" y="40.25" width="2" height="59.75" id="admissions-count-40"></rect></g><g><rect x="50.89090909090908" y="36.75000000000001" width="2" height="63.24999999999999" id="admissions-count-41"></rect></g><g><rect x="47.32727272727273" y="32.49999999999999" width="2" height="67.5" id="admissions-count-42"></rect></g><g><rect x="43.76363636363636" y="25.749999999999996" width="2" height="74.25" id="admissions-count-43"></rect></g><g><rect x="40.199999999999996" y="34.25" width="2" height="65.75" id="admissions-count-44"></rect></g><g><rect x="36.636363636363626" y="22.250000000000004" width="2" height="77.75" id="admissions-count-45"></rect></g><g><rect x="33.072727272727285" y="32.25" width="2" height="67.75" id="admissions-count-46"></rect></g><g><rect x="29.509090909090922" y="34.25" width="2" height="65.75" id="admissions-count-47"></rect></g><g><rect x="25.945454545454556" y="40.75" width="2" height="59.25" id="admissions-count-48"></rect></g><g><rect x="22.38181818181819" y="39.24999999999999" width="2" height="60.75000000000001" id="admissions-count-49"></rect></g><g><rect x="18.818181818181824" y="39" width="2" height="61" id="admissions-count-50"></rect></g><g><rect x="15.254545454545461" y="29.25" width="2" height="70.75" id="admissions-count-51"></rect></g><g><rect x="11.690909090909095" y="36.25000000000001" width="2" height="63.74999999999999" id="admissions-count-52"></rect></g><g><rect x="8.12727272727273" y="33.5" width="2" height="66.5" id="admissions-count-53"></rect></g><g><rect x="4.563636363636365" y="45.49999999999999" width="2" height="54.50000000000001" id="admissions-count-54"></rect></g><g><rect x="1" y="27.500000000000004" width="2" height="72.5" id="admissions-count-55"></rect></g></g><g class="fg-line admissions-count" fill="none" stroke="#92c5de" stroke-width="2" stroke-linecap="round"><path d="M198,9.999999999999998L194.43636363636364,10.178571428571425L190.87272727272727,10.928571428571432L187.30909090909088,11.5L183.74545454545455,14.67857142857143L180.1818181818182,20.32142857142857L176.61818181818182,20.82142857142857L173.05454545454546,23.357142857142865L169.49090909090907,26.07142857142857L165.92727272727274,27.285714285714292L162.36363636363637,29.607142857142865L158.8,27.964285714285708L155.23636363636365,24.821428571428573L151.6727272727273,28.642857142857135L148.1090909090909,28.249999999999996L144.54545454545453,28.857142857142858L140.9818181818182,29.03571428571429L137.41818181818184,30.321428571428566L133.85454545454544,32.85714285714286L130.29090909090908,34.64285714285714L126.72727272727273,35.4642857142857L123.16363636363636,36.71428571428571L119.6,37.5L116.03636363636363,39.107142857142854L112.47272727272728,39.107142857142854L108.90909090909089,39L105.34545454545456,39.214285714285715L101.78181818181817,39.107142857142854L98.21818181818183,41.035714285714285L94.65454545454546,42.00000000000001L91.09090909090911,43.57142857142857L87.52727272727273,44.57142857142857L83.96363636363637,45.75L80.4,46.21428571428572L76.83636363636364,45.64285714285714L73.27272727272727,43.42857142857143L69.70909090909092,42.00000000000001L66.14545454545454,38.464285714285715L62.58181818181818,36.964285714285715L59.018181818181816,33.42857142857143L55.454545454545446,31.999999999999996L51.89090909090908,31.14285714285714L48.32727272727273,31.714285714285705L44.76363636363636,32.67857142857144L41.199999999999996,34.57142857142856L37.636363636363626,33.85714285714286L34.072727272727285,35.85714285714287L30.509090909090922,36.035714285714285L26.945454545454556,37.642857142857146L23.38181818181819,35.75000000000001L19.818181818181824,35L16.25454545454546,31.892857142857135L12.690909090909095,31.64285714285714L9.12727272727273,30.96428571428571L5.563636363636365,28.07142857142857L2,27.857142857142858"></path></g></svg>