<svg meta="{&quot;DATA_PUBLISHED_DATE&quot;:&quot;2023-08-31&quot;,&quot;RENDER_DATE&quot;:&quot;2023-08-31&quot;,&quot;FIRST_DATE&quot;:&quot;2023-07-02&quot;,&quot;LAST_DATE&quot;:&quot;2023-08-26&quot;}" xmlns="http://www.w3.org/2000/svg" viewBox="0,0,200,100"><g transform="translate(0,0)"></g><g class="fg-bars hospitalizations-count" fill="#00183f" stroke="none"><g><rect x="197" y="7.333333333333336" width="2" height="92.66666666666666" id="hospitalizations-count-0"></rect></g><g><rect x="193.43636363636364" y="4.722222222222228" width="2" height="95.27777777777777" id="hospitalizations-count-1"></rect></g><g><rect x="189.87272727272727" y="6.499999999999995" width="2" height="93.5" id="hospitalizations-count-2"></rect></g><g><rect x="186.30909090909088" y="6.166666666666664" width="2" height="93.83333333333334" id="hospitalizations-count-3"></rect></g><g><rect x="182.74545454545455" y="9.222222222222221" width="2" height="90.77777777777777" id="hospitalizations-count-4"></rect></g><g><rect x="179.1818181818182" y="11.111111111111116" width="2" height="88.88888888888889" id="hospitalizations-count-5"></rect></g><g><rect x="175.61818181818182" y="13.611111111111107" width="2" height="86.38888888888889" id="hospitalizations-count-6"></rect></g><g><rect x="172.05454545454546" y="17.44444444444444" width="2" height="82.55555555555556" id="hospitalizations-count-7"></rect></g><g><rect x="168.49090909090907" y="16.61111111111111" width="2" height="83.38888888888889" id="hospitalizations-count-8"></rect></g><g><rect x="164.92727272727274" y="16.22222222222223" width="2" height="83.77777777777777" id="hospitalizations-count-9"></rect></g><g><rect x="161.36363636363637" y="18.944444444444443" width="2" height="81.05555555555556" id="hospitalizations-count-10"></rect></g><g><rect x="157.8" y="19.499999999999996" width="2" height="80.5" id="hospitalizations-count-11"></rect></g><g><rect x="154.23636363636365" y="22.111111111111114" width="2" height="77.88888888888889" id="hospitalizations-count-12"></rect></g><g><rect x="150.6727272727273" y="24.83333333333333" width="2" height="75.16666666666667" id="hospitalizations-count-13"></rect></g><g><rect x="147.1090909090909" y="27.77777777777778" width="2" height="72.22222222222223" id="hospitalizations-count-14"></rect></g><g><rect x="143.54545454545453" y="29.72222222222223" width="2" height="70.27777777777777" id="hospitalizations-count-15"></rect></g><g><rect x="139.9818181818182" y="30.000000000000004" width="2" height="70" id="hospitalizations-count-16"></rect></g><g><rect x="136.41818181818184" y="30.166666666666664" width="2" height="69.83333333333334" id="hospitalizations-count-17"></rect></g><g><rect x="132.85454545454544" y="36.94444444444444" width="2" height="63.05555555555556" id="hospitalizations-count-18"></rect></g><g><rect x="129.29090909090908" y="34" width="2" height="66" id="hospitalizations-count-19"></rect></g><g><rect x="125.72727272727273" y="35.22222222222222" width="2" height="64.77777777777777" id="hospitalizations-count-20"></rect></g><g><rect x="122.16363636363636" y="39.33333333333333" width="2" height="60.66666666666667" id="hospitalizations-count-21"></rect></g><g><rect x="118.6" y="39.388888888888886" width="2" height="60.611111111111114" id="hospitalizations-count-22"></rect></g><g><rect x="115.03636363636363" y="38.16666666666667" width="2" height="61.83333333333333" id="hospitalizations-count-23"></rect></g><g><rect x="111.47272727272728" y="38.11111111111111" width="2" height="61.88888888888889" id="hospitalizations-count-24"></rect></g><g><rect x="107.90909090909089" y="40" width="2" height="60" id="hospitalizations-count-25"></rect></g><g><rect x="104.34545454545456" y="42.00000000000001" width="2" height="57.99999999999999" id="hospitalizations-count-26"></rect></g><g><rect x="100.78181818181817" y="43.388888888888886" width="2" height="56.611111111111114" id="hospitalizations-count-27"></rect></g><g><rect x="97.21818181818183" y="46.44444444444444" width="2" height="53.55555555555556" id="hospitalizations-count-28"></rect></g><g><rect x="93.65454545454546" y="45.72222222222222" width="2" height="54.27777777777778" id="hospitalizations-count-29"></rect></g><g><rect x="90.09090909090911" y="48.22222222222222" width="2" height="51.77777777777778" id="hospitalizations-count-30"></rect></g><g><rect x="86.52727272727273" y="52.16666666666667" width="2" height="47.83333333333333" id="hospitalizations-count-31"></rect></g><g><rect x="82.96363636363637" y="48.72222222222222" width="2" height="51.27777777777778" id="hospitalizations-count-32"></rect></g><g><rect x="79.4" y="51.33333333333333" width="2" height="48.66666666666667" id="hospitalizations-count-33"></rect></g><g><rect x="75.83636363636364" y="50.27777777777778" width="2" height="49.72222222222222" id="hospitalizations-count-34"></rect></g><g><rect x="72.27272727272727" y="51.944444444444436" width="2" height="48.055555555555564" id="hospitalizations-count-35"></rect></g><g><rect x="68.70909090909092" y="51.61111111111112" width="2" height="48.38888888888888" id="hospitalizations-count-36"></rect></g><g><rect x="65.14545454545454" y="52.27777777777778" width="2" height="47.72222222222222" id="hospitalizations-count-37"></rect></g><g><rect x="61.58181818181818" y="51.5" width="2" height="48.5" id="hospitalizations-count-38"></rect></g><g><rect x="58.018181818181816" y="50" width="2" height="50" id="hospitalizations-count-39"></rect></g><g><rect x="54.454545454545446" y="51.11111111111111" width="2" height="48.88888888888889" id="hospitalizations-count-40"></rect></g><g><rect x="50.89090909090908" y="50.944444444444436" width="2" height="49.055555555555564" id="hospitalizations-count-41"></rect></g><g><rect x="47.32727272727273" y="52.666666666666664" width="2" height="47.333333333333336" id="hospitalizations-count-42"></rect></g><g><rect x="43.76363636363636" y="52.388888888888886" width="2" height="47.611111111111114" id="hospitalizations-count-43"></rect></g><g><rect x="40.199999999999996" y="54.16666666666667" width="2" height="45.83333333333333" id="hospitalizations-count-44"></rect></g><g><rect x="36.636363636363626" y="49.05555555555555" width="2" height="50.94444444444445" id="hospitalizations-count-45"></rect></g><g><rect x="33.072727272727285" y="49.27777777777778" width="2" height="50.72222222222222" id="hospitalizations-count-46"></rect></g><g><rect x="29.509090909090922" y="52.77777777777778" width="2" height="47.22222222222222" id="hospitalizations-count-47"></rect></g><g><rect x="25.945454545454556" y="52.72222222222223" width="2" height="47.27777777777777" id="hospitalizations-count-48"></rect></g><g><rect x="22.38181818181819" y="54.94444444444444" width="2" height="45.05555555555556" id="hospitalizations-count-49"></rect></g><g><rect x="18.818181818181824" y="54.666666666666664" width="2" height="45.333333333333336" id="hospitalizations-count-50"></rect></g><g><rect x="15.254545454545461" y="54.77777777777777" width="2" height="45.22222222222223" id="hospitalizations-count-51"></rect></g><g><rect x="11.690909090909095" y="53.55555555555556" width="2" height="46.44444444444444" id="hospitalizations-count-52"></rect></g><g><rect x="8.12727272727273" y="62.16666666666666" width="2" height="37.83333333333334" id="hospitalizations-count-53"></rect></g><g><rect x="4.563636363636365" y="64.05555555555556" width="2" height="35.94444444444444" id="hospitalizations-count-54"></rect></g><g><rect x="1" y="68" width="2" height="32" id="hospitalizations-count-55"></rect></g></g><g class="fg-line hospitalizations-count" fill="none" stroke="#92c5de" stroke-width="2" stroke-linecap="round"><path d="M198,8.380952380952378L194.43636363636364,9.825396825396826L190.87272727272727,11.523809523809515L187.30909090909088,12.91269841269841L183.74545454545455,14.738095238095239L180.1818181818182,16.206349206349213L176.61818181818182,17.777777777777782L173.05454545454546,19.380952380952387L169.49090909090907,20.85714285714285L165.92727272727274,22.730158730158735L162.36363636363637,24.69841269841271L158.8,26.301587301587293L155.23636363636365,28.793650793650794L151.6727272727273,30.492063492063494L148.1090909090909,31.97619047619048L144.54545454545453,33.62698412698413L140.9818181818182,35.00793650793651L137.41818181818184,36.17460317460317L133.85454545454544,37.30952380952382L130.29090909090908,37.74603174603174L126.72727272727273,38.888888888888886L123.16363636363636,40.05555555555556L119.6,41.07142857142857L116.03636363636363,41.97619047619048L112.47272727272728,43.41269841269841L108.90909090909089,45.42063492063492L105.34545454545456,46.666666666666664L101.78181818181817,48L98.21818181818183,48.98412698412699L94.65454545454546,49.76984126984127L91.09090909090911,50.611111111111114L87.52727272727273,51.19047619047619L83.96363636363637,51.095238095238095L80.4,51.27777777777778L76.83636363636364,51.24603174603175L73.27272727272727,51.341269841269835L69.70909090909092,51.44444444444445L66.14545454545454,51.55555555555556L62.58181818181818,51.82539682539682L59.018181818181816,51.476190476190474L55.454545454545446,51.37301587301587L51.89090909090908,51.61111111111112L48.32727272727273,51.86507936507936L44.76363636363636,52.19047619047619L41.199999999999996,52.51587301587301L37.636363636363626,52.60317460317461L34.072727272727285,53.246031746031754L30.509090909090922,55.08730158730158L26.945454545454556,56.698412698412696L23.38181818181819,58.88095238095239L19.818181818181824,59.38888888888889L16.25454545454546,59.904761904761905L12.690909090909095,59.96825396825397L9.12727272727273,60.17460317460317L5.563636363636365,59.38888888888889L2,58.23809523809524"></path></g></svg>