<svg meta="{&quot;DATA_PUBLISHED_DATE&quot;:&quot;2023-10-04&quot;,&quot;RENDER_DATE&quot;:&quot;2023-10-04&quot;,&quot;FIRST_DATE&quot;:&quot;2023-08-06&quot;,&quot;LAST_DATE&quot;:&quot;2023-09-30&quot;}" xmlns="http://www.w3.org/2000/svg" viewBox="0,0,200,100"><g transform="translate(0,0)"></g><g class="fg-bars admissions-count" fill="#00183f" stroke="none"><g><rect x="197" y="41.800000000000004" width="2" height="58.199999999999996" id="admissions-count-0"></rect></g><g><rect x="193.43636363636364" y="41.6" width="2" height="58.4" id="admissions-count-1"></rect></g><g><rect x="189.87272727272727" y="40.2" width="2" height="59.8" id="admissions-count-2"></rect></g><g><rect x="186.30909090909088" y="28.200000000000003" width="2" height="71.8" id="admissions-count-3"></rect></g><g><rect x="182.74545454545455" y="34.599999999999994" width="2" height="65.4" id="admissions-count-4"></rect></g><g><rect x="179.1818181818182" y="33.599999999999994" width="2" height="66.4" id="admissions-count-5"></rect></g><g><rect x="175.61818181818182" y="41" width="2" height="59" id="admissions-count-6"></rect></g><g><rect x="172.05454545454546" y="34.599999999999994" width="2" height="65.4" id="admissions-count-7"></rect></g><g><rect x="168.49090909090907" y="25.4" width="2" height="74.6" id="admissions-count-8"></rect></g><g><rect x="164.92727272727274" y="32.199999999999996" width="2" height="67.80000000000001" id="admissions-count-9"></rect></g><g><rect x="161.36363636363637" y="26.400000000000002" width="2" height="73.6" id="admissions-count-10"></rect></g><g><rect x="157.8" y="20.799999999999997" width="2" height="79.2" id="admissions-count-11"></rect></g><g><rect x="154.23636363636365" y="28.200000000000003" width="2" height="71.8" id="admissions-count-12"></rect></g><g><rect x="150.6727272727273" y="23.4" width="2" height="76.6" id="admissions-count-13"></rect></g><g><rect x="147.1090909090909" y="31.599999999999994" width="2" height="68.4" id="admissions-count-14"></rect></g><g><rect x="143.54545454545453" y="20.399999999999995" width="2" height="79.60000000000001" id="admissions-count-15"></rect></g><g><rect x="139.9818181818182" y="17.200000000000003" width="2" height="82.8" id="admissions-count-16"></rect></g><g><rect x="136.41818181818184" y="15.800000000000002" width="2" height="84.2" id="admissions-count-17"></rect></g><g><rect x="132.85454545454544" y="18.000000000000004" width="2" height="82" id="admissions-count-18"></rect></g><g><rect x="129.29090909090908" y="32.599999999999994" width="2" height="67.4" id="admissions-count-19"></rect></g><g><rect x="125.72727272727273" y="26.200000000000003" width="2" height="73.8" id="admissions-count-20"></rect></g><g><rect x="122.16363636363636" y="16.800000000000004" width="2" height="83.19999999999999" id="admissions-count-21"></rect></g><g><rect x="118.6" y="20.999999999999996" width="2" height="79" id="admissions-count-22"></rect></g><g><rect x="115.03636363636363" y="10.399999999999999" width="2" height="89.6" id="admissions-count-23"></rect></g><g><rect x="111.47272727272728" y="10.799999999999999" width="2" height="89.2" id="admissions-count-24"></rect></g><g><rect x="107.90909090909089" y="26.6" width="2" height="73.4" id="admissions-count-25"></rect></g><g><rect x="104.34545454545456" y="27.800000000000004" width="2" height="72.19999999999999" id="admissions-count-26"></rect></g><g><rect x="100.78181818181817" y="17.200000000000003" width="2" height="82.8" id="admissions-count-27"></rect></g><g><rect x="97.21818181818183" y="22.199999999999996" width="2" height="77.80000000000001" id="admissions-count-28"></rect></g><g><rect x="93.65454545454546" y="20.999999999999996" width="2" height="79" id="admissions-count-29"></rect></g><g><rect x="90.09090909090911" y="14.800000000000002" width="2" height="85.2" id="admissions-count-30"></rect></g><g><rect x="86.52727272727273" y="9.399999999999997" width="2" height="90.60000000000001" id="admissions-count-31"></rect></g><g><rect x="82.96363636363637" y="13.600000000000001" width="2" height="86.4" id="admissions-count-32"></rect></g><g><rect x="79.4" y="31.200000000000006" width="2" height="68.8" id="admissions-count-33"></rect></g><g><rect x="75.83636363636364" y="29.000000000000004" width="2" height="71" id="admissions-count-34"></rect></g><g><rect x="72.27272727272727" y="22.599999999999998" width="2" height="77.4" id="admissions-count-35"></rect></g><g><rect x="68.70909090909092" y="12.8" width="2" height="87.2" id="admissions-count-36"></rect></g><g><rect x="65.14545454545454" y="22.4" width="2" height="77.6" id="admissions-count-37"></rect></g><g><rect x="61.58181818181818" y="20.999999999999996" width="2" height="79" id="admissions-count-38"></rect></g><g><rect x="58.018181818181816" y="19.399999999999995" width="2" height="80.60000000000001" id="admissions-count-39"></rect></g><g><rect x="54.454545454545446" y="38.6" width="2" height="61.4" id="admissions-count-40"></rect></g><g><rect x="50.89090909090908" y="32.8" width="2" height="67.2" id="admissions-count-41"></rect></g><g><rect x="47.32727272727273" y="35.4" width="2" height="64.6" id="admissions-count-42"></rect></g><g><rect x="43.76363636363636" y="33.4" width="2" height="66.6" id="admissions-count-43"></rect></g><g><rect x="40.199999999999996" y="28.6" width="2" height="71.4" id="admissions-count-44"></rect></g><g><rect x="36.636363636363626" y="24.2" width="2" height="75.8" id="admissions-count-45"></rect></g><g><rect x="33.072727272727285" y="25.8" width="2" height="74.2" id="admissions-count-46"></rect></g><g><rect x="29.509090909090922" y="33.8" width="2" height="66.2" id="admissions-count-47"></rect></g><g><rect x="25.945454545454556" y="41.2" width="2" height="58.8" id="admissions-count-48"></rect></g><g><rect x="22.38181818181819" y="25.8" width="2" height="74.2" id="admissions-count-49"></rect></g><g><rect x="18.818181818181824" y="45.599999999999994" width="2" height="54.400000000000006" id="admissions-count-50"></rect></g><g><rect x="15.254545454545461" y="42.400000000000006" width="2" height="57.599999999999994" id="admissions-count-51"></rect></g><g><rect x="11.690909090909095" y="37.6" width="2" height="62.4" id="admissions-count-52"></rect></g><g><rect x="8.12727272727273" y="50" width="2" height="50" id="admissions-count-53"></rect></g><g><rect x="4.563636363636365" y="48.199999999999996" width="2" height="51.800000000000004" id="admissions-count-54"></rect></g><g><rect x="1" y="44.8" width="2" height="55.2" id="admissions-count-55"></rect></g></g><g class="fg-line admissions-count" fill="none" stroke="#92c5de" stroke-width="2" stroke-linecap="round"><path d="M198,37.28571428571429L194.43636363636364,36.25714285714285L190.87272727272727,33.94285714285714L187.30909090909088,32.8L183.74545454545455,32.54285714285714L180.1818181818182,30.571428571428573L176.61818181818182,29.800000000000004L173.05454545454546,27.285714285714292L169.49090909090907,26.857142857142858L165.92727272727274,26.142857142857146L162.36363636363637,24L158.8,22.485714285714288L155.23636363636365,22.085714285714285L151.6727272727273,22.714285714285708L148.1090909090909,23.11428571428571L144.54545454545453,20.999999999999996L140.9818181818182,21.085714285714285L137.41818181818184,20.114285714285707L133.85454545454544,19.399999999999995L130.29090909090908,20.62857142857143L126.72727272727273,19.94285714285714L123.16363636363636,18.657142857142862L119.6,19.428571428571427L116.03636363636363,19.428571428571427L112.47272727272728,20.05714285714285L108.90909090909089,19.85714285714285L105.34545454545456,18.000000000000004L101.78181818181817,18.485714285714295L98.21818181818183,20.171428571428564L94.65454545454546,20.228571428571428L91.09090909090911,19.05714285714285L87.52727272727273,20.14285714285714L83.96363636363637,21.799999999999997L80.4,22.62857142857143L76.83636363636364,23.685714285714287L73.27272727272727,24.22857142857143L69.70909090909092,26.057142857142857L66.14545454545454,29.000000000000004L62.58181818181818,29.885714285714293L59.018181818181816,30.34285714285715L55.454545454545446,31.25714285714285L51.89090909090908,30.571428571428573L48.32727272727273,31.77142857142856L44.76363636363636,30.400000000000006L41.199999999999996,32.14285714285714L37.636363636363626,34.11428571428571L34.072727272727285,36.02857142857143L30.509090909090922,39.48571428571429L26.945454545454556,41.542857142857144L23.38181818181819,42.05714285714286L19.818181818181824,45.25714285714285L16.25454545454546,45.8L12.690909090909095,46.94285714285714L9.12727272727273,48.228571428571435L5.563636363636365,48.25714285714285L2,50.25714285714285"></path></g></svg>