<svg meta="{&quot;DATA_PUBLISHED_DATE&quot;:&quot;2023-11-01&quot;,&quot;RENDER_DATE&quot;:&quot;2023-11-01&quot;,&quot;FIRST_DATE&quot;:&quot;2023-08-15&quot;,&quot;LAST_DATE&quot;:&quot;2023-10-09&quot;}" xmlns="http://www.w3.org/2000/svg" viewBox="0,0,200,100"><g transform="translate(0,0)"></g><g class="fg-bars death-date" fill="#00183f" stroke="none"><g><rect x="197" y="64.28571428571428" width="2" height="35.71428571428572" id="death-date-0"></rect></g><g><rect x="193.43636363636364" y="57.14285714285714" width="2" height="42.85714285714286" id="death-date-1"></rect></g><g><rect x="189.87272727272727" y="25" width="2" height="75" id="death-date-2"></rect></g><g><rect x="186.30909090909088" y="50" width="2" height="50" id="death-date-3"></rect></g><g><rect x="182.74545454545455" y="42.85714285714286" width="2" height="57.14285714285714" id="death-date-4"></rect></g><g><rect x="179.1818181818182" y="60.71428571428572" width="2" height="39.28571428571428" id="death-date-5"></rect></g><g><rect x="175.61818181818182" y="17.85714285714286" width="2" height="82.14285714285714" id="death-date-6"></rect></g><g><rect x="172.05454545454546" y="53.57142857142857" width="2" height="46.42857142857143" id="death-date-7"></rect></g><g><rect x="168.49090909090907" y="64.28571428571428" width="2" height="35.71428571428572" id="death-date-8"></rect></g><g><rect x="164.92727272727274" y="28.57142857142857" width="2" height="71.42857142857143" id="death-date-9"></rect></g><g><rect x="161.36363636363637" y="42.85714285714286" width="2" height="57.14285714285714" id="death-date-10"></rect></g><g><rect x="157.8" y="10.71428571428571" width="2" height="89.28571428571429" id="death-date-11"></rect></g><g><rect x="154.23636363636365" y="35.71428571428571" width="2" height="64.28571428571429" id="death-date-12"></rect></g><g><rect x="150.6727272727273" y="7.14285714285714" width="2" height="92.85714285714286" id="death-date-13"></rect></g><g><rect x="147.1090909090909" y="25" width="2" height="75" id="death-date-14"></rect></g><g><rect x="143.54545454545453" y="60.71428571428572" width="2" height="39.28571428571428" id="death-date-15"></rect></g><g><rect x="139.9818181818182" y="35.71428571428571" width="2" height="64.28571428571429" id="death-date-16"></rect></g><g><rect x="136.41818181818184" y="46.42857142857143" width="2" height="53.57142857142857" id="death-date-17"></rect></g><g><rect x="132.85454545454544" y="25" width="2" height="75" id="death-date-18"></rect></g><g><rect x="129.29090909090908" y="21.42857142857143" width="2" height="78.57142857142857" id="death-date-19"></rect></g><g><rect x="125.72727272727273" y="32.14285714285714" width="2" height="67.85714285714286" id="death-date-20"></rect></g><g><rect x="122.16363636363636" y="28.57142857142857" width="2" height="71.42857142857143" id="death-date-21"></rect></g><g><rect x="118.6" y="35.71428571428571" width="2" height="64.28571428571429" id="death-date-22"></rect></g><g><rect x="115.03636363636363" y="35.71428571428571" width="2" height="64.28571428571429" id="death-date-23"></rect></g><g><rect x="111.47272727272728" y="17.85714285714286" width="2" height="82.14285714285714" id="death-date-24"></rect></g><g><rect x="107.90909090909089" y="53.57142857142857" width="2" height="46.42857142857143" id="death-date-25"></rect></g><g><rect x="104.34545454545456" y="21.42857142857143" width="2" height="78.57142857142857" id="death-date-26"></rect></g><g><rect x="100.78181818181817" y="25" width="2" height="75" id="death-date-27"></rect></g><g><rect x="97.21818181818183" y="42.85714285714286" width="2" height="57.14285714285714" id="death-date-28"></rect></g><g><rect x="93.65454545454546" y="42.85714285714286" width="2" height="57.14285714285714" id="death-date-29"></rect></g><g><rect x="90.09090909090911" y="50" width="2" height="50" id="death-date-30"></rect></g><g><rect x="86.52727272727273" y="3.57142857142857" width="2" height="96.42857142857143" id="death-date-31"></rect></g><g><rect x="82.96363636363637" y="14.28571428571429" width="2" height="85.71428571428571" id="death-date-32"></rect></g><g><rect x="79.4" y="28.57142857142857" width="2" height="71.42857142857143" id="death-date-33"></rect></g><g><rect x="75.83636363636364" y="50" width="2" height="50" id="death-date-34"></rect></g><g><rect x="72.27272727272727" y="39.28571428571429" width="2" height="60.71428571428571" id="death-date-35"></rect></g><g><rect x="68.70909090909092" y="57.14285714285714" width="2" height="42.85714285714286" id="death-date-36"></rect></g><g><rect x="65.14545454545454" y="35.71428571428571" width="2" height="64.28571428571429" id="death-date-37"></rect></g><g><rect x="61.58181818181818" y="14.28571428571429" width="2" height="85.71428571428571" id="death-date-38"></rect></g><g><rect x="58.018181818181816" y="50" width="2" height="50" id="death-date-39"></rect></g><g><rect x="54.454545454545446" y="50" width="2" height="50" id="death-date-40"></rect></g><g><rect x="50.89090909090908" y="50" width="2" height="50" id="death-date-41"></rect></g><g><rect x="47.32727272727273" y="28.57142857142857" width="2" height="71.42857142857143" id="death-date-42"></rect></g><g><rect x="43.76363636363636" y="46.42857142857143" width="2" height="53.57142857142857" id="death-date-43"></rect></g><g><rect x="40.199999999999996" y="28.57142857142857" width="2" height="71.42857142857143" id="death-date-44"></rect></g><g><rect x="36.636363636363626" y="35.71428571428571" width="2" height="64.28571428571429" id="death-date-45"></rect></g><g><rect x="33.072727272727285" y="25" width="2" height="75" id="death-date-46"></rect></g><g><rect x="29.509090909090922" y="42.85714285714286" width="2" height="57.14285714285714" id="death-date-47"></rect></g><g><rect x="25.945454545454556" y="60.71428571428572" width="2" height="39.28571428571428" id="death-date-48"></rect></g><g><rect x="22.38181818181819" y="35.71428571428571" width="2" height="64.28571428571429" id="death-date-49"></rect></g><g><rect x="18.818181818181824" y="39.28571428571429" width="2" height="60.71428571428571" id="death-date-50"></rect></g><g><rect x="15.254545454545461" y="50" width="2" height="50" id="death-date-51"></rect></g><g><rect x="11.690909090909095" y="32.14285714285714" width="2" height="67.85714285714286" id="death-date-52"></rect></g><g><rect x="8.12727272727273" y="28.57142857142857" width="2" height="71.42857142857143" id="death-date-53"></rect></g><g><rect x="4.563636363636365" y="53.57142857142857" width="2" height="46.42857142857143" id="death-date-54"></rect></g><g><rect x="1" y="39.28571428571429" width="2" height="60.71428571428571" id="death-date-55"></rect></g></g><g class="fg-line death-date" fill="none" stroke="#92c5de" stroke-width="2" stroke-linecap="round"><path d="M198,45.40816326530612L194.43636363636364,43.87755102040817L190.87272727272727,44.897959183673464L187.30909090909088,45.40816326530612L183.74545454545455,44.38775510204081L180.1818181818182,39.795918367346935L176.61818181818182,36.224489795918366L173.05454545454546,34.693877551020414L169.49090909090907,30.612244897959183L165.92727272727274,30.102040816326525L162.36363636363637,31.122448979591844L158.8,31.63265306122449L155.23636363636365,33.6734693877551L151.6727272727273,31.63265306122449L148.1090909090909,35.204081632653065L144.54545454545453,35.71428571428571L140.9818181818182,32.14285714285714L137.41818181818184,32.14285714285714L133.85454545454544,28.061224489795922L130.29090909090908,32.14285714285714L126.72727272727273,32.14285714285714L123.16363636363636,31.122448979591844L119.6,33.16326530612245L116.03636363636363,34.18367346938776L112.47272727272728,36.224489795918366L108.90909090909089,34.18367346938776L105.34545454545456,28.57142857142857L101.78181818181817,29.591836734693878L98.21818181818183,33.16326530612245L94.65454545454546,32.6530612244898L91.09090909090911,34.693877551020414L87.52727272727273,32.6530612244898L83.96363636363637,34.18367346938776L80.4,39.28571428571429L76.83636363636364,42.3469387755102L73.27272727272727,42.3469387755102L69.70909090909092,40.81632653061224L66.14545454545454,39.28571428571429L62.58181818181818,38.26530612244898L59.018181818181816,41.3265306122449L55.454545454545446,37.75510204081633L51.89090909090908,36.73469387755102L48.32727272727273,38.26530612244898L44.76363636363636,39.28571428571429L41.199999999999996,38.26530612244898L37.636363636363626,41.3265306122449L34.072727272727285,40.81632653061224L30.509090909090922,41.3265306122449L26.945454545454556,42.85714285714286L23.38181818181819,39.795918367346935L19.818181818181824,41.83673469387755L16.25454545454546,42.85714285714286L12.690909090909095,45.91836734693878L9.12727272727273,48.46938775510205L5.563636363636365,54.08163265306123L2,56.63265306122449"></path></g></svg>