<svg meta="{&quot;DATA_PUBLISHED_DATE&quot;:&quot;2023-09-14&quot;,&quot;RENDER_DATE&quot;:&quot;2023-09-14&quot;,&quot;FIRST_DATE&quot;:&quot;2023-07-16&quot;,&quot;LAST_DATE&quot;:&quot;2023-09-09&quot;}" xmlns="http://www.w3.org/2000/svg" viewBox="0,0,200,100"><g transform="translate(0,0)"></g><g class="fg-bars admissions-count" fill="#00183f" stroke="none"><g><rect x="197" y="11.333333333333329" width="2" height="88.66666666666667" id="admissions-count-0"></rect></g><g><rect x="193.43636363636364" y="15.333333333333332" width="2" height="84.66666666666667" id="admissions-count-1"></rect></g><g><rect x="189.87272727272727" y="2.8888888888888853" width="2" height="97.11111111111111" id="admissions-count-2"></rect></g><g><rect x="186.30909090909088" y="3.3333333333333326" width="2" height="96.66666666666667" id="admissions-count-3"></rect></g><g><rect x="182.74545454545455" y="20.222222222222218" width="2" height="79.77777777777779" id="admissions-count-4"></rect></g><g><rect x="179.1818181818182" y="21.55555555555555" width="2" height="78.44444444444446" id="admissions-count-5"></rect></g><g><rect x="175.61818181818182" y="10.444444444444445" width="2" height="89.55555555555556" id="admissions-count-6"></rect></g><g><rect x="172.05454545454546" y="16.000000000000004" width="2" height="84" id="admissions-count-7"></rect></g><g><rect x="168.49090909090907" y="14.222222222222225" width="2" height="85.77777777777777" id="admissions-count-8"></rect></g><g><rect x="164.92727272727274" y="6.666666666666665" width="2" height="93.33333333333333" id="admissions-count-9"></rect></g><g><rect x="161.36363636363637" y="0.666666666666671" width="2" height="99.33333333333333" id="admissions-count-10"></rect></g><g><rect x="157.8" y="5.111111111111111" width="2" height="94.88888888888889" id="admissions-count-11"></rect></g><g><rect x="154.23636363636365" y="24.444444444444446" width="2" height="75.55555555555556" id="admissions-count-12"></rect></g><g><rect x="150.6727272727273" y="21.55555555555555" width="2" height="78.44444444444446" id="admissions-count-13"></rect></g><g><rect x="147.1090909090909" y="14.222222222222225" width="2" height="85.77777777777777" id="admissions-count-14"></rect></g><g><rect x="143.54545454545453" y="3.3333333333333326" width="2" height="96.66666666666667" id="admissions-count-15"></rect></g><g><rect x="139.9818181818182" y="14.000000000000002" width="2" height="86" id="admissions-count-16"></rect></g><g><rect x="136.41818181818184" y="12.666666666666671" width="2" height="87.33333333333333" id="admissions-count-17"></rect></g><g><rect x="132.85454545454544" y="10.444444444444445" width="2" height="89.55555555555556" id="admissions-count-18"></rect></g><g><rect x="129.29090909090908" y="31.777777777777782" width="2" height="68.22222222222221" id="admissions-count-19"></rect></g><g><rect x="125.72727272727273" y="25.33333333333333" width="2" height="74.66666666666667" id="admissions-count-20"></rect></g><g><rect x="122.16363636363636" y="28.222222222222225" width="2" height="71.77777777777777" id="admissions-count-21"></rect></g><g><rect x="118.6" y="26" width="2" height="74" id="admissions-count-22"></rect></g><g><rect x="115.03636363636363" y="20.666666666666668" width="2" height="79.33333333333333" id="admissions-count-23"></rect></g><g><rect x="111.47272727272728" y="15.777777777777779" width="2" height="84.22222222222223" id="admissions-count-24"></rect></g><g><rect x="107.90909090909089" y="17.555555555555557" width="2" height="82.44444444444444" id="admissions-count-25"></rect></g><g><rect x="104.34545454545456" y="26.44444444444445" width="2" height="73.55555555555554" id="admissions-count-26"></rect></g><g><rect x="100.78181818181817" y="34.66666666666667" width="2" height="65.33333333333333" id="admissions-count-27"></rect></g><g><rect x="97.21818181818183" y="17.555555555555557" width="2" height="82.44444444444444" id="admissions-count-28"></rect></g><g><rect x="93.65454545454546" y="39.55555555555556" width="2" height="60.44444444444444" id="admissions-count-29"></rect></g><g><rect x="90.09090909090911" y="36" width="2" height="64" id="admissions-count-30"></rect></g><g><rect x="86.52727272727273" y="30.666666666666664" width="2" height="69.33333333333334" id="admissions-count-31"></rect></g><g><rect x="82.96363636363637" y="44.44444444444444" width="2" height="55.55555555555556" id="admissions-count-32"></rect></g><g><rect x="79.4" y="42.44444444444444" width="2" height="57.55555555555556" id="admissions-count-33"></rect></g><g><rect x="75.83636363636364" y="38.66666666666667" width="2" height="61.33333333333333" id="admissions-count-34"></rect></g><g><rect x="72.27272727272727" y="42.44444444444444" width="2" height="57.55555555555556" id="admissions-count-35"></rect></g><g><rect x="68.70909090909092" y="43.777777777777786" width="2" height="56.222222222222214" id="admissions-count-36"></rect></g><g><rect x="65.14545454545454" y="44.888888888888886" width="2" height="55.111111111111114" id="admissions-count-37"></rect></g><g><rect x="61.58181818181818" y="40.666666666666664" width="2" height="59.333333333333336" id="admissions-count-38"></rect></g><g><rect x="58.018181818181816" y="44.666666666666664" width="2" height="55.333333333333336" id="admissions-count-39"></rect></g><g><rect x="54.454545454545446" y="58.00000000000001" width="2" height="41.99999999999999" id="admissions-count-40"></rect></g><g><rect x="50.89090909090908" y="52.8888888888889" width="2" height="47.1111111111111" id="admissions-count-41"></rect></g><g><rect x="47.32727272727273" y="51.33333333333333" width="2" height="48.66666666666667" id="admissions-count-42"></rect></g><g><rect x="43.76363636363636" y="48.66666666666667" width="2" height="51.33333333333333" id="admissions-count-43"></rect></g><g><rect x="40.199999999999996" y="54.888888888888886" width="2" height="45.111111111111114" id="admissions-count-44"></rect></g><g><rect x="36.636363636363626" y="58.666666666666664" width="2" height="41.333333333333336" id="admissions-count-45"></rect></g><g><rect x="33.072727272727285" y="49.55555555555555" width="2" height="50.44444444444445" id="admissions-count-46"></rect></g><g><rect x="29.509090909090922" y="55.55555555555556" width="2" height="44.44444444444444" id="admissions-count-47"></rect></g><g><rect x="25.945454545454556" y="62" width="2" height="38" id="admissions-count-48"></rect></g><g><rect x="22.38181818181819" y="58.88888888888889" width="2" height="41.11111111111111" id="admissions-count-49"></rect></g><g><rect x="18.818181818181824" y="56.888888888888886" width="2" height="43.111111111111114" id="admissions-count-50"></rect></g><g><rect x="15.254545454545461" y="60.88888888888888" width="2" height="39.11111111111112" id="admissions-count-51"></rect></g><g><rect x="11.690909090909095" y="53.11111111111111" width="2" height="46.88888888888889" id="admissions-count-52"></rect></g><g><rect x="8.12727272727273" y="50" width="2" height="50" id="admissions-count-53"></rect></g><g><rect x="4.563636363636365" y="63.33333333333333" width="2" height="36.66666666666667" id="admissions-count-54"></rect></g><g><rect x="1" y="53.333333333333336" width="2" height="46.666666666666664" id="admissions-count-55"></rect></g></g><g class="fg-line admissions-count" fill="none" stroke="#92c5de" stroke-width="2" stroke-linecap="round"><path d="M198,12.158730158730158L194.43636363636364,12.82539682539683L190.87272727272727,12.666666666666671L187.30909090909088,13.206349206349211L183.74545454545455,12.82539682539683L180.1818181818182,10.666666666666668L176.61818181818182,11.079365079365077L173.05454545454546,12.666666666666671L169.49090909090907,12.412698412698408L165.92727272727274,10.857142857142854L162.36363636363637,11.904761904761896L158.8,13.61904761904762L155.23636363636365,14.380952380952383L151.6727272727273,15.428571428571436L148.1090909090909,15.968253968253965L144.54545454545453,17.96825396825397L140.9818181818182,21.206349206349206L137.41818181818184,22.158730158730155L133.85454545454544,22.6031746031746L130.29090909090908,23.619047619047617L126.72727272727273,22.857142857142854L123.16363636363636,24.190476190476183L119.6,22.666666666666668L116.03636363636363,24.603174603174605L112.47272727272728,26.79365079365079L108.90909090909089,28.920634920634924L105.34545454545456,32.76190476190477L101.78181818181817,35.04761904761905L98.21818181818183,35.61904761904762L94.65454545454546,39.17460317460317L91.09090909090911,39.77777777777778L87.52727272727273,41.047619047619044L83.96363636363637,42.47619047619048L80.4,42.507936507936506L76.83636363636364,44.730158730158735L73.27272727272727,46.76190476190476L69.70909090909092,48.031746031746025L66.14545454545454,48.73015873015872L62.58181818181818,50.15873015873016L59.018181818181816,52.73015873015873L55.454545454545446,53.42857142857142L51.89090909090908,53.07936507936508L48.32727272727273,54.38095238095239L44.76363636363636,55.46031746031746L41.199999999999996,56.63492063492064L37.636363636363626,57.492063492063494L34.072727272727285,56.698412698412696L30.509090909090922,56.76190476190476L26.945454545454556,57.87301587301587L23.38181818181819,56.63492063492064L19.818181818181824,57.23809523809524L16.25454545454546,57.460317460317455L12.690909090909095,58.47619047619048L9.12727272727273,58.666666666666664L5.563636363636365,59.650793650793645L2,59.07936507936509"></path></g></svg>