<svg meta="{&quot;DATA_PUBLISHED_DATE&quot;:&quot;2023-10-19&quot;,&quot;RENDER_DATE&quot;:&quot;2023-10-19&quot;,&quot;FIRST_DATE&quot;:&quot;2023-08-20&quot;,&quot;LAST_DATE&quot;:&quot;2023-10-14&quot;}" xmlns="http://www.w3.org/2000/svg" viewBox="0,0,200,100"><g transform="translate(0,0)"></g><g class="fg-bars hospitalizations-count" fill="#00183f" stroke="none"><g><rect x="197" y="42.18181818181819" width="2" height="57.81818181818181" id="hospitalizations-count-0"></rect></g><g><rect x="193.43636363636364" y="39.5" width="2" height="60.5" id="hospitalizations-count-1"></rect></g><g><rect x="189.87272727272727" y="38.45454545454545" width="2" height="61.54545454545455" id="hospitalizations-count-2"></rect></g><g><rect x="186.30909090909088" y="38.04545454545455" width="2" height="61.95454545454545" id="hospitalizations-count-3"></rect></g><g><rect x="182.74545454545455" y="36.54545454545455" width="2" height="63.45454545454545" id="hospitalizations-count-4"></rect></g><g><rect x="179.1818181818182" y="34.68181818181818" width="2" height="65.31818181818181" id="hospitalizations-count-5"></rect></g><g><rect x="175.61818181818182" y="31.772727272727273" width="2" height="68.22727272727272" id="hospitalizations-count-6"></rect></g><g><rect x="172.05454545454546" y="32.86363636363636" width="2" height="67.13636363636364" id="hospitalizations-count-7"></rect></g><g><rect x="168.49090909090907" y="29.59090909090909" width="2" height="70.4090909090909" id="hospitalizations-count-8"></rect></g><g><rect x="164.92727272727274" y="32.99999999999999" width="2" height="67" id="hospitalizations-count-9"></rect></g><g><rect x="161.36363636363637" y="32.59090909090909" width="2" height="67.4090909090909" id="hospitalizations-count-10"></rect></g><g><rect x="157.8" y="27.77272727272727" width="2" height="72.22727272727273" id="hospitalizations-count-11"></rect></g><g><rect x="154.23636363636365" y="34.86363636363636" width="2" height="65.13636363636364" id="hospitalizations-count-12"></rect></g><g><rect x="150.6727272727273" y="29.31818181818182" width="2" height="70.68181818181819" id="hospitalizations-count-13"></rect></g><g><rect x="147.1090909090909" y="29.181818181818187" width="2" height="70.81818181818181" id="hospitalizations-count-14"></rect></g><g><rect x="143.54545454545453" y="27.04545454545455" width="2" height="72.95454545454545" id="hospitalizations-count-15"></rect></g><g><rect x="139.9818181818182" y="25.090909090909086" width="2" height="74.9090909090909" id="hospitalizations-count-16"></rect></g><g><rect x="136.41818181818184" y="20.772727272727277" width="2" height="79.22727272727272" id="hospitalizations-count-17"></rect></g><g><rect x="132.85454545454544" y="21.545454545454547" width="2" height="78.45454545454545" id="hospitalizations-count-18"></rect></g><g><rect x="129.29090909090908" y="19.13636363636364" width="2" height="80.86363636363636" id="hospitalizations-count-19"></rect></g><g><rect x="125.72727272727273" y="19.999999999999996" width="2" height="80" id="hospitalizations-count-20"></rect></g><g><rect x="122.16363636363636" y="19.772727272727273" width="2" height="80.22727272727272" id="hospitalizations-count-21"></rect></g><g><rect x="118.6" y="17.227272727272723" width="2" height="82.77272727272728" id="hospitalizations-count-22"></rect></g><g><rect x="115.03636363636363" y="18.13636363636364" width="2" height="81.86363636363636" id="hospitalizations-count-23"></rect></g><g><rect x="111.47272727272728" y="12.77272727272727" width="2" height="87.22727272727273" id="hospitalizations-count-24"></rect></g><g><rect x="107.90909090909089" y="13.181818181818183" width="2" height="86.81818181818181" id="hospitalizations-count-25"></rect></g><g><rect x="104.34545454545456" y="15.81818181818182" width="2" height="84.18181818181819" id="hospitalizations-count-26"></rect></g><g><rect x="100.78181818181817" y="13.363636363636367" width="2" height="86.63636363636363" id="hospitalizations-count-27"></rect></g><g><rect x="97.21818181818183" y="15.181818181818185" width="2" height="84.81818181818181" id="hospitalizations-count-28"></rect></g><g><rect x="93.65454545454546" y="10.909090909090914" width="2" height="89.0909090909091" id="hospitalizations-count-29"></rect></g><g><rect x="90.09090909090911" y="8.363636363636362" width="2" height="91.63636363636364" id="hospitalizations-count-30"></rect></g><g><rect x="86.52727272727273" y="8.18181818181818" width="2" height="91.81818181818181" id="hospitalizations-count-31"></rect></g><g><rect x="82.96363636363637" y="8.227272727272727" width="2" height="91.77272727272728" id="hospitalizations-count-32"></rect></g><g><rect x="79.4" y="14.04545454545455" width="2" height="85.95454545454545" id="hospitalizations-count-33"></rect></g><g><rect x="75.83636363636364" y="6.318181818181823" width="2" height="93.68181818181817" id="hospitalizations-count-34"></rect></g><g><rect x="72.27272727272727" y="12.409090909090914" width="2" height="87.5909090909091" id="hospitalizations-count-35"></rect></g><g><rect x="68.70909090909092" y="11.090909090909095" width="2" height="88.9090909090909" id="hospitalizations-count-36"></rect></g><g><rect x="65.14545454545454" y="7.8636363636363615" width="2" height="92.13636363636364" id="hospitalizations-count-37"></rect></g><g><rect x="61.58181818181818" y="7.045454545454543" width="2" height="92.95454545454545" id="hospitalizations-count-38"></rect></g><g><rect x="58.018181818181816" y="10.681818181818182" width="2" height="89.31818181818181" id="hospitalizations-count-39"></rect></g><g><rect x="54.454545454545446" y="13.318181818181818" width="2" height="86.68181818181819" id="hospitalizations-count-40"></rect></g><g><rect x="50.89090909090908" y="11.22727272727273" width="2" height="88.77272727272727" id="hospitalizations-count-41"></rect></g><g><rect x="47.32727272727273" y="15.81818181818182" width="2" height="84.18181818181819" id="hospitalizations-count-42"></rect></g><g><rect x="43.76363636363636" y="15.409090909090907" width="2" height="84.5909090909091" id="hospitalizations-count-43"></rect></g><g><rect x="40.199999999999996" y="14.863636363636367" width="2" height="85.13636363636363" id="hospitalizations-count-44"></rect></g><g><rect x="36.636363636363626" y="14.727272727272723" width="2" height="85.27272727272728" id="hospitalizations-count-45"></rect></g><g><rect x="33.072727272727285" y="16.500000000000004" width="2" height="83.5" id="hospitalizations-count-46"></rect></g><g><rect x="29.509090909090922" y="18.13636363636364" width="2" height="81.86363636363636" id="hospitalizations-count-47"></rect></g><g><rect x="25.945454545454556" y="19.499999999999996" width="2" height="80.5" id="hospitalizations-count-48"></rect></g><g><rect x="22.38181818181819" y="21.090909090909093" width="2" height="78.9090909090909" id="hospitalizations-count-49"></rect></g><g><rect x="18.818181818181824" y="19.86363636363636" width="2" height="80.13636363636364" id="hospitalizations-count-50"></rect></g><g><rect x="15.254545454545461" y="21.499999999999996" width="2" height="78.5" id="hospitalizations-count-51"></rect></g><g><rect x="11.690909090909095" y="21.636363636363633" width="2" height="78.36363636363637" id="hospitalizations-count-52"></rect></g><g><rect x="8.12727272727273" y="24.363636363636367" width="2" height="75.63636363636363" id="hospitalizations-count-53"></rect></g><g><rect x="4.563636363636365" y="25.727272727272734" width="2" height="74.27272727272727" id="hospitalizations-count-54"></rect></g><g><rect x="1" y="28.31818181818182" width="2" height="71.68181818181819" id="hospitalizations-count-55"></rect></g></g><g class="fg-line hospitalizations-count" fill="none" stroke="#92c5de" stroke-width="2" stroke-linecap="round"><path d="M198,37.311688311688314L194.43636363636364,35.980519480519476L190.87272727272727,34.564935064935064L187.30909090909088,33.785714285714285L183.74545454545455,33.006493506493506L180.1818181818182,31.753246753246756L176.61818181818182,31.779220779220772L173.05454545454546,31.428571428571427L169.49090909090907,30.902597402597408L165.92727272727274,30.538961038961045L162.36363636363637,29.409090909090907L158.8,27.720779220779225L155.23636363636365,26.831168831168828L151.6727272727273,24.584415584415588L148.1090909090909,23.25324675324676L144.54545454545453,21.90909090909091L140.9818181818182,20.506493506493506L137.41818181818184,19.512987012987015L133.85454545454544,18.37012987012987L130.29090909090908,17.175324675324678L126.72727272727273,16.701298701298693L123.16363636363636,15.753246753246753L119.6,15.0974025974026L116.03636363636363,14.194805194805193L112.47272727272728,12.798701298701298L108.90909090909089,12.142857142857144L105.34545454545456,11.435064935064943L101.78181818181817,11.181818181818182L98.21818181818183,10.175324675324681L94.65454545454546,9.779220779220775L91.09090909090911,9.805194805194805L87.52727272727273,9.733766233766229L83.96363636363637,9.571428571428575L80.4,9.922077922077921L76.83636363636364,9.818181818181815L73.27272727272727,10.519480519480517L69.70909090909092,11.00649350649351L66.14545454545454,11.623376623376625L62.58181818181818,12.623376623376625L59.018181818181816,13.720779220779223L55.454545454545446,14.551948051948049L51.89090909090908,15.240259740259743L48.32727272727273,16.422077922077914L44.76363636363636,17.175324675324678L41.199999999999996,17.81168831168831L37.636363636363626,18.759740259740266L34.072727272727285,19.746753246753247L30.509090909090922,20.870129870129873L26.945454545454556,21.95454545454546L23.38181818181819,23.214285714285722L19.818181818181824,24.792207792207787L16.25454545454546,26.441558441558442L12.690909090909095,27.78571428571428L9.12727272727273,29.454545454545457L5.563636363636365,30.850649350649352L2,32.35714285714286"></path></g></svg>