<svg meta="{&quot;DATA_PUBLISHED_DATE&quot;:&quot;2023-08-31&quot;,&quot;RENDER_DATE&quot;:&quot;2023-08-31&quot;,&quot;FIRST_DATE&quot;:&quot;2023-07-02&quot;,&quot;LAST_DATE&quot;:&quot;2023-08-26&quot;}" xmlns="http://www.w3.org/2000/svg" viewBox="0,0,200,100"><g transform="translate(0,0)"></g><g class="fg-bars admissions-count" fill="#00183f" stroke="none"><g><rect x="197" y="15.333333333333332" width="2" height="84.66666666666667" id="admissions-count-0"></rect></g><g><rect x="193.43636363636364" y="4.0000000000000036" width="2" height="96" id="admissions-count-1"></rect></g><g><rect x="189.87272727272727" y="15.555555555555555" width="2" height="84.44444444444444" id="admissions-count-2"></rect></g><g><rect x="186.30909090909088" y="13.777777777777779" width="2" height="86.22222222222223" id="admissions-count-3"></rect></g><g><rect x="182.74545454545455" y="11.555555555555552" width="2" height="88.44444444444444" id="admissions-count-4"></rect></g><g><rect x="179.1818181818182" y="31.777777777777782" width="2" height="68.22222222222221" id="admissions-count-5"></rect></g><g><rect x="175.61818181818182" y="25.77777777777778" width="2" height="74.22222222222223" id="admissions-count-6"></rect></g><g><rect x="172.05454545454546" y="28.888888888888886" width="2" height="71.11111111111111" id="admissions-count-7"></rect></g><g><rect x="168.49090909090907" y="26" width="2" height="74" id="admissions-count-8"></rect></g><g><rect x="164.92727272727274" y="21.55555555555555" width="2" height="78.44444444444446" id="admissions-count-9"></rect></g><g><rect x="161.36363636363637" y="16.22222222222223" width="2" height="83.77777777777777" id="admissions-count-10"></rect></g><g><rect x="157.8" y="17.555555555555557" width="2" height="82.44444444444444" id="admissions-count-11"></rect></g><g><rect x="154.23636363636365" y="26.44444444444445" width="2" height="73.55555555555554" id="admissions-count-12"></rect></g><g><rect x="150.6727272727273" y="34.66666666666667" width="2" height="65.33333333333333" id="admissions-count-13"></rect></g><g><rect x="147.1090909090909" y="17.555555555555557" width="2" height="82.44444444444444" id="admissions-count-14"></rect></g><g><rect x="143.54545454545453" y="39.55555555555556" width="2" height="60.44444444444444" id="admissions-count-15"></rect></g><g><rect x="139.9818181818182" y="36" width="2" height="64" id="admissions-count-16"></rect></g><g><rect x="136.41818181818184" y="30.666666666666664" width="2" height="69.33333333333334" id="admissions-count-17"></rect></g><g><rect x="132.85454545454544" y="44.44444444444444" width="2" height="55.55555555555556" id="admissions-count-18"></rect></g><g><rect x="129.29090909090908" y="42.44444444444444" width="2" height="57.55555555555556" id="admissions-count-19"></rect></g><g><rect x="125.72727272727273" y="38.66666666666667" width="2" height="61.33333333333333" id="admissions-count-20"></rect></g><g><rect x="122.16363636363636" y="42.44444444444444" width="2" height="57.55555555555556" id="admissions-count-21"></rect></g><g><rect x="118.6" y="43.777777777777786" width="2" height="56.222222222222214" id="admissions-count-22"></rect></g><g><rect x="115.03636363636363" y="44.888888888888886" width="2" height="55.111111111111114" id="admissions-count-23"></rect></g><g><rect x="111.47272727272728" y="40.666666666666664" width="2" height="59.333333333333336" id="admissions-count-24"></rect></g><g><rect x="107.90909090909089" y="44.666666666666664" width="2" height="55.333333333333336" id="admissions-count-25"></rect></g><g><rect x="104.34545454545456" y="58.00000000000001" width="2" height="41.99999999999999" id="admissions-count-26"></rect></g><g><rect x="100.78181818181817" y="52.8888888888889" width="2" height="47.1111111111111" id="admissions-count-27"></rect></g><g><rect x="97.21818181818183" y="51.33333333333333" width="2" height="48.66666666666667" id="admissions-count-28"></rect></g><g><rect x="93.65454545454546" y="48.66666666666667" width="2" height="51.33333333333333" id="admissions-count-29"></rect></g><g><rect x="90.09090909090911" y="54.888888888888886" width="2" height="45.111111111111114" id="admissions-count-30"></rect></g><g><rect x="86.52727272727273" y="58.666666666666664" width="2" height="41.333333333333336" id="admissions-count-31"></rect></g><g><rect x="82.96363636363637" y="49.55555555555555" width="2" height="50.44444444444445" id="admissions-count-32"></rect></g><g><rect x="79.4" y="55.55555555555556" width="2" height="44.44444444444444" id="admissions-count-33"></rect></g><g><rect x="75.83636363636364" y="62" width="2" height="38" id="admissions-count-34"></rect></g><g><rect x="72.27272727272727" y="58.88888888888889" width="2" height="41.11111111111111" id="admissions-count-35"></rect></g><g><rect x="68.70909090909092" y="56.888888888888886" width="2" height="43.111111111111114" id="admissions-count-36"></rect></g><g><rect x="65.14545454545454" y="60.88888888888888" width="2" height="39.11111111111112" id="admissions-count-37"></rect></g><g><rect x="61.58181818181818" y="53.11111111111111" width="2" height="46.88888888888889" id="admissions-count-38"></rect></g><g><rect x="58.018181818181816" y="50" width="2" height="50" id="admissions-count-39"></rect></g><g><rect x="54.454545454545446" y="63.33333333333333" width="2" height="36.66666666666667" id="admissions-count-40"></rect></g><g><rect x="50.89090909090908" y="53.333333333333336" width="2" height="46.666666666666664" id="admissions-count-41"></rect></g><g><rect x="47.32727272727273" y="63.111111111111114" width="2" height="36.888888888888886" id="admissions-count-42"></rect></g><g><rect x="43.76363636363636" y="58.44444444444444" width="2" height="41.55555555555556" id="admissions-count-43"></rect></g><g><rect x="40.199999999999996" y="68" width="2" height="32" id="admissions-count-44"></rect></g><g><rect x="36.636363636363626" y="54.44444444444445" width="2" height="45.55555555555555" id="admissions-count-45"></rect></g><g><rect x="33.072727272727285" y="56.888888888888886" width="2" height="43.111111111111114" id="admissions-count-46"></rect></g><g><rect x="29.509090909090922" y="59.33333333333333" width="2" height="40.66666666666667" id="admissions-count-47"></rect></g><g><rect x="25.945454545454556" y="63.111111111111114" width="2" height="36.888888888888886" id="admissions-count-48"></rect></g><g><rect x="22.38181818181819" y="62.888888888888886" width="2" height="37.111111111111114" id="admissions-count-49"></rect></g><g><rect x="18.818181818181824" y="58.666666666666664" width="2" height="41.333333333333336" id="admissions-count-50"></rect></g><g><rect x="15.254545454545461" y="60.22222222222222" width="2" height="39.77777777777778" id="admissions-count-51"></rect></g><g><rect x="11.690909090909095" y="64.22222222222223" width="2" height="35.77777777777777" id="admissions-count-52"></rect></g><g><rect x="8.12727272727273" y="67.33333333333333" width="2" height="32.66666666666667" id="admissions-count-53"></rect></g><g><rect x="4.563636363636365" y="69.33333333333334" width="2" height="30.666666666666657" id="admissions-count-54"></rect></g><g><rect x="1" y="71.55555555555554" width="2" height="28.444444444444457" id="admissions-count-55"></rect></g></g><g class="fg-line admissions-count" fill="none" stroke="#92c5de" stroke-width="2" stroke-linecap="round"><path d="M198,16.825396825396833L194.43636363636364,18.76190476190477L190.87272727272727,21.904761904761905L187.30909090909088,22.76190476190476L183.74545454545455,23.111111111111114L180.1818181818182,23.96825396825396L176.61818181818182,23.20634920634921L173.05454545454546,24.476190476190485L169.49090909090907,22.857142857142854L165.92727272727274,24.79365079365079L162.36363636363637,26.857142857142858L158.8,28.920634920634924L155.23636363636365,32.76190476190477L151.6727272727273,35.04761904761905L148.1090909090909,35.61904761904762L144.54545454545453,39.17460317460317L140.9818181818182,39.77777777777778L137.41818181818184,41.047619047619044L133.85454545454544,42.47619047619048L130.29090909090908,42.507936507936506L126.72727272727273,44.730158730158735L123.16363636363636,46.76190476190476L119.6,48.031746031746025L116.03636363636363,48.73015873015872L112.47272727272728,50.15873015873016L108.90909090909089,52.73015873015873L105.34545454545456,53.42857142857142L101.78181818181817,53.07936507936508L98.21818181818183,54.38095238095239L94.65454545454546,55.46031746031746L91.09090909090911,56.63492063492064L87.52727272727273,57.492063492063494L83.96363636363637,56.698412698412696L80.4,56.76190476190476L76.83636363636364,57.87301587301587L73.27272727272727,56.63492063492064L69.70909090909092,57.23809523809524L66.14545454545454,57.460317460317455L62.58181818181818,58.47619047619048L59.018181818181816,58.666666666666664L55.454545454545446,59.650793650793645L51.89090909090908,59.07936507936509L48.32727272727273,60.47619047619048L44.76363636363636,60.44444444444444L41.199999999999996,60.47619047619048L37.636363636363626,59.36507936507937L34.072727272727285,60.76190476190476L30.509090909090922,62.25396825396825L26.945454545454556,63.682539682539684L23.38181818181819,64.88888888888889L19.818181818181824,65.3015873015873L16.25454545454546,66.28571428571428L12.690909090909095,66.95238095238095L9.12727272727273,65.17460317460318L5.563636363636365,64.53968253968254L2,63.87301587301587"></path></g></svg>