<svg meta="{&quot;DATA_PUBLISHED_DATE&quot;:&quot;2023-11-09&quot;,&quot;RENDER_DATE&quot;:&quot;2023-11-09&quot;,&quot;FIRST_DATE&quot;:&quot;2023-09-10&quot;,&quot;LAST_DATE&quot;:&quot;2023-11-04&quot;}" xmlns="http://www.w3.org/2000/svg" viewBox="0,0,200,100"><g transform="translate(0,0)"></g><g class="fg-bars admissions-count" fill="#00183f" stroke="none"><g><rect x="197" y="43.333333333333336" width="2" height="56.666666666666664" id="admissions-count-0"></rect></g><g><rect x="193.43636363636364" y="46.666666666666664" width="2" height="53.333333333333336" id="admissions-count-1"></rect></g><g><rect x="189.87272727272727" y="45.111111111111114" width="2" height="54.888888888888886" id="admissions-count-2"></rect></g><g><rect x="186.30909090909088" y="47.55555555555555" width="2" height="52.44444444444445" id="admissions-count-3"></rect></g><g><rect x="182.74545454545455" y="46.22222222222222" width="2" height="53.77777777777778" id="admissions-count-4"></rect></g><g><rect x="179.1818181818182" y="50.88888888888889" width="2" height="49.11111111111111" id="admissions-count-5"></rect></g><g><rect x="175.61818181818182" y="58.22222222222222" width="2" height="41.77777777777778" id="admissions-count-6"></rect></g><g><rect x="172.05454545454546" y="49.55555555555555" width="2" height="50.44444444444445" id="admissions-count-7"></rect></g><g><rect x="168.49090909090907" y="56.222222222222214" width="2" height="43.777777777777786" id="admissions-count-8"></rect></g><g><rect x="164.92727272727274" y="50.88888888888889" width="2" height="49.11111111111111" id="admissions-count-9"></rect></g><g><rect x="161.36363636363637" y="52.8888888888889" width="2" height="47.1111111111111" id="admissions-count-10"></rect></g><g><rect x="157.8" y="48.88888888888889" width="2" height="51.11111111111111" id="admissions-count-11"></rect></g><g><rect x="154.23636363636365" y="47.111111111111114" width="2" height="52.888888888888886" id="admissions-count-12"></rect></g><g><rect x="150.6727272727273" y="43.111111111111114" width="2" height="56.888888888888886" id="admissions-count-13"></rect></g><g><rect x="147.1090909090909" y="40.22222222222223" width="2" height="59.77777777777777" id="admissions-count-14"></rect></g><g><rect x="143.54545454545453" y="34" width="2" height="66" id="admissions-count-15"></rect></g><g><rect x="139.9818181818182" y="41.55555555555556" width="2" height="58.44444444444444" id="admissions-count-16"></rect></g><g><rect x="136.41818181818184" y="31.333333333333336" width="2" height="68.66666666666666" id="admissions-count-17"></rect></g><g><rect x="132.85454545454544" y="39.77777777777778" width="2" height="60.22222222222222" id="admissions-count-18"></rect></g><g><rect x="129.29090909090908" y="41.55555555555556" width="2" height="58.44444444444444" id="admissions-count-19"></rect></g><g><rect x="125.72727272727273" y="47.55555555555555" width="2" height="52.44444444444445" id="admissions-count-20"></rect></g><g><rect x="122.16363636363636" y="46.22222222222222" width="2" height="53.77777777777778" id="admissions-count-21"></rect></g><g><rect x="118.6" y="45.77777777777777" width="2" height="54.22222222222223" id="admissions-count-22"></rect></g><g><rect x="115.03636363636363" y="37.11111111111111" width="2" height="62.88888888888889" id="admissions-count-23"></rect></g><g><rect x="111.47272727272728" y="43.99999999999999" width="2" height="56.00000000000001" id="admissions-count-24"></rect></g><g><rect x="107.90909090909089" y="40.888888888888886" width="2" height="59.111111111111114" id="admissions-count-25"></rect></g><g><rect x="104.34545454545456" y="51.77777777777778" width="2" height="48.22222222222222" id="admissions-count-26"></rect></g><g><rect x="100.78181818181817" y="35.55555555555555" width="2" height="64.44444444444446" id="admissions-count-27"></rect></g><g><rect x="97.21818181818183" y="41.333333333333336" width="2" height="58.666666666666664" id="admissions-count-28"></rect></g><g><rect x="93.65454545454546" y="26.44444444444445" width="2" height="73.55555555555554" id="admissions-count-29"></rect></g><g><rect x="90.09090909090911" y="35.55555555555555" width="2" height="64.44444444444446" id="admissions-count-30"></rect></g><g><rect x="86.52727272727273" y="39.11111111111111" width="2" height="60.88888888888889" id="admissions-count-31"></rect></g><g><rect x="82.96363636363637" y="22.888888888888893" width="2" height="77.11111111111111" id="admissions-count-32"></rect></g><g><rect x="79.4" y="50.22222222222222" width="2" height="49.77777777777778" id="admissions-count-33"></rect></g><g><rect x="75.83636363636364" y="38" width="2" height="62" id="admissions-count-34"></rect></g><g><rect x="72.27272727272727" y="34.22222222222222" width="2" height="65.77777777777777" id="admissions-count-35"></rect></g><g><rect x="68.70909090909092" y="34.44444444444444" width="2" height="65.55555555555556" id="admissions-count-36"></rect></g><g><rect x="65.14545454545454" y="31.999999999999996" width="2" height="68" id="admissions-count-37"></rect></g><g><rect x="61.58181818181818" y="19.55555555555556" width="2" height="80.44444444444444" id="admissions-count-38"></rect></g><g><rect x="58.018181818181816" y="27.333333333333332" width="2" height="72.66666666666667" id="admissions-count-39"></rect></g><g><rect x="54.454545454545446" y="25.555555555555554" width="2" height="74.44444444444444" id="admissions-count-40"></rect></g><g><rect x="50.89090909090908" y="34.44444444444444" width="2" height="65.55555555555556" id="admissions-count-41"></rect></g><g><rect x="47.32727272727273" y="27.333333333333332" width="2" height="72.66666666666667" id="admissions-count-42"></rect></g><g><rect x="43.76363636363636" y="16.888888888888886" width="2" height="83.11111111111111" id="admissions-count-43"></rect></g><g><rect x="40.199999999999996" y="24.66666666666667" width="2" height="75.33333333333333" id="admissions-count-44"></rect></g><g><rect x="36.636363636363626" y="18.222222222222218" width="2" height="81.77777777777779" id="admissions-count-45"></rect></g><g><rect x="33.072727272727285" y="12" width="2" height="88" id="admissions-count-46"></rect></g><g><rect x="29.509090909090922" y="20.222222222222218" width="2" height="79.77777777777779" id="admissions-count-47"></rect></g><g><rect x="25.945454545454556" y="14.888888888888886" width="2" height="85.11111111111111" id="admissions-count-48"></rect></g><g><rect x="22.38181818181819" y="24" width="2" height="76" id="admissions-count-49"></rect></g><g><rect x="18.818181818181824" y="11.555555555555552" width="2" height="88.44444444444444" id="admissions-count-50"></rect></g><g><rect x="15.254545454545461" y="7.9999999999999964" width="2" height="92" id="admissions-count-51"></rect></g><g><rect x="11.690909090909095" y="6.444444444444441" width="2" height="93.55555555555556" id="admissions-count-52"></rect></g><g><rect x="8.12727272727273" y="8.888888888888891" width="2" height="91.11111111111111" id="admissions-count-53"></rect></g><g><rect x="4.563636363636365" y="25.111111111111107" width="2" height="74.88888888888889" id="admissions-count-54"></rect></g><g><rect x="1" y="18.000000000000004" width="2" height="82" id="admissions-count-55"></rect></g></g><g class="fg-line admissions-count" fill="none" stroke="#92c5de" stroke-width="2" stroke-linecap="round"><path d="M198,48.285714285714285L194.43636363636364,49.17460317460317L190.87272727272727,50.53968253968253L187.30909090909088,51.36507936507937L183.74545454545455,52.126984126984134L180.1818181818182,52.507936507936506L176.61818181818182,51.968253968253975L173.05454545454546,49.8095238095238L169.49090909090907,48.476190476190474L165.92727272727274,45.3015873015873L162.36363636363637,43.96825396825397L158.8,40.888888888888886L155.23636363636365,39.587301587301596L151.6727272727273,38.79365079365079L148.1090909090909,39.42857142857144L144.54545454545453,40.28571428571428L140.9818181818182,41.96825396825397L137.41818181818184,41.333333333333336L133.85454545454544,43.14285714285714L130.29090909090908,43.301587301587304L126.72727272727273,44.76190476190476L123.16363636363636,43.047619047619044L119.6,42.34920634920635L116.03636363636363,39.587301587301596L112.47272727272728,39.36507936507937L108.90909090909089,38.66666666666667L105.34545454545456,36.0952380952381L101.78181818181817,35.87301587301588L98.21818181818183,36.22222222222222L94.65454545454546,35.20634920634921L91.09090909090911,36.34920634920634L87.52727272727273,35.84126984126984L83.96363636363637,33.04761904761905L80.4,33.682539682539684L76.83636363636364,30.15873015873016L73.27272727272727,29.65079365079365L69.70909090909092,28.666666666666664L66.14545454545454,26.158730158730158L62.58181818181818,25.111111111111107L59.018181818181816,24.92063492063492L55.454545454545446,22.730158730158735L51.89090909090908,21.968253968253958L48.32727272727273,19.174603174603178L44.76363636363636,18.698412698412703L41.199999999999996,17.93650793650794L37.636363636363626,15.555555555555555L34.072727272727285,13.87301587301588L30.509090909090922,13.428571428571434L26.945454545454556,14.126984126984121L23.38181818181819,14.57142857142857L19.818181818181824,12.222222222222223L16.25454545454546,12.317460317460316L12.690909090909095,11.238095238095235L9.12727272727273,10.444444444444445L5.563636363636365,11.809523809523814L2,11.047619047619051"></path></g></svg>