<svg meta="{&quot;DATA_PUBLISHED_DATE&quot;:&quot;2023-08-02&quot;,&quot;RENDER_DATE&quot;:&quot;2023-08-02&quot;,&quot;FIRST_DATE&quot;:&quot;2023-06-04&quot;,&quot;LAST_DATE&quot;:&quot;2023-07-29&quot;}" xmlns="http://www.w3.org/2000/svg" viewBox="0,0,200,100"><g transform="translate(0,0)"></g><g class="fg-bars hospitalizations-count" fill="#00183f" stroke="none"><g><rect x="197" y="9.399999999999997" width="2" height="90.60000000000001" id="hospitalizations-count-0"></rect></g><g><rect x="193.43636363636364" y="6.599999999999994" width="2" height="93.4" id="hospitalizations-count-1"></rect></g><g><rect x="189.87272727272727" y="10.499999999999998" width="2" height="89.5" id="hospitalizations-count-2"></rect></g><g><rect x="186.30909090909088" y="17.600000000000005" width="2" height="82.39999999999999" id="hospitalizations-count-3"></rect></g><g><rect x="182.74545454545455" y="8.899999999999997" width="2" height="91.10000000000001" id="hospitalizations-count-4"></rect></g><g><rect x="179.1818181818182" y="13" width="2" height="87" id="hospitalizations-count-5"></rect></g><g><rect x="175.61818181818182" y="10.899999999999999" width="2" height="89.1" id="hospitalizations-count-6"></rect></g><g><rect x="172.05454545454546" y="13.700000000000001" width="2" height="86.3" id="hospitalizations-count-7"></rect></g><g><rect x="168.49090909090907" y="13.100000000000001" width="2" height="86.9" id="hospitalizations-count-8"></rect></g><g><rect x="164.92727272727274" y="14.200000000000001" width="2" height="85.8" id="hospitalizations-count-9"></rect></g><g><rect x="161.36363636363637" y="12.8" width="2" height="87.2" id="hospitalizations-count-10"></rect></g><g><rect x="157.8" y="9.999999999999998" width="2" height="90" id="hospitalizations-count-11"></rect></g><g><rect x="154.23636363636365" y="12" width="2" height="88" id="hospitalizations-count-12"></rect></g><g><rect x="150.6727272727273" y="11.7" width="2" height="88.3" id="hospitalizations-count-13"></rect></g><g><rect x="147.1090909090909" y="14.800000000000002" width="2" height="85.2" id="hospitalizations-count-14"></rect></g><g><rect x="143.54545454545453" y="14.3" width="2" height="85.7" id="hospitalizations-count-15"></rect></g><g><rect x="139.9818181818182" y="17.500000000000004" width="2" height="82.5" id="hospitalizations-count-16"></rect></g><g><rect x="136.41818181818184" y="8.299999999999997" width="2" height="91.7" id="hospitalizations-count-17"></rect></g><g><rect x="132.85454545454544" y="8.699999999999996" width="2" height="91.30000000000001" id="hospitalizations-count-18"></rect></g><g><rect x="129.29090909090908" y="15.100000000000001" width="2" height="84.9" id="hospitalizations-count-19"></rect></g><g><rect x="125.72727272727273" y="15.000000000000002" width="2" height="85" id="hospitalizations-count-20"></rect></g><g><rect x="122.16363636363636" y="18.999999999999993" width="2" height="81" id="hospitalizations-count-21"></rect></g><g><rect x="118.6" y="18.400000000000006" width="2" height="81.6" id="hospitalizations-count-22"></rect></g><g><rect x="115.03636363636363" y="18.600000000000005" width="2" height="81.39999999999999" id="hospitalizations-count-23"></rect></g><g><rect x="111.47272727272728" y="16.400000000000002" width="2" height="83.6" id="hospitalizations-count-24"></rect></g><g><rect x="107.90909090909089" y="31.899999999999995" width="2" height="68.10000000000001" id="hospitalizations-count-25"></rect></g><g><rect x="104.34545454545456" y="35.3" width="2" height="64.7" id="hospitalizations-count-26"></rect></g><g><rect x="100.78181818181817" y="42.6" width="2" height="57.4" id="hospitalizations-count-27"></rect></g><g><rect x="97.21818181818183" y="25.3" width="2" height="74.7" id="hospitalizations-count-28"></rect></g><g><rect x="93.65454545454546" y="24.9" width="2" height="75.1" id="hospitalizations-count-29"></rect></g><g><rect x="90.09090909090911" y="19.399999999999995" width="2" height="80.60000000000001" id="hospitalizations-count-30"></rect></g><g><rect x="86.52727272727273" y="18.999999999999993" width="2" height="81" id="hospitalizations-count-31"></rect></g><g><rect x="82.96363636363637" y="21.999999999999996" width="2" height="78" id="hospitalizations-count-32"></rect></g><g><rect x="79.4" y="20.799999999999997" width="2" height="79.2" id="hospitalizations-count-33"></rect></g><g><rect x="75.83636363636364" y="27.200000000000003" width="2" height="72.8" id="hospitalizations-count-34"></rect></g><g><rect x="72.27272727272727" y="21.499999999999996" width="2" height="78.5" id="hospitalizations-count-35"></rect></g><g><rect x="68.70909090909092" y="19.099999999999994" width="2" height="80.9" id="hospitalizations-count-36"></rect></g><g><rect x="65.14545454545454" y="21.699999999999996" width="2" height="78.30000000000001" id="hospitalizations-count-37"></rect></g><g><rect x="61.58181818181818" y="18.000000000000004" width="2" height="82" id="hospitalizations-count-38"></rect></g><g><rect x="58.018181818181816" y="18.799999999999994" width="2" height="81.2" id="hospitalizations-count-39"></rect></g><g><rect x="54.454545454545446" y="11.7" width="2" height="88.3" id="hospitalizations-count-40"></rect></g><g><rect x="50.89090909090908" y="11.399999999999999" width="2" height="88.6" id="hospitalizations-count-41"></rect></g><g><rect x="47.32727272727273" y="9.399999999999997" width="2" height="90.60000000000001" id="hospitalizations-count-42"></rect></g><g><rect x="43.76363636363636" y="12" width="2" height="88" id="hospitalizations-count-43"></rect></g><g><rect x="40.199999999999996" y="7.899999999999996" width="2" height="92.10000000000001" id="hospitalizations-count-44"></rect></g><g><rect x="36.636363636363626" y="8.999999999999996" width="2" height="91" id="hospitalizations-count-45"></rect></g><g><rect x="33.072727272727285" y="11.899999999999999" width="2" height="88.1" id="hospitalizations-count-46"></rect></g><g><rect x="29.509090909090922" y="8.199999999999996" width="2" height="91.80000000000001" id="hospitalizations-count-47"></rect></g><g><rect x="25.945454545454556" y="9.199999999999998" width="2" height="90.8" id="hospitalizations-count-48"></rect></g><g><rect x="22.38181818181819" y="11.6" width="2" height="88.4" id="hospitalizations-count-49"></rect></g><g><rect x="18.818181818181824" y="8.799999999999997" width="2" height="91.2" id="hospitalizations-count-50"></rect></g><g><rect x="15.254545454545461" y="7.099999999999995" width="2" height="92.9" id="hospitalizations-count-51"></rect></g><g><rect x="11.690909090909095" y="5.200000000000005" width="2" height="94.8" id="hospitalizations-count-52"></rect></g><g><rect x="8.12727272727273" y="3.400000000000003" width="2" height="96.6" id="hospitalizations-count-53"></rect></g><g><rect x="4.563636363636365" y="3.300000000000003" width="2" height="96.7" id="hospitalizations-count-54"></rect></g><g><rect x="1" y="6.2999999999999945" width="2" height="93.7" id="hospitalizations-count-55"></rect></g></g><g class="fg-line hospitalizations-count" fill="none" stroke="#92c5de" stroke-width="2" stroke-linecap="round"><path d="M198,10.985714285714288L194.43636363636364,11.6L190.87272727272727,12.528571428571434L187.30909090909088,13.057142857142857L183.74545454545455,12.371428571428567L180.1818181818182,12.528571428571434L176.61818181818182,12.38571428571429L173.05454545454546,12.5L169.49090909090907,12.657142857142855L165.92727272727274,12.828571428571433L162.36363636363637,13.3L158.8,12.657142857142855L155.23636363636365,12.471428571428566L151.6727272727273,12.914285714285711L148.1090909090909,13.38571428571429L144.54545454545453,13.985714285714291L140.9818181818182,14.57142857142857L137.41818181818184,14.728571428571435L133.85454545454544,15.885714285714291L130.29090909090908,19.199999999999996L126.72727272727273,22.085714285714285L123.16363636363636,26.028571428571436L119.6,26.928571428571434L116.03636363636363,27.857142857142858L112.47272727272728,27.971428571428568L108.90909090909089,28.34285714285715L105.34545454545456,26.928571428571434L101.78181818181817,24.857142857142854L98.21818181818183,22.657142857142855L94.65454545454546,22.114285714285707L91.09090909090911,21.285714285714285L87.52727272727273,21.614285714285707L83.96363636363637,21.471428571428564L80.4,21.01428571428571L76.83636363636364,19.714285714285708L73.27272727272727,17.45714285714286L69.70909090909092,15.728571428571437L66.14545454545454,14.714285714285714L62.58181818181818,12.742857142857144L59.018181818181816,11.457142857142856L55.454545454545446,10.471428571428564L51.89090909090908,9.971428571428564L48.32727272727273,9.657142857142853L44.76363636363636,9.971428571428564L41.199999999999996,9.514285714285709L37.636363636363626,9.399999999999997L34.072727272727285,8.857142857142852L30.509090909090922,7.642857142857141L26.945454545454556,6.9428571428571395L23.38181818181819,6.5285714285714285L19.818181818181824,5.871428571428572L16.25454545454546,5.285714285714294L12.690909090909095,4.600000000000004L9.12727272727273,3.414285714285714L5.563636363636365,2.842857142857147L2,2.957142857142858"></path></g></svg>