<svg meta="{&quot;DATA_PUBLISHED_DATE&quot;:&quot;2023-12-06&quot;,&quot;RENDER_DATE&quot;:&quot;2023-12-06&quot;,&quot;FIRST_DATE&quot;:&quot;2023-10-08&quot;,&quot;LAST_DATE&quot;:&quot;2023-12-02&quot;}" xmlns="http://www.w3.org/2000/svg" viewBox="0,0,200,100"><g transform="translate(0,0)"></g><g class="fg-bars hospitalizations-count" fill="#00183f" stroke="none"><g><rect x="197" y="11.555555555555552" width="2" height="88.44444444444444" id="hospitalizations-count-0"></rect></g><g><rect x="193.43636363636364" y="11.388888888888893" width="2" height="88.61111111111111" id="hospitalizations-count-1"></rect></g><g><rect x="189.87272727272727" y="9.444444444444445" width="2" height="90.55555555555556" id="hospitalizations-count-2"></rect></g><g><rect x="186.30909090909088" y="6.722222222222218" width="2" height="93.27777777777779" id="hospitalizations-count-3"></rect></g><g><rect x="182.74545454545455" y="6.6111111111111125" width="2" height="93.38888888888889" id="hospitalizations-count-4"></rect></g><g><rect x="179.1818181818182" y="6.388888888888888" width="2" height="93.61111111111111" id="hospitalizations-count-5"></rect></g><g><rect x="175.61818181818182" y="8.55555555555556" width="2" height="91.44444444444444" id="hospitalizations-count-6"></rect></g><g><rect x="172.05454545454546" y="13.888888888888884" width="2" height="86.11111111111111" id="hospitalizations-count-7"></rect></g><g><rect x="168.49090909090907" y="17.94444444444444" width="2" height="82.05555555555556" id="hospitalizations-count-8"></rect></g><g><rect x="164.92727272727274" y="18.88888888888889" width="2" height="81.11111111111111" id="hospitalizations-count-9"></rect></g><g><rect x="161.36363636363637" y="18.277777777777782" width="2" height="81.72222222222221" id="hospitalizations-count-10"></rect></g><g><rect x="157.8" y="17.11111111111111" width="2" height="82.88888888888889" id="hospitalizations-count-11"></rect></g><g><rect x="154.23636363636365" y="15.000000000000002" width="2" height="85" id="hospitalizations-count-12"></rect></g><g><rect x="150.6727272727273" y="18.000000000000004" width="2" height="82" id="hospitalizations-count-13"></rect></g><g><rect x="147.1090909090909" y="20.27777777777777" width="2" height="79.72222222222223" id="hospitalizations-count-14"></rect></g><g><rect x="143.54545454545453" y="19.333333333333336" width="2" height="80.66666666666666" id="hospitalizations-count-15"></rect></g><g><rect x="139.9818181818182" y="19.999999999999996" width="2" height="80" id="hospitalizations-count-16"></rect></g><g><rect x="136.41818181818184" y="22.05555555555555" width="2" height="77.94444444444446" id="hospitalizations-count-17"></rect></g><g><rect x="132.85454545454544" y="22.33333333333334" width="2" height="77.66666666666666" id="hospitalizations-count-18"></rect></g><g><rect x="129.29090909090908" y="24.888888888888893" width="2" height="75.11111111111111" id="hospitalizations-count-19"></rect></g><g><rect x="125.72727272727273" y="24.277777777777775" width="2" height="75.72222222222223" id="hospitalizations-count-20"></rect></g><g><rect x="122.16363636363636" y="27.222222222222225" width="2" height="72.77777777777777" id="hospitalizations-count-21"></rect></g><g><rect x="118.6" y="27" width="2" height="73" id="hospitalizations-count-22"></rect></g><g><rect x="115.03636363636363" y="29.94444444444444" width="2" height="70.05555555555556" id="hospitalizations-count-23"></rect></g><g><rect x="111.47272727272728" y="33.38888888888889" width="2" height="66.61111111111111" id="hospitalizations-count-24"></rect></g><g><rect x="107.90909090909089" y="24.72222222222222" width="2" height="75.27777777777777" id="hospitalizations-count-25"></rect></g><g><rect x="104.34545454545456" y="29.000000000000004" width="2" height="71" id="hospitalizations-count-26"></rect></g><g><rect x="100.78181818181817" y="29.777777777777782" width="2" height="70.22222222222221" id="hospitalizations-count-27"></rect></g><g><rect x="97.21818181818183" y="33.94444444444444" width="2" height="66.05555555555556" id="hospitalizations-count-28"></rect></g><g><rect x="93.65454545454546" y="35.111111111111114" width="2" height="64.88888888888889" id="hospitalizations-count-29"></rect></g><g><rect x="90.09090909090911" y="36.05555555555555" width="2" height="63.94444444444445" id="hospitalizations-count-30"></rect></g><g><rect x="86.52727272727273" y="36" width="2" height="64" id="hospitalizations-count-31"></rect></g><g><rect x="82.96363636363637" y="32.833333333333336" width="2" height="67.16666666666666" id="hospitalizations-count-32"></rect></g><g><rect x="79.4" y="34.44444444444444" width="2" height="65.55555555555556" id="hospitalizations-count-33"></rect></g><g><rect x="75.83636363636364" y="33.22222222222222" width="2" height="66.77777777777777" id="hospitalizations-count-34"></rect></g><g><rect x="72.27272727272727" y="34.22222222222222" width="2" height="65.77777777777777" id="hospitalizations-count-35"></rect></g><g><rect x="68.70909090909092" y="32.77777777777777" width="2" height="67.22222222222223" id="hospitalizations-count-36"></rect></g><g><rect x="65.14545454545454" y="34.611111111111114" width="2" height="65.38888888888889" id="hospitalizations-count-37"></rect></g><g><rect x="61.58181818181818" y="29.166666666666664" width="2" height="70.83333333333334" id="hospitalizations-count-38"></rect></g><g><rect x="58.018181818181816" y="27.388888888888886" width="2" height="72.61111111111111" id="hospitalizations-count-39"></rect></g><g><rect x="54.454545454545446" y="27.111111111111107" width="2" height="72.88888888888889" id="hospitalizations-count-40"></rect></g><g><rect x="50.89090909090908" y="24.83333333333333" width="2" height="75.16666666666667" id="hospitalizations-count-41"></rect></g><g><rect x="47.32727272727273" y="26.833333333333332" width="2" height="73.16666666666667" id="hospitalizations-count-42"></rect></g><g><rect x="43.76363636363636" y="25.27777777777778" width="2" height="74.72222222222223" id="hospitalizations-count-43"></rect></g><g><rect x="40.199999999999996" y="26.27777777777778" width="2" height="73.72222222222223" id="hospitalizations-count-44"></rect></g><g><rect x="36.636363636363626" y="25" width="2" height="75" id="hospitalizations-count-45"></rect></g><g><rect x="33.072727272727285" y="24.777777777777775" width="2" height="75.22222222222223" id="hospitalizations-count-46"></rect></g><g><rect x="29.509090909090922" y="26.222222222222225" width="2" height="73.77777777777777" id="hospitalizations-count-47"></rect></g><g><rect x="25.945454545454556" y="25.944444444444446" width="2" height="74.05555555555556" id="hospitalizations-count-48"></rect></g><g><rect x="22.38181818181819" y="25.83333333333333" width="2" height="74.16666666666667" id="hospitalizations-count-49"></rect></g><g><rect x="18.818181818181824" y="23.166666666666668" width="2" height="76.83333333333333" id="hospitalizations-count-50"></rect></g><g><rect x="15.254545454545461" y="21.888888888888893" width="2" height="78.11111111111111" id="hospitalizations-count-51"></rect></g><g><rect x="11.690909090909095" y="22.111111111111114" width="2" height="77.88888888888889" id="hospitalizations-count-52"></rect></g><g><rect x="8.12727272727273" y="20.222222222222218" width="2" height="79.77777777777779" id="hospitalizations-count-53"></rect></g><g><rect x="4.563636363636365" y="18.833333333333336" width="2" height="81.16666666666666" id="hospitalizations-count-54"></rect></g><g><rect x="1" y="15.888888888888886" width="2" height="84.11111111111111" id="hospitalizations-count-55"></rect></g></g><g class="fg-line hospitalizations-count" fill="none" stroke="#92c5de" stroke-width="2" stroke-linecap="round"><path d="M198,8.666666666666668L194.43636363636364,8.999999999999996L190.87272727272727,9.936507936507944L187.30909090909088,11.285714285714288L183.74545454545455,12.936507936507935L180.1818181818182,14.436507936507937L176.61818181818182,15.666666666666663L173.05454545454546,17.01587301587302L169.49090909090907,17.928571428571427L165.92727272727274,18.126984126984127L162.36363636363637,18.285714285714285L158.8,18.825396825396822L155.23636363636365,19.571428571428573L151.6727272727273,20.984126984126984L148.1090909090909,21.88095238095238L144.54545454545453,22.873015873015877L140.9818181818182,23.96825396825396L137.41818181818184,25.388888888888893L133.85454545454544,27.007936507936503L130.29090909090908,27.349206349206344L126.72727272727273,27.936507936507937L123.16363636363636,28.72222222222223L119.6,29.682539682539677L116.03636363636363,30.841269841269835L112.47272727272728,31.714285714285715L108.90909090909089,32.087301587301596L105.34545454545456,33.24603174603175L101.78181818181817,34.023809523809526L98.21818181818183,34.51587301587301L94.65454545454546,34.55555555555555L91.09090909090911,34.22222222222222L87.52727272727273,34.01587301587301L83.96363636363637,33.039682539682545L80.4,32.261904761904766L76.83636363636364,31.214285714285715L73.27272727272727,30.015873015873005L69.70909090909092,28.96031746031745L66.14545454545454,27.888888888888886L62.58181818181818,26.6984126984127L59.018181818181816,26.103174603174605L55.454545454545446,25.730158730158724L51.89090909090908,25.603174603174605L48.32727272727273,25.761904761904763L44.76363636363636,25.61904761904762L41.199999999999996,25.317460317460316L37.636363636363626,24.690476190476186L34.072727272727285,24.277777777777775L30.509090909090922,23.62698412698412L26.945454545454556,22.571428571428566L23.38181818181819,21.13492063492063L19.818181818181824,19.88888888888889L16.25454545454546,18.428571428571427L12.690909090909095,17.753968253968257L9.12727272727273,17.000000000000004L5.563636363636365,15.777777777777779L2,15.98412698412699"></path></g></svg>