<svg meta="{&quot;DATA_PUBLISHED_DATE&quot;:&quot;2023-09-20&quot;,&quot;RENDER_DATE&quot;:&quot;2023-09-20&quot;,&quot;FIRST_DATE&quot;:&quot;2023-07-23&quot;,&quot;LAST_DATE&quot;:&quot;2023-09-16&quot;}" xmlns="http://www.w3.org/2000/svg" viewBox="0,0,200,100"><g transform="translate(0,0)"></g><g class="fg-bars admissions-count" fill="#00183f" stroke="none"><g><rect x="197" y="39.800000000000004" width="2" height="60.199999999999996" id="admissions-count-0"></rect></g><g><rect x="193.43636363636364" y="22.4" width="2" height="77.6" id="admissions-count-1"></rect></g><g><rect x="189.87272727272727" y="20.199999999999996" width="2" height="79.80000000000001" id="admissions-count-2"></rect></g><g><rect x="186.30909090909088" y="18.999999999999993" width="2" height="81" id="admissions-count-3"></rect></g><g><rect x="182.74545454545455" y="20.599999999999994" width="2" height="79.4" id="admissions-count-4"></rect></g><g><rect x="179.1818181818182" y="34.599999999999994" width="2" height="65.4" id="admissions-count-5"></rect></g><g><rect x="175.61818181818182" y="28.000000000000004" width="2" height="72" id="admissions-count-6"></rect></g><g><rect x="172.05454545454546" y="18.200000000000006" width="2" height="81.8" id="admissions-count-7"></rect></g><g><rect x="168.49090909090907" y="22.799999999999997" width="2" height="77.2" id="admissions-count-8"></rect></g><g><rect x="164.92727272727274" y="11.399999999999999" width="2" height="88.6" id="admissions-count-9"></rect></g><g><rect x="161.36363636363637" y="11.6" width="2" height="88.4" id="admissions-count-10"></rect></g><g><rect x="157.8" y="27.400000000000002" width="2" height="72.6" id="admissions-count-11"></rect></g><g><rect x="154.23636363636365" y="28.6" width="2" height="71.4" id="admissions-count-12"></rect></g><g><rect x="150.6727272727273" y="18.000000000000004" width="2" height="82" id="admissions-count-13"></rect></g><g><rect x="147.1090909090909" y="22.599999999999998" width="2" height="77.4" id="admissions-count-14"></rect></g><g><rect x="143.54545454545453" y="21.199999999999996" width="2" height="78.80000000000001" id="admissions-count-15"></rect></g><g><rect x="139.9818181818182" y="14.800000000000002" width="2" height="85.2" id="admissions-count-16"></rect></g><g><rect x="136.41818181818184" y="9.399999999999997" width="2" height="90.60000000000001" id="admissions-count-17"></rect></g><g><rect x="132.85454545454544" y="13.600000000000001" width="2" height="86.4" id="admissions-count-18"></rect></g><g><rect x="129.29090909090908" y="31.200000000000006" width="2" height="68.8" id="admissions-count-19"></rect></g><g><rect x="125.72727272727273" y="29.000000000000004" width="2" height="71" id="admissions-count-20"></rect></g><g><rect x="122.16363636363636" y="22.599999999999998" width="2" height="77.4" id="admissions-count-21"></rect></g><g><rect x="118.6" y="12.8" width="2" height="87.2" id="admissions-count-22"></rect></g><g><rect x="115.03636363636363" y="22.4" width="2" height="77.6" id="admissions-count-23"></rect></g><g><rect x="111.47272727272728" y="20.999999999999996" width="2" height="79" id="admissions-count-24"></rect></g><g><rect x="107.90909090909089" y="19.399999999999995" width="2" height="80.60000000000001" id="admissions-count-25"></rect></g><g><rect x="104.34545454545456" y="38.6" width="2" height="61.4" id="admissions-count-26"></rect></g><g><rect x="100.78181818181817" y="32.8" width="2" height="67.2" id="admissions-count-27"></rect></g><g><rect x="97.21818181818183" y="35.4" width="2" height="64.6" id="admissions-count-28"></rect></g><g><rect x="93.65454545454546" y="33.4" width="2" height="66.6" id="admissions-count-29"></rect></g><g><rect x="90.09090909090911" y="28.6" width="2" height="71.4" id="admissions-count-30"></rect></g><g><rect x="86.52727272727273" y="24.2" width="2" height="75.8" id="admissions-count-31"></rect></g><g><rect x="82.96363636363637" y="25.8" width="2" height="74.2" id="admissions-count-32"></rect></g><g><rect x="79.4" y="33.8" width="2" height="66.2" id="admissions-count-33"></rect></g><g><rect x="75.83636363636364" y="41.2" width="2" height="58.8" id="admissions-count-34"></rect></g><g><rect x="72.27272727272727" y="25.8" width="2" height="74.2" id="admissions-count-35"></rect></g><g><rect x="68.70909090909092" y="45.599999999999994" width="2" height="54.400000000000006" id="admissions-count-36"></rect></g><g><rect x="65.14545454545454" y="42.400000000000006" width="2" height="57.599999999999994" id="admissions-count-37"></rect></g><g><rect x="61.58181818181818" y="37.6" width="2" height="62.4" id="admissions-count-38"></rect></g><g><rect x="58.018181818181816" y="50" width="2" height="50" id="admissions-count-39"></rect></g><g><rect x="54.454545454545446" y="48.199999999999996" width="2" height="51.800000000000004" id="admissions-count-40"></rect></g><g><rect x="50.89090909090908" y="44.8" width="2" height="55.2" id="admissions-count-41"></rect></g><g><rect x="47.32727272727273" y="48.199999999999996" width="2" height="51.800000000000004" id="admissions-count-42"></rect></g><g><rect x="43.76363636363636" y="49.4" width="2" height="50.6" id="admissions-count-43"></rect></g><g><rect x="40.199999999999996" y="50.4" width="2" height="49.6" id="admissions-count-44"></rect></g><g><rect x="36.636363636363626" y="46.599999999999994" width="2" height="53.400000000000006" id="admissions-count-45"></rect></g><g><rect x="33.072727272727285" y="50.2" width="2" height="49.8" id="admissions-count-46"></rect></g><g><rect x="29.509090909090922" y="62.2" width="2" height="37.8" id="admissions-count-47"></rect></g><g><rect x="25.945454545454556" y="57.60000000000001" width="2" height="42.39999999999999" id="admissions-count-48"></rect></g><g><rect x="22.38181818181819" y="56.2" width="2" height="43.8" id="admissions-count-49"></rect></g><g><rect x="18.818181818181824" y="53.800000000000004" width="2" height="46.199999999999996" id="admissions-count-50"></rect></g><g><rect x="15.254545454545461" y="59.4" width="2" height="40.6" id="admissions-count-51"></rect></g><g><rect x="11.690909090909095" y="62.8" width="2" height="37.2" id="admissions-count-52"></rect></g><g><rect x="8.12727272727273" y="54.6" width="2" height="45.4" id="admissions-count-53"></rect></g><g><rect x="4.563636363636365" y="60" width="2" height="40" id="admissions-count-54"></rect></g><g><rect x="1" y="65.8" width="2" height="34.2" id="admissions-count-55"></rect></g></g><g class="fg-line admissions-count" fill="none" stroke="#92c5de" stroke-width="2" stroke-linecap="round"><path d="M198,26.371428571428567L194.43636363636364,23.28571428571429L190.87272727272727,23.34285714285714L187.30909090909088,22.085714285714285L183.74545454545455,21.02857142857143L180.1818181818182,21.999999999999996L176.61818181818182,21.142857142857142L173.05454545454546,19.714285714285708L169.49090909090907,20.34285714285714L165.92727272727274,20.114285714285707L162.36363636363637,20.599999999999994L158.8,20.285714285714285L155.23636363636365,18.314285714285717L151.6727272727273,18.685714285714294L148.1090909090909,20.257142857142853L144.54545454545453,20.257142857142853L140.9818181818182,19.05714285714285L137.41818181818184,20.14285714285714L133.85454545454544,21.799999999999997L130.29090909090908,22.62857142857143L126.72727272727273,23.685714285714287L123.16363636363636,24.22857142857143L119.6,26.057142857142857L116.03636363636363,29.000000000000004L112.47272727272728,29.885714285714293L108.90909090909089,30.34285714285715L105.34545454545456,31.25714285714285L101.78181818181817,30.571428571428573L98.21818181818183,31.77142857142856L94.65454545454546,30.400000000000006L91.09090909090911,32.14285714285714L87.52727272727273,34.11428571428571L83.96363636363637,36.02857142857143L80.4,39.48571428571429L76.83636363636364,41.542857142857144L73.27272727272727,42.05714285714286L69.70909090909092,45.25714285714285L66.14545454545454,45.8L62.58181818181818,46.94285714285714L59.018181818181816,48.228571428571435L55.454545454545446,48.25714285714285L51.89090909090908,50.25714285714285L48.32727272727273,52.08571428571429L44.76363636363636,53.22857142857143L41.199999999999996,53.85714285714285L37.636363636363626,55.14285714285714L34.072727272727285,57.45714285714285L30.509090909090922,58.08571428571428L26.945454545454556,57.77142857142857L23.38181818181819,58.94285714285714L19.818181818181824,59.91428571428572L16.25454545454546,60.97142857142857L12.690909090909095,61.74285714285715L9.12727272727273,61.02857142857143L5.563636363636365,61.085714285714275L2,62.085714285714275"></path></g></svg>