<svg meta="{&quot;DATA_PUBLISHED_DATE&quot;:&quot;2023-08-09&quot;,&quot;RENDER_DATE&quot;:&quot;2023-08-09&quot;,&quot;FIRST_DATE&quot;:&quot;2023-05-23&quot;,&quot;LAST_DATE&quot;:&quot;2023-07-17&quot;}" xmlns="http://www.w3.org/2000/svg" viewBox="0,0,200,100"><g transform="translate(0,0)"></g><g class="fg-bars death-date" fill="#00183f" stroke="none"><g><rect x="197" y="38.888888888888886" width="2" height="61.111111111111114" id="death-date-0"></rect></g><g><rect x="193.43636363636364" y="55.55555555555556" width="2" height="44.44444444444444" id="death-date-1"></rect></g><g><rect x="189.87272727272727" y="61.111111111111114" width="2" height="38.888888888888886" id="death-date-2"></rect></g><g><rect x="186.30909090909088" y="66.66666666666667" width="2" height="33.33333333333333" id="death-date-3"></rect></g><g><rect x="182.74545454545455" y="72.22222222222221" width="2" height="27.777777777777786" id="death-date-4"></rect></g><g><rect x="179.1818181818182" y="22.22222222222222" width="2" height="77.77777777777777" id="death-date-5"></rect></g><g><rect x="175.61818181818182" y="50" width="2" height="50" id="death-date-6"></rect></g><g><rect x="172.05454545454546" y="50" width="2" height="50" id="death-date-7"></rect></g><g><rect x="168.49090909090907" y="38.888888888888886" width="2" height="61.111111111111114" id="death-date-8"></rect></g><g><rect x="164.92727272727274" y="38.888888888888886" width="2" height="61.111111111111114" id="death-date-9"></rect></g><g><rect x="161.36363636363637" y="72.22222222222221" width="2" height="27.777777777777786" id="death-date-10"></rect></g><g><rect x="157.8" y="77.77777777777779" width="2" height="22.222222222222214" id="death-date-11"></rect></g><g><rect x="154.23636363636365" y="72.22222222222221" width="2" height="27.777777777777786" id="death-date-12"></rect></g><g><rect x="150.6727272727273" y="38.888888888888886" width="2" height="61.111111111111114" id="death-date-13"></rect></g><g><rect x="147.1090909090909" y="72.22222222222221" width="2" height="27.777777777777786" id="death-date-14"></rect></g><g><rect x="143.54545454545453" y="55.55555555555556" width="2" height="44.44444444444444" id="death-date-15"></rect></g><g><rect x="139.9818181818182" y="44.44444444444444" width="2" height="55.55555555555556" id="death-date-16"></rect></g><g><rect x="136.41818181818184" y="50" width="2" height="50" id="death-date-17"></rect></g><g><rect x="132.85454545454544" y="55.55555555555556" width="2" height="44.44444444444444" id="death-date-18"></rect></g><g><rect x="129.29090909090908" y="33.333333333333336" width="2" height="66.66666666666666" id="death-date-19"></rect></g><g><rect x="125.72727272727273" y="66.66666666666667" width="2" height="33.33333333333333" id="death-date-20"></rect></g><g><rect x="122.16363636363636" y="55.55555555555556" width="2" height="44.44444444444444" id="death-date-21"></rect></g><g><rect x="118.6" y="77.77777777777779" width="2" height="22.222222222222214" id="death-date-22"></rect></g><g><rect x="115.03636363636363" y="27.77777777777778" width="2" height="72.22222222222223" id="death-date-23"></rect></g><g><rect x="111.47272727272728" y="27.77777777777778" width="2" height="72.22222222222223" id="death-date-24"></rect></g><g><rect x="107.90909090909089" y="72.22222222222221" width="2" height="27.777777777777786" id="death-date-25"></rect></g><g><rect x="104.34545454545456" y="16.666666666666664" width="2" height="83.33333333333334" id="death-date-26"></rect></g><g><rect x="100.78181818181817" y="50" width="2" height="50" id="death-date-27"></rect></g><g><rect x="97.21818181818183" y="27.77777777777778" width="2" height="72.22222222222223" id="death-date-28"></rect></g><g><rect x="93.65454545454546" y="55.55555555555556" width="2" height="44.44444444444444" id="death-date-29"></rect></g><g><rect x="90.09090909090911" y="33.333333333333336" width="2" height="66.66666666666666" id="death-date-30"></rect></g><g><rect x="86.52727272727273" y="77.77777777777779" width="2" height="22.222222222222214" id="death-date-31"></rect></g><g><rect x="82.96363636363637" y="55.55555555555556" width="2" height="44.44444444444444" id="death-date-32"></rect></g><g><rect x="79.4" y="11.111111111111116" width="2" height="88.88888888888889" id="death-date-33"></rect></g><g><rect x="75.83636363636364" y="66.66666666666667" width="2" height="33.33333333333333" id="death-date-34"></rect></g><g><rect x="72.27272727272727" y="61.111111111111114" width="2" height="38.888888888888886" id="death-date-35"></rect></g><g><rect x="68.70909090909092" y="66.66666666666667" width="2" height="33.33333333333333" id="death-date-36"></rect></g><g><rect x="65.14545454545454" y="44.44444444444444" width="2" height="55.55555555555556" id="death-date-37"></rect></g><g><rect x="61.58181818181818" y="61.111111111111114" width="2" height="38.888888888888886" id="death-date-38"></rect></g><g><rect x="58.018181818181816" y="38.888888888888886" width="2" height="61.111111111111114" id="death-date-39"></rect></g><g><rect x="54.454545454545446" y="38.888888888888886" width="2" height="61.111111111111114" id="death-date-40"></rect></g><g><rect x="50.89090909090908" y="44.44444444444444" width="2" height="55.55555555555556" id="death-date-41"></rect></g><g><rect x="47.32727272727273" y="44.44444444444444" width="2" height="55.55555555555556" id="death-date-42"></rect></g><g><rect x="43.76363636363636" y="50" width="2" height="50" id="death-date-43"></rect></g><g><rect x="40.199999999999996" y="16.666666666666664" width="2" height="83.33333333333334" id="death-date-44"></rect></g><g><rect x="36.636363636363626" y="33.333333333333336" width="2" height="66.66666666666666" id="death-date-45"></rect></g><g><rect x="33.072727272727285" y="50" width="2" height="50" id="death-date-46"></rect></g><g><rect x="29.509090909090922" y="33.333333333333336" width="2" height="66.66666666666666" id="death-date-47"></rect></g><g><rect x="25.945454545454556" y="33.333333333333336" width="2" height="66.66666666666666" id="death-date-48"></rect></g><g><rect x="22.38181818181819" y="5.555555555555558" width="2" height="94.44444444444444" id="death-date-49"></rect></g><g><rect x="18.818181818181824" y="66.66666666666667" width="2" height="33.33333333333333" id="death-date-50"></rect></g><g><rect x="15.254545454545461" y="27.77777777777778" width="2" height="72.22222222222223" id="death-date-51"></rect></g><g><rect x="11.690909090909095" y="16.666666666666664" width="2" height="83.33333333333334" id="death-date-52"></rect></g><g><rect x="8.12727272727273" y="66.66666666666667" width="2" height="33.33333333333333" id="death-date-53"></rect></g><g><rect x="4.563636363636365" y="27.77777777777778" width="2" height="72.22222222222223" id="death-date-54"></rect></g><g><rect x="1" y="38.888888888888886" width="2" height="61.111111111111114" id="death-date-55"></rect></g></g><g class="fg-line death-date" fill="none" stroke="#92c5de" stroke-width="2" stroke-linecap="round"><path d="M198,52.38095238095239L194.43636363636364,53.96825396825397L190.87272727272727,51.587301587301596L187.30909090909088,48.412698412698404L183.74545454545455,49.20634920634921L180.1818181818182,50L176.61818181818182,57.14285714285714L173.05454545454546,55.55555555555556L169.49090909090907,58.73015873015872L165.92727272727274,61.111111111111114L162.36363636363637,61.904761904761905L158.8,58.73015873015872L155.23636363636365,55.55555555555556L151.6727272727273,50L148.1090909090909,53.96825396825397L144.54545454545453,51.587301587301596L140.9818181818182,54.761904761904766L137.41818181818184,52.38095238095239L133.85454545454544,49.20634920634921L130.29090909090908,51.587301587301596L126.72727272727273,49.20634920634921L123.16363636363636,46.82539682539682L119.6,42.85714285714285L116.03636363636363,39.68253968253968L112.47272727272728,40.476190476190474L108.90909090909089,47.61904761904761L105.34545454545456,45.238095238095234L101.78181818181817,44.44444444444444L98.21818181818183,46.82539682539682L94.65454545454546,51.587301587301596L91.09090909090911,53.17460317460318L87.52727272727273,54.761904761904766L83.96363636363637,52.38095238095239L80.4,50L76.83636363636364,53.96825396825397L73.27272727272727,50.79365079365079L69.70909090909092,48.412698412698404L66.14545454545454,46.03174603174603L62.58181818181818,42.063492063492056L59.018181818181816,38.095238095238095L55.454545454545446,39.68253968253968L51.89090909090908,38.888888888888886L48.32727272727273,37.301587301587304L44.76363636363636,31.746031746031743L41.199999999999996,34.12698412698413L37.636363636363626,35.71428571428572L34.072727272727285,33.333333333333336L30.509090909090922,35.71428571428572L26.945454545454556,34.92063492063493L23.38181818181819,35.71428571428572L19.818181818181824,36.50793650793651L16.25454545454546,25.396825396825395L12.690909090909095,29.36507936507937L9.12727272727273,35.71428571428572L5.563636363636365,29.36507936507937L2,33.333333333333336"></path></g></svg>