<svg meta="{&quot;DATA_PUBLISHED_DATE&quot;:&quot;2023-12-28&quot;,&quot;RENDER_DATE&quot;:&quot;2024-01-03&quot;,&quot;FIRST_DATE&quot;:&quot;2023-10-29&quot;,&quot;LAST_DATE&quot;:&quot;2023-12-23&quot;}" xmlns="http://www.w3.org/2000/svg" viewBox="0,0,200,100"><g transform="translate(0,0)"></g><g class="fg-bars hospitalizations-count" fill="#00183f" stroke="none"><g><rect x="197" y="19.899999999999995" width="2" height="80.10000000000001" id="hospitalizations-count-0"></rect></g><g><rect x="193.43636363636364" y="3.049999999999997" width="2" height="96.95" id="hospitalizations-count-1"></rect></g><g><rect x="189.87272727272727" y="3.4499999999999975" width="2" height="96.55" id="hospitalizations-count-2"></rect></g><g><rect x="186.30909090909088" y="2.7000000000000024" width="2" height="97.3" id="hospitalizations-count-3"></rect></g><g><rect x="182.74545454545455" y="3.5499999999999976" width="2" height="96.45" id="hospitalizations-count-4"></rect></g><g><rect x="179.1818181818182" y="6.499999999999995" width="2" height="93.5" id="hospitalizations-count-5"></rect></g><g><rect x="175.61818181818182" y="8.099999999999996" width="2" height="91.9" id="hospitalizations-count-6"></rect></g><g><rect x="172.05454545454546" y="1.100000000000001" width="2" height="98.9" id="hospitalizations-count-7"></rect></g><g><rect x="168.49090909090907" y="2.0000000000000018" width="2" height="98" id="hospitalizations-count-8"></rect></g><g><rect x="164.92727272727274" y="0.649999999999995" width="2" height="99.35000000000001" id="hospitalizations-count-9"></rect></g><g><rect x="161.36363636363637" y="2.6000000000000023" width="2" height="97.39999999999999" id="hospitalizations-count-10"></rect></g><g><rect x="157.8" y="4.349999999999998" width="2" height="95.65" id="hospitalizations-count-11"></rect></g><g><rect x="154.23636363636365" y="6.799999999999995" width="2" height="93.2" id="hospitalizations-count-12"></rect></g><g><rect x="150.6727272727273" y="6.8500000000000005" width="2" height="93.15" id="hospitalizations-count-13"></rect></g><g><rect x="147.1090909090909" y="11.550000000000004" width="2" height="88.44999999999999" id="hospitalizations-count-14"></rect></g><g><rect x="143.54545454545453" y="8.999999999999996" width="2" height="91" id="hospitalizations-count-15"></rect></g><g><rect x="139.9818181818182" y="7.499999999999996" width="2" height="92.5" id="hospitalizations-count-16"></rect></g><g><rect x="136.41818181818184" y="8.950000000000003" width="2" height="91.05" id="hospitalizations-count-17"></rect></g><g><rect x="132.85454545454544" y="9.199999999999998" width="2" height="90.8" id="hospitalizations-count-18"></rect></g><g><rect x="129.29090909090908" y="11.250000000000004" width="2" height="88.75" id="hospitalizations-count-19"></rect></g><g><rect x="125.72727272727273" y="14.700000000000003" width="2" height="85.3" id="hospitalizations-count-20"></rect></g><g><rect x="122.16363636363636" y="16.400000000000002" width="2" height="83.6" id="hospitalizations-count-21"></rect></g><g><rect x="118.6" y="16.349999999999998" width="2" height="83.65" id="hospitalizations-count-22"></rect></g><g><rect x="115.03636363636363" y="14.100000000000001" width="2" height="85.9" id="hospitalizations-count-23"></rect></g><g><rect x="111.47272727272728" y="12" width="2" height="88" id="hospitalizations-count-24"></rect></g><g><rect x="107.90909090909089" y="13" width="2" height="87" id="hospitalizations-count-25"></rect></g><g><rect x="104.34545454545456" y="14.549999999999997" width="2" height="85.45" id="hospitalizations-count-26"></rect></g><g><rect x="100.78181818181817" y="17.15" width="2" height="82.85" id="hospitalizations-count-27"></rect></g><g><rect x="97.21818181818183" y="21.999999999999996" width="2" height="78" id="hospitalizations-count-28"></rect></g><g><rect x="93.65454545454546" y="25.749999999999996" width="2" height="74.25" id="hospitalizations-count-29"></rect></g><g><rect x="90.09090909090911" y="26.6" width="2" height="73.4" id="hospitalizations-count-30"></rect></g><g><rect x="86.52727272727273" y="25.949999999999996" width="2" height="74.05000000000001" id="hospitalizations-count-31"></rect></g><g><rect x="82.96363636363637" y="25" width="2" height="75" id="hospitalizations-count-32"></rect></g><g><rect x="79.4" y="23.250000000000004" width="2" height="76.75" id="hospitalizations-count-33"></rect></g><g><rect x="75.83636363636364" y="26" width="2" height="74" id="hospitalizations-count-34"></rect></g><g><rect x="72.27272727272727" y="28.049999999999997" width="2" height="71.95" id="hospitalizations-count-35"></rect></g><g><rect x="68.70909090909092" y="27.3" width="2" height="72.7" id="hospitalizations-count-36"></rect></g><g><rect x="65.14545454545454" y="27.900000000000002" width="2" height="72.1" id="hospitalizations-count-37"></rect></g><g><rect x="61.58181818181818" y="29.700000000000003" width="2" height="70.3" id="hospitalizations-count-38"></rect></g><g><rect x="58.018181818181816" y="30.000000000000004" width="2" height="70" id="hospitalizations-count-39"></rect></g><g><rect x="54.454545454545446" y="32.25" width="2" height="67.75" id="hospitalizations-count-40"></rect></g><g><rect x="50.89090909090908" y="31.75" width="2" height="68.25" id="hospitalizations-count-41"></rect></g><g><rect x="47.32727272727273" y="34.35" width="2" height="65.65" id="hospitalizations-count-42"></rect></g><g><rect x="43.76363636363636" y="34.199999999999996" width="2" height="65.80000000000001" id="hospitalizations-count-43"></rect></g><g><rect x="40.199999999999996" y="36.85000000000001" width="2" height="63.14999999999999" id="hospitalizations-count-44"></rect></g><g><rect x="36.636363636363626" y="40.05" width="2" height="59.95" id="hospitalizations-count-45"></rect></g><g><rect x="33.072727272727285" y="32.199999999999996" width="2" height="67.80000000000001" id="hospitalizations-count-46"></rect></g><g><rect x="29.509090909090922" y="36" width="2" height="64" id="hospitalizations-count-47"></rect></g><g><rect x="25.945454545454556" y="36.650000000000006" width="2" height="63.349999999999994" id="hospitalizations-count-48"></rect></g><g><rect x="22.38181818181819" y="40.349999999999994" width="2" height="59.650000000000006" id="hospitalizations-count-49"></rect></g><g><rect x="18.818181818181824" y="41.300000000000004" width="2" height="58.699999999999996" id="hospitalizations-count-50"></rect></g><g><rect x="15.254545454545461" y="42.300000000000004" width="2" height="57.699999999999996" id="hospitalizations-count-51"></rect></g><g><rect x="11.690909090909095" y="42.25" width="2" height="57.75" id="hospitalizations-count-52"></rect></g><g><rect x="8.12727272727273" y="39.449999999999996" width="2" height="60.550000000000004" id="hospitalizations-count-53"></rect></g><g><rect x="4.563636363636365" y="40.800000000000004" width="2" height="59.199999999999996" id="hospitalizations-count-54"></rect></g><g><rect x="1" y="39.7" width="2" height="60.3" id="hospitalizations-count-55"></rect></g></g><g class="fg-line hospitalizations-count" fill="none" stroke="#92c5de" stroke-width="2" stroke-linecap="round"><path d="M198,6.75L194.43636363636364,4.06428571428571L190.87272727272727,3.9142857142857146L187.30909090909088,3.5142857142857142L183.74545454545455,3.500000000000003L180.1818181818182,3.6142857142857143L176.61818181818182,3.657142857142859L173.05454545454546,3.478571428571431L169.49090909090907,4.9714285714285715L165.92727272727274,5.9714285714285715L162.36363636363637,6.950000000000001L158.8,7.857142857142851L155.23636363636365,8.550000000000002L151.6727272727273,9.185714285714287L148.1090909090909,10.307142857142859L144.54545454545453,10.999999999999998L140.9818181818182,12.050000000000004L137.41818181818184,12.99285714285714L133.85454545454544,13.428571428571434L130.29090909090908,13.971428571428568L126.72727272727273,14.442857142857147L123.16363636363636,14.792857142857141L119.6,15.592857142857142L116.03636363636363,16.935714285714287L112.47272727272728,18.721428571428568L108.90909090909089,20.714285714285708L105.34545454545456,22.42857142857143L101.78181818181817,23.671428571428564L98.21818181818183,24.935714285714294L94.65454545454546,25.8L91.09090909090911,26.02142857142856L87.52727272727273,26.207142857142852L83.96363636363637,26.742857142857147L80.4,27.45714285714286L76.83636363636364,28.742857142857147L73.27272727272727,29.56428571428571L69.70909090909092,30.46428571428571L66.14545454545454,31.45L62.58181818181818,32.72857142857143L59.018181818181816,34.207142857142856L55.454545454545446,34.52142857142857L51.89090909090908,35.05714285714285L48.32727272727273,35.75714285714285L44.76363636363636,36.614285714285714L41.199999999999996,37.62857142857143L37.636363636363626,38.40714285714285L34.072727272727285,38.72142857142856L30.509090909090922,39.75714285714286L26.945454545454556,40.44285714285715L23.38181818181819,40.87857142857143L19.818181818181824,40.921428571428564L16.25454545454546,40.642857142857146L12.690909090909095,40.457142857142856L9.12727272727273,39.58571428571429L5.563636363636365,38.9L2,37.98571428571429"></path></g></svg>