<svg meta="{&quot;DATA_PUBLISHED_DATE&quot;:&quot;2023-11-10&quot;,&quot;RENDER_DATE&quot;:&quot;2023-11-15&quot;,&quot;FIRST_DATE&quot;:&quot;2023-09-10&quot;,&quot;LAST_DATE&quot;:&quot;2023-11-04&quot;}" xmlns="http://www.w3.org/2000/svg" viewBox="0,0,200,100"><g transform="translate(0,0)"></g><g class="fg-bars hospitalizations-count" fill="#00183f" stroke="none"><g><rect x="197" y="47" width="2" height="53" id="hospitalizations-count-0"></rect></g><g><rect x="193.43636363636364" y="48.13636363636363" width="2" height="51.86363636363637" id="hospitalizations-count-1"></rect></g><g><rect x="189.87272727272727" y="48.727272727272734" width="2" height="51.272727272727266" id="hospitalizations-count-2"></rect></g><g><rect x="186.30909090909088" y="48.86363636363637" width="2" height="51.13636363636363" id="hospitalizations-count-3"></rect></g><g><rect x="182.74545454545455" y="45.59090909090909" width="2" height="54.40909090909091" id="hospitalizations-count-4"></rect></g><g><rect x="179.1818181818182" y="46.86363636363636" width="2" height="53.13636363636364" id="hospitalizations-count-5"></rect></g><g><rect x="175.61818181818182" y="45.86363636363636" width="2" height="54.13636363636364" id="hospitalizations-count-6"></rect></g><g><rect x="172.05454545454546" y="46.36363636363636" width="2" height="53.63636363636364" id="hospitalizations-count-7"></rect></g><g><rect x="168.49090909090907" y="45.04545454545455" width="2" height="54.95454545454545" id="hospitalizations-count-8"></rect></g><g><rect x="164.92727272727274" y="46.54545454545455" width="2" height="53.45454545454545" id="hospitalizations-count-9"></rect></g><g><rect x="161.36363636363637" y="42.13636363636364" width="2" height="57.86363636363636" id="hospitalizations-count-10"></rect></g><g><rect x="157.8" y="40.68181818181819" width="2" height="59.31818181818181" id="hospitalizations-count-11"></rect></g><g><rect x="154.23636363636365" y="40.40909090909091" width="2" height="59.59090909090909" id="hospitalizations-count-12"></rect></g><g><rect x="150.6727272727273" y="38.31818181818182" width="2" height="61.68181818181818" id="hospitalizations-count-13"></rect></g><g><rect x="147.1090909090909" y="40.31818181818182" width="2" height="59.68181818181818" id="hospitalizations-count-14"></rect></g><g><rect x="143.54545454545453" y="39" width="2" height="61" id="hospitalizations-count-15"></rect></g><g><rect x="139.9818181818182" y="39.81818181818182" width="2" height="60.18181818181818" id="hospitalizations-count-16"></rect></g><g><rect x="136.41818181818184" y="38.772727272727266" width="2" height="61.227272727272734" id="hospitalizations-count-17"></rect></g><g><rect x="132.85454545454544" y="38.54545454545455" width="2" height="61.45454545454545" id="hospitalizations-count-18"></rect></g><g><rect x="129.29090909090908" y="39.77272727272727" width="2" height="60.22727272727273" id="hospitalizations-count-19"></rect></g><g><rect x="125.72727272727273" y="39.54545454545455" width="2" height="60.45454545454545" id="hospitalizations-count-20"></rect></g><g><rect x="122.16363636363636" y="39.40909090909091" width="2" height="60.59090909090909" id="hospitalizations-count-21"></rect></g><g><rect x="118.6" y="37.18181818181818" width="2" height="62.81818181818182" id="hospitalizations-count-22"></rect></g><g><rect x="115.03636363636363" y="36.227272727272734" width="2" height="63.772727272727266" id="hospitalizations-count-23"></rect></g><g><rect x="111.47272727272728" y="36.409090909090914" width="2" height="63.590909090909086" id="hospitalizations-count-24"></rect></g><g><rect x="107.90909090909089" y="34.77272727272728" width="2" height="65.22727272727272" id="hospitalizations-count-25"></rect></g><g><rect x="104.34545454545456" y="33.63636363636363" width="2" height="66.36363636363637" id="hospitalizations-count-26"></rect></g><g><rect x="100.78181818181817" y="31.181818181818176" width="2" height="68.81818181818183" id="hospitalizations-count-27"></rect></g><g><rect x="97.21818181818183" y="32.18181818181818" width="2" height="67.81818181818181" id="hospitalizations-count-28"></rect></g><g><rect x="93.65454545454546" y="28.772727272727273" width="2" height="71.22727272727272" id="hospitalizations-count-29"></rect></g><g><rect x="90.09090909090911" y="32.22727272727273" width="2" height="67.77272727272728" id="hospitalizations-count-30"></rect></g><g><rect x="86.52727272727273" y="31.954545454545457" width="2" height="68.04545454545455" id="hospitalizations-count-31"></rect></g><g><rect x="82.96363636363637" y="27.727272727272723" width="2" height="72.27272727272728" id="hospitalizations-count-32"></rect></g><g><rect x="79.4" y="34.77272727272728" width="2" height="65.22727272727272" id="hospitalizations-count-33"></rect></g><g><rect x="75.83636363636364" y="29.181818181818187" width="2" height="70.81818181818181" id="hospitalizations-count-34"></rect></g><g><rect x="72.27272727272727" y="29.000000000000004" width="2" height="71" id="hospitalizations-count-35"></rect></g><g><rect x="68.70909090909092" y="26.909090909090907" width="2" height="73.0909090909091" id="hospitalizations-count-36"></rect></g><g><rect x="65.14545454545454" y="24.818181818181817" width="2" height="75.18181818181819" id="hospitalizations-count-37"></rect></g><g><rect x="61.58181818181818" y="20.45454545454546" width="2" height="79.54545454545453" id="hospitalizations-count-38"></rect></g><g><rect x="58.018181818181816" y="21.18181818181818" width="2" height="78.81818181818181" id="hospitalizations-count-39"></rect></g><g><rect x="54.454545454545446" y="18.954545454545457" width="2" height="81.04545454545455" id="hospitalizations-count-40"></rect></g><g><rect x="50.89090909090908" y="19.90909090909091" width="2" height="80.0909090909091" id="hospitalizations-count-41"></rect></g><g><rect x="47.32727272727273" y="19.772727272727273" width="2" height="80.22727272727272" id="hospitalizations-count-42"></rect></g><g><rect x="43.76363636363636" y="17.227272727272723" width="2" height="82.77272727272728" id="hospitalizations-count-43"></rect></g><g><rect x="40.199999999999996" y="18.13636363636364" width="2" height="81.86363636363636" id="hospitalizations-count-44"></rect></g><g><rect x="36.636363636363626" y="12.77272727272727" width="2" height="87.22727272727273" id="hospitalizations-count-45"></rect></g><g><rect x="33.072727272727285" y="13.181818181818183" width="2" height="86.81818181818181" id="hospitalizations-count-46"></rect></g><g><rect x="29.509090909090922" y="15.81818181818182" width="2" height="84.18181818181819" id="hospitalizations-count-47"></rect></g><g><rect x="25.945454545454556" y="13.363636363636367" width="2" height="86.63636363636363" id="hospitalizations-count-48"></rect></g><g><rect x="22.38181818181819" y="15.181818181818185" width="2" height="84.81818181818181" id="hospitalizations-count-49"></rect></g><g><rect x="18.818181818181824" y="10.909090909090914" width="2" height="89.0909090909091" id="hospitalizations-count-50"></rect></g><g><rect x="15.254545454545461" y="8.363636363636362" width="2" height="91.63636363636364" id="hospitalizations-count-51"></rect></g><g><rect x="11.690909090909095" y="8.18181818181818" width="2" height="91.81818181818181" id="hospitalizations-count-52"></rect></g><g><rect x="8.12727272727273" y="8.227272727272727" width="2" height="91.77272727272728" id="hospitalizations-count-53"></rect></g><g><rect x="4.563636363636365" y="14.04545454545455" width="2" height="85.95454545454545" id="hospitalizations-count-54"></rect></g><g><rect x="1" y="6.318181818181823" width="2" height="93.68181818181817" id="hospitalizations-count-55"></rect></g></g><g class="fg-line hospitalizations-count" fill="none" stroke="#92c5de" stroke-width="2" stroke-linecap="round"><path d="M198,47.29220779220778L194.43636363636364,47.2012987012987L190.87272727272727,46.75974025974027L187.30909090909088,46.44805194805195L183.74545454545455,45.48701298701299L180.1818181818182,44.785714285714285L176.61818181818182,43.86363636363636L173.05454545454546,42.785714285714285L169.49090909090907,41.92207792207792L165.92727272727274,41.05844155844156L162.36363636363637,40.0974025974026L158.8,39.616883116883116L155.23636363636365,39.31168831168831L151.6727272727273,39.22077922077922L148.1090909090909,39.396103896103895L144.54545454545453,39.26623376623377L140.9818181818182,39.0064935064935L137.41818181818184,38.49350649350649L133.85454545454544,38.15584415584416L130.29090909090908,37.61688311688312L126.72727272727273,36.74025974025974L123.16363636363636,35.54545454545455L119.6,34.512987012987004L116.03636363636363,33.311688311688314L112.47272727272728,32.74025974025974L108.90909090909089,32.103896103896105L105.34545454545456,31.097402597402603L101.78181818181817,31.259740259740266L98.21818181818183,30.974025974025963L94.65454545454546,30.519480519480513L91.09090909090911,30.253246753246753L87.52727272727273,29.194805194805195L83.96363636363637,27.55194805194805L80.4,26.616883116883116L76.83636363636364,24.357142857142854L73.27272727272727,23.03246753246754L69.70909090909092,21.71428571428572L66.14545454545454,20.33116883116883L62.58181818181818,19.37662337662337L59.018181818181816,18.279220779220772L55.454545454545446,17.13636363636364L51.89090909090908,16.688311688311686L48.32727272727273,15.753246753246753L44.76363636363636,15.0974025974026L41.199999999999996,14.194805194805193L37.636363636363626,12.798701298701298L34.072727272727285,12.142857142857144L30.509090909090922,11.435064935064943L26.945454545454556,11.181818181818182L23.38181818181819,10.175324675324681L19.818181818181824,9.779220779220775L16.25454545454546,9.805194805194805L12.690909090909095,9.733766233766229L9.12727272727273,9.571428571428575L5.563636363636365,9.922077922077921L2,9.818181818181815"></path></g></svg>