<svg meta="{&quot;DATA_PUBLISHED_DATE&quot;:&quot;2022-07-01&quot;,&quot;RENDER_DATE&quot;:&quot;2022-07-05&quot;,&quot;FIRST_DATE&quot;:&quot;2022-04-28&quot;,&quot;LAST_DATE&quot;:&quot;2022-06-22&quot;}" xmlns="http://www.w3.org/2000/svg" viewBox="0,0,200,100"><g transform="translate(0,0)"></g><g class="fg-bars cases-ep" fill="#00183f" stroke="none"><g><rect x="197" y="28.404166666666665" width="2" height="71.59583333333333" id="cases-ep-0"></rect></g><g><rect x="193.43636363636364" y="20.125000000000004" width="2" height="79.875" id="cases-ep-1"></rect></g><g><rect x="189.87272727272727" y="26.616666666666667" width="2" height="73.38333333333333" id="cases-ep-2"></rect></g><g><rect x="186.30909090909088" y="63.76666666666666" width="2" height="36.23333333333334" id="cases-ep-3"></rect></g><g><rect x="182.74545454545455" y="58.92916666666667" width="2" height="41.07083333333333" id="cases-ep-4"></rect></g><g><rect x="179.1818181818182" y="39.670833333333334" width="2" height="60.329166666666666" id="cases-ep-5"></rect></g><g><rect x="175.61818181818182" y="37.608333333333334" width="2" height="62.391666666666666" id="cases-ep-6"></rect></g><g><rect x="172.05454545454546" y="33.204166666666666" width="2" height="66.79583333333333" id="cases-ep-7"></rect></g><g><rect x="168.49090909090907" y="31.31666666666667" width="2" height="68.68333333333334" id="cases-ep-8"></rect></g><g><rect x="164.92727272727274" y="23.979166666666664" width="2" height="76.02083333333334" id="cases-ep-9"></rect></g><g><rect x="161.36363636363637" y="63.52916666666666" width="2" height="36.47083333333334" id="cases-ep-10"></rect></g><g><rect x="157.8" y="59.150000000000006" width="2" height="40.849999999999994" id="cases-ep-11"></rect></g><g><rect x="154.23636363636365" y="35.920833333333334" width="2" height="64.07916666666667" id="cases-ep-12"></rect></g><g><rect x="150.6727272727273" y="34.46666666666667" width="2" height="65.53333333333333" id="cases-ep-13"></rect></g><g><rect x="147.1090909090909" y="26.687499999999996" width="2" height="73.3125" id="cases-ep-14"></rect></g><g><rect x="143.54545454545453" y="22.187500000000004" width="2" height="77.8125" id="cases-ep-15"></rect></g><g><rect x="139.9818181818182" y="13.224999999999998" width="2" height="86.775" id="cases-ep-16"></rect></g><g><rect x="136.41818181818184" y="60.354166666666664" width="2" height="39.645833333333336" id="cases-ep-17"></rect></g><g><rect x="132.85454545454544" y="56.099999999999994" width="2" height="43.900000000000006" id="cases-ep-18"></rect></g><g><rect x="129.29090909090908" y="32.17916666666667" width="2" height="67.82083333333333" id="cases-ep-19"></rect></g><g><rect x="125.72727272727273" y="25.525" width="2" height="74.475" id="cases-ep-20"></rect></g><g><rect x="122.16363636363636" y="14.558333333333328" width="2" height="85.44166666666668" id="cases-ep-21"></rect></g><g><rect x="118.6" y="0.9208333333333374" width="2" height="99.07916666666667" id="cases-ep-22"></rect></g><g><rect x="115.03636363636363" y="64.225" width="2" height="35.775000000000006" id="cases-ep-23"></rect></g><g><rect x="111.47272727272728" y="67.34166666666667" width="2" height="32.65833333333333" id="cases-ep-24"></rect></g><g><rect x="107.90909090909089" y="63.22916666666667" width="2" height="36.77083333333333" id="cases-ep-25"></rect></g><g><rect x="104.34545454545456" y="41.104166666666664" width="2" height="58.895833333333336" id="cases-ep-26"></rect></g><g><rect x="100.78181818181817" y="35.570833333333326" width="2" height="64.42916666666667" id="cases-ep-27"></rect></g><g><rect x="97.21818181818183" y="28.8625" width="2" height="71.1375" id="cases-ep-28"></rect></g><g><rect x="93.65454545454546" y="24.516666666666666" width="2" height="75.48333333333333" id="cases-ep-29"></rect></g><g><rect x="90.09090909090911" y="19.037499999999994" width="2" height="80.9625" id="cases-ep-30"></rect></g><g><rect x="86.52727272727273" y="63.82916666666667" width="2" height="36.17083333333333" id="cases-ep-31"></rect></g><g><rect x="82.96363636363637" y="62.6625" width="2" height="37.3375" id="cases-ep-32"></rect></g><g><rect x="79.4" y="41.979166666666664" width="2" height="58.020833333333336" id="cases-ep-33"></rect></g><g><rect x="75.83636363636364" y="39.1" width="2" height="60.9" id="cases-ep-34"></rect></g><g><rect x="72.27272727272727" y="34.50416666666667" width="2" height="65.49583333333334" id="cases-ep-35"></rect></g><g><rect x="68.70909090909092" y="32.62500000000001" width="2" height="67.375" id="cases-ep-36"></rect></g><g><rect x="65.14545454545454" y="27.833333333333332" width="2" height="72.16666666666667" id="cases-ep-37"></rect></g><g><rect x="61.58181818181818" y="67.22916666666667" width="2" height="32.77083333333333" id="cases-ep-38"></rect></g><g><rect x="58.018181818181816" y="66.64583333333334" width="2" height="33.35416666666666" id="cases-ep-39"></rect></g><g><rect x="54.454545454545446" y="52.31666666666667" width="2" height="47.68333333333333" id="cases-ep-40"></rect></g><g><rect x="50.89090909090908" y="52.03333333333333" width="2" height="47.96666666666667" id="cases-ep-41"></rect></g><g><rect x="47.32727272727273" y="50.3" width="2" height="49.7" id="cases-ep-42"></rect></g><g><rect x="43.76363636363636" y="50.09166666666667" width="2" height="49.90833333333333" id="cases-ep-43"></rect></g><g><rect x="40.199999999999996" y="46.60833333333333" width="2" height="53.39166666666667" id="cases-ep-44"></rect></g><g><rect x="36.636363636363626" y="74.65416666666667" width="2" height="25.34583333333333" id="cases-ep-45"></rect></g><g><rect x="33.072727272727285" y="73.775" width="2" height="26.224999999999994" id="cases-ep-46"></rect></g><g><rect x="29.509090909090922" y="62.88750000000001" width="2" height="37.11249999999999" id="cases-ep-47"></rect></g><g><rect x="25.945454545454556" y="61.11249999999999" width="2" height="38.88750000000001" id="cases-ep-48"></rect></g><g><rect x="22.38181818181819" y="59.204166666666666" width="2" height="40.795833333333334" id="cases-ep-49"></rect></g><g><rect x="18.818181818181824" y="58.63333333333334" width="2" height="41.36666666666666" id="cases-ep-50"></rect></g><g><rect x="15.254545454545461" y="56.75416666666666" width="2" height="43.24583333333334" id="cases-ep-51"></rect></g><g><rect x="11.690909090909095" y="78.35" width="2" height="21.650000000000006" id="cases-ep-52"></rect></g><g><rect x="8.12727272727273" y="80.02916666666667" width="2" height="19.97083333333333" id="cases-ep-53"></rect></g><g><rect x="4.563636363636365" y="72.925" width="2" height="27.075000000000003" id="cases-ep-54"></rect></g><g><rect x="1" y="70.88333333333333" width="2" height="29.116666666666674" id="cases-ep-55"></rect></g></g><g class="fg-line cases-ep" fill="none" stroke="#92c5de" stroke-width="2" stroke-linecap="round"><path d="M198,39.302976190476194L194.43636363636364,39.98869047619047L190.87272727272727,41.5875L187.30909090909088,41.21071428571429L183.74545454545455,41.176785714285714L180.1818181818182,41.208333333333336L176.61818181818182,40.672619047619044L173.05454545454546,40.22380952380953L169.49090909090907,39.29285714285714L165.92727272727274,37.98869047619048L162.36363636363637,36.452380952380956L158.8,35.99880952380953L155.23636363636365,35.56309523809523L151.6727272727273,35.02857142857143L148.1090909090909,33.75119047619047L144.54545454545453,32.018452380952375L140.9818181818182,28.980357142857137L137.41818181818184,36.266071428571436L133.85454545454544,37.26428571428572L130.29090909090908,38.2827380952381L126.72727272727273,39.55773809523809L123.16363636363636,40.99285714285714L119.6,43.03630952380952L116.03636363636363,46.40714285714286L112.47272727272728,39.95178571428571L108.90909090909089,39.449999999999996L105.34545454545456,39.36904761904763L101.78181818181817,39.49404761904762L98.21818181818183,39.99821428571428L94.65454545454546,40.80416666666666L91.09090909090911,41.962500000000006L87.52727272727273,43.21904761904762L83.96363636363637,43.7047619047619L80.4,44.273809523809526L76.83636363636364,45.75059523809524L73.27272727272727,47.59821428571429L69.70909090909092,49.8547619047619L66.14545454545454,52.35000000000001L62.58181818181818,55.032142857142865L59.018181818181816,56.09285714285714L55.454545454545446,57.11130952380953L51.89090909090908,58.62142857142857L48.32727272727273,59.91845238095237L44.76363636363636,61.1904761904762L41.199999999999996,62.4107142857143L37.636363636363626,63.860119047619044L34.072727272727285,64.38809523809523L30.509090909090922,65.28154761904761L26.945454545454556,66.71547619047618L23.38181818181819,68.11130952380952L19.818181818181824,69.53988095238095L16.25454545454546,70.9875L12.690909090909095,72.51190476190476L9.12727272727273,73.45595238095238L5.563636363636365,74.15119047619048L2,74.97678571428573"></path></g></svg>