<svg meta="{&quot;DATA_PUBLISHED_DATE&quot;:&quot;2022-04-22&quot;,&quot;RENDER_DATE&quot;:&quot;2022-04-22&quot;,&quot;FIRST_DATE&quot;:&quot;2022-02-18&quot;,&quot;LAST_DATE&quot;:&quot;2022-04-14&quot;}" xmlns="http://www.w3.org/2000/svg" viewBox="0,0,200,100"><g transform="translate(0,0)"></g><g class="fg-bars tests-vaccines" fill="#00183f" stroke="none"><g><rect x="197" y="27.719000000000005" width="2" height="72.28099999999999" id="tests-vaccines-0"></rect></g><g><rect x="193.43636363636364" y="26.093999999999994" width="2" height="73.906" id="tests-vaccines-1"></rect></g><g><rect x="189.87272727272727" y="22.358999999999995" width="2" height="77.641" id="tests-vaccines-2"></rect></g><g><rect x="186.30909090909088" y="25.168999999999997" width="2" height="74.831" id="tests-vaccines-3"></rect></g><g><rect x="182.74545454545455" y="75.887" width="2" height="24.113" id="tests-vaccines-4"></rect></g><g><rect x="179.1818181818182" y="56.757000000000005" width="2" height="43.242999999999995" id="tests-vaccines-5"></rect></g><g><rect x="175.61818181818182" y="13.314000000000004" width="2" height="86.68599999999999" id="tests-vaccines-6"></rect></g><g><rect x="172.05454545454546" y="25.599000000000004" width="2" height="74.401" id="tests-vaccines-7"></rect></g><g><rect x="168.49090909090907" y="26.192999999999998" width="2" height="73.807" id="tests-vaccines-8"></rect></g><g><rect x="164.92727272727274" y="25.561999999999998" width="2" height="74.438" id="tests-vaccines-9"></rect></g><g><rect x="161.36363636363637" y="24.849" width="2" height="75.151" id="tests-vaccines-10"></rect></g><g><rect x="157.8" y="74.309" width="2" height="25.691000000000003" id="tests-vaccines-11"></rect></g><g><rect x="154.23636363636365" y="54.403" width="2" height="45.597" id="tests-vaccines-12"></rect></g><g><rect x="150.6727272727273" y="9.484000000000004" width="2" height="90.51599999999999" id="tests-vaccines-13"></rect></g><g><rect x="147.1090909090909" y="25.676" width="2" height="74.324" id="tests-vaccines-14"></rect></g><g><rect x="143.54545454545453" y="38.453" width="2" height="61.547" id="tests-vaccines-15"></rect></g><g><rect x="139.9818181818182" y="68.41900000000001" width="2" height="31.58099999999999" id="tests-vaccines-16"></rect></g><g><rect x="136.41818181818184" y="74.08" width="2" height="25.92" id="tests-vaccines-17"></rect></g><g><rect x="132.85454545454544" y="89.892" width="2" height="10.108000000000004" id="tests-vaccines-18"></rect></g><g><rect x="129.29090909090908" y="80.66" width="2" height="19.340000000000003" id="tests-vaccines-19"></rect></g><g><rect x="125.72727272727273" y="63.00399999999999" width="2" height="36.99600000000001" id="tests-vaccines-20"></rect></g><g><rect x="122.16363636363636" y="71.16" width="2" height="28.840000000000003" id="tests-vaccines-21"></rect></g><g><rect x="118.6" y="70.07300000000001" width="2" height="29.926999999999992" id="tests-vaccines-22"></rect></g><g><rect x="115.03636363636363" y="71.031" width="2" height="28.968999999999994" id="tests-vaccines-23"></rect></g><g><rect x="111.47272727272728" y="68.66399999999999" width="2" height="31.336000000000013" id="tests-vaccines-24"></rect></g><g><rect x="107.90909090909089" y="88.44300000000001" width="2" height="11.556999999999988" id="tests-vaccines-25"></rect></g><g><rect x="104.34545454545456" y="76.05999999999999" width="2" height="23.940000000000012" id="tests-vaccines-26"></rect></g><g><rect x="100.78181818181817" y="56.793000000000006" width="2" height="43.206999999999994" id="tests-vaccines-27"></rect></g><g><rect x="97.21818181818183" y="68.923" width="2" height="31.076999999999998" id="tests-vaccines-28"></rect></g><g><rect x="93.65454545454546" y="67.886" width="2" height="32.114000000000004" id="tests-vaccines-29"></rect></g><g><rect x="90.09090909090911" y="68.05099999999999" width="2" height="31.949000000000012" id="tests-vaccines-30"></rect></g><g><rect x="86.52727272727273" y="68.854" width="2" height="31.146" id="tests-vaccines-31"></rect></g><g><rect x="82.96363636363637" y="87.78099999999999" width="2" height="12.219000000000008" id="tests-vaccines-32"></rect></g><g><rect x="79.4" y="74.285" width="2" height="25.715000000000003" id="tests-vaccines-33"></rect></g><g><rect x="75.83636363636364" y="56.01499999999999" width="2" height="43.98500000000001" id="tests-vaccines-34"></rect></g><g><rect x="72.27272727272727" y="65.385" width="2" height="34.614999999999995" id="tests-vaccines-35"></rect></g><g><rect x="68.70909090909092" y="63.651" width="2" height="36.349" id="tests-vaccines-36"></rect></g><g><rect x="65.14545454545454" y="65.652" width="2" height="34.348" id="tests-vaccines-37"></rect></g><g><rect x="61.58181818181818" y="64.669" width="2" height="35.331" id="tests-vaccines-38"></rect></g><g><rect x="58.018181818181816" y="86.273" width="2" height="13.727000000000004" id="tests-vaccines-39"></rect></g><g><rect x="54.454545454545446" y="70.24699999999999" width="2" height="29.753000000000014" id="tests-vaccines-40"></rect></g><g><rect x="50.89090909090908" y="43.891000000000005" width="2" height="56.108999999999995" id="tests-vaccines-41"></rect></g><g><rect x="47.32727272727273" y="58.422" width="2" height="41.578" id="tests-vaccines-42"></rect></g><g><rect x="43.76363636363636" y="55.245" width="2" height="44.755" id="tests-vaccines-43"></rect></g><g><rect x="40.199999999999996" y="49.649" width="2" height="50.351" id="tests-vaccines-44"></rect></g><g><rect x="36.636363636363626" y="40.354" width="2" height="59.646" id="tests-vaccines-45"></rect></g><g><rect x="33.072727272727285" y="79.61500000000001" width="2" height="20.38499999999999" id="tests-vaccines-46"></rect></g><g><rect x="29.509090909090922" y="59.514" width="2" height="40.486" id="tests-vaccines-47"></rect></g><g><rect x="25.945454545454556" y="23.841" width="2" height="76.15899999999999" id="tests-vaccines-48"></rect></g><g><rect x="22.38181818181819" y="44.084" width="2" height="55.916" id="tests-vaccines-49"></rect></g><g><rect x="18.818181818181824" y="44.613" width="2" height="55.387" id="tests-vaccines-50"></rect></g><g><rect x="15.254545454545461" y="43.8" width="2" height="56.2" id="tests-vaccines-51"></rect></g><g><rect x="11.690909090909095" y="56.736" width="2" height="43.264" id="tests-vaccines-52"></rect></g><g><rect x="8.12727272727273" y="77.81700000000001" width="2" height="22.182999999999993" id="tests-vaccines-53"></rect></g><g><rect x="4.563636363636365" y="53.93" width="2" height="46.07" id="tests-vaccines-54"></rect></g><g><rect x="1" y="13.195" width="2" height="86.805" id="tests-vaccines-55"></rect></g></g><g class="fg-line tests-vaccines" fill="none" stroke="#92c5de" stroke-width="2" stroke-linecap="round"><path d="M198,35.328428571428574L194.43636363636364,35.025571428571425L190.87272727272727,35.03971428571428L187.30909090909088,35.497285714285724L183.74545454545455,35.45157142857143L180.1818181818182,35.22614285714285L176.61818181818182,34.88985714285715L173.05454545454546,34.342714285714294L169.49090909090907,34.35371428571429L165.92727272727274,36.10514285714286L162.36363636363637,42.22757142857143L158.8,49.26057142857143L155.23636363636365,51.48671428571427L151.6727272727273,55.23771428571429L148.1090909090909,62.88342857142857L144.54545454545453,69.38114285714285L140.9818181818182,73.89828571428572L137.41818181818184,74.27142857142857L133.85454545454544,73.4977142857143L130.29090909090908,73.29071428571429L126.72727272727273,72.63357142857143L123.16363636363636,71.74628571428572L119.6,71.42671428571428L116.03636363636363,71.11428571428571L112.47272727272728,70.68857142857144L108.90909090909089,70.71571428571428L105.34545454545456,70.62114285714286L101.78181818181817,70.36757142857142L98.21818181818183,70.25642857142857L94.65454545454546,69.751L91.09090909090911,69.146L87.52727272727273,68.8032857142857L83.96363636363637,68.20542857142857L80.4,67.99L76.83636363636364,67.41314285714286L73.27272727272727,65.68114285714286L69.70909090909092,64.68642857142856L66.14545454545454,63.48557142857143L62.58181818181818,61.19942857142857L59.018181818181816,57.72585714285714L55.454545454545446,56.77471428571428L51.89090909090908,55.24142857142857L48.32727272727273,52.37714285714286L44.76363636363636,50.32885714285715L41.199999999999996,48.809999999999995L37.636363636363626,47.974428571428575L34.072727272727285,50.31471428571428L30.509090909090922,50.057857142857145L26.945454545454556,49.26014285714285L23.38181818181819,47.739285714285714L19.818181818181824,46.732285714285716L16.25454545454546,45.784000000000006L12.690909090909095,45.27971428571428L9.12727272727273,43.954142857142855L5.563636363636365,44.24214285714285L2,43.30171428571429"></path></g></svg>