<svg about="DATA_PUBLISHED_DATE:2022-01-06,RENDER_DATE:2022-01-06" xmlns="http://www.w3.org/2000/svg" viewBox="0,0,200,100"><g transform="translate(0,0)"></g><g class="fg-bars tests-vaccines" fill="#00183f" stroke="none"><g><rect x="197" y="34.107428571428564" width="2" height="65.89257142857144" id="tests-vaccines-0"></rect></g><g><rect x="193.43636363636364" y="33.82685714285715" width="2" height="66.17314285714285" id="tests-vaccines-1"></rect></g><g><rect x="189.87272727272727" y="41.95457142857143" width="2" height="58.04542857142857" id="tests-vaccines-2"></rect></g><g><rect x="186.30909090909088" y="84.79057142857143" width="2" height="15.209428571428575" id="tests-vaccines-3"></rect></g><g><rect x="182.74545454545455" y="99.75257142857143" width="2" height="0.24742857142857133" id="tests-vaccines-4"></rect></g><g><rect x="179.1818181818182" y="87.496" width="2" height="12.504000000000005" id="tests-vaccines-5"></rect></g><g><rect x="175.61818181818182" y="39.81371428571428" width="2" height="60.18628571428572" id="tests-vaccines-6"></rect></g><g><rect x="172.05454545454546" y="28.991428571428568" width="2" height="71.00857142857143" id="tests-vaccines-7"></rect></g><g><rect x="168.49090909090907" y="26.476" width="2" height="73.524" id="tests-vaccines-8"></rect></g><g><rect x="164.92727272727274" y="30.88142857142857" width="2" height="69.11857142857143" id="tests-vaccines-9"></rect></g><g><rect x="161.36363636363637" y="79.89714285714285" width="2" height="20.102857142857147" id="tests-vaccines-10"></rect></g><g><rect x="157.8" y="59.94542857142857" width="2" height="40.05457142857143" id="tests-vaccines-11"></rect></g><g><rect x="154.23636363636365" y="26.834000000000003" width="2" height="73.166" id="tests-vaccines-12"></rect></g><g><rect x="150.6727272727273" y="35.61428571428571" width="2" height="64.3857142857143" id="tests-vaccines-13"></rect></g><g><rect x="147.1090909090909" y="34.01628571428571" width="2" height="65.98371428571429" id="tests-vaccines-14"></rect></g><g><rect x="143.54545454545453" y="35.73342857142857" width="2" height="64.26657142857144" id="tests-vaccines-15"></rect></g><g><rect x="139.9818181818182" y="38.493428571428566" width="2" height="61.506571428571434" id="tests-vaccines-16"></rect></g><g><rect x="136.41818181818184" y="80.52571428571429" width="2" height="19.474285714285713" id="tests-vaccines-17"></rect></g><g><rect x="132.85454545454544" y="54.33485714285714" width="2" height="45.66514285714286" id="tests-vaccines-18"></rect></g><g><rect x="129.29090909090908" y="20.106" width="2" height="79.894" id="tests-vaccines-19"></rect></g><g><rect x="125.72727272727273" y="28.062571428571424" width="2" height="71.93742857142857" id="tests-vaccines-20"></rect></g><g><rect x="122.16363636363636" y="25.538285714285713" width="2" height="74.4617142857143" id="tests-vaccines-21"></rect></g><g><rect x="118.6" y="25.63857142857143" width="2" height="74.36142857142858" id="tests-vaccines-22"></rect></g><g><rect x="115.03636363636363" y="31.011142857142858" width="2" height="68.98885714285714" id="tests-vaccines-23"></rect></g><g><rect x="111.47272727272728" y="76.57428571428572" width="2" height="23.425714285714278" id="tests-vaccines-24"></rect></g><g><rect x="107.90909090909089" y="47.964" width="2" height="52.036" id="tests-vaccines-25"></rect></g><g><rect x="104.34545454545456" y="9.364857142857142" width="2" height="90.63514285714285" id="tests-vaccines-26"></rect></g><g><rect x="100.78181818181817" y="19.892" width="2" height="80.108" id="tests-vaccines-27"></rect></g><g><rect x="97.21818181818183" y="21.766" width="2" height="78.23400000000001" id="tests-vaccines-28"></rect></g><g><rect x="93.65454545454546" y="29.352" width="2" height="70.648" id="tests-vaccines-29"></rect></g><g><rect x="90.09090909090911" y="39.002" width="2" height="60.998" id="tests-vaccines-30"></rect></g><g><rect x="86.52727272727273" y="81.562" width="2" height="18.438000000000002" id="tests-vaccines-31"></rect></g><g><rect x="82.96363636363637" y="67.27714285714286" width="2" height="32.72285714285714" id="tests-vaccines-32"></rect></g><g><rect x="79.4" y="56.30771428571428" width="2" height="43.69228571428572" id="tests-vaccines-33"></rect></g><g><rect x="75.83636363636364" y="98.58914285714285" width="2" height="1.4108571428571537" id="tests-vaccines-34"></rect></g><g><rect x="72.27272727272727" y="41.356" width="2" height="58.644" id="tests-vaccines-35"></rect></g><g><rect x="68.70909090909092" y="30.258285714285716" width="2" height="69.74171428571428" id="tests-vaccines-36"></rect></g><g><rect x="65.14545454545454" y="33.39714285714286" width="2" height="66.60285714285715" id="tests-vaccines-37"></rect></g><g><rect x="61.58181818181818" y="78.96971428571429" width="2" height="21.03028571428571" id="tests-vaccines-38"></rect></g><g><rect x="58.018181818181816" y="55.00085714285714" width="2" height="44.99914285714286" id="tests-vaccines-39"></rect></g><g><rect x="54.454545454545446" y="22.816000000000003" width="2" height="77.184" id="tests-vaccines-40"></rect></g><g><rect x="50.89090909090908" y="34.83857142857143" width="2" height="65.16142857142857" id="tests-vaccines-41"></rect></g><g><rect x="47.32727272727273" y="33.668" width="2" height="66.332" id="tests-vaccines-42"></rect></g><g><rect x="43.76363636363636" y="35.21485714285715" width="2" height="64.78514285714286" id="tests-vaccines-43"></rect></g><g><rect x="40.199999999999996" y="40.891714285714286" width="2" height="59.108285714285714" id="tests-vaccines-44"></rect></g><g><rect x="36.636363636363626" y="79.45771428571429" width="2" height="20.54228571428571" id="tests-vaccines-45"></rect></g><g><rect x="33.072727272727285" y="57.18885714285714" width="2" height="42.81114285714286" id="tests-vaccines-46"></rect></g><g><rect x="29.509090909090922" y="25.630857142857145" width="2" height="74.36914285714286" id="tests-vaccines-47"></rect></g><g><rect x="25.945454545454556" y="37.67742857142857" width="2" height="62.32257142857143" id="tests-vaccines-48"></rect></g><g><rect x="22.38181818181819" y="35.24485714285714" width="2" height="64.75514285714286" id="tests-vaccines-49"></rect></g><g><rect x="18.818181818181824" y="37.68857142857143" width="2" height="62.31142857142857" id="tests-vaccines-50"></rect></g><g><rect x="15.254545454545461" y="42.67057142857142" width="2" height="57.32942857142858" id="tests-vaccines-51"></rect></g><g><rect x="11.690909090909095" y="80.56742857142856" width="2" height="19.432571428571435" id="tests-vaccines-52"></rect></g><g><rect x="8.12727272727273" y="63.255142857142864" width="2" height="36.744857142857136" id="tests-vaccines-53"></rect></g><g><rect x="4.563636363636365" y="30.314857142857143" width="2" height="69.68514285714286" id="tests-vaccines-54"></rect></g><g><rect x="1" y="43.22314285714286" width="2" height="56.77685714285714" id="tests-vaccines-55"></rect></g></g><g class="fg-line tests-vaccines" fill="none" stroke="#92c5de" stroke-width="2" stroke-linecap="round"><path d="M198,60.24881632653061L194.43636363636364,59.51795918367346L190.87272727272727,58.467836734693876L187.30909090909088,56.88595918367347L183.74545454545455,56.18689795918368L180.1818181818182,50.50016326530612L176.61818181818182,41.834163265306124L173.05454545454546,41.23424489795918L169.49090909090907,41.95208163265306L165.92727272727274,43.27457142857143L162.36363636363637,44.362L158.8,44.451795918367345L155.23636363636365,43.65028571428572L151.6727272727273,42.68914285714286L148.1090909090909,41.610326530612255L144.54545454545453,40.399183673469395L140.9818181818182,38.9570612244898L137.41818181818184,37.88816326530612L133.85454545454544,37.32367346938775L130.29090909090908,36.413551020408164L126.72727272727273,34.87910204081632L123.16363636363636,33.71187755102041L119.6,33.172979591836736L116.03636363636363,33.703469387755106L112.47272727272728,34.845020408163265L108.90909090909089,35.55755102040816L105.34545454545456,38.316571428571436L101.78181818181817,45.02269387755102L98.21818181818183,56.265142857142855L94.65454545454546,59.06371428571428L91.09090909090911,59.1931836734694L87.52727272727273,58.392489795918365L83.96363636363637,58.02216326530611L80.4,56.268408163265306L76.83636363636364,51.483877551020406L73.27272727272727,42.37665306122449L69.70909090909092,41.27836734693877L66.14545454545454,41.98644897959184L62.58181818181818,43.05710204081632L59.018181818181816,43.1268163265306L55.454545454545446,43.43938775510203L51.89090909090908,43.84151020408164L48.32727272727273,44.24706122448979L44.76363636363636,44.47232653061225L41.199999999999996,44.82571428571429L37.636363636363626,45.07983673469388L34.072727272727285,45.23836734693878L30.509090909090922,46.10497959183674L26.945454545454556,46.7741224489796L23.38181818181819,47.566367346938776L19.818181818181824,49.0624081632653L16.25454545454546,50.198367346938774L12.690909090909095,51.091632653061225L9.12727272727273,51.79130612244898L5.563636363636365,52.81648979591837L2,53.826163265306114"></path></g></svg>