<svg meta="{&quot;DATA_PUBLISHED_DATE&quot;:&quot;2022-10-20&quot;,&quot;RENDER_DATE&quot;:&quot;2022-10-20&quot;,&quot;FIRST_DATE&quot;:&quot;2022-08-17&quot;,&quot;LAST_DATE&quot;:&quot;2022-10-11&quot;}" xmlns="http://www.w3.org/2000/svg" viewBox="0,0,200,100"><g transform="translate(0,0)"></g><g class="fg-bars cases-ep" fill="#00183f" stroke="none"><g><rect x="197" y="73.23636363636363" width="2" height="26.763636363636365" id="cases-ep-0"></rect></g><g><rect x="193.43636363636364" y="71.50909090909092" width="2" height="28.490909090909085" id="cases-ep-1"></rect></g><g><rect x="189.87272727272727" y="84.95454545454547" width="2" height="15.045454545454533" id="cases-ep-2"></rect></g><g><rect x="186.30909090909088" y="82.61818181818181" width="2" height="17.38181818181819" id="cases-ep-3"></rect></g><g><rect x="182.74545454545455" y="76.05454545454545" width="2" height="23.945454545454552" id="cases-ep-4"></rect></g><g><rect x="179.1818181818182" y="74.81818181818181" width="2" height="25.181818181818187" id="cases-ep-5"></rect></g><g><rect x="175.61818181818182" y="72.65454545454546" width="2" height="27.345454545454544" id="cases-ep-6"></rect></g><g><rect x="172.05454545454546" y="69.66363636363636" width="2" height="30.336363636363643" id="cases-ep-7"></rect></g><g><rect x="168.49090909090907" y="65.0090909090909" width="2" height="34.9909090909091" id="cases-ep-8"></rect></g><g><rect x="164.92727272727274" y="82.14545454545454" width="2" height="17.85454545454546" id="cases-ep-9"></rect></g><g><rect x="161.36363636363637" y="78.61818181818182" width="2" height="21.381818181818176" id="cases-ep-10"></rect></g><g><rect x="157.8" y="71.46363636363637" width="2" height="28.53636363636363" id="cases-ep-11"></rect></g><g><rect x="154.23636363636365" y="69.57272727272728" width="2" height="30.427272727272722" id="cases-ep-12"></rect></g><g><rect x="150.6727272727273" y="65.18181818181819" width="2" height="34.81818181818181" id="cases-ep-13"></rect></g><g><rect x="147.1090909090909" y="64.03636363636363" width="2" height="35.96363636363637" id="cases-ep-14"></rect></g><g><rect x="143.54545454545453" y="58.14545454545454" width="2" height="41.85454545454546" id="cases-ep-15"></rect></g><g><rect x="139.9818181818182" y="78.67272727272727" width="2" height="21.327272727272728" id="cases-ep-16"></rect></g><g><rect x="136.41818181818184" y="76.75454545454545" width="2" height="23.24545454545455" id="cases-ep-17"></rect></g><g><rect x="132.85454545454544" y="68.7" width="2" height="31.299999999999997" id="cases-ep-18"></rect></g><g><rect x="129.29090909090908" y="66.78181818181818" width="2" height="33.21818181818182" id="cases-ep-19"></rect></g><g><rect x="125.72727272727273" y="65.45454545454545" width="2" height="34.54545454545455" id="cases-ep-20"></rect></g><g><rect x="122.16363636363636" y="61.59090909090909" width="2" height="38.40909090909091" id="cases-ep-21"></rect></g><g><rect x="118.6" y="56.66363636363636" width="2" height="43.33636363636364" id="cases-ep-22"></rect></g><g><rect x="115.03636363636363" y="77.5" width="2" height="22.5" id="cases-ep-23"></rect></g><g><rect x="111.47272727272728" y="75.02727272727273" width="2" height="24.97272727272727" id="cases-ep-24"></rect></g><g><rect x="107.90909090909089" y="65.7" width="2" height="34.3" id="cases-ep-25"></rect></g><g><rect x="104.34545454545456" y="63.663636363636364" width="2" height="36.336363636363636" id="cases-ep-26"></rect></g><g><rect x="100.78181818181817" y="60.163636363636364" width="2" height="39.836363636363636" id="cases-ep-27"></rect></g><g><rect x="97.21818181818183" y="55.10909090909091" width="2" height="44.89090909090909" id="cases-ep-28"></rect></g><g><rect x="93.65454545454546" y="48.56363636363636" width="2" height="51.43636363636364" id="cases-ep-29"></rect></g><g><rect x="90.09090909090911" y="72.41818181818182" width="2" height="27.58181818181818" id="cases-ep-30"></rect></g><g><rect x="86.52727272727273" y="70.43636363636364" width="2" height="29.563636363636363" id="cases-ep-31"></rect></g><g><rect x="82.96363636363637" y="56.345454545454544" width="2" height="43.654545454545456" id="cases-ep-32"></rect></g><g><rect x="79.4" y="52.236363636363635" width="2" height="47.763636363636365" id="cases-ep-33"></rect></g><g><rect x="75.83636363636364" y="46.190909090909095" width="2" height="53.809090909090905" id="cases-ep-34"></rect></g><g><rect x="72.27272727272727" y="29.56363636363636" width="2" height="70.43636363636364" id="cases-ep-35"></rect></g><g><rect x="68.70909090909092" y="69.95454545454545" width="2" height="30.045454545454547" id="cases-ep-36"></rect></g><g><rect x="65.14545454545454" y="71.35454545454544" width="2" height="28.645454545454555" id="cases-ep-37"></rect></g><g><rect x="61.58181818181818" y="67.92727272727272" width="2" height="32.07272727272728" id="cases-ep-38"></rect></g><g><rect x="58.018181818181816" y="50.81818181818182" width="2" height="49.18181818181818" id="cases-ep-39"></rect></g><g><rect x="54.454545454545446" y="43.72727272727273" width="2" height="56.27272727272727" id="cases-ep-40"></rect></g><g><rect x="50.89090909090908" y="37.97272727272727" width="2" height="62.02727272727273" id="cases-ep-41"></rect></g><g><rect x="47.32727272727273" y="30.681818181818176" width="2" height="69.31818181818183" id="cases-ep-42"></rect></g><g><rect x="43.76363636363636" y="18.83636363636364" width="2" height="81.16363636363636" id="cases-ep-43"></rect></g><g><rect x="40.199999999999996" y="59.61818181818182" width="2" height="40.38181818181818" id="cases-ep-44"></rect></g><g><rect x="36.636363636363626" y="56.72727272727273" width="2" height="43.27272727272727" id="cases-ep-45"></rect></g><g><rect x="33.072727272727285" y="33.872727272727275" width="2" height="66.12727272727273" id="cases-ep-46"></rect></g><g><rect x="29.509090909090922" y="31.172727272727276" width="2" height="68.82727272727273" id="cases-ep-47"></rect></g><g><rect x="25.945454545454556" y="23.490909090909096" width="2" height="76.5090909090909" id="cases-ep-48"></rect></g><g><rect x="22.38181818181819" y="14.04545454545455" width="2" height="85.95454545454545" id="cases-ep-49"></rect></g><g><rect x="18.818181818181824" y="0.11818181818181728" width="2" height="99.88181818181818" id="cases-ep-50"></rect></g><g><rect x="15.254545454545461" y="51.027272727272724" width="2" height="48.972727272727276" id="cases-ep-51"></rect></g><g><rect x="11.690909090909095" y="45.30909090909091" width="2" height="54.69090909090909" id="cases-ep-52"></rect></g><g><rect x="8.12727272727273" y="24.263636363636365" width="2" height="75.73636363636363" id="cases-ep-53"></rect></g><g><rect x="4.563636363636365" y="18.06363636363636" width="2" height="81.93636363636364" id="cases-ep-54"></rect></g><g><rect x="1" y="10.52727272727273" width="2" height="89.47272727272727" id="cases-ep-55"></rect></g></g><g class="fg-line cases-ep" fill="none" stroke="#92c5de" stroke-width="2" stroke-linecap="round"><path d="M198,76.54935064935064L194.43636363636364,76.03896103896103L190.87272727272727,75.11038961038962L187.30909090909088,74.7090909090909L183.74545454545455,74.13766233766235L180.1818181818182,73.48181818181818L176.61818181818182,72.73246753246754L173.05454545454546,71.66493506493507L169.49090909090907,70.86103896103897L165.92727272727274,69.88051948051948L162.36363636363637,69.38441558441558L158.8,69.11818181818181L155.23636363636365,68.72337662337662L151.6727272727273,68.32467532467533L148.1090909090909,68.36363636363636L144.54545454545453,68.01428571428572L140.9818181818182,67.8025974025974L137.41818181818184,67.63506493506493L133.85454545454544,67.38831168831169L130.29090909090908,66.95974025974026L126.72727272727273,66.51428571428572L123.16363636363636,65.75844155844156L119.6,64.83246753246753L116.03636363636363,63.675324675324674L112.47272727272728,62.949350649350656L108.90909090909089,62.29350649350649L105.34545454545456,60.95714285714286L101.78181818181817,59.32467532467531L98.21818181818183,57.32857142857143L94.65454545454546,53.679220779220785L91.09090909090911,56.73506493506494L87.52727272727273,56.58311688311688L83.96363636363637,56.224675324675324L80.4,55.435064935064936L76.83636363636364,54.21948051948051L73.27272727272727,53.045454545454554L69.70909090909092,53.20519480519481L66.14545454545454,45.90259740259741L62.58181818181818,44.225974025974025L59.018181818181816,42.62597402597403L55.454545454545446,40.2051948051948L51.89090909090908,38.411688311688316L48.32727272727273,36.34285714285714L44.76363636363636,33.96623376623376L41.199999999999996,31.292207792207794L37.636363636363626,30.06493506493506L34.072727272727285,28.433766233766235L30.509090909090922,27.061038961038953L26.945454545454556,25.188311688311693L23.38181818181819,23.336363636363632L19.818181818181824,21.411688311688305L16.25454545454546,20.164935064935065L12.690909090909095,19.18961038961039L9.12727272727273,18.48961038961039L5.563636363636365,16.87012987012988L2,15.207792207792215"></path></g></svg>