<svg about="DATA_PUBLISHED_DATE:2022-01-16,RENDER_DATE:2022-01-16" xmlns="http://www.w3.org/2000/svg" viewBox="0,0,200,100"><g transform="translate(0,0)"></g><g class="fg-bars tests-vaccines" fill="#00183f" stroke="none"><g><rect x="197" y="59.529999999999994" width="2" height="40.470000000000006" id="tests-vaccines-0"></rect></g><g><rect x="193.43636363636364" y="26.91514285714286" width="2" height="73.08485714285715" id="tests-vaccines-1"></rect></g><g><rect x="189.87272727272727" y="36.38428571428571" width="2" height="63.61571428571429" id="tests-vaccines-2"></rect></g><g><rect x="186.30909090909088" y="38.69714285714285" width="2" height="61.30285714285715" id="tests-vaccines-3"></rect></g><g><rect x="182.74545454545455" y="39.55942857142857" width="2" height="60.44057142857143" id="tests-vaccines-4"></rect></g><g><rect x="179.1818181818182" y="44.320857142857136" width="2" height="55.679142857142864" id="tests-vaccines-5"></rect></g><g><rect x="175.61818181818182" y="84.97114285714285" width="2" height="15.028857142857149" id="tests-vaccines-6"></rect></g><g><rect x="172.05454545454546" y="97.82600000000001" width="2" height="2.1739999999999924" id="tests-vaccines-7"></rect></g><g><rect x="168.49090909090907" y="78.77542857142858" width="2" height="21.224571428571423" id="tests-vaccines-8"></rect></g><g><rect x="164.92727272727274" y="37.10885714285715" width="2" height="62.89114285714285" id="tests-vaccines-9"></rect></g><g><rect x="161.36363636363637" y="31.893428571428572" width="2" height="68.10657142857143" id="tests-vaccines-10"></rect></g><g><rect x="157.8" y="31.782" width="2" height="68.218" id="tests-vaccines-11"></rect></g><g><rect x="154.23636363636365" y="40.288000000000004" width="2" height="59.711999999999996" id="tests-vaccines-12"></rect></g><g><rect x="150.6727272727273" y="84.206" width="2" height="15.793999999999997" id="tests-vaccines-13"></rect></g><g><rect x="147.1090909090909" y="99.74542857142858" width="2" height="0.254571428571424" id="tests-vaccines-14"></rect></g><g><rect x="143.54545454545453" y="87.17200000000001" width="2" height="12.827999999999989" id="tests-vaccines-15"></rect></g><g><rect x="139.9818181818182" y="38.37085714285714" width="2" height="61.62914285714286" id="tests-vaccines-16"></rect></g><g><rect x="136.41818181818184" y="27.30514285714286" width="2" height="72.69485714285713" id="tests-vaccines-17"></rect></g><g><rect x="132.85454545454544" y="25.200857142857146" width="2" height="74.79914285714285" id="tests-vaccines-18"></rect></g><g><rect x="129.29090909090908" y="30.186" width="2" height="69.814" id="tests-vaccines-19"></rect></g><g><rect x="125.72727272727273" y="79.43599999999999" width="2" height="20.564000000000007" id="tests-vaccines-20"></rect></g><g><rect x="122.16363636363636" y="59.24257142857143" width="2" height="40.75742857142857" id="tests-vaccines-21"></rect></g><g><rect x="118.6" y="26.05114285714286" width="2" height="73.94885714285714" id="tests-vaccines-22"></rect></g><g><rect x="115.03636363636363" y="35.133428571428574" width="2" height="64.86657142857143" id="tests-vaccines-23"></rect></g><g><rect x="111.47272727272728" y="33.58685714285714" width="2" height="66.41314285714286" id="tests-vaccines-24"></rect></g><g><rect x="107.90909090909089" y="35.50342857142857" width="2" height="64.49657142857143" id="tests-vaccines-25"></rect></g><g><rect x="104.34545454545456" y="38.06371428571429" width="2" height="61.93628571428571" id="tests-vaccines-26"></rect></g><g><rect x="100.78181818181817" y="80.01057142857142" width="2" height="19.989428571428576" id="tests-vaccines-27"></rect></g><g><rect x="97.21818181818183" y="53.93" width="2" height="46.07" id="tests-vaccines-28"></rect></g><g><rect x="93.65454545454546" y="19.56485714285714" width="2" height="80.43514285714286" id="tests-vaccines-29"></rect></g><g><rect x="90.09090909090911" y="27.553142857142852" width="2" height="72.44685714285714" id="tests-vaccines-30"></rect></g><g><rect x="86.52727272727273" y="25.19571428571429" width="2" height="74.80428571428571" id="tests-vaccines-31"></rect></g><g><rect x="82.96363636363637" y="25.348285714285712" width="2" height="74.65171428571429" id="tests-vaccines-32"></rect></g><g><rect x="79.4" y="30.631142857142855" width="2" height="69.36885714285714" id="tests-vaccines-33"></rect></g><g><rect x="75.83636363636364" y="76.20085714285713" width="2" height="23.79914285714287" id="tests-vaccines-34"></rect></g><g><rect x="72.27272727272727" y="47.58571428571429" width="2" height="52.41428571428571" id="tests-vaccines-35"></rect></g><g><rect x="68.70909090909092" y="8.836857142857147" width="2" height="91.16314285714286" id="tests-vaccines-36"></rect></g><g><rect x="65.14545454545454" y="19.43057142857143" width="2" height="80.56942857142857" id="tests-vaccines-37"></rect></g><g><rect x="61.58181818181818" y="21.39171428571428" width="2" height="78.60828571428573" id="tests-vaccines-38"></rect></g><g><rect x="58.018181818181816" y="29.197142857142854" width="2" height="70.80285714285715" id="tests-vaccines-39"></rect></g><g><rect x="54.454545454545446" y="38.84285714285715" width="2" height="61.15714285714285" id="tests-vaccines-40"></rect></g><g><rect x="50.89090909090908" y="81.53371428571428" width="2" height="18.466285714285718" id="tests-vaccines-41"></rect></g><g><rect x="47.32727272727273" y="67.21457142857143" width="2" height="32.78542857142857" id="tests-vaccines-42"></rect></g><g><rect x="43.76363636363636" y="56.221999999999994" width="2" height="43.778000000000006" id="tests-vaccines-43"></rect></g><g><rect x="40.199999999999996" y="98.578" width="2" height="1.421999999999997" id="tests-vaccines-44"></rect></g><g><rect x="36.636363636363626" y="41.257714285714286" width="2" height="58.742285714285714" id="tests-vaccines-45"></rect></g><g><rect x="33.072727272727285" y="30.117714285714282" width="2" height="69.88228571428571" id="tests-vaccines-46"></rect></g><g><rect x="29.509090909090922" y="33.250857142857136" width="2" height="66.74914285714286" id="tests-vaccines-47"></rect></g><g><rect x="25.945454545454556" y="78.786" width="2" height="21.214" id="tests-vaccines-48"></rect></g><g><rect x="22.38181818181819" y="54.93257142857143" width="2" height="45.06742857142857" id="tests-vaccines-49"></rect></g><g><rect x="18.818181818181824" y="22.575428571428567" width="2" height="77.42457142857143" id="tests-vaccines-50"></rect></g><g><rect x="15.254545454545461" y="34.682" width="2" height="65.318" id="tests-vaccines-51"></rect></g><g><rect x="11.690909090909095" y="33.542571428571435" width="2" height="66.45742857142857" id="tests-vaccines-52"></rect></g><g><rect x="8.12727272727273" y="35.10628571428571" width="2" height="64.89371428571428" id="tests-vaccines-53"></rect></g><g><rect x="4.563636363636365" y="40.75971428571429" width="2" height="59.24028571428571" id="tests-vaccines-54"></rect></g><g><rect x="1" y="79.43457142857143" width="2" height="20.56542857142857" id="tests-vaccines-55"></rect></g></g><g class="fg-line tests-vaccines" fill="none" stroke="#92c5de" stroke-width="2" stroke-linecap="round"><path d="M198,47.19685714285714L194.43636363636364,52.66771428571428L190.87272727272727,60.076326530612256L187.30909090909088,60.17983673469388L183.74545454545455,59.2078775510204L180.1818181818182,58.09681632653061L176.61818181818182,57.52069387755102L173.05454545454546,57.41138775510204L169.49090909090907,57.685591836734694L165.92727272727274,58.88510204081632L162.36363636363637,59.06538775510204L158.8,58.40991836734695L155.23636363636365,57.46975510204082L151.6727272727273,56.026612244897954L148.1090909090909,55.34518367346939L144.54545454545453,49.559061224489795L140.9818181818182,40.82751020408163L137.41818181818184,40.36502040816327L133.85454545454544,41.262408163265306L130.29090909090908,42.734204081632654L126.72727272727273,43.859591836734694L123.16363636363636,43.94167346938775L119.6,43.18273469387754L116.03636363636363,42.256122448979596L112.47272727272728,41.17322448979591L108.90909090909089,39.974489795918366L105.34545454545456,38.52375510204082L101.78181818181817,37.461959183673464L98.21818181818183,36.91771428571429L94.65454545454546,36.01138775510204L91.09090909090911,34.478816326530605L87.52727272727273,33.31844897959183L83.96363636363637,32.77502040816326L80.4,33.32485714285715L76.83636363636364,34.497959183673466L73.27272727272727,35.259795918367345L69.70909090909092,38.063918367346936L66.14545454545454,44.83322448979592L62.58181818181818,56.14L59.018181818181816,58.977999999999994L55.454545454545446,59.10951020408164L51.89090909090908,58.31065306122449L48.32727272727273,57.918122448979595L44.76363636363636,56.163551020408164L41.199999999999996,51.35689795918368L37.636363636363626,42.228897959183676L34.072727272727285,41.12673469387755L30.509090909090922,41.839387755102045L26.945454545454556,42.91208163265306L23.38181818181819,43.004734693877545L19.818181818181824,43.32069387755102L16.25454545454546,43.73130612244898L12.690909090909095,44.114285714285714L9.12727272727273,44.336938775510205L5.563636363636365,44.68848979591837L2,44.94877551020409"></path></g></svg>