<svg about="DATA_PUBLISHED_DATE:2021-10-14,RENDER_DATE:2021-10-14" xmlns="http://www.w3.org/2000/svg" viewBox="0,0,200,100"><g transform="translate(0,0)"></g><g class="fg-bars tests-vaccines" fill="#00183f" stroke="none"><g><rect x="197" y="30.451428571428572" width="2" height="69.54857142857142" id="tests-vaccines-0"></rect></g><g><rect x="193.43636363636364" y="27.67571428571428" width="2" height="72.32428571428572" id="tests-vaccines-1"></rect></g><g><rect x="189.87272727272727" y="28.78428571428572" width="2" height="71.21571428571428" id="tests-vaccines-2"></rect></g><g><rect x="186.30909090909088" y="74.755" width="2" height="25.245000000000005" id="tests-vaccines-3"></rect></g><g><rect x="182.74545454545455" y="53.293571428571425" width="2" height="46.706428571428575" id="tests-vaccines-4"></rect></g><g><rect x="179.1818181818182" y="0.43642857142857094" width="2" height="99.56357142857144" id="tests-vaccines-5"></rect></g><g><rect x="175.61818181818182" y="8.588571428571424" width="2" height="91.41142857142857" id="tests-vaccines-6"></rect></g><g><rect x="172.05454545454546" y="10.612142857142858" width="2" height="89.38785714285714" id="tests-vaccines-7"></rect></g><g><rect x="168.49090909090907" y="9.71928571428572" width="2" height="90.28071428571428" id="tests-vaccines-8"></rect></g><g><rect x="164.92727272727274" y="21.569285714285712" width="2" height="78.43071428571429" id="tests-vaccines-9"></rect></g><g><rect x="161.36363636363637" y="72.51142857142857" width="2" height="27.488571428571433" id="tests-vaccines-10"></rect></g><g><rect x="157.8" y="50.50571428571429" width="2" height="49.49428571428571" id="tests-vaccines-11"></rect></g><g><rect x="154.23636363636365" y="24.37785714285714" width="2" height="75.62214285714286" id="tests-vaccines-12"></rect></g><g><rect x="150.6727272727273" y="49.78785714285714" width="2" height="50.21214285714286" id="tests-vaccines-13"></rect></g><g><rect x="147.1090909090909" y="49.567142857142855" width="2" height="50.432857142857145" id="tests-vaccines-14"></rect></g><g><rect x="143.54545454545453" y="47.975" width="2" height="52.025" id="tests-vaccines-15"></rect></g><g><rect x="139.9818181818182" y="43.59857142857143" width="2" height="56.40142857142857" id="tests-vaccines-16"></rect></g><g><rect x="136.41818181818184" y="76.87285714285714" width="2" height="23.127142857142857" id="tests-vaccines-17"></rect></g><g><rect x="132.85454545454544" y="59.85928571428572" width="2" height="40.14071428571428" id="tests-vaccines-18"></rect></g><g><rect x="129.29090909090908" y="32.433571428571426" width="2" height="67.56642857142857" id="tests-vaccines-19"></rect></g><g><rect x="125.72727272727273" y="42.075714285714284" width="2" height="57.924285714285716" id="tests-vaccines-20"></rect></g><g><rect x="122.16363636363636" y="43.81214285714285" width="2" height="56.18785714285715" id="tests-vaccines-21"></rect></g><g><rect x="118.6" y="43.28785714285714" width="2" height="56.71214285714286" id="tests-vaccines-22"></rect></g><g><rect x="115.03636363636363" y="40.465714285714284" width="2" height="59.534285714285716" id="tests-vaccines-23"></rect></g><g><rect x="111.47272727272728" y="75.07214285714285" width="2" height="24.92785714285715" id="tests-vaccines-24"></rect></g><g><rect x="107.90909090909089" y="55.57785714285715" width="2" height="44.42214285714285" id="tests-vaccines-25"></rect></g><g><rect x="104.34545454545456" y="24.00928571428571" width="2" height="75.99071428571429" id="tests-vaccines-26"></rect></g><g><rect x="100.78181818181817" y="37.74928571428572" width="2" height="62.25071428571428" id="tests-vaccines-27"></rect></g><g><rect x="97.21818181818183" y="37.254285714285714" width="2" height="62.745714285714286" id="tests-vaccines-28"></rect></g><g><rect x="93.65454545454546" y="30.65" width="2" height="69.35" id="tests-vaccines-29"></rect></g><g><rect x="90.09090909090911" y="86.35285714285715" width="2" height="13.647142857142853" id="tests-vaccines-30"></rect></g><g><rect x="86.52727272727273" y="73.12714285714286" width="2" height="26.872857142857143" id="tests-vaccines-31"></rect></g><g><rect x="82.96363636363637" y="54.894285714285715" width="2" height="45.105714285714285" id="tests-vaccines-32"></rect></g><g><rect x="79.4" y="16.83571428571429" width="2" height="83.16428571428571" id="tests-vaccines-33"></rect></g><g><rect x="75.83636363636364" y="33.681428571428576" width="2" height="66.31857142857143" id="tests-vaccines-34"></rect></g><g><rect x="72.27272727272727" y="31.871428571428574" width="2" height="68.12857142857143" id="tests-vaccines-35"></rect></g><g><rect x="68.70909090909092" y="29.059999999999995" width="2" height="70.94" id="tests-vaccines-36"></rect></g><g><rect x="65.14545454545454" y="28.215714285714288" width="2" height="71.78428571428572" id="tests-vaccines-37"></rect></g><g><rect x="61.58181818181818" y="69.61285714285714" width="2" height="30.387142857142862" id="tests-vaccines-38"></rect></g><g><rect x="58.018181818181816" y="44.47785714285715" width="2" height="55.52214285714285" id="tests-vaccines-39"></rect></g><g><rect x="54.454545454545446" y="8.51857142857143" width="2" height="91.48142857142857" id="tests-vaccines-40"></rect></g><g><rect x="50.89090909090908" y="25.69714285714285" width="2" height="74.30285714285715" id="tests-vaccines-41"></rect></g><g><rect x="47.32727272727273" y="26.705000000000002" width="2" height="73.295" id="tests-vaccines-42"></rect></g><g><rect x="43.76363636363636" y="23.895" width="2" height="76.105" id="tests-vaccines-43"></rect></g><g><rect x="40.199999999999996" y="24.36785714285714" width="2" height="75.63214285714287" id="tests-vaccines-44"></rect></g><g><rect x="36.636363636363626" y="70.0157142857143" width="2" height="29.984285714285704" id="tests-vaccines-45"></rect></g><g><rect x="33.072727272727285" y="45.86857142857143" width="2" height="54.13142857142857" id="tests-vaccines-46"></rect></g><g><rect x="29.509090909090922" y="9.522857142857145" width="2" height="90.47714285714285" id="tests-vaccines-47"></rect></g><g><rect x="25.945454545454556" y="27.39571428571429" width="2" height="72.60428571428571" id="tests-vaccines-48"></rect></g><g><rect x="22.38181818181819" y="27.201428571428576" width="2" height="72.79857142857142" id="tests-vaccines-49"></rect></g><g><rect x="18.818181818181824" y="27.001428571428576" width="2" height="72.99857142857142" id="tests-vaccines-50"></rect></g><g><rect x="15.254545454545461" y="30.59571428571428" width="2" height="69.40428571428572" id="tests-vaccines-51"></rect></g><g><rect x="11.690909090909095" y="71.06214285714285" width="2" height="28.937857142857155" id="tests-vaccines-52"></rect></g><g><rect x="8.12727272727273" y="47.90214285714286" width="2" height="52.09785714285714" id="tests-vaccines-53"></rect></g><g><rect x="4.563636363636365" y="20.16285714285714" width="2" height="79.83714285714287" id="tests-vaccines-54"></rect></g><g><rect x="1" y="36.94071428571428" width="2" height="63.05928571428572" id="tests-vaccines-55"></rect></g></g><g class="fg-line tests-vaccines" fill="none" stroke="#92c5de" stroke-width="2" stroke-linecap="round"><path d="M198,31.997857142857143L194.43636363636364,29.163673469387753L190.87272727272727,26.59846938775511L187.30909090909088,25.567755102040824L183.74545454545455,25.247244897959188L180.1818181818182,24.848979591836738L176.61818181818182,28.26918367346939L173.05454545454546,34.154795918367356L169.49090909090907,39.71979591836735L165.92727272727274,45.18489795918368L162.36363636363637,48.33193877551021L158.8,48.955000000000005L155.23636363636365,50.29122448979593L151.6727272727273,51.442040816326525L148.1090909090909,50.34030612244897L144.54545454545453,49.518163265306114L140.9818181818182,48.84857142857143L137.41818181818184,48.40102040816326L133.85454545454544,48.14377551020408L130.29090909090908,47.53214285714286L126.72727272727273,46.32867346938775L123.16363636363636,45.710612244897966L119.6,44.77377551020408L116.03636363636363,42.96836734693878L112.47272727272728,49.52367346938775L108.90909090909089,49.24581632653061L105.34545454545456,49.148163265306124L101.78181818181817,48.123367346938785L98.21818181818183,47.542244897959186L94.65454545454546,46.77326530612246L91.09090909090911,46.5461224489796L87.52727272727273,38.24081632653061L83.96363636363637,37.73877551020408L80.4,36.25071428571428L76.83636363636364,35.06255102040817L73.27272727272727,33.921938775510206L69.70909090909092,33.1838775510204L66.14545454545454,32.44602040816326L62.58181818181818,31.89632653061225L59.018181818181816,31.953877551020405L55.454545454545446,32.15255102040817L51.89090909090908,32.29602040816326L48.32727272727273,32.53867346938776L44.76363636363636,32.60959183673469L41.199999999999996,33.05336734693878L37.636363636363626,33.94306122448979L34.072727272727285,34.092551020408166L30.509090909090922,34.38306122448979L26.945454545454556,35.9030612244898L23.38181818181819,37.26663265306123L19.818181818181824,39.13051020408164L16.25454545454546,40.22551020408164L12.690909090909095,41.155612244897966L9.12727272727273,41.709591836734695L5.563636363636365,42.60755102040817L2,43.2938775510204"></path></g></svg>