<svg about="DATA_PUBLISHED_DATE:2021-12-05,RENDER_DATE:2021-12-05" xmlns="http://www.w3.org/2000/svg" viewBox="0,0,200,100"><g transform="translate(0,0)"></g><g class="fg-bars cases-ep" fill="#00183f" stroke="none"><g><rect x="197" y="52.7" width="2" height="47.3" id="cases-ep-0"></rect></g><g><rect x="193.43636363636364" y="48.025" width="2" height="51.975" id="cases-ep-1"></rect></g><g><rect x="189.87272727272727" y="43.137499999999996" width="2" height="56.862500000000004" id="cases-ep-2"></rect></g><g><rect x="186.30909090909088" y="68.325" width="2" height="31.674999999999997" id="cases-ep-3"></rect></g><g><rect x="182.74545454545455" y="64.43749999999999" width="2" height="35.562500000000014" id="cases-ep-4"></rect></g><g><rect x="179.1818181818182" y="47.075" width="2" height="52.925" id="cases-ep-5"></rect></g><g><rect x="175.61818181818182" y="46.0125" width="2" height="53.9875" id="cases-ep-6"></rect></g><g><rect x="172.05454545454546" y="39.4625" width="2" height="60.5375" id="cases-ep-7"></rect></g><g><rect x="168.49090909090907" y="35.587500000000006" width="2" height="64.4125" id="cases-ep-8"></rect></g><g><rect x="164.92727272727274" y="22.387500000000003" width="2" height="77.6125" id="cases-ep-9"></rect></g><g><rect x="161.36363636363637" y="60.575" width="2" height="39.425" id="cases-ep-10"></rect></g><g><rect x="157.8" y="57.8625" width="2" height="42.1375" id="cases-ep-11"></rect></g><g><rect x="154.23636363636365" y="37.3375" width="2" height="62.6625" id="cases-ep-12"></rect></g><g><rect x="150.6727272727273" y="46.56249999999999" width="2" height="53.43750000000001" id="cases-ep-13"></rect></g><g><rect x="147.1090909090909" y="30.7125" width="2" height="69.2875" id="cases-ep-14"></rect></g><g><rect x="143.54545454545453" y="27.437500000000004" width="2" height="72.5625" id="cases-ep-15"></rect></g><g><rect x="139.9818181818182" y="17.762500000000003" width="2" height="82.2375" id="cases-ep-16"></rect></g><g><rect x="136.41818181818184" y="57.4125" width="2" height="42.5875" id="cases-ep-17"></rect></g><g><rect x="132.85454545454544" y="54.837500000000006" width="2" height="45.162499999999994" id="cases-ep-18"></rect></g><g><rect x="129.29090909090908" y="31.499999999999993" width="2" height="68.5" id="cases-ep-19"></rect></g><g><rect x="125.72727272727273" y="25.4625" width="2" height="74.5375" id="cases-ep-20"></rect></g><g><rect x="122.16363636363636" y="20.8375" width="2" height="79.1625" id="cases-ep-21"></rect></g><g><rect x="118.6" y="19.825000000000003" width="2" height="80.175" id="cases-ep-22"></rect></g><g><rect x="115.03636363636363" y="8.787500000000003" width="2" height="91.21249999999999" id="cases-ep-23"></rect></g><g><rect x="111.47272727272728" y="56.75" width="2" height="43.25" id="cases-ep-24"></rect></g><g><rect x="107.90909090909089" y="51.1625" width="2" height="48.8375" id="cases-ep-25"></rect></g><g><rect x="104.34545454545456" y="30.074999999999996" width="2" height="69.92500000000001" id="cases-ep-26"></rect></g><g><rect x="100.78181818181817" y="24.7625" width="2" height="75.2375" id="cases-ep-27"></rect></g><g><rect x="97.21818181818183" y="18.912499999999998" width="2" height="81.0875" id="cases-ep-28"></rect></g><g><rect x="93.65454545454546" y="15.937500000000004" width="2" height="84.0625" id="cases-ep-29"></rect></g><g><rect x="90.09090909090911" y="10.424999999999995" width="2" height="89.575" id="cases-ep-30"></rect></g><g><rect x="86.52727272727273" y="55.86249999999999" width="2" height="44.13750000000001" id="cases-ep-31"></rect></g><g><rect x="82.96363636363637" y="49.8375" width="2" height="50.1625" id="cases-ep-32"></rect></g><g><rect x="79.4" y="25.900000000000002" width="2" height="74.1" id="cases-ep-33"></rect></g><g><rect x="75.83636363636364" y="26.5625" width="2" height="73.4375" id="cases-ep-34"></rect></g><g><rect x="72.27272727272727" y="22.524999999999995" width="2" height="77.47500000000001" id="cases-ep-35"></rect></g><g><rect x="68.70909090909092" y="20.887500000000003" width="2" height="79.1125" id="cases-ep-36"></rect></g><g><rect x="65.14545454545454" y="12.562499999999998" width="2" height="87.4375" id="cases-ep-37"></rect></g><g><rect x="61.58181818181818" y="55.662499999999994" width="2" height="44.337500000000006" id="cases-ep-38"></rect></g><g><rect x="58.018181818181816" y="54.949999999999996" width="2" height="45.050000000000004" id="cases-ep-39"></rect></g><g><rect x="54.454545454545446" y="34.550000000000004" width="2" height="65.44999999999999" id="cases-ep-40"></rect></g><g><rect x="50.89090909090908" y="34.575" width="2" height="65.425" id="cases-ep-41"></rect></g><g><rect x="47.32727272727273" y="30.225" width="2" height="69.775" id="cases-ep-42"></rect></g><g><rect x="43.76363636363636" y="28.000000000000004" width="2" height="72" id="cases-ep-43"></rect></g><g><rect x="40.199999999999996" y="28.037500000000005" width="2" height="71.96249999999999" id="cases-ep-44"></rect></g><g><rect x="36.636363636363626" y="59.175" width="2" height="40.825" id="cases-ep-45"></rect></g><g><rect x="33.072727272727285" y="56.49999999999999" width="2" height="43.50000000000001" id="cases-ep-46"></rect></g><g><rect x="29.509090909090922" y="35.78750000000001" width="2" height="64.21249999999999" id="cases-ep-47"></rect></g><g><rect x="25.945454545454556" y="34.175" width="2" height="65.825" id="cases-ep-48"></rect></g><g><rect x="22.38181818181819" y="25.5625" width="2" height="74.4375" id="cases-ep-49"></rect></g><g><rect x="18.818181818181824" y="22.624999999999996" width="2" height="77.375" id="cases-ep-50"></rect></g><g><rect x="15.254545454545461" y="15.575000000000006" width="2" height="84.425" id="cases-ep-51"></rect></g><g><rect x="11.690909090909095" y="57.962500000000006" width="2" height="42.037499999999994" id="cases-ep-52"></rect></g><g><rect x="8.12727272727273" y="54.2875" width="2" height="45.7125" id="cases-ep-53"></rect></g><g><rect x="4.563636363636365" y="29.012499999999996" width="2" height="70.98750000000001" id="cases-ep-54"></rect></g><g><rect x="1" y="28.212499999999995" width="2" height="71.78750000000001" id="cases-ep-55"></rect></g></g><g class="fg-line cases-ep" fill="none" stroke="#92c5de" stroke-width="2" stroke-linecap="round"><path d="M198,52.81607142857143L194.43636363636364,50.925L190.87272727272727,49.14821428571429L187.30909090909088,46.18392857142857L183.74545454545455,45.07678571428572L180.1818181818182,44.137499999999996L176.61818181818182,42.74642857142857L173.05454545454546,42.825L169.49090909090907,41.574999999999996L165.92727272727274,40.41071428571429L162.36363636363637,39.75L158.8,39.29821428571428L155.23636363636365,38.86607142857144L151.6727272727273,38.03214285714286L148.1090909090909,35.017857142857146L144.54545454545453,33.60714285714286L140.9818181818182,32.51964285714286L137.41818181818184,31.237499999999997L133.85454545454544,31.14285714285715L130.29090909090908,30.61785714285714L126.72727272727273,30.414285714285715L123.16363636363636,30.314285714285717L119.6,30.03928571428571L116.03636363636363,29.483928571428564L112.47272727272728,29.71785714285714L108.90909090909089,29.591071428571436L105.34545454545456,29.40178571428571L101.78181818181817,28.805357142857147L98.21818181818183,29.062500000000004L94.65454545454546,29.578571428571433L91.09090909090911,30.285714285714292L87.52727272727273,30.591071428571436L83.96363636363637,30.562500000000004L80.4,31.292857142857144L76.83636363636364,32.52857142857143L73.27272727272727,33.673214285714295L69.70909090909092,34.773214285714296L66.14545454545454,35.78928571428571L62.58181818181818,38L59.018181818181816,38.50178571428571L55.454545454545446,38.72321428571429L51.89090909090908,38.9L48.32727272727273,38.84285714285715L44.76363636363636,38.176785714285714L41.199999999999996,37.40892857142857L37.636363636363626,35.62857142857143L34.072727272727285,35.455357142857146L30.509090909090922,35.139285714285705L26.945454545454556,34.171428571428564L23.38181818181819,33.31964285714285L19.818181818181824,32.94107142857143L16.25454545454546,32.00892857142856L12.690909090909095,30.526785714285708L9.12727272727273,29.883928571428562L5.563636363636365,28.91785714285714L2,28.139285714285712"></path></g></svg>