<svg about="DATA_PUBLISHED_DATE:2021-10-01,RENDER_DATE:2021-10-01" xmlns="http://www.w3.org/2000/svg" viewBox="0,0,200,100"><g transform="translate(0,0)"></g><g class="fg-bars cases-ep" fill="#00183f" stroke="none"><g><rect x="197" y="63.477777777777774" width="2" height="36.522222222222226" id="cases-ep-0"></rect></g><g><rect x="193.43636363636364" y="61.44444444444444" width="2" height="38.55555555555556" id="cases-ep-1"></rect></g><g><rect x="189.87272727272727" y="55.75" width="2" height="44.25" id="cases-ep-2"></rect></g><g><rect x="186.30909090909088" y="78.75555555555556" width="2" height="21.24444444444444" id="cases-ep-3"></rect></g><g><rect x="182.74545454545455" y="74.66666666666666" width="2" height="25.333333333333343" id="cases-ep-4"></rect></g><g><rect x="179.1818181818182" y="61.08888888888888" width="2" height="38.91111111111112" id="cases-ep-5"></rect></g><g><rect x="175.61818181818182" y="57.68888888888889" width="2" height="42.31111111111111" id="cases-ep-6"></rect></g><g><rect x="172.05454545454546" y="52.283333333333324" width="2" height="47.716666666666676" id="cases-ep-7"></rect></g><g><rect x="168.49090909090907" y="48.78888888888889" width="2" height="51.21111111111111" id="cases-ep-8"></rect></g><g><rect x="164.92727272727274" y="43.07222222222222" width="2" height="56.92777777777778" id="cases-ep-9"></rect></g><g><rect x="161.36363636363637" y="71.39444444444445" width="2" height="28.605555555555554" id="cases-ep-10"></rect></g><g><rect x="157.8" y="66.32222222222222" width="2" height="33.67777777777778" id="cases-ep-11"></rect></g><g><rect x="154.23636363636365" y="49.28888888888889" width="2" height="50.71111111111111" id="cases-ep-12"></rect></g><g><rect x="150.6727272727273" y="44.55555555555556" width="2" height="55.44444444444444" id="cases-ep-13"></rect></g><g><rect x="147.1090909090909" y="37.96666666666667" width="2" height="62.03333333333333" id="cases-ep-14"></rect></g><g><rect x="143.54545454545453" y="32.038888888888884" width="2" height="67.96111111111111" id="cases-ep-15"></rect></g><g><rect x="139.9818181818182" y="64.13333333333333" width="2" height="35.866666666666674" id="cases-ep-16"></rect></g><g><rect x="136.41818181818184" y="71.30000000000001" width="2" height="28.69999999999999" id="cases-ep-17"></rect></g><g><rect x="132.85454545454544" y="63.349999999999994" width="2" height="36.650000000000006" id="cases-ep-18"></rect></g><g><rect x="129.29090909090908" y="45.88333333333333" width="2" height="54.11666666666667" id="cases-ep-19"></rect></g><g><rect x="125.72727272727273" y="40.11666666666667" width="2" height="59.88333333333333" id="cases-ep-20"></rect></g><g><rect x="122.16363636363636" y="30.133333333333333" width="2" height="69.86666666666667" id="cases-ep-21"></rect></g><g><rect x="118.6" y="32.23888888888888" width="2" height="67.76111111111112" id="cases-ep-22"></rect></g><g><rect x="115.03636363636363" y="26.97222222222222" width="2" height="73.02777777777777" id="cases-ep-23"></rect></g><g><rect x="111.47272727272728" y="64.32222222222221" width="2" height="35.67777777777779" id="cases-ep-24"></rect></g><g><rect x="107.90909090909089" y="57.49444444444445" width="2" height="42.50555555555555" id="cases-ep-25"></rect></g><g><rect x="104.34545454545456" y="38.23888888888889" width="2" height="61.76111111111111" id="cases-ep-26"></rect></g><g><rect x="100.78181818181817" y="31.54444444444444" width="2" height="68.45555555555556" id="cases-ep-27"></rect></g><g><rect x="97.21818181818183" y="25.222222222222225" width="2" height="74.77777777777777" id="cases-ep-28"></rect></g><g><rect x="93.65454545454546" y="22.933333333333326" width="2" height="77.06666666666668" id="cases-ep-29"></rect></g><g><rect x="90.09090909090911" y="15.755555555555556" width="2" height="84.24444444444444" id="cases-ep-30"></rect></g><g><rect x="86.52727272727273" y="58.644444444444446" width="2" height="41.355555555555554" id="cases-ep-31"></rect></g><g><rect x="82.96363636363637" y="51.150000000000006" width="2" height="48.849999999999994" id="cases-ep-32"></rect></g><g><rect x="79.4" y="26.249999999999996" width="2" height="73.75" id="cases-ep-33"></rect></g><g><rect x="75.83636363636364" y="23.4" width="2" height="76.6" id="cases-ep-34"></rect></g><g><rect x="72.27272727272727" y="17.188888888888886" width="2" height="82.81111111111112" id="cases-ep-35"></rect></g><g><rect x="68.70909090909092" y="15.16666666666666" width="2" height="84.83333333333334" id="cases-ep-36"></rect></g><g><rect x="65.14545454545454" y="11.816666666666665" width="2" height="88.18333333333334" id="cases-ep-37"></rect></g><g><rect x="61.58181818181818" y="55.016666666666666" width="2" height="44.983333333333334" id="cases-ep-38"></rect></g><g><rect x="58.018181818181816" y="47.150000000000006" width="2" height="52.849999999999994" id="cases-ep-39"></rect></g><g><rect x="54.454545454545446" y="24.111111111111118" width="2" height="75.88888888888889" id="cases-ep-40"></rect></g><g><rect x="50.89090909090908" y="19.422222222222217" width="2" height="80.57777777777778" id="cases-ep-41"></rect></g><g><rect x="47.32727272727273" y="14.73333333333333" width="2" height="85.26666666666667" id="cases-ep-42"></rect></g><g><rect x="43.76363636363636" y="10.911111111111115" width="2" height="89.08888888888889" id="cases-ep-43"></rect></g><g><rect x="40.199999999999996" y="10.32777777777778" width="2" height="89.67222222222222" id="cases-ep-44"></rect></g><g><rect x="36.636363636363626" y="52.35000000000001" width="2" height="47.64999999999999" id="cases-ep-45"></rect></g><g><rect x="33.072727272727285" y="46.666666666666664" width="2" height="53.333333333333336" id="cases-ep-46"></rect></g><g><rect x="29.509090909090922" y="28.749999999999996" width="2" height="71.25" id="cases-ep-47"></rect></g><g><rect x="25.945454545454556" y="23.644444444444446" width="2" height="76.35555555555555" id="cases-ep-48"></rect></g><g><rect x="22.38181818181819" y="22.338888888888885" width="2" height="77.66111111111111" id="cases-ep-49"></rect></g><g><rect x="18.818181818181824" y="20.644444444444442" width="2" height="79.35555555555555" id="cases-ep-50"></rect></g><g><rect x="15.254545454545461" y="22.405555555555555" width="2" height="77.59444444444445" id="cases-ep-51"></rect></g><g><rect x="11.690909090909095" y="53.38333333333334" width="2" height="46.61666666666666" id="cases-ep-52"></rect></g><g><rect x="8.12727272727273" y="53.07777777777778" width="2" height="46.92222222222222" id="cases-ep-53"></rect></g><g><rect x="4.563636363636365" y="38.72777777777778" width="2" height="61.27222222222222" id="cases-ep-54"></rect></g><g><rect x="1" y="34.92777777777778" width="2" height="65.07222222222222" id="cases-ep-55"></rect></g></g><g class="fg-line cases-ep" fill="none" stroke="#92c5de" stroke-width="2" stroke-linecap="round"><path d="M198,64.69603174603175L194.43636363636364,63.096825396825395L190.87272727272727,61.288888888888884L187.30909090909088,59.47777777777779L183.74545454545455,58.42619047619048L180.1818181818182,57.23412698412697L176.61818181818182,55.5484126984127L173.05454545454546,53.672222222222224L169.49090909090907,51.62698412698412L165.92727272727274,49.23412698412698L162.36363636363637,52.24285714285715L158.8,52.229365079365074L155.23636363636365,51.80476190476191L151.6727272727273,51.318253968253956L148.1090909090909,50.68412698412699L144.54545454545453,49.56507936507937L140.9818181818182,49.59365079365079L137.41818181818184,44.28492063492063L133.85454545454544,43.28809523809524L130.29090909090908,42.4515873015873L126.72727272727273,41.359523809523814L123.16363636363636,40.13492063492063L119.6,39.43333333333333L116.03636363636363,38.103968253968254L112.47272727272728,36.5015873015873L108.90909090909089,35.69047619047618L105.34545454545456,34.784126984126985L101.78181818181817,33.07142857142858L98.21818181818183,31.90793650793651L94.65454545454546,30.760317460317466L91.09090909090911,29.65079365079365L87.52727272727273,29.088095238095235L83.96363636363637,28.569841269841277L80.4,27.9984126984127L76.83636363636364,27.692857142857143L73.27272727272727,27.124603174603166L69.70909090909092,26.773809523809522L66.14545454545454,26.16587301587302L62.58181818181818,25.95317460317461L59.018181818181816,25.57222222222222L55.454545454545446,25.503174603174607L51.89090909090908,26.16587301587302L48.32727272727273,26.769047619047615L44.76363636363636,27.855555555555554L41.199999999999996,29.246031746031743L37.636363636363626,30.97142857142857L34.072727272727285,31.119047619047613L30.509090909090922,32.034920634920624L26.945454545454556,33.460317460317455L23.38181818181819,35.07222222222223L19.818181818181824,36.82777777777778L16.25454545454546,39.3063492063492L12.690909090909095,41.149206349206345L9.12727272727273,42.756349206349206L5.563636363636365,44.146031746031746L2,46.52777777777778"></path></g></svg>