<svg about="DATA_PUBLISHED_DATE:2021-10-13,RENDER_DATE:2021-10-13" xmlns="http://www.w3.org/2000/svg" viewBox="0,0,200,100"><g transform="translate(0,0)"></g><g class="fg-bars cases-ep" fill="#00183f" stroke="none"><g><rect x="197" y="68.11666666666667" width="2" height="31.883333333333326" id="cases-ep-0"></rect></g><g><rect x="193.43636363636364" y="84.96111111111111" width="2" height="15.038888888888891" id="cases-ep-1"></rect></g><g><rect x="189.87272727272727" y="82.31111111111112" width="2" height="17.688888888888883" id="cases-ep-2"></rect></g><g><rect x="186.30909090909088" y="72.02777777777779" width="2" height="27.972222222222214" id="cases-ep-3"></rect></g><g><rect x="182.74545454545455" y="69.6" width="2" height="30.400000000000006" id="cases-ep-4"></rect></g><g><rect x="179.1818181818182" y="67.19444444444444" width="2" height="32.80555555555556" id="cases-ep-5"></rect></g><g><rect x="175.61818181818182" y="64.05000000000001" width="2" height="35.94999999999999" id="cases-ep-6"></rect></g><g><rect x="172.05454545454546" y="59.3" width="2" height="40.7" id="cases-ep-7"></rect></g><g><rect x="168.49090909090907" y="80.1" width="2" height="19.900000000000006" id="cases-ep-8"></rect></g><g><rect x="164.92727272727274" y="77.37777777777778" width="2" height="22.62222222222222" id="cases-ep-9"></rect></g><g><rect x="161.36363636363637" y="66.62222222222223" width="2" height="33.377777777777766" id="cases-ep-10"></rect></g><g><rect x="157.8" y="64.86111111111111" width="2" height="35.138888888888886" id="cases-ep-11"></rect></g><g><rect x="154.23636363636365" y="59.83888888888889" width="2" height="40.16111111111111" id="cases-ep-12"></rect></g><g><rect x="150.6727272727273" y="58.85555555555555" width="2" height="41.14444444444445" id="cases-ep-13"></rect></g><g><rect x="147.1090909090909" y="52.33888888888889" width="2" height="47.66111111111111" id="cases-ep-14"></rect></g><g><rect x="143.54545454545453" y="77.42777777777778" width="2" height="22.572222222222223" id="cases-ep-15"></rect></g><g><rect x="139.9818181818182" y="73.17222222222222" width="2" height="26.827777777777783" id="cases-ep-16"></rect></g><g><rect x="136.41818181818184" y="60.044444444444444" width="2" height="39.955555555555556" id="cases-ep-17"></rect></g><g><rect x="132.85454545454544" y="56.888888888888886" width="2" height="43.111111111111114" id="cases-ep-18"></rect></g><g><rect x="129.29090909090908" y="51.44444444444445" width="2" height="48.55555555555555" id="cases-ep-19"></rect></g><g><rect x="125.72727272727273" y="48.35" width="2" height="51.65" id="cases-ep-20"></rect></g><g><rect x="122.16363636363636" y="42.93888888888889" width="2" height="57.06111111111111" id="cases-ep-21"></rect></g><g><rect x="118.6" y="70.99444444444445" width="2" height="29.005555555555546" id="cases-ep-22"></rect></g><g><rect x="115.03636363636363" y="65.95" width="2" height="34.05" id="cases-ep-23"></rect></g><g><rect x="111.47272727272728" y="48.99444444444444" width="2" height="51.00555555555556" id="cases-ep-24"></rect></g><g><rect x="107.90909090909089" y="44.25555555555556" width="2" height="55.74444444444444" id="cases-ep-25"></rect></g><g><rect x="104.34545454545456" y="37.866666666666674" width="2" height="62.133333333333326" id="cases-ep-26"></rect></g><g><rect x="100.78181818181817" y="31.988888888888887" width="2" height="68.01111111111112" id="cases-ep-27"></rect></g><g><rect x="97.21818181818183" y="63.60555555555556" width="2" height="36.39444444444444" id="cases-ep-28"></rect></g><g><rect x="93.65454545454546" y="70.69444444444444" width="2" height="29.305555555555557" id="cases-ep-29"></rect></g><g><rect x="90.09090909090911" y="63" width="2" height="37" id="cases-ep-30"></rect></g><g><rect x="86.52727272727273" y="45.53333333333334" width="2" height="54.46666666666666" id="cases-ep-31"></rect></g><g><rect x="82.96363636363637" y="39.97777777777778" width="2" height="60.02222222222222" id="cases-ep-32"></rect></g><g><rect x="79.4" y="29.705555555555552" width="2" height="70.29444444444445" id="cases-ep-33"></rect></g><g><rect x="75.83636363636364" y="31.855555555555558" width="2" height="68.14444444444445" id="cases-ep-34"></rect></g><g><rect x="72.27272727272727" y="26.52777777777777" width="2" height="73.47222222222223" id="cases-ep-35"></rect></g><g><rect x="68.70909090909092" y="63.82222222222222" width="2" height="36.17777777777778" id="cases-ep-36"></rect></g><g><rect x="65.14545454545454" y="57.044444444444444" width="2" height="42.955555555555556" id="cases-ep-37"></rect></g><g><rect x="61.58181818181818" y="37.861111111111114" width="2" height="62.138888888888886" id="cases-ep-38"></rect></g><g><rect x="58.018181818181816" y="31.21666666666667" width="2" height="68.78333333333333" id="cases-ep-39"></rect></g><g><rect x="54.454545454545446" y="24.66111111111111" width="2" height="75.33888888888889" id="cases-ep-40"></rect></g><g><rect x="50.89090909090908" y="22.28888888888889" width="2" height="77.71111111111111" id="cases-ep-41"></rect></g><g><rect x="47.32727272727273" y="15.116666666666667" width="2" height="84.88333333333333" id="cases-ep-42"></rect></g><g><rect x="43.76363636363636" y="58.43888888888888" width="2" height="41.56111111111112" id="cases-ep-43"></rect></g><g><rect x="40.199999999999996" y="50.922222222222224" width="2" height="49.077777777777776" id="cases-ep-44"></rect></g><g><rect x="36.636363636363626" y="25.755555555555553" width="2" height="74.24444444444444" id="cases-ep-45"></rect></g><g><rect x="33.072727272727285" y="23.083333333333332" width="2" height="76.91666666666667" id="cases-ep-46"></rect></g><g><rect x="29.509090909090922" y="16.827777777777776" width="2" height="83.17222222222222" id="cases-ep-47"></rect></g><g><rect x="25.945454545454556" y="14.14444444444445" width="2" height="85.85555555555555" id="cases-ep-48"></rect></g><g><rect x="22.38181818181819" y="10.555555555555552" width="2" height="89.44444444444444" id="cases-ep-49"></rect></g><g><rect x="18.818181818181824" y="54.71666666666667" width="2" height="45.28333333333333" id="cases-ep-50"></rect></g><g><rect x="15.254545454545461" y="46.833333333333336" width="2" height="53.166666666666664" id="cases-ep-51"></rect></g><g><rect x="11.690909090909095" y="23.744444444444447" width="2" height="76.25555555555556" id="cases-ep-52"></rect></g><g><rect x="8.12727272727273" y="19.15555555555556" width="2" height="80.84444444444443" id="cases-ep-53"></rect></g><g><rect x="4.563636363636365" y="14.40555555555556" width="2" height="85.59444444444443" id="cases-ep-54"></rect></g><g><rect x="1" y="10.272222222222227" width="2" height="89.72777777777777" id="cases-ep-55"></rect></g></g><g class="fg-line cases-ep" fill="none" stroke="#92c5de" stroke-width="2" stroke-linecap="round"><path d="M198,72.60873015873015L194.43636363636364,71.34920634920636L190.87272727272727,70.6547619047619L187.30909090909088,69.95L183.74545454545455,69.17777777777778L180.1818181818182,68.50079365079364L176.61818181818182,67.45L173.05454545454546,66.70793650793652L169.49090909090907,65.71349206349207L165.92727272727274,65.33174603174604L162.36363636363637,64.73095238095237L158.8,63.79126984126984L155.23636363636365,62.65238095238095L151.6727272727273,61.45317460317461L148.1090909090909,59.952380952380956L144.54545454545453,58.6095238095238L140.9818181818182,57.69047619047619L137.41818181818184,56.65873015873015L133.85454545454544,55.08015873015872L130.29090909090908,53.27539682539684L126.72727272727273,51.33571428571428L123.16363636363636,48.99841269841269L119.6,51.95079365079365L116.03636363636363,51.907936507936505L112.47272727272728,51.48650793650794L108.90909090909089,50.99206349206349L105.34545454545456,50.380952380952394L101.78181818181817,49.215079365079376L98.21818181818183,49.19603174603174L94.65454545454546,43.89920634920635L91.09090909090911,42.91746031746032L87.52727272727273,42.06666666666666L83.96363636363637,40.97063492063492L80.4,39.71904761904761L76.83636363636364,38.9984126984127L73.27272727272727,37.63174603174604L69.70909090909092,36.0015873015873L66.14545454545454,35.23253968253969L62.58181818181818,34.3579365079365L59.018181818181816,32.628571428571426L55.454545454545446,31.466666666666665L51.89090909090908,30.347619047619055L48.32727272727273,29.18412698412698L44.76363636363636,28.53253968253968L41.199999999999996,28.000793650793653L37.636363636363626,27.416666666666668L34.072727272727285,27.129365079365076L30.509090909090922,26.568253968253963L26.945454545454556,26.222222222222225L23.38181818181819,25.669047619047614L19.818181818181824,25.53095238095239L16.25454545454546,25.156349206349205L12.690909090909095,25.103968253968254L9.12727272727273,25.776984126984125L5.563636363636365,26.28650793650794L2,27.35952380952381"></path></g></svg>