<svg meta="{&quot;DATA_PUBLISHED_DATE&quot;:&quot;2022-06-07&quot;,&quot;RENDER_DATE&quot;:&quot;2022-06-07&quot;,&quot;FIRST_DATE&quot;:&quot;2022-04-04&quot;,&quot;LAST_DATE&quot;:&quot;2022-05-29&quot;}" xmlns="http://www.w3.org/2000/svg" viewBox="0,0,200,100"><g transform="translate(0,0)"></g><g class="fg-bars cases-ep" fill="#00183f" stroke="none"><g><rect x="197" y="65.285" width="2" height="34.715" id="cases-ep-0"></rect></g><g><rect x="193.43636363636364" y="58.715" width="2" height="41.285" id="cases-ep-1"></rect></g><g><rect x="189.87272727272727" y="31.679999999999996" width="2" height="68.32000000000001" id="cases-ep-2"></rect></g><g><rect x="186.30909090909088" y="24.644999999999996" width="2" height="75.355" id="cases-ep-3"></rect></g><g><rect x="182.74545454545455" y="16.549999999999997" width="2" height="83.45" id="cases-ep-4"></rect></g><g><rect x="179.1818181818182" y="10.98" width="2" height="89.02" id="cases-ep-5"></rect></g><g><rect x="175.61818181818182" y="4.174999999999995" width="2" height="95.825" id="cases-ep-6"></rect></g><g><rect x="172.05454545454546" y="58.11500000000001" width="2" height="41.88499999999999" id="cases-ep-7"></rect></g><g><rect x="168.49090909090907" y="56.275" width="2" height="43.725" id="cases-ep-8"></rect></g><g><rect x="164.92727272727274" y="31.084999999999997" width="2" height="68.915" id="cases-ep-9"></rect></g><g><rect x="161.36363636363637" y="28.12" width="2" height="71.88" id="cases-ep-10"></rect></g><g><rect x="157.8" y="22.075" width="2" height="77.925" id="cases-ep-11"></rect></g><g><rect x="154.23636363636365" y="19.740000000000002" width="2" height="80.25999999999999" id="cases-ep-12"></rect></g><g><rect x="150.6727272727273" y="13.790000000000003" width="2" height="86.21" id="cases-ep-13"></rect></g><g><rect x="147.1090909090909" y="61.28" width="2" height="38.72" id="cases-ep-14"></rect></g><g><rect x="143.54545454545453" y="60.72500000000001" width="2" height="39.27499999999999" id="cases-ep-15"></rect></g><g><rect x="139.9818181818182" y="43.375" width="2" height="56.625" id="cases-ep-16"></rect></g><g><rect x="136.41818181818184" y="42.95" width="2" height="57.05" id="cases-ep-17"></rect></g><g><rect x="132.85454545454544" y="41.025" width="2" height="58.975" id="cases-ep-18"></rect></g><g><rect x="129.29090909090908" y="40.695" width="2" height="59.305" id="cases-ep-19"></rect></g><g><rect x="125.72727272727273" y="36.315" width="2" height="63.685" id="cases-ep-20"></rect></g><g><rect x="122.16363636363636" y="70.045" width="2" height="29.955" id="cases-ep-21"></rect></g><g><rect x="118.6" y="68.63" width="2" height="31.370000000000005" id="cases-ep-22"></rect></g><g><rect x="115.03636363636363" y="55.735" width="2" height="44.265" id="cases-ep-23"></rect></g><g><rect x="111.47272727272728" y="53.77499999999999" width="2" height="46.22500000000001" id="cases-ep-24"></rect></g><g><rect x="107.90909090909089" y="51.455000000000005" width="2" height="48.544999999999995" id="cases-ep-25"></rect></g><g><rect x="104.34545454545456" y="50.805" width="2" height="49.195" id="cases-ep-26"></rect></g><g><rect x="100.78181818181817" y="48.69" width="2" height="51.31" id="cases-ep-27"></rect></g><g><rect x="97.21818181818183" y="74.62" width="2" height="25.379999999999995" id="cases-ep-28"></rect></g><g><rect x="93.65454545454546" y="76.075" width="2" height="23.924999999999997" id="cases-ep-29"></rect></g><g><rect x="90.09090909090911" y="67.55499999999999" width="2" height="32.44500000000001" id="cases-ep-30"></rect></g><g><rect x="86.52727272727273" y="65.19" width="2" height="34.81" id="cases-ep-31"></rect></g><g><rect x="82.96363636363637" y="63.324999999999996" width="2" height="36.675000000000004" id="cases-ep-32"></rect></g><g><rect x="79.4" y="62.605" width="2" height="37.395" id="cases-ep-33"></rect></g><g><rect x="75.83636363636364" y="61.02000000000001" width="2" height="38.97999999999999" id="cases-ep-34"></rect></g><g><rect x="72.27272727272727" y="82.155" width="2" height="17.845" id="cases-ep-35"></rect></g><g><rect x="68.70909090909092" y="82.075" width="2" height="17.924999999999997" id="cases-ep-36"></rect></g><g><rect x="65.14545454545454" y="74.38" width="2" height="25.620000000000005" id="cases-ep-37"></rect></g><g><rect x="61.58181818181818" y="72.855" width="2" height="27.144999999999996" id="cases-ep-38"></rect></g><g><rect x="58.018181818181816" y="72.085" width="2" height="27.915000000000006" id="cases-ep-39"></rect></g><g><rect x="54.454545454545446" y="70.83999999999999" width="2" height="29.16000000000001" id="cases-ep-40"></rect></g><g><rect x="50.89090909090908" y="68.8" width="2" height="31.200000000000003" id="cases-ep-41"></rect></g><g><rect x="47.32727272727273" y="88.385" width="2" height="11.614999999999995" id="cases-ep-42"></rect></g><g><rect x="43.76363636363636" y="86.685" width="2" height="13.314999999999998" id="cases-ep-43"></rect></g><g><rect x="40.199999999999996" y="81.83500000000001" width="2" height="18.164999999999992" id="cases-ep-44"></rect></g><g><rect x="36.636363636363626" y="81.47" width="2" height="18.53" id="cases-ep-45"></rect></g><g><rect x="33.072727272727285" y="80.155" width="2" height="19.845" id="cases-ep-46"></rect></g><g><rect x="29.509090909090922" y="79.63" width="2" height="20.370000000000005" id="cases-ep-47"></rect></g><g><rect x="25.945454545454556" y="77.975" width="2" height="22.025000000000006" id="cases-ep-48"></rect></g><g><rect x="22.38181818181819" y="89.02" width="2" height="10.980000000000004" id="cases-ep-49"></rect></g><g><rect x="18.818181818181824" y="89.77" width="2" height="10.230000000000004" id="cases-ep-50"></rect></g><g><rect x="15.254545454545461" y="85.31" width="2" height="14.689999999999998" id="cases-ep-51"></rect></g><g><rect x="11.690909090909095" y="84.72999999999999" width="2" height="15.27000000000001" id="cases-ep-52"></rect></g><g><rect x="8.12727272727273" y="82.965" width="2" height="17.034999999999997" id="cases-ep-53"></rect></g><g><rect x="4.563636363636365" y="83.225" width="2" height="16.775000000000006" id="cases-ep-54"></rect></g><g><rect x="1" y="81.015" width="2" height="18.985" id="cases-ep-55"></rect></g></g><g class="fg-line cases-ep" fill="none" stroke="#92c5de" stroke-width="2" stroke-linecap="round"><path d="M198,30.289999999999996L194.43636363636364,29.265714285714285L190.87272727272727,28.917142857142853L187.30909090909088,28.832142857142852L183.74545454545455,29.328571428571426L180.1818181818182,30.11785714285715L176.61818181818182,31.36928571428571L173.05454545454546,32.742857142857154L169.49090909090907,33.19499999999999L165.92727272727274,33.83071428571428L162.36363636363637,35.58642857142856L158.8,37.705L155.23636363636365,40.412142857142854L151.6727272727273,43.40571428571428L148.1090909090909,46.62357142857143L144.54545454545453,47.87571428571429L140.9818181818182,49.004999999999995L137.41818181818184,50.77071428571429L133.85454545454544,52.31714285714285L130.29090909090908,53.80714285714285L126.72727272727273,55.251428571428576L123.16363636363636,57.019285714285715L119.6,57.67285714285715L116.03636363636363,58.73642857142857L112.47272727272728,60.425L108.90909090909089,62.05571428571428L105.34545454545456,63.75142857142857L101.78181818181817,65.43714285714286L98.21818181818183,67.19857142857141L94.65454545454546,68.27499999999999L91.09090909090911,69.13214285714287L87.52727272727273,70.10714285714286L83.96363636363637,71.20214285714286L80.4,72.45357142857142L76.83636363636364,73.63L73.27272727272727,74.74142857142859L69.70909090909092,75.63142857142857L66.14545454545454,76.29L62.58181818181818,77.35499999999999L59.018181818181816,78.58571428571427L55.454545454545446,79.73857142857142L51.89090909090908,80.99428571428571L48.32727272727273,82.305L44.76363636363636,82.39571428571428L41.199999999999996,82.83642857142857L37.636363636363626,83.33285714285714L34.072727272727285,83.79857142857144L30.509090909090922,84.2L26.945454545454556,84.71357142857143L23.38181818181819,85.14785714285715L19.818181818181824,85.47785714285713L16.25454545454546,85.715L12.690909090909095,85.92357142857144L9.12727272727273,86.36214285714286L5.563636363636365,86.91357142857143L2,87.36071428571428"></path></g></svg>