<svg about="DATA_PUBLISHED_DATE:2021-11-22,RENDER_DATE:2021-11-22" xmlns="http://www.w3.org/2000/svg" viewBox="0,0,200,100"><g transform="translate(0,0)"></g><g class="fg-bars tests-vaccines" fill="#00183f" stroke="none"><g><rect x="197" y="73.7176923076923" width="2" height="26.282307692307697" id="tests-vaccines-0"></rect></g><g><rect x="193.43636363636364" y="45.605384615384615" width="2" height="54.394615384615385" id="tests-vaccines-1"></rect></g><g><rect x="189.87272727272727" y="4.41307692307692" width="2" height="95.58692307692309" id="tests-vaccines-2"></rect></g><g><rect x="186.30909090909088" y="19.738076923076918" width="2" height="80.26192307692308" id="tests-vaccines-3"></rect></g><g><rect x="182.74545454545455" y="16.573461538461544" width="2" height="83.42653846153846" id="tests-vaccines-4"></rect></g><g><rect x="179.1818181818182" y="18.93846153846154" width="2" height="81.06153846153846" id="tests-vaccines-5"></rect></g><g><rect x="175.61818181818182" y="25.11769230769231" width="2" height="74.88230769230769" id="tests-vaccines-6"></rect></g><g><rect x="172.05454545454546" y="75.03615384615385" width="2" height="24.96384615384615" id="tests-vaccines-7"></rect></g><g><rect x="168.49090909090907" y="52.52346153846155" width="2" height="47.47653846153845" id="tests-vaccines-8"></rect></g><g><rect x="164.92727272727274" y="9.262307692307692" width="2" height="90.73769230769231" id="tests-vaccines-9"></rect></g><g><rect x="161.36363636363637" y="26.07346153846154" width="2" height="73.92653846153846" id="tests-vaccines-10"></rect></g><g><rect x="157.8" y="28.864615384615387" width="2" height="71.13538461538461" id="tests-vaccines-11"></rect></g><g><rect x="154.23636363636365" y="28.62807692307693" width="2" height="71.37192307692307" id="tests-vaccines-12"></rect></g><g><rect x="150.6727272727273" y="32.915000000000006" width="2" height="67.085" id="tests-vaccines-13"></rect></g><g><rect x="147.1090909090909" y="80.68653846153846" width="2" height="19.31346153846154" id="tests-vaccines-14"></rect></g><g><rect x="143.54545454545453" y="60.80269230769231" width="2" height="39.19730769230769" id="tests-vaccines-15"></rect></g><g><rect x="139.9818181818182" y="16.884999999999994" width="2" height="83.11500000000001" id="tests-vaccines-16"></rect></g><g><rect x="136.41818181818184" y="30.691153846153853" width="2" height="69.30884615384615" id="tests-vaccines-17"></rect></g><g><rect x="132.85454545454544" y="30.543461538461536" width="2" height="69.45653846153846" id="tests-vaccines-18"></rect></g><g><rect x="129.29090909090908" y="31.37115384615384" width="2" height="68.62884615384615" id="tests-vaccines-19"></rect></g><g><rect x="125.72727272727273" y="37.605" width="2" height="62.395" id="tests-vaccines-20"></rect></g><g><rect x="122.16363636363636" y="81.86730769230769" width="2" height="18.13269230769231" id="tests-vaccines-21"></rect></g><g><rect x="118.6" y="64.62615384615384" width="2" height="35.37384615384616" id="tests-vaccines-22"></rect></g><g><rect x="115.03636363636363" y="37.90769230769231" width="2" height="62.09230769230769" id="tests-vaccines-23"></rect></g><g><rect x="111.47272727272728" y="63.18307692307692" width="2" height="36.81692307692308" id="tests-vaccines-24"></rect></g><g><rect x="107.90909090909089" y="64.63499999999999" width="2" height="35.36500000000001" id="tests-vaccines-25"></rect></g><g><rect x="104.34545454545456" y="63.46076923076923" width="2" height="36.53923076923077" id="tests-vaccines-26"></rect></g><g><rect x="100.78181818181817" y="61.933076923076925" width="2" height="38.066923076923075" id="tests-vaccines-27"></rect></g><g><rect x="97.21818181818183" y="88.29307692307692" width="2" height="11.706923076923076" id="tests-vaccines-28"></rect></g><g><rect x="93.65454545454546" y="77.43307692307692" width="2" height="22.566923076923075" id="tests-vaccines-29"></rect></g><g><rect x="90.09090909090911" y="51.790000000000006" width="2" height="48.209999999999994" id="tests-vaccines-30"></rect></g><g><rect x="86.52727272727273" y="61.49384615384616" width="2" height="38.50615384615384" id="tests-vaccines-31"></rect></g><g><rect x="82.96363636363637" y="61.99115384615384" width="2" height="38.00884615384616" id="tests-vaccines-32"></rect></g><g><rect x="79.4" y="59.575" width="2" height="40.425" id="tests-vaccines-33"></rect></g><g><rect x="75.83636363636364" y="59.005384615384614" width="2" height="40.994615384615386" id="tests-vaccines-34"></rect></g><g><rect x="72.27272727272727" y="86.34846153846154" width="2" height="13.651538461538465" id="tests-vaccines-35"></rect></g><g><rect x="68.70909090909092" y="74.97538461538463" width="2" height="25.024615384615373" id="tests-vaccines-36"></rect></g><g><rect x="65.14545454545454" y="45.32884615384616" width="2" height="54.67115384615384" id="tests-vaccines-37"></rect></g><g><rect x="61.58181818181818" y="55.24923076923076" width="2" height="44.75076923076924" id="tests-vaccines-38"></rect></g><g><rect x="58.018181818181816" y="58.24307692307693" width="2" height="41.75692307692307" id="tests-vaccines-39"></rect></g><g><rect x="54.454545454545446" y="57.25038461538461" width="2" height="42.74961538461539" id="tests-vaccines-40"></rect></g><g><rect x="50.89090909090908" y="57.45769230769231" width="2" height="42.54230769230769" id="tests-vaccines-41"></rect></g><g><rect x="47.32727272727273" y="85.31346153846154" width="2" height="14.686538461538461" id="tests-vaccines-42"></rect></g><g><rect x="43.76363636363636" y="73.94730769230769" width="2" height="26.05269230769231" id="tests-vaccines-43"></rect></g><g><rect x="40.199999999999996" y="44.31346153846154" width="2" height="55.68653846153846" id="tests-vaccines-44"></rect></g><g><rect x="36.636363636363626" y="49.35615384615385" width="2" height="50.64384615384615" id="tests-vaccines-45"></rect></g><g><rect x="33.072727272727285" y="50.441923076923075" width="2" height="49.558076923076925" id="tests-vaccines-46"></rect></g><g><rect x="29.509090909090922" y="50.26346153846154" width="2" height="49.73653846153846" id="tests-vaccines-47"></rect></g><g><rect x="25.945454545454556" y="54.34923076923077" width="2" height="45.65076923076923" id="tests-vaccines-48"></rect></g><g><rect x="22.38181818181819" y="84.86423076923077" width="2" height="15.135769230769228" id="tests-vaccines-49"></rect></g><g><rect x="18.818181818181824" y="72.7823076923077" width="2" height="27.217692307692303" id="tests-vaccines-50"></rect></g><g><rect x="15.254545454545461" y="58.373076923076916" width="2" height="41.626923076923084" id="tests-vaccines-51"></rect></g><g><rect x="11.690909090909095" y="72.3323076923077" width="2" height="27.667692307692306" id="tests-vaccines-52"></rect></g><g><rect x="8.12727272727273" y="72.27346153846153" width="2" height="27.726538461538468" id="tests-vaccines-53"></rect></g><g><rect x="4.563636363636365" y="71.43076923076923" width="2" height="28.56923076923077" id="tests-vaccines-54"></rect></g><g><rect x="1" y="69.15461538461538" width="2" height="30.845384615384617" id="tests-vaccines-55"></rect></g></g><g class="fg-line tests-vaccines" fill="none" stroke="#92c5de" stroke-width="2" stroke-linecap="round"><path d="M198,29.157692307692308L194.43636363636364,29.346043956043953L190.87272727272727,30.334340659340654L187.30909090909088,31.027087912087914L183.74545454545455,31.932142857142853L180.1818181818182,33.68802197802198L176.61818181818182,35.07225274725274L173.05454545454546,36.18615384615384L169.49090909090907,36.99335164835165L165.92727272727274,38.1760989010989L162.36363636363637,39.26505494505494L158.8,39.92472527472527L155.23636363636365,40.16456043956044L151.6727272727273,40.55642857142857L148.1090909090909,41.22642857142858L144.54545454545453,41.39510989010989L140.9818181818182,41.941318681318684L137.41818181818184,44.94456043956043L133.85454545454544,49.58626373626374L130.29090909090908,54.45648351648351L126.72727272727273,59.04071428571429L123.16363636363636,62.51615384615384L119.6,63.43412087912088L116.03636363636363,65.26368131868132L112.47272727272728,67.24686813186813L108.90909090909089,67.00554945054945L105.34545454545456,66.62785714285714L101.78181818181817,66.07274725274725L98.21818181818183,65.65450549450549L94.65454545454546,65.37670329670328L91.09090909090911,65.0256043956044L87.52727272727273,64.10258241758243L83.96363636363637,63.210494505494495L80.4,62.67505494505494L76.83636363636364,62.34296703296703L73.27272727272727,62.121868131868126L69.70909090909092,61.974010989010985L66.14545454545454,61.82714285714286L62.58181818181818,61.682087912087916L59.018181818181816,60.84021978021978L55.454545454545446,59.72576923076923L51.89090909090908,58.72763736263737L48.32727272727273,58.283571428571435L44.76363636363636,58.219395604395594L41.199999999999996,58.05296703296703L37.636363636363626,60.06148351648351L34.072727272727285,63.34379120879121L30.509090909090922,66.46258241758241L26.945454545454556,69.48648351648352L23.38181818181819,71.60153846153847L19.818181818181824,71.96148351648351L16.25454545454546,72.71593406593406L12.690909090909095,73.36851648351647L9.12727272727273,72.78434065934066L5.563636363636365,72.34604395604396L2,71.98637362637363"></path></g></svg>