<svg about="DATA_PUBLISHED_DATE:2022-01-18,RENDER_DATE:2022-01-18" xmlns="http://www.w3.org/2000/svg" viewBox="0,0,200,100"><g transform="translate(0,0)"></g><g class="fg-bars cases-ep" fill="#00183f" stroke="none"><g><rect x="197" y="72.30187500000001" width="2" height="27.69812499999999" id="cases-ep-0"></rect></g><g><rect x="193.43636363636364" y="59.875625" width="2" height="40.124375" id="cases-ep-1"></rect></g><g><rect x="189.87272727272727" y="24.065000000000005" width="2" height="75.935" id="cases-ep-2"></rect></g><g><rect x="186.30909090909088" y="19.224375000000006" width="2" height="80.77562499999999" id="cases-ep-3"></rect></g><g><rect x="182.74545454545455" y="12.733749999999999" width="2" height="87.26625" id="cases-ep-4"></rect></g><g><rect x="179.1818181818182" y="9.851875" width="2" height="90.148125" id="cases-ep-5"></rect></g><g><rect x="175.61818181818182" y="19.760624999999997" width="2" height="80.239375" id="cases-ep-6"></rect></g><g><rect x="172.05454545454546" y="68.5175" width="2" height="31.4825" id="cases-ep-7"></rect></g><g><rect x="168.49090909090907" y="82.613125" width="2" height="17.386875000000003" id="cases-ep-8"></rect></g><g><rect x="164.92727272727274" y="68.88687499999999" width="2" height="31.11312500000001" id="cases-ep-9"></rect></g><g><rect x="161.36363636363637" y="49.075625" width="2" height="50.924375" id="cases-ep-10"></rect></g><g><rect x="157.8" y="46.930625000000006" width="2" height="53.069374999999994" id="cases-ep-11"></rect></g><g><rect x="154.23636363636365" y="47.543124999999996" width="2" height="52.456875000000004" id="cases-ep-12"></rect></g><g><rect x="150.6727272727273" y="55.459375" width="2" height="44.540625" id="cases-ep-13"></rect></g><g><rect x="147.1090909090909" y="79.095" width="2" height="20.905" id="cases-ep-14"></rect></g><g><rect x="143.54545454545453" y="91.638125" width="2" height="8.361874999999998" id="cases-ep-15"></rect></g><g><rect x="139.9818181818182" y="87.05874999999999" width="2" height="12.94125000000001" id="cases-ep-16"></rect></g><g><rect x="136.41818181818184" y="80.65124999999999" width="2" height="19.34875000000001" id="cases-ep-17"></rect></g><g><rect x="132.85454545454544" y="80.95125" width="2" height="19.04875" id="cases-ep-18"></rect></g><g><rect x="129.29090909090908" y="83.550625" width="2" height="16.449375000000003" id="cases-ep-19"></rect></g><g><rect x="125.72727272727273" y="85.979375" width="2" height="14.020624999999995" id="cases-ep-20"></rect></g><g><rect x="122.16363636363636" y="93.575625" width="2" height="6.424374999999998" id="cases-ep-21"></rect></g><g><rect x="118.6" y="94.05250000000001" width="2" height="5.947499999999991" id="cases-ep-22"></rect></g><g><rect x="115.03636363636363" y="93.16375000000001" width="2" height="6.836249999999993" id="cases-ep-23"></rect></g><g><rect x="111.47272727272728" y="93.704375" width="2" height="6.295625000000001" id="cases-ep-24"></rect></g><g><rect x="107.90909090909089" y="93.77437499999999" width="2" height="6.225625000000008" id="cases-ep-25"></rect></g><g><rect x="104.34545454545456" y="94.84375" width="2" height="5.15625" id="cases-ep-26"></rect></g><g><rect x="100.78181818181817" y="94.50937499999999" width="2" height="5.4906250000000085" id="cases-ep-27"></rect></g><g><rect x="97.21818181818183" y="97.28125" width="2" height="2.71875" id="cases-ep-28"></rect></g><g><rect x="93.65454545454546" y="97.370625" width="2" height="2.629374999999996" id="cases-ep-29"></rect></g><g><rect x="90.09090909090911" y="96.41187500000001" width="2" height="3.588124999999991" id="cases-ep-30"></rect></g><g><rect x="86.52727272727273" y="96.4175" width="2" height="3.582499999999996" id="cases-ep-31"></rect></g><g><rect x="82.96363636363637" y="95.965625" width="2" height="4.034374999999997" id="cases-ep-32"></rect></g><g><rect x="79.4" y="95.934375" width="2" height="4.065624999999997" id="cases-ep-33"></rect></g><g><rect x="75.83636363636364" y="95.379375" width="2" height="4.620625000000004" id="cases-ep-34"></rect></g><g><rect x="72.27272727272727" y="97.59187499999999" width="2" height="2.4081250000000125" id="cases-ep-35"></rect></g><g><rect x="68.70909090909092" y="97.408125" width="2" height="2.5918750000000017" id="cases-ep-36"></rect></g><g><rect x="65.14545454545454" y="96.164375" width="2" height="3.835624999999993" id="cases-ep-37"></rect></g><g><rect x="61.58181818181818" y="96.05375000000001" width="2" height="3.946249999999992" id="cases-ep-38"></rect></g><g><rect x="58.018181818181816" y="95.331875" width="2" height="4.668125000000003" id="cases-ep-39"></rect></g><g><rect x="54.454545454545446" y="95.580625" width="2" height="4.419375000000002" id="cases-ep-40"></rect></g><g><rect x="50.89090909090908" y="94.83500000000001" width="2" height="5.164999999999992" id="cases-ep-41"></rect></g><g><rect x="47.32727272727273" y="97.248125" width="2" height="2.7518749999999983" id="cases-ep-42"></rect></g><g><rect x="43.76363636363636" y="97.36375000000001" width="2" height="2.6362499999999898" id="cases-ep-43"></rect></g><g><rect x="40.199999999999996" y="97.28625" width="2" height="2.7137500000000045" id="cases-ep-44"></rect></g><g><rect x="36.636363636363626" y="98.57312499999999" width="2" height="1.4268750000000097" id="cases-ep-45"></rect></g><g><rect x="33.072727272727285" y="97.093125" width="2" height="2.9068749999999994" id="cases-ep-46"></rect></g><g><rect x="29.509090909090922" y="96.978125" width="2" height="3.0218749999999943" id="cases-ep-47"></rect></g><g><rect x="25.945454545454556" y="96.74625" width="2" height="3.2537499999999966" id="cases-ep-48"></rect></g><g><rect x="22.38181818181819" y="98.160625" width="2" height="1.839375000000004" id="cases-ep-49"></rect></g><g><rect x="18.818181818181824" y="97.96375" width="2" height="2.0362499999999955" id="cases-ep-50"></rect></g><g><rect x="15.254545454545461" y="97.141875" width="2" height="2.858125000000001" id="cases-ep-51"></rect></g><g><rect x="11.690909090909095" y="97.08875" width="2" height="2.9112499999999955" id="cases-ep-52"></rect></g><g><rect x="8.12727272727273" y="96.78999999999999" width="2" height="3.210000000000008" id="cases-ep-53"></rect></g><g><rect x="4.563636363636365" y="96.625625" width="2" height="3.3743750000000006" id="cases-ep-54"></rect></g><g><rect x="1" y="96.019375" width="2" height="3.9806250000000034" id="cases-ep-55"></rect></g></g><g class="fg-line cases-ep" fill="none" stroke="#92c5de" stroke-width="2" stroke-linecap="round"><path d="M198,31.116160714285712L194.43636363636364,30.575535714285717L190.87272727272727,33.82375L187.30909090909088,40.22687499999999L183.74545454545455,44.49133928571428L180.1818181818182,49.37660714285714L176.61818181818182,54.76107142857143L173.05454545454546,59.86089285714286L169.49090909090907,61.371964285714284L165.92727272727274,62.66125L162.36363636363637,65.25723214285715L158.8,69.76803571428572L155.23636363636365,74.628125L151.6727272727273,79.77205357142857L148.1090909090909,84.13205357142857L144.54545454545453,86.20071428571428L140.9818181818182,86.545625L137.41818181818184,87.41776785714286L133.85454545454544,89.2825L130.29090909090908,91.11437500000001L126.72727272727273,92.72767857142857L123.16363636363636,93.94624999999999L119.6,94.475625L116.03636363636363,94.94964285714286L112.47272727272728,95.41366071428573L108.90909090909089,95.80125000000001L105.34545454545456,96.11428571428571L101.78181818181817,96.27008928571429L98.21818181818183,96.394375L94.65454545454546,96.43875L91.09090909090911,96.44410714285713L87.52727272727273,96.40875L83.96363636363637,96.35678571428572L80.4,96.26625L76.83636363636364,96.21571428571428L73.27272727272727,96.13794642857142L69.70909090909092,96.08883928571429L66.14545454545454,96.08250000000001L62.58181818181818,96.24276785714285L59.018181818181816,96.60267857142857L55.454545454545446,96.85428571428571L51.89090909090908,97.05392857142857L48.32727272727273,97.3269642857143L44.76363636363636,97.45732142857143L41.199999999999996,97.54303571428571L37.636363636363626,97.52241071428571L34.072727272727285,97.31035714285714L30.509090909090922,97.26705357142858L26.945454545454556,97.21669642857142L23.38181818181819,97.11285714285715L19.818181818181824,97.08651785714287L16.25454545454546,97.07133928571429L12.690909090909095,97.02571428571429L9.12727272727273,97.05794642857143L5.563636363636365,97.01669642857142L2,96.974375"></path></g></svg>