<svg meta="{&quot;DATA_PUBLISHED_DATE&quot;:&quot;2022-03-14&quot;,&quot;RENDER_DATE&quot;:&quot;2022-03-14&quot;,&quot;FIRST_DATE&quot;:&quot;2022-01-10&quot;,&quot;LAST_DATE&quot;:&quot;2022-03-06&quot;}" xmlns="http://www.w3.org/2000/svg" viewBox="0,0,200,100"><g transform="translate(0,0)"></g><g class="fg-bars tests-vaccines" fill="#00183f" stroke="none"><g><rect x="197" y="94.65666666666667" width="2" height="5.343333333333334" id="tests-vaccines-0"></rect></g><g><rect x="193.43636363636364" y="88.25958333333334" width="2" height="11.740416666666661" id="tests-vaccines-1"></rect></g><g><rect x="189.87272727272727" y="77.71000000000001" width="2" height="22.289999999999992" id="tests-vaccines-2"></rect></g><g><rect x="186.30909090909088" y="83.67625" width="2" height="16.323750000000004" id="tests-vaccines-3"></rect></g><g><rect x="182.74545454545455" y="82.3" width="2" height="17.700000000000003" id="tests-vaccines-4"></rect></g><g><rect x="179.1818181818182" y="80.20833333333334" width="2" height="19.791666666666657" id="tests-vaccines-5"></rect></g><g><rect x="175.61818181818182" y="76.49125" width="2" height="23.508750000000006" id="tests-vaccines-6"></rect></g><g><rect x="172.05454545454546" y="91.96083333333334" width="2" height="8.03916666666666" id="tests-vaccines-7"></rect></g><g><rect x="168.49090909090907" y="84.06041666666667" width="2" height="15.939583333333331" id="tests-vaccines-8"></rect></g><g><rect x="164.92727272727274" y="69.77833333333334" width="2" height="30.221666666666664" id="tests-vaccines-9"></rect></g><g><rect x="161.36363636363637" y="77.88166666666667" width="2" height="22.118333333333325" id="tests-vaccines-10"></rect></g><g><rect x="157.8" y="77.92125" width="2" height="22.07875" id="tests-vaccines-11"></rect></g><g><rect x="154.23636363636365" y="77.50375000000001" width="2" height="22.49624999999999" id="tests-vaccines-12"></rect></g><g><rect x="150.6727272727273" y="83.06375" width="2" height="16.93625" id="tests-vaccines-13"></rect></g><g><rect x="147.1090909090909" y="91.21000000000001" width="2" height="8.789999999999992" id="tests-vaccines-14"></rect></g><g><rect x="143.54545454545453" y="81.53916666666666" width="2" height="18.46083333333334" id="tests-vaccines-15"></rect></g><g><rect x="139.9818181818182" y="65.45666666666668" width="2" height="34.54333333333332" id="tests-vaccines-16"></rect></g><g><rect x="136.41818181818184" y="74.94000000000001" width="2" height="25.059999999999988" id="tests-vaccines-17"></rect></g><g><rect x="132.85454545454544" y="75.19666666666667" width="2" height="24.803333333333327" id="tests-vaccines-18"></rect></g><g><rect x="129.29090909090908" y="76.16541666666666" width="2" height="23.83458333333334" id="tests-vaccines-19"></rect></g><g><rect x="125.72727272727273" y="79.12458333333333" width="2" height="20.875416666666666" id="tests-vaccines-20"></rect></g><g><rect x="122.16363636363636" y="91.98958333333334" width="2" height="8.010416666666657" id="tests-vaccines-21"></rect></g><g><rect x="118.6" y="78.94125" width="2" height="21.058750000000003" id="tests-vaccines-22"></rect></g><g><rect x="115.03636363636363" y="60.07083333333334" width="2" height="39.92916666666666" id="tests-vaccines-23"></rect></g><g><rect x="111.47272727272728" y="69.55666666666667" width="2" height="30.443333333333328" id="tests-vaccines-24"></rect></g><g><rect x="107.90909090909089" y="68.01916666666668" width="2" height="31.980833333333322" id="tests-vaccines-25"></rect></g><g><rect x="104.34545454545456" y="68.38875" width="2" height="31.61125" id="tests-vaccines-26"></rect></g><g><rect x="100.78181818181817" y="67.38041666666666" width="2" height="32.61958333333334" id="tests-vaccines-27"></rect></g><g><rect x="97.21818181818183" y="87.49083333333334" width="2" height="12.509166666666658" id="tests-vaccines-28"></rect></g><g><rect x="93.65454545454546" y="71.67833333333333" width="2" height="28.321666666666673" id="tests-vaccines-29"></rect></g><g><rect x="90.09090909090911" y="48.20375" width="2" height="51.79625" id="tests-vaccines-30"></rect></g><g><rect x="86.52727272727273" y="61.047916666666666" width="2" height="38.952083333333334" id="tests-vaccines-31"></rect></g><g><rect x="82.96363636363637" y="59.67958333333334" width="2" height="40.32041666666666" id="tests-vaccines-32"></rect></g><g><rect x="79.4" y="58.88791666666666" width="2" height="41.11208333333334" id="tests-vaccines-33"></rect></g><g><rect x="75.83636363636364" y="54.8125" width="2" height="45.1875" id="tests-vaccines-34"></rect></g><g><rect x="72.27272727272727" y="84.41666666666667" width="2" height="15.583333333333329" id="tests-vaccines-35"></rect></g><g><rect x="68.70909090909092" y="62.86333333333334" width="2" height="37.13666666666666" id="tests-vaccines-36"></rect></g><g><rect x="65.14545454545454" y="30.587083333333332" width="2" height="69.41291666666666" id="tests-vaccines-37"></rect></g><g><rect x="61.58181818181818" y="45.233333333333334" width="2" height="54.766666666666666" id="tests-vaccines-38"></rect></g><g><rect x="58.018181818181816" y="44.98791666666667" width="2" height="55.01208333333333" id="tests-vaccines-39"></rect></g><g><rect x="54.454545454545446" y="44.32125" width="2" height="55.67875" id="tests-vaccines-40"></rect></g><g><rect x="50.89090909090908" y="44.69541666666667" width="2" height="55.30458333333333" id="tests-vaccines-41"></rect></g><g><rect x="47.32727272727273" y="81.50291666666666" width="2" height="18.497083333333336" id="tests-vaccines-42"></rect></g><g><rect x="43.76363636363636" y="60.36416666666666" width="2" height="39.63583333333334" id="tests-vaccines-43"></rect></g><g><rect x="40.199999999999996" y="24.15125" width="2" height="75.84875" id="tests-vaccines-44"></rect></g><g><rect x="36.636363636363626" y="35.805416666666666" width="2" height="64.19458333333333" id="tests-vaccines-45"></rect></g><g><rect x="33.072727272727285" y="32.990833333333335" width="2" height="67.00916666666666" id="tests-vaccines-46"></rect></g><g><rect x="29.509090909090922" y="32.086666666666666" width="2" height="67.91333333333333" id="tests-vaccines-47"></rect></g><g><rect x="25.945454545454556" y="42.05916666666667" width="2" height="57.94083333333333" id="tests-vaccines-48"></rect></g><g><rect x="22.38181818181819" y="77.25791666666667" width="2" height="22.742083333333326" id="tests-vaccines-49"></rect></g><g><rect x="18.818181818181824" y="51.44333333333333" width="2" height="48.55666666666667" id="tests-vaccines-50"></rect></g><g><rect x="15.254545454545461" y="6.259166666666671" width="2" height="93.74083333333333" id="tests-vaccines-51"></rect></g><g><rect x="11.690909090909095" y="19.719166666666666" width="2" height="80.28083333333333" id="tests-vaccines-52"></rect></g><g><rect x="8.12727272727273" y="16.962083333333332" width="2" height="83.03791666666666" id="tests-vaccines-53"></rect></g><g><rect x="4.563636363636365" y="15.278333333333338" width="2" height="84.72166666666666" id="tests-vaccines-54"></rect></g><g><rect x="1" y="20.272916666666664" width="2" height="79.72708333333334" id="tests-vaccines-55"></rect></g></g><g class="fg-line tests-vaccines" fill="none" stroke="#92c5de" stroke-width="2" stroke-linecap="round"><path d="M198,83.32886904761905L194.43636363636364,82.94375000000001L190.87272727272727,82.34386904761905L187.30909090909088,81.2107738095238L183.74545454545455,80.38297619047619L180.1818181818182,79.75744047619048L176.61818181818182,79.37107142857143L173.05454545454546,80.31L169.49090909090907,80.20273809523809L165.92727272727274,79.84255952380951L162.36363636363637,79.22517857142857L158.8,78.80494047619048L155.23636363636365,78.41571428571427L151.6727272727273,78.2245238095238L148.1090909090909,77.66178571428571L144.54545454545453,77.77315476190476L140.9818181818182,77.40202380952381L137.41818181818184,76.63261904761904L133.85454545454544,75.86357142857143L130.29090909090908,74.83821428571429L126.72727272727273,73.7272619047619L123.16363636363636,72.0495238095238L119.6,71.40684523809524L116.03636363636363,70.36928571428571L112.47272727272728,68.6739880952381L108.90909090909089,67.45845238095238L105.34545454545456,66.26708333333333L101.78181818181817,64.90982142857142L98.21818181818183,63.114404761904765L94.65454545454546,62.67523809523809L91.09090909090911,61.415952380952376L87.52727272727273,58.89928571428571L83.96363636363637,56.640059523809526L80.4,54.541250000000005L76.83636363636364,52.46029761904762L73.27272727272727,51.015L69.70909090909092,50.59875L66.14545454545454,50.241726190476186L62.58181818181818,49.322321428571435L59.018181818181816,47.975476190476186L55.454545454545446,46.261607142857144L51.89090909090908,44.513809523809535L48.32727272727273,44.13720238095238L44.76363636363636,43.5307738095238L41.199999999999996,42.256369047619046L37.636363636363626,39.700357142857136L34.072727272727285,37.402321428571426L30.509090909090922,35.112500000000004L26.945454545454556,32.711309523809526L23.38181818181819,29.598988095238088L19.818181818181824,29.035773809523803L16.25454545454546,26.962678571428576L12.690909090909095,24.146369047619043L9.12727272727273,21.660892857142866L5.563636363636365,20.131726190476197L2,19.09964285714286"></path></g></svg>