<svg meta="{&quot;DATA_PUBLISHED_DATE&quot;:&quot;2023-05-04&quot;,&quot;RENDER_DATE&quot;:&quot;2023-05-04&quot;,&quot;FIRST_DATE&quot;:&quot;2023-03-01&quot;,&quot;LAST_DATE&quot;:&quot;2023-04-25&quot;}" xmlns="http://www.w3.org/2000/svg" viewBox="0,0,200,100"><g transform="translate(0,0)"></g><g class="fg-bars cases-ep" fill="#00183f" stroke="none"><g><rect x="197" y="63.48571428571428" width="2" height="36.51428571428572" id="cases-ep-0"></rect></g><g><rect x="193.43636363636364" y="56.77142857142857" width="2" height="43.22857142857143" id="cases-ep-1"></rect></g><g><rect x="189.87272727272727" y="76.74285714285715" width="2" height="23.257142857142853" id="cases-ep-2"></rect></g><g><rect x="186.30909090909088" y="76.02857142857142" width="2" height="23.971428571428575" id="cases-ep-3"></rect></g><g><rect x="182.74545454545455" y="68.17142857142858" width="2" height="31.828571428571422" id="cases-ep-4"></rect></g><g><rect x="179.1818181818182" y="65.2" width="2" height="34.8" id="cases-ep-5"></rect></g><g><rect x="175.61818181818182" y="63.62857142857143" width="2" height="36.37142857142857" id="cases-ep-6"></rect></g><g><rect x="172.05454545454546" y="59.74285714285714" width="2" height="40.25714285714286" id="cases-ep-7"></rect></g><g><rect x="168.49090909090907" y="53.51428571428571" width="2" height="46.48571428571429" id="cases-ep-8"></rect></g><g><rect x="164.92727272727274" y="76.65714285714286" width="2" height="23.34285714285714" id="cases-ep-9"></rect></g><g><rect x="161.36363636363637" y="72.85714285714286" width="2" height="27.14285714285714" id="cases-ep-10"></rect></g><g><rect x="157.8" y="64.42857142857143" width="2" height="35.57142857142857" id="cases-ep-11"></rect></g><g><rect x="154.23636363636365" y="58.20000000000001" width="2" height="41.79999999999999" id="cases-ep-12"></rect></g><g><rect x="150.6727272727273" y="56.68571428571428" width="2" height="43.31428571428572" id="cases-ep-13"></rect></g><g><rect x="147.1090909090909" y="54.68571428571429" width="2" height="45.31428571428571" id="cases-ep-14"></rect></g><g><rect x="143.54545454545453" y="43.2" width="2" height="56.8" id="cases-ep-15"></rect></g><g><rect x="139.9818181818182" y="74.88571428571429" width="2" height="25.114285714285714" id="cases-ep-16"></rect></g><g><rect x="136.41818181818184" y="70.42857142857143" width="2" height="29.57142857142857" id="cases-ep-17"></rect></g><g><rect x="132.85454545454544" y="62.542857142857144" width="2" height="37.457142857142856" id="cases-ep-18"></rect></g><g><rect x="129.29090909090908" y="59.599999999999994" width="2" height="40.400000000000006" id="cases-ep-19"></rect></g><g><rect x="125.72727272727273" y="58.371428571428574" width="2" height="41.628571428571426" id="cases-ep-20"></rect></g><g><rect x="122.16363636363636" y="55.25714285714285" width="2" height="44.74285714285715" id="cases-ep-21"></rect></g><g><rect x="118.6" y="47.77142857142857" width="2" height="52.22857142857143" id="cases-ep-22"></rect></g><g><rect x="115.03636363636363" y="72.6" width="2" height="27.400000000000006" id="cases-ep-23"></rect></g><g><rect x="111.47272727272728" y="69.05714285714286" width="2" height="30.942857142857136" id="cases-ep-24"></rect></g><g><rect x="107.90909090909089" y="59.285714285714285" width="2" height="40.714285714285715" id="cases-ep-25"></rect></g><g><rect x="104.34545454545456" y="55.22857142857143" width="2" height="44.77142857142857" id="cases-ep-26"></rect></g><g><rect x="100.78181818181817" y="54.371428571428574" width="2" height="45.628571428571426" id="cases-ep-27"></rect></g><g><rect x="97.21818181818183" y="53.942857142857136" width="2" height="46.057142857142864" id="cases-ep-28"></rect></g><g><rect x="93.65454545454546" y="49.42857142857143" width="2" height="50.57142857142857" id="cases-ep-29"></rect></g><g><rect x="90.09090909090911" y="71.97142857142858" width="2" height="28.028571428571425" id="cases-ep-30"></rect></g><g><rect x="86.52727272727273" y="71.88571428571429" width="2" height="28.114285714285714" id="cases-ep-31"></rect></g><g><rect x="82.96363636363637" y="57.68571428571428" width="2" height="42.31428571428572" id="cases-ep-32"></rect></g><g><rect x="79.4" y="53.65714285714286" width="2" height="46.34285714285714" id="cases-ep-33"></rect></g><g><rect x="75.83636363636364" y="53.54285714285714" width="2" height="46.45714285714286" id="cases-ep-34"></rect></g><g><rect x="72.27272727272727" y="48.457142857142856" width="2" height="51.542857142857144" id="cases-ep-35"></rect></g><g><rect x="68.70909090909092" y="40.48571428571428" width="2" height="59.51428571428572" id="cases-ep-36"></rect></g><g><rect x="65.14545454545454" y="68.31428571428572" width="2" height="31.685714285714283" id="cases-ep-37"></rect></g><g><rect x="61.58181818181818" y="63.857142857142854" width="2" height="36.142857142857146" id="cases-ep-38"></rect></g><g><rect x="58.018181818181816" y="48.142857142857146" width="2" height="51.857142857142854" id="cases-ep-39"></rect></g><g><rect x="54.454545454545446" y="43.057142857142864" width="2" height="56.942857142857136" id="cases-ep-40"></rect></g><g><rect x="50.89090909090908" y="42.25714285714286" width="2" height="57.74285714285714" id="cases-ep-41"></rect></g><g><rect x="47.32727272727273" y="38.857142857142854" width="2" height="61.142857142857146" id="cases-ep-42"></rect></g><g><rect x="43.76363636363636" y="18.94285714285714" width="2" height="81.05714285714286" id="cases-ep-43"></rect></g><g><rect x="40.199999999999996" y="59.42857142857143" width="2" height="40.57142857142857" id="cases-ep-44"></rect></g><g><rect x="36.636363636363626" y="55.85714285714285" width="2" height="44.14285714285715" id="cases-ep-45"></rect></g><g><rect x="33.072727272727285" y="37.48571428571429" width="2" height="62.51428571428571" id="cases-ep-46"></rect></g><g><rect x="29.509090909090922" y="29.714285714285715" width="2" height="70.28571428571428" id="cases-ep-47"></rect></g><g><rect x="25.945454545454556" y="28.45714285714286" width="2" height="71.54285714285714" id="cases-ep-48"></rect></g><g><rect x="22.38181818181819" y="26.314285714285713" width="2" height="73.68571428571428" id="cases-ep-49"></rect></g><g><rect x="18.818181818181824" y="13.457142857142856" width="2" height="86.54285714285714" id="cases-ep-50"></rect></g><g><rect x="15.254545454545461" y="55.91428571428572" width="2" height="44.08571428571428" id="cases-ep-51"></rect></g><g><rect x="11.690909090909095" y="51.37142857142858" width="2" height="48.62857142857142" id="cases-ep-52"></rect></g><g><rect x="8.12727272727273" y="29.65714285714286" width="2" height="70.34285714285714" id="cases-ep-53"></rect></g><g><rect x="4.563636363636365" y="23.742857142857144" width="2" height="76.25714285714285" id="cases-ep-54"></rect></g><g><rect x="1" y="19.62857142857143" width="2" height="80.37142857142857" id="cases-ep-55"></rect></g></g><g class="fg-line cases-ep" fill="none" stroke="#92c5de" stroke-width="2" stroke-linecap="round"><path d="M198,67.14693877551021L194.43636363636364,66.61224489795919L190.87272727272727,66.14693877551021L187.30909090909088,66.13469387755102L183.74545454545455,65.68163265306121L180.1818181818182,65.14693877551021L176.61818181818182,64.14693877551021L173.05454545454546,63.155102040816324L169.49090909090907,62.4326530612245L165.92727272727274,60.9591836734694L162.36363636363637,60.70612244897959L158.8,60.359183673469396L155.23636363636365,60.08979591836734L151.6727272727273,60.28979591836734L148.1090909090909,60.530612244897966L144.54545454545453,60.61224489795918L140.9818181818182,61.26530612244898L137.41818181818184,60.93877551020408L133.85454545454544,60.74285714285714L130.29090909090908,60.27755102040817L126.72727272727273,59.65306122448979L123.16363636363636,59.081632653061234L119.6,58.8938775510204L116.03636363636363,59.13061224489796L112.47272727272728,59.04081632653061L108.90909090909089,59.444897959183685L105.34545454545456,59.21632653061224L101.78181818181817,58.991836734693884L98.21818181818183,58.87346938775511L94.65454545454546,58.08979591836735L91.09090909090911,56.812244897959175L87.52727272727273,56.289795918367346L83.96363636363637,55.14285714285714L80.4,53.77959183673469L76.83636363636364,52.265306122448976L73.27272727272727,50.653061224489804L69.70909090909092,49.28163265306122L66.14545454545454,46.20408163265306L62.58181818181818,44.93469387755103L59.018181818181816,43.79183673469388L55.454545454545446,42.26938775510204L51.89090909090908,40.36326530612245L48.32727272727273,38.39183673469388L44.76363636363636,36.6L41.199999999999996,35.816326530612244L37.636363636363626,35.31428571428571L34.072727272727285,34.6734693877551L30.509090909090922,33.55510204081633L26.945454545454556,32.70204081632653L23.38181818181819,31.44081632653062L19.818181818181824,29.26938775510205L16.25454545454546,28.114285714285714L12.690909090909095,26.88571428571429L9.12727272727273,26.457142857142856L5.563636363636365,25.608163265306118L2,23.910204081632646"></path></g></svg>