<svg meta="{&quot;DATA_PUBLISHED_DATE&quot;:&quot;2022-05-13&quot;,&quot;RENDER_DATE&quot;:&quot;2022-05-13&quot;,&quot;FIRST_DATE&quot;:&quot;2022-03-10&quot;,&quot;LAST_DATE&quot;:&quot;2022-05-04&quot;}" xmlns="http://www.w3.org/2000/svg" viewBox="0,0,200,100"><g transform="translate(0,0)"></g><g class="fg-bars cases-ep" fill="#00183f" stroke="none"><g><rect x="197" y="8.609999999999996" width="2" height="91.39" id="cases-ep-0"></rect></g><g><rect x="193.43636363636364" y="8.499999999999996" width="2" height="91.5" id="cases-ep-1"></rect></g><g><rect x="189.87272727272727" y="3.7799999999999945" width="2" height="96.22" id="cases-ep-2"></rect></g><g><rect x="186.30909090909088" y="53.269999999999996" width="2" height="46.730000000000004" id="cases-ep-3"></rect></g><g><rect x="182.74545454545455" y="54.38000000000001" width="2" height="45.61999999999999" id="cases-ep-4"></rect></g><g><rect x="179.1818181818182" y="36.68" width="2" height="63.32" id="cases-ep-5"></rect></g><g><rect x="175.61818181818182" y="31.96" width="2" height="68.03999999999999" id="cases-ep-6"></rect></g><g><rect x="172.05454545454546" y="27.72" width="2" height="72.28" id="cases-ep-7"></rect></g><g><rect x="168.49090909090907" y="26.43" width="2" height="73.57" id="cases-ep-8"></rect></g><g><rect x="164.92727272727274" y="22.850000000000005" width="2" height="77.14999999999999" id="cases-ep-9"></rect></g><g><rect x="161.36363636363637" y="64.68" width="2" height="35.31999999999999" id="cases-ep-10"></rect></g><g><rect x="157.8" y="64.42999999999999" width="2" height="35.57000000000001" id="cases-ep-11"></rect></g><g><rect x="154.23636363636365" y="49.29" width="2" height="50.71" id="cases-ep-12"></rect></g><g><rect x="150.6727272727273" y="46" width="2" height="54" id="cases-ep-13"></rect></g><g><rect x="147.1090909090909" y="44.269999999999996" width="2" height="55.730000000000004" id="cases-ep-14"></rect></g><g><rect x="143.54545454545453" y="42.15" width="2" height="57.85" id="cases-ep-15"></rect></g><g><rect x="139.9818181818182" y="38.04" width="2" height="61.96" id="cases-ep-16"></rect></g><g><rect x="136.41818181818184" y="76.88000000000001" width="2" height="23.11999999999999" id="cases-ep-17"></rect></g><g><rect x="132.85454545454544" y="73.6" width="2" height="26.400000000000006" id="cases-ep-18"></rect></g><g><rect x="129.29090909090908" y="64.01" width="2" height="35.989999999999995" id="cases-ep-19"></rect></g><g><rect x="125.72727272727273" y="63.1" width="2" height="36.9" id="cases-ep-20"></rect></g><g><rect x="122.16363636363636" y="60.370000000000005" width="2" height="39.629999999999995" id="cases-ep-21"></rect></g><g><rect x="118.6" y="59.43000000000001" width="2" height="40.56999999999999" id="cases-ep-22"></rect></g><g><rect x="115.03636363636363" y="56.14" width="2" height="43.86" id="cases-ep-23"></rect></g><g><rect x="111.47272727272728" y="78.11" width="2" height="21.89" id="cases-ep-24"></rect></g><g><rect x="107.90909090909089" y="79.57" width="2" height="20.430000000000007" id="cases-ep-25"></rect></g><g><rect x="104.34545454545456" y="70.77" width="2" height="29.230000000000004" id="cases-ep-26"></rect></g><g><rect x="100.78181818181817" y="69.47" width="2" height="30.53" id="cases-ep-27"></rect></g><g><rect x="97.21818181818183" y="66.16" width="2" height="33.84" id="cases-ep-28"></rect></g><g><rect x="93.65454545454546" y="66.72" width="2" height="33.28" id="cases-ep-29"></rect></g><g><rect x="90.09090909090911" y="62.3" width="2" height="37.7" id="cases-ep-30"></rect></g><g><rect x="86.52727272727273" y="82.72" width="2" height="17.28" id="cases-ep-31"></rect></g><g><rect x="82.96363636363637" y="82.88" width="2" height="17.120000000000005" id="cases-ep-32"></rect></g><g><rect x="79.4" y="73.64999999999999" width="2" height="26.35000000000001" id="cases-ep-33"></rect></g><g><rect x="75.83636363636364" y="75.7" width="2" height="24.299999999999997" id="cases-ep-34"></rect></g><g><rect x="72.27272727272727" y="73.55000000000001" width="2" height="26.44999999999999" id="cases-ep-35"></rect></g><g><rect x="68.70909090909092" y="72.63999999999999" width="2" height="27.360000000000014" id="cases-ep-36"></rect></g><g><rect x="65.14545454545454" y="71.22999999999999" width="2" height="28.77000000000001" id="cases-ep-37"></rect></g><g><rect x="61.58181818181818" y="84.44" width="2" height="15.560000000000002" id="cases-ep-38"></rect></g><g><rect x="58.018181818181816" y="85.39999999999999" width="2" height="14.600000000000009" id="cases-ep-39"></rect></g><g><rect x="54.454545454545446" y="79.92" width="2" height="20.08" id="cases-ep-40"></rect></g><g><rect x="50.89090909090908" y="77.14999999999999" width="2" height="22.85000000000001" id="cases-ep-41"></rect></g><g><rect x="47.32727272727273" y="77.51" width="2" height="22.489999999999995" id="cases-ep-42"></rect></g><g><rect x="43.76363636363636" y="69.64" width="2" height="30.36" id="cases-ep-43"></rect></g><g><rect x="40.199999999999996" y="72.78999999999999" width="2" height="27.210000000000008" id="cases-ep-44"></rect></g><g><rect x="36.636363636363626" y="86.94" width="2" height="13.060000000000002" id="cases-ep-45"></rect></g><g><rect x="33.072727272727285" y="87.58" width="2" height="12.420000000000002" id="cases-ep-46"></rect></g><g><rect x="29.509090909090922" y="80.08" width="2" height="19.92" id="cases-ep-47"></rect></g><g><rect x="25.945454545454556" y="76.99000000000001" width="2" height="23.00999999999999" id="cases-ep-48"></rect></g><g><rect x="22.38181818181819" y="75.44999999999999" width="2" height="24.55000000000001" id="cases-ep-49"></rect></g><g><rect x="18.818181818181824" y="73.72000000000001" width="2" height="26.279999999999987" id="cases-ep-50"></rect></g><g><rect x="15.254545454545461" y="71.03999999999999" width="2" height="28.960000000000008" id="cases-ep-51"></rect></g><g><rect x="11.690909090909095" y="87.31" width="2" height="12.689999999999998" id="cases-ep-52"></rect></g><g><rect x="8.12727272727273" y="85.2" width="2" height="14.799999999999997" id="cases-ep-53"></rect></g><g><rect x="4.563636363636365" y="77.09" width="2" height="22.909999999999997" id="cases-ep-54"></rect></g><g><rect x="1" y="74.69" width="2" height="25.310000000000002" id="cases-ep-55"></rect></g></g><g class="fg-line cases-ep" fill="none" stroke="#92c5de" stroke-width="2" stroke-linecap="round"><path d="M198,28.168571428571433L194.43636363636364,30.89857142857143L190.87272727272727,33.46L187.30909090909088,36.184285714285714L183.74545454545455,37.81428571428571L180.1818181818182,39.24999999999999L176.61818181818182,41.05142857142857L173.05454545454546,43.05714285714285L169.49090909090907,45.42142857142857L165.92727272727274,47.66714285714285L162.36363636363637,49.83714285714286L158.8,51.580000000000005L155.23636363636365,52.88999999999999L151.6727272727273,54.992857142857154L148.1090909090909,57.435714285714276L144.54545454545453,59.735714285714295L140.9818181818182,62.20428571428571L137.41818181818184,64.78999999999999L133.85454545454544,64.96571428571428L130.29090909090908,65.81857142857143L126.72727272727273,66.78428571428572L123.16363636363636,67.69428571428571L119.6,68.52142857142857L116.03636363636363,69.56285714285715L112.47272727272728,70.44285714285714L108.90909090909089,71.10142857142857L105.34545454545456,71.57428571428572L101.78181818181817,71.98571428571428L98.21818181818183,72.87571428571428L94.65454545454546,73.93142857142858L91.09090909090911,74.77714285714285L87.52727272727273,76.05285714285715L83.96363636363637,76.29857142857142L80.4,76.65857142857142L76.83636363636364,77.55428571428571L73.27272727272727,77.76142857142857L69.70909090909092,78.32714285714286L66.14545454545454,77.89857142857143L62.58181818181818,78.12142857142858L59.018181818181816,78.47857142857141L55.454545454545446,78.79L51.89090909090908,78.81285714285714L48.32727272727273,78.79L44.76363636363636,78.49571428571429L41.199999999999996,79.07857142857142L37.636363636363626,78.82857142857142L34.072727272727285,78.88142857142857L30.509090909090922,78.54142857142857L26.945454545454556,78.11428571428571L23.38181818181819,77.78571428571428L19.818181818181824,77.01L16.25454545454546,76.05571428571429L12.690909090909095,74.66857142857143L9.12727272727273,73.91857142857144L5.563636363636365,73.10428571428571L2,71.94714285714285"></path></g></svg>