<svg about="DATA_PUBLISHED_DATE:2021-10-22,RENDER_DATE:2021-10-22" xmlns="http://www.w3.org/2000/svg" viewBox="0,0,200,100"><g transform="translate(0,0)"></g><g class="fg-bars tests-vaccines" fill="#00183f" stroke="none"><g><rect x="197" y="43.005625" width="2" height="56.994375" id="tests-vaccines-0"></rect></g><g><rect x="193.43636363636364" y="43.190625000000004" width="2" height="56.809374999999996" id="tests-vaccines-1"></rect></g><g><rect x="189.87272727272727" y="40.0675" width="2" height="59.9325" id="tests-vaccines-2"></rect></g><g><rect x="186.30909090909088" y="39.46125000000001" width="2" height="60.53874999999999" id="tests-vaccines-3"></rect></g><g><rect x="182.74545454545455" y="78.595" width="2" height="21.405" id="tests-vaccines-4"></rect></g><g><rect x="179.1818181818182" y="60.54875" width="2" height="39.45125" id="tests-vaccines-5"></rect></g><g><rect x="175.61818181818182" y="14.326874999999994" width="2" height="85.673125" id="tests-vaccines-6"></rect></g><g><rect x="172.05454545454546" y="29.270624999999995" width="2" height="70.729375" id="tests-vaccines-7"></rect></g><g><rect x="168.49090909090907" y="34.150625" width="2" height="65.84937500000001" id="tests-vaccines-8"></rect></g><g><rect x="164.92727272727274" y="32.1125" width="2" height="67.8875" id="tests-vaccines-9"></rect></g><g><rect x="161.36363636363637" y="32.30125" width="2" height="67.69874999999999" id="tests-vaccines-10"></rect></g><g><rect x="157.8" y="76.58749999999999" width="2" height="23.41250000000001" id="tests-vaccines-11"></rect></g><g><rect x="154.23636363636365" y="58.60125000000001" width="2" height="41.39874999999999" id="tests-vaccines-12"></rect></g><g><rect x="150.6727272727273" y="11.568750000000005" width="2" height="88.43124999999999" id="tests-vaccines-13"></rect></g><g><rect x="147.1090909090909" y="19.423124999999995" width="2" height="80.576875" id="tests-vaccines-14"></rect></g><g><rect x="143.54545454545453" y="21.109374999999996" width="2" height="78.890625" id="tests-vaccines-15"></rect></g><g><rect x="139.9818181818182" y="20.485624999999995" width="2" height="79.514375" id="tests-vaccines-16"></rect></g><g><rect x="136.41818181818184" y="26.982499999999998" width="2" height="73.0175" id="tests-vaccines-17"></rect></g><g><rect x="132.85454545454544" y="75.844375" width="2" height="24.155625" id="tests-vaccines-18"></rect></g><g><rect x="129.29090909090908" y="56.528749999999995" width="2" height="43.471250000000005" id="tests-vaccines-19"></rect></g><g><rect x="125.72727272727273" y="33.53874999999999" width="2" height="66.46125" id="tests-vaccines-20"></rect></g><g><rect x="122.16363636363636" y="55.831875" width="2" height="44.168125" id="tests-vaccines-21"></rect></g><g><rect x="118.6" y="55.72312500000001" width="2" height="44.27687499999999" id="tests-vaccines-22"></rect></g><g><rect x="115.03636363636363" y="54.325" width="2" height="45.675" id="tests-vaccines-23"></rect></g><g><rect x="111.47272727272728" y="50.500625" width="2" height="49.499375" id="tests-vaccines-24"></rect></g><g><rect x="107.90909090909089" y="79.7425" width="2" height="20.257499999999993" id="tests-vaccines-25"></rect></g><g><rect x="104.34545454545456" y="64.82125" width="2" height="35.178749999999994" id="tests-vaccines-26"></rect></g><g><rect x="100.78181818181817" y="40.666875000000005" width="2" height="59.333124999999995" id="tests-vaccines-27"></rect></g><g><rect x="97.21818181818183" y="49.14375" width="2" height="50.85625" id="tests-vaccines-28"></rect></g><g><rect x="93.65454545454546" y="50.714375000000004" width="2" height="49.285624999999996" id="tests-vaccines-29"></rect></g><g><rect x="90.09090909090911" y="50.265625" width="2" height="49.734375" id="tests-vaccines-30"></rect></g><g><rect x="86.52727272727273" y="47.5325" width="2" height="52.4675" id="tests-vaccines-31"></rect></g><g><rect x="82.96363636363637" y="77.94" width="2" height="22.060000000000002" id="tests-vaccines-32"></rect></g><g><rect x="79.4" y="60.614999999999995" width="2" height="39.385000000000005" id="tests-vaccines-33"></rect></g><g><rect x="75.83636363636364" y="32.720000000000006" width="2" height="67.28" id="tests-vaccines-34"></rect></g><g><rect x="72.27272727272727" y="44.816250000000004" width="2" height="55.183749999999996" id="tests-vaccines-35"></rect></g><g><rect x="68.70909090909092" y="44.31" width="2" height="55.69" id="tests-vaccines-36"></rect></g><g><rect x="65.14545454545454" y="38.42875" width="2" height="61.57125" id="tests-vaccines-37"></rect></g><g><rect x="61.58181818181818" y="87.8925" width="2" height="12.107500000000002" id="tests-vaccines-38"></rect></g><g><rect x="58.018181818181816" y="76.19687499999999" width="2" height="23.80312500000001" id="tests-vaccines-39"></rect></g><g><rect x="54.454545454545446" y="59.99" width="2" height="40.01" id="tests-vaccines-40"></rect></g><g><rect x="50.89090909090908" y="26.19625" width="2" height="73.80375000000001" id="tests-vaccines-41"></rect></g><g><rect x="47.32727272727273" y="41.207499999999996" width="2" height="58.792500000000004" id="tests-vaccines-42"></rect></g><g><rect x="43.76363636363636" y="39.07625" width="2" height="60.92375" id="tests-vaccines-43"></rect></g><g><rect x="40.199999999999996" y="37.0225" width="2" height="62.9775" id="tests-vaccines-44"></rect></g><g><rect x="36.636363636363626" y="36.57749999999999" width="2" height="63.42250000000001" id="tests-vaccines-45"></rect></g><g><rect x="33.072727272727285" y="73.386875" width="2" height="26.613124999999997" id="tests-vaccines-46"></rect></g><g><rect x="29.509090909090922" y="51.3625" width="2" height="48.6375" id="tests-vaccines-47"></rect></g><g><rect x="25.945454545454556" y="19.813749999999995" width="2" height="80.18625" id="tests-vaccines-48"></rect></g><g><rect x="22.38181818181819" y="34.892500000000005" width="2" height="65.10749999999999" id="tests-vaccines-49"></rect></g><g><rect x="18.818181818181824" y="35.785" width="2" height="64.215" id="tests-vaccines-50"></rect></g><g><rect x="15.254545454545461" y="33.332499999999996" width="2" height="66.6675" id="tests-vaccines-51"></rect></g><g><rect x="11.690909090909095" y="33.731875" width="2" height="66.268125" id="tests-vaccines-52"></rect></g><g><rect x="8.12727272727273" y="73.74562499999999" width="2" height="26.25437500000001" id="tests-vaccines-53"></rect></g><g><rect x="4.563636363636365" y="52.59437499999999" width="2" height="47.40562500000001" id="tests-vaccines-54"></rect></g><g><rect x="1" y="20.735625000000002" width="2" height="79.264375" id="tests-vaccines-55"></rect></g></g><g class="fg-line tests-vaccines" fill="none" stroke="#92c5de" stroke-width="2" stroke-linecap="round"><path d="M198,45.599374999999995L194.43636363636364,43.63723214285715L190.87272727272727,42.34580357142856L187.30909090909088,41.209375L183.74545454545455,40.18651785714285L180.1818181818182,39.89973214285715L176.61818181818182,39.62151785714285L173.05454545454546,39.227500000000006L169.49090909090907,37.82071428571429L165.92727272727274,35.957678571428566L162.36363636363637,34.29669642857143L158.8,33.536875L155.23636363636365,33.43071428571428L151.6727272727273,33.13464285714285L148.1090909090909,36.27321428571428L144.54545454545453,41.474464285714284L140.9818181818182,46.41928571428572L137.41818181818184,51.253482142857145L133.85454545454544,54.613214285714285L130.29090909090908,55.17008928571428L126.72727272727273,56.354732142857145L123.16363636363636,57.37303571428571L119.6,56.417589285714286L116.03636363636363,55.702053571428564L112.47272727272728,55.122142857142855L108.90909090909089,54.698125L105.34545454545456,54.440625L101.78181818181817,53.839732142857144L98.21818181818183,52.704464285714295L94.65454545454546,52.08625L91.09090909090911,51.17133928571429L87.52727272727273,49.480357142857144L83.96363636363637,55.24607142857143L80.4,54.997053571428566L76.83636363636364,54.90776785714285L73.27272727272727,53.97580357142857L69.70909090909092,53.46026785714285L66.14545454545454,52.71258928571429L62.58181818181818,52.51169642857143L59.018181818181816,45.180982142857154L55.454545454545446,44.779553571428565L51.89090909090908,43.54705357142857L48.32727272727273,42.63526785714286L44.76363636363636,41.733125L41.199999999999996,41.26294642857143L37.636363636363626,40.73580357142856L34.072727272727285,40.32928571428571L30.509090909090922,40.38053571428571L26.945454545454556,40.55651785714285L23.38181818181819,40.68821428571429L19.818181818181824,40.90535714285715L16.25454545454546,40.97151785714286L12.690909090909095,41.36419642857143L9.12727272727273,42.144999999999996L5.563636363636365,42.27535714285715L2,42.53026785714285"></path></g></svg>