<svg about="DATA_PUBLISHED_DATE:2021-10-12,RENDER_DATE:2021-10-12" xmlns="http://www.w3.org/2000/svg" viewBox="0,0,200,100"><g transform="translate(0,0)"></g><g class="fg-bars tests-vaccines" fill="#00183f" stroke="none"><g><rect x="197" y="28.970714285714283" width="2" height="71.02928571428572" id="tests-vaccines-0"></rect></g><g><rect x="193.43636363636364" y="75.40571428571428" width="2" height="24.594285714285718" id="tests-vaccines-1"></rect></g><g><rect x="189.87272727272727" y="55.75071428571429" width="2" height="44.24928571428571" id="tests-vaccines-2"></rect></g><g><rect x="186.30909090909088" y="1.1485714285714321" width="2" height="98.85142857142857" id="tests-vaccines-3"></rect></g><g><rect x="182.74545454545455" y="8.882857142857148" width="2" height="91.11714285714285" id="tests-vaccines-4"></rect></g><g><rect x="179.1818181818182" y="10.795714285714286" width="2" height="89.20428571428572" id="tests-vaccines-5"></rect></g><g><rect x="175.61818181818182" y="9.931428571428569" width="2" height="90.06857142857143" id="tests-vaccines-6"></rect></g><g><rect x="172.05454545454546" y="21.695714285714285" width="2" height="78.30428571428571" id="tests-vaccines-7"></rect></g><g><rect x="168.49090909090907" y="73.22214285714286" width="2" height="26.777857142857144" id="tests-vaccines-8"></rect></g><g><rect x="164.92727272727274" y="51.342857142857135" width="2" height="48.657142857142865" id="tests-vaccines-9"></rect></g><g><rect x="161.36363636363637" y="24.508571428571425" width="2" height="75.49142857142857" id="tests-vaccines-10"></rect></g><g><rect x="157.8" y="49.830714285714286" width="2" height="50.169285714285714" id="tests-vaccines-11"></rect></g><g><rect x="154.23636363636365" y="49.64071428571428" width="2" height="50.35928571428572" id="tests-vaccines-12"></rect></g><g><rect x="150.6727272727273" y="48.06285714285714" width="2" height="51.93714285714286" id="tests-vaccines-13"></rect></g><g><rect x="147.1090909090909" y="43.660714285714285" width="2" height="56.339285714285715" id="tests-vaccines-14"></rect></g><g><rect x="143.54545454545453" y="76.895" width="2" height="23.105000000000004" id="tests-vaccines-15"></rect></g><g><rect x="139.9818181818182" y="59.888571428571424" width="2" height="40.111428571428576" id="tests-vaccines-16"></rect></g><g><rect x="136.41818181818184" y="32.51857142857143" width="2" height="67.48142857142858" id="tests-vaccines-17"></rect></g><g><rect x="132.85454545454544" y="42.27357142857143" width="2" height="57.72642857142857" id="tests-vaccines-18"></rect></g><g><rect x="129.29090909090908" y="43.902142857142856" width="2" height="56.097857142857144" id="tests-vaccines-19"></rect></g><g><rect x="125.72727272727273" y="43.33714285714285" width="2" height="56.66285714285715" id="tests-vaccines-20"></rect></g><g><rect x="122.16363636363636" y="40.503571428571426" width="2" height="59.496428571428574" id="tests-vaccines-21"></rect></g><g><rect x="118.6" y="75.08857142857143" width="2" height="24.911428571428573" id="tests-vaccines-22"></rect></g><g><rect x="115.03636363636363" y="55.647857142857134" width="2" height="44.352142857142866" id="tests-vaccines-23"></rect></g><g><rect x="111.47272727272728" y="24.059285714285718" width="2" height="75.94071428571428" id="tests-vaccines-24"></rect></g><g><rect x="107.90909090909089" y="37.791428571428575" width="2" height="62.208571428571425" id="tests-vaccines-25"></rect></g><g><rect x="104.34545454545456" y="37.28785714285714" width="2" height="62.71214285714286" id="tests-vaccines-26"></rect></g><g><rect x="100.78181818181817" y="30.72571428571429" width="2" height="69.27428571428571" id="tests-vaccines-27"></rect></g><g><rect x="97.21818181818183" y="86.35928571428572" width="2" height="13.640714285714282" id="tests-vaccines-28"></rect></g><g><rect x="93.65454545454546" y="73.14642857142857" width="2" height="26.853571428571428" id="tests-vaccines-29"></rect></g><g><rect x="90.09090909090911" y="54.91428571428572" width="2" height="45.08571428571428" id="tests-vaccines-30"></rect></g><g><rect x="86.52727272727273" y="16.910714285714292" width="2" height="83.08928571428571" id="tests-vaccines-31"></rect></g><g><rect x="82.96363636363637" y="33.73500000000001" width="2" height="66.26499999999999" id="tests-vaccines-32"></rect></g><g><rect x="79.4" y="31.928571428571427" width="2" height="68.07142857142857" id="tests-vaccines-33"></rect></g><g><rect x="75.83636363636364" y="29.105000000000004" width="2" height="70.895" id="tests-vaccines-34"></rect></g><g><rect x="72.27272727272727" y="28.25428571428571" width="2" height="71.74571428571429" id="tests-vaccines-35"></rect></g><g><rect x="68.70909090909092" y="69.62928571428571" width="2" height="30.370714285714286" id="tests-vaccines-36"></rect></g><g><rect x="65.14545454545454" y="44.50428571428572" width="2" height="55.49571428571428" id="tests-vaccines-37"></rect></g><g><rect x="61.58181818181818" y="8.575714285714287" width="2" height="91.42428571428572" id="tests-vaccines-38"></rect></g><g><rect x="58.018181818181816" y="25.739999999999995" width="2" height="74.26" id="tests-vaccines-39"></rect></g><g><rect x="54.454545454545446" y="26.74" width="2" height="73.26" id="tests-vaccines-40"></rect></g><g><rect x="50.89090909090908" y="23.932857142857145" width="2" height="76.06714285714285" id="tests-vaccines-41"></rect></g><g><rect x="47.32727272727273" y="24.409285714285712" width="2" height="75.59071428571428" id="tests-vaccines-42"></rect></g><g><rect x="43.76363636363636" y="70.04785714285715" width="2" height="29.952142857142846" id="tests-vaccines-43"></rect></g><g><rect x="40.199999999999996" y="45.96142857142858" width="2" height="54.03857142857142" id="tests-vaccines-44"></rect></g><g><rect x="36.636363636363626" y="9.589999999999998" width="2" height="90.41" id="tests-vaccines-45"></rect></g><g><rect x="33.072727272727285" y="27.42928571428571" width="2" height="72.57071428571429" id="tests-vaccines-46"></rect></g><g><rect x="29.509090909090922" y="27.250714285714285" width="2" height="72.74928571428572" id="tests-vaccines-47"></rect></g><g><rect x="25.945454545454556" y="27.041428571428572" width="2" height="72.95857142857143" id="tests-vaccines-48"></rect></g><g><rect x="22.38181818181819" y="30.62071428571429" width="2" height="69.37928571428571" id="tests-vaccines-49"></rect></g><g><rect x="18.818181818181824" y="71.08071428571428" width="2" height="28.91928571428572" id="tests-vaccines-50"></rect></g><g><rect x="15.254545454545461" y="47.93071428571428" width="2" height="52.06928571428572" id="tests-vaccines-51"></rect></g><g><rect x="11.690909090909095" y="20.187857142857148" width="2" height="79.81214285714285" id="tests-vaccines-52"></rect></g><g><rect x="8.12727272727273" y="36.96928571428572" width="2" height="63.03071428571428" id="tests-vaccines-53"></rect></g><g><rect x="4.563636363636365" y="40.27428571428572" width="2" height="59.72571428571428" id="tests-vaccines-54"></rect></g><g><rect x="1" y="34.69214285714286" width="2" height="65.30785714285713" id="tests-vaccines-55"></rect></g></g><g class="fg-line tests-vaccines" fill="none" stroke="#92c5de" stroke-width="2" stroke-linecap="round"><path d="M198,27.269387755102038L194.43636363636364,26.230102040816327L190.87272727272727,25.918163265306116L187.30909090909088,25.288469387755107L183.74545454545455,28.625612244897958L180.1818181818182,34.47530612244898L176.61818181818182,40.02459183673469L173.05454545454546,45.47193877551021L169.49090909090907,48.60979591836735L165.92727272727274,49.13448979591837L162.36363636363637,50.35530612244897L158.8,51.499591836734695L155.23636363636365,50.42L151.6727272727273,49.60020408163265L148.1090909090909,48.92510204081633L144.54545454545453,48.47408163265307L140.9818181818182,48.21602040816326L137.41818181818184,47.610204081632645L133.85454545454544,46.40173469387755L130.29090909090908,45.761428571428574L126.72727272727273,44.8165306122449L123.16363636363636,43.01489795918367L119.6,49.56571428571429L116.03636363636363,49.28826530612246L112.47272727272728,49.18346938775511L108.90909090909089,48.162244897959184L105.34545454545456,47.58275510204082L101.78181818181817,46.817142857142855L98.21818181818183,46.58561224489796L94.65454545454546,38.284897959183674L91.09090909090911,37.782448979591834L87.52727272727273,36.29530612244898L83.96363636363637,35.10459183673469L80.4,33.962448979591834L76.83636363636364,33.22122448979592L73.27272727272727,32.48234693877551L69.70909090909092,31.93306122448979L66.14545454545454,31.992857142857144L62.58181818181818,32.20102040816326L59.018181818181816,32.34591836734694L55.454545454545446,32.58724489795918L51.89090909090908,32.66020408163265L48.32727272727273,33.10428571428572L44.76363636363636,33.991632653061224L41.199999999999996,34.13918367346939L37.636363636363626,34.42051020408164L34.072727272727285,35.93448979591837L30.509090909090922,37.29734693877551L26.945454545454556,39.15785714285715L23.38181818181819,40.25081632653061L19.818181818181824,41.18020408163265L16.25454545454546,41.733265306122455L12.690909090909095,42.63010204081632L9.12727272727273,43.315000000000005L5.563636363636365,43.476224489795925L2,43.34265306122449"></path></g></svg>