<svg about="DATA_PUBLISHED_DATE:2021-10-09,RENDER_DATE:2021-10-09" xmlns="http://www.w3.org/2000/svg" viewBox="0,0,200,100"><g transform="translate(0,0)"></g><g class="fg-bars tests-vaccines" fill="#00183f" stroke="none"><g><rect x="197" y="7.022142857142855" width="2" height="92.97785714285715" id="tests-vaccines-0"></rect></g><g><rect x="193.43636363636364" y="13.142142857142858" width="2" height="86.85785714285714" id="tests-vaccines-1"></rect></g><g><rect x="189.87272727272727" y="11.342857142857143" width="2" height="88.65714285714286" id="tests-vaccines-2"></rect></g><g><rect x="186.30909090909088" y="9.92642857142857" width="2" height="90.07357142857143" id="tests-vaccines-3"></rect></g><g><rect x="182.74545454545455" y="21.526428571428568" width="2" height="78.47357142857143" id="tests-vaccines-4"></rect></g><g><rect x="179.1818181818182" y="73.11071428571428" width="2" height="26.88928571428572" id="tests-vaccines-5"></rect></g><g><rect x="175.61818181818182" y="51.213571428571434" width="2" height="48.786428571428566" id="tests-vaccines-6"></rect></g><g><rect x="172.05454545454546" y="24.347857142857144" width="2" height="75.65214285714285" id="tests-vaccines-7"></rect></g><g><rect x="168.49090909090907" y="49.660000000000004" width="2" height="50.339999999999996" id="tests-vaccines-8"></rect></g><g><rect x="164.92727272727274" y="49.466428571428565" width="2" height="50.533571428571435" id="tests-vaccines-9"></rect></g><g><rect x="161.36363636363637" y="47.876428571428576" width="2" height="52.123571428571424" id="tests-vaccines-10"></rect></g><g><rect x="157.8" y="43.442857142857136" width="2" height="56.557142857142864" id="tests-vaccines-11"></rect></g><g><rect x="154.23636363636365" y="76.75071428571428" width="2" height="23.24928571428572" id="tests-vaccines-12"></rect></g><g><rect x="150.6727272727273" y="59.713571428571434" width="2" height="40.286428571428566" id="tests-vaccines-13"></rect></g><g><rect x="147.1090909090909" y="32.298571428571435" width="2" height="67.70142857142856" id="tests-vaccines-14"></rect></g><g><rect x="143.54545454545453" y="42.04642857142857" width="2" height="57.95357142857143" id="tests-vaccines-15"></rect></g><g><rect x="139.9818181818182" y="43.667857142857144" width="2" height="56.332142857142856" id="tests-vaccines-16"></rect></g><g><rect x="136.41818181818184" y="43.12285714285714" width="2" height="56.87714285714286" id="tests-vaccines-17"></rect></g><g><rect x="132.85454545454544" y="40.24857142857143" width="2" height="59.75142857142857" id="tests-vaccines-18"></rect></g><g><rect x="129.29090909090908" y="74.91928571428572" width="2" height="25.08071428571428" id="tests-vaccines-19"></rect></g><g><rect x="125.72727272727273" y="55.44642857142856" width="2" height="44.55357142857144" id="tests-vaccines-20"></rect></g><g><rect x="122.16363636363636" y="23.805" width="2" height="76.195" id="tests-vaccines-21"></rect></g><g><rect x="118.6" y="37.55428571428572" width="2" height="62.44571428571428" id="tests-vaccines-22"></rect></g><g><rect x="115.03636363636363" y="37.01285714285715" width="2" height="62.98714285714285" id="tests-vaccines-23"></rect></g><g><rect x="111.47272727272728" y="30.460714285714285" width="2" height="69.53928571428571" id="tests-vaccines-24"></rect></g><g><rect x="107.90909090909089" y="86.31" width="2" height="13.689999999999998" id="tests-vaccines-25"></rect></g><g><rect x="104.34545454545456" y="72.94642857142857" width="2" height="27.05357142857143" id="tests-vaccines-26"></rect></g><g><rect x="100.78181818181817" y="54.669999999999995" width="2" height="45.330000000000005" id="tests-vaccines-27"></rect></g><g><rect x="97.21818181818183" y="16.58857142857143" width="2" height="83.41142857142857" id="tests-vaccines-28"></rect></g><g><rect x="93.65454545454546" y="33.46142857142858" width="2" height="66.53857142857143" id="tests-vaccines-29"></rect></g><g><rect x="90.09090909090911" y="31.661428571428573" width="2" height="68.33857142857143" id="tests-vaccines-30"></rect></g><g><rect x="86.52727272727273" y="28.848571428571425" width="2" height="71.15142857142857" id="tests-vaccines-31"></rect></g><g><rect x="82.96363636363637" y="27.945714285714285" width="2" height="72.05428571428571" id="tests-vaccines-32"></rect></g><g><rect x="79.4" y="69.41" width="2" height="30.590000000000003" id="tests-vaccines-33"></rect></g><g><rect x="75.83636363636364" y="44.26642857142858" width="2" height="55.73357142857142" id="tests-vaccines-34"></rect></g><g><rect x="72.27272727272727" y="8.28428571428571" width="2" height="91.71571428571428" id="tests-vaccines-35"></rect></g><g><rect x="68.70909090909092" y="25.492142857142852" width="2" height="74.50785714285715" id="tests-vaccines-36"></rect></g><g><rect x="65.14545454545454" y="26.480714285714292" width="2" height="73.5192857142857" id="tests-vaccines-37"></rect></g><g><rect x="61.58181818181818" y="23.672142857142852" width="2" height="76.32785714285714" id="tests-vaccines-38"></rect></g><g><rect x="58.018181818181816" y="24.07785714285714" width="2" height="75.92214285714286" id="tests-vaccines-39"></rect></g><g><rect x="54.454545454545446" y="69.86071428571428" width="2" height="30.13928571428572" id="tests-vaccines-40"></rect></g><g><rect x="50.89090909090908" y="45.731428571428566" width="2" height="54.268571428571434" id="tests-vaccines-41"></rect></g><g><rect x="47.32727272727273" y="9.255714285714289" width="2" height="90.74428571428571" id="tests-vaccines-42"></rect></g><g><rect x="43.76363636363636" y="27.16071428571428" width="2" height="72.83928571428572" id="tests-vaccines-43"></rect></g><g><rect x="40.199999999999996" y="26.977142857142855" width="2" height="73.02285714285715" id="tests-vaccines-44"></rect></g><g><rect x="36.636363636363626" y="26.777857142857144" width="2" height="73.22214285714286" id="tests-vaccines-45"></rect></g><g><rect x="33.072727272727285" y="30.33785714285714" width="2" height="69.66214285714287" id="tests-vaccines-46"></rect></g><g><rect x="29.509090909090922" y="70.94785714285715" width="2" height="29.052142857142854" id="tests-vaccines-47"></rect></g><g><rect x="25.945454545454556" y="47.693571428571424" width="2" height="52.306428571428576" id="tests-vaccines-48"></rect></g><g><rect x="22.38181818181819" y="19.93785714285714" width="2" height="80.06214285714286" id="tests-vaccines-49"></rect></g><g><rect x="18.818181818181824" y="36.747142857142855" width="2" height="63.252857142857145" id="tests-vaccines-50"></rect></g><g><rect x="15.254545454545461" y="40.04642857142857" width="2" height="59.95357142857143" id="tests-vaccines-51"></rect></g><g><rect x="11.690909090909095" y="34.434285714285714" width="2" height="65.56571428571428" id="tests-vaccines-52"></rect></g><g><rect x="8.12727272727273" y="36.89928571428571" width="2" height="63.10071428571429" id="tests-vaccines-53"></rect></g><g><rect x="4.563636363636365" y="74.77857142857142" width="2" height="25.221428571428575" id="tests-vaccines-54"></rect></g><g><rect x="1" y="53.96642857142857" width="2" height="46.03357142857143" id="tests-vaccines-55"></rect></g></g><g class="fg-line tests-vaccines" fill="none" stroke="#92c5de" stroke-width="2" stroke-linecap="round"><path d="M198,26.754897959183676L194.43636363636364,29.23L190.87272727272727,34.44683673469389L187.30909090909088,39.89306122448979L183.74545454545455,45.31448979591837L180.1818181818182,48.44540816326531L176.61818181818182,48.96540816326531L173.05454545454546,50.179693877551024L169.49090909090907,51.31551020408164L165.92727272727274,50.22785714285713L162.36363636363637,49.39948979591836L158.8,48.720408163265304L155.23636363636365,48.26408163265307L151.6727272727273,48.002448979591826L148.1090909090909,47.392857142857146L144.54545454545453,46.17948979591836L140.9818181818182,45.53775510204082L137.41818181818184,44.58704081632653L133.85454545454544,42.77816326530611L130.29090909090908,49.35836734693878L126.72727272727273,49.076530612244895L123.16363636363636,48.96561224489796L119.6,47.93469387755103L116.03636363636363,47.35L112.47272727272728,46.585510204081636L108.90909090909089,46.35520408163265L105.34545454545456,38.017448979591826L101.78181818181817,37.51224489795918L98.21818181818183,36.02602040816326L94.65454545454546,34.83969387755103L91.09090909090911,33.70122448979592L87.52727272727273,32.961122448979594L83.96363636363637,32.221632653061214L80.4,31.66908163265306L76.83636363636364,31.733469387755108L73.27272727272727,31.94275510204082L69.70909090909092,32.081530612244904L66.14545454545454,32.31989795918368L62.58181818181818,32.39081632653061L59.018181818181816,32.834489795918365L55.454545454545446,33.72877551020408L51.89090909090908,33.884081632653064L48.32727272727273,34.16438775510204L44.76363636363636,35.69040816326531L41.199999999999996,37.05989795918367L37.636363636363626,38.92693877551021L34.072727272727285,40.020714285714284L30.509090909090922,40.958061224489796L26.945454545454556,41.50530612244897L23.38181818181819,42.40142857142857L19.818181818181824,43.082755102040814L16.25454545454546,43.245612244897956L12.690909090909095,43.115102040816325L9.12727272727273,43.29969387755103L5.563636363636365,44.1015306122449L2,44.59428571428572"></path></g></svg>