<svg about="DATA_PUBLISHED_DATE:2022-01-20,RENDER_DATE:2022-01-20" xmlns="http://www.w3.org/2000/svg" viewBox="0,0,200,100"><g transform="translate(0,0)"></g><g class="fg-bars cases-ep" fill="#00183f" stroke="none"><g><rect x="197" y="25.987499999999997" width="2" height="74.0125" id="cases-ep-0"></rect></g><g><rect x="193.43636363636364" y="22.66125" width="2" height="77.33875" id="cases-ep-1"></rect></g><g><rect x="189.87272727272727" y="70.309375" width="2" height="29.690624999999997" id="cases-ep-2"></rect></g><g><rect x="186.30909090909088" y="57.39125000000001" width="2" height="42.60874999999999" id="cases-ep-3"></rect></g><g><rect x="182.74545454545455" y="22.473750000000003" width="2" height="77.52625" id="cases-ep-4"></rect></g><g><rect x="179.1818181818182" y="17.652500000000003" width="2" height="82.3475" id="cases-ep-5"></rect></g><g><rect x="175.61818181818182" y="9.804374999999999" width="2" height="90.195625" id="cases-ep-6"></rect></g><g><rect x="172.05454545454546" y="8.294374999999999" width="2" height="91.705625" id="cases-ep-7"></rect></g><g><rect x="168.49090909090907" y="18.689375" width="2" height="81.310625" id="cases-ep-8"></rect></g><g><rect x="164.92727272727274" y="67.94437500000001" width="2" height="32.05562499999999" id="cases-ep-9"></rect></g><g><rect x="161.36363636363637" y="82.061875" width="2" height="17.938125" id="cases-ep-10"></rect></g><g><rect x="157.8" y="68.61937499999999" width="2" height="31.38062500000001" id="cases-ep-11"></rect></g><g><rect x="154.23636363636365" y="48.786249999999995" width="2" height="51.213750000000005" id="cases-ep-12"></rect></g><g><rect x="150.6727272727273" y="46.74625" width="2" height="53.25375" id="cases-ep-13"></rect></g><g><rect x="147.1090909090909" y="47.247499999999995" width="2" height="52.752500000000005" id="cases-ep-14"></rect></g><g><rect x="143.54545454545453" y="55.1725" width="2" height="44.8275" id="cases-ep-15"></rect></g><g><rect x="139.9818181818182" y="78.9325" width="2" height="21.067499999999995" id="cases-ep-16"></rect></g><g><rect x="136.41818181818184" y="91.58500000000001" width="2" height="8.414999999999992" id="cases-ep-17"></rect></g><g><rect x="132.85454545454544" y="86.995" width="2" height="13.004999999999995" id="cases-ep-18"></rect></g><g><rect x="129.29090909090908" y="80.51937500000001" width="2" height="19.48062499999999" id="cases-ep-19"></rect></g><g><rect x="125.72727272727273" y="80.83437500000001" width="2" height="19.16562499999999" id="cases-ep-20"></rect></g><g><rect x="122.16363636363636" y="83.479375" width="2" height="16.520624999999995" id="cases-ep-21"></rect></g><g><rect x="118.6" y="85.950625" width="2" height="14.049374999999998" id="cases-ep-22"></rect></g><g><rect x="115.03636363636363" y="93.56375" width="2" height="6.436250000000001" id="cases-ep-23"></rect></g><g><rect x="111.47272727272728" y="94.04625" width="2" height="5.953749999999999" id="cases-ep-24"></rect></g><g><rect x="107.90909090909089" y="93.159375" width="2" height="6.840625000000003" id="cases-ep-25"></rect></g><g><rect x="104.34545454545456" y="93.69937499999999" width="2" height="6.300625000000011" id="cases-ep-26"></rect></g><g><rect x="100.78181818181817" y="93.77125" width="2" height="6.228750000000005" id="cases-ep-27"></rect></g><g><rect x="97.21818181818183" y="94.839375" width="2" height="5.160624999999996" id="cases-ep-28"></rect></g><g><rect x="93.65454545454546" y="94.50625000000001" width="2" height="5.4937499999999915" id="cases-ep-29"></rect></g><g><rect x="90.09090909090911" y="97.28125" width="2" height="2.71875" id="cases-ep-30"></rect></g><g><rect x="86.52727272727273" y="97.37" width="2" height="2.6299999999999955" id="cases-ep-31"></rect></g><g><rect x="82.96363636363637" y="96.41" width="2" height="3.5900000000000034" id="cases-ep-32"></rect></g><g><rect x="79.4" y="96.4175" width="2" height="3.582499999999996" id="cases-ep-33"></rect></g><g><rect x="75.83636363636364" y="95.965625" width="2" height="4.034374999999997" id="cases-ep-34"></rect></g><g><rect x="72.27272727272727" y="95.9325" width="2" height="4.0674999999999955" id="cases-ep-35"></rect></g><g><rect x="68.70909090909092" y="95.37875" width="2" height="4.621250000000003" id="cases-ep-36"></rect></g><g><rect x="65.14545454545454" y="97.59" width="2" height="2.4099999999999966" id="cases-ep-37"></rect></g><g><rect x="61.58181818181818" y="97.406875" width="2" height="2.5931250000000006" id="cases-ep-38"></rect></g><g><rect x="58.018181818181816" y="96.1625" width="2" height="3.8375000000000057" id="cases-ep-39"></rect></g><g><rect x="54.454545454545446" y="96.05375000000001" width="2" height="3.946249999999992" id="cases-ep-40"></rect></g><g><rect x="50.89090909090908" y="95.328125" width="2" height="4.671875" id="cases-ep-41"></rect></g><g><rect x="47.32727272727273" y="95.578125" width="2" height="4.421875" id="cases-ep-42"></rect></g><g><rect x="43.76363636363636" y="94.83437500000001" width="2" height="5.1656249999999915" id="cases-ep-43"></rect></g><g><rect x="40.199999999999996" y="97.2475" width="2" height="2.7524999999999977" id="cases-ep-44"></rect></g><g><rect x="36.636363636363626" y="97.36375000000001" width="2" height="2.6362499999999898" id="cases-ep-45"></rect></g><g><rect x="33.072727272727285" y="97.285625" width="2" height="2.714375000000004" id="cases-ep-46"></rect></g><g><rect x="29.509090909090922" y="98.57187499999999" width="2" height="1.4281250000000085" id="cases-ep-47"></rect></g><g><rect x="25.945454545454556" y="97.0925" width="2" height="2.907499999999999" id="cases-ep-48"></rect></g><g><rect x="22.38181818181819" y="96.9775" width="2" height="3.0224999999999937" id="cases-ep-49"></rect></g><g><rect x="18.818181818181824" y="96.74625" width="2" height="3.2537499999999966" id="cases-ep-50"></rect></g><g><rect x="15.254545454545461" y="98.15937500000001" width="2" height="1.8406249999999886" id="cases-ep-51"></rect></g><g><rect x="11.690909090909095" y="97.96249999999999" width="2" height="2.0375000000000085" id="cases-ep-52"></rect></g><g><rect x="8.12727272727273" y="97.141875" width="2" height="2.858125000000001" id="cases-ep-53"></rect></g><g><rect x="4.563636363636365" y="97.0875" width="2" height="2.9124999999999943" id="cases-ep-54"></rect></g><g><rect x="1" y="96.79062499999999" width="2" height="3.2093750000000085" id="cases-ep-55"></rect></g></g><g class="fg-line cases-ep" fill="none" stroke="#92c5de" stroke-width="2" stroke-linecap="round"><path d="M198,32.32571428571428L194.43636363636364,29.798125L190.87272727272727,29.23071428571429L187.30909090909088,28.892857142857142L183.74545454545455,32.417232142857145L180.1818181818182,39.00946428571428L176.61818181818182,43.45714285714285L173.05454545454546,48.73455357142858L169.49090909090907,54.299285714285716L165.92727272727274,59.511160714285715L162.36363636363637,61.080892857142864L158.8,62.44133928571429L155.23636363636365,65.06642857142857L151.6727272727273,69.59973214285714L148.1090909090909,74.46946428571428L144.54545454545453,79.64544642857143L140.9818181818182,84.04232142857143L137.41818181818184,86.13250000000001L133.85454545454544,86.48410714285714L130.29090909090908,87.36473214285714L126.72727272727273,89.24758928571428L123.16363636363636,91.09571428571428L119.6,92.71857142857142L116.03636363636363,93.94080357142856L112.47272727272728,94.47187500000001L108.90909090909089,94.94669642857143L105.34545454545456,95.41107142857143L101.78181818181817,95.799375L98.21818181818183,96.11285714285714L94.65454545454546,96.26901785714286L91.09090909090911,96.39366071428572L87.52727272727273,96.43776785714286L83.96363636363637,96.44303571428571L80.4,96.40767857142856L76.83636363636364,96.35571428571428L73.27272727272727,96.26464285714286L69.70909090909092,96.21401785714285L66.14545454545454,96.13625L62.58181818181818,96.08732142857143L59.018181818181816,96.08116071428572L55.454545454545446,96.24160714285715L51.89090909090908,96.60133928571429L48.32727272727273,96.85339285714286L44.76363636363636,97.05330357142857L41.199999999999996,97.32642857142856L37.636363636363626,97.45669642857143L34.072727272727285,97.54223214285715L30.509090909090922,97.52169642857143L26.945454545454556,97.30964285714285L23.38181818181819,97.26651785714286L19.818181818181824,97.21625L16.25454545454546,97.11241071428572L12.690909090909095,97.08624999999999L9.12727272727273,97.07124999999999L5.563636363636365,97.02544642857143L2,97.05776785714286"></path></g></svg>