<svg meta="{&quot;DATA_PUBLISHED_DATE&quot;:&quot;2023-06-22&quot;,&quot;RENDER_DATE&quot;:&quot;2023-06-22&quot;,&quot;FIRST_DATE&quot;:&quot;2023-04-20&quot;,&quot;LAST_DATE&quot;:&quot;2023-06-14&quot;}" xmlns="http://www.w3.org/2000/svg" viewBox="0,0,200,100"><g transform="translate(0,0)"></g><g class="fg-bars tests-vaccines" fill="#00183f" stroke="none"><g><rect x="197" y="56.78636363636363" width="2" height="43.21363636363637" id="tests-vaccines-0"></rect></g><g><rect x="193.43636363636364" y="56.35" width="2" height="43.65" id="tests-vaccines-1"></rect></g><g><rect x="189.87272727272727" y="55.268181818181816" width="2" height="44.731818181818184" id="tests-vaccines-2"></rect></g><g><rect x="186.30909090909088" y="90.67272727272727" width="2" height="9.327272727272728" id="tests-vaccines-3"></rect></g><g><rect x="182.74545454545455" y="84.35000000000001" width="2" height="15.649999999999991" id="tests-vaccines-4"></rect></g><g><rect x="179.1818181818182" y="49.78636363636364" width="2" height="50.21363636363636" id="tests-vaccines-5"></rect></g><g><rect x="175.61818181818182" y="56.05" width="2" height="43.95" id="tests-vaccines-6"></rect></g><g><rect x="172.05454545454546" y="52.03636363636364" width="2" height="47.96363636363636" id="tests-vaccines-7"></rect></g><g><rect x="168.49090909090907" y="50.95" width="2" height="49.05" id="tests-vaccines-8"></rect></g><g><rect x="164.92727272727274" y="51.01363636363636" width="2" height="48.98636363636364" id="tests-vaccines-9"></rect></g><g><rect x="161.36363636363637" y="88.46818181818182" width="2" height="11.531818181818181" id="tests-vaccines-10"></rect></g><g><rect x="157.8" y="82.36818181818182" width="2" height="17.631818181818176" id="tests-vaccines-11"></rect></g><g><rect x="154.23636363636365" y="45.345454545454544" width="2" height="54.654545454545456" id="tests-vaccines-12"></rect></g><g><rect x="150.6727272727273" y="47.75" width="2" height="52.25" id="tests-vaccines-13"></rect></g><g><rect x="147.1090909090909" y="44.372727272727275" width="2" height="55.627272727272725" id="tests-vaccines-14"></rect></g><g><rect x="143.54545454545453" y="39.67727272727273" width="2" height="60.32272727272727" id="tests-vaccines-15"></rect></g><g><rect x="139.9818181818182" y="97.43181818181819" width="2" height="2.568181818181813" id="tests-vaccines-16"></rect></g><g><rect x="136.41818181818184" y="87.52272727272728" width="2" height="12.47727272727272" id="tests-vaccines-17"></rect></g><g><rect x="132.85454545454544" y="80.01818181818182" width="2" height="19.981818181818184" id="tests-vaccines-18"></rect></g><g><rect x="129.29090909090908" y="38.490909090909085" width="2" height="61.509090909090915" id="tests-vaccines-19"></rect></g><g><rect x="125.72727272727273" y="43.040909090909096" width="2" height="56.959090909090904" id="tests-vaccines-20"></rect></g><g><rect x="122.16363636363636" y="42.36363636363636" width="2" height="57.63636363636364" id="tests-vaccines-21"></rect></g><g><rect x="118.6" y="44.40454545454545" width="2" height="55.59545454545455" id="tests-vaccines-22"></rect></g><g><rect x="115.03636363636363" y="42.84090909090909" width="2" height="57.15909090909091" id="tests-vaccines-23"></rect></g><g><rect x="111.47272727272728" y="87.72272727272727" width="2" height="12.277272727272731" id="tests-vaccines-24"></rect></g><g><rect x="107.90909090909089" y="76.99090909090908" width="2" height="23.009090909090915" id="tests-vaccines-25"></rect></g><g><rect x="104.34545454545456" y="37.272727272727266" width="2" height="62.727272727272734" id="tests-vaccines-26"></rect></g><g><rect x="100.78181818181817" y="36.336363636363636" width="2" height="63.663636363636364" id="tests-vaccines-27"></rect></g><g><rect x="97.21818181818183" y="39.490909090909085" width="2" height="60.509090909090915" id="tests-vaccines-28"></rect></g><g><rect x="93.65454545454546" y="35.8" width="2" height="64.2" id="tests-vaccines-29"></rect></g><g><rect x="90.09090909090911" y="40.86818181818182" width="2" height="59.13181818181818" id="tests-vaccines-30"></rect></g><g><rect x="86.52727272727273" y="89.32272727272728" width="2" height="10.677272727272722" id="tests-vaccines-31"></rect></g><g><rect x="82.96363636363637" y="76.53181818181818" width="2" height="23.46818181818182" id="tests-vaccines-32"></rect></g><g><rect x="79.4" y="25.118181818181817" width="2" height="74.88181818181818" id="tests-vaccines-33"></rect></g><g><rect x="75.83636363636364" y="26.01818181818182" width="2" height="73.98181818181818" id="tests-vaccines-34"></rect></g><g><rect x="72.27272727272727" y="21.00909090909091" width="2" height="78.99090909090908" id="tests-vaccines-35"></rect></g><g><rect x="68.70909090909092" y="17.409090909090907" width="2" height="82.5909090909091" id="tests-vaccines-36"></rect></g><g><rect x="65.14545454545454" y="15.268181818181814" width="2" height="84.73181818181818" id="tests-vaccines-37"></rect></g><g><rect x="61.58181818181818" y="78.55909090909091" width="2" height="21.440909090909088" id="tests-vaccines-38"></rect></g><g><rect x="58.018181818181816" y="61.41363636363637" width="2" height="38.58636363636363" id="tests-vaccines-39"></rect></g><g><rect x="54.454545454545446" y="7.1181818181818235" width="2" height="92.88181818181818" id="tests-vaccines-40"></rect></g><g><rect x="50.89090909090908" y="13.477272727272727" width="2" height="86.52272727272728" id="tests-vaccines-41"></rect></g><g><rect x="47.32727272727273" y="17.76363636363636" width="2" height="82.23636363636365" id="tests-vaccines-42"></rect></g><g><rect x="43.76363636363636" y="23.02727272727273" width="2" height="76.97272727272727" id="tests-vaccines-43"></rect></g><g><rect x="40.199999999999996" y="30.100000000000005" width="2" height="69.89999999999999" id="tests-vaccines-44"></rect></g><g><rect x="36.636363636363626" y="91.45909090909092" width="2" height="8.540909090909082" id="tests-vaccines-45"></rect></g><g><rect x="33.072727272727285" y="87.75454545454545" width="2" height="12.24545454545455" id="tests-vaccines-46"></rect></g><g><rect x="29.509090909090922" y="21.70909090909091" width="2" height="78.29090909090908" id="tests-vaccines-47"></rect></g><g><rect x="25.945454545454556" y="28.49090909090909" width="2" height="71.50909090909092" id="tests-vaccines-48"></rect></g><g><rect x="22.38181818181819" y="34.39090909090909" width="2" height="65.60909090909091" id="tests-vaccines-49"></rect></g><g><rect x="18.818181818181824" y="38.40909090909091" width="2" height="61.59090909090909" id="tests-vaccines-50"></rect></g><g><rect x="15.254545454545461" y="39.01363636363636" width="2" height="60.98636363636364" id="tests-vaccines-51"></rect></g><g><rect x="11.690909090909095" y="80.95" width="2" height="19.049999999999997" id="tests-vaccines-52"></rect></g><g><rect x="8.12727272727273" y="69.66363636363636" width="2" height="30.336363636363643" id="tests-vaccines-53"></rect></g><g><rect x="4.563636363636365" y="39.2" width="2" height="60.8" id="tests-vaccines-54"></rect></g><g><rect x="1" y="53.64090909090908" width="2" height="46.35909090909092" id="tests-vaccines-55"></rect></g></g><g class="fg-line tests-vaccines" fill="none" stroke="#92c5de" stroke-width="2" stroke-linecap="round"><path d="M198,64.18051948051948L194.43636363636364,63.501948051948055L190.87272727272727,62.73051948051949L187.30909090909088,62.122727272727275L183.74545454545455,61.80779220779221L180.1818181818182,61.524675324675314L176.61818181818182,60.890259740259744L173.05454545454546,59.70454545454545L169.49090909090907,58.60974025974026L165.92727272727274,56.999350649350646L162.36363636363637,63.630519480519474L158.8,63.49545454545454L155.23636363636365,63.15974025974026L151.6727272727273,62.18051948051948L148.1090909090909,61.507792207792214L144.54545454545453,61.22077922077922L140.9818181818182,61.896103896103895L137.41818181818184,54.09740259740259L133.85454545454544,54.12597402597403L130.29090909090908,53.693506493506504L126.72727272727273,53.519480519480524L123.16363636363636,52.561688311688314L119.6,52.1512987012987L116.03636363636363,50.922077922077925L112.47272727272728,50.640259740259744L108.90909090909089,50.868831168831164L105.34545454545456,50.80324675324675L101.78181818181817,49.06688311688312L98.21818181818183,47.592857142857135L94.65454545454546,44.952597402597405L91.09090909090911,42.32532467532468L87.52727272727273,38.668181818181814L83.96363636363637,37.13051948051949L80.4,34.97077922077922L76.83636363636364,32.39935064935066L73.27272727272727,30.607792207792205L69.70909090909092,30.14415584415585L66.14545454545454,30.946753246753246L62.58181818181818,33.06558441558442L59.018181818181816,34.90844155844156L55.454545454545446,38.67142857142858L51.89090909090908,40.75584415584416L48.32727272727273,42.900649350649346L44.76363636363636,45.27597402597403L41.199999999999996,47.473376623376616L37.636363636363626,48.74675324675325L34.072727272727285,47.24545454545455L30.509090909090922,44.661038961038955L26.945454545454556,47.15974025974026L23.38181818181819,50.75259740259741L19.818181818181824,55.6396103896104L16.25454545454546,60.05779220779222L12.690909090909095,64.50324675324674L9.12727272727273,66.2090909090909L5.563636363636365,68.67012987012987L2,71.6896103896104"></path></g></svg>