<svg about="DATA_PUBLISHED_DATE:2021-10-11,RENDER_DATE:2021-10-11" xmlns="http://www.w3.org/2000/svg" viewBox="0,0,200,100"><g transform="translate(0,0)"></g><g class="fg-bars tests-vaccines" fill="#00183f" stroke="none"><g><rect x="197" y="75.41357142857143" width="2" height="24.58642857142857" id="tests-vaccines-0"></rect></g><g><rect x="193.43636363636364" y="55.96928571428572" width="2" height="44.03071428571428" id="tests-vaccines-1"></rect></g><g><rect x="189.87272727272727" y="4.944999999999999" width="2" height="95.055" id="tests-vaccines-2"></rect></g><g><rect x="186.30909090909088" y="9.367857142857138" width="2" height="90.63214285714287" id="tests-vaccines-3"></rect></g><g><rect x="182.74545454545455" y="11.059285714285716" width="2" height="88.94071428571428" id="tests-vaccines-4"></rect></g><g><rect x="179.1818181818182" y="10.002142857142859" width="2" height="89.99785714285714" id="tests-vaccines-5"></rect></g><g><rect x="175.61818181818182" y="21.74285714285714" width="2" height="78.25714285714287" id="tests-vaccines-6"></rect></g><g><rect x="172.05454545454546" y="73.24214285714285" width="2" height="26.757857142857148" id="tests-vaccines-7"></rect></g><g><rect x="168.49090909090907" y="51.355" width="2" height="48.645" id="tests-vaccines-8"></rect></g><g><rect x="164.92727272727274" y="24.55071428571428" width="2" height="75.44928571428572" id="tests-vaccines-9"></rect></g><g><rect x="161.36363636363637" y="49.85357142857143" width="2" height="50.14642857142857" id="tests-vaccines-10"></rect></g><g><rect x="157.8" y="49.66428571428572" width="2" height="50.33571428571428" id="tests-vaccines-11"></rect></g><g><rect x="154.23636363636365" y="48.098571428571425" width="2" height="51.901428571428575" id="tests-vaccines-12"></rect></g><g><rect x="150.6727272727273" y="43.69142857142857" width="2" height="56.30857142857143" id="tests-vaccines-13"></rect></g><g><rect x="147.1090909090909" y="76.89785714285713" width="2" height="23.102142857142866" id="tests-vaccines-14"></rect></g><g><rect x="143.54545454545453" y="59.90571428571428" width="2" height="40.09428571428572" id="tests-vaccines-15"></rect></g><g><rect x="139.9818181818182" y="32.54071428571429" width="2" height="67.45928571428571" id="tests-vaccines-16"></rect></g><g><rect x="136.41818181818184" y="42.292857142857144" width="2" height="57.707142857142856" id="tests-vaccines-17"></rect></g><g><rect x="132.85454545454544" y="43.92" width="2" height="56.08" id="tests-vaccines-18"></rect></g><g><rect x="129.29090909090908" y="43.36714285714286" width="2" height="56.63285714285714" id="tests-vaccines-19"></rect></g><g><rect x="125.72727272727273" y="40.53285714285715" width="2" height="59.46714285714285" id="tests-vaccines-20"></rect></g><g><rect x="122.16363636363636" y="75.09" width="2" height="24.909999999999997" id="tests-vaccines-21"></rect></g><g><rect x="118.6" y="55.65714285714285" width="2" height="44.34285714285715" id="tests-vaccines-22"></rect></g><g><rect x="115.03636363636363" y="24.08071428571429" width="2" height="75.9192857142857" id="tests-vaccines-23"></rect></g><g><rect x="111.47272727272728" y="37.800714285714285" width="2" height="62.199285714285715" id="tests-vaccines-24"></rect></g><g><rect x="107.90909090909089" y="37.29571428571429" width="2" height="62.70428571428571" id="tests-vaccines-25"></rect></g><g><rect x="104.34545454545456" y="30.739285714285714" width="2" height="69.26071428571429" id="tests-vaccines-26"></rect></g><g><rect x="100.78181818181817" y="86.36214285714286" width="2" height="13.637857142857143" id="tests-vaccines-27"></rect></g><g><rect x="97.21818181818183" y="73.15" width="2" height="26.849999999999994" id="tests-vaccines-28"></rect></g><g><rect x="93.65454545454546" y="54.92285714285714" width="2" height="45.07714285714286" id="tests-vaccines-29"></rect></g><g><rect x="90.09090909090911" y="16.92071428571429" width="2" height="83.0792857142857" id="tests-vaccines-30"></rect></g><g><rect x="86.52727272727273" y="33.74357142857143" width="2" height="66.25642857142857" id="tests-vaccines-31"></rect></g><g><rect x="82.96363636363637" y="31.94" width="2" height="68.06" id="tests-vaccines-32"></rect></g><g><rect x="79.4" y="29.119285714285713" width="2" height="70.88071428571429" id="tests-vaccines-33"></rect></g><g><rect x="75.83636363636364" y="28.260714285714283" width="2" height="71.73928571428571" id="tests-vaccines-34"></rect></g><g><rect x="72.27272727272727" y="69.63" width="2" height="30.370000000000005" id="tests-vaccines-35"></rect></g><g><rect x="68.70909090909092" y="44.512142857142855" width="2" height="55.487857142857145" id="tests-vaccines-36"></rect></g><g><rect x="65.14545454545454" y="8.584999999999997" width="2" height="91.415" id="tests-vaccines-37"></rect></g><g><rect x="61.58181818181818" y="25.754285714285718" width="2" height="74.24571428571429" id="tests-vaccines-38"></rect></g><g><rect x="58.018181818181816" y="26.74428571428571" width="2" height="73.25571428571429" id="tests-vaccines-39"></rect></g><g><rect x="54.454545454545446" y="23.942857142857143" width="2" height="76.05714285714285" id="tests-vaccines-40"></rect></g><g><rect x="50.89090909090908" y="24.41714285714286" width="2" height="75.58285714285714" id="tests-vaccines-41"></rect></g><g><rect x="47.32727272727273" y="70.05" width="2" height="29.950000000000003" id="tests-vaccines-42"></rect></g><g><rect x="43.76363636363636" y="45.965714285714284" width="2" height="54.034285714285716" id="tests-vaccines-43"></rect></g><g><rect x="40.199999999999996" y="9.598571428571434" width="2" height="90.40142857142857" id="tests-vaccines-44"></rect></g><g><rect x="36.636363636363626" y="27.43285714285715" width="2" height="72.56714285714285" id="tests-vaccines-45"></rect></g><g><rect x="33.072727272727285" y="27.25642857142857" width="2" height="72.74357142857143" id="tests-vaccines-46"></rect></g><g><rect x="29.509090909090922" y="27.04928571428571" width="2" height="72.9507142857143" id="tests-vaccines-47"></rect></g><g><rect x="25.945454545454556" y="30.623571428571427" width="2" height="69.37642857142858" id="tests-vaccines-48"></rect></g><g><rect x="22.38181818181819" y="71.08214285714286" width="2" height="28.917857142857144" id="tests-vaccines-49"></rect></g><g><rect x="18.818181818181824" y="47.93357142857143" width="2" height="52.06642857142857" id="tests-vaccines-50"></rect></g><g><rect x="15.254545454545461" y="20.197142857142858" width="2" height="79.80285714285714" id="tests-vaccines-51"></rect></g><g><rect x="11.690909090909095" y="36.973571428571425" width="2" height="63.026428571428575" id="tests-vaccines-52"></rect></g><g><rect x="8.12727272727273" y="40.27928571428572" width="2" height="59.72071428571428" id="tests-vaccines-53"></rect></g><g><rect x="4.563636363636365" y="34.69428571428571" width="2" height="65.30571428571429" id="tests-vaccines-54"></rect></g><g><rect x="1" y="37.13285714285715" width="2" height="62.86714285714285" id="tests-vaccines-55"></rect></g></g><g class="fg-line tests-vaccines" fill="none" stroke="#92c5de" stroke-width="2" stroke-linecap="round"><path d="M198,26.928571428571423L194.43636363636364,26.618367346938776L190.87272727272727,25.95918367346939L187.30909090909088,28.759999999999998L183.74545454545455,34.543673469387755L180.1818181818182,40.05867346938775L176.61818181818182,45.501020408163264L173.05454545454546,48.6365306122449L169.49090909090907,49.15877551020408L165.92727272727274,50.38030612244897L162.36363636363637,51.521734693877555L158.8,50.44163265306122L155.23636363636365,49.62102040816326L151.6727272727273,48.94510204081632L148.1090909090909,48.493877551020404L144.54545454545453,48.235612244897965L140.9818181818182,47.62867346938775L137.41818181818184,46.420102040816325L133.85454545454544,45.77836734693877L130.29090909090908,44.83204081632653L126.72727272727273,43.02806122448979L123.16363636363636,49.57510204081632L119.6,49.29795918367347L116.03636363636363,49.193061224489796L112.47272727272728,48.17020408163265L108.90909090909089,47.590612244897954L105.34545454545456,46.82551020408163L101.78181818181817,46.59408163265306L98.21818181818183,38.29387755102041L94.65454545454546,37.791020408163256L91.09090909090911,36.30377551020408L87.52727272727273,35.11295918367347L83.96363636363637,33.97163265306122L80.4,33.22938775510204L76.83636363636364,32.48989795918368L73.27272727272727,31.94081632653061L69.70909090909092,32.00081632653061L66.14545454545454,32.2084693877551L62.58181818181818,32.35326530612246L59.018181818181816,32.593061224489794L55.454545454545446,32.66622448979592L51.89090909090908,33.10999999999999L48.32727272727273,33.99663265306122L44.76363636363636,34.14408163265307L41.199999999999996,34.42520408163266L37.636363636363626,35.93928571428572L34.072727272727285,37.30224489795918L30.509090909090922,39.162653061224496L26.945454545454556,40.25479591836735L23.38181818181819,41.18469387755103L19.818181818181824,41.738571428571426L16.25454545454546,42.635612244897956L12.690909090909095,43.319795918367355L9.12727272727273,43.48061224489796L5.563636363636365,43.34734693877551L2,43.52673469387754"></path></g></svg>