<svg meta="{&quot;DATA_PUBLISHED_DATE&quot;:&quot;2023-11-17&quot;,&quot;RENDER_DATE&quot;:&quot;2023-12-01&quot;,&quot;FIRST_DATE&quot;:&quot;2023-09-17&quot;,&quot;LAST_DATE&quot;:&quot;2023-11-11&quot;}" xmlns="http://www.w3.org/2000/svg" viewBox="0,0,200,100"><g transform="translate(0,0)"></g><g class="fg-bars hospitalizations-count" fill="#00183f" stroke="none"><g><rect x="197" y="37.949999999999996" width="2" height="62.050000000000004" id="hospitalizations-count-0"></rect></g><g><rect x="193.43636363636364" y="36.650000000000006" width="2" height="63.349999999999994" id="hospitalizations-count-1"></rect></g><g><rect x="189.87272727272727" y="38.800000000000004" width="2" height="61.199999999999996" id="hospitalizations-count-2"></rect></g><g><rect x="186.30909090909088" y="41.5" width="2" height="58.5" id="hospitalizations-count-3"></rect></g><g><rect x="182.74545454545455" y="33.45" width="2" height="66.55" id="hospitalizations-count-4"></rect></g><g><rect x="179.1818181818182" y="36.75000000000001" width="2" height="63.24999999999999" id="hospitalizations-count-5"></rect></g><g><rect x="175.61818181818182" y="37.25000000000001" width="2" height="62.74999999999999" id="hospitalizations-count-6"></rect></g><g><rect x="172.05454545454546" y="40.849999999999994" width="2" height="59.150000000000006" id="hospitalizations-count-7"></rect></g><g><rect x="168.49090909090907" y="42.00000000000001" width="2" height="57.99999999999999" id="hospitalizations-count-8"></rect></g><g><rect x="164.92727272727274" y="42.800000000000004" width="2" height="57.199999999999996" id="hospitalizations-count-9"></rect></g><g><rect x="161.36363636363637" y="42.85" width="2" height="57.15" id="hospitalizations-count-10"></rect></g><g><rect x="157.8" y="39.55" width="2" height="60.45" id="hospitalizations-count-11"></rect></g><g><rect x="154.23636363636365" y="41" width="2" height="59" id="hospitalizations-count-12"></rect></g><g><rect x="150.6727272727273" y="39.900000000000006" width="2" height="60.099999999999994" id="hospitalizations-count-13"></rect></g><g><rect x="147.1090909090909" y="40.800000000000004" width="2" height="59.199999999999996" id="hospitalizations-count-14"></rect></g><g><rect x="143.54545454545453" y="39.5" width="2" height="60.5" id="hospitalizations-count-15"></rect></g><g><rect x="139.9818181818182" y="41.15" width="2" height="58.85" id="hospitalizations-count-16"></rect></g><g><rect x="136.41818181818184" y="36.25000000000001" width="2" height="63.74999999999999" id="hospitalizations-count-17"></rect></g><g><rect x="132.85454545454544" y="34.650000000000006" width="2" height="65.35" id="hospitalizations-count-18"></rect></g><g><rect x="129.29090909090908" y="34.4" width="2" height="65.6" id="hospitalizations-count-19"></rect></g><g><rect x="125.72727272727273" y="32.4" width="2" height="67.6" id="hospitalizations-count-20"></rect></g><g><rect x="122.16363636363636" y="34.35" width="2" height="65.65" id="hospitalizations-count-21"></rect></g><g><rect x="118.6" y="32.85" width="2" height="67.15" id="hospitalizations-count-22"></rect></g><g><rect x="115.03636363636363" y="33.75" width="2" height="66.25" id="hospitalizations-count-23"></rect></g><g><rect x="111.47272727272728" y="32.599999999999994" width="2" height="67.4" id="hospitalizations-count-24"></rect></g><g><rect x="107.90909090909089" y="32.35" width="2" height="67.65" id="hospitalizations-count-25"></rect></g><g><rect x="104.34545454545456" y="33.699999999999996" width="2" height="66.30000000000001" id="hospitalizations-count-26"></rect></g><g><rect x="100.78181818181817" y="33.45" width="2" height="66.55" id="hospitalizations-count-27"></rect></g><g><rect x="97.21818181818183" y="33.3" width="2" height="66.7" id="hospitalizations-count-28"></rect></g><g><rect x="93.65454545454546" y="30.85" width="2" height="69.15" id="hospitalizations-count-29"></rect></g><g><rect x="90.09090909090911" y="29.700000000000003" width="2" height="70.3" id="hospitalizations-count-30"></rect></g><g><rect x="86.52727272727273" y="29.95" width="2" height="70.05" id="hospitalizations-count-31"></rect></g><g><rect x="82.96363636363637" y="28.249999999999996" width="2" height="71.75" id="hospitalizations-count-32"></rect></g><g><rect x="79.4" y="27" width="2" height="73" id="hospitalizations-count-33"></rect></g><g><rect x="75.83636363636364" y="24.3" width="2" height="75.7" id="hospitalizations-count-34"></rect></g><g><rect x="72.27272727272727" y="25.4" width="2" height="74.6" id="hospitalizations-count-35"></rect></g><g><rect x="68.70909090909092" y="21.650000000000002" width="2" height="78.35" id="hospitalizations-count-36"></rect></g><g><rect x="65.14545454545454" y="25.449999999999996" width="2" height="74.55000000000001" id="hospitalizations-count-37"></rect></g><g><rect x="61.58181818181818" y="25.149999999999995" width="2" height="74.85000000000001" id="hospitalizations-count-38"></rect></g><g><rect x="58.018181818181816" y="20.499999999999996" width="2" height="79.5" id="hospitalizations-count-39"></rect></g><g><rect x="54.454545454545446" y="28.249999999999996" width="2" height="71.75" id="hospitalizations-count-40"></rect></g><g><rect x="50.89090909090908" y="22.099999999999998" width="2" height="77.9" id="hospitalizations-count-41"></rect></g><g><rect x="47.32727272727273" y="21.9" width="2" height="78.1" id="hospitalizations-count-42"></rect></g><g><rect x="43.76363636363636" y="19.599999999999994" width="2" height="80.4" id="hospitalizations-count-43"></rect></g><g><rect x="40.199999999999996" y="17.300000000000004" width="2" height="82.69999999999999" id="hospitalizations-count-44"></rect></g><g><rect x="36.636363636363626" y="12.5" width="2" height="87.5" id="hospitalizations-count-45"></rect></g><g><rect x="33.072727272727285" y="13.3" width="2" height="86.7" id="hospitalizations-count-46"></rect></g><g><rect x="29.509090909090922" y="10.850000000000005" width="2" height="89.14999999999999" id="hospitalizations-count-47"></rect></g><g><rect x="25.945454545454556" y="11.899999999999999" width="2" height="88.1" id="hospitalizations-count-48"></rect></g><g><rect x="22.38181818181819" y="11.750000000000005" width="2" height="88.25" id="hospitalizations-count-49"></rect></g><g><rect x="18.818181818181824" y="8.950000000000003" width="2" height="91.05" id="hospitalizations-count-50"></rect></g><g><rect x="15.254545454545461" y="9.950000000000003" width="2" height="90.05" id="hospitalizations-count-51"></rect></g><g><rect x="11.690909090909095" y="4.049999999999998" width="2" height="95.95" id="hospitalizations-count-52"></rect></g><g><rect x="8.12727272727273" y="4.5000000000000036" width="2" height="95.5" id="hospitalizations-count-53"></rect></g><g><rect x="4.563636363636365" y="7.399999999999995" width="2" height="92.60000000000001" id="hospitalizations-count-54"></rect></g><g><rect x="1" y="4.700000000000005" width="2" height="95.3" id="hospitalizations-count-55"></rect></g></g><g class="fg-line hospitalizations-count" fill="none" stroke="#92c5de" stroke-width="2" stroke-linecap="round"><path d="M198,37.47857142857144L194.43636363636364,37.89285714285714L190.87272727272727,38.65714285714286L187.30909090909088,39.228571428571435L183.74545454545455,39.421428571428564L180.1818181818182,40.292857142857144L176.61818181818182,40.900000000000006L173.05454545454546,41.27857142857143L169.49090909090907,41.27142857142857L165.92727272727274,40.91428571428571L162.36363636363637,40.67857142857143L158.8,39.73571428571429L155.23636363636365,39.035714285714285L151.6727272727273,38.09285714285714L148.1090909090909,37.02142857142857L144.54545454545453,36.1L140.9818181818182,35.150000000000006L137.41818181818184,34.09285714285715L133.85454545454544,33.57142857142856L130.29090909090908,33.24285714285714L126.72727272727273,33.14285714285714L123.16363636363636,33.292857142857144L119.6,33.14285714285714L116.03636363636363,32.857142857142854L112.47272727272728,32.27857142857143L108.90909090909089,31.899999999999995L105.34545454545456,31.314285714285706L101.78181818181817,30.35714285714286L98.21818181818183,29.049999999999997L94.65454545454546,27.921428571428564L91.09090909090911,26.60714285714285L87.52727272727273,26L83.96363636363637,25.31428571428571L80.4,24.20714285714286L76.83636363636364,24.38571428571429L73.27272727272727,24.071428571428566L69.70909090909092,23.571428571428566L66.14545454545454,23.27857142857144L62.58181818181818,22.114285714285707L59.018181818181816,20.307142857142857L55.454545454545446,19.278571428571432L51.89090909090908,16.792857142857144L48.32727272727273,15.335714285714285L44.76363636363636,13.88571428571429L41.199999999999996,12.364285714285717L37.636363636363626,11.31428571428571L34.072727272727285,10.10714285714286L30.509090909090922,8.850000000000001L26.945454545454556,8.357142857142852L23.38181818181819,7.328571428571429L19.818181818181824,6.607142857142856L16.25454545454546,5.614285714285716L12.690909090909095,4.078571428571431L9.12727272727273,3.3571428571428585L5.563636363636365,2.57857142857143L2,2.300000000000002"></path></g></svg>