<svg meta="{&quot;DATA_PUBLISHED_DATE&quot;:&quot;2022-02-28&quot;,&quot;RENDER_DATE&quot;:&quot;2022-02-28&quot;,&quot;FIRST_DATE&quot;:&quot;2021-12-27&quot;,&quot;LAST_DATE&quot;:&quot;2022-02-20&quot;}" xmlns="http://www.w3.org/2000/svg" viewBox="0,0,200,100"><g transform="translate(0,0)"></g><g class="fg-bars tests-vaccines" fill="#00183f" stroke="none"><g><rect x="197" y="92.57714285714286" width="2" height="7.42285714285714" id="tests-vaccines-0"></rect></g><g><rect x="193.43636363636364" y="84.55428571428571" width="2" height="15.445714285714288" id="tests-vaccines-1"></rect></g><g><rect x="189.87272727272727" y="70.99821428571428" width="2" height="29.001785714285717" id="tests-vaccines-2"></rect></g><g><rect x="186.30909090909088" y="78.97321428571429" width="2" height="21.026785714285708" id="tests-vaccines-3"></rect></g><g><rect x="182.74545454545455" y="79.26071428571429" width="2" height="20.739285714285714" id="tests-vaccines-4"></rect></g><g><rect x="179.1818181818182" y="79.97428571428571" width="2" height="20.025714285714287" id="tests-vaccines-5"></rect></g><g><rect x="175.61818181818182" y="82.49821428571428" width="2" height="17.501785714285717" id="tests-vaccines-6"></rect></g><g><rect x="172.05454545454546" y="93.23857142857143" width="2" height="6.761428571428567" id="tests-vaccines-7"></rect></g><g><rect x="168.49090909090907" y="82.27035714285714" width="2" height="17.729642857142863" id="tests-vaccines-8"></rect></g><g><rect x="164.92727272727274" y="66.44285714285714" width="2" height="33.557142857142864" id="tests-vaccines-9"></rect></g><g><rect x="161.36363636363637" y="74.13107142857143" width="2" height="25.86892857142857" id="tests-vaccines-10"></rect></g><g><rect x="157.8" y="72.81142857142856" width="2" height="27.188571428571436" id="tests-vaccines-11"></rect></g><g><rect x="154.23636363636365" y="73.08749999999999" width="2" height="26.91250000000001" id="tests-vaccines-12"></rect></g><g><rect x="150.6727272727273" y="72.24892857142858" width="2" height="27.75107142857142" id="tests-vaccines-13"></rect></g><g><rect x="147.1090909090909" y="89.31071428571428" width="2" height="10.689285714285717" id="tests-vaccines-14"></rect></g><g><rect x="143.54545454545453" y="76.02035714285714" width="2" height="23.979642857142863" id="tests-vaccines-15"></rect></g><g><rect x="139.9818181818182" y="56.041428571428575" width="2" height="43.958571428571425" id="tests-vaccines-16"></rect></g><g><rect x="136.41818181818184" y="66.77071428571428" width="2" height="33.22928571428572" id="tests-vaccines-17"></rect></g><g><rect x="132.85454545454544" y="65.60571428571428" width="2" height="34.394285714285715" id="tests-vaccines-18"></rect></g><g><rect x="129.29090909090908" y="64.91214285714287" width="2" height="35.08785714285713" id="tests-vaccines-19"></rect></g><g><rect x="125.72727272727273" y="61.45928571428571" width="2" height="38.54071428571429" id="tests-vaccines-20"></rect></g><g><rect x="122.16363636363636" y="86.66678571428572" width="2" height="13.333214285714277" id="tests-vaccines-21"></rect></g><g><rect x="118.6" y="68.26964285714286" width="2" height="31.730357142857144" id="tests-vaccines-22"></rect></g><g><rect x="115.03636363636363" y="40.83714285714286" width="2" height="59.16285714285714" id="tests-vaccines-23"></rect></g><g><rect x="111.47272727272728" y="53.260714285714286" width="2" height="46.739285714285714" id="tests-vaccines-24"></rect></g><g><rect x="107.90909090909089" y="53.08428571428572" width="2" height="46.91571428571428" id="tests-vaccines-25"></rect></g><g><rect x="104.34545454545456" y="52.43678571428572" width="2" height="47.56321428571428" id="tests-vaccines-26"></rect></g><g><rect x="100.78181818181817" y="52.81678571428572" width="2" height="47.18321428571428" id="tests-vaccines-27"></rect></g><g><rect x="97.21818181818183" y="84.18214285714286" width="2" height="15.817857142857136" id="tests-vaccines-28"></rect></g><g><rect x="93.65454545454546" y="66.30035714285714" width="2" height="33.69964285714286" id="tests-vaccines-29"></rect></g><g><rect x="90.09090909090911" y="35.27357142857143" width="2" height="64.72642857142857" id="tests-vaccines-30"></rect></g><g><rect x="86.52727272727273" y="45.16392857142857" width="2" height="54.83607142857143" id="tests-vaccines-31"></rect></g><g><rect x="82.96363636363637" y="42.7125" width="2" height="57.2875" id="tests-vaccines-32"></rect></g><g><rect x="79.4" y="41.97571428571428" width="2" height="58.02428571428572" id="tests-vaccines-33"></rect></g><g><rect x="75.83636363636364" y="50.705" width="2" height="49.295" id="tests-vaccines-34"></rect></g><g><rect x="72.27272727272727" y="80.72535714285715" width="2" height="19.27464285714285" id="tests-vaccines-35"></rect></g><g><rect x="68.70909090909092" y="58.854285714285716" width="2" height="41.145714285714284" id="tests-vaccines-36"></rect></g><g><rect x="65.14545454545454" y="19.932499999999997" width="2" height="80.0675" id="tests-vaccines-37"></rect></g><g><rect x="61.58181818181818" y="31.7125" width="2" height="68.2875" id="tests-vaccines-38"></rect></g><g><rect x="58.018181818181816" y="29.17428571428572" width="2" height="70.82571428571428" id="tests-vaccines-39"></rect></g><g><rect x="54.454545454545446" y="27.733571428571423" width="2" height="72.26642857142858" id="tests-vaccines-40"></rect></g><g><rect x="50.89090909090908" y="32.11107142857143" width="2" height="67.88892857142858" id="tests-vaccines-41"></rect></g><g><rect x="47.32727272727273" y="77.17107142857142" width="2" height="22.828928571428577" id="tests-vaccines-42"></rect></g><g><rect x="43.76363636363636" y="46.30285714285714" width="2" height="53.69714285714286" id="tests-vaccines-43"></rect></g><g><rect x="40.199999999999996" y="3.3339285714285682" width="2" height="96.66607142857143" id="tests-vaccines-44"></rect></g><g><rect x="36.636363636363626" y="16.79142857142857" width="2" height="83.20857142857143" id="tests-vaccines-45"></rect></g><g><rect x="33.072727272727285" y="20.027499999999996" width="2" height="79.9725" id="tests-vaccines-46"></rect></g><g><rect x="29.509090909090922" y="21.43571428571428" width="2" height="78.56428571428572" id="tests-vaccines-47"></rect></g><g><rect x="25.945454545454556" y="27.578928571428573" width="2" height="72.42107142857142" id="tests-vaccines-48"></rect></g><g><rect x="22.38181818181819" y="80.54964285714286" width="2" height="19.450357142857143" id="tests-vaccines-49"></rect></g><g><rect x="18.818181818181824" y="97.08" width="2" height="2.9200000000000017" id="tests-vaccines-50"></rect></g><g><rect x="15.254545454545461" y="72.37035714285715" width="2" height="27.629642857142855" id="tests-vaccines-51"></rect></g><g><rect x="11.690909090909095" y="18.757857142857148" width="2" height="81.24214285714285" id="tests-vaccines-52"></rect></g><g><rect x="8.12727272727273" y="12.663928571428574" width="2" height="87.33607142857143" id="tests-vaccines-53"></rect></g><g><rect x="4.563636363636365" y="12.6475" width="2" height="87.35249999999999" id="tests-vaccines-54"></rect></g><g><rect x="1" y="23.542142857142856" width="2" height="76.45785714285714" id="tests-vaccines-55"></rect></g></g><g class="fg-line tests-vaccines" fill="none" stroke="#92c5de" stroke-width="2" stroke-linecap="round"><path d="M198,81.26229591836734L194.43636363636364,81.35678571428572L190.87272727272727,81.03051020408162L187.30909090909088,80.37974489795918L183.74545454545455,79.68801020408162L180.1818181818182,78.76668367346939L176.61818181818182,77.78285714285714L173.05454545454546,76.31867346938776L169.49090909090907,75.75755102040816L165.92727272727274,74.86469387755102L162.36363636363637,73.3787755102041L158.8,72.32729591836735L155.23636363636365,71.2979081632653L151.6727272727273,70.13000000000001L148.1090909090909,68.58862244897959L144.54545454545453,68.21091836734693L140.9818181818182,67.10367346938774L137.41818181818184,64.93163265306123L133.85454545454544,63.00163265306122L130.29090909090908,61.21285714285713L126.72727272727273,59.43066326530613L123.16363636363636,58.19602040816327L119.6,57.841071428571425L116.03636363636363,57.559744897959185L112.47272727272728,56.764948979591836L108.90909090909089,55.60826530612245L105.34545454545456,54.12658163265306L101.78181818181817,52.63214285714286L98.21818181818183,52.33045918367347L94.65454545454546,51.83663265306122L91.09090909090911,50.77290816326532L87.52727272727273,48.581326530612245L83.96363636363637,46.65969387755102L80.4,44.72566326530612L76.83636363636364,42.691071428571426L73.27272727272727,40.03479591836735L69.70909090909092,39.52704081632653L66.14545454545454,37.73397959183674L62.58181818181818,35.36275510204082L59.018181818181816,33.231173469387755L55.454545454545446,31.924489795918365L51.89090909090908,31.024795918367353L48.32727272727273,30.377346938775506L44.76363636363636,30.86L41.199999999999996,38.1138775510204L37.636363636363626,47.976224489795925L34.072727272727285,48.25714285714285L30.509090909090922,47.205204081632644L26.945454545454556,45.94974489795918L23.38181818181819,45.373061224489796L19.818181818181824,45.26010204081633L16.25454545454546,45.62913265306122L12.690909090909095,47.21336734693878L9.12727272727273,47.596326530612245L5.563636363636365,46.84525510204082L2,45.671989795918364"></path></g></svg>