<svg about="DATA_PUBLISHED_DATE:2021-12-21,RENDER_DATE:2021-12-21" xmlns="http://www.w3.org/2000/svg" viewBox="0,0,200,100"><g transform="translate(0,0)"></g><g class="fg-bars cases-ep" fill="#00183f" stroke="none"><g><rect x="197" y="63.96666666666666" width="2" height="36.03333333333334" id="cases-ep-0"></rect></g><g><rect x="193.43636363636364" y="59.86666666666667" width="2" height="40.13333333333333" id="cases-ep-1"></rect></g><g><rect x="189.87272727272727" y="40.63333333333333" width="2" height="59.36666666666667" id="cases-ep-2"></rect></g><g><rect x="186.30909090909088" y="39.62222222222223" width="2" height="60.37777777777777" id="cases-ep-3"></rect></g><g><rect x="182.74545454545455" y="32.06666666666666" width="2" height="67.93333333333334" id="cases-ep-4"></rect></g><g><rect x="179.1818181818182" y="31.122222222222216" width="2" height="68.87777777777778" id="cases-ep-5"></rect></g><g><rect x="175.61818181818182" y="21.344444444444445" width="2" height="78.65555555555555" id="cases-ep-6"></rect></g><g><rect x="172.05454545454546" y="59.68888888888889" width="2" height="40.31111111111111" id="cases-ep-7"></rect></g><g><rect x="168.49090909090907" y="55.53333333333333" width="2" height="44.46666666666667" id="cases-ep-8"></rect></g><g><rect x="164.92727272727274" y="33.82222222222222" width="2" height="66.17777777777778" id="cases-ep-9"></rect></g><g><rect x="161.36363636363637" y="31.733333333333334" width="2" height="68.26666666666667" id="cases-ep-10"></rect></g><g><rect x="157.8" y="18.68888888888889" width="2" height="81.3111111111111" id="cases-ep-11"></rect></g><g><rect x="154.23636363636365" y="22.12222222222222" width="2" height="77.87777777777778" id="cases-ep-12"></rect></g><g><rect x="150.6727272727273" y="9.477777777777774" width="2" height="90.52222222222223" id="cases-ep-13"></rect></g><g><rect x="147.1090909090909" y="51.81111111111112" width="2" height="48.18888888888888" id="cases-ep-14"></rect></g><g><rect x="143.54545454545453" y="53.64444444444445" width="2" height="46.35555555555555" id="cases-ep-15"></rect></g><g><rect x="139.9818181818182" y="52.27777777777778" width="2" height="47.72222222222222" id="cases-ep-16"></rect></g><g><rect x="136.41818181818184" y="74.98888888888888" width="2" height="25.01111111111112" id="cases-ep-17"></rect></g><g><rect x="132.85454545454544" y="49.044444444444444" width="2" height="50.955555555555556" id="cases-ep-18"></rect></g><g><rect x="129.29090909090908" y="46.72222222222222" width="2" height="53.27777777777778" id="cases-ep-19"></rect></g><g><rect x="125.72727272727273" y="42.71111111111111" width="2" height="57.28888888888889" id="cases-ep-20"></rect></g><g><rect x="122.16363636363636" y="67.58888888888889" width="2" height="32.41111111111111" id="cases-ep-21"></rect></g><g><rect x="118.6" y="64.2" width="2" height="35.8" id="cases-ep-22"></rect></g><g><rect x="115.03636363636363" y="49.4" width="2" height="50.6" id="cases-ep-23"></rect></g><g><rect x="111.47272727272728" y="48.38888888888889" width="2" height="51.61111111111111" id="cases-ep-24"></rect></g><g><rect x="107.90909090909089" y="43.03333333333333" width="2" height="56.96666666666667" id="cases-ep-25"></rect></g><g><rect x="104.34545454545456" y="40.18888888888888" width="2" height="59.81111111111112" id="cases-ep-26"></rect></g><g><rect x="100.78181818181817" y="29.522222222222226" width="2" height="70.47777777777777" id="cases-ep-27"></rect></g><g><rect x="97.21818181818183" y="64.1" width="2" height="35.900000000000006" id="cases-ep-28"></rect></g><g><rect x="93.65454545454546" y="61.988888888888894" width="2" height="38.011111111111106" id="cases-ep-29"></rect></g><g><rect x="90.09090909090911" y="43.8" width="2" height="56.2" id="cases-ep-30"></rect></g><g><rect x="86.52727272727273" y="52.2888888888889" width="2" height="47.7111111111111" id="cases-ep-31"></rect></g><g><rect x="82.96363636363637" y="38.1" width="2" height="61.9" id="cases-ep-32"></rect></g><g><rect x="79.4" y="34.88888888888889" width="2" height="65.11111111111111" id="cases-ep-33"></rect></g><g><rect x="75.83636363636364" y="26.64444444444445" width="2" height="73.35555555555555" id="cases-ep-34"></rect></g><g><rect x="72.27272727272727" y="61.68888888888888" width="2" height="38.31111111111112" id="cases-ep-35"></rect></g><g><rect x="68.70909090909092" y="59.44444444444444" width="2" height="40.55555555555556" id="cases-ep-36"></rect></g><g><rect x="65.14545454545454" y="38.84444444444445" width="2" height="61.15555555555555" id="cases-ep-37"></rect></g><g><rect x="61.58181818181818" y="33.48888888888889" width="2" height="66.51111111111112" id="cases-ep-38"></rect></g><g><rect x="58.018181818181816" y="29.21111111111111" width="2" height="70.78888888888889" id="cases-ep-39"></rect></g><g><rect x="54.454545454545446" y="28.388888888888886" width="2" height="71.61111111111111" id="cases-ep-40"></rect></g><g><rect x="50.89090909090908" y="18.422222222222217" width="2" height="81.57777777777778" id="cases-ep-41"></rect></g><g><rect x="47.32727272727273" y="61.44444444444444" width="2" height="38.55555555555556" id="cases-ep-42"></rect></g><g><rect x="43.76363636363636" y="56.45555555555555" width="2" height="43.54444444444445" id="cases-ep-43"></rect></g><g><rect x="40.199999999999996" y="37.66666666666667" width="2" height="62.33333333333333" id="cases-ep-44"></rect></g><g><rect x="36.636363636363626" y="32.92222222222222" width="2" height="67.07777777777778" id="cases-ep-45"></rect></g><g><rect x="33.072727272727285" y="27.77777777777778" width="2" height="72.22222222222223" id="cases-ep-46"></rect></g><g><rect x="29.509090909090922" y="25.13333333333333" width="2" height="74.86666666666667" id="cases-ep-47"></rect></g><g><rect x="25.945454545454556" y="20.222222222222218" width="2" height="79.77777777777779" id="cases-ep-48"></rect></g><g><rect x="22.38181818181819" y="60.544444444444444" width="2" height="39.455555555555556" id="cases-ep-49"></rect></g><g><rect x="18.818181818181824" y="55.25555555555556" width="2" height="44.74444444444444" id="cases-ep-50"></rect></g><g><rect x="15.254545454545461" y="33.96666666666667" width="2" height="66.03333333333333" id="cases-ep-51"></rect></g><g><rect x="11.690909090909095" y="34.699999999999996" width="2" height="65.30000000000001" id="cases-ep-52"></rect></g><g><rect x="8.12727272727273" y="31.11111111111111" width="2" height="68.88888888888889" id="cases-ep-53"></rect></g><g><rect x="4.563636363636365" y="29.566666666666663" width="2" height="70.43333333333334" id="cases-ep-54"></rect></g><g><rect x="1" y="22.099999999999998" width="2" height="77.9" id="cases-ep-55"></rect></g></g><g class="fg-line cases-ep" fill="none" stroke="#92c5de" stroke-width="2" stroke-linecap="round"><path d="M198,41.23174603174603L194.43636363636364,40.62063492063493L190.87272727272727,40.00158730158729L187.30909090909088,39.028571428571425L183.74545454545455,37.901587301587305L180.1818181818182,35.99047619047619L176.61818181818182,34.7047619047619L173.05454545454546,33.00952380952381L169.49090909090907,31.884126984126983L165.92727272727274,31.614285714285717L162.36363636363637,34.25079365079365L158.8,40.43015873015873L155.23636363636365,44.766666666666666L151.6727272727273,48.28095238095238L148.1090909090909,53.028571428571425L144.54545454545453,55.28253968253969L140.9818181818182,56.79047619047619L137.41818181818184,56.37936507936507L133.85454545454544,52.57936507936507L130.29090909090908,51.72063492063492L126.72727272727273,50.78730158730159L123.16363636363636,48.903174603174605L119.6,48.404761904761905L116.03636363636363,48.08888888888889L112.47272727272728,47.28888888888889L108.90909090909089,47.84603174603175L105.34545454545456,47.14126984126984L101.78181818181817,46.384126984126986L98.21818181818183,45.973015873015875L94.65454545454546,45.628571428571426L91.09090909090911,45.265079365079366L87.52727272727273,44.55714285714285L83.96363636363637,41.871428571428574L80.4,40.601587301587294L76.83636363636364,39.67301587301587L73.27272727272727,38.4984126984127L69.70909090909092,38.463492063492055L66.14545454545454,38.036507936507945L62.58181818181818,37.86825396825396L59.018181818181816,37.78730158730159L55.454545454545446,37.58253968253968L51.89090909090908,37.11746031746031L48.32727272727273,37.37460317460317L44.76363636363636,37.24603174603174L41.199999999999996,37.07460317460317L37.636363636363626,36.54603174603175L34.072727272727285,36.8L30.509090909090922,37.27619047619047L26.945454545454556,37.90952380952382L23.38181818181819,38.17777777777778L19.818181818181824,38.180952380952384L16.25454545454546,38.83015873015873L12.690909090909095,39.93174603174603L9.12727272727273,40.92380952380952L5.563636363636365,41.888888888888886L2,42.77619047619048"></path></g></svg>