<svg about="DATA_PUBLISHED_DATE:2021-12-14,RENDER_DATE:2021-12-15" xmlns="http://www.w3.org/2000/svg" viewBox="0,0,200,100"><g transform="translate(0,0)"></g><g class="fg-bars cases-ep" fill="#00183f" stroke="none"><g><rect x="197" y="66.10000000000001" width="2" height="33.89999999999999" id="cases-ep-0"></rect></g><g><rect x="193.43636363636364" y="60.34444444444445" width="2" height="39.65555555555555" id="cases-ep-1"></rect></g><g><rect x="189.87272727272727" y="38.13333333333333" width="2" height="61.86666666666667" id="cases-ep-2"></rect></g><g><rect x="186.30909090909088" y="34.32222222222222" width="2" height="65.67777777777778" id="cases-ep-3"></rect></g><g><rect x="182.74545454545455" y="21.888888888888893" width="2" height="78.11111111111111" id="cases-ep-4"></rect></g><g><rect x="179.1818181818182" y="23.644444444444446" width="2" height="76.35555555555555" id="cases-ep-5"></rect></g><g><rect x="175.61818181818182" y="11.099999999999998" width="2" height="88.9" id="cases-ep-6"></rect></g><g><rect x="172.05454545454546" y="53.11111111111111" width="2" height="46.88888888888889" id="cases-ep-7"></rect></g><g><rect x="168.49090909090907" y="54.54444444444444" width="2" height="45.45555555555556" id="cases-ep-8"></rect></g><g><rect x="164.92727272727274" y="52.966666666666676" width="2" height="47.033333333333324" id="cases-ep-9"></rect></g><g><rect x="161.36363636363637" y="75.5111111111111" width="2" height="24.488888888888894" id="cases-ep-10"></rect></g><g><rect x="157.8" y="49.38888888888889" width="2" height="50.61111111111111" id="cases-ep-11"></rect></g><g><rect x="154.23636363636365" y="47.08888888888889" width="2" height="52.91111111111111" id="cases-ep-12"></rect></g><g><rect x="150.6727272727273" y="42.84444444444444" width="2" height="57.15555555555556" id="cases-ep-13"></rect></g><g><rect x="147.1090909090909" y="67.8" width="2" height="32.2" id="cases-ep-14"></rect></g><g><rect x="143.54545454545453" y="64.35555555555555" width="2" height="35.644444444444446" id="cases-ep-15"></rect></g><g><rect x="139.9818181818182" y="49.477777777777774" width="2" height="50.522222222222226" id="cases-ep-16"></rect></g><g><rect x="136.41818181818184" y="48.522222222222226" width="2" height="51.477777777777774" id="cases-ep-17"></rect></g><g><rect x="132.85454545454544" y="43.12222222222222" width="2" height="56.87777777777778" id="cases-ep-18"></rect></g><g><rect x="129.29090909090908" y="40.233333333333334" width="2" height="59.766666666666666" id="cases-ep-19"></rect></g><g><rect x="125.72727272727273" y="29.566666666666663" width="2" height="70.43333333333334" id="cases-ep-20"></rect></g><g><rect x="122.16363636363636" y="64.23333333333333" width="2" height="35.766666666666666" id="cases-ep-21"></rect></g><g><rect x="118.6" y="62.05555555555555" width="2" height="37.94444444444445" id="cases-ep-22"></rect></g><g><rect x="115.03636363636363" y="43.777777777777786" width="2" height="56.222222222222214" id="cases-ep-23"></rect></g><g><rect x="111.47272727272728" y="52.344444444444434" width="2" height="47.655555555555566" id="cases-ep-24"></rect></g><g><rect x="107.90909090909089" y="38.15555555555555" width="2" height="61.84444444444445" id="cases-ep-25"></rect></g><g><rect x="104.34545454545456" y="34.96666666666667" width="2" height="65.03333333333333" id="cases-ep-26"></rect></g><g><rect x="100.78181818181817" y="26.722222222222225" width="2" height="73.27777777777777" id="cases-ep-27"></rect></g><g><rect x="97.21818181818183" y="61.73333333333333" width="2" height="38.26666666666667" id="cases-ep-28"></rect></g><g><rect x="93.65454545454546" y="59.52222222222222" width="2" height="40.47777777777778" id="cases-ep-29"></rect></g><g><rect x="90.09090909090911" y="38.87777777777778" width="2" height="61.12222222222222" id="cases-ep-30"></rect></g><g><rect x="86.52727272727273" y="33.5" width="2" height="66.5" id="cases-ep-31"></rect></g><g><rect x="82.96363636363637" y="29.15555555555556" width="2" height="70.84444444444443" id="cases-ep-32"></rect></g><g><rect x="79.4" y="28.400000000000002" width="2" height="71.6" id="cases-ep-33"></rect></g><g><rect x="75.83636363636364" y="18.500000000000007" width="2" height="81.5" id="cases-ep-34"></rect></g><g><rect x="72.27272727272727" y="61.422222222222224" width="2" height="38.577777777777776" id="cases-ep-35"></rect></g><g><rect x="68.70909090909092" y="56.43333333333334" width="2" height="43.56666666666666" id="cases-ep-36"></rect></g><g><rect x="65.14545454545454" y="37.66666666666667" width="2" height="62.33333333333333" id="cases-ep-37"></rect></g><g><rect x="61.58181818181818" y="32.92222222222222" width="2" height="67.07777777777778" id="cases-ep-38"></rect></g><g><rect x="58.018181818181816" y="27.84444444444445" width="2" height="72.15555555555555" id="cases-ep-39"></rect></g><g><rect x="54.454545454545446" y="25.16666666666667" width="2" height="74.83333333333333" id="cases-ep-40"></rect></g><g><rect x="50.89090909090908" y="20.233333333333338" width="2" height="79.76666666666667" id="cases-ep-41"></rect></g><g><rect x="47.32727272727273" y="60.6" width="2" height="39.4" id="cases-ep-42"></rect></g><g><rect x="43.76363636363636" y="55.233333333333334" width="2" height="44.766666666666666" id="cases-ep-43"></rect></g><g><rect x="40.199999999999996" y="33.95555555555556" width="2" height="66.04444444444444" id="cases-ep-44"></rect></g><g><rect x="36.636363636363626" y="34.73333333333334" width="2" height="65.26666666666665" id="cases-ep-45"></rect></g><g><rect x="33.072727272727285" y="31.100000000000005" width="2" height="68.89999999999999" id="cases-ep-46"></rect></g><g><rect x="29.509090909090922" y="29.633333333333333" width="2" height="70.36666666666667" id="cases-ep-47"></rect></g><g><rect x="25.945454545454556" y="22.18888888888889" width="2" height="77.8111111111111" id="cases-ep-48"></rect></g><g><rect x="22.38181818181819" y="60.577777777777776" width="2" height="39.422222222222224" id="cases-ep-49"></rect></g><g><rect x="18.818181818181824" y="59.84444444444444" width="2" height="40.15555555555556" id="cases-ep-50"></rect></g><g><rect x="15.254545454545461" y="41.75555555555556" width="2" height="58.24444444444444" id="cases-ep-51"></rect></g><g><rect x="11.690909090909095" y="41.733333333333334" width="2" height="58.266666666666666" id="cases-ep-52"></rect></g><g><rect x="8.12727272727273" y="37.977777777777774" width="2" height="62.022222222222226" id="cases-ep-53"></rect></g><g><rect x="4.563636363636365" y="35.74444444444445" width="2" height="64.25555555555556" id="cases-ep-54"></rect></g><g><rect x="1" y="35.91111111111112" width="2" height="64.08888888888887" id="cases-ep-55"></rect></g></g><g class="fg-line cases-ep" fill="none" stroke="#92c5de" stroke-width="2" stroke-linecap="round"><path d="M198,36.50476190476191L194.43636363636364,34.64920634920635L190.87272727272727,33.82063492063493L187.30909090909088,35.939682539682536L183.74545454545455,41.823809523809516L180.1818181818182,45.752380952380946L176.61818181818182,49.1015873015873L173.05454545454546,53.63650793650794L169.49090909090907,55.734920634920634L165.92727272727274,57.13650793650793L162.36363636363637,56.63809523809525L158.8,52.782539682539685L155.23636363636365,51.88730158730159L151.6727272727273,50.907936507936505L148.1090909090909,49.01111111111112L144.54545454545453,48.5015873015873L140.9818181818182,48.17301587301587L137.41818181818184,47.35873015873017L133.85454545454544,47.904761904761905L130.29090909090908,47.19523809523809L126.72727272727273,46.44285714285714L123.16363636363636,46.036507936507945L119.6,45.67936507936508L116.03636363636363,45.31746031746031L112.47272727272728,44.61746031746031L108.90909090909089,41.92539682539683L105.34545454545456,40.63968253968254L101.78181818181817,39.701587301587296L98.21818181818183,38.52698412698413L94.65454545454546,38.48253968253969L91.09090909090911,38.041269841269845L87.52727272727273,37.86825396825396L83.96363636363637,37.78571428571428L80.4,37.598412698412695L76.83636363636364,37.13650793650795L73.27272727272727,37.384126984126986L69.70909090909092,37.26666666666667L66.14545454545454,37.095238095238095L62.58181818181818,36.56507936507937L59.018181818181816,36.82380952380952L55.454545454545446,37.28888888888889L51.89090909090908,37.92698412698413L48.32727272727273,38.2063492063492L44.76363636363636,38.2031746031746L41.199999999999996,38.86190476190477L37.636363636363626,39.976190476190474L34.072727272727285,40.976190476190474L30.509090909090922,41.95873015873016L26.945454545454556,42.83174603174603L23.38181818181819,44.79206349206349L19.818181818181824,45.22857142857143L16.25454545454546,45.43174603174604L12.690909090909095,45.593650793650795L9.12727272727273,45.55238095238094L5.563636363636365,44.96190476190476L2,44.319047619047616"></path></g></svg>