<svg about="DATA_PUBLISHED_DATE:2021-11-16,RENDER_DATE:2021-11-16" xmlns="http://www.w3.org/2000/svg" viewBox="0,0,200,100"><g transform="translate(0,0)"></g><g class="fg-bars cases-ep" fill="#00183f" stroke="none"><g><rect x="197" y="76.45454545454545" width="2" height="23.545454545454547" id="cases-ep-0"></rect></g><g><rect x="193.43636363636364" y="73.41818181818182" width="2" height="26.58181818181818" id="cases-ep-1"></rect></g><g><rect x="189.87272727272727" y="55.627272727272725" width="2" height="44.372727272727275" id="cases-ep-2"></rect></g><g><rect x="186.30909090909088" y="49.663636363636364" width="2" height="50.336363636363636" id="cases-ep-3"></rect></g><g><rect x="182.74545454545455" y="46.52727272727273" width="2" height="53.47272727272727" id="cases-ep-4"></rect></g><g><rect x="179.1818181818182" y="44.56363636363636" width="2" height="55.43636363636364" id="cases-ep-5"></rect></g><g><rect x="175.61818181818182" y="36.945454545454545" width="2" height="63.054545454545455" id="cases-ep-6"></rect></g><g><rect x="172.05454545454546" y="71.33636363636364" width="2" height="28.663636363636357" id="cases-ep-7"></rect></g><g><rect x="168.49090909090907" y="66.8" width="2" height="33.2" id="cases-ep-8"></rect></g><g><rect x="164.92727272727274" y="52.04545454545455" width="2" height="47.95454545454545" id="cases-ep-9"></rect></g><g><rect x="161.36363636363637" y="47.46363636363636" width="2" height="52.53636363636364" id="cases-ep-10"></rect></g><g><rect x="157.8" y="41.90909090909091" width="2" height="58.09090909090909" id="cases-ep-11"></rect></g><g><rect x="154.23636363636365" y="39.654545454545456" width="2" height="60.345454545454544" id="cases-ep-12"></rect></g><g><rect x="150.6727272727273" y="35.236363636363635" width="2" height="64.76363636363637" id="cases-ep-13"></rect></g><g><rect x="147.1090909090909" y="68.46363636363637" width="2" height="31.53636363636363" id="cases-ep-14"></rect></g><g><rect x="143.54545454545453" y="64.18181818181819" width="2" height="35.81818181818181" id="cases-ep-15"></rect></g><g><rect x="139.9818181818182" y="46.5" width="2" height="53.5" id="cases-ep-16"></rect></g><g><rect x="136.41818181818184" y="47.06363636363636" width="2" height="52.93636363636364" id="cases-ep-17"></rect></g><g><rect x="132.85454545454544" y="43.881818181818176" width="2" height="56.118181818181824" id="cases-ep-18"></rect></g><g><rect x="129.29090909090908" y="42.75454545454546" width="2" height="57.24545454545454" id="cases-ep-19"></rect></g><g><rect x="125.72727272727273" y="36.663636363636364" width="2" height="63.336363636363636" id="cases-ep-20"></rect></g><g><rect x="122.16363636363636" y="67.96363636363635" width="2" height="32.036363636363646" id="cases-ep-21"></rect></g><g><rect x="118.6" y="67.46363636363637" width="2" height="32.53636363636363" id="cases-ep-22"></rect></g><g><rect x="115.03636363636363" y="52.64545454545455" width="2" height="47.35454545454545" id="cases-ep-23"></rect></g><g><rect x="111.47272727272728" y="52.56363636363637" width="2" height="47.43636363636363" id="cases-ep-24"></rect></g><g><rect x="107.90909090909089" y="49.35454545454545" width="2" height="50.64545454545455" id="cases-ep-25"></rect></g><g><rect x="104.34545454545456" y="47.56363636363636" width="2" height="52.43636363636364" id="cases-ep-26"></rect></g><g><rect x="100.78181818181817" y="47.9" width="2" height="52.1" id="cases-ep-27"></rect></g><g><rect x="97.21818181818183" y="70.43636363636364" width="2" height="29.563636363636363" id="cases-ep-28"></rect></g><g><rect x="93.65454545454546" y="68.41818181818182" width="2" height="31.58181818181818" id="cases-ep-29"></rect></g><g><rect x="90.09090909090911" y="53.381818181818176" width="2" height="46.618181818181824" id="cases-ep-30"></rect></g><g><rect x="86.52727272727273" y="52.18181818181817" width="2" height="47.81818181818183" id="cases-ep-31"></rect></g><g><rect x="82.96363636363637" y="45.86363636363636" width="2" height="54.13636363636364" id="cases-ep-32"></rect></g><g><rect x="79.4" y="43.85454545454546" width="2" height="56.14545454545454" id="cases-ep-33"></rect></g><g><rect x="75.83636363636364" y="38.68181818181819" width="2" height="61.31818181818181" id="cases-ep-34"></rect></g><g><rect x="72.27272727272727" y="69.4909090909091" width="2" height="30.5090909090909" id="cases-ep-35"></rect></g><g><rect x="68.70909090909092" y="66.86363636363637" width="2" height="33.136363636363626" id="cases-ep-36"></rect></g><g><rect x="65.14545454545454" y="48.32727272727273" width="2" height="51.67272727272727" id="cases-ep-37"></rect></g><g><rect x="61.58181818181818" y="47.8" width="2" height="52.2" id="cases-ep-38"></rect></g><g><rect x="58.018181818181816" y="43.89999999999999" width="2" height="56.10000000000001" id="cases-ep-39"></rect></g><g><rect x="54.454545454545446" y="39.11818181818182" width="2" height="60.88181818181818" id="cases-ep-40"></rect></g><g><rect x="50.89090909090908" y="31.218181818181822" width="2" height="68.78181818181818" id="cases-ep-41"></rect></g><g><rect x="47.32727272727273" y="66.19999999999999" width="2" height="33.80000000000001" id="cases-ep-42"></rect></g><g><rect x="43.76363636363636" y="61.95454545454546" width="2" height="38.04545454545454" id="cases-ep-43"></rect></g><g><rect x="40.199999999999996" y="44.54545454545455" width="2" height="55.45454545454545" id="cases-ep-44"></rect></g><g><rect x="36.636363636363626" y="41.345454545454544" width="2" height="58.654545454545456" id="cases-ep-45"></rect></g><g><rect x="33.072727272727285" y="33.4" width="2" height="66.6" id="cases-ep-46"></rect></g><g><rect x="29.509090909090922" y="32.22727272727273" width="2" height="67.77272727272728" id="cases-ep-47"></rect></g><g><rect x="25.945454545454556" y="20.36363636363636" width="2" height="79.63636363636364" id="cases-ep-48"></rect></g><g><rect x="22.38181818181819" y="62.65454545454545" width="2" height="37.34545454545455" id="cases-ep-49"></rect></g><g><rect x="18.818181818181824" y="55.82727272727273" width="2" height="44.17272727272727" id="cases-ep-50"></rect></g><g><rect x="15.254545454545461" y="34.00909090909091" width="2" height="65.9909090909091" id="cases-ep-51"></rect></g><g><rect x="11.690909090909095" y="28.754545454545454" width="2" height="71.24545454545455" id="cases-ep-52"></rect></g><g><rect x="8.12727272727273" y="20.40909090909091" width="2" height="79.5909090909091" id="cases-ep-53"></rect></g><g><rect x="4.563636363636365" y="14.800000000000002" width="2" height="85.2" id="cases-ep-54"></rect></g><g><rect x="1" y="6.218181818181822" width="2" height="93.78181818181818" id="cases-ep-55"></rect></g></g><g class="fg-line cases-ep" fill="none" stroke="#92c5de" stroke-width="2" stroke-linecap="round"><path d="M198,54.74285714285714L194.43636363636364,54.011688311688324L190.87272727272727,53.06623376623377L187.30909090909088,52.554545454545455L183.74545454545455,52.240259740259745L180.1818181818182,51.580519480519484L176.61818181818182,50.87922077922078L173.05454545454546,50.63506493506493L169.49090909090907,50.22467532467532L165.92727272727274,49.85064935064935L162.36363636363637,49.05844155844156L158.8,49.0012987012987L155.23636363636365,49.28311688311688L151.6727272727273,49.725974025974025L148.1090909090909,49.92987012987014L144.54545454545453,49.858441558441555L140.9818181818182,50.32727272727273L137.41818181818184,51.20519480519481L133.85454545454544,51.990909090909085L130.29090909090908,52.77272727272727L126.72727272727273,53.45974025974025L123.16363636363636,55.064935064935064L119.6,55.41818181818181L116.03636363636363,55.554545454545455L112.47272727272728,55.65974025974025L108.90909090909089,55.6051948051948L105.34545454545456,55.10649350649351L101.78181818181817,54.57662337662338L98.21818181818183,53.259740259740255L94.65454545454546,53.124675324675316L91.09090909090911,52.90259740259741L87.52727272727273,52.180519480519486L83.96363636363637,51.554545454545455L80.4,51.274025974025975L76.83636363636364,50.5974025974026L73.27272727272727,49.531168831168834L69.70909090909092,49.06103896103896L66.14545454545454,48.359740259740256L62.58181818181818,47.819480519480514L59.018181818181816,46.897402597402596L55.454545454545446,45.39740259740259L51.89090909090908,44.41298701298702L48.32727272727273,42.862337662337666L44.76363636363636,42.35584415584416L41.199999999999996,41.48051948051948L37.636363636363626,39.97532467532467L34.072727272727285,38.176623376623375L30.509090909090922,36.32077922077922L26.945454545454556,33.83116883116883L23.38181818181819,31.81038961038961L19.818181818181824,30.274025974025975L16.25454545454546,28.550649350649348L12.690909090909095,25.981818181818184L9.12727272727273,23.028571428571432L5.563636363636365,19.82337662337663L2,16.003896103896096"></path></g></svg>