<svg about="DATA_PUBLISHED_DATE:2022-01-10,RENDER_DATE:2022-01-10" xmlns="http://www.w3.org/2000/svg" viewBox="0,0,200,100"><g transform="translate(0,0)"></g><g class="fg-bars tests-vaccines" fill="#00183f" stroke="none"><g><rect x="197" y="85.06228571428571" width="2" height="14.937714285714293" id="tests-vaccines-0"></rect></g><g><rect x="193.43636363636364" y="97.83914285714286" width="2" height="2.1608571428571395" id="tests-vaccines-1"></rect></g><g><rect x="189.87272727272727" y="79.056" width="2" height="20.944000000000003" id="tests-vaccines-2"></rect></g><g><rect x="186.30909090909088" y="38.287142857142854" width="2" height="61.712857142857146" id="tests-vaccines-3"></rect></g><g><rect x="182.74545454545455" y="33.814571428571426" width="2" height="66.18542857142857" id="tests-vaccines-4"></rect></g><g><rect x="179.1818181818182" y="33.446285714285715" width="2" height="66.55371428571428" id="tests-vaccines-5"></rect></g><g><rect x="175.61818181818182" y="41.66085714285715" width="2" height="58.33914285714285" id="tests-vaccines-6"></rect></g><g><rect x="172.05454545454546" y="84.77314285714286" width="2" height="15.226857142857142" id="tests-vaccines-7"></rect></g><g><rect x="168.49090909090907" y="99.74885714285713" width="2" height="0.25114285714286666" id="tests-vaccines-8"></rect></g><g><rect x="164.92727272727274" y="87.446" width="2" height="12.554000000000002" id="tests-vaccines-9"></rect></g><g><rect x="161.36363636363637" y="39.533142857142856" width="2" height="60.466857142857144" id="tests-vaccines-10"></rect></g><g><rect x="157.8" y="28.10571428571429" width="2" height="71.89428571428572" id="tests-vaccines-11"></rect></g><g><rect x="154.23636363636365" y="25.718285714285717" width="2" height="74.28171428571429" id="tests-vaccines-12"></rect></g><g><rect x="150.6727272727273" y="30.70628571428572" width="2" height="69.29371428571429" id="tests-vaccines-13"></rect></g><g><rect x="147.1090909090909" y="79.80085714285714" width="2" height="20.19914285714286" id="tests-vaccines-14"></rect></g><g><rect x="143.54545454545453" y="59.86057142857143" width="2" height="40.13942857142857" id="tests-vaccines-15"></rect></g><g><rect x="139.9818181818182" y="26.636000000000003" width="2" height="73.364" id="tests-vaccines-16"></rect></g><g><rect x="136.41818181818184" y="35.44371428571429" width="2" height="64.5562857142857" id="tests-vaccines-17"></rect></g><g><rect x="132.85454545454544" y="33.89885714285714" width="2" height="66.10114285714286" id="tests-vaccines-18"></rect></g><g><rect x="129.29090909090908" y="35.68542857142857" width="2" height="64.31457142857144" id="tests-vaccines-19"></rect></g><g><rect x="125.72727272727273" y="38.39857142857143" width="2" height="61.60142857142857" id="tests-vaccines-20"></rect></g><g><rect x="122.16363636363636" y="80.41285714285713" width="2" height="19.587142857142865" id="tests-vaccines-21"></rect></g><g><rect x="118.6" y="54.25971428571428" width="2" height="45.74028571428572" id="tests-vaccines-22"></rect></g><g><rect x="115.03636363636363" y="19.960857142857147" width="2" height="80.03914285714285" id="tests-vaccines-23"></rect></g><g><rect x="111.47272727272728" y="27.915999999999997" width="2" height="72.084" id="tests-vaccines-24"></rect></g><g><rect x="107.90909090909089" y="25.411428571428573" width="2" height="74.58857142857143" id="tests-vaccines-25"></rect></g><g><rect x="104.34545454545456" y="25.52228571428572" width="2" height="74.47771428571428" id="tests-vaccines-26"></rect></g><g><rect x="100.78181818181817" y="30.874000000000002" width="2" height="69.126" id="tests-vaccines-27"></rect></g><g><rect x="97.21818181818183" y="76.55857142857143" width="2" height="23.441428571428574" id="tests-vaccines-28"></rect></g><g><rect x="93.65454545454546" y="47.844857142857144" width="2" height="52.155142857142856" id="tests-vaccines-29"></rect></g><g><rect x="90.09090909090911" y="9.245999999999999" width="2" height="90.754" id="tests-vaccines-30"></rect></g><g><rect x="86.52727272727273" y="19.772285714285708" width="2" height="80.22771428571428" id="tests-vaccines-31"></rect></g><g><rect x="82.96363636363637" y="21.599428571428568" width="2" height="78.40057142857142" id="tests-vaccines-32"></rect></g><g><rect x="79.4" y="29.31285714285714" width="2" height="70.68714285714286" id="tests-vaccines-33"></rect></g><g><rect x="75.83636363636364" y="38.960571428571434" width="2" height="61.039428571428566" id="tests-vaccines-34"></rect></g><g><rect x="72.27272727272727" y="81.54685714285715" width="2" height="18.45314285714285" id="tests-vaccines-35"></rect></g><g><rect x="68.70909090909092" y="67.24657142857143" width="2" height="32.75342857142857" id="tests-vaccines-36"></rect></g><g><rect x="65.14545454545454" y="56.288000000000004" width="2" height="43.711999999999996" id="tests-vaccines-37"></rect></g><g><rect x="61.58181818181818" y="98.58428571428571" width="2" height="1.4157142857142873" id="tests-vaccines-38"></rect></g><g><rect x="58.018181818181816" y="41.31542857142857" width="2" height="58.68457142857143" id="tests-vaccines-39"></rect></g><g><rect x="54.454545454545446" y="30.19828571428571" width="2" height="69.8017142857143" id="tests-vaccines-40"></rect></g><g><rect x="50.89090909090908" y="33.33114285714286" width="2" height="66.66885714285715" id="tests-vaccines-41"></rect></g><g><rect x="47.32727272727273" y="78.83571428571429" width="2" height="21.16428571428571" id="tests-vaccines-42"></rect></g><g><rect x="43.76363636363636" y="54.975428571428566" width="2" height="45.024571428571434" id="tests-vaccines-43"></rect></g><g><rect x="40.199999999999996" y="22.704857142857136" width="2" height="77.29514285714286" id="tests-vaccines-44"></rect></g><g><rect x="36.636363636363626" y="34.76514285714286" width="2" height="65.23485714285714" id="tests-vaccines-45"></rect></g><g><rect x="33.072727272727285" y="33.64142857142857" width="2" height="66.35857142857142" id="tests-vaccines-46"></rect></g><g><rect x="29.509090909090922" y="35.18285714285714" width="2" height="64.81714285714287" id="tests-vaccines-47"></rect></g><g><rect x="25.945454545454556" y="40.872" width="2" height="59.128" id="tests-vaccines-48"></rect></g><g><rect x="22.38181818181819" y="79.45114285714286" width="2" height="20.548857142857145" id="tests-vaccines-49"></rect></g><g><rect x="18.818181818181824" y="57.17914285714285" width="2" height="42.82085714285715" id="tests-vaccines-50"></rect></g><g><rect x="15.254545454545461" y="25.584285714285716" width="2" height="74.41571428571429" id="tests-vaccines-51"></rect></g><g><rect x="11.690909090909095" y="37.615428571428566" width="2" height="62.384571428571434" id="tests-vaccines-52"></rect></g><g><rect x="8.12727272727273" y="35.22371428571428" width="2" height="64.77628571428572" id="tests-vaccines-53"></rect></g><g><rect x="4.563636363636365" y="37.67057142857143" width="2" height="62.32942857142857" id="tests-vaccines-54"></rect></g><g><rect x="1" y="42.646571428571434" width="2" height="57.353428571428566" id="tests-vaccines-55"></rect></g></g><g class="fg-line tests-vaccines" fill="none" stroke="#92c5de" stroke-width="2" stroke-linecap="round"><path d="M198,58.452326530612254L194.43636363636364,58.41102040816326L190.87272727272727,58.683836734693884L187.30909090909088,59.88240816326531L183.74545454545455,60.06040816326531L180.1818181818182,59.24485714285714L176.61818181818182,58.14085714285715L173.05454545454546,56.575918367346944L169.49090909090907,55.865591836734694L165.92727272727274,50.16726530612245L162.36363636363637,41.48012244897959L158.8,40.89591836734694L155.23636363636365,41.72351020408163L151.6727272727273,43.14738775510204L148.1090909090909,44.24628571428572L144.54545454545453,44.33371428571429L140.9818181818182,43.533591836734686L137.41818181818184,42.58L133.85454545454544,41.50461224489796L130.29090909090908,40.2921224489796L126.72727272727273,38.840244897959174L123.16363636363636,37.76530612244897L119.6,37.21469387755102L116.03636363636363,36.29828571428572L112.47272727272728,34.76759183673469L108.90909090909089,33.60420408163265L105.34545454545456,33.05963265306122L101.78181818181817,33.601142857142854L98.21818181818183,34.756367346938774L94.65454545454546,35.468979591836735L91.09090909090911,38.240653061224485L87.52727272727273,44.96093877551021L83.96363636363637,56.219795918367346L80.4,59.036367346938775L76.83636363636364,59.16285714285714L73.27272727272727,58.358653061224494L69.70909090909092,57.971346938775504L66.14545454545454,56.21832653061225L62.58181818181818,51.420734693877556L59.018181818181816,42.30371428571429L55.454545454545446,41.20742857142857L51.89090909090908,41.91951020408163L48.32727272727273,42.99677551020409L44.76363636363636,43.084693877551025L41.199999999999996,43.39951020408163L37.636363636363626,43.81085714285714L34.072727272727285,44.21804081632653L30.509090909090922,44.44408163265307L26.945454545454556,44.79946938775511L23.38181818181819,45.05297959183674L19.818181818181824,45.211346938775506L16.25454545454546,46.07714285714286L12.690909090909095,46.74808163265306L9.12727272727273,47.54738775510204L5.563636363636365,49.04306122448979L2,50.17742857142857"></path></g></svg>