<svg meta="{&quot;DATA_PUBLISHED_DATE&quot;:&quot;2022-08-16&quot;,&quot;RENDER_DATE&quot;:&quot;2022-08-16&quot;,&quot;FIRST_DATE&quot;:&quot;2022-05-30&quot;,&quot;LAST_DATE&quot;:&quot;2022-07-24&quot;}" xmlns="http://www.w3.org/2000/svg" viewBox="0,0,200,100"><g transform="translate(0,0)"></g><g class="fg-bars death-date" fill="#00183f" stroke="none"><g><rect x="197" y="31.999999999999996" width="2" height="68" id="death-date-0"></rect></g><g><rect x="193.43636363636364" y="48" width="2" height="52" id="death-date-1"></rect></g><g><rect x="189.87272727272727" y="26" width="2" height="74" id="death-date-2"></rect></g><g><rect x="186.30909090909088" y="54" width="2" height="46" id="death-date-3"></rect></g><g><rect x="182.74545454545455" y="2.0000000000000018" width="2" height="98" id="death-date-4"></rect></g><g><rect x="179.1818181818182" y="18.000000000000004" width="2" height="82" id="death-date-5"></rect></g><g><rect x="175.61818181818182" y="21.999999999999996" width="2" height="78" id="death-date-6"></rect></g><g><rect x="172.05454545454546" y="18.000000000000004" width="2" height="82" id="death-date-7"></rect></g><g><rect x="168.49090909090907" y="38" width="2" height="62" id="death-date-8"></rect></g><g><rect x="164.92727272727274" y="26" width="2" height="74" id="death-date-9"></rect></g><g><rect x="161.36363636363637" y="28.000000000000004" width="2" height="72" id="death-date-10"></rect></g><g><rect x="157.8" y="38" width="2" height="62" id="death-date-11"></rect></g><g><rect x="154.23636363636365" y="18.000000000000004" width="2" height="82" id="death-date-12"></rect></g><g><rect x="150.6727272727273" y="30.000000000000004" width="2" height="70" id="death-date-13"></rect></g><g><rect x="147.1090909090909" y="34" width="2" height="66" id="death-date-14"></rect></g><g><rect x="143.54545454545453" y="16.000000000000004" width="2" height="84" id="death-date-15"></rect></g><g><rect x="139.9818181818182" y="2.0000000000000018" width="2" height="98" id="death-date-16"></rect></g><g><rect x="136.41818181818184" y="48" width="2" height="52" id="death-date-17"></rect></g><g><rect x="132.85454545454544" y="19.999999999999996" width="2" height="80" id="death-date-18"></rect></g><g><rect x="129.29090909090908" y="40" width="2" height="60" id="death-date-19"></rect></g><g><rect x="125.72727272727273" y="18.000000000000004" width="2" height="82" id="death-date-20"></rect></g><g><rect x="122.16363636363636" y="21.999999999999996" width="2" height="78" id="death-date-21"></rect></g><g><rect x="118.6" y="12" width="2" height="88" id="death-date-22"></rect></g><g><rect x="115.03636363636363" y="34" width="2" height="66" id="death-date-23"></rect></g><g><rect x="111.47272727272728" y="31.999999999999996" width="2" height="68" id="death-date-24"></rect></g><g><rect x="107.90909090909089" y="42.00000000000001" width="2" height="57.99999999999999" id="death-date-25"></rect></g><g><rect x="104.34545454545456" y="42.00000000000001" width="2" height="57.99999999999999" id="death-date-26"></rect></g><g><rect x="100.78181818181817" y="48" width="2" height="52" id="death-date-27"></rect></g><g><rect x="97.21818181818183" y="46" width="2" height="54" id="death-date-28"></rect></g><g><rect x="93.65454545454546" y="56.00000000000001" width="2" height="43.99999999999999" id="death-date-29"></rect></g><g><rect x="90.09090909090911" y="38" width="2" height="62" id="death-date-30"></rect></g><g><rect x="86.52727272727273" y="34" width="2" height="66" id="death-date-31"></rect></g><g><rect x="82.96363636363637" y="26" width="2" height="74" id="death-date-32"></rect></g><g><rect x="79.4" y="48" width="2" height="52" id="death-date-33"></rect></g><g><rect x="75.83636363636364" y="46" width="2" height="54" id="death-date-34"></rect></g><g><rect x="72.27272727272727" y="43.99999999999999" width="2" height="56.00000000000001" id="death-date-35"></rect></g><g><rect x="68.70909090909092" y="46" width="2" height="54" id="death-date-36"></rect></g><g><rect x="65.14545454545454" y="28.000000000000004" width="2" height="72" id="death-date-37"></rect></g><g><rect x="61.58181818181818" y="40" width="2" height="60" id="death-date-38"></rect></g><g><rect x="58.018181818181816" y="46" width="2" height="54" id="death-date-39"></rect></g><g><rect x="54.454545454545446" y="58.00000000000001" width="2" height="41.99999999999999" id="death-date-40"></rect></g><g><rect x="50.89090909090908" y="72" width="2" height="28" id="death-date-41"></rect></g><g><rect x="47.32727272727273" y="48" width="2" height="52" id="death-date-42"></rect></g><g><rect x="43.76363636363636" y="42.00000000000001" width="2" height="57.99999999999999" id="death-date-43"></rect></g><g><rect x="40.199999999999996" y="43.99999999999999" width="2" height="56.00000000000001" id="death-date-44"></rect></g><g><rect x="36.636363636363626" y="43.99999999999999" width="2" height="56.00000000000001" id="death-date-45"></rect></g><g><rect x="33.072727272727285" y="58.00000000000001" width="2" height="41.99999999999999" id="death-date-46"></rect></g><g><rect x="29.509090909090922" y="60" width="2" height="40" id="death-date-47"></rect></g><g><rect x="25.945454545454556" y="54" width="2" height="46" id="death-date-48"></rect></g><g><rect x="22.38181818181819" y="62" width="2" height="38" id="death-date-49"></rect></g><g><rect x="18.818181818181824" y="64" width="2" height="36" id="death-date-50"></rect></g><g><rect x="15.254545454545461" y="60" width="2" height="40" id="death-date-51"></rect></g><g><rect x="11.690909090909095" y="58.00000000000001" width="2" height="41.99999999999999" id="death-date-52"></rect></g><g><rect x="8.12727272727273" y="64" width="2" height="36" id="death-date-53"></rect></g><g><rect x="4.563636363636365" y="74" width="2" height="26" id="death-date-54"></rect></g><g><rect x="1" y="60" width="2" height="40" id="death-date-55"></rect></g></g><g class="fg-line death-date" fill="none" stroke="#92c5de" stroke-width="2" stroke-linecap="round"><path d="M198,28.857142857142858L194.43636363636364,26.857142857142858L190.87272727272727,25.428571428571434L187.30909090909088,25.428571428571434L183.74545454545455,21.714285714285708L180.1818181818182,26.857142857142858L176.61818181818182,26.857142857142858L173.05454545454546,28.000000000000004L169.49090909090907,30.285714285714292L165.92727272727274,27.142857142857135L162.36363636363637,23.714285714285708L158.8,26.57142857142857L155.23636363636365,24L151.6727272727273,27.142857142857135L148.1090909090909,25.428571428571434L144.54545454545453,23.714285714285708L140.9818181818182,23.142857142857142L137.41818181818184,27.714285714285715L133.85454545454544,25.428571428571434L130.29090909090908,28.57142857142857L126.72727272727273,28.857142857142858L123.16363636363636,33.14285714285714L119.6,36.57142857142857L116.03636363636363,42.85714285714285L112.47272727272728,43.42857142857143L108.90909090909089,43.714285714285715L105.34545454545456,41.42857142857142L101.78181818181817,42.285714285714285L98.21818181818183,42.00000000000001L94.65454545454546,41.714285714285715L91.09090909090911,40.28571428571428L87.52727272727273,38.857142857142854L83.96363636363637,39.714285714285715L80.4,42.57142857142857L76.83636363636364,43.99999999999999L73.27272727272727,47.71428571428572L69.70909090909092,48.285714285714285L66.14545454545454,47.71428571428572L62.58181818181818,50L59.018181818181816,50.57142857142857L55.454545454545446,52.28571428571429L51.89090909090908,52.57142857142857L48.32727272727273,50L44.76363636363636,52L41.199999999999996,55.14285714285714L37.636363636363626,57.42857142857143L34.072727272727285,59.42857142857143L30.509090909090922,60.285714285714285L26.945454545454556,62.28571428571428L23.38181818181819,63.142857142857146L19.818181818181824,61.142857142857146L16.25454545454546,60.857142857142854L12.690909090909095,61.71428571428572L9.12727272727273,64L5.563636363636365,63.42857142857143L2,59.42857142857143"></path></g></svg>