<svg meta="{&quot;DATA_PUBLISHED_DATE&quot;:&quot;2022-05-20&quot;,&quot;RENDER_DATE&quot;:&quot;2022-05-20&quot;,&quot;FIRST_DATE&quot;:&quot;2022-03-03&quot;,&quot;LAST_DATE&quot;:&quot;2022-04-27&quot;}" xmlns="http://www.w3.org/2000/svg" viewBox="0,0,200,100"><g transform="translate(0,0)"></g><g class="fg-bars death-date" fill="#00183f" stroke="none"><g><rect x="197" y="88.75" width="2" height="11.25" id="death-date-0"></rect></g><g><rect x="193.43636363636364" y="97.5" width="2" height="2.5" id="death-date-1"></rect></g><g><rect x="189.87272727272727" y="82.5" width="2" height="17.5" id="death-date-2"></rect></g><g><rect x="186.30909090909088" y="82.5" width="2" height="17.5" id="death-date-3"></rect></g><g><rect x="182.74545454545455" y="88.75" width="2" height="11.25" id="death-date-4"></rect></g><g><rect x="179.1818181818182" y="91.25" width="2" height="8.75" id="death-date-5"></rect></g><g><rect x="175.61818181818182" y="90" width="2" height="10" id="death-date-6"></rect></g><g><rect x="172.05454545454546" y="85" width="2" height="15" id="death-date-7"></rect></g><g><rect x="168.49090909090907" y="87.5" width="2" height="12.5" id="death-date-8"></rect></g><g><rect x="164.92727272727274" y="82.5" width="2" height="17.5" id="death-date-9"></rect></g><g><rect x="161.36363636363637" y="83.75" width="2" height="16.25" id="death-date-10"></rect></g><g><rect x="157.8" y="83.75" width="2" height="16.25" id="death-date-11"></rect></g><g><rect x="154.23636363636365" y="80" width="2" height="20" id="death-date-12"></rect></g><g><rect x="150.6727272727273" y="82.5" width="2" height="17.5" id="death-date-13"></rect></g><g><rect x="147.1090909090909" y="85" width="2" height="15" id="death-date-14"></rect></g><g><rect x="143.54545454545453" y="88.75" width="2" height="11.25" id="death-date-15"></rect></g><g><rect x="139.9818181818182" y="76.25" width="2" height="23.75" id="death-date-16"></rect></g><g><rect x="136.41818181818184" y="90" width="2" height="10" id="death-date-17"></rect></g><g><rect x="132.85454545454544" y="90" width="2" height="10" id="death-date-18"></rect></g><g><rect x="129.29090909090908" y="80" width="2" height="20" id="death-date-19"></rect></g><g><rect x="125.72727272727273" y="82.5" width="2" height="17.5" id="death-date-20"></rect></g><g><rect x="122.16363636363636" y="71.25" width="2" height="28.75" id="death-date-21"></rect></g><g><rect x="118.6" y="73.75" width="2" height="26.25" id="death-date-22"></rect></g><g><rect x="115.03636363636363" y="83.75" width="2" height="16.25" id="death-date-23"></rect></g><g><rect x="111.47272727272728" y="82.5" width="2" height="17.5" id="death-date-24"></rect></g><g><rect x="107.90909090909089" y="80" width="2" height="20" id="death-date-25"></rect></g><g><rect x="104.34545454545456" y="81.25" width="2" height="18.75" id="death-date-26"></rect></g><g><rect x="100.78181818181817" y="76.25" width="2" height="23.75" id="death-date-27"></rect></g><g><rect x="97.21818181818183" y="75" width="2" height="25" id="death-date-28"></rect></g><g><rect x="93.65454545454546" y="75" width="2" height="25" id="death-date-29"></rect></g><g><rect x="90.09090909090911" y="73.75" width="2" height="26.25" id="death-date-30"></rect></g><g><rect x="86.52727272727273" y="75" width="2" height="25" id="death-date-31"></rect></g><g><rect x="82.96363636363637" y="71.25" width="2" height="28.75" id="death-date-32"></rect></g><g><rect x="79.4" y="61.25000000000001" width="2" height="38.74999999999999" id="death-date-33"></rect></g><g><rect x="75.83636363636364" y="81.25" width="2" height="18.75" id="death-date-34"></rect></g><g><rect x="72.27272727272727" y="73.75" width="2" height="26.25" id="death-date-35"></rect></g><g><rect x="68.70909090909092" y="67.5" width="2" height="32.5" id="death-date-36"></rect></g><g><rect x="65.14545454545454" y="58.75" width="2" height="41.25" id="death-date-37"></rect></g><g><rect x="61.58181818181818" y="58.75" width="2" height="41.25" id="death-date-38"></rect></g><g><rect x="58.018181818181816" y="72.5" width="2" height="27.5" id="death-date-39"></rect></g><g><rect x="54.454545454545446" y="58.75" width="2" height="41.25" id="death-date-40"></rect></g><g><rect x="50.89090909090908" y="50" width="2" height="50" id="death-date-41"></rect></g><g><rect x="47.32727272727273" y="61.25000000000001" width="2" height="38.74999999999999" id="death-date-42"></rect></g><g><rect x="43.76363636363636" y="61.25000000000001" width="2" height="38.74999999999999" id="death-date-43"></rect></g><g><rect x="40.199999999999996" y="62.5" width="2" height="37.5" id="death-date-44"></rect></g><g><rect x="36.636363636363626" y="55.00000000000001" width="2" height="44.99999999999999" id="death-date-45"></rect></g><g><rect x="33.072727272727285" y="48.75000000000001" width="2" height="51.24999999999999" id="death-date-46"></rect></g><g><rect x="29.509090909090922" y="36.25000000000001" width="2" height="63.74999999999999" id="death-date-47"></rect></g><g><rect x="25.945454545454556" y="31.25" width="2" height="68.75" id="death-date-48"></rect></g><g><rect x="22.38181818181819" y="28.749999999999996" width="2" height="71.25" id="death-date-49"></rect></g><g><rect x="18.818181818181824" y="30.000000000000004" width="2" height="70" id="death-date-50"></rect></g><g><rect x="15.254545454545461" y="32.49999999999999" width="2" height="67.5" id="death-date-51"></rect></g><g><rect x="11.690909090909095" y="25" width="2" height="75" id="death-date-52"></rect></g><g><rect x="8.12727272727273" y="18.75" width="2" height="81.25" id="death-date-53"></rect></g><g><rect x="4.563636363636365" y="28.749999999999996" width="2" height="71.25" id="death-date-54"></rect></g><g><rect x="1" y="0" width="2" height="100" id="death-date-55"></rect></g></g><g class="fg-line death-date" fill="none" stroke="#92c5de" stroke-width="2" stroke-linecap="round"><path d="M198,88.75L194.43636363636364,88.21428571428571L190.87272727272727,86.78571428571429L187.30909090909088,86.78571428571429L183.74545454545455,86.96428571428572L180.1818181818182,86.25L176.61818181818182,84.64285714285714L173.05454545454546,83.57142857142857L169.49090909090907,83.57142857142857L165.92727272727274,83.75L162.36363636363637,82.85714285714285L158.8,83.75L155.23636363636365,84.64285714285714L151.6727272727273,84.64285714285714L148.1090909090909,84.64285714285714L144.54545454545453,82.67857142857142L140.9818181818182,80.53571428571429L137.41818181818184,81.60714285714286L133.85454545454544,80.53571428571429L130.29090909090908,79.10714285714285L126.72727272727273,79.28571428571428L123.16363636363636,78.39285714285714L119.6,78.92857142857143L116.03636363636363,79.10714285714285L112.47272727272728,77.67857142857143L108.90909090909089,76.60714285714285L105.34545454545456,75.35714285714286L101.78181818181817,72.5L98.21818181818183,73.21428571428572L94.65454545454546,73.03571428571428L91.09090909090911,71.96428571428571L87.52727272727273,69.82142857142857L83.96363636363637,67.5L80.4,67.67857142857143L76.83636363636364,67.32142857142858L73.27272727272727,62.857142857142854L69.70909090909092,61.07142857142858L66.14545454545454,60.17857142857142L62.58181818181818,60.71428571428572L59.018181818181816,60.17857142857142L55.454545454545446,56.785714285714285L51.89090909090908,53.57142857142857L48.32727272727273,50.89285714285714L44.76363636363636,46.25L41.199999999999996,41.78571428571429L37.636363636363626,37.5L34.072727272727285,33.21428571428571L30.509090909090922,28.928571428571438L26.945454545454556,27.857142857142858L23.38181818181819,23.39285714285715L19.818181818181824,22.32142857142857L16.25454545454546,17.85714285714286L12.690909090909095,12.678571428571427L9.12727272727273,10.71428571428571L5.563636363636365,7.499999999999996L2,0.8928571428571397"></path></g></svg>