<svg meta="{&quot;DATA_PUBLISHED_DATE&quot;:&quot;2022-05-31&quot;,&quot;RENDER_DATE&quot;:&quot;2022-05-31&quot;,&quot;FIRST_DATE&quot;:&quot;2022-03-29&quot;,&quot;LAST_DATE&quot;:&quot;2022-05-23&quot;}" xmlns="http://www.w3.org/2000/svg" viewBox="0,0,200,100"><g transform="translate(0,0)"></g><g class="fg-bars tests-vaccines" fill="#00183f" stroke="none"><g><rect x="197" y="38.71" width="2" height="61.29" id="tests-vaccines-0"></rect></g><g><rect x="193.43636363636364" y="78.11200000000001" width="2" height="21.88799999999999" id="tests-vaccines-1"></rect></g><g><rect x="189.87272727272727" y="59.921" width="2" height="40.079" id="tests-vaccines-2"></rect></g><g><rect x="186.30909090909088" y="25.197000000000003" width="2" height="74.803" id="tests-vaccines-3"></rect></g><g><rect x="182.74545454545455" y="40.278000000000006" width="2" height="59.721999999999994" id="tests-vaccines-4"></rect></g><g><rect x="179.1818181818182" y="43.157000000000004" width="2" height="56.842999999999996" id="tests-vaccines-5"></rect></g><g><rect x="175.61818181818182" y="44.99999999999999" width="2" height="55.00000000000001" id="tests-vaccines-6"></rect></g><g><rect x="172.05454545454546" y="45.156" width="2" height="54.844" id="tests-vaccines-7"></rect></g><g><rect x="168.49090909090907" y="82.729" width="2" height="17.271" id="tests-vaccines-8"></rect></g><g><rect x="164.92727272727274" y="66.451" width="2" height="33.54900000000001" id="tests-vaccines-9"></rect></g><g><rect x="161.36363636363637" y="30.916" width="2" height="69.084" id="tests-vaccines-10"></rect></g><g><rect x="157.8" y="39.766999999999996" width="2" height="60.233000000000004" id="tests-vaccines-11"></rect></g><g><rect x="154.23636363636365" y="40.433" width="2" height="59.567" id="tests-vaccines-12"></rect></g><g><rect x="150.6727272727273" y="44.102" width="2" height="55.898" id="tests-vaccines-13"></rect></g><g><rect x="147.1090909090909" y="44.818999999999996" width="2" height="55.181000000000004" id="tests-vaccines-14"></rect></g><g><rect x="143.54545454545453" y="87.247" width="2" height="12.753" id="tests-vaccines-15"></rect></g><g><rect x="139.9818181818182" y="69.69099999999999" width="2" height="30.30900000000001" id="tests-vaccines-16"></rect></g><g><rect x="136.41818181818184" y="31.569000000000003" width="2" height="68.431" id="tests-vaccines-17"></rect></g><g><rect x="132.85454545454544" y="41.147999999999996" width="2" height="58.852000000000004" id="tests-vaccines-18"></rect></g><g><rect x="129.29090909090908" y="41.213" width="2" height="58.787" id="tests-vaccines-19"></rect></g><g><rect x="125.72727272727273" y="41.637" width="2" height="58.363" id="tests-vaccines-20"></rect></g><g><rect x="122.16363636363636" y="41.791" width="2" height="58.209" id="tests-vaccines-21"></rect></g><g><rect x="118.6" y="82.114" width="2" height="17.885999999999996" id="tests-vaccines-22"></rect></g><g><rect x="115.03636363636363" y="65.38999999999999" width="2" height="34.610000000000014" id="tests-vaccines-23"></rect></g><g><rect x="111.47272727272728" y="23.733999999999998" width="2" height="76.266" id="tests-vaccines-24"></rect></g><g><rect x="107.90909090909089" y="33.909" width="2" height="66.09100000000001" id="tests-vaccines-25"></rect></g><g><rect x="104.34545454545456" y="34.378" width="2" height="65.622" id="tests-vaccines-26"></rect></g><g><rect x="100.78181818181817" y="35.598" width="2" height="64.402" id="tests-vaccines-27"></rect></g><g><rect x="97.21818181818183" y="36.034" width="2" height="63.966" id="tests-vaccines-28"></rect></g><g><rect x="93.65454545454546" y="81.192" width="2" height="18.808000000000007" id="tests-vaccines-29"></rect></g><g><rect x="90.09090909090911" y="62.501000000000005" width="2" height="37.498999999999995" id="tests-vaccines-30"></rect></g><g><rect x="86.52727272727273" y="35.693" width="2" height="64.307" id="tests-vaccines-31"></rect></g><g><rect x="82.96363636363637" y="28.979999999999993" width="2" height="71.02000000000001" id="tests-vaccines-32"></rect></g><g><rect x="79.4" y="27.890000000000004" width="2" height="72.11" id="tests-vaccines-33"></rect></g><g><rect x="75.83636363636364" y="24.338000000000005" width="2" height="75.66199999999999" id="tests-vaccines-34"></rect></g><g><rect x="72.27272727272727" y="24.241" width="2" height="75.759" id="tests-vaccines-35"></rect></g><g><rect x="68.70909090909092" y="89.927" width="2" height="10.072999999999993" id="tests-vaccines-36"></rect></g><g><rect x="65.14545454545454" y="60.112" width="2" height="39.888" id="tests-vaccines-37"></rect></g><g><rect x="61.58181818181818" y="14.008" width="2" height="85.992" id="tests-vaccines-38"></rect></g><g><rect x="58.018181818181816" y="20.969000000000005" width="2" height="79.03099999999999" id="tests-vaccines-39"></rect></g><g><rect x="54.454545454545446" y="18.945999999999998" width="2" height="81.054" id="tests-vaccines-40"></rect></g><g><rect x="50.89090909090908" y="15.115999999999996" width="2" height="84.884" id="tests-vaccines-41"></rect></g><g><rect x="47.32727272727273" y="17.903999999999996" width="2" height="82.096" id="tests-vaccines-42"></rect></g><g><rect x="43.76363636363636" y="72.997" width="2" height="27.003" id="tests-vaccines-43"></rect></g><g><rect x="40.199999999999996" y="52.96799999999999" width="2" height="47.03200000000001" id="tests-vaccines-44"></rect></g><g><rect x="36.636363636363626" y="7.245999999999997" width="2" height="92.754" id="tests-vaccines-45"></rect></g><g><rect x="33.072727272727285" y="19.076999999999998" width="2" height="80.923" id="tests-vaccines-46"></rect></g><g><rect x="29.509090909090922" y="19.477999999999994" width="2" height="80.522" id="tests-vaccines-47"></rect></g><g><rect x="25.945454545454556" y="18.65" width="2" height="81.35" id="tests-vaccines-48"></rect></g><g><rect x="22.38181818181819" y="17.861000000000004" width="2" height="82.139" id="tests-vaccines-49"></rect></g><g><rect x="18.818181818181824" y="71.30199999999999" width="2" height="28.698000000000008" id="tests-vaccines-50"></rect></g><g><rect x="15.254545454545461" y="50.212999999999994" width="2" height="49.787000000000006" id="tests-vaccines-51"></rect></g><g><rect x="11.690909090909095" y="7.3969999999999985" width="2" height="92.60300000000001" id="tests-vaccines-52"></rect></g><g><rect x="8.12727272727273" y="26.078000000000003" width="2" height="73.922" id="tests-vaccines-53"></rect></g><g><rect x="4.563636363636365" y="38.601" width="2" height="61.399" id="tests-vaccines-54"></rect></g><g><rect x="1" y="68.066" width="2" height="31.933999999999997" id="tests-vaccines-55"></rect></g></g><g class="fg-line tests-vaccines" fill="none" stroke="#92c5de" stroke-width="2" stroke-linecap="round"><path d="M198,47.19642857142857L194.43636363636364,48.11728571428572L190.87272727272727,48.776857142857146L187.30909090909088,49.70971428571428L183.74545454545455,50.52671428571428L180.1818181818182,50.45371428571428L176.61818181818182,50.064571428571426L173.05454545454546,49.936285714285724L169.49090909090907,49.88814285714286L165.92727272727274,50.53357142857142L162.36363636363637,50.99642857142857L158.8,51.08971428571428L155.23636363636365,51.28699999999999L151.6727272727273,51.39842857142858L148.1090909090909,51.04628571428571L144.54545454545453,50.61371428571428L140.9818181818182,49.88042857142857L137.41818181818184,49.266L133.85454545454544,48.14671428571429L130.29090909090908,47.11257142857143L126.72727272727273,46.13614285714286L123.16363636363636,45.273428571428575L119.6,44.45099999999999L116.03636363636363,44.31928571428572L112.47272727272728,43.906571428571425L108.90909090909089,45.61500000000001L105.34545454545456,44.91085714285714L101.78181818181817,43.984L98.21818181818183,42.37542857142857L94.65454545454546,40.69071428571428L91.09090909090911,41.93857142857142L87.52727272727273,41.59728571428572L83.96363636363637,38.499428571428574L80.4,37.355000000000004L76.83636363636364,36.07728571428572L73.27272727272727,34.75985714285714L69.70909090909092,33.85457142857143L66.14545454545454,31.435999999999996L62.58181818181818,30.41542857142856L59.018181818181816,29.44942857142856L55.454545454545446,29.17914285714286L51.89090909090908,29.255142857142857L48.32727272727273,29.759999999999998L44.76363636363636,29.753857142857143L41.199999999999996,29.511714285714284L37.636363636363626,29.11814285714286L34.072727272727285,29.13971428571429L30.509090909090922,30.13985714285714L26.945454545454556,32.87171428571429L23.38181818181819,39.93114285714285L19.818181818181824,47.94071428571428L16.25454545454546,50.59L12.690909090909095,54.91685714285715L9.12727272727273,62.830000000000005L5.563636363636365,69.23285714285714L2,73.69871428571429"></path></g></svg>