<svg viewBox="0,0,200,100"><g transform="translate(0,0)"></g><g class="fg-bars death-date"><g><rect x="200" y="7.272727272727275" width="2" height="92.72727272727272" id="death-date-0"></rect></g><g><rect x="196.36363636363637" y="29.09090909090909" width="2" height="70.9090909090909" id="death-date-1"></rect></g><g><rect x="192.72727272727272" y="18.181818181818176" width="2" height="81.81818181818183" id="death-date-2"></rect></g><g><rect x="189.0909090909091" y="19.999999999999996" width="2" height="80" id="death-date-3"></rect></g><g><rect x="185.45454545454544" y="25.454545454545453" width="2" height="74.54545454545455" id="death-date-4"></rect></g><g><rect x="181.8181818181818" y="19.999999999999996" width="2" height="80" id="death-date-5"></rect></g><g><rect x="178.1818181818182" y="26.363636363636367" width="2" height="73.63636363636363" id="death-date-6"></rect></g><g><rect x="174.54545454545456" y="6.36363636363636" width="2" height="93.63636363636364" id="death-date-7"></rect></g><g><rect x="170.9090909090909" y="5.454545454545457" width="2" height="94.54545454545455" id="death-date-8"></rect></g><g><rect x="167.27272727272728" y="35.45454545454545" width="2" height="64.54545454545455" id="death-date-9"></rect></g><g><rect x="163.63636363636363" y="36.36363636363637" width="2" height="63.63636363636363" id="death-date-10"></rect></g><g><rect x="160" y="2.7272727272727226" width="2" height="97.27272727272728" id="death-date-11"></rect></g><g><rect x="156.36363636363637" y="38.18181818181819" width="2" height="61.81818181818181" id="death-date-12"></rect></g><g><rect x="152.72727272727275" y="38.18181818181819" width="2" height="61.81818181818181" id="death-date-13"></rect></g><g><rect x="149.0909090909091" y="36.36363636363637" width="2" height="63.63636363636363" id="death-date-14"></rect></g><g><rect x="145.45454545454547" y="40" width="2" height="60" id="death-date-15"></rect></g><g><rect x="141.8181818181818" y="36.36363636363637" width="2" height="63.63636363636363" id="death-date-16"></rect></g><g><rect x="138.1818181818182" y="50.90909090909091" width="2" height="49.09090909090909" id="death-date-17"></rect></g><g><rect x="134.54545454545453" y="50" width="2" height="50" id="death-date-18"></rect></g><g><rect x="130.9090909090909" y="60" width="2" height="40" id="death-date-19"></rect></g><g><rect x="127.27272727272727" y="60" width="2" height="40" id="death-date-20"></rect></g><g><rect x="123.63636363636363" y="54.54545454545454" width="2" height="45.45454545454546" id="death-date-21"></rect></g><g><rect x="120" y="53.63636363636364" width="2" height="46.36363636363636" id="death-date-22"></rect></g><g><rect x="116.36363636363636" y="70.9090909090909" width="2" height="29.090909090909093" id="death-date-23"></rect></g><g><rect x="112.72727272727275" y="57.27272727272727" width="2" height="42.72727272727273" id="death-date-24"></rect></g><g><rect x="109.09090909090908" y="77.27272727272727" width="2" height="22.727272727272734" id="death-date-25"></rect></g><g><rect x="105.45454545454547" y="69.0909090909091" width="2" height="30.909090909090907" id="death-date-26"></rect></g><g><rect x="101.81818181818181" y="70.9090909090909" width="2" height="29.090909090909093" id="death-date-27"></rect></g><g><rect x="98.18181818181819" y="70.9090909090909" width="2" height="29.090909090909093" id="death-date-28"></rect></g><g><rect x="94.54545454545456" y="76.36363636363637" width="2" height="23.636363636363626" id="death-date-29"></rect></g><g><rect x="90.90909090909092" y="76.36363636363637" width="2" height="23.636363636363626" id="death-date-30"></rect></g><g><rect x="87.27272727272728" y="80" width="2" height="20" id="death-date-31"></rect></g><g><rect x="83.63636363636364" y="68.18181818181819" width="2" height="31.818181818181813" id="death-date-32"></rect></g><g><rect x="80" y="74.54545454545455" width="2" height="25.454545454545453" id="death-date-33"></rect></g><g><rect x="76.36363636363637" y="80.9090909090909" width="2" height="19.090909090909093" id="death-date-34"></rect></g><g><rect x="72.72727272727273" y="77.27272727272727" width="2" height="22.727272727272734" id="death-date-35"></rect></g><g><rect x="69.0909090909091" y="78.18181818181819" width="2" height="21.818181818181813" id="death-date-36"></rect></g><g><rect x="65.45454545454545" y="90.9090909090909" width="2" height="9.090909090909093" id="death-date-37"></rect></g><g><rect x="61.81818181818181" y="80.9090909090909" width="2" height="19.090909090909093" id="death-date-38"></rect></g><g><rect x="58.18181818181818" y="84.54545454545455" width="2" height="15.454545454545453" id="death-date-39"></rect></g><g><rect x="54.54545454545454" y="79.0909090909091" width="2" height="20.909090909090907" id="death-date-40"></rect></g><g><rect x="50.90909090909091" y="88.18181818181819" width="2" height="11.818181818181813" id="death-date-41"></rect></g><g><rect x="47.272727272727266" y="84.54545454545455" width="2" height="15.454545454545453" id="death-date-42"></rect></g><g><rect x="43.636363636363626" y="83.63636363636364" width="2" height="16.36363636363636" id="death-date-43"></rect></g><g><rect x="39.99999999999999" y="86.36363636363636" width="2" height="13.63636363636364" id="death-date-44"></rect></g><g><rect x="36.36363636363635" y="83.63636363636364" width="2" height="16.36363636363636" id="death-date-45"></rect></g><g><rect x="32.72727272727274" y="84.54545454545455" width="2" height="15.454545454545453" id="death-date-46"></rect></g><g><rect x="29.0909090909091" y="86.36363636363636" width="2" height="13.63636363636364" id="death-date-47"></rect></g><g><rect x="25.454545454545464" y="85.45454545454545" width="2" height="14.545454545454547" id="death-date-48"></rect></g><g><rect x="21.818181818181827" y="86.36363636363636" width="2" height="13.63636363636364" id="death-date-49"></rect></g><g><rect x="18.181818181818187" y="87.27272727272728" width="2" height="12.72727272727272" id="death-date-50"></rect></g><g><rect x="14.54545454545455" y="92.72727272727272" width="2" height="7.2727272727272805" id="death-date-51"></rect></g><g><rect x="10.909090909090914" y="88.18181818181819" width="2" height="11.818181818181813" id="death-date-52"></rect></g><g><rect x="7.272727272727275" y="87.27272727272728" width="2" height="12.72727272727272" id="death-date-53"></rect></g><g><rect x="3.6363636363636376" y="87.27272727272728" width="2" height="12.72727272727272" id="death-date-54"></rect></g><g><rect x="0" y="84.54545454545455" width="2" height="15.454545454545453" id="death-date-55"></rect></g></g><g class="fg-line death-date"><path d="M200,20.90909090909091L196.36363636363637,20.779220779220786L192.72727272727272,17.402597402597397L189.0909090909091,19.870129870129873L185.45454545454544,22.20779220779221L181.8181818181818,18.961038961038966L178.1818181818182,21.558441558441555L174.54545454545456,23.24675324675325L170.9090909090909,27.532467532467543L167.27272727272728,32.467532467532465L163.63636363636363,32.597402597402606L160,34.67532467532467L156.36363636363637,41.42857142857142L152.72727272727275,44.54545454545455L149.0909090909091,47.66233766233766L145.45454545454547,50.25974025974026L141.8181818181818,52.20779220779222L138.1818181818182,57.14285714285714L134.54545454545453,58.051948051948045L130.9090909090909,61.948051948051955L127.27272727272727,63.246753246753244L123.63636363636363,64.8051948051948L120,67.14285714285714L116.36363636363636,70.3896103896104L112.72727272727275,71.16883116883118L109.09090909090908,74.41558441558442L105.45454545454547,73.11688311688312L101.81818181818181,73.8961038961039L98.18181818181819,75.32467532467533L94.54545454545456,76.23376623376623L90.90909090909092,76.49350649350649L87.27272727272728,78.57142857142857L83.63636363636364,78.70129870129871L80,81.03896103896105L76.36363636363637,81.68831168831169L72.72727272727273,82.72727272727273L69.0909090909091,83.76623376623377L65.45454545454545,84.54545454545455L61.81818181818181,83.8961038961039L58.18181818181818,84.28571428571429L54.54545454545454,84.28571428571429L50.90909090909091,85.32467532467533L47.272727272727266,84.93506493506493L43.636363636363626,85.1948051948052L39.99999999999999,85.71428571428572L36.36363636363635,86.62337662337663L32.72727272727274,87.27272727272728L29.0909090909091,87.66233766233766L25.454545454545464,87.79220779220779L21.818181818181827,87.66233766233766L18.181818181818187,88.31168831168831L14.54545454545455,88.44155844155844L10.909090909090914,88.05194805194805L7.272727272727275,87.79220779220779L3.6363636363636376,88.18181818181819L0,88.57142857142857"></path></g></svg>