<svg meta="{&quot;DATA_PUBLISHED_DATE&quot;:&quot;2022-09-22&quot;,&quot;RENDER_DATE&quot;:&quot;2022-09-22&quot;,&quot;FIRST_DATE&quot;:&quot;2022-07-05&quot;,&quot;LAST_DATE&quot;:&quot;2022-08-29&quot;}" xmlns="http://www.w3.org/2000/svg" viewBox="0,0,200,100"><g transform="translate(0,0)"></g><g class="fg-bars death-date" fill="#00183f" stroke="none"><g><rect x="197" y="67.14285714285715" width="2" height="32.85714285714285" id="death-date-0"></rect></g><g><rect x="193.43636363636364" y="64.28571428571428" width="2" height="35.71428571428572" id="death-date-1"></rect></g><g><rect x="189.87272727272727" y="78.57142857142857" width="2" height="21.42857142857143" id="death-date-2"></rect></g><g><rect x="186.30909090909088" y="51.42857142857142" width="2" height="48.57142857142858" id="death-date-3"></rect></g><g><rect x="182.74545454545455" y="67.14285714285715" width="2" height="32.85714285714285" id="death-date-4"></rect></g><g><rect x="179.1818181818182" y="58.57142857142856" width="2" height="41.42857142857144" id="death-date-5"></rect></g><g><rect x="175.61818181818182" y="62.857142857142854" width="2" height="37.142857142857146" id="death-date-6"></rect></g><g><rect x="172.05454545454546" y="47.14285714285714" width="2" height="52.85714285714286" id="death-date-7"></rect></g><g><rect x="168.49090909090907" y="58.57142857142856" width="2" height="41.42857142857144" id="death-date-8"></rect></g><g><rect x="164.92727272727274" y="54.28571428571429" width="2" height="45.71428571428571" id="death-date-9"></rect></g><g><rect x="161.36363636363637" y="55.714285714285715" width="2" height="44.285714285714285" id="death-date-10"></rect></g><g><rect x="157.8" y="52.85714285714286" width="2" height="47.14285714285714" id="death-date-11"></rect></g><g><rect x="154.23636363636365" y="52.85714285714286" width="2" height="47.14285714285714" id="death-date-12"></rect></g><g><rect x="150.6727272727273" y="45.714285714285715" width="2" height="54.285714285714285" id="death-date-13"></rect></g><g><rect x="147.1090909090909" y="55.714285714285715" width="2" height="44.285714285714285" id="death-date-14"></rect></g><g><rect x="143.54545454545453" y="42.85714285714286" width="2" height="57.14285714285714" id="death-date-15"></rect></g><g><rect x="139.9818181818182" y="64.28571428571428" width="2" height="35.71428571428572" id="death-date-16"></rect></g><g><rect x="136.41818181818184" y="32.85714285714286" width="2" height="67.14285714285714" id="death-date-17"></rect></g><g><rect x="132.85454545454544" y="52.85714285714286" width="2" height="47.14285714285714" id="death-date-18"></rect></g><g><rect x="129.29090909090908" y="42.85714285714286" width="2" height="57.14285714285714" id="death-date-19"></rect></g><g><rect x="125.72727272727273" y="37.142857142857146" width="2" height="62.857142857142854" id="death-date-20"></rect></g><g><rect x="122.16363636363636" y="44.285714285714285" width="2" height="55.714285714285715" id="death-date-21"></rect></g><g><rect x="118.6" y="54.28571428571429" width="2" height="45.71428571428571" id="death-date-22"></rect></g><g><rect x="115.03636363636363" y="50" width="2" height="50" id="death-date-23"></rect></g><g><rect x="111.47272727272728" y="15.714285714285714" width="2" height="84.28571428571429" id="death-date-24"></rect></g><g><rect x="107.90909090909089" y="38.57142857142857" width="2" height="61.42857142857143" id="death-date-25"></rect></g><g><rect x="104.34545454545456" y="34.285714285714285" width="2" height="65.71428571428572" id="death-date-26"></rect></g><g><rect x="100.78181818181817" y="42.85714285714286" width="2" height="57.14285714285714" id="death-date-27"></rect></g><g><rect x="97.21818181818183" y="34.285714285714285" width="2" height="65.71428571428572" id="death-date-28"></rect></g><g><rect x="93.65454545454546" y="35.71428571428571" width="2" height="64.28571428571429" id="death-date-29"></rect></g><g><rect x="90.09090909090911" y="28.57142857142857" width="2" height="71.42857142857143" id="death-date-30"></rect></g><g><rect x="86.52727272727273" y="44.285714285714285" width="2" height="55.714285714285715" id="death-date-31"></rect></g><g><rect x="82.96363636363637" y="24.28571428571429" width="2" height="75.71428571428571" id="death-date-32"></rect></g><g><rect x="79.4" y="25.71428571428571" width="2" height="74.28571428571429" id="death-date-33"></rect></g><g><rect x="75.83636363636364" y="30.000000000000004" width="2" height="70" id="death-date-34"></rect></g><g><rect x="72.27272727272727" y="4.285714285714281" width="2" height="95.71428571428572" id="death-date-35"></rect></g><g><rect x="68.70909090909092" y="38.57142857142857" width="2" height="61.42857142857143" id="death-date-36"></rect></g><g><rect x="65.14545454545454" y="48.57142857142858" width="2" height="51.42857142857142" id="death-date-37"></rect></g><g><rect x="61.58181818181818" y="34.285714285714285" width="2" height="65.71428571428572" id="death-date-38"></rect></g><g><rect x="58.018181818181816" y="48.57142857142858" width="2" height="51.42857142857142" id="death-date-39"></rect></g><g><rect x="54.454545454545446" y="11.428571428571432" width="2" height="88.57142857142857" id="death-date-40"></rect></g><g><rect x="50.89090909090908" y="32.85714285714286" width="2" height="67.14285714285714" id="death-date-41"></rect></g><g><rect x="47.32727272727273" y="41.42857142857142" width="2" height="58.57142857142858" id="death-date-42"></rect></g><g><rect x="43.76363636363636" y="31.428571428571427" width="2" height="68.57142857142857" id="death-date-43"></rect></g><g><rect x="40.199999999999996" y="50" width="2" height="50" id="death-date-44"></rect></g><g><rect x="36.636363636363626" y="44.285714285714285" width="2" height="55.714285714285715" id="death-date-45"></rect></g><g><rect x="33.072727272727285" y="47.14285714285714" width="2" height="52.85714285714286" id="death-date-46"></rect></g><g><rect x="29.509090909090922" y="54.28571428571429" width="2" height="45.71428571428571" id="death-date-47"></rect></g><g><rect x="25.945454545454556" y="34.285714285714285" width="2" height="65.71428571428572" id="death-date-48"></rect></g><g><rect x="22.38181818181819" y="47.14285714285714" width="2" height="52.85714285714286" id="death-date-49"></rect></g><g><rect x="18.818181818181824" y="48.57142857142858" width="2" height="51.42857142857142" id="death-date-50"></rect></g><g><rect x="15.254545454545461" y="37.142857142857146" width="2" height="62.857142857142854" id="death-date-51"></rect></g><g><rect x="11.690909090909095" y="25.71428571428571" width="2" height="74.28571428571429" id="death-date-52"></rect></g><g><rect x="8.12727272727273" y="57.14285714285714" width="2" height="42.85714285714286" id="death-date-53"></rect></g><g><rect x="4.563636363636365" y="41.42857142857142" width="2" height="58.57142857142858" id="death-date-54"></rect></g><g><rect x="1" y="55.714285714285715" width="2" height="44.285714285714285" id="death-date-55"></rect></g></g><g class="fg-line death-date" fill="none" stroke="#92c5de" stroke-width="2" stroke-linecap="round"><path d="M198,64.28571428571428L194.43636363636364,61.42857142857143L190.87272727272727,60.61224489795918L187.30909090909088,57.14285714285714L183.74545454545455,57.75510204081633L180.1818181818182,55.714285714285715L176.61818181818182,54.897959183673464L173.05454545454546,52.44897959183674L169.49090909090907,53.673469387755105L165.92727272727274,51.42857142857142L162.36363636363637,52.85714285714286L158.8,49.591836734693885L155.23636363636365,49.591836734693885L151.6727272727273,48.16326530612245L148.1090909090909,46.93877551020408L144.54545454545453,45.30612244897959L140.9818181818182,46.93877551020408L137.41818181818184,44.89795918367348L133.85454545454544,42.44897959183673L130.29090909090908,40.408163265306115L126.72727272727273,39.183673469387756L123.16363636363636,40L119.6,38.57142857142857L116.03636363636363,35.91836734693879L112.47272727272728,32.85714285714286L108.90909090909089,36.93877551020408L105.34545454545456,34.89795918367348L101.78181818181817,33.6734693877551L98.21818181818183,31.836734693877546L94.65454545454546,27.55102040816326L91.09090909090911,27.95918367346939L87.52727272727273,30.816326530612237L83.96363636363637,29.387755102040813L80.4,32.85714285714286L76.83636363636364,30.816326530612237L73.27272727272727,31.224489795918366L69.70909090909092,36.53061224489795L66.14545454545454,35.510204081632644L62.58181818181818,35.71428571428571L59.018181818181816,37.142857142857146L55.454545454545446,36.93877551020408L51.89090909090908,43.061224489795926L48.32727272727273,43.265306122448976L44.76363636363636,44.08163265306122L41.199999999999996,46.53061224489795L37.636363636363626,44.693877551020414L34.072727272727285,42.04081632653062L30.509090909090922,43.46938775510204L26.945454545454556,41.63265306122449L23.38181818181819,44.693877551020414L19.818181818181824,43.46938775510204L16.25454545454546,42.04081632653062L12.690909090909095,41.63265306122449L9.12727272727273,45.10204081632653L5.563636363636365,44.08163265306122L2,46.326530612244895"></path></g></svg>