<svg meta="{&quot;DATA_PUBLISHED_DATE&quot;:&quot;2023-08-25&quot;,&quot;RENDER_DATE&quot;:&quot;2023-08-31&quot;,&quot;FIRST_DATE&quot;:&quot;2023-06-25&quot;,&quot;LAST_DATE&quot;:&quot;2023-08-19&quot;}" xmlns="http://www.w3.org/2000/svg" viewBox="0,0,200,100"><g transform="translate(0,0)"></g><g class="fg-bars hospitalizations-count" fill="#00183f" stroke="none"><g><rect x="197" y="10.124999999999995" width="2" height="89.875" id="hospitalizations-count-0"></rect></g><g><rect x="193.43636363636364" y="8.499999999999996" width="2" height="91.5" id="hospitalizations-count-1"></rect></g><g><rect x="189.87272727272727" y="7.374999999999998" width="2" height="92.625" id="hospitalizations-count-2"></rect></g><g><rect x="186.30909090909088" y="8.999999999999996" width="2" height="91" id="hospitalizations-count-3"></rect></g><g><rect x="182.74545454545455" y="9.562499999999996" width="2" height="90.4375" id="hospitalizations-count-4"></rect></g><g><rect x="179.1818181818182" y="12.5" width="2" height="87.5" id="hospitalizations-count-5"></rect></g><g><rect x="175.61818181818182" y="15.562500000000002" width="2" height="84.4375" id="hospitalizations-count-6"></rect></g><g><rect x="172.05454545454546" y="18.874999999999996" width="2" height="81.125" id="hospitalizations-count-7"></rect></g><g><rect x="168.49090909090907" y="21.062499999999996" width="2" height="78.9375" id="hospitalizations-count-8"></rect></g><g><rect x="164.92727272727274" y="21.375" width="2" height="78.625" id="hospitalizations-count-9"></rect></g><g><rect x="161.36363636363637" y="21.562499999999996" width="2" height="78.4375" id="hospitalizations-count-10"></rect></g><g><rect x="157.8" y="29.1875" width="2" height="70.8125" id="hospitalizations-count-11"></rect></g><g><rect x="154.23636363636365" y="25.875000000000004" width="2" height="74.125" id="hospitalizations-count-12"></rect></g><g><rect x="150.6727272727273" y="27.249999999999996" width="2" height="72.75" id="hospitalizations-count-13"></rect></g><g><rect x="147.1090909090909" y="31.874999999999996" width="2" height="68.125" id="hospitalizations-count-14"></rect></g><g><rect x="143.54545454545453" y="31.937499999999996" width="2" height="68.0625" id="hospitalizations-count-15"></rect></g><g><rect x="139.9818181818182" y="30.562500000000004" width="2" height="69.4375" id="hospitalizations-count-16"></rect></g><g><rect x="136.41818181818184" y="30.500000000000004" width="2" height="69.5" id="hospitalizations-count-17"></rect></g><g><rect x="132.85454545454544" y="32.62500000000001" width="2" height="67.375" id="hospitalizations-count-18"></rect></g><g><rect x="129.29090909090908" y="34.8125" width="2" height="65.1875" id="hospitalizations-count-19"></rect></g><g><rect x="125.72727272727273" y="36.375" width="2" height="63.625" id="hospitalizations-count-20"></rect></g><g><rect x="122.16363636363636" y="39.81249999999999" width="2" height="60.18750000000001" id="hospitalizations-count-21"></rect></g><g><rect x="118.6" y="39.0625" width="2" height="60.9375" id="hospitalizations-count-22"></rect></g><g><rect x="115.03636363636363" y="41.75" width="2" height="58.25" id="hospitalizations-count-23"></rect></g><g><rect x="111.47272727272728" y="46.1875" width="2" height="53.8125" id="hospitalizations-count-24"></rect></g><g><rect x="107.90909090909089" y="42.3125" width="2" height="57.6875" id="hospitalizations-count-25"></rect></g><g><rect x="104.34545454545456" y="45.25" width="2" height="54.75" id="hospitalizations-count-26"></rect></g><g><rect x="100.78181818181817" y="44.06250000000001" width="2" height="55.93749999999999" id="hospitalizations-count-27"></rect></g><g><rect x="97.21818181818183" y="45.9375" width="2" height="54.0625" id="hospitalizations-count-28"></rect></g><g><rect x="93.65454545454546" y="45.56249999999999" width="2" height="54.43750000000001" id="hospitalizations-count-29"></rect></g><g><rect x="90.09090909090911" y="46.3125" width="2" height="53.6875" id="hospitalizations-count-30"></rect></g><g><rect x="86.52727272727273" y="45.4375" width="2" height="54.5625" id="hospitalizations-count-31"></rect></g><g><rect x="82.96363636363637" y="43.75" width="2" height="56.25" id="hospitalizations-count-32"></rect></g><g><rect x="79.4" y="44.99999999999999" width="2" height="55.00000000000001" id="hospitalizations-count-33"></rect></g><g><rect x="75.83636363636364" y="44.8125" width="2" height="55.1875" id="hospitalizations-count-34"></rect></g><g><rect x="72.27272727272727" y="46.75" width="2" height="53.25" id="hospitalizations-count-35"></rect></g><g><rect x="68.70909090909092" y="46.4375" width="2" height="53.5625" id="hospitalizations-count-36"></rect></g><g><rect x="65.14545454545454" y="48.4375" width="2" height="51.5625" id="hospitalizations-count-37"></rect></g><g><rect x="61.58181818181818" y="42.6875" width="2" height="57.3125" id="hospitalizations-count-38"></rect></g><g><rect x="58.018181818181816" y="42.93749999999999" width="2" height="57.06250000000001" id="hospitalizations-count-39"></rect></g><g><rect x="54.454545454545446" y="46.875" width="2" height="53.125" id="hospitalizations-count-40"></rect></g><g><rect x="50.89090909090908" y="46.8125" width="2" height="53.1875" id="hospitalizations-count-41"></rect></g><g><rect x="47.32727272727273" y="49.3125" width="2" height="50.6875" id="hospitalizations-count-42"></rect></g><g><rect x="43.76363636363636" y="49" width="2" height="51" id="hospitalizations-count-43"></rect></g><g><rect x="40.199999999999996" y="49.125" width="2" height="50.875" id="hospitalizations-count-44"></rect></g><g><rect x="36.636363636363626" y="47.75" width="2" height="52.25" id="hospitalizations-count-45"></rect></g><g><rect x="33.072727272727285" y="57.43750000000001" width="2" height="42.56249999999999" id="hospitalizations-count-46"></rect></g><g><rect x="29.509090909090922" y="59.56250000000001" width="2" height="40.43749999999999" id="hospitalizations-count-47"></rect></g><g><rect x="25.945454545454556" y="64" width="2" height="36" id="hospitalizations-count-48"></rect></g><g><rect x="22.38181818181819" y="53.31250000000001" width="2" height="46.68749999999999" id="hospitalizations-count-49"></rect></g><g><rect x="18.818181818181824" y="53.0625" width="2" height="46.9375" id="hospitalizations-count-50"></rect></g><g><rect x="15.254545454545461" y="49.625" width="2" height="50.375" id="hospitalizations-count-51"></rect></g><g><rect x="11.690909090909095" y="49.375" width="2" height="50.625" id="hospitalizations-count-52"></rect></g><g><rect x="8.12727272727273" y="51.24999999999999" width="2" height="48.75000000000001" id="hospitalizations-count-53"></rect></g><g><rect x="4.563636363636365" y="50.5" width="2" height="49.5" id="hospitalizations-count-54"></rect></g><g><rect x="1" y="54.49999999999999" width="2" height="45.50000000000001" id="hospitalizations-count-55"></rect></g></g><g class="fg-line hospitalizations-count" fill="none" stroke="#92c5de" stroke-width="2" stroke-linecap="round"><path d="M198,10.375L194.43636363636364,11.624999999999996L190.87272727272727,13.419642857142867L187.30909090909088,15.419642857142858L183.74545454545455,17.214285714285705L180.1818181818182,20.017857142857142L176.61818181818182,21.92857142857143L173.05454545454546,23.598214285714292L169.49090909090907,25.45535714285714L165.92727272727274,27.00892857142857L162.36363636363637,28.321428571428562L158.8,29.5982142857143L155.23636363636365,30.089285714285708L151.6727272727273,31.36607142857143L148.1090909090909,32.66964285714287L144.54545454545453,33.80357142857143L140.9818181818182,34.82142857142857L137.41818181818184,36.419642857142854L133.85454545454544,38.660714285714285L130.29090909090908,40.044642857142854L126.72727272727273,41.535714285714285L123.16363636363636,42.63392857142857L119.6,43.50892857142858L116.03636363636363,44.4375L112.47272727272728,45.08928571428572L108.90909090909089,44.98214285714286L105.34545454545456,45.1875L101.78181818181817,45.15178571428572L98.21818181818183,45.25892857142857L94.65454545454546,45.375L91.09090909090911,45.49999999999999L87.52727272727273,45.80357142857143L83.96363636363637,45.410714285714285L80.4,45.294642857142854L76.83636363636364,45.56249999999999L73.27272727272727,45.848214285714285L69.70909090909092,46.21428571428572L66.14545454545454,46.580357142857146L62.58181818181818,46.67857142857144L59.018181818181816,47.401785714285715L55.454545454545446,49.473214285714285L51.89090909090908,51.28571428571429L48.32727272727273,53.74107142857143L44.76363636363636,54.31250000000001L41.199999999999996,54.892857142857146L37.636363636363626,54.96428571428571L34.072727272727285,55.19642857142857L30.509090909090922,54.31250000000001L26.945454545454556,53.01785714285714L23.38181818181819,51.660714285714285L19.818181818181824,51.32142857142856L16.25454545454546,50.80357142857144L12.690909090909095,51.00892857142857L9.12727272727273,50.919642857142854L5.563636363636365,50.63392857142857L2,49.82142857142857"></path></g></svg>