<svg meta="{&quot;DATA_PUBLISHED_DATE&quot;:&quot;2023-04-27&quot;,&quot;RENDER_DATE&quot;:&quot;2023-04-27&quot;,&quot;FIRST_DATE&quot;:&quot;2023-02-22&quot;,&quot;LAST_DATE&quot;:&quot;2023-04-18&quot;}" xmlns="http://www.w3.org/2000/svg" viewBox="0,0,200,100"><g transform="translate(0,0)"></g><g class="fg-bars cases-ep" fill="#00183f" stroke="none"><g><rect x="197" y="62.828571428571436" width="2" height="37.171428571428564" id="cases-ep-0"></rect></g><g><rect x="193.43636363636364" y="55.82857142857143" width="2" height="44.17142857142857" id="cases-ep-1"></rect></g><g><rect x="189.87272727272727" y="77.17142857142856" width="2" height="22.828571428571436" id="cases-ep-2"></rect></g><g><rect x="186.30909090909088" y="73.4857142857143" width="2" height="26.514285714285705" id="cases-ep-3"></rect></g><g><rect x="182.74545454545455" y="65.08571428571427" width="2" height="34.914285714285725" id="cases-ep-4"></rect></g><g><rect x="179.1818181818182" y="58.542857142857144" width="2" height="41.457142857142856" id="cases-ep-5"></rect></g><g><rect x="175.61818181818182" y="57.2" width="2" height="42.8" id="cases-ep-6"></rect></g><g><rect x="172.05454545454546" y="54.82857142857143" width="2" height="45.17142857142857" id="cases-ep-7"></rect></g><g><rect x="168.49090909090907" y="43.54285714285714" width="2" height="56.45714285714286" id="cases-ep-8"></rect></g><g><rect x="164.92727272727274" y="75" width="2" height="25" id="cases-ep-9"></rect></g><g><rect x="161.36363636363637" y="70.42857142857143" width="2" height="29.57142857142857" id="cases-ep-10"></rect></g><g><rect x="157.8" y="62.685714285714276" width="2" height="37.314285714285724" id="cases-ep-11"></rect></g><g><rect x="154.23636363636365" y="59.62857142857143" width="2" height="40.37142857142857" id="cases-ep-12"></rect></g><g><rect x="150.6727272727273" y="58.51428571428572" width="2" height="41.48571428571428" id="cases-ep-13"></rect></g><g><rect x="147.1090909090909" y="55.28571428571429" width="2" height="44.71428571428571" id="cases-ep-14"></rect></g><g><rect x="143.54545454545453" y="47.91428571428571" width="2" height="52.08571428571429" id="cases-ep-15"></rect></g><g><rect x="139.9818181818182" y="72.65714285714286" width="2" height="27.34285714285714" id="cases-ep-16"></rect></g><g><rect x="136.41818181818184" y="69.11428571428571" width="2" height="30.885714285714286" id="cases-ep-17"></rect></g><g><rect x="132.85454545454544" y="59.285714285714285" width="2" height="40.714285714285715" id="cases-ep-18"></rect></g><g><rect x="129.29090909090908" y="55.2" width="2" height="44.8" id="cases-ep-19"></rect></g><g><rect x="125.72727272727273" y="54.31428571428572" width="2" height="45.68571428571428" id="cases-ep-20"></rect></g><g><rect x="122.16363636363636" y="53.97142857142857" width="2" height="46.02857142857143" id="cases-ep-21"></rect></g><g><rect x="118.6" y="49.48571428571429" width="2" height="50.51428571428571" id="cases-ep-22"></rect></g><g><rect x="115.03636363636363" y="71.97142857142858" width="2" height="28.028571428571425" id="cases-ep-23"></rect></g><g><rect x="111.47272727272728" y="71.91428571428571" width="2" height="28.08571428571429" id="cases-ep-24"></rect></g><g><rect x="107.90909090909089" y="57.65714285714285" width="2" height="42.34285714285715" id="cases-ep-25"></rect></g><g><rect x="104.34545454545456" y="53.68571428571429" width="2" height="46.31428571428571" id="cases-ep-26"></rect></g><g><rect x="100.78181818181817" y="53.54285714285714" width="2" height="46.45714285714286" id="cases-ep-27"></rect></g><g><rect x="97.21818181818183" y="48.51428571428571" width="2" height="51.48571428571429" id="cases-ep-28"></rect></g><g><rect x="93.65454545454546" y="40.34285714285715" width="2" height="59.65714285714285" id="cases-ep-29"></rect></g><g><rect x="90.09090909090911" y="68.34285714285716" width="2" height="31.657142857142844" id="cases-ep-30"></rect></g><g><rect x="86.52727272727273" y="63.857142857142854" width="2" height="36.142857142857146" id="cases-ep-31"></rect></g><g><rect x="82.96363636363637" y="48.11428571428571" width="2" height="51.88571428571429" id="cases-ep-32"></rect></g><g><rect x="79.4" y="43.08571428571428" width="2" height="56.91428571428572" id="cases-ep-33"></rect></g><g><rect x="75.83636363636364" y="42.22857142857143" width="2" height="57.77142857142857" id="cases-ep-34"></rect></g><g><rect x="72.27272727272727" y="38.800000000000004" width="2" height="61.199999999999996" id="cases-ep-35"></rect></g><g><rect x="68.70909090909092" y="18.914285714285718" width="2" height="81.08571428571429" id="cases-ep-36"></rect></g><g><rect x="65.14545454545454" y="59.42857142857143" width="2" height="40.57142857142857" id="cases-ep-37"></rect></g><g><rect x="61.58181818181818" y="55.885714285714286" width="2" height="44.114285714285714" id="cases-ep-38"></rect></g><g><rect x="58.018181818181816" y="37.4" width="2" height="62.6" id="cases-ep-39"></rect></g><g><rect x="54.454545454545446" y="29.685714285714283" width="2" height="70.31428571428572" id="cases-ep-40"></rect></g><g><rect x="50.89090909090908" y="28.514285714285712" width="2" height="71.4857142857143" id="cases-ep-41"></rect></g><g><rect x="47.32727272727273" y="26.371428571428567" width="2" height="73.62857142857143" id="cases-ep-42"></rect></g><g><rect x="43.76363636363636" y="13.48571428571429" width="2" height="86.5142857142857" id="cases-ep-43"></rect></g><g><rect x="40.199999999999996" y="55.91428571428572" width="2" height="44.08571428571428" id="cases-ep-44"></rect></g><g><rect x="36.636363636363626" y="51.37142857142858" width="2" height="48.62857142857142" id="cases-ep-45"></rect></g><g><rect x="33.072727272727285" y="29.65714285714286" width="2" height="70.34285714285714" id="cases-ep-46"></rect></g><g><rect x="29.509090909090922" y="23.657142857142855" width="2" height="76.34285714285714" id="cases-ep-47"></rect></g><g><rect x="25.945454545454556" y="19.599999999999994" width="2" height="80.4" id="cases-ep-48"></rect></g><g><rect x="22.38181818181819" y="11.142857142857142" width="2" height="88.85714285714286" id="cases-ep-49"></rect></g><g><rect x="18.818181818181824" y="5.400000000000005" width="2" height="94.6" id="cases-ep-50"></rect></g><g><rect x="15.254545454545461" y="47.31428571428572" width="2" height="52.68571428571428" id="cases-ep-51"></rect></g><g><rect x="11.690909090909095" y="48.51428571428571" width="2" height="51.48571428571429" id="cases-ep-52"></rect></g><g><rect x="8.12727272727273" y="23.742857142857144" width="2" height="76.25714285714285" id="cases-ep-53"></rect></g><g><rect x="4.563636363636365" y="11.942857142857143" width="2" height="88.05714285714285" id="cases-ep-54"></rect></g><g><rect x="1" y="5.685714285714283" width="2" height="94.31428571428572" id="cases-ep-55"></rect></g></g><g class="fg-line cases-ep" fill="none" stroke="#92c5de" stroke-width="2" stroke-linecap="round"><path d="M198,64.3061224489796L194.43636363636364,63.163265306122454L190.87272727272727,61.408163265306115L187.30909090909088,61.09795918367347L183.74545454545455,60.66122448979592L180.1818181818182,60.31836734693877L176.61818181818182,60.47346938775511L173.05454545454546,60.66122448979592L169.49090909090907,60.726530612244886L165.92727272727274,61.35102040816327L162.36363636363637,61.01632653061224L158.8,60.82857142857143L155.23636363636365,60.34285714285714L151.6727272727273,59.710204081632654L148.1090909090909,59.11020408163266L144.54545454545453,58.922448979591834L140.9818181818182,59.14693877551021L137.41818181818184,59.04897959183673L133.85454545454544,59.44897959183674L130.29090909090908,59.21632653061224L126.72727272727273,59.00000000000001L123.16363636363636,58.88979591836734L119.6,58.11020408163265L116.03636363636363,56.80408163265306L112.47272727272728,56.285714285714285L108.90909090909089,55.13469387755102L105.34545454545456,53.77142857142857L101.78181818181817,52.25714285714286L98.21818181818183,50.64081632653061L94.65454545454546,49.25306122448979L91.09090909090911,46.19183673469388L87.52727272727273,44.91836734693877L83.96363636363637,43.77959183673469L80.4,42.24897959183673L76.83636363636364,40.33469387755102L73.27272727272727,38.37551020408164L69.70909090909092,36.6L66.14545454545454,35.82448979591836L62.58181818181818,35.32244897959183L59.018181818181816,34.677551020408174L55.454545454545446,33.57142857142858L51.89090909090908,32.71020408163265L48.32727272727273,31.436734693877543L44.76363636363636,29.26122448979592L41.199999999999996,28.106122448979598L37.636363636363626,26.877551020408163L34.072727272727285,26.469387755102048L30.509090909090922,25.624489795918358L26.945454545454556,23.95102040816326L23.38181818181819,21.963265306122448L19.818181818181824,18.502040816326527L16.25454545454546,19.616326530612238L12.690909090909095,18.763265306122456L9.12727272727273,17.800000000000004L5.563636363636365,16.812244897959182L2,16.689795918367356"></path></g></svg>