<svg meta="{&quot;DATA_PUBLISHED_DATE&quot;:&quot;2022-07-26&quot;,&quot;RENDER_DATE&quot;:&quot;2022-07-26&quot;,&quot;FIRST_DATE&quot;:&quot;2022-05-09&quot;,&quot;LAST_DATE&quot;:&quot;2022-07-03&quot;}" xmlns="http://www.w3.org/2000/svg" viewBox="0,0,200,100"><g transform="translate(0,0)"></g><g class="fg-bars death-date" fill="#00183f" stroke="none"><g><rect x="197" y="22.499999999999996" width="2" height="77.5" id="death-date-0"></rect></g><g><rect x="193.43636363636364" y="7.499999999999996" width="2" height="92.5" id="death-date-1"></rect></g><g><rect x="189.87272727272727" y="40" width="2" height="60" id="death-date-2"></rect></g><g><rect x="186.30909090909088" y="44.99999999999999" width="2" height="55.00000000000001" id="death-date-3"></rect></g><g><rect x="182.74545454545455" y="40" width="2" height="60" id="death-date-4"></rect></g><g><rect x="179.1818181818182" y="32.49999999999999" width="2" height="67.5" id="death-date-5"></rect></g><g><rect x="175.61818181818182" y="37.5" width="2" height="62.5" id="death-date-6"></rect></g><g><rect x="172.05454545454546" y="37.5" width="2" height="62.5" id="death-date-7"></rect></g><g><rect x="168.49090909090907" y="55.00000000000001" width="2" height="44.99999999999999" id="death-date-8"></rect></g><g><rect x="164.92727272727274" y="32.49999999999999" width="2" height="67.5" id="death-date-9"></rect></g><g><rect x="161.36363636363637" y="25" width="2" height="75" id="death-date-10"></rect></g><g><rect x="157.8" y="22.499999999999996" width="2" height="77.5" id="death-date-11"></rect></g><g><rect x="154.23636363636365" y="37.5" width="2" height="62.5" id="death-date-12"></rect></g><g><rect x="150.6727272727273" y="40" width="2" height="60" id="death-date-13"></rect></g><g><rect x="147.1090909090909" y="37.5" width="2" height="62.5" id="death-date-14"></rect></g><g><rect x="143.54545454545453" y="40" width="2" height="60" id="death-date-15"></rect></g><g><rect x="139.9818181818182" y="25" width="2" height="75" id="death-date-16"></rect></g><g><rect x="136.41818181818184" y="25" width="2" height="75" id="death-date-17"></rect></g><g><rect x="132.85454545454544" y="37.5" width="2" height="62.5" id="death-date-18"></rect></g><g><rect x="129.29090909090908" y="47.5" width="2" height="52.5" id="death-date-19"></rect></g><g><rect x="125.72727272727273" y="65" width="2" height="35" id="death-date-20"></rect></g><g><rect x="122.16363636363636" y="37.5" width="2" height="62.5" id="death-date-21"></rect></g><g><rect x="118.6" y="30.000000000000004" width="2" height="70" id="death-date-22"></rect></g><g><rect x="115.03636363636363" y="32.49999999999999" width="2" height="67.5" id="death-date-23"></rect></g><g><rect x="111.47272727272728" y="32.49999999999999" width="2" height="67.5" id="death-date-24"></rect></g><g><rect x="107.90909090909089" y="52.5" width="2" height="47.5" id="death-date-25"></rect></g><g><rect x="104.34545454545456" y="55.00000000000001" width="2" height="44.99999999999999" id="death-date-26"></rect></g><g><rect x="100.78181818181817" y="42.50000000000001" width="2" height="57.49999999999999" id="death-date-27"></rect></g><g><rect x="97.21818181818183" y="52.5" width="2" height="47.5" id="death-date-28"></rect></g><g><rect x="93.65454545454546" y="57.49999999999999" width="2" height="42.50000000000001" id="death-date-29"></rect></g><g><rect x="90.09090909090911" y="50" width="2" height="50" id="death-date-30"></rect></g><g><rect x="86.52727272727273" y="47.5" width="2" height="52.5" id="death-date-31"></rect></g><g><rect x="82.96363636363637" y="57.49999999999999" width="2" height="42.50000000000001" id="death-date-32"></rect></g><g><rect x="79.4" y="70" width="2" height="30" id="death-date-33"></rect></g><g><rect x="75.83636363636364" y="52.5" width="2" height="47.5" id="death-date-34"></rect></g><g><rect x="72.27272727272727" y="37.5" width="2" height="62.5" id="death-date-35"></rect></g><g><rect x="68.70909090909092" y="55.00000000000001" width="2" height="44.99999999999999" id="death-date-36"></rect></g><g><rect x="65.14545454545454" y="60" width="2" height="40" id="death-date-37"></rect></g><g><rect x="61.58181818181818" y="67.5" width="2" height="32.5" id="death-date-38"></rect></g><g><rect x="58.018181818181816" y="55.00000000000001" width="2" height="44.99999999999999" id="death-date-39"></rect></g><g><rect x="54.454545454545446" y="32.49999999999999" width="2" height="67.5" id="death-date-40"></rect></g><g><rect x="50.89090909090908" y="67.5" width="2" height="32.5" id="death-date-41"></rect></g><g><rect x="47.32727272727273" y="65" width="2" height="35" id="death-date-42"></rect></g><g><rect x="43.76363636363636" y="50" width="2" height="50" id="death-date-43"></rect></g><g><rect x="40.199999999999996" y="55.00000000000001" width="2" height="44.99999999999999" id="death-date-44"></rect></g><g><rect x="36.636363636363626" y="57.49999999999999" width="2" height="42.50000000000001" id="death-date-45"></rect></g><g><rect x="33.072727272727285" y="57.49999999999999" width="2" height="42.50000000000001" id="death-date-46"></rect></g><g><rect x="29.509090909090922" y="65" width="2" height="35" id="death-date-47"></rect></g><g><rect x="25.945454545454556" y="72.5" width="2" height="27.5" id="death-date-48"></rect></g><g><rect x="22.38181818181819" y="32.49999999999999" width="2" height="67.5" id="death-date-49"></rect></g><g><rect x="18.818181818181824" y="57.49999999999999" width="2" height="42.50000000000001" id="death-date-50"></rect></g><g><rect x="15.254545454545461" y="50" width="2" height="50" id="death-date-51"></rect></g><g><rect x="11.690909090909095" y="75" width="2" height="25" id="death-date-52"></rect></g><g><rect x="8.12727272727273" y="75" width="2" height="25" id="death-date-53"></rect></g><g><rect x="4.563636363636365" y="50" width="2" height="50" id="death-date-54"></rect></g><g><rect x="1" y="70" width="2" height="30" id="death-date-55"></rect></g></g><g class="fg-line death-date" fill="none" stroke="#92c5de" stroke-width="2" stroke-linecap="round"><path d="M198,32.14285714285714L194.43636363636364,34.285714285714285L190.87272727272727,41.07142857142857L187.30909090909088,40L183.74545454545455,37.142857142857146L180.1818181818182,34.64285714285714L176.61818181818182,35.357142857142854L173.05454545454546,35.71428571428571L169.49090909090907,35.71428571428571L165.92727272727274,33.57142857142856L162.36363636363637,32.49999999999999L158.8,32.49999999999999L155.23636363636365,34.64285714285714L151.6727272727273,36.07142857142856L148.1090909090909,39.642857142857146L144.54545454545453,39.642857142857146L140.9818181818182,38.21428571428571L137.41818181818184,39.28571428571429L133.85454545454544,40.35714285714286L130.29090909090908,42.50000000000001L126.72727272727273,43.57142857142857L123.16363636363636,40.35714285714286L119.6,42.50000000000001L116.03636363636363,46.42857142857143L112.47272727272728,48.92857142857143L108.90909090909089,51.07142857142857L105.34545454545456,51.78571428571429L101.78181818181817,53.92857142857144L98.21818181818183,55.35714285714286L94.65454545454546,53.214285714285715L91.09090909090911,52.85714285714286L87.52727272727273,54.28571428571429L83.96363636363637,57.14285714285714L80.4,56.785714285714285L76.83636363636364,51.42857142857144L73.27272727272727,53.57142857142857L69.70909090909092,57.49999999999999L66.14545454545454,56.785714285714285L62.58181818181818,56.07142857142857L59.018181818181816,54.642857142857146L55.454545454545446,55.00000000000001L51.89090909090908,59.64285714285714L48.32727272727273,60.357142857142854L44.76363636363636,55.714285714285715L41.199999999999996,56.785714285714285L37.636363636363626,56.07142857142857L34.072727272727285,58.57142857142856L30.509090909090922,61.07142857142858L26.945454545454556,58.92857142857143L23.38181818181819,58.57142857142856L19.818181818181824,62.142857142857146L16.25454545454546,64.64285714285715L12.690909090909095,67.14285714285715L9.12727272727273,68.57142857142857L5.563636363636365,68.21428571428572L2,72.14285714285714"></path></g></svg>