<svg meta="{&quot;DATA_PUBLISHED_DATE&quot;:&quot;2023-10-20&quot;,&quot;RENDER_DATE&quot;:&quot;2023-10-20&quot;,&quot;FIRST_DATE&quot;:&quot;2023-08-20&quot;,&quot;LAST_DATE&quot;:&quot;2023-10-14&quot;}" xmlns="http://www.w3.org/2000/svg" viewBox="0,0,200,100"><g transform="translate(0,0)"></g><g class="fg-bars admissions-count" fill="#00183f" stroke="none"><g><rect x="197" y="54.2" width="2" height="45.8" id="admissions-count-0"></rect></g><g><rect x="193.43636363636364" y="53.2" width="2" height="46.8" id="admissions-count-1"></rect></g><g><rect x="189.87272727272727" y="45.8" width="2" height="54.2" id="admissions-count-2"></rect></g><g><rect x="186.30909090909088" y="50" width="2" height="50" id="admissions-count-3"></rect></g><g><rect x="182.74545454545455" y="50.2" width="2" height="49.8" id="admissions-count-4"></rect></g><g><rect x="179.1818181818182" y="56.60000000000001" width="2" height="43.39999999999999" id="admissions-count-5"></rect></g><g><rect x="175.61818181818182" y="42.2" width="2" height="57.8" id="admissions-count-6"></rect></g><g><rect x="172.05454545454546" y="47.8" width="2" height="52.2" id="admissions-count-7"></rect></g><g><rect x="168.49090909090907" y="34.199999999999996" width="2" height="65.80000000000001" id="admissions-count-8"></rect></g><g><rect x="164.92727272727274" y="42.400000000000006" width="2" height="57.599999999999994" id="admissions-count-9"></rect></g><g><rect x="161.36363636363637" y="46" width="2" height="54" id="admissions-count-10"></rect></g><g><rect x="157.8" y="30.600000000000005" width="2" height="69.39999999999999" id="admissions-count-11"></rect></g><g><rect x="154.23636363636365" y="55.2" width="2" height="44.8" id="admissions-count-12"></rect></g><g><rect x="150.6727272727273" y="44.199999999999996" width="2" height="55.800000000000004" id="admissions-count-13"></rect></g><g><rect x="147.1090909090909" y="40.800000000000004" width="2" height="59.199999999999996" id="admissions-count-14"></rect></g><g><rect x="143.54545454545453" y="41" width="2" height="59" id="admissions-count-15"></rect></g><g><rect x="139.9818181818182" y="38.800000000000004" width="2" height="61.199999999999996" id="admissions-count-16"></rect></g><g><rect x="136.41818181818184" y="27.6" width="2" height="72.4" id="admissions-count-17"></rect></g><g><rect x="132.85454545454544" y="34.599999999999994" width="2" height="65.4" id="admissions-count-18"></rect></g><g><rect x="129.29090909090908" y="33.199999999999996" width="2" height="66.80000000000001" id="admissions-count-19"></rect></g><g><rect x="125.72727272727273" y="41" width="2" height="59" id="admissions-count-20"></rect></g><g><rect x="122.16363636363636" y="34.599999999999994" width="2" height="65.4" id="admissions-count-21"></rect></g><g><rect x="118.6" y="25.2" width="2" height="74.8" id="admissions-count-22"></rect></g><g><rect x="115.03636363636363" y="32.199999999999996" width="2" height="67.80000000000001" id="admissions-count-23"></rect></g><g><rect x="111.47272727272728" y="26.400000000000002" width="2" height="73.6" id="admissions-count-24"></rect></g><g><rect x="107.90909090909089" y="20.799999999999997" width="2" height="79.2" id="admissions-count-25"></rect></g><g><rect x="104.34545454545456" y="28.200000000000003" width="2" height="71.8" id="admissions-count-26"></rect></g><g><rect x="100.78181818181817" y="23.4" width="2" height="76.6" id="admissions-count-27"></rect></g><g><rect x="97.21818181818183" y="31.599999999999994" width="2" height="68.4" id="admissions-count-28"></rect></g><g><rect x="93.65454545454546" y="20.399999999999995" width="2" height="79.60000000000001" id="admissions-count-29"></rect></g><g><rect x="90.09090909090911" y="17.200000000000003" width="2" height="82.8" id="admissions-count-30"></rect></g><g><rect x="86.52727272727273" y="15.800000000000002" width="2" height="84.2" id="admissions-count-31"></rect></g><g><rect x="82.96363636363637" y="18.000000000000004" width="2" height="82" id="admissions-count-32"></rect></g><g><rect x="79.4" y="32.599999999999994" width="2" height="67.4" id="admissions-count-33"></rect></g><g><rect x="75.83636363636364" y="26.200000000000003" width="2" height="73.8" id="admissions-count-34"></rect></g><g><rect x="72.27272727272727" y="16.800000000000004" width="2" height="83.19999999999999" id="admissions-count-35"></rect></g><g><rect x="68.70909090909092" y="20.999999999999996" width="2" height="79" id="admissions-count-36"></rect></g><g><rect x="65.14545454545454" y="10.399999999999999" width="2" height="89.6" id="admissions-count-37"></rect></g><g><rect x="61.58181818181818" y="10.799999999999999" width="2" height="89.2" id="admissions-count-38"></rect></g><g><rect x="58.018181818181816" y="26.6" width="2" height="73.4" id="admissions-count-39"></rect></g><g><rect x="54.454545454545446" y="27.800000000000004" width="2" height="72.19999999999999" id="admissions-count-40"></rect></g><g><rect x="50.89090909090908" y="17.200000000000003" width="2" height="82.8" id="admissions-count-41"></rect></g><g><rect x="47.32727272727273" y="22.199999999999996" width="2" height="77.80000000000001" id="admissions-count-42"></rect></g><g><rect x="43.76363636363636" y="20.999999999999996" width="2" height="79" id="admissions-count-43"></rect></g><g><rect x="40.199999999999996" y="14.800000000000002" width="2" height="85.2" id="admissions-count-44"></rect></g><g><rect x="36.636363636363626" y="9.399999999999997" width="2" height="90.60000000000001" id="admissions-count-45"></rect></g><g><rect x="33.072727272727285" y="13.600000000000001" width="2" height="86.4" id="admissions-count-46"></rect></g><g><rect x="29.509090909090922" y="31.200000000000006" width="2" height="68.8" id="admissions-count-47"></rect></g><g><rect x="25.945454545454556" y="28.800000000000004" width="2" height="71.19999999999999" id="admissions-count-48"></rect></g><g><rect x="22.38181818181819" y="22.599999999999998" width="2" height="77.4" id="admissions-count-49"></rect></g><g><rect x="18.818181818181824" y="12.8" width="2" height="87.2" id="admissions-count-50"></rect></g><g><rect x="15.254545454545461" y="22.4" width="2" height="77.6" id="admissions-count-51"></rect></g><g><rect x="11.690909090909095" y="20.999999999999996" width="2" height="79" id="admissions-count-52"></rect></g><g><rect x="8.12727272727273" y="19.399999999999995" width="2" height="80.60000000000001" id="admissions-count-53"></rect></g><g><rect x="4.563636363636365" y="38.6" width="2" height="61.4" id="admissions-count-54"></rect></g><g><rect x="1" y="32.8" width="2" height="67.2" id="admissions-count-55"></rect></g></g><g class="fg-line admissions-count" fill="none" stroke="#92c5de" stroke-width="2" stroke-linecap="round"><path d="M198,50.31428571428571L194.43636363636364,49.4L190.87272727272727,46.68571428571428L187.30909090909088,46.199999999999996L183.74545454545455,45.628571428571426L180.1818181818182,42.828571428571436L176.61818181818182,42.62857142857144L173.05454545454546,42.91428571428572L169.49090909090907,41.91428571428572L165.92727272727274,42.88571428571429L162.36363636363637,42.371428571428574L158.8,39.74285714285715L155.23636363636365,40.31428571428572L151.6727272727273,37.171428571428564L148.1090909090909,36.71428571428571L144.54545454545453,35.82857142857143L140.9818181818182,33.57142857142856L137.41818181818184,32.628571428571426L133.85454545454544,32.45714285714285L130.29090909090908,30.485714285714295L126.72727272727273,29.771428571428572L123.16363636363636,27.257142857142856L119.6,26.828571428571436L116.03636363636363,26.142857142857146L112.47272727272728,24L108.90909090909089,22.485714285714288L105.34545454545456,22.085714285714285L101.78181818181817,22.714285714285708L98.21818181818183,23.11428571428571L94.65454545454546,20.999999999999996L91.09090909090911,21.085714285714285L87.52727272727273,20.114285714285707L83.96363636363637,19.399999999999995L80.4,20.62857142857143L76.83636363636364,19.94285714285714L73.27272727272727,18.657142857142862L69.70909090909092,19.428571428571427L66.14545454545454,19.428571428571427L62.58181818181818,20.05714285714285L59.018181818181816,19.85714285714285L55.454545454545446,18.000000000000004L51.89090909090908,18.485714285714295L48.32727272727273,20.14285714285714L44.76363636363636,20.199999999999996L41.199999999999996,19.02857142857143L37.636363636363626,20.114285714285707L34.072727272727285,21.771428571428565L30.509090909090922,22.599999999999998L26.945454545454556,23.657142857142855L23.38181818181819,24.22857142857143L19.818181818181824,26.057142857142857L16.25454545454546,29.000000000000004L12.690909090909095,29.885714285714293L9.12727272727273,30.34285714285715L5.563636363636365,31.25714285714285L2,30.571428571428573"></path></g></svg>