<svg about="DATA_PUBLISHED_DATE:2021-11-30,RENDER_DATE:2021-11-30" xmlns="http://www.w3.org/2000/svg" viewBox="0,0,200,100"><g transform="translate(0,0)"></g><g class="fg-bars cases-ep" fill="#00183f" stroke="none"><g><rect x="197" y="73.2875" width="2" height="26.712500000000006" id="cases-ep-0"></rect></g><g><rect x="193.43636363636364" y="67.85" width="2" height="32.150000000000006" id="cases-ep-1"></rect></g><g><rect x="189.87272727272727" y="50.0875" width="2" height="49.9125" id="cases-ep-2"></rect></g><g><rect x="186.30909090909088" y="48.025" width="2" height="51.975" id="cases-ep-3"></rect></g><g><rect x="182.74545454545455" y="41.1875" width="2" height="58.8125" id="cases-ep-4"></rect></g><g><rect x="179.1818181818182" y="37.150000000000006" width="2" height="62.849999999999994" id="cases-ep-5"></rect></g><g><rect x="175.61818181818182" y="23.787499999999994" width="2" height="76.2125" id="cases-ep-6"></rect></g><g><rect x="172.05454545454546" y="61.55" width="2" height="38.45" id="cases-ep-7"></rect></g><g><rect x="168.49090909090907" y="58.25" width="2" height="41.75" id="cases-ep-8"></rect></g><g><rect x="164.92727272727274" y="38.1375" width="2" height="61.8625" id="cases-ep-9"></rect></g><g><rect x="161.36363636363637" y="46.8" width="2" height="53.2" id="cases-ep-10"></rect></g><g><rect x="157.8" y="30.912499999999998" width="2" height="69.0875" id="cases-ep-11"></rect></g><g><rect x="154.23636363636365" y="27.5875" width="2" height="72.4125" id="cases-ep-12"></rect></g><g><rect x="150.6727272727273" y="18.2125" width="2" height="81.7875" id="cases-ep-13"></rect></g><g><rect x="147.1090909090909" y="57.675" width="2" height="42.325" id="cases-ep-14"></rect></g><g><rect x="143.54545454545453" y="54.93749999999999" width="2" height="45.06250000000001" id="cases-ep-15"></rect></g><g><rect x="139.9818181818182" y="31.562500000000004" width="2" height="68.4375" id="cases-ep-16"></rect></g><g><rect x="136.41818181818184" y="25.512500000000003" width="2" height="74.4875" id="cases-ep-17"></rect></g><g><rect x="132.85454545454544" y="21.1125" width="2" height="78.8875" id="cases-ep-18"></rect></g><g><rect x="129.29090909090908" y="20.137499999999996" width="2" height="79.86250000000001" id="cases-ep-19"></rect></g><g><rect x="125.72727272727273" y="9.012500000000001" width="2" height="90.9875" id="cases-ep-20"></rect></g><g><rect x="122.16363636363636" y="56.837500000000006" width="2" height="43.162499999999994" id="cases-ep-21"></rect></g><g><rect x="118.6" y="51.17499999999999" width="2" height="48.82500000000001" id="cases-ep-22"></rect></g><g><rect x="115.03636363636363" y="30.200000000000003" width="2" height="69.8" id="cases-ep-23"></rect></g><g><rect x="111.47272727272728" y="24.850000000000005" width="2" height="75.14999999999999" id="cases-ep-24"></rect></g><g><rect x="107.90909090909089" y="18.899999999999995" width="2" height="81.10000000000001" id="cases-ep-25"></rect></g><g><rect x="104.34545454545456" y="16.037500000000005" width="2" height="83.96249999999999" id="cases-ep-26"></rect></g><g><rect x="100.78181818181817" y="10.424999999999995" width="2" height="89.575" id="cases-ep-27"></rect></g><g><rect x="97.21818181818183" y="55.86249999999999" width="2" height="44.13750000000001" id="cases-ep-28"></rect></g><g><rect x="93.65454545454546" y="49.85000000000001" width="2" height="50.14999999999999" id="cases-ep-29"></rect></g><g><rect x="90.09090909090911" y="25.949999999999996" width="2" height="74.05000000000001" id="cases-ep-30"></rect></g><g><rect x="86.52727272727273" y="26.575000000000003" width="2" height="73.425" id="cases-ep-31"></rect></g><g><rect x="82.96363636363637" y="22.6375" width="2" height="77.3625" id="cases-ep-32"></rect></g><g><rect x="79.4" y="20.937499999999996" width="2" height="79.0625" id="cases-ep-33"></rect></g><g><rect x="75.83636363636364" y="12.6" width="2" height="87.4" id="cases-ep-34"></rect></g><g><rect x="72.27272727272727" y="55.662499999999994" width="2" height="44.337500000000006" id="cases-ep-35"></rect></g><g><rect x="68.70909090909092" y="54.949999999999996" width="2" height="45.050000000000004" id="cases-ep-36"></rect></g><g><rect x="65.14545454545454" y="34.550000000000004" width="2" height="65.44999999999999" id="cases-ep-37"></rect></g><g><rect x="61.58181818181818" y="34.587500000000006" width="2" height="65.4125" id="cases-ep-38"></rect></g><g><rect x="58.018181818181816" y="30.274999999999995" width="2" height="69.72500000000001" id="cases-ep-39"></rect></g><g><rect x="54.454545454545446" y="28.025" width="2" height="71.975" id="cases-ep-40"></rect></g><g><rect x="50.89090909090908" y="28.0625" width="2" height="71.9375" id="cases-ep-41"></rect></g><g><rect x="47.32727272727273" y="59.2375" width="2" height="40.7625" id="cases-ep-42"></rect></g><g><rect x="43.76363636363636" y="56.512499999999996" width="2" height="43.487500000000004" id="cases-ep-43"></rect></g><g><rect x="40.199999999999996" y="35.824999999999996" width="2" height="64.17500000000001" id="cases-ep-44"></rect></g><g><rect x="36.636363636363626" y="34.162499999999994" width="2" height="65.8375" id="cases-ep-45"></rect></g><g><rect x="33.072727272727285" y="25.575000000000003" width="2" height="74.425" id="cases-ep-46"></rect></g><g><rect x="29.509090909090922" y="22.650000000000002" width="2" height="77.35" id="cases-ep-47"></rect></g><g><rect x="25.945454545454556" y="15.587499999999999" width="2" height="84.4125" id="cases-ep-48"></rect></g><g><rect x="22.38181818181819" y="57.975" width="2" height="42.025" id="cases-ep-49"></rect></g><g><rect x="18.818181818181824" y="54.29999999999999" width="2" height="45.70000000000001" id="cases-ep-50"></rect></g><g><rect x="15.254545454545461" y="29.012499999999996" width="2" height="70.98750000000001" id="cases-ep-51"></rect></g><g><rect x="11.690909090909095" y="28.200000000000003" width="2" height="71.8" id="cases-ep-52"></rect></g><g><rect x="8.12727272727273" y="22.9375" width="2" height="77.0625" id="cases-ep-53"></rect></g><g><rect x="4.563636363636365" y="16.15" width="2" height="83.85" id="cases-ep-54"></rect></g><g><rect x="1" y="5.1875" width="2" height="94.8125" id="cases-ep-55"></rect></g></g><g class="fg-line cases-ep" fill="none" stroke="#92c5de" stroke-width="2" stroke-linecap="round"><path d="M198,48.76785714285714L194.43636363636364,47.09107142857143L190.87272727272727,45.71964285714285L187.30909090909088,44.012499999999996L183.74545454545455,43.8375L180.1818181818182,42.36964285714285L176.61818181818182,41.003571428571426L173.05454545454546,40.207142857142856L169.49090909090907,39.65357142857143L165.92727272727274,39.18035714285715L162.36363636363637,38.24107142857144L158.8,35.199999999999996L155.23636363636365,33.8L151.6727272727273,32.73571428571429L148.1090909090909,31.421428571428567L144.54545454545453,31.301785714285714L140.9818181818182,30.764285714285712L137.41818181818184,30.569642857142853L133.85454545454544,30.474999999999998L130.29090909090908,30.158928571428568L126.72727272727273,29.57321428571429L123.16363636363636,29.774999999999995L119.6,29.635714285714286L116.03636363636363,29.446428571428562L112.47272727272728,28.83928571428571L108.90909090909089,29.085714285714293L105.34545454545456,29.619642857142857L101.78181818181817,30.31964285714286L98.21818181818183,30.630357142857147L94.65454545454546,30.60178571428571L91.09090909090911,31.330357142857146L87.52727272727273,32.55892857142857L83.96363636363637,33.703571428571436L80.4,34.794642857142854L76.83636363636364,35.80714285714286L73.27272727272727,38.01607142857143L69.70909090909092,38.526785714285715L66.14545454545454,38.74999999999999L62.58181818181818,38.93214285714286L59.018181818181816,38.87142857142857L55.454545454545446,38.2L51.89090909090908,37.43214285714286L48.32727272727273,35.650000000000006L44.76363636363636,35.46964285714286L41.199999999999996,35.153571428571425L37.636363636363626,34.18035714285714L34.072727272727285,33.32857142857143L30.509090909090922,32.951785714285705L26.945454545454556,32.02321428571429L23.38181818181819,30.537499999999994L19.818181818181824,29.892857142857142L16.25454545454546,28.930357142857144L12.690909090909095,28.153571428571432L9.12727272727273,26.908928571428568L5.563636363636365,24.826785714285716L2,23.466071428571432"></path></g></svg>