<svg meta="{&quot;DATA_PUBLISHED_DATE&quot;:&quot;2022-03-24&quot;,&quot;RENDER_DATE&quot;:&quot;2022-03-24&quot;,&quot;FIRST_DATE&quot;:&quot;2022-01-19&quot;,&quot;LAST_DATE&quot;:&quot;2022-03-15&quot;}" xmlns="http://www.w3.org/2000/svg" viewBox="0,0,200,100"><g transform="translate(0,0)"></g><g class="fg-bars cases-ep" fill="#00183f" stroke="none"><g><rect x="197" y="97.86363636363636" width="2" height="2.1363636363636402" id="cases-ep-0"></rect></g><g><rect x="193.43636363636364" y="97.60727272727273" width="2" height="2.392727272727271" id="cases-ep-1"></rect></g><g><rect x="189.87272727272727" y="98.94454545454545" width="2" height="1.0554545454545519" id="cases-ep-2"></rect></g><g><rect x="186.30909090909088" y="98.72181818181818" width="2" height="1.278181818181821" id="cases-ep-3"></rect></g><g><rect x="182.74545454545455" y="97.99363636363636" width="2" height="2.006363636363645" id="cases-ep-4"></rect></g><g><rect x="179.1818181818182" y="97.75363636363636" width="2" height="2.2463636363636397" id="cases-ep-5"></rect></g><g><rect x="175.61818181818182" y="97.33000000000001" width="2" height="2.6699999999999875" id="cases-ep-6"></rect></g><g><rect x="172.05454545454546" y="97.0809090909091" width="2" height="2.9190909090908974" id="cases-ep-7"></rect></g><g><rect x="168.49090909090907" y="96.58090909090909" width="2" height="3.4190909090909116" id="cases-ep-8"></rect></g><g><rect x="164.92727272727274" y="98.39909090909092" width="2" height="1.6009090909090844" id="cases-ep-9"></rect></g><g><rect x="161.36363636363637" y="98.15363636363637" width="2" height="1.846363636363634" id="cases-ep-10"></rect></g><g><rect x="157.8" y="97.17" width="2" height="2.8299999999999983" id="cases-ep-11"></rect></g><g><rect x="154.23636363636365" y="96.78272727272727" width="2" height="3.2172727272727286" id="cases-ep-12"></rect></g><g><rect x="150.6727272727273" y="96.44363636363636" width="2" height="3.556363636363642" id="cases-ep-13"></rect></g><g><rect x="147.1090909090909" y="95.80454545454545" width="2" height="4.195454545454552" id="cases-ep-14"></rect></g><g><rect x="143.54545454545453" y="95.26818181818182" width="2" height="4.731818181818184" id="cases-ep-15"></rect></g><g><rect x="139.9818181818182" y="97.86545454545454" width="2" height="2.13454545454546" id="cases-ep-16"></rect></g><g><rect x="136.41818181818184" y="97.57181818181819" width="2" height="2.4281818181818124" id="cases-ep-17"></rect></g><g><rect x="132.85454545454544" y="95.69727272727273" width="2" height="4.302727272727267" id="cases-ep-18"></rect></g><g><rect x="129.29090909090908" y="95.4009090909091" width="2" height="4.599090909090904" id="cases-ep-19"></rect></g><g><rect x="125.72727272727273" y="94.95" width="2" height="5.049999999999997" id="cases-ep-20"></rect></g><g><rect x="122.16363636363636" y="93.54272727272728" width="2" height="6.4572727272727235" id="cases-ep-21"></rect></g><g><rect x="118.6" y="95.16909090909091" width="2" height="4.830909090909088" id="cases-ep-22"></rect></g><g><rect x="115.03636363636363" y="96.76727272727273" width="2" height="3.2327272727272742" id="cases-ep-23"></rect></g><g><rect x="111.47272727272728" y="96.21" width="2" height="3.7900000000000063" id="cases-ep-24"></rect></g><g><rect x="107.90909090909089" y="93.61727272727272" width="2" height="6.38272727272728" id="cases-ep-25"></rect></g><g><rect x="104.34545454545456" y="92.63272727272727" width="2" height="7.367272727272734" id="cases-ep-26"></rect></g><g><rect x="100.78181818181817" y="91.50272727272727" width="2" height="8.49727272727273" id="cases-ep-27"></rect></g><g><rect x="97.21818181818183" y="90.13636363636364" width="2" height="9.86363636363636" id="cases-ep-28"></rect></g><g><rect x="93.65454545454546" y="88.35545454545455" width="2" height="11.644545454545451" id="cases-ep-29"></rect></g><g><rect x="90.09090909090911" y="94.9609090909091" width="2" height="5.039090909090902" id="cases-ep-30"></rect></g><g><rect x="86.52727272727273" y="93.5190909090909" width="2" height="6.480909090909094" id="cases-ep-31"></rect></g><g><rect x="82.96363636363637" y="87.50636363636363" width="2" height="12.49363636363637" id="cases-ep-32"></rect></g><g><rect x="79.4" y="87.19727272727272" width="2" height="12.802727272727282" id="cases-ep-33"></rect></g><g><rect x="75.83636363636364" y="85.37636363636364" width="2" height="14.623636363636365" id="cases-ep-34"></rect></g><g><rect x="72.27272727272727" y="83.81" width="2" height="16.189999999999998" id="cases-ep-35"></rect></g><g><rect x="68.70909090909092" y="79.77090909090909" width="2" height="20.229090909090914" id="cases-ep-36"></rect></g><g><rect x="65.14545454545454" y="91.11181818181818" width="2" height="8.88818181818182" id="cases-ep-37"></rect></g><g><rect x="61.58181818181818" y="89.24727272727273" width="2" height="10.75272727272727" id="cases-ep-38"></rect></g><g><rect x="58.018181818181816" y="80.1509090909091" width="2" height="19.849090909090904" id="cases-ep-39"></rect></g><g><rect x="54.454545454545446" y="78.16" width="2" height="21.840000000000003" id="cases-ep-40"></rect></g><g><rect x="50.89090909090908" y="75.24090909090908" width="2" height="24.759090909090915" id="cases-ep-41"></rect></g><g><rect x="47.32727272727273" y="70.38090909090909" width="2" height="29.619090909090914" id="cases-ep-42"></rect></g><g><rect x="43.76363636363636" y="65.00818181818182" width="2" height="34.991818181818175" id="cases-ep-43"></rect></g><g><rect x="40.199999999999996" y="86.21" width="2" height="13.790000000000006" id="cases-ep-44"></rect></g><g><rect x="36.636363636363626" y="81.23181818181818" width="2" height="18.768181818181816" id="cases-ep-45"></rect></g><g><rect x="33.072727272727285" y="65.12181818181818" width="2" height="34.878181818181815" id="cases-ep-46"></rect></g><g><rect x="29.509090909090922" y="60.16636363636363" width="2" height="39.83363636363637" id="cases-ep-47"></rect></g><g><rect x="25.945454545454556" y="53.22090909090909" width="2" height="46.77909090909091" id="cases-ep-48"></rect></g><g><rect x="22.38181818181819" y="45.86181818181818" width="2" height="54.13818181818182" id="cases-ep-49"></rect></g><g><rect x="18.818181818181824" y="36.489090909090905" width="2" height="63.510909090909095" id="cases-ep-50"></rect></g><g><rect x="15.254545454545461" y="74.45818181818183" width="2" height="25.541818181818172" id="cases-ep-51"></rect></g><g><rect x="11.690909090909095" y="64.03545454545454" width="2" height="35.96454545454546" id="cases-ep-52"></rect></g><g><rect x="8.12727272727273" y="30.28909090909091" width="2" height="69.7109090909091" id="cases-ep-53"></rect></g><g><rect x="4.563636363636365" y="18.925454545454546" width="2" height="81.07454545454546" id="cases-ep-54"></rect></g><g><rect x="1" y="8.775454545454542" width="2" height="91.22454545454546" id="cases-ep-55"></rect></g></g><g class="fg-line cases-ep" fill="none" stroke="#92c5de" stroke-width="2" stroke-linecap="round"><path d="M198,98.03064935064934L194.43636363636364,97.91883116883116L190.87272727272727,97.7722077922078L187.30909090909088,97.69428571428571L183.74545454545455,97.61311688311687L180.1818181818182,97.49545454545454L176.61818181818182,97.35675324675324L173.05454545454546,97.23012987012987L169.49090909090907,97.0477922077922L165.92727272727274,96.86025974025974L162.36363636363637,96.78402597402598L158.8,96.7009090909091L155.23636363636365,96.49051948051948L151.6727272727273,96.29311688311688L148.1090909090909,96.07974025974026L144.54545454545453,95.75662337662337L140.9818181818182,95.74246753246753L137.41818181818184,95.5855844155844L133.85454545454544,95.39103896103896L130.29090909090908,95.0938961038961L126.72727272727273,94.69844155844156L123.16363636363636,94.20597402597403L119.6,93.71935064935066L116.03636363636363,92.74597402597402L112.47272727272728,92.48792207792208L108.90909090909089,92.10350649350649L105.34545454545456,91.23051948051948L101.78181818181817,90.45402597402598L98.21818181818183,89.57883116883116L94.65454545454546,88.67506493506494L91.09090909090911,87.44870129870131L87.52727272727273,86.89883116883117L83.96363636363637,86.28857142857143L80.4,85.23779220779221L76.83636363636364,83.94675324675325L73.27272727272727,82.49883116883116L69.70909090909092,80.58038961038962L66.14545454545454,78.47142857142858L62.58181818181818,77.77116883116884L59.018181818181816,76.6261038961039L55.454545454545446,74.4790909090909L51.89090909090908,71.90857142857143L48.32727272727273,68.76285714285714L44.76363636363636,65.26012987012987L41.199999999999996,61.18597402597403L37.636363636363626,59.50714285714286L34.072727272727285,57.050519480519476L30.509090909090922,52.07441558441559L26.945454545454556,46.18285714285714L23.38181818181819,39.8335064935065L19.818181818181824,32.13038961038961L16.25454545454546,30.721948051948043L12.690909090909095,29.17675324675324L9.12727272727273,26.786623376623375L5.563636363636365,23.32844155844156L2,20.183376623376624"></path></g></svg>