<svg about="DATA_PUBLISHED_DATE:2021-11-25,RENDER_DATE:2021-11-25" xmlns="http://www.w3.org/2000/svg" viewBox="0,0,200,100"><g transform="translate(0,0)"></g><g class="fg-bars tests-vaccines" fill="#00183f" stroke="none"><g><rect x="197" y="14.181538461538457" width="2" height="85.81846153846155" id="tests-vaccines-0"></rect></g><g><rect x="193.43636363636364" y="15.586153846153849" width="2" height="84.41384615384615" id="tests-vaccines-1"></rect></g><g><rect x="189.87272727272727" y="23.314999999999998" width="2" height="76.685" id="tests-vaccines-2"></rect></g><g><rect x="186.30909090909088" y="73.715" width="2" height="26.284999999999997" id="tests-vaccines-3"></rect></g><g><rect x="182.74545454545455" y="45.11538461538461" width="2" height="54.88461538461539" id="tests-vaccines-4"></rect></g><g><rect x="179.1818181818182" y="3.9192307692307637" width="2" height="96.08076923076923" id="tests-vaccines-5"></rect></g><g><rect x="175.61818181818182" y="19.431153846153848" width="2" height="80.56884615384615" id="tests-vaccines-6"></rect></g><g><rect x="172.05454545454546" y="16.006153846153847" width="2" height="83.99384615384615" id="tests-vaccines-7"></rect></g><g><rect x="168.49090909090907" y="18.711538461538456" width="2" height="81.28846153846155" id="tests-vaccines-8"></rect></g><g><rect x="164.92727272727274" y="25.091153846153848" width="2" height="74.90884615384616" id="tests-vaccines-9"></rect></g><g><rect x="161.36363636363637" y="74.98538461538462" width="2" height="25.014615384615382" id="tests-vaccines-10"></rect></g><g><rect x="157.8" y="52.488461538461536" width="2" height="47.511538461538464" id="tests-vaccines-11"></rect></g><g><rect x="154.23636363636365" y="8.987692307692308" width="2" height="91.01230769230769" id="tests-vaccines-12"></rect></g><g><rect x="150.6727272727273" y="25.835769230769234" width="2" height="74.16423076923077" id="tests-vaccines-13"></rect></g><g><rect x="147.1090909090909" y="28.591538461538455" width="2" height="71.40846153846155" id="tests-vaccines-14"></rect></g><g><rect x="143.54545454545453" y="27.880769230769232" width="2" height="72.11923076923077" id="tests-vaccines-15"></rect></g><g><rect x="139.9818181818182" y="32.14846153846154" width="2" height="67.85153846153847" id="tests-vaccines-16"></rect></g><g><rect x="136.41818181818184" y="80.56692307692308" width="2" height="19.433076923076925" id="tests-vaccines-17"></rect></g><g><rect x="132.85454545454544" y="60.57769230769231" width="2" height="39.42230769230769" id="tests-vaccines-18"></rect></g><g><rect x="129.29090909090908" y="16.687692307692302" width="2" height="83.3123076923077" id="tests-vaccines-19"></rect></g><g><rect x="125.72727272727273" y="30.48923076923077" width="2" height="69.51076923076923" id="tests-vaccines-20"></rect></g><g><rect x="122.16363636363636" y="30.36923076923077" width="2" height="69.63076923076923" id="tests-vaccines-21"></rect></g><g><rect x="118.6" y="31.23730769230769" width="2" height="68.7626923076923" id="tests-vaccines-22"></rect></g><g><rect x="115.03636363636363" y="37.51461538461538" width="2" height="62.48538461538462" id="tests-vaccines-23"></rect></g><g><rect x="111.47272727272728" y="81.85230769230769" width="2" height="18.14769230769231" id="tests-vaccines-24"></rect></g><g><rect x="107.90909090909089" y="64.53999999999999" width="2" height="35.46000000000001" id="tests-vaccines-25"></rect></g><g><rect x="104.34545454545456" y="37.761923076923075" width="2" height="62.238076923076925" id="tests-vaccines-26"></rect></g><g><rect x="100.78181818181817" y="63.11807692307691" width="2" height="36.88192307692309" id="tests-vaccines-27"></rect></g><g><rect x="97.21818181818183" y="64.55692307692308" width="2" height="35.443076923076916" id="tests-vaccines-28"></rect></g><g><rect x="93.65454545454546" y="63.401153846153846" width="2" height="36.598846153846154" id="tests-vaccines-29"></rect></g><g><rect x="90.09090909090911" y="61.82807692307692" width="2" height="38.17192307692308" id="tests-vaccines-30"></rect></g><g><rect x="86.52727272727273" y="88.28730769230769" width="2" height="11.712692307692308" id="tests-vaccines-31"></rect></g><g><rect x="82.96363636363637" y="77.41269230769231" width="2" height="22.58730769230769" id="tests-vaccines-32"></rect></g><g><rect x="79.4" y="51.71846153846153" width="2" height="48.28153846153847" id="tests-vaccines-33"></rect></g><g><rect x="75.83636363636364" y="61.43961538461539" width="2" height="38.56038461538461" id="tests-vaccines-34"></rect></g><g><rect x="72.27272727272727" y="61.92846153846154" width="2" height="38.07153846153846" id="tests-vaccines-35"></rect></g><g><rect x="68.70909090909092" y="59.54461538461538" width="2" height="40.45538461538462" id="tests-vaccines-36"></rect></g><g><rect x="65.14545454545454" y="58.98384615384615" width="2" height="41.01615384615385" id="tests-vaccines-37"></rect></g><g><rect x="61.58181818181818" y="86.33653846153845" width="2" height="13.663461538461547" id="tests-vaccines-38"></rect></g><g><rect x="58.018181818181816" y="74.94884615384616" width="2" height="25.051153846153838" id="tests-vaccines-39"></rect></g><g><rect x="54.454545454545446" y="45.25076923076923" width="2" height="54.74923076923077" id="tests-vaccines-40"></rect></g><g><rect x="50.89090909090908" y="55.12038461538462" width="2" height="44.87961538461538" id="tests-vaccines-41"></rect></g><g><rect x="47.32727272727273" y="58.200769230769225" width="2" height="41.799230769230775" id="tests-vaccines-42"></rect></g><g><rect x="43.76363636363636" y="57.19846153846153" width="2" height="42.80153846153847" id="tests-vaccines-43"></rect></g><g><rect x="40.199999999999996" y="57.40692307692308" width="2" height="42.59307692307692" id="tests-vaccines-44"></rect></g><g><rect x="36.636363636363626" y="85.27961538461538" width="2" height="14.720384615384617" id="tests-vaccines-45"></rect></g><g><rect x="33.072727272727285" y="73.89038461538462" width="2" height="26.10961538461538" id="tests-vaccines-46"></rect></g><g><rect x="29.509090909090922" y="44.22576923076923" width="2" height="55.77423076923077" id="tests-vaccines-47"></rect></g><g><rect x="25.945454545454556" y="49.31269230769231" width="2" height="50.68730769230769" id="tests-vaccines-48"></rect></g><g><rect x="22.38181818181819" y="50.39884615384616" width="2" height="49.60115384615384" id="tests-vaccines-49"></rect></g><g><rect x="18.818181818181824" y="50.230384615384615" width="2" height="49.769615384615385" id="tests-vaccines-50"></rect></g><g><rect x="15.254545454545461" y="54.32692307692308" width="2" height="45.67307692307692" id="tests-vaccines-51"></rect></g><g><rect x="11.690909090909095" y="84.85000000000001" width="2" height="15.149999999999991" id="tests-vaccines-52"></rect></g><g><rect x="8.12727272727273" y="72.72576923076923" width="2" height="27.27423076923077" id="tests-vaccines-53"></rect></g><g><rect x="4.563636363636365" y="58.325" width="2" height="41.675" id="tests-vaccines-54"></rect></g><g><rect x="1" y="72.30615384615385" width="2" height="27.693846153846152" id="tests-vaccines-55"></rect></g></g><g class="fg-line tests-vaccines" fill="none" stroke="#92c5de" stroke-width="2" stroke-linecap="round"><path d="M198,27.894780219780223L194.43636363636364,28.155439560439564L190.87272727272727,28.601923076923075L187.30909090909088,28.855659340659344L183.74545454545455,29.03714285714285L180.1818181818182,30.090439560439563L176.61818181818182,30.814505494505497L173.05454545454546,31.729450549450544L169.49090909090907,33.52736263736264L165.92727272727274,34.83725274725275L162.36363636363637,35.845439560439566L158.8,36.64280219780219L155.23636363636365,37.79840659340658L151.6727272727273,38.898406593406584L148.1090909090909,39.56318681318681L144.54545454545453,39.81714285714285L140.9818181818182,40.296648351648344L137.41818181818184,41.063241758241766L133.85454545454544,41.24686813186813L130.29090909090908,41.81291208791208L126.72727272727273,44.82351648351649L123.16363636363636,49.48478021978022L119.6,54.36873626373626L116.03636363636363,58.96357142857143L112.47272727272728,62.43692307692308L108.90909090909089,63.35620879120879L105.34545454545456,65.19516483516483L101.78181818181817,67.18895604395605L98.21818181818183,66.94917582417584L94.65454545454546,66.57368131868132L91.09090909090911,66.02274725274725L87.52727272727273,65.61642857142857L83.96363636363637,65.33774725274726L80.4,64.98576923076924L76.83636363636364,64.06181318681318L73.27272727272727,63.159065934065936L69.70909090909092,62.62653846153846L66.14545454545454,62.29137362637363L62.58181818181818,62.06609890109891L59.018181818181816,61.91510989010989L55.454545454545446,61.763901098901094L51.89090909090908,61.61747252747253L48.32727272727273,60.7878021978022L44.76363636363636,59.67324175824176L41.199999999999996,58.6778021978022L37.636363636363626,58.23780219780219L34.072727272727285,58.17642857142857L30.509090909090922,58.01005494505495L26.945454545454556,60.02423076923077L23.38181818181819,63.309010989010986L19.818181818181824,66.42961538461537L16.25454545454546,69.45483516483517L12.690909090909095,71.56620879120878L9.12727272727273,71.92719780219781L5.563636363636365,72.68697802197802L2,73.33901098901099"></path></g></svg>