<svg about="DATA_PUBLISHED_DATE:2021-12-16,RENDER_DATE:2021-12-16" xmlns="http://www.w3.org/2000/svg" viewBox="0,0,200,100"><g transform="translate(0,0)"></g><g class="fg-bars cases-ep" fill="#00183f" stroke="none"><g><rect x="197" y="35.73333333333333" width="2" height="64.26666666666668" id="cases-ep-0"></rect></g><g><rect x="193.43636363636364" y="27.322222222222226" width="2" height="72.67777777777778" id="cases-ep-1"></rect></g><g><rect x="189.87272727272727" y="63.855555555555554" width="2" height="36.144444444444446" id="cases-ep-2"></rect></g><g><rect x="186.30909090909088" y="58.8111111111111" width="2" height="41.1888888888889" id="cases-ep-3"></rect></g><g><rect x="182.74545454545455" y="36.633333333333326" width="2" height="63.366666666666674" id="cases-ep-4"></rect></g><g><rect x="179.1818181818182" y="33.37777777777777" width="2" height="66.62222222222223" id="cases-ep-5"></rect></g><g><rect x="175.61818181818182" y="20.65555555555556" width="2" height="79.34444444444443" id="cases-ep-6"></rect></g><g><rect x="172.05454545454546" y="23.044444444444444" width="2" height="76.95555555555555" id="cases-ep-7"></rect></g><g><rect x="168.49090909090907" y="10.444444444444445" width="2" height="89.55555555555556" id="cases-ep-8"></rect></g><g><rect x="164.92727272727274" y="52.7" width="2" height="47.3" id="cases-ep-9"></rect></g><g><rect x="161.36363636363637" y="54.388888888888886" width="2" height="45.611111111111114" id="cases-ep-10"></rect></g><g><rect x="157.8" y="52.855555555555554" width="2" height="47.144444444444446" id="cases-ep-11"></rect></g><g><rect x="154.23636363636365" y="75.4" width="2" height="24.599999999999994" id="cases-ep-12"></rect></g><g><rect x="150.6727272727273" y="49.32222222222222" width="2" height="50.67777777777778" id="cases-ep-13"></rect></g><g><rect x="147.1090909090909" y="46.92222222222222" width="2" height="53.07777777777778" id="cases-ep-14"></rect></g><g><rect x="143.54545454545453" y="42.722222222222214" width="2" height="57.277777777777786" id="cases-ep-15"></rect></g><g><rect x="139.9818181818182" y="67.66666666666667" width="2" height="32.33333333333333" id="cases-ep-16"></rect></g><g><rect x="136.41818181818184" y="64.3" width="2" height="35.7" id="cases-ep-17"></rect></g><g><rect x="132.85454545454544" y="49.477777777777774" width="2" height="50.522222222222226" id="cases-ep-18"></rect></g><g><rect x="129.29090909090908" y="48.46666666666667" width="2" height="51.53333333333333" id="cases-ep-19"></rect></g><g><rect x="125.72727272727273" y="43.08888888888889" width="2" height="56.91111111111111" id="cases-ep-20"></rect></g><g><rect x="122.16363636363636" y="40.18888888888888" width="2" height="59.81111111111112" id="cases-ep-21"></rect></g><g><rect x="118.6" y="29.555555555555557" width="2" height="70.44444444444444" id="cases-ep-22"></rect></g><g><rect x="115.03636363636363" y="64.17777777777778" width="2" height="35.82222222222222" id="cases-ep-23"></rect></g><g><rect x="111.47272727272728" y="62.05555555555555" width="2" height="37.94444444444445" id="cases-ep-24"></rect></g><g><rect x="107.90909090909089" y="43.85555555555556" width="2" height="56.14444444444444" id="cases-ep-25"></rect></g><g><rect x="104.34545454545456" y="52.355555555555554" width="2" height="47.644444444444446" id="cases-ep-26"></rect></g><g><rect x="100.78181818181817" y="38.13333333333333" width="2" height="61.86666666666667" id="cases-ep-27"></rect></g><g><rect x="97.21818181818183" y="34.93333333333334" width="2" height="65.06666666666666" id="cases-ep-28"></rect></g><g><rect x="93.65454545454546" y="26.677777777777777" width="2" height="73.32222222222222" id="cases-ep-29"></rect></g><g><rect x="90.09090909090911" y="61.74444444444445" width="2" height="38.25555555555555" id="cases-ep-30"></rect></g><g><rect x="86.52727272727273" y="59.51111111111111" width="2" height="40.48888888888889" id="cases-ep-31"></rect></g><g><rect x="82.96363636363637" y="38.83333333333333" width="2" height="61.16666666666667" id="cases-ep-32"></rect></g><g><rect x="79.4" y="33.5" width="2" height="66.5" id="cases-ep-33"></rect></g><g><rect x="75.83636363636364" y="29.22222222222223" width="2" height="70.77777777777777" id="cases-ep-34"></rect></g><g><rect x="72.27272727272727" y="28.366666666666664" width="2" height="71.63333333333334" id="cases-ep-35"></rect></g><g><rect x="68.70909090909092" y="18.488888888888887" width="2" height="81.51111111111112" id="cases-ep-36"></rect></g><g><rect x="65.14545454545454" y="61.43333333333334" width="2" height="38.56666666666666" id="cases-ep-37"></rect></g><g><rect x="61.58181818181818" y="56.46666666666667" width="2" height="43.53333333333333" id="cases-ep-38"></rect></g><g><rect x="58.018181818181816" y="37.65555555555555" width="2" height="62.34444444444445" id="cases-ep-39"></rect></g><g><rect x="54.454545454545446" y="32.92222222222222" width="2" height="67.07777777777778" id="cases-ep-40"></rect></g><g><rect x="50.89090909090908" y="27.822222222222226" width="2" height="72.17777777777778" id="cases-ep-41"></rect></g><g><rect x="47.32727272727273" y="25.13333333333333" width="2" height="74.86666666666667" id="cases-ep-42"></rect></g><g><rect x="43.76363636363636" y="20.199999999999996" width="2" height="79.80000000000001" id="cases-ep-43"></rect></g><g><rect x="40.199999999999996" y="60.577777777777776" width="2" height="39.422222222222224" id="cases-ep-44"></rect></g><g><rect x="36.636363636363626" y="55.25555555555556" width="2" height="44.74444444444444" id="cases-ep-45"></rect></g><g><rect x="33.072727272727285" y="33.988888888888894" width="2" height="66.0111111111111" id="cases-ep-46"></rect></g><g><rect x="29.509090909090922" y="34.73333333333334" width="2" height="65.26666666666665" id="cases-ep-47"></rect></g><g><rect x="25.945454545454556" y="31.066666666666663" width="2" height="68.93333333333334" id="cases-ep-48"></rect></g><g><rect x="22.38181818181819" y="29.566666666666663" width="2" height="70.43333333333334" id="cases-ep-49"></rect></g><g><rect x="18.818181818181824" y="22.15555555555555" width="2" height="77.84444444444445" id="cases-ep-50"></rect></g><g><rect x="15.254545454545461" y="60.555555555555564" width="2" height="39.444444444444436" id="cases-ep-51"></rect></g><g><rect x="11.690909090909095" y="59.82222222222222" width="2" height="40.17777777777778" id="cases-ep-52"></rect></g><g><rect x="8.12727272727273" y="41.74444444444444" width="2" height="58.25555555555556" id="cases-ep-53"></rect></g><g><rect x="4.563636363636365" y="41.71111111111111" width="2" height="58.28888888888889" id="cases-ep-54"></rect></g><g><rect x="1" y="37.955555555555556" width="2" height="62.044444444444444" id="cases-ep-55"></rect></g></g><g class="fg-line cases-ep" fill="none" stroke="#92c5de" stroke-width="2" stroke-linecap="round"><path d="M198,39.48412698412699L194.43636363636364,37.67142857142858L190.87272727272727,35.26031746031746L187.30909090909088,33.666666666666664L183.74545454545455,33.03492063492063L180.1818181818182,35.35238095238095L176.61818181818182,41.355555555555554L173.05454545454546,45.450793650793656L169.49090909090907,48.86190476190476L165.92727272727274,53.473015873015875L162.36363636363637,55.611111111111114L158.8,57.026984126984125L155.23636363636365,56.544444444444444L151.6727272727273,52.69682539682539L148.1090909090909,51.80634920634921L144.54545454545453,50.84444444444445L140.9818181818182,48.96349206349206L137.41818181818184,48.46507936507937L133.85454545454544,48.144444444444446L130.29090909090908,47.34126984126984L126.72727272727273,47.89682539682539L123.16363636363636,47.18888888888889L119.6,46.438095238095244L116.03636363636363,46.026984126984125L112.47272727272728,45.67936507936508L108.90909090909089,45.315873015873024L105.34545454545456,44.5984126984127L101.78181818181817,41.90476190476191L98.21818181818183,40.63174603174603L94.65454545454546,39.69365079365079L91.09090909090911,38.52380952380952L87.52727272727273,38.47936507936508L83.96363636363637,38.044444444444444L80.4,37.87619047619047L76.83636363636364,37.79365079365079L73.27272727272727,37.59365079365079L69.70909090909092,37.13174603174604L66.14545454545454,37.37619047619047L62.58181818181818,37.25396825396826L59.018181818181816,37.08095238095238L55.454545454545446,36.55714285714286L51.89090909090908,36.81587301587301L48.32727272727273,37.27936507936508L44.76363636363636,37.91269841269841L41.199999999999996,38.1920634920635L37.636363636363626,38.1888888888889L34.072727272727285,38.841269841269835L30.509090909090922,39.94920634920634L26.945454545454556,40.94603174603174L23.38181818181819,41.93015873015873L19.818181818181824,42.81746031746032L16.25454545454546,44.78253968253968L12.690909090909095,45.22063492063493L9.12727272727273,45.426984126984124L5.563636363636365,45.58730158730159L2,45.54920634920635"></path></g></svg>