<svg meta="{&quot;DATA_PUBLISHED_DATE&quot;:&quot;2022-06-07&quot;,&quot;RENDER_DATE&quot;:&quot;2022-06-07&quot;,&quot;FIRST_DATE&quot;:&quot;2022-04-05&quot;,&quot;LAST_DATE&quot;:&quot;2022-05-30&quot;}" xmlns="http://www.w3.org/2000/svg" viewBox="0,0,200,100"><g transform="translate(0,0)"></g><g class="fg-bars tests-vaccines" fill="#00183f" stroke="none"><g><rect x="197" y="96.586" width="2" height="3.4140000000000015" id="tests-vaccines-0"></rect></g><g><rect x="193.43636363636364" y="80.006" width="2" height="19.994" id="tests-vaccines-1"></rect></g><g><rect x="189.87272727272727" y="64.225" width="2" height="35.775000000000006" id="tests-vaccines-2"></rect></g><g><rect x="186.30909090909088" y="25.505999999999997" width="2" height="74.494" id="tests-vaccines-3"></rect></g><g><rect x="182.74545454545455" y="43.345" width="2" height="56.655" id="tests-vaccines-4"></rect></g><g><rect x="179.1818181818182" y="39.908" width="2" height="60.092" id="tests-vaccines-5"></rect></g><g><rect x="175.61818181818182" y="39.776" width="2" height="60.224" id="tests-vaccines-6"></rect></g><g><rect x="172.05454545454546" y="38.266999999999996" width="2" height="61.733000000000004" id="tests-vaccines-7"></rect></g><g><rect x="168.49090909090907" y="78.062" width="2" height="21.938000000000002" id="tests-vaccines-8"></rect></g><g><rect x="164.92727272727274" y="59.800999999999995" width="2" height="40.199000000000005" id="tests-vaccines-9"></rect></g><g><rect x="161.36363636363637" y="24.887000000000004" width="2" height="75.113" id="tests-vaccines-10"></rect></g><g><rect x="157.8" y="40.076" width="2" height="59.924" id="tests-vaccines-11"></rect></g><g><rect x="154.23636363636365" y="42.967" width="2" height="57.033" id="tests-vaccines-12"></rect></g><g><rect x="150.6727272727273" y="44.735" width="2" height="55.265" id="tests-vaccines-13"></rect></g><g><rect x="147.1090909090909" y="45.082" width="2" height="54.918" id="tests-vaccines-14"></rect></g><g><rect x="143.54545454545453" y="82.693" width="2" height="17.307000000000002" id="tests-vaccines-15"></rect></g><g><rect x="139.9818181818182" y="66.422" width="2" height="33.578" id="tests-vaccines-16"></rect></g><g><rect x="136.41818181818184" y="30.801999999999996" width="2" height="69.19800000000001" id="tests-vaccines-17"></rect></g><g><rect x="132.85454545454544" y="39.654999999999994" width="2" height="60.345000000000006" id="tests-vaccines-18"></rect></g><g><rect x="129.29090909090908" y="40.313" width="2" height="59.687" id="tests-vaccines-19"></rect></g><g><rect x="125.72727272727273" y="43.99999999999999" width="2" height="56.00000000000001" id="tests-vaccines-20"></rect></g><g><rect x="122.16363636363636" y="44.760999999999996" width="2" height="55.239000000000004" id="tests-vaccines-21"></rect></g><g><rect x="118.6" y="87.24000000000001" width="2" height="12.759999999999991" id="tests-vaccines-22"></rect></g><g><rect x="115.03636363636363" y="69.66499999999999" width="2" height="30.335000000000008" id="tests-vaccines-23"></rect></g><g><rect x="111.47272727272728" y="31.428" width="2" height="68.572" id="tests-vaccines-24"></rect></g><g><rect x="107.90909090909089" y="41.079" width="2" height="58.921" id="tests-vaccines-25"></rect></g><g><rect x="104.34545454545456" y="41.04600000000001" width="2" height="58.95399999999999" id="tests-vaccines-26"></rect></g><g><rect x="100.78181818181817" y="41.471000000000004" width="2" height="58.528999999999996" id="tests-vaccines-27"></rect></g><g><rect x="97.21818181818183" y="41.727000000000004" width="2" height="58.272999999999996" id="tests-vaccines-28"></rect></g><g><rect x="93.65454545454546" y="82.074" width="2" height="17.926000000000002" id="tests-vaccines-29"></rect></g><g><rect x="90.09090909090911" y="65.371" width="2" height="34.629000000000005" id="tests-vaccines-30"></rect></g><g><rect x="86.52727272727273" y="23.678999999999995" width="2" height="76.321" id="tests-vaccines-31"></rect></g><g><rect x="82.96363636363637" y="33.827" width="2" height="66.173" id="tests-vaccines-32"></rect></g><g><rect x="79.4" y="34.312" width="2" height="65.688" id="tests-vaccines-33"></rect></g><g><rect x="75.83636363636364" y="35.526" width="2" height="64.47399999999999" id="tests-vaccines-34"></rect></g><g><rect x="72.27272727272727" y="36.01" width="2" height="63.99" id="tests-vaccines-35"></rect></g><g><rect x="68.70909090909092" y="81.173" width="2" height="18.826999999999998" id="tests-vaccines-36"></rect></g><g><rect x="65.14545454545454" y="62.488" width="2" height="37.512" id="tests-vaccines-37"></rect></g><g><rect x="61.58181818181818" y="35.540000000000006" width="2" height="64.46" id="tests-vaccines-38"></rect></g><g><rect x="58.018181818181816" y="28.939999999999998" width="2" height="71.06" id="tests-vaccines-39"></rect></g><g><rect x="54.454545454545446" y="27.778999999999996" width="2" height="72.221" id="tests-vaccines-40"></rect></g><g><rect x="50.89090909090908" y="24.317999999999994" width="2" height="75.682" id="tests-vaccines-41"></rect></g><g><rect x="47.32727272727273" y="24.049" width="2" height="75.951" id="tests-vaccines-42"></rect></g><g><rect x="43.76363636363636" y="89.923" width="2" height="10.076999999999998" id="tests-vaccines-43"></rect></g><g><rect x="40.199999999999996" y="60.102" width="2" height="39.898" id="tests-vaccines-44"></rect></g><g><rect x="36.636363636363626" y="13.963999999999999" width="2" height="86.036" id="tests-vaccines-45"></rect></g><g><rect x="33.072727272727285" y="20.942000000000004" width="2" height="79.05799999999999" id="tests-vaccines-46"></rect></g><g><rect x="29.509090909090922" y="18.913000000000004" width="2" height="81.08699999999999" id="tests-vaccines-47"></rect></g><g><rect x="25.945454545454556" y="15.086999999999994" width="2" height="84.91300000000001" id="tests-vaccines-48"></rect></g><g><rect x="22.38181818181819" y="17.878000000000004" width="2" height="82.122" id="tests-vaccines-49"></rect></g><g><rect x="18.818181818181824" y="72.98899999999999" width="2" height="27.01100000000001" id="tests-vaccines-50"></rect></g><g><rect x="15.254545454545461" y="52.957" width="2" height="47.043" id="tests-vaccines-51"></rect></g><g><rect x="11.690909090909095" y="7.210000000000005" width="2" height="92.78999999999999" id="tests-vaccines-52"></rect></g><g><rect x="8.12727272727273" y="19.026" width="2" height="80.974" id="tests-vaccines-53"></rect></g><g><rect x="4.563636363636365" y="19.438" width="2" height="80.562" id="tests-vaccines-54"></rect></g><g><rect x="1" y="18.611" width="2" height="81.389" id="tests-vaccines-55"></rect></g></g><g class="fg-line tests-vaccines" fill="none" stroke="#92c5de" stroke-width="2" stroke-linecap="round"><path d="M198,55.621714285714276L194.43636363636364,47.29042857142858L190.87272727272727,47.01271428571429L187.30909090909088,46.380714285714284L183.74545454545455,46.29228571428572L180.1818181818182,45.82528571428571L176.61818181818182,46.262285714285724L173.05454545454546,46.97071428571429L169.49090909090907,47.94428571428572L165.92727272727274,48.60585714285715L162.36363636363637,49.55171428571429L158.8,50.39671428571428L155.23636363636365,50.33657142857142L151.6727272727273,49.95742857142857L148.1090909090909,49.852428571428575L144.54545454545453,49.806571428571424L140.9818181818182,50.45614285714286L137.41818181818184,50.91942857142857L133.85454545454544,51.008857142857146L130.29090909090908,51.21228571428571L126.72727272727273,51.317L123.16363636363636,50.95571428571428L119.6,50.52228571428572L116.03636363636363,49.784285714285716L112.47272727272728,49.17085714285715L108.90909090909089,48.063857142857145L105.34545454545456,47.027857142857144L101.78181818181817,46.06585714285715L98.21818181818183,45.21657142857143L94.65454545454546,44.399857142857144L91.09090909090911,44.271142857142856L87.52727272727273,43.859285714285726L83.96363636363637,45.553714285714285L80.4,44.85557142857143L76.83636363636364,43.922285714285714L73.27272727272727,42.32114285714286L69.70909090909092,40.61242857142857L66.14545454545454,41.862428571428566L62.58181818181818,41.52157142857143L59.018181818181816,38.43928571428572L55.454545454545446,37.29671428571428L51.89090909090908,36.030142857142856L48.32727272727273,34.71142857142857L44.76363636363636,33.82985714285714L41.199999999999996,31.410714285714292L37.636363636363626,30.389999999999993L34.072727272727285,29.42514285714285L30.509090909090922,29.15142857142856L26.945454545454556,29.226428571428563L23.38181818181819,29.729857142857142L19.818181818181824,29.72014285714285L16.25454545454546,29.47642857142857L12.690909090909095,29.079571428571438L9.12727272727273,29.09357142857143L5.563636363636365,30.09628571428571L2,32.830999999999996"></path></g></svg>