<svg about="DATA_PUBLISHED_DATE:2021-10-03,RENDER_DATE:2021-10-03" xmlns="http://www.w3.org/2000/svg" viewBox="0,0,200,100"><g transform="translate(0,0)"></g><g class="fg-bars death-date" fill="#00183f" stroke="none"><g><rect x="197" y="30.76923076923077" width="2" height="69.23076923076923" id="death-date-0"></rect></g><g><rect x="193.43636363636364" y="25.384615384615383" width="2" height="74.61538461538461" id="death-date-1"></rect></g><g><rect x="189.87272727272727" y="21.53846153846154" width="2" height="78.46153846153845" id="death-date-2"></rect></g><g><rect x="186.30909090909088" y="12.307692307692308" width="2" height="87.6923076923077" id="death-date-3"></rect></g><g><rect x="182.74545454545455" y="30.000000000000004" width="2" height="70" id="death-date-4"></rect></g><g><rect x="179.1818181818182" y="16.153846153846153" width="2" height="83.84615384615384" id="death-date-5"></rect></g><g><rect x="175.61818181818182" y="10.769230769230765" width="2" height="89.23076923076924" id="death-date-6"></rect></g><g><rect x="172.05454545454546" y="22.307692307692307" width="2" height="77.6923076923077" id="death-date-7"></rect></g><g><rect x="168.49090909090907" y="20.769230769230774" width="2" height="79.23076923076923" id="death-date-8"></rect></g><g><rect x="164.92727272727274" y="25.384615384615383" width="2" height="74.61538461538461" id="death-date-9"></rect></g><g><rect x="161.36363636363637" y="30.76923076923077" width="2" height="69.23076923076923" id="death-date-10"></rect></g><g><rect x="157.8" y="4.61538461538461" width="2" height="95.38461538461539" id="death-date-11"></rect></g><g><rect x="154.23636363636365" y="14.615384615384619" width="2" height="85.38461538461539" id="death-date-12"></rect></g><g><rect x="150.6727272727273" y="16.153846153846153" width="2" height="83.84615384615384" id="death-date-13"></rect></g><g><rect x="147.1090909090909" y="14.615384615384619" width="2" height="85.38461538461539" id="death-date-14"></rect></g><g><rect x="143.54545454545453" y="16.92307692307692" width="2" height="83.07692307692308" id="death-date-15"></rect></g><g><rect x="139.9818181818182" y="26.923076923076927" width="2" height="73.07692307692307" id="death-date-16"></rect></g><g><rect x="136.41818181818184" y="27.692307692307693" width="2" height="72.3076923076923" id="death-date-17"></rect></g><g><rect x="132.85454545454544" y="25.384615384615383" width="2" height="74.61538461538461" id="death-date-18"></rect></g><g><rect x="129.29090909090908" y="29.230769230769226" width="2" height="70.76923076923077" id="death-date-19"></rect></g><g><rect x="125.72727272727273" y="29.230769230769226" width="2" height="70.76923076923077" id="death-date-20"></rect></g><g><rect x="122.16363636363636" y="33.84615384615385" width="2" height="66.15384615384616" id="death-date-21"></rect></g><g><rect x="118.6" y="20.769230769230774" width="2" height="79.23076923076923" id="death-date-22"></rect></g><g><rect x="115.03636363636363" y="18.461538461538463" width="2" height="81.53846153846153" id="death-date-23"></rect></g><g><rect x="111.47272727272728" y="43.84615384615385" width="2" height="56.15384615384615" id="death-date-24"></rect></g><g><rect x="107.90909090909089" y="43.07692307692308" width="2" height="56.92307692307692" id="death-date-25"></rect></g><g><rect x="104.34545454545456" y="16.153846153846153" width="2" height="83.84615384615384" id="death-date-26"></rect></g><g><rect x="100.78181818181817" y="43.07692307692308" width="2" height="56.92307692307692" id="death-date-27"></rect></g><g><rect x="97.21818181818183" y="46.15384615384615" width="2" height="53.84615384615385" id="death-date-28"></rect></g><g><rect x="93.65454545454546" y="46.15384615384615" width="2" height="53.84615384615385" id="death-date-29"></rect></g><g><rect x="90.09090909090911" y="46.92307692307692" width="2" height="53.07692307692308" id="death-date-30"></rect></g><g><rect x="86.52727272727273" y="46.15384615384615" width="2" height="53.84615384615385" id="death-date-31"></rect></g><g><rect x="82.96363636363637" y="57.692307692307686" width="2" height="42.307692307692314" id="death-date-32"></rect></g><g><rect x="79.4" y="56.92307692307692" width="2" height="43.07692307692308" id="death-date-33"></rect></g><g><rect x="75.83636363636364" y="60.769230769230774" width="2" height="39.230769230769226" id="death-date-34"></rect></g><g><rect x="72.27272727272727" y="66.15384615384615" width="2" height="33.846153846153854" id="death-date-35"></rect></g><g><rect x="68.70909090909092" y="60" width="2" height="40" id="death-date-36"></rect></g><g><rect x="65.14545454545454" y="60" width="2" height="40" id="death-date-37"></rect></g><g><rect x="61.58181818181818" y="75.38461538461539" width="2" height="24.615384615384613" id="death-date-38"></rect></g><g><rect x="58.018181818181816" y="63.07692307692307" width="2" height="36.92307692307693" id="death-date-39"></rect></g><g><rect x="54.454545454545446" y="81.53846153846153" width="2" height="18.461538461538467" id="death-date-40"></rect></g><g><rect x="50.89090909090908" y="73.84615384615385" width="2" height="26.153846153846146" id="death-date-41"></rect></g><g><rect x="47.32727272727273" y="74.61538461538461" width="2" height="25.384615384615387" id="death-date-42"></rect></g><g><rect x="43.76363636363636" y="74.61538461538461" width="2" height="25.384615384615387" id="death-date-43"></rect></g><g><rect x="40.199999999999996" y="80" width="2" height="20" id="death-date-44"></rect></g><g><rect x="36.636363636363626" y="80" width="2" height="20" id="death-date-45"></rect></g><g><rect x="33.072727272727285" y="82.3076923076923" width="2" height="17.692307692307693" id="death-date-46"></rect></g><g><rect x="29.509090909090922" y="72.3076923076923" width="2" height="27.692307692307693" id="death-date-47"></rect></g><g><rect x="25.945454545454556" y="77.6923076923077" width="2" height="22.307692307692307" id="death-date-48"></rect></g><g><rect x="22.38181818181819" y="84.61538461538461" width="2" height="15.384615384615387" id="death-date-49"></rect></g><g><rect x="18.818181818181824" y="80" width="2" height="20" id="death-date-50"></rect></g><g><rect x="15.254545454545461" y="81.53846153846153" width="2" height="18.461538461538467" id="death-date-51"></rect></g><g><rect x="11.690909090909095" y="91.53846153846153" width="2" height="8.461538461538467" id="death-date-52"></rect></g><g><rect x="8.12727272727273" y="83.07692307692307" width="2" height="16.923076923076934" id="death-date-53"></rect></g><g><rect x="4.563636363636365" y="85.38461538461539" width="2" height="14.615384615384613" id="death-date-54"></rect></g><g><rect x="1" y="83.07692307692307" width="2" height="16.923076923076934" id="death-date-55"></rect></g></g><g class="fg-line death-date" fill="none" stroke="#92c5de" stroke-width="2" stroke-linecap="round"><path d="M198,20.989010989010993L194.43636363636364,19.780219780219777L190.87272727272727,19.12087912087912L187.30909090909088,19.670329670329668L183.74545454545455,22.307692307692307L180.1818181818182,18.681318681318682L176.61818181818182,18.461538461538463L173.05454545454546,19.23076923076923L169.49090909090907,18.131868131868135L165.92727272727274,17.582417582417587L162.36363636363637,17.802197802197796L158.8,17.362637362637358L155.23636363636365,20.329670329670336L151.6727272727273,22.417582417582416L148.1090909090909,24.28571428571429L144.54545454545453,27.032967032967026L140.9818181818182,27.582417582417584L137.41818181818184,26.37362637362638L133.85454545454544,28.68131868131869L130.29090909090908,31.208791208791208L126.72727272727273,29.340659340659336L123.16363636363636,31.318681318681318L119.6,33.07692307692308L116.03636363636363,36.703296703296694L112.47272727272728,40.76923076923077L108.90909090909089,41.098901098901095L105.34545454545456,43.18681318681319L101.78181818181817,49.010989010989L98.21818181818183,51.53846153846153L94.65454545454546,54.3956043956044L91.09090909090911,56.37362637362637L87.52727272727273,58.241758241758234L83.96363636363637,62.417582417582416L80.4,63.18681318681318L76.83636363636364,66.70329670329672L73.27272727272727,68.57142857142857L69.70909090909092,69.78021978021978L66.14545454545454,71.86813186813187L62.58181818181818,74.72527472527473L59.018181818181816,75.38461538461539L55.454545454545446,78.13186813186813L51.89090909090908,76.8131868131868L48.32727272727273,77.36263736263737L44.76363636363636,78.79120879120879L41.199999999999996,79.56043956043956L37.636363636363626,79.78021978021978L34.072727272727285,81.42857142857143L30.509090909090922,81.53846153846153L26.945454545454556,83.4065934065934L23.38181818181819,84.17582417582418L19.818181818181824,85.05494505494505L16.25454545454546,86.04395604395604L12.690909090909095,86.5934065934066L9.12727272727273,86.04395604395604L5.563636363636365,86.48351648351648L2,86.7032967032967"></path></g></svg>