<svg meta="{&quot;DATA_PUBLISHED_DATE&quot;:&quot;2022-03-22&quot;,&quot;RENDER_DATE&quot;:&quot;2022-03-22&quot;,&quot;FIRST_DATE&quot;:&quot;2022-01-17&quot;,&quot;LAST_DATE&quot;:&quot;2022-03-13&quot;}" xmlns="http://www.w3.org/2000/svg" viewBox="0,0,200,100"><g transform="translate(0,0)"></g><g class="fg-bars cases-ep" fill="#00183f" stroke="none"><g><rect x="197" y="99.1025" width="2" height="0.8974999999999937" id="cases-ep-0"></rect></g><g><rect x="193.43636363636364" y="98.8725" width="2" height="1.1274999999999977" id="cases-ep-1"></rect></g><g><rect x="189.87272727272727" y="98.185" width="2" height="1.8149999999999977" id="cases-ep-2"></rect></g><g><rect x="186.30909090909088" y="97.95833333333334" width="2" height="2.041666666666657" id="cases-ep-3"></rect></g><g><rect x="182.74545454545455" y="97.57583333333332" width="2" height="2.424166666666679" id="cases-ep-4"></rect></g><g><rect x="179.1818181818182" y="97.34916666666666" width="2" height="2.6508333333333383" id="cases-ep-5"></rect></g><g><rect x="175.61818181818182" y="96.89166666666667" width="2" height="3.1083333333333343" id="cases-ep-6"></rect></g><g><rect x="172.05454545454546" y="98.55333333333334" width="2" height="1.4466666666666583" id="cases-ep-7"></rect></g><g><rect x="168.49090909090907" y="98.3175" width="2" height="1.6825000000000045" id="cases-ep-8"></rect></g><g><rect x="164.92727272727274" y="97.4275" width="2" height="2.572500000000005" id="cases-ep-9"></rect></g><g><rect x="161.36363636363637" y="97.06916666666666" width="2" height="2.9308333333333394" id="cases-ep-10"></rect></g><g><rect x="157.8" y="96.74666666666667" width="2" height="3.2533333333333303" id="cases-ep-11"></rect></g><g><rect x="154.23636363636365" y="96.16833333333334" width="2" height="3.8316666666666634" id="cases-ep-12"></rect></g><g><rect x="150.6727272727273" y="95.675" width="2" height="4.325000000000003" id="cases-ep-13"></rect></g><g><rect x="147.1090909090909" y="98.05583333333333" width="2" height="1.9441666666666748" id="cases-ep-14"></rect></g><g><rect x="143.54545454545453" y="97.78583333333334" width="2" height="2.2141666666666566" id="cases-ep-15"></rect></g><g><rect x="139.9818181818182" y="96.075" width="2" height="3.924999999999997" id="cases-ep-16"></rect></g><g><rect x="136.41818181818184" y="95.79083333333334" width="2" height="4.209166666666661" id="cases-ep-17"></rect></g><g><rect x="132.85454545454544" y="95.37916666666668" width="2" height="4.620833333333323" id="cases-ep-18"></rect></g><g><rect x="129.29090909090908" y="94.095" width="2" height="5.905000000000001" id="cases-ep-19"></rect></g><g><rect x="125.72727272727273" y="95.58" width="2" height="4.420000000000002" id="cases-ep-20"></rect></g><g><rect x="122.16363636363636" y="97.03666666666668" width="2" height="2.963333333333324" id="cases-ep-21"></rect></g><g><rect x="118.6" y="96.52499999999999" width="2" height="3.4750000000000085" id="cases-ep-22"></rect></g><g><rect x="115.03636363636363" y="94.155" width="2" height="5.844999999999999" id="cases-ep-23"></rect></g><g><rect x="111.47272727272728" y="93.24916666666667" width="2" height="6.750833333333333" id="cases-ep-24"></rect></g><g><rect x="107.90909090909089" y="92.21583333333334" width="2" height="7.784166666666664" id="cases-ep-25"></rect></g><g><rect x="104.34545454545456" y="90.96833333333333" width="2" height="9.031666666666666" id="cases-ep-26"></rect></g><g><rect x="100.78181818181817" y="89.33583333333334" width="2" height="10.66416666666666" id="cases-ep-27"></rect></g><g><rect x="97.21818181818183" y="95.40833333333333" width="2" height="4.591666666666669" id="cases-ep-28"></rect></g><g><rect x="93.65454545454546" y="94.0925" width="2" height="5.907499999999999" id="cases-ep-29"></rect></g><g><rect x="90.09090909090911" y="88.58083333333333" width="2" height="11.41916666666667" id="cases-ep-30"></rect></g><g><rect x="86.52727272727273" y="88.29333333333334" width="2" height="11.706666666666663" id="cases-ep-31"></rect></g><g><rect x="82.96363636363637" y="86.63083333333333" width="2" height="13.369166666666672" id="cases-ep-32"></rect></g><g><rect x="79.4" y="85.16333333333334" width="2" height="14.836666666666659" id="cases-ep-33"></rect></g><g><rect x="75.83636363636364" y="81.54166666666667" width="2" height="18.45833333333333" id="cases-ep-34"></rect></g><g><rect x="72.27272727272727" y="91.88499999999999" width="2" height="8.115000000000009" id="cases-ep-35"></rect></g><g><rect x="68.70909090909092" y="90.17166666666667" width="2" height="9.828333333333333" id="cases-ep-36"></rect></g><g><rect x="65.14545454545454" y="81.825" width="2" height="18.174999999999997" id="cases-ep-37"></rect></g><g><rect x="61.58181818181818" y="80.02833333333334" width="2" height="19.971666666666664" id="cases-ep-38"></rect></g><g><rect x="58.018181818181816" y="77.35083333333334" width="2" height="22.64916666666666" id="cases-ep-39"></rect></g><g><rect x="54.454545454545446" y="72.86083333333333" width="2" height="27.139166666666668" id="cases-ep-40"></rect></g><g><rect x="50.89090909090908" y="67.96333333333334" width="2" height="32.03666666666666" id="cases-ep-41"></rect></g><g><rect x="47.32727272727273" y="87.35083333333333" width="2" height="12.649166666666673" id="cases-ep-42"></rect></g><g><rect x="43.76363636363636" y="82.76916666666668" width="2" height="17.230833333333322" id="cases-ep-43"></rect></g><g><rect x="40.199999999999996" y="68.03666666666666" width="2" height="31.96333333333334" id="cases-ep-44"></rect></g><g><rect x="36.636363636363626" y="63.525833333333324" width="2" height="36.474166666666676" id="cases-ep-45"></rect></g><g><rect x="33.072727272727285" y="57.17166666666667" width="2" height="42.82833333333333" id="cases-ep-46"></rect></g><g><rect x="29.509090909090922" y="50.40416666666667" width="2" height="49.59583333333333" id="cases-ep-47"></rect></g><g><rect x="25.945454545454556" y="41.80916666666666" width="2" height="58.19083333333334" id="cases-ep-48"></rect></g><g><rect x="22.38181818181819" y="76.59" width="2" height="23.409999999999997" id="cases-ep-49"></rect></g><g><rect x="18.818181818181824" y="67.02583333333334" width="2" height="32.97416666666666" id="cases-ep-50"></rect></g><g><rect x="15.254545454545461" y="36.11416666666667" width="2" height="63.88583333333333" id="cases-ep-51"></rect></g><g><rect x="11.690909090909095" y="25.708333333333332" width="2" height="74.29166666666667" id="cases-ep-52"></rect></g><g><rect x="8.12727272727273" y="16.43" width="2" height="83.57" id="cases-ep-53"></rect></g><g><rect x="4.563636363636365" y="1.0458333333333347" width="2" height="98.95416666666667" id="cases-ep-54"></rect></g><g><rect x="1" y="32.88833333333333" width="2" height="67.11166666666668" id="cases-ep-55"></rect></g></g><g class="fg-line cases-ep" fill="none" stroke="#92c5de" stroke-width="2" stroke-linecap="round"><path d="M198,97.99071428571429L194.43636363636364,97.9122619047619L190.87272727272727,97.83297619047619L187.30909090909088,97.7247619047619L183.74545454545455,97.5977380952381L180.1818181818182,97.47928571428571L176.61818181818182,97.31059523809525L173.05454545454546,97.13678571428571L169.49090909090907,97.0657142857143L165.92727272727274,96.9897619047619L162.36363636363637,96.79654761904763L158.8,96.61392857142857L155.23636363636365,96.41857142857143L151.6727272727273,96.12238095238095L148.1090909090909,96.10880952380953L144.54545454545453,95.96321428571429L140.9818181818182,95.78309523809524L137.41818181818184,95.50880952380952L133.85454545454544,95.14571428571429L130.29090909090908,94.69380952380952L126.72727272727273,94.24714285714286L123.16363636363636,93.35511904761906L119.6,93.1225L116.03636363636363,92.77499999999999L112.47272727272728,91.97869047619048L108.90909090909089,91.27071428571428L105.34545454545456,90.47285714285714L101.78181818181817,89.64357142857142L98.21818181818183,88.53011904761905L94.65454545454546,88.02678571428572L91.09090909090911,87.46666666666667L87.52727272727273,86.50154761904763L83.96363636363637,85.32083333333334L80.4,83.99511904761906L76.83636363636364,82.23761904761905L73.27272727272727,80.29785714285714L69.70909090909092,79.65011904761906L66.14545454545454,78.59261904761905L62.58181818181818,76.62285714285714L59.018181818181816,74.26535714285714L55.454545454545446,71.38261904761904L51.89090909090908,68.17452380952382L48.32727272727273,64.43821428571428L44.76363636363636,62.90095238095238L41.199999999999996,60.65190476190476L37.636363636363626,56.091547619047624L34.072727272727285,50.68904761904762L30.509090909090922,44.868809523809524L26.945454545454556,37.81761904761905L23.38181818181819,36.543214285714285L19.818181818181824,35.1320238095238L16.25454545454546,32.959047619047624L12.690909090909095,29.81380952380953L9.12727272727273,26.94833333333333L5.563636363636365,23.94857142857143L2,22.135952380952382"></path></g></svg>