<svg about="DATA_PUBLISHED_DATE:2022-02-02,RENDER_DATE:2022-02-02" xmlns="http://www.w3.org/2000/svg" viewBox="0,0,200,100"><g transform="translate(0,0)"></g><g class="fg-bars tests-vaccines" fill="#00183f" stroke="none"><g><rect x="197" y="63.476" width="2" height="36.524" id="tests-vaccines-0"></rect></g><g><rect x="193.43636363636364" y="63.477428571428575" width="2" height="36.522571428571425" id="tests-vaccines-1"></rect></g><g><rect x="189.87272727272727" y="87.86771428571429" width="2" height="12.132285714285715" id="tests-vaccines-2"></rect></g><g><rect x="186.30909090909088" y="74.36342857142857" width="2" height="25.63657142857143" id="tests-vaccines-3"></rect></g><g><rect x="182.74545454545455" y="50.232571428571426" width="2" height="49.767428571428574" id="tests-vaccines-4"></rect></g><g><rect x="179.1818181818182" y="57.637714285714296" width="2" height="42.362285714285704" id="tests-vaccines-5"></rect></g><g><rect x="175.61818181818182" y="55.577999999999996" width="2" height="44.422000000000004" id="tests-vaccines-6"></rect></g><g><rect x="172.05454545454546" y="54.76942857142857" width="2" height="45.23057142857143" id="tests-vaccines-7"></rect></g><g><rect x="168.49090909090907" y="61.715428571428575" width="2" height="38.284571428571425" id="tests-vaccines-8"></rect></g><g><rect x="164.92727272727274" y="85.04057142857143" width="2" height="14.959428571428575" id="tests-vaccines-9"></rect></g><g><rect x="161.36363636363637" y="68.1662857142857" width="2" height="31.833714285714294" id="tests-vaccines-10"></rect></g><g><rect x="157.8" y="37.861714285714285" width="2" height="62.138285714285715" id="tests-vaccines-11"></rect></g><g><rect x="154.23636363636365" y="46.953714285714284" width="2" height="53.046285714285716" id="tests-vaccines-12"></rect></g><g><rect x="150.6727272727273" y="44.49685714285714" width="2" height="55.50314285714286" id="tests-vaccines-13"></rect></g><g><rect x="147.1090909090909" y="43.138285714285715" width="2" height="56.861714285714285" id="tests-vaccines-14"></rect></g><g><rect x="143.54545454545453" y="46.616857142857135" width="2" height="53.383142857142865" id="tests-vaccines-15"></rect></g><g><rect x="139.9818181818182" y="81.95457142857143" width="2" height="18.045428571428573" id="tests-vaccines-16"></rect></g><g><rect x="136.41818181818184" y="57.92028571428571" width="2" height="42.07971428571429" id="tests-vaccines-17"></rect></g><g><rect x="132.85454545454544" y="23.94371428571429" width="2" height="76.0562857142857" id="tests-vaccines-18"></rect></g><g><rect x="129.29090909090908" y="34.218" width="2" height="65.782" id="tests-vaccines-19"></rect></g><g><rect x="125.72727272727273" y="36.80114285714286" width="2" height="63.19885714285714" id="tests-vaccines-20"></rect></g><g><rect x="122.16363636363636" y="37.948857142857136" width="2" height="62.051142857142864" id="tests-vaccines-21"></rect></g><g><rect x="118.6" y="42.84057142857143" width="2" height="57.15942857142857" id="tests-vaccines-22"></rect></g><g><rect x="115.03636363636363" y="84.61114285714287" width="2" height="15.388857142857134" id="tests-vaccines-23"></rect></g><g><rect x="111.47272727272728" y="97.74685714285715" width="2" height="2.253142857142848" id="tests-vaccines-24"></rect></g><g><rect x="107.90909090909089" y="78.18428571428572" width="2" height="21.81571428571428" id="tests-vaccines-25"></rect></g><g><rect x="104.34545454545456" y="35.849714285714285" width="2" height="64.15028571428572" id="tests-vaccines-26"></rect></g><g><rect x="100.78181818181817" y="31.115142857142853" width="2" height="68.88485714285714" id="tests-vaccines-27"></rect></g><g><rect x="97.21818181818183" y="31.066285714285712" width="2" height="68.93371428571429" id="tests-vaccines-28"></rect></g><g><rect x="93.65454545454546" y="39.68057142857143" width="2" height="60.31942857142857" id="tests-vaccines-29"></rect></g><g><rect x="90.09090909090911" y="83.99057142857143" width="2" height="16.009428571428572" id="tests-vaccines-30"></rect></g><g><rect x="86.52727272727273" y="99.73657142857142" width="2" height="0.2634285714285767" id="tests-vaccines-31"></rect></g><g><rect x="82.96363636363637" y="86.99857142857142" width="2" height="13.001428571428576" id="tests-vaccines-32"></rect></g><g><rect x="79.4" y="37.756" width="2" height="62.244" id="tests-vaccines-33"></rect></g><g><rect x="75.83636363636364" y="26.618" width="2" height="73.382" id="tests-vaccines-34"></rect></g><g><rect x="72.27272727272727" y="24.551999999999996" width="2" height="75.44800000000001" id="tests-vaccines-35"></rect></g><g><rect x="68.70909090909092" y="29.538285714285717" width="2" height="70.46171428571428" id="tests-vaccines-36"></rect></g><g><rect x="65.14545454545454" y="79.23485714285714" width="2" height="20.765142857142862" id="tests-vaccines-37"></rect></g><g><rect x="61.58181818181818" y="58.83085714285714" width="2" height="41.16914285714286" id="tests-vaccines-38"></rect></g><g><rect x="58.018181818181816" y="25.323428571428575" width="2" height="74.67657142857142" id="tests-vaccines-39"></rect></g><g><rect x="54.454545454545446" y="34.55771428571428" width="2" height="65.44228571428572" id="tests-vaccines-40"></rect></g><g><rect x="50.89090909090908" y="32.984" width="2" height="67.01599999999999" id="tests-vaccines-41"></rect></g><g><rect x="47.32727272727273" y="34.809999999999995" width="2" height="65.19" id="tests-vaccines-42"></rect></g><g><rect x="43.76363636363636" y="37.605714285714285" width="2" height="62.394285714285715" id="tests-vaccines-43"></rect></g><g><rect x="40.199999999999996" y="79.60657142857143" width="2" height="20.393428571428572" id="tests-vaccines-44"></rect></g><g><rect x="36.636363636363626" y="53.69914285714286" width="2" height="46.30085714285714" id="tests-vaccines-45"></rect></g><g><rect x="33.072727272727285" y="18.969142857142863" width="2" height="81.03085714285714" id="tests-vaccines-46"></rect></g><g><rect x="29.509090909090922" y="27.11085714285715" width="2" height="72.88914285714284" id="tests-vaccines-47"></rect></g><g><rect x="25.945454545454556" y="24.68828571428572" width="2" height="75.31171428571429" id="tests-vaccines-48"></rect></g><g><rect x="22.38181818181819" y="24.95628571428572" width="2" height="75.04371428571429" id="tests-vaccines-49"></rect></g><g><rect x="18.818181818181824" y="30.32485714285714" width="2" height="69.67514285714286" id="tests-vaccines-50"></rect></g><g><rect x="15.254545454545461" y="75.95228571428572" width="2" height="24.047714285714278" id="tests-vaccines-51"></rect></g><g><rect x="11.690909090909095" y="47.21342857142857" width="2" height="52.78657142857143" id="tests-vaccines-52"></rect></g><g><rect x="8.12727272727273" y="8.148857142857146" width="2" height="91.85114285714286" id="tests-vaccines-53"></rect></g><g><rect x="4.563636363636365" y="19.066571428571432" width="2" height="80.93342857142856" id="tests-vaccines-54"></rect></g><g><rect x="1" y="20.980285714285717" width="2" height="79.01971428571429" id="tests-vaccines-55"></rect></g></g><g class="fg-line tests-vaccines" fill="none" stroke="#92c5de" stroke-width="2" stroke-linecap="round"><path d="M198,64.66183673469388L194.43636363636364,63.41804081632654L190.87272727272727,63.16632653061225L187.30909090909088,62.762448979591845L183.74545454545455,61.87714285714285L180.1818181818182,60.10987755102041L176.61818181818182,58.5835918367347L173.05454545454546,57.00057142857142L169.49090909090907,55.33897959183673L165.92727272727274,53.182040816326534L162.36363636363637,52.74118367346939L158.8,51.277469387755104L155.23636363636365,49.289183673469395L151.6727272727273,47.46979591836734L148.1090909090909,46.37040816326531L144.54545454545453,45.629061224489796L140.9818181818182,45.08959183673469L137.41818181818184,45.469102040816324L133.85454545454544,51.15861224489796L130.29090909090908,58.90726530612245L126.72727272727273,59.140367346938774L123.16363636363636,58.32808163265306L119.6,57.344857142857144L116.03636363636363,56.89342857142857L112.47272727272728,56.80477551020409L108.90909090909089,57.08902040816326L105.34545454545456,58.34820408163266L101.78181818181817,58.62053061224489L98.21818181818183,57.97808163265306L94.65454545454546,57.047469387755115L91.09090909090911,55.59857142857143L87.52727272727273,54.9191836734694L83.96363636363637,49.07551020408163L80.4,40.26477551020409L76.83636363636364,39.80787755102041L73.27272727272727,40.71730612244898L69.70909090909092,42.18273469387754L66.14545454545454,43.33522448979592L62.58181818181818,43.388326530612254L59.018181818181816,42.65522448979592L55.454545454545446,41.74746938775511L51.89090909090908,40.68363265306123L48.32727272727273,39.4985306122449L44.76363636363636,38.09085714285714L41.199999999999996,37.05073469387755L37.636363636363626,36.52869387755102L34.072727272727285,35.60216326530612L30.509090909090922,34.0564081632653L26.945454545454556,32.907224489795915L23.38181818181819,32.37751020408163L19.818181818181824,32.945959183673466L16.25454545454546,34.116857142857135L12.690909090909095,34.90424489795918L9.12727272727273,37.75310204081632L5.563636363636365,44.59628571428571L2,55.95297959183674"></path></g></svg>