<svg viewBox="0,0,200,100"><g transform="translate(0,0)"></g><g class="fg-bars cases-ep"><g><rect x="200" y="38.427777777777784" width="2" height="61.572222222222216" id="cases-ep-0"></rect></g><g><rect x="196.36363636363637" y="71.30555555555556" width="2" height="28.694444444444443" id="cases-ep-1"></rect></g><g><rect x="192.72727272727272" y="75.70555555555556" width="2" height="24.294444444444437" id="cases-ep-2"></rect></g><g><rect x="189.0909090909091" y="67.12222222222222" width="2" height="32.87777777777778" id="cases-ep-3"></rect></g><g><rect x="185.45454545454544" y="49.72777777777778" width="2" height="50.27222222222222" id="cases-ep-4"></rect></g><g><rect x="181.8181818181818" y="43.09444444444445" width="2" height="56.90555555555555" id="cases-ep-5"></rect></g><g><rect x="178.1818181818182" y="33.30555555555556" width="2" height="66.69444444444444" id="cases-ep-6"></rect></g><g><rect x="174.54545454545456" y="33.95555555555556" width="2" height="66.04444444444444" id="cases-ep-7"></rect></g><g><rect x="170.9090909090909" y="28.90555555555555" width="2" height="71.09444444444445" id="cases-ep-8"></rect></g><g><rect x="167.27272727272728" y="65.42777777777778" width="2" height="34.57222222222222" id="cases-ep-9"></rect></g><g><rect x="163.63636363636363" y="58.277777777777786" width="2" height="41.722222222222214" id="cases-ep-10"></rect></g><g><rect x="160" y="38.955555555555556" width="2" height="61.044444444444444" id="cases-ep-11"></rect></g><g><rect x="156.36363636363637" y="32.211111111111116" width="2" height="67.78888888888889" id="cases-ep-12"></rect></g><g><rect x="152.72727272727275" y="25.961111111111112" width="2" height="74.03888888888889" id="cases-ep-13"></rect></g><g><rect x="149.0909090909091" y="23.744444444444447" width="2" height="76.25555555555556" id="cases-ep-14"></rect></g><g><rect x="145.45454545454547" y="16.51666666666667" width="2" height="83.48333333333333" id="cases-ep-15"></rect></g><g><rect x="141.8181818181818" y="59.36111111111111" width="2" height="40.63888888888889" id="cases-ep-16"></rect></g><g><rect x="138.1818181818182" y="51.46666666666666" width="2" height="48.53333333333334" id="cases-ep-17"></rect></g><g><rect x="134.54545454545453" y="26.916666666666668" width="2" height="73.08333333333333" id="cases-ep-18"></rect></g><g><rect x="130.9090909090909" y="23.850000000000005" width="2" height="76.14999999999999" id="cases-ep-19"></rect></g><g><rect x="127.27272727272727" y="17.422222222222217" width="2" height="82.57777777777778" id="cases-ep-20"></rect></g><g><rect x="123.63636363636363" y="15.416666666666668" width="2" height="84.58333333333333" id="cases-ep-21"></rect></g><g><rect x="120" y="12.038888888888888" width="2" height="87.96111111111111" id="cases-ep-22"></rect></g><g><rect x="116.36363636363636" y="55.42777777777778" width="2" height="44.57222222222222" id="cases-ep-23"></rect></g><g><rect x="112.72727272727275" y="47.33888888888889" width="2" height="52.66111111111111" id="cases-ep-24"></rect></g><g><rect x="109.09090909090908" y="24.13333333333333" width="2" height="75.86666666666667" id="cases-ep-25"></rect></g><g><rect x="105.45454545454547" y="19.32222222222222" width="2" height="80.67777777777778" id="cases-ep-26"></rect></g><g><rect x="101.81818181818181" y="14.833333333333332" width="2" height="85.16666666666667" id="cases-ep-27"></rect></g><g><rect x="98.18181818181819" y="11.022222222222222" width="2" height="88.97777777777777" id="cases-ep-28"></rect></g><g><rect x="94.54545454545456" y="10.650000000000004" width="2" height="89.35" id="cases-ep-29"></rect></g><g><rect x="90.90909090909092" y="52.71666666666667" width="2" height="47.28333333333333" id="cases-ep-30"></rect></g><g><rect x="87.27272727272728" y="47.00555555555555" width="2" height="52.99444444444445" id="cases-ep-31"></rect></g><g><rect x="83.63636363636364" y="29.14444444444444" width="2" height="70.85555555555555" id="cases-ep-32"></rect></g><g><rect x="80" y="23.90555555555556" width="2" height="76.09444444444443" id="cases-ep-33"></rect></g><g><rect x="76.36363636363637" y="22.66111111111111" width="2" height="77.33888888888889" id="cases-ep-34"></rect></g><g><rect x="72.72727272727273" y="20.98888888888889" width="2" height="79.0111111111111" id="cases-ep-35"></rect></g><g><rect x="69.0909090909091" y="22.76666666666667" width="2" height="77.23333333333333" id="cases-ep-36"></rect></g><g><rect x="65.45454545454545" y="53.64444444444445" width="2" height="46.35555555555555" id="cases-ep-37"></rect></g><g><rect x="61.81818181818181" y="53.31666666666667" width="2" height="46.68333333333333" id="cases-ep-38"></rect></g><g><rect x="58.18181818181818" y="38.96666666666667" width="2" height="61.03333333333333" id="cases-ep-39"></rect></g><g><rect x="54.54545454545454" y="35.272222222222226" width="2" height="64.72777777777777" id="cases-ep-40"></rect></g><g><rect x="50.90909090909091" y="34.8" width="2" height="65.2" id="cases-ep-41"></rect></g><g><rect x="47.272727272727266" y="38.09444444444444" width="2" height="61.90555555555556" id="cases-ep-42"></rect></g><g><rect x="43.636363636363626" y="35.40555555555556" width="2" height="64.59444444444443" id="cases-ep-43"></rect></g><g><rect x="39.99999999999999" y="64.71666666666667" width="2" height="35.28333333333333" id="cases-ep-44"></rect></g><g><rect x="36.36363636363635" y="62.83888888888889" width="2" height="37.16111111111111" id="cases-ep-45"></rect></g><g><rect x="32.72727272727274" y="55.48333333333333" width="2" height="44.51666666666667" id="cases-ep-46"></rect></g><g><rect x="29.0909090909091" y="54.20555555555555" width="2" height="45.79444444444445" id="cases-ep-47"></rect></g><g><rect x="25.454545454545464" y="51.67777777777778" width="2" height="48.32222222222222" id="cases-ep-48"></rect></g><g><rect x="21.818181818181827" y="54.07222222222222" width="2" height="45.92777777777778" id="cases-ep-49"></rect></g><g><rect x="18.181818181818187" y="53.833333333333336" width="2" height="46.166666666666664" id="cases-ep-50"></rect></g><g><rect x="14.54545454545455" y="73.69444444444444" width="2" height="26.305555555555557" id="cases-ep-51"></rect></g><g><rect x="10.909090909090914" y="74.33888888888889" width="2" height="25.66111111111111" id="cases-ep-52"></rect></g><g><rect x="7.272727272727275" y="67.11111111111111" width="2" height="32.888888888888886" id="cases-ep-53"></rect></g><g><rect x="3.6363636363636376" y="67.71666666666667" width="2" height="32.28333333333333" id="cases-ep-54"></rect></g><g><rect x="0" y="69.36111111111111" width="2" height="30.638888888888886" id="cases-ep-55"></rect></g></g><g class="fg-line cases-ep"><path d="M200,54.0984126984127L196.36363636363637,53.459523809523816L192.72727272727272,47.40238095238095L189.0909090909091,45.934126984126976L185.45454545454544,44.670634920634924L181.8181818181818,43.13174603174603L178.1818181818182,41.57698412698413L174.54545454545456,40.52777777777777L170.9090909090909,39.069047619047616L167.27272727272728,37.29920634920635L163.63636363636363,36.43253968253969L160,35.45952380952381L156.36363636363637,33.73968253968253L152.72727272727275,32.54523809523809L149.0909090909091,31.325396825396833L145.45454545454547,30.135714285714275L141.8181818181818,29.496031746031747L138.1818181818182,28.934126984126983L134.54545454545453,28.34444444444445L130.9090909090909,27.946825396825393L127.27272727272727,27.3L123.63636363636363,26.930158730158727L120,26.302380952380943L116.36363636363636,26.103968253968258L112.72727272727275,25.716666666666665L109.09090909090908,25.669047619047614L105.45454545454547,26.38492063492063L101.81818181818181,27.03968253968254L98.18181818181819,28.157936507936498L94.54545454545456,29.581746031746036L90.90909090909092,31.312698412698413L87.27272727272728,31.445238095238093L83.63636363636364,32.346825396825395L80,33.75L76.36363636363637,35.37380952380952L72.72727272727273,37.1079365079365L69.0909090909091,39.5515873015873L65.45454545454545,41.35714285714286L61.81818181818181,42.93888888888889L58.18181818181818,44.29920634920636L54.54545454545454,46.658730158730165L50.90909090909091,49.36349206349205L47.272727272727266,51.774603174603165L43.636363636363626,54.05714285714285L39.99999999999999,56.689682539682536L36.36363636363635,57.97222222222223L32.72727272727274,59.61507936507937L29.0909090909091,61.27619047619047L25.454545454545464,63.2063492063492L21.818181818181827,65.73253968253968L18.181818181818187,68.0611111111111L14.54545454545455,70.43492063492064L10.909090909090914,71.73253968253968L7.272727272727275,72.93015873015874L3.6363636363636376,74.78809523809524L0,76.57857142857142"></path></g></svg>