<svg meta="{&quot;DATA_PUBLISHED_DATE&quot;:&quot;2022-03-08&quot;,&quot;RENDER_DATE&quot;:&quot;2022-03-08&quot;,&quot;FIRST_DATE&quot;:&quot;2022-01-04&quot;,&quot;LAST_DATE&quot;:&quot;2022-02-28&quot;}" xmlns="http://www.w3.org/2000/svg" viewBox="0,0,200,100"><g transform="translate(0,0)"></g><g class="fg-bars tests-vaccines" fill="#00183f" stroke="none"><g><rect x="197" y="79.99285714285715" width="2" height="20.007142857142853" id="tests-vaccines-0"></rect></g><g><rect x="193.43636363636364" y="93.1675" width="2" height="6.832499999999996" id="tests-vaccines-1"></rect></g><g><rect x="189.87272727272727" y="86.4517857142857" width="2" height="13.548214285714295" id="tests-vaccines-2"></rect></g><g><rect x="186.30909090909088" y="74.20535714285714" width="2" height="25.79464285714286" id="tests-vaccines-3"></rect></g><g><rect x="182.74545454545455" y="81.16214285714285" width="2" height="18.837857142857146" id="tests-vaccines-4"></rect></g><g><rect x="179.1818181818182" y="81.1325" width="2" height="18.867500000000007" id="tests-vaccines-5"></rect></g><g><rect x="175.61818181818182" y="80.76" width="2" height="19.239999999999995" id="tests-vaccines-6"></rect></g><g><rect x="172.05454545454546" y="85.53428571428572" width="2" height="14.465714285714284" id="tests-vaccines-7"></rect></g><g><rect x="168.49090909090907" y="92.4625" width="2" height="7.537499999999994" id="tests-vaccines-8"></rect></g><g><rect x="164.92727272727274" y="84.19571428571429" width="2" height="15.804285714285712" id="tests-vaccines-9"></rect></g><g><rect x="161.36363636363637" y="70.49785714285714" width="2" height="29.502142857142857" id="tests-vaccines-10"></rect></g><g><rect x="157.8" y="78.58142857142857" width="2" height="21.418571428571425" id="tests-vaccines-11"></rect></g><g><rect x="154.23636363636365" y="78.83892857142857" width="2" height="21.161071428571432" id="tests-vaccines-12"></rect></g><g><rect x="150.6727272727273" y="79.63071428571429" width="2" height="20.36928571428571" id="tests-vaccines-13"></rect></g><g><rect x="147.1090909090909" y="82.17035714285714" width="2" height="17.829642857142858" id="tests-vaccines-14"></rect></g><g><rect x="143.54545454545453" y="93.13714285714285" width="2" height="6.862857142857152" id="tests-vaccines-15"></rect></g><g><rect x="139.9818181818182" y="81.98035714285714" width="2" height="18.019642857142856" id="tests-vaccines-16"></rect></g><g><rect x="136.41818181818184" y="65.84214285714285" width="2" height="34.157857142857154" id="tests-vaccines-17"></rect></g><g><rect x="132.85454545454544" y="73.985" width="2" height="26.015" id="tests-vaccines-18"></rect></g><g><rect x="129.29090909090908" y="72.70642857142857" width="2" height="27.293571428571425" id="tests-vaccines-19"></rect></g><g><rect x="125.72727272727273" y="72.97107142857142" width="2" height="27.02892857142858" id="tests-vaccines-20"></rect></g><g><rect x="122.16363636363636" y="72.13821428571428" width="2" height="27.861785714285716" id="tests-vaccines-21"></rect></g><g><rect x="118.6" y="89.28107142857142" width="2" height="10.718928571428577" id="tests-vaccines-22"></rect></g><g><rect x="115.03636363636363" y="75.86142857142858" width="2" height="24.138571428571424" id="tests-vaccines-23"></rect></g><g><rect x="111.47272727272728" y="55.75535714285714" width="2" height="44.24464285714286" id="tests-vaccines-24"></rect></g><g><rect x="107.90909090909089" y="66.66535714285715" width="2" height="33.33464285714285" id="tests-vaccines-25"></rect></g><g><rect x="104.34545454545456" y="65.51" width="2" height="34.489999999999995" id="tests-vaccines-26"></rect></g><g><rect x="100.78181818181817" y="64.80142857142856" width="2" height="35.19857142857144" id="tests-vaccines-27"></rect></g><g><rect x="97.21818181818183" y="61.30892857142858" width="2" height="38.69107142857142" id="tests-vaccines-28"></rect></g><g><rect x="93.65454545454546" y="86.65178571428571" width="2" height="13.348214285714292" id="tests-vaccines-29"></rect></g><g><rect x="90.09090909090911" y="68.21249999999999" width="2" height="31.78750000000001" id="tests-vaccines-30"></rect></g><g><rect x="86.52727272727273" y="40.59392857142857" width="2" height="59.40607142857143" id="tests-vaccines-31"></rect></g><g><rect x="82.96363636363637" y="53.115" width="2" height="46.885" id="tests-vaccines-32"></rect></g><g><rect x="79.4" y="52.88785714285714" width="2" height="47.11214285714286" id="tests-vaccines-33"></rect></g><g><rect x="75.83636363636364" y="52.32892857142857" width="2" height="47.67107142857143" id="tests-vaccines-34"></rect></g><g><rect x="72.27272727272727" y="52.62678571428572" width="2" height="47.37321428571428" id="tests-vaccines-35"></rect></g><g><rect x="68.70909090909092" y="84.15857142857142" width="2" height="15.84142857142858" id="tests-vaccines-36"></rect></g><g><rect x="65.14545454545454" y="66.09357142857142" width="2" height="33.90642857142858" id="tests-vaccines-37"></rect></g><g><rect x="61.58181818181818" y="35.03892857142857" width="2" height="64.96107142857143" id="tests-vaccines-38"></rect></g><g><rect x="58.018181818181816" y="45.03107142857142" width="2" height="54.96892857142858" id="tests-vaccines-39"></rect></g><g><rect x="54.454545454545446" y="42.623571428571424" width="2" height="57.376428571428576" id="tests-vaccines-40"></rect></g><g><rect x="50.89090909090908" y="41.85714285714286" width="2" height="58.14285714285714" id="tests-vaccines-41"></rect></g><g><rect x="47.32727272727273" y="50.581428571428575" width="2" height="49.418571428571425" id="tests-vaccines-42"></rect></g><g><rect x="43.76363636363636" y="80.53428571428572" width="2" height="19.465714285714284" id="tests-vaccines-43"></rect></g><g><rect x="40.199999999999996" y="58.55250000000001" width="2" height="41.44749999999999" id="tests-vaccines-44"></rect></g><g><rect x="36.636363636363626" y="19.750714285714288" width="2" height="80.24928571428572" id="tests-vaccines-45"></rect></g><g><rect x="33.072727272727285" y="31.292142857142856" width="2" height="68.70785714285714" id="tests-vaccines-46"></rect></g><g><rect x="29.509090909090922" y="28.917142857142853" width="2" height="71.08285714285715" id="tests-vaccines-47"></rect></g><g><rect x="25.945454545454556" y="27.472142857142856" width="2" height="72.52785714285714" id="tests-vaccines-48"></rect></g><g><rect x="22.38181818181819" y="31.76607142857143" width="2" height="68.23392857142858" id="tests-vaccines-49"></rect></g><g><rect x="18.818181818181824" y="77.15714285714286" width="2" height="22.84285714285714" id="tests-vaccines-50"></rect></g><g><rect x="15.254545454545461" y="46.06714285714286" width="2" height="53.93285714285714" id="tests-vaccines-51"></rect></g><g><rect x="11.690909090909095" y="2.8903571428571473" width="2" height="97.10964285714286" id="tests-vaccines-52"></rect></g><g><rect x="8.12727272727273" y="16.398928571428574" width="2" height="83.60107142857143" id="tests-vaccines-53"></rect></g><g><rect x="4.563636363636365" y="19.728928571428572" width="2" height="80.27107142857143" id="tests-vaccines-54"></rect></g><g><rect x="1" y="21.29035714285714" width="2" height="78.70964285714285" id="tests-vaccines-55"></rect></g></g><g class="fg-line tests-vaccines" fill="none" stroke="#92c5de" stroke-width="2" stroke-linecap="round"><path d="M198,82.41030612244899L194.43636363636364,83.20193877551021L190.87272727272727,83.10122448979592L187.30909090909088,82.77892857142857L183.74545454545455,82.24928571428572L180.1818181818182,81.88061224489796L176.61818181818182,81.55295918367347L173.05454545454546,81.39163265306122L169.49090909090907,80.91107142857143L165.92727272727274,81.00744897959183L162.36363636363637,80.6909693877551L158.8,80.02586734693877L155.23636363636365,79.36923469387756L151.6727272727273,78.49316326530612L148.1090909090909,77.54178571428571L144.54545454545453,76.10862244897959L140.9818181818182,75.55775510204082L137.41818181818184,74.68362244897959L133.85454545454544,73.24265306122449L130.29090909090908,72.19698979591837L126.72727272727273,71.16892857142857L123.16363636363636,70.00183673469388L119.6,68.45479591836734L116.03636363636363,68.07918367346939L112.47272727272728,66.98647959183674L108.90909090909089,64.82056122448981L105.34545454545456,62.884795918367345L101.78181818181817,61.08163265306123L98.21818181818183,59.29984693877552L94.65454545454546,58.05954081632654L91.09090909090911,57.70336734693877L87.52727272727273,57.40066326530613L83.96363636363637,56.60709183673469L80.4,55.45224489795918L76.83636363636364,53.98591836734694L73.27272727272727,52.48994897959183L69.70909090909092,52.19775510204081L66.14545454545454,51.67999999999999L62.58181818181818,50.60270408163265L59.018181818181816,48.418673469387755L55.454545454545446,46.455969387755104L51.89090909090908,44.49790816326531L48.32727272727273,42.442908163265315L44.76363636363636,39.754999999999995L41.199999999999996,39.272551020408166L37.636363636363626,37.48892857142857L34.072727272727285,35.08030612244898L30.509090909090922,32.95270408163265L26.945454545454556,31.64010204081632L23.38181818181819,30.756989795918365L19.818181818181824,30.122499999999995L16.25454545454546,30.60178571428571L12.690909090909095,37.88433673469388L9.12727272727273,47.796989795918364L5.563636363636365,48.10086734693878L2,47.06775510204082"></path></g></svg>