<svg meta="{&quot;DATA_PUBLISHED_DATE&quot;:&quot;2022-12-01&quot;,&quot;RENDER_DATE&quot;:&quot;2022-12-08&quot;,&quot;FIRST_DATE&quot;:&quot;2022-09-29&quot;,&quot;LAST_DATE&quot;:&quot;2022-11-23&quot;}" xmlns="http://www.w3.org/2000/svg" viewBox="0,0,200,100"><g transform="translate(0,0)"></g><g class="fg-bars tests-vaccines" fill="#00183f" stroke="none"><g><rect x="197" y="49.90846153846154" width="2" height="50.09153846153846" id="tests-vaccines-0"></rect></g><g><rect x="193.43636363636364" y="48.15153846153846" width="2" height="51.84846153846154" id="tests-vaccines-1"></rect></g><g><rect x="189.87272727272727" y="42.54538461538462" width="2" height="57.45461538461538" id="tests-vaccines-2"></rect></g><g><rect x="186.30909090909088" y="84.45538461538462" width="2" height="15.544615384615383" id="tests-vaccines-3"></rect></g><g><rect x="182.74545454545455" y="67.73923076923076" width="2" height="32.26076923076924" id="tests-vaccines-4"></rect></g><g><rect x="179.1818181818182" y="29.762307692307687" width="2" height="70.23769230769231" id="tests-vaccines-5"></rect></g><g><rect x="175.61818181818182" y="44.35153846153847" width="2" height="55.64846153846153" id="tests-vaccines-6"></rect></g><g><rect x="172.05454545454546" y="42.036923076923074" width="2" height="57.963076923076926" id="tests-vaccines-7"></rect></g><g><rect x="168.49090909090907" y="43.34615384615385" width="2" height="56.65384615384615" id="tests-vaccines-8"></rect></g><g><rect x="164.92727272727274" y="42.11846153846154" width="2" height="57.88153846153846" id="tests-vaccines-9"></rect></g><g><rect x="161.36363636363637" y="84.24692307692308" width="2" height="15.753076923076918" id="tests-vaccines-10"></rect></g><g><rect x="157.8" y="69.03076923076922" width="2" height="30.969230769230776" id="tests-vaccines-11"></rect></g><g><rect x="154.23636363636365" y="24.71923076923077" width="2" height="75.28076923076924" id="tests-vaccines-12"></rect></g><g><rect x="150.6727272727273" y="38.41" width="2" height="61.59" id="tests-vaccines-13"></rect></g><g><rect x="147.1090909090909" y="41.79846153846154" width="2" height="58.20153846153846" id="tests-vaccines-14"></rect></g><g><rect x="143.54545454545453" y="47.88384615384616" width="2" height="52.11615384615384" id="tests-vaccines-15"></rect></g><g><rect x="139.9818181818182" y="39.62" width="2" height="60.38" id="tests-vaccines-16"></rect></g><g><rect x="136.41818181818184" y="83.13076923076923" width="2" height="16.869230769230768" id="tests-vaccines-17"></rect></g><g><rect x="132.85454545454544" y="63.657692307692315" width="2" height="36.342307692307685" id="tests-vaccines-18"></rect></g><g><rect x="129.29090909090908" y="17.41846153846154" width="2" height="82.58153846153846" id="tests-vaccines-19"></rect></g><g><rect x="125.72727272727273" y="37.65923076923077" width="2" height="62.34076923076923" id="tests-vaccines-20"></rect></g><g><rect x="122.16363636363636" y="33.4023076923077" width="2" height="66.5976923076923" id="tests-vaccines-21"></rect></g><g><rect x="118.6" y="38.10461538461538" width="2" height="61.89538461538462" id="tests-vaccines-22"></rect></g><g><rect x="115.03636363636363" y="40.23" width="2" height="59.77" id="tests-vaccines-23"></rect></g><g><rect x="111.47272727272728" y="82.63384615384616" width="2" height="17.366153846153836" id="tests-vaccines-24"></rect></g><g><rect x="107.90909090909089" y="62.82076923076922" width="2" height="37.17923076923078" id="tests-vaccines-25"></rect></g><g><rect x="104.34545454545456" y="10.922307692307697" width="2" height="89.0776923076923" id="tests-vaccines-26"></rect></g><g><rect x="100.78181818181817" y="26.762307692307697" width="2" height="73.2376923076923" id="tests-vaccines-27"></rect></g><g><rect x="97.21818181818183" y="20.341538461538466" width="2" height="79.65846153846154" id="tests-vaccines-28"></rect></g><g><rect x="93.65454545454546" y="27.953076923076924" width="2" height="72.04692307692308" id="tests-vaccines-29"></rect></g><g><rect x="90.09090909090911" y="25.813846153846153" width="2" height="74.18615384615384" id="tests-vaccines-30"></rect></g><g><rect x="86.52727272727273" y="81.31153846153848" width="2" height="18.688461538461524" id="tests-vaccines-31"></rect></g><g><rect x="82.96363636363637" y="59.48230769230769" width="2" height="40.51769230769231" id="tests-vaccines-32"></rect></g><g><rect x="79.4" y="7.58692307692308" width="2" height="92.41307692307691" id="tests-vaccines-33"></rect></g><g><rect x="75.83636363636364" y="25.928461538461534" width="2" height="74.07153846153847" id="tests-vaccines-34"></rect></g><g><rect x="72.27272727272727" y="22.12384615384615" width="2" height="77.87615384615385" id="tests-vaccines-35"></rect></g><g><rect x="68.70909090909092" y="27.337692307692308" width="2" height="72.66230769230769" id="tests-vaccines-36"></rect></g><g><rect x="65.14545454545454" y="22.82923076923077" width="2" height="77.17076923076922" id="tests-vaccines-37"></rect></g><g><rect x="61.58181818181818" y="80.32846153846154" width="2" height="19.67153846153846" id="tests-vaccines-38"></rect></g><g><rect x="58.018181818181816" y="59.983076923076915" width="2" height="40.016923076923085" id="tests-vaccines-39"></rect></g><g><rect x="54.454545454545446" y="5.180769230769233" width="2" height="94.81923076923077" id="tests-vaccines-40"></rect></g><g><rect x="50.89090909090908" y="25.657692307692304" width="2" height="74.3423076923077" id="tests-vaccines-41"></rect></g><g><rect x="47.32727272727273" y="21.44769230769231" width="2" height="78.55230769230769" id="tests-vaccines-42"></rect></g><g><rect x="43.76363636363636" y="26.65692307692308" width="2" height="73.34307692307692" id="tests-vaccines-43"></rect></g><g><rect x="40.199999999999996" y="24.544615384615387" width="2" height="75.45538461538462" id="tests-vaccines-44"></rect></g><g><rect x="36.636363636363626" y="79.38307692307693" width="2" height="20.616923076923072" id="tests-vaccines-45"></rect></g><g><rect x="33.072727272727285" y="59.02" width="2" height="40.98" id="tests-vaccines-46"></rect></g><g><rect x="29.509090909090922" y="7.430000000000003" width="2" height="92.57" id="tests-vaccines-47"></rect></g><g><rect x="25.945454545454556" y="26.503846153846155" width="2" height="73.49615384615385" id="tests-vaccines-48"></rect></g><g><rect x="22.38181818181819" y="22.18307692307693" width="2" height="77.81692307692308" id="tests-vaccines-49"></rect></g><g><rect x="18.818181818181824" y="29.902307692307694" width="2" height="70.09769230769231" id="tests-vaccines-50"></rect></g><g><rect x="15.254545454545461" y="26.574615384615385" width="2" height="73.42538461538462" id="tests-vaccines-51"></rect></g><g><rect x="11.690909090909095" y="80.05384615384615" width="2" height="19.946153846153848" id="tests-vaccines-52"></rect></g><g><rect x="8.12727272727273" y="62.53999999999999" width="2" height="37.46000000000001" id="tests-vaccines-53"></rect></g><g><rect x="4.563636363636365" y="12.76384615384616" width="2" height="87.23615384615384" id="tests-vaccines-54"></rect></g><g><rect x="1" y="30.205384615384613" width="2" height="69.79461538461538" id="tests-vaccines-55"></rect></g></g><g class="fg-line tests-vaccines" fill="none" stroke="#92c5de" stroke-width="2" stroke-linecap="round"><path d="M198,52.41626373626374L194.43636363636364,51.291758241758245L190.87272727272727,50.60527472527473L187.30909090909088,50.54428571428571L183.74545454545455,50.51450549450549L180.1818181818182,50.699010989010986L176.61818181818182,49.97857142857143L173.05454545454546,49.12978021978023L169.49090909090907,49.09571428571427L165.92727272727274,49.74395604395604L162.36363636363637,49.387032967032965L158.8,49.22758241758242L155.23636363636365,48.46L151.6727272727273,47.417032967032966L148.1090909090909,47.309780219780215L144.54545454545453,46.11032967032966L140.9818181818182,44.7132967032967L137.41818181818184,44.800439560439564L133.85454545454544,44.72945054945055L130.29090909090908,44.60989010989012L126.72727272727273,43.68186813186813L123.16363636363636,42.12516483516484L119.6,40.25934065934066L116.03636363636363,38.80912087912088L112.47272727272728,36.74967032967034L108.90909090909089,36.56076923076923L105.34545454545456,36.08384615384615L101.78181818181817,35.60736263736264L98.21818181818183,35.488241758241756L94.65454545454546,35.74285714285714L91.09090909090911,35.65494505494505L87.52727272727273,35.22857142857143L83.96363636363637,35.088131868131875L80.4,35.159670329670334L76.83636363636364,34.81593406593407L73.27272727272727,34.77725274725274L69.70909090909092,34.680659340659346L66.14545454545454,34.583406593406586L62.58181818181818,34.82846153846154L59.018181818181816,34.693406593406586L55.454545454545446,34.55582417582418L51.89090909090908,34.87714285714285L48.32727272727273,34.998021978021974L44.76363636363636,35.10307692307693L41.199999999999996,35.566703296703295L37.636363636363626,35.856703296703294L34.072727272727285,35.95252747252747L30.509090909090922,36.45538461538461L26.945454545454556,37.21736263736264L23.38181818181819,37.74615384615385L19.818181818181824,38.47582417582418L16.25454545454546,38.847362637362636L12.690909090909095,39.05626373626373L9.12727272727273,39.004945054945054L5.563636363636365,38.74681318681319L2,38.2978021978022"></path></g></svg>