<svg meta="{&quot;DATA_PUBLISHED_DATE&quot;:&quot;2022-02-17&quot;,&quot;RENDER_DATE&quot;:&quot;2022-02-17&quot;,&quot;FIRST_DATE&quot;:&quot;2021-12-16&quot;,&quot;LAST_DATE&quot;:&quot;2022-02-09&quot;}" xmlns="http://www.w3.org/2000/svg" viewBox="0,0,200,100"><g transform="translate(0,0)"></g><g class="fg-bars tests-vaccines" fill="#00183f" stroke="none"><g><rect x="197" y="73.68214285714285" width="2" height="26.31785714285715" id="tests-vaccines-0"></rect></g><g><rect x="193.43636363636364" y="73.91464285714287" width="2" height="26.085357142857134" id="tests-vaccines-1"></rect></g><g><rect x="189.87272727272727" y="72.98714285714286" width="2" height="27.012857142857143" id="tests-vaccines-2"></rect></g><g><rect x="186.30909090909088" y="89.48821428571428" width="2" height="10.511785714285722" id="tests-vaccines-3"></rect></g><g><rect x="182.74545454545455" y="76.60607142857143" width="2" height="23.393928571428575" id="tests-vaccines-4"></rect></g><g><rect x="179.1818181818182" y="57.136428571428574" width="2" height="42.863571428571426" id="tests-vaccines-5"></rect></g><g><rect x="175.61818181818182" y="67.58214285714286" width="2" height="32.417857142857144" id="tests-vaccines-6"></rect></g><g><rect x="172.05454545454546" y="66.50571428571428" width="2" height="33.49428571428572" id="tests-vaccines-7"></rect></g><g><rect x="168.49090909090907" y="65.77142857142857" width="2" height="34.22857142857143" id="tests-vaccines-8"></rect></g><g><rect x="164.92727272727274" y="62.18535714285714" width="2" height="37.81464285714286" id="tests-vaccines-9"></rect></g><g><rect x="161.36363636363637" y="86.8757142857143" width="2" height="13.124285714285705" id="tests-vaccines-10"></rect></g><g><rect x="157.8" y="68.77714285714286" width="2" height="31.222857142857137" id="tests-vaccines-11"></rect></g><g><rect x="154.23636363636365" y="41.52392857142857" width="2" height="58.47607142857143" id="tests-vaccines-12"></rect></g><g><rect x="150.6727272727273" y="53.730357142857144" width="2" height="46.269642857142856" id="tests-vaccines-13"></rect></g><g><rect x="147.1090909090909" y="53.61821428571428" width="2" height="46.38178571428572" id="tests-vaccines-14"></rect></g><g><rect x="143.54545454545453" y="52.96178571428571" width="2" height="47.03821428571429" id="tests-vaccines-15"></rect></g><g><rect x="139.9818181818182" y="53.22107142857142" width="2" height="46.77892857142858" id="tests-vaccines-16"></rect></g><g><rect x="136.41818181818184" y="84.3725" width="2" height="15.627499999999998" id="tests-vaccines-17"></rect></g><g><rect x="132.85454545454544" y="67.02714285714286" width="2" height="32.97285714285714" id="tests-vaccines-18"></rect></g><g><rect x="129.29090909090908" y="35.88249999999999" width="2" height="64.1175" id="tests-vaccines-19"></rect></g><g><rect x="125.72727272727273" y="45.50214285714286" width="2" height="54.49785714285714" id="tests-vaccines-20"></rect></g><g><rect x="122.16363636363636" y="43.00892857142857" width="2" height="56.99107142857143" id="tests-vaccines-21"></rect></g><g><rect x="118.6" y="42.14285714285714" width="2" height="57.85714285714286" id="tests-vaccines-22"></rect></g><g><rect x="115.03636363636363" y="51.00285714285715" width="2" height="48.99714285714285" id="tests-vaccines-23"></rect></g><g><rect x="111.47272727272728" y="80.87642857142858" width="2" height="19.123571428571424" id="tests-vaccines-24"></rect></g><g><rect x="107.90909090909089" y="59.15892857142857" width="2" height="40.84107142857143" id="tests-vaccines-25"></rect></g><g><rect x="104.34545454545456" y="20.37214285714286" width="2" height="79.62785714285714" id="tests-vaccines-26"></rect></g><g><rect x="100.78181818181817" y="32.01107142857143" width="2" height="67.98892857142857" id="tests-vaccines-27"></rect></g><g><rect x="97.21818181818183" y="29.621785714285707" width="2" height="70.3782142857143" id="tests-vaccines-28"></rect></g><g><rect x="93.65454545454546" y="28.16821428571429" width="2" height="71.83178571428572" id="tests-vaccines-29"></rect></g><g><rect x="90.09090909090911" y="32.48321428571429" width="2" height="67.5167857142857" id="tests-vaccines-30"></rect></g><g><rect x="86.52727272727273" y="77.24607142857143" width="2" height="22.753928571428574" id="tests-vaccines-31"></rect></g><g><rect x="82.96363636363637" y="46.63678571428571" width="2" height="53.36321428571429" id="tests-vaccines-32"></rect></g><g><rect x="79.4" y="3.918571428571427" width="2" height="96.08142857142857" id="tests-vaccines-33"></rect></g><g><rect x="75.83636363636364" y="17.10678571428571" width="2" height="82.8932142857143" id="tests-vaccines-34"></rect></g><g><rect x="72.27272727272727" y="20.3175" width="2" height="79.6825" id="tests-vaccines-35"></rect></g><g><rect x="68.70909090909092" y="21.766785714285717" width="2" height="78.23321428571428" id="tests-vaccines-36"></rect></g><g><rect x="65.14545454545454" y="27.98857142857143" width="2" height="72.01142857142857" id="tests-vaccines-37"></rect></g><g><rect x="61.58181818181818" y="80.62035714285715" width="2" height="19.379642857142855" id="tests-vaccines-38"></rect></g><g><rect x="58.018181818181816" y="97.11714285714285" width="2" height="2.882857142857148" id="tests-vaccines-39"></rect></g><g><rect x="54.454545454545446" y="72.51821428571428" width="2" height="27.48178571428572" id="tests-vaccines-40"></rect></g><g><rect x="50.89090909090908" y="19.149642857142858" width="2" height="80.85035714285715" id="tests-vaccines-41"></rect></g><g><rect x="47.32727272727273" y="12.95964285714286" width="2" height="87.04035714285715" id="tests-vaccines-42"></rect></g><g><rect x="43.76363636363636" y="12.948928571428574" width="2" height="87.05107142857142" id="tests-vaccines-43"></rect></g><g><rect x="40.199999999999996" y="23.771428571428576" width="2" height="76.22857142857143" id="tests-vaccines-44"></rect></g><g><rect x="36.636363636363626" y="79.83892857142857" width="2" height="20.161071428571432" id="tests-vaccines-45"></rect></g><g><rect x="33.072727272727285" y="99.66535714285715" width="2" height="0.33464285714285325" id="tests-vaccines-46"></rect></g><g><rect x="29.509090909090922" y="83.51928571428572" width="2" height="16.480714285714285" id="tests-vaccines-47"></rect></g><g><rect x="25.945454545454556" y="21.64392857142857" width="2" height="78.35607142857143" id="tests-vaccines-48"></rect></g><g><rect x="22.38181818181819" y="7.68214285714286" width="2" height="92.31785714285714" id="tests-vaccines-49"></rect></g><g><rect x="18.818181818181824" y="4.805357142857147" width="2" height="95.19464285714285" id="tests-vaccines-50"></rect></g><g><rect x="15.254545454545461" y="11.283214285714283" width="2" height="88.71678571428572" id="tests-vaccines-51"></rect></g><g><rect x="11.690909090909095" y="73.86107142857144" width="2" height="26.138928571428565" id="tests-vaccines-52"></rect></g><g><rect x="8.12727272727273" y="48.159285714285716" width="2" height="51.840714285714284" id="tests-vaccines-53"></rect></g><g><rect x="4.563636363636365" y="6.032499999999996" width="2" height="93.9675" id="tests-vaccines-54"></rect></g><g><rect x="1" y="17.56714285714286" width="2" height="82.43285714285715" id="tests-vaccines-55"></rect></g></g><g class="fg-line tests-vaccines" fill="none" stroke="#92c5de" stroke-width="2" stroke-linecap="round"><path d="M198,73.0566836734694L194.43636363636364,72.03147959183673L190.87272727272727,70.86816326530612L187.30909090909088,69.32505102040815L183.74545454545455,68.95183673469387L180.1818181818182,67.83341836734694L176.61818181818182,65.6030612244898L173.05454545454546,63.62423469387755L169.49090909090907,61.78316326530613L165.92727272727274,59.95321428571428L162.36363636363637,58.67260204081632L158.8,58.315000000000005L155.23636363636365,58.065L151.6727272727273,57.25908163265305L148.1090909090909,56.0836224489796L144.54545454545453,54.56801020408163L140.9818181818182,53.02244897959183L137.41818181818184,52.70556122448979L133.85454545454544,52.2061224489796L130.29090909090908,51.08209183673469L126.72727272727273,48.86632653061225L123.16363636363636,46.93903061224489L119.6,45.02658163265306L116.03636363636363,43.03020408163265L112.47272727272728,40.38454081632653L108.90909090909089,39.86591836734693L105.34545454545456,38.07704081632654L101.78181818181817,35.7265306122449L98.21818181818183,33.59734693877551L94.65454545454546,32.268163265306114L91.09090909090911,31.353673469387754L87.52727272727273,30.71158163265306L83.96363636363637,31.193622448979596L80.4,38.40510204081633L76.83636363636364,48.20505102040816L73.27272727272727,48.49688775510204L69.70909090909092,47.44576530612245L66.14545454545454,46.18607142857143L62.58181818181818,45.5836224489796L59.018181818181816,45.47198979591837L55.454545454545446,45.83602040816326L51.89090909090908,47.40760204081632L48.32727272727273,47.76392857142857L44.76363636363636,47.01L41.199999999999996,45.84663265306123L37.636363636363626,44.06260204081632L34.072727272727285,43.2086224489796L30.509090909090922,35.85061224489796L26.945454545454556,24.781071428571433L23.38181818181819,24.198673469387757L19.818181818181824,25.32979591836735L16.25454545454546,27.188520408163264L12.690909090909095,28.659693877551028L9.12727272727273,28.710816326530608L5.563636363636365,27.80617346938775L2,26.685765306122455"></path></g></svg>