<svg about="DATA_PUBLISHED_DATE:2021-12-18,RENDER_DATE:2021-12-18" xmlns="http://www.w3.org/2000/svg" viewBox="0,0,200,100"><g transform="translate(0,0)"></g><g class="fg-bars tests-vaccines" fill="#00183f" stroke="none"><g><rect x="197" y="22.758" width="2" height="77.242" id="tests-vaccines-0"></rect></g><g><rect x="193.43636363636364" y="30.35542857142857" width="2" height="69.64457142857142" id="tests-vaccines-1"></rect></g><g><rect x="189.87272727272727" y="27.80342857142857" width="2" height="72.19657142857143" id="tests-vaccines-2"></rect></g><g><rect x="186.30909090909088" y="27.674571428571426" width="2" height="72.32542857142857" id="tests-vaccines-3"></rect></g><g><rect x="182.74545454545455" y="32.66685714285714" width="2" height="67.33314285714286" id="tests-vaccines-4"></rect></g><g><rect x="179.1818181818182" y="77.29" width="2" height="22.709999999999994" id="tests-vaccines-5"></rect></g><g><rect x="175.61818181818182" y="49.187999999999995" width="2" height="50.812000000000005" id="tests-vaccines-6"></rect></g><g><rect x="172.05454545454546" y="11.06828571428572" width="2" height="88.93171428571428" id="tests-vaccines-7"></rect></g><g><rect x="168.49090909090907" y="21.29114285714285" width="2" height="78.70885714285714" id="tests-vaccines-8"></rect></g><g><rect x="164.92727272727274" y="22.936857142857146" width="2" height="77.06314285714285" id="tests-vaccines-9"></rect></g><g><rect x="161.36363636363637" y="30.74542857142857" width="2" height="69.25457142857144" id="tests-vaccines-10"></rect></g><g><rect x="157.8" y="39.68314285714286" width="2" height="60.31685714285714" id="tests-vaccines-11"></rect></g><g><rect x="154.23636363636365" y="81.70514285714286" width="2" height="18.29485714285714" id="tests-vaccines-12"></rect></g><g><rect x="150.6727272727273" y="67.60314285714286" width="2" height="32.396857142857144" id="tests-vaccines-13"></rect></g><g><rect x="147.1090909090909" y="56.706" width="2" height="43.294" id="tests-vaccines-14"></rect></g><g><rect x="143.54545454545453" y="98.61542857142858" width="2" height="1.3845714285714195" id="tests-vaccines-15"></rect></g><g><rect x="139.9818181818182" y="41.77285714285715" width="2" height="58.22714285714285" id="tests-vaccines-16"></rect></g><g><rect x="136.41818181818184" y="30.785714285714285" width="2" height="69.21428571428572" id="tests-vaccines-17"></rect></g><g><rect x="132.85454545454544" y="34.12142857142857" width="2" height="65.87857142857143" id="tests-vaccines-18"></rect></g><g><rect x="129.29090909090908" y="79.25657142857143" width="2" height="20.743428571428566" id="tests-vaccines-19"></rect></g><g><rect x="125.72727272727273" y="55.364285714285714" width="2" height="44.635714285714286" id="tests-vaccines-20"></rect></g><g><rect x="122.16363636363636" y="23.457428571428572" width="2" height="76.54257142857142" id="tests-vaccines-21"></rect></g><g><rect x="118.6" y="35.402857142857144" width="2" height="64.59714285714286" id="tests-vaccines-22"></rect></g><g><rect x="115.03636363636363" y="34.19228571428572" width="2" height="65.80771428571428" id="tests-vaccines-23"></rect></g><g><rect x="111.47272727272728" y="35.640571428571434" width="2" height="64.35942857142857" id="tests-vaccines-24"></rect></g><g><rect x="107.90909090909089" y="41.316857142857145" width="2" height="58.683142857142855" id="tests-vaccines-25"></rect></g><g><rect x="104.34545454545456" y="79.69828571428572" width="2" height="20.301714285714283" id="tests-vaccines-26"></rect></g><g><rect x="100.78181818181817" y="57.65657142857143" width="2" height="42.34342857142857" id="tests-vaccines-27"></rect></g><g><rect x="97.21818181818183" y="26.225142857142856" width="2" height="73.77485714285714" id="tests-vaccines-28"></rect></g><g><rect x="93.65454545454546" y="38.10857142857142" width="2" height="61.89142857142858" id="tests-vaccines-29"></rect></g><g><rect x="90.09090909090911" y="35.55085714285714" width="2" height="64.44914285714286" id="tests-vaccines-30"></rect></g><g><rect x="86.52727272727273" y="37.988571428571426" width="2" height="62.011428571428574" id="tests-vaccines-31"></rect></g><g><rect x="82.96363636363637" y="42.887142857142855" width="2" height="57.112857142857145" id="tests-vaccines-32"></rect></g><g><rect x="79.4" y="80.726" width="2" height="19.274" id="tests-vaccines-33"></rect></g><g><rect x="75.83636363636364" y="63.37085714285715" width="2" height="36.62914285714285" id="tests-vaccines-34"></rect></g><g><rect x="72.27272727272727" y="30.601428571428567" width="2" height="69.39857142857143" id="tests-vaccines-35"></rect></g><g><rect x="68.70909090909092" y="43.52057142857143" width="2" height="56.47942857142857" id="tests-vaccines-36"></rect></g><g><rect x="65.14545454545454" y="45.90342857142857" width="2" height="54.09657142857143" id="tests-vaccines-37"></rect></g><g><rect x="61.58181818181818" y="45.836" width="2" height="54.164" id="tests-vaccines-38"></rect></g><g><rect x="58.018181818181816" y="49.13742857142858" width="2" height="50.86257142857142" id="tests-vaccines-39"></rect></g><g><rect x="54.454545454545446" y="85.49342857142857" width="2" height="14.506571428571434" id="tests-vaccines-40"></rect></g><g><rect x="50.89090909090908" y="70.50542857142857" width="2" height="29.494571428571433" id="tests-vaccines-41"></rect></g><g><rect x="47.32727272727273" y="37.56342857142857" width="2" height="62.43657142857143" id="tests-vaccines-42"></rect></g><g><rect x="43.76363636363636" y="48.002" width="2" height="51.998" id="tests-vaccines-43"></rect></g><g><rect x="40.199999999999996" y="47.91457142857143" width="2" height="52.08542857142857" id="tests-vaccines-44"></rect></g><g><rect x="36.636363636363626" y="48.51942857142857" width="2" height="51.48057142857143" id="tests-vaccines-45"></rect></g><g><rect x="33.072727272727285" y="53.39314285714285" width="2" height="46.60685714285715" id="tests-vaccines-46"></rect></g><g><rect x="29.509090909090922" y="86.44800000000001" width="2" height="13.551999999999992" id="tests-vaccines-47"></rect></g><g><rect x="25.945454545454556" y="73.51628571428571" width="2" height="26.483714285714285" id="tests-vaccines-48"></rect></g><g><rect x="22.38181818181819" y="53.53142857142856" width="2" height="46.46857142857144" id="tests-vaccines-49"></rect></g><g><rect x="18.818181818181824" y="72.40257142857143" width="2" height="27.597428571428566" id="tests-vaccines-50"></rect></g><g><rect x="15.254545454545461" y="73.47200000000001" width="2" height="26.52799999999999" id="tests-vaccines-51"></rect></g><g><rect x="11.690909090909095" y="72.61257142857143" width="2" height="27.387428571428572" id="tests-vaccines-52"></rect></g><g><rect x="8.12727272727273" y="71.46142857142857" width="2" height="28.53857142857143" id="tests-vaccines-53"></rect></g><g><rect x="4.563636363636365" y="91.26457142857143" width="2" height="8.73542857142857" id="tests-vaccines-54"></rect></g><g><rect x="1" y="83.15371428571429" width="2" height="16.846285714285713" id="tests-vaccines-55"></rect></g></g><g class="fg-line tests-vaccines" fill="none" stroke="#92c5de" stroke-width="2" stroke-linecap="round"><path d="M198,38.24804081632654L194.43636363636364,36.57808163265306L190.87272727272727,35.28318367346939L187.30909090909088,34.58795918367347L183.74545454545455,35.026653061224486L180.1818181818182,36.02897959183674L176.61818181818182,36.65971428571429L173.05454545454546,39.29044897959183L169.49090909090907,45.8101224489796L165.92727272727274,56.85644897959183L162.36363636363637,59.54730612244899L158.8,59.5530612244898L155.23636363636365,58.7585306122449L151.6727272727273,58.40873469387755L148.1090909090909,56.660326530612245L144.54545454545453,51.910530612244884L140.9818181818182,42.880163265306116L137.41818181818184,41.797224489795916L133.85454545454544,42.49077551020408L130.29090909090908,43.518693877551016L126.72727272727273,43.58179591836735L123.16363636363636,43.90926530612245L119.6,44.304653061224485L116.03636363636363,44.69118367346939L112.47272727272728,44.88526530612245L108.90909090909089,45.22069387755102L105.34545454545456,45.44502040816326L101.78181818181817,45.59183673469388L98.21818181818183,46.40816326530612L94.65454545454546,47.03334693877551L91.09090909090911,47.806489795918374L87.52727272727273,49.28542857142857L83.96363636363637,50.406489795918375L80.4,51.29938775510203L76.83636363636364,51.98044897959184L73.27272727272727,52.99967346938775L69.70909090909092,53.994244897959184L66.14545454545454,54.63444897959183L62.58181818181818,54.92175510204083L59.018181818181816,55.30510204081632L55.454545454545446,55.9130612244898L51.89090909090908,56.04942857142857L48.32727272727273,56.47955102040816L44.76363636363636,58.76069387755103L41.199999999999996,62.24648979591837L37.636363636363626,65.89755102040816L34.072727272727285,69.33942857142857L30.509090909090922,71.92061224489797L26.945454545454556,72.60869387755102L23.38181818181819,73.9854693877551L19.818181818181824,75.47004081632653L16.25454545454546,75.29910204081632L12.690909090909095,75.01889795918368L9.12727272727273,74.60804081632652L5.563636363636365,74.31661224489797L2,74.10926530612245"></path></g></svg>