<svg meta="{&quot;DATA_PUBLISHED_DATE&quot;:&quot;2022-09-22&quot;,&quot;RENDER_DATE&quot;:&quot;2022-09-22&quot;,&quot;FIRST_DATE&quot;:&quot;2022-07-20&quot;,&quot;LAST_DATE&quot;:&quot;2022-09-13&quot;}" xmlns="http://www.w3.org/2000/svg" viewBox="0,0,200,100"><g transform="translate(0,0)"></g><g class="fg-bars cases-ep" fill="#00183f" stroke="none"><g><rect x="197" y="78.73181818181818" width="2" height="21.268181818181816" id="cases-ep-0"></rect></g><g><rect x="193.43636363636364" y="76.01818181818182" width="2" height="23.981818181818184" id="cases-ep-1"></rect></g><g><rect x="189.87272727272727" y="87.77727272727273" width="2" height="12.222727272727269" id="cases-ep-2"></rect></g><g><rect x="186.30909090909088" y="86.4" width="2" height="13.599999999999994" id="cases-ep-3"></rect></g><g><rect x="182.74545454545455" y="79.5909090909091" width="2" height="20.409090909090907" id="cases-ep-4"></rect></g><g><rect x="179.1818181818182" y="77.10454545454546" width="2" height="22.89545454545454" id="cases-ep-5"></rect></g><g><rect x="175.61818181818182" y="74.08181818181818" width="2" height="25.91818181818182" id="cases-ep-6"></rect></g><g><rect x="172.05454545454546" y="65.70454545454545" width="2" height="34.29545454545455" id="cases-ep-7"></rect></g><g><rect x="168.49090909090907" y="85.93181818181819" width="2" height="14.068181818181813" id="cases-ep-8"></rect></g><g><rect x="164.92727272727274" y="86.34545454545454" width="2" height="13.654545454545456" id="cases-ep-9"></rect></g><g><rect x="161.36363636363637" y="84.33181818181819" width="2" height="15.668181818181807" id="cases-ep-10"></rect></g><g><rect x="157.8" y="76.1590909090909" width="2" height="23.840909090909093" id="cases-ep-11"></rect></g><g><rect x="154.23636363636365" y="72.64090909090909" width="2" height="27.35909090909091" id="cases-ep-12"></rect></g><g><rect x="150.6727272727273" y="69.33181818181818" width="2" height="30.66818181818182" id="cases-ep-13"></rect></g><g><rect x="147.1090909090909" y="65.44090909090909" width="2" height="34.55909090909091" id="cases-ep-14"></rect></g><g><rect x="143.54545454545453" y="59.699999999999996" width="2" height="40.300000000000004" id="cases-ep-15"></rect></g><g><rect x="139.9818181818182" y="80.14545454545454" width="2" height="19.85454545454546" id="cases-ep-16"></rect></g><g><rect x="136.41818181818184" y="78.29545454545455" width="2" height="21.704545454545453" id="cases-ep-17"></rect></g><g><rect x="132.85454545454544" y="66.90454545454546" width="2" height="33.095454545454544" id="cases-ep-18"></rect></g><g><rect x="129.29090909090908" y="65.6590909090909" width="2" height="34.34090909090909" id="cases-ep-19"></rect></g><g><rect x="125.72727272727273" y="61.70909090909091" width="2" height="38.29090909090909" id="cases-ep-20"></rect></g><g><rect x="122.16363636363636" y="56.940909090909095" width="2" height="43.059090909090905" id="cases-ep-21"></rect></g><g><rect x="118.6" y="50.33181818181818" width="2" height="49.66818181818182" id="cases-ep-22"></rect></g><g><rect x="115.03636363636363" y="75.8909090909091" width="2" height="24.109090909090895" id="cases-ep-23"></rect></g><g><rect x="111.47272727272728" y="72.92272727272727" width="2" height="27.077272727272728" id="cases-ep-24"></rect></g><g><rect x="107.90909090909089" y="62.13636363636363" width="2" height="37.86363636363637" id="cases-ep-25"></rect></g><g><rect x="104.34545454545456" y="58.96363636363636" width="2" height="41.03636363636364" id="cases-ep-26"></rect></g><g><rect x="100.78181818181817" y="55.73636363636363" width="2" height="44.26363636363637" id="cases-ep-27"></rect></g><g><rect x="97.21818181818183" y="50.67727272727273" width="2" height="49.32272727272727" id="cases-ep-28"></rect></g><g><rect x="93.65454545454546" y="46.11363636363637" width="2" height="53.88636363636363" id="cases-ep-29"></rect></g><g><rect x="90.09090909090911" y="72.39999999999999" width="2" height="27.60000000000001" id="cases-ep-30"></rect></g><g><rect x="86.52727272727273" y="70.32272727272726" width="2" height="29.677272727272737" id="cases-ep-31"></rect></g><g><rect x="82.96363636363637" y="56.76363636363637" width="2" height="43.23636363636363" id="cases-ep-32"></rect></g><g><rect x="79.4" y="53.38636363636364" width="2" height="46.61363636363636" id="cases-ep-33"></rect></g><g><rect x="75.83636363636364" y="48.85454545454545" width="2" height="51.14545454545455" id="cases-ep-34"></rect></g><g><rect x="72.27272727272727" y="44.45" width="2" height="55.55" id="cases-ep-35"></rect></g><g><rect x="68.70909090909092" y="34.19545454545454" width="2" height="65.80454545454546" id="cases-ep-36"></rect></g><g><rect x="65.14545454545454" y="67.58181818181819" width="2" height="32.41818181818181" id="cases-ep-37"></rect></g><g><rect x="61.58181818181818" y="63.89090909090909" width="2" height="36.10909090909091" id="cases-ep-38"></rect></g><g><rect x="58.018181818181816" y="47.199999999999996" width="2" height="52.800000000000004" id="cases-ep-39"></rect></g><g><rect x="54.454545454545446" y="44.40909090909091" width="2" height="55.59090909090909" id="cases-ep-40"></rect></g><g><rect x="50.89090909090908" y="37.81818181818182" width="2" height="62.18181818181818" id="cases-ep-41"></rect></g><g><rect x="47.32727272727273" y="30.60909090909091" width="2" height="69.39090909090909" id="cases-ep-42"></rect></g><g><rect x="43.76363636363636" y="20.92727272727273" width="2" height="79.07272727272726" id="cases-ep-43"></rect></g><g><rect x="40.199999999999996" y="63.054545454545455" width="2" height="36.945454545454545" id="cases-ep-44"></rect></g><g><rect x="36.636363636363626" y="58.06363636363636" width="2" height="41.93636363636364" id="cases-ep-45"></rect></g><g><rect x="33.072727272727285" y="37.17272727272727" width="2" height="62.82727272727273" id="cases-ep-46"></rect></g><g><rect x="29.509090909090922" y="31.92272727272727" width="2" height="68.07727272727273" id="cases-ep-47"></rect></g><g><rect x="25.945454545454556" y="24.518181818181816" width="2" height="75.48181818181818" id="cases-ep-48"></rect></g><g><rect x="22.38181818181819" y="15.659090909090912" width="2" height="84.3409090909091" id="cases-ep-49"></rect></g><g><rect x="18.818181818181824" y="3.4636363636363687" width="2" height="96.53636363636363" id="cases-ep-50"></rect></g><g><rect x="15.254545454545461" y="55.28636363636363" width="2" height="44.71363636363637" id="cases-ep-51"></rect></g><g><rect x="11.690909090909095" y="48.67727272727272" width="2" height="51.32272727272728" id="cases-ep-52"></rect></g><g><rect x="8.12727272727273" y="22.222727272727273" width="2" height="77.77727272727273" id="cases-ep-53"></rect></g><g><rect x="4.563636363636365" y="19.76818181818182" width="2" height="80.23181818181818" id="cases-ep-54"></rect></g><g><rect x="1" y="11.872727272727268" width="2" height="88.12727272727273" id="cases-ep-55"></rect></g></g><g class="fg-line cases-ep" fill="none" stroke="#92c5de" stroke-width="2" stroke-linecap="round"><path d="M198,79.9577922077922L194.43636363636364,78.09675324675325L190.87272727272727,79.51298701298701L187.30909090909088,79.30844155844156L183.74545454545455,79.01298701298701L180.1818181818182,78.52272727272727L176.61818181818182,77.88506493506493L173.05454545454546,77.20649350649352L169.49090909090907,77.16883116883116L165.92727272727274,73.42142857142858L162.36363636363637,72.53571428571428L158.8,71.67337662337663L155.23636363636365,70.3512987012987L151.6727272727273,69.3538961038961L148.1090909090909,68.26493506493507L144.54545454545453,67.05064935064935L140.9818181818182,65.71233766233766L137.41818181818184,65.10454545454544L133.85454545454544,64.33701298701298L130.29090909090908,63.65584415584416L126.72727272727273,62.69935064935065L123.16363636363636,61.8461038961039L119.6,60.9512987012987L116.03636363636363,60.3487012987013L112.47272727272728,59.85L108.90909090909089,59.47857142857143L105.34545454545456,58.71103896103895L101.78181818181817,57.91428571428572L98.21818181818183,56.93116883116883L94.65454545454546,56.04155844155845L91.09090909090911,54.338961038961045L87.52727272727273,53.650649350649346L83.96363636363637,52.73181818181818L80.4,51.36558441558441L76.83636363636364,50.08311688311689L73.27272727272727,48.5064935064935L69.70909090909092,46.52922077922077L66.14545454545454,44.633766233766224L62.58181818181818,43.98701298701299L59.018181818181816,43.154545454545456L55.454545454545446,41.72207792207793L51.89090909090908,39.93831168831169L48.32727272727273,38.03831168831169L44.76363636363636,35.9025974025974L41.199999999999996,33.407792207792205L37.636363636363626,32.298051948051956L34.072727272727285,30.957142857142863L30.509090909090922,28.821428571428577L26.945454545454556,27.08506493506494L23.38181818181819,25.27857142857143L19.818181818181824,23.651298701298696L16.25454545454546,22.250649350649354L12.690909090909095,21.51493506493506L9.12727272727273,20.497402597402605L5.563636363636365,19.431168831168822L2,18.007792207792207"></path></g></svg>