<svg meta="{&quot;DATA_PUBLISHED_DATE&quot;:&quot;2022-03-16&quot;,&quot;RENDER_DATE&quot;:&quot;2022-03-16&quot;,&quot;FIRST_DATE&quot;:&quot;2021-12-28&quot;,&quot;LAST_DATE&quot;:&quot;2022-02-21&quot;}" xmlns="http://www.w3.org/2000/svg" viewBox="0,0,200,100"><g transform="translate(0,0)"></g><g class="fg-bars death-date" fill="#00183f" stroke="none"><g><rect x="197" y="66.92307692307693" width="2" height="33.076923076923066" id="death-date-0"></rect></g><g><rect x="193.43636363636364" y="62.30769230769231" width="2" height="37.69230769230769" id="death-date-1"></rect></g><g><rect x="189.87272727272727" y="70.38461538461537" width="2" height="29.615384615384627" id="death-date-2"></rect></g><g><rect x="186.30909090909088" y="61.53846153846154" width="2" height="38.46153846153846" id="death-date-3"></rect></g><g><rect x="182.74545454545455" y="54.23076923076924" width="2" height="45.76923076923076" id="death-date-4"></rect></g><g><rect x="179.1818181818182" y="56.15384615384615" width="2" height="43.84615384615385" id="death-date-5"></rect></g><g><rect x="175.61818181818182" y="59.23076923076923" width="2" height="40.76923076923077" id="death-date-6"></rect></g><g><rect x="172.05454545454546" y="49.23076923076923" width="2" height="50.76923076923077" id="death-date-7"></rect></g><g><rect x="168.49090909090907" y="48.46153846153847" width="2" height="51.53846153846153" id="death-date-8"></rect></g><g><rect x="164.92727272727274" y="47.692307692307686" width="2" height="52.307692307692314" id="death-date-9"></rect></g><g><rect x="161.36363636363637" y="37.30769230769231" width="2" height="62.69230769230769" id="death-date-10"></rect></g><g><rect x="157.8" y="39.61538461538462" width="2" height="60.38461538461538" id="death-date-11"></rect></g><g><rect x="154.23636363636365" y="27.30769230769231" width="2" height="72.6923076923077" id="death-date-12"></rect></g><g><rect x="150.6727272727273" y="22.307692307692307" width="2" height="77.6923076923077" id="death-date-13"></rect></g><g><rect x="147.1090909090909" y="34.61538461538461" width="2" height="65.38461538461539" id="death-date-14"></rect></g><g><rect x="143.54545454545453" y="35.76923076923077" width="2" height="64.23076923076923" id="death-date-15"></rect></g><g><rect x="139.9818181818182" y="23.461538461538467" width="2" height="76.53846153846153" id="death-date-16"></rect></g><g><rect x="136.41818181818184" y="13.461538461538458" width="2" height="86.53846153846155" id="death-date-17"></rect></g><g><rect x="132.85454545454544" y="23.076923076923073" width="2" height="76.92307692307693" id="death-date-18"></rect></g><g><rect x="129.29090909090908" y="13.461538461538458" width="2" height="86.53846153846155" id="death-date-19"></rect></g><g><rect x="125.72727272727273" y="6.923076923076921" width="2" height="93.07692307692308" id="death-date-20"></rect></g><g><rect x="122.16363636363636" y="13.846153846153841" width="2" height="86.15384615384616" id="death-date-21"></rect></g><g><rect x="118.6" y="5.384615384615388" width="2" height="94.61538461538461" id="death-date-22"></rect></g><g><rect x="115.03636363636363" y="6.538461538461537" width="2" height="93.46153846153847" id="death-date-23"></rect></g><g><rect x="111.47272727272728" y="18.461538461538463" width="2" height="81.53846153846153" id="death-date-24"></rect></g><g><rect x="107.90909090909089" y="13.076923076923075" width="2" height="86.92307692307692" id="death-date-25"></rect></g><g><rect x="104.34545454545456" y="19.615384615384613" width="2" height="80.38461538461539" id="death-date-26"></rect></g><g><rect x="100.78181818181817" y="15.384615384615385" width="2" height="84.61538461538461" id="death-date-27"></rect></g><g><rect x="97.21818181818183" y="29.230769230769226" width="2" height="70.76923076923077" id="death-date-28"></rect></g><g><rect x="93.65454545454546" y="11.923076923076925" width="2" height="88.07692307692308" id="death-date-29"></rect></g><g><rect x="90.09090909090911" y="18.846153846153847" width="2" height="81.15384615384616" id="death-date-30"></rect></g><g><rect x="86.52727272727273" y="13.076923076923075" width="2" height="86.92307692307692" id="death-date-31"></rect></g><g><rect x="82.96363636363637" y="19.999999999999996" width="2" height="80" id="death-date-32"></rect></g><g><rect x="79.4" y="13.461538461538458" width="2" height="86.53846153846155" id="death-date-33"></rect></g><g><rect x="75.83636363636364" y="23.076923076923073" width="2" height="76.92307692307693" id="death-date-34"></rect></g><g><rect x="72.27272727272727" y="31.153846153846153" width="2" height="68.84615384615384" id="death-date-35"></rect></g><g><rect x="68.70909090909092" y="28.846153846153843" width="2" height="71.15384615384616" id="death-date-36"></rect></g><g><rect x="65.14545454545454" y="28.846153846153843" width="2" height="71.15384615384616" id="death-date-37"></rect></g><g><rect x="61.58181818181818" y="39.23076923076923" width="2" height="60.76923076923077" id="death-date-38"></rect></g><g><rect x="58.018181818181816" y="36.92307692307693" width="2" height="63.07692307692307" id="death-date-39"></rect></g><g><rect x="54.454545454545446" y="33.84615384615385" width="2" height="66.15384615384616" id="death-date-40"></rect></g><g><rect x="50.89090909090908" y="38.07692307692307" width="2" height="61.92307692307693" id="death-date-41"></rect></g><g><rect x="47.32727272727273" y="46.92307692307692" width="2" height="53.07692307692308" id="death-date-42"></rect></g><g><rect x="43.76363636363636" y="56.15384615384615" width="2" height="43.84615384615385" id="death-date-43"></rect></g><g><rect x="40.199999999999996" y="49.23076923076923" width="2" height="50.76923076923077" id="death-date-44"></rect></g><g><rect x="36.636363636363626" y="56.15384615384615" width="2" height="43.84615384615385" id="death-date-45"></rect></g><g><rect x="33.072727272727285" y="53.46153846153846" width="2" height="46.53846153846154" id="death-date-46"></rect></g><g><rect x="29.509090909090922" y="51.92307692307692" width="2" height="48.07692307692308" id="death-date-47"></rect></g><g><rect x="25.945454545454556" y="62.30769230769231" width="2" height="37.69230769230769" id="death-date-48"></rect></g><g><rect x="22.38181818181819" y="60.769230769230774" width="2" height="39.230769230769226" id="death-date-49"></rect></g><g><rect x="18.818181818181824" y="71.15384615384616" width="2" height="28.84615384615384" id="death-date-50"></rect></g><g><rect x="15.254545454545461" y="67.6923076923077" width="2" height="32.30769230769231" id="death-date-51"></rect></g><g><rect x="11.690909090909095" y="68.46153846153847" width="2" height="31.538461538461533" id="death-date-52"></rect></g><g><rect x="8.12727272727273" y="75.38461538461539" width="2" height="24.615384615384613" id="death-date-53"></rect></g><g><rect x="4.563636363636365" y="72.69230769230771" width="2" height="27.307692307692292" id="death-date-54"></rect></g><g><rect x="1" y="79.61538461538463" width="2" height="20.384615384615373" id="death-date-55"></rect></g></g><g class="fg-line death-date" fill="none" stroke="#92c5de" stroke-width="2" stroke-linecap="round"><path d="M198,61.53846153846154L194.43636363636364,59.010989010989015L190.87272727272727,57.03296703296703L187.30909090909088,53.7912087912088L183.74545454545455,50.32967032967033L180.1818181818182,48.241758241758234L176.61818181818182,44.12087912087912L173.05454545454546,38.84615384615384L169.49090909090907,36.75824175824176L165.92727272727274,34.94505494505494L162.36363636363637,31.483516483516482L158.8,28.076923076923077L155.23636363636365,25.71428571428571L151.6727272727273,23.73626373626374L148.1090909090909,21.53846153846154L144.54545454545453,18.571428571428573L140.9818181818182,14.230769230769235L137.41818181818184,11.813186813186816L133.85454545454544,12.527472527472527L130.29090909090908,11.098901098901104L126.72727272727273,11.97802197802198L123.16363636363636,13.186813186813184L119.6,15.384615384615385L116.03636363636363,16.318681318681318L112.47272727272728,18.07692307692308L108.90909090909089,17.307692307692314L105.34545454545456,18.2967032967033L101.78181818181817,17.417582417582413L98.21818181818183,18.516483516483518L94.65454545454546,18.791208791208792L91.09090909090911,21.20879120879121L87.52727272727273,22.637362637362635L83.96363636363637,26.37362637362638L80.4,28.79120879120879L76.83636363636364,31.7032967032967L73.27272727272727,33.84615384615385L69.70909090909092,36.0989010989011L66.14545454545454,40L62.58181818181818,42.91208791208791L59.018181818181816,45.329670329670336L55.454545454545446,47.692307692307686L51.89090909090908,50.27472527472527L48.32727272727273,53.73626373626374L44.76363636363636,55.714285714285715L41.199999999999996,57.857142857142854L37.636363636363626,60.4945054945055L34.072727272727285,62.252747252747255L30.509090909090922,65.38461538461539L26.945454545454556,68.35164835164835L23.38181818181819,70.82417582417581L19.818181818181824,72.25274725274727L16.25454545454546,73.35164835164835L12.690909090909095,74.61538461538461L9.12727272727273,75.49450549450549L5.563636363636365,75.21978021978022L2,76.31868131868131"></path></g></svg>