<svg about="DATA_PUBLISHED_DATE:2022-01-20,RENDER_DATE:2022-01-20" xmlns="http://www.w3.org/2000/svg" viewBox="0,0,200,100"><g transform="translate(0,0)"></g><g class="fg-bars death-date" fill="#00183f" stroke="none"><g><rect x="197" y="62.22222222222222" width="2" height="37.77777777777778" id="death-date-0"></rect></g><g><rect x="193.43636363636364" y="36.66666666666667" width="2" height="63.33333333333333" id="death-date-1"></rect></g><g><rect x="189.87272727272727" y="53.333333333333336" width="2" height="46.666666666666664" id="death-date-2"></rect></g><g><rect x="186.30909090909088" y="56.666666666666664" width="2" height="43.333333333333336" id="death-date-3"></rect></g><g><rect x="182.74545454545455" y="50" width="2" height="50" id="death-date-4"></rect></g><g><rect x="179.1818181818182" y="48.88888888888889" width="2" height="51.11111111111111" id="death-date-5"></rect></g><g><rect x="175.61818181818182" y="56.666666666666664" width="2" height="43.333333333333336" id="death-date-6"></rect></g><g><rect x="172.05454545454546" y="52.222222222222214" width="2" height="47.777777777777786" id="death-date-7"></rect></g><g><rect x="168.49090909090907" y="47.77777777777777" width="2" height="52.22222222222223" id="death-date-8"></rect></g><g><rect x="164.92727272727274" y="40" width="2" height="60" id="death-date-9"></rect></g><g><rect x="161.36363636363637" y="52.222222222222214" width="2" height="47.777777777777786" id="death-date-10"></rect></g><g><rect x="157.8" y="45.55555555555556" width="2" height="54.44444444444444" id="death-date-11"></rect></g><g><rect x="154.23636363636365" y="27.77777777777778" width="2" height="72.22222222222223" id="death-date-12"></rect></g><g><rect x="150.6727272727273" y="40" width="2" height="60" id="death-date-13"></rect></g><g><rect x="147.1090909090909" y="33.333333333333336" width="2" height="66.66666666666666" id="death-date-14"></rect></g><g><rect x="143.54545454545453" y="36.66666666666667" width="2" height="63.33333333333333" id="death-date-15"></rect></g><g><rect x="139.9818181818182" y="45.55555555555556" width="2" height="54.44444444444444" id="death-date-16"></rect></g><g><rect x="136.41818181818184" y="43.333333333333336" width="2" height="56.666666666666664" id="death-date-17"></rect></g><g><rect x="132.85454545454544" y="48.88888888888889" width="2" height="51.11111111111111" id="death-date-18"></rect></g><g><rect x="129.29090909090908" y="42.22222222222223" width="2" height="57.77777777777777" id="death-date-19"></rect></g><g><rect x="125.72727272727273" y="43.333333333333336" width="2" height="56.666666666666664" id="death-date-20"></rect></g><g><rect x="122.16363636363636" y="32.22222222222222" width="2" height="67.77777777777777" id="death-date-21"></rect></g><g><rect x="118.6" y="54.44444444444445" width="2" height="45.55555555555555" id="death-date-22"></rect></g><g><rect x="115.03636363636363" y="44.44444444444444" width="2" height="55.55555555555556" id="death-date-23"></rect></g><g><rect x="111.47272727272728" y="27.77777777777778" width="2" height="72.22222222222223" id="death-date-24"></rect></g><g><rect x="107.90909090909089" y="34.44444444444444" width="2" height="65.55555555555556" id="death-date-25"></rect></g><g><rect x="104.34545454545456" y="25.555555555555554" width="2" height="74.44444444444444" id="death-date-26"></rect></g><g><rect x="100.78181818181817" y="33.333333333333336" width="2" height="66.66666666666666" id="death-date-27"></rect></g><g><rect x="97.21818181818183" y="47.77777777777777" width="2" height="52.22222222222223" id="death-date-28"></rect></g><g><rect x="93.65454545454546" y="21.111111111111114" width="2" height="78.88888888888889" id="death-date-29"></rect></g><g><rect x="90.09090909090911" y="47.77777777777777" width="2" height="52.22222222222223" id="death-date-30"></rect></g><g><rect x="86.52727272727273" y="45.55555555555556" width="2" height="54.44444444444444" id="death-date-31"></rect></g><g><rect x="82.96363636363637" y="33.333333333333336" width="2" height="66.66666666666666" id="death-date-32"></rect></g><g><rect x="79.4" y="44.44444444444444" width="2" height="55.55555555555556" id="death-date-33"></rect></g><g><rect x="75.83636363636364" y="37.77777777777778" width="2" height="62.22222222222222" id="death-date-34"></rect></g><g><rect x="72.27272727272727" y="22.22222222222222" width="2" height="77.77777777777777" id="death-date-35"></rect></g><g><rect x="68.70909090909092" y="27.77777777777778" width="2" height="72.22222222222223" id="death-date-36"></rect></g><g><rect x="65.14545454545454" y="26.66666666666667" width="2" height="73.33333333333333" id="death-date-37"></rect></g><g><rect x="61.58181818181818" y="28.888888888888886" width="2" height="71.11111111111111" id="death-date-38"></rect></g><g><rect x="58.018181818181816" y="11.111111111111116" width="2" height="88.88888888888889" id="death-date-39"></rect></g><g><rect x="54.454545454545446" y="30.000000000000004" width="2" height="70" id="death-date-40"></rect></g><g><rect x="50.89090909090908" y="17.777777777777782" width="2" height="82.22222222222221" id="death-date-41"></rect></g><g><rect x="47.32727272727273" y="38.888888888888886" width="2" height="61.111111111111114" id="death-date-42"></rect></g><g><rect x="43.76363636363636" y="14.444444444444448" width="2" height="85.55555555555556" id="death-date-43"></rect></g><g><rect x="40.199999999999996" y="28.888888888888886" width="2" height="71.11111111111111" id="death-date-44"></rect></g><g><rect x="36.636363636363626" y="35.55555555555555" width="2" height="64.44444444444446" id="death-date-45"></rect></g><g><rect x="33.072727272727285" y="22.22222222222222" width="2" height="77.77777777777777" id="death-date-46"></rect></g><g><rect x="29.509090909090922" y="9.999999999999998" width="2" height="90" id="death-date-47"></rect></g><g><rect x="25.945454545454556" y="28.888888888888886" width="2" height="71.11111111111111" id="death-date-48"></rect></g><g><rect x="22.38181818181819" y="11.111111111111116" width="2" height="88.88888888888889" id="death-date-49"></rect></g><g><rect x="18.818181818181824" y="22.22222222222222" width="2" height="77.77777777777777" id="death-date-50"></rect></g><g><rect x="15.254545454545461" y="9.999999999999998" width="2" height="90" id="death-date-51"></rect></g><g><rect x="11.690909090909095" y="23.33333333333333" width="2" height="76.66666666666667" id="death-date-52"></rect></g><g><rect x="8.12727272727273" y="26.66666666666667" width="2" height="73.33333333333333" id="death-date-53"></rect></g><g><rect x="4.563636363636365" y="30.000000000000004" width="2" height="70" id="death-date-54"></rect></g><g><rect x="1" y="23.33333333333333" width="2" height="76.66666666666667" id="death-date-55"></rect></g></g><g class="fg-line death-date" fill="none" stroke="#92c5de" stroke-width="2" stroke-linecap="round"><path d="M198,52.063492063492056L194.43636363636364,50.63492063492063L190.87272727272727,52.222222222222214L187.30909090909088,50.317460317460316L183.74545454545455,49.682539682539684L180.1818181818182,49.04761904761905L176.61818181818182,46.03174603174603L173.05454545454546,43.65079365079365L169.49090909090907,40.95238095238095L165.92727272727274,39.36507936507937L162.36363636363637,40.15873015873016L158.8,38.888888888888886L155.23636363636365,39.36507936507937L151.6727272727273,41.42857142857142L148.1090909090909,41.90476190476191L144.54545454545453,41.74603174603174L140.9818181818182,44.285714285714285L137.41818181818184,44.12698412698413L133.85454545454544,41.90476190476191L130.29090909090908,39.841269841269835L126.72727272727273,37.46031746031746L123.16363636363636,36.03174603174604L119.6,38.25396825396825L116.03636363636363,33.492063492063494L112.47272727272728,33.96825396825397L108.90909090909089,36.5079365079365L105.34545454545456,36.349206349206355L101.78181818181817,39.04761904761905L98.21818181818183,39.682539682539684L94.65454545454546,36.03174603174604L91.09090909090911,36.98412698412699L87.52727272727273,33.96825396825397L83.96363636363637,31.587301587301585L80.4,28.41269841269841L76.83636363636364,26.349206349206344L73.27272727272727,23.492063492063487L69.70909090909092,25.87301587301588L66.14545454545454,23.96825396825396L62.58181818181818,24.28571428571429L59.018181818181816,25.238095238095227L55.454545454545446,26.82539682539682L51.89090909090908,23.96825396825396L48.32727272727273,25.555555555555554L44.76363636363636,21.58730158730159L41.199999999999996,22.698412698412696L37.636363636363626,19.999999999999996L34.072727272727285,18.253968253968257L30.509090909090922,18.88888888888889L26.945454545454556,21.746031746031747L23.38181818181819,20.952380952380956L19.818181818181824,22.38095238095238L16.25454545454546,22.53968253968255L12.690909090909095,25.71428571428571L9.12727272727273,25.238095238095227L5.563636363636365,25.71428571428571L2,25.238095238095227"></path></g></svg>