<svg about="DATA_PUBLISHED_DATE:2021-11-19,RENDER_DATE:2021-11-19" xmlns="http://www.w3.org/2000/svg" viewBox="0,0,200,100"><g transform="translate(0,0)"></g><g class="fg-bars cases-ep" fill="#00183f" stroke="none"><g><rect x="197" y="47.58888888888889" width="2" height="52.41111111111111" id="cases-ep-0"></rect></g><g><rect x="193.43636363636364" y="41.17777777777778" width="2" height="58.82222222222222" id="cases-ep-1"></rect></g><g><rect x="189.87272727272727" y="34.01111111111111" width="2" height="65.98888888888888" id="cases-ep-2"></rect></g><g><rect x="186.30909090909088" y="66.92222222222222" width="2" height="33.07777777777778" id="cases-ep-3"></rect></g><g><rect x="182.74545454545455" y="63.93333333333333" width="2" height="36.06666666666667" id="cases-ep-4"></rect></g><g><rect x="179.1818181818182" y="43.27777777777778" width="2" height="56.72222222222222" id="cases-ep-5"></rect></g><g><rect x="175.61818181818182" y="36.62222222222222" width="2" height="63.37777777777778" id="cases-ep-6"></rect></g><g><rect x="172.05454545454546" y="33.111111111111114" width="2" height="66.88888888888889" id="cases-ep-7"></rect></g><g><rect x="168.49090909090907" y="31.200000000000006" width="2" height="68.8" id="cases-ep-8"></rect></g><g><rect x="164.92727272727274" y="21.866666666666667" width="2" height="78.13333333333333" id="cases-ep-9"></rect></g><g><rect x="161.36363636363637" y="64.03333333333333" width="2" height="35.96666666666667" id="cases-ep-10"></rect></g><g><rect x="157.8" y="58.78888888888889" width="2" height="41.21111111111111" id="cases-ep-11"></rect></g><g><rect x="154.23636363636365" y="41.011111111111106" width="2" height="58.988888888888894" id="cases-ep-12"></rect></g><g><rect x="150.6727272727273" y="35.577777777777776" width="2" height="64.42222222222222" id="cases-ep-13"></rect></g><g><rect x="147.1090909090909" y="28.733333333333334" width="2" height="71.26666666666667" id="cases-ep-14"></rect></g><g><rect x="143.54545454545453" y="25.611111111111107" width="2" height="74.38888888888889" id="cases-ep-15"></rect></g><g><rect x="139.9818181818182" y="20.711111111111112" width="2" height="79.28888888888889" id="cases-ep-16"></rect></g><g><rect x="136.41818181818184" y="61.36666666666667" width="2" height="38.63333333333333" id="cases-ep-17"></rect></g><g><rect x="132.85454545454544" y="55.977777777777774" width="2" height="44.022222222222226" id="cases-ep-18"></rect></g><g><rect x="129.29090909090908" y="34.44444444444444" width="2" height="65.55555555555556" id="cases-ep-19"></rect></g><g><rect x="125.72727272727273" y="35.18888888888889" width="2" height="64.8111111111111" id="cases-ep-20"></rect></g><g><rect x="122.16363636363636" y="31.511111111111113" width="2" height="68.48888888888888" id="cases-ep-21"></rect></g><g><rect x="118.6" y="30.077777777777783" width="2" height="69.92222222222222" id="cases-ep-22"></rect></g><g><rect x="115.03636363636363" y="22.46666666666667" width="2" height="77.53333333333333" id="cases-ep-23"></rect></g><g><rect x="111.47272727272728" y="60.8" width="2" height="39.2" id="cases-ep-24"></rect></g><g><rect x="107.90909090909089" y="60.111111111111114" width="2" height="39.888888888888886" id="cases-ep-25"></rect></g><g><rect x="104.34545454545456" y="42.15555555555556" width="2" height="57.84444444444444" id="cases-ep-26"></rect></g><g><rect x="100.78181818181817" y="41.97777777777778" width="2" height="58.02222222222222" id="cases-ep-27"></rect></g><g><rect x="97.21818181818183" y="38.022222222222226" width="2" height="61.977777777777774" id="cases-ep-28"></rect></g><g><rect x="93.65454545454546" y="35.977777777777774" width="2" height="64.02222222222223" id="cases-ep-29"></rect></g><g><rect x="90.09090909090911" y="36.23333333333333" width="2" height="63.76666666666667" id="cases-ep-30"></rect></g><g><rect x="86.52727272727273" y="63.87777777777778" width="2" height="36.12222222222222" id="cases-ep-31"></rect></g><g><rect x="82.96363636363637" y="61.38888888888889" width="2" height="38.61111111111111" id="cases-ep-32"></rect></g><g><rect x="79.4" y="43.01111111111111" width="2" height="56.98888888888889" id="cases-ep-33"></rect></g><g><rect x="75.83636363636364" y="41.48888888888889" width="2" height="58.51111111111111" id="cases-ep-34"></rect></g><g><rect x="72.27272727272727" y="33.81111111111112" width="2" height="66.18888888888888" id="cases-ep-35"></rect></g><g><rect x="68.70909090909092" y="31.32222222222222" width="2" height="68.67777777777778" id="cases-ep-36"></rect></g><g><rect x="65.14545454545454" y="25.03333333333333" width="2" height="74.96666666666667" id="cases-ep-37"></rect></g><g><rect x="61.58181818181818" y="62.711111111111116" width="2" height="37.288888888888884" id="cases-ep-38"></rect></g><g><rect x="58.018181818181816" y="59.533333333333324" width="2" height="40.466666666666676" id="cases-ep-39"></rect></g><g><rect x="54.454545454545446" y="36.88888888888889" width="2" height="63.11111111111111" id="cases-ep-40"></rect></g><g><rect x="50.89090909090908" y="36.24444444444445" width="2" height="63.75555555555555" id="cases-ep-41"></rect></g><g><rect x="47.32727272727273" y="31.422222222222217" width="2" height="68.57777777777778" id="cases-ep-42"></rect></g><g><rect x="43.76363636363636" y="25.544444444444448" width="2" height="74.45555555555555" id="cases-ep-43"></rect></g><g><rect x="40.199999999999996" y="15.788888888888886" width="2" height="84.21111111111111" id="cases-ep-44"></rect></g><g><rect x="36.636363636363626" y="58.666666666666664" width="2" height="41.333333333333336" id="cases-ep-45"></rect></g><g><rect x="33.072727272727285" y="53.44444444444445" width="2" height="46.55555555555555" id="cases-ep-46"></rect></g><g><rect x="29.509090909090922" y="32.144444444444446" width="2" height="67.85555555555555" id="cases-ep-47"></rect></g><g><rect x="25.945454545454556" y="28.366666666666664" width="2" height="71.63333333333334" id="cases-ep-48"></rect></g><g><rect x="22.38181818181819" y="18.52222222222222" width="2" height="81.47777777777779" id="cases-ep-49"></rect></g><g><rect x="18.818181818181824" y="17.15555555555556" width="2" height="82.84444444444443" id="cases-ep-50"></rect></g><g><rect x="15.254545454545461" y="2.633333333333332" width="2" height="97.36666666666667" id="cases-ep-51"></rect></g><g><rect x="11.690909090909095" y="54.34444444444444" width="2" height="45.65555555555556" id="cases-ep-52"></rect></g><g><rect x="8.12727272727273" y="46.01111111111111" width="2" height="53.98888888888889" id="cases-ep-53"></rect></g><g><rect x="4.563636363636365" y="19.25555555555556" width="2" height="80.74444444444444" id="cases-ep-54"></rect></g><g><rect x="1" y="12.9" width="2" height="87.1" id="cases-ep-55"></rect></g></g><g class="fg-line cases-ep" fill="none" stroke="#92c5de" stroke-width="2" stroke-linecap="round"><path d="M198,47.64761904761905L194.43636363636364,45.579365079365076L190.87272727272727,44.15396825396826L187.30909090909088,42.41904761904761L183.74545454545455,42.0063492063492L180.1818181818182,41.27142857142857L176.61818181818182,40.94761904761906L173.05454545454546,40.7984126984127L169.49090909090907,40.17301587301587L165.92727272727274,39.37460317460317L162.36363636363637,39.209523809523816L158.8,38.82857142857142L155.23636363636365,38.42698412698413L151.6727272727273,37.488888888888894L148.1090909090909,37.43333333333333L144.54545454545453,37.83015873015872L140.9818181818182,38.46825396825396L137.41818181818184,38.71904761904762L133.85454545454544,38.63809523809524L130.29090909090908,39.22857142857142L126.72727272727273,40.33015873015873L123.16363636363636,41.300000000000004L119.6,42.23015873015873L116.03636363636363,43.073015873015876L112.47272727272728,45.03968253968254L108.90909090909089,45.479365079365074L105.34545454545456,45.66190476190476L101.78181818181817,45.784126984126985L98.21818181818183,45.714285714285715L94.65454545454546,45.11269841269841L91.09090909090911,44.44761904761905L87.52727272727273,42.847619047619055L83.96363636363637,42.680952380952384L80.4,42.41587301587302L76.83636363636364,41.54126984126984L73.27272727272727,40.792063492063505L69.70909090909092,40.45079365079365L66.14545454545454,39.625396825396834L62.58181818181818,38.30476190476191L59.018181818181816,37.72698412698413L55.454545454545446,36.857142857142854L51.89090909090908,36.17936507936508L48.32727272727273,35.05396825396826L44.76363636363636,33.211111111111116L41.199999999999996,32.01269841269841L37.636363636363626,30.133333333333333L34.072727272727285,29.51587301587302L30.509090909090922,28.453968253968252L26.945454545454556,26.61269841269841L23.38181818181819,24.403174603174605L19.818181818181824,22.149206349206352L16.25454545454546,19.087301587301585L12.690909090909095,16.620634920634924L9.12727272727273,14.73968253968254L5.563636363636365,12.628571428571423L2,9.504761904761905"></path></g></svg>