<svg about="DATA_PUBLISHED_DATE:2021-10-15,RENDER_DATE:2021-10-15" xmlns="http://www.w3.org/2000/svg" viewBox="0,0,200,100"><g transform="translate(0,0)"></g><g class="fg-bars death-date" fill="#00183f" stroke="none"><g><rect x="197" y="37.142857142857146" width="2" height="62.857142857142854" id="death-date-0"></rect></g><g><rect x="193.43636363636364" y="50" width="2" height="50" id="death-date-1"></rect></g><g><rect x="189.87272727272727" y="34.285714285714285" width="2" height="65.71428571428572" id="death-date-2"></rect></g><g><rect x="186.30909090909088" y="47.857142857142854" width="2" height="52.142857142857146" id="death-date-3"></rect></g><g><rect x="182.74545454545455" y="30.000000000000004" width="2" height="70" id="death-date-4"></rect></g><g><rect x="179.1818181818182" y="33.57142857142858" width="2" height="66.42857142857142" id="death-date-5"></rect></g><g><rect x="175.61818181818182" y="27.857142857142858" width="2" height="72.14285714285714" id="death-date-6"></rect></g><g><rect x="172.05454545454546" y="30.000000000000004" width="2" height="70" id="death-date-7"></rect></g><g><rect x="168.49090909090907" y="33.57142857142858" width="2" height="66.42857142857142" id="death-date-8"></rect></g><g><rect x="164.92727272727274" y="21.42857142857143" width="2" height="78.57142857142857" id="death-date-9"></rect></g><g><rect x="161.36363636363637" y="32.14285714285714" width="2" height="67.85714285714286" id="death-date-10"></rect></g><g><rect x="157.8" y="28.57142857142857" width="2" height="71.42857142857143" id="death-date-11"></rect></g><g><rect x="154.23636363636365" y="12.142857142857144" width="2" height="87.85714285714286" id="death-date-12"></rect></g><g><rect x="150.6727272727273" y="18.571428571428573" width="2" height="81.42857142857143" id="death-date-13"></rect></g><g><rect x="147.1090909090909" y="23.571428571428577" width="2" height="76.42857142857142" id="death-date-14"></rect></g><g><rect x="143.54545454545453" y="21.42857142857143" width="2" height="78.57142857142857" id="death-date-15"></rect></g><g><rect x="139.9818181818182" y="18.571428571428573" width="2" height="81.42857142857143" id="death-date-16"></rect></g><g><rect x="136.41818181818184" y="10.71428571428571" width="2" height="89.28571428571429" id="death-date-17"></rect></g><g><rect x="132.85454545454544" y="30.714285714285715" width="2" height="69.28571428571428" id="death-date-18"></rect></g><g><rect x="129.29090909090908" y="15.714285714285714" width="2" height="84.28571428571429" id="death-date-19"></rect></g><g><rect x="125.72727272727273" y="9.285714285714286" width="2" height="90.71428571428571" id="death-date-20"></rect></g><g><rect x="122.16363636363636" y="22.857142857142854" width="2" height="77.14285714285714" id="death-date-21"></rect></g><g><rect x="118.6" y="19.285714285714285" width="2" height="80.71428571428572" id="death-date-22"></rect></g><g><rect x="115.03636363636363" y="25" width="2" height="75" id="death-date-23"></rect></g><g><rect x="111.47272727272728" y="32.14285714285714" width="2" height="67.85714285714286" id="death-date-24"></rect></g><g><rect x="107.90909090909089" y="5.000000000000004" width="2" height="95" id="death-date-25"></rect></g><g><rect x="104.34545454545456" y="18.571428571428573" width="2" height="81.42857142857143" id="death-date-26"></rect></g><g><rect x="100.78181818181817" y="18.571428571428573" width="2" height="81.42857142857143" id="death-date-27"></rect></g><g><rect x="97.21818181818183" y="18.571428571428573" width="2" height="81.42857142857143" id="death-date-28"></rect></g><g><rect x="93.65454545454546" y="19.285714285714285" width="2" height="80.71428571428572" id="death-date-29"></rect></g><g><rect x="90.09090909090911" y="30.000000000000004" width="2" height="70" id="death-date-30"></rect></g><g><rect x="86.52727272727273" y="30.714285714285715" width="2" height="69.28571428571428" id="death-date-31"></rect></g><g><rect x="82.96363636363637" y="27.142857142857146" width="2" height="72.85714285714286" id="death-date-32"></rect></g><g><rect x="79.4" y="35" width="2" height="65" id="death-date-33"></rect></g><g><rect x="75.83636363636364" y="30.714285714285715" width="2" height="69.28571428571428" id="death-date-34"></rect></g><g><rect x="72.27272727272727" y="35.71428571428571" width="2" height="64.28571428571429" id="death-date-35"></rect></g><g><rect x="68.70909090909092" y="22.857142857142854" width="2" height="77.14285714285714" id="death-date-36"></rect></g><g><rect x="65.14545454545454" y="22.857142857142854" width="2" height="77.14285714285714" id="death-date-37"></rect></g><g><rect x="61.58181818181818" y="48.57142857142858" width="2" height="51.42857142857142" id="death-date-38"></rect></g><g><rect x="58.018181818181816" y="45.714285714285715" width="2" height="54.285714285714285" id="death-date-39"></rect></g><g><rect x="54.454545454545446" y="19.999999999999996" width="2" height="80" id="death-date-40"></rect></g><g><rect x="50.89090909090908" y="47.14285714285714" width="2" height="52.85714285714286" id="death-date-41"></rect></g><g><rect x="47.32727272727273" y="49.28571428571429" width="2" height="50.71428571428571" id="death-date-42"></rect></g><g><rect x="43.76363636363636" y="49.28571428571429" width="2" height="50.71428571428571" id="death-date-43"></rect></g><g><rect x="40.199999999999996" y="50" width="2" height="50" id="death-date-44"></rect></g><g><rect x="36.636363636363626" y="50" width="2" height="50" id="death-date-45"></rect></g><g><rect x="33.072727272727285" y="59.285714285714285" width="2" height="40.714285714285715" id="death-date-46"></rect></g><g><rect x="29.509090909090922" y="60.71428571428572" width="2" height="39.28571428571428" id="death-date-47"></rect></g><g><rect x="25.945454545454556" y="63.57142857142857" width="2" height="36.42857142857143" id="death-date-48"></rect></g><g><rect x="22.38181818181819" y="65.71428571428571" width="2" height="34.28571428571429" id="death-date-49"></rect></g><g><rect x="18.818181818181824" y="62.857142857142854" width="2" height="37.142857142857146" id="death-date-50"></rect></g><g><rect x="15.254545454545461" y="60.71428571428572" width="2" height="39.28571428571428" id="death-date-51"></rect></g><g><rect x="11.690909090909095" y="77.14285714285715" width="2" height="22.857142857142847" id="death-date-52"></rect></g><g><rect x="8.12727272727273" y="65" width="2" height="35" id="death-date-53"></rect></g><g><rect x="4.563636363636365" y="80.71428571428572" width="2" height="19.285714285714278" id="death-date-54"></rect></g><g><rect x="1" y="75.71428571428571" width="2" height="24.285714285714292" id="death-date-55"></rect></g></g><g class="fg-line death-date" fill="none" stroke="#92c5de" stroke-width="2" stroke-linecap="round"><path d="M198,37.244897959183675L194.43636363636364,36.22448979591836L190.87272727272727,33.87755102040817L187.30909090909088,32.04081632653062L183.74545454545455,29.79591836734693L180.1818181818182,29.591836734693878L176.61818181818182,26.530612244897956L173.05454545454546,25.204081632653065L169.49090909090907,24.28571428571429L165.92727272727274,22.551020408163268L162.36363636363637,22.142857142857142L158.8,19.08163265306122L155.23636363636365,19.387755102040817L151.6727272727273,19.897959183673475L148.1090909090909,18.571428571428573L144.54545454545453,18.46938775510204L140.9818181818182,18.163265306122454L137.41818181818184,19.08163265306122L133.85454545454544,22.142857142857142L130.29090909090908,18.46938775510204L126.72727272727273,18.877551020408166L123.16363636363636,20.20408163265307L119.6,19.591836734693878L116.03636363636363,19.591836734693878L112.47272727272728,20.30612244897959L108.90909090909089,20.10204081632653L105.34545454545456,23.26530612244898L101.78181818181817,25.61224489795919L98.21818181818183,27.34693877551021L94.65454545454546,29.79591836734693L91.09090909090911,30.30612244897959L87.52727272727273,29.28571428571428L83.96363636363637,31.836734693877546L80.4,34.48979591836735L76.83636363636364,32.3469387755102L73.27272727272727,34.6938775510204L69.70909090909092,36.632653061224495L66.14545454545454,40.408163265306115L62.58181818181818,44.285714285714285L59.018181818181816,44.48979591836735L55.454545454545446,46.42857142857143L51.89090909090908,52.244897959183675L48.32727272727273,54.59183673469388L44.76363636363636,56.938775510204074L41.199999999999996,58.87755102040817L37.636363636363626,60.408163265306115L34.072727272727285,64.28571428571428L30.509090909090922,65.10204081632654L26.945454545454556,67.9591836734694L23.38181818181819,69.6938775510204L19.818181818181824,71.22448979591837L16.25454545454546,73.16326530612245L12.690909090909095,76.12244897959184L9.12727272727273,76.53061224489797L5.563636363636365,79.08163265306123L2,78.16326530612245"></path></g></svg>