<svg meta="{&quot;DATA_PUBLISHED_DATE&quot;:&quot;2023-01-12&quot;,&quot;RENDER_DATE&quot;:&quot;2023-01-19&quot;,&quot;FIRST_DATE&quot;:&quot;2022-10-25&quot;,&quot;LAST_DATE&quot;:&quot;2022-12-19&quot;}" xmlns="http://www.w3.org/2000/svg" viewBox="0,0,200,100"><g transform="translate(0,0)"></g><g class="fg-bars death-date" fill="#00183f" stroke="none"><g><rect x="197" y="34" width="2" height="66" id="death-date-0"></rect></g><g><rect x="193.43636363636364" y="24" width="2" height="76" id="death-date-1"></rect></g><g><rect x="189.87272727272727" y="24" width="2" height="76" id="death-date-2"></rect></g><g><rect x="186.30909090909088" y="36" width="2" height="64" id="death-date-3"></rect></g><g><rect x="182.74545454545455" y="46" width="2" height="54" id="death-date-4"></rect></g><g><rect x="179.1818181818182" y="16.000000000000004" width="2" height="84" id="death-date-5"></rect></g><g><rect x="175.61818181818182" y="26" width="2" height="74" id="death-date-6"></rect></g><g><rect x="172.05454545454546" y="7.9999999999999964" width="2" height="92" id="death-date-7"></rect></g><g><rect x="168.49090909090907" y="16.000000000000004" width="2" height="84" id="death-date-8"></rect></g><g><rect x="164.92727272727274" y="18.000000000000004" width="2" height="82" id="death-date-9"></rect></g><g><rect x="161.36363636363637" y="28.000000000000004" width="2" height="72" id="death-date-10"></rect></g><g><rect x="157.8" y="28.000000000000004" width="2" height="72" id="death-date-11"></rect></g><g><rect x="154.23636363636365" y="31.999999999999996" width="2" height="68" id="death-date-12"></rect></g><g><rect x="150.6727272727273" y="12" width="2" height="88" id="death-date-13"></rect></g><g><rect x="147.1090909090909" y="34" width="2" height="66" id="death-date-14"></rect></g><g><rect x="143.54545454545453" y="18.000000000000004" width="2" height="82" id="death-date-15"></rect></g><g><rect x="139.9818181818182" y="30.000000000000004" width="2" height="70" id="death-date-16"></rect></g><g><rect x="136.41818181818184" y="36" width="2" height="64" id="death-date-17"></rect></g><g><rect x="132.85454545454544" y="58.00000000000001" width="2" height="41.99999999999999" id="death-date-18"></rect></g><g><rect x="129.29090909090908" y="43.99999999999999" width="2" height="56.00000000000001" id="death-date-19"></rect></g><g><rect x="125.72727272727273" y="42.00000000000001" width="2" height="57.99999999999999" id="death-date-20"></rect></g><g><rect x="122.16363636363636" y="43.99999999999999" width="2" height="56.00000000000001" id="death-date-21"></rect></g><g><rect x="118.6" y="28.000000000000004" width="2" height="72" id="death-date-22"></rect></g><g><rect x="115.03636363636363" y="52" width="2" height="48" id="death-date-23"></rect></g><g><rect x="111.47272727272728" y="46" width="2" height="54" id="death-date-24"></rect></g><g><rect x="107.90909090909089" y="72" width="2" height="28" id="death-date-25"></rect></g><g><rect x="104.34545454545456" y="38" width="2" height="62" id="death-date-26"></rect></g><g><rect x="100.78181818181817" y="62" width="2" height="38" id="death-date-27"></rect></g><g><rect x="97.21818181818183" y="68" width="2" height="32" id="death-date-28"></rect></g><g><rect x="93.65454545454546" y="64" width="2" height="36" id="death-date-29"></rect></g><g><rect x="90.09090909090911" y="50" width="2" height="50" id="death-date-30"></rect></g><g><rect x="86.52727272727273" y="60" width="2" height="40" id="death-date-31"></rect></g><g><rect x="82.96363636363637" y="65.99999999999999" width="2" height="34.000000000000014" id="death-date-32"></rect></g><g><rect x="79.4" y="56.00000000000001" width="2" height="43.99999999999999" id="death-date-33"></rect></g><g><rect x="75.83636363636364" y="48" width="2" height="52" id="death-date-34"></rect></g><g><rect x="72.27272727272727" y="65.99999999999999" width="2" height="34.000000000000014" id="death-date-35"></rect></g><g><rect x="68.70909090909092" y="76" width="2" height="24" id="death-date-36"></rect></g><g><rect x="65.14545454545454" y="78" width="2" height="22" id="death-date-37"></rect></g><g><rect x="61.58181818181818" y="70" width="2" height="30" id="death-date-38"></rect></g><g><rect x="58.018181818181816" y="64" width="2" height="36" id="death-date-39"></rect></g><g><rect x="54.454545454545446" y="65.99999999999999" width="2" height="34.000000000000014" id="death-date-40"></rect></g><g><rect x="50.89090909090908" y="74" width="2" height="26" id="death-date-41"></rect></g><g><rect x="47.32727272727273" y="70" width="2" height="30" id="death-date-42"></rect></g><g><rect x="43.76363636363636" y="60" width="2" height="40" id="death-date-43"></rect></g><g><rect x="40.199999999999996" y="72" width="2" height="28" id="death-date-44"></rect></g><g><rect x="36.636363636363626" y="52" width="2" height="48" id="death-date-45"></rect></g><g><rect x="33.072727272727285" y="54" width="2" height="46" id="death-date-46"></rect></g><g><rect x="29.509090909090922" y="68" width="2" height="32" id="death-date-47"></rect></g><g><rect x="25.945454545454556" y="70" width="2" height="30" id="death-date-48"></rect></g><g><rect x="22.38181818181819" y="68" width="2" height="32" id="death-date-49"></rect></g><g><rect x="18.818181818181824" y="82" width="2" height="18" id="death-date-50"></rect></g><g><rect x="15.254545454545461" y="68" width="2" height="32" id="death-date-51"></rect></g><g><rect x="11.690909090909095" y="65.99999999999999" width="2" height="34.000000000000014" id="death-date-52"></rect></g><g><rect x="8.12727272727273" y="54" width="2" height="46" id="death-date-53"></rect></g><g><rect x="4.563636363636365" y="86" width="2" height="14" id="death-date-54"></rect></g><g><rect x="1" y="54" width="2" height="46" id="death-date-55"></rect></g></g><g class="fg-line death-date" fill="none" stroke="#92c5de" stroke-width="2" stroke-linecap="round"><path d="M198,29.428571428571427L194.43636363636364,25.71428571428571L190.87272727272727,24.571428571428566L187.30909090909088,23.714285714285708L183.74545454545455,22.571428571428566L180.1818181818182,19.999999999999996L176.61818181818182,22.285714285714285L173.05454545454546,20.285714285714295L169.49090909090907,24L165.92727272727274,24.28571428571429L162.36363636363637,26L158.8,27.142857142857135L155.23636363636365,31.428571428571427L151.6727272727273,33.14285714285714L148.1090909090909,37.42857142857143L144.54545454545453,38.857142857142854L140.9818181818182,40.28571428571428L137.41818181818184,43.42857142857143L133.85454545454544,44.857142857142854L130.29090909090908,46.857142857142854L126.72727272727273,46L123.16363636363636,48.857142857142854L119.6,52.28571428571429L116.03636363636363,57.42857142857143L112.47272727272728,57.14285714285714L108.90909090909089,59.14285714285714L105.34545454545456,58.285714285714285L101.78181818181817,60.857142857142854L98.21818181818183,58.857142857142854L94.65454545454546,58.57142857142856L91.09090909090911,60.285714285714285L87.52727272727273,64.28571428571428L83.96363636363637,65.71428571428571L80.4,65.42857142857143L76.83636363636364,66.85714285714286L73.27272727272727,70.57142857142857L69.70909090909092,71.14285714285714L66.14545454545454,68.85714285714286L62.58181818181818,68L59.018181818181816,65.42857142857143L55.454545454545446,64L51.89090909090908,64.28571428571428L48.32727272727273,63.71428571428572L44.76363636363636,63.42857142857143L41.199999999999996,66.57142857142857L37.636363636363626,65.99999999999999L34.072727272727285,68L30.509090909090922,68L26.945454545454556,70.57142857142857L23.38181818181819,68.28571428571428L19.818181818181824,68.85714285714286L16.25454545454546,66.85714285714286L12.690909090909095,66.57142857142857L9.12727272727273,65.99999999999999L5.563636363636365,68.28571428571428L2,65.99999999999999"></path></g></svg>