<svg about="DATA_PUBLISHED_DATE:2021-10-26,RENDER_DATE:2021-10-26" xmlns="http://www.w3.org/2000/svg" viewBox="0,0,200,100"><g transform="translate(0,0)"></g><g class="fg-bars death-date" fill="#00183f" stroke="none"><g><rect x="197" y="55.714285714285715" width="2" height="44.285714285714285" id="death-date-0"></rect></g><g><rect x="193.43636363636364" y="44.285714285714285" width="2" height="55.714285714285715" id="death-date-1"></rect></g><g><rect x="189.87272727272727" y="52.85714285714286" width="2" height="47.14285714285714" id="death-date-2"></rect></g><g><rect x="186.30909090909088" y="60.71428571428572" width="2" height="39.28571428571428" id="death-date-3"></rect></g><g><rect x="182.74545454545455" y="47.14285714285714" width="2" height="52.85714285714286" id="death-date-4"></rect></g><g><rect x="179.1818181818182" y="45.714285714285715" width="2" height="54.285714285714285" id="death-date-5"></rect></g><g><rect x="175.61818181818182" y="40.714285714285715" width="2" height="59.285714285714285" id="death-date-6"></rect></g><g><rect x="172.05454545454546" y="47.14285714285714" width="2" height="52.85714285714286" id="death-date-7"></rect></g><g><rect x="168.49090909090907" y="30.000000000000004" width="2" height="70" id="death-date-8"></rect></g><g><rect x="164.92727272727274" y="32.85714285714286" width="2" height="67.14285714285714" id="death-date-9"></rect></g><g><rect x="161.36363636363637" y="27.857142857142858" width="2" height="72.14285714285714" id="death-date-10"></rect></g><g><rect x="157.8" y="20.71428571428572" width="2" height="79.28571428571428" id="death-date-11"></rect></g><g><rect x="154.23636363636365" y="42.85714285714286" width="2" height="57.14285714285714" id="death-date-12"></rect></g><g><rect x="150.6727272727273" y="28.57142857142857" width="2" height="71.42857142857143" id="death-date-13"></rect></g><g><rect x="147.1090909090909" y="43.57142857142857" width="2" height="56.42857142857143" id="death-date-14"></rect></g><g><rect x="143.54545454545453" y="20.71428571428572" width="2" height="79.28571428571428" id="death-date-15"></rect></g><g><rect x="139.9818181818182" y="23.571428571428577" width="2" height="76.42857142857142" id="death-date-16"></rect></g><g><rect x="136.41818181818184" y="20.71428571428572" width="2" height="79.28571428571428" id="death-date-17"></rect></g><g><rect x="132.85454545454544" y="22.857142857142854" width="2" height="77.14285714285714" id="death-date-18"></rect></g><g><rect x="129.29090909090908" y="30.714285714285715" width="2" height="69.28571428571428" id="death-date-19"></rect></g><g><rect x="125.72727272727273" y="15.000000000000002" width="2" height="85" id="death-date-20"></rect></g><g><rect x="122.16363636363636" y="25.71428571428571" width="2" height="74.28571428571429" id="death-date-21"></rect></g><g><rect x="118.6" y="21.42857142857143" width="2" height="78.57142857142857" id="death-date-22"></rect></g><g><rect x="115.03636363636363" y="0.7142857142857117" width="2" height="99.28571428571429" id="death-date-23"></rect></g><g><rect x="111.47272727272728" y="6.428571428571428" width="2" height="93.57142857142857" id="death-date-24"></rect></g><g><rect x="107.90909090909089" y="17.85714285714286" width="2" height="82.14285714285714" id="death-date-25"></rect></g><g><rect x="104.34545454545456" y="15.714285714285714" width="2" height="84.28571428571429" id="death-date-26"></rect></g><g><rect x="100.78181818181817" y="12.857142857142856" width="2" height="87.14285714285714" id="death-date-27"></rect></g><g><rect x="97.21818181818183" y="5.714285714285716" width="2" height="94.28571428571428" id="death-date-28"></rect></g><g><rect x="93.65454545454546" y="26.428571428571423" width="2" height="73.57142857142858" id="death-date-29"></rect></g><g><rect x="90.09090909090911" y="8.571428571428575" width="2" height="91.42857142857143" id="death-date-30"></rect></g><g><rect x="86.52727272727273" y="2.857142857142858" width="2" height="97.14285714285714" id="death-date-31"></rect></g><g><rect x="82.96363636363637" y="19.999999999999996" width="2" height="80" id="death-date-32"></rect></g><g><rect x="79.4" y="15.714285714285714" width="2" height="84.28571428571429" id="death-date-33"></rect></g><g><rect x="75.83636363636364" y="19.285714285714285" width="2" height="80.71428571428572" id="death-date-34"></rect></g><g><rect x="72.27272727272727" y="30.714285714285715" width="2" height="69.28571428571428" id="death-date-35"></rect></g><g><rect x="68.70909090909092" y="2.857142857142858" width="2" height="97.14285714285714" id="death-date-36"></rect></g><g><rect x="65.14545454545454" y="15.714285714285714" width="2" height="84.28571428571429" id="death-date-37"></rect></g><g><rect x="61.58181818181818" y="15.000000000000002" width="2" height="85" id="death-date-38"></rect></g><g><rect x="58.018181818181816" y="15.000000000000002" width="2" height="85" id="death-date-39"></rect></g><g><rect x="54.454545454545446" y="17.14285714285714" width="2" height="82.85714285714286" id="death-date-40"></rect></g><g><rect x="50.89090909090908" y="27.857142857142858" width="2" height="72.14285714285714" id="death-date-41"></rect></g><g><rect x="47.32727272727273" y="27.857142857142858" width="2" height="72.14285714285714" id="death-date-42"></rect></g><g><rect x="43.76363636363636" y="23.571428571428577" width="2" height="76.42857142857142" id="death-date-43"></rect></g><g><rect x="40.199999999999996" y="33.57142857142858" width="2" height="66.42857142857142" id="death-date-44"></rect></g><g><rect x="36.636363636363626" y="29.28571428571428" width="2" height="70.71428571428572" id="death-date-45"></rect></g><g><rect x="33.072727272727285" y="35" width="2" height="65" id="death-date-46"></rect></g><g><rect x="29.509090909090922" y="21.42857142857143" width="2" height="78.57142857142857" id="death-date-47"></rect></g><g><rect x="25.945454545454556" y="20.71428571428572" width="2" height="79.28571428571428" id="death-date-48"></rect></g><g><rect x="22.38181818181819" y="48.57142857142858" width="2" height="51.42857142857142" id="death-date-49"></rect></g><g><rect x="18.818181818181824" y="45.714285714285715" width="2" height="54.285714285714285" id="death-date-50"></rect></g><g><rect x="15.254545454545461" y="19.285714285714285" width="2" height="80.71428571428572" id="death-date-51"></rect></g><g><rect x="11.690909090909095" y="44.285714285714285" width="2" height="55.714285714285715" id="death-date-52"></rect></g><g><rect x="8.12727272727273" y="48.57142857142858" width="2" height="51.42857142857142" id="death-date-53"></rect></g><g><rect x="4.563636363636365" y="46.42857142857143" width="2" height="53.57142857142857" id="death-date-54"></rect></g><g><rect x="1" y="49.28571428571429" width="2" height="50.71428571428571" id="death-date-55"></rect></g></g><g class="fg-line death-date" fill="none" stroke="#92c5de" stroke-width="2" stroke-linecap="round"><path d="M198,49.591836734693885L194.43636363636364,48.367346938775505L190.87272727272727,46.326530612244895L187.30909090909088,43.46938775510204L183.74545454545455,38.77551020408164L180.1818181818182,35L176.61818181818182,34.591836734693885L173.05454545454546,32.85714285714286L169.49090909090907,32.3469387755102L165.92727272727274,31.020408163265312L162.36363636363637,29.69387755102041L158.8,28.6734693877551L155.23636363636365,28.9795918367347L151.6727272727273,27.244897959183668L148.1090909090909,25.306122448979597L144.54545454545453,22.755102040816332L140.9818181818182,22.857142857142854L137.41818181818184,19.591836734693878L133.85454545454544,17.551020408163264L130.29090909090908,16.836734693877553L126.72727272727273,14.693877551020407L123.16363636363636,14.387755102040812L119.6,11.530612244897952L116.03636363636363,12.244897959183676L112.47272727272728,13.367346938775505L108.90909090909089,12.857142857142856L105.34545454545456,13.163265306122451L101.78181818181817,13.163265306122451L98.21818181818183,14.081632653061217L94.65454545454546,17.653061224489797L91.09090909090911,14.28571428571429L87.52727272727273,15.306122448979597L83.96363636363637,17.040816326530617L80.4,16.326530612244905L76.83636363636364,16.53061224489796L73.27272727272727,17.75510204081633L69.70909090909092,17.34693877551021L66.14545454545454,20.30612244897959L62.58181818181818,22.857142857142854L59.018181818181816,24.897959183673468L55.454545454545446,27.755102040816325L51.89090909090908,28.367346938775505L48.32727272727273,27.34693877551021L44.76363636363636,30.30612244897959L41.199999999999996,33.46938775510204L37.636363636363626,31.428571428571427L34.072727272727285,33.57142857142858L30.509090909090922,35.510204081632644L26.945454545454556,39.08163265306121L23.38181818181819,43.163265306122454L19.818181818181824,43.36734693877551L16.25454545454546,45.10204081632653L12.690909090909095,51.02040816326531L9.12727272727273,53.77551020408164L5.563636363636365,56.122448979591844L2,58.46938775510204"></path></g></svg>