<svg about="DATA_PUBLISHED_DATE:2021-12-31,RENDER_DATE:2022-01-03" xmlns="http://www.w3.org/2000/svg" viewBox="0,0,200,100"><g transform="translate(0,0)"></g><g class="fg-bars cases-ep" fill="#00183f" stroke="none"><g><rect x="197" y="4.40666666666667" width="2" height="95.59333333333333" id="cases-ep-0"></rect></g><g><rect x="193.43636363636364" y="18.85333333333333" width="2" height="81.14666666666668" id="cases-ep-1"></rect></g><g><rect x="189.87272727272727" y="33.766666666666666" width="2" height="66.23333333333333" id="cases-ep-2"></rect></g><g><rect x="186.30909090909088" y="70.35333333333334" width="2" height="29.64666666666666" id="cases-ep-3"></rect></g><g><rect x="182.74545454545455" y="70.88" width="2" height="29.120000000000005" id="cases-ep-4"></rect></g><g><rect x="179.1818181818182" y="65.47" width="2" height="34.53" id="cases-ep-5"></rect></g><g><rect x="175.61818181818182" y="67.47333333333334" width="2" height="32.52666666666666" id="cases-ep-6"></rect></g><g><rect x="172.05454545454546" y="67.7" width="2" height="32.3" id="cases-ep-7"></rect></g><g><rect x="168.49090909090907" y="73.03" width="2" height="26.97" id="cases-ep-8"></rect></g><g><rect x="164.92727272727274" y="71.21666666666667" width="2" height="28.78333333333333" id="cases-ep-9"></rect></g><g><rect x="161.36363636363637" y="85.75666666666667" width="2" height="14.243333333333325" id="cases-ep-10"></rect></g><g><rect x="157.8" y="86.07000000000001" width="2" height="13.929999999999993" id="cases-ep-11"></rect></g><g><rect x="154.23636363636365" y="80.52666666666667" width="2" height="19.47333333333333" id="cases-ep-12"></rect></g><g><rect x="150.6727272727273" y="80.67" width="2" height="19.33" id="cases-ep-13"></rect></g><g><rect x="147.1090909090909" y="78.51333333333334" width="2" height="21.486666666666665" id="cases-ep-14"></rect></g><g><rect x="143.54545454545453" y="78.61666666666667" width="2" height="21.383333333333326" id="cases-ep-15"></rect></g><g><rect x="139.9818181818182" y="75.75" width="2" height="24.25" id="cases-ep-16"></rect></g><g><rect x="136.41818181818184" y="87.48666666666666" width="2" height="12.513333333333335" id="cases-ep-17"></rect></g><g><rect x="132.85454545454544" y="86.39666666666666" width="2" height="13.603333333333339" id="cases-ep-18"></rect></g><g><rect x="129.29090909090908" y="79.85333333333332" width="2" height="20.146666666666675" id="cases-ep-19"></rect></g><g><rect x="125.72727272727273" y="79.32000000000001" width="2" height="20.679999999999993" id="cases-ep-20"></rect></g><g><rect x="122.16363636363636" y="75.4" width="2" height="24.599999999999994" id="cases-ep-21"></rect></g><g><rect x="118.6" y="76.55333333333334" width="2" height="23.44666666666666" id="cases-ep-22"></rect></g><g><rect x="115.03636363636363" y="72.73333333333333" width="2" height="27.266666666666666" id="cases-ep-23"></rect></g><g><rect x="111.47272727272728" y="85.45666666666666" width="2" height="14.543333333333337" id="cases-ep-24"></rect></g><g><rect x="107.90909090909089" y="86.02" width="2" height="13.980000000000004" id="cases-ep-25"></rect></g><g><rect x="104.34545454545456" y="85.57333333333334" width="2" height="14.426666666666662" id="cases-ep-26"></rect></g><g><rect x="100.78181818181817" y="92.45666666666666" width="2" height="7.5433333333333366" id="cases-ep-27"></rect></g><g><rect x="97.21818181818183" y="84.61" width="2" height="15.39" id="cases-ep-28"></rect></g><g><rect x="93.65454545454546" y="83.98" width="2" height="16.019999999999996" id="cases-ep-29"></rect></g><g><rect x="90.09090909090911" y="82.72" width="2" height="17.28" id="cases-ep-30"></rect></g><g><rect x="86.52727272727273" y="90.22333333333333" width="2" height="9.77666666666667" id="cases-ep-31"></rect></g><g><rect x="82.96363636363637" y="89.17333333333333" width="2" height="10.826666666666668" id="cases-ep-32"></rect></g><g><rect x="79.4" y="84.78666666666666" width="2" height="15.213333333333338" id="cases-ep-33"></rect></g><g><rect x="75.83636363636364" y="84.47333333333333" width="2" height="15.52666666666667" id="cases-ep-34"></rect></g><g><rect x="72.27272727272727" y="82.89" width="2" height="17.11" id="cases-ep-35"></rect></g><g><rect x="68.70909090909092" y="82.02666666666667" width="2" height="17.97333333333333" id="cases-ep-36"></rect></g><g><rect x="65.14545454545454" y="78.81" width="2" height="21.189999999999998" id="cases-ep-37"></rect></g><g><rect x="61.58181818181818" y="89.23" width="2" height="10.769999999999996" id="cases-ep-38"></rect></g><g><rect x="58.018181818181816" y="88.57666666666667" width="2" height="11.423333333333332" id="cases-ep-39"></rect></g><g><rect x="54.454545454545446" y="83.10333333333332" width="2" height="16.896666666666675" id="cases-ep-40"></rect></g><g><rect x="50.89090909090908" y="85.68666666666667" width="2" height="14.313333333333333" id="cases-ep-41"></rect></g><g><rect x="47.32727272727273" y="81.35" width="2" height="18.650000000000006" id="cases-ep-42"></rect></g><g><rect x="43.76363636363636" y="80.47333333333333" width="2" height="19.52666666666667" id="cases-ep-43"></rect></g><g><rect x="40.199999999999996" y="77.95333333333333" width="2" height="22.046666666666667" id="cases-ep-44"></rect></g><g><rect x="36.636363636363626" y="88.49666666666667" width="2" height="11.50333333333333" id="cases-ep-45"></rect></g><g><rect x="33.072727272727285" y="87.82" width="2" height="12.180000000000007" id="cases-ep-46"></rect></g><g><rect x="29.509090909090922" y="81.63" width="2" height="18.370000000000005" id="cases-ep-47"></rect></g><g><rect x="25.945454545454556" y="80.02666666666667" width="2" height="19.97333333333333" id="cases-ep-48"></rect></g><g><rect x="22.38181818181819" y="78.78" width="2" height="21.22" id="cases-ep-49"></rect></g><g><rect x="18.818181818181824" y="78.53" width="2" height="21.47" id="cases-ep-50"></rect></g><g><rect x="15.254545454545461" y="75.51666666666667" width="2" height="24.483333333333334" id="cases-ep-51"></rect></g><g><rect x="11.690909090909095" y="88.44" width="2" height="11.560000000000002" id="cases-ep-52"></rect></g><g><rect x="8.12727272727273" y="86.93666666666667" width="2" height="13.063333333333333" id="cases-ep-53"></rect></g><g><rect x="4.563636363636365" y="81.3" width="2" height="18.700000000000003" id="cases-ep-54"></rect></g><g><rect x="1" y="79.85666666666667" width="2" height="20.14333333333333" id="cases-ep-55"></rect></g></g><g class="fg-line cases-ep" fill="none" stroke="#92c5de" stroke-width="2" stroke-linecap="round"><path d="M198,47.3147619047619L194.43636363636364,56.35666666666667L190.87272727272727,64.09619047619049L187.30909090909088,69.44619047619047L183.74545454545455,71.64666666666666L180.1818181818182,73.81666666666666L176.61818181818182,75.96761904761905L173.05454545454546,77.85285714285715L169.49090909090907,79.39761904761905L165.92727272727274,80.19571428571427L162.36363636363637,80.84333333333333L158.8,81.0904761904762L155.23636363636365,81.13714285714285L151.6727272727273,81.04095238095238L148.1090909090909,80.84809523809524L144.54545454545453,80.40333333333334L140.9818181818182,80.10857142857142L137.41818181818184,79.67761904761905L133.85454545454544,79.38761904761905L130.29090909090908,79.33380952380953L126.72727272727273,80.15095238095238L123.16363636363636,82.02761904761905L119.6,83.34333333333333L116.03636363636363,84.4042857142857L112.47272727272728,85.83095238095238L108.90909090909089,86.51190476190476L105.34545454545456,86.96238095238095L101.78181818181817,86.85000000000001L98.21818181818183,85.70952380952382L94.65454545454546,85.46380952380952L91.09090909090911,85.18476190476191L87.52727272727273,84.62619047619047L83.96363636363637,84.48428571428572L80.4,84.39904761904762L76.83636363636364,84.15857142857142L73.27272727272727,84.33190476190477L69.70909090909092,84.11190476190477L66.14545454545454,83.89L62.58181818181818,83.76761904761905L59.018181818181816,83.66285714285715L55.454545454545446,83.5547619047619L51.89090909090908,83.34428571428572L48.32727272727273,82.53571428571429L44.76363636363636,82.16857142857143L41.199999999999996,81.89095238095238L37.636363636363626,81.54285714285714L34.072727272727285,81.5347619047619L30.509090909090922,81.40857142857143L26.945454545454556,81.36142857142858L23.38181818181819,81.33714285714285L19.818181818181824,81.27142857142857L16.25454545454546,81.12714285714286L12.690909090909095,81.20095238095239L9.12727272727273,81.16238095238096L5.563636363636365,81.10809523809523L2,80.94571428571429"></path></g></svg>