<svg about="DATA_PUBLISHED_DATE:2021-10-05,RENDER_DATE:2021-10-05" xmlns="http://www.w3.org/2000/svg" viewBox="0,0,200,100"><g transform="translate(0,0)"></g><g class="fg-bars cases-ep" fill="#00183f" stroke="none"><g><rect x="197" y="83.82777777777778" width="2" height="16.172222222222217" id="cases-ep-0"></rect></g><g><rect x="193.43636363636364" y="80.01666666666667" width="2" height="19.983333333333334" id="cases-ep-1"></rect></g><g><rect x="189.87272727272727" y="68.76111111111112" width="2" height="31.23888888888888" id="cases-ep-2"></rect></g><g><rect x="186.30909090909088" y="66.74444444444445" width="2" height="33.255555555555546" id="cases-ep-3"></rect></g><g><rect x="182.74545454545455" y="61.33888888888889" width="2" height="38.66111111111111" id="cases-ep-4"></rect></g><g><rect x="179.1818181818182" y="60" width="2" height="40" id="cases-ep-5"></rect></g><g><rect x="175.61818181818182" y="53.63333333333333" width="2" height="46.36666666666667" id="cases-ep-6"></rect></g><g><rect x="172.05454545454546" y="77.83888888888889" width="2" height="22.16111111111111" id="cases-ep-7"></rect></g><g><rect x="168.49090909090907" y="73.47222222222223" width="2" height="26.52777777777777" id="cases-ep-8"></rect></g><g><rect x="164.92727272727274" y="60.31111111111112" width="2" height="39.68888888888888" id="cases-ep-9"></rect></g><g><rect x="161.36363636363637" y="57.211111111111116" width="2" height="42.788888888888884" id="cases-ep-10"></rect></g><g><rect x="157.8" y="51.68333333333332" width="2" height="48.31666666666668" id="cases-ep-11"></rect></g><g><rect x="154.23636363636365" y="48.44444444444444" width="2" height="51.55555555555556" id="cases-ep-12"></rect></g><g><rect x="150.6727272727273" y="42.788888888888884" width="2" height="57.211111111111116" id="cases-ep-13"></rect></g><g><rect x="147.1090909090909" y="71.15555555555555" width="2" height="28.84444444444445" id="cases-ep-14"></rect></g><g><rect x="143.54545454545453" y="66.10555555555555" width="2" height="33.894444444444446" id="cases-ep-15"></rect></g><g><rect x="139.9818181818182" y="49.17777777777778" width="2" height="50.82222222222222" id="cases-ep-16"></rect></g><g><rect x="136.41818181818184" y="44.41111111111111" width="2" height="55.58888888888889" id="cases-ep-17"></rect></g><g><rect x="132.85454545454544" y="37.9" width="2" height="62.1" id="cases-ep-18"></rect></g><g><rect x="129.29090909090908" y="32.111111111111114" width="2" height="67.88888888888889" id="cases-ep-19"></rect></g><g><rect x="125.72727272727273" y="63.85000000000001" width="2" height="36.14999999999999" id="cases-ep-20"></rect></g><g><rect x="122.16363636363636" y="71.12222222222222" width="2" height="28.87777777777778" id="cases-ep-21"></rect></g><g><rect x="118.6" y="63.30555555555555" width="2" height="36.69444444444445" id="cases-ep-22"></rect></g><g><rect x="115.03636363636363" y="45.81111111111112" width="2" height="54.18888888888888" id="cases-ep-23"></rect></g><g><rect x="111.47272727272728" y="40.011111111111106" width="2" height="59.988888888888894" id="cases-ep-24"></rect></g><g><rect x="107.90909090909089" y="30.094444444444445" width="2" height="69.90555555555555" id="cases-ep-25"></rect></g><g><rect x="104.34545454545456" y="32.15" width="2" height="67.85" id="cases-ep-26"></rect></g><g><rect x="100.78181818181817" y="26.84444444444445" width="2" height="73.15555555555555" id="cases-ep-27"></rect></g><g><rect x="97.21818181818183" y="64.3" width="2" height="35.7" id="cases-ep-28"></rect></g><g><rect x="93.65454545454546" y="57.47222222222222" width="2" height="42.52777777777778" id="cases-ep-29"></rect></g><g><rect x="90.09090909090911" y="38.26111111111111" width="2" height="61.73888888888889" id="cases-ep-30"></rect></g><g><rect x="86.52727272727273" y="31.54444444444444" width="2" height="68.45555555555556" id="cases-ep-31"></rect></g><g><rect x="82.96363636363637" y="25.13888888888889" width="2" height="74.86111111111111" id="cases-ep-32"></rect></g><g><rect x="79.4" y="22.877777777777773" width="2" height="77.12222222222223" id="cases-ep-33"></rect></g><g><rect x="75.83636363636364" y="15.722222222222227" width="2" height="84.27777777777777" id="cases-ep-34"></rect></g><g><rect x="72.27272727272727" y="58.63333333333334" width="2" height="41.36666666666666" id="cases-ep-35"></rect></g><g><rect x="68.70909090909092" y="51.16111111111111" width="2" height="48.83888888888889" id="cases-ep-36"></rect></g><g><rect x="65.14545454545454" y="26.22777777777778" width="2" height="73.77222222222221" id="cases-ep-37"></rect></g><g><rect x="61.58181818181818" y="23.305555555555557" width="2" height="76.69444444444444" id="cases-ep-38"></rect></g><g><rect x="58.018181818181816" y="17.133333333333333" width="2" height="82.86666666666667" id="cases-ep-39"></rect></g><g><rect x="54.454545454545446" y="14.488888888888884" width="2" height="85.51111111111112" id="cases-ep-40"></rect></g><g><rect x="50.89090909090908" y="11.02777777777778" width="2" height="88.97222222222221" id="cases-ep-41"></rect></g><g><rect x="47.32727272727273" y="54.955555555555556" width="2" height="45.044444444444444" id="cases-ep-42"></rect></g><g><rect x="43.76363636363636" y="47.105555555555554" width="2" height="52.894444444444446" id="cases-ep-43"></rect></g><g><rect x="40.199999999999996" y="24.038888888888888" width="2" height="75.96111111111111" id="cases-ep-44"></rect></g><g><rect x="36.636363636363626" y="19.399999999999995" width="2" height="80.60000000000001" id="cases-ep-45"></rect></g><g><rect x="33.072727272727285" y="14.633333333333331" width="2" height="85.36666666666667" id="cases-ep-46"></rect></g><g><rect x="29.509090909090922" y="10.844444444444445" width="2" height="89.15555555555555" id="cases-ep-47"></rect></g><g><rect x="25.945454545454556" y="10.183333333333334" width="2" height="89.81666666666666" id="cases-ep-48"></rect></g><g><rect x="22.38181818181819" y="52.32222222222222" width="2" height="47.67777777777778" id="cases-ep-49"></rect></g><g><rect x="18.818181818181824" y="46.66111111111111" width="2" height="53.33888888888889" id="cases-ep-50"></rect></g><g><rect x="15.254545454545461" y="28.73888888888889" width="2" height="71.2611111111111" id="cases-ep-51"></rect></g><g><rect x="11.690909090909095" y="23.166666666666668" width="2" height="76.83333333333333" id="cases-ep-52"></rect></g><g><rect x="8.12727272727273" y="22.316666666666663" width="2" height="77.68333333333334" id="cases-ep-53"></rect></g><g><rect x="4.563636363636365" y="20.65555555555556" width="2" height="79.34444444444443" id="cases-ep-54"></rect></g><g><rect x="1" y="22.311111111111114" width="2" height="77.68888888888888" id="cases-ep-55"></rect></g></g><g class="fg-line cases-ep" fill="none" stroke="#92c5de" stroke-width="2" stroke-linecap="round"><path d="M198,67.76031746031745L194.43636363636364,66.90476190476191L190.87272727272727,65.96984126984127L187.30909090909088,64.76269841269841L183.74545454545455,63.40079365079365L180.1818181818182,62.02142857142857L176.61818181818182,60.37063492063493L173.05454545454546,58.821428571428584L169.49090909090907,57.86666666666667L165.92727272727274,56.8142857142857L162.36363636363637,55.22380952380952L158.8,53.3952380952381L155.23636363636365,51.426190476190484L151.6727272727273,49.09285714285715L148.1090909090909,52.101587301587294L144.54545454545453,52.09682539682539L140.9818181818182,51.69682539682539L137.41818181818184,51.215873015873015L133.85454545454544,50.58730158730159L130.29090909090908,49.472222222222214L126.72727272727273,49.477777777777774L123.16363636363636,44.19126984126984L119.6,43.21666666666667L116.03636363636363,42.383333333333326L112.47272727272728,41.30476190476191L108.90909090909089,40.095238095238095L105.34545454545456,39.38730158730159L101.78181818181817,38.06269841269842L98.21818181818183,36.47380952380952L94.65454545454546,35.66428571428572L91.09090909090911,34.76269841269841L87.52727272727273,33.04365079365079L83.96363636363637,31.866666666666667L80.4,30.723015873015868L76.83636363636364,29.524603174603172L73.27272727272727,28.853968253968254L69.70909090909092,28.328571428571426L66.14545454545454,27.749206349206347L62.58181818181818,27.436507936507937L59.018181818181816,26.87857142857143L55.454545454545446,26.521428571428572L51.89090909090908,26.000793650793653L48.32727272727273,25.88015873015873L44.76363636363636,25.503968253968257L41.199999999999996,25.44047619047619L37.636363636363626,26.111904761904757L34.072727272727285,26.649999999999995L30.509090909090922,27.747619047619054L26.945454545454556,29.149206349206345L23.38181818181819,30.881746031746037L19.818181818181824,31.03174603174603L16.25454545454546,31.9484126984127L12.690909090909095,33.37063492063492L9.12727272727273,35.05079365079366L5.563636363636365,36.804761904761904L2,39.27936507936508"></path></g></svg>