<svg about="DATA_PUBLISHED_DATE:2021-10-20,RENDER_DATE:2021-10-20" xmlns="http://www.w3.org/2000/svg" viewBox="0,0,200,100"><g transform="translate(0,0)"></g><g class="fg-bars death-date" fill="#00183f" stroke="none"><g><rect x="197" y="49.28571428571429" width="2" height="50.71428571428571" id="death-date-0"></rect></g><g><rect x="193.43636363636364" y="51.42857142857142" width="2" height="48.57142857142858" id="death-date-1"></rect></g><g><rect x="189.87272727272727" y="37.857142857142854" width="2" height="62.142857142857146" id="death-date-2"></rect></g><g><rect x="186.30909090909088" y="43.57142857142857" width="2" height="56.42857142857143" id="death-date-3"></rect></g><g><rect x="182.74545454545455" y="32.14285714285714" width="2" height="67.85714285714286" id="death-date-4"></rect></g><g><rect x="179.1818181818182" y="31.428571428571427" width="2" height="68.57142857142857" id="death-date-5"></rect></g><g><rect x="175.61818181818182" y="46.42857142857143" width="2" height="53.57142857142857" id="death-date-6"></rect></g><g><rect x="172.05454545454546" y="32.14285714285714" width="2" height="67.85714285714286" id="death-date-7"></rect></g><g><rect x="168.49090909090907" y="45.714285714285715" width="2" height="54.285714285714285" id="death-date-8"></rect></g><g><rect x="164.92727272727274" y="27.142857142857146" width="2" height="72.85714285714286" id="death-date-9"></rect></g><g><rect x="161.36363636363637" y="26.428571428571423" width="2" height="73.57142857142858" id="death-date-10"></rect></g><g><rect x="157.8" y="25.71428571428571" width="2" height="74.28571428571429" id="death-date-11"></rect></g><g><rect x="154.23636363636365" y="27.142857142857146" width="2" height="72.85714285714286" id="death-date-12"></rect></g><g><rect x="150.6727272727273" y="31.428571428571427" width="2" height="68.57142857142857" id="death-date-13"></rect></g><g><rect x="147.1090909090909" y="19.285714285714285" width="2" height="80.71428571428572" id="death-date-14"></rect></g><g><rect x="143.54545454545453" y="30.000000000000004" width="2" height="70" id="death-date-15"></rect></g><g><rect x="139.9818181818182" y="27.142857142857146" width="2" height="72.85714285714286" id="death-date-16"></rect></g><g><rect x="136.41818181818184" y="8.571428571428575" width="2" height="91.42857142857143" id="death-date-17"></rect></g><g><rect x="132.85454545454544" y="13.571428571428568" width="2" height="86.42857142857143" id="death-date-18"></rect></g><g><rect x="129.29090909090908" y="19.999999999999996" width="2" height="80" id="death-date-19"></rect></g><g><rect x="125.72727272727273" y="20.71428571428572" width="2" height="79.28571428571428" id="death-date-20"></rect></g><g><rect x="122.16363636363636" y="15.714285714285714" width="2" height="84.28571428571429" id="death-date-21"></rect></g><g><rect x="118.6" y="7.14285714285714" width="2" height="92.85714285714286" id="death-date-22"></rect></g><g><rect x="115.03636363636363" y="29.28571428571428" width="2" height="70.71428571428572" id="death-date-23"></rect></g><g><rect x="111.47272727272728" y="11.428571428571432" width="2" height="88.57142857142857" id="death-date-24"></rect></g><g><rect x="107.90909090909089" y="8.571428571428575" width="2" height="91.42857142857143" id="death-date-25"></rect></g><g><rect x="104.34545454545456" y="21.42857142857143" width="2" height="78.57142857142857" id="death-date-26"></rect></g><g><rect x="100.78181818181817" y="19.285714285714285" width="2" height="80.71428571428572" id="death-date-27"></rect></g><g><rect x="97.21818181818183" y="22.857142857142854" width="2" height="77.14285714285714" id="death-date-28"></rect></g><g><rect x="93.65454545454546" y="31.428571428571427" width="2" height="68.57142857142857" id="death-date-29"></rect></g><g><rect x="90.09090909090911" y="3.57142857142857" width="2" height="96.42857142857143" id="death-date-30"></rect></g><g><rect x="86.52727272727273" y="17.85714285714286" width="2" height="82.14285714285714" id="death-date-31"></rect></g><g><rect x="82.96363636363637" y="15.714285714285714" width="2" height="84.28571428571429" id="death-date-32"></rect></g><g><rect x="79.4" y="17.14285714285714" width="2" height="82.85714285714286" id="death-date-33"></rect></g><g><rect x="75.83636363636364" y="19.285714285714285" width="2" height="80.71428571428572" id="death-date-34"></rect></g><g><rect x="72.27272727272727" y="30.000000000000004" width="2" height="70" id="death-date-35"></rect></g><g><rect x="68.70909090909092" y="30.000000000000004" width="2" height="70" id="death-date-36"></rect></g><g><rect x="65.14545454545454" y="25" width="2" height="75" id="death-date-37"></rect></g><g><rect x="61.58181818181818" y="35" width="2" height="65" id="death-date-38"></rect></g><g><rect x="58.018181818181816" y="30.000000000000004" width="2" height="70" id="death-date-39"></rect></g><g><rect x="54.454545454545446" y="35.71428571428571" width="2" height="64.28571428571429" id="death-date-40"></rect></g><g><rect x="50.89090909090908" y="22.142857142857142" width="2" height="77.85714285714286" id="death-date-41"></rect></g><g><rect x="47.32727272727273" y="22.142857142857142" width="2" height="77.85714285714286" id="death-date-42"></rect></g><g><rect x="43.76363636363636" y="48.57142857142858" width="2" height="51.42857142857142" id="death-date-43"></rect></g><g><rect x="40.199999999999996" y="45.714285714285715" width="2" height="54.285714285714285" id="death-date-44"></rect></g><g><rect x="36.636363636363626" y="19.285714285714285" width="2" height="80.71428571428572" id="death-date-45"></rect></g><g><rect x="33.072727272727285" y="44.99999999999999" width="2" height="55.00000000000001" id="death-date-46"></rect></g><g><rect x="29.509090909090922" y="48.57142857142858" width="2" height="51.42857142857142" id="death-date-47"></rect></g><g><rect x="25.945454545454556" y="47.857142857142854" width="2" height="52.142857142857146" id="death-date-48"></rect></g><g><rect x="22.38181818181819" y="48.57142857142858" width="2" height="51.42857142857142" id="death-date-49"></rect></g><g><rect x="18.818181818181824" y="49.28571428571429" width="2" height="50.71428571428571" id="death-date-50"></rect></g><g><rect x="15.254545454545461" y="59.285714285714285" width="2" height="40.714285714285715" id="death-date-51"></rect></g><g><rect x="11.690909090909095" y="60.71428571428572" width="2" height="39.28571428571428" id="death-date-52"></rect></g><g><rect x="8.12727272727273" y="63.57142857142857" width="2" height="36.42857142857143" id="death-date-53"></rect></g><g><rect x="4.563636363636365" y="65.71428571428571" width="2" height="34.28571428571429" id="death-date-54"></rect></g><g><rect x="1" y="62.857142857142854" width="2" height="37.142857142857146" id="death-date-55"></rect></g></g><g class="fg-line death-date" fill="none" stroke="#92c5de" stroke-width="2" stroke-linecap="round"><path d="M198,41.734693877551024L194.43636363636364,39.28571428571429L190.87272727272727,38.46938775510205L187.30909090909088,36.93877551020408L183.74545454545455,34.48979591836735L180.1818181818182,33.57142857142858L176.61818181818182,32.95918367346938L173.05454545454546,30.816326530612237L169.49090909090907,28.9795918367347L165.92727272727274,26.73469387755102L162.36363636363637,26.73469387755102L158.8,24.183673469387756L155.23636363636365,22.44897959183674L151.6727272727273,21.42857142857143L148.1090909090909,19.897959183673475L144.54545454545453,19.387755102040817L140.9818181818182,16.12244897959183L137.41818181818184,16.428571428571427L133.85454545454544,16.836734693877553L130.29090909090908,16.12244897959183L126.72727272727273,16.326530612244905L123.16363636363636,16.12244897959183L119.6,17.14285714285714L116.03636363636363,20.612244897959187L112.47272727272728,16.938775510204074L108.90909090909089,17.85714285714286L105.34545454545456,18.877551020408166L101.78181818181817,18.265306122448976L98.21818181818183,18.265306122448976L94.65454545454546,19.285714285714285L91.09090909090911,19.08163265306122L87.52727272727273,22.142857142857142L83.96363636363637,24.591836734693885L80.4,26.6326530612245L76.83636363636364,29.28571428571428L73.27272727272727,29.69387755102041L69.70909090909092,28.57142857142857L66.14545454545454,31.224489795918366L62.58181818181818,34.183673469387756L59.018181818181816,31.938775510204074L55.454545454545446,34.08163265306122L51.89090909090908,35.91836734693879L48.32727272727273,39.59183673469388L44.76363636363636,43.36734693877551L41.199999999999996,43.46938775510204L37.636363636363626,45.40816326530612L34.072727272727285,51.3265306122449L30.509090909090922,53.979591836734684L26.945454545454556,56.42857142857143L23.38181818181819,58.57142857142856L19.818181818181824,60.10204081632653L16.25454545454546,63.9795918367347L12.690909090909095,64.79591836734694L9.12727272727273,67.3469387755102L5.563636363636365,68.9795918367347L2,70.51020408163265"></path></g></svg>