<svg meta="{&quot;DATA_PUBLISHED_DATE&quot;:&quot;2022-03-09&quot;,&quot;RENDER_DATE&quot;:&quot;2022-03-09&quot;,&quot;FIRST_DATE&quot;:&quot;2022-01-04&quot;,&quot;LAST_DATE&quot;:&quot;2022-02-28&quot;}" xmlns="http://www.w3.org/2000/svg" viewBox="0,0,200,100"><g transform="translate(0,0)"></g><g class="fg-bars cases-ep" fill="#00183f" stroke="none"><g><rect x="197" y="96.951875" width="2" height="3.048124999999999" id="cases-ep-0"></rect></g><g><rect x="193.43636363636364" y="98.65937500000001" width="2" height="1.3406249999999886" id="cases-ep-1"></rect></g><g><rect x="189.87272727272727" y="98.42999999999999" width="2" height="1.5700000000000074" id="cases-ep-2"></rect></g><g><rect x="186.30909090909088" y="97.14375" width="2" height="2.856250000000003" id="cases-ep-3"></rect></g><g><rect x="182.74545454545455" y="96.913125" width="2" height="3.0868750000000063" id="cases-ep-4"></rect></g><g><rect x="179.1818181818182" y="96.58312500000001" width="2" height="3.4168749999999903" id="cases-ep-5"></rect></g><g><rect x="175.61818181818182" y="95.61937499999999" width="2" height="4.380625000000009" id="cases-ep-6"></rect></g><g><rect x="172.05454545454546" y="96.7075" width="2" height="3.292500000000004" id="cases-ep-7"></rect></g><g><rect x="168.49090909090907" y="97.77375" width="2" height="2.226249999999993" id="cases-ep-8"></rect></g><g><rect x="164.92727272727274" y="97.365625" width="2" height="2.6343750000000057" id="cases-ep-9"></rect></g><g><rect x="161.36363636363637" y="95.598125" width="2" height="4.401875000000004" id="cases-ep-10"></rect></g><g><rect x="157.8" y="94.88250000000001" width="2" height="5.117499999999993" id="cases-ep-11"></rect></g><g><rect x="154.23636363636365" y="94.013125" width="2" height="5.986874999999998" id="cases-ep-12"></rect></g><g><rect x="150.6727272727273" y="93.11437500000001" width="2" height="6.88562499999999" id="cases-ep-13"></rect></g><g><rect x="147.1090909090909" y="91.888125" width="2" height="8.111874999999998" id="cases-ep-14"></rect></g><g><rect x="143.54545454545453" y="96.614375" width="2" height="3.3856250000000045" id="cases-ep-15"></rect></g><g><rect x="139.9818181818182" y="95.5725" width="2" height="4.427499999999995" id="cases-ep-16"></rect></g><g><rect x="136.41818181818184" y="91.403125" width="2" height="8.596874999999997" id="cases-ep-17"></rect></g><g><rect x="132.85454545454544" y="91.19812499999999" width="2" height="8.80187500000001" id="cases-ep-18"></rect></g><g><rect x="129.29090909090908" y="89.86874999999999" width="2" height="10.131250000000009" id="cases-ep-19"></rect></g><g><rect x="125.72727272727273" y="88.814375" width="2" height="11.185625000000002" id="cases-ep-20"></rect></g><g><rect x="122.16363636363636" y="86.031875" width="2" height="13.968125" id="cases-ep-21"></rect></g><g><rect x="118.6" y="94.035" width="2" height="5.965000000000003" id="cases-ep-22"></rect></g><g><rect x="115.03636363636363" y="92.71000000000001" width="2" height="7.289999999999992" id="cases-ep-23"></rect></g><g><rect x="111.47272727272728" y="86.345" width="2" height="13.655000000000001" id="cases-ep-24"></rect></g><g><rect x="107.90909090909089" y="84.951875" width="2" height="15.048124999999999" id="cases-ep-25"></rect></g><g><rect x="104.34545454545456" y="82.83" width="2" height="17.17" id="cases-ep-26"></rect></g><g><rect x="100.78181818181817" y="79.59375" width="2" height="20.40625" id="cases-ep-27"></rect></g><g><rect x="97.21818181818183" y="75.78625" width="2" height="24.213750000000005" id="cases-ep-28"></rect></g><g><rect x="93.65454545454546" y="90.63875" width="2" height="9.361249999999998" id="cases-ep-29"></rect></g><g><rect x="90.09090909090911" y="87.1175" width="2" height="12.882499999999993" id="cases-ep-30"></rect></g><g><rect x="86.52727272727273" y="75.9475" width="2" height="24.052499999999995" id="cases-ep-31"></rect></g><g><rect x="82.96363636363637" y="72.56625" width="2" height="27.433750000000003" id="cases-ep-32"></rect></g><g><rect x="79.4" y="67.59875" width="2" height="32.401250000000005" id="cases-ep-33"></rect></g><g><rect x="75.83636363636364" y="62.529999999999994" width="2" height="37.470000000000006" id="cases-ep-34"></rect></g><g><rect x="72.27272727272727" y="56.143125000000005" width="2" height="43.856874999999995" id="cases-ep-35"></rect></g><g><rect x="68.70909090909092" y="82.544375" width="2" height="17.455624999999998" id="cases-ep-36"></rect></g><g><rect x="65.14545454545454" y="75.3125" width="2" height="24.6875" id="cases-ep-37"></rect></g><g><rect x="61.58181818181818" y="51.801249999999996" width="2" height="48.198750000000004" id="cases-ep-38"></rect></g><g><rect x="58.018181818181816" y="43.96187499999999" width="2" height="56.03812500000001" id="cases-ep-39"></rect></g><g><rect x="54.454545454545446" y="37.114375" width="2" height="62.885625" id="cases-ep-40"></rect></g><g><rect x="50.89090909090908" y="25.301249999999996" width="2" height="74.69875" id="cases-ep-41"></rect></g><g><rect x="47.32727272727273" y="49.568749999999994" width="2" height="50.431250000000006" id="cases-ep-42"></rect></g><g><rect x="43.76363636363636" y="75.516875" width="2" height="24.483125" id="cases-ep-43"></rect></g><g><rect x="40.199999999999996" y="64.133125" width="2" height="35.86687499999999" id="cases-ep-44"></rect></g><g><rect x="36.636363636363626" y="35.64000000000001" width="2" height="64.35999999999999" id="cases-ep-45"></rect></g><g><rect x="33.072727272727285" y="29.43" width="2" height="70.57" id="cases-ep-46"></rect></g><g><rect x="29.509090909090922" y="22.04125" width="2" height="77.95875" id="cases-ep-47"></rect></g><g><rect x="25.945454545454556" y="17.062500000000004" width="2" height="82.9375" id="cases-ep-48"></rect></g><g><rect x="22.38181818181819" y="13.577499999999997" width="2" height="86.4225" id="cases-ep-49"></rect></g><g><rect x="18.818181818181824" y="65.83624999999999" width="2" height="34.16375000000001" id="cases-ep-50"></rect></g><g><rect x="15.254545454545461" y="53.00625" width="2" height="46.99375" id="cases-ep-51"></rect></g><g><rect x="11.690909090909095" y="17.205625" width="2" height="82.794375" id="cases-ep-52"></rect></g><g><rect x="8.12727272727273" y="12.155000000000005" width="2" height="87.845" id="cases-ep-53"></rect></g><g><rect x="4.563636363636365" y="4.843750000000002" width="2" height="95.15625" id="cases-ep-54"></rect></g><g><rect x="1" y="3.8943750000000055" width="2" height="96.10562499999999" id="cases-ep-55"></rect></g></g><g class="fg-line cases-ep" fill="none" stroke="#92c5de" stroke-width="2" stroke-linecap="round"><path d="M198,97.18580357142858L194.43636363636364,97.15089285714285L190.87272727272727,97.02437499999999L187.30909090909088,96.87232142857142L183.74545454545455,96.65151785714285L180.1818181818182,96.36142857142858L176.61818181818182,95.99428571428571L173.05454545454546,95.63642857142857L169.49090909090907,94.94794642857143L165.92727272727274,94.78232142857142L162.36363636363637,94.52616071428571L158.8,93.926875L155.23636363636365,93.40053571428571L151.6727272727273,92.80848214285714L148.1090909090909,92.19419642857143L144.54545454545453,91.3575892857143L140.9818181818182,90.98910714285714L137.41818181818184,90.58017857142858L133.85454545454544,89.85758928571428L130.29090909090908,88.96526785714286L126.72727272727273,87.95973214285713L123.16363636363636,86.6425L119.6,85.17883928571428L116.03636363636363,84.69366071428571L112.47272727272728,83.89473214285714L108.90909090909089,82.40937500000001L105.34545454545456,80.64L101.78181818181817,78.46410714285715L98.21818181818183,76.02642857142857L94.65454545454546,73.22026785714286L91.09090909090911,72.06392857142858L87.52727272727273,70.3775L83.96363636363637,66.92803571428571L80.4,62.841696428571424L76.83636363636364,58.486785714285716L73.27272727272727,53.168392857142855L69.70909090909092,52.229196428571434L66.14545454545454,51.22526785714285L62.58181818181818,49.62821428571429L59.018181818181816,47.31946428571428L55.454545454545446,45.24348214285715L51.89090909090908,43.090178571428574L48.32727272727273,41.91321428571428L44.76363636363636,36.77160714285714L41.199999999999996,35.38866071428571L37.636363636363626,33.799107142857146L34.072727272727285,31.165625L30.509090909090922,28.697767857142853L26.945454545454556,26.24098214285715L23.38181818181819,24.359821428571426L19.818181818181824,24.513035714285714L16.25454545454546,24.45258928571429L12.690909090909095,28.320178571428567L9.12727272727273,35.35008928571428L5.563636363636365,40.33616071428572L2,46.12553571428572"></path></g></svg>