<svg about="DATA_PUBLISHED_DATE:2021-12-17,RENDER_DATE:2021-12-17" xmlns="http://www.w3.org/2000/svg" viewBox="0,0,200,100"><g transform="translate(0,0)"></g><g class="fg-bars tests-vaccines" fill="#00183f" stroke="none"><g><rect x="197" y="30.665142857142857" width="2" height="69.33485714285715" id="tests-vaccines-0"></rect></g><g><rect x="193.43636363636364" y="27.977714285714285" width="2" height="72.02228571428572" id="tests-vaccines-1"></rect></g><g><rect x="189.87272727272727" y="27.90714285714285" width="2" height="72.09285714285716" id="tests-vaccines-2"></rect></g><g><rect x="186.30909090909088" y="33.13285714285714" width="2" height="66.86714285714285" id="tests-vaccines-3"></rect></g><g><rect x="182.74545454545455" y="77.578" width="2" height="22.421999999999997" id="tests-vaccines-4"></rect></g><g><rect x="179.1818181818182" y="49.850571428571435" width="2" height="50.149428571428565" id="tests-vaccines-5"></rect></g><g><rect x="175.61818181818182" y="11.29257142857143" width="2" height="88.70742857142857" id="tests-vaccines-6"></rect></g><g><rect x="172.05454545454546" y="21.528571428571432" width="2" height="78.47142857142856" id="tests-vaccines-7"></rect></g><g><rect x="168.49090909090907" y="23.20742857142857" width="2" height="76.79257142857143" id="tests-vaccines-8"></rect></g><g><rect x="164.92727272727274" y="30.895142857142854" width="2" height="69.10485714285714" id="tests-vaccines-9"></rect></g><g><rect x="161.36363636363637" y="39.80771428571429" width="2" height="60.19228571428571" id="tests-vaccines-10"></rect></g><g><rect x="157.8" y="81.71742857142857" width="2" height="18.28257142857143" id="tests-vaccines-11"></rect></g><g><rect x="154.23636363636365" y="67.63971428571429" width="2" height="32.36028571428571" id="tests-vaccines-12"></rect></g><g><rect x="150.6727272727273" y="56.726" width="2" height="43.274" id="tests-vaccines-13"></rect></g><g><rect x="147.1090909090909" y="98.6197142857143" width="2" height="1.380285714285705" id="tests-vaccines-14"></rect></g><g><rect x="143.54545454545453" y="41.88085714285714" width="2" height="58.11914285714286" id="tests-vaccines-15"></rect></g><g><rect x="139.9818181818182" y="30.851714285714284" width="2" height="69.14828571428572" id="tests-vaccines-16"></rect></g><g><rect x="136.41818181818184" y="34.206" width="2" height="65.794" id="tests-vaccines-17"></rect></g><g><rect x="132.85454545454544" y="79.30085714285714" width="2" height="20.69914285714286" id="tests-vaccines-18"></rect></g><g><rect x="129.29090909090908" y="55.410000000000004" width="2" height="44.589999999999996" id="tests-vaccines-19"></rect></g><g><rect x="125.72727272727273" y="23.51485714285714" width="2" height="76.48514285714286" id="tests-vaccines-20"></rect></g><g><rect x="122.16363636363636" y="35.498" width="2" height="64.50200000000001" id="tests-vaccines-21"></rect></g><g><rect x="118.6" y="34.24057142857143" width="2" height="65.75942857142857" id="tests-vaccines-22"></rect></g><g><rect x="115.03636363636363" y="35.71057142857143" width="2" height="64.28942857142857" id="tests-vaccines-23"></rect></g><g><rect x="111.47272727272728" y="41.34314285714286" width="2" height="58.65685714285714" id="tests-vaccines-24"></rect></g><g><rect x="107.90909090909089" y="79.71914285714286" width="2" height="20.280857142857144" id="tests-vaccines-25"></rect></g><g><rect x="104.34545454545456" y="57.67371428571428" width="2" height="42.32628571428572" id="tests-vaccines-26"></rect></g><g><rect x="100.78181818181817" y="26.288571428571426" width="2" height="73.71142857142857" id="tests-vaccines-27"></rect></g><g><rect x="97.21818181818183" y="38.141714285714286" width="2" height="61.858285714285714" id="tests-vaccines-28"></rect></g><g><rect x="93.65454545454546" y="35.58485714285714" width="2" height="64.41514285714285" id="tests-vaccines-29"></rect></g><g><rect x="90.09090909090911" y="38.008857142857146" width="2" height="61.991142857142854" id="tests-vaccines-30"></rect></g><g><rect x="86.52727272727273" y="42.90828571428571" width="2" height="57.09171428571429" id="tests-vaccines-31"></rect></g><g><rect x="82.96363636363637" y="80.75057142857143" width="2" height="19.249428571428567" id="tests-vaccines-32"></rect></g><g><rect x="79.4" y="63.38371428571429" width="2" height="36.61628571428571" id="tests-vaccines-33"></rect></g><g><rect x="75.83636363636364" y="30.631714285714285" width="2" height="69.36828571428572" id="tests-vaccines-34"></rect></g><g><rect x="72.27272727272727" y="43.547999999999995" width="2" height="56.452000000000005" id="tests-vaccines-35"></rect></g><g><rect x="68.70909090909092" y="45.93857142857143" width="2" height="54.06142857142857" id="tests-vaccines-36"></rect></g><g><rect x="65.14545454545454" y="45.848" width="2" height="54.152" id="tests-vaccines-37"></rect></g><g><rect x="61.58181818181818" y="49.161142857142856" width="2" height="50.838857142857144" id="tests-vaccines-38"></rect></g><g><rect x="58.018181818181816" y="85.51542857142857" width="2" height="14.484571428571428" id="tests-vaccines-39"></rect></g><g><rect x="54.454545454545446" y="70.52199999999999" width="2" height="29.47800000000001" id="tests-vaccines-40"></rect></g><g><rect x="50.89090909090908" y="37.60542857142857" width="2" height="62.39457142857143" id="tests-vaccines-41"></rect></g><g><rect x="47.32727272727273" y="48.024857142857144" width="2" height="51.975142857142856" id="tests-vaccines-42"></rect></g><g><rect x="43.76363636363636" y="47.95285714285714" width="2" height="52.04714285714286" id="tests-vaccines-43"></rect></g><g><rect x="40.199999999999996" y="48.535714285714285" width="2" height="51.464285714285715" id="tests-vaccines-44"></rect></g><g><rect x="36.636363636363626" y="53.398857142857146" width="2" height="46.601142857142854" id="tests-vaccines-45"></rect></g><g><rect x="33.072727272727285" y="86.45314285714285" width="2" height="13.54685714285715" id="tests-vaccines-46"></rect></g><g><rect x="29.509090909090922" y="73.53342857142857" width="2" height="26.466571428571427" id="tests-vaccines-47"></rect></g><g><rect x="25.945454545454556" y="53.54514285714286" width="2" height="46.45485714285714" id="tests-vaccines-48"></rect></g><g><rect x="22.38181818181819" y="72.41285714285715" width="2" height="27.58714285714285" id="tests-vaccines-49"></rect></g><g><rect x="18.818181818181824" y="73.48742857142857" width="2" height="26.512571428571434" id="tests-vaccines-50"></rect></g><g><rect x="15.254545454545461" y="72.63514285714285" width="2" height="27.364857142857147" id="tests-vaccines-51"></rect></g><g><rect x="11.690909090909095" y="71.48514285714286" width="2" height="28.51485714285714" id="tests-vaccines-52"></rect></g><g><rect x="8.12727272727273" y="91.27085714285714" width="2" height="8.729142857142861" id="tests-vaccines-53"></rect></g><g><rect x="4.563636363636365" y="83.1602857142857" width="2" height="16.839714285714294" id="tests-vaccines-54"></rect></g><g><rect x="1" y="63.95114285714285" width="2" height="36.04885714285715" id="tests-vaccines-55"></rect></g></g><g class="fg-line tests-vaccines" fill="none" stroke="#92c5de" stroke-width="2" stroke-linecap="round"><path d="M198,36.91485714285714L194.43636363636364,35.609632653061226L190.87272727272727,34.928163265306125L187.30909090909088,35.35502040816326L183.74545454545455,36.308571428571426L180.1818181818182,36.89991836734694L176.61818181818182,39.441224489795914L173.05454545454546,45.931714285714285L169.49090909090907,56.94473469387755L165.92727272727274,59.612367346938775L162.36363636363637,59.60616326530612L158.8,58.80591836734694L155.23636363636365,58.460693877551016L151.6727272727273,56.713591836734686L148.1090909090909,51.969142857142856L144.54545454545453,42.95175510204082L140.9818181818182,41.860285714285716L137.41818181818184,42.554408163265315L133.85454545454544,43.574L130.29090909090908,43.633755102040816L126.72727272727273,43.95714285714286L123.16363636363636,44.353387755102034L119.6,44.7310612244898L116.03636363636363,44.92310204081632L112.47272727272728,45.251428571428576L108.90909090909089,45.47502040816326L105.34545454545456,45.62236734693877L101.78181818181817,46.43808163265306L98.21818181818183,47.058530612244894L94.65454545454546,47.83085714285714L91.09090909090911,49.30995918367347L87.52727272727273,50.42983673469388L83.96363636363637,51.323102040816316L80.4,52.003795918367345L76.83636363636364,53.02355102040816L73.27272727272727,54.01979591836734L69.70909090909092,54.65934693877551L66.14545454545454,54.94710204081632L62.58181818181818,55.331061224489794L59.018181818181816,55.93644897959184L55.454545454545446,56.070408163265306L51.89090909090908,56.500612244897965L48.32727272727273,58.777714285714275L44.76363636363636,62.261714285714284L41.199999999999996,65.90951020408163L37.636363636363626,69.35228571428571L34.072727272727285,71.93604081632652L30.509090909090922,72.62428571428572L26.945454545454556,73.99955102040816L23.38181818181819,75.48612244897959L19.818181818181824,75.31555102040817L16.25454545454546,75.03702040816327L12.690909090909095,74.62469387755102L9.12727272727273,74.33020408163266L5.563636363636365,74.12220408163266L2,73.85848979591837"></path></g></svg>