<svg meta="{&quot;DATA_PUBLISHED_DATE&quot;:&quot;2022-06-28&quot;,&quot;RENDER_DATE&quot;:&quot;2022-06-28&quot;,&quot;FIRST_DATE&quot;:&quot;2022-04-26&quot;,&quot;LAST_DATE&quot;:&quot;2022-06-20&quot;}" xmlns="http://www.w3.org/2000/svg" viewBox="0,0,200,100"><g transform="translate(0,0)"></g><g class="fg-bars tests-vaccines" fill="#00183f" stroke="none"><g><rect x="197" y="54.008750000000006" width="2" height="45.991249999999994" id="tests-vaccines-0"></rect></g><g><rect x="193.43636363636364" y="88.02125" width="2" height="11.978750000000005" id="tests-vaccines-1"></rect></g><g><rect x="189.87272727272727" y="72.6825" width="2" height="27.317499999999995" id="tests-vaccines-2"></rect></g><g><rect x="186.30909090909088" y="37.993750000000006" width="2" height="62.006249999999994" id="tests-vaccines-3"></rect></g><g><rect x="182.74545454545455" y="48.224999999999994" width="2" height="51.775000000000006" id="tests-vaccines-4"></rect></g><g><rect x="179.1818181818182" y="46.220000000000006" width="2" height="53.779999999999994" id="tests-vaccines-5"></rect></g><g><rect x="175.61818181818182" y="48.33625" width="2" height="51.66375" id="tests-vaccines-6"></rect></g><g><rect x="172.05454545454546" y="47.3975" width="2" height="52.6025" id="tests-vaccines-7"></rect></g><g><rect x="168.49090909090907" y="83.51625" width="2" height="16.48375" id="tests-vaccines-8"></rect></g><g><rect x="164.92727272727274" y="67.26125" width="2" height="32.738749999999996" id="tests-vaccines-9"></rect></g><g><rect x="161.36363636363637" y="29.8775" width="2" height="70.1225" id="tests-vaccines-10"></rect></g><g><rect x="157.8" y="42.190000000000005" width="2" height="57.809999999999995" id="tests-vaccines-11"></rect></g><g><rect x="154.23636363636365" y="39.345" width="2" height="60.655" id="tests-vaccines-12"></rect></g><g><rect x="150.6727272727273" y="39.57875" width="2" height="60.42125" id="tests-vaccines-13"></rect></g><g><rect x="147.1090909090909" y="36.517500000000005" width="2" height="63.482499999999995" id="tests-vaccines-14"></rect></g><g><rect x="143.54545454545453" y="79.25375" width="2" height="20.746250000000003" id="tests-vaccines-15"></rect></g><g><rect x="139.9818181818182" y="56.713750000000005" width="2" height="43.286249999999995" id="tests-vaccines-16"></rect></g><g><rect x="136.41818181818184" y="16.983749999999997" width="2" height="83.01625" id="tests-vaccines-17"></rect></g><g><rect x="132.85454545454544" y="31.908749999999998" width="2" height="68.09125" id="tests-vaccines-18"></rect></g><g><rect x="129.29090909090908" y="28.51125" width="2" height="71.48875" id="tests-vaccines-19"></rect></g><g><rect x="125.72727272727273" y="21.799999999999997" width="2" height="78.2" id="tests-vaccines-20"></rect></g><g><rect x="122.16363636363636" y="95.64125" width="2" height="4.358750000000001" id="tests-vaccines-21"></rect></g><g><rect x="118.6" y="74.81625000000001" width="2" height="25.18374999999999" id="tests-vaccines-22"></rect></g><g><rect x="115.03636363636363" y="54.89999999999999" width="2" height="45.10000000000001" id="tests-vaccines-23"></rect></g><g><rect x="111.47272727272728" y="5.738750000000003" width="2" height="94.26124999999999" id="tests-vaccines-24"></rect></g><g><rect x="107.90909090909089" y="27.95375" width="2" height="72.04625" id="tests-vaccines-25"></rect></g><g><rect x="104.34545454545456" y="23.7325" width="2" height="76.2675" id="tests-vaccines-26"></rect></g><g><rect x="100.78181818181817" y="23.60375" width="2" height="76.39625" id="tests-vaccines-27"></rect></g><g><rect x="97.21818181818183" y="22.331250000000004" width="2" height="77.66874999999999" id="tests-vaccines-28"></rect></g><g><rect x="93.65454545454546" y="72.1675" width="2" height="27.832499999999996" id="tests-vaccines-29"></rect></g><g><rect x="90.09090909090911" y="49.4725" width="2" height="50.5275" id="tests-vaccines-30"></rect></g><g><rect x="86.52727272727273" y="5.437499999999995" width="2" height="94.5625" id="tests-vaccines-31"></rect></g><g><rect x="82.96363636363637" y="24.291249999999998" width="2" height="75.70875000000001" id="tests-vaccines-32"></rect></g><g><rect x="79.4" y="27.942500000000003" width="2" height="72.0575" id="tests-vaccines-33"></rect></g><g><rect x="75.83636363636364" y="30.527499999999996" width="2" height="69.4725" id="tests-vaccines-34"></rect></g><g><rect x="72.27272727272727" y="30.879999999999995" width="2" height="69.12" id="tests-vaccines-35"></rect></g><g><rect x="68.70909090909092" y="78.28125" width="2" height="21.71875" id="tests-vaccines-36"></rect></g><g><rect x="65.14545454545454" y="57.82000000000001" width="2" height="42.17999999999999" id="tests-vaccines-37"></rect></g><g><rect x="61.58181818181818" y="13.007500000000006" width="2" height="86.99249999999999" id="tests-vaccines-38"></rect></g><g><rect x="58.018181818181816" y="24.165000000000003" width="2" height="75.835" id="tests-vaccines-39"></rect></g><g><rect x="54.454545454545446" y="24.9375" width="2" height="75.0625" id="tests-vaccines-40"></rect></g><g><rect x="50.89090909090908" y="29.442500000000006" width="2" height="70.55749999999999" id="tests-vaccines-41"></rect></g><g><rect x="47.32727272727273" y="30.632499999999997" width="2" height="69.3675" id="tests-vaccines-42"></rect></g><g><rect x="43.76363636363636" y="84.00125" width="2" height="15.998750000000001" id="tests-vaccines-43"></rect></g><g><rect x="40.199999999999996" y="61.99875" width="2" height="38.00125" id="tests-vaccines-44"></rect></g><g><rect x="36.636363636363626" y="13.854999999999995" width="2" height="86.14500000000001" id="tests-vaccines-45"></rect></g><g><rect x="33.072727272727285" y="25.966250000000002" width="2" height="74.03375" id="tests-vaccines-46"></rect></g><g><rect x="29.509090909090922" y="26.054999999999996" width="2" height="73.94500000000001" id="tests-vaccines-47"></rect></g><g><rect x="25.945454545454556" y="26.4575" width="2" height="73.5425" id="tests-vaccines-48"></rect></g><g><rect x="22.38181818181819" y="26.770000000000003" width="2" height="73.22999999999999" id="tests-vaccines-49"></rect></g><g><rect x="18.818181818181824" y="77.48125" width="2" height="22.518749999999997" id="tests-vaccines-50"></rect></g><g><rect x="15.254545454545461" y="56.4025" width="2" height="43.5975" id="tests-vaccines-51"></rect></g><g><rect x="11.690909090909095" y="4.176250000000003" width="2" height="95.82374999999999" id="tests-vaccines-52"></rect></g><g><rect x="8.12727272727273" y="16.82125" width="2" height="83.17875000000001" id="tests-vaccines-53"></rect></g><g><rect x="4.563636363636365" y="17.659999999999997" width="2" height="82.34" id="tests-vaccines-54"></rect></g><g><rect x="1" y="18.892500000000002" width="2" height="81.1075" id="tests-vaccines-55"></rect></g></g><g class="fg-line tests-vaccines" fill="none" stroke="#92c5de" stroke-width="2" stroke-linecap="round"><path d="M198,56.49821428571429L194.43636363636364,55.55375L190.87272727272727,54.91017857142857L187.30909090909088,54.135714285714286L183.74545454545455,52.97625L180.1818181818182,52.114107142857144L176.61818181818182,51.13196428571428L173.05454545454546,49.880892857142854L169.49090909090907,48.32660714285715L165.92727272727274,47.717678571428564L162.36363636363637,46.21089285714285L158.8,44.36892857142857L155.23636363636365,42.90017857142857L151.6727272727273,41.352500000000006L148.1090909090909,38.81267857142857L144.54545454545453,47.25892857142857L140.9818181818182,46.62500000000001L137.41818181818184,46.36589285714285L133.85454545454544,44.75946428571429L130.29090909090908,44.19446428571428L126.72727272727273,43.51178571428571L123.16363636363636,43.769464285714285L119.6,33.29660714285715L116.03636363636363,32.918214285714285L112.47272727272728,32.14285714285715L108.90909090909089,32.09982142857143L105.34545454545456,31.57660714285715L101.78181818181817,32.17803571428571L98.21818181818183,33.16714285714285L94.65454545454546,34.38839285714286L91.09090909090911,35.26178571428572L87.52727272727273,36.45428571428572L83.96363636363637,37.535714285714285L80.4,37.51767857142857L76.83636363636364,37.08839285714285L73.27272727272727,36.933392857142856L69.70909090909092,36.89803571428571L66.14545454545454,37.71517857142857L62.58181818181818,38.31214285714285L59.018181818181816,38.43321428571428L55.454545454545446,38.690535714285716L51.89090909090908,38.85017857142857L48.32727272727273,38.42375L44.76363636363636,37.871964285714284L41.199999999999996,36.940535714285716L37.636363636363626,36.141071428571436L34.072727272727285,34.75839285714285L30.509090909090922,33.45196428571428L26.945454545454556,32.252678571428575L23.38181818181819,31.17196428571428L19.818181818181824,30.16035714285714L16.25454545454546,30.010535714285712L12.690909090909095,29.525357142857146L9.12727272727273,31.632499999999997L5.563636363636365,30.78696428571428L2,29.619821428571434"></path></g></svg>