<svg meta="{&quot;DATA_PUBLISHED_DATE&quot;:&quot;2022-08-02&quot;,&quot;RENDER_DATE&quot;:&quot;2022-08-02&quot;,&quot;FIRST_DATE&quot;:&quot;2022-05-30&quot;,&quot;LAST_DATE&quot;:&quot;2022-07-24&quot;}" xmlns="http://www.w3.org/2000/svg" viewBox="0,0,200,100"><g transform="translate(0,0)"></g><g class="fg-bars cases-ep" fill="#00183f" stroke="none"><g><rect x="197" y="66.56071428571428" width="2" height="33.43928571428572" id="cases-ep-0"></rect></g><g><rect x="193.43636363636364" y="61.14642857142858" width="2" height="38.85357142857142" id="cases-ep-1"></rect></g><g><rect x="189.87272727272727" y="40.246428571428574" width="2" height="59.753571428571426" id="cases-ep-2"></rect></g><g><rect x="186.30909090909088" y="37.964285714285715" width="2" height="62.035714285714285" id="cases-ep-3"></rect></g><g><rect x="182.74545454545455" y="32.06428571428571" width="2" height="67.93571428571428" id="cases-ep-4"></rect></g><g><rect x="179.1818181818182" y="26.557142857142857" width="2" height="73.44285714285715" id="cases-ep-5"></rect></g><g><rect x="175.61818181818182" y="17.67142857142857" width="2" height="82.32857142857142" id="cases-ep-6"></rect></g><g><rect x="172.05454545454546" y="61.885714285714286" width="2" height="38.114285714285714" id="cases-ep-7"></rect></g><g><rect x="168.49090909090907" y="54.98928571428572" width="2" height="45.01071428571428" id="cases-ep-8"></rect></g><g><rect x="164.92727272727274" y="34.5" width="2" height="65.5" id="cases-ep-9"></rect></g><g><rect x="161.36363636363637" y="30.20357142857143" width="2" height="69.79642857142858" id="cases-ep-10"></rect></g><g><rect x="157.8" y="25.478571428571428" width="2" height="74.52142857142857" id="cases-ep-11"></rect></g><g><rect x="154.23636363636365" y="21.02857142857143" width="2" height="78.97142857142858" id="cases-ep-12"></rect></g><g><rect x="150.6727272727273" y="13.614285714285712" width="2" height="86.38571428571429" id="cases-ep-13"></rect></g><g><rect x="147.1090909090909" y="59.02499999999999" width="2" height="40.97500000000001" id="cases-ep-14"></rect></g><g><rect x="143.54545454545453" y="52.489285714285714" width="2" height="47.510714285714286" id="cases-ep-15"></rect></g><g><rect x="139.9818181818182" y="28.682142857142857" width="2" height="71.31785714285715" id="cases-ep-16"></rect></g><g><rect x="136.41818181818184" y="25.128571428571433" width="2" height="74.87142857142857" id="cases-ep-17"></rect></g><g><rect x="132.85454545454544" y="18.67142857142857" width="2" height="81.32857142857142" id="cases-ep-18"></rect></g><g><rect x="129.29090909090908" y="3.9000000000000035" width="2" height="96.1" id="cases-ep-19"></rect></g><g><rect x="125.72727272727273" y="65.34285714285714" width="2" height="34.65714285714286" id="cases-ep-20"></rect></g><g><rect x="122.16363636363636" y="65.60357142857143" width="2" height="34.39642857142857" id="cases-ep-21"></rect></g><g><rect x="118.6" y="59.90357142857143" width="2" height="40.09642857142857" id="cases-ep-22"></rect></g><g><rect x="115.03636363636363" y="36.875" width="2" height="63.125" id="cases-ep-23"></rect></g><g><rect x="111.47272727272728" y="35.58571428571429" width="2" height="64.41428571428571" id="cases-ep-24"></rect></g><g><rect x="107.90909090909089" y="29.70357142857143" width="2" height="70.29642857142858" id="cases-ep-25"></rect></g><g><rect x="104.34545454545456" y="25.203571428571426" width="2" height="74.79642857142858" id="cases-ep-26"></rect></g><g><rect x="100.78181818181817" y="19.814285714285717" width="2" height="80.18571428571428" id="cases-ep-27"></rect></g><g><rect x="97.21818181818183" y="61.667857142857144" width="2" height="38.332142857142856" id="cases-ep-28"></rect></g><g><rect x="93.65454545454546" y="58.71071428571428" width="2" height="41.28928571428572" id="cases-ep-29"></rect></g><g><rect x="90.09090909090911" y="41.94285714285715" width="2" height="58.05714285714285" id="cases-ep-30"></rect></g><g><rect x="86.52727272727273" y="38.910714285714285" width="2" height="61.089285714285715" id="cases-ep-31"></rect></g><g><rect x="82.96363636363637" y="36.56428571428572" width="2" height="63.43571428571428" id="cases-ep-32"></rect></g><g><rect x="79.4" y="30.771428571428572" width="2" height="69.22857142857143" id="cases-ep-33"></rect></g><g><rect x="75.83636363636364" y="35.19285714285715" width="2" height="64.80714285714285" id="cases-ep-34"></rect></g><g><rect x="72.27272727272727" y="66.90714285714286" width="2" height="33.09285714285714" id="cases-ep-35"></rect></g><g><rect x="68.70909090909092" y="63.19642857142858" width="2" height="36.80357142857142" id="cases-ep-36"></rect></g><g><rect x="65.14545454545454" y="46.92142857142857" width="2" height="53.07857142857143" id="cases-ep-37"></rect></g><g><rect x="61.58181818181818" y="45.550000000000004" width="2" height="54.449999999999996" id="cases-ep-38"></rect></g><g><rect x="58.018181818181816" y="41.775" width="2" height="58.225" id="cases-ep-39"></rect></g><g><rect x="54.454545454545446" y="39.97142857142857" width="2" height="60.02857142857143" id="cases-ep-40"></rect></g><g><rect x="50.89090909090908" y="34.05357142857143" width="2" height="65.94642857142857" id="cases-ep-41"></rect></g><g><rect x="47.32727272727273" y="68.24642857142858" width="2" height="31.75357142857142" id="cases-ep-42"></rect></g><g><rect x="43.76363636363636" y="64.81785714285715" width="2" height="35.18214285714285" id="cases-ep-43"></rect></g><g><rect x="40.199999999999996" y="45.14642857142858" width="2" height="54.85357142857142" id="cases-ep-44"></rect></g><g><rect x="36.636363636363626" y="43.660714285714285" width="2" height="56.339285714285715" id="cases-ep-45"></rect></g><g><rect x="33.072727272727285" y="36.96785714285714" width="2" height="63.03214285714286" id="cases-ep-46"></rect></g><g><rect x="29.509090909090922" y="32.778571428571425" width="2" height="67.22142857142858" id="cases-ep-47"></rect></g><g><rect x="25.945454545454556" y="24.88571428571429" width="2" height="75.11428571428571" id="cases-ep-48"></rect></g><g><rect x="22.38181818181819" y="65.48928571428571" width="2" height="34.510714285714286" id="cases-ep-49"></rect></g><g><rect x="18.818181818181824" y="62.07142857142858" width="2" height="37.92857142857142" id="cases-ep-50"></rect></g><g><rect x="15.254545454545461" y="41.474999999999994" width="2" height="58.525000000000006" id="cases-ep-51"></rect></g><g><rect x="11.690909090909095" y="35.52857142857143" width="2" height="64.47142857142856" id="cases-ep-52"></rect></g><g><rect x="8.12727272727273" y="26.025" width="2" height="73.975" id="cases-ep-53"></rect></g><g><rect x="4.563636363636365" y="14.47857142857143" width="2" height="85.52142857142857" id="cases-ep-54"></rect></g><g><rect x="1" y="69.20357142857144" width="2" height="30.796428571428564" id="cases-ep-55"></rect></g></g><g class="fg-line cases-ep" fill="none" stroke="#92c5de" stroke-width="2" stroke-linecap="round"><path d="M198,40.315816326530616L194.43636363636364,39.64795918367348L190.87272727272727,38.76836734693878L187.30909090909088,37.94744897959183L183.74545454545455,36.83877551020408L180.1818181818182,35.89795918367348L176.61818181818182,35.108163265306125L173.05454545454546,34.52857142857143L169.49090909090907,34.11989795918367L165.92727272727274,33.762755102040806L162.36363636363637,32.931632653061214L158.8,32.20663265306122L155.23636363636365,31.234183673469385L151.6727272727273,28.787244897959184L148.1090909090909,36.177040816326524L144.54545454545453,37.116836734693884L140.9818181818182,38.17602040816326L137.41818181818184,39.34642857142857L133.85454545454544,40.84030612244898L130.29090909090908,42.416326530612245L126.72727272727273,45.45969387755102L123.16363636363636,38.95561224489795L119.6,38.39336734693878L116.03636363636363,38.222959183673474L112.47272727272728,38.94693877551021L108.90909090909089,39.42193877551021L105.34545454545456,40.402040816326526L101.78181818181817,41.19744897959183L98.21818181818183,43.39438775510204L94.65454545454546,44.14285714285714L91.09090909090911,44.78367346938775L87.52727272727273,45.494897959183675L83.96363636363637,46.44336734693878L80.4,47.18775510204082L76.83636363636364,48.50204081632653L73.27272727272727,48.339285714285715L69.70909090909092,48.530612244897966L66.14545454545454,48.762244897959185L62.58181818181818,48.50867346938775L59.018181818181816,48.23877551020408L55.454545454545446,47.55204081632654L51.89090909090908,46.52448979591837L48.32727272727273,45.214795918367344L44.76363636363636,44.82091836734694L41.199999999999996,44.42857142857143L37.636363636363626,43.90408163265306L34.072727272727285,42.74234693877551L30.509090909090922,41.179081632653066L26.945454545454556,38.56479591836736L23.38181818181819,44.895918367346944L19.818181818181824,45.803061224489795L16.25454545454546,46.68469387755102L12.690909090909095,47.81938775510204L9.12727272727273,49.11326530612246L5.563636363636365,50.95051020408163L2,53.90663265306122"></path></g></svg>