<svg meta="{&quot;DATA_PUBLISHED_DATE&quot;:&quot;2023-01-19&quot;,&quot;RENDER_DATE&quot;:&quot;2023-01-26&quot;,&quot;FIRST_DATE&quot;:&quot;2022-11-16&quot;,&quot;LAST_DATE&quot;:&quot;2023-01-10&quot;}" xmlns="http://www.w3.org/2000/svg" viewBox="0,0,200,100"><g transform="translate(0,0)"></g><g class="fg-bars cases-ep" fill="#00183f" stroke="none"><g><rect x="197" y="77.65625" width="2" height="22.34375" id="cases-ep-0"></rect></g><g><rect x="193.43636363636364" y="72.48125" width="2" height="27.518749999999997" id="cases-ep-1"></rect></g><g><rect x="189.87272727272727" y="85.21875" width="2" height="14.78125" id="cases-ep-2"></rect></g><g><rect x="186.30909090909088" y="81.9625" width="2" height="18.037499999999994" id="cases-ep-3"></rect></g><g><rect x="182.74545454545455" y="71.15625" width="2" height="28.84375" id="cases-ep-4"></rect></g><g><rect x="179.1818181818182" y="70.9125" width="2" height="29.087500000000006" id="cases-ep-5"></rect></g><g><rect x="175.61818181818182" y="65.725" width="2" height="34.275000000000006" id="cases-ep-6"></rect></g><g><rect x="172.05454545454546" y="55.60000000000001" width="2" height="44.39999999999999" id="cases-ep-7"></rect></g><g><rect x="168.49090909090907" y="66.4625" width="2" height="33.537499999999994" id="cases-ep-8"></rect></g><g><rect x="164.92727272727274" y="83.6875" width="2" height="16.3125" id="cases-ep-9"></rect></g><g><rect x="161.36363636363637" y="77.06875" width="2" height="22.931250000000006" id="cases-ep-10"></rect></g><g><rect x="157.8" y="59.362500000000004" width="2" height="40.637499999999996" id="cases-ep-11"></rect></g><g><rect x="154.23636363636365" y="53.425" width="2" height="46.575" id="cases-ep-12"></rect></g><g><rect x="150.6727272727273" y="46.981249999999996" width="2" height="53.018750000000004" id="cases-ep-13"></rect></g><g><rect x="147.1090909090909" y="40.1375" width="2" height="59.8625" id="cases-ep-14"></rect></g><g><rect x="143.54545454545453" y="55.55625" width="2" height="44.44375" id="cases-ep-15"></rect></g><g><rect x="139.9818181818182" y="82.59375" width="2" height="17.40625" id="cases-ep-16"></rect></g><g><rect x="136.41818181818184" y="75.52499999999999" width="2" height="24.47500000000001" id="cases-ep-17"></rect></g><g><rect x="132.85454545454544" y="58.2375" width="2" height="41.7625" id="cases-ep-18"></rect></g><g><rect x="129.29090909090908" y="53.325" width="2" height="46.675" id="cases-ep-19"></rect></g><g><rect x="125.72727272727273" y="50.793749999999996" width="2" height="49.206250000000004" id="cases-ep-20"></rect></g><g><rect x="122.16363636363636" y="46.943749999999994" width="2" height="53.056250000000006" id="cases-ep-21"></rect></g><g><rect x="118.6" y="42.1375" width="2" height="57.8625" id="cases-ep-22"></rect></g><g><rect x="115.03636363636363" y="72.53125" width="2" height="27.46875" id="cases-ep-23"></rect></g><g><rect x="111.47272727272728" y="69.36875" width="2" height="30.631249999999994" id="cases-ep-24"></rect></g><g><rect x="107.90909090909089" y="57.3375" width="2" height="42.6625" id="cases-ep-25"></rect></g><g><rect x="104.34545454545456" y="53.6625" width="2" height="46.3375" id="cases-ep-26"></rect></g><g><rect x="100.78181818181817" y="49.35000000000001" width="2" height="50.64999999999999" id="cases-ep-27"></rect></g><g><rect x="97.21818181818183" y="45.087500000000006" width="2" height="54.912499999999994" id="cases-ep-28"></rect></g><g><rect x="93.65454545454546" y="35.79375" width="2" height="64.20625" id="cases-ep-29"></rect></g><g><rect x="90.09090909090911" y="70" width="2" height="30" id="cases-ep-30"></rect></g><g><rect x="86.52727272727273" y="66.14999999999999" width="2" height="33.85000000000001" id="cases-ep-31"></rect></g><g><rect x="82.96363636363637" y="50.26875" width="2" height="49.73125" id="cases-ep-32"></rect></g><g><rect x="79.4" y="47.5125" width="2" height="52.4875" id="cases-ep-33"></rect></g><g><rect x="75.83636363636364" y="43.40625" width="2" height="56.59375" id="cases-ep-34"></rect></g><g><rect x="72.27272727272727" y="37.3625" width="2" height="62.6375" id="cases-ep-35"></rect></g><g><rect x="68.70909090909092" y="26.9625" width="2" height="73.0375" id="cases-ep-36"></rect></g><g><rect x="65.14545454545454" y="63.78125" width="2" height="36.21875" id="cases-ep-37"></rect></g><g><rect x="61.58181818181818" y="61.487500000000004" width="2" height="38.512499999999996" id="cases-ep-38"></rect></g><g><rect x="58.018181818181816" y="44.44375" width="2" height="55.55625" id="cases-ep-39"></rect></g><g><rect x="54.454545454545446" y="37" width="2" height="63" id="cases-ep-40"></rect></g><g><rect x="50.89090909090908" y="32.06875" width="2" height="67.93125" id="cases-ep-41"></rect></g><g><rect x="47.32727272727273" y="25.175000000000004" width="2" height="74.82499999999999" id="cases-ep-42"></rect></g><g><rect x="43.76363636363636" y="10.162499999999996" width="2" height="89.8375" id="cases-ep-43"></rect></g><g><rect x="40.199999999999996" y="56.012499999999996" width="2" height="43.987500000000004" id="cases-ep-44"></rect></g><g><rect x="36.636363636363626" y="58.20624999999999" width="2" height="41.79375000000001" id="cases-ep-45"></rect></g><g><rect x="33.072727272727285" y="53.25" width="2" height="46.75" id="cases-ep-46"></rect></g><g><rect x="29.509090909090922" y="79.91874999999999" width="2" height="20.08125000000001" id="cases-ep-47"></rect></g><g><rect x="25.945454545454556" y="53.643750000000004" width="2" height="46.356249999999996" id="cases-ep-48"></rect></g><g><rect x="22.38181818181819" y="52.0875" width="2" height="47.9125" id="cases-ep-49"></rect></g><g><rect x="18.818181818181824" y="48.4" width="2" height="51.6" id="cases-ep-50"></rect></g><g><rect x="15.254545454545461" y="74.46249999999999" width="2" height="25.53750000000001" id="cases-ep-51"></rect></g><g><rect x="11.690909090909095" y="74.50625" width="2" height="25.493750000000006" id="cases-ep-52"></rect></g><g><rect x="8.12727272727273" y="63.71249999999999" width="2" height="36.28750000000001" id="cases-ep-53"></rect></g><g><rect x="4.563636363636365" y="63.518750000000004" width="2" height="36.481249999999996" id="cases-ep-54"></rect></g><g><rect x="1" y="63.925" width="2" height="36.075" id="cases-ep-55"></rect></g></g><g class="fg-line cases-ep" fill="none" stroke="#92c5de" stroke-width="2" stroke-linecap="round"><path d="M198,75.01607142857142L194.43636363636364,71.86517857142857L190.87272727272727,71.00535714285714L187.30909090909088,70.78660714285714L183.74545454545455,70.0875L180.1818181818182,68.40267857142857L176.61818181818182,65.90446428571428L173.05454545454546,63.22678571428572L169.49090909090907,61.017857142857146L165.92727272727274,59.45982142857142L162.36363636363637,59.30357142857143L158.8,59.083035714285714L155.23636363636365,58.922321428571436L151.6727272727273,58.90803571428571L148.1090909090909,59.45267857142858L144.54545454545453,60.425L140.9818181818182,58.50803571428571L137.41818181818184,57.07053571428572L133.85454545454544,56.191071428571426L130.29090909090908,56.06249999999999L126.72727272727273,56.11071428571428L123.16363636363636,55.90446428571428L119.6,55.63928571428571L116.03636363636363,54.73303571428572L112.47272727272728,54.371428571428574L108.90909090909089,53.91160714285714L105.34545454545456,52.90178571428572L101.78181818181817,52.02321428571428L98.21818181818183,51.17410714285715L94.65454545454546,50.070535714285725L91.09090909090911,48.80892857142857L87.52727272727273,47.920535714285705L83.96363636363637,47.25446428571429L80.4,46.422321428571436L76.83636363636364,44.92053571428571L73.27272727272727,43.300892857142856L69.70909090909092,41.55982142857143L66.14545454545454,39.159821428571426L62.58181818181818,38.05L59.018181818181816,37.58125L55.454545454545446,38.83928571428571L51.89090909090908,44.97053571428571L48.32727272727273,48.052678571428565L44.76363636363636,51.89732142857143L41.199999999999996,57.359821428571436L37.636363636363626,59.99553571428572L34.072727272727285,62.324107142857144L30.509090909090922,63.81875L26.945454545454556,61.47589285714285L23.38181818181819,62.94464285714285L19.818181818181824,64.39375000000001L16.25454545454546,65.85089285714285L12.690909090909095,66.62767857142858L9.12727272727273,67.47321428571429L5.563636363636365,69.15714285714284L2,70.3607142857143"></path></g></svg>