<svg meta="{&quot;DATA_PUBLISHED_DATE&quot;:&quot;2022-06-14&quot;,&quot;RENDER_DATE&quot;:&quot;2022-06-14&quot;,&quot;FIRST_DATE&quot;:&quot;2022-03-28&quot;,&quot;LAST_DATE&quot;:&quot;2022-05-22&quot;}" xmlns="http://www.w3.org/2000/svg" viewBox="0,0,200,100"><g transform="translate(0,0)"></g><g class="fg-bars death-date" fill="#00183f" stroke="none"><g><rect x="197" y="70.83333333333333" width="2" height="29.16666666666667" id="death-date-0"></rect></g><g><rect x="193.43636363636364" y="50" width="2" height="50" id="death-date-1"></rect></g><g><rect x="189.87272727272727" y="54.16666666666667" width="2" height="45.83333333333333" id="death-date-2"></rect></g><g><rect x="186.30909090909088" y="50" width="2" height="50" id="death-date-3"></rect></g><g><rect x="182.74545454545455" y="37.5" width="2" height="62.5" id="death-date-4"></rect></g><g><rect x="179.1818181818182" y="41.666666666666664" width="2" height="58.333333333333336" id="death-date-5"></rect></g><g><rect x="175.61818181818182" y="58.33333333333333" width="2" height="41.66666666666667" id="death-date-6"></rect></g><g><rect x="172.05454545454546" y="4.1666666666666625" width="2" height="95.83333333333334" id="death-date-7"></rect></g><g><rect x="168.49090909090907" y="41.666666666666664" width="2" height="58.333333333333336" id="death-date-8"></rect></g><g><rect x="164.92727272727274" y="33.333333333333336" width="2" height="66.66666666666666" id="death-date-9"></rect></g><g><rect x="161.36363636363637" y="66.66666666666667" width="2" height="33.33333333333333" id="death-date-10"></rect></g><g><rect x="157.8" y="58.33333333333333" width="2" height="41.66666666666667" id="death-date-11"></rect></g><g><rect x="154.23636363636365" y="20.833333333333336" width="2" height="79.16666666666666" id="death-date-12"></rect></g><g><rect x="150.6727272727273" y="54.16666666666667" width="2" height="45.83333333333333" id="death-date-13"></rect></g><g><rect x="147.1090909090909" y="41.666666666666664" width="2" height="58.333333333333336" id="death-date-14"></rect></g><g><rect x="143.54545454545453" y="58.33333333333333" width="2" height="41.66666666666667" id="death-date-15"></rect></g><g><rect x="139.9818181818182" y="54.16666666666667" width="2" height="45.83333333333333" id="death-date-16"></rect></g><g><rect x="136.41818181818184" y="75" width="2" height="25" id="death-date-17"></rect></g><g><rect x="132.85454545454544" y="62.5" width="2" height="37.5" id="death-date-18"></rect></g><g><rect x="129.29090909090908" y="62.5" width="2" height="37.5" id="death-date-19"></rect></g><g><rect x="125.72727272727273" y="58.33333333333333" width="2" height="41.66666666666667" id="death-date-20"></rect></g><g><rect x="122.16363636363636" y="58.33333333333333" width="2" height="41.66666666666667" id="death-date-21"></rect></g><g><rect x="118.6" y="41.666666666666664" width="2" height="58.333333333333336" id="death-date-22"></rect></g><g><rect x="115.03636363636363" y="50" width="2" height="50" id="death-date-23"></rect></g><g><rect x="111.47272727272728" y="66.66666666666667" width="2" height="33.33333333333333" id="death-date-24"></rect></g><g><rect x="107.90909090909089" y="54.16666666666667" width="2" height="45.83333333333333" id="death-date-25"></rect></g><g><rect x="104.34545454545456" y="66.66666666666667" width="2" height="33.33333333333333" id="death-date-26"></rect></g><g><rect x="100.78181818181817" y="29.166666666666664" width="2" height="70.83333333333334" id="death-date-27"></rect></g><g><rect x="97.21818181818183" y="33.333333333333336" width="2" height="66.66666666666666" id="death-date-28"></rect></g><g><rect x="93.65454545454546" y="62.5" width="2" height="37.5" id="death-date-29"></rect></g><g><rect x="90.09090909090911" y="58.33333333333333" width="2" height="41.66666666666667" id="death-date-30"></rect></g><g><rect x="86.52727272727273" y="66.66666666666667" width="2" height="33.33333333333333" id="death-date-31"></rect></g><g><rect x="82.96363636363637" y="41.666666666666664" width="2" height="58.333333333333336" id="death-date-32"></rect></g><g><rect x="79.4" y="58.33333333333333" width="2" height="41.66666666666667" id="death-date-33"></rect></g><g><rect x="75.83636363636364" y="37.5" width="2" height="62.5" id="death-date-34"></rect></g><g><rect x="72.27272727272727" y="37.5" width="2" height="62.5" id="death-date-35"></rect></g><g><rect x="68.70909090909092" y="41.666666666666664" width="2" height="58.333333333333336" id="death-date-36"></rect></g><g><rect x="65.14545454545454" y="29.166666666666664" width="2" height="70.83333333333334" id="death-date-37"></rect></g><g><rect x="61.58181818181818" y="41.666666666666664" width="2" height="58.333333333333336" id="death-date-38"></rect></g><g><rect x="58.018181818181816" y="45.833333333333336" width="2" height="54.166666666666664" id="death-date-39"></rect></g><g><rect x="54.454545454545446" y="50" width="2" height="50" id="death-date-40"></rect></g><g><rect x="50.89090909090908" y="20.833333333333336" width="2" height="79.16666666666666" id="death-date-41"></rect></g><g><rect x="47.32727272727273" y="58.33333333333333" width="2" height="41.66666666666667" id="death-date-42"></rect></g><g><rect x="43.76363636363636" y="66.66666666666667" width="2" height="33.33333333333333" id="death-date-43"></rect></g><g><rect x="40.199999999999996" y="33.333333333333336" width="2" height="66.66666666666666" id="death-date-44"></rect></g><g><rect x="36.636363636363626" y="29.166666666666664" width="2" height="70.83333333333334" id="death-date-45"></rect></g><g><rect x="33.072727272727285" y="0" width="2" height="100" id="death-date-46"></rect></g><g><rect x="29.509090909090922" y="12.5" width="2" height="87.5" id="death-date-47"></rect></g><g><rect x="25.945454545454556" y="33.333333333333336" width="2" height="66.66666666666666" id="death-date-48"></rect></g><g><rect x="22.38181818181819" y="41.666666666666664" width="2" height="58.333333333333336" id="death-date-49"></rect></g><g><rect x="18.818181818181824" y="25" width="2" height="75" id="death-date-50"></rect></g><g><rect x="15.254545454545461" y="33.333333333333336" width="2" height="66.66666666666666" id="death-date-51"></rect></g><g><rect x="11.690909090909095" y="16.666666666666664" width="2" height="83.33333333333334" id="death-date-52"></rect></g><g><rect x="8.12727272727273" y="16.666666666666664" width="2" height="83.33333333333334" id="death-date-53"></rect></g><g><rect x="4.563636363636365" y="16.666666666666664" width="2" height="83.33333333333334" id="death-date-54"></rect></g><g><rect x="1" y="4.1666666666666625" width="2" height="95.83333333333334" id="death-date-55"></rect></g></g><g class="fg-line death-date" fill="none" stroke="#92c5de" stroke-width="2" stroke-linecap="round"><path d="M198,51.78571428571428L194.43636363636364,42.26190476190476L190.87272727272727,41.07142857142857L187.30909090909088,38.095238095238095L183.74545454545455,40.476190476190474L180.1818181818182,43.452380952380956L176.61818181818182,40.476190476190474L173.05454545454546,39.88095238095239L169.49090909090907,45.23809523809524L165.92727272727274,47.61904761904761L162.36363636363637,50.595238095238095L158.8,51.78571428571428L155.23636363636365,52.38095238095237L151.6727272727273,58.33333333333333L148.1090909090909,58.928571428571416L144.54545454545453,61.30952380952381L140.9818181818182,58.928571428571416L137.41818181818184,58.33333333333333L133.85454545454544,57.14285714285714L130.29090909090908,55.952380952380956L126.72727272727273,56.547619047619044L123.16363636363636,52.38095238095237L119.6,48.8095238095238L116.03636363636363,51.78571428571428L112.47272727272728,52.97619047619047L108.90909090909089,52.97619047619047L105.34545454545456,51.19047619047619L101.78181818181817,50L98.21818181818183,51.19047619047619L94.65454545454546,51.78571428571428L91.09090909090911,48.8095238095238L87.52727272727273,44.64285714285714L83.96363636363637,41.07142857142857L80.4,41.666666666666664L76.83636363636364,40.476190476190474L73.27272727272727,38.095238095238095L69.70909090909092,41.07142857142857L66.14545454545454,44.64285714285714L62.58181818181818,45.23809523809524L59.018181818181816,43.452380952380956L55.454545454545446,36.904761904761905L51.89090909090908,31.547619047619058L48.32727272727273,33.333333333333336L44.76363636363636,30.952380952380942L41.199999999999996,25L37.636363636363626,25L34.072727272727285,23.214285714285722L30.509090909090922,25.595238095238095L26.945454545454556,26.190476190476186L23.38181818181819,22.023809523809522L19.818181818181824,17.85714285714285L16.25454545454546,14.28571428571428L12.690909090909095,2.9761904761904767L9.12727272727273,4.761904761904756L5.563636363636365,3.57142857142857L2,0"></path></g></svg>