<svg about="DATA_PUBLISHED_DATE:2021-10-20,RENDER_DATE:2021-10-20" xmlns="http://www.w3.org/2000/svg" viewBox="0,0,200,100"><g transform="translate(0,0)"></g><g class="fg-bars cases-ep" fill="#00183f" stroke="none"><g><rect x="197" y="70.0625" width="2" height="29.9375" id="cases-ep-0"></rect></g><g><rect x="193.43636363636364" y="84.20625" width="2" height="15.793750000000003" id="cases-ep-1"></rect></g><g><rect x="189.87272727272727" y="81.05624999999999" width="2" height="18.94375000000001" id="cases-ep-2"></rect></g><g><rect x="186.30909090909088" y="70.95" width="2" height="29.049999999999997" id="cases-ep-3"></rect></g><g><rect x="182.74545454545455" y="69.51875000000001" width="2" height="30.48124999999999" id="cases-ep-4"></rect></g><g><rect x="179.1818181818182" y="64.78125" width="2" height="35.21875" id="cases-ep-5"></rect></g><g><rect x="175.61818181818182" y="62.993750000000006" width="2" height="37.006249999999994" id="cases-ep-6"></rect></g><g><rect x="172.05454545454546" y="59.362500000000004" width="2" height="40.637499999999996" id="cases-ep-7"></rect></g><g><rect x="168.49090909090907" y="80.11874999999999" width="2" height="19.88125000000001" id="cases-ep-8"></rect></g><g><rect x="164.92727272727274" y="78.21875" width="2" height="21.78125" id="cases-ep-9"></rect></g><g><rect x="161.36363636363637" y="65.825" width="2" height="34.175" id="cases-ep-10"></rect></g><g><rect x="157.8" y="64.78125" width="2" height="35.21875" id="cases-ep-11"></rect></g><g><rect x="154.23636363636365" y="62.18749999999999" width="2" height="37.81250000000001" id="cases-ep-12"></rect></g><g><rect x="150.6727272727273" y="58.84374999999999" width="2" height="41.15625000000001" id="cases-ep-13"></rect></g><g><rect x="147.1090909090909" y="53.55" width="2" height="46.45" id="cases-ep-14"></rect></g><g><rect x="143.54545454545453" y="77.25625000000001" width="2" height="22.74374999999999" id="cases-ep-15"></rect></g><g><rect x="139.9818181818182" y="74.33125000000001" width="2" height="25.66874999999999" id="cases-ep-16"></rect></g><g><rect x="136.41818181818184" y="62.306250000000006" width="2" height="37.693749999999994" id="cases-ep-17"></rect></g><g><rect x="132.85454545454544" y="60.224999999999994" width="2" height="39.775000000000006" id="cases-ep-18"></rect></g><g><rect x="129.29090909090908" y="54.6375" width="2" height="45.3625" id="cases-ep-19"></rect></g><g><rect x="125.72727272727273" y="53.74375" width="2" height="46.25625" id="cases-ep-20"></rect></g><g><rect x="122.16363636363636" y="46.19375" width="2" height="53.80625" id="cases-ep-21"></rect></g><g><rect x="118.6" y="74.51875" width="2" height="25.481250000000003" id="cases-ep-22"></rect></g><g><rect x="115.03636363636363" y="69.76875" width="2" height="30.231250000000003" id="cases-ep-23"></rect></g><g><rect x="111.47272727272728" y="54.87500000000001" width="2" height="45.12499999999999" id="cases-ep-24"></rect></g><g><rect x="107.90909090909089" y="51.35000000000001" width="2" height="48.64999999999999" id="cases-ep-25"></rect></g><g><rect x="104.34545454545456" y="45.418749999999996" width="2" height="54.581250000000004" id="cases-ep-26"></rect></g><g><rect x="100.78181818181817" y="41.86875" width="2" height="58.13125" id="cases-ep-27"></rect></g><g><rect x="97.21818181818183" y="35.73125" width="2" height="64.26875" id="cases-ep-28"></rect></g><g><rect x="93.65454545454546" y="67.325" width="2" height="32.675" id="cases-ep-29"></rect></g><g><rect x="90.09090909090911" y="61.568749999999994" width="2" height="38.431250000000006" id="cases-ep-30"></rect></g><g><rect x="86.52727272727273" y="42.537499999999994" width="2" height="57.462500000000006" id="cases-ep-31"></rect></g><g><rect x="82.96363636363637" y="37.112500000000004" width="2" height="62.887499999999996" id="cases-ep-32"></rect></g><g><rect x="79.4" y="30.081250000000004" width="2" height="69.91874999999999" id="cases-ep-33"></rect></g><g><rect x="75.83636363636364" y="23.587499999999995" width="2" height="76.41250000000001" id="cases-ep-34"></rect></g><g><rect x="72.27272727272727" y="59.075" width="2" height="40.925" id="cases-ep-35"></rect></g><g><rect x="68.70909090909092" y="67.05624999999999" width="2" height="32.94375000000001" id="cases-ep-36"></rect></g><g><rect x="65.14545454545454" y="58.49375" width="2" height="41.50625" id="cases-ep-37"></rect></g><g><rect x="61.58181818181818" y="38.81875" width="2" height="61.18125" id="cases-ep-38"></rect></g><g><rect x="58.018181818181816" y="32.5125" width="2" height="67.4875" id="cases-ep-39"></rect></g><g><rect x="54.454545454545446" y="21.03125" width="2" height="78.96875" id="cases-ep-40"></rect></g><g><rect x="50.89090909090908" y="23.8375" width="2" height="76.1625" id="cases-ep-41"></rect></g><g><rect x="47.32727272727273" y="17.643750000000004" width="2" height="82.35624999999999" id="cases-ep-42"></rect></g><g><rect x="43.76363636363636" y="59.35" width="2" height="40.65" id="cases-ep-43"></rect></g><g><rect x="40.199999999999996" y="51.87500000000001" width="2" height="48.12499999999999" id="cases-ep-44"></rect></g><g><rect x="36.636363636363626" y="30.349999999999998" width="2" height="69.65" id="cases-ep-45"></rect></g><g><rect x="33.072727272727285" y="22.9125" width="2" height="77.0875" id="cases-ep-46"></rect></g><g><rect x="29.509090909090922" y="15.618750000000004" width="2" height="84.38125" id="cases-ep-47"></rect></g><g><rect x="25.945454545454556" y="13.012500000000005" width="2" height="86.9875" id="cases-ep-48"></rect></g><g><rect x="22.38181818181819" y="5.006250000000001" width="2" height="94.99375" id="cases-ep-49"></rect></g><g><rect x="18.818181818181824" y="53.37499999999999" width="2" height="46.62500000000001" id="cases-ep-50"></rect></g><g><rect x="15.254545454545461" y="44.95" width="2" height="55.05" id="cases-ep-51"></rect></g><g><rect x="11.690909090909095" y="16.7875" width="2" height="83.2125" id="cases-ep-52"></rect></g><g><rect x="8.12727272727273" y="13.649999999999995" width="2" height="86.35000000000001" id="cases-ep-53"></rect></g><g><rect x="4.563636363636365" y="6.606250000000003" width="2" height="93.39375" id="cases-ep-54"></rect></g><g><rect x="1" y="3.687499999999999" width="2" height="96.3125" id="cases-ep-55"></rect></g></g><g class="fg-line cases-ep" fill="none" stroke="#92c5de" stroke-width="2" stroke-linecap="round"><path d="M198,71.93839285714286L194.43636363636364,70.40982142857143L190.87272727272727,69.82589285714286L187.30909090909088,69.42053571428572L183.74545454545455,68.68839285714286L180.1818181818182,68.01160714285714L176.61818181818182,67.64107142857144L173.05454545454546,67.04821428571428L169.49090909090907,66.21785714285716L165.92727272727274,65.80892857142857L162.36363636363637,65.25357142857142L158.8,64.75089285714286L155.23636363636365,64.1L151.6727272727273,63.02142857142857L148.1090909090909,62.29285714285715L144.54545454545453,61.24196428571429L140.9818181818182,60.85089285714286L137.41818181818184,60.199107142857144L133.85454545454544,59.137499999999996L130.29090909090908,57.86964285714286L126.72727272727273,56.55267857142857L123.16363636363636,54.85625L119.6,53.36160714285714L116.03636363636363,52.33392857142858L112.47272727272728,51.1625L108.90909090909089,49.4L105.34545454545456,47.36607142857143L101.78181818181817,45.175L98.21818181818183,42.56339285714286L94.65454545454546,45.89821428571429L91.09090909090911,45.859821428571436L87.52727272727273,45.42053571428571L83.96363636363637,44.88928571428571L80.4,44.232142857142854L76.83636363636364,42.93928571428572L73.27272727272727,42.974999999999994L69.70909090909092,37.05625L66.14545454545454,35.955357142857146L62.58181818181818,35.00982142857143L59.018181818181816,33.8L55.454545454545446,32.42857142857143L51.89090909090908,31.65535714285714L48.32727272727273,30.10892857142856L44.76363636363636,28.303571428571427L41.199999999999996,27.449999999999996L37.636363636363626,26.460714285714293L34.072727272727285,24.52321428571429L30.509090909090922,23.2L26.945454545454556,21.9125L23.38181818181819,20.580357142857142L19.818181818181824,19.840178571428567L16.25454545454546,19.253571428571437L12.690909090909095,18.609821428571436L9.12727272727273,18.279464285714287L5.563636363636365,17.65535714285714L2,17.27589285714286"></path></g></svg>