<svg meta="{&quot;DATA_PUBLISHED_DATE&quot;:&quot;2023-03-16&quot;,&quot;RENDER_DATE&quot;:&quot;2023-03-16&quot;,&quot;FIRST_DATE&quot;:&quot;2023-01-11&quot;,&quot;LAST_DATE&quot;:&quot;2023-03-07&quot;}" xmlns="http://www.w3.org/2000/svg" viewBox="0,0,200,100"><g transform="translate(0,0)"></g><g class="fg-bars cases-ep" fill="#00183f" stroke="none"><g><rect x="197" y="44.48888888888889" width="2" height="55.51111111111111" id="cases-ep-0"></rect></g><g><rect x="193.43636363636364" y="36.266666666666666" width="2" height="63.733333333333334" id="cases-ep-1"></rect></g><g><rect x="189.87272727272727" y="68.22222222222223" width="2" height="31.77777777777777" id="cases-ep-2"></rect></g><g><rect x="186.30909090909088" y="64.46666666666667" width="2" height="35.53333333333333" id="cases-ep-3"></rect></g><g><rect x="182.74545454545455" y="47.488888888888894" width="2" height="52.511111111111106" id="cases-ep-4"></rect></g><g><rect x="179.1818181818182" y="42.77777777777778" width="2" height="57.22222222222222" id="cases-ep-5"></rect></g><g><rect x="175.61818181818182" y="39.31111111111111" width="2" height="60.68888888888889" id="cases-ep-6"></rect></g><g><rect x="172.05454545454546" y="32.82222222222222" width="2" height="67.17777777777778" id="cases-ep-7"></rect></g><g><rect x="168.49090909090907" y="27.977777777777778" width="2" height="72.02222222222223" id="cases-ep-8"></rect></g><g><rect x="164.92727272727274" y="60.28888888888888" width="2" height="39.71111111111112" id="cases-ep-9"></rect></g><g><rect x="161.36363636363637" y="60.4" width="2" height="39.6" id="cases-ep-10"></rect></g><g><rect x="157.8" y="41.333333333333336" width="2" height="58.666666666666664" id="cases-ep-11"></rect></g><g><rect x="154.23636363636365" y="32.24444444444444" width="2" height="67.75555555555556" id="cases-ep-12"></rect></g><g><rect x="150.6727272727273" y="27.73333333333333" width="2" height="72.26666666666667" id="cases-ep-13"></rect></g><g><rect x="147.1090909090909" y="12.844444444444447" width="2" height="87.15555555555555" id="cases-ep-14"></rect></g><g><rect x="143.54545454545453" y="33.42222222222222" width="2" height="66.57777777777778" id="cases-ep-15"></rect></g><g><rect x="139.9818181818182" y="54.822222222222216" width="2" height="45.177777777777784" id="cases-ep-16"></rect></g><g><rect x="136.41818181818184" y="55.2" width="2" height="44.8" id="cases-ep-17"></rect></g><g><rect x="132.85454545454544" y="35.86666666666667" width="2" height="64.13333333333333" id="cases-ep-18"></rect></g><g><rect x="129.29090909090908" y="31.599999999999994" width="2" height="68.4" id="cases-ep-19"></rect></g><g><rect x="125.72727272727273" y="28.222222222222225" width="2" height="71.77777777777777" id="cases-ep-20"></rect></g><g><rect x="122.16363636363636" y="26.400000000000002" width="2" height="73.6" id="cases-ep-21"></rect></g><g><rect x="118.6" y="16.022222222222226" width="2" height="83.97777777777777" id="cases-ep-22"></rect></g><g><rect x="115.03636363636363" y="55.13333333333333" width="2" height="44.86666666666667" id="cases-ep-23"></rect></g><g><rect x="111.47272727272728" y="51.97777777777778" width="2" height="48.02222222222222" id="cases-ep-24"></rect></g><g><rect x="107.90909090909089" y="31.599999999999994" width="2" height="68.4" id="cases-ep-25"></rect></g><g><rect x="104.34545454545456" y="29.46666666666666" width="2" height="70.53333333333333" id="cases-ep-26"></rect></g><g><rect x="100.78181818181817" y="23.311111111111117" width="2" height="76.68888888888888" id="cases-ep-27"></rect></g><g><rect x="97.21818181818183" y="21.933333333333337" width="2" height="78.06666666666666" id="cases-ep-28"></rect></g><g><rect x="93.65454545454546" y="7.088888888888889" width="2" height="92.91111111111111" id="cases-ep-29"></rect></g><g><rect x="90.09090909090911" y="52.355555555555554" width="2" height="47.644444444444446" id="cases-ep-30"></rect></g><g><rect x="86.52727272727273" y="52.31111111111111" width="2" height="47.68888888888889" id="cases-ep-31"></rect></g><g><rect x="82.96363636363637" y="34.51111111111111" width="2" height="65.48888888888888" id="cases-ep-32"></rect></g><g><rect x="79.4" y="30.84444444444444" width="2" height="69.15555555555557" id="cases-ep-33"></rect></g><g><rect x="75.83636363636364" y="26.155555555555555" width="2" height="73.84444444444445" id="cases-ep-34"></rect></g><g><rect x="72.27272727272727" y="24.044444444444444" width="2" height="75.95555555555555" id="cases-ep-35"></rect></g><g><rect x="68.70909090909092" y="18.600000000000005" width="2" height="81.39999999999999" id="cases-ep-36"></rect></g><g><rect x="65.14545454545454" y="58.133333333333326" width="2" height="41.866666666666674" id="cases-ep-37"></rect></g><g><rect x="61.58181818181818" y="56.13333333333333" width="2" height="43.86666666666667" id="cases-ep-38"></rect></g><g><rect x="58.018181818181816" y="37.22222222222222" width="2" height="62.77777777777778" id="cases-ep-39"></rect></g><g><rect x="54.454545454545446" y="38.733333333333334" width="2" height="61.266666666666666" id="cases-ep-40"></rect></g><g><rect x="50.89090909090908" y="32.57777777777778" width="2" height="67.42222222222222" id="cases-ep-41"></rect></g><g><rect x="47.32727272727273" y="29.422222222222228" width="2" height="70.57777777777777" id="cases-ep-42"></rect></g><g><rect x="43.76363636363636" y="28.6" width="2" height="71.4" id="cases-ep-43"></rect></g><g><rect x="40.199999999999996" y="61.53333333333333" width="2" height="38.46666666666667" id="cases-ep-44"></rect></g><g><rect x="36.636363636363626" y="61.022222222222226" width="2" height="38.977777777777774" id="cases-ep-45"></rect></g><g><rect x="33.072727272727285" y="43.93333333333334" width="2" height="56.06666666666666" id="cases-ep-46"></rect></g><g><rect x="29.509090909090922" y="39.44444444444445" width="2" height="60.55555555555555" id="cases-ep-47"></rect></g><g><rect x="25.945454545454556" y="33.53333333333334" width="2" height="66.46666666666667" id="cases-ep-48"></rect></g><g><rect x="22.38181818181819" y="22.088888888888892" width="2" height="77.91111111111111" id="cases-ep-49"></rect></g><g><rect x="18.818181818181824" y="40" width="2" height="60" id="cases-ep-50"></rect></g><g><rect x="15.254545454545461" y="58.711111111111116" width="2" height="41.288888888888884" id="cases-ep-51"></rect></g><g><rect x="11.690909090909095" y="56.35555555555556" width="2" height="43.64444444444444" id="cases-ep-52"></rect></g><g><rect x="8.12727272727273" y="32.733333333333334" width="2" height="67.26666666666667" id="cases-ep-53"></rect></g><g><rect x="4.563636363636365" y="27.688888888888886" width="2" height="72.31111111111112" id="cases-ep-54"></rect></g><g><rect x="1" y="17.000000000000004" width="2" height="83" id="cases-ep-55"></rect></g></g><g class="fg-line cases-ep" fill="none" stroke="#92c5de" stroke-width="2" stroke-linecap="round"><path d="M198,49.00317460317461L194.43636363636364,47.33650793650794L190.87272727272727,46.152380952380945L187.30909090909088,45.01904761904761L183.74545454545455,44.438095238095244L180.1818181818182,43.558730158730164L176.61818181818182,42.05396825396826L173.05454545454546,40.400000000000006L169.49090909090907,37.54603174603174L165.92727272727274,38.323809523809516L162.36363636363637,37.542857142857144L158.8,36.8L155.23636363636365,36.01904761904762L151.6727272727273,35.92698412698413L148.1090909090909,35.99682539682539L144.54545454545453,37.93333333333333L140.9818181818182,35.44761904761905L137.41818181818184,35.492063492063494L133.85454545454544,35.03174603174604L130.29090909090908,34.42222222222222L126.72727272727273,34.11746031746031L123.16363636363636,33.41587301587302L119.6,32.77777777777777L116.03636363636363,31.501587301587296L112.47272727272728,31.1047619047619L108.90909090909089,31.15238095238094L105.34545454545456,31.568253968253966L101.78181818181817,31.765079365079362L98.21818181818183,32.17142857142857L94.65454545454546,32.473015873015875L91.09090909090911,34.11746031746031L87.52727272727273,34.94285714285714L83.96363636363637,35.488888888888894L80.4,35.87619047619049L76.83636363636364,37.00317460317461L73.27272727272727,37.920634920634924L69.70909090909092,38.68888888888888L66.14545454545454,40.11746031746032L62.58181818181818,40.60317460317461L59.018181818181816,41.3015873015873L55.454545454545446,42.26031746031747L51.89090909090908,42.36190476190475L48.32727272727273,42.4984126984127L44.76363636363636,41.45079365079365L41.199999999999996,43.079365079365076L37.636363636363626,42.67619047619048L34.072727272727285,42.009523809523806L30.509090909090922,40.40952380952382L26.945454545454556,38.73015873015873L23.38181818181819,36.36825396825396L19.818181818181824,35.546031746031744L16.25454545454546,28.980952380952385L12.690909090909095,26.371428571428567L9.12727272727273,22.55555555555555L5.563636363636365,16.56507936507937L2,11.222222222222221"></path></g></svg>