<svg meta="{&quot;DATA_PUBLISHED_DATE&quot;:&quot;2023-07-06&quot;,&quot;RENDER_DATE&quot;:&quot;2023-07-06&quot;,&quot;FIRST_DATE&quot;:&quot;2023-05-07&quot;,&quot;LAST_DATE&quot;:&quot;2023-07-01&quot;}" xmlns="http://www.w3.org/2000/svg" viewBox="0,0,200,100"><g transform="translate(0,0)"></g><g class="fg-bars hospitalizations-count" fill="#00183f" stroke="none"><g><rect x="197" y="79.92307692307692" width="2" height="20.07692307692308" id="hospitalizations-count-0"></rect></g><g><rect x="193.43636363636364" y="55.3076923076923" width="2" height="44.6923076923077" id="hospitalizations-count-1"></rect></g><g><rect x="189.87272727272727" y="49.30769230769231" width="2" height="50.69230769230769" id="hospitalizations-count-2"></rect></g><g><rect x="186.30909090909088" y="48.69230769230769" width="2" height="51.30769230769231" id="hospitalizations-count-3"></rect></g><g><rect x="182.74545454545455" y="49.23076923076923" width="2" height="50.76923076923077" id="hospitalizations-count-4"></rect></g><g><rect x="179.1818181818182" y="46" width="2" height="54" id="hospitalizations-count-5"></rect></g><g><rect x="175.61818181818182" y="51.23076923076923" width="2" height="48.76923076923077" id="hospitalizations-count-6"></rect></g><g><rect x="172.05454545454546" y="40.07692307692308" width="2" height="59.92307692307692" id="hospitalizations-count-7"></rect></g><g><rect x="168.49090909090907" y="38.23076923076923" width="2" height="61.76923076923077" id="hospitalizations-count-8"></rect></g><g><rect x="164.92727272727274" y="40.230769230769226" width="2" height="59.769230769230774" id="hospitalizations-count-9"></rect></g><g><rect x="161.36363636363637" y="37.46153846153846" width="2" height="62.53846153846154" id="hospitalizations-count-10"></rect></g><g><rect x="157.8" y="38" width="2" height="62" id="hospitalizations-count-11"></rect></g><g><rect x="154.23636363636365" y="32.61538461538461" width="2" height="67.38461538461539" id="hospitalizations-count-12"></rect></g><g><rect x="150.6727272727273" y="32.46153846153847" width="2" height="67.53846153846153" id="hospitalizations-count-13"></rect></g><g><rect x="147.1090909090909" y="30.307692307692303" width="2" height="69.6923076923077" id="hospitalizations-count-14"></rect></g><g><rect x="143.54545454545453" y="32.30769230769231" width="2" height="67.6923076923077" id="hospitalizations-count-15"></rect></g><g><rect x="139.9818181818182" y="29.153846153846153" width="2" height="70.84615384615384" id="hospitalizations-count-16"></rect></g><g><rect x="136.41818181818184" y="30.000000000000004" width="2" height="70" id="hospitalizations-count-17"></rect></g><g><rect x="132.85454545454544" y="32.230769230769226" width="2" height="67.76923076923077" id="hospitalizations-count-18"></rect></g><g><rect x="129.29090909090908" y="29.384615384615387" width="2" height="70.61538461538461" id="hospitalizations-count-19"></rect></g><g><rect x="125.72727272727273" y="30.153846153846153" width="2" height="69.84615384615384" id="hospitalizations-count-20"></rect></g><g><rect x="122.16363636363636" y="31.999999999999996" width="2" height="68" id="hospitalizations-count-21"></rect></g><g><rect x="118.6" y="29.846153846153843" width="2" height="70.15384615384616" id="hospitalizations-count-22"></rect></g><g><rect x="115.03636363636363" y="28.538461538461533" width="2" height="71.46153846153847" id="hospitalizations-count-23"></rect></g><g><rect x="111.47272727272728" y="27.076923076923077" width="2" height="72.92307692307692" id="hospitalizations-count-24"></rect></g><g><rect x="107.90909090909089" y="25.692307692307693" width="2" height="74.3076923076923" id="hospitalizations-count-25"></rect></g><g><rect x="104.34545454545456" y="25.615384615384617" width="2" height="74.38461538461539" id="hospitalizations-count-26"></rect></g><g><rect x="100.78181818181817" y="27.923076923076927" width="2" height="72.07692307692307" id="hospitalizations-count-27"></rect></g><g><rect x="97.21818181818183" y="28.46153846153846" width="2" height="71.53846153846155" id="hospitalizations-count-28"></rect></g><g><rect x="93.65454545454546" y="26.692307692307693" width="2" height="73.3076923076923" id="hospitalizations-count-29"></rect></g><g><rect x="90.09090909090911" y="24.84615384615385" width="2" height="75.15384615384615" id="hospitalizations-count-30"></rect></g><g><rect x="86.52727272727273" y="20.692307692307686" width="2" height="79.30769230769232" id="hospitalizations-count-31"></rect></g><g><rect x="82.96363636363637" y="22.615384615384613" width="2" height="77.38461538461539" id="hospitalizations-count-32"></rect></g><g><rect x="79.4" y="26.230769230769234" width="2" height="73.76923076923077" id="hospitalizations-count-33"></rect></g><g><rect x="75.83636363636364" y="25.30769230769231" width="2" height="74.6923076923077" id="hospitalizations-count-34"></rect></g><g><rect x="72.27272727272727" y="23.84615384615385" width="2" height="76.15384615384615" id="hospitalizations-count-35"></rect></g><g><rect x="68.70909090909092" y="23.615384615384617" width="2" height="76.38461538461539" id="hospitalizations-count-36"></rect></g><g><rect x="65.14545454545454" y="19.846153846153847" width="2" height="80.15384615384616" id="hospitalizations-count-37"></rect></g><g><rect x="61.58181818181818" y="16.92307692307692" width="2" height="83.07692307692308" id="hospitalizations-count-38"></rect></g><g><rect x="58.018181818181816" y="25" width="2" height="75" id="hospitalizations-count-39"></rect></g><g><rect x="54.454545454545446" y="15.769230769230768" width="2" height="84.23076923076923" id="hospitalizations-count-40"></rect></g><g><rect x="50.89090909090908" y="19.07692307692308" width="2" height="80.92307692307692" id="hospitalizations-count-41"></rect></g><g><rect x="47.32727272727273" y="21.53846153846154" width="2" height="78.46153846153845" id="hospitalizations-count-42"></rect></g><g><rect x="43.76363636363636" y="16.846153846153843" width="2" height="83.15384615384616" id="hospitalizations-count-43"></rect></g><g><rect x="40.199999999999996" y="18.000000000000004" width="2" height="82" id="hospitalizations-count-44"></rect></g><g><rect x="36.636363636363626" y="15.692307692307693" width="2" height="84.3076923076923" id="hospitalizations-count-45"></rect></g><g><rect x="33.072727272727285" y="16.076923076923077" width="2" height="83.92307692307692" id="hospitalizations-count-46"></rect></g><g><rect x="29.509090909090922" y="16.692307692307693" width="2" height="83.3076923076923" id="hospitalizations-count-47"></rect></g><g><rect x="25.945454545454556" y="19.538461538461537" width="2" height="80.46153846153847" id="hospitalizations-count-48"></rect></g><g><rect x="22.38181818181819" y="20.692307692307686" width="2" height="79.30769230769232" id="hospitalizations-count-49"></rect></g><g><rect x="18.818181818181824" y="15.923076923076918" width="2" height="84.07692307692308" id="hospitalizations-count-50"></rect></g><g><rect x="15.254545454545461" y="15.384615384615385" width="2" height="84.61538461538461" id="hospitalizations-count-51"></rect></g><g><rect x="11.690909090909095" y="9.076923076923082" width="2" height="90.92307692307692" id="hospitalizations-count-52"></rect></g><g><rect x="8.12727272727273" y="9.846153846153848" width="2" height="90.15384615384615" id="hospitalizations-count-53"></rect></g><g><rect x="4.563636363636365" y="8.615384615384613" width="2" height="91.38461538461539" id="hospitalizations-count-54"></rect></g><g><rect x="1" y="6.384615384615389" width="2" height="93.61538461538461" id="hospitalizations-count-55"></rect></g></g><g class="fg-line hospitalizations-count" fill="none" stroke="#92c5de" stroke-width="2" stroke-linecap="round"><path d="M198,54.241758241758234L194.43636363636364,48.54945054945055L190.87272727272727,46.1098901098901L187.30909090909088,44.81318681318681L183.74545454545455,43.20879120879121L180.1818181818182,41.604395604395606L176.61818181818182,39.69230769230769L173.05454545454546,37.01098901098901L169.49090909090907,35.61538461538461L165.92727272727274,34.769230769230774L162.36363636363637,33.18681318681319L158.8,32.12087912087912L155.23636363636365,31.2967032967033L151.6727272727273,30.83516483516484L148.1090909090909,30.5054945054945L144.54545454545453,30.74725274725274L140.9818181818182,30.39560439560439L137.41818181818184,30.307692307692303L133.85454545454544,29.890109890109883L130.29090909090908,28.956043956043953L126.72727272727273,28.41758241758242L123.16363636363636,28.09890109890111L119.6,27.593406593406588L116.03636363636363,27.142857142857146L112.47272727272728,26.61538461538462L108.90909090909089,25.703296703296697L105.34545454545456,25.26373626373627L101.78181818181817,25.351648351648347L98.21818181818183,24.97802197802197L94.65454545454546,24.318681318681314L91.09090909090911,23.879120879120887L87.52727272727273,23.16483516483516L83.96363636363637,22.62637362637362L80.4,22.967032967032964L76.83636363636364,21.47252747252747L73.27272727272727,20.58241758241759L69.70909090909092,20.25274725274725L66.14545454545454,19.285714285714295L62.58181818181818,19.021978021978015L59.018181818181816,18.846153846153847L55.454545454545446,17.57142857142856L51.89090909090908,17.7032967032967L48.32727272727273,17.76923076923077L44.76363636363636,17.648351648351646L41.199999999999996,17.516483516483518L37.636363636363626,17.14285714285715L34.072727272727285,16.197802197802204L30.509090909090922,15.30769230769231L26.945454545454556,14.15384615384615L23.38181818181819,12.274725274725284L19.818181818181824,11.032967032967022L16.25454545454546,10.263736263736256L12.690909090909095,9.219780219780226L9.12727272727273,8.725274725274723L5.563636363636365,7.989010989010992L2,6.956043956043945"></path></g></svg>