<svg about="DATA_PUBLISHED_DATE:2021-10-04,RENDER_DATE:2021-10-04" xmlns="http://www.w3.org/2000/svg" viewBox="0,0,200,100"><g transform="translate(0,0)"></g><g class="fg-bars cases-ep" fill="#00183f" stroke="none"><g><rect x="197" y="80.51666666666667" width="2" height="19.483333333333334" id="cases-ep-0"></rect></g><g><rect x="193.43636363636364" y="69.25555555555556" width="2" height="30.74444444444444" id="cases-ep-1"></rect></g><g><rect x="189.87272727272727" y="66.96111111111111" width="2" height="33.03888888888889" id="cases-ep-2"></rect></g><g><rect x="186.30909090909088" y="61.538888888888884" width="2" height="38.461111111111116" id="cases-ep-3"></rect></g><g><rect x="182.74545454545455" y="60.138888888888886" width="2" height="39.861111111111114" id="cases-ep-4"></rect></g><g><rect x="179.1818181818182" y="53.84444444444445" width="2" height="46.15555555555555" id="cases-ep-5"></rect></g><g><rect x="175.61818181818182" y="77.91111111111111" width="2" height="22.08888888888889" id="cases-ep-6"></rect></g><g><rect x="172.05454545454546" y="73.59444444444445" width="2" height="26.40555555555555" id="cases-ep-7"></rect></g><g><rect x="168.49090909090907" y="60.38333333333333" width="2" height="39.61666666666667" id="cases-ep-8"></rect></g><g><rect x="164.92727272727274" y="57.24444444444444" width="2" height="42.75555555555556" id="cases-ep-9"></rect></g><g><rect x="161.36363636363637" y="51.7" width="2" height="48.3" id="cases-ep-10"></rect></g><g><rect x="157.8" y="48.42777777777778" width="2" height="51.57222222222222" id="cases-ep-11"></rect></g><g><rect x="154.23636363636365" y="42.75" width="2" height="57.25" id="cases-ep-12"></rect></g><g><rect x="150.6727272727273" y="71.16111111111113" width="2" height="28.838888888888874" id="cases-ep-13"></rect></g><g><rect x="147.1090909090909" y="66.10555555555555" width="2" height="33.894444444444446" id="cases-ep-14"></rect></g><g><rect x="143.54545454545453" y="49.16111111111111" width="2" height="50.83888888888889" id="cases-ep-15"></rect></g><g><rect x="139.9818181818182" y="44.42777777777778" width="2" height="55.57222222222222" id="cases-ep-16"></rect></g><g><rect x="136.41818181818184" y="37.90555555555556" width="2" height="62.09444444444444" id="cases-ep-17"></rect></g><g><rect x="132.85454545454544" y="32.07777777777778" width="2" height="67.92222222222222" id="cases-ep-18"></rect></g><g><rect x="129.29090909090908" y="63.87777777777778" width="2" height="36.12222222222222" id="cases-ep-19"></rect></g><g><rect x="125.72727272727273" y="71.12222222222222" width="2" height="28.87777777777778" id="cases-ep-20"></rect></g><g><rect x="122.16363636363636" y="63.27777777777778" width="2" height="36.72222222222222" id="cases-ep-21"></rect></g><g><rect x="118.6" y="45.81111111111112" width="2" height="54.18888888888888" id="cases-ep-22"></rect></g><g><rect x="115.03636363636363" y="40" width="2" height="60" id="cases-ep-23"></rect></g><g><rect x="111.47272727272728" y="30.08888888888889" width="2" height="69.91111111111111" id="cases-ep-24"></rect></g><g><rect x="107.90909090909089" y="32.138888888888886" width="2" height="67.86111111111111" id="cases-ep-25"></rect></g><g><rect x="104.34545454545456" y="26.861111111111114" width="2" height="73.13888888888889" id="cases-ep-26"></rect></g><g><rect x="100.78181818181817" y="64.28888888888889" width="2" height="35.71111111111111" id="cases-ep-27"></rect></g><g><rect x="97.21818181818183" y="57.46666666666667" width="2" height="42.53333333333333" id="cases-ep-28"></rect></g><g><rect x="93.65454545454546" y="38.24444444444445" width="2" height="61.75555555555555" id="cases-ep-29"></rect></g><g><rect x="90.09090909090911" y="31.533333333333335" width="2" height="68.46666666666667" id="cases-ep-30"></rect></g><g><rect x="86.52727272727273" y="25.16666666666667" width="2" height="74.83333333333333" id="cases-ep-31"></rect></g><g><rect x="82.96363636363637" y="22.877777777777773" width="2" height="77.12222222222223" id="cases-ep-32"></rect></g><g><rect x="79.4" y="15.711111111111109" width="2" height="84.28888888888889" id="cases-ep-33"></rect></g><g><rect x="75.83636363636364" y="58.63333333333334" width="2" height="41.36666666666666" id="cases-ep-34"></rect></g><g><rect x="72.27272727272727" y="51.16666666666667" width="2" height="48.83333333333333" id="cases-ep-35"></rect></g><g><rect x="68.70909090909092" y="26.22777777777778" width="2" height="73.77222222222221" id="cases-ep-36"></rect></g><g><rect x="65.14545454545454" y="23.29444444444444" width="2" height="76.70555555555556" id="cases-ep-37"></rect></g><g><rect x="61.58181818181818" y="17.11111111111111" width="2" height="82.88888888888889" id="cases-ep-38"></rect></g><g><rect x="58.018181818181816" y="14.500000000000002" width="2" height="85.5" id="cases-ep-39"></rect></g><g><rect x="54.454545454545446" y="11.033333333333328" width="2" height="88.96666666666667" id="cases-ep-40"></rect></g><g><rect x="50.89090909090908" y="54.955555555555556" width="2" height="45.044444444444444" id="cases-ep-41"></rect></g><g><rect x="47.32727272727273" y="47.105555555555554" width="2" height="52.894444444444446" id="cases-ep-42"></rect></g><g><rect x="43.76363636363636" y="24.033333333333328" width="2" height="75.96666666666667" id="cases-ep-43"></rect></g><g><rect x="40.199999999999996" y="19.405555555555555" width="2" height="80.59444444444445" id="cases-ep-44"></rect></g><g><rect x="36.636363636363626" y="14.63888888888889" width="2" height="85.36111111111111" id="cases-ep-45"></rect></g><g><rect x="33.072727272727285" y="10.844444444444445" width="2" height="89.15555555555555" id="cases-ep-46"></rect></g><g><rect x="29.509090909090922" y="10.177777777777774" width="2" height="89.82222222222222" id="cases-ep-47"></rect></g><g><rect x="25.945454545454556" y="52.32222222222222" width="2" height="47.67777777777778" id="cases-ep-48"></rect></g><g><rect x="22.38181818181819" y="46.66111111111111" width="2" height="53.33888888888889" id="cases-ep-49"></rect></g><g><rect x="18.818181818181824" y="28.74444444444444" width="2" height="71.25555555555556" id="cases-ep-50"></rect></g><g><rect x="15.254545454545461" y="23.166666666666668" width="2" height="76.83333333333333" id="cases-ep-51"></rect></g><g><rect x="11.690909090909095" y="22.28888888888889" width="2" height="77.71111111111111" id="cases-ep-52"></rect></g><g><rect x="8.12727272727273" y="20.65555555555556" width="2" height="79.34444444444443" id="cases-ep-53"></rect></g><g><rect x="4.563636363636365" y="22.344444444444445" width="2" height="77.65555555555555" id="cases-ep-54"></rect></g><g><rect x="1" y="53.38333333333334" width="2" height="46.61666666666666" id="cases-ep-55"></rect></g></g><g class="fg-line cases-ep" fill="none" stroke="#92c5de" stroke-width="2" stroke-linecap="round"><path d="M198,67.16666666666666L194.43636363636364,66.17777777777778L190.87272727272727,64.91031746031746L187.30909090909088,63.522222222222226L183.74545454545455,62.11666666666667L180.1818181818182,60.4436507936508L176.61818181818182,58.858730158730154L173.05454545454546,57.894444444444446L169.49090909090907,56.82460317460318L165.92727272727274,55.221428571428575L162.36363636363637,53.390476190476186L158.8,51.41984126984127L155.23636363636365,49.08412698412698L151.6727272727273,52.102380952380955L148.1090909090909,52.09682539682539L144.54545454545453,51.69285714285714L140.9818181818182,51.21428571428572L137.41818181818184,50.581746031746036L133.85454545454544,49.46507936507937L130.29090909090908,49.47380952380952L126.72727272727273,44.18571428571428L123.16363636363636,43.20952380952381L119.6,42.37936507936507L116.03636363636363,41.298412698412704L112.47272727272728,40.08888888888889L108.90909090909089,39.38571428571428L105.34545454545456,38.06269841269842L101.78181818181817,36.469841269841275L98.21818181818183,35.661904761904765L94.65454545454546,34.76190476190476L91.09090909090911,33.04523809523809L87.52727272727273,31.868253968253967L83.96363636363637,30.717460317460322L80.4,29.520634920634926L76.83636363636364,28.85238095238095L73.27272727272727,28.326984126984133L69.70909090909092,27.746825396825393L66.14545454545454,27.43333333333333L62.58181818181818,26.87777777777778L59.018181818181816,26.52460317460317L55.454545454545446,26.002380952380943L51.89090909090908,25.88015873015873L48.32727272727273,25.503968253968257L44.76363636363636,25.44047619047619L41.199999999999996,26.11349206349206L37.636363636363626,26.65079365079365L34.072727272727285,27.743650793650797L30.509090909090922,29.145238095238092L26.945454545454556,30.88333333333333L23.38181818181819,31.03492063492064L19.818181818181824,31.951587301587303L16.25454545454546,33.374603174603166L12.690909090909095,35.05396825396826L9.12727272727273,36.811904761904756L5.563636363636365,39.286507936507945L2,41.13650793650794"></path></g></svg>