<svg meta="{&quot;DATA_PUBLISHED_DATE&quot;:&quot;2022-03-22&quot;,&quot;RENDER_DATE&quot;:&quot;2022-03-22&quot;,&quot;FIRST_DATE&quot;:&quot;2022-01-18&quot;,&quot;LAST_DATE&quot;:&quot;2022-03-14&quot;}" xmlns="http://www.w3.org/2000/svg" viewBox="0,0,200,100"><g transform="translate(0,0)"></g><g class="fg-bars tests-vaccines" fill="#00183f" stroke="none"><g><rect x="197" y="85.31800000000001" width="2" height="14.681999999999988" id="tests-vaccines-0"></rect></g><g><rect x="193.43636363636364" y="94.282" width="2" height="5.7180000000000035" id="tests-vaccines-1"></rect></g><g><rect x="189.87272727272727" y="87.90400000000001" width="2" height="12.09599999999999" id="tests-vaccines-2"></rect></g><g><rect x="186.30909090909088" y="79.1545" width="2" height="20.8455" id="tests-vaccines-3"></rect></g><g><rect x="182.74545454545455" y="83.69800000000001" width="2" height="16.301999999999992" id="tests-vaccines-4"></rect></g><g><rect x="179.1818181818182" y="82.7595" width="2" height="17.240499999999997" id="tests-vaccines-5"></rect></g><g><rect x="175.61818181818182" y="83.699" width="2" height="16.301000000000002" id="tests-vaccines-6"></rect></g><g><rect x="172.05454545454546" y="83.1765" width="2" height="16.823499999999996" id="tests-vaccines-7"></rect></g><g><rect x="168.49090909090907" y="93.5345" width="2" height="6.465500000000006" id="tests-vaccines-8"></rect></g><g><rect x="164.92727272727274" y="85.87400000000001" width="2" height="14.12599999999999" id="tests-vaccines-9"></rect></g><g><rect x="161.36363636363637" y="73.0755" width="2" height="26.924499999999995" id="tests-vaccines-10"></rect></g><g><rect x="157.8" y="80.26100000000001" width="2" height="19.73899999999999" id="tests-vaccines-11"></rect></g><g><rect x="154.23636363636365" y="78.6215" width="2" height="21.378500000000003" id="tests-vaccines-12"></rect></g><g><rect x="150.6727272727273" y="76.1065" width="2" height="23.893500000000003" id="tests-vaccines-13"></rect></g><g><rect x="147.1090909090909" y="71.6555" width="2" height="28.344499999999996" id="tests-vaccines-14"></rect></g><g><rect x="143.54545454545453" y="90.3375" width="2" height="9.662499999999994" id="tests-vaccines-15"></rect></g><g><rect x="139.9818181818182" y="80.7815" width="2" height="19.218500000000006" id="tests-vaccines-16"></rect></g><g><rect x="136.41818181818184" y="63.5335" width="2" height="36.4665" id="tests-vaccines-17"></rect></g><g><rect x="132.85454545454544" y="73.35350000000001" width="2" height="26.64649999999999" id="tests-vaccines-18"></rect></g><g><rect x="129.29090909090908" y="73.42299999999999" width="2" height="26.577000000000012" id="tests-vaccines-19"></rect></g><g><rect x="125.72727272727273" y="72.945" width="2" height="27.055000000000007" id="tests-vaccines-20"></rect></g><g><rect x="122.16363636363636" y="79.583" width="2" height="20.417" id="tests-vaccines-21"></rect></g><g><rect x="118.6" y="89.4335" width="2" height="10.566500000000005" id="tests-vaccines-22"></rect></g><g><rect x="115.03636363636363" y="77.8045" width="2" height="22.195499999999996" id="tests-vaccines-23"></rect></g><g><rect x="111.47272727272728" y="58.3645" width="2" height="41.6355" id="tests-vaccines-24"></rect></g><g><rect x="107.90909090909089" y="69.838" width="2" height="30.162000000000006" id="tests-vaccines-25"></rect></g><g><rect x="104.34545454545456" y="70.1675" width="2" height="29.832499999999996" id="tests-vaccines-26"></rect></g><g><rect x="100.78181818181817" y="71.32000000000001" width="2" height="28.679999999999993" id="tests-vaccines-27"></rect></g><g><rect x="97.21818181818183" y="74.884" width="2" height="25.116" id="tests-vaccines-28"></rect></g><g><rect x="93.65454545454546" y="90.3505" width="2" height="9.649500000000003" id="tests-vaccines-29"></rect></g><g><rect x="90.09090909090911" y="74.6785" width="2" height="25.3215" id="tests-vaccines-30"></rect></g><g><rect x="86.52727272727273" y="51.7585" width="2" height="48.2415" id="tests-vaccines-31"></rect></g><g><rect x="82.96363636363637" y="63.41" width="2" height="36.59" id="tests-vaccines-32"></rect></g><g><rect x="79.4" y="61.5155" width="2" height="38.4845" id="tests-vaccines-33"></rect></g><g><rect x="75.83636363636364" y="61.904" width="2" height="38.096" id="tests-vaccines-34"></rect></g><g><rect x="72.27272727272727" y="60.7445" width="2" height="39.2555" id="tests-vaccines-35"></rect></g><g><rect x="68.70909090909092" y="84.936" width="2" height="15.063999999999993" id="tests-vaccines-36"></rect></g><g><rect x="65.14545454545454" y="65.9355" width="2" height="34.064499999999995" id="tests-vaccines-37"></rect></g><g><rect x="61.58181818181818" y="37.726499999999994" width="2" height="62.273500000000006" id="tests-vaccines-38"></rect></g><g><rect x="58.018181818181816" y="53.1" width="2" height="46.9" id="tests-vaccines-39"></rect></g><g><rect x="54.454545454545446" y="51.464" width="2" height="48.536" id="tests-vaccines-40"></rect></g><g><rect x="50.89090909090908" y="50.559" width="2" height="49.441" id="tests-vaccines-41"></rect></g><g><rect x="47.32727272727273" y="45.728500000000004" width="2" height="54.271499999999996" id="tests-vaccines-42"></rect></g><g><rect x="43.76363636363636" y="81.203" width="2" height="18.796999999999997" id="tests-vaccines-43"></rect></g><g><rect x="40.199999999999996" y="55.2775" width="2" height="44.7225" id="tests-vaccines-44"></rect></g><g><rect x="36.636363636363626" y="16.532500000000006" width="2" height="83.4675" id="tests-vaccines-45"></rect></g><g><rect x="33.072727272727285" y="34.2065" width="2" height="65.7935" id="tests-vaccines-46"></rect></g><g><rect x="29.509090909090922" y="33.801" width="2" height="66.199" id="tests-vaccines-47"></rect></g><g><rect x="25.945454545454556" y="33.138999999999996" width="2" height="66.861" id="tests-vaccines-48"></rect></g><g><rect x="22.38181818181819" y="33.579" width="2" height="66.42099999999999" id="tests-vaccines-49"></rect></g><g><rect x="18.818181818181824" y="77.714" width="2" height="22.286" id="tests-vaccines-50"></rect></g><g><rect x="15.254545454545461" y="52.337999999999994" width="2" height="47.662000000000006" id="tests-vaccines-51"></rect></g><g><rect x="11.690909090909095" y="8.821000000000002" width="2" height="91.179" id="tests-vaccines-52"></rect></g><g><rect x="8.12727272727273" y="22.892999999999997" width="2" height="77.107" id="tests-vaccines-53"></rect></g><g><rect x="4.563636363636365" y="19.523999999999997" width="2" height="80.476" id="tests-vaccines-54"></rect></g><g><rect x="1" y="18.423000000000002" width="2" height="81.577" id="tests-vaccines-55"></rect></g></g><g class="fg-line tests-vaccines" fill="none" stroke="#92c5de" stroke-width="2" stroke-linecap="round"><path d="M198,85.25928571428571L194.43636363636364,84.95335714285714L190.87272727272727,84.84657142857142L187.30909090909088,84.55657142857143L183.74545454545455,83.68814285714285L180.1818181818182,83.19714285714286L176.61818181818182,82.606L173.05454545454546,81.52135714285714L169.49090909090907,79.8755L165.92727272727274,79.41878571428572L162.36363636363637,78.69128571428573L158.8,77.32814285714285L155.23636363636365,76.34135714285715L151.6727272727273,75.59871428571428L148.1090909090909,75.14707142857142L144.54545454545453,76.27957142857143L140.9818181818182,76.15042857142858L137.41818181818184,75.72514285714286L133.85454545454544,74.98671428571429L130.29090909090908,74.4845L126.72727272727273,74.01942857142858L123.16363636363636,73.78728571428572L119.6,73.116L116.03636363636363,73.247L112.47272727272728,72.80042857142857L108.90909090909089,71.85671428571429L105.34545454545456,70.93842857142857L101.78181818181817,69.70242857142857L98.21818181818183,68.35728571428572L94.65454545454546,66.33735714285714L91.09090909090911,65.56385714285715L87.52727272727273,64.31485714285714L83.96363636363637,62.31028571428572L80.4,60.837428571428575L76.83636363636364,59.4015L73.27272727272727,57.78078571428571L69.70909090909092,55.635642857142855L66.14545454545454,55.10235714285714L62.58181818181818,53.57978571428572L59.018181818181816,50.55207142857143L55.454545454545446,47.853L51.89090909090908,45.32971428571428L48.32727272727273,42.841142857142856L44.76363636363636,41.10549999999999L41.199999999999996,40.60707142857143L37.636363636363626,40.18714285714285L34.072727272727285,39.085499999999996L30.509090909090922,37.46928571428572L26.945454545454556,35.42971428571428L23.38181818181819,33.32742857142856L19.818181818181824,32.86835714285714L16.25454545454546,32.147357142857146L12.690909090909095,30.621142857142857L9.12727272727273,27.559L5.563636363636365,24.788500000000003L2,22.026357142857144"></path></g></svg>