<svg about="DATA_PUBLISHED_DATE:2021-12-20,RENDER_DATE:2021-12-20" xmlns="http://www.w3.org/2000/svg" viewBox="0,0,200,100"><g transform="translate(0,0)"></g><g class="fg-bars cases-ep" fill="#00183f" stroke="none"><g><rect x="197" y="61.077777777777776" width="2" height="38.922222222222224" id="cases-ep-0"></rect></g><g><rect x="193.43636363636364" y="41.71111111111111" width="2" height="58.28888888888889" id="cases-ep-1"></rect></g><g><rect x="189.87272727272727" y="40.13333333333333" width="2" height="59.86666666666667" id="cases-ep-2"></rect></g><g><rect x="186.30909090909088" y="32.35555555555556" width="2" height="67.64444444444445" id="cases-ep-3"></rect></g><g><rect x="182.74545454545455" y="31.422222222222217" width="2" height="68.57777777777778" id="cases-ep-4"></rect></g><g><rect x="179.1818181818182" y="21.577777777777772" width="2" height="78.42222222222223" id="cases-ep-5"></rect></g><g><rect x="175.61818181818182" y="59.833333333333336" width="2" height="40.166666666666664" id="cases-ep-6"></rect></g><g><rect x="172.05454545454546" y="55.677777777777784" width="2" height="44.322222222222216" id="cases-ep-7"></rect></g><g><rect x="168.49090909090907" y="33.86666666666667" width="2" height="66.13333333333333" id="cases-ep-8"></rect></g><g><rect x="164.92727272727274" y="31.733333333333334" width="2" height="68.26666666666667" id="cases-ep-9"></rect></g><g><rect x="161.36363636363637" y="18.81111111111111" width="2" height="81.1888888888889" id="cases-ep-10"></rect></g><g><rect x="157.8" y="22.13333333333334" width="2" height="77.86666666666666" id="cases-ep-11"></rect></g><g><rect x="154.23636363636365" y="9.45555555555555" width="2" height="90.54444444444445" id="cases-ep-12"></rect></g><g><rect x="150.6727272727273" y="51.75555555555555" width="2" height="48.24444444444445" id="cases-ep-13"></rect></g><g><rect x="147.1090909090909" y="53.65555555555556" width="2" height="46.34444444444444" id="cases-ep-14"></rect></g><g><rect x="143.54545454545453" y="52.2888888888889" width="2" height="47.7111111111111" id="cases-ep-15"></rect></g><g><rect x="139.9818181818182" y="75.04444444444445" width="2" height="24.95555555555555" id="cases-ep-16"></rect></g><g><rect x="136.41818181818184" y="49.077777777777776" width="2" height="50.922222222222224" id="cases-ep-17"></rect></g><g><rect x="132.85454545454544" y="46.711111111111116" width="2" height="53.288888888888884" id="cases-ep-18"></rect></g><g><rect x="129.29090909090908" y="42.677777777777784" width="2" height="57.322222222222216" id="cases-ep-19"></rect></g><g><rect x="125.72727272727273" y="67.57777777777778" width="2" height="32.42222222222222" id="cases-ep-20"></rect></g><g><rect x="122.16363636363636" y="64.21111111111111" width="2" height="35.78888888888889" id="cases-ep-21"></rect></g><g><rect x="118.6" y="49.38888888888889" width="2" height="50.61111111111111" id="cases-ep-22"></rect></g><g><rect x="115.03636363636363" y="48.4" width="2" height="51.6" id="cases-ep-23"></rect></g><g><rect x="111.47272727272728" y="43.02222222222222" width="2" height="56.97777777777778" id="cases-ep-24"></rect></g><g><rect x="107.90909090909089" y="40.18888888888888" width="2" height="59.81111111111112" id="cases-ep-25"></rect></g><g><rect x="104.34545454545456" y="29.522222222222226" width="2" height="70.47777777777777" id="cases-ep-26"></rect></g><g><rect x="100.78181818181817" y="64.08888888888889" width="2" height="35.91111111111111" id="cases-ep-27"></rect></g><g><rect x="97.21818181818183" y="61.977777777777774" width="2" height="38.022222222222226" id="cases-ep-28"></rect></g><g><rect x="93.65454545454546" y="43.78888888888889" width="2" height="56.21111111111111" id="cases-ep-29"></rect></g><g><rect x="90.09090909090911" y="52.2888888888889" width="2" height="47.7111111111111" id="cases-ep-30"></rect></g><g><rect x="86.52727272727273" y="38.088888888888896" width="2" height="61.911111111111104" id="cases-ep-31"></rect></g><g><rect x="82.96363636363637" y="34.82222222222222" width="2" height="65.17777777777778" id="cases-ep-32"></rect></g><g><rect x="79.4" y="26.633333333333333" width="2" height="73.36666666666667" id="cases-ep-33"></rect></g><g><rect x="75.83636363636364" y="61.68888888888888" width="2" height="38.31111111111112" id="cases-ep-34"></rect></g><g><rect x="72.27272727272727" y="59.44444444444444" width="2" height="40.55555555555556" id="cases-ep-35"></rect></g><g><rect x="68.70909090909092" y="38.84444444444445" width="2" height="61.15555555555555" id="cases-ep-36"></rect></g><g><rect x="65.14545454545454" y="33.477777777777774" width="2" height="66.52222222222223" id="cases-ep-37"></rect></g><g><rect x="61.58181818181818" y="29.188888888888886" width="2" height="70.81111111111112" id="cases-ep-38"></rect></g><g><rect x="58.018181818181816" y="28.333333333333332" width="2" height="71.66666666666667" id="cases-ep-39"></rect></g><g><rect x="54.454545454545446" y="18.422222222222217" width="2" height="81.57777777777778" id="cases-ep-40"></rect></g><g><rect x="50.89090909090908" y="61.43333333333334" width="2" height="38.56666666666666" id="cases-ep-41"></rect></g><g><rect x="47.32727272727273" y="56.45555555555555" width="2" height="43.54444444444445" id="cases-ep-42"></rect></g><g><rect x="43.76363636363636" y="37.66666666666667" width="2" height="62.33333333333333" id="cases-ep-43"></rect></g><g><rect x="40.199999999999996" y="32.9" width="2" height="67.1" id="cases-ep-44"></rect></g><g><rect x="36.636363636363626" y="27.77777777777778" width="2" height="72.22222222222223" id="cases-ep-45"></rect></g><g><rect x="33.072727272727285" y="25.13333333333333" width="2" height="74.86666666666667" id="cases-ep-46"></rect></g><g><rect x="29.509090909090922" y="20.222222222222218" width="2" height="79.77777777777779" id="cases-ep-47"></rect></g><g><rect x="25.945454545454556" y="60.544444444444444" width="2" height="39.455555555555556" id="cases-ep-48"></rect></g><g><rect x="22.38181818181819" y="55.25555555555556" width="2" height="44.74444444444444" id="cases-ep-49"></rect></g><g><rect x="18.818181818181824" y="33.96666666666667" width="2" height="66.03333333333333" id="cases-ep-50"></rect></g><g><rect x="15.254545454545461" y="34.699999999999996" width="2" height="65.30000000000001" id="cases-ep-51"></rect></g><g><rect x="11.690909090909095" y="31.077777777777783" width="2" height="68.92222222222222" id="cases-ep-52"></rect></g><g><rect x="8.12727272727273" y="29.566666666666663" width="2" height="70.43333333333334" id="cases-ep-53"></rect></g><g><rect x="4.563636363636365" y="22.088888888888892" width="2" height="77.91111111111111" id="cases-ep-54"></rect></g><g><rect x="1" y="60.555555555555564" width="2" height="39.444444444444436" id="cases-ep-55"></rect></g></g><g class="fg-line cases-ep" fill="none" stroke="#92c5de" stroke-width="2" stroke-linecap="round"><path d="M198,41.15873015873016L194.43636363636364,40.38730158730159L190.87272727272727,39.26666666666667L187.30909090909088,38.06666666666667L183.74545454545455,36.13174603174604L180.1818181818182,34.804761904761904L176.61818181818182,33.073015873015876L173.05454545454546,31.919047619047614L169.49090909090907,31.63015873015873L165.92727272727274,34.26190476190476L162.36363636363637,40.44920634920635L158.8,44.77301587301588L155.23636363636365,48.284126984126985L151.6727272727273,53.030158730158725L148.1090909090909,55.29047619047619L144.54545454545453,56.798412698412704L140.9818181818182,56.38412698412698L137.41818181818184,52.577777777777776L133.85454545454544,51.71269841269841L130.29090909090908,50.78095238095239L126.72727272727273,48.9015873015873L123.16363636363636,48.403174603174605L119.6,48.08412698412698L116.03636363636363,47.284126984126985L112.47272727272728,47.839682539682535L108.90909090909089,47.13492063492063L105.34545454545456,46.36825396825397L101.78181818181817,45.95555555555556L98.21818181818183,45.61269841269841L94.65454545454546,45.25079365079365L91.09090909090911,44.544444444444444L87.52727272727273,41.85714285714286L83.96363636363637,40.58571428571428L80.4,39.65873015873016L76.83636363636364,38.48571428571428L73.27272727272727,38.44920634920636L69.70909090909092,38.022222222222226L66.14545454545454,37.85396825396826L62.58181818181818,37.77142857142858L59.018181818181816,37.56984126984128L55.454545454545446,37.11269841269841L51.89090909090908,37.369841269841274L48.32727272727273,37.24285714285715L44.76363636363636,37.07142857142858L41.199999999999996,36.542857142857144L37.636363636363626,36.8L34.072727272727285,37.27142857142858L30.509090909090922,37.904761904761905L26.945454545454556,38.17142857142858L23.38181818181819,38.17301587301587L19.818181818181824,38.82222222222222L16.25454545454546,39.92380952380952L12.690909090909095,40.91269841269841L9.12727272727273,41.88253968253969L5.563636363636365,42.769841269841265L2,44.74126984126984"></path></g></svg>