<svg meta="{&quot;DATA_PUBLISHED_DATE&quot;:&quot;2022-03-28&quot;,&quot;RENDER_DATE&quot;:&quot;2022-03-28&quot;,&quot;FIRST_DATE&quot;:&quot;2022-01-09&quot;,&quot;LAST_DATE&quot;:&quot;2022-03-05&quot;}" xmlns="http://www.w3.org/2000/svg" viewBox="0,0,200,100"><g transform="translate(0,0)"></g><g class="fg-bars death-date" fill="#00183f" stroke="none"><g><rect x="197" y="79.61538461538463" width="2" height="20.384615384615373" id="death-date-0"></rect></g><g><rect x="193.43636363636364" y="84.23076923076923" width="2" height="15.769230769230774" id="death-date-1"></rect></g><g><rect x="189.87272727272727" y="78.46153846153847" width="2" height="21.538461538461533" id="death-date-2"></rect></g><g><rect x="186.30909090909088" y="82.3076923076923" width="2" height="17.692307692307693" id="death-date-3"></rect></g><g><rect x="182.74545454545455" y="77.3076923076923" width="2" height="22.692307692307693" id="death-date-4"></rect></g><g><rect x="179.1818181818182" y="73.46153846153847" width="2" height="26.538461538461533" id="death-date-5"></rect></g><g><rect x="175.61818181818182" y="79.23076923076923" width="2" height="20.769230769230774" id="death-date-6"></rect></g><g><rect x="172.05454545454546" y="72.69230769230771" width="2" height="27.307692307692292" id="death-date-7"></rect></g><g><rect x="168.49090909090907" y="73.84615384615385" width="2" height="26.153846153846146" id="death-date-8"></rect></g><g><rect x="164.92727272727274" y="74.23076923076923" width="2" height="25.769230769230774" id="death-date-9"></rect></g><g><rect x="161.36363636363637" y="63.84615384615384" width="2" height="36.15384615384616" id="death-date-10"></rect></g><g><rect x="157.8" y="63.46153846153846" width="2" height="36.53846153846154" id="death-date-11"></rect></g><g><rect x="154.23636363636365" y="60.769230769230774" width="2" height="39.230769230769226" id="death-date-12"></rect></g><g><rect x="150.6727272727273" y="55.38461538461539" width="2" height="44.61538461538461" id="death-date-13"></rect></g><g><rect x="147.1090909090909" y="63.84615384615384" width="2" height="36.15384615384616" id="death-date-14"></rect></g><g><rect x="143.54545454545453" y="56.53846153846154" width="2" height="43.46153846153846" id="death-date-15"></rect></g><g><rect x="139.9818181818182" y="48.46153846153847" width="2" height="51.53846153846153" id="death-date-16"></rect></g><g><rect x="136.41818181818184" y="50.38461538461539" width="2" height="49.61538461538461" id="death-date-17"></rect></g><g><rect x="132.85454545454544" y="54.23076923076924" width="2" height="45.76923076923076" id="death-date-18"></rect></g><g><rect x="129.29090909090908" y="44.230769230769226" width="2" height="55.769230769230774" id="death-date-19"></rect></g><g><rect x="125.72727272727273" y="43.07692307692308" width="2" height="56.92307692307692" id="death-date-20"></rect></g><g><rect x="122.16363636363636" y="41.53846153846153" width="2" height="58.46153846153847" id="death-date-21"></rect></g><g><rect x="118.6" y="31.92307692307692" width="2" height="68.07692307692308" id="death-date-22"></rect></g><g><rect x="115.03636363636363" y="36.92307692307693" width="2" height="63.07692307692307" id="death-date-23"></rect></g><g><rect x="111.47272727272728" y="23.076923076923073" width="2" height="76.92307692307693" id="death-date-24"></rect></g><g><rect x="107.90909090909089" y="18.07692307692308" width="2" height="81.92307692307692" id="death-date-25"></rect></g><g><rect x="104.34545454545456" y="29.61538461538461" width="2" height="70.38461538461539" id="death-date-26"></rect></g><g><rect x="100.78181818181817" y="32.30769230769231" width="2" height="67.6923076923077" id="death-date-27"></rect></g><g><rect x="97.21818181818183" y="20.38461538461539" width="2" height="79.61538461538461" id="death-date-28"></rect></g><g><rect x="93.65454545454546" y="8.076923076923082" width="2" height="91.92307692307692" id="death-date-29"></rect></g><g><rect x="90.09090909090911" y="19.23076923076923" width="2" height="80.76923076923077" id="death-date-30"></rect></g><g><rect x="86.52727272727273" y="10.769230769230765" width="2" height="89.23076923076924" id="death-date-31"></rect></g><g><rect x="82.96363636363637" y="3.076923076923077" width="2" height="96.92307692307692" id="death-date-32"></rect></g><g><rect x="79.4" y="11.923076923076925" width="2" height="88.07692307692308" id="death-date-33"></rect></g><g><rect x="75.83636363636364" y="4.230769230769226" width="2" height="95.76923076923077" id="death-date-34"></rect></g><g><rect x="72.27272727272727" y="4.61538461538461" width="2" height="95.38461538461539" id="death-date-35"></rect></g><g><rect x="68.70909090909092" y="15.000000000000002" width="2" height="85" id="death-date-36"></rect></g><g><rect x="65.14545454545454" y="9.999999999999998" width="2" height="90" id="death-date-37"></rect></g><g><rect x="61.58181818181818" y="16.92307692307692" width="2" height="83.07692307692308" id="death-date-38"></rect></g><g><rect x="58.018181818181816" y="12.692307692307692" width="2" height="87.3076923076923" id="death-date-39"></rect></g><g><rect x="54.454545454545446" y="27.692307692307693" width="2" height="72.3076923076923" id="death-date-40"></rect></g><g><rect x="50.89090909090908" y="10.384615384615381" width="2" height="89.61538461538461" id="death-date-41"></rect></g><g><rect x="47.32727272727273" y="16.92307692307692" width="2" height="83.07692307692308" id="death-date-42"></rect></g><g><rect x="43.76363636363636" y="10.769230769230765" width="2" height="89.23076923076924" id="death-date-43"></rect></g><g><rect x="40.199999999999996" y="16.538461538461537" width="2" height="83.46153846153847" id="death-date-44"></rect></g><g><rect x="36.636363636363626" y="11.153846153846159" width="2" height="88.84615384615384" id="death-date-45"></rect></g><g><rect x="33.072727272727285" y="21.153846153846157" width="2" height="78.84615384615384" id="death-date-46"></rect></g><g><rect x="29.509090909090922" y="29.230769230769226" width="2" height="70.76923076923077" id="death-date-47"></rect></g><g><rect x="25.945454545454556" y="27.30769230769231" width="2" height="72.6923076923077" id="death-date-48"></rect></g><g><rect x="22.38181818181819" y="27.30769230769231" width="2" height="72.6923076923077" id="death-date-49"></rect></g><g><rect x="18.818181818181824" y="37.69230769230769" width="2" height="62.30769230769231" id="death-date-50"></rect></g><g><rect x="15.254545454545461" y="35.76923076923077" width="2" height="64.23076923076923" id="death-date-51"></rect></g><g><rect x="11.690909090909095" y="31.538461538461537" width="2" height="68.46153846153847" id="death-date-52"></rect></g><g><rect x="8.12727272727273" y="37.30769230769231" width="2" height="62.69230769230769" id="death-date-53"></rect></g><g><rect x="4.563636363636365" y="45.769230769230774" width="2" height="54.230769230769226" id="death-date-54"></rect></g><g><rect x="1" y="56.15384615384615" width="2" height="43.84615384615385" id="death-date-55"></rect></g></g><g class="fg-line death-date" fill="none" stroke="#92c5de" stroke-width="2" stroke-linecap="round"><path d="M198,79.23076923076923L194.43636363636364,78.24175824175825L190.87272727272727,76.75824175824175L187.30909090909088,76.15384615384615L183.74545454545455,73.51648351648352L180.1818181818182,71.53846153846153L176.61818181818182,69.72527472527472L173.05454545454546,66.31868131868133L169.49090909090907,65.05494505494505L165.92727272727274,62.582417582417584L162.36363636363637,58.90109890109889L158.8,56.97802197802198L155.23636363636365,55.659340659340664L151.6727272727273,53.2967032967033L148.1090909090909,51.53846153846153L144.54545454545453,48.35164835164836L140.9818181818182,44.83516483516484L137.41818181818184,43.18681318681319L133.85454545454544,39.28571428571428L130.29090909090908,34.120879120879124L126.72727272727273,32.03296703296703L123.16363636363636,30.494505494505486L119.6,27.472527472527464L116.03636363636363,24.06593406593407L112.47272727272728,21.53846153846154L108.90909090909089,19.780219780219777L105.34545454545456,17.637362637362642L101.78181818181817,15.109890109890111L98.21818181818183,11.098901098901104L94.65454545454546,8.846153846153848L91.09090909090911,9.835164835164845L87.52727272727273,8.51648351648352L83.96363636363637,9.395604395604396L80.4,10.769230769230765L76.83636363636364,13.02197802197802L73.27272727272727,13.901098901098896L69.70909090909092,15.659340659340659L66.14545454545454,15.054945054945057L62.58181818181818,15.989010989011L59.018181818181816,15.164835164835155L55.454545454545446,16.373626373626383L51.89090909090908,16.59340659340659L48.32727272727273,19.01098901098901L44.76363636363636,20.49450549450549L41.199999999999996,24.340659340659343L37.636363636363626,27.08791208791208L34.072727272727285,30.000000000000004L30.509090909090922,32.30769230769231L26.945454545454556,34.67032967032967L23.38181818181819,38.791208791208796L19.818181818181824,41.59340659340659L16.25454545454546,44.12087912087912L12.690909090909095,46.53846153846154L9.12727272727273,49.50549450549451L5.563636363636365,52.96703296703296L2,54.8901098901099"></path></g></svg>