<svg meta="{&quot;DATA_PUBLISHED_DATE&quot;:&quot;2022-03-03&quot;,&quot;RENDER_DATE&quot;:&quot;2022-03-03&quot;,&quot;FIRST_DATE&quot;:&quot;2021-12-29&quot;,&quot;LAST_DATE&quot;:&quot;2022-02-22&quot;}" xmlns="http://www.w3.org/2000/svg" viewBox="0,0,200,100"><g transform="translate(0,0)"></g><g class="fg-bars cases-ep" fill="#00183f" stroke="none"><g><rect x="197" y="95.755" width="2" height="4.2450000000000045" id="cases-ep-0"></rect></g><g><rect x="193.43636363636364" y="96.90062499999999" width="2" height="3.099375000000009" id="cases-ep-1"></rect></g><g><rect x="189.87272727272727" y="97.89125" width="2" height="2.1087500000000006" id="cases-ep-2"></rect></g><g><rect x="186.30909090909088" y="97.46875" width="2" height="2.53125" id="cases-ep-3"></rect></g><g><rect x="182.74545454545455" y="95.69875" width="2" height="4.301249999999996" id="cases-ep-4"></rect></g><g><rect x="179.1818181818182" y="94.949375" width="2" height="5.050624999999997" id="cases-ep-5"></rect></g><g><rect x="175.61818181818182" y="94.075625" width="2" height="5.924374999999998" id="cases-ep-6"></rect></g><g><rect x="172.05454545454546" y="93.186875" width="2" height="6.813124999999999" id="cases-ep-7"></rect></g><g><rect x="168.49090909090907" y="91.941875" width="2" height="8.058125000000004" id="cases-ep-8"></rect></g><g><rect x="164.92727272727274" y="96.645625" width="2" height="3.3543750000000045" id="cases-ep-9"></rect></g><g><rect x="161.36363636363637" y="95.59062499999999" width="2" height="4.409375000000011" id="cases-ep-10"></rect></g><g><rect x="157.8" y="91.43062499999999" width="2" height="8.569375000000008" id="cases-ep-11"></rect></g><g><rect x="154.23636363636365" y="91.215" width="2" height="8.784999999999997" id="cases-ep-12"></rect></g><g><rect x="150.6727272727273" y="89.89375" width="2" height="10.106250000000003" id="cases-ep-13"></rect></g><g><rect x="147.1090909090909" y="88.846875" width="2" height="11.153125000000003" id="cases-ep-14"></rect></g><g><rect x="143.54545454545453" y="86.0425" width="2" height="13.957499999999996" id="cases-ep-15"></rect></g><g><rect x="139.9818181818182" y="94.049375" width="2" height="5.950625000000002" id="cases-ep-16"></rect></g><g><rect x="136.41818181818184" y="92.71312499999999" width="2" height="7.286875000000009" id="cases-ep-17"></rect></g><g><rect x="132.85454545454544" y="86.389375" width="2" height="13.610624999999999" id="cases-ep-18"></rect></g><g><rect x="129.29090909090908" y="85.01375" width="2" height="14.986249999999998" id="cases-ep-19"></rect></g><g><rect x="125.72727272727273" y="82.850625" width="2" height="17.149375000000006" id="cases-ep-20"></rect></g><g><rect x="122.16363636363636" y="79.62125" width="2" height="20.378749999999997" id="cases-ep-21"></rect></g><g><rect x="118.6" y="75.829375" width="2" height="24.170625" id="cases-ep-22"></rect></g><g><rect x="115.03636363636363" y="90.6675" width="2" height="9.332499999999996" id="cases-ep-23"></rect></g><g><rect x="111.47272727272728" y="87.20125" width="2" height="12.798749999999998" id="cases-ep-24"></rect></g><g><rect x="107.90909090909089" y="75.97687499999999" width="2" height="24.023125000000007" id="cases-ep-25"></rect></g><g><rect x="104.34545454545456" y="72.598125" width="2" height="27.401875000000004" id="cases-ep-26"></rect></g><g><rect x="100.78181818181817" y="67.6225" width="2" height="32.3775" id="cases-ep-27"></rect></g><g><rect x="97.21818181818183" y="62.57125" width="2" height="37.42875" id="cases-ep-28"></rect></g><g><rect x="93.65454545454546" y="56.254375" width="2" height="43.745625" id="cases-ep-29"></rect></g><g><rect x="90.09090909090911" y="82.55250000000001" width="2" height="17.44749999999999" id="cases-ep-30"></rect></g><g><rect x="86.52727272727273" y="75.33062500000001" width="2" height="24.669374999999988" id="cases-ep-31"></rect></g><g><rect x="82.96363636363637" y="51.85375" width="2" height="48.14625" id="cases-ep-32"></rect></g><g><rect x="79.4" y="43.980624999999996" width="2" height="56.019375000000004" id="cases-ep-33"></rect></g><g><rect x="75.83636363636364" y="37.160000000000004" width="2" height="62.839999999999996" id="cases-ep-34"></rect></g><g><rect x="72.27272727272727" y="25.353749999999998" width="2" height="74.64625000000001" id="cases-ep-35"></rect></g><g><rect x="68.70909090909092" y="49.600625" width="2" height="50.399375" id="cases-ep-36"></rect></g><g><rect x="65.14545454545454" y="75.535" width="2" height="24.465000000000003" id="cases-ep-37"></rect></g><g><rect x="61.58181818181818" y="64.13375" width="2" height="35.866249999999994" id="cases-ep-38"></rect></g><g><rect x="58.018181818181816" y="35.652499999999996" width="2" height="64.3475" id="cases-ep-39"></rect></g><g><rect x="54.454545454545446" y="29.466875" width="2" height="70.533125" id="cases-ep-40"></rect></g><g><rect x="50.89090909090908" y="21.994374999999998" width="2" height="78.00562500000001" id="cases-ep-41"></rect></g><g><rect x="47.32727272727273" y="17.103125" width="2" height="82.896875" id="cases-ep-42"></rect></g><g><rect x="43.76363636363636" y="13.592499999999996" width="2" height="86.4075" id="cases-ep-43"></rect></g><g><rect x="40.199999999999996" y="66.04375" width="2" height="33.95625" id="cases-ep-44"></rect></g><g><rect x="36.636363636363626" y="53.074375" width="2" height="46.925625" id="cases-ep-45"></rect></g><g><rect x="33.072727272727285" y="17.205000000000005" width="2" height="82.79499999999999" id="cases-ep-46"></rect></g><g><rect x="29.509090909090922" y="12.188125000000005" width="2" height="87.811875" id="cases-ep-47"></rect></g><g><rect x="25.945454545454556" y="4.859374999999999" width="2" height="95.140625" id="cases-ep-48"></rect></g><g><rect x="22.38181818181819" y="3.7406249999999974" width="2" height="96.259375" id="cases-ep-49"></rect></g><g><rect x="18.818181818181824" y="14.73875" width="2" height="85.26125" id="cases-ep-50"></rect></g><g><rect x="15.254545454545461" y="65.5975" width="2" height="34.4025" id="cases-ep-51"></rect></g><g><rect x="11.690909090909095" y="80.29375" width="2" height="19.706249999999997" id="cases-ep-52"></rect></g><g><rect x="8.12727272727273" y="66.531875" width="2" height="33.468125" id="cases-ep-53"></rect></g><g><rect x="4.563636363636365" y="47.141875" width="2" height="52.858125" id="cases-ep-54"></rect></g><g><rect x="1" y="45.40062499999999" width="2" height="54.59937500000001" id="cases-ep-55"></rect></g></g><g class="fg-line cases-ep" fill="none" stroke="#92c5de" stroke-width="2" stroke-linecap="round"><path d="M198,96.10562499999999L194.43636363636364,95.73875000000001L190.87272727272727,95.03035714285714L187.30909090909088,94.85241071428572L183.74545454545455,94.58410714285715L180.1818181818182,93.974375L176.61818181818182,93.44089285714286L173.05454545454546,92.84348214285714L169.49090909090907,92.22348214285714L165.92727272727274,91.38071428571428L162.36363636363637,91.00982142857143L158.8,90.59875L155.23636363636365,89.87857142857143L151.6727272727273,88.99267857142857L148.1090909090909,87.98651785714286L144.54545454545453,86.66857142857143L140.9818181818182,85.20955357142856L137.41818181818184,84.72642857142857L133.85454545454544,83.93901785714286L130.29090909090908,82.45151785714286L126.72727272727273,80.67785714285715L123.16363636363636,78.50241071428572L119.6,76.06669642857142L116.03636363636363,73.27026785714285L112.47272727272728,72.11098214285714L108.90909090909089,70.41517857142857L105.34545454545456,66.96901785714286L101.78181818181817,62.88080357142858L98.21818181818183,58.529017857142854L94.65454545454546,53.212232142857154L91.09090909090911,52.26169642857143L87.52727272727273,51.25919642857143L83.96363636363637,49.65964285714285L80.4,47.34517857142857L76.83636363636364,45.27178571428572L73.27272727272727,43.10526785714285L69.70909090909092,41.926607142857144L66.14545454545454,36.78258928571429L62.58181818181818,35.42669642857143L59.018181818181816,33.84678571428572L55.454545454545446,31.211428571428566L51.89090909090908,28.743035714285714L48.32727272727273,26.29517857142857L44.76363636363636,24.386249999999997L41.199999999999996,24.550000000000004L37.636363636363626,24.48625L34.072727272727285,28.37473214285715L30.509090909090922,35.42142857142857L26.945454545454556,40.414821428571436L23.38181818181819,46.20642857142857L19.818181818181824,52.14419642857143L16.25454545454546,57.66607142857143L12.690909090909095,59.411875L9.12727272727273,60.92901785714287L5.563636363636365,63.753125L2,68.433125"></path></g></svg>