<svg meta="{&quot;DATA_PUBLISHED_DATE&quot;:&quot;2023-03-16&quot;,&quot;RENDER_DATE&quot;:&quot;2023-03-16&quot;,&quot;FIRST_DATE&quot;:&quot;2023-01-12&quot;,&quot;LAST_DATE&quot;:&quot;2023-03-08&quot;}" xmlns="http://www.w3.org/2000/svg" viewBox="0,0,200,100"><g transform="translate(0,0)"></g><g class="fg-bars tests-vaccines" fill="#00183f" stroke="none"><g><rect x="197" y="70.98285714285714" width="2" height="29.017142857142858" id="tests-vaccines-0"></rect></g><g><rect x="193.43636363636364" y="71.3142857142857" width="2" height="28.685714285714297" id="tests-vaccines-1"></rect></g><g><rect x="189.87272727272727" y="70.6" width="2" height="29.400000000000006" id="tests-vaccines-2"></rect></g><g><rect x="186.30909090909088" y="92.69142857142857" width="2" height="7.308571428571426" id="tests-vaccines-3"></rect></g><g><rect x="182.74545454545455" y="85.13428571428572" width="2" height="14.865714285714276" id="tests-vaccines-4"></rect></g><g><rect x="179.1818181818182" y="61.62857142857143" width="2" height="38.37142857142857" id="tests-vaccines-5"></rect></g><g><rect x="175.61818181818182" y="68.86285714285714" width="2" height="31.137142857142862" id="tests-vaccines-6"></rect></g><g><rect x="172.05454545454546" y="69.14857142857143" width="2" height="30.85142857142857" id="tests-vaccines-7"></rect></g><g><rect x="168.49090909090907" y="67.30857142857143" width="2" height="32.691428571428574" id="tests-vaccines-8"></rect></g><g><rect x="164.92727272727274" y="68.44" width="2" height="31.560000000000002" id="tests-vaccines-9"></rect></g><g><rect x="161.36363636363637" y="92.59142857142857" width="2" height="7.408571428571435" id="tests-vaccines-10"></rect></g><g><rect x="157.8" y="84.47142857142858" width="2" height="15.528571428571425" id="tests-vaccines-11"></rect></g><g><rect x="154.23636363636365" y="62.92285714285715" width="2" height="37.07714285714285" id="tests-vaccines-12"></rect></g><g><rect x="150.6727272727273" y="65.81714285714287" width="2" height="34.18285714285713" id="tests-vaccines-13"></rect></g><g><rect x="147.1090909090909" y="67.48571428571428" width="2" height="32.51428571428572" id="tests-vaccines-14"></rect></g><g><rect x="143.54545454545453" y="66.56285714285714" width="2" height="33.43714285714286" id="tests-vaccines-15"></rect></g><g><rect x="139.9818181818182" y="78.9" width="2" height="21.099999999999994" id="tests-vaccines-16"></rect></g><g><rect x="136.41818181818184" y="92.22" width="2" height="7.780000000000001" id="tests-vaccines-17"></rect></g><g><rect x="132.85454545454544" y="83.86" width="2" height="16.14" id="tests-vaccines-18"></rect></g><g><rect x="129.29090909090908" y="56.96" width="2" height="43.04" id="tests-vaccines-19"></rect></g><g><rect x="125.72727272727273" y="65.34571428571428" width="2" height="34.65428571428572" id="tests-vaccines-20"></rect></g><g><rect x="122.16363636363636" y="64.64285714285714" width="2" height="35.35714285714286" id="tests-vaccines-21"></rect></g><g><rect x="118.6" y="69.51714285714286" width="2" height="30.482857142857142" id="tests-vaccines-22"></rect></g><g><rect x="115.03636363636363" y="65.40571428571428" width="2" height="34.59428571428572" id="tests-vaccines-23"></rect></g><g><rect x="111.47272727272728" y="92.31714285714285" width="2" height="7.682857142857145" id="tests-vaccines-24"></rect></g><g><rect x="107.90909090909089" y="79.38000000000001" width="2" height="20.61999999999999" id="tests-vaccines-25"></rect></g><g><rect x="104.34545454545456" y="52.59142857142858" width="2" height="47.40857142857142" id="tests-vaccines-26"></rect></g><g><rect x="100.78181818181817" y="58.83714285714285" width="2" height="41.16285714285715" id="tests-vaccines-27"></rect></g><g><rect x="97.21818181818183" y="59.44571428571428" width="2" height="40.55428571428572" id="tests-vaccines-28"></rect></g><g><rect x="93.65454545454546" y="60.408571428571435" width="2" height="39.591428571428565" id="tests-vaccines-29"></rect></g><g><rect x="90.09090909090911" y="57.68" width="2" height="42.32" id="tests-vaccines-30"></rect></g><g><rect x="86.52727272727273" y="96.32000000000001" width="2" height="3.6799999999999926" id="tests-vaccines-31"></rect></g><g><rect x="82.96363636363637" y="88.28857142857143" width="2" height="11.71142857142857" id="tests-vaccines-32"></rect></g><g><rect x="79.4" y="44.20857142857143" width="2" height="55.79142857142857" id="tests-vaccines-33"></rect></g><g><rect x="75.83636363636364" y="54.86" width="2" height="45.14" id="tests-vaccines-34"></rect></g><g><rect x="72.27272727272727" y="53.17142857142857" width="2" height="46.82857142857143" id="tests-vaccines-35"></rect></g><g><rect x="68.70909090909092" y="52.54571428571428" width="2" height="47.45428571428572" id="tests-vaccines-36"></rect></g><g><rect x="65.14545454545454" y="54.32571428571429" width="2" height="45.67428571428571" id="tests-vaccines-37"></rect></g><g><rect x="61.58181818181818" y="88.09142857142858" width="2" height="11.90857142857142" id="tests-vaccines-38"></rect></g><g><rect x="58.018181818181816" y="75.44285714285715" width="2" height="24.55714285714285" id="tests-vaccines-39"></rect></g><g><rect x="54.454545454545446" y="39.26571428571428" width="2" height="60.73428571428572" id="tests-vaccines-40"></rect></g><g><rect x="50.89090909090908" y="49.18" width="2" height="50.82" id="tests-vaccines-41"></rect></g><g><rect x="47.32727272727273" y="45.605714285714285" width="2" height="54.394285714285715" id="tests-vaccines-42"></rect></g><g><rect x="43.76363636363636" y="48.08285714285714" width="2" height="51.91714285714286" id="tests-vaccines-43"></rect></g><g><rect x="40.199999999999996" y="48.34857142857143" width="2" height="51.65142857142857" id="tests-vaccines-44"></rect></g><g><rect x="36.636363636363626" y="87.62571428571428" width="2" height="12.374285714285719" id="tests-vaccines-45"></rect></g><g><rect x="33.072727272727285" y="71.97142857142858" width="2" height="28.028571428571425" id="tests-vaccines-46"></rect></g><g><rect x="29.509090909090922" y="27.471428571428568" width="2" height="72.52857142857144" id="tests-vaccines-47"></rect></g><g><rect x="25.945454545454556" y="37.43428571428571" width="2" height="62.56571428571429" id="tests-vaccines-48"></rect></g><g><rect x="22.38181818181819" y="35.760000000000005" width="2" height="64.24" id="tests-vaccines-49"></rect></g><g><rect x="18.818181818181824" y="31.985714285714284" width="2" height="68.01428571428572" id="tests-vaccines-50"></rect></g><g><rect x="15.254545454545461" y="64.82285714285713" width="2" height="35.17714285714287" id="tests-vaccines-51"></rect></g><g><rect x="11.690909090909095" y="78.9" width="2" height="21.099999999999994" id="tests-vaccines-52"></rect></g><g><rect x="8.12727272727273" y="60.05428571428572" width="2" height="39.94571428571428" id="tests-vaccines-53"></rect></g><g><rect x="4.563636363636365" y="0.388571428571427" width="2" height="99.61142857142858" id="tests-vaccines-54"></rect></g><g><rect x="1" y="17.56" width="2" height="82.44" id="tests-vaccines-55"></rect></g></g><g class="fg-line tests-vaccines" fill="none" stroke="#92c5de" stroke-width="2" stroke-linecap="round"><path d="M198,74.45918367346938L194.43636363636364,74.19714285714285L190.87272727272727,73.62489795918367L187.30909090909088,73.31632653061224L183.74545454545455,73.30204081632652L180.1818181818182,73.20734693877552L176.61818181818182,73.39224489795917L173.05454545454546,72.95714285714286L169.49090909090907,72.7195918367347L165.92727272727274,72.61306122448981L162.36363636363637,74.10734693877552L158.8,74.05428571428571L155.23636363636365,73.96693877551019L151.6727272727273,73.11510204081632L148.1090909090909,73.04775510204082L144.54545454545453,72.64163265306122L140.9818181818182,73.06367346938775L137.41818181818184,71.13591836734695L133.85454545454544,71.14979591836735L130.29090909090908,70.50979591836735L126.72727272727273,69.88571428571429L123.16363636363636,68.95591836734694L119.6,68.2134693877551L116.03636363636363,66.91224489795918L112.47272727272728,65.80857142857143L108.90909090909089,66.3804081632653L105.34545454545456,67.65306122448979L101.78181818181817,66.45551020408162L98.21818181818183,65.88734693877552L94.65454545454546,64.99102040816327L91.09090909090911,63.86775510204081L87.52727272727273,63.388571428571424L83.96363636363637,62.2130612244898L80.4,60.37795918367347L76.83636363636364,59.67183673469387L73.27272727272727,58.8604081632653L69.70909090909092,57.77959183673469L66.14545454545454,57.142040816326535L62.58181818181818,56.288163265306125L59.018181818181816,56.22163265306123L55.454545454545446,55.72571428571429L51.89090909090908,54.04081632653062L48.32727272727273,52.362857142857145L44.76363636363636,50.95632653061224L41.199999999999996,48.656734693877546L37.636363636363626,51.01020408163265L34.072727272727285,49.76367346938776L30.509090909090922,48.06122448979592L26.945454545454556,44.192244897959185L23.38181818181819,41.35306122448979L19.818181818181824,38.90244897959183L16.25454545454546,38.08734693877551L12.690909090909095,31.16653061224489L9.12727272727273,30.382857142857144L5.563636363636365,27.970612244897964L2,23.652653061224495"></path></g></svg>