<svg meta="{&quot;DATA_PUBLISHED_DATE&quot;:&quot;2023-03-09&quot;,&quot;RENDER_DATE&quot;:&quot;2023-03-09&quot;,&quot;FIRST_DATE&quot;:&quot;2022-12-20&quot;,&quot;LAST_DATE&quot;:&quot;2023-02-13&quot;}" xmlns="http://www.w3.org/2000/svg" viewBox="0,0,200,100"><g transform="translate(0,0)"></g><g class="fg-bars death-date" fill="#00183f" stroke="none"><g><rect x="197" y="78.46153846153847" width="2" height="21.538461538461533" id="death-date-0"></rect></g><g><rect x="193.43636363636364" y="80" width="2" height="20" id="death-date-1"></rect></g><g><rect x="189.87272727272727" y="76.92307692307692" width="2" height="23.07692307692308" id="death-date-2"></rect></g><g><rect x="186.30909090909088" y="69.23076923076923" width="2" height="30.769230769230774" id="death-date-3"></rect></g><g><rect x="182.74545454545455" y="70.76923076923076" width="2" height="29.23076923076924" id="death-date-4"></rect></g><g><rect x="179.1818181818182" y="72.3076923076923" width="2" height="27.692307692307693" id="death-date-5"></rect></g><g><rect x="175.61818181818182" y="72.3076923076923" width="2" height="27.692307692307693" id="death-date-6"></rect></g><g><rect x="172.05454545454546" y="60" width="2" height="40" id="death-date-7"></rect></g><g><rect x="168.49090909090907" y="66.15384615384615" width="2" height="33.846153846153854" id="death-date-8"></rect></g><g><rect x="164.92727272727274" y="67.6923076923077" width="2" height="32.30769230769231" id="death-date-9"></rect></g><g><rect x="161.36363636363637" y="75.38461538461539" width="2" height="24.615384615384613" id="death-date-10"></rect></g><g><rect x="157.8" y="69.23076923076923" width="2" height="30.769230769230774" id="death-date-11"></rect></g><g><rect x="154.23636363636365" y="72.3076923076923" width="2" height="27.692307692307693" id="death-date-12"></rect></g><g><rect x="150.6727272727273" y="49.23076923076923" width="2" height="50.76923076923077" id="death-date-13"></rect></g><g><rect x="147.1090909090909" y="67.6923076923077" width="2" height="32.30769230769231" id="death-date-14"></rect></g><g><rect x="143.54545454545453" y="67.6923076923077" width="2" height="32.30769230769231" id="death-date-15"></rect></g><g><rect x="139.9818181818182" y="60" width="2" height="40" id="death-date-16"></rect></g><g><rect x="136.41818181818184" y="60" width="2" height="40" id="death-date-17"></rect></g><g><rect x="132.85454545454544" y="46.15384615384615" width="2" height="53.84615384615385" id="death-date-18"></rect></g><g><rect x="129.29090909090908" y="55.38461538461539" width="2" height="44.61538461538461" id="death-date-19"></rect></g><g><rect x="125.72727272727273" y="41.53846153846153" width="2" height="58.46153846153847" id="death-date-20"></rect></g><g><rect x="122.16363636363636" y="50.76923076923077" width="2" height="49.23076923076923" id="death-date-21"></rect></g><g><rect x="118.6" y="61.53846153846154" width="2" height="38.46153846153846" id="death-date-22"></rect></g><g><rect x="115.03636363636363" y="53.84615384615385" width="2" height="46.15384615384615" id="death-date-23"></rect></g><g><rect x="111.47272727272728" y="43.07692307692308" width="2" height="56.92307692307692" id="death-date-24"></rect></g><g><rect x="107.90909090909089" y="53.84615384615385" width="2" height="46.15384615384615" id="death-date-25"></rect></g><g><rect x="104.34545454545456" y="44.61538461538461" width="2" height="55.38461538461539" id="death-date-26"></rect></g><g><rect x="100.78181818181817" y="43.07692307692308" width="2" height="56.92307692307692" id="death-date-27"></rect></g><g><rect x="97.21818181818183" y="36.92307692307693" width="2" height="63.07692307692307" id="death-date-28"></rect></g><g><rect x="93.65454545454546" y="36.92307692307693" width="2" height="63.07692307692307" id="death-date-29"></rect></g><g><rect x="90.09090909090911" y="35.38461538461538" width="2" height="64.61538461538461" id="death-date-30"></rect></g><g><rect x="86.52727272727273" y="32.30769230769231" width="2" height="67.6923076923077" id="death-date-31"></rect></g><g><rect x="82.96363636363637" y="16.92307692307692" width="2" height="83.07692307692308" id="death-date-32"></rect></g><g><rect x="79.4" y="47.692307692307686" width="2" height="52.307692307692314" id="death-date-33"></rect></g><g><rect x="75.83636363636364" y="24.615384615384617" width="2" height="75.38461538461539" id="death-date-34"></rect></g><g><rect x="72.27272727272727" y="29.230769230769226" width="2" height="70.76923076923077" id="death-date-35"></rect></g><g><rect x="68.70909090909092" y="53.84615384615385" width="2" height="46.15384615384615" id="death-date-36"></rect></g><g><rect x="65.14545454545454" y="46.15384615384615" width="2" height="53.84615384615385" id="death-date-37"></rect></g><g><rect x="61.58181818181818" y="9.230769230769232" width="2" height="90.76923076923077" id="death-date-38"></rect></g><g><rect x="58.018181818181816" y="12.307692307692308" width="2" height="87.6923076923077" id="death-date-39"></rect></g><g><rect x="54.454545454545446" y="19.999999999999996" width="2" height="80" id="death-date-40"></rect></g><g><rect x="50.89090909090908" y="27.692307692307693" width="2" height="72.3076923076923" id="death-date-41"></rect></g><g><rect x="47.32727272727273" y="35.38461538461538" width="2" height="64.61538461538461" id="death-date-42"></rect></g><g><rect x="43.76363636363636" y="32.30769230769231" width="2" height="67.6923076923077" id="death-date-43"></rect></g><g><rect x="40.199999999999996" y="36.92307692307693" width="2" height="63.07692307692307" id="death-date-44"></rect></g><g><rect x="36.636363636363626" y="0" width="2" height="100" id="death-date-45"></rect></g><g><rect x="33.072727272727285" y="24.615384615384617" width="2" height="75.38461538461539" id="death-date-46"></rect></g><g><rect x="29.509090909090922" y="23.076923076923073" width="2" height="76.92307692307693" id="death-date-47"></rect></g><g><rect x="25.945454545454556" y="7.692307692307687" width="2" height="92.3076923076923" id="death-date-48"></rect></g><g><rect x="22.38181818181819" y="16.92307692307692" width="2" height="83.07692307692308" id="death-date-49"></rect></g><g><rect x="18.818181818181824" y="4.61538461538461" width="2" height="95.38461538461539" id="death-date-50"></rect></g><g><rect x="15.254545454545461" y="16.92307692307692" width="2" height="83.07692307692308" id="death-date-51"></rect></g><g><rect x="11.690909090909095" y="3.076923076923077" width="2" height="96.92307692307692" id="death-date-52"></rect></g><g><rect x="8.12727272727273" y="32.30769230769231" width="2" height="67.6923076923077" id="death-date-53"></rect></g><g><rect x="4.563636363636365" y="3.076923076923077" width="2" height="96.92307692307692" id="death-date-54"></rect></g><g><rect x="1" y="10.769230769230765" width="2" height="89.23076923076924" id="death-date-55"></rect></g></g><g class="fg-line death-date" fill="none" stroke="#92c5de" stroke-width="2" stroke-linecap="round"><path d="M198,74.28571428571429L194.43636363636364,71.64835164835165L190.87272727272727,69.67032967032966L187.30909090909088,68.35164835164835L183.74545454545455,69.23076923076923L180.1818181818182,69.01098901098901L176.61818181818182,69.01098901098901L173.05454545454546,65.71428571428571L169.49090909090907,66.8131868131868L165.92727272727274,67.03296703296704L162.36363636363637,65.93406593406593L158.8,63.73626373626373L155.23636363636365,60.43956043956044L151.6727272727273,58.021978021978015L148.1090909090909,56.92307692307692L144.54545454545453,54.505494505494504L140.9818181818182,53.62637362637363L137.41818181818184,52.74725274725274L133.85454545454544,50.32967032967033L130.29090909090908,51.42857142857142L126.72727272727273,49.89010989010989L123.16363636363636,50.10989010989011L119.6,48.131868131868124L116.03636363636363,44.61538461538461L112.47272727272728,41.97802197802197L108.90909090909089,40.43956043956044L105.34545454545456,35.16483516483516L101.78181818181817,35.60439560439561L98.21818181818183,32.96703296703297L94.65454545454546,31.868131868131865L91.09090909090911,34.285714285714285L87.52727272727273,35.82417582417582L83.96363636363637,32.52747252747253L80.4,31.868131868131865L76.83636363636364,27.912087912087912L73.27272727272727,28.35164835164835L69.70909090909092,29.230769230769226L66.14545454545454,26.15384615384615L62.58181818181818,24.835164835164836L59.018181818181816,23.51648351648351L55.454545454545446,25.274725274725274L51.89090909090908,25.71428571428571L48.32727272727273,22.857142857142854L44.76363636363636,20.219780219780226L41.199999999999996,16.263736263736263L37.636363636363626,13.406593406593403L34.072727272727285,13.846153846153841L30.509090909090922,14.945054945054947L26.945454545454556,12.087912087912079L23.38181818181819,12.527472527472527L19.818181818181824,13.406593406593403L16.25454545454546,15.384615384615385L12.690909090909095,16.92307692307692L9.12727272727273,20.879120879120872L5.563636363636365,23.51648351648351L2,26.37362637362638"></path></g></svg>