<svg meta="{&quot;DATA_PUBLISHED_DATE&quot;:&quot;2022-04-01&quot;,&quot;RENDER_DATE&quot;:&quot;2022-04-02&quot;,&quot;FIRST_DATE&quot;:&quot;2022-01-13&quot;,&quot;LAST_DATE&quot;:&quot;2022-03-09&quot;}" xmlns="http://www.w3.org/2000/svg" viewBox="0,0,200,100"><g transform="translate(0,0)"></g><g class="fg-bars death-date" fill="#00183f" stroke="none"><g><rect x="197" y="85" width="2" height="15" id="death-date-0"></rect></g><g><rect x="193.43636363636364" y="83.84615384615385" width="2" height="16.153846153846146" id="death-date-1"></rect></g><g><rect x="189.87272727272727" y="85.76923076923077" width="2" height="14.230769230769226" id="death-date-2"></rect></g><g><rect x="186.30909090909088" y="80" width="2" height="20" id="death-date-3"></rect></g><g><rect x="182.74545454545455" y="78.46153846153847" width="2" height="21.538461538461533" id="death-date-4"></rect></g><g><rect x="179.1818181818182" y="83.07692307692307" width="2" height="16.923076923076934" id="death-date-5"></rect></g><g><rect x="175.61818181818182" y="77.6923076923077" width="2" height="22.307692307692307" id="death-date-6"></rect></g><g><rect x="172.05454545454546" y="81.15384615384616" width="2" height="18.84615384615384" id="death-date-7"></rect></g><g><rect x="168.49090909090907" y="75.76923076923077" width="2" height="24.230769230769226" id="death-date-8"></rect></g><g><rect x="164.92727272727274" y="71.92307692307692" width="2" height="28.07692307692308" id="death-date-9"></rect></g><g><rect x="161.36363636363637" y="78.07692307692308" width="2" height="21.92307692307692" id="death-date-10"></rect></g><g><rect x="157.8" y="71.92307692307692" width="2" height="28.07692307692308" id="death-date-11"></rect></g><g><rect x="154.23636363636365" y="71.92307692307692" width="2" height="28.07692307692308" id="death-date-12"></rect></g><g><rect x="150.6727272727273" y="73.46153846153847" width="2" height="26.538461538461533" id="death-date-13"></rect></g><g><rect x="147.1090909090909" y="63.07692307692307" width="2" height="36.92307692307693" id="death-date-14"></rect></g><g><rect x="143.54545454545453" y="61.92307692307693" width="2" height="38.07692307692307" id="death-date-15"></rect></g><g><rect x="139.9818181818182" y="60" width="2" height="40" id="death-date-16"></rect></g><g><rect x="136.41818181818184" y="54.61538461538462" width="2" height="45.38461538461538" id="death-date-17"></rect></g><g><rect x="132.85454545454544" y="62.30769230769231" width="2" height="37.69230769230769" id="death-date-18"></rect></g><g><rect x="129.29090909090908" y="55.769230769230774" width="2" height="44.230769230769226" id="death-date-19"></rect></g><g><rect x="125.72727272727273" y="47.692307692307686" width="2" height="52.307692307692314" id="death-date-20"></rect></g><g><rect x="122.16363636363636" y="50" width="2" height="50" id="death-date-21"></rect></g><g><rect x="118.6" y="51.53846153846153" width="2" height="48.46153846153847" id="death-date-22"></rect></g><g><rect x="115.03636363636363" y="43.84615384615385" width="2" height="56.15384615384615" id="death-date-23"></rect></g><g><rect x="111.47272727272728" y="42.307692307692314" width="2" height="57.692307692307686" id="death-date-24"></rect></g><g><rect x="107.90909090909089" y="39.61538461538462" width="2" height="60.38461538461538" id="death-date-25"></rect></g><g><rect x="104.34545454545456" y="30.76923076923077" width="2" height="69.23076923076923" id="death-date-26"></rect></g><g><rect x="100.78181818181817" y="35.76923076923077" width="2" height="64.23076923076923" id="death-date-27"></rect></g><g><rect x="97.21818181818183" y="21.53846153846154" width="2" height="78.46153846153845" id="death-date-28"></rect></g><g><rect x="93.65454545454546" y="16.92307692307692" width="2" height="83.07692307692308" id="death-date-29"></rect></g><g><rect x="90.09090909090911" y="29.230769230769226" width="2" height="70.76923076923077" id="death-date-30"></rect></g><g><rect x="86.52727272727273" y="31.538461538461537" width="2" height="68.46153846153847" id="death-date-31"></rect></g><g><rect x="82.96363636363637" y="18.461538461538463" width="2" height="81.53846153846153" id="death-date-32"></rect></g><g><rect x="79.4" y="7.692307692307687" width="2" height="92.3076923076923" id="death-date-33"></rect></g><g><rect x="75.83636363636364" y="19.615384615384613" width="2" height="80.38461538461539" id="death-date-34"></rect></g><g><rect x="72.27272727272727" y="9.999999999999998" width="2" height="90" id="death-date-35"></rect></g><g><rect x="68.70909090909092" y="2.3076923076923106" width="2" height="97.6923076923077" id="death-date-36"></rect></g><g><rect x="65.14545454545454" y="11.538461538461542" width="2" height="88.46153846153845" id="death-date-37"></rect></g><g><rect x="61.58181818181818" y="4.230769230769226" width="2" height="95.76923076923077" id="death-date-38"></rect></g><g><rect x="58.018181818181816" y="3.8461538461538436" width="2" height="96.15384615384616" id="death-date-39"></rect></g><g><rect x="54.454545454545446" y="15.000000000000002" width="2" height="85" id="death-date-40"></rect></g><g><rect x="50.89090909090908" y="9.230769230769232" width="2" height="90.76923076923077" id="death-date-41"></rect></g><g><rect x="47.32727272727273" y="16.153846153846153" width="2" height="83.84615384615384" id="death-date-42"></rect></g><g><rect x="43.76363636363636" y="12.307692307692308" width="2" height="87.6923076923077" id="death-date-43"></rect></g><g><rect x="40.199999999999996" y="27.692307692307693" width="2" height="72.3076923076923" id="death-date-44"></rect></g><g><rect x="36.636363636363626" y="8.076923076923082" width="2" height="91.92307692307692" id="death-date-45"></rect></g><g><rect x="33.072727272727285" y="16.92307692307692" width="2" height="83.07692307692308" id="death-date-46"></rect></g><g><rect x="29.509090909090922" y="10.384615384615381" width="2" height="89.61538461538461" id="death-date-47"></rect></g><g><rect x="25.945454545454556" y="16.153846153846153" width="2" height="83.84615384615384" id="death-date-48"></rect></g><g><rect x="22.38181818181819" y="11.153846153846159" width="2" height="88.84615384615384" id="death-date-49"></rect></g><g><rect x="18.818181818181824" y="19.999999999999996" width="2" height="80" id="death-date-50"></rect></g><g><rect x="15.254545454545461" y="28.846153846153843" width="2" height="71.15384615384616" id="death-date-51"></rect></g><g><rect x="11.690909090909095" y="26.538461538461533" width="2" height="73.46153846153847" id="death-date-52"></rect></g><g><rect x="8.12727272727273" y="27.30769230769231" width="2" height="72.6923076923077" id="death-date-53"></rect></g><g><rect x="4.563636363636365" y="37.30769230769231" width="2" height="62.69230769230769" id="death-date-54"></rect></g><g><rect x="1" y="35.38461538461538" width="2" height="64.61538461538461" id="death-date-55"></rect></g></g><g class="fg-line death-date" fill="none" stroke="#92c5de" stroke-width="2" stroke-linecap="round"><path d="M198,81.97802197802197L194.43636363636364,81.42857142857143L190.87272727272727,80.27472527472528L187.30909090909088,78.2967032967033L183.74545454545455,78.02197802197803L180.1818181818182,77.08791208791209L176.61818181818182,75.49450549450549L173.05454545454546,74.8901098901099L169.49090909090907,72.3076923076923L165.92727272727274,70.32967032967032L162.36363636363637,68.62637362637362L158.8,65.27472527472527L155.23636363636365,63.9010989010989L151.6727272727273,61.5934065934066L148.1090909090909,57.912087912087905L144.54545454545453,56.043956043956044L140.9818181818182,54.56043956043957L137.41818181818184,52.252747252747255L133.85454545454544,50.49450549450549L130.29090909090908,47.25274725274725L126.72727272727273,43.68131868131868L123.16363636363636,41.97802197802197L119.6,37.91208791208792L116.03636363636363,32.96703296703297L112.47272727272728,30.87912087912088L108.90909090909089,29.340659340659336L105.34545454545456,26.318681318681314L101.78181818181817,23.02197802197803L98.21818181818183,20.71428571428572L94.65454545454546,19.065934065934076L91.09090909090911,16.978021978021975L87.52727272727273,14.450549450549454L83.96363636363637,10.549450549450546L80.4,8.461538461538465L76.83636363636364,9.505494505494505L73.27272727272727,8.021978021978027L69.70909090909092,8.901098901098903L66.14545454545454,10.329670329670327L62.58181818181818,12.637362637362637L59.018181818181816,13.186813186813184L55.454545454545446,15.054945054945057L51.89090909090908,14.395604395604389L48.32727272727273,15.384615384615385L44.76363636363636,14.670329670329673L41.199999999999996,15.769230769230768L37.636363636363626,15.934065934065933L34.072727272727285,18.571428571428573L30.509090909090922,20.05494505494505L26.945454545454556,23.901098901098905L23.38181818181819,26.648351648351642L19.818181818181824,29.450549450549456L16.25454545454546,31.92307692307692L12.690909090909095,34.285714285714285L9.12727272727273,38.46153846153846L5.563636363636365,41.208791208791204L2,43.73626373626374"></path></g></svg>