<svg about="DATA_PUBLISHED_DATE:2021-10-15,RENDER_DATE:2021-10-15" xmlns="http://www.w3.org/2000/svg" viewBox="0,0,200,100"><g transform="translate(0,0)"></g><g class="fg-bars tests-vaccines" fill="#00183f" stroke="none"><g><rect x="197" y="34.31999999999999" width="2" height="65.68" id="tests-vaccines-0"></rect></g><g><rect x="193.43636363636364" y="38.71" width="2" height="61.29" id="tests-vaccines-1"></rect></g><g><rect x="189.87272727272727" y="36.591874999999995" width="2" height="63.408125000000005" id="tests-vaccines-2"></rect></g><g><rect x="186.30909090909088" y="37.235" width="2" height="62.765" id="tests-vaccines-3"></rect></g><g><rect x="182.74545454545455" y="76.93062499999999" width="2" height="23.069375000000008" id="tests-vaccines-4"></rect></g><g><rect x="179.1818181818182" y="58.967499999999994" width="2" height="41.032500000000006" id="tests-vaccines-5"></rect></g><g><rect x="175.61818181818182" y="12.302500000000006" width="2" height="87.69749999999999" id="tests-vaccines-6"></rect></g><g><rect x="172.05454545454546" y="19.886250000000004" width="2" height="80.11375" id="tests-vaccines-7"></rect></g><g><rect x="168.49090909090907" y="21.576874999999994" width="2" height="78.423125" id="tests-vaccines-8"></rect></g><g><rect x="164.92727272727274" y="20.874375" width="2" height="79.125625" id="tests-vaccines-9"></rect></g><g><rect x="161.36363636363637" y="27.395000000000003" width="2" height="72.60499999999999" id="tests-vaccines-10"></rect></g><g><rect x="157.8" y="75.931875" width="2" height="24.068124999999995" id="tests-vaccines-11"></rect></g><g><rect x="154.23636363636365" y="56.665625" width="2" height="43.334375" id="tests-vaccines-12"></rect></g><g><rect x="150.6727272727273" y="33.809374999999996" width="2" height="66.19062500000001" id="tests-vaccines-13"></rect></g><g><rect x="147.1090909090909" y="56.036249999999995" width="2" height="43.963750000000005" id="tests-vaccines-14"></rect></g><g><rect x="143.54545454545453" y="55.84625" width="2" height="44.15375" id="tests-vaccines-15"></rect></g><g><rect x="139.9818181818182" y="54.459375" width="2" height="45.540625" id="tests-vaccines-16"></rect></g><g><rect x="136.41818181818184" y="50.60249999999999" width="2" height="49.39750000000001" id="tests-vaccines-17"></rect></g><g><rect x="132.85454545454544" y="79.759375" width="2" height="20.240624999999994" id="tests-vaccines-18"></rect></g><g><rect x="129.29090909090908" y="64.873125" width="2" height="35.126875" id="tests-vaccines-19"></rect></g><g><rect x="125.72727272727273" y="40.85124999999999" width="2" height="59.14875000000001" id="tests-vaccines-20"></rect></g><g><rect x="122.16363636363636" y="49.263124999999995" width="2" height="50.736875000000005" id="tests-vaccines-21"></rect></g><g><rect x="118.6" y="50.8175" width="2" height="49.1825" id="tests-vaccines-22"></rect></g><g><rect x="115.03636363636363" y="50.35125" width="2" height="49.64875" id="tests-vaccines-23"></rect></g><g><rect x="111.47272727272728" y="47.8775" width="2" height="52.1225" id="tests-vaccines-24"></rect></g><g><rect x="107.90909090909089" y="78.18375" width="2" height="21.816249999999997" id="tests-vaccines-25"></rect></g><g><rect x="104.34545454545456" y="61.121249999999996" width="2" height="38.878750000000004" id="tests-vaccines-26"></rect></g><g><rect x="100.78181818181817" y="33.490624999999994" width="2" height="66.509375" id="tests-vaccines-27"></rect></g><g><rect x="97.21818181818183" y="45.51625" width="2" height="54.48375" id="tests-vaccines-28"></rect></g><g><rect x="93.65454545454546" y="45.08125" width="2" height="54.91875" id="tests-vaccines-29"></rect></g><g><rect x="90.09090909090911" y="39.29812499999999" width="2" height="60.70187500000001" id="tests-vaccines-30"></rect></g><g><rect x="86.52727272727273" y="88.05625" width="2" height="11.943749999999994" id="tests-vaccines-31"></rect></g><g><rect x="82.96363636363637" y="76.4825" width="2" height="23.5175" id="tests-vaccines-32"></rect></g><g><rect x="79.4" y="60.528125" width="2" height="39.471875" id="tests-vaccines-33"></rect></g><g><rect x="75.83636363636364" y="27.218125000000004" width="2" height="72.781875" id="tests-vaccines-34"></rect></g><g><rect x="72.27272727272727" y="41.961875000000006" width="2" height="58.038124999999994" id="tests-vaccines-35"></rect></g><g><rect x="68.70909090909092" y="40.361875000000005" width="2" height="59.638124999999995" id="tests-vaccines-36"></rect></g><g><rect x="65.14545454545454" y="37.911874999999995" width="2" height="62.088125000000005" id="tests-vaccines-37"></rect></g><g><rect x="61.58181818181818" y="37.176874999999995" width="2" height="62.823125000000005" id="tests-vaccines-38"></rect></g><g><rect x="58.018181818181816" y="73.408125" width="2" height="26.591875" id="tests-vaccines-39"></rect></g><g><rect x="54.454545454545446" y="51.41" width="2" height="48.59" id="tests-vaccines-40"></rect></g><g><rect x="50.89090909090908" y="19.92625" width="2" height="80.07375" id="tests-vaccines-41"></rect></g><g><rect x="47.32727272727273" y="34.975625" width="2" height="65.02437499999999" id="tests-vaccines-42"></rect></g><g><rect x="43.76363636363636" y="35.85625" width="2" height="64.14375" id="tests-vaccines-43"></rect></g><g><rect x="40.199999999999996" y="33.395624999999995" width="2" height="66.604375" id="tests-vaccines-44"></rect></g><g><rect x="36.636363636363626" y="33.804375" width="2" height="66.195625" id="tests-vaccines-45"></rect></g><g><rect x="33.072727272727285" y="73.761875" width="2" height="26.238124999999997" id="tests-vaccines-46"></rect></g><g><rect x="29.509090909090922" y="52.623124999999995" width="2" height="47.376875000000005" id="tests-vaccines-47"></rect></g><g><rect x="25.945454545454556" y="20.820625000000003" width="2" height="79.179375" id="tests-vaccines-48"></rect></g><g><rect x="22.38181818181819" y="36.46125" width="2" height="63.53875" id="tests-vaccines-49"></rect></g><g><rect x="18.818181818181824" y="36.291875" width="2" height="63.708125" id="tests-vaccines-50"></rect></g><g><rect x="15.254545454545461" y="36.12125" width="2" height="63.87875" id="tests-vaccines-51"></rect></g><g><rect x="11.690909090909095" y="39.266875" width="2" height="60.733125" id="tests-vaccines-52"></rect></g><g><rect x="8.12727272727273" y="74.67625" width="2" height="25.323750000000004" id="tests-vaccines-53"></rect></g><g><rect x="4.563636363636365" y="54.41125" width="2" height="45.58875" id="tests-vaccines-54"></rect></g><g><rect x="1" y="30.136249999999997" width="2" height="69.86375000000001" id="tests-vaccines-55"></rect></g></g><g class="fg-line tests-vaccines" fill="none" stroke="#92c5de" stroke-width="2" stroke-linecap="round"><path d="M198,42.15107142857143L194.43636363636364,40.08910714285715L190.87272727272727,37.641517857142844L187.30909090909088,35.39616071428572L183.74545454545455,33.99044642857143L180.1818181818182,33.847767857142856L176.61818181818182,33.51892857142856L173.05454545454546,36.591339285714284L169.49090909090907,41.755624999999995L165.92727272727274,46.65125L162.36363636363637,51.44910714285715L158.8,54.76446428571429L155.23636363636365,55.31125L151.6727272727273,56.48375L148.1090909090909,57.48973214285715L144.54545454545453,56.52214285714285L140.9818181818182,55.803749999999994L137.41818181818184,55.216875L133.85454545454544,54.82758928571428L130.29090909090908,54.6025L126.72727272727273,54.06651785714285L123.16363636363636,53.015L119.6,52.47973214285715L116.03636363636363,51.66026785714286L112.47272727272728,50.08125L108.90909090909089,55.821071428571436L105.34545454545456,55.578035714285726L101.78181818181817,55.49330357142856L98.21818181818183,54.597232142857145L94.65454545454546,54.089464285714286L91.09090909090911,53.41526785714286L87.52727272727273,53.21723214285714L83.96363636363637,45.948750000000004L80.4,45.509553571428576L76.83636363636364,44.20696428571429L73.27272727272727,43.16526785714285L69.70909090909092,42.167232142857145L66.14545454545454,41.52357142857143L62.58181818181818,40.878392857142856L59.018181818181816,40.39660714285714L55.454545454545446,40.44714285714285L51.89090909090908,40.620446428571434L48.32727272727273,40.748214285714276L44.76363636363636,40.96044642857143L41.199999999999996,41.02267857142857L37.636363636363626,41.412053571428565L34.072727272727285,42.192410714285714L30.509090909090922,42.323035714285716L26.945454545454556,42.57848214285714L23.38181818181819,43.909285714285716L19.818181818181824,45.1025L16.25454545454546,46.73374999999999L12.690909090909095,47.691964285714285L9.12727272727273,48.505267857142854L5.563636363636365,48.990178571428565L2,49.77580357142857"></path></g></svg>