<svg viewBox="0,0,200,100"><g transform="translate(0,0)"></g><g class="fg-bars death-date"><g><rect x="197" y="9.090909090909093" width="2" height="90.9090909090909" id="death-date-0"></rect></g><g><rect x="193.43636363636364" y="8.18181818181818" width="2" height="91.81818181818181" id="death-date-1"></rect></g><g><rect x="189.87272727272727" y="11.818181818181817" width="2" height="88.18181818181819" id="death-date-2"></rect></g><g><rect x="186.30909090909088" y="5.454545454545457" width="2" height="94.54545454545455" id="death-date-3"></rect></g><g><rect x="182.74545454545455" y="24.545454545454547" width="2" height="75.45454545454545" id="death-date-4"></rect></g><g><rect x="179.1818181818182" y="19.090909090909093" width="2" height="80.9090909090909" id="death-date-5"></rect></g><g><rect x="175.61818181818182" y="18.181818181818176" width="2" height="81.81818181818183" id="death-date-6"></rect></g><g><rect x="172.05454545454546" y="21.818181818181813" width="2" height="78.18181818181819" id="death-date-7"></rect></g><g><rect x="168.49090909090907" y="18.181818181818176" width="2" height="81.81818181818183" id="death-date-8"></rect></g><g><rect x="164.92727272727274" y="25.454545454545453" width="2" height="74.54545454545455" id="death-date-9"></rect></g><g><rect x="161.36363636363637" y="5.454545454545457" width="2" height="94.54545454545455" id="death-date-10"></rect></g><g><rect x="157.8" y="5.454545454545457" width="2" height="94.54545454545455" id="death-date-11"></rect></g><g><rect x="154.23636363636365" y="34.54545454545455" width="2" height="65.45454545454545" id="death-date-12"></rect></g><g><rect x="150.6727272727273" y="35.45454545454545" width="2" height="64.54545454545455" id="death-date-13"></rect></g><g><rect x="147.1090909090909" y="2.7272727272727226" width="2" height="97.27272727272728" id="death-date-14"></rect></g><g><rect x="143.54545454545453" y="37.272727272727266" width="2" height="62.727272727272734" id="death-date-15"></rect></g><g><rect x="139.9818181818182" y="38.18181818181819" width="2" height="61.81818181818181" id="death-date-16"></rect></g><g><rect x="136.41818181818184" y="36.36363636363637" width="2" height="63.63636363636363" id="death-date-17"></rect></g><g><rect x="132.85454545454544" y="39.090909090909086" width="2" height="60.909090909090914" id="death-date-18"></rect></g><g><rect x="129.29090909090908" y="36.36363636363637" width="2" height="63.63636363636363" id="death-date-19"></rect></g><g><rect x="125.72727272727273" y="50.90909090909091" width="2" height="49.09090909090909" id="death-date-20"></rect></g><g><rect x="122.16363636363636" y="49.09090909090909" width="2" height="50.90909090909091" id="death-date-21"></rect></g><g><rect x="118.6" y="59.09090909090908" width="2" height="40.90909090909092" id="death-date-22"></rect></g><g><rect x="115.03636363636363" y="60" width="2" height="40" id="death-date-23"></rect></g><g><rect x="111.47272727272728" y="54.54545454545454" width="2" height="45.45454545454546" id="death-date-24"></rect></g><g><rect x="107.90909090909089" y="53.63636363636364" width="2" height="46.36363636363636" id="death-date-25"></rect></g><g><rect x="104.34545454545456" y="70.9090909090909" width="2" height="29.090909090909093" id="death-date-26"></rect></g><g><rect x="100.78181818181817" y="57.27272727272727" width="2" height="42.72727272727273" id="death-date-27"></rect></g><g><rect x="97.21818181818183" y="77.27272727272727" width="2" height="22.727272727272734" id="death-date-28"></rect></g><g><rect x="93.65454545454546" y="69.0909090909091" width="2" height="30.909090909090907" id="death-date-29"></rect></g><g><rect x="90.09090909090911" y="70.9090909090909" width="2" height="29.090909090909093" id="death-date-30"></rect></g><g><rect x="86.52727272727273" y="70.9090909090909" width="2" height="29.090909090909093" id="death-date-31"></rect></g><g><rect x="82.96363636363637" y="76.36363636363637" width="2" height="23.636363636363626" id="death-date-32"></rect></g><g><rect x="79.4" y="76.36363636363637" width="2" height="23.636363636363626" id="death-date-33"></rect></g><g><rect x="75.83636363636364" y="80" width="2" height="20" id="death-date-34"></rect></g><g><rect x="72.27272727272727" y="68.18181818181819" width="2" height="31.818181818181813" id="death-date-35"></rect></g><g><rect x="68.70909090909092" y="74.54545454545455" width="2" height="25.454545454545453" id="death-date-36"></rect></g><g><rect x="65.14545454545454" y="80.9090909090909" width="2" height="19.090909090909093" id="death-date-37"></rect></g><g><rect x="61.58181818181818" y="77.27272727272727" width="2" height="22.727272727272734" id="death-date-38"></rect></g><g><rect x="58.018181818181816" y="78.18181818181819" width="2" height="21.818181818181813" id="death-date-39"></rect></g><g><rect x="54.454545454545446" y="90" width="2" height="10" id="death-date-40"></rect></g><g><rect x="50.89090909090908" y="80" width="2" height="20" id="death-date-41"></rect></g><g><rect x="47.32727272727273" y="84.54545454545455" width="2" height="15.454545454545453" id="death-date-42"></rect></g><g><rect x="43.76363636363636" y="79.0909090909091" width="2" height="20.909090909090907" id="death-date-43"></rect></g><g><rect x="40.199999999999996" y="88.18181818181819" width="2" height="11.818181818181813" id="death-date-44"></rect></g><g><rect x="36.636363636363626" y="84.54545454545455" width="2" height="15.454545454545453" id="death-date-45"></rect></g><g><rect x="33.072727272727285" y="83.63636363636364" width="2" height="16.36363636363636" id="death-date-46"></rect></g><g><rect x="29.509090909090922" y="86.36363636363636" width="2" height="13.63636363636364" id="death-date-47"></rect></g><g><rect x="25.945454545454556" y="83.63636363636364" width="2" height="16.36363636363636" id="death-date-48"></rect></g><g><rect x="22.38181818181819" y="84.54545454545455" width="2" height="15.454545454545453" id="death-date-49"></rect></g><g><rect x="18.818181818181824" y="86.36363636363636" width="2" height="13.63636363636364" id="death-date-50"></rect></g><g><rect x="15.254545454545461" y="85.45454545454545" width="2" height="14.545454545454547" id="death-date-51"></rect></g><g><rect x="11.690909090909095" y="86.36363636363636" width="2" height="13.63636363636364" id="death-date-52"></rect></g><g><rect x="8.12727272727273" y="87.27272727272728" width="2" height="12.72727272727272" id="death-date-53"></rect></g><g><rect x="4.563636363636365" y="92.72727272727272" width="2" height="7.2727272727272805" id="death-date-54"></rect></g><g><rect x="1" y="88.18181818181819" width="2" height="11.818181818181813" id="death-date-55"></rect></g></g><g class="fg-line death-date"><path stroke-linecap="round" d="M198,13.76623376623376L194.43636363636364,15.584415584415579L190.87272727272727,17.012987012987L187.30909090909088,18.961038961038966L183.74545454545455,18.961038961038966L180.1818181818182,16.233766233766232L176.61818181818182,18.44155844155845L173.05454545454546,20.90909090909091L169.49090909090907,18.181818181818176L165.92727272727274,20.90909090909091L162.36363636363637,22.72727272727273L158.8,27.142857142857146L155.23636363636365,31.948051948051948L151.6727272727273,32.20779220779221L148.1090909090909,34.41558441558442L144.54545454545453,41.038961038961034L140.9818181818182,44.15584415584416L137.41818181818184,47.27272727272728L133.85454545454544,49.870129870129865L130.29090909090908,51.94805194805194L126.72727272727273,56.88311688311688L123.16363636363636,57.7922077922078L119.6,61.81818181818181L116.03636363636363,63.246753246753244L112.47272727272728,64.8051948051948L108.90909090909089,67.14285714285714L105.34545454545456,70.3896103896104L101.78181818181817,71.16883116883118L98.21818181818183,74.41558441558442L94.65454545454546,73.11688311688312L91.09090909090911,73.8961038961039L87.52727272727273,75.32467532467533L83.96363636363637,76.23376623376623L80.4,76.49350649350649L76.83636363636364,78.44155844155844L73.27272727272727,78.44155844155844L69.70909090909092,80.77922077922078L66.14545454545454,81.42857142857143L62.58181818181818,82.46753246753246L59.018181818181816,83.50649350649351L55.454545454545446,84.28571428571429L51.89090909090908,83.76623376623377L48.32727272727273,84.28571428571429L44.76363636363636,84.28571428571429L41.199999999999996,85.32467532467533L37.636363636363626,84.93506493506493L34.072727272727285,85.1948051948052L30.509090909090922,85.71428571428572L26.945454545454556,86.62337662337663L23.38181818181819,87.27272727272728L19.818181818181824,87.66233766233766L16.25454545454546,87.79220779220779L12.690909090909095,87.66233766233766L9.12727272727273,88.31168831168831L5.563636363636365,88.44155844155844L2,88.05194805194805"></path></g></svg>