<svg meta="{&quot;DATA_PUBLISHED_DATE&quot;:&quot;2022-04-29&quot;,&quot;RENDER_DATE&quot;:&quot;2022-04-29&quot;,&quot;FIRST_DATE&quot;:&quot;2022-02-10&quot;,&quot;LAST_DATE&quot;:&quot;2022-04-06&quot;}" xmlns="http://www.w3.org/2000/svg" viewBox="0,0,200,100"><g transform="translate(0,0)"></g><g class="fg-bars death-date" fill="#00183f" stroke="none"><g><rect x="197" y="93" width="2" height="7" id="death-date-0"></rect></g><g><rect x="193.43636363636364" y="91" width="2" height="9" id="death-date-1"></rect></g><g><rect x="189.87272727272727" y="96" width="2" height="4" id="death-date-2"></rect></g><g><rect x="186.30909090909088" y="93.5" width="2" height="6.5" id="death-date-3"></rect></g><g><rect x="182.74545454545455" y="93" width="2" height="7" id="death-date-4"></rect></g><g><rect x="179.1818181818182" y="93" width="2" height="7" id="death-date-5"></rect></g><g><rect x="175.61818181818182" y="91" width="2" height="9" id="death-date-6"></rect></g><g><rect x="172.05454545454546" y="90" width="2" height="10" id="death-date-7"></rect></g><g><rect x="168.49090909090907" y="90.5" width="2" height="9.5" id="death-date-8"></rect></g><g><rect x="164.92727272727274" y="90.5" width="2" height="9.5" id="death-date-9"></rect></g><g><rect x="161.36363636363637" y="90.5" width="2" height="9.5" id="death-date-10"></rect></g><g><rect x="157.8" y="89.5" width="2" height="10.5" id="death-date-11"></rect></g><g><rect x="154.23636363636365" y="86.5" width="2" height="13.5" id="death-date-12"></rect></g><g><rect x="150.6727272727273" y="94" width="2" height="6" id="death-date-13"></rect></g><g><rect x="147.1090909090909" y="90.5" width="2" height="9.5" id="death-date-14"></rect></g><g><rect x="143.54545454545453" y="87.5" width="2" height="12.5" id="death-date-15"></rect></g><g><rect x="139.9818181818182" y="84.5" width="2" height="15.5" id="death-date-16"></rect></g><g><rect x="136.41818181818184" y="86.5" width="2" height="13.5" id="death-date-17"></rect></g><g><rect x="132.85454545454544" y="89.5" width="2" height="10.5" id="death-date-18"></rect></g><g><rect x="129.29090909090908" y="84.5" width="2" height="15.5" id="death-date-19"></rect></g><g><rect x="125.72727272727273" y="82" width="2" height="18" id="death-date-20"></rect></g><g><rect x="122.16363636363636" y="85.5" width="2" height="14.5" id="death-date-21"></rect></g><g><rect x="118.6" y="84.5" width="2" height="15.5" id="death-date-22"></rect></g><g><rect x="115.03636363636363" y="85.5" width="2" height="14.5" id="death-date-23"></rect></g><g><rect x="111.47272727272728" y="82.5" width="2" height="17.5" id="death-date-24"></rect></g><g><rect x="107.90909090909089" y="79" width="2" height="21" id="death-date-25"></rect></g><g><rect x="104.34545454545456" y="76" width="2" height="24" id="death-date-26"></rect></g><g><rect x="100.78181818181817" y="72.5" width="2" height="27.5" id="death-date-27"></rect></g><g><rect x="97.21818181818183" y="73.5" width="2" height="26.5" id="death-date-28"></rect></g><g><rect x="93.65454545454546" y="74" width="2" height="26" id="death-date-29"></rect></g><g><rect x="90.09090909090911" y="73.5" width="2" height="26.5" id="death-date-30"></rect></g><g><rect x="86.52727272727273" y="71" width="2" height="29" id="death-date-31"></rect></g><g><rect x="82.96363636363637" y="68.5" width="2" height="31.5" id="death-date-32"></rect></g><g><rect x="79.4" y="73.5" width="2" height="26.5" id="death-date-33"></rect></g><g><rect x="75.83636363636364" y="64" width="2" height="36" id="death-date-34"></rect></g><g><rect x="72.27272727272727" y="70" width="2" height="30" id="death-date-35"></rect></g><g><rect x="68.70909090909092" y="63" width="2" height="37" id="death-date-36"></rect></g><g><rect x="65.14545454545454" y="59.5" width="2" height="40.5" id="death-date-37"></rect></g><g><rect x="61.58181818181818" y="66.5" width="2" height="33.5" id="death-date-38"></rect></g><g><rect x="58.018181818181816" y="59.5" width="2" height="40.5" id="death-date-39"></rect></g><g><rect x="54.454545454545446" y="57.00000000000001" width="2" height="42.99999999999999" id="death-date-40"></rect></g><g><rect x="50.89090909090908" y="60.5" width="2" height="39.5" id="death-date-41"></rect></g><g><rect x="47.32727272727273" y="47.5" width="2" height="52.5" id="death-date-42"></rect></g><g><rect x="43.76363636363636" y="47.5" width="2" height="52.5" id="death-date-43"></rect></g><g><rect x="40.199999999999996" y="41.5" width="2" height="58.5" id="death-date-44"></rect></g><g><rect x="36.636363636363626" y="37" width="2" height="63" id="death-date-45"></rect></g><g><rect x="33.072727272727285" y="48" width="2" height="52" id="death-date-46"></rect></g><g><rect x="29.509090909090922" y="36" width="2" height="64" id="death-date-47"></rect></g><g><rect x="25.945454545454556" y="23" width="2" height="77" id="death-date-48"></rect></g><g><rect x="22.38181818181819" y="29.500000000000004" width="2" height="70.5" id="death-date-49"></rect></g><g><rect x="18.818181818181824" y="32.99999999999999" width="2" height="67" id="death-date-50"></rect></g><g><rect x="15.254545454545461" y="24" width="2" height="76" id="death-date-51"></rect></g><g><rect x="11.690909090909095" y="18.999999999999993" width="2" height="81" id="death-date-52"></rect></g><g><rect x="8.12727272727273" y="13.5" width="2" height="86.5" id="death-date-53"></rect></g><g><rect x="4.563636363636365" y="6.999999999999995" width="2" height="93" id="death-date-54"></rect></g><g><rect x="1" y="13.5" width="2" height="86.5" id="death-date-55"></rect></g></g><g class="fg-line death-date" fill="none" stroke="#92c5de" stroke-width="2" stroke-linecap="round"><path d="M198,92.92857142857143L194.43636363636364,92.5L190.87272727272727,92.42857142857143L187.30909090909088,91.64285714285714L183.74545454545455,91.21428571428571L180.1818181818182,90.71428571428571L176.61818181818182,89.78571428571429L173.05454545454546,90.21428571428571L169.49090909090907,90.28571428571428L165.92727272727274,89.85714285714286L162.36363636363637,89L158.8,88.42857142857143L155.23636363636365,88.42857142857143L151.6727272727273,88.14285714285714L148.1090909090909,86.42857142857143L144.54545454545453,85.71428571428571L140.9818181818182,85.28571428571429L137.41818181818184,85.42857142857143L133.85454545454544,84.85714285714285L130.29090909090908,83.35714285714286L126.72727272727273,82.14285714285714L123.16363636363636,80.78571428571428L119.6,79.07142857142857L116.03636363636363,77.57142857142857L112.47272727272728,75.85714285714286L108.90909090909089,74.21428571428572L105.34545454545456,72.71428571428571L101.78181818181817,72.35714285714285L98.21818181818183,71.14285714285714L94.65454545454546,70.64285714285714L91.09090909090911,69.07142857142857L87.52727272727273,67.07142857142857L83.96363636363637,66.42857142857143L80.4,65.14285714285715L76.83636363636364,62.78571428571429L73.27272727272727,62.28571428571428L69.70909090909092,59.07142857142858L66.14545454545454,56.85714285714285L62.58181818181818,54.28571428571429L59.018181818181816,50.07142857142857L55.454545454545446,48.42857142857143L51.89090909090908,45.42857142857143L48.32727272727273,40.07142857142857L44.76363636363636,37.5L41.199999999999996,35.42857142857143L37.636363636363626,32.92857142857143L34.072727272727285,30.35714285714286L30.509090909090922,25.428571428571434L26.945454545454556,21.285714285714295L23.38181818181819,19.92857142857143L19.818181818181824,14.714285714285714L16.25454545454546,8.14285714285714L12.690909090909095,4.928571428571427L9.12727272727273,2.6428571428571357L5.563636363636365,-0.7142857142857117L2,-5.35714285714286"></path></g></svg>