<svg meta="{&quot;DATA_PUBLISHED_DATE&quot;:&quot;2022-02-24&quot;,&quot;RENDER_DATE&quot;:&quot;2022-02-24&quot;,&quot;FIRST_DATE&quot;:&quot;2021-12-23&quot;,&quot;LAST_DATE&quot;:&quot;2022-02-16&quot;}" xmlns="http://www.w3.org/2000/svg" viewBox="0,0,200,100"><g transform="translate(0,0)"></g><g class="fg-bars tests-vaccines" fill="#00183f" stroke="none"><g><rect x="197" y="79.40357142857142" width="2" height="20.596428571428575" id="tests-vaccines-0"></rect></g><g><rect x="193.43636363636364" y="80.09071428571428" width="2" height="19.909285714285716" id="tests-vaccines-1"></rect></g><g><rect x="189.87272727272727" y="82.5975" width="2" height="17.402500000000003" id="tests-vaccines-2"></rect></g><g><rect x="186.30909090909088" y="93.24" width="2" height="6.760000000000005" id="tests-vaccines-3"></rect></g><g><rect x="182.74545454545455" y="82.40035714285713" width="2" height="17.599642857142868" id="tests-vaccines-4"></rect></g><g><rect x="179.1818181818182" y="66.7625" width="2" height="33.2375" id="tests-vaccines-5"></rect></g><g><rect x="175.61818181818182" y="74.58" width="2" height="25.42" id="tests-vaccines-6"></rect></g><g><rect x="172.05454545454546" y="73.41964285714286" width="2" height="26.58035714285714" id="tests-vaccines-7"></rect></g><g><rect x="168.49090909090907" y="73.62107142857143" width="2" height="26.378928571428574" id="tests-vaccines-8"></rect></g><g><rect x="164.92727272727274" y="72.71607142857142" width="2" height="27.283928571428575" id="tests-vaccines-9"></rect></g><g><rect x="161.36363636363637" y="89.33071428571428" width="2" height="10.66928571428572" id="tests-vaccines-10"></rect></g><g><rect x="157.8" y="76.22035714285714" width="2" height="23.77964285714286" id="tests-vaccines-11"></rect></g><g><rect x="154.23636363636365" y="56.293928571428566" width="2" height="43.706071428571434" id="tests-vaccines-12"></rect></g><g><rect x="150.6727272727273" y="66.99535714285713" width="2" height="33.00464285714287" id="tests-vaccines-13"></rect></g><g><rect x="147.1090909090909" y="65.83892857142857" width="2" height="34.16107142857143" id="tests-vaccines-14"></rect></g><g><rect x="143.54545454545453" y="65.12464285714286" width="2" height="34.87535714285714" id="tests-vaccines-15"></rect></g><g><rect x="139.9818181818182" y="61.57535714285714" width="2" height="38.42464285714286" id="tests-vaccines-16"></rect></g><g><rect x="136.41818181818184" y="86.67142857142858" width="2" height="13.328571428571422" id="tests-vaccines-17"></rect></g><g><rect x="132.85454545454544" y="68.48785714285714" width="2" height="31.512142857142862" id="tests-vaccines-18"></rect></g><g><rect x="129.29090909090908" y="41.217499999999994" width="2" height="58.782500000000006" id="tests-vaccines-19"></rect></g><g><rect x="125.72727272727273" y="53.54392857142858" width="2" height="46.45607142857142" id="tests-vaccines-20"></rect></g><g><rect x="122.16363636363636" y="53.370000000000005" width="2" height="46.629999999999995" id="tests-vaccines-21"></rect></g><g><rect x="118.6" y="52.739999999999995" width="2" height="47.260000000000005" id="tests-vaccines-22"></rect></g><g><rect x="115.03636363636363" y="52.89357142857143" width="2" height="47.10642857142857" id="tests-vaccines-23"></rect></g><g><rect x="111.47272727272728" y="84.26214285714286" width="2" height="15.737857142857138" id="tests-vaccines-24"></rect></g><g><rect x="107.90909090909089" y="66.40857142857143" width="2" height="33.591428571428565" id="tests-vaccines-25"></rect></g><g><rect x="104.34545454545456" y="35.40035714285714" width="2" height="64.59964285714287" id="tests-vaccines-26"></rect></g><g><rect x="100.78181818181817" y="45.21321428571429" width="2" height="54.78678571428571" id="tests-vaccines-27"></rect></g><g><rect x="97.21818181818183" y="42.7925" width="2" height="57.2075" id="tests-vaccines-28"></rect></g><g><rect x="93.65454545454546" y="42.01785714285714" width="2" height="57.98214285714286" id="tests-vaccines-29"></rect></g><g><rect x="90.09090909090911" y="50.77035714285714" width="2" height="49.22964285714286" id="tests-vaccines-30"></rect></g><g><rect x="86.52727272727273" y="80.8175" width="2" height="19.182500000000005" id="tests-vaccines-31"></rect></g><g><rect x="82.96363636363637" y="58.947142857142865" width="2" height="41.052857142857135" id="tests-vaccines-32"></rect></g><g><rect x="79.4" y="20.05678571428572" width="2" height="79.94321428571428" id="tests-vaccines-33"></rect></g><g><rect x="75.83636363636364" y="31.832499999999996" width="2" height="68.1675" id="tests-vaccines-34"></rect></g><g><rect x="72.27272727272727" y="29.291071428571424" width="2" height="70.70892857142857" id="tests-vaccines-35"></rect></g><g><rect x="68.70909090909092" y="27.86464285714285" width="2" height="72.13535714285715" id="tests-vaccines-36"></rect></g><g><rect x="65.14545454545454" y="32.345" width="2" height="67.655" id="tests-vaccines-37"></rect></g><g><rect x="61.58181818181818" y="77.21642857142858" width="2" height="22.78357142857142" id="tests-vaccines-38"></rect></g><g><rect x="58.018181818181816" y="46.40142857142857" width="2" height="53.59857142857143" id="tests-vaccines-39"></rect></g><g><rect x="54.454545454545446" y="3.502857142857141" width="2" height="96.49714285714286" id="tests-vaccines-40"></rect></g><g><rect x="50.89090909090908" y="16.919642857142858" width="2" height="83.08035714285714" id="tests-vaccines-41"></rect></g><g><rect x="47.32727272727273" y="20.14892857142857" width="2" height="79.85107142857143" id="tests-vaccines-42"></rect></g><g><rect x="43.76363636363636" y="21.568928571428568" width="2" height="78.43107142857143" id="tests-vaccines-43"></rect></g><g><rect x="40.199999999999996" y="27.64821428571429" width="2" height="72.35178571428571" id="tests-vaccines-44"></rect></g><g><rect x="36.636363636363626" y="80.58142857142857" width="2" height="19.418571428571425" id="tests-vaccines-45"></rect></g><g><rect x="33.072727272727285" y="97.09214285714286" width="2" height="2.9078571428571394" id="tests-vaccines-46"></rect></g><g><rect x="29.509090909090922" y="72.42464285714286" width="2" height="27.575357142857143" id="tests-vaccines-47"></rect></g><g><rect x="25.945454545454556" y="18.8975" width="2" height="81.10249999999999" id="tests-vaccines-48"></rect></g><g><rect x="22.38181818181819" y="12.7575" width="2" height="87.2425" id="tests-vaccines-49"></rect></g><g><rect x="18.818181818181824" y="12.710714285714285" width="2" height="87.28928571428571" id="tests-vaccines-50"></rect></g><g><rect x="15.254545454545461" y="23.667142857142853" width="2" height="76.33285714285715" id="tests-vaccines-51"></rect></g><g><rect x="11.690909090909095" y="79.77642857142857" width="2" height="20.223571428571432" id="tests-vaccines-52"></rect></g><g><rect x="8.12727272727273" y="99.66428571428571" width="2" height="0.33571428571428896" id="tests-vaccines-53"></rect></g><g><rect x="4.563636363636365" y="83.46714285714285" width="2" height="16.532857142857154" id="tests-vaccines-54"></rect></g><g><rect x="1" y="21.476785714285718" width="2" height="78.52321428571429" id="tests-vaccines-55"></rect></g></g><g class="fg-line tests-vaccines" fill="none" stroke="#92c5de" stroke-width="2" stroke-linecap="round"><path d="M198,79.86780612244898L194.43636363636364,79.01295918367347L190.87272727272727,78.08872448979591L187.30909090909088,76.6770918367347L183.74545454545455,76.1186224489796L180.1818181818182,75.23576530612245L176.61818181818182,73.74025510204082L173.05454545454546,72.65673469387754L169.49090909090907,71.57377551020409L165.92727272727274,70.36L162.36363636363637,68.7684693877551L158.8,68.38857142857142L155.23636363636365,67.28392857142858L151.6727272727273,65.13015306122449L148.1090909090909,63.208520408163274L144.54545454545453,61.427244897959184L140.9818181818182,59.658010204081634L137.41818181818184,58.417755102040815L133.85454545454544,58.073571428571434L130.29090909090908,57.776530612244905L126.72727272727273,56.94551020408163L123.16363636363636,55.75540816326531L119.6,54.244336734693874L116.03636363636363,52.71260204081633L112.47272727272728,52.409285714285716L108.90909090909089,51.91719387755103L105.34545454545456,50.851275510204076L101.78181818181817,48.65933673469388L98.21818181818183,46.74780612244898L94.65454545454546,44.819030612244894L91.09090909090911,42.79714285714286L87.52727272727273,40.16494897959183L83.96363636363637,39.650510204081634L80.4,37.858265306122455L76.83636363636364,35.49341836734694L73.27272727272727,33.36301020408163L69.70909090909092,32.05698979591837L66.14545454545454,31.15760204081632L62.58181818181818,30.486632653061218L59.018181818181816,30.96734693877551L55.454545454545446,38.20887755102041L51.89090909090908,48.05484693877551L48.32727272727273,48.33739795918367L44.76363636363636,47.28147959183674L41.199999999999996,46.01602040816326L37.636363636363626,45.447295918367345L34.072727272727285,45.33229591836735L30.509090909090922,45.699744897959185L26.945454545454556,47.27724489795918L23.38181818181819,47.64571428571429L19.818181818181824,46.8986224489796L16.25454545454546,45.72897959183674L12.690909090909095,43.93785714285714L9.12727272727273,43.083061224489796L5.563636363636365,35.70377551020408L2,24.61673469387755"></path></g></svg>