<svg meta="{&quot;DATA_PUBLISHED_DATE&quot;:&quot;2022-05-17&quot;,&quot;RENDER_DATE&quot;:&quot;2022-05-17&quot;,&quot;FIRST_DATE&quot;:&quot;2022-03-15&quot;,&quot;LAST_DATE&quot;:&quot;2022-05-09&quot;}" xmlns="http://www.w3.org/2000/svg" viewBox="0,0,200,100"><g transform="translate(0,0)"></g><g class="fg-bars tests-vaccines" fill="#00183f" stroke="none"><g><rect x="197" y="45.142" width="2" height="54.858" id="tests-vaccines-0"></rect></g><g><rect x="193.43636363636364" y="87.33800000000001" width="2" height="12.661999999999992" id="tests-vaccines-1"></rect></g><g><rect x="189.87272727272727" y="69.87" width="2" height="30.129999999999995" id="tests-vaccines-2"></rect></g><g><rect x="186.30909090909088" y="31.991999999999997" width="2" height="68.00800000000001" id="tests-vaccines-3"></rect></g><g><rect x="182.74545454545455" y="41.352" width="2" height="58.648" id="tests-vaccines-4"></rect></g><g><rect x="179.1818181818182" y="41.503" width="2" height="58.497" id="tests-vaccines-5"></rect></g><g><rect x="175.61818181818182" y="41.974000000000004" width="2" height="58.025999999999996" id="tests-vaccines-6"></rect></g><g><rect x="172.05454545454546" y="41.995000000000005" width="2" height="58.004999999999995" id="tests-vaccines-7"></rect></g><g><rect x="168.49090909090907" y="82.181" width="2" height="17.819000000000003" id="tests-vaccines-8"></rect></g><g><rect x="164.92727272727274" y="65.54100000000001" width="2" height="34.45899999999999" id="tests-vaccines-9"></rect></g><g><rect x="161.36363636363637" y="29.425999999999995" width="2" height="70.57400000000001" id="tests-vaccines-10"></rect></g><g><rect x="157.8" y="34.109" width="2" height="65.89099999999999" id="tests-vaccines-11"></rect></g><g><rect x="154.23636363636365" y="34.724999999999994" width="2" height="65.275" id="tests-vaccines-12"></rect></g><g><rect x="150.6727272727273" y="35.760999999999996" width="2" height="64.239" id="tests-vaccines-13"></rect></g><g><rect x="147.1090909090909" y="36.204" width="2" height="63.796" id="tests-vaccines-14"></rect></g><g><rect x="143.54545454545453" y="81.366" width="2" height="18.634" id="tests-vaccines-15"></rect></g><g><rect x="139.9818181818182" y="62.681999999999995" width="2" height="37.318000000000005" id="tests-vaccines-16"></rect></g><g><rect x="136.41818181818184" y="36.046" width="2" height="63.954" id="tests-vaccines-17"></rect></g><g><rect x="132.85454545454544" y="29.720000000000002" width="2" height="70.28" id="tests-vaccines-18"></rect></g><g><rect x="129.29090909090908" y="28.666999999999998" width="2" height="71.333" id="tests-vaccines-19"></rect></g><g><rect x="125.72727272727273" y="28.725" width="2" height="71.275" id="tests-vaccines-20"></rect></g><g><rect x="122.16363636363636" y="28.893" width="2" height="71.107" id="tests-vaccines-21"></rect></g><g><rect x="118.6" y="91.304" width="2" height="8.695999999999998" id="tests-vaccines-22"></rect></g><g><rect x="115.03636363636363" y="62.458000000000006" width="2" height="37.541999999999994" id="tests-vaccines-23"></rect></g><g><rect x="111.47272727272728" y="19.589000000000002" width="2" height="80.411" id="tests-vaccines-24"></rect></g><g><rect x="107.90909090909089" y="26.053000000000004" width="2" height="73.947" id="tests-vaccines-25"></rect></g><g><rect x="104.34545454545456" y="23.634" width="2" height="76.366" id="tests-vaccines-26"></rect></g><g><rect x="100.78181818181817" y="20.363" width="2" height="79.637" id="tests-vaccines-27"></rect></g><g><rect x="97.21818181818183" y="23.402" width="2" height="76.598" id="tests-vaccines-28"></rect></g><g><rect x="93.65454545454546" y="75.246" width="2" height="24.754000000000005" id="tests-vaccines-29"></rect></g><g><rect x="90.09090909090911" y="55.128" width="2" height="44.872" id="tests-vaccines-30"></rect></g><g><rect x="86.52727272727273" y="13.571" width="2" height="86.429" id="tests-vaccines-31"></rect></g><g><rect x="82.96363636363637" y="25.078999999999997" width="2" height="74.921" id="tests-vaccines-32"></rect></g><g><rect x="79.4" y="25.051000000000002" width="2" height="74.949" id="tests-vaccines-33"></rect></g><g><rect x="75.83636363636364" y="24.148000000000003" width="2" height="75.852" id="tests-vaccines-34"></rect></g><g><rect x="72.27272727272727" y="23.656999999999996" width="2" height="76.343" id="tests-vaccines-35"></rect></g><g><rect x="68.70909090909092" y="73.822" width="2" height="26.177999999999997" id="tests-vaccines-36"></rect></g><g><rect x="65.14545454545454" y="53.567" width="2" height="46.433" id="tests-vaccines-37"></rect></g><g><rect x="61.58181818181818" y="8.559000000000005" width="2" height="91.441" id="tests-vaccines-38"></rect></g><g><rect x="58.018181818181816" y="26.475000000000005" width="2" height="73.52499999999999" id="tests-vaccines-39"></rect></g><g><rect x="54.454545454545446" y="38.778" width="2" height="61.222" id="tests-vaccines-40"></rect></g><g><rect x="50.89090909090908" y="68.143" width="2" height="31.857" id="tests-vaccines-41"></rect></g><g><rect x="47.32727272727273" y="73.976" width="2" height="26.024" id="tests-vaccines-42"></rect></g><g><rect x="43.76363636363636" y="89.859" width="2" height="10.141000000000005" id="tests-vaccines-43"></rect></g><g><rect x="40.199999999999996" y="80.52900000000001" width="2" height="19.47099999999999" id="tests-vaccines-44"></rect></g><g><rect x="36.636363636363626" y="62.845" width="2" height="37.155" id="tests-vaccines-45"></rect></g><g><rect x="33.072727272727285" y="70.96000000000001" width="2" height="29.039999999999992" id="tests-vaccines-46"></rect></g><g><rect x="29.509090909090922" y="69.917" width="2" height="30.083" id="tests-vaccines-47"></rect></g><g><rect x="25.945454545454556" y="70.809" width="2" height="29.191000000000003" id="tests-vaccines-48"></rect></g><g><rect x="22.38181818181819" y="68.425" width="2" height="31.575000000000003" id="tests-vaccines-49"></rect></g><g><rect x="18.818181818181824" y="88.36" width="2" height="11.64" id="tests-vaccines-50"></rect></g><g><rect x="15.254545454545461" y="75.87899999999999" width="2" height="24.12100000000001" id="tests-vaccines-51"></rect></g><g><rect x="11.690909090909095" y="56.574000000000005" width="2" height="43.425999999999995" id="tests-vaccines-52"></rect></g><g><rect x="8.12727272727273" y="68.779" width="2" height="31.221000000000004" id="tests-vaccines-53"></rect></g><g><rect x="4.563636363636365" y="67.728" width="2" height="32.272000000000006" id="tests-vaccines-54"></rect></g><g><rect x="1" y="67.90899999999999" width="2" height="32.09100000000001" id="tests-vaccines-55"></rect></g></g><g class="fg-line tests-vaccines" fill="none" stroke="#92c5de" stroke-width="2" stroke-linecap="round"><path d="M198,51.31014285714286L194.43636363636364,50.86057142857143L190.87272727272727,50.12385714285714L187.30909090909088,49.50542857142858L183.74545454545455,49.13885714285714L180.1818181818182,48.104142857142854L176.61818181818182,47.13585714285714L173.05454545454546,46.24828571428572L169.49090909090907,45.421L165.92727272727274,45.30457142857143L162.36363636363637,44.89614285714285L158.8,45.841857142857144L155.23636363636365,45.21485714285715L151.6727272727273,44.349428571428575L148.1090909090909,43.34428571428571L144.54545454545453,42.29985714285714L140.9818181818182,43.71957142857143L137.41818181818184,43.687571428571424L133.85454545454544,41.336571428571425L130.29090909090908,40.81271428571428L126.72727272727273,40.093714285714285L123.16363636363636,38.899142857142856L119.6,38.11471428571428L116.03636363636363,35.82071428571428L112.47272727272728,34.77357142857143L108.90909090909089,33.91385714285714L105.34545454545456,33.77471428571429L101.78181818181817,33.97714285714285L98.21818181818183,34.517857142857146L94.65454545454546,34.55428571428571L91.09090909090911,34.35085714285715L87.52727272727273,34.127857142857145L83.96363636363637,33.41185714285715L80.4,33.611285714285714L76.83636363636364,35.57228571428573L73.27272727272727,41.857285714285716L69.70909090909092,49.04571428571428L66.14545454545454,51.33671428571428L62.58181818181818,55.188428571428574L59.018181818181816,62.94357142857143L55.454545454545446,69.29857142857144L51.89090909090908,73.74700000000001L48.32727272727273,74.12785714285715L44.76363636363636,73.33485714285715L41.199999999999996,73.1207142857143L37.636363636363626,72.45642857142857L34.072727272727285,71.56057142857144L30.509090909090922,71.24900000000001L26.945454545454556,70.93628571428572L23.38181818181819,70.52199999999999L19.818181818181824,70.56785714285714L16.25454545454546,70.48L12.690909090909095,70.23357142857142L9.12727272727273,70.13242857142858L5.563636363636365,69.632L2,69.03714285714287"></path></g></svg>