<svg about="DATA_PUBLISHED_DATE:2021-12-19,RENDER_DATE:2021-12-19" xmlns="http://www.w3.org/2000/svg" viewBox="0,0,200,100"><g transform="translate(0,0)"></g><g class="fg-bars tests-vaccines" fill="#00183f" stroke="none"><g><rect x="197" y="55.800000000000004" width="2" height="44.199999999999996" id="tests-vaccines-0"></rect></g><g><rect x="193.43636363636364" y="22.674285714285713" width="2" height="77.32571428571428" id="tests-vaccines-1"></rect></g><g><rect x="189.87272727272727" y="30.274857142857147" width="2" height="69.72514285714286" id="tests-vaccines-2"></rect></g><g><rect x="186.30909090909088" y="27.740857142857145" width="2" height="72.25914285714285" id="tests-vaccines-3"></rect></g><g><rect x="182.74545454545455" y="27.57114285714286" width="2" height="72.42885714285714" id="tests-vaccines-4"></rect></g><g><rect x="179.1818181818182" y="32.59542857142858" width="2" height="67.40457142857142" id="tests-vaccines-5"></rect></g><g><rect x="175.61818181818182" y="77.28742857142858" width="2" height="22.712571428571422" id="tests-vaccines-6"></rect></g><g><rect x="172.05454545454546" y="49.111428571428576" width="2" height="50.888571428571424" id="tests-vaccines-7"></rect></g><g><rect x="168.49090909090907" y="11.024000000000001" width="2" height="88.976" id="tests-vaccines-8"></rect></g><g><rect x="164.92727272727274" y="21.246857142857145" width="2" height="78.75314285714285" id="tests-vaccines-9"></rect></g><g><rect x="161.36363636363637" y="22.916000000000004" width="2" height="77.084" id="tests-vaccines-10"></rect></g><g><rect x="157.8" y="30.65971428571429" width="2" height="69.34028571428571" id="tests-vaccines-11"></rect></g><g><rect x="154.23636363636365" y="39.66942857142857" width="2" height="60.33057142857143" id="tests-vaccines-12"></rect></g><g><rect x="150.6727272727273" y="81.70485714285715" width="2" height="18.29514285714285" id="tests-vaccines-13"></rect></g><g><rect x="147.1090909090909" y="67.59942857142858" width="2" height="32.400571428571425" id="tests-vaccines-14"></rect></g><g><rect x="143.54545454545453" y="56.69942857142858" width="2" height="43.30057142857142" id="tests-vaccines-15"></rect></g><g><rect x="139.9818181818182" y="98.614" width="2" height="1.3859999999999957" id="tests-vaccines-16"></rect></g><g><rect x="136.41818181818184" y="41.77028571428571" width="2" height="58.22971428571429" id="tests-vaccines-17"></rect></g><g><rect x="132.85454545454544" y="30.78142857142857" width="2" height="69.21857142857144" id="tests-vaccines-18"></rect></g><g><rect x="129.29090909090908" y="34.10771428571429" width="2" height="65.89228571428572" id="tests-vaccines-19"></rect></g><g><rect x="125.72727272727273" y="79.25342857142857" width="2" height="20.74657142857143" id="tests-vaccines-20"></rect></g><g><rect x="122.16363636363636" y="55.358285714285714" width="2" height="44.641714285714286" id="tests-vaccines-21"></rect></g><g><rect x="118.6" y="23.437714285714286" width="2" height="76.56228571428571" id="tests-vaccines-22"></rect></g><g><rect x="115.03636363636363" y="35.4" width="2" height="64.6" id="tests-vaccines-23"></rect></g><g><rect x="111.47272727272728" y="34.191428571428574" width="2" height="65.80857142857143" id="tests-vaccines-24"></rect></g><g><rect x="107.90909090909089" y="35.62714285714286" width="2" height="64.37285714285714" id="tests-vaccines-25"></rect></g><g><rect x="104.34545454545456" y="41.30685714285715" width="2" height="58.69314285714285" id="tests-vaccines-26"></rect></g><g><rect x="100.78181818181817" y="79.69828571428572" width="2" height="20.301714285714283" id="tests-vaccines-27"></rect></g><g><rect x="97.21818181818183" y="57.65285714285715" width="2" height="42.34714285714285" id="tests-vaccines-28"></rect></g><g><rect x="93.65454545454546" y="26.18971428571428" width="2" height="73.81028571428573" id="tests-vaccines-29"></rect></g><g><rect x="90.09090909090911" y="38.09657142857142" width="2" height="61.90342857142858" id="tests-vaccines-30"></rect></g><g><rect x="86.52727272727273" y="35.54828571428571" width="2" height="64.45171428571429" id="tests-vaccines-31"></rect></g><g><rect x="82.96363636363637" y="37.988285714285716" width="2" height="62.011714285714284" id="tests-vaccines-32"></rect></g><g><rect x="79.4" y="42.886" width="2" height="57.114" id="tests-vaccines-33"></rect></g><g><rect x="75.83636363636364" y="80.72571428571429" width="2" height="19.27428571428571" id="tests-vaccines-34"></rect></g><g><rect x="72.27272727272727" y="63.36999999999999" width="2" height="36.63000000000001" id="tests-vaccines-35"></rect></g><g><rect x="68.70909090909092" y="30.587714285714284" width="2" height="69.41228571428572" id="tests-vaccines-36"></rect></g><g><rect x="65.14545454545454" y="43.51971428571429" width="2" height="56.48028571428571" id="tests-vaccines-37"></rect></g><g><rect x="61.58181818181818" y="45.902" width="2" height="54.098" id="tests-vaccines-38"></rect></g><g><rect x="58.018181818181816" y="45.834857142857146" width="2" height="54.165142857142854" id="tests-vaccines-39"></rect></g><g><rect x="54.454545454545446" y="49.124" width="2" height="50.876" id="tests-vaccines-40"></rect></g><g><rect x="50.89090909090908" y="85.49342857142857" width="2" height="14.506571428571434" id="tests-vaccines-41"></rect></g><g><rect x="47.32727272727273" y="70.50485714285715" width="2" height="29.495142857142852" id="tests-vaccines-42"></rect></g><g><rect x="43.76363636363636" y="37.55571428571428" width="2" height="62.44428571428572" id="tests-vaccines-43"></rect></g><g><rect x="40.199999999999996" y="48.00114285714285" width="2" height="51.99885714285715" id="tests-vaccines-44"></rect></g><g><rect x="36.636363636363626" y="47.91314285714285" width="2" height="52.08685714285715" id="tests-vaccines-45"></rect></g><g><rect x="33.072727272727285" y="48.51914285714286" width="2" height="51.48085714285714" id="tests-vaccines-46"></rect></g><g><rect x="29.509090909090922" y="53.38285714285714" width="2" height="46.61714285714286" id="tests-vaccines-47"></rect></g><g><rect x="25.945454545454556" y="86.44571428571427" width="2" height="13.554285714285726" id="tests-vaccines-48"></rect></g><g><rect x="22.38181818181819" y="73.51628571428571" width="2" height="26.483714285714285" id="tests-vaccines-49"></rect></g><g><rect x="18.818181818181824" y="53.52657142857142" width="2" height="46.47342857142858" id="tests-vaccines-50"></rect></g><g><rect x="15.254545454545461" y="72.40171428571429" width="2" height="27.59828571428571" id="tests-vaccines-51"></rect></g><g><rect x="11.690909090909095" y="73.47114285714285" width="2" height="26.52885714285715" id="tests-vaccines-52"></rect></g><g><rect x="8.12727272727273" y="72.61257142857143" width="2" height="27.387428571428572" id="tests-vaccines-53"></rect></g><g><rect x="4.563636363636365" y="71.46085714285715" width="2" height="28.53914285714285" id="tests-vaccines-54"></rect></g><g><rect x="1" y="91.2642857142857" width="2" height="8.735714285714295" id="tests-vaccines-55"></rect></g></g><g class="fg-line tests-vaccines" fill="none" stroke="#92c5de" stroke-width="2" stroke-linecap="round"><path d="M198,39.134857142857136L194.43636363636364,38.17934693877552L190.87272727272727,36.51502040816327L187.30909090909088,35.22530612244898L183.74545454545455,34.53604081632653L180.1818181818182,34.977265306122455L176.61818181818182,35.98783673469388L173.05454545454546,36.61889795918367L169.49090909090907,39.26004081632654L165.92727272727274,45.78510204081633L162.36363636363637,56.83755102040817L158.8,59.53102040816327L155.23636363636365,59.54840816326531L151.6727272727273,58.75387755102041L148.1090909090909,58.403673469387755L144.54545454545453,56.6549387755102L140.9818181818182,51.90326530612246L137.41818181818184,42.87269387755103L133.85454545454544,41.790000000000006L130.29090909090908,42.48224489795918L126.72727272727273,43.51069387755102L123.16363636363636,43.57424489795918L119.6,43.90204081632654L116.03636363636363,44.295183673469396L112.47272727272728,44.680408163265305L108.90909090909089,44.87424489795918L105.34545454545456,45.211551020408166L101.78181818181817,45.43714285714285L98.21818181818183,45.58391836734694L94.65454545454546,46.40065306122448L91.09090909090911,47.0289387755102L87.52727272727273,47.80367346938775L83.96363636363637,49.28277551020408L80.4,50.40371428571429L76.83636363636364,51.29485714285714L73.27272727272727,51.97595918367346L69.70909090909092,52.99522448979592L66.14545454545454,53.99065306122448L62.58181818181818,54.63085714285714L59.018181818181816,54.91816326530612L55.454545454545446,55.301632653061226L51.89090909090908,55.910040816326536L48.32727272727273,56.046081632653056L44.76363636363636,56.47628571428571L41.199999999999996,58.75783673469388L37.636363636363626,62.24363265306123L34.072727272727285,65.89477551020408L30.509090909090922,69.33669387755101L26.945454545454556,71.91926530612245L23.38181818181819,72.60763265306123L19.818181818181824,73.98436734693877L16.25454545454546,75.46934693877552L12.690909090909095,75.29844897959184L9.12727272727273,75.01836734693877L5.563636363636365,74.6074693877551L2,74.31595918367347"></path></g></svg>