<svg meta="{&quot;DATA_PUBLISHED_DATE&quot;:&quot;2023-09-29&quot;,&quot;RENDER_DATE&quot;:&quot;2023-09-29&quot;,&quot;FIRST_DATE&quot;:&quot;2023-07-30&quot;,&quot;LAST_DATE&quot;:&quot;2023-09-23&quot;}" xmlns="http://www.w3.org/2000/svg" viewBox="0,0,200,100"><g transform="translate(0,0)"></g><g class="fg-bars hospitalizations-count" fill="#00183f" stroke="none"><g><rect x="197" y="33.04545454545455" width="2" height="66.95454545454545" id="hospitalizations-count-0"></rect></g><g><rect x="193.43636363636364" y="20.68181818181818" width="2" height="79.31818181818181" id="hospitalizations-count-1"></rect></g><g><rect x="189.87272727272727" y="21.499999999999996" width="2" height="78.5" id="hospitalizations-count-2"></rect></g><g><rect x="186.30909090909088" y="15.954545454545455" width="2" height="84.04545454545455" id="hospitalizations-count-3"></rect></g><g><rect x="182.74545454545455" y="14.318181818181818" width="2" height="85.68181818181819" id="hospitalizations-count-4"></rect></g><g><rect x="179.1818181818182" y="16.000000000000004" width="2" height="84" id="hospitalizations-count-5"></rect></g><g><rect x="175.61818181818182" y="13.454545454545453" width="2" height="86.54545454545455" id="hospitalizations-count-6"></rect></g><g><rect x="172.05454545454546" y="15.181818181818185" width="2" height="84.81818181818181" id="hospitalizations-count-7"></rect></g><g><rect x="168.49090909090907" y="10.909090909090914" width="2" height="89.0909090909091" id="hospitalizations-count-8"></rect></g><g><rect x="164.92727272727274" y="8.636363636363631" width="2" height="91.36363636363637" id="hospitalizations-count-9"></rect></g><g><rect x="161.36363636363637" y="8.18181818181818" width="2" height="91.81818181818181" id="hospitalizations-count-10"></rect></g><g><rect x="157.8" y="8.227272727272727" width="2" height="91.77272727272728" id="hospitalizations-count-11"></rect></g><g><rect x="154.23636363636365" y="14.04545454545455" width="2" height="85.95454545454545" id="hospitalizations-count-12"></rect></g><g><rect x="150.6727272727273" y="6.318181818181823" width="2" height="93.68181818181817" id="hospitalizations-count-13"></rect></g><g><rect x="147.1090909090909" y="12.409090909090914" width="2" height="87.5909090909091" id="hospitalizations-count-14"></rect></g><g><rect x="143.54545454545453" y="11.090909090909095" width="2" height="88.9090909090909" id="hospitalizations-count-15"></rect></g><g><rect x="139.9818181818182" y="7.8636363636363615" width="2" height="92.13636363636364" id="hospitalizations-count-16"></rect></g><g><rect x="136.41818181818184" y="7.045454545454543" width="2" height="92.95454545454545" id="hospitalizations-count-17"></rect></g><g><rect x="132.85454545454544" y="10.681818181818182" width="2" height="89.31818181818181" id="hospitalizations-count-18"></rect></g><g><rect x="129.29090909090908" y="13.318181818181818" width="2" height="86.68181818181819" id="hospitalizations-count-19"></rect></g><g><rect x="125.72727272727273" y="11.22727272727273" width="2" height="88.77272727272727" id="hospitalizations-count-20"></rect></g><g><rect x="122.16363636363636" y="15.81818181818182" width="2" height="84.18181818181819" id="hospitalizations-count-21"></rect></g><g><rect x="118.6" y="15.409090909090907" width="2" height="84.5909090909091" id="hospitalizations-count-22"></rect></g><g><rect x="115.03636363636363" y="14.863636363636367" width="2" height="85.13636363636363" id="hospitalizations-count-23"></rect></g><g><rect x="111.47272727272728" y="14.727272727272723" width="2" height="85.27272727272728" id="hospitalizations-count-24"></rect></g><g><rect x="107.90909090909089" y="16.500000000000004" width="2" height="83.5" id="hospitalizations-count-25"></rect></g><g><rect x="104.34545454545456" y="18.13636363636364" width="2" height="81.86363636363636" id="hospitalizations-count-26"></rect></g><g><rect x="100.78181818181817" y="19.63636363636364" width="2" height="80.36363636363636" id="hospitalizations-count-27"></rect></g><g><rect x="97.21818181818183" y="21.090909090909093" width="2" height="78.9090909090909" id="hospitalizations-count-28"></rect></g><g><rect x="93.65454545454546" y="19.90909090909091" width="2" height="80.0909090909091" id="hospitalizations-count-29"></rect></g><g><rect x="90.09090909090911" y="21.499999999999996" width="2" height="78.5" id="hospitalizations-count-30"></rect></g><g><rect x="86.52727272727273" y="21.636363636363633" width="2" height="78.36363636363637" id="hospitalizations-count-31"></rect></g><g><rect x="82.96363636363637" y="24.363636363636367" width="2" height="75.63636363636363" id="hospitalizations-count-32"></rect></g><g><rect x="79.4" y="25.727272727272734" width="2" height="74.27272727272727" id="hospitalizations-count-33"></rect></g><g><rect x="75.83636363636364" y="28.31818181818182" width="2" height="71.68181818181819" id="hospitalizations-count-34"></rect></g><g><rect x="72.27272727272727" y="32.13636363636364" width="2" height="67.86363636363636" id="hospitalizations-count-35"></rect></g><g><rect x="68.70909090909092" y="31.40909090909091" width="2" height="68.5909090909091" id="hospitalizations-count-36"></rect></g><g><rect x="65.14545454545454" y="30.909090909090907" width="2" height="69.0909090909091" id="hospitalizations-count-37"></rect></g><g><rect x="61.58181818181818" y="33.31818181818181" width="2" height="66.68181818181819" id="hospitalizations-count-38"></rect></g><g><rect x="58.018181818181816" y="34.13636363636363" width="2" height="65.86363636363637" id="hospitalizations-count-39"></rect></g><g><rect x="54.454545454545446" y="36.272727272727266" width="2" height="63.727272727272734" id="hospitalizations-count-40"></rect></g><g><rect x="50.89090909090908" y="38.5" width="2" height="61.5" id="hospitalizations-count-41"></rect></g><g><rect x="47.32727272727273" y="40.90909090909091" width="2" height="59.09090909090909" id="hospitalizations-count-42"></rect></g><g><rect x="43.76363636363636" y="42.50000000000001" width="2" height="57.49999999999999" id="hospitalizations-count-43"></rect></g><g><rect x="40.199999999999996" y="42.63636363636364" width="2" height="57.36363636363636" id="hospitalizations-count-44"></rect></g><g><rect x="36.636363636363626" y="42.86363636363636" width="2" height="57.13636363636364" id="hospitalizations-count-45"></rect></g><g><rect x="33.072727272727285" y="48.409090909090914" width="2" height="51.590909090909086" id="hospitalizations-count-46"></rect></g><g><rect x="29.509090909090922" y="46" width="2" height="54" id="hospitalizations-count-47"></rect></g><g><rect x="25.945454545454556" y="47" width="2" height="53" id="hospitalizations-count-48"></rect></g><g><rect x="22.38181818181819" y="50.36363636363637" width="2" height="49.63636363636363" id="hospitalizations-count-49"></rect></g><g><rect x="18.818181818181824" y="50.409090909090914" width="2" height="49.590909090909086" id="hospitalizations-count-50"></rect></g><g><rect x="15.254545454545461" y="49.409090909090914" width="2" height="50.590909090909086" id="hospitalizations-count-51"></rect></g><g><rect x="11.690909090909095" y="49.36363636363637" width="2" height="50.63636363636363" id="hospitalizations-count-52"></rect></g><g><rect x="8.12727272727273" y="50.90909090909091" width="2" height="49.09090909090909" id="hospitalizations-count-53"></rect></g><g><rect x="4.563636363636365" y="52.54545454545454" width="2" height="47.45454545454546" id="hospitalizations-count-54"></rect></g><g><rect x="1" y="53.68181818181819" width="2" height="46.31818181818181" id="hospitalizations-count-55"></rect></g></g><g class="fg-line hospitalizations-count" fill="none" stroke="#92c5de" stroke-width="2" stroke-linecap="round"><path d="M198,19.279220779220772L194.43636363636364,16.727272727272723L190.87272727272727,15.331168831168828L187.30909090909088,13.49350649350649L183.74545454545455,12.383116883116873L180.1818181818182,11.512987012987008L176.61818181818182,11.233766233766229L173.05454545454546,10.21428571428572L169.49090909090907,9.818181818181815L165.92727272727274,9.844155844155845L162.36363636363637,9.733766233766229L158.8,9.571428571428575L155.23636363636365,9.922077922077921L151.6727272727273,9.818181818181815L148.1090909090909,10.519480519480517L144.54545454545453,11.00649350649351L140.9818181818182,11.623376623376625L137.41818181818184,12.623376623376625L133.85454545454544,13.720779220779223L130.29090909090908,14.551948051948049L126.72727272727273,15.240259740259743L123.16363636363636,16.441558441558445L119.6,17.194805194805195L116.03636363636363,17.83766233766233L112.47272727272728,18.785714285714285L108.90909090909089,19.772727272727273L105.34545454545456,20.896103896103902L101.78181818181817,21.98051948051949L98.21818181818183,23.22077922077922L94.65454545454546,24.798701298701296L91.09090909090911,26.441558441558442L87.52727272727273,27.78571428571428L83.96363636363637,29.454545454545457L80.4,30.850649350649352L76.83636363636364,32.35714285714286L73.27272727272727,33.811688311688314L69.70909090909092,35.064935064935064L66.14545454545454,36.649350649350644L62.58181818181818,38.324675324675326L59.018181818181816,39.688311688311686L55.454545454545446,41.72727272727273L51.89090909090908,43.11688311688312L48.32727272727273,44.33116883116883L44.76363636363636,45.68181818181818L41.199999999999996,46.811688311688314L37.636363636363626,47.77922077922078L34.072727272727285,48.70779220779221L30.509090909090922,49.06493506493506L26.945454545454556,50L23.38181818181819,50.95454545454545L19.818181818181824,51.78571428571428L16.25454545454546,52.52597402597403L12.690909090909095,53.7012987012987L9.12727272727273,55.34415584415584L5.563636363636365,56.363636363636374L2,57.454545454545446"></path></g></svg>