<svg about="DATA_PUBLISHED_DATE:2022-01-13,RENDER_DATE:2022-01-13" xmlns="http://www.w3.org/2000/svg" viewBox="0,0,200,100"><g transform="translate(0,0)"></g><g class="fg-bars tests-vaccines" fill="#00183f" stroke="none"><g><rect x="197" y="39.196285714285715" width="2" height="60.803714285714285" id="tests-vaccines-0"></rect></g><g><rect x="193.43636363636364" y="39.784571428571425" width="2" height="60.215428571428575" id="tests-vaccines-1"></rect></g><g><rect x="189.87272727272727" y="44.59457142857143" width="2" height="55.40542857142857" id="tests-vaccines-2"></rect></g><g><rect x="186.30909090909088" y="84.986" width="2" height="15.013999999999996" id="tests-vaccines-3"></rect></g><g><rect x="182.74545454545455" y="97.83171428571428" width="2" height="2.168285714285716" id="tests-vaccines-4"></rect></g><g><rect x="179.1818181818182" y="78.88228571428571" width="2" height="21.117714285714285" id="tests-vaccines-5"></rect></g><g><rect x="175.61818181818182" y="37.62457142857143" width="2" height="62.37542857142857" id="tests-vaccines-6"></rect></g><g><rect x="172.05454545454546" y="33.09428571428571" width="2" height="66.90571428571428" id="tests-vaccines-7"></rect></g><g><rect x="168.49090909090907" y="32.55571428571429" width="2" height="67.44428571428571" id="tests-vaccines-8"></rect></g><g><rect x="164.92727272727274" y="40.504571428571424" width="2" height="59.495428571428576" id="tests-vaccines-9"></rect></g><g><rect x="161.36363636363637" y="84.45828571428571" width="2" height="15.541714285714292" id="tests-vaccines-10"></rect></g><g><rect x="157.8" y="99.7462857142857" width="2" height="0.25371428571429533" id="tests-vaccines-11"></rect></g><g><rect x="154.23636363636365" y="87.21457142857143" width="2" height="12.785428571428568" id="tests-vaccines-12"></rect></g><g><rect x="150.6727272727273" y="38.548571428571435" width="2" height="61.451428571428565" id="tests-vaccines-13"></rect></g><g><rect x="147.1090909090909" y="27.511428571428574" width="2" height="72.48857142857142" id="tests-vaccines-14"></rect></g><g><rect x="143.54545454545453" y="25.228571428571435" width="2" height="74.77142857142857" id="tests-vaccines-15"></rect></g><g><rect x="139.9818181818182" y="30.264000000000003" width="2" height="69.73599999999999" id="tests-vaccines-16"></rect></g><g><rect x="136.41818181818184" y="79.47257142857143" width="2" height="20.527428571428572" id="tests-vaccines-17"></rect></g><g><rect x="132.85454545454544" y="59.408571428571435" width="2" height="40.591428571428565" id="tests-vaccines-18"></rect></g><g><rect x="129.29090909090908" y="26.147714285714287" width="2" height="73.85228571428571" id="tests-vaccines-19"></rect></g><g><rect x="125.72727272727273" y="35.24171428571429" width="2" height="64.7582857142857" id="tests-vaccines-20"></rect></g><g><rect x="122.16363636363636" y="33.68114285714285" width="2" height="66.31885714285715" id="tests-vaccines-21"></rect></g><g><rect x="118.6" y="35.577999999999996" width="2" height="64.422" id="tests-vaccines-22"></rect></g><g><rect x="115.03636363636363" y="38.17485714285714" width="2" height="61.82514285714286" id="tests-vaccines-23"></rect></g><g><rect x="111.47272727272728" y="80.05257142857143" width="2" height="19.947428571428574" id="tests-vaccines-24"></rect></g><g><rect x="107.90909090909089" y="54.02885714285715" width="2" height="45.97114285714285" id="tests-vaccines-25"></rect></g><g><rect x="104.34545454545456" y="19.701999999999998" width="2" height="80.298" id="tests-vaccines-26"></rect></g><g><rect x="100.78181818181817" y="27.63428571428571" width="2" height="72.36571428571429" id="tests-vaccines-27"></rect></g><g><rect x="97.21818181818183" y="25.292857142857137" width="2" height="74.70714285714286" id="tests-vaccines-28"></rect></g><g><rect x="93.65454545454546" y="25.43657142857143" width="2" height="74.56342857142857" id="tests-vaccines-29"></rect></g><g><rect x="90.09090909090911" y="30.711428571428566" width="2" height="69.28857142857143" id="tests-vaccines-30"></rect></g><g><rect x="86.52727272727273" y="76.45342857142857" width="2" height="23.546571428571426" id="tests-vaccines-31"></rect></g><g><rect x="82.96363636363637" y="47.65714285714285" width="2" height="52.34285714285715" id="tests-vaccines-32"></rect></g><g><rect x="79.4" y="8.957428571428572" width="2" height="91.04257142857142" id="tests-vaccines-33"></rect></g><g><rect x="75.83636363636364" y="19.55485714285714" width="2" height="80.44514285714286" id="tests-vaccines-34"></rect></g><g><rect x="72.27272727272727" y="21.43885714285715" width="2" height="78.56114285714285" id="tests-vaccines-35"></rect></g><g><rect x="68.70909090909092" y="29.224000000000004" width="2" height="70.776" id="tests-vaccines-36"></rect></g><g><rect x="65.14545454545454" y="38.869428571428564" width="2" height="61.130571428571436" id="tests-vaccines-37"></rect></g><g><rect x="61.58181818181818" y="81.53828571428572" width="2" height="18.46171428571428" id="tests-vaccines-38"></rect></g><g><rect x="58.018181818181816" y="67.22114285714285" width="2" height="32.77885714285715" id="tests-vaccines-39"></rect></g><g><rect x="54.454545454545446" y="56.23400000000001" width="2" height="43.76599999999999" id="tests-vaccines-40"></rect></g><g><rect x="50.89090909090908" y="98.58028571428571" width="2" height="1.4197142857142921" id="tests-vaccines-41"></rect></g><g><rect x="47.32727272727273" y="41.28314285714286" width="2" height="58.71685714285714" id="tests-vaccines-42"></rect></g><g><rect x="43.76363636363636" y="30.136857142857142" width="2" height="69.86314285714286" id="tests-vaccines-43"></rect></g><g><rect x="40.199999999999996" y="33.27885714285714" width="2" height="66.72114285714287" id="tests-vaccines-44"></rect></g><g><rect x="36.636363636363626" y="78.79428571428572" width="2" height="21.20571428571428" id="tests-vaccines-45"></rect></g><g><rect x="33.072727272727285" y="54.95228571428572" width="2" height="45.04771428571428" id="tests-vaccines-46"></rect></g><g><rect x="29.509090909090922" y="22.623428571428573" width="2" height="77.37657142857142" id="tests-vaccines-47"></rect></g><g><rect x="25.945454545454556" y="34.703428571428574" width="2" height="65.29657142857143" id="tests-vaccines-48"></rect></g><g><rect x="22.38181818181819" y="33.569428571428574" width="2" height="66.43057142857143" id="tests-vaccines-49"></rect></g><g><rect x="18.818181818181824" y="35.13285714285714" width="2" height="64.86714285714285" id="tests-vaccines-50"></rect></g><g><rect x="15.254545454545461" y="40.774857142857144" width="2" height="59.225142857142856" id="tests-vaccines-51"></rect></g><g><rect x="11.690909090909095" y="79.44171428571428" width="2" height="20.558285714285716" id="tests-vaccines-52"></rect></g><g><rect x="8.12727272727273" y="57.15457142857143" width="2" height="42.84542857142857" id="tests-vaccines-53"></rect></g><g><rect x="4.563636363636365" y="25.499142857142854" width="2" height="74.50085714285714" id="tests-vaccines-54"></rect></g><g><rect x="1" y="37.39542857142857" width="2" height="62.60457142857143" id="tests-vaccines-55"></rect></g></g><g class="fg-line tests-vaccines" fill="none" stroke="#92c5de" stroke-width="2" stroke-linecap="round"><path d="M198,60.41428571428571L194.43636363636364,59.54257142857142L190.87272727272727,58.50987755102041L187.30909090909088,57.92559183673469L183.74545454545455,57.85020408163266L180.1818181818182,58.12371428571428L176.61818181818182,59.31404081632654L173.05454545454546,59.44604081632654L169.49090909090907,58.648489795918366L165.92727272727274,57.60175510204082L162.36363636363637,56.138816326530616L158.8,55.426571428571435L155.23636363636365,49.66404081632654L151.6727272727273,40.94020408163266L148.1090909090909,40.467795918367344L144.54545454545453,41.34918367346939L140.9818181818182,42.82767346938775L137.41818181818184,43.957795918367346L133.85454545454544,44.04065306122449L130.29090909090908,43.2721224489796L126.72727272727273,42.351306122448975L123.16363636363636,41.2645306122449L119.6,40.06620408163265L116.03636363636363,38.61742857142857L112.47272727272728,37.55122448979592L108.90909090909089,37.0370612244898L105.34545454545456,36.12681632653061L101.78181818181817,34.59187755102041L98.21818181818183,33.437673469387754L94.65454545454546,32.887102040816316L91.09090909090911,33.42816326530612L87.52727272727273,34.593591836734696L83.96363636363637,35.31999999999999L80.4,38.11485714285714L76.83636363636364,44.868653061224485L73.27272727272727,56.157999999999994L69.70909090909092,58.99289795918368L66.14545454545454,59.12330612244898L62.58181818181818,58.324653061224495L59.018181818181816,57.932653061224485L55.454545454545446,56.17995918367347L51.89090909090908,51.37844897959183L48.32727272727273,42.253183673469394L44.76363636363636,41.151224489795915L41.199999999999996,41.86493877551021L37.636363636363626,42.93579591836735L34.072727272727285,43.028285714285715L30.509090909090922,43.34289795918368L26.945454545454556,43.75371428571428L23.38181818181819,44.13828571428572L19.818181818181824,44.362530612244896L16.25454545454546,44.71489795918367L12.690909090909095,44.9769387755102L9.12727272727273,45.13542857142857L5.563636363636365,46.00224489795918L2,46.67677551020408"></path></g></svg>