<svg about="DATA_PUBLISHED_DATE:2021-10-10,RENDER_DATE:2021-10-10" xmlns="http://www.w3.org/2000/svg" viewBox="0,0,200,100"><g transform="translate(0,0)"></g><g class="fg-bars death-date" fill="#00183f" stroke="none"><g><rect x="197" y="36.92307692307693" width="2" height="63.07692307692307" id="death-date-0"></rect></g><g><rect x="193.43636363636364" y="33.07692307692308" width="2" height="66.92307692307692" id="death-date-1"></rect></g><g><rect x="189.87272727272727" y="27.692307692307693" width="2" height="72.3076923076923" id="death-date-2"></rect></g><g><rect x="186.30909090909088" y="29.230769230769226" width="2" height="70.76923076923077" id="death-date-3"></rect></g><g><rect x="182.74545454545455" y="26.923076923076927" width="2" height="73.07692307692307" id="death-date-4"></rect></g><g><rect x="179.1818181818182" y="12.307692307692308" width="2" height="87.6923076923077" id="death-date-5"></rect></g><g><rect x="175.61818181818182" y="17.692307692307697" width="2" height="82.3076923076923" id="death-date-6"></rect></g><g><rect x="172.05454545454546" y="22.307692307692307" width="2" height="77.6923076923077" id="death-date-7"></rect></g><g><rect x="168.49090909090907" y="19.23076923076923" width="2" height="80.76923076923077" id="death-date-8"></rect></g><g><rect x="164.92727272727274" y="17.692307692307697" width="2" height="82.3076923076923" id="death-date-9"></rect></g><g><rect x="161.36363636363637" y="7.692307692307687" width="2" height="92.3076923076923" id="death-date-10"></rect></g><g><rect x="157.8" y="29.230769230769226" width="2" height="70.76923076923077" id="death-date-11"></rect></g><g><rect x="154.23636363636365" y="11.538461538461542" width="2" height="88.46153846153845" id="death-date-12"></rect></g><g><rect x="150.6727272727273" y="4.61538461538461" width="2" height="95.38461538461539" id="death-date-13"></rect></g><g><rect x="147.1090909090909" y="19.999999999999996" width="2" height="80" id="death-date-14"></rect></g><g><rect x="143.54545454545453" y="17.692307692307697" width="2" height="82.3076923076923" id="death-date-15"></rect></g><g><rect x="139.9818181818182" y="22.307692307692307" width="2" height="77.6923076923077" id="death-date-16"></rect></g><g><rect x="136.41818181818184" y="28.46153846153846" width="2" height="71.53846153846155" id="death-date-17"></rect></g><g><rect x="132.85454545454544" y="0.7692307692307665" width="2" height="99.23076923076923" id="death-date-18"></rect></g><g><rect x="129.29090909090908" y="12.307692307692308" width="2" height="87.6923076923077" id="death-date-19"></rect></g><g><rect x="125.72727272727273" y="14.615384615384619" width="2" height="85.38461538461539" id="death-date-20"></rect></g><g><rect x="122.16363636363636" y="12.307692307692308" width="2" height="87.6923076923077" id="death-date-21"></rect></g><g><rect x="118.6" y="13.076923076923075" width="2" height="86.92307692307692" id="death-date-22"></rect></g><g><rect x="115.03636363636363" y="25.384615384615383" width="2" height="74.61538461538461" id="death-date-23"></rect></g><g><rect x="111.47272727272728" y="27.692307692307693" width="2" height="72.3076923076923" id="death-date-24"></rect></g><g><rect x="107.90909090909089" y="22.307692307692307" width="2" height="77.6923076923077" id="death-date-25"></rect></g><g><rect x="104.34545454545456" y="30.000000000000004" width="2" height="70" id="death-date-26"></rect></g><g><rect x="100.78181818181817" y="26.923076923076927" width="2" height="73.07692307692307" id="death-date-27"></rect></g><g><rect x="97.21818181818183" y="32.30769230769231" width="2" height="67.6923076923077" id="death-date-28"></rect></g><g><rect x="93.65454545454546" y="19.999999999999996" width="2" height="80" id="death-date-29"></rect></g><g><rect x="90.09090909090911" y="17.692307692307697" width="2" height="82.3076923076923" id="death-date-30"></rect></g><g><rect x="86.52727272727273" y="44.61538461538461" width="2" height="55.38461538461539" id="death-date-31"></rect></g><g><rect x="82.96363636363637" y="43.07692307692308" width="2" height="56.92307692307692" id="death-date-32"></rect></g><g><rect x="79.4" y="15.384615384615385" width="2" height="84.61538461538461" id="death-date-33"></rect></g><g><rect x="75.83636363636364" y="43.07692307692308" width="2" height="56.92307692307692" id="death-date-34"></rect></g><g><rect x="72.27272727272727" y="46.15384615384615" width="2" height="53.84615384615385" id="death-date-35"></rect></g><g><rect x="68.70909090909092" y="45.38461538461539" width="2" height="54.61538461538461" id="death-date-36"></rect></g><g><rect x="65.14545454545454" y="46.15384615384615" width="2" height="53.84615384615385" id="death-date-37"></rect></g><g><rect x="61.58181818181818" y="45.38461538461539" width="2" height="54.61538461538461" id="death-date-38"></rect></g><g><rect x="58.018181818181816" y="56.92307692307692" width="2" height="43.07692307692308" id="death-date-39"></rect></g><g><rect x="54.454545454545446" y="57.692307692307686" width="2" height="42.307692307692314" id="death-date-40"></rect></g><g><rect x="50.89090909090908" y="60.769230769230774" width="2" height="39.230769230769226" id="death-date-41"></rect></g><g><rect x="47.32727272727273" y="64.61538461538461" width="2" height="35.38461538461539" id="death-date-42"></rect></g><g><rect x="43.76363636363636" y="59.23076923076923" width="2" height="40.76923076923077" id="death-date-43"></rect></g><g><rect x="40.199999999999996" y="60" width="2" height="40" id="death-date-44"></rect></g><g><rect x="36.636363636363626" y="75.38461538461539" width="2" height="24.615384615384613" id="death-date-45"></rect></g><g><rect x="33.072727272727285" y="62.30769230769231" width="2" height="37.69230769230769" id="death-date-46"></rect></g><g><rect x="29.509090909090922" y="80.76923076923077" width="2" height="19.230769230769226" id="death-date-47"></rect></g><g><rect x="25.945454545454556" y="73.84615384615385" width="2" height="26.153846153846146" id="death-date-48"></rect></g><g><rect x="22.38181818181819" y="74.61538461538461" width="2" height="25.384615384615387" id="death-date-49"></rect></g><g><rect x="18.818181818181824" y="74.61538461538461" width="2" height="25.384615384615387" id="death-date-50"></rect></g><g><rect x="15.254545454545461" y="80" width="2" height="20" id="death-date-51"></rect></g><g><rect x="11.690909090909095" y="79.23076923076923" width="2" height="20.769230769230774" id="death-date-52"></rect></g><g><rect x="8.12727272727273" y="81.53846153846153" width="2" height="18.461538461538467" id="death-date-53"></rect></g><g><rect x="4.563636363636365" y="72.3076923076923" width="2" height="27.692307692307693" id="death-date-54"></rect></g><g><rect x="1" y="77.6923076923077" width="2" height="22.307692307692307" id="death-date-55"></rect></g></g><g class="fg-line death-date" fill="none" stroke="#92c5de" stroke-width="2" stroke-linecap="round"><path d="M198,26.26373626373626L194.43636363636364,24.17582417582418L190.87272727272727,22.197802197802197L187.30909090909088,20.769230769230774L183.74545454545455,17.692307692307697L180.1818181818182,18.021978021978025L176.61818181818182,17.912087912087916L173.05454545454546,16.043956043956044L169.49090909090907,15.714285714285714L165.92727272727274,15.494505494505495L162.36363636363637,16.153846153846153L158.8,19.12087912087912L155.23636363636365,15.054945054945057L151.6727272727273,15.164835164835155L148.1090909090909,16.59340659340659L144.54545454545453,15.494505494505495L140.9818181818182,14.835164835164838L137.41818181818184,15.274725274725276L133.85454545454544,15.164835164835155L130.29090909090908,18.241758241758234L126.72727272727273,20.769230769230774L123.16363636363636,22.527472527472536L119.6,25.384615384615383L116.03636363636363,26.37362637362638L112.47272727272728,25.274725274725274L108.90909090909089,27.692307692307693L105.34545454545456,30.65934065934066L101.78181818181817,28.57142857142857L98.21818181818183,30.87912087912088L94.65454545454546,32.857142857142854L91.09090909090911,36.48351648351649L87.52727272727273,40.54945054945055L83.96363636363637,40.65934065934066L80.4,42.63736263736264L76.83636363636364,48.681318681318686L73.27272727272727,51.208791208791204L69.70909090909092,53.84615384615385L66.14545454545454,55.824175824175825L62.58181818181818,57.802197802197796L59.018181818181816,62.08791208791209L55.454545454545446,62.857142857142854L51.89090909090908,66.15384615384615L48.32727272727273,68.02197802197803L44.76363636363636,69.45054945054945L41.199999999999996,71.64835164835165L37.636363636363626,74.50549450549451L34.072727272727285,75.05494505494505L30.509090909090922,77.80219780219781L26.945454545454556,76.59340659340658L23.38181818181819,77.14285714285714L19.818181818181824,78.68131868131869L16.25454545454546,79.45054945054945L12.690909090909095,79.67032967032968L9.12727272727273,81.42857142857143L5.563636363636365,81.64835164835165L2,83.51648351648352"></path></g></svg>