<svg about="DATA_PUBLISHED_DATE:2022-01-26,RENDER_DATE:2022-01-27" xmlns="http://www.w3.org/2000/svg" viewBox="0,0,200,100"><g transform="translate(0,0)"></g><g class="fg-bars death-date" fill="#00183f" stroke="none"><g><rect x="197" y="19.999999999999996" width="2" height="80" id="death-date-0"></rect></g><g><rect x="193.43636363636364" y="42.22222222222223" width="2" height="57.77777777777777" id="death-date-1"></rect></g><g><rect x="189.87272727272727" y="45.55555555555556" width="2" height="54.44444444444444" id="death-date-2"></rect></g><g><rect x="186.30909090909088" y="35.55555555555555" width="2" height="64.44444444444446" id="death-date-3"></rect></g><g><rect x="182.74545454545455" y="50" width="2" height="50" id="death-date-4"></rect></g><g><rect x="179.1818181818182" y="44.44444444444444" width="2" height="55.55555555555556" id="death-date-5"></rect></g><g><rect x="175.61818181818182" y="57.77777777777777" width="2" height="42.22222222222223" id="death-date-6"></rect></g><g><rect x="172.05454545454546" y="35.55555555555555" width="2" height="64.44444444444446" id="death-date-7"></rect></g><g><rect x="168.49090909090907" y="52.222222222222214" width="2" height="47.777777777777786" id="death-date-8"></rect></g><g><rect x="164.92727272727274" y="47.77777777777777" width="2" height="52.22222222222223" id="death-date-9"></rect></g><g><rect x="161.36363636363637" y="44.44444444444444" width="2" height="55.55555555555556" id="death-date-10"></rect></g><g><rect x="157.8" y="37.77777777777778" width="2" height="62.22222222222222" id="death-date-11"></rect></g><g><rect x="154.23636363636365" y="53.333333333333336" width="2" height="46.666666666666664" id="death-date-12"></rect></g><g><rect x="150.6727272727273" y="48.88888888888889" width="2" height="51.11111111111111" id="death-date-13"></rect></g><g><rect x="147.1090909090909" y="42.22222222222223" width="2" height="57.77777777777777" id="death-date-14"></rect></g><g><rect x="143.54545454545453" y="34.44444444444444" width="2" height="65.55555555555556" id="death-date-15"></rect></g><g><rect x="139.9818181818182" y="46.666666666666664" width="2" height="53.333333333333336" id="death-date-16"></rect></g><g><rect x="136.41818181818184" y="43.333333333333336" width="2" height="56.666666666666664" id="death-date-17"></rect></g><g><rect x="132.85454545454544" y="25.555555555555554" width="2" height="74.44444444444444" id="death-date-18"></rect></g><g><rect x="129.29090909090908" y="37.77777777777778" width="2" height="62.22222222222222" id="death-date-19"></rect></g><g><rect x="125.72727272727273" y="31.11111111111111" width="2" height="68.88888888888889" id="death-date-20"></rect></g><g><rect x="122.16363636363636" y="36.66666666666667" width="2" height="63.33333333333333" id="death-date-21"></rect></g><g><rect x="118.6" y="43.333333333333336" width="2" height="56.666666666666664" id="death-date-22"></rect></g><g><rect x="115.03636363636363" y="42.22222222222223" width="2" height="57.77777777777777" id="death-date-23"></rect></g><g><rect x="111.47272727272728" y="47.77777777777777" width="2" height="52.22222222222223" id="death-date-24"></rect></g><g><rect x="107.90909090909089" y="40" width="2" height="60" id="death-date-25"></rect></g><g><rect x="104.34545454545456" y="41.11111111111111" width="2" height="58.88888888888889" id="death-date-26"></rect></g><g><rect x="100.78181818181817" y="31.11111111111111" width="2" height="68.88888888888889" id="death-date-27"></rect></g><g><rect x="97.21818181818183" y="54.44444444444445" width="2" height="45.55555555555555" id="death-date-28"></rect></g><g><rect x="93.65454545454546" y="42.22222222222223" width="2" height="57.77777777777777" id="death-date-29"></rect></g><g><rect x="90.09090909090911" y="26.66666666666667" width="2" height="73.33333333333333" id="death-date-30"></rect></g><g><rect x="86.52727272727273" y="33.333333333333336" width="2" height="66.66666666666666" id="death-date-31"></rect></g><g><rect x="82.96363636363637" y="25.555555555555554" width="2" height="74.44444444444444" id="death-date-32"></rect></g><g><rect x="79.4" y="33.333333333333336" width="2" height="66.66666666666666" id="death-date-33"></rect></g><g><rect x="75.83636363636364" y="47.77777777777777" width="2" height="52.22222222222223" id="death-date-34"></rect></g><g><rect x="72.27272727272727" y="21.111111111111114" width="2" height="78.88888888888889" id="death-date-35"></rect></g><g><rect x="68.70909090909092" y="46.666666666666664" width="2" height="53.333333333333336" id="death-date-36"></rect></g><g><rect x="65.14545454545454" y="45.55555555555556" width="2" height="54.44444444444444" id="death-date-37"></rect></g><g><rect x="61.58181818181818" y="32.22222222222222" width="2" height="67.77777777777777" id="death-date-38"></rect></g><g><rect x="58.018181818181816" y="44.44444444444444" width="2" height="55.55555555555556" id="death-date-39"></rect></g><g><rect x="54.454545454545446" y="36.66666666666667" width="2" height="63.33333333333333" id="death-date-40"></rect></g><g><rect x="50.89090909090908" y="22.22222222222222" width="2" height="77.77777777777777" id="death-date-41"></rect></g><g><rect x="47.32727272727273" y="27.77777777777778" width="2" height="72.22222222222223" id="death-date-42"></rect></g><g><rect x="43.76363636363636" y="26.66666666666667" width="2" height="73.33333333333333" id="death-date-43"></rect></g><g><rect x="40.199999999999996" y="28.888888888888886" width="2" height="71.11111111111111" id="death-date-44"></rect></g><g><rect x="36.636363636363626" y="11.111111111111116" width="2" height="88.88888888888889" id="death-date-45"></rect></g><g><rect x="33.072727272727285" y="28.888888888888886" width="2" height="71.11111111111111" id="death-date-46"></rect></g><g><rect x="29.509090909090922" y="15.555555555555555" width="2" height="84.44444444444444" id="death-date-47"></rect></g><g><rect x="25.945454545454556" y="38.888888888888886" width="2" height="61.111111111111114" id="death-date-48"></rect></g><g><rect x="22.38181818181819" y="13.33333333333333" width="2" height="86.66666666666667" id="death-date-49"></rect></g><g><rect x="18.818181818181824" y="28.888888888888886" width="2" height="71.11111111111111" id="death-date-50"></rect></g><g><rect x="15.254545454545461" y="35.55555555555555" width="2" height="64.44444444444446" id="death-date-51"></rect></g><g><rect x="11.690909090909095" y="22.22222222222222" width="2" height="77.77777777777777" id="death-date-52"></rect></g><g><rect x="8.12727272727273" y="9.999999999999998" width="2" height="90" id="death-date-53"></rect></g><g><rect x="4.563636363636365" y="28.888888888888886" width="2" height="71.11111111111111" id="death-date-54"></rect></g><g><rect x="1" y="11.111111111111116" width="2" height="88.88888888888889" id="death-date-55"></rect></g></g><g class="fg-line death-date" fill="none" stroke="#92c5de" stroke-width="2" stroke-linecap="round"><path d="M198,42.22222222222223L194.43636363636364,44.44444444444444L190.87272727272727,45.87301587301587L187.30909090909088,46.19047619047619L183.74545454545455,47.460317460317455L180.1818181818182,45.714285714285715L176.61818181818182,46.98412698412698L173.05454545454546,45.714285714285715L169.49090909090907,46.666666666666664L165.92727272727274,44.12698412698413L162.36363636363637,43.96825396825397L158.8,43.80952380952381L155.23636363636365,42.063492063492056L151.6727272727273,39.841269841269835L148.1090909090909,37.301587301587304L144.54545454545453,36.5079365079365L140.9818181818182,37.77777777777778L137.41818181818184,37.142857142857146L133.85454545454544,37.77777777777778L130.29090909090908,39.841269841269835L126.72727272727273,40.317460317460316L123.16363636363636,40.317460317460316L119.6,42.85714285714286L116.03636363636363,42.6984126984127L112.47272727272728,40.476190476190474L108.90909090909089,38.41269841269841L105.34545454545456,36.349206349206355L101.78181818181817,35.238095238095234L98.21818181818183,37.61904761904762L94.65454545454546,32.857142857142854L91.09090909090911,33.492063492063494L87.52727272727273,36.19047619047618L83.96363636363637,36.03174603174604L80.4,38.73015873015873L76.83636363636364,39.2063492063492L73.27272727272727,35.55555555555555L69.70909090909092,36.5079365079365L66.14545454545454,33.65079365079365L62.58181818181818,31.26984126984127L59.018181818181816,28.253968253968253L55.454545454545446,26.03174603174604L51.89090909090908,23.015873015873012L48.32727272727273,25.396825396825406L44.76363636363636,23.33333333333333L41.199999999999996,23.650793650793656L37.636363636363626,24.603174603174594L34.072727272727285,26.190476190476186L30.509090909090922,23.492063492063487L26.945454545454556,25.396825396825406L23.38181818181819,21.42857142857143L19.818181818181824,22.698412698412696L16.25454545454546,19.999999999999996L12.690909090909095,18.253968253968257L9.12727272727273,18.88888888888889L5.563636363636365,21.746031746031747L2,20.952380952380956"></path></g></svg>