<svg meta="{&quot;DATA_PUBLISHED_DATE&quot;:&quot;2022-08-05&quot;,&quot;RENDER_DATE&quot;:&quot;2022-08-05&quot;,&quot;FIRST_DATE&quot;:&quot;2022-06-02&quot;,&quot;LAST_DATE&quot;:&quot;2022-07-27&quot;}" xmlns="http://www.w3.org/2000/svg" viewBox="0,0,200,100"><g transform="translate(0,0)"></g><g class="fg-bars cases-ep" fill="#00183f" stroke="none"><g><rect x="197" y="42.40714285714285" width="2" height="57.59285714285715" id="cases-ep-0"></rect></g><g><rect x="193.43636363636364" y="34.989285714285714" width="2" height="65.01071428571429" id="cases-ep-1"></rect></g><g><rect x="189.87272727272727" y="25.78571428571429" width="2" height="74.21428571428571" id="cases-ep-2"></rect></g><g><rect x="186.30909090909088" y="65.79285714285714" width="2" height="34.207142857142856" id="cases-ep-3"></rect></g><g><rect x="182.74545454545455" y="60.475" width="2" height="39.525" id="cases-ep-4"></rect></g><g><rect x="179.1818181818182" y="39.70357142857143" width="2" height="60.29642857142857" id="cases-ep-5"></rect></g><g><rect x="175.61818181818182" y="37.621428571428574" width="2" height="62.378571428571426" id="cases-ep-6"></rect></g><g><rect x="172.05454545454546" y="31.578571428571433" width="2" height="68.42142857142856" id="cases-ep-7"></rect></g><g><rect x="168.49090909090907" y="25.71428571428571" width="2" height="74.28571428571429" id="cases-ep-8"></rect></g><g><rect x="164.92727272727274" y="17.300000000000004" width="2" height="82.69999999999999" id="cases-ep-9"></rect></g><g><rect x="161.36363636363637" y="61.71071428571429" width="2" height="38.28928571428571" id="cases-ep-10"></rect></g><g><rect x="157.8" y="54.85" width="2" height="45.15" id="cases-ep-11"></rect></g><g><rect x="154.23636363636365" y="34.357142857142854" width="2" height="65.64285714285714" id="cases-ep-12"></rect></g><g><rect x="150.6727272727273" y="30.07142857142857" width="2" height="69.92857142857143" id="cases-ep-13"></rect></g><g><rect x="147.1090909090909" y="25.382142857142853" width="2" height="74.61785714285715" id="cases-ep-14"></rect></g><g><rect x="143.54545454545453" y="20.999999999999996" width="2" height="79" id="cases-ep-15"></rect></g><g><rect x="139.9818181818182" y="13.564285714285717" width="2" height="86.43571428571428" id="cases-ep-16"></rect></g><g><rect x="136.41818181818184" y="58.996428571428574" width="2" height="41.003571428571426" id="cases-ep-17"></rect></g><g><rect x="132.85454545454544" y="52.482142857142854" width="2" height="47.517857142857146" id="cases-ep-18"></rect></g><g><rect x="129.29090909090908" y="28.646428571428572" width="2" height="71.35357142857143" id="cases-ep-19"></rect></g><g><rect x="125.72727272727273" y="25.13214285714286" width="2" height="74.86785714285713" id="cases-ep-20"></rect></g><g><rect x="122.16363636363636" y="18.55714285714286" width="2" height="81.44285714285714" id="cases-ep-21"></rect></g><g><rect x="118.6" y="3.857142857142859" width="2" height="96.14285714285714" id="cases-ep-22"></rect></g><g><rect x="115.03636363636363" y="65.26071428571429" width="2" height="34.739285714285714" id="cases-ep-23"></rect></g><g><rect x="111.47272727272728" y="65.56785714285715" width="2" height="34.43214285714285" id="cases-ep-24"></rect></g><g><rect x="107.90909090909089" y="59.84642857142857" width="2" height="40.15357142857143" id="cases-ep-25"></rect></g><g><rect x="104.34545454545456" y="36.75714285714285" width="2" height="63.24285714285715" id="cases-ep-26"></rect></g><g><rect x="100.78181818181817" y="35.53928571428572" width="2" height="64.46071428571429" id="cases-ep-27"></rect></g><g><rect x="97.21818181818183" y="29.646428571428572" width="2" height="70.35357142857143" id="cases-ep-28"></rect></g><g><rect x="93.65454545454546" y="25.110714285714288" width="2" height="74.8892857142857" id="cases-ep-29"></rect></g><g><rect x="90.09090909090911" y="19.739285714285714" width="2" height="80.26071428571429" id="cases-ep-30"></rect></g><g><rect x="86.52727272727273" y="61.635714285714286" width="2" height="38.364285714285714" id="cases-ep-31"></rect></g><g><rect x="82.96363636363637" y="58.71785714285714" width="2" height="41.28214285714286" id="cases-ep-32"></rect></g><g><rect x="79.4" y="41.900000000000006" width="2" height="58.099999999999994" id="cases-ep-33"></rect></g><g><rect x="75.83636363636364" y="38.83571428571428" width="2" height="61.16428571428572" id="cases-ep-34"></rect></g><g><rect x="72.27272727272727" y="36.517857142857146" width="2" height="63.482142857142854" id="cases-ep-35"></rect></g><g><rect x="68.70909090909092" y="30.735714285714288" width="2" height="69.2642857142857" id="cases-ep-36"></rect></g><g><rect x="65.14545454545454" y="35.046428571428564" width="2" height="64.95357142857144" id="cases-ep-37"></rect></g><g><rect x="61.58181818181818" y="66.88928571428572" width="2" height="33.11071428571428" id="cases-ep-38"></rect></g><g><rect x="58.018181818181816" y="63.18928571428572" width="2" height="36.81071428571428" id="cases-ep-39"></rect></g><g><rect x="54.454545454545446" y="46.875" width="2" height="53.125" id="cases-ep-40"></rect></g><g><rect x="50.89090909090908" y="45.43571428571429" width="2" height="54.56428571428571" id="cases-ep-41"></rect></g><g><rect x="47.32727272727273" y="41.68571428571428" width="2" height="58.31428571428572" id="cases-ep-42"></rect></g><g><rect x="43.76363636363636" y="39.86428571428572" width="2" height="60.13571428571428" id="cases-ep-43"></rect></g><g><rect x="40.199999999999996" y="34.02142857142857" width="2" height="65.97857142857143" id="cases-ep-44"></rect></g><g><rect x="36.636363636363626" y="68.20357142857144" width="2" height="31.796428571428564" id="cases-ep-45"></rect></g><g><rect x="33.072727272727285" y="64.78928571428571" width="2" height="35.21071428571429" id="cases-ep-46"></rect></g><g><rect x="29.509090909090922" y="45.11785714285714" width="2" height="54.88214285714286" id="cases-ep-47"></rect></g><g><rect x="25.945454545454556" y="43.578571428571436" width="2" height="56.421428571428564" id="cases-ep-48"></rect></g><g><rect x="22.38181818181819" y="36.88214285714285" width="2" height="63.11785714285715" id="cases-ep-49"></rect></g><g><rect x="18.818181818181824" y="32.760714285714286" width="2" height="67.23928571428571" id="cases-ep-50"></rect></g><g><rect x="15.254545454545461" y="24.878571428571426" width="2" height="75.12142857142857" id="cases-ep-51"></rect></g><g><rect x="11.690909090909095" y="65.47142857142858" width="2" height="34.528571428571425" id="cases-ep-52"></rect></g><g><rect x="8.12727272727273" y="62.05714285714286" width="2" height="37.94285714285714" id="cases-ep-53"></rect></g><g><rect x="4.563636363636365" y="41.453571428571436" width="2" height="58.546428571428564" id="cases-ep-54"></rect></g><g><rect x="1" y="35.53214285714286" width="2" height="64.46785714285714" id="cases-ep-55"></rect></g></g><g class="fg-line cases-ep" fill="none" stroke="#92c5de" stroke-width="2" stroke-linecap="round"><path d="M198,43.825L194.43636363636364,42.2780612244898L190.87272727272727,40.953061224489794L187.30909090909088,39.74081632653061L183.74545454545455,39.157653061224494L180.1818181818182,38.35408163265307L176.61818181818182,37.59030612244898L173.05454545454546,36.51173469387755L169.49090909090907,35.6265306122449L165.92727272727274,34.95306122448979L162.36363636363637,34.41938775510205L158.8,34.031632653061216L155.23636363636365,33.693367346938786L151.6727272727273,32.87755102040817L148.1090909090909,32.17193877551021L144.54545454545453,31.19693877551021L140.9818181818182,28.747959183673476L137.41818181818184,36.13316326530612L133.85454545454544,37.071938775510205L130.29090909090908,38.12397959183673L126.72727272727273,39.282653061224494L123.16363636363636,40.76938775510205L119.6,42.35357142857142L116.03636363636363,45.38979591836735L112.47272727272728,38.88673469387754L108.90909090909089,38.324999999999996L105.34545454545456,38.163775510204076L101.78181818181817,38.8984693877551L98.21818181818183,39.369387755102046L94.65454545454546,40.351020408163265L91.09090909090911,41.15459183673469L87.52727272727273,43.34132653061224L83.96363636363637,44.09183673469388L80.4,44.73061224489796L76.83636363636364,45.441326530612244L73.27272727272727,46.384183673469394L69.70909090909092,47.12244897959184L66.14545454545454,48.4265306122449L62.58181818181818,48.28010204081632L59.018181818181816,48.46785714285714L55.454545454545446,48.69642857142858L51.89090909090908,48.44540816326531L48.32727272727273,48.18010204081632L44.76363636363636,47.493877551020404L41.199999999999996,46.47908163265306L37.636363636363626,45.17295918367347L34.072727272727285,44.78265306122449L30.509090909090922,44.3923469387755L26.945454545454556,43.868877551020404L23.38181818181819,42.719387755102034L19.818181818181824,41.17091836734693L16.25454545454546,38.55867346938776L12.690909090909095,44.88928571428571L9.12727272727273,45.79795918367346L5.563636363636365,46.68010204081633L2,47.81683673469388"></path></g></svg>