<svg about="DATA_PUBLISHED_DATE:2022-01-07,RENDER_DATE:2022-01-09" xmlns="http://www.w3.org/2000/svg" viewBox="0,0,200,100"><g transform="translate(0,0)"></g><g class="fg-bars cases-ep" fill="#00183f" stroke="none"><g><rect x="197" y="3.30125" width="2" height="96.69875" id="cases-ep-0"></rect></g><g><rect x="193.43636363636364" y="5.713749999999996" width="2" height="94.28625000000001" id="cases-ep-1"></rect></g><g><rect x="189.87272727272727" y="20.28375" width="2" height="79.71625" id="cases-ep-2"></rect></g><g><rect x="186.30909090909088" y="63.997499999999995" width="2" height="36.002500000000005" id="cases-ep-3"></rect></g><g><rect x="182.74545454545455" y="85.9075" width="2" height="14.092500000000001" id="cases-ep-4"></rect></g><g><rect x="179.1818181818182" y="76.07875" width="2" height="23.92125" id="cases-ep-5"></rect></g><g><rect x="175.61818181818182" y="62.365" width="2" height="37.635" id="cases-ep-6"></rect></g><g><rect x="172.05454545454546" y="62.568749999999994" width="2" height="37.431250000000006" id="cases-ep-7"></rect></g><g><rect x="168.49090909090907" y="67.565" width="2" height="32.435" id="cases-ep-8"></rect></g><g><rect x="164.92727272727274" y="72.39750000000001" width="2" height="27.602499999999992" id="cases-ep-9"></rect></g><g><rect x="161.36363636363637" y="87.27875" width="2" height="12.721249999999998" id="cases-ep-10"></rect></g><g><rect x="157.8" y="88.2125" width="2" height="11.787499999999994" id="cases-ep-11"></rect></g><g><rect x="154.23636363636365" y="86.42625" width="2" height="13.573750000000004" id="cases-ep-12"></rect></g><g><rect x="150.6727272727273" y="87.47125" width="2" height="12.528750000000002" id="cases-ep-13"></rect></g><g><rect x="147.1090909090909" y="87.64375" width="2" height="12.356250000000003" id="cases-ep-14"></rect></g><g><rect x="143.54545454545453" y="89.64750000000001" width="2" height="10.352499999999992" id="cases-ep-15"></rect></g><g><rect x="139.9818181818182" y="89.00625" width="2" height="10.993750000000006" id="cases-ep-16"></rect></g><g><rect x="136.41818181818184" y="94.56875" width="2" height="5.431250000000006" id="cases-ep-17"></rect></g><g><rect x="132.85454545454544" y="94.71625" width="2" height="5.283749999999998" id="cases-ep-18"></rect></g><g><rect x="129.29090909090908" y="92.85375" width="2" height="7.146249999999995" id="cases-ep-19"></rect></g><g><rect x="125.72727272727273" y="92.85125" width="2" height="7.148750000000007" id="cases-ep-20"></rect></g><g><rect x="122.16363636363636" y="91.9475" width="2" height="8.052499999999995" id="cases-ep-21"></rect></g><g><rect x="118.6" y="91.8975" width="2" height="8.102500000000006" id="cases-ep-22"></rect></g><g><rect x="115.03636363636363" y="90.77875" width="2" height="9.221249999999998" id="cases-ep-23"></rect></g><g><rect x="111.47272727272728" y="95.2075" width="2" height="4.792500000000004" id="cases-ep-24"></rect></g><g><rect x="107.90909090909089" y="94.83875" width="2" height="5.1612499999999955" id="cases-ep-25"></rect></g><g><rect x="104.34545454545456" y="92.38250000000001" width="2" height="7.617499999999993" id="cases-ep-26"></rect></g><g><rect x="100.78181818181817" y="92.1825" width="2" height="7.8174999999999955" id="cases-ep-27"></rect></g><g><rect x="97.21818181818183" y="90.7175" width="2" height="9.282499999999999" id="cases-ep-28"></rect></g><g><rect x="93.65454545454546" y="91.19375" width="2" height="8.806250000000006" id="cases-ep-29"></rect></g><g><rect x="90.09090909090911" y="89.74625" width="2" height="10.253749999999997" id="cases-ep-30"></rect></g><g><rect x="86.52727272727273" y="94.52000000000001" width="2" height="5.47999999999999" id="cases-ep-31"></rect></g><g><rect x="82.96363636363637" y="94.74375" width="2" height="5.256249999999994" id="cases-ep-32"></rect></g><g><rect x="79.4" y="94.585" width="2" height="5.415000000000006" id="cases-ep-33"></rect></g><g><rect x="75.83636363636364" y="97.16" width="2" height="2.8400000000000034" id="cases-ep-34"></rect></g><g><rect x="72.27272727272727" y="94.2075" width="2" height="5.792500000000004" id="cases-ep-35"></rect></g><g><rect x="68.70909090909092" y="93.97875" width="2" height="6.021249999999995" id="cases-ep-36"></rect></g><g><rect x="65.14545454545454" y="93.50125" width="2" height="6.498750000000001" id="cases-ep-37"></rect></g><g><rect x="61.58181818181818" y="96.3325" width="2" height="3.667500000000004" id="cases-ep-38"></rect></g><g><rect x="58.018181818181816" y="95.93374999999999" width="2" height="4.066250000000011" id="cases-ep-39"></rect></g><g><rect x="54.454545454545446" y="94.28125" width="2" height="5.71875" id="cases-ep-40"></rect></g><g><rect x="50.89090909090908" y="94.17875" width="2" height="5.821250000000006" id="cases-ep-41"></rect></g><g><rect x="47.32727272727273" y="93.58625" width="2" height="6.413749999999993" id="cases-ep-42"></rect></g><g><rect x="43.76363636363636" y="93.25750000000001" width="2" height="6.742499999999993" id="cases-ep-43"></rect></g><g><rect x="40.199999999999996" y="92.0475" width="2" height="7.952500000000001" id="cases-ep-44"></rect></g><g><rect x="36.636363636363626" y="95.95625" width="2" height="4.043750000000003" id="cases-ep-45"></rect></g><g><rect x="33.072727272727285" y="95.71499999999999" width="2" height="4.285000000000011" id="cases-ep-46"></rect></g><g><rect x="29.509090909090922" y="93.66" width="2" height="6.340000000000003" id="cases-ep-47"></rect></g><g><rect x="25.945454545454556" y="94.6275" width="2" height="5.372500000000002" id="cases-ep-48"></rect></g><g><rect x="22.38181818181819" y="93.00874999999999" width="2" height="6.991250000000008" id="cases-ep-49"></rect></g><g><rect x="18.818181818181824" y="92.66875" width="2" height="7.331249999999997" id="cases-ep-50"></rect></g><g><rect x="15.254545454545461" y="91.73" width="2" height="8.269999999999996" id="cases-ep-51"></rect></g><g><rect x="11.690909090909095" y="95.685" width="2" height="4.314999999999998" id="cases-ep-52"></rect></g><g><rect x="8.12727272727273" y="95.43125" width="2" height="4.568749999999994" id="cases-ep-53"></rect></g><g><rect x="4.563636363636365" y="93.10875" width="2" height="6.891249999999999" id="cases-ep-54"></rect></g><g><rect x="1" y="92.50874999999999" width="2" height="7.491250000000008" id="cases-ep-55"></rect></g></g><g class="fg-line cases-ep" fill="none" stroke="#92c5de" stroke-width="2" stroke-linecap="round"><path d="M198,45.37821428571428L194.43636363636364,53.845L190.87272727272727,62.68089285714286L187.30909090909088,70.12571428571428L183.74545454545455,73.45160714285714L180.1818181818182,73.78089285714286L176.61818181818182,75.25910714285715L173.05454545454546,78.84571428571428L169.49090909090907,82.42785714285714L165.92727272727274,85.58250000000001L162.36363636363637,87.95517857142858L158.8,88.99660714285714L155.23636363636365,89.92571428571429L151.6727272727273,90.84392857142856L148.1090909090909,91.6125L144.54545454545453,92.22732142857143L140.9818181818182,92.54875L137.41818181818184,92.80196428571429L133.85454545454544,92.8932142857143L130.29090909090908,92.91071428571429L126.72727272727273,92.84339285714286L123.16363636363636,92.74785714285714L119.6,92.57214285714286L116.03636363636363,92.47160714285714L112.47272727272728,92.32410714285714L108.90909090909089,92.22589285714285L105.34545454545456,92.21232142857143L101.78181818181817,92.52696428571429L98.21818181818183,93.23803571428572L94.65454545454546,93.73660714285714L91.09090909090911,94.13446428571429L87.52727272727273,94.67089285714285L83.96363636363637,94.92982142857143L80.4,95.09982142857143L76.83636363636364,95.05642857142857L73.27272727272727,94.63053571428571L69.70909090909092,94.54178571428571L66.14545454545454,94.43875L62.58181818181818,94.23107142857144L59.018181818181816,94.17732142857143L55.454545454545446,94.14607142857143L51.89090909090908,94.05732142857143L48.32727272727273,94.12142857142857L44.76363636363636,94.03892857142857L41.199999999999996,93.95482142857144L37.636363636363626,93.90946428571428L34.072727272727285,93.87071428571429L30.509090909090922,93.83017857142858L26.945454545454556,93.75142857142858L23.38181818181819,93.44875L19.818181818181824,93.30982142857142L16.25454545454546,93.20660714285715L12.690909090909095,93.07535714285714L9.12727272727273,93.07142857142857L5.563636363636365,93.02357142857143L2,93.00589285714285"></path></g></svg>