<svg about="DATA_PUBLISHED_DATE:2021-11-13,RENDER_DATE:2021-11-13" xmlns="http://www.w3.org/2000/svg" viewBox="0,0,200,100"><g transform="translate(0,0)"></g><g class="fg-bars tests-vaccines" fill="#00183f" stroke="none"><g><rect x="197" y="3.123750000000003" width="2" height="96.87625" id="tests-vaccines-0"></rect></g><g><rect x="193.43636363636364" y="20.592083333333335" width="2" height="79.40791666666667" id="tests-vaccines-1"></rect></g><g><rect x="189.87272727272727" y="24.173750000000005" width="2" height="75.82624999999999" id="tests-vaccines-2"></rect></g><g><rect x="186.30909090909088" y="23.18583333333334" width="2" height="76.81416666666667" id="tests-vaccines-3"></rect></g><g><rect x="182.74545454545455" y="27.743333333333332" width="2" height="72.25666666666666" id="tests-vaccines-4"></rect></g><g><rect x="179.1818181818182" y="79.235" width="2" height="20.765" id="tests-vaccines-5"></rect></g><g><rect x="175.61818181818182" y="58.1925" width="2" height="41.8075" id="tests-vaccines-6"></rect></g><g><rect x="172.05454545454546" y="11.402083333333335" width="2" height="88.59791666666666" id="tests-vaccines-7"></rect></g><g><rect x="168.49090909090907" y="25.995" width="2" height="74.005" id="tests-vaccines-8"></rect></g><g><rect x="164.92727272727274" y="25.81791666666666" width="2" height="74.18208333333334" id="tests-vaccines-9"></rect></g><g><rect x="161.36363636363637" y="26.59958333333333" width="2" height="73.40041666666667" id="tests-vaccines-10"></rect></g><g><rect x="157.8" y="33.30041666666666" width="2" height="66.69958333333334" id="tests-vaccines-11"></rect></g><g><rect x="154.23636363636365" y="80.60083333333333" width="2" height="19.399166666666673" id="tests-vaccines-12"></rect></g><g><rect x="150.6727272727273" y="62.169999999999995" width="2" height="37.830000000000005" id="tests-vaccines-13"></rect></g><g><rect x="147.1090909090909" y="33.638333333333335" width="2" height="66.36166666666666" id="tests-vaccines-14"></rect></g><g><rect x="143.54545454545453" y="60.48083333333334" width="2" height="39.51916666666666" id="tests-vaccines-15"></rect></g><g><rect x="139.9818181818182" y="61.89374999999999" width="2" height="38.10625000000001" id="tests-vaccines-16"></rect></g><g><rect x="136.41818181818184" y="60.564166666666665" width="2" height="39.435833333333335" id="tests-vaccines-17"></rect></g><g><rect x="132.85454545454544" y="58.911249999999995" width="2" height="41.088750000000005" id="tests-vaccines-18"></rect></g><g><rect x="129.29090909090908" y="87.37041666666667" width="2" height="12.62958333333333" id="tests-vaccines-19"></rect></g><g><rect x="125.72727272727273" y="75.72083333333333" width="2" height="24.27916666666667" id="tests-vaccines-20"></rect></g><g><rect x="122.16363636363636" y="48.016666666666666" width="2" height="51.983333333333334" id="tests-vaccines-21"></rect></g><g><rect x="118.6" y="58.392916666666665" width="2" height="41.607083333333335" id="tests-vaccines-22"></rect></g><g><rect x="115.03636363636363" y="58.939166666666665" width="2" height="41.060833333333335" id="tests-vaccines-23"></rect></g><g><rect x="111.47272727272728" y="56.361666666666665" width="2" height="43.638333333333335" id="tests-vaccines-24"></rect></g><g><rect x="107.90909090909089" y="55.72583333333334" width="2" height="44.27416666666666" id="tests-vaccines-25"></rect></g><g><rect x="104.34545454545456" y="85.2475" width="2" height="14.752499999999998" id="tests-vaccines-26"></rect></g><g><rect x="100.78181818181817" y="72.9975" width="2" height="27.002499999999998" id="tests-vaccines-27"></rect></g><g><rect x="97.21818181818183" y="40.98458333333333" width="2" height="59.01541666666667" id="tests-vaccines-28"></rect></g><g><rect x="93.65454545454546" y="51.6575" width="2" height="48.3425" id="tests-vaccines-29"></rect></g><g><rect x="90.09090909090911" y="54.86" width="2" height="45.14" id="tests-vaccines-30"></rect></g><g><rect x="86.52727272727273" y="53.809583333333336" width="2" height="46.190416666666664" id="tests-vaccines-31"></rect></g><g><rect x="82.96363636363637" y="54.03958333333334" width="2" height="45.96041666666666" id="tests-vaccines-32"></rect></g><g><rect x="79.4" y="84.13333333333333" width="2" height="15.866666666666674" id="tests-vaccines-33"></rect></g><g><rect x="75.83636363636364" y="71.87" width="2" height="28.129999999999995" id="tests-vaccines-34"></rect></g><g><rect x="72.27272727272727" y="39.85958333333334" width="2" height="60.14041666666666" id="tests-vaccines-35"></rect></g><g><rect x="68.70909090909092" y="45.25333333333334" width="2" height="54.74666666666666" id="tests-vaccines-36"></rect></g><g><rect x="65.14545454545454" y="46.422916666666666" width="2" height="53.577083333333334" id="tests-vaccines-37"></rect></g><g><rect x="61.58181818181818" y="46.22291666666667" width="2" height="53.77708333333333" id="tests-vaccines-38"></rect></g><g><rect x="58.018181818181816" y="50.634583333333325" width="2" height="49.365416666666675" id="tests-vaccines-39"></rect></g><g><rect x="54.454545454545446" y="83.64666666666668" width="2" height="16.353333333333325" id="tests-vaccines-40"></rect></g><g><rect x="50.89090909090908" y="70.56625000000001" width="2" height="29.43374999999999" id="tests-vaccines-41"></rect></g><g><rect x="47.32727272727273" y="55.00791666666667" width="2" height="44.99208333333333" id="tests-vaccines-42"></rect></g><g><rect x="43.76363636363636" y="70.07125" width="2" height="29.928749999999994" id="tests-vaccines-43"></rect></g><g><rect x="40.199999999999996" y="70.00125" width="2" height="29.99875" id="tests-vaccines-44"></rect></g><g><rect x="36.636363636363626" y="69.08833333333332" width="2" height="30.911666666666676" id="tests-vaccines-45"></rect></g><g><rect x="33.072727272727285" y="66.63166666666666" width="2" height="33.36833333333334" id="tests-vaccines-46"></rect></g><g><rect x="29.509090909090922" y="86.34958333333333" width="2" height="13.650416666666672" id="tests-vaccines-47"></rect></g><g><rect x="25.945454545454556" y="76.25500000000001" width="2" height="23.74499999999999" id="tests-vaccines-48"></rect></g><g><rect x="22.38181818181819" y="59.906666666666666" width="2" height="40.093333333333334" id="tests-vaccines-49"></rect></g><g><rect x="18.818181818181824" y="65.6425" width="2" height="34.3575" id="tests-vaccines-50"></rect></g><g><rect x="15.254545454545461" y="66.68958333333333" width="2" height="33.31041666666667" id="tests-vaccines-51"></rect></g><g><rect x="11.690909090909095" y="66.35958333333333" width="2" height="33.64041666666667" id="tests-vaccines-52"></rect></g><g><rect x="8.12727272727273" y="64.75833333333334" width="2" height="35.24166666666666" id="tests-vaccines-53"></rect></g><g><rect x="4.563636363636365" y="85.24416666666667" width="2" height="14.755833333333328" id="tests-vaccines-54"></rect></g><g><rect x="1" y="73.65791666666667" width="2" height="26.342083333333335" id="tests-vaccines-55"></rect></g></g><g class="fg-line tests-vaccines" fill="none" stroke="#92c5de" stroke-width="2" stroke-linecap="round"><path d="M198,33.74946428571429L194.43636363636364,34.93208333333333L190.87272727272727,35.70392857142858L187.30909090909088,35.93880952380953L183.74545454545455,36.4264880952381L180.1818181818182,37.22035714285714L176.61818181818182,37.41547619047619L173.05454545454546,37.98369047619047L169.49090909090907,41.160297619047626L165.92727272727274,46.08684523809523L162.36363636363637,51.240535714285706L158.8,56.09261904761904L155.23636363636365,59.75130952380952L151.6727272727273,60.71839285714285L148.1090909090909,62.654226190476194L144.54545454545453,64.7082738095238L140.9818181818182,64.41L137.41818181818184,63.98791666666666L133.85454545454544,63.38755952380952L130.29090909090908,62.932500000000005L126.72727272727273,62.629226190476196L123.16363636363636,62.24017857142856L119.6,61.23559523809523L116.03636363636363,60.27339285714286L112.47272727272728,59.69065476190476L108.90909090909089,59.326071428571424L105.34545454545456,59.085178571428564L101.78181818181817,58.9260119047619L98.21818181818183,58.764940476190475L94.65454545454546,58.60422619047618L91.09090909090911,57.689345238095235L87.52727272727273,56.484047619047615L83.96363636363637,55.400238095238095L80.4,54.91380952380952L76.83636363636364,54.84428571428571L73.27272727272727,54.65803571428572L69.70909090909092,56.82208333333334L66.14545454545454,60.36749999999999L62.58181818181818,63.73583333333334L59.018181818181816,67.00232142857143L55.454545454545446,69.28761904761905L51.89090909090908,69.67375L48.32727272727273,70.48642857142858L44.76363636363636,71.18625L41.199999999999996,70.55357142857144L37.636363636363626,70.08047619047619L34.072727272727285,69.69065476190477L30.509090909090922,69.42303571428572L26.945454545454556,69.26511904761905L23.38181818181819,68.89410714285714L19.818181818181824,68.18160714285715L16.25454545454546,67.80232142857143L12.690909090909095,67.23345238095237L9.12727272727273,66.15196428571429L5.563636363636365,70.02696428571429L2,69.86226190476191"></path></g></svg>