<svg about="DATA_PUBLISHED_DATE:2022-01-11,RENDER_DATE:2022-01-11" xmlns="http://www.w3.org/2000/svg" viewBox="0,0,200,100"><g transform="translate(0,0)"></g><g class="fg-bars tests-vaccines" fill="#00183f" stroke="none"><g><rect x="197" y="45.226" width="2" height="54.774" id="tests-vaccines-0"></rect></g><g><rect x="193.43636363636364" y="85.04485714285714" width="2" height="14.95514285714286" id="tests-vaccines-1"></rect></g><g><rect x="189.87272727272727" y="97.83771428571428" width="2" height="2.1622857142857157" id="tests-vaccines-2"></rect></g><g><rect x="186.30909090909088" y="79.02228571428572" width="2" height="20.977714285714285" id="tests-vaccines-3"></rect></g><g><rect x="182.74545454545455" y="38.21714285714286" width="2" height="61.78285714285714" id="tests-vaccines-4"></rect></g><g><rect x="179.1818181818182" y="33.742000000000004" width="2" height="66.258" id="tests-vaccines-5"></rect></g><g><rect x="175.61818181818182" y="33.40428571428572" width="2" height="66.59571428571428" id="tests-vaccines-6"></rect></g><g><rect x="172.05454545454546" y="41.618857142857145" width="2" height="58.381142857142855" id="tests-vaccines-7"></rect></g><g><rect x="168.49090909090907" y="84.76857142857142" width="2" height="15.23142857142858" id="tests-vaccines-8"></rect></g><g><rect x="164.92727272727274" y="99.74857142857144" width="2" height="0.251428571428562" id="tests-vaccines-9"></rect></g><g><rect x="161.36363636363637" y="87.43057142857143" width="2" height="12.569428571428574" id="tests-vaccines-10"></rect></g><g><rect x="157.8" y="38.92028571428572" width="2" height="61.07971428571428" id="tests-vaccines-11"></rect></g><g><rect x="154.23636363636365" y="27.948285714285714" width="2" height="72.05171428571428" id="tests-vaccines-12"></rect></g><g><rect x="150.6727272727273" y="25.65371428571429" width="2" height="74.34628571428571" id="tests-vaccines-13"></rect></g><g><rect x="147.1090909090909" y="30.642000000000003" width="2" height="69.358" id="tests-vaccines-14"></rect></g><g><rect x="143.54545454545453" y="79.78171428571429" width="2" height="20.218285714285713" id="tests-vaccines-15"></rect></g><g><rect x="139.9818181818182" y="59.846" width="2" height="40.154" id="tests-vaccines-16"></rect></g><g><rect x="136.41818181818184" y="26.591714285714286" width="2" height="73.40828571428571" id="tests-vaccines-17"></rect></g><g><rect x="132.85454545454544" y="35.41942857142857" width="2" height="64.58057142857143" id="tests-vaccines-18"></rect></g><g><rect x="129.29090909090908" y="33.87485714285714" width="2" height="66.12514285714286" id="tests-vaccines-19"></rect></g><g><rect x="125.72727272727273" y="35.67742857142857" width="2" height="64.32257142857142" id="tests-vaccines-20"></rect></g><g><rect x="122.16363636363636" y="38.35514285714285" width="2" height="61.64485714285715" id="tests-vaccines-21"></rect></g><g><rect x="118.6" y="80.31885714285714" width="2" height="19.68114285714286" id="tests-vaccines-22"></rect></g><g><rect x="115.03636363636363" y="54.22257142857143" width="2" height="45.77742857142857" id="tests-vaccines-23"></rect></g><g><rect x="111.47272727272728" y="19.896" width="2" height="80.104" id="tests-vaccines-24"></rect></g><g><rect x="107.90909090909089" y="27.815999999999995" width="2" height="72.184" id="tests-vaccines-25"></rect></g><g><rect x="104.34545454545456" y="25.38057142857143" width="2" height="74.61942857142857" id="tests-vaccines-26"></rect></g><g><rect x="100.78181818181817" y="25.511714285714284" width="2" height="74.48828571428572" id="tests-vaccines-27"></rect></g><g><rect x="97.21818181818183" y="30.839142857142853" width="2" height="69.16085714285714" id="tests-vaccines-28"></rect></g><g><rect x="93.65454545454546" y="76.55342857142857" width="2" height="23.44657142857143" id="tests-vaccines-29"></rect></g><g><rect x="90.09090909090911" y="47.83714285714286" width="2" height="52.16285714285714" id="tests-vaccines-30"></rect></g><g><rect x="86.52727272727273" y="9.190285714285718" width="2" height="90.80971428571428" id="tests-vaccines-31"></rect></g><g><rect x="82.96363636363637" y="19.724285714285717" width="2" height="80.27571428571429" id="tests-vaccines-32"></rect></g><g><rect x="79.4" y="21.50371428571428" width="2" height="78.49628571428572" id="tests-vaccines-33"></rect></g><g><rect x="75.83636363636364" y="29.287428571428574" width="2" height="70.71257142857142" id="tests-vaccines-34"></rect></g><g><rect x="72.27272727272727" y="38.952571428571424" width="2" height="61.047428571428576" id="tests-vaccines-35"></rect></g><g><rect x="68.70909090909092" y="81.54285714285714" width="2" height="18.457142857142856" id="tests-vaccines-36"></rect></g><g><rect x="65.14545454545454" y="67.23542857142857" width="2" height="32.76457142857143" id="tests-vaccines-37"></rect></g><g><rect x="61.58181818181818" y="56.27542857142858" width="2" height="43.72457142857142" id="tests-vaccines-38"></rect></g><g><rect x="58.018181818181816" y="98.58314285714286" width="2" height="1.4168571428571397" id="tests-vaccines-39"></rect></g><g><rect x="54.454545454545446" y="41.308571428571426" width="2" height="58.691428571428574" id="tests-vaccines-40"></rect></g><g><rect x="50.89090909090908" y="30.186857142857136" width="2" height="69.81314285714286" id="tests-vaccines-41"></rect></g><g><rect x="47.32727272727273" y="33.31885714285714" width="2" height="66.68114285714286" id="tests-vaccines-42"></rect></g><g><rect x="43.76363636363636" y="78.80228571428572" width="2" height="21.197714285714284" id="tests-vaccines-43"></rect></g><g><rect x="40.199999999999996" y="54.96714285714286" width="2" height="45.03285714285714" id="tests-vaccines-44"></rect></g><g><rect x="36.636363636363626" y="22.686285714285713" width="2" height="77.31371428571428" id="tests-vaccines-45"></rect></g><g><rect x="33.072727272727285" y="34.751714285714286" width="2" height="65.24828571428571" id="tests-vaccines-46"></rect></g><g><rect x="29.509090909090922" y="33.628" width="2" height="66.372" id="tests-vaccines-47"></rect></g><g><rect x="25.945454545454556" y="35.17400000000001" width="2" height="64.826" id="tests-vaccines-48"></rect></g><g><rect x="22.38181818181819" y="40.84628571428571" width="2" height="59.15371428571429" id="tests-vaccines-49"></rect></g><g><rect x="18.818181818181824" y="79.44885714285715" width="2" height="20.55114285714285" id="tests-vaccines-50"></rect></g><g><rect x="15.254545454545461" y="57.170857142857145" width="2" height="42.829142857142855" id="tests-vaccines-51"></rect></g><g><rect x="11.690909090909095" y="25.567142857142855" width="2" height="74.43285714285715" id="tests-vaccines-52"></rect></g><g><rect x="8.12727272727273" y="37.58828571428572" width="2" height="62.41171428571428" id="tests-vaccines-53"></rect></g><g><rect x="4.563636363636365" y="35.21371428571428" width="2" height="64.78628571428573" id="tests-vaccines-54"></rect></g><g><rect x="1" y="37.66085714285714" width="2" height="62.33914285714286" id="tests-vaccines-55"></rect></g></g><g class="fg-line tests-vaccines" fill="none" stroke="#92c5de" stroke-width="2" stroke-linecap="round"><path d="M198,58.92775510204083L194.43636363636364,58.41244897959184L190.87272727272727,58.37297959183674L187.30909090909088,58.64595918367347L183.74545454545455,59.847142857142856L180.1818181818182,59.947591836734695L176.61818181818182,59.11991836734693L173.05454545454546,58.01269387755102L169.49090909090907,56.44457142857142L165.92727272727274,55.73216326530612L162.36363636363637,50.03179591836735L158.8,41.3405306122449L155.23636363636365,40.84040816326531L151.6727272727273,41.687061224489796L148.1090909090909,43.119020408163266L144.54545454545453,44.22089795918368L140.9818181818182,44.29763265306123L137.41818181818184,43.494285714285716L133.85454545454544,42.53775510204082L130.29090909090908,41.45155102040816L126.72727272727273,40.238081632653056L123.16363636363636,38.78583673469388L119.6,37.71212244897959L116.03636363636363,37.17420408163265L112.47272727272728,36.26200000000001L108.90909090909089,34.732612244897965L105.34545454545456,33.57665306122449L101.78181818181817,33.02281632653062L98.21818181818183,33.56220408163265L94.65454545454546,34.72126530612245L91.09090909090911,35.43404081632654L87.52727272727273,38.20522448979592L83.96363636363637,44.93167346938775L80.4,56.197224489795914L76.83636363636364,59.026489795918366L73.27272727272727,59.154979591836735L69.70909090909092,58.35016326530612L66.14545454545454,57.958653061224496L62.58181818181818,56.20604081632654L59.018181818181816,51.40759183673469L55.454545454545446,42.28881632653061L51.89090909090908,41.19159183673469L48.32727272727273,41.904040816326535L44.76363636363636,42.97938775510204L41.199999999999996,43.07175510204082L37.636363636363626,43.38657142857143L34.072727272727285,43.79812244897959L30.509090909090922,44.20334693877551L26.945454545454556,44.429877551020404L23.38181818181819,44.78514285714286L19.818181818181824,45.04036734693877L16.25454545454546,45.19869387755102L12.690909090909095,46.06526530612245L9.12727272727273,46.73677551020409L5.563636363636365,47.537959183673465L2,49.03465306122449"></path></g></svg>