<svg meta="{&quot;DATA_PUBLISHED_DATE&quot;:&quot;2022-09-29&quot;,&quot;RENDER_DATE&quot;:&quot;2022-09-29&quot;,&quot;FIRST_DATE&quot;:&quot;2022-07-28&quot;,&quot;LAST_DATE&quot;:&quot;2022-09-21&quot;}" xmlns="http://www.w3.org/2000/svg" viewBox="0,0,200,100"><g transform="translate(0,0)"></g><g class="fg-bars tests-vaccines" fill="#00183f" stroke="none"><g><rect x="197" y="9.27" width="2" height="90.73" id="tests-vaccines-0"></rect></g><g><rect x="193.43636363636364" y="18.317000000000007" width="2" height="81.68299999999999" id="tests-vaccines-1"></rect></g><g><rect x="189.87272727272727" y="16.349000000000004" width="2" height="83.651" id="tests-vaccines-2"></rect></g><g><rect x="186.30909090909088" y="77.113" width="2" height="22.887" id="tests-vaccines-3"></rect></g><g><rect x="182.74545454545455" y="57.065999999999995" width="2" height="42.934000000000005" id="tests-vaccines-4"></rect></g><g><rect x="179.1818181818182" y="0.17399999999999638" width="2" height="99.82600000000001" id="tests-vaccines-5"></rect></g><g><rect x="175.61818181818182" y="22.999000000000002" width="2" height="77.001" id="tests-vaccines-6"></rect></g><g><rect x="172.05454545454546" y="19.779000000000003" width="2" height="80.221" id="tests-vaccines-7"></rect></g><g><rect x="168.49090909090907" y="28.598000000000003" width="2" height="71.402" id="tests-vaccines-8"></rect></g><g><rect x="164.92727272727274" y="23.597999999999995" width="2" height="76.402" id="tests-vaccines-9"></rect></g><g><rect x="161.36363636363637" y="75.783" width="2" height="24.217" id="tests-vaccines-10"></rect></g><g><rect x="157.8" y="60.646" width="2" height="39.354" id="tests-vaccines-11"></rect></g><g><rect x="154.23636363636365" y="26.995" width="2" height="73.005" id="tests-vaccines-12"></rect></g><g><rect x="150.6727272727273" y="53.04299999999999" width="2" height="46.95700000000001" id="tests-vaccines-13"></rect></g><g><rect x="147.1090909090909" y="52.589" width="2" height="47.411" id="tests-vaccines-14"></rect></g><g><rect x="143.54545454545453" y="72.31" width="2" height="27.689999999999998" id="tests-vaccines-15"></rect></g><g><rect x="139.9818181818182" y="98.818" width="2" height="1.1820000000000022" id="tests-vaccines-16"></rect></g><g><rect x="136.41818181818184" y="93.309" width="2" height="6.6910000000000025" id="tests-vaccines-17"></rect></g><g><rect x="132.85454545454544" y="90.499" width="2" height="9.501000000000005" id="tests-vaccines-18"></rect></g><g><rect x="129.29090909090908" y="87.359" width="2" height="12.641000000000005" id="tests-vaccines-19"></rect></g><g><rect x="125.72727272727273" y="89.434" width="2" height="10.566000000000003" id="tests-vaccines-20"></rect></g><g><rect x="122.16363636363636" y="83.75" width="2" height="16.25" id="tests-vaccines-21"></rect></g><g><rect x="118.6" y="80.569" width="2" height="19.430999999999997" id="tests-vaccines-22"></rect></g><g><rect x="115.03636363636363" y="81.28299999999999" width="2" height="18.717000000000013" id="tests-vaccines-23"></rect></g><g><rect x="111.47272727272728" y="94.613" width="2" height="5.3870000000000005" id="tests-vaccines-24"></rect></g><g><rect x="107.90909090909089" y="87.954" width="2" height="12.046000000000006" id="tests-vaccines-25"></rect></g><g><rect x="104.34545454545456" y="73.214" width="2" height="26.786" id="tests-vaccines-26"></rect></g><g><rect x="100.78181818181817" y="78.31099999999999" width="2" height="21.689000000000007" id="tests-vaccines-27"></rect></g><g><rect x="97.21818181818183" y="76.991" width="2" height="23.009" id="tests-vaccines-28"></rect></g><g><rect x="93.65454545454546" y="77.557" width="2" height="22.442999999999998" id="tests-vaccines-29"></rect></g><g><rect x="90.09090909090911" y="77.857" width="2" height="22.143" id="tests-vaccines-30"></rect></g><g><rect x="86.52727272727273" y="94.415" width="2" height="5.584999999999994" id="tests-vaccines-31"></rect></g><g><rect x="82.96363636363637" y="87.155" width="2" height="12.844999999999999" id="tests-vaccines-32"></rect></g><g><rect x="79.4" y="68.363" width="2" height="31.637" id="tests-vaccines-33"></rect></g><g><rect x="75.83636363636364" y="74.264" width="2" height="25.736000000000004" id="tests-vaccines-34"></rect></g><g><rect x="72.27272727272727" y="73.44500000000001" width="2" height="26.554999999999993" id="tests-vaccines-35"></rect></g><g><rect x="68.70909090909092" y="73.655" width="2" height="26.345" id="tests-vaccines-36"></rect></g><g><rect x="65.14545454545454" y="72.914" width="2" height="27.086" id="tests-vaccines-37"></rect></g><g><rect x="61.58181818181818" y="92.816" width="2" height="7.1839999999999975" id="tests-vaccines-38"></rect></g><g><rect x="58.018181818181816" y="83.438" width="2" height="16.561999999999998" id="tests-vaccines-39"></rect></g><g><rect x="54.454545454545446" y="62.251999999999995" width="2" height="37.748000000000005" id="tests-vaccines-40"></rect></g><g><rect x="50.89090909090908" y="75.895" width="2" height="24.105000000000004" id="tests-vaccines-41"></rect></g><g><rect x="47.32727272727273" y="76.593" width="2" height="23.406999999999996" id="tests-vaccines-42"></rect></g><g><rect x="43.76363636363636" y="67.582" width="2" height="32.418000000000006" id="tests-vaccines-43"></rect></g><g><rect x="40.199999999999996" y="68.057" width="2" height="31.942999999999998" id="tests-vaccines-44"></rect></g><g><rect x="36.636363636363626" y="91.595" width="2" height="8.405000000000001" id="tests-vaccines-45"></rect></g><g><rect x="33.072727272727285" y="80.69800000000001" width="2" height="19.301999999999992" id="tests-vaccines-46"></rect></g><g><rect x="29.509090909090922" y="58.26" width="2" height="41.74" id="tests-vaccines-47"></rect></g><g><rect x="25.945454545454556" y="64.72" width="2" height="35.28" id="tests-vaccines-48"></rect></g><g><rect x="22.38181818181819" y="63.578" width="2" height="36.422" id="tests-vaccines-49"></rect></g><g><rect x="18.818181818181824" y="64.19900000000001" width="2" height="35.80099999999999" id="tests-vaccines-50"></rect></g><g><rect x="15.254545454545461" y="65.814" width="2" height="34.18600000000001" id="tests-vaccines-51"></rect></g><g><rect x="11.690909090909095" y="91.035" width="2" height="8.965000000000003" id="tests-vaccines-52"></rect></g><g><rect x="8.12727272727273" y="78.167" width="2" height="21.833" id="tests-vaccines-53"></rect></g><g><rect x="4.563636363636365" y="50.37199999999999" width="2" height="49.62800000000001" id="tests-vaccines-54"></rect></g><g><rect x="1" y="58.159000000000006" width="2" height="41.840999999999994" id="tests-vaccines-55"></rect></g></g><g class="fg-line tests-vaccines" fill="none" stroke="#92c5de" stroke-width="2" stroke-linecap="round"><path d="M198,28.755428571428567L194.43636363636364,30.256714285714292L190.87272727272727,31.72542857142856L187.30909090909088,32.760999999999996L183.74545454545455,32.571000000000005L180.1818181818182,33.082428571428565L176.61818181818182,36.914L173.05454545454546,41.205999999999996L169.49090909090907,45.893142857142855L165.92727272727274,52.137714285714274L162.36363636363637,62.88342857142857L158.8,65.38714285714285L155.23636363636365,69.65185714285714L151.6727272727273,78.27528571428572L148.1090909090909,83.474L144.54545454545453,87.92557142857143L140.9818181818182,89.10542857142858L137.41818181818184,86.60042857142857L133.85454545454544,86.78671428571428L130.29090909090908,86.42314285714285L126.72727272727273,84.40242857142857L123.16363636363636,82.81342857142857L119.6,81.84785714285714L116.03636363636363,81.41757142857142L112.47272727272728,80.92814285714286L108.90909090909089,80.89985714285714L105.34545454545456,80.78571428571428L101.78181818181817,80.09271428571428L98.21818181818183,79.51457142857143L94.65454545454546,79.008L91.09090909090911,78.45057142857142L87.52727272727273,77.74442857142857L83.96363636363637,77.51599999999999L80.4,76.985L76.83636363636364,76.112L73.27272727272727,76.345L69.70909090909092,76.79471428571428L66.14545454545454,75.92714285714285L62.58181818181818,75.23328571428571L59.018181818181816,75.05885714285714L55.454545454545446,74.66742857142857L51.89090909090908,74.09714285714286L48.32727272727273,72.50071428571428L44.76363636363636,70.64142857142856L41.199999999999996,70.15814285714286L37.636363636363626,69.83771428571428L34.072727272727285,69.75771428571429L30.509090909090922,69.39614285714286L26.945454545454556,68.26928571428572L23.38181818181819,67.332L19.818181818181824,66.41157142857142L16.25454545454546,65.21742857142857L12.690909090909095,63.995714285714286L9.12727272727273,63.51971428571428L5.563636363636365,62.480999999999995L2,60.87914285714285"></path></g></svg>