<svg about="DATA_PUBLISHED_DATE:2021-12-04,RENDER_DATE:2021-12-04" xmlns="http://www.w3.org/2000/svg" viewBox="0,0,200,100"><g transform="translate(0,0)"></g><g class="fg-bars tests-vaccines" fill="#00183f" stroke="none"><g><rect x="197" y="47.11964285714285" width="2" height="52.88035714285715" id="tests-vaccines-0"></rect></g><g><rect x="193.43636363636364" y="98.32214285714286" width="2" height="1.6778571428571354" id="tests-vaccines-1"></rect></g><g><rect x="189.87272727272727" y="29.39142857142857" width="2" height="70.60857142857142" id="tests-vaccines-2"></rect></g><g><rect x="186.30909090909088" y="15.981785714285712" width="2" height="84.0182142857143" id="tests-vaccines-3"></rect></g><g><rect x="182.74545454545455" y="19.704285714285717" width="2" height="80.29571428571428" id="tests-vaccines-4"></rect></g><g><rect x="179.1818181818182" y="74.73642857142858" width="2" height="25.263571428571424" id="tests-vaccines-5"></rect></g><g><rect x="175.61818181818182" y="45.66214285714286" width="2" height="54.33785714285714" id="tests-vaccines-6"></rect></g><g><rect x="172.05454545454546" y="6.817499999999999" width="2" height="93.1825" id="tests-vaccines-7"></rect></g><g><rect x="168.49090909090907" y="21.52321428571429" width="2" height="78.47678571428571" id="tests-vaccines-8"></rect></g><g><rect x="164.92727272727274" y="18.964642857142856" width="2" height="81.03535714285715" id="tests-vaccines-9"></rect></g><g><rect x="161.36363636363637" y="20.367857142857137" width="2" height="79.63214285714287" id="tests-vaccines-10"></rect></g><g><rect x="157.8" y="27.657857142857146" width="2" height="72.34214285714285" id="tests-vaccines-11"></rect></g><g><rect x="154.23636363636365" y="74.92714285714285" width="2" height="25.072857142857146" id="tests-vaccines-12"></rect></g><g><rect x="150.6727272727273" y="47.65142857142857" width="2" height="52.34857142857143" id="tests-vaccines-13"></rect></g><g><rect x="147.1090909090909" y="8.696785714285715" width="2" height="91.30321428571429" id="tests-vaccines-14"></rect></g><g><rect x="143.54545454545453" y="23.376428571428576" width="2" height="76.62357142857142" id="tests-vaccines-15"></rect></g><g><rect x="139.9818181818182" y="20.365357142857142" width="2" height="79.63464285714286" id="tests-vaccines-16"></rect></g><g><rect x="136.41818181818184" y="22.92857142857143" width="2" height="77.07142857142857" id="tests-vaccines-17"></rect></g><g><rect x="132.85454545454544" y="28.935714285714287" width="2" height="71.06428571428572" id="tests-vaccines-18"></rect></g><g><rect x="129.29090909090908" y="76.13714285714286" width="2" height="23.862857142857138" id="tests-vaccines-19"></rect></g><g><rect x="125.72727272727273" y="54.513571428571424" width="2" height="45.486428571428576" id="tests-vaccines-20"></rect></g><g><rect x="122.16363636363636" y="13.924642857142855" width="2" height="86.07535714285714" id="tests-vaccines-21"></rect></g><g><rect x="118.6" y="30.044285714285714" width="2" height="69.9557142857143" id="tests-vaccines-22"></rect></g><g><rect x="115.03636363636363" y="32.82964285714286" width="2" height="67.17035714285714" id="tests-vaccines-23"></rect></g><g><rect x="111.47272727272728" y="32.589999999999996" width="2" height="67.41" id="tests-vaccines-24"></rect></g><g><rect x="107.90909090909089" y="36.70321428571428" width="2" height="63.29678571428572" id="tests-vaccines-25"></rect></g><g><rect x="104.34545454545456" y="81.92928571428571" width="2" height="18.07071428571429" id="tests-vaccines-26"></rect></g><g><rect x="100.78181818181817" y="63.287142857142854" width="2" height="36.712857142857146" id="tests-vaccines-27"></rect></g><g><rect x="97.21818181818183" y="22.28785714285715" width="2" height="77.71214285714285" id="tests-vaccines-28"></rect></g><g><rect x="93.65454545454546" y="35.221785714285716" width="2" height="64.77821428571428" id="tests-vaccines-29"></rect></g><g><rect x="90.09090909090911" y="35.17107142857143" width="2" height="64.82892857142858" id="tests-vaccines-30"></rect></g><g><rect x="86.52727272727273" y="35.99142857142857" width="2" height="64.00857142857143" id="tests-vaccines-31"></rect></g><g><rect x="82.96363636363637" y="41.89678571428571" width="2" height="58.10321428571429" id="tests-vaccines-32"></rect></g><g><rect x="79.4" y="83.10107142857143" width="2" height="16.89892857142857" id="tests-vaccines-33"></rect></g><g><rect x="75.83636363636364" y="66.99857142857142" width="2" height="33.001428571428576" id="tests-vaccines-34"></rect></g><g><rect x="72.27272727272727" y="42.082142857142856" width="2" height="57.917857142857144" id="tests-vaccines-35"></rect></g><g><rect x="68.70909090909092" y="65.63357142857143" width="2" height="34.36642857142857" id="tests-vaccines-36"></rect></g><g><rect x="65.14545454545454" y="66.96892857142858" width="2" height="33.03107142857142" id="tests-vaccines-37"></rect></g><g><rect x="61.58181818181818" y="65.90571428571428" width="2" height="34.09428571428572" id="tests-vaccines-38"></rect></g><g><rect x="58.018181818181816" y="64.48821428571428" width="2" height="35.51178571428572" id="tests-vaccines-39"></rect></g><g><rect x="54.454545454545446" y="89.10785714285714" width="2" height="10.892142857142858" id="tests-vaccines-40"></rect></g><g><rect x="50.89090909090908" y="78.99607142857144" width="2" height="21.00392857142856" id="tests-vaccines-41"></rect></g><g><rect x="47.32727272727273" y="55.06214285714286" width="2" height="44.93785714285714" id="tests-vaccines-42"></rect></g><g><rect x="43.76363636363636" y="64.10178571428571" width="2" height="35.89821428571429" id="tests-vaccines-43"></rect></g><g><rect x="40.199999999999996" y="64.51750000000001" width="2" height="35.48249999999999" id="tests-vaccines-44"></rect></g><g><rect x="36.636363636363626" y="62.323571428571434" width="2" height="37.676428571428566" id="tests-vaccines-45"></rect></g><g><rect x="33.072727272727285" y="61.847857142857144" width="2" height="38.152142857142856" id="tests-vaccines-46"></rect></g><g><rect x="29.509090909090922" y="87.28821428571429" width="2" height="12.71178571428571" id="tests-vaccines-47"></rect></g><g><rect x="25.945454545454556" y="76.70142857142856" width="2" height="23.298571428571435" id="tests-vaccines-48"></rect></g><g><rect x="22.38181818181819" y="49.07928571428572" width="2" height="50.92071428571428" id="tests-vaccines-49"></rect></g><g><rect x="18.818181818181824" y="58.253928571428574" width="2" height="41.746071428571426" id="tests-vaccines-50"></rect></g><g><rect x="15.254545454545461" y="61.04464285714286" width="2" height="38.95535714285714" id="tests-vaccines-51"></rect></g><g><rect x="11.690909090909095" y="60.19928571428572" width="2" height="39.80071428571428" id="tests-vaccines-52"></rect></g><g><rect x="8.12727272727273" y="60.4125" width="2" height="39.5875" id="tests-vaccines-53"></rect></g><g><rect x="4.563636363636365" y="86.31964285714285" width="2" height="13.680357142857147" id="tests-vaccines-54"></rect></g><g><rect x="1" y="75.73214285714286" width="2" height="24.26785714285714" id="tests-vaccines-55"></rect></g></g><g class="fg-line tests-vaccines" fill="none" stroke="#92c5de" stroke-width="2" stroke-linecap="round"><path d="M198,47.273979591836735L194.43636363636364,41.51653061224489L190.87272727272727,30.545255102040812L187.30909090909088,29.055714285714284L183.74545454545455,29.682295918367352L180.1818181818182,30.818520408163263L176.61818181818182,30.845765306122452L173.05454545454546,31.129948979591838L169.49090909090907,31.398418367346935L165.92727272727274,31.663163265306117L162.36363636363637,31.863265306122457L158.8,32.22908163265307L155.23636363636365,32.41163265306122L151.6727272727273,32.58448979591837L148.1090909090909,33.56479591836735L144.54545454545453,34.31163265306122L140.9818181818182,35.26418367346938L137.41818181818184,37.04479591836735L133.85454545454544,38.425L130.29090909090908,39.534642857142856L126.72727272727273,40.36209183673469L123.16363636363636,41.615459183673465L119.6,42.810204081632655L116.03636363636363,43.5498469387755L112.47272727272728,43.88433673469388L108.90909090909089,44.37025510204082L105.34545454545456,45.11219387755102L101.78181818181817,45.27959183673469L98.21818181818183,45.80979591836735L94.65454545454546,48.63755102040817L91.09090909090911,52.98209183673469L87.52727272727273,57.52464285714285L83.96363636363637,61.798112244897965L80.4,65.02545918367346L76.83636363636364,65.88357142857143L73.27272727272727,67.5975L69.70909090909092,69.45178571428572L66.14545454545454,69.23295918367347L62.58181818181818,68.88275510204082L59.018181818181816,68.37102040816326L55.454545454545446,67.99382653061224L51.89090909090908,67.7338775510204L48.32727272727273,67.40607142857142L44.76363636363636,66.55137755102041L41.199999999999996,65.71596938775511L37.636363636363626,65.21984693877552L34.072727272727285,64.9163775510204L30.509090909090922,64.71132653061224L26.945454545454556,64.57295918367348L23.38181818181819,64.43448979591837L19.818181818181824,64.29581632653061L16.25454545454546,63.53056122448979L12.690909090909095,62.504642857142855L9.12727272727273,61.580561224489806L5.563636363636365,61.17244897959184L2,61.11505102040816"></path></g></svg>