<svg about="DATA_PUBLISHED_DATE:2021-12-10,RENDER_DATE:2021-12-10" xmlns="http://www.w3.org/2000/svg" viewBox="0,0,200,100"><g transform="translate(0,0)"></g><g class="fg-bars tests-vaccines" fill="#00183f" stroke="none"><g><rect x="197" y="4.122142857142852" width="2" height="95.87785714285715" id="tests-vaccines-0"></rect></g><g><rect x="193.43636363636364" y="6.3135714285714295" width="2" height="93.68642857142856" id="tests-vaccines-1"></rect></g><g><rect x="189.87272727272727" y="15.693928571428572" width="2" height="84.30607142857143" id="tests-vaccines-2"></rect></g><g><rect x="186.30909090909088" y="26.339285714285708" width="2" height="73.66071428571429" id="tests-vaccines-3"></rect></g><g><rect x="182.74545454545455" y="77.51642857142858" width="2" height="22.483571428571423" id="tests-vaccines-4"></rect></g><g><rect x="179.1818181818182" y="60.106071428571425" width="2" height="39.893928571428575" id="tests-vaccines-5"></rect></g><g><rect x="175.61818181818182" y="46.230000000000004" width="2" height="53.769999999999996" id="tests-vaccines-6"></rect></g><g><rect x="172.05454545454546" y="98.28571428571429" width="2" height="1.7142857142857082" id="tests-vaccines-7"></rect></g><g><rect x="168.49090909090907" y="27.78178571428571" width="2" height="72.21821428571428" id="tests-vaccines-8"></rect></g><g><rect x="164.92727272727274" y="14.083214285714284" width="2" height="85.91678571428571" id="tests-vaccines-9"></rect></g><g><rect x="161.36363636363637" y="18.283928571428575" width="2" height="81.71607142857142" id="tests-vaccines-10"></rect></g><g><rect x="157.8" y="74.27321428571429" width="2" height="25.72678571428571" id="tests-vaccines-11"></rect></g><g><rect x="154.23636363636365" y="44.533928571428575" width="2" height="55.466071428571425" id="tests-vaccines-12"></rect></g><g><rect x="150.6727272727273" y="4.997857142857143" width="2" height="95.00214285714286" id="tests-vaccines-13"></rect></g><g><rect x="147.1090909090909" y="19.92892857142857" width="2" height="80.07107142857143" id="tests-vaccines-14"></rect></g><g><rect x="143.54545454545453" y="18.185714285714283" width="2" height="81.81428571428572" id="tests-vaccines-15"></rect></g><g><rect x="139.9818181818182" y="19.988571428571433" width="2" height="80.01142857142857" id="tests-vaccines-16"></rect></g><g><rect x="136.41818181818184" y="26.963928571428575" width="2" height="73.03607142857143" id="tests-vaccines-17"></rect></g><g><rect x="132.85454545454544" y="74.79571428571428" width="2" height="25.204285714285717" id="tests-vaccines-18"></rect></g><g><rect x="129.29090909090908" y="47.31142857142857" width="2" height="52.68857142857143" id="tests-vaccines-19"></rect></g><g><rect x="125.72727272727273" y="8.181428571428572" width="2" height="91.81857142857143" id="tests-vaccines-20"></rect></g><g><rect x="122.16363636363636" y="23.050000000000004" width="2" height="76.94999999999999" id="tests-vaccines-21"></rect></g><g><rect x="118.6" y="19.735000000000003" width="2" height="80.265" id="tests-vaccines-22"></rect></g><g><rect x="115.03636363636363" y="22.682857142857138" width="2" height="77.31714285714287" id="tests-vaccines-23"></rect></g><g><rect x="111.47272727272728" y="28.735714285714288" width="2" height="71.2642857142857" id="tests-vaccines-24"></rect></g><g><rect x="107.90909090909089" y="75.98428571428572" width="2" height="24.01571428571428" id="tests-vaccines-25"></rect></g><g><rect x="104.34545454545456" y="54.40392857142857" width="2" height="45.59607142857143" id="tests-vaccines-26"></rect></g><g><rect x="100.78181818181817" y="13.514999999999999" width="2" height="86.485" id="tests-vaccines-27"></rect></g><g><rect x="97.21818181818183" y="29.73607142857143" width="2" height="70.26392857142856" id="tests-vaccines-28"></rect></g><g><rect x="93.65454545454546" y="32.54642857142858" width="2" height="67.45357142857142" id="tests-vaccines-29"></rect></g><g><rect x="90.09090909090911" y="32.394999999999996" width="2" height="67.605" id="tests-vaccines-30"></rect></g><g><rect x="86.52727272727273" y="36.58392857142857" width="2" height="63.41607142857143" id="tests-vaccines-31"></rect></g><g><rect x="82.96363636363637" y="81.91285714285715" width="2" height="18.08714285714285" id="tests-vaccines-32"></rect></g><g><rect x="79.4" y="63.205357142857146" width="2" height="36.794642857142854" id="tests-vaccines-33"></rect></g><g><rect x="75.83636363636364" y="22.12642857142857" width="2" height="77.87357142857144" id="tests-vaccines-34"></rect></g><g><rect x="72.27272727272727" y="35.11964285714285" width="2" height="64.88035714285715" id="tests-vaccines-35"></rect></g><g><rect x="68.70909090909092" y="35.03535714285714" width="2" height="64.96464285714286" id="tests-vaccines-36"></rect></g><g><rect x="65.14545454545454" y="35.809642857142855" width="2" height="64.19035714285715" id="tests-vaccines-37"></rect></g><g><rect x="61.58181818181818" y="41.80321428571428" width="2" height="58.19678571428572" id="tests-vaccines-38"></rect></g><g><rect x="58.018181818181816" y="83.08464285714285" width="2" height="16.915357142857147" id="tests-vaccines-39"></rect></g><g><rect x="54.454545454545446" y="66.95964285714287" width="2" height="33.04035714285713" id="tests-vaccines-40"></rect></g><g><rect x="50.89090909090908" y="41.9975" width="2" height="58.0025" id="tests-vaccines-41"></rect></g><g><rect x="47.32727272727273" y="65.56392857142856" width="2" height="34.43607142857144" id="tests-vaccines-42"></rect></g><g><rect x="43.76363636363636" y="66.91214285714287" width="2" height="33.08785714285713" id="tests-vaccines-43"></rect></g><g><rect x="40.199999999999996" y="65.83749999999999" width="2" height="34.16250000000001" id="tests-vaccines-44"></rect></g><g><rect x="36.636363636363626" y="64.42035714285714" width="2" height="35.57964285714286" id="tests-vaccines-45"></rect></g><g><rect x="33.072727272727285" y="89.10249999999999" width="2" height="10.897500000000008" id="tests-vaccines-46"></rect></g><g><rect x="29.509090909090922" y="78.97535714285713" width="2" height="21.024642857142865" id="tests-vaccines-47"></rect></g><g><rect x="25.945454545454556" y="54.978571428571435" width="2" height="45.021428571428565" id="tests-vaccines-48"></rect></g><g><rect x="22.38181818181819" y="64.05678571428571" width="2" height="35.94321428571429" id="tests-vaccines-49"></rect></g><g><rect x="18.818181818181824" y="64.46464285714286" width="2" height="35.53535714285714" id="tests-vaccines-50"></rect></g><g><rect x="15.254545454545461" y="62.25464285714286" width="2" height="37.74535714285714" id="tests-vaccines-51"></rect></g><g><rect x="11.690909090909095" y="61.80428571428571" width="2" height="38.19571428571429" id="tests-vaccines-52"></rect></g><g><rect x="8.12727272727273" y="87.28071428571428" width="2" height="12.719285714285718" id="tests-vaccines-53"></rect></g><g><rect x="4.563636363636365" y="76.66821428571428" width="2" height="23.331785714285715" id="tests-vaccines-54"></rect></g><g><rect x="1" y="49.020357142857144" width="2" height="50.979642857142856" id="tests-vaccines-55"></rect></g></g><g class="fg-line tests-vaccines" fill="none" stroke="#92c5de" stroke-width="2" stroke-linecap="round"><path d="M198,33.76020408163265L194.43636363636364,47.21214285714286L190.87272727272727,50.2790306122449L187.30909090909088,50.048928571428576L183.74545454545455,48.89816326530612L180.1818181818182,48.43484693877551L176.61818181818182,46.21025510204082L173.05454545454546,40.319948979591835L169.49090909090907,29.126122448979597L165.92727272727274,27.75525510204082L162.36363636363637,28.598877551020408L158.8,29.838877551020403L155.23636363636365,29.913520408163265L151.6727272727273,30.31030612244897L148.1090909090909,30.765102040816327L144.54545454545453,31.210969387755107L140.9818181818182,31.43229591836735L137.41818181818184,31.81719387755102L133.85454545454544,32.070306122448976L130.29090909090908,32.24010204081632L126.72727272727273,33.253316326530616L123.16363636363636,34.01525510204082L119.6,34.97040816326531L116.03636363636363,36.800612244897955L112.47272727272728,38.188061224489786L108.90909090909089,39.30923469387755L105.34545454545456,40.15617346938776L101.78181818181817,41.413520408163265L98.21818181818183,42.64372448979592L94.65454545454546,43.41280612244898L91.09090909090911,43.768367346938774L87.52727272727273,44.25617346938775L83.96363636363637,45.00178571428572L80.4,45.16918367346939L76.83636363636364,45.705510204081634L73.27272727272727,48.54423469387754L69.70909090909092,52.89341836734693L66.14545454545454,57.44724489795918L62.58181818181818,61.73693877551021L59.018181818181816,64.96795918367346L55.454545454545446,65.8276530612245L51.89090909090908,67.54418367346939L48.32727272727273,69.39862244897958L44.76363636363636,69.18331632653062L41.199999999999996,68.83367346938776L37.636363636363626,68.32183673469387L34.072727272727285,67.94811224489796L30.509090909090922,67.68785714285714L26.945454545454556,67.35826530612246L23.38181818181819,66.50709183673469L19.818181818181824,65.67076530612245L16.25454545454546,65.16989795918367L12.690909090909095,64.8715306122449L9.12727272727273,64.66622448979591L5.563636363636365,64.5275L2,64.39061224489797"></path></g></svg>