<svg about="DATA_PUBLISHED_DATE:2021-12-11,RENDER_DATE:2021-12-11" xmlns="http://www.w3.org/2000/svg" viewBox="0,0,200,100"><g transform="translate(0,0)"></g><g class="fg-bars tests-vaccines" fill="#00183f" stroke="none"><g><rect x="197" y="13.176571428571426" width="2" height="86.82342857142858" id="tests-vaccines-0"></rect></g><g><rect x="193.43636363636364" y="23.055999999999997" width="2" height="76.944" id="tests-vaccines-1"></rect></g><g><rect x="189.87272727272727" y="24.85142857142857" width="2" height="75.14857142857143" id="tests-vaccines-2"></rect></g><g><rect x="186.30909090909088" y="32.18428571428571" width="2" height="67.8157142857143" id="tests-vaccines-3"></rect></g><g><rect x="182.74545454545455" y="40.394285714285715" width="2" height="59.605714285714285" id="tests-vaccines-4"></rect></g><g><rect x="179.1818181818182" y="81.856" width="2" height="18.144000000000005" id="tests-vaccines-5"></rect></g><g><rect x="175.61818181818182" y="68" width="2" height="32" id="tests-vaccines-6"></rect></g><g><rect x="172.05454545454546" y="56.91028571428571" width="2" height="43.08971428571429" id="tests-vaccines-7"></rect></g><g><rect x="168.49090909090907" y="98.62685714285713" width="2" height="1.3731428571428665" id="tests-vaccines-8"></rect></g><g><rect x="164.92727272727274" y="42.178285714285714" width="2" height="57.821714285714286" id="tests-vaccines-9"></rect></g><g><rect x="161.36363636363637" y="31.145428571428567" width="2" height="68.85457142857143" id="tests-vaccines-10"></rect></g><g><rect x="157.8" y="34.54942857142858" width="2" height="65.45057142857142" id="tests-vaccines-11"></rect></g><g><rect x="154.23636363636365" y="79.41342857142857" width="2" height="20.586571428571432" id="tests-vaccines-12"></rect></g><g><rect x="150.6727272727273" y="55.59914285714286" width="2" height="44.40085714285714" id="tests-vaccines-13"></rect></g><g><rect x="147.1090909090909" y="23.92142857142857" width="2" height="76.07857142857142" id="tests-vaccines-14"></rect></g><g><rect x="143.54545454545453" y="35.86828571428572" width="2" height="64.13171428571428" id="tests-vaccines-15"></rect></g><g><rect x="139.9818181818182" y="34.51828571428571" width="2" height="65.48171428571429" id="tests-vaccines-16"></rect></g><g><rect x="136.41818181818184" y="35.89457142857143" width="2" height="64.10542857142858" id="tests-vaccines-17"></rect></g><g><rect x="132.85454545454544" y="41.53828571428571" width="2" height="58.46171428571429" id="tests-vaccines-18"></rect></g><g><rect x="129.29090909090908" y="79.83200000000001" width="2" height="20.167999999999992" id="tests-vaccines-19"></rect></g><g><rect x="125.72727272727273" y="57.82971428571428" width="2" height="42.17028571428572" id="tests-vaccines-20"></rect></g><g><rect x="122.16363636363636" y="26.457428571428576" width="2" height="73.54257142857142" id="tests-vaccines-21"></rect></g><g><rect x="118.6" y="38.412857142857135" width="2" height="61.587142857142865" id="tests-vaccines-22"></rect></g><g><rect x="115.03636363636363" y="35.74914285714286" width="2" height="64.25085714285714" id="tests-vaccines-23"></rect></g><g><rect x="111.47272727272728" y="38.13171428571429" width="2" height="61.86828571428571" id="tests-vaccines-24"></rect></g><g><rect x="107.90909090909089" y="42.982" width="2" height="57.018" id="tests-vaccines-25"></rect></g><g><rect x="104.34545454545456" y="80.77685714285714" width="2" height="19.22314285714286" id="tests-vaccines-26"></rect></g><g><rect x="100.78181818181817" y="63.460857142857144" width="2" height="36.539142857142856" id="tests-vaccines-27"></rect></g><g><rect x="97.21818181818183" y="30.779142857142862" width="2" height="69.22085714285714" id="tests-vaccines-28"></rect></g><g><rect x="93.65454545454546" y="43.734571428571435" width="2" height="56.265428571428565" id="tests-vaccines-29"></rect></g><g><rect x="90.09090909090911" y="46.01971428571429" width="2" height="53.98028571428571" id="tests-vaccines-30"></rect></g><g><rect x="86.52727272727273" y="45.90142857142857" width="2" height="54.09857142857143" id="tests-vaccines-31"></rect></g><g><rect x="82.96363636363637" y="49.244571428571426" width="2" height="50.755428571428574" id="tests-vaccines-32"></rect></g><g><rect x="79.4" y="85.52714285714286" width="2" height="14.472857142857137" id="tests-vaccines-33"></rect></g><g><rect x="75.83636363636364" y="70.54942857142858" width="2" height="29.450571428571422" id="tests-vaccines-34"></rect></g><g><rect x="72.27272727272727" y="37.66542857142857" width="2" height="62.33457142857143" id="tests-vaccines-35"></rect></g><g><rect x="68.70909090909092" y="48.07457142857143" width="2" height="51.92542857142857" id="tests-vaccines-36"></rect></g><g><rect x="65.14545454545454" y="48.00457142857143" width="2" height="51.99542857142857" id="tests-vaccines-37"></rect></g><g><rect x="61.58181818181818" y="48.626000000000005" width="2" height="51.373999999999995" id="tests-vaccines-38"></rect></g><g><rect x="58.018181818181816" y="53.426857142857145" width="2" height="46.573142857142855" id="tests-vaccines-39"></rect></g><g><rect x="54.454545454545446" y="86.46085714285714" width="2" height="13.539142857142863" id="tests-vaccines-40"></rect></g><g><rect x="50.89090909090908" y="73.55571428571427" width="2" height="26.444285714285726" id="tests-vaccines-41"></rect></g><g><rect x="47.32727272727273" y="53.58228571428572" width="2" height="46.41771428571428" id="tests-vaccines-42"></rect></g><g><rect x="43.76363636363636" y="72.44457142857144" width="2" height="27.555428571428564" id="tests-vaccines-43"></rect></g><g><rect x="40.199999999999996" y="73.52114285714286" width="2" height="26.478857142857137" id="tests-vaccines-44"></rect></g><g><rect x="36.636363636363626" y="72.66085714285715" width="2" height="27.339142857142846" id="tests-vaccines-45"></rect></g><g><rect x="33.072727272727285" y="71.52942857142857" width="2" height="28.470571428571432" id="tests-vaccines-46"></rect></g><g><rect x="29.509090909090922" y="91.27828571428572" width="2" height="8.721714285714285" id="tests-vaccines-47"></rect></g><g><rect x="25.945454545454556" y="83.17742857142856" width="2" height="16.822571428571436" id="tests-vaccines-48"></rect></g><g><rect x="22.38181818181819" y="63.97857142857143" width="2" height="36.02142857142857" id="tests-vaccines-49"></rect></g><g><rect x="18.818181818181824" y="71.24085714285715" width="2" height="28.759142857142848" id="tests-vaccines-50"></rect></g><g><rect x="15.254545454545461" y="71.56628571428571" width="2" height="28.433714285714288" id="tests-vaccines-51"></rect></g><g><rect x="11.690909090909095" y="69.79571428571428" width="2" height="30.204285714285717" id="tests-vaccines-52"></rect></g><g><rect x="8.12727272727273" y="69.44085714285715" width="2" height="30.559142857142845" id="tests-vaccines-53"></rect></g><g><rect x="4.563636363636365" y="89.82342857142858" width="2" height="10.176571428571421" id="tests-vaccines-54"></rect></g><g><rect x="1" y="81.33028571428571" width="2" height="18.669714285714292" id="tests-vaccines-55"></rect></g></g><g class="fg-line tests-vaccines" fill="none" stroke="#92c5de" stroke-width="2" stroke-linecap="round"><path d="M198,40.50265306122449L194.43636363636364,46.75032653061225L190.87272727272727,57.54616326530613L187.30909090909088,60.02142857142857L183.74545454545455,59.87302040816327L180.1818181818182,59.03804081632653L176.61818181818182,58.68910204081632L173.05454545454546,56.91755102040816L169.49090909090907,52.20485714285714L165.92727272727274,43.23934693877551L162.36363636363637,42.1450612244898L158.8,42.82351020408163L155.23636363636365,43.82191836734693L151.6727272727273,43.88171428571429L148.1090909090909,44.200367346938776L144.54545454545453,44.56265306122449L140.9818181818182,44.926163265306116L137.41818181818184,45.102L133.85454545454544,45.421591836734684L130.29090909090908,45.62783673469389L126.72727272727273,45.76281632653061L123.16363636363636,46.56726530612245L119.6,47.18465306122449L116.03636363636363,47.94489795918368L112.47272727272728,49.41212244897959L108.90909090909089,50.52208163265306L105.34545454545456,51.41673469387755L101.78181818181817,52.09534693877551L98.21818181818183,53.108L94.65454545454546,54.091755102040814L91.09090909090911,54.711755102040826L87.52727272727273,54.99530612244898L83.96363636363637,55.38453061224489L80.4,55.982L76.83636363636364,56.115387755102034L73.27272727272727,56.54485714285714L69.70909090909092,58.81869387755102L66.14545454545454,62.3001224489796L62.58181818181818,65.94534693877551L59.018181818181816,69.37889795918367L55.454545454545446,71.96497959183674L51.89090909090908,72.65318367346939L48.32727272727273,74.02771428571428L44.76363636363636,75.51289795918368L41.199999999999996,75.3409387755102L37.636363636363626,75.06167346938776L34.072727272727285,74.65236734693877L30.509090909090922,74.354L26.945454545454556,74.14616326530611L23.38181818181819,73.88228571428573L19.818181818181824,73.20106122448979L16.25454545454546,72.52885714285715L12.690909090909095,72.12767346938776L9.12727272727273,71.88853061224489L5.563636363636365,71.72408163265305L2,71.61318367346938"></path></g></svg>