<svg meta="{&quot;DATA_PUBLISHED_DATE&quot;:&quot;2022-05-13&quot;,&quot;RENDER_DATE&quot;:&quot;2022-05-13&quot;,&quot;FIRST_DATE&quot;:&quot;2022-03-11&quot;,&quot;LAST_DATE&quot;:&quot;2022-05-05&quot;}" xmlns="http://www.w3.org/2000/svg" viewBox="0,0,200,100"><g transform="translate(0,0)"></g><g class="fg-bars tests-vaccines" fill="#00183f" stroke="none"><g><rect x="197" y="41.574" width="2" height="58.426" id="tests-vaccines-0"></rect></g><g><rect x="193.43636363636364" y="41.729000000000006" width="2" height="58.270999999999994" id="tests-vaccines-1"></rect></g><g><rect x="189.87272727272727" y="42.047000000000004" width="2" height="57.952999999999996" id="tests-vaccines-2"></rect></g><g><rect x="186.30909090909088" y="42.044000000000004" width="2" height="57.955999999999996" id="tests-vaccines-3"></rect></g><g><rect x="182.74545454545455" y="82.192" width="2" height="17.808000000000007" id="tests-vaccines-4"></rect></g><g><rect x="179.1818181818182" y="65.624" width="2" height="34.376000000000005" id="tests-vaccines-5"></rect></g><g><rect x="175.61818181818182" y="29.555" width="2" height="70.445" id="tests-vaccines-6"></rect></g><g><rect x="172.05454545454546" y="34.294000000000004" width="2" height="65.70599999999999" id="tests-vaccines-7"></rect></g><g><rect x="168.49090909090907" y="34.919" width="2" height="65.081" id="tests-vaccines-8"></rect></g><g><rect x="164.92727272727274" y="36.083" width="2" height="63.917" id="tests-vaccines-9"></rect></g><g><rect x="161.36363636363637" y="38.596" width="2" height="61.404" id="tests-vaccines-10"></rect></g><g><rect x="157.8" y="82.929" width="2" height="17.070999999999998" id="tests-vaccines-11"></rect></g><g><rect x="154.23636363636365" y="64.967" width="2" height="35.033" id="tests-vaccines-12"></rect></g><g><rect x="150.6727272727273" y="41.257999999999996" width="2" height="58.742000000000004" id="tests-vaccines-13"></rect></g><g><rect x="147.1090909090909" y="34.111999999999995" width="2" height="65.888" id="tests-vaccines-14"></rect></g><g><rect x="143.54545454545453" y="29.386000000000003" width="2" height="70.614" id="tests-vaccines-15"></rect></g><g><rect x="139.9818181818182" y="29.157" width="2" height="70.843" id="tests-vaccines-16"></rect></g><g><rect x="136.41818181818184" y="29.085000000000004" width="2" height="70.91499999999999" id="tests-vaccines-17"></rect></g><g><rect x="132.85454545454544" y="91.32000000000001" width="2" height="8.679999999999993" id="tests-vaccines-18"></rect></g><g><rect x="129.29090909090908" y="62.521" width="2" height="37.479" id="tests-vaccines-19"></rect></g><g><rect x="125.72727272727273" y="19.735000000000003" width="2" height="80.265" id="tests-vaccines-20"></rect></g><g><rect x="122.16363636363636" y="26.290999999999997" width="2" height="73.709" id="tests-vaccines-21"></rect></g><g><rect x="118.6" y="23.823000000000004" width="2" height="76.17699999999999" id="tests-vaccines-22"></rect></g><g><rect x="115.03636363636363" y="20.515000000000004" width="2" height="79.485" id="tests-vaccines-23"></rect></g><g><rect x="111.47272727272728" y="23.519999999999996" width="2" height="76.48" id="tests-vaccines-24"></rect></g><g><rect x="107.90909090909089" y="75.273" width="2" height="24.727000000000004" id="tests-vaccines-25"></rect></g><g><rect x="104.34545454545456" y="55.359" width="2" height="44.641" id="tests-vaccines-26"></rect></g><g><rect x="100.78181818181817" y="13.827999999999996" width="2" height="86.172" id="tests-vaccines-27"></rect></g><g><rect x="97.21818181818183" y="25.197000000000003" width="2" height="74.803" id="tests-vaccines-28"></rect></g><g><rect x="93.65454545454546" y="25.149999999999995" width="2" height="74.85000000000001" id="tests-vaccines-29"></rect></g><g><rect x="90.09090909090911" y="24.226999999999997" width="2" height="75.773" id="tests-vaccines-30"></rect></g><g><rect x="86.52727272727273" y="23.748" width="2" height="76.252" id="tests-vaccines-31"></rect></g><g><rect x="82.96363636363637" y="73.849" width="2" height="26.150999999999996" id="tests-vaccines-32"></rect></g><g><rect x="79.4" y="53.596" width="2" height="46.404" id="tests-vaccines-33"></rect></g><g><rect x="75.83636363636364" y="8.643999999999997" width="2" height="91.35600000000001" id="tests-vaccines-34"></rect></g><g><rect x="72.27272727272727" y="26.507" width="2" height="73.493" id="tests-vaccines-35"></rect></g><g><rect x="68.70909090909092" y="38.808" width="2" height="61.192" id="tests-vaccines-36"></rect></g><g><rect x="65.14545454545454" y="68.154" width="2" height="31.846000000000004" id="tests-vaccines-37"></rect></g><g><rect x="61.58181818181818" y="73.98400000000001" width="2" height="26.01599999999999" id="tests-vaccines-38"></rect></g><g><rect x="58.018181818181816" y="89.859" width="2" height="10.141000000000005" id="tests-vaccines-39"></rect></g><g><rect x="54.454545454545446" y="80.53099999999999" width="2" height="19.46900000000001" id="tests-vaccines-40"></rect></g><g><rect x="50.89090909090908" y="62.856" width="2" height="37.144" id="tests-vaccines-41"></rect></g><g><rect x="47.32727272727273" y="70.966" width="2" height="29.034000000000006" id="tests-vaccines-42"></rect></g><g><rect x="43.76363636363636" y="69.939" width="2" height="30.061000000000007" id="tests-vaccines-43"></rect></g><g><rect x="40.199999999999996" y="70.824" width="2" height="29.176000000000002" id="tests-vaccines-44"></rect></g><g><rect x="36.636363636363626" y="68.435" width="2" height="31.564999999999998" id="tests-vaccines-45"></rect></g><g><rect x="33.072727272727285" y="88.36500000000001" width="2" height="11.634999999999991" id="tests-vaccines-46"></rect></g><g><rect x="29.509090909090922" y="75.883" width="2" height="24.117000000000004" id="tests-vaccines-47"></rect></g><g><rect x="25.945454545454556" y="56.589" width="2" height="43.411" id="tests-vaccines-48"></rect></g><g><rect x="22.38181818181819" y="68.784" width="2" height="31.215999999999994" id="tests-vaccines-49"></rect></g><g><rect x="18.818181818181824" y="67.74100000000001" width="2" height="32.258999999999986" id="tests-vaccines-50"></rect></g><g><rect x="15.254545454545461" y="67.922" width="2" height="32.078" id="tests-vaccines-51"></rect></g><g><rect x="11.690909090909095" y="68.748" width="2" height="31.251999999999995" id="tests-vaccines-52"></rect></g><g><rect x="8.12727272727273" y="87.75" width="2" height="12.25" id="tests-vaccines-53"></rect></g><g><rect x="4.563636363636365" y="74.158" width="2" height="25.842" id="tests-vaccines-54"></rect></g><g><rect x="1" y="55.87599999999999" width="2" height="44.12400000000001" id="tests-vaccines-55"></rect></g></g><g class="fg-line tests-vaccines" fill="none" stroke="#92c5de" stroke-width="2" stroke-linecap="round"><path d="M198,49.25214285714286L194.43636363636364,48.21214285714286L190.87272727272727,47.239285714285714L187.30909090909088,46.38728571428572L183.74545454545455,45.89471428571428L180.1818181818182,46L176.61818181818182,45.906142857142854L173.05454545454546,47.577999999999996L169.49090909090907,47.55200000000001L165.92727272727274,46.76157142857142L162.36363636363637,45.77214285714285L158.8,44.41342857142857L155.23636363636365,45.61214285714286L151.6727272727273,45.26271428571428L148.1090909090909,42.188L144.54545454545453,41.07071428571428L140.9818181818182,40.276L137.41818181818184,39.04142857142857L133.85454545454544,38.24642857142857L130.29090909090908,35.95399999999999L126.72727272727273,34.93085714285714L123.16363636363636,34.087L119.6,33.930714285714295L116.03636363636363,34.120285714285714L112.47272727272728,34.65057142857143L108.90909090909089,34.683142857142855L105.34545454545456,34.47971428571428L101.78181818181817,34.22785714285715L98.21818181818183,33.48728571428571L94.65454545454546,33.674428571428564L91.09090909090911,35.625571428571426L87.52727272727273,41.90085714285714L83.96363636363637,49.07742857142857L80.4,51.36457142857142L76.83636363636364,55.212428571428575L73.27272727272727,62.956999999999994L69.70909090909092,69.30828571428572L66.14545454545454,73.75557142857143L62.58181818181818,74.137L59.018181818181816,73.3442857142857L55.454545454545446,73.13085714285714L51.89090909090908,72.46685714285715L48.32727272727273,71.57157142857142L44.76363636363636,71.25985714285714L41.199999999999996,70.94585714285715L37.636363636363626,70.5312857142857L34.072727272727285,70.576L30.509090909090922,70.48814285714286L26.945454545454556,70.24171428571428L23.38181818181819,70.13985714285714L19.818181818181824,69.64028571428571L16.25454545454546,69.04528571428573L12.690909090909095,68.71199999999999L9.12727272727273,68.10842857142858L5.563636363636365,67.88957142857143L2,67.29971428571429"></path></g></svg>