<svg meta="{&quot;DATA_PUBLISHED_DATE&quot;:&quot;2022-04-15&quot;,&quot;RENDER_DATE&quot;:&quot;2022-04-15&quot;,&quot;FIRST_DATE&quot;:&quot;2022-01-27&quot;,&quot;LAST_DATE&quot;:&quot;2022-03-23&quot;}" xmlns="http://www.w3.org/2000/svg" viewBox="0,0,200,100"><g transform="translate(0,0)"></g><g class="fg-bars death-date" fill="#00183f" stroke="none"><g><rect x="197" y="94.64285714285714" width="2" height="5.357142857142861" id="death-date-0"></rect></g><g><rect x="193.43636363636364" y="92.14285714285715" width="2" height="7.857142857142847" id="death-date-1"></rect></g><g><rect x="189.87272727272727" y="91.07142857142857" width="2" height="8.92857142857143" id="death-date-2"></rect></g><g><rect x="186.30909090909088" y="91.07142857142857" width="2" height="8.92857142857143" id="death-date-3"></rect></g><g><rect x="182.74545454545455" y="92.5" width="2" height="7.5" id="death-date-4"></rect></g><g><rect x="179.1818181818182" y="89.28571428571429" width="2" height="10.714285714285708" id="death-date-5"></rect></g><g><rect x="175.61818181818182" y="90" width="2" height="10" id="death-date-6"></rect></g><g><rect x="172.05454545454546" y="90.35714285714286" width="2" height="9.642857142857139" id="death-date-7"></rect></g><g><rect x="168.49090909090907" y="90" width="2" height="10" id="death-date-8"></rect></g><g><rect x="164.92727272727274" y="91.42857142857143" width="2" height="8.57142857142857" id="death-date-9"></rect></g><g><rect x="161.36363636363637" y="87.85714285714286" width="2" height="12.142857142857139" id="death-date-10"></rect></g><g><rect x="157.8" y="85.71428571428572" width="2" height="14.285714285714278" id="death-date-11"></rect></g><g><rect x="154.23636363636365" y="83.57142857142857" width="2" height="16.42857142857143" id="death-date-12"></rect></g><g><rect x="150.6727272727273" y="82.14285714285714" width="2" height="17.85714285714286" id="death-date-13"></rect></g><g><rect x="147.1090909090909" y="81.42857142857143" width="2" height="18.57142857142857" id="death-date-14"></rect></g><g><rect x="143.54545454545453" y="83.21428571428572" width="2" height="16.785714285714278" id="death-date-15"></rect></g><g><rect x="139.9818181818182" y="81.78571428571428" width="2" height="18.214285714285722" id="death-date-16"></rect></g><g><rect x="136.41818181818184" y="80" width="2" height="20" id="death-date-17"></rect></g><g><rect x="132.85454545454544" y="78.57142857142857" width="2" height="21.42857142857143" id="death-date-18"></rect></g><g><rect x="129.29090909090908" y="82.5" width="2" height="17.5" id="death-date-19"></rect></g><g><rect x="125.72727272727273" y="75.71428571428571" width="2" height="24.285714285714292" id="death-date-20"></rect></g><g><rect x="122.16363636363636" y="80" width="2" height="20" id="death-date-21"></rect></g><g><rect x="118.6" y="75" width="2" height="25" id="death-date-22"></rect></g><g><rect x="115.03636363636363" y="72.14285714285714" width="2" height="27.85714285714286" id="death-date-23"></rect></g><g><rect x="111.47272727272728" y="77.85714285714286" width="2" height="22.14285714285714" id="death-date-24"></rect></g><g><rect x="107.90909090909089" y="71.42857142857143" width="2" height="28.57142857142857" id="death-date-25"></rect></g><g><rect x="104.34545454545456" y="71.07142857142857" width="2" height="28.92857142857143" id="death-date-26"></rect></g><g><rect x="100.78181818181817" y="73.21428571428572" width="2" height="26.785714285714278" id="death-date-27"></rect></g><g><rect x="97.21818181818183" y="63.57142857142857" width="2" height="36.42857142857143" id="death-date-28"></rect></g><g><rect x="93.65454545454546" y="64.28571428571428" width="2" height="35.71428571428572" id="death-date-29"></rect></g><g><rect x="90.09090909090911" y="59.285714285714285" width="2" height="40.714285714285715" id="death-date-30"></rect></g><g><rect x="86.52727272727273" y="55.714285714285715" width="2" height="44.285714285714285" id="death-date-31"></rect></g><g><rect x="82.96363636363637" y="63.21428571428571" width="2" height="36.78571428571429" id="death-date-32"></rect></g><g><rect x="79.4" y="56.785714285714285" width="2" height="43.214285714285715" id="death-date-33"></rect></g><g><rect x="75.83636363636364" y="47.14285714285714" width="2" height="52.85714285714286" id="death-date-34"></rect></g><g><rect x="72.27272727272727" y="52.14285714285714" width="2" height="47.85714285714286" id="death-date-35"></rect></g><g><rect x="68.70909090909092" y="53.92857142857144" width="2" height="46.07142857142856" id="death-date-36"></rect></g><g><rect x="65.14545454545454" y="46.785714285714285" width="2" height="53.214285714285715" id="death-date-37"></rect></g><g><rect x="61.58181818181818" y="45.714285714285715" width="2" height="54.285714285714285" id="death-date-38"></rect></g><g><rect x="58.018181818181816" y="40" width="2" height="60" id="death-date-39"></rect></g><g><rect x="54.454545454545446" y="35.357142857142854" width="2" height="64.64285714285714" id="death-date-40"></rect></g><g><rect x="50.89090909090908" y="40" width="2" height="60" id="death-date-41"></rect></g><g><rect x="47.32727272727273" y="25.357142857142854" width="2" height="74.64285714285714" id="death-date-42"></rect></g><g><rect x="43.76363636363636" y="22.142857142857142" width="2" height="77.85714285714286" id="death-date-43"></rect></g><g><rect x="40.199999999999996" y="31.428571428571427" width="2" height="68.57142857142857" id="death-date-44"></rect></g><g><rect x="36.636363636363626" y="33.92857142857143" width="2" height="66.07142857142857" id="death-date-45"></rect></g><g><rect x="33.072727272727285" y="23.571428571428577" width="2" height="76.42857142857142" id="death-date-46"></rect></g><g><rect x="29.509090909090922" y="12.5" width="2" height="87.5" id="death-date-47"></rect></g><g><rect x="25.945454545454556" y="23.571428571428577" width="2" height="76.42857142857142" id="death-date-48"></rect></g><g><rect x="22.38181818181819" y="16.07142857142857" width="2" height="83.92857142857143" id="death-date-49"></rect></g><g><rect x="18.818181818181824" y="6.428571428571428" width="2" height="93.57142857142857" id="death-date-50"></rect></g><g><rect x="15.254545454545461" y="16.78571428571428" width="2" height="83.21428571428572" id="death-date-51"></rect></g><g><rect x="11.690909090909095" y="8.571428571428575" width="2" height="91.42857142857143" id="death-date-52"></rect></g><g><rect x="8.12727272727273" y="9.285714285714286" width="2" height="90.71428571428571" id="death-date-53"></rect></g><g><rect x="4.563636363636365" y="18.571428571428573" width="2" height="81.42857142857143" id="death-date-54"></rect></g><g><rect x="1" y="13.571428571428568" width="2" height="86.42857142857143" id="death-date-55"></rect></g></g><g class="fg-line death-date" fill="none" stroke="#92c5de" stroke-width="2" stroke-linecap="round"><path d="M198,91.53061224489795L194.43636363636364,90.91836734693878L190.87272727272727,90.61224489795919L187.30909090909088,90.66326530612245L183.74545454545455,90.20408163265307L180.1818181818182,89.23469387755102L176.61818181818182,88.41836734693878L173.05454545454546,87.29591836734694L169.49090909090907,86.0204081632653L165.92727272727274,85.05102040816327L162.36363636363637,83.6734693877551L158.8,82.55102040816327L155.23636363636365,81.53061224489797L151.6727272727273,81.37755102040816L148.1090909090909,80.45918367346938L144.54545454545453,80.25510204081633L140.9818181818182,79.08163265306123L137.41818181818184,77.70408163265306L133.85454545454544,77.39795918367346L130.29090909090908,76.37755102040816L126.72727272727273,74.74489795918367L123.16363636363636,74.38775510204081L119.6,72.0408163265306L116.03636363636363,70.51020408163265L112.47272727272728,68.6734693877551L108.90909090909089,65.51020408163266L105.34545454545456,64.33673469387755L101.78181818181817,62.295918367346935L98.21818181818183,58.57142857142856L94.65454545454546,56.938775510204074L91.09090909090911,55.45918367346939L87.52727272727273,53.673469387755105L83.96363636363637,52.244897959183675L80.4,48.92857142857143L76.83636363636364,45.86734693877551L73.27272727272727,44.8469387755102L69.70909090909092,41.02040816326531L66.14545454545454,36.47959183673469L62.58181818181818,34.285714285714285L59.018181818181816,32.60204081632653L55.454545454545446,30.25510204081633L51.89090909090908,26.989795918367353L48.32727272727273,24.642857142857146L44.76363636363636,23.31632653061224L41.199999999999996,21.071428571428573L37.636363636363626,18.979591836734688L34.072727272727285,15.357142857142858L30.509090909090922,13.316326530612244L26.945454545454556,14.18367346938776L23.38181818181819,12.755102040816324L19.818181818181824,13.265306122448983L16.25454545454546,14.84693877551021L12.690909090909095,16.78571428571428L9.12727272727273,17.448979591836732L5.563636363636365,19.285714285714285L2,18.928571428571427"></path></g></svg>