<svg about="DATA_PUBLISHED_DATE:2021-09-28,RENDER_DATE:2021-09-28" xmlns="http://www.w3.org/2000/svg" viewBox="0,0,200,100"><g transform="translate(0,0)"></g><g class="fg-bars death-date" fill="#00183f" stroke="none"><g><rect x="197" y="16.92307692307692" width="2" height="83.07692307692308" id="death-date-0"></rect></g><g><rect x="193.43636363636364" y="36.15384615384616" width="2" height="63.84615384615384" id="death-date-1"></rect></g><g><rect x="189.87272727272727" y="22.307692307692307" width="2" height="77.6923076923077" id="death-date-2"></rect></g><g><rect x="186.30909090909088" y="14.615384615384619" width="2" height="85.38461538461539" id="death-date-3"></rect></g><g><rect x="182.74545454545455" y="23.076923076923073" width="2" height="76.92307692307693" id="death-date-4"></rect></g><g><rect x="179.1818181818182" y="20.769230769230774" width="2" height="79.23076923076923" id="death-date-5"></rect></g><g><rect x="175.61818181818182" y="27.692307692307693" width="2" height="72.3076923076923" id="death-date-6"></rect></g><g><rect x="172.05454545454546" y="33.07692307692308" width="2" height="66.92307692307692" id="death-date-7"></rect></g><g><rect x="168.49090909090907" y="6.923076923076921" width="2" height="93.07692307692308" id="death-date-8"></rect></g><g><rect x="164.92727272727274" y="16.92307692307692" width="2" height="83.07692307692308" id="death-date-9"></rect></g><g><rect x="161.36363636363637" y="16.92307692307692" width="2" height="83.07692307692308" id="death-date-10"></rect></g><g><rect x="157.8" y="16.92307692307692" width="2" height="83.07692307692308" id="death-date-11"></rect></g><g><rect x="154.23636363636365" y="16.92307692307692" width="2" height="83.07692307692308" id="death-date-12"></rect></g><g><rect x="150.6727272727273" y="30.000000000000004" width="2" height="70" id="death-date-13"></rect></g><g><rect x="147.1090909090909" y="28.46153846153846" width="2" height="71.53846153846155" id="death-date-14"></rect></g><g><rect x="143.54545454545453" y="26.15384615384615" width="2" height="73.84615384615385" id="death-date-15"></rect></g><g><rect x="139.9818181818182" y="30.000000000000004" width="2" height="70" id="death-date-16"></rect></g><g><rect x="136.41818181818184" y="29.230769230769226" width="2" height="70.76923076923077" id="death-date-17"></rect></g><g><rect x="132.85454545454544" y="35.38461538461538" width="2" height="64.61538461538461" id="death-date-18"></rect></g><g><rect x="129.29090909090908" y="20.769230769230774" width="2" height="79.23076923076923" id="death-date-19"></rect></g><g><rect x="125.72727272727273" y="18.461538461538463" width="2" height="81.53846153846153" id="death-date-20"></rect></g><g><rect x="122.16363636363636" y="43.84615384615385" width="2" height="56.15384615384615" id="death-date-21"></rect></g><g><rect x="118.6" y="43.07692307692308" width="2" height="56.92307692307692" id="death-date-22"></rect></g><g><rect x="115.03636363636363" y="16.153846153846153" width="2" height="83.84615384615384" id="death-date-23"></rect></g><g><rect x="111.47272727272728" y="43.84615384615385" width="2" height="56.15384615384615" id="death-date-24"></rect></g><g><rect x="107.90909090909089" y="46.15384615384615" width="2" height="53.84615384615385" id="death-date-25"></rect></g><g><rect x="104.34545454545456" y="46.15384615384615" width="2" height="53.84615384615385" id="death-date-26"></rect></g><g><rect x="100.78181818181817" y="46.92307692307692" width="2" height="53.07692307692308" id="death-date-27"></rect></g><g><rect x="97.21818181818183" y="46.15384615384615" width="2" height="53.84615384615385" id="death-date-28"></rect></g><g><rect x="93.65454545454546" y="57.692307692307686" width="2" height="42.307692307692314" id="death-date-29"></rect></g><g><rect x="90.09090909090911" y="56.92307692307692" width="2" height="43.07692307692308" id="death-date-30"></rect></g><g><rect x="86.52727272727273" y="61.53846153846154" width="2" height="38.46153846153846" id="death-date-31"></rect></g><g><rect x="82.96363636363637" y="66.15384615384615" width="2" height="33.846153846153854" id="death-date-32"></rect></g><g><rect x="79.4" y="60" width="2" height="40" id="death-date-33"></rect></g><g><rect x="75.83636363636364" y="60.769230769230774" width="2" height="39.230769230769226" id="death-date-34"></rect></g><g><rect x="72.27272727272727" y="75.38461538461539" width="2" height="24.615384615384613" id="death-date-35"></rect></g><g><rect x="68.70909090909092" y="63.07692307692307" width="2" height="36.92307692307693" id="death-date-36"></rect></g><g><rect x="65.14545454545454" y="81.53846153846153" width="2" height="18.461538461538467" id="death-date-37"></rect></g><g><rect x="61.58181818181818" y="73.84615384615385" width="2" height="26.153846153846146" id="death-date-38"></rect></g><g><rect x="58.018181818181816" y="74.61538461538461" width="2" height="25.384615384615387" id="death-date-39"></rect></g><g><rect x="54.454545454545446" y="75.38461538461539" width="2" height="24.615384615384613" id="death-date-40"></rect></g><g><rect x="50.89090909090908" y="80" width="2" height="20" id="death-date-41"></rect></g><g><rect x="47.32727272727273" y="80" width="2" height="20" id="death-date-42"></rect></g><g><rect x="43.76363636363636" y="82.3076923076923" width="2" height="17.692307692307693" id="death-date-43"></rect></g><g><rect x="40.199999999999996" y="73.07692307692308" width="2" height="26.92307692307692" id="death-date-44"></rect></g><g><rect x="36.636363636363626" y="77.6923076923077" width="2" height="22.307692307692307" id="death-date-45"></rect></g><g><rect x="33.072727272727285" y="84.61538461538461" width="2" height="15.384615384615387" id="death-date-46"></rect></g><g><rect x="29.509090909090922" y="80" width="2" height="20" id="death-date-47"></rect></g><g><rect x="25.945454545454556" y="81.53846153846153" width="2" height="18.461538461538467" id="death-date-48"></rect></g><g><rect x="22.38181818181819" y="91.53846153846153" width="2" height="8.461538461538467" id="death-date-49"></rect></g><g><rect x="18.818181818181824" y="83.07692307692307" width="2" height="16.923076923076934" id="death-date-50"></rect></g><g><rect x="15.254545454545461" y="86.15384615384616" width="2" height="13.84615384615384" id="death-date-51"></rect></g><g><rect x="11.690909090909095" y="82.3076923076923" width="2" height="17.692307692307693" id="death-date-52"></rect></g><g><rect x="8.12727272727273" y="90.76923076923077" width="2" height="9.230769230769226" id="death-date-53"></rect></g><g><rect x="4.563636363636365" y="86.92307692307692" width="2" height="13.07692307692308" id="death-date-54"></rect></g><g><rect x="1" y="85.38461538461539" width="2" height="14.615384615384613" id="death-date-55"></rect></g></g><g class="fg-line death-date" fill="none" stroke="#92c5de" stroke-width="2" stroke-linecap="round"><path d="M198,23.076923076923073L194.43636363636364,25.384615384615383L190.87272727272727,21.20879120879121L187.30909090909088,20.439560439560434L183.74545454545455,20.769230769230774L180.1818181818182,19.890109890109898L176.61818181818182,19.34065934065934L173.05454545454546,19.670329670329668L169.49090909090907,19.01098901098901L165.92727272727274,21.75824175824176L162.36363636363637,23.62637362637362L158.8,25.384615384615383L155.23636363636365,28.021978021978022L151.6727272727273,28.57142857142857L148.1090909090909,26.923076923076927L144.54545454545453,29.120879120879128L140.9818181818182,31.538461538461537L137.41818181818184,29.560439560439566L133.85454545454544,31.648351648351646L130.29090909090908,33.18681318681318L126.72727272727273,36.81318681318682L123.16363636363636,40.879120879120876L119.6,41.208791208791204L116.03636363636363,43.2967032967033L112.47272727272728,49.120879120879124L108.90909090909089,51.64835164835164L105.34545454545456,54.505494505494504L101.78181818181817,56.48351648351648L98.21818181818183,58.46153846153845L94.65454545454546,62.637362637362635L91.09090909090911,63.4065934065934L87.52727272727273,66.92307692307693L83.96363636363637,68.68131868131869L80.4,69.89010989010988L76.83636363636364,72.08791208791209L73.27272727272727,74.83516483516483L69.70909090909092,75.49450549450549L66.14545454545454,78.24175824175825L62.58181818181818,77.03296703296702L59.018181818181816,77.58241758241759L55.454545454545446,79.01098901098901L51.89090909090908,79.67032967032968L48.32727272727273,79.8901098901099L44.76363636363636,81.53846153846153L41.199999999999996,81.64835164835165L37.636363636363626,83.51648351648352L34.072727272727285,84.17582417582418L30.509090909090922,85.05494505494505L26.945454545454556,86.04395604395604L23.38181818181819,86.5934065934066L19.818181818181824,86.04395604395604L16.25454545454546,86.48351648351648L12.690909090909095,86.5934065934066L9.12727272727273,87.47252747252747L5.563636363636365,87.03296703296704L2,87.25274725274726"></path></g></svg>