<svg about="DATA_PUBLISHED_DATE:2021-09-27,RENDER_DATE:2021-09-27" xmlns="http://www.w3.org/2000/svg" viewBox="0,0,200,100"><g transform="translate(0,0)"></g><g class="fg-bars tests-vaccines" fill="#00183f" stroke="none"><g><rect x="197" y="75.2676923076923" width="2" height="24.7323076923077" id="tests-vaccines-0"></rect></g><g><rect x="193.43636363636364" y="57.16538461538462" width="2" height="42.83461538461538" id="tests-vaccines-1"></rect></g><g><rect x="189.87272727272727" y="28.246923076923082" width="2" height="71.75307692307692" id="tests-vaccines-2"></rect></g><g><rect x="186.30909090909088" y="38.54615384615384" width="2" height="61.45384615384616" id="tests-vaccines-3"></rect></g><g><rect x="182.74545454545455" y="40.25230769230769" width="2" height="59.74769230769231" id="tests-vaccines-4"></rect></g><g><rect x="179.1818181818182" y="39.58307692307692" width="2" height="60.41692307692308" id="tests-vaccines-5"></rect></g><g><rect x="175.61818181818182" y="36.511538461538464" width="2" height="63.488461538461536" id="tests-vaccines-6"></rect></g><g><rect x="172.05454545454546" y="73.28307692307692" width="2" height="26.71692307692308" id="tests-vaccines-7"></rect></g><g><rect x="168.49090909090907" y="52.489999999999995" width="2" height="47.510000000000005" id="tests-vaccines-8"></rect></g><g><rect x="164.92727272727274" y="18.79384615384615" width="2" height="81.20615384615385" id="tests-vaccines-9"></rect></g><g><rect x="161.36363636363637" y="33.54384615384616" width="2" height="66.45615384615384" id="tests-vaccines-10"></rect></g><g><rect x="157.8" y="32.88923076923077" width="2" height="67.11076923076922" id="tests-vaccines-11"></rect></g><g><rect x="154.23636363636365" y="25.974615384615383" width="2" height="74.02538461538461" id="tests-vaccines-12"></rect></g><g><rect x="150.6727272727273" y="85.37384615384616" width="2" height="14.62615384615384" id="tests-vaccines-13"></rect></g><g><rect x="147.1090909090909" y="71.16692307692307" width="2" height="28.83307692307693" id="tests-vaccines-14"></rect></g><g><rect x="143.54545454545453" y="51.66692307692308" width="2" height="48.33307692307692" id="tests-vaccines-15"></rect></g><g><rect x="139.9818181818182" y="11.156923076923075" width="2" height="88.84307692307692" id="tests-vaccines-16"></rect></g><g><rect x="136.41818181818184" y="29.13769230769231" width="2" height="70.8623076923077" id="tests-vaccines-17"></rect></g><g><rect x="132.85454545454544" y="27.186923076923076" width="2" height="72.81307692307692" id="tests-vaccines-18"></rect></g><g><rect x="129.29090909090908" y="24.018461538461533" width="2" height="75.98153846153846" id="tests-vaccines-19"></rect></g><g><rect x="125.72727272727273" y="23.073846153846155" width="2" height="76.92615384615385" id="tests-vaccines-20"></rect></g><g><rect x="122.16363636363636" y="67.36923076923077" width="2" height="32.63076923076923" id="tests-vaccines-21"></rect></g><g><rect x="118.6" y="40.38846153846154" width="2" height="59.61153846153846" id="tests-vaccines-22"></rect></g><g><rect x="115.03636363636363" y="1.9915384615384668" width="2" height="98.00846153846153" id="tests-vaccines-23"></rect></g><g><rect x="111.47272727272728" y="20.35307692307692" width="2" height="79.64692307692309" id="tests-vaccines-24"></rect></g><g><rect x="107.90909090909089" y="21.350769230769227" width="2" height="78.64923076923077" id="tests-vaccines-25"></rect></g><g><rect x="104.34545454545456" y="18.30076923076923" width="2" height="81.69923076923077" id="tests-vaccines-26"></rect></g><g><rect x="100.78181818181817" y="18.846923076923073" width="2" height="81.15307692307692" id="tests-vaccines-27"></rect></g><g><rect x="97.21818181818183" y="67.82692307692308" width="2" height="32.17307692307692" id="tests-vaccines-28"></rect></g><g><rect x="93.65454545454546" y="41.957692307692305" width="2" height="58.042307692307695" id="tests-vaccines-29"></rect></g><g><rect x="90.09090909090911" y="2.9900000000000038" width="2" height="97.00999999999999" id="tests-vaccines-30"></rect></g><g><rect x="86.52727272727273" y="22.141538461538456" width="2" height="77.85846153846154" id="tests-vaccines-31"></rect></g><g><rect x="82.96363636363637" y="21.83076923076923" width="2" height="78.16923076923077" id="tests-vaccines-32"></rect></g><g><rect x="79.4" y="21.636923076923075" width="2" height="78.36307692307693" id="tests-vaccines-33"></rect></g><g><rect x="75.83636363636364" y="25.448461538461544" width="2" height="74.55153846153846" id="tests-vaccines-34"></rect></g><g><rect x="72.27272727272727" y="68.91384615384615" width="2" height="31.08615384615385" id="tests-vaccines-35"></rect></g><g><rect x="68.70909090909092" y="44.14769230769231" width="2" height="55.85230769230769" id="tests-vaccines-36"></rect></g><g><rect x="65.14545454545454" y="14.34461538461539" width="2" height="85.6553846153846" id="tests-vaccines-37"></rect></g><g><rect x="61.58181818181818" y="32.32384615384616" width="2" height="67.67615384615384" id="tests-vaccines-38"></rect></g><g><rect x="58.018181818181816" y="35.854615384615386" width="2" height="64.14538461538461" id="tests-vaccines-39"></rect></g><g><rect x="54.454545454545446" y="29.853846153846153" width="2" height="70.14615384615385" id="tests-vaccines-40"></rect></g><g><rect x="50.89090909090908" y="32.51923076923077" width="2" height="67.48076923076923" id="tests-vaccines-41"></rect></g><g><rect x="47.32727272727273" y="73.09076923076923" width="2" height="26.909230769230774" id="tests-vaccines-42"></rect></g><g><rect x="43.76363636363636" y="50.78538461538462" width="2" height="49.21461538461538" id="tests-vaccines-43"></rect></g><g><rect x="40.199999999999996" y="19.461538461538463" width="2" height="80.53846153846153" id="tests-vaccines-44"></rect></g><g><rect x="36.636363636363626" y="33.510769230769235" width="2" height="66.48923076923077" id="tests-vaccines-45"></rect></g><g><rect x="33.072727272727285" y="34.87384615384615" width="2" height="65.12615384615384" id="tests-vaccines-46"></rect></g><g><rect x="29.509090909090922" y="31.163076923076925" width="2" height="68.83692307692307" id="tests-vaccines-47"></rect></g><g><rect x="25.945454545454556" y="38.48307692307692" width="2" height="61.51692307692308" id="tests-vaccines-48"></rect></g><g><rect x="22.38181818181819" y="76.78538461538463" width="2" height="23.21461538461537" id="tests-vaccines-49"></rect></g><g><rect x="18.818181818181824" y="54.04230769230769" width="2" height="45.95769230769231" id="tests-vaccines-50"></rect></g><g><rect x="15.254545454545461" y="25.928461538461534" width="2" height="74.07153846153847" id="tests-vaccines-51"></rect></g><g><rect x="11.690909090909095" y="37.323076923076925" width="2" height="62.676923076923075" id="tests-vaccines-52"></rect></g><g><rect x="8.12727272727273" y="35.2423076923077" width="2" height="64.75769230769231" id="tests-vaccines-53"></rect></g><g><rect x="4.563636363636365" y="34.62" width="2" height="65.38" id="tests-vaccines-54"></rect></g><g><rect x="1" y="44.63153846153847" width="2" height="55.36846153846153" id="tests-vaccines-55"></rect></g></g><g class="fg-line tests-vaccines" fill="none" stroke="#92c5de" stroke-width="2" stroke-linecap="round"><path d="M198,45.08186813186813L194.43636363636364,44.798351648351655L190.87272727272727,44.13043956043956L187.30909090909088,42.779999999999994L183.74545454545455,42.065384615384616L180.1818181818182,41.01351648351649L176.61818181818182,39.06945054945054L173.05454545454546,46.049780219780224L169.49090909090907,45.74747252747253L165.92727272727274,45.62989010989011L162.36363636363637,44.53890109890111L158.8,43.90945054945055L155.23636363636365,43.09483516483517L151.6727272727273,42.81538461538461L148.1090909090909,33.91538461538461L144.54545454545453,33.37285714285715L140.9818181818182,31.761648351648354L137.41818181818184,30.45230769230769L133.85454545454544,29.197362637362644L130.29090909090908,28.36362637362637L126.72727272727273,27.54681318681319L123.16363636363636,26.942967032967037L119.6,27.00835164835165L116.03636363636363,27.23252747252747L112.47272727272728,27.375164835164835L108.90909090909089,27.630659340659346L105.34545454545456,27.699230769230766L101.78181818181817,28.175824175824182L98.21818181818183,29.118901098901105L94.65454545454546,29.27417582417582L91.09090909090911,29.587032967032968L87.52727272727273,31.209120879120878L83.96363636363637,32.66373626373627L80.4,34.66714285714285L76.83636363636364,35.84098901098901L73.27272727272727,36.8510989010989L69.70909090909092,37.44780219780219L66.14545454545454,38.396043956043954L62.58181818181818,39.127032967032974L59.018181818181816,39.296593406593416L55.454545454545446,39.15648351648351L51.89090909090908,39.34351648351648L48.32727272727273,40.1954945054945L44.76363636363636,40.7232967032967L41.199999999999996,41.18857142857143L37.636363636363626,42.112417582417585L34.072727272727285,42.65703296703297L30.509090909090922,42.70967032967034L26.945454545454556,43.20351648351649L23.38181818181819,44.08186813186813L19.818181818181824,44.58L16.25454545454546,44.979230769230774L12.690909090909095,45.47285714285715L9.12727272727273,45.897252747252736L5.563636363636365,46.6643956043956L2,47.28912087912088"></path></g></svg>