<svg about="DATA_PUBLISHED_DATE:2021-10-16,RENDER_DATE:2021-10-16" xmlns="http://www.w3.org/2000/svg" viewBox="0,0,200,100"><g transform="translate(0,0)"></g><g class="fg-bars tests-vaccines" fill="#00183f" stroke="none"><g><rect x="197" y="20.043124999999996" width="2" height="79.956875" id="tests-vaccines-0"></rect></g><g><rect x="193.43636363636364" y="34.150000000000006" width="2" height="65.85" id="tests-vaccines-1"></rect></g><g><rect x="189.87272727272727" y="38.576875" width="2" height="61.423125" id="tests-vaccines-2"></rect></g><g><rect x="186.30909090909088" y="36.535625" width="2" height="63.464375" id="tests-vaccines-3"></rect></g><g><rect x="182.74545454545455" y="36.0375" width="2" height="63.9625" id="tests-vaccines-4"></rect></g><g><rect x="179.1818181818182" y="76.81125" width="2" height="23.18875" id="tests-vaccines-5"></rect></g><g><rect x="175.61818181818182" y="58.923750000000005" width="2" height="41.076249999999995" id="tests-vaccines-6"></rect></g><g><rect x="172.05454545454546" y="12.101249999999997" width="2" height="87.89875" id="tests-vaccines-7"></rect></g><g><rect x="168.49090909090907" y="19.845000000000002" width="2" height="80.155" id="tests-vaccines-8"></rect></g><g><rect x="164.92727272727274" y="21.538124999999997" width="2" height="78.461875" id="tests-vaccines-9"></rect></g><g><rect x="161.36363636363637" y="20.855" width="2" height="79.145" id="tests-vaccines-10"></rect></g><g><rect x="157.8" y="27.356875000000002" width="2" height="72.643125" id="tests-vaccines-11"></rect></g><g><rect x="154.23636363636365" y="75.92812500000001" width="2" height="24.07187499999999" id="tests-vaccines-12"></rect></g><g><rect x="150.6727272727273" y="56.65687500000001" width="2" height="43.34312499999999" id="tests-vaccines-13"></rect></g><g><rect x="147.1090909090909" y="33.78124999999999" width="2" height="66.21875" id="tests-vaccines-14"></rect></g><g><rect x="143.54545454545453" y="56.008750000000006" width="2" height="43.991249999999994" id="tests-vaccines-15"></rect></g><g><rect x="139.9818181818182" y="55.82875000000001" width="2" height="44.17124999999999" id="tests-vaccines-16"></rect></g><g><rect x="136.41818181818184" y="54.45249999999999" width="2" height="45.54750000000001" id="tests-vaccines-17"></rect></g><g><rect x="132.85454545454544" y="50.59374999999999" width="2" height="49.40625000000001" id="tests-vaccines-18"></rect></g><g><rect x="129.29090909090908" y="79.75625" width="2" height="20.243750000000006" id="tests-vaccines-19"></rect></g><g><rect x="125.72727272727273" y="64.86812499999999" width="2" height="35.13187500000001" id="tests-vaccines-20"></rect></g><g><rect x="122.16363636363636" y="40.819375" width="2" height="59.180625" id="tests-vaccines-21"></rect></g><g><rect x="118.6" y="49.25062500000001" width="2" height="50.74937499999999" id="tests-vaccines-22"></rect></g><g><rect x="115.03636363636363" y="50.801874999999995" width="2" height="49.198125000000005" id="tests-vaccines-23"></rect></g><g><rect x="111.47272727272728" y="50.343125" width="2" height="49.656875" id="tests-vaccines-24"></rect></g><g><rect x="107.90909090909089" y="47.821250000000006" width="2" height="52.178749999999994" id="tests-vaccines-25"></rect></g><g><rect x="104.34545454545456" y="78.17937500000001" width="2" height="21.820624999999993" id="tests-vaccines-26"></rect></g><g><rect x="100.78181818181817" y="61.114374999999995" width="2" height="38.885625000000005" id="tests-vaccines-27"></rect></g><g><rect x="97.21818181818183" y="33.48" width="2" height="66.52000000000001" id="tests-vaccines-28"></rect></g><g><rect x="93.65454545454546" y="45.50625" width="2" height="54.49375" id="tests-vaccines-29"></rect></g><g><rect x="90.09090909090911" y="45.07875" width="2" height="54.92125" id="tests-vaccines-30"></rect></g><g><rect x="86.52727272727273" y="39.26875" width="2" height="60.73125" id="tests-vaccines-31"></rect></g><g><rect x="82.96363636363637" y="88.054375" width="2" height="11.945625000000007" id="tests-vaccines-32"></rect></g><g><rect x="79.4" y="76.480625" width="2" height="23.519374999999997" id="tests-vaccines-33"></rect></g><g><rect x="75.83636363636364" y="60.525625000000005" width="2" height="39.474374999999995" id="tests-vaccines-34"></rect></g><g><rect x="72.27272727272727" y="27.198750000000004" width="2" height="72.80125" id="tests-vaccines-35"></rect></g><g><rect x="68.70909090909092" y="41.9525" width="2" height="58.0475" id="tests-vaccines-36"></rect></g><g><rect x="65.14545454545454" y="39.930625" width="2" height="60.069375" id="tests-vaccines-37"></rect></g><g><rect x="61.58181818181818" y="37.418125" width="2" height="62.581875" id="tests-vaccines-38"></rect></g><g><rect x="58.018181818181816" y="36.671875" width="2" height="63.328125" id="tests-vaccines-39"></rect></g><g><rect x="54.454545454545446" y="73.40562500000001" width="2" height="26.594374999999985" id="tests-vaccines-40"></rect></g><g><rect x="50.89090909090908" y="51.402499999999996" width="2" height="48.597500000000004" id="tests-vaccines-41"></rect></g><g><rect x="47.32727272727273" y="19.92125" width="2" height="80.07875" id="tests-vaccines-42"></rect></g><g><rect x="43.76363636363636" y="34.965625" width="2" height="65.034375" id="tests-vaccines-43"></rect></g><g><rect x="40.199999999999996" y="35.85125" width="2" height="64.14875" id="tests-vaccines-44"></rect></g><g><rect x="36.636363636363626" y="33.38625" width="2" height="66.61375000000001" id="tests-vaccines-45"></rect></g><g><rect x="33.072727272727285" y="33.7975" width="2" height="66.2025" id="tests-vaccines-46"></rect></g><g><rect x="29.509090909090922" y="73.760625" width="2" height="26.239374999999995" id="tests-vaccines-47"></rect></g><g><rect x="25.945454545454556" y="52.621249999999996" width="2" height="47.378750000000004" id="tests-vaccines-48"></rect></g><g><rect x="22.38181818181819" y="20.811875" width="2" height="79.188125" id="tests-vaccines-49"></rect></g><g><rect x="18.818181818181824" y="36.455625000000005" width="2" height="63.544374999999995" id="tests-vaccines-50"></rect></g><g><rect x="15.254545454545461" y="36.286249999999995" width="2" height="63.713750000000005" id="tests-vaccines-51"></rect></g><g><rect x="11.690909090909095" y="36.106249999999996" width="2" height="63.893750000000004" id="tests-vaccines-52"></rect></g><g><rect x="8.12727272727273" y="39.23875" width="2" height="60.76125" id="tests-vaccines-53"></rect></g><g><rect x="4.563636363636365" y="74.661875" width="2" height="25.338125000000005" id="tests-vaccines-54"></rect></g><g><rect x="1" y="54.394999999999996" width="2" height="45.605000000000004" id="tests-vaccines-55"></rect></g></g><g class="fg-line tests-vaccines" fill="none" stroke="#92c5de" stroke-width="2" stroke-linecap="round"><path d="M198,43.011160714285715L194.43636363636364,41.87660714285715L190.87272727272727,39.833035714285714L187.30909090909088,37.39892857142857L183.74545454545455,35.15883928571428L180.1818181818182,33.918749999999996L176.61818181818182,33.79258928571428L173.05454545454546,33.46875L169.49090909090907,36.565892857142856L165.92727272727274,41.732142857142854L162.36363636363637,46.63080357142857L158.8,51.43044642857143L155.23636363636365,54.75L151.6727272727273,55.296875L148.1090909090909,56.46991071428571L144.54545454545453,57.47535714285714L140.9818181818182,56.509910714285716L137.41818181818184,55.791785714285716L133.85454545454544,55.20473214285715L130.29090909090908,54.808660714285715L126.72727272727273,54.583392857142854L123.16363636363636,54.04714285714285L119.6,52.99866071428572L116.03636363636363,52.46375L112.47272727272728,51.64616071428571L108.90909090909089,50.06410714285714L105.34545454545456,55.81169642857143L101.78181818181817,55.56901785714285L98.21818181818183,55.48491071428572L94.65454545454546,54.58758928571428L91.09090909090911,54.07991071428572L87.52727272727273,53.34446428571429L83.96363636363637,53.08008928571428L80.4,45.73973214285715L76.83636363636364,45.300446428571426L73.27272727272727,43.997142857142855L69.70909090909092,42.9575L66.14545454545454,41.959375L62.58181818181818,41.37660714285715L59.018181818181816,40.800625000000004L55.454545454545446,40.39L51.89090909090908,40.440714285714286L48.32727272727273,40.61482142857143L44.76363636363636,40.74205357142857L41.199999999999996,40.95491071428572L37.636363636363626,41.01705357142856L34.072727272727285,41.405625L30.509090909090922,42.182946428571434L26.945454545454556,42.31169642857143L23.38181818181819,42.565089285714286L19.818181818181824,43.893571428571434L16.25454545454546,45.08535714285715L12.690909090909095,46.715178571428574L9.12727272727273,47.67267857142857L5.563636363636365,48.488035714285715L2,48.973571428571425"></path></g></svg>