<svg about="DATA_PUBLISHED_DATE:2022-02-03,RENDER_DATE:2022-02-03,FIRST_DATE:2021-12-02,LAST_DATE:2022-01-26" xmlns="http://www.w3.org/2000/svg" viewBox="0,0,200,100"><g transform="translate(0,0)"></g><g class="fg-bars tests-vaccines" fill="#00183f" stroke="none"><g><rect x="197" y="63.74942857142858" width="2" height="36.25057142857142" id="tests-vaccines-0"></rect></g><g><rect x="193.43636363636364" y="63.414571428571435" width="2" height="36.585428571428565" id="tests-vaccines-1"></rect></g><g><rect x="189.87272727272727" y="63.42771428571429" width="2" height="36.57228571428571" id="tests-vaccines-2"></rect></g><g><rect x="186.30909090909088" y="87.86628571428572" width="2" height="12.133714285714277" id="tests-vaccines-3"></rect></g><g><rect x="182.74545454545455" y="74.34342857142857" width="2" height="25.656571428571425" id="tests-vaccines-4"></rect></g><g><rect x="179.1818181818182" y="50.10514285714286" width="2" height="49.89485714285714" id="tests-vaccines-5"></rect></g><g><rect x="175.61818181818182" y="57.54371428571429" width="2" height="42.45628571428571" id="tests-vaccines-6"></rect></g><g><rect x="172.05454545454546" y="55.47599999999999" width="2" height="44.52400000000001" id="tests-vaccines-7"></rect></g><g><rect x="168.49090909090907" y="54.72085714285715" width="2" height="45.27914285714285" id="tests-vaccines-8"></rect></g><g><rect x="164.92727272727274" y="61.668571428571425" width="2" height="38.331428571428575" id="tests-vaccines-9"></rect></g><g><rect x="161.36363636363637" y="85.03714285714285" width="2" height="14.962857142857146" id="tests-vaccines-10"></rect></g><g><rect x="157.8" y="68.15771428571429" width="2" height="31.84228571428571" id="tests-vaccines-11"></rect></g><g><rect x="154.23636363636365" y="37.74885714285714" width="2" height="62.25114285714286" id="tests-vaccines-12"></rect></g><g><rect x="150.6727272727273" y="46.25571428571429" width="2" height="53.74428571428571" id="tests-vaccines-13"></rect></g><g><rect x="147.1090909090909" y="44.272" width="2" height="55.728" id="tests-vaccines-14"></rect></g><g><rect x="143.54545454545453" y="43.059999999999995" width="2" height="56.940000000000005" id="tests-vaccines-15"></rect></g><g><rect x="139.9818181818182" y="46.57085714285715" width="2" height="53.42914285714285" id="tests-vaccines-16"></rect></g><g><rect x="136.41818181818184" y="81.94942857142857" width="2" height="18.05057142857143" id="tests-vaccines-17"></rect></g><g><rect x="132.85454545454544" y="57.815428571428576" width="2" height="42.184571428571424" id="tests-vaccines-18"></rect></g><g><rect x="129.29090909090908" y="23.849428571428575" width="2" height="76.15057142857142" id="tests-vaccines-19"></rect></g><g><rect x="125.72727272727273" y="34.11971428571429" width="2" height="65.88028571428572" id="tests-vaccines-20"></rect></g><g><rect x="122.16363636363636" y="36.761714285714284" width="2" height="63.238285714285716" id="tests-vaccines-21"></rect></g><g><rect x="118.6" y="37.879428571428576" width="2" height="62.120571428571424" id="tests-vaccines-22"></rect></g><g><rect x="115.03636363636363" y="42.78999999999999" width="2" height="57.21000000000001" id="tests-vaccines-23"></rect></g><g><rect x="111.47272727272728" y="84.61028571428571" width="2" height="15.389714285714291" id="tests-vaccines-24"></rect></g><g><rect x="107.90909090909089" y="97.74142857142857" width="2" height="2.258571428571429" id="tests-vaccines-25"></rect></g><g><rect x="104.34545454545456" y="78.17685714285713" width="2" height="21.82314285714287" id="tests-vaccines-26"></rect></g><g><rect x="100.78181818181817" y="35.80057142857142" width="2" height="64.19942857142857" id="tests-vaccines-27"></rect></g><g><rect x="97.21818181818183" y="31.06885714285714" width="2" height="68.93114285714286" id="tests-vaccines-28"></rect></g><g><rect x="93.65454545454546" y="30.988000000000003" width="2" height="69.012" id="tests-vaccines-29"></rect></g><g><rect x="90.09090909090911" y="39.634571428571434" width="2" height="60.365428571428566" id="tests-vaccines-30"></rect></g><g><rect x="86.52727272727273" y="83.98942857142858" width="2" height="16.010571428571424" id="tests-vaccines-31"></rect></g><g><rect x="82.96363636363637" y="99.73571428571428" width="2" height="0.26428571428571956" id="tests-vaccines-32"></rect></g><g><rect x="79.4" y="86.95342857142857" width="2" height="13.046571428571426" id="tests-vaccines-33"></rect></g><g><rect x="75.83636363636364" y="37.72085714285714" width="2" height="62.27914285714286" id="tests-vaccines-34"></rect></g><g><rect x="72.27272727272727" y="26.54828571428571" width="2" height="73.45171428571429" id="tests-vaccines-35"></rect></g><g><rect x="68.70909090909092" y="24.43228571428572" width="2" height="75.56771428571429" id="tests-vaccines-36"></rect></g><g><rect x="65.14545454545454" y="29.403999999999996" width="2" height="70.596" id="tests-vaccines-37"></rect></g><g><rect x="61.58181818181818" y="79.23028571428571" width="2" height="20.769714285714286" id="tests-vaccines-38"></rect></g><g><rect x="58.018181818181816" y="58.79914285714285" width="2" height="41.20085714285715" id="tests-vaccines-39"></rect></g><g><rect x="54.454545454545446" y="25.271714285714285" width="2" height="74.72828571428572" id="tests-vaccines-40"></rect></g><g><rect x="50.89090909090908" y="34.505714285714284" width="2" height="65.49428571428572" id="tests-vaccines-41"></rect></g><g><rect x="47.32727272727273" y="32.88885714285714" width="2" height="67.11114285714285" id="tests-vaccines-42"></rect></g><g><rect x="43.76363636363636" y="34.535428571428575" width="2" height="65.46457142857142" id="tests-vaccines-43"></rect></g><g><rect x="40.199999999999996" y="37.502" width="2" height="62.498" id="tests-vaccines-44"></rect></g><g><rect x="36.636363636363626" y="79.60028571428572" width="2" height="20.399714285714282" id="tests-vaccines-45"></rect></g><g><rect x="33.072727272727285" y="53.68085714285714" width="2" height="46.31914285714286" id="tests-vaccines-46"></rect></g><g><rect x="29.509090909090922" y="18.902857142857144" width="2" height="81.09714285714286" id="tests-vaccines-47"></rect></g><g><rect x="25.945454545454556" y="27.062857142857144" width="2" height="72.93714285714286" id="tests-vaccines-48"></rect></g><g><rect x="22.38181818181819" y="24.63171428571429" width="2" height="75.36828571428572" id="tests-vaccines-49"></rect></g><g><rect x="18.818181818181824" y="24.898857142857146" width="2" height="75.10114285714286" id="tests-vaccines-50"></rect></g><g><rect x="15.254545454545461" y="30.264000000000003" width="2" height="69.73599999999999" id="tests-vaccines-51"></rect></g><g><rect x="11.690909090909095" y="75.94685714285714" width="2" height="24.05314285714286" id="tests-vaccines-52"></rect></g><g><rect x="8.12727272727273" y="47.169428571428575" width="2" height="52.830571428571425" id="tests-vaccines-53"></rect></g><g><rect x="4.563636363636365" y="8.039428571428575" width="2" height="91.96057142857143" id="tests-vaccines-54"></rect></g><g><rect x="1" y="18.987142857142857" width="2" height="81.01285714285714" id="tests-vaccines-55"></rect></g></g><g class="fg-line tests-vaccines" fill="none" stroke="#92c5de" stroke-width="2" stroke-linecap="round"><path d="M198,65.77861224489796L194.43636363636364,64.59669387755102L190.87272727272727,63.35473469387756L187.30909090909088,63.103428571428566L183.74545454545455,62.69926530612244L180.1818181818182,61.81559183673468L176.61818181818182,60.0504081632653L173.05454545454546,58.43783673469388L169.49090909090907,56.837265306122454L165.92727272727274,55.17142857142857L162.36363636363637,53.01461224489796L158.8,52.57351020408163L155.23636363636365,51.09604081632653L151.6727272727273,49.110408163265305L148.1090909090909,47.37669387755103L144.54545454545453,46.30379591836734L140.9818181818182,45.56371428571428L137.41818181818184,45.02359183673469L133.85454545454544,45.40371428571428L130.29090909090908,51.10742857142857L126.72727272727273,58.868489795918364L123.16363636363636,59.10861224489796L119.6,58.295346938775516L116.03636363636363,57.31085714285714L112.47272727272728,56.860081632653056L108.90909090909089,56.77138775510204L105.34545454545456,57.056285714285714L101.78181818181817,58.31008163265305L98.21818181818183,58.58440816326531L94.65454545454546,57.93861224489796L91.09090909090911,57.00208163265306L87.52727272727273,55.540571428571425L83.96363636363637,54.86069387755103L80.4,49.01261224489796L76.83636363636364,40.200938775510195L73.27272727272727,39.741632653061224L69.70909090909092,40.64742857142857L66.14545454545454,42.09073469387755L62.58181818181818,43.24759183673469L59.018181818181816,43.300448979591835L55.454545454545446,42.56926530612245L51.89090909090908,41.65942857142857L48.32727272727273,40.59616326530612L44.76363636363636,39.41657142857142L41.199999999999996,38.039918367346935L37.636363636363626,37.005918367346936L34.072727272727285,36.48400000000001L30.509090909090922,35.55379591836735L26.945454545454556,34.00187755102041L23.38181818181819,32.84820408163266L19.818181818181824,32.317673469387756L16.25454545454546,32.88971428571429L12.690909090909095,34.0564081632653L9.12727272727273,34.84391836734694L5.563636363636365,37.69795918367347L2,44.5550612244898"></path></g></svg>