<svg about="DATA_PUBLISHED_DATE:2021-12-29,RENDER_DATE:2021-12-29" xmlns="http://www.w3.org/2000/svg" viewBox="0,0,200,100"><g transform="translate(0,0)"></g><g class="fg-bars death-date" fill="#00183f" stroke="none"><g><rect x="197" y="73" width="2" height="27" id="death-date-0"></rect></g><g><rect x="193.43636363636364" y="65" width="2" height="35" id="death-date-1"></rect></g><g><rect x="189.87272727272727" y="52" width="2" height="48" id="death-date-2"></rect></g><g><rect x="186.30909090909088" y="57.00000000000001" width="2" height="42.99999999999999" id="death-date-3"></rect></g><g><rect x="182.74545454545455" y="42.00000000000001" width="2" height="57.99999999999999" id="death-date-4"></rect></g><g><rect x="179.1818181818182" y="51" width="2" height="49" id="death-date-5"></rect></g><g><rect x="175.61818181818182" y="65" width="2" height="35" id="death-date-6"></rect></g><g><rect x="172.05454545454546" y="42.00000000000001" width="2" height="57.99999999999999" id="death-date-7"></rect></g><g><rect x="168.49090909090907" y="56.00000000000001" width="2" height="43.99999999999999" id="death-date-8"></rect></g><g><rect x="164.92727272727274" y="64" width="2" height="36" id="death-date-9"></rect></g><g><rect x="161.36363636363637" y="49" width="2" height="51" id="death-date-10"></rect></g><g><rect x="157.8" y="61" width="2" height="39" id="death-date-11"></rect></g><g><rect x="154.23636363636365" y="55.00000000000001" width="2" height="44.99999999999999" id="death-date-12"></rect></g><g><rect x="150.6727272727273" y="42.00000000000001" width="2" height="57.99999999999999" id="death-date-13"></rect></g><g><rect x="147.1090909090909" y="48" width="2" height="52" id="death-date-14"></rect></g><g><rect x="143.54545454545453" y="54" width="2" height="46" id="death-date-15"></rect></g><g><rect x="139.9818181818182" y="48" width="2" height="52" id="death-date-16"></rect></g><g><rect x="136.41818181818184" y="29.000000000000004" width="2" height="71" id="death-date-17"></rect></g><g><rect x="132.85454545454544" y="47" width="2" height="53" id="death-date-18"></rect></g><g><rect x="129.29090909090908" y="31.000000000000007" width="2" height="69" id="death-date-19"></rect></g><g><rect x="125.72727272727273" y="50" width="2" height="50" id="death-date-20"></rect></g><g><rect x="122.16363636363636" y="37" width="2" height="63" id="death-date-21"></rect></g><g><rect x="118.6" y="42.00000000000001" width="2" height="57.99999999999999" id="death-date-22"></rect></g><g><rect x="115.03636363636363" y="49" width="2" height="51" id="death-date-23"></rect></g><g><rect x="111.47272727272728" y="43.00000000000001" width="2" height="56.99999999999999" id="death-date-24"></rect></g><g><rect x="107.90909090909089" y="24" width="2" height="76" id="death-date-25"></rect></g><g><rect x="104.34545454545456" y="43.99999999999999" width="2" height="56.00000000000001" id="death-date-26"></rect></g><g><rect x="100.78181818181817" y="23" width="2" height="77" id="death-date-27"></rect></g><g><rect x="97.21818181818183" y="36" width="2" height="64" id="death-date-28"></rect></g><g><rect x="93.65454545454546" y="21.999999999999996" width="2" height="78" id="death-date-29"></rect></g><g><rect x="90.09090909090911" y="35" width="2" height="65" id="death-date-30"></rect></g><g><rect x="86.52727272727273" y="39" width="2" height="61" id="death-date-31"></rect></g><g><rect x="82.96363636363637" y="40" width="2" height="60" id="death-date-32"></rect></g><g><rect x="79.4" y="31.999999999999996" width="2" height="68" id="death-date-33"></rect></g><g><rect x="75.83636363636364" y="38" width="2" height="62" id="death-date-34"></rect></g><g><rect x="72.27272727272727" y="32.99999999999999" width="2" height="67" id="death-date-35"></rect></g><g><rect x="68.70909090909092" y="41" width="2" height="59" id="death-date-36"></rect></g><g><rect x="65.14545454545454" y="31.999999999999996" width="2" height="68" id="death-date-37"></rect></g><g><rect x="61.58181818181818" y="40" width="2" height="60" id="death-date-38"></rect></g><g><rect x="58.018181818181816" y="35" width="2" height="65" id="death-date-39"></rect></g><g><rect x="54.454545454545446" y="43.00000000000001" width="2" height="56.99999999999999" id="death-date-40"></rect></g><g><rect x="50.89090909090908" y="39" width="2" height="61" id="death-date-41"></rect></g><g><rect x="47.32727272727273" y="39" width="2" height="61" id="death-date-42"></rect></g><g><rect x="43.76363636363636" y="40" width="2" height="60" id="death-date-43"></rect></g><g><rect x="40.199999999999996" y="34" width="2" height="66" id="death-date-44"></rect></g><g><rect x="36.636363636363626" y="28.000000000000004" width="2" height="72" id="death-date-45"></rect></g><g><rect x="33.072727272727285" y="0" width="2" height="100" id="death-date-46"></rect></g><g><rect x="29.509090909090922" y="37" width="2" height="63" id="death-date-47"></rect></g><g><rect x="25.945454545454556" y="37" width="2" height="63" id="death-date-48"></rect></g><g><rect x="22.38181818181819" y="36" width="2" height="64" id="death-date-49"></rect></g><g><rect x="18.818181818181824" y="29.000000000000004" width="2" height="71" id="death-date-50"></rect></g><g><rect x="15.254545454545461" y="27" width="2" height="73" id="death-date-51"></rect></g><g><rect x="11.690909090909095" y="39" width="2" height="61" id="death-date-52"></rect></g><g><rect x="8.12727272727273" y="31.000000000000007" width="2" height="69" id="death-date-53"></rect></g><g><rect x="4.563636363636365" y="43.00000000000001" width="2" height="56.99999999999999" id="death-date-54"></rect></g><g><rect x="1" y="32.99999999999999" width="2" height="67" id="death-date-55"></rect></g></g><g class="fg-line death-date" fill="none" stroke="#92c5de" stroke-width="2" stroke-linecap="round"><path d="M198,57.857142857142854L194.43636363636364,53.42857142857142L190.87272727272727,52.142857142857146L187.30909090909088,53.85714285714285L183.74545454545455,52.714285714285715L180.1818181818182,55.42857142857143L176.61818181818182,56.00000000000001L173.05454545454546,52.714285714285715L169.49090909090907,53.57142857142857L165.92727272727274,53.28571428571429L162.36363636363637,51L158.8,48.142857142857146L155.23636363636365,46.14285714285714L151.6727272727273,42.714285714285715L148.1090909090909,43.85714285714285L144.54545454545453,42.285714285714285L140.9818181818182,40.57142857142857L137.41818181818184,40.714285714285715L133.85454545454544,42.714285714285715L130.29090909090908,39.42857142857144L126.72727272727273,41.28571428571428L123.16363636363636,37.42857142857143L119.6,37.28571428571429L116.03636363636363,34.42857142857143L112.47272727272728,32.42857142857143L108.90909090909089,31.85714285714286L105.34545454545456,34.14285714285714L101.78181818181817,32.42857142857143L98.21818181818183,34.57142857142856L94.65454545454546,34.14285714285714L91.09090909090911,36.857142857142854L87.52727272727273,36.42857142857143L83.96363636363637,36.57142857142857L80.4,35.85714285714287L76.83636363636364,37.42857142857143L73.27272727272727,37.57142857142857L69.70909090909092,38.42857142857143L66.14545454545454,38.28571428571429L62.58181818181818,38.57142857142857L59.018181818181816,36.857142857142854L55.454545454545446,31.85714285714286L51.89090909090908,31.000000000000007L48.32727272727273,30.714285714285705L44.76363636363636,30.285714285714292L41.199999999999996,28.714285714285705L37.636363636363626,27.714285714285715L34.072727272727285,29.285714285714292L30.509090909090922,33.71428571428571L26.945454545454556,34.57142857142856L23.38181818181819,34L19.818181818181824,33.42857142857143L16.25454545454546,32.57142857142858L12.690909090909095,32.71428571428571L9.12727272727273,30.285714285714292L5.563636363636365,26.57142857142857L2,19.14285714285714"></path></g></svg>