<svg meta="{&quot;DATA_PUBLISHED_DATE&quot;:&quot;2022-03-16&quot;,&quot;RENDER_DATE&quot;:&quot;2022-03-16&quot;,&quot;FIRST_DATE&quot;:&quot;2022-01-11&quot;,&quot;LAST_DATE&quot;:&quot;2022-03-07&quot;}" xmlns="http://www.w3.org/2000/svg" viewBox="0,0,200,100"><g transform="translate(0,0)"></g><g class="fg-bars cases-ep" fill="#00183f" stroke="none"><g><rect x="197" y="97.54071428571429" width="2" height="2.4592857142857127" id="cases-ep-0"></rect></g><g><rect x="193.43636363636364" y="98.89" width="2" height="1.1099999999999994" id="cases-ep-1"></rect></g><g><rect x="189.87272727272727" y="98.64642857142857" width="2" height="1.3535714285714278" id="cases-ep-2"></rect></g><g><rect x="186.30909090909088" y="97.875" width="2" height="2.125" id="cases-ep-3"></rect></g><g><rect x="182.74545454545455" y="97.54571428571428" width="2" height="2.4542857142857173" id="cases-ep-4"></rect></g><g><rect x="179.1818181818182" y="97.24428571428572" width="2" height="2.7557142857142765" id="cases-ep-5"></rect></g><g><rect x="175.61818181818182" y="96.76357142857142" width="2" height="3.2364285714285757" id="cases-ep-6"></rect></g><g><rect x="172.05454545454546" y="96.32642857142856" width="2" height="3.673571428571435" id="cases-ep-7"></rect></g><g><rect x="168.49090909090907" y="98.34714285714286" width="2" height="1.652857142857144" id="cases-ep-8"></rect></g><g><rect x="164.92727272727274" y="98.10785714285714" width="2" height="1.8921428571428578" id="cases-ep-9"></rect></g><g><rect x="161.36363636363637" y="96.64714285714285" width="2" height="3.3528571428571468" id="cases-ep-10"></rect></g><g><rect x="157.8" y="96.40428571428572" width="2" height="3.59571428571428" id="cases-ep-11"></rect></g><g><rect x="154.23636363636365" y="96.04642857142858" width="2" height="3.953571428571422" id="cases-ep-12"></rect></g><g><rect x="150.6727272727273" y="94.94142857142857" width="2" height="5.058571428571426" id="cases-ep-13"></rect></g><g><rect x="147.1090909090909" y="96.19142857142857" width="2" height="3.808571428571426" id="cases-ep-14"></rect></g><g><rect x="143.54545454545453" y="97.44" width="2" height="2.5600000000000023" id="cases-ep-15"></rect></g><g><rect x="139.9818181818182" y="96.98071428571428" width="2" height="3.019285714285715" id="cases-ep-16"></rect></g><g><rect x="136.41818181818184" y="94.955" width="2" height="5.045000000000002" id="cases-ep-17"></rect></g><g><rect x="132.85454545454544" y="94.14357142857142" width="2" height="5.85642857142858" id="cases-ep-18"></rect></g><g><rect x="129.29090909090908" y="93.14785714285713" width="2" height="6.852142857142866" id="cases-ep-19"></rect></g><g><rect x="125.72727272727273" y="92.11285714285714" width="2" height="7.887142857142862" id="cases-ep-20"></rect></g><g><rect x="122.16363636363636" y="90.715" width="2" height="9.284999999999997" id="cases-ep-21"></rect></g><g><rect x="118.6" y="96.11357142857143" width="2" height="3.886428571428567" id="cases-ep-22"></rect></g><g><rect x="115.03636363636363" y="94.93928571428572" width="2" height="5.060714285714283" id="cases-ep-23"></rect></g><g><rect x="111.47272727272728" y="90.16857142857143" width="2" height="9.831428571428575" id="cases-ep-24"></rect></g><g><rect x="107.90909090909089" y="89.91642857142857" width="2" height="10.083571428571432" id="cases-ep-25"></rect></g><g><rect x="104.34545454545456" y="88.4" width="2" height="11.599999999999994" id="cases-ep-26"></rect></g><g><rect x="100.78181818181817" y="87.19571428571429" width="2" height="12.804285714285712" id="cases-ep-27"></rect></g><g><rect x="97.21818181818183" y="84.01214285714286" width="2" height="15.987857142857138" id="cases-ep-28"></rect></g><g><rect x="93.65454545454546" y="93.16571428571429" width="2" height="6.834285714285713" id="cases-ep-29"></rect></g><g><rect x="90.09090909090911" y="91.65714285714286" width="2" height="8.342857142857142" id="cases-ep-30"></rect></g><g><rect x="86.52727272727273" y="84.38" width="2" height="15.620000000000005" id="cases-ep-31"></rect></g><g><rect x="82.96363636363637" y="82.79928571428572" width="2" height="17.200714285714284" id="cases-ep-32"></rect></g><g><rect x="79.4" y="80.39571428571428" width="2" height="19.604285714285723" id="cases-ep-33"></rect></g><g><rect x="75.83636363636364" y="76.83142857142857" width="2" height="23.168571428571425" id="cases-ep-34"></rect></g><g><rect x="72.27272727272727" y="72.82" width="2" height="27.180000000000007" id="cases-ep-35"></rect></g><g><rect x="68.70909090909092" y="89.39428571428572" width="2" height="10.605714285714285" id="cases-ep-36"></rect></g><g><rect x="65.14545454545454" y="85.3892857142857" width="2" height="14.610714285714295" id="cases-ep-37"></rect></g><g><rect x="61.58181818181818" y="72.755" width="2" height="27.245000000000005" id="cases-ep-38"></rect></g><g><rect x="58.018181818181816" y="68.81928571428571" width="2" height="31.180714285714288" id="cases-ep-39"></rect></g><g><rect x="54.454545454545446" y="63.37071428571428" width="2" height="36.62928571428572" id="cases-ep-40"></rect></g><g><rect x="50.89090909090908" y="57.52928571428571" width="2" height="42.47071428571429" id="cases-ep-41"></rect></g><g><rect x="47.32727272727273" y="50.17499999999999" width="2" height="49.82500000000001" id="cases-ep-42"></rect></g><g><rect x="43.76363636363636" y="79.97142857142858" width="2" height="20.028571428571425" id="cases-ep-43"></rect></g><g><rect x="40.199999999999996" y="71.765" width="2" height="28.235" id="cases-ep-44"></rect></g><g><rect x="36.636363636363626" y="45.21214285714286" width="2" height="54.78785714285714" id="cases-ep-45"></rect></g><g><rect x="33.072727272727285" y="36.386428571428574" width="2" height="63.613571428571426" id="cases-ep-46"></rect></g><g><rect x="29.509090909090922" y="28.428571428571423" width="2" height="71.57142857142858" id="cases-ep-47"></rect></g><g><rect x="25.945454545454556" y="15.20785714285714" width="2" height="84.79214285714286" id="cases-ep-48"></rect></g><g><rect x="22.38181818181819" y="42.60571428571429" width="2" height="57.39428571428571" id="cases-ep-49"></rect></g><g><rect x="18.818181818181824" y="71.54428571428572" width="2" height="28.45571428571428" id="cases-ep-50"></rect></g><g><rect x="15.254545454545461" y="58.76785714285715" width="2" height="41.23214285714285" id="cases-ep-51"></rect></g><g><rect x="11.690909090909095" y="26.49357142857143" width="2" height="73.50642857142857" id="cases-ep-52"></rect></g><g><rect x="8.12727272727273" y="19.435000000000002" width="2" height="80.565" id="cases-ep-53"></rect></g><g><rect x="4.563636363636365" y="10.771428571428576" width="2" height="89.22857142857143" id="cases-ep-54"></rect></g><g><rect x="1" y="4.91071428571429" width="2" height="95.08928571428571" id="cases-ep-55"></rect></g></g><g class="fg-line cases-ep" fill="none" stroke="#92c5de" stroke-width="2" stroke-linecap="round"><path d="M198,97.78653061224489L194.43636363636364,97.6130612244898L190.87272727272727,97.53551020408163L187.30909090909088,97.45857142857143L183.74545454545455,97.28316326530613L180.1818181818182,97.12010204081632L176.61818181818182,96.94897959183673L173.05454545454546,96.68867346938775L169.49090909090907,96.66938775510204L165.92727272727274,96.53979591836735L162.36363636363637,96.37877551020408L158.8,96.13704081632653L155.23636363636365,95.81408163265306L151.6727272727273,95.39999999999999L148.1090909090909,94.99591836734695L144.54545454545453,94.21357142857143L140.9818181818182,94.02408163265305L137.41818181818184,93.73244897959184L133.85454545454544,93.04867346938775L130.29090909090908,92.44479591836735L126.72727272727273,91.7665306122449L123.16363636363636,91.06408163265306L119.6,90.1065306122449L116.03636363636363,89.68540816326531L112.47272727272728,89.2165306122449L108.90909090909089,88.3895918367347L105.34545454545456,87.37285714285714L101.78181818181817,86.22938775510204L98.21818181818183,84.74877551020408L94.65454545454546,83.14989795918368L91.09090909090911,82.61112244897959L87.52727272727273,81.71571428571428L83.96363636363637,80.05499999999999L80.4,78.05785714285715L76.83636363636364,75.62571428571428L73.27272727272727,72.86826530612245L69.70909090909092,69.63326530612245L66.14545454545454,68.28714285714285L62.58181818181818,66.34081632653061L59.018181818181816,62.40612244897959L55.454545454545446,57.772857142857134L51.89090909090908,52.78112244897959L48.32727272727273,46.73520408163265L44.76363636363636,45.65387755102041L41.199999999999996,44.45L37.636363636363626,42.593265306122454L34.072727272727285,39.91918367346939L30.509090909090922,37.49755102040817L26.945454545454556,34.97510204081633L23.38181818181819,33.50408163265306L19.818181818181824,27.516224489795928L16.25454545454546,25.93408163265306L12.690909090909095,24.10724489795918L9.12727272727273,21.040000000000003L5.563636363636365,18.139285714285712L2,15.272857142857143"></path></g></svg>