<svg about="DATA_PUBLISHED_DATE:2022-01-21,RENDER_DATE:2022-01-21" xmlns="http://www.w3.org/2000/svg" viewBox="0,0,200,100"><g transform="translate(0,0)"></g><g class="fg-bars tests-vaccines" fill="#00183f" stroke="none"><g><rect x="197" y="47.77400000000001" width="2" height="52.22599999999999" id="tests-vaccines-0"></rect></g><g><rect x="193.43636363636364" y="45.65314285714286" width="2" height="54.34685714285714" id="tests-vaccines-1"></rect></g><g><rect x="189.87272727272727" y="44.46342857142858" width="2" height="55.53657142857142" id="tests-vaccines-2"></rect></g><g><rect x="186.30909090909088" y="47.837428571428575" width="2" height="52.162571428571425" id="tests-vaccines-3"></rect></g><g><rect x="182.74545454545455" y="82.36257142857143" width="2" height="17.637428571428572" id="tests-vaccines-4"></rect></g><g><rect x="179.1818181818182" y="59.09485714285714" width="2" height="40.90514285714286" id="tests-vaccines-5"></rect></g><g><rect x="175.61818181818182" y="26.02457142857143" width="2" height="73.97542857142857" id="tests-vaccines-6"></rect></g><g><rect x="172.05454545454546" y="35.74514285714285" width="2" height="64.25485714285715" id="tests-vaccines-7"></rect></g><g><rect x="168.49090909090907" y="38.22228571428572" width="2" height="61.77771428571428" id="tests-vaccines-8"></rect></g><g><rect x="164.92727272727274" y="39.18114285714286" width="2" height="60.81885714285714" id="tests-vaccines-9"></rect></g><g><rect x="161.36363636363637" y="43.454857142857136" width="2" height="56.545142857142864" id="tests-vaccines-10"></rect></g><g><rect x="157.8" y="84.72714285714285" width="2" height="15.272857142857148" id="tests-vaccines-11"></rect></g><g><rect x="154.23636363636365" y="97.788" width="2" height="2.2120000000000033" id="tests-vaccines-12"></rect></g><g><rect x="150.6727272727273" y="78.38457142857142" width="2" height="21.61542857142858" id="tests-vaccines-13"></rect></g><g><rect x="147.1090909090909" y="36.32657142857143" width="2" height="63.67342857142857" id="tests-vaccines-14"></rect></g><g><rect x="143.54545454545453" y="31.544285714285714" width="2" height="68.4557142857143" id="tests-vaccines-15"></rect></g><g><rect x="139.9818181818182" y="31.51628571428572" width="2" height="68.48371428571429" id="tests-vaccines-16"></rect></g><g><rect x="136.41818181818184" y="39.93714285714286" width="2" height="60.06285714285714" id="tests-vaccines-17"></rect></g><g><rect x="132.85454545454544" y="84.04514285714286" width="2" height="15.954857142857136" id="tests-vaccines-18"></rect></g><g><rect x="129.29090909090908" y="99.74028571428572" width="2" height="0.25971428571428135" id="tests-vaccines-19"></rect></g><g><rect x="125.72727272727273" y="87.11257142857143" width="2" height="12.887428571428572" id="tests-vaccines-20"></rect></g><g><rect x="122.16363636363636" y="38.15142857142857" width="2" height="61.84857142857143" id="tests-vaccines-21"></rect></g><g><rect x="118.6" y="27.123142857142856" width="2" height="72.87685714285715" id="tests-vaccines-22"></rect></g><g><rect x="115.03636363636363" y="25.02885714285714" width="2" height="74.97114285714287" id="tests-vaccines-23"></rect></g><g><rect x="111.47272727272728" y="30.019714285714283" width="2" height="69.98028571428571" id="tests-vaccines-24"></rect></g><g><rect x="107.90909090909089" y="79.35342857142858" width="2" height="20.64657142857142" id="tests-vaccines-25"></rect></g><g><rect x="104.34545454545456" y="59.156285714285715" width="2" height="40.843714285714285" id="tests-vaccines-26"></rect></g><g><rect x="100.78181818181817" y="25.70914285714285" width="2" height="74.29085714285715" id="tests-vaccines-27"></rect></g><g><rect x="97.21818181818183" y="34.983428571428576" width="2" height="65.01657142857142" id="tests-vaccines-28"></rect></g><g><rect x="93.65454545454546" y="33.44885714285715" width="2" height="66.55114285714285" id="tests-vaccines-29"></rect></g><g><rect x="90.09090909090911" y="35.28857142857142" width="2" height="64.71142857142857" id="tests-vaccines-30"></rect></g><g><rect x="86.52727272727273" y="37.87685714285715" width="2" height="62.12314285714285" id="tests-vaccines-31"></rect></g><g><rect x="82.96363636363637" y="79.83228571428572" width="2" height="20.167714285714283" id="tests-vaccines-32"></rect></g><g><rect x="79.4" y="53.86657142857143" width="2" height="46.13342857142857" id="tests-vaccines-33"></rect></g><g><rect x="75.83636363636364" y="19.426" width="2" height="80.574" id="tests-vaccines-34"></rect></g><g><rect x="72.27272727272727" y="27.45885714285714" width="2" height="72.54114285714286" id="tests-vaccines-35"></rect></g><g><rect x="68.70909090909092" y="25.029714285714288" width="2" height="74.97028571428571" id="tests-vaccines-36"></rect></g><g><rect x="65.14545454545454" y="25.163428571428568" width="2" height="74.83657142857143" id="tests-vaccines-37"></rect></g><g><rect x="61.58181818181818" y="30.52057142857143" width="2" height="69.47942857142857" id="tests-vaccines-38"></rect></g><g><rect x="58.018181818181816" y="76.11771428571429" width="2" height="23.882285714285715" id="tests-vaccines-39"></rect></g><g><rect x="54.454545454545446" y="47.352000000000004" width="2" height="52.647999999999996" id="tests-vaccines-40"></rect></g><g><rect x="50.89090909090908" y="8.584000000000003" width="2" height="91.416" id="tests-vaccines-41"></rect></g><g><rect x="47.32727272727273" y="19.27428571428571" width="2" height="80.72571428571429" id="tests-vaccines-42"></rect></g><g><rect x="43.76363636363636" y="21.26" width="2" height="78.74" id="tests-vaccines-43"></rect></g><g><rect x="40.199999999999996" y="29.134571428571434" width="2" height="70.86542857142857" id="tests-vaccines-44"></rect></g><g><rect x="36.636363636363626" y="38.68371428571429" width="2" height="61.31628571428571" id="tests-vaccines-45"></rect></g><g><rect x="33.072727272727285" y="81.52228571428572" width="2" height="18.477714285714285" id="tests-vaccines-46"></rect></g><g><rect x="29.509090909090922" y="67.18942857142858" width="2" height="32.81057142857142" id="tests-vaccines-47"></rect></g><g><rect x="25.945454545454556" y="56.16571428571429" width="2" height="43.83428571428571" id="tests-vaccines-48"></rect></g><g><rect x="22.38181818181819" y="98.57571428571428" width="2" height="1.4242857142857162" id="tests-vaccines-49"></rect></g><g><rect x="18.818181818181824" y="41.193714285714286" width="2" height="58.806285714285714" id="tests-vaccines-50"></rect></g><g><rect x="15.254545454545461" y="30.020000000000003" width="2" height="69.97999999999999" id="tests-vaccines-51"></rect></g><g><rect x="11.690909090909095" y="33.19542857142858" width="2" height="66.80457142857142" id="tests-vaccines-52"></rect></g><g><rect x="8.12727272727273" y="78.76285714285714" width="2" height="21.237142857142857" id="tests-vaccines-53"></rect></g><g><rect x="4.563636363636365" y="54.88285714285715" width="2" height="45.11714285714285" id="tests-vaccines-54"></rect></g><g><rect x="1" y="22.464285714285715" width="2" height="77.53571428571428" id="tests-vaccines-55"></rect></g></g><g class="fg-line tests-vaccines" fill="none" stroke="#92c5de" stroke-width="2" stroke-linecap="round"><path d="M198,50.45857142857143L194.43636363636364,48.74016326530612L190.87272727272727,47.67861224489797L187.30909090909088,46.924L183.74545454545455,46.29791836734694L180.1818181818182,46.63571428571428L176.61818181818182,52.16330612244897L173.05454545454546,59.64330612244897L169.49090909090907,59.72636734693877L165.92727272727274,58.77236734693878L162.36363636363637,57.67738775510204L158.8,57.17485714285715L155.23636363636365,57.07742857142857L151.6727272727273,57.35632653061224L148.1090909090909,58.603183673469395L144.54545454545453,58.86387755102041L140.9818181818182,58.232285714285716L137.41818181818184,57.305510204081635L133.85454545454544,55.88873469387755L130.29090909090908,55.218489795918366L126.72727272727273,49.42077551020409L123.16363636363636,40.64885714285714L119.6,40.196285714285715L116.03636363636363,41.09995918367346L112.47272727272728,42.56563265306122L108.90909090909089,43.688081632653066L105.34545454545456,43.75648979591838L101.78181818181817,43.00081632653061L98.21818181818183,42.10322448979592L94.65454545454546,41.028285714285715L91.09090909090911,39.82555102040817L87.52727272727273,38.37910204081633L83.96363636363637,37.328204081632656L80.4,36.79755102040817L76.83636363636364,35.866897959183675L73.27272727272727,34.31804081632654L69.70909090909092,33.14881632653061L66.14545454545454,32.610285714285716L62.58181818181818,33.177591836734685L59.018181818181816,34.34375510204082L55.454545454545446,35.115836734693886L51.89090909090908,37.94975510204082L48.32727272727273,44.747142857142855L44.76363636363636,56.07591836734693L41.199999999999996,58.92359183673469L37.636363636363626,59.05008163265306L34.072727272727285,58.26604081632654L30.509090909090922,57.87183673469388L26.945454545454556,56.11375510204082L23.38181818181819,51.29926530612246L19.818181818181824,42.15946938775511L16.25454545454546,41.05632653061225L12.690909090909095,41.77583673469388L9.12727272727273,42.849265306122454L5.563636363636365,42.94383673469389L2,43.26232653061225"></path></g></svg>