<svg meta="{&quot;DATA_PUBLISHED_DATE&quot;:&quot;2023-06-08&quot;,&quot;RENDER_DATE&quot;:&quot;2023-06-08&quot;,&quot;FIRST_DATE&quot;:&quot;2023-04-05&quot;,&quot;LAST_DATE&quot;:&quot;2023-05-30&quot;}" xmlns="http://www.w3.org/2000/svg" viewBox="0,0,200,100"><g transform="translate(0,0)"></g><g class="fg-bars cases-ep" fill="#00183f" stroke="none"><g><rect x="197" y="53.68181818181819" width="2" height="46.31818181818181" id="cases-ep-0"></rect></g><g><rect x="193.43636363636364" y="75.77272727272727" width="2" height="24.227272727272734" id="cases-ep-1"></rect></g><g><rect x="189.87272727272727" y="76.31818181818181" width="2" height="23.681818181818187" id="cases-ep-2"></rect></g><g><rect x="186.30909090909088" y="76.22727272727272" width="2" height="23.77272727272728" id="cases-ep-3"></rect></g><g><rect x="182.74545454545455" y="64.86363636363637" width="2" height="35.136363636363626" id="cases-ep-4"></rect></g><g><rect x="179.1818181818182" y="62.27272727272728" width="2" height="37.72727272727272" id="cases-ep-5"></rect></g><g><rect x="175.61818181818182" y="61.04545454545455" width="2" height="38.95454545454545" id="cases-ep-6"></rect></g><g><rect x="172.05454545454546" y="56.81818181818181" width="2" height="43.18181818181819" id="cases-ep-7"></rect></g><g><rect x="168.49090909090907" y="54" width="2" height="46" id="cases-ep-8"></rect></g><g><rect x="164.92727272727274" y="73.04545454545455" width="2" height="26.954545454545453" id="cases-ep-9"></rect></g><g><rect x="161.36363636363637" y="71.72727272727273" width="2" height="28.272727272727266" id="cases-ep-10"></rect></g><g><rect x="157.8" y="61.18181818181818" width="2" height="38.81818181818182" id="cases-ep-11"></rect></g><g><rect x="154.23636363636365" y="55.363636363636374" width="2" height="44.636363636363626" id="cases-ep-12"></rect></g><g><rect x="150.6727272727273" y="50.81818181818182" width="2" height="49.18181818181818" id="cases-ep-13"></rect></g><g><rect x="147.1090909090909" y="52.36363636363637" width="2" height="47.63636363636363" id="cases-ep-14"></rect></g><g><rect x="143.54545454545453" y="45.18181818181818" width="2" height="54.81818181818182" id="cases-ep-15"></rect></g><g><rect x="139.9818181818182" y="71.59090909090908" width="2" height="28.40909090909092" id="cases-ep-16"></rect></g><g><rect x="136.41818181818184" y="70.86363636363636" width="2" height="29.13636363636364" id="cases-ep-17"></rect></g><g><rect x="132.85454545454544" y="53.77272727272727" width="2" height="46.22727272727273" id="cases-ep-18"></rect></g><g><rect x="129.29090909090908" y="43.81818181818182" width="2" height="56.18181818181818" id="cases-ep-19"></rect></g><g><rect x="125.72727272727273" y="45.95454545454546" width="2" height="54.04545454545454" id="cases-ep-20"></rect></g><g><rect x="122.16363636363636" y="45.59090909090909" width="2" height="54.40909090909091" id="cases-ep-21"></rect></g><g><rect x="118.6" y="39.13636363636363" width="2" height="60.86363636363637" id="cases-ep-22"></rect></g><g><rect x="115.03636363636363" y="66.36363636363636" width="2" height="33.63636363636364" id="cases-ep-23"></rect></g><g><rect x="111.47272727272728" y="68.4090909090909" width="2" height="31.590909090909093" id="cases-ep-24"></rect></g><g><rect x="107.90909090909089" y="53.81818181818182" width="2" height="46.18181818181818" id="cases-ep-25"></rect></g><g><rect x="104.34545454545456" y="54.36363636363637" width="2" height="45.63636363636363" id="cases-ep-26"></rect></g><g><rect x="100.78181818181817" y="49.36363636363637" width="2" height="50.63636363636363" id="cases-ep-27"></rect></g><g><rect x="97.21818181818183" y="42.77272727272727" width="2" height="57.22727272727273" id="cases-ep-28"></rect></g><g><rect x="93.65454545454546" y="39.72727272727272" width="2" height="60.27272727272728" id="cases-ep-29"></rect></g><g><rect x="90.09090909090911" y="67.45454545454545" width="2" height="32.54545454545455" id="cases-ep-30"></rect></g><g><rect x="86.52727272727273" y="65.5909090909091" width="2" height="34.40909090909091" id="cases-ep-31"></rect></g><g><rect x="82.96363636363637" y="50.22727272727272" width="2" height="49.77272727272728" id="cases-ep-32"></rect></g><g><rect x="79.4" y="46.13636363636363" width="2" height="53.86363636363637" id="cases-ep-33"></rect></g><g><rect x="75.83636363636364" y="37.36363636363637" width="2" height="62.63636363636363" id="cases-ep-34"></rect></g><g><rect x="72.27272727272727" y="37.45454545454545" width="2" height="62.54545454545455" id="cases-ep-35"></rect></g><g><rect x="68.70909090909092" y="26.681818181818183" width="2" height="73.31818181818181" id="cases-ep-36"></rect></g><g><rect x="65.14545454545454" y="61.090909090909086" width="2" height="38.909090909090914" id="cases-ep-37"></rect></g><g><rect x="61.58181818181818" y="61.04545454545455" width="2" height="38.95454545454545" id="cases-ep-38"></rect></g><g><rect x="58.018181818181816" y="47.68181818181818" width="2" height="52.31818181818182" id="cases-ep-39"></rect></g><g><rect x="54.454545454545446" y="42.50000000000001" width="2" height="57.49999999999999" id="cases-ep-40"></rect></g><g><rect x="50.89090909090908" y="40.86363636363637" width="2" height="59.13636363636363" id="cases-ep-41"></rect></g><g><rect x="47.32727272727273" y="33.45454545454546" width="2" height="66.54545454545453" id="cases-ep-42"></rect></g><g><rect x="43.76363636363636" y="23.772727272727266" width="2" height="76.22727272727273" id="cases-ep-43"></rect></g><g><rect x="40.199999999999996" y="62" width="2" height="38" id="cases-ep-44"></rect></g><g><rect x="36.636363636363626" y="55.77272727272727" width="2" height="44.22727272727273" id="cases-ep-45"></rect></g><g><rect x="33.072727272727285" y="42.59090909090909" width="2" height="57.40909090909091" id="cases-ep-46"></rect></g><g><rect x="29.509090909090922" y="32.40909090909091" width="2" height="67.5909090909091" id="cases-ep-47"></rect></g><g><rect x="25.945454545454556" y="29.000000000000004" width="2" height="71" id="cases-ep-48"></rect></g><g><rect x="22.38181818181819" y="26.227272727272734" width="2" height="73.77272727272727" id="cases-ep-49"></rect></g><g><rect x="18.818181818181824" y="8.454545454545459" width="2" height="91.54545454545455" id="cases-ep-50"></rect></g><g><rect x="15.254545454545461" y="58.909090909090914" width="2" height="41.090909090909086" id="cases-ep-51"></rect></g><g><rect x="11.690909090909095" y="52.727272727272734" width="2" height="47.272727272727266" id="cases-ep-52"></rect></g><g><rect x="8.12727272727273" y="40" width="2" height="60" id="cases-ep-53"></rect></g><g><rect x="4.563636363636365" y="34.86363636363636" width="2" height="65.13636363636364" id="cases-ep-54"></rect></g><g><rect x="1" y="33.22727272727273" width="2" height="66.77272727272728" id="cases-ep-55"></rect></g></g><g class="fg-line cases-ep" fill="none" stroke="#92c5de" stroke-width="2" stroke-linecap="round"><path d="M198,67.16883116883116L194.43636363636364,67.61688311688312L190.87272727272727,64.50649350649351L187.30909090909088,64.03896103896103L183.74545454545455,63.396103896103895L180.1818181818182,62.87012987012987L176.61818181818182,61.883116883116884L173.05454545454546,60.42207792207792L169.49090909090907,59.785714285714285L165.92727272727274,58.52597402597402L162.36363636363637,58.31818181818183L158.8,58.1948051948052L155.23636363636365,57.136363636363626L151.6727272727273,55.48701298701298L148.1090909090909,54.79220779220779L144.54545454545453,53.82467532467532L140.9818181818182,52.961038961038966L137.41818181818184,52.21428571428572L133.85454545454544,51.86363636363636L130.29090909090908,51.870129870129865L126.72727272727273,53.376623376623364L123.16363636363636,53.86363636363636L119.6,53.46103896103895L116.03636363636363,53.54545454545454L112.47272727272728,53.7012987012987L108.90909090909089,53.2987012987013L105.34545454545456,52.78571428571428L101.78181818181817,51.6103896103896L98.21818181818183,49.896103896103895L94.65454545454546,49.13636363636363L91.09090909090911,47.27272727272728L87.52727272727273,46.36363636363636L83.96363636363637,45.714285714285715L80.4,45.350649350649356L76.83636363636364,44.83116883116883L73.27272727272727,45.33116883116883L69.70909090909092,44.75974025974027L66.14545454545454,44.34415584415585L62.58181818181818,44.47402597402596L59.018181818181816,43.72077922077923L55.454545454545446,42.993506493506494L51.89090909090908,41.55194805194805L48.32727272727273,39.85714285714286L44.76363636363636,38.824675324675326L41.199999999999996,36.63636363636363L37.636363636363626,36.19480519480519L34.072727272727285,35.759740259740255L30.509090909090922,35.3896103896104L26.945454545454556,35.74025974025974L23.38181818181819,36.34415584415584L19.818181818181824,36.62337662337662L16.25454545454546,37.77922077922078L12.690909090909095,37.36363636363637L9.12727272727273,37.01298701298701L5.563636363636365,36.29220779220779L2,35.324675324675326"></path></g></svg>