<svg meta="{&quot;DATA_PUBLISHED_DATE&quot;:&quot;2022-11-10&quot;,&quot;RENDER_DATE&quot;:&quot;2022-11-10&quot;,&quot;FIRST_DATE&quot;:&quot;2022-09-07&quot;,&quot;LAST_DATE&quot;:&quot;2022-11-01&quot;}" xmlns="http://www.w3.org/2000/svg" viewBox="0,0,200,100"><g transform="translate(0,0)"></g><g class="fg-bars cases-ep" fill="#00183f" stroke="none"><g><rect x="197" y="36.8" width="2" height="63.2" id="cases-ep-0"></rect></g><g><rect x="193.43636363636364" y="38.24999999999999" width="2" height="61.75000000000001" id="cases-ep-1"></rect></g><g><rect x="189.87272727272727" y="68.93333333333334" width="2" height="31.066666666666663" id="cases-ep-2"></rect></g><g><rect x="186.30909090909088" y="66.5" width="2" height="33.5" id="cases-ep-3"></rect></g><g><rect x="182.74545454545455" y="54.56666666666668" width="2" height="45.43333333333332" id="cases-ep-4"></rect></g><g><rect x="179.1818181818182" y="52.400000000000006" width="2" height="47.599999999999994" id="cases-ep-5"></rect></g><g><rect x="175.61818181818182" y="51.33333333333333" width="2" height="48.66666666666667" id="cases-ep-6"></rect></g><g><rect x="172.05454545454546" y="48.81666666666666" width="2" height="51.18333333333334" id="cases-ep-7"></rect></g><g><rect x="168.49090909090907" y="44.099999999999994" width="2" height="55.900000000000006" id="cases-ep-8"></rect></g><g><rect x="164.92727272727274" y="71.61666666666666" width="2" height="28.38333333333334" id="cases-ep-9"></rect></g><g><rect x="161.36363636363637" y="70.23333333333332" width="2" height="29.76666666666668" id="cases-ep-10"></rect></g><g><rect x="157.8" y="58.9" width="2" height="41.1" id="cases-ep-11"></rect></g><g><rect x="154.23636363636365" y="54.31666666666667" width="2" height="45.68333333333333" id="cases-ep-12"></rect></g><g><rect x="150.6727272727273" y="53.13333333333333" width="2" height="46.86666666666667" id="cases-ep-13"></rect></g><g><rect x="147.1090909090909" y="48.983333333333334" width="2" height="51.016666666666666" id="cases-ep-14"></rect></g><g><rect x="143.54545454545453" y="42.833333333333336" width="2" height="57.166666666666664" id="cases-ep-15"></rect></g><g><rect x="139.9818181818182" y="71.81666666666666" width="2" height="28.183333333333337" id="cases-ep-16"></rect></g><g><rect x="136.41818181818184" y="69.10000000000001" width="2" height="30.89999999999999" id="cases-ep-17"></rect></g><g><rect x="132.85454545454544" y="57.91666666666666" width="2" height="42.08333333333334" id="cases-ep-18"></rect></g><g><rect x="129.29090909090908" y="55.49999999999999" width="2" height="44.50000000000001" id="cases-ep-19"></rect></g><g><rect x="125.72727272727273" y="51.4" width="2" height="48.6" id="cases-ep-20"></rect></g><g><rect x="122.16363636363636" y="48.18333333333334" width="2" height="51.81666666666666" id="cases-ep-21"></rect></g><g><rect x="118.6" y="43.36666666666667" width="2" height="56.63333333333333" id="cases-ep-22"></rect></g><g><rect x="115.03636363636363" y="69.23333333333333" width="2" height="30.766666666666666" id="cases-ep-23"></rect></g><g><rect x="111.47272727272728" y="65.85" width="2" height="34.150000000000006" id="cases-ep-24"></rect></g><g><rect x="107.90909090909089" y="54.15" width="2" height="45.85" id="cases-ep-25"></rect></g><g><rect x="104.34545454545456" y="52.733333333333334" width="2" height="47.266666666666666" id="cases-ep-26"></rect></g><g><rect x="100.78181818181817" y="48.21666666666666" width="2" height="51.78333333333334" id="cases-ep-27"></rect></g><g><rect x="97.21818181818183" y="42.15" width="2" height="57.85" id="cases-ep-28"></rect></g><g><rect x="93.65454545454546" y="33.68333333333333" width="2" height="66.31666666666666" id="cases-ep-29"></rect></g><g><rect x="90.09090909090911" y="65.88333333333334" width="2" height="34.11666666666666" id="cases-ep-30"></rect></g><g><rect x="86.52727272727273" y="59.533333333333324" width="2" height="40.466666666666676" id="cases-ep-31"></rect></g><g><rect x="82.96363636363637" y="46.85" width="2" height="53.15" id="cases-ep-32"></rect></g><g><rect x="79.4" y="43.41666666666667" width="2" height="56.58333333333333" id="cases-ep-33"></rect></g><g><rect x="75.83636363636364" y="35.650000000000006" width="2" height="64.35" id="cases-ep-34"></rect></g><g><rect x="72.27272727272727" y="33.51666666666666" width="2" height="66.48333333333335" id="cases-ep-35"></rect></g><g><rect x="68.70909090909092" y="22.050000000000004" width="2" height="77.94999999999999" id="cases-ep-36"></rect></g><g><rect x="65.14545454545454" y="60.31666666666666" width="2" height="39.68333333333334" id="cases-ep-37"></rect></g><g><rect x="61.58181818181818" y="57.15" width="2" height="42.85" id="cases-ep-38"></rect></g><g><rect x="58.018181818181816" y="42.35" width="2" height="57.65" id="cases-ep-39"></rect></g><g><rect x="54.454545454545446" y="38.63333333333333" width="2" height="61.36666666666667" id="cases-ep-40"></rect></g><g><rect x="50.89090909090908" y="35.81666666666666" width="2" height="64.18333333333334" id="cases-ep-41"></rect></g><g><rect x="47.32727272727273" y="28.766666666666662" width="2" height="71.23333333333333" id="cases-ep-42"></rect></g><g><rect x="43.76363636363636" y="19.799999999999997" width="2" height="80.2" id="cases-ep-43"></rect></g><g><rect x="40.199999999999996" y="58.41666666666667" width="2" height="41.58333333333333" id="cases-ep-44"></rect></g><g><rect x="36.636363636363626" y="53.86666666666666" width="2" height="46.13333333333334" id="cases-ep-45"></rect></g><g><rect x="33.072727272727285" y="36.650000000000006" width="2" height="63.349999999999994" id="cases-ep-46"></rect></g><g><rect x="29.509090909090922" y="32.766666666666666" width="2" height="67.23333333333333" id="cases-ep-47"></rect></g><g><rect x="25.945454545454556" y="26.3" width="2" height="73.7" id="cases-ep-48"></rect></g><g><rect x="22.38181818181819" y="17.15" width="2" height="82.85" id="cases-ep-49"></rect></g><g><rect x="18.818181818181824" y="5.183333333333328" width="2" height="94.81666666666668" id="cases-ep-50"></rect></g><g><rect x="15.254545454545461" y="49.36666666666667" width="2" height="50.63333333333333" id="cases-ep-51"></rect></g><g><rect x="11.690909090909095" y="45.71666666666667" width="2" height="54.28333333333333" id="cases-ep-52"></rect></g><g><rect x="8.12727272727273" y="19.75" width="2" height="80.25" id="cases-ep-53"></rect></g><g><rect x="4.563636363636365" y="11.983333333333334" width="2" height="88.01666666666667" id="cases-ep-54"></rect></g><g><rect x="1" y="0.6166666666666654" width="2" height="99.38333333333334" id="cases-ep-55"></rect></g></g><g class="fg-line cases-ep" fill="none" stroke="#92c5de" stroke-width="2" stroke-linecap="round"><path d="M198,52.68333333333332L194.43636363636364,54.400000000000006L190.87272727272727,55.23571428571429L187.30909090909088,55.61904761904762L183.74545454545455,56.15238095238095L180.1818181818182,56.77142857142857L176.61818181818182,57.04523809523809L173.05454545454546,57.30238095238096L169.49090909090907,57.326190476190476L165.92727272727274,57.145238095238106L162.36363636363637,57.173809523809524L158.8,57.011904761904766L155.23636363636365,56.871428571428574L151.6727272727273,57.040476190476184L148.1090909090909,56.79285714285713L144.54545454545453,56.67857142857142L140.9818181818182,56.7547619047619L137.41818181818184,56.385714285714286L133.85454545454544,55.921428571428564L130.29090909090908,55.38333333333334L126.72727272727273,54.988095238095234L123.16363636363636,54.53333333333333L119.6,53.67142857142857L116.03636363636363,52.28809523809523L112.47272727272728,51.8095238095238L108.90909090909089,50.90714285714286L105.34545454545456,49.864285714285714L101.78181818181817,48.53333333333333L98.21818181818183,46.738095238095234L94.65454545454546,45.50476190476191L91.09090909090911,43.84285714285714L87.52727272727273,43.047619047619044L83.96363636363637,42.707142857142856L80.4,42.06428571428571L76.83636363636364,41.38095238095237L73.27272727272727,41.4047619047619L69.70909090909092,40.726190476190474L66.14545454545454,40.4047619047619L62.58181818181818,40.13333333333333L59.018181818181816,39.66428571428571L55.454545454545446,38.849999999999994L51.89090909090908,38.01190476190476L48.32727272727273,36.65238095238096L44.76363636363636,34.99285714285713L41.199999999999996,32.904761904761905L37.636363636363626,31.611904761904754L34.072727272727285,30.447619047619057L30.509090909090922,28.03333333333333L26.945454545454556,25.064285714285717L23.38181818181819,21.39523809523809L19.818181818181824,14.645238095238089L16.25454545454546,20.30238095238095L12.690909090909095,20.016666666666673L9.12727272727273,19.35714285714286L5.563636363636365,17.88333333333333L2,15.647619047619054"></path></g></svg>