<svg about="DATA_PUBLISHED_DATE:2022-02-01,RENDER_DATE:2022-02-01" xmlns="http://www.w3.org/2000/svg" viewBox="0,0,200,100"><g transform="translate(0,0)"></g><g class="fg-bars cases-ep" fill="#00183f" stroke="none"><g><rect x="197" y="84.2075" width="2" height="15.792500000000004" id="cases-ep-0"></rect></g><g><rect x="193.43636363636364" y="76.61687500000001" width="2" height="23.383124999999993" id="cases-ep-1"></rect></g><g><rect x="189.87272727272727" y="53.26" width="2" height="46.74" id="cases-ep-2"></rect></g><g><rect x="186.30909090909088" y="45.01500000000001" width="2" height="54.98499999999999" id="cases-ep-3"></rect></g><g><rect x="182.74545454545455" y="38.715624999999996" width="2" height="61.284375000000004" id="cases-ep-4"></rect></g><g><rect x="179.1818181818182" y="26.978749999999994" width="2" height="73.02125000000001" id="cases-ep-5"></rect></g><g><rect x="175.61818181818182" y="51.439375" width="2" height="48.560625" id="cases-ep-6"></rect></g><g><rect x="172.05454545454546" y="76.728125" width="2" height="23.271874999999994" id="cases-ep-7"></rect></g><g><rect x="168.49090909090907" y="65.32375" width="2" height="34.676249999999996" id="cases-ep-8"></rect></g><g><rect x="164.92727272727274" y="36.558749999999996" width="2" height="63.441250000000004" id="cases-ep-9"></rect></g><g><rect x="161.36363636363637" y="30.852500000000006" width="2" height="69.1475" id="cases-ep-10"></rect></g><g><rect x="157.8" y="24.361250000000002" width="2" height="75.63875" id="cases-ep-11"></rect></g><g><rect x="154.23636363636365" y="18.969375" width="2" height="81.030625" id="cases-ep-12"></rect></g><g><rect x="150.6727272727273" y="15.394375000000004" width="2" height="84.605625" id="cases-ep-13"></rect></g><g><rect x="147.1090909090909" y="67.106875" width="2" height="32.893125" id="cases-ep-14"></rect></g><g><rect x="143.54545454545453" y="54.193749999999994" width="2" height="45.806250000000006" id="cases-ep-15"></rect></g><g><rect x="139.9818181818182" y="18.130625000000002" width="2" height="81.86937499999999" id="cases-ep-16"></rect></g><g><rect x="136.41818181818184" y="13.413125000000004" width="2" height="86.58687499999999" id="cases-ep-17"></rect></g><g><rect x="132.85454545454544" y="6.799374999999996" width="2" height="93.200625" id="cases-ep-18"></rect></g><g><rect x="129.29090909090908" y="6.191875000000002" width="2" height="93.808125" id="cases-ep-19"></rect></g><g><rect x="125.72727272727273" y="17.42625" width="2" height="82.57375" id="cases-ep-20"></rect></g><g><rect x="122.16363636363636" y="67.238125" width="2" height="32.761875" id="cases-ep-21"></rect></g><g><rect x="118.6" y="81.466875" width="2" height="18.533125" id="cases-ep-22"></rect></g><g><rect x="115.03636363636363" y="68.19125" width="2" height="31.808750000000003" id="cases-ep-23"></rect></g><g><rect x="111.47272727272728" y="48.206875000000004" width="2" height="51.793124999999996" id="cases-ep-24"></rect></g><g><rect x="107.90909090909089" y="45.86" width="2" height="54.14" id="cases-ep-25"></rect></g><g><rect x="104.34545454545456" y="46.314375" width="2" height="53.685625" id="cases-ep-26"></rect></g><g><rect x="100.78181818181817" y="54.536249999999995" width="2" height="45.463750000000005" id="cases-ep-27"></rect></g><g><rect x="97.21818181818183" y="78.71187499999999" width="2" height="21.288125000000008" id="cases-ep-28"></rect></g><g><rect x="93.65454545454546" y="91.4525" width="2" height="8.5475" id="cases-ep-29"></rect></g><g><rect x="90.09090909090911" y="86.8" width="2" height="13.200000000000003" id="cases-ep-30"></rect></g><g><rect x="86.52727272727273" y="80.32249999999999" width="2" height="19.67750000000001" id="cases-ep-31"></rect></g><g><rect x="82.96363636363637" y="80.619375" width="2" height="19.380624999999995" id="cases-ep-32"></rect></g><g><rect x="79.4" y="83.31625" width="2" height="16.683750000000003" id="cases-ep-33"></rect></g><g><rect x="75.83636363636364" y="85.85000000000001" width="2" height="14.149999999999991" id="cases-ep-34"></rect></g><g><rect x="72.27272727272727" y="93.473125" width="2" height="6.526875000000004" id="cases-ep-35"></rect></g><g><rect x="68.70909090909092" y="94.03375" width="2" height="5.966250000000002" id="cases-ep-36"></rect></g><g><rect x="65.14545454545454" y="93.144375" width="2" height="6.855625000000003" id="cases-ep-37"></rect></g><g><rect x="61.58181818181818" y="93.68875" width="2" height="6.311250000000001" id="cases-ep-38"></rect></g><g><rect x="58.018181818181816" y="93.76124999999999" width="2" height="6.23875000000001" id="cases-ep-39"></rect></g><g><rect x="54.454545454545446" y="94.82875" width="2" height="5.171250000000001" id="cases-ep-40"></rect></g><g><rect x="50.89090909090908" y="94.483125" width="2" height="5.516874999999999" id="cases-ep-41"></rect></g><g><rect x="47.32727272727273" y="97.28125" width="2" height="2.71875" id="cases-ep-42"></rect></g><g><rect x="43.76363636363636" y="97.36875" width="2" height="2.6312499999999943" id="cases-ep-43"></rect></g><g><rect x="40.199999999999996" y="96.40062499999999" width="2" height="3.599375000000009" id="cases-ep-44"></rect></g><g><rect x="36.636363636363626" y="96.410625" width="2" height="3.589375000000004" id="cases-ep-45"></rect></g><g><rect x="33.072727272727285" y="95.943125" width="2" height="4.056875000000005" id="cases-ep-46"></rect></g><g><rect x="29.509090909090922" y="95.916875" width="2" height="4.0831249999999955" id="cases-ep-47"></rect></g><g><rect x="25.945454545454556" y="95.360625" width="2" height="4.639375000000001" id="cases-ep-48"></rect></g><g><rect x="22.38181818181819" y="97.58375000000001" width="2" height="2.416249999999991" id="cases-ep-49"></rect></g><g><rect x="18.818181818181824" y="97.395" width="2" height="2.605000000000004" id="cases-ep-50"></rect></g><g><rect x="15.254545454545461" y="96.156875" width="2" height="3.8431250000000006" id="cases-ep-51"></rect></g><g><rect x="11.690909090909095" y="96.050625" width="2" height="3.9493750000000034" id="cases-ep-52"></rect></g><g><rect x="8.12727272727273" y="95.3075" width="2" height="4.6924999999999955" id="cases-ep-53"></rect></g><g><rect x="4.563636363636365" y="95.57187499999999" width="2" height="4.4281250000000085" id="cases-ep-54"></rect></g><g><rect x="1" y="94.821875" width="2" height="5.178124999999994" id="cases-ep-55"></rect></g></g><g class="fg-line cases-ep" fill="none" stroke="#92c5de" stroke-width="2" stroke-linecap="round"><path d="M198,53.747589285714284L194.43636363636364,52.67910714285715L190.87272727272727,51.06580357142857L187.30909090909088,48.67991071428571L183.74545454545455,46.65669642857143L180.1818181818182,44.60607142857144L176.61818181818182,43.461875000000006L173.05454545454546,38.31258928571428L169.49090909090907,36.938125L165.92727272727274,35.348124999999996L162.36363636363637,32.715535714285714L158.8,30.224196428571425L155.23636363636365,27.715357142857144L151.6727272727273,25.89L148.1090909090909,26.18026785714286L144.54545454545453,26.19901785714285L140.9818181818182,30.095178571428573L137.41818181818184,37.24669642857143L133.85454545454544,42.21723214285714L130.29090909090908,47.79732142857143L126.72727272727273,53.52910714285714L123.16363636363636,58.830535714285716L119.6,60.46964285714286L116.03636363636363,61.89616071428572L112.47272727272728,64.55455357142857L108.90909090909089,69.1425L105.34545454545456,74.108125L101.78181818181817,79.39410714285714L98.21818181818183,83.8675L94.65454545454546,85.97625L91.09090909090911,86.345L87.52727272727273,87.2513392857143L83.96363636363637,89.16080357142857L80.4,91.03821428571428L76.83636363636364,92.68285714285715L73.27272727272727,93.91616071428571L69.70909090909092,94.46017857142857L66.14545454545454,94.93660714285714L62.58181818181818,95.40178571428571L59.018181818181816,95.79062499999999L55.454545454545446,96.10232142857143L51.89090909090908,96.25776785714287L48.32727272727273,96.383125L44.76363636363636,96.42633928571429L41.199999999999996,96.43008928571429L37.636363636363626,96.39526785714285L34.072727272727285,96.34383928571428L30.509090909090922,96.25303571428572L26.945454545454556,96.20375L23.38181818181819,96.12678571428572L19.818181818181824,96.078125L16.25454545454546,96.07339285714286L12.690909090909095,96.23375L9.12727272727273,96.59339285714286L5.563636363636365,96.84803571428571L2,97.04875"></path></g></svg>