<svg meta="{&quot;DATA_PUBLISHED_DATE&quot;:&quot;2022-03-02&quot;,&quot;RENDER_DATE&quot;:&quot;2022-03-02&quot;,&quot;FIRST_DATE&quot;:&quot;2021-12-29&quot;,&quot;LAST_DATE&quot;:&quot;2022-02-22&quot;}" xmlns="http://www.w3.org/2000/svg" viewBox="0,0,200,100"><g transform="translate(0,0)"></g><g class="fg-bars tests-vaccines" fill="#00183f" stroke="none"><g><rect x="197" y="81.08785714285715" width="2" height="18.912142857142854" id="tests-vaccines-0"></rect></g><g><rect x="193.43636363636364" y="85.76642857142858" width="2" height="14.233571428571423" id="tests-vaccines-1"></rect></g><g><rect x="189.87272727272727" y="92.56785714285715" width="2" height="7.43214285714285" id="tests-vaccines-2"></rect></g><g><rect x="186.30909090909088" y="84.46285714285715" width="2" height="15.537142857142854" id="tests-vaccines-3"></rect></g><g><rect x="182.74545454545455" y="70.60785714285714" width="2" height="29.392142857142858" id="tests-vaccines-4"></rect></g><g><rect x="179.1818181818182" y="78.67607142857142" width="2" height="21.32392857142858" id="tests-vaccines-5"></rect></g><g><rect x="175.61818181818182" y="78.93571428571428" width="2" height="21.064285714285717" id="tests-vaccines-6"></rect></g><g><rect x="172.05454545454546" y="79.6975" width="2" height="20.302499999999995" id="tests-vaccines-7"></rect></g><g><rect x="168.49090909090907" y="82.24178571428571" width="2" height="17.75821428571429" id="tests-vaccines-8"></rect></g><g><rect x="164.92727272727274" y="93.14714285714287" width="2" height="6.8528571428571325" id="tests-vaccines-9"></rect></g><g><rect x="161.36363636363637" y="82.02357142857143" width="2" height="17.97642857142857" id="tests-vaccines-10"></rect></g><g><rect x="157.8" y="66.00642857142857" width="2" height="33.99357142857143" id="tests-vaccines-11"></rect></g><g><rect x="154.23636363636365" y="74.06678571428571" width="2" height="25.933214285714286" id="tests-vaccines-12"></rect></g><g><rect x="150.6727272727273" y="72.77642857142857" width="2" height="27.223571428571432" id="tests-vaccines-13"></rect></g><g><rect x="147.1090909090909" y="73.0475" width="2" height="26.9525" id="tests-vaccines-14"></rect></g><g><rect x="143.54545454545453" y="72.20428571428572" width="2" height="27.795714285714283" id="tests-vaccines-15"></rect></g><g><rect x="139.9818181818182" y="89.30357142857143" width="2" height="10.69642857142857" id="tests-vaccines-16"></rect></g><g><rect x="136.41818181818184" y="75.99214285714287" width="2" height="24.007857142857134" id="tests-vaccines-17"></rect></g><g><rect x="132.85454545454544" y="55.92678571428571" width="2" height="44.07321428571429" id="tests-vaccines-18"></rect></g><g><rect x="129.29090909090908" y="66.73428571428572" width="2" height="33.26571428571428" id="tests-vaccines-19"></rect></g><g><rect x="125.72727272727273" y="65.57714285714286" width="2" height="34.42285714285714" id="tests-vaccines-20"></rect></g><g><rect x="122.16363636363636" y="64.88464285714286" width="2" height="35.115357142857135" id="tests-vaccines-21"></rect></g><g><rect x="118.6" y="61.41142857142857" width="2" height="38.58857142857143" id="tests-vaccines-22"></rect></g><g><rect x="115.03636363636363" y="86.6625" width="2" height="13.337500000000006" id="tests-vaccines-23"></rect></g><g><rect x="111.47272727272728" y="68.25464285714285" width="2" height="31.745357142857145" id="tests-vaccines-24"></rect></g><g><rect x="107.90909090909089" y="40.73821428571428" width="2" height="59.26178571428572" id="tests-vaccines-25"></rect></g><g><rect x="104.34545454545456" y="53.22035714285715" width="2" height="46.77964285714285" id="tests-vaccines-26"></rect></g><g><rect x="100.78181818181817" y="52.99" width="2" height="47.01" id="tests-vaccines-27"></rect></g><g><rect x="97.21818181818183" y="52.40107142857142" width="2" height="47.59892857142858" id="tests-vaccines-28"></rect></g><g><rect x="93.65454545454546" y="52.72285714285714" width="2" height="47.27714285714286" id="tests-vaccines-29"></rect></g><g><rect x="90.09090909090911" y="84.16785714285714" width="2" height="15.832142857142856" id="tests-vaccines-30"></rect></g><g><rect x="86.52727272727273" y="66.19535714285713" width="2" height="33.804642857142866" id="tests-vaccines-31"></rect></g><g><rect x="82.96363636363637" y="35.224642857142854" width="2" height="64.77535714285715" id="tests-vaccines-32"></rect></g><g><rect x="79.4" y="45.12571428571429" width="2" height="54.87428571428571" id="tests-vaccines-33"></rect></g><g><rect x="75.83636363636364" y="42.681785714285716" width="2" height="57.318214285714284" id="tests-vaccines-34"></rect></g><g><rect x="72.27272727272727" y="41.941428571428574" width="2" height="58.058571428571426" id="tests-vaccines-35"></rect></g><g><rect x="68.70909090909092" y="50.68571428571429" width="2" height="49.31428571428571" id="tests-vaccines-36"></rect></g><g><rect x="65.14545454545454" y="80.64678571428571" width="2" height="19.353214285714287" id="tests-vaccines-37"></rect></g><g><rect x="61.58181818181818" y="58.82214285714286" width="2" height="41.17785714285714" id="tests-vaccines-38"></rect></g><g><rect x="58.018181818181816" y="19.87821428571429" width="2" height="80.1217857142857" id="tests-vaccines-39"></rect></g><g><rect x="54.454545454545446" y="31.628214285714286" width="2" height="68.37178571428572" id="tests-vaccines-40"></rect></g><g><rect x="50.89090909090908" y="29.09785714285714" width="2" height="70.90214285714286" id="tests-vaccines-41"></rect></g><g><rect x="47.32727272727273" y="27.65428571428571" width="2" height="72.3457142857143" id="tests-vaccines-42"></rect></g><g><rect x="43.76363636363636" y="31.939285714285713" width="2" height="68.06071428571428" id="tests-vaccines-43"></rect></g><g><rect x="40.199999999999996" y="77.16607142857143" width="2" height="22.833928571428572" id="tests-vaccines-44"></rect></g><g><rect x="36.636363636363626" y="46.19678571428572" width="2" height="53.80321428571428" id="tests-vaccines-45"></rect></g><g><rect x="33.072727272727285" y="3.0760714285714252" width="2" height="96.92392857142858" id="tests-vaccines-46"></rect></g><g><rect x="29.509090909090922" y="16.643928571428567" width="2" height="83.35607142857143" id="tests-vaccines-47"></rect></g><g><rect x="25.945454545454556" y="19.90428571428572" width="2" height="80.09571428571428" id="tests-vaccines-48"></rect></g><g><rect x="22.38181818181819" y="21.37107142857143" width="2" height="78.62892857142857" id="tests-vaccines-49"></rect></g><g><rect x="18.818181818181824" y="27.435357142857143" width="2" height="72.56464285714286" id="tests-vaccines-50"></rect></g><g><rect x="15.254545454545461" y="80.53928571428571" width="2" height="19.46071428571429" id="tests-vaccines-51"></rect></g><g><rect x="11.690909090909095" y="97.06964285714285" width="2" height="2.9303571428571473" id="tests-vaccines-52"></rect></g><g><rect x="8.12727272727273" y="72.3617857142857" width="2" height="27.638214285714298" id="tests-vaccines-53"></rect></g><g><rect x="4.563636363636365" y="18.666785714285716" width="2" height="81.33321428571429" id="tests-vaccines-54"></rect></g><g><rect x="1" y="12.614642857142854" width="2" height="87.38535714285715" id="tests-vaccines-55"></rect></g></g><g class="fg-line tests-vaccines" fill="none" stroke="#92c5de" stroke-width="2" stroke-linecap="round"><path d="M198,81.72923469387754L194.43636363636364,81.53061224489797L190.87272727272727,81.02709183673468L187.30909090909088,81.1098469387755L183.74545454545455,80.7613775510204L180.1818181818182,80.1040306122449L176.61818181818182,79.44556122448981L173.05454545454546,78.56566326530611L169.49090909090907,77.61566326530613L165.92727272727274,76.18173469387754L162.36363636363637,75.63265306122449L158.8,74.77102040816325L155.23636363636365,73.33107142857142L151.6727272727273,72.28357142857142L148.1090909090909,71.25510204081633L144.54545454545453,70.08897959183673L140.9818181818182,68.54714285714284L137.41818181818184,68.1698469387755L133.85454545454544,67.06448979591838L130.29090909090908,64.89469387755102L126.72727272727273,62.96413265306122L123.16363636363636,61.165969387755105L119.6,59.38260204081632L116.03636363636363,58.1413775510204L112.47272727272728,57.785L108.90909090909089,57.49081632653061L105.34545454545456,56.703163265306124L101.78181818181817,55.546785714285704L98.21818181818183,54.07418367346939L94.65454545454546,52.57994897959184L91.09090909090911,52.28892857142857L87.52727272727273,51.78591836734694L83.96363636363637,50.73260204081633L80.4,48.54025510204082L76.83636363636364,46.61204081632653L73.27272727272727,44.671479591836736L69.70909090909092,42.630459183673466L66.14545454545454,39.95239795918367L62.58181818181818,39.45515306122449L59.018181818181816,37.6515306122449L55.454545454545446,35.251224489795916L51.89090909090908,33.110612244897965L48.32727272727273,31.79724489795919L44.76363636363636,30.89964285714286L41.199999999999996,30.256224489795926L37.636363636363626,30.738112244897962L34.072727272727285,38.005663265306126L30.509090909090922,47.9036224489796L26.945454545454556,48.192602040816325L23.38181818181819,47.151224489795915L19.818181818181824,45.900306122448974L16.25454545454546,45.34107142857143L12.690909090909095,45.22908163265307L9.12727272727273,45.59954081632653L5.563636363636365,47.182295918367345L2,47.56678571428572"></path></g></svg>