<svg about="DATA_PUBLISHED_DATE:2021-12-25,RENDER_DATE:2021-12-25" xmlns="http://www.w3.org/2000/svg" viewBox="0,0,200,100"><g transform="translate(0,0)"></g><g class="fg-bars tests-vaccines" fill="#00183f" stroke="none"><g><rect x="197" y="28.93228571428571" width="2" height="71.06771428571429" id="tests-vaccines-0"></rect></g><g><rect x="193.43636363636364" y="37.114000000000004" width="2" height="62.885999999999996" id="tests-vaccines-1"></rect></g><g><rect x="189.87272727272727" y="35.449714285714286" width="2" height="64.5502857142857" id="tests-vaccines-2"></rect></g><g><rect x="186.30909090909088" y="37.035714285714285" width="2" height="62.964285714285715" id="tests-vaccines-3"></rect></g><g><rect x="182.74545454545455" y="39.72457142857143" width="2" height="60.27542857142857" id="tests-vaccines-4"></rect></g><g><rect x="179.1818181818182" y="81.04542857142857" width="2" height="18.954571428571427" id="tests-vaccines-5"></rect></g><g><rect x="175.61818181818182" y="55.08714285714286" width="2" height="44.91285714285714" id="tests-vaccines-6"></rect></g><g><rect x="172.05454545454546" y="20.969428571428573" width="2" height="79.03057142857142" id="tests-vaccines-7"></rect></g><g><rect x="168.49090909090907" y="28.597714285714282" width="2" height="71.40228571428571" id="tests-vaccines-8"></rect></g><g><rect x="164.92727272727274" y="26.44914285714286" width="2" height="73.55085714285714" id="tests-vaccines-9"></rect></g><g><rect x="161.36363636363637" y="26.174857142857142" width="2" height="73.82514285714285" id="tests-vaccines-10"></rect></g><g><rect x="157.8" y="31.688285714285712" width="2" height="68.31171428571429" id="tests-vaccines-11"></rect></g><g><rect x="154.23636363636365" y="76.97485714285715" width="2" height="23.025142857142853" id="tests-vaccines-12"></rect></g><g><rect x="150.6727272727273" y="48.62228571428572" width="2" height="51.37771428571428" id="tests-vaccines-13"></rect></g><g><rect x="147.1090909090909" y="10.132857142857144" width="2" height="89.86714285714285" id="tests-vaccines-14"></rect></g><g><rect x="143.54545454545453" y="20.625142857142855" width="2" height="79.37485714285714" id="tests-vaccines-15"></rect></g><g><rect x="139.9818181818182" y="22.388571428571424" width="2" height="77.61142857142858" id="tests-vaccines-16"></rect></g><g><rect x="136.41818181818184" y="30.099428571428575" width="2" height="69.90057142857142" id="tests-vaccines-17"></rect></g><g><rect x="132.85454545454544" y="39.406285714285715" width="2" height="60.593714285714285" id="tests-vaccines-18"></rect></g><g><rect x="129.29090909090908" y="81.64114285714285" width="2" height="18.358857142857147" id="tests-vaccines-19"></rect></g><g><rect x="125.72727272727273" y="67.42371428571428" width="2" height="32.57628571428572" id="tests-vaccines-20"></rect></g><g><rect x="122.16363636363636" y="56.47714285714286" width="2" height="43.52285714285714" id="tests-vaccines-21"></rect></g><g><rect x="118.6" y="98.59657142857144" width="2" height="1.403428571428563" id="tests-vaccines-22"></rect></g><g><rect x="115.03636363636363" y="41.59371428571429" width="2" height="58.40628571428571" id="tests-vaccines-23"></rect></g><g><rect x="111.47272727272728" y="30.54771428571429" width="2" height="69.45228571428571" id="tests-vaccines-24"></rect></g><g><rect x="107.90909090909089" y="33.88428571428571" width="2" height="66.11571428571429" id="tests-vaccines-25"></rect></g><g><rect x="104.34545454545456" y="79.20857142857143" width="2" height="20.79142857142857" id="tests-vaccines-26"></rect></g><g><rect x="100.78181818181817" y="55.124857142857145" width="2" height="44.875142857142855" id="tests-vaccines-27"></rect></g><g><rect x="97.21818181818183" y="23.122571428571426" width="2" height="76.87742857142857" id="tests-vaccines-28"></rect></g><g><rect x="93.65454545454546" y="35.19314285714286" width="2" height="64.80685714285714" id="tests-vaccines-29"></rect></g><g><rect x="90.09090909090911" y="33.924285714285716" width="2" height="66.07571428571428" id="tests-vaccines-30"></rect></g><g><rect x="86.52727272727273" y="35.38428571428571" width="2" height="64.61571428571429" id="tests-vaccines-31"></rect></g><g><rect x="82.96363636363637" y="41.15085714285714" width="2" height="58.84914285714286" id="tests-vaccines-32"></rect></g><g><rect x="79.4" y="79.58171428571428" width="2" height="20.418285714285716" id="tests-vaccines-33"></rect></g><g><rect x="75.83636363636364" y="57.39228571428572" width="2" height="42.60771428571428" id="tests-vaccines-34"></rect></g><g><rect x="72.27272727272727" y="25.797428571428572" width="2" height="74.20257142857143" id="tests-vaccines-35"></rect></g><g><rect x="68.70909090909092" y="37.90228571428571" width="2" height="62.09771428571429" id="tests-vaccines-36"></rect></g><g><rect x="65.14545454545454" y="35.39171428571428" width="2" height="64.60828571428573" id="tests-vaccines-37"></rect></g><g><rect x="61.58181818181818" y="37.79714285714286" width="2" height="62.20285714285714" id="tests-vaccines-38"></rect></g><g><rect x="58.018181818181816" y="42.799142857142854" width="2" height="57.200857142857146" id="tests-vaccines-39"></rect></g><g><rect x="54.454545454545446" y="80.66285714285715" width="2" height="19.33714285714285" id="tests-vaccines-40"></rect></g><g><rect x="50.89090909090908" y="63.298285714285704" width="2" height="36.701714285714296" id="tests-vaccines-41"></rect></g><g><rect x="47.32727272727273" y="30.434285714285714" width="2" height="69.56571428571428" id="tests-vaccines-42"></rect></g><g><rect x="43.76363636363636" y="43.332571428571434" width="2" height="56.667428571428566" id="tests-vaccines-43"></rect></g><g><rect x="40.199999999999996" y="45.83085714285714" width="2" height="54.16914285714286" id="tests-vaccines-44"></rect></g><g><rect x="36.636363636363626" y="45.75371428571429" width="2" height="54.24628571428571" id="tests-vaccines-45"></rect></g><g><rect x="33.072727272727285" y="49.059428571428576" width="2" height="50.940571428571424" id="tests-vaccines-46"></rect></g><g><rect x="29.509090909090922" y="85.48542857142857" width="2" height="14.51457142857143" id="tests-vaccines-47"></rect></g><g><rect x="25.945454545454556" y="70.46428571428571" width="2" height="29.535714285714292" id="tests-vaccines-48"></rect></g><g><rect x="22.38181818181819" y="37.46571428571429" width="2" height="62.53428571428571" id="tests-vaccines-49"></rect></g><g><rect x="18.818181818181824" y="47.92142857142857" width="2" height="52.07857142857143" id="tests-vaccines-50"></rect></g><g><rect x="15.254545454545461" y="47.83714285714286" width="2" height="52.16285714285714" id="tests-vaccines-51"></rect></g><g><rect x="11.690909090909095" y="48.39857142857142" width="2" height="51.60142857142858" id="tests-vaccines-52"></rect></g><g><rect x="8.12727272727273" y="53.307428571428574" width="2" height="46.692571428571426" id="tests-vaccines-53"></rect></g><g><rect x="4.563636363636365" y="86.4242857142857" width="2" height="13.575714285714298" id="tests-vaccines-54"></rect></g><g><rect x="1" y="73.48" width="2" height="26.519999999999996" id="tests-vaccines-55"></rect></g></g><g class="fg-line tests-vaccines" fill="none" stroke="#92c5de" stroke-width="2" stroke-linecap="round"><path d="M198,44.91269387755102L194.43636363636364,43.77514285714285L190.87272727272727,42.558530612244894L187.30909090909088,41.272734693877545L183.74545454545455,39.7211836734694L180.1818181818182,38.57314285714286L176.61818181818182,37.991632653061224L173.05454545454546,37.06808163265306L169.49090909090907,35.519999999999996L165.92727272727274,34.3810612244898L162.36363636363637,33.800979591836736L158.8,34.36163265306122L155.23636363636365,35.46420408163266L151.6727272727273,36.13081632653061L148.1090909090909,38.81673469387755L144.54545454545453,45.43734693877551L140.9818181818182,56.576122448979596L137.41818181818184,59.319714285714284L133.85454545454544,59.383755102040816L130.29090909090908,58.594897959183676L126.72727272727273,58.24738775510203L123.16363636363636,56.490408163265315L119.6,51.725469387755105L116.03636363636363,42.66783673469388L112.47272727272728,41.572204081632655L108.90909090909089,42.26314285714285L105.34545454545456,43.30122448979592L101.78181818181817,43.35453061224489L98.21818181818183,43.678448979591835L94.65454545454546,44.06057142857143L91.09090909090911,44.44759183673469L87.52727272727273,44.65722448979592L83.96363636363637,45.00191836734694L80.4,45.237387755102034L76.83636363636364,45.39183673469388L73.27272727272727,46.23555102040816L69.70909090909092,46.897959183673464L66.14545454545454,47.67371428571428L62.58181818181818,49.165020408163265L59.018181818181816,50.30167346938775L55.454545454545446,51.196L51.89090909090908,51.8849387755102L48.32727272727273,52.908653061224484L44.76363636363636,53.91314285714286L41.199999999999996,54.56869387755102L37.636363636363626,54.85530612244898L34.072727272727285,55.23314285714286L30.509090909090922,55.84L26.945454545454556,55.97412244897959L23.38181818181819,56.4049387755102L19.818181818181824,58.687714285714286L16.25454545454546,62.177632653061224L12.690909090909095,65.83089795918366L9.12727272727273,69.28657142857143L5.563636363636365,71.87387755102041L2,72.56216326530613"></path></g></svg>