<svg meta="{&quot;DATA_PUBLISHED_DATE&quot;:&quot;2022-03-29&quot;,&quot;RENDER_DATE&quot;:&quot;2022-03-29&quot;,&quot;FIRST_DATE&quot;:&quot;2022-01-24&quot;,&quot;LAST_DATE&quot;:&quot;2022-03-20&quot;}" xmlns="http://www.w3.org/2000/svg" viewBox="0,0,200,100"><g transform="translate(0,0)"></g><g class="fg-bars cases-ep" fill="#00183f" stroke="none"><g><rect x="197" y="98.46285714285715" width="2" height="1.5371428571428538" id="cases-ep-0"></rect></g><g><rect x="193.43636363636364" y="98.39285714285715" width="2" height="1.607142857142847" id="cases-ep-1"></rect></g><g><rect x="189.87272727272727" y="97.31571428571428" width="2" height="2.6842857142857213" id="cases-ep-2"></rect></g><g><rect x="186.30909090909088" y="96.87857142857142" width="2" height="3.1214285714285808" id="cases-ep-3"></rect></g><g><rect x="182.74545454545455" y="96.64571428571429" width="2" height="3.3542857142857088" id="cases-ep-4"></rect></g><g><rect x="179.1818181818182" y="96.44428571428571" width="2" height="3.555714285714288" id="cases-ep-5"></rect></g><g><rect x="175.61818181818182" y="96.01428571428572" width="2" height="3.9857142857142804" id="cases-ep-6"></rect></g><g><rect x="172.05454545454546" y="98.25714285714285" width="2" height="1.7428571428571473" id="cases-ep-7"></rect></g><g><rect x="168.49090909090907" y="97.91428571428571" width="2" height="2.085714285714289" id="cases-ep-8"></rect></g><g><rect x="164.92727272727274" y="96.77" width="2" height="3.230000000000004" id="cases-ep-9"></rect></g><g><rect x="161.36363636363637" y="96.41285714285715" width="2" height="3.587142857142851" id="cases-ep-10"></rect></g><g><rect x="157.8" y="95.77285714285715" width="2" height="4.2271428571428515" id="cases-ep-11"></rect></g><g><rect x="154.23636363636365" y="95.37857142857142" width="2" height="4.621428571428581" id="cases-ep-12"></rect></g><g><rect x="150.6727272727273" y="94.6" width="2" height="5.400000000000006" id="cases-ep-13"></rect></g><g><rect x="147.1090909090909" y="97.47571428571429" width="2" height="2.5242857142857105" id="cases-ep-14"></rect></g><g><rect x="143.54545454545453" y="97.08428571428571" width="2" height="2.9157142857142873" id="cases-ep-15"></rect></g><g><rect x="139.9818181818182" y="95.55142857142857" width="2" height="4.448571428571427" id="cases-ep-16"></rect></g><g><rect x="136.41818181818184" y="94.92857142857143" width="2" height="5.071428571428569" id="cases-ep-17"></rect></g><g><rect x="132.85454545454544" y="94.38285714285715" width="2" height="5.617142857142852" id="cases-ep-18"></rect></g><g><rect x="129.29090909090908" y="93.38" width="2" height="6.6200000000000045" id="cases-ep-19"></rect></g><g><rect x="125.72727272727273" y="92.55714285714286" width="2" height="7.442857142857136" id="cases-ep-20"></rect></g><g><rect x="122.16363636363636" y="96.64285714285714" width="2" height="3.357142857142861" id="cases-ep-21"></rect></g><g><rect x="118.6" y="96.17428571428572" width="2" height="3.825714285714284" id="cases-ep-22"></rect></g><g><rect x="115.03636363636363" y="93.21571428571428" width="2" height="6.784285714285716" id="cases-ep-23"></rect></g><g><rect x="111.47272727272728" y="92.67999999999999" width="2" height="7.320000000000007" id="cases-ep-24"></rect></g><g><rect x="107.90909090909089" y="92.04714285714286" width="2" height="7.952857142857141" id="cases-ep-25"></rect></g><g><rect x="104.34545454545456" y="89.83714285714287" width="2" height="10.162857142857135" id="cases-ep-26"></rect></g><g><rect x="100.78181818181817" y="92.38571428571429" width="2" height="7.614285714285714" id="cases-ep-27"></rect></g><g><rect x="97.21818181818183" y="94.88" width="2" height="5.1200000000000045" id="cases-ep-28"></rect></g><g><rect x="93.65454545454546" y="94.03571428571429" width="2" height="5.964285714285708" id="cases-ep-29"></rect></g><g><rect x="90.09090909090911" y="89.96142857142857" width="2" height="10.03857142857143" id="cases-ep-30"></rect></g><g><rect x="86.52727272727273" y="88.42142857142858" width="2" height="11.578571428571422" id="cases-ep-31"></rect></g><g><rect x="82.96363636363637" y="86.64142857142856" width="2" height="13.358571428571437" id="cases-ep-32"></rect></g><g><rect x="79.4" y="84.48571428571428" width="2" height="15.51428571428572" id="cases-ep-33"></rect></g><g><rect x="75.83636363636364" y="81.70428571428572" width="2" height="18.295714285714283" id="cases-ep-34"></rect></g><g><rect x="72.27272727272727" y="92.07714285714286" width="2" height="7.92285714285714" id="cases-ep-35"></rect></g><g><rect x="68.70909090909092" y="89.82" width="2" height="10.180000000000007" id="cases-ep-36"></rect></g><g><rect x="65.14545454545454" y="80.36999999999999" width="2" height="19.63000000000001" id="cases-ep-37"></rect></g><g><rect x="61.58181818181818" y="79.87571428571428" width="2" height="20.12428571428572" id="cases-ep-38"></rect></g><g><rect x="58.018181818181816" y="77.01714285714286" width="2" height="22.982857142857142" id="cases-ep-39"></rect></g><g><rect x="54.454545454545446" y="74.56" width="2" height="25.439999999999998" id="cases-ep-40"></rect></g><g><rect x="50.89090909090908" y="68.22571428571429" width="2" height="31.77428571428571" id="cases-ep-41"></rect></g><g><rect x="47.32727272727273" y="86.03285714285714" width="2" height="13.96714285714286" id="cases-ep-42"></rect></g><g><rect x="43.76363636363636" y="83.35000000000001" width="2" height="16.64999999999999" id="cases-ep-43"></rect></g><g><rect x="40.199999999999996" y="68.99285714285715" width="2" height="31.007142857142853" id="cases-ep-44"></rect></g><g><rect x="36.636363636363626" y="65.75" width="2" height="34.25" id="cases-ep-45"></rect></g><g><rect x="33.072727272727285" y="61.02000000000001" width="2" height="38.97999999999999" id="cases-ep-46"></rect></g><g><rect x="29.509090909090922" y="53.64857142857142" width="2" height="46.35142857142858" id="cases-ep-47"></rect></g><g><rect x="25.945454545454556" y="45.214285714285715" width="2" height="54.785714285714285" id="cases-ep-48"></rect></g><g><rect x="22.38181818181819" y="78.24142857142857" width="2" height="21.75857142857143" id="cases-ep-49"></rect></g><g><rect x="18.818181818181824" y="70.45142857142856" width="2" height="29.548571428571435" id="cases-ep-50"></rect></g><g><rect x="15.254545454545461" y="45.058571428571426" width="2" height="54.941428571428574" id="cases-ep-51"></rect></g><g><rect x="11.690909090909095" y="37.385714285714286" width="2" height="62.614285714285714" id="cases-ep-52"></rect></g><g><rect x="8.12727272727273" y="26.452857142857145" width="2" height="73.54714285714286" id="cases-ep-53"></rect></g><g><rect x="4.563636363636365" y="14.921428571428574" width="2" height="85.07857142857142" id="cases-ep-54"></rect></g><g><rect x="1" y="0.144285714285719" width="2" height="99.85571428571428" id="cases-ep-55"></rect></g></g><g class="fg-line cases-ep" fill="none" stroke="#92c5de" stroke-width="2" stroke-linecap="round"><path d="M198,97.16489795918368L194.43636363636364,97.13551020408163L190.87272727272727,97.06714285714285L187.30909090909088,96.9891836734694L183.74545454545455,96.9226530612245L180.1818181818182,96.79795918367347L176.61818181818182,96.64571428571429L173.05454545454546,96.44367346938776L169.49090909090907,96.33204081632654L165.92727272727274,96.2134693877551L162.36363636363637,96.03938775510204L158.8,95.82734693877552L155.23636363636365,95.62877551020408L151.6727272727273,95.34326530612245L148.1090909090909,95.05142857142857L144.54545454545453,94.93244897959184L140.9818181818182,94.80244897959183L137.41818181818184,94.46877551020408L133.85454545454544,94.14755102040816L130.29090909090908,93.81387755102041L126.72727272727273,93.30775510204082L123.16363636363636,93.28326530612246L119.6,93.03142857142858L116.03636363636363,92.72591836734694L112.47272727272728,92.26102040816326L108.90909090909089,91.65265306122448L105.34545454545456,90.8804081632653L101.78181818181817,90.11591836734694L98.21818181818183,88.59L94.65454545454546,88.18959183673469L91.09090909090911,87.58734693877551L87.52727272727273,86.21714285714286L83.96363636363637,84.99632653061224L80.4,83.62142857142857L76.83636363636364,82.2034693877551L73.27272727272727,80.27795918367346L69.70909090909092,79.41448979591837L66.14545454545454,78.49020408163265L62.58181818181818,76.86489795918368L59.018181818181816,74.84693877551021L55.454545454545446,72.56163265306122L51.89090909090908,69.57428571428572L48.32727272727273,66.2869387755102L44.76363636363636,65.17387755102041L41.199999999999996,63.331224489795915L37.636363636363626,59.91204081632653L34.072727272727285,55.86L30.509090909090922,50.92183673469388L26.945454545454556,45.38938775510204L23.38181818181819,38.950816326530614L19.818181818181824,36.32367346938775L16.25454545454546,32.47469387755102L12.690909090909095,24.685918367346936L9.12727272727273,15.43469387755102L5.563636363636365,5.460408163265296L2,-6.640816326530619"></path></g></svg>