<svg meta="{&quot;DATA_PUBLISHED_DATE&quot;:&quot;2022-03-08&quot;,&quot;RENDER_DATE&quot;:&quot;2022-03-08&quot;,&quot;FIRST_DATE&quot;:&quot;2021-12-20&quot;,&quot;LAST_DATE&quot;:&quot;2022-02-13&quot;}" xmlns="http://www.w3.org/2000/svg" viewBox="0,0,200,100"><g transform="translate(0,0)"></g><g class="fg-bars death-date" fill="#00183f" stroke="none"><g><rect x="197" y="53.75" width="2" height="46.25" id="death-date-0"></rect></g><g><rect x="193.43636363636364" y="52.5" width="2" height="47.5" id="death-date-1"></rect></g><g><rect x="189.87272727272727" y="44.58333333333333" width="2" height="55.41666666666667" id="death-date-2"></rect></g><g><rect x="186.30909090909088" y="45.833333333333336" width="2" height="54.166666666666664" id="death-date-3"></rect></g><g><rect x="182.74545454545455" y="35.416666666666664" width="2" height="64.58333333333334" id="death-date-4"></rect></g><g><rect x="179.1818181818182" y="23.33333333333333" width="2" height="76.66666666666667" id="death-date-5"></rect></g><g><rect x="175.61818181818182" y="34.166666666666664" width="2" height="65.83333333333334" id="death-date-6"></rect></g><g><rect x="172.05454545454546" y="36.25000000000001" width="2" height="63.74999999999999" id="death-date-7"></rect></g><g><rect x="168.49090909090907" y="24.16666666666667" width="2" height="75.83333333333333" id="death-date-8"></rect></g><g><rect x="164.92727272727274" y="16.249999999999996" width="2" height="83.75" id="death-date-9"></rect></g><g><rect x="161.36363636363637" y="22.083333333333332" width="2" height="77.91666666666667" id="death-date-10"></rect></g><g><rect x="157.8" y="13.749999999999996" width="2" height="86.25" id="death-date-11"></rect></g><g><rect x="154.23636363636365" y="6.25" width="2" height="93.75" id="death-date-12"></rect></g><g><rect x="150.6727272727273" y="13.749999999999996" width="2" height="86.25" id="death-date-13"></rect></g><g><rect x="147.1090909090909" y="0.4166666666666652" width="2" height="99.58333333333333" id="death-date-14"></rect></g><g><rect x="143.54545454545453" y="1.2499999999999956" width="2" height="98.75" id="death-date-15"></rect></g><g><rect x="139.9818181818182" y="15.833333333333332" width="2" height="84.16666666666667" id="death-date-16"></rect></g><g><rect x="136.41818181818184" y="9.999999999999998" width="2" height="90" id="death-date-17"></rect></g><g><rect x="132.85454545454544" y="17.08333333333333" width="2" height="82.91666666666667" id="death-date-18"></rect></g><g><rect x="129.29090909090908" y="12.083333333333336" width="2" height="87.91666666666666" id="death-date-19"></rect></g><g><rect x="125.72727272727273" y="27.916666666666668" width="2" height="72.08333333333333" id="death-date-20"></rect></g><g><rect x="122.16363636363636" y="8.333333333333337" width="2" height="91.66666666666666" id="death-date-21"></rect></g><g><rect x="118.6" y="16.666666666666664" width="2" height="83.33333333333334" id="death-date-22"></rect></g><g><rect x="115.03636363636363" y="8.750000000000002" width="2" height="91.25" id="death-date-23"></rect></g><g><rect x="111.47272727272728" y="14.166666666666671" width="2" height="85.83333333333333" id="death-date-24"></rect></g><g><rect x="107.90909090909089" y="9.166666666666668" width="2" height="90.83333333333333" id="death-date-25"></rect></g><g><rect x="104.34545454545456" y="18.333333333333336" width="2" height="81.66666666666666" id="death-date-26"></rect></g><g><rect x="100.78181818181817" y="27.916666666666668" width="2" height="72.08333333333333" id="death-date-27"></rect></g><g><rect x="97.21818181818183" y="25.416666666666664" width="2" height="74.58333333333334" id="death-date-28"></rect></g><g><rect x="93.65454545454546" y="25" width="2" height="75" id="death-date-29"></rect></g><g><rect x="90.09090909090911" y="34.583333333333336" width="2" height="65.41666666666666" id="death-date-30"></rect></g><g><rect x="86.52727272727273" y="34.166666666666664" width="2" height="65.83333333333334" id="death-date-31"></rect></g><g><rect x="82.96363636363637" y="29.166666666666664" width="2" height="70.83333333333334" id="death-date-32"></rect></g><g><rect x="79.4" y="33.75" width="2" height="66.25" id="death-date-33"></rect></g><g><rect x="75.83636363636364" y="44.99999999999999" width="2" height="55.00000000000001" id="death-date-34"></rect></g><g><rect x="72.27272727272727" y="54.58333333333334" width="2" height="45.41666666666666" id="death-date-35"></rect></g><g><rect x="68.70909090909092" y="45.41666666666667" width="2" height="54.58333333333333" id="death-date-36"></rect></g><g><rect x="65.14545454545454" y="53.333333333333336" width="2" height="46.666666666666664" id="death-date-37"></rect></g><g><rect x="61.58181818181818" y="51.24999999999999" width="2" height="48.75000000000001" id="death-date-38"></rect></g><g><rect x="58.018181818181816" y="50" width="2" height="50" id="death-date-39"></rect></g><g><rect x="54.454545454545446" y="59.583333333333336" width="2" height="40.416666666666664" id="death-date-40"></rect></g><g><rect x="50.89090909090908" y="59.166666666666664" width="2" height="40.833333333333336" id="death-date-41"></rect></g><g><rect x="47.32727272727273" y="70" width="2" height="30" id="death-date-42"></rect></g><g><rect x="43.76363636363636" y="66.25" width="2" height="33.75" id="death-date-43"></rect></g><g><rect x="40.199999999999996" y="65.83333333333333" width="2" height="34.16666666666667" id="death-date-44"></rect></g><g><rect x="36.636363636363626" y="74.16666666666667" width="2" height="25.83333333333333" id="death-date-45"></rect></g><g><rect x="33.072727272727285" y="70.83333333333333" width="2" height="29.16666666666667" id="death-date-46"></rect></g><g><rect x="29.509090909090922" y="78.75" width="2" height="21.25" id="death-date-47"></rect></g><g><rect x="25.945454545454556" y="68.33333333333333" width="2" height="31.66666666666667" id="death-date-48"></rect></g><g><rect x="22.38181818181819" y="77.91666666666667" width="2" height="22.08333333333333" id="death-date-49"></rect></g><g><rect x="18.818181818181824" y="75" width="2" height="25" id="death-date-50"></rect></g><g><rect x="15.254545454545461" y="72.91666666666667" width="2" height="27.08333333333333" id="death-date-51"></rect></g><g><rect x="11.690909090909095" y="72.08333333333333" width="2" height="27.91666666666667" id="death-date-52"></rect></g><g><rect x="8.12727272727273" y="78.75" width="2" height="21.25" id="death-date-53"></rect></g><g><rect x="4.563636363636365" y="75.41666666666667" width="2" height="24.58333333333333" id="death-date-54"></rect></g><g><rect x="1" y="73.75" width="2" height="26.25" id="death-date-55"></rect></g></g><g class="fg-line death-date" fill="none" stroke="#92c5de" stroke-width="2" stroke-linecap="round"><path d="M198,41.36904761904761L194.43636363636364,38.86904761904761L190.87272727272727,34.821428571428584L187.30909090909088,30.773809523809526L183.74545454545455,27.380952380952383L180.1818181818182,24.285714285714278L176.61818181818182,21.845238095238095L173.05454545454546,18.928571428571427L169.49090909090907,13.809523809523805L165.92727272727274,10.535714285714281L162.36363636363637,10.476190476190473L158.8,8.750000000000002L155.23636363636365,9.226190476190476L151.6727272727273,10.059523809523807L148.1090909090909,12.083333333333336L144.54545454545453,13.214285714285722L140.9818181818182,15.416666666666668L137.41818181818184,14.404761904761909L133.85454545454544,15.000000000000002L130.29090909090908,13.869047619047613L126.72727272727273,14.761904761904754L123.16363636363636,14.761904761904754L119.6,17.202380952380945L116.03636363636363,18.392857142857146L112.47272727272728,22.083333333333332L108.90909090909089,24.94047619047619L105.34545454545456,27.797619047619047L101.78181818181817,30.000000000000004L98.21818181818183,32.4404761904762L94.65454545454546,36.60714285714286L91.09090909090911,39.523809523809526L87.52727272727273,42.20238095238095L83.96363636363637,44.64285714285714L80.4,47.61904761904761L76.83636363636364,51.3095238095238L73.27272727272727,53.333333333333336L69.70909090909092,55.53571428571429L66.14545454545454,58.511904761904766L62.58181818181818,60.297619047619044L59.018181818181816,63.57142857142857L55.454545454545446,66.54761904761905L51.89090909090908,69.28571428571428L48.32727272727273,70.59523809523809L44.76363636363636,71.72619047619048L41.199999999999996,72.97619047619047L37.636363636363626,73.98809523809524L34.072727272727285,73.69047619047619L30.509090909090922,74.82142857142857L26.945454545454556,74.3452380952381L23.38181818181819,75.11904761904762L19.818181818181824,74.04761904761905L16.25454545454546,74.46428571428572L12.690909090909095,74.64285714285714L9.12727272727273,74.22619047619048L5.563636363636365,73.33333333333334L2,72.91666666666667"></path></g></svg>