<svg about="DATA_PUBLISHED_DATE:2021-11-29,RENDER_DATE:2021-11-29" xmlns="http://www.w3.org/2000/svg" viewBox="0,0,200,100"><g transform="translate(0,0)"></g><g class="fg-bars tests-vaccines" fill="#00183f" stroke="none"><g><rect x="197" y="73.01500000000001" width="2" height="26.984999999999985" id="tests-vaccines-0"></rect></g><g><rect x="193.43636363636364" y="42.46346153846153" width="2" height="57.53653846153847" id="tests-vaccines-1"></rect></g><g><rect x="189.87272727272727" y="1.032307692307688" width="2" height="98.96769230769232" id="tests-vaccines-2"></rect></g><g><rect x="186.30909090909088" y="16.533461538461538" width="2" height="83.46653846153846" id="tests-vaccines-3"></rect></g><g><rect x="182.74545454545455" y="13.717692307692309" width="2" height="86.2823076923077" id="tests-vaccines-4"></rect></g><g><rect x="179.1818181818182" y="15.271153846153851" width="2" height="84.72884615384615" id="tests-vaccines-5"></rect></g><g><rect x="175.61818181818182" y="23.046923076923076" width="2" height="76.95307692307692" id="tests-vaccines-6"></rect></g><g><rect x="172.05454545454546" y="73.64461538461539" width="2" height="26.355384615384608" id="tests-vaccines-7"></rect></g><g><rect x="168.49090909090907" y="44.94538461538462" width="2" height="55.05461538461538" id="tests-vaccines-8"></rect></g><g><rect x="164.92727272727274" y="3.830384615384619" width="2" height="96.16961538461538" id="tests-vaccines-9"></rect></g><g><rect x="161.36363636363637" y="19.340000000000003" width="2" height="80.66" id="tests-vaccines-10"></rect></g><g><rect x="157.8" y="15.891923076923076" width="2" height="84.10807692307692" id="tests-vaccines-11"></rect></g><g><rect x="154.23636363636365" y="18.549230769230775" width="2" height="81.45076923076923" id="tests-vaccines-12"></rect></g><g><rect x="150.6727272727273" y="24.86807692307692" width="2" height="75.13192307692307" id="tests-vaccines-13"></rect></g><g><rect x="147.1090909090909" y="74.82346153846153" width="2" height="25.17653846153847" id="tests-vaccines-14"></rect></g><g><rect x="143.54545454545453" y="52.213846153846156" width="2" height="47.786153846153844" id="tests-vaccines-15"></rect></g><g><rect x="139.9818181818182" y="8.88692307692308" width="2" height="91.11307692307692" id="tests-vaccines-16"></rect></g><g><rect x="136.41818181818184" y="25.715384615384618" width="2" height="74.28461538461538" id="tests-vaccines-17"></rect></g><g><rect x="132.85454545454544" y="28.145769230769236" width="2" height="71.85423076923077" id="tests-vaccines-18"></rect></g><g><rect x="129.29090909090908" y="27.779230769230768" width="2" height="72.22076923076924" id="tests-vaccines-19"></rect></g><g><rect x="125.72727272727273" y="32.11576923076923" width="2" height="67.88423076923077" id="tests-vaccines-20"></rect></g><g><rect x="122.16363636363636" y="80.56538461538462" width="2" height="19.434615384615384" id="tests-vaccines-21"></rect></g><g><rect x="118.6" y="60.56346153846154" width="2" height="39.43653846153846" id="tests-vaccines-22"></rect></g><g><rect x="115.03636363636363" y="16.64692307692308" width="2" height="83.35307692307691" id="tests-vaccines-23"></rect></g><g><rect x="111.47272727272728" y="30.455384615384617" width="2" height="69.54461538461538" id="tests-vaccines-24"></rect></g><g><rect x="107.90909090909089" y="30.341153846153844" width="2" height="69.65884615384616" id="tests-vaccines-25"></rect></g><g><rect x="104.34545454545456" y="31.21846153846154" width="2" height="68.78153846153846" id="tests-vaccines-26"></rect></g><g><rect x="100.78181818181817" y="37.50730769230769" width="2" height="62.49269230769231" id="tests-vaccines-27"></rect></g><g><rect x="97.21818181818183" y="81.85115384615385" width="2" height="18.14884615384615" id="tests-vaccines-28"></rect></g><g><rect x="93.65454545454546" y="64.53615384615385" width="2" height="35.46384615384615" id="tests-vaccines-29"></rect></g><g><rect x="90.09090909090911" y="37.724999999999994" width="2" height="62.275000000000006" id="tests-vaccines-30"></rect></g><g><rect x="86.52727272727273" y="63.100384615384606" width="2" height="36.899615384615394" id="tests-vaccines-31"></rect></g><g><rect x="82.96363636363637" y="64.55307692307693" width="2" height="35.44692307692307" id="tests-vaccines-32"></rect></g><g><rect x="79.4" y="63.36923076923077" width="2" height="36.63076923076923" id="tests-vaccines-33"></rect></g><g><rect x="75.83636363636364" y="61.824999999999996" width="2" height="38.175000000000004" id="tests-vaccines-34"></rect></g><g><rect x="72.27272727272727" y="88.28538461538461" width="2" height="11.714615384615385" id="tests-vaccines-35"></rect></g><g><rect x="68.70909090909092" y="77.40807692307692" width="2" height="22.59192307692308" id="tests-vaccines-36"></rect></g><g><rect x="65.14545454545454" y="51.70307692307692" width="2" height="48.29692307692308" id="tests-vaccines-37"></rect></g><g><rect x="61.58181818181818" y="61.415769230769236" width="2" height="38.584230769230764" id="tests-vaccines-38"></rect></g><g><rect x="58.018181818181816" y="61.92423076923077" width="2" height="38.07576923076923" id="tests-vaccines-39"></rect></g><g><rect x="54.454545454545446" y="59.503846153846155" width="2" height="40.496153846153845" id="tests-vaccines-40"></rect></g><g><rect x="50.89090909090908" y="58.973461538461535" width="2" height="41.026538461538465" id="tests-vaccines-41"></rect></g><g><rect x="47.32727272727273" y="86.33076923076923" width="2" height="13.669230769230765" id="tests-vaccines-42"></rect></g><g><rect x="43.76363636363636" y="74.94000000000001" width="2" height="25.059999999999988" id="tests-vaccines-43"></rect></g><g><rect x="40.199999999999996" y="45.230769230769226" width="2" height="54.769230769230774" id="tests-vaccines-44"></rect></g><g><rect x="36.636363636363626" y="55.112307692307695" width="2" height="44.887692307692305" id="tests-vaccines-45"></rect></g><g><rect x="33.072727272727285" y="58.17038461538462" width="2" height="41.82961538461538" id="tests-vaccines-46"></rect></g><g><rect x="29.509090909090922" y="57.19307692307692" width="2" height="42.80692307692308" id="tests-vaccines-47"></rect></g><g><rect x="25.945454545454556" y="57.40461538461539" width="2" height="42.59538461538461" id="tests-vaccines-48"></rect></g><g><rect x="22.38181818181819" y="85.27884615384616" width="2" height="14.72115384615384" id="tests-vaccines-49"></rect></g><g><rect x="18.818181818181824" y="73.8876923076923" width="2" height="26.112307692307695" id="tests-vaccines-50"></rect></g><g><rect x="15.254545454545461" y="44.22038461538461" width="2" height="55.77961538461539" id="tests-vaccines-51"></rect></g><g><rect x="11.690909090909095" y="49.30961538461538" width="2" height="50.69038461538462" id="tests-vaccines-52"></rect></g><g><rect x="8.12727272727273" y="50.38" width="2" height="49.62" id="tests-vaccines-53"></rect></g><g><rect x="4.563636363636365" y="50.22038461538462" width="2" height="49.77961538461538" id="tests-vaccines-54"></rect></g><g><rect x="1" y="54.31807692307693" width="2" height="45.68192307692307" id="tests-vaccines-55"></rect></g></g><g class="fg-line tests-vaccines" fill="none" stroke="#92c5de" stroke-width="2" stroke-linecap="round"><path d="M198,26.439999999999998L194.43636363636364,26.52994505494505L190.87272727272727,26.884505494505497L187.30909090909088,27.284230769230767L183.74545454545455,27.685164835164844L180.1818181818182,27.99576923076923L176.61818181818182,28.46406593406593L173.05454545454546,28.724230769230775L169.49090909090907,28.892637362637362L165.92727272727274,29.930989010989006L162.36363636363637,30.653351648351645L158.8,31.564120879120882L155.23636363636365,33.314670329670335L151.6727272727273,34.63324175824176L148.1090909090909,35.66862637362638L144.54545454545453,36.4889010989011L140.9818181818182,37.6817032967033L137.41818181818184,38.790274725274735L133.85454545454544,39.46741758241758L130.29090909090908,39.78104395604396L126.72727272727273,40.27236263736265L123.16363636363636,41.042582417582416L119.6,41.22626373626373L116.03636363636363,41.793791208791205L112.47272727272728,44.80494505494506L108.90909090909089,49.46851648351649L105.34545454545456,54.355934065934065L101.78181818181817,58.948901098901096L98.21818181818183,62.42285714285713L94.65454545454546,63.34203296703296L91.09090909090911,65.18087912087913L87.52727272727273,67.17774725274725L83.96363636363637,66.93708791208792L80.4,66.56153846153846L76.83636363636364,66.00934065934065L73.27272727272727,65.60197802197803L69.70909090909092,65.32274725274725L66.14545454545454,64.97016483516484L62.58181818181818,64.04554945054946L59.018181818181816,63.145054945054945L55.454545454545446,62.60879120879122L51.89090909090908,62.27868131868133L48.32727272727273,62.05456043956043L44.76363636363636,61.90428571428571L41.199999999999996,61.75395604395604L37.636363636363626,61.60961538461538L34.072727272727285,60.78065934065935L30.509090909090922,59.66774725274725L26.945454545454556,58.67164835164835L23.38181818181819,58.23071428571429L19.818181818181824,58.16923076923077L16.25454545454546,58.003076923076925L12.690909090909095,60.017197802197806L9.12727272727273,63.30142857142857L5.563636363636365,66.42302197802198L2,69.44802197802198"></path></g></svg>