<svg meta="{&quot;DATA_PUBLISHED_DATE&quot;:&quot;2022-03-09&quot;,&quot;RENDER_DATE&quot;:&quot;2022-03-09&quot;,&quot;FIRST_DATE&quot;:&quot;2022-01-05&quot;,&quot;LAST_DATE&quot;:&quot;2022-03-01&quot;}" xmlns="http://www.w3.org/2000/svg" viewBox="0,0,200,100"><g transform="translate(0,0)"></g><g class="fg-bars tests-vaccines" fill="#00183f" stroke="none"><g><rect x="197" y="83.11785714285715" width="2" height="16.882142857142853" id="tests-vaccines-0"></rect></g><g><rect x="193.43636363636364" y="79.91071428571428" width="2" height="20.089285714285722" id="tests-vaccines-1"></rect></g><g><rect x="189.87272727272727" y="93.15392857142857" width="2" height="6.846071428571435" id="tests-vaccines-2"></rect></g><g><rect x="186.30909090909088" y="86.40178571428572" width="2" height="13.598214285714278" id="tests-vaccines-3"></rect></g><g><rect x="182.74545454545455" y="74.15428571428572" width="2" height="25.84571428571428" id="tests-vaccines-4"></rect></g><g><rect x="179.1818181818182" y="81.09964285714287" width="2" height="18.900357142857132" id="tests-vaccines-5"></rect></g><g><rect x="175.61818181818182" y="81.1067857142857" width="2" height="18.893214285714294" id="tests-vaccines-6"></rect></g><g><rect x="172.05454545454546" y="80.75071428571428" width="2" height="19.24928571428572" id="tests-vaccines-7"></rect></g><g><rect x="168.49090909090907" y="85.51535714285714" width="2" height="14.484642857142859" id="tests-vaccines-8"></rect></g><g><rect x="164.92727272727274" y="92.46642857142857" width="2" height="7.533571428571435" id="tests-vaccines-9"></rect></g><g><rect x="161.36363636363637" y="84.19892857142857" width="2" height="15.801071428571433" id="tests-vaccines-10"></rect></g><g><rect x="157.8" y="70.46214285714285" width="2" height="29.53785714285715" id="tests-vaccines-11"></rect></g><g><rect x="154.23636363636365" y="78.56035714285714" width="2" height="21.439642857142857" id="tests-vaccines-12"></rect></g><g><rect x="150.6727272727273" y="78.81285714285714" width="2" height="21.18714285714286" id="tests-vaccines-13"></rect></g><g><rect x="147.1090909090909" y="79.60535714285714" width="2" height="20.394642857142856" id="tests-vaccines-14"></rect></g><g><rect x="143.54545454545453" y="82.15892857142858" width="2" height="17.841071428571425" id="tests-vaccines-15"></rect></g><g><rect x="139.9818181818182" y="93.13642857142858" width="2" height="6.863571428571419" id="tests-vaccines-16"></rect></g><g><rect x="136.41818181818184" y="81.97142857142858" width="2" height="18.028571428571425" id="tests-vaccines-17"></rect></g><g><rect x="132.85454545454544" y="65.82000000000001" width="2" height="34.17999999999999" id="tests-vaccines-18"></rect></g><g><rect x="129.29090909090908" y="73.96821428571428" width="2" height="26.031785714285718" id="tests-vaccines-19"></rect></g><g><rect x="125.72727272727273" y="72.69678571428571" width="2" height="27.30321428571429" id="tests-vaccines-20"></rect></g><g><rect x="122.16363636363636" y="72.96107142857142" width="2" height="27.038928571428585" id="tests-vaccines-21"></rect></g><g><rect x="118.6" y="72.12714285714286" width="2" height="27.872857142857143" id="tests-vaccines-22"></rect></g><g><rect x="115.03636363636363" y="89.27964285714286" width="2" height="10.72035714285714" id="tests-vaccines-23"></rect></g><g><rect x="111.47272727272728" y="75.8282142857143" width="2" height="24.171785714285704" id="tests-vaccines-24"></rect></g><g><rect x="107.90909090909089" y="55.731428571428566" width="2" height="44.268571428571434" id="tests-vaccines-25"></rect></g><g><rect x="104.34545454545456" y="66.64214285714284" width="2" height="33.357857142857156" id="tests-vaccines-26"></rect></g><g><rect x="100.78181818181817" y="65.47535714285715" width="2" height="34.52464285714285" id="tests-vaccines-27"></rect></g><g><rect x="97.21818181818183" y="64.78071428571428" width="2" height="35.21928571428572" id="tests-vaccines-28"></rect></g><g><rect x="93.65454545454546" y="61.285000000000004" width="2" height="38.714999999999996" id="tests-vaccines-29"></rect></g><g><rect x="90.09090909090911" y="86.64892857142857" width="2" height="13.35107142857143" id="tests-vaccines-30"></rect></g><g><rect x="86.52727272727273" y="68.205" width="2" height="31.795" id="tests-vaccines-31"></rect></g><g><rect x="82.96363636363637" y="40.575357142857136" width="2" height="59.424642857142864" id="tests-vaccines-32"></rect></g><g><rect x="79.4" y="53.09535714285714" width="2" height="46.90464285714286" id="tests-vaccines-33"></rect></g><g><rect x="75.83636363636364" y="52.88107142857144" width="2" height="47.11892857142856" id="tests-vaccines-34"></rect></g><g><rect x="72.27272727272727" y="52.30892857142857" width="2" height="47.69107142857143" id="tests-vaccines-35"></rect></g><g><rect x="68.70909090909092" y="52.615" width="2" height="47.385" id="tests-vaccines-36"></rect></g><g><rect x="65.14545454545454" y="84.15142857142857" width="2" height="15.848571428571432" id="tests-vaccines-37"></rect></g><g><rect x="61.58181818181818" y="66.06285714285714" width="2" height="33.93714285714286" id="tests-vaccines-38"></rect></g><g><rect x="58.018181818181816" y="35.02607142857143" width="2" height="64.97392857142857" id="tests-vaccines-39"></rect></g><g><rect x="54.454545454545446" y="45.01500000000001" width="2" height="54.98499999999999" id="tests-vaccines-40"></rect></g><g><rect x="50.89090909090908" y="42.61214285714286" width="2" height="57.38785714285714" id="tests-vaccines-41"></rect></g><g><rect x="47.32727272727273" y="41.839642857142856" width="2" height="58.160357142857144" id="tests-vaccines-42"></rect></g><g><rect x="43.76363636363636" y="50.53785714285715" width="2" height="49.46214285714285" id="tests-vaccines-43"></rect></g><g><rect x="40.199999999999996" y="80.5275" width="2" height="19.472499999999997" id="tests-vaccines-44"></rect></g><g><rect x="36.636363636363626" y="58.46714285714285" width="2" height="41.53285714285715" id="tests-vaccines-45"></rect></g><g><rect x="33.072727272727285" y="19.720357142857146" width="2" height="80.27964285714285" id="tests-vaccines-46"></rect></g><g><rect x="29.509090909090922" y="31.271785714285716" width="2" height="68.72821428571429" id="tests-vaccines-47"></rect></g><g><rect x="25.945454545454556" y="28.89785714285714" width="2" height="71.10214285714287" id="tests-vaccines-48"></rect></g><g><rect x="22.38181818181819" y="27.434642857142855" width="2" height="72.56535714285715" id="tests-vaccines-49"></rect></g><g><rect x="18.818181818181824" y="31.725" width="2" height="68.275" id="tests-vaccines-50"></rect></g><g><rect x="15.254545454545461" y="77.1542857142857" width="2" height="22.845714285714294" id="tests-vaccines-51"></rect></g><g><rect x="11.690909090909095" y="46.003214285714286" width="2" height="53.996785714285714" id="tests-vaccines-52"></rect></g><g><rect x="8.12727272727273" y="2.8521428571428586" width="2" height="97.14785714285713" id="tests-vaccines-53"></rect></g><g><rect x="4.563636363636365" y="16.350357142857142" width="2" height="83.64964285714285" id="tests-vaccines-54"></rect></g><g><rect x="1" y="19.726071428571423" width="2" height="80.27392857142857" id="tests-vaccines-55"></rect></g></g><g class="fg-line tests-vaccines" fill="none" stroke="#92c5de" stroke-width="2" stroke-linecap="round"><path d="M198,82.70642857142857L194.43636363636364,82.36826530612245L190.87272727272727,83.16892857142857L187.30909090909088,83.07071428571429L183.74545454545455,82.75602040816327L180.1818181818182,82.22857142857143L176.61818181818182,81.86581632653062L173.05454545454546,81.53811224489796L169.49090909090907,81.37448979591836L165.92727272727274,80.89500000000001L162.36363636363637,80.99071428571428L158.8,80.6725L155.23636363636365,80.00933673469387L151.6727272727273,79.3533163265306L148.1090909090909,78.4795918367347L144.54545454545453,77.5304081632653L140.9818181818182,76.09729591836735L137.41818181818184,75.54632653061223L133.85454545454544,74.6687244897959L130.29090909090908,73.2275L126.72727272727273,72.18091836734695L123.16363636363636,71.14928571428571L119.6,69.98066326530612L116.03636363636363,68.43178571428572L112.47272727272728,68.05596938775511L108.90909090909089,66.96693877551022L105.34545454545456,64.80178571428571L101.78181818181817,62.8665306122449L98.21818181818183,61.067346938775515L94.65454545454546,59.28566326530612L91.09090909090911,58.04709183673469L87.52727272727273,57.69030612244899L83.96363636363637,57.38428571428571L80.4,56.59153061224489L76.83636363636364,55.43719387755102L73.27272727272727,53.97020408163266L69.70909090909092,52.47459183673469L66.14545454545454,52.17785714285714L62.58181818181818,51.66015306122449L59.018181818181816,50.57505102040817L55.454545454545446,48.38852040816326L51.89090909090908,46.42520408163266L48.32727272727273,44.46602040816327L44.76363636363636,42.40816326530612L41.199999999999996,39.72061224489796L37.636363636363626,39.23872448979592L34.072727272727285,37.45816326530612L30.509090909090922,35.04841836734693L26.945454545454556,32.91678571428571L23.38181818181819,31.6065306122449L19.818181818181824,30.723979591836738L16.25454545454546,30.08877551020408L12.690909090909095,30.56663265306122L9.12727272727273,37.85734693877551L5.563636363636365,47.77239795918368L2,48.077193877551025"></path></g></svg>