<svg meta="{&quot;DATA_PUBLISHED_DATE&quot;:&quot;2022-12-15&quot;,&quot;RENDER_DATE&quot;:&quot;2022-12-22&quot;,&quot;FIRST_DATE&quot;:&quot;2022-10-13&quot;,&quot;LAST_DATE&quot;:&quot;2022-12-07&quot;}" xmlns="http://www.w3.org/2000/svg" viewBox="0,0,200,100"><g transform="translate(0,0)"></g><g class="fg-bars tests-vaccines" fill="#00183f" stroke="none"><g><rect x="197" y="53.21076923076923" width="2" height="46.78923076923077" id="tests-vaccines-0"></rect></g><g><rect x="193.43636363636364" y="55.48" width="2" height="44.52" id="tests-vaccines-1"></rect></g><g><rect x="189.87272727272727" y="56.24538461538462" width="2" height="43.75461538461538" id="tests-vaccines-2"></rect></g><g><rect x="186.30909090909088" y="86.59846153846154" width="2" height="13.401538461538465" id="tests-vaccines-3"></rect></g><g><rect x="182.74545454545455" y="74.03461538461538" width="2" height="25.96538461538462" id="tests-vaccines-4"></rect></g><g><rect x="179.1818181818182" y="42.95307692307693" width="2" height="57.04692307692307" id="tests-vaccines-5"></rect></g><g><rect x="175.61818181818182" y="55.028461538461535" width="2" height="44.971538461538465" id="tests-vaccines-6"></rect></g><g><rect x="172.05454545454546" y="47.089230769230774" width="2" height="52.910769230769226" id="tests-vaccines-7"></rect></g><g><rect x="168.49090909090907" y="60.94538461538461" width="2" height="39.05461538461539" id="tests-vaccines-8"></rect></g><g><rect x="164.92727272727274" y="61.92230769230769" width="2" height="38.07769230769231" id="tests-vaccines-9"></rect></g><g><rect x="161.36363636363637" y="87.5" width="2" height="12.5" id="tests-vaccines-10"></rect></g><g><rect x="157.8" y="78.00769230769231" width="2" height="21.99230769230769" id="tests-vaccines-11"></rect></g><g><rect x="154.23636363636365" y="71.78769230769231" width="2" height="28.21230769230769" id="tests-vaccines-12"></rect></g><g><rect x="150.6727272727273" y="99.18" width="2" height="0.8199999999999932" id="tests-vaccines-13"></rect></g><g><rect x="147.1090909090909" y="49.39153846153847" width="2" height="50.60846153846153" id="tests-vaccines-14"></rect></g><g><rect x="143.54545454545453" y="47.63615384615385" width="2" height="52.36384615384615" id="tests-vaccines-15"></rect></g><g><rect x="139.9818181818182" y="42.072307692307696" width="2" height="57.927692307692304" id="tests-vaccines-16"></rect></g><g><rect x="136.41818181818184" y="84.40307692307692" width="2" height="15.596923076923076" id="tests-vaccines-17"></rect></g><g><rect x="132.85454545454544" y="67.56076923076924" width="2" height="32.43923076923076" id="tests-vaccines-18"></rect></g><g><rect x="129.29090909090908" y="29.069999999999997" width="2" height="70.93" id="tests-vaccines-19"></rect></g><g><rect x="125.72727272727273" y="43.73692307692308" width="2" height="56.26307692307692" id="tests-vaccines-20"></rect></g><g><rect x="122.16363636363636" y="41.55307692307693" width="2" height="58.44692307692307" id="tests-vaccines-21"></rect></g><g><rect x="118.6" y="42.92846153846154" width="2" height="57.07153846153846" id="tests-vaccines-22"></rect></g><g><rect x="115.03636363636363" y="41.85846153846153" width="2" height="58.14153846153847" id="tests-vaccines-23"></rect></g><g><rect x="111.47272727272728" y="84.09923076923077" width="2" height="15.900769230769228" id="tests-vaccines-24"></rect></g><g><rect x="107.90909090909089" y="68.8" width="2" height="31.200000000000003" id="tests-vaccines-25"></rect></g><g><rect x="104.34545454545456" y="24.200769230769225" width="2" height="75.79923076923077" id="tests-vaccines-26"></rect></g><g><rect x="100.78181818181817" y="37.99307692307692" width="2" height="62.00692307692308" id="tests-vaccines-27"></rect></g><g><rect x="97.21818181818183" y="41.4676923076923" width="2" height="58.5323076923077" id="tests-vaccines-28"></rect></g><g><rect x="93.65454545454546" y="47.47307692307692" width="2" height="52.52692307692308" id="tests-vaccines-29"></rect></g><g><rect x="90.09090909090911" y="39.24846153846154" width="2" height="60.75153846153846" id="tests-vaccines-30"></rect></g><g><rect x="86.52727272727273" y="83.11461538461539" width="2" height="16.88538461538461" id="tests-vaccines-31"></rect></g><g><rect x="82.96363636363637" y="63.53230769230769" width="2" height="36.46769230769231" id="tests-vaccines-32"></rect></g><g><rect x="79.4" y="16.936153846153847" width="2" height="83.06384615384616" id="tests-vaccines-33"></rect></g><g><rect x="75.83636363636364" y="37.28076923076923" width="2" height="62.71923076923077" id="tests-vaccines-34"></rect></g><g><rect x="72.27272727272727" y="33.060769230769225" width="2" height="66.93923076923078" id="tests-vaccines-35"></rect></g><g><rect x="68.70909090909092" y="37.86000000000001" width="2" height="62.13999999999999" id="tests-vaccines-36"></rect></g><g><rect x="65.14545454545454" y="40.030769230769224" width="2" height="59.969230769230776" id="tests-vaccines-37"></rect></g><g><rect x="61.58181818181818" y="82.61769230769231" width="2" height="17.38230769230769" id="tests-vaccines-38"></rect></g><g><rect x="58.018181818181816" y="62.55153846153847" width="2" height="37.44846153846153" id="tests-vaccines-39"></rect></g><g><rect x="54.454545454545446" y="10.627692307692305" width="2" height="89.3723076923077" id="tests-vaccines-40"></rect></g><g><rect x="50.89090909090908" y="26.547692307692305" width="2" height="73.4523076923077" id="tests-vaccines-41"></rect></g><g><rect x="47.32727272727273" y="19.716923076923077" width="2" height="80.28307692307692" id="tests-vaccines-42"></rect></g><g><rect x="43.76363636363636" y="27.803846153846155" width="2" height="72.19615384615385" id="tests-vaccines-43"></rect></g><g><rect x="40.199999999999996" y="25.482307692307693" width="2" height="74.5176923076923" id="tests-vaccines-44"></rect></g><g><rect x="36.636363636363626" y="81.25307692307693" width="2" height="18.746923076923068" id="tests-vaccines-45"></rect></g><g><rect x="33.072727272727285" y="59.06384615384616" width="2" height="40.93615384615384" id="tests-vaccines-46"></rect></g><g><rect x="29.509090909090922" y="7.008461538461541" width="2" height="92.99153846153845" id="tests-vaccines-47"></rect></g><g><rect x="25.945454545454556" y="25.59461538461538" width="2" height="74.40538461538462" id="tests-vaccines-48"></rect></g><g><rect x="22.38181818181819" y="21.80153846153846" width="2" height="78.19846153846154" id="tests-vaccines-49"></rect></g><g><rect x="18.818181818181824" y="27.170000000000005" width="2" height="72.83" id="tests-vaccines-50"></rect></g><g><rect x="15.254545454545461" y="22.53076923076923" width="2" height="77.46923076923076" id="tests-vaccines-51"></rect></g><g><rect x="11.690909090909095" y="80.28230769230768" width="2" height="19.717692307692317" id="tests-vaccines-52"></rect></g><g><rect x="8.12727272727273" y="59.64153846153846" width="2" height="40.35846153846154" id="tests-vaccines-53"></rect></g><g><rect x="4.563636363636365" y="4.894615384615387" width="2" height="95.10538461538461" id="tests-vaccines-54"></rect></g><g><rect x="1" y="25.44153846153846" width="2" height="74.55846153846154" id="tests-vaccines-55"></rect></g></g><g class="fg-line tests-vaccines" fill="none" stroke="#92c5de" stroke-width="2" stroke-linecap="round"><path d="M198,60.50725274725275L194.43636363636364,59.63274725274725L190.87272727272727,60.41351648351648L187.30909090909088,61.224505494505486L183.74545454545455,61.3532967032967L180.1818181818182,61.920879120879114L176.61818181818182,66.04010989010989L173.05454545454546,72.34747252747252L169.49090909090907,72.67637362637362L165.92727272727274,70.77505494505493L162.36363636363637,67.93934065934066L158.8,67.49692307692308L155.23636363636365,66.0045054945055L151.6727272727273,59.90197802197802L148.1090909090909,51.981538461538456L144.54545454545453,50.861758241758245L140.9818181818182,50.18923076923076L137.41818181818184,50.15868131868132L133.85454545454544,50.11527472527473L130.29090909090908,50.292307692307695L126.72727272727273,49.596703296703296L123.16363636363636,48.776153846153846L119.6,48.76395604395605L116.03636363636363,49.41318681318682L112.47272727272728,49.04032967032966L108.90909090909089,48.89967032967033L105.34545454545456,48.14714285714285L101.78181818181817,47.10934065934066L98.21818181818183,47.00758241758242L94.65454545454546,45.80659340659341L91.09090909090911,44.4332967032967L87.52727272727273,44.54505494505495L83.96363636363637,44.47406593406593L80.4,44.33395604395605L76.83636363636364,43.43274725274726L73.27272727272727,41.89945054945055L69.70909090909092,39.99318681318681L66.14545454545454,38.55659340659341L62.58181818181818,36.47824175824176L59.018181818181816,36.2832967032967L55.454545454545446,35.78505494505495L51.89090909090908,35.26802197802197L48.32727272727273,35.131868131868124L44.76363636363636,35.42967032967034L41.199999999999996,35.33912087912088L37.636363636363626,34.917472527472526L34.072727272727285,34.778791208791205L30.509090909090922,34.861318681318686L26.945454545454556,34.559340659340656L23.38181818181819,34.53747252747254L19.818181818181824,34.44857142857143L16.25454545454546,34.34131868131869L12.690909090909095,34.59274725274726L9.12727272727273,34.45824175824176L5.563636363636365,34.31813186813187L2,34.63406593406593"></path></g></svg>