<svg meta="{&quot;DATA_PUBLISHED_DATE&quot;:&quot;2022-11-03&quot;,&quot;RENDER_DATE&quot;:&quot;2022-11-03&quot;,&quot;FIRST_DATE&quot;:&quot;2022-09-01&quot;,&quot;LAST_DATE&quot;:&quot;2022-10-26&quot;}" xmlns="http://www.w3.org/2000/svg" viewBox="0,0,200,100"><g transform="translate(0,0)"></g><g class="fg-bars tests-vaccines" fill="#00183f" stroke="none"><g><rect x="197" y="21.66461538461538" width="2" height="78.33538461538461" id="tests-vaccines-0"></rect></g><g><rect x="193.43636363636364" y="28.677692307692304" width="2" height="71.3223076923077" id="tests-vaccines-1"></rect></g><g><rect x="189.87272727272727" y="26.373076923076923" width="2" height="73.62692307692308" id="tests-vaccines-2"></rect></g><g><rect x="186.30909090909088" y="81.37384615384616" width="2" height="18.62615384615384" id="tests-vaccines-3"></rect></g><g><rect x="182.74545454545455" y="59.71230769230769" width="2" height="40.28769230769231" id="tests-vaccines-4"></rect></g><g><rect x="179.1818181818182" y="8.626923076923077" width="2" height="91.37307692307692" id="tests-vaccines-5"></rect></g><g><rect x="175.61818181818182" y="26.865384615384613" width="2" height="73.13461538461539" id="tests-vaccines-6"></rect></g><g><rect x="172.05454545454546" y="22.729230769230767" width="2" height="77.27076923076923" id="tests-vaccines-7"></rect></g><g><rect x="168.49090909090907" y="27.913846153846155" width="2" height="72.08615384615385" id="tests-vaccines-8"></rect></g><g><rect x="164.92727272727274" y="23.230769230769234" width="2" height="76.76923076923077" id="tests-vaccines-9"></rect></g><g><rect x="161.36363636363637" y="80.37538461538462" width="2" height="19.62461538461538" id="tests-vaccines-10"></rect></g><g><rect x="157.8" y="60.32461538461538" width="2" height="39.67538461538462" id="tests-vaccines-11"></rect></g><g><rect x="154.23636363636365" y="5.696923076923078" width="2" height="94.30307692307693" id="tests-vaccines-12"></rect></g><g><rect x="150.6727272727273" y="26.154615384615386" width="2" height="73.84538461538462" id="tests-vaccines-13"></rect></g><g><rect x="147.1090909090909" y="21.902307692307687" width="2" height="78.09769230769231" id="tests-vaccines-14"></rect></g><g><rect x="143.54545454545453" y="27.445384615384615" width="2" height="72.55461538461539" id="tests-vaccines-15"></rect></g><g><rect x="139.9818181818182" y="24.93153846153846" width="2" height="75.06846153846155" id="tests-vaccines-16"></rect></g><g><rect x="136.41818181818184" y="79.40384615384615" width="2" height="20.596153846153854" id="tests-vaccines-17"></rect></g><g><rect x="132.85454545454544" y="59.15538461538461" width="2" height="40.84461538461539" id="tests-vaccines-18"></rect></g><g><rect x="129.29090909090908" y="7.98692307692308" width="2" height="92.01307692307692" id="tests-vaccines-19"></rect></g><g><rect x="125.72727272727273" y="26.81692307692307" width="2" height="73.18307692307692" id="tests-vaccines-20"></rect></g><g><rect x="122.16363636363636" y="22.66307692307692" width="2" height="77.33692307692309" id="tests-vaccines-21"></rect></g><g><rect x="118.6" y="30.35692307692308" width="2" height="69.64307692307692" id="tests-vaccines-22"></rect></g><g><rect x="115.03636363636363" y="26.752307692307696" width="2" height="73.2476923076923" id="tests-vaccines-23"></rect></g><g><rect x="111.47272727272728" y="80.08384615384615" width="2" height="19.916153846153847" id="tests-vaccines-24"></rect></g><g><rect x="107.90909090909089" y="62.82846153846153" width="2" height="37.17153846153847" id="tests-vaccines-25"></rect></g><g><rect x="104.34545454545456" y="13.396923076923073" width="2" height="86.60307692307693" id="tests-vaccines-26"></rect></g><g><rect x="100.78181818181817" y="30.550769230769227" width="2" height="69.44923076923078" id="tests-vaccines-27"></rect></g><g><rect x="97.21818181818183" y="27.408461538461538" width="2" height="72.59153846153846" id="tests-vaccines-28"></rect></g><g><rect x="93.65454545454546" y="32.67769230769231" width="2" height="67.32230769230769" id="tests-vaccines-29"></rect></g><g><rect x="90.09090909090911" y="28.299230769230764" width="2" height="71.70076923076924" id="tests-vaccines-30"></rect></g><g><rect x="86.52727272727273" y="79.71692307692308" width="2" height="20.28307692307692" id="tests-vaccines-31"></rect></g><g><rect x="82.96363636363637" y="60.919999999999995" width="2" height="39.080000000000005" id="tests-vaccines-32"></rect></g><g><rect x="79.4" y="9.816153846153842" width="2" height="90.18384615384616" id="tests-vaccines-33"></rect></g><g><rect x="75.83636363636364" y="30.40076923076923" width="2" height="69.59923076923077" id="tests-vaccines-34"></rect></g><g><rect x="72.27272727272727" y="28.606923076923074" width="2" height="71.39307692307693" id="tests-vaccines-35"></rect></g><g><rect x="68.70909090909092" y="35.770769230769226" width="2" height="64.22923076923078" id="tests-vaccines-36"></rect></g><g><rect x="65.14545454545454" y="34.59461538461538" width="2" height="65.40538461538462" id="tests-vaccines-37"></rect></g><g><rect x="61.58181818181818" y="82.1423076923077" width="2" height="17.857692307692304" id="tests-vaccines-38"></rect></g><g><rect x="58.018181818181816" y="66.00076923076924" width="2" height="33.99923076923076" id="tests-vaccines-39"></rect></g><g><rect x="54.454545454545446" y="21.937692307692302" width="2" height="78.0623076923077" id="tests-vaccines-40"></rect></g><g><rect x="50.89090909090908" y="39.66692307692308" width="2" height="60.33307692307692" id="tests-vaccines-41"></rect></g><g><rect x="47.32727272727273" y="37.54615384615385" width="2" height="62.45384615384615" id="tests-vaccines-42"></rect></g><g><rect x="43.76363636363636" y="44.69461538461539" width="2" height="55.30538461538461" id="tests-vaccines-43"></rect></g><g><rect x="40.199999999999996" y="40.74076923076924" width="2" height="59.25923076923076" id="tests-vaccines-44"></rect></g><g><rect x="36.636363636363626" y="81.32153846153847" width="2" height="18.678461538461534" id="tests-vaccines-45"></rect></g><g><rect x="33.072727272727285" y="69.49769230769232" width="2" height="30.50230769230768" id="tests-vaccines-46"></rect></g><g><rect x="29.509090909090922" y="43.38076923076923" width="2" height="56.61923076923077" id="tests-vaccines-47"></rect></g><g><rect x="25.945454545454556" y="63.4623076923077" width="2" height="36.5376923076923" id="tests-vaccines-48"></rect></g><g><rect x="22.38181818181819" y="63.30384615384615" width="2" height="36.69615384615385" id="tests-vaccines-49"></rect></g><g><rect x="18.818181818181824" y="78.56" width="2" height="21.439999999999998" id="tests-vaccines-50"></rect></g><g><rect x="15.254545454545461" y="99.07538461538462" width="2" height="0.9246153846153788" id="tests-vaccines-51"></rect></g><g><rect x="11.690909090909095" y="94.81923076923077" width="2" height="5.180769230769229" id="tests-vaccines-52"></rect></g><g><rect x="8.12727272727273" y="92.64769230769231" width="2" height="7.35230769230769" id="tests-vaccines-53"></rect></g><g><rect x="4.563636363636365" y="90.09461538461538" width="2" height="9.90538461538462" id="tests-vaccines-54"></rect></g><g><rect x="1" y="91.73153846153846" width="2" height="8.268461538461537" id="tests-vaccines-55"></rect></g></g><g class="fg-line tests-vaccines" fill="none" stroke="#92c5de" stroke-width="2" stroke-linecap="round"><path d="M198,36.184835164835164L194.43636363636364,36.33692307692308L190.87272727272727,36.22780219780219L187.30909090909088,35.77890109890111L183.74545454545455,35.63626373626373L180.1818181818182,35.723736263736264L176.61818181818182,35.30516483516484L173.05454545454546,35.20362637362637L169.49090909090907,35.08549450549451L165.92727272727274,35.018571428571434L162.36363636363637,35.261538461538464L158.8,35.12274725274725L155.23636363636365,34.95571428571428L151.6727272727273,35.28285714285715L148.1090909090909,35.377472527472534L144.54545454545453,35.48615384615385L140.9818181818182,35.90208791208791L137.41818181818184,36.1621978021978L133.85454545454544,36.25934065934066L130.29090909090908,36.784065934065936L126.72727272727273,37.55692307692308L123.16363636363636,38.09032967032967L119.6,38.768241758241764L116.03636363636363,39.09978021978022L112.47272727272728,39.32076923076922L108.90909090909089,39.268351648351654L105.34545454545456,38.99571428571428L101.78181818181817,38.484175824175814L98.21818181818183,38.462747252747256L94.65454545454546,38.63395604395604L91.09090909090911,39.07582417582418L87.52727272727273,39.97516483516483L83.96363636363637,40.321648351648356L80.4,41.04747252747253L76.83636363636364,42.77912087912088L73.27272727272727,44.10285714285715L69.70909090909092,45.379890109890106L66.14545454545454,46.65472527472527L62.58181818181818,47.53274725274726L59.018181818181816,47.41549450549451L55.454545454545446,47.91505494505495L51.89090909090908,50.97835164835165L48.32727272727273,54.377692307692314L44.76363636363636,58.05736263736263L41.199999999999996,62.89527472527472L37.636363636363626,71.22879120879121L34.072727272727285,73.15703296703296L30.509090909090922,76.46417582417583L26.945454545454556,83.13758241758242L23.38181818181819,87.17604395604396L19.818181818181824,90.62263736263736L16.25454545454546,91.53626373626373L12.690909090909095,89.60725274725274L9.12727272727273,89.75384615384615L5.563636363636365,89.47208791208791L2,87.92714285714285"></path></g></svg>