<svg meta="{&quot;DATA_PUBLISHED_DATE&quot;:&quot;2022-03-02&quot;,&quot;RENDER_DATE&quot;:&quot;2022-03-02&quot;,&quot;FIRST_DATE&quot;:&quot;2021-12-28&quot;,&quot;LAST_DATE&quot;:&quot;2022-02-21&quot;}" xmlns="http://www.w3.org/2000/svg" viewBox="0,0,200,100"><g transform="translate(0,0)"></g><g class="fg-bars cases-ep" fill="#00183f" stroke="none"><g><rect x="197" y="96.951875" width="2" height="3.048124999999999" id="cases-ep-0"></rect></g><g><rect x="193.43636363636364" y="97.92875" width="2" height="2.0712500000000063" id="cases-ep-1"></rect></g><g><rect x="189.87272727272727" y="97.496875" width="2" height="2.503124999999997" id="cases-ep-2"></rect></g><g><rect x="186.30909090909088" y="95.72562500000001" width="2" height="4.274374999999992" id="cases-ep-3"></rect></g><g><rect x="182.74545454545455" y="94.97375" width="2" height="5.0262500000000045" id="cases-ep-4"></rect></g><g><rect x="179.1818181818182" y="94.110625" width="2" height="5.889375000000001" id="cases-ep-5"></rect></g><g><rect x="175.61818181818182" y="93.206875" width="2" height="6.793125000000003" id="cases-ep-6"></rect></g><g><rect x="172.05454545454546" y="91.964375" width="2" height="8.035624999999996" id="cases-ep-7"></rect></g><g><rect x="168.49090909090907" y="96.660625" width="2" height="3.339375000000004" id="cases-ep-8"></rect></g><g><rect x="164.92727272727274" y="95.60499999999999" width="2" height="4.39500000000001" id="cases-ep-9"></rect></g><g><rect x="161.36363636363637" y="91.44" width="2" height="8.560000000000002" id="cases-ep-10"></rect></g><g><rect x="157.8" y="91.255625" width="2" height="8.744375000000005" id="cases-ep-11"></rect></g><g><rect x="154.23636363636365" y="89.919375" width="2" height="10.080624999999998" id="cases-ep-12"></rect></g><g><rect x="150.6727272727273" y="88.893125" width="2" height="11.106875000000002" id="cases-ep-13"></rect></g><g><rect x="147.1090909090909" y="86.10375" width="2" height="13.896249999999995" id="cases-ep-14"></rect></g><g><rect x="143.54545454545453" y="94.069375" width="2" height="5.930625000000006" id="cases-ep-15"></rect></g><g><rect x="139.9818181818182" y="92.734375" width="2" height="7.265625" id="cases-ep-16"></rect></g><g><rect x="136.41818181818184" y="86.424375" width="2" height="13.575625000000002" id="cases-ep-17"></rect></g><g><rect x="132.85454545454544" y="85.04437499999999" width="2" height="14.955625000000012" id="cases-ep-18"></rect></g><g><rect x="129.29090909090908" y="82.8875" width="2" height="17.112499999999997" id="cases-ep-19"></rect></g><g><rect x="125.72727272727273" y="79.653125" width="2" height="20.346874999999997" id="cases-ep-20"></rect></g><g><rect x="122.16363636363636" y="75.835" width="2" height="24.165000000000006" id="cases-ep-21"></rect></g><g><rect x="118.6" y="90.67875" width="2" height="9.321250000000006" id="cases-ep-22"></rect></g><g><rect x="115.03636363636363" y="87.2175" width="2" height="12.782499999999999" id="cases-ep-23"></rect></g><g><rect x="111.47272727272728" y="75.980625" width="2" height="24.019374999999997" id="cases-ep-24"></rect></g><g><rect x="107.90909090909089" y="72.59187499999999" width="2" height="27.408125000000013" id="cases-ep-25"></rect></g><g><rect x="104.34545454545456" y="67.61812499999999" width="2" height="32.38187500000001" id="cases-ep-26"></rect></g><g><rect x="100.78181818181817" y="62.573750000000004" width="2" height="37.426249999999996" id="cases-ep-27"></rect></g><g><rect x="97.21818181818183" y="56.295625" width="2" height="43.704375" id="cases-ep-28"></rect></g><g><rect x="93.65454545454546" y="82.5625" width="2" height="17.4375" id="cases-ep-29"></rect></g><g><rect x="90.09090909090911" y="75.35625" width="2" height="24.643749999999997" id="cases-ep-30"></rect></g><g><rect x="86.52727272727273" y="51.89125" width="2" height="48.10875" id="cases-ep-31"></rect></g><g><rect x="82.96363636363637" y="43.995625000000004" width="2" height="56.004374999999996" id="cases-ep-32"></rect></g><g><rect x="79.4" y="37.150625000000005" width="2" height="62.849374999999995" id="cases-ep-33"></rect></g><g><rect x="75.83636363636364" y="25.359374999999996" width="2" height="74.640625" id="cases-ep-34"></rect></g><g><rect x="72.27272727272727" y="49.603750000000005" width="2" height="50.396249999999995" id="cases-ep-35"></rect></g><g><rect x="68.70909090909092" y="75.53875" width="2" height="24.461250000000007" id="cases-ep-36"></rect></g><g><rect x="65.14545454545454" y="64.13625" width="2" height="35.863749999999996" id="cases-ep-37"></rect></g><g><rect x="61.58181818181818" y="35.665625" width="2" height="64.334375" id="cases-ep-38"></rect></g><g><rect x="58.018181818181816" y="29.4975" width="2" height="70.5025" id="cases-ep-39"></rect></g><g><rect x="54.454545454545446" y="21.992500000000003" width="2" height="78.0075" id="cases-ep-40"></rect></g><g><rect x="50.89090909090908" y="17.098749999999995" width="2" height="82.90125" id="cases-ep-41"></rect></g><g><rect x="47.32727272727273" y="13.611874999999996" width="2" height="86.388125" id="cases-ep-42"></rect></g><g><rect x="43.76363636363636" y="66.045" width="2" height="33.955" id="cases-ep-43"></rect></g><g><rect x="40.199999999999996" y="53.099374999999995" width="2" height="46.900625000000005" id="cases-ep-44"></rect></g><g><rect x="36.636363636363626" y="17.184999999999995" width="2" height="82.815" id="cases-ep-45"></rect></g><g><rect x="33.072727272727285" y="12.216875000000005" width="2" height="87.783125" id="cases-ep-46"></rect></g><g><rect x="29.509090909090922" y="4.878749999999998" width="2" height="95.12125" id="cases-ep-47"></rect></g><g><rect x="25.945454545454556" y="3.796250000000001" width="2" height="96.20375" id="cases-ep-48"></rect></g><g><rect x="22.38181818181819" y="14.778124999999998" width="2" height="85.221875" id="cases-ep-49"></rect></g><g><rect x="18.818181818181824" y="65.614375" width="2" height="34.385625000000005" id="cases-ep-50"></rect></g><g><rect x="15.254545454545461" y="80.33" width="2" height="19.67" id="cases-ep-51"></rect></g><g><rect x="11.690909090909095" y="66.57124999999999" width="2" height="33.42875000000001" id="cases-ep-52"></rect></g><g><rect x="8.12727272727273" y="47.165" width="2" height="52.835" id="cases-ep-53"></rect></g><g><rect x="4.563636363636365" y="45.411875" width="2" height="54.588125" id="cases-ep-54"></rect></g><g><rect x="1" y="45.309999999999995" width="2" height="54.690000000000005" id="cases-ep-55"></rect></g></g><g class="fg-line cases-ep" fill="none" stroke="#92c5de" stroke-width="2" stroke-linecap="round"><path d="M198,95.770625L194.43636363636364,95.058125L190.87272727272727,94.87696428571428L187.30909090909088,94.60669642857142L183.74545454545455,93.99446428571429L180.1818181818182,93.46330357142857L176.61818181818182,92.86455357142857L173.05454545454546,92.24830357142856L169.49090909090907,91.41107142857143L165.92727272727274,91.04089285714285L162.36363636363637,90.63080357142857L158.8,89.91428571428571L155.23636363636365,89.02696428571429L151.6727272727273,88.02241071428571L148.1090909090909,86.70241071428572L144.54545454545453,85.23544642857142L140.9818181818182,84.75107142857144L137.41818181818184,83.96294642857143L133.85454545454544,82.47098214285714L130.29090909090908,80.69205357142857L126.72727272727273,78.51071428571427L123.16363636363636,76.07080357142857L119.6,73.27946428571428L116.03636363636363,72.12L112.47272727272728,70.42553571428572L108.90909090909089,66.98419642857144L105.34545454545456,62.89901785714286L101.78181818181817,58.54651785714285L98.21818181818183,53.230178571428574L94.65454545454546,52.27419642857143L91.09090909090911,51.27080357142857L87.52727272727273,49.66794642857143L83.96363636363637,47.35L80.4,45.27883928571429L76.83636363636364,43.11339285714285L73.27272727272727,41.93330357142857L69.70909090909092,36.79160714285715L66.14545454545454,35.43535714285715L62.58181818181818,33.85866071428572L59.018181818181816,31.21857142857143L55.454545454545446,28.74991071428572L51.89090909090908,26.30508928571429L48.32727272727273,24.404732142857142L44.76363636363636,24.571339285714288L41.199999999999996,24.50982142857143L37.636363636363626,28.399910714285713L34.072727272727285,35.45508928571428L30.509090909090922,40.44767857142857L26.945454545454556,46.238125L23.38181818181819,52.16866071428572L19.818181818181824,57.68669642857142L16.25454545454546,59.43160714285713L12.690909090909095,60.94375000000001L9.12727272727273,63.76258928571428L5.563636363636365,68.43866071428572L2,73.4175"></path></g></svg>