<svg meta="{&quot;DATA_PUBLISHED_DATE&quot;:&quot;2023-05-18&quot;,&quot;RENDER_DATE&quot;:&quot;2023-05-18&quot;,&quot;FIRST_DATE&quot;:&quot;2023-03-15&quot;,&quot;LAST_DATE&quot;:&quot;2023-05-09&quot;}" xmlns="http://www.w3.org/2000/svg" viewBox="0,0,200,100"><g transform="translate(0,0)"></g><g class="fg-bars cases-ep" fill="#00183f" stroke="none"><g><rect x="197" y="51.81818181818182" width="2" height="48.18181818181818" id="cases-ep-0"></rect></g><g><rect x="193.43636363636364" y="43.90909090909091" width="2" height="56.09090909090909" id="cases-ep-1"></rect></g><g><rect x="189.87272727272727" y="67.5" width="2" height="32.5" id="cases-ep-2"></rect></g><g><rect x="186.30909090909088" y="70.04545454545455" width="2" height="29.954545454545453" id="cases-ep-3"></rect></g><g><rect x="182.74545454545455" y="57.59090909090909" width="2" height="42.40909090909091" id="cases-ep-4"></rect></g><g><rect x="179.1818181818182" y="55.72727272727273" width="2" height="44.27272727272727" id="cases-ep-5"></rect></g><g><rect x="175.61818181818182" y="50.81818181818182" width="2" height="49.18181818181818" id="cases-ep-6"></rect></g><g><rect x="172.05454545454546" y="44.22727272727273" width="2" height="55.77272727272727" id="cases-ep-7"></rect></g><g><rect x="168.49090909090907" y="41.13636363636364" width="2" height="58.86363636363636" id="cases-ep-8"></rect></g><g><rect x="164.92727272727274" y="68.0909090909091" width="2" height="31.909090909090907" id="cases-ep-9"></rect></g><g><rect x="161.36363636363637" y="66.04545454545455" width="2" height="33.95454545454545" id="cases-ep-10"></rect></g><g><rect x="157.8" y="51.54545454545454" width="2" height="48.45454545454546" id="cases-ep-11"></rect></g><g><rect x="154.23636363636365" y="47.18181818181818" width="2" height="52.81818181818182" id="cases-ep-12"></rect></g><g><rect x="150.6727272727273" y="38.090909090909086" width="2" height="61.909090909090914" id="cases-ep-13"></rect></g><g><rect x="147.1090909090909" y="37.95454545454545" width="2" height="62.04545454545455" id="cases-ep-14"></rect></g><g><rect x="143.54545454545453" y="28.181818181818187" width="2" height="71.81818181818181" id="cases-ep-15"></rect></g><g><rect x="139.9818181818182" y="61.63636363636365" width="2" height="38.36363636363635" id="cases-ep-16"></rect></g><g><rect x="136.41818181818184" y="61.31818181818181" width="2" height="38.68181818181819" id="cases-ep-17"></rect></g><g><rect x="132.85454545454544" y="48.59090909090909" width="2" height="51.40909090909091" id="cases-ep-18"></rect></g><g><rect x="129.29090909090908" y="43.99999999999999" width="2" height="56.00000000000001" id="cases-ep-19"></rect></g><g><rect x="125.72727272727273" y="41.77272727272727" width="2" height="58.22727272727273" id="cases-ep-20"></rect></g><g><rect x="122.16363636363636" y="35.36363636363637" width="2" height="64.63636363636363" id="cases-ep-21"></rect></g><g><rect x="118.6" y="25.409090909090914" width="2" height="74.5909090909091" id="cases-ep-22"></rect></g><g><rect x="115.03636363636363" y="62.54545454545455" width="2" height="37.45454545454545" id="cases-ep-23"></rect></g><g><rect x="111.47272727272728" y="56.40909090909091" width="2" height="43.59090909090909" id="cases-ep-24"></rect></g><g><rect x="107.90909090909089" y="43.04545454545454" width="2" height="56.95454545454546" id="cases-ep-25"></rect></g><g><rect x="104.34545454545456" y="33.09090909090909" width="2" height="66.9090909090909" id="cases-ep-26"></rect></g><g><rect x="100.78181818181817" y="30.272727272727273" width="2" height="69.72727272727272" id="cases-ep-27"></rect></g><g><rect x="97.21818181818183" y="26.954545454545453" width="2" height="73.04545454545455" id="cases-ep-28"></rect></g><g><rect x="93.65454545454546" y="8.95454545454546" width="2" height="91.04545454545453" id="cases-ep-29"></rect></g><g><rect x="90.09090909090911" y="59.36363636363636" width="2" height="40.63636363636364" id="cases-ep-30"></rect></g><g><rect x="86.52727272727273" y="53" width="2" height="47" id="cases-ep-31"></rect></g><g><rect x="82.96363636363637" y="40.22727272727272" width="2" height="59.77272727272728" id="cases-ep-32"></rect></g><g><rect x="79.4" y="35.18181818181818" width="2" height="64.81818181818181" id="cases-ep-33"></rect></g><g><rect x="75.83636363636364" y="33.5" width="2" height="66.5" id="cases-ep-34"></rect></g><g><rect x="72.27272727272727" y="28.727272727272723" width="2" height="71.27272727272728" id="cases-ep-35"></rect></g><g><rect x="68.70909090909092" y="16.36363636363637" width="2" height="83.63636363636363" id="cases-ep-36"></rect></g><g><rect x="65.14545454545454" y="56.27272727272727" width="2" height="43.72727272727273" id="cases-ep-37"></rect></g><g><rect x="61.58181818181818" y="50.54545454545454" width="2" height="49.45454545454546" id="cases-ep-38"></rect></g><g><rect x="58.018181818181816" y="35.09090909090909" width="2" height="64.9090909090909" id="cases-ep-39"></rect></g><g><rect x="54.454545454545446" y="28.636363636363637" width="2" height="71.36363636363636" id="cases-ep-40"></rect></g><g><rect x="50.89090909090908" y="27.454545454545453" width="2" height="72.54545454545455" id="cases-ep-41"></rect></g><g><rect x="47.32727272727273" y="26.5" width="2" height="73.5" id="cases-ep-42"></rect></g><g><rect x="43.76363636363636" y="19.454545454545457" width="2" height="80.54545454545455" id="cases-ep-43"></rect></g><g><rect x="40.199999999999996" y="55.22727272727273" width="2" height="44.77272727272727" id="cases-ep-44"></rect></g><g><rect x="36.636363636363626" y="55.22727272727273" width="2" height="44.77272727272727" id="cases-ep-45"></rect></g><g><rect x="33.072727272727285" y="32.72727272727273" width="2" height="67.27272727272728" id="cases-ep-46"></rect></g><g><rect x="29.509090909090922" y="26.090909090909086" width="2" height="73.9090909090909" id="cases-ep-47"></rect></g><g><rect x="25.945454545454556" y="26" width="2" height="74" id="cases-ep-48"></rect></g><g><rect x="22.38181818181819" y="18.000000000000004" width="2" height="82" id="cases-ep-49"></rect></g><g><rect x="18.818181818181824" y="5.000000000000004" width="2" height="95" id="cases-ep-50"></rect></g><g><rect x="15.254545454545461" y="49.590909090909086" width="2" height="50.409090909090914" id="cases-ep-51"></rect></g><g><rect x="11.690909090909095" y="42.45454545454545" width="2" height="57.54545454545455" id="cases-ep-52"></rect></g><g><rect x="8.12727272727273" y="17.181818181818187" width="2" height="82.81818181818181" id="cases-ep-53"></rect></g><g><rect x="4.563636363636365" y="9.227272727272728" width="2" height="90.77272727272727" id="cases-ep-54"></rect></g><g><rect x="1" y="7.9999999999999964" width="2" height="92" id="cases-ep-55"></rect></g></g><g class="fg-line cases-ep" fill="none" stroke="#92c5de" stroke-width="2" stroke-linecap="round"><path d="M198,56.77272727272727L194.43636363636364,55.688311688311686L190.87272727272727,55.29220779220779L187.30909090909088,55.37662337662338L183.74545454545455,54.8051948051948L180.1818181818182,53.941558441558435L176.61818181818182,52.72077922077922L173.05454545454546,50.90259740259741L169.49090909090907,50.00649350649351L165.92727272727274,48.15584415584415L162.36363636363637,47.233766233766225L158.8,46.55844155844156L155.23636363636365,46.13636363636363L151.6727272727273,45.68181818181818L148.1090909090909,46.20779220779221L144.54545454545453,45.83766233766233L140.9818181818182,45.44155844155845L137.41818181818184,45.57142857142858L133.85454545454544,44.87012987012987L130.29090909090908,44.07792207792208L126.72727272727273,42.51948051948051L123.16363636363636,40.87662337662338L119.6,39.675324675324674L116.03636363636363,37.324675324675326L112.47272727272728,36.870129870129865L108.90909090909089,36.383116883116884L105.34545454545456,35.980519480519476L101.78181818181817,36.27922077922078L98.21818181818183,36.74025974025974L94.65454545454546,36.99350649350649L91.09090909090911,38.051948051948045L87.52727272727273,37.6103896103896L83.96363636363637,37.25974025974026L80.4,36.52597402597403L76.83636363636364,35.59090909090909L73.27272727272727,34.72727272727273L69.70909090909092,34.409090909090914L66.14545454545454,34.850649350649356L62.58181818181818,34.7012987012987L59.018181818181816,35.37012987012987L55.454545454545446,35.032467532467535L51.89090909090908,34.66883116883117L48.32727272727273,34.46103896103896L44.76363636363636,33.246753246753244L41.199999999999996,31.181818181818176L37.636363636363626,30.376623376623368L34.072727272727285,28.551948051948052L30.509090909090922,26.331168831168828L26.945454545454556,23.92207792207792L23.38181818181819,21.350649350649352L19.818181818181824,19.15584415584415L16.25454545454546,14.305194805194809L12.690909090909095,12.305194805194809L9.12727272727273,10.487012987012989L5.563636363636365,8.090909090909093L2,5.051948051948063"></path></g></svg>