<svg about="DATA_PUBLISHED_DATE:2021-09-22,RENDER_DATE:2021-09-22" viewBox="0,0,200,100"><g transform="translate(0,0)"></g><g class="fg-bars tests-vaccines"><g><rect x="197" y="39.8776923076923" width="2" height="60.1223076923077" id="tests-vaccines-0"></rect></g><g><rect x="193.43636363636364" y="36.67769230769231" width="2" height="63.32230769230769" id="tests-vaccines-1"></rect></g><g><rect x="189.87272727272727" y="73.31538461538462" width="2" height="26.684615384615384" id="tests-vaccines-2"></rect></g><g><rect x="186.30909090909088" y="52.51769230769231" width="2" height="47.48230769230769" id="tests-vaccines-3"></rect></g><g><rect x="182.74545454545455" y="19.131538461538465" width="2" height="80.86846153846153" id="tests-vaccines-4"></rect></g><g><rect x="179.1818181818182" y="33.86846153846154" width="2" height="66.13153846153847" id="tests-vaccines-5"></rect></g><g><rect x="175.61818181818182" y="33.02846153846154" width="2" height="66.97153846153846" id="tests-vaccines-6"></rect></g><g><rect x="172.05454545454546" y="26.17076923076923" width="2" height="73.82923076923078" id="tests-vaccines-7"></rect></g><g><rect x="168.49090909090907" y="85.3923076923077" width="2" height="14.607692307692304" id="tests-vaccines-8"></rect></g><g><rect x="164.92727272727274" y="71.18692307692307" width="2" height="28.813076923076935" id="tests-vaccines-9"></rect></g><g><rect x="161.36363636363637" y="51.69076923076923" width="2" height="48.30923076923077" id="tests-vaccines-10"></rect></g><g><rect x="157.8" y="11.357692307692313" width="2" height="88.64230769230768" id="tests-vaccines-11"></rect></g><g><rect x="154.23636363636365" y="29.365384615384617" width="2" height="70.63461538461539" id="tests-vaccines-12"></rect></g><g><rect x="150.6727272727273" y="27.439999999999998" width="2" height="72.56" id="tests-vaccines-13"></rect></g><g><rect x="147.1090909090909" y="24.28307692307692" width="2" height="75.71692307692308" id="tests-vaccines-14"></rect></g><g><rect x="143.54545454545453" y="23.203846153846154" width="2" height="76.79615384615384" id="tests-vaccines-15"></rect></g><g><rect x="139.9818181818182" y="67.37923076923077" width="2" height="32.62076923076923" id="tests-vaccines-16"></rect></g><g><rect x="136.41818181818184" y="40.46153846153846" width="2" height="59.53846153846154" id="tests-vaccines-17"></rect></g><g><rect x="132.85454545454544" y="2.370769230769232" width="2" height="97.62923076923077" id="tests-vaccines-18"></rect></g><g><rect x="129.29090909090908" y="20.498461538461545" width="2" height="79.50153846153846" id="tests-vaccines-19"></rect></g><g><rect x="125.72727272727273" y="21.446923076923074" width="2" height="78.55307692307693" id="tests-vaccines-20"></rect></g><g><rect x="122.16363636363636" y="18.41538461538461" width="2" height="81.58461538461539" id="tests-vaccines-21"></rect></g><g><rect x="118.6" y="18.902307692307694" width="2" height="81.09769230769231" id="tests-vaccines-22"></rect></g><g><rect x="115.03636363636363" y="67.8453846153846" width="2" height="32.1546153846154" id="tests-vaccines-23"></rect></g><g><rect x="111.47272727272728" y="42.113846153846154" width="2" height="57.886153846153846" id="tests-vaccines-24"></rect></g><g><rect x="107.90909090909089" y="3.143076923076926" width="2" height="96.85692307692307" id="tests-vaccines-25"></rect></g><g><rect x="104.34545454545456" y="22.20461538461539" width="2" height="77.7953846153846" id="tests-vaccines-26"></rect></g><g><rect x="100.78181818181817" y="21.86076923076923" width="2" height="78.13923076923078" id="tests-vaccines-27"></rect></g><g><rect x="97.21818181818183" y="21.780769230769227" width="2" height="78.21923076923078" id="tests-vaccines-28"></rect></g><g><rect x="93.65454545454546" y="25.64384615384615" width="2" height="74.35615384615384" id="tests-vaccines-29"></rect></g><g><rect x="90.09090909090911" y="68.93692307692308" width="2" height="31.06307692307692" id="tests-vaccines-30"></rect></g><g><rect x="86.52727272727273" y="44.28076923076924" width="2" height="55.71923076923076" id="tests-vaccines-31"></rect></g><g><rect x="82.96363636363637" y="14.44692307692308" width="2" height="85.55307692307692" id="tests-vaccines-32"></rect></g><g><rect x="79.4" y="32.38230769230769" width="2" height="67.61769230769231" id="tests-vaccines-33"></rect></g><g><rect x="75.83636363636364" y="35.90769230769231" width="2" height="64.09230769230768" id="tests-vaccines-34"></rect></g><g><rect x="72.27272727272727" y="29.932307692307692" width="2" height="70.06769230769231" id="tests-vaccines-35"></rect></g><g><rect x="68.70909090909092" y="32.566153846153846" width="2" height="67.43384615384616" id="tests-vaccines-36"></rect></g><g><rect x="65.14545454545454" y="73.11923076923077" width="2" height="26.880769230769232" id="tests-vaccines-37"></rect></g><g><rect x="61.58181818181818" y="50.81307692307693" width="2" height="49.18692307692307" id="tests-vaccines-38"></rect></g><g><rect x="58.018181818181816" y="19.563076923076927" width="2" height="80.43692307692308" id="tests-vaccines-39"></rect></g><g><rect x="54.454545454545446" y="33.58846153846153" width="2" height="66.41153846153847" id="tests-vaccines-40"></rect></g><g><rect x="50.89090909090908" y="35.15923076923077" width="2" height="64.84076923076924" id="tests-vaccines-41"></rect></g><g><rect x="47.32727272727273" y="31.20384615384615" width="2" height="68.79615384615386" id="tests-vaccines-42"></rect></g><g><rect x="43.76363636363636" y="38.516923076923085" width="2" height="61.483076923076915" id="tests-vaccines-43"></rect></g><g><rect x="40.199999999999996" y="76.8" width="2" height="23.200000000000003" id="tests-vaccines-44"></rect></g><g><rect x="36.636363636363626" y="53.88999999999999" width="2" height="46.11000000000001" id="tests-vaccines-45"></rect></g><g><rect x="33.072727272727285" y="25.74923076923077" width="2" height="74.25076923076924" id="tests-vaccines-46"></rect></g><g><rect x="29.509090909090922" y="37.18" width="2" height="62.82" id="tests-vaccines-47"></rect></g><g><rect x="25.945454545454556" y="35.07230769230769" width="2" height="64.92769230769231" id="tests-vaccines-48"></rect></g><g><rect x="22.38181818181819" y="34.45384615384616" width="2" height="65.54615384615384" id="tests-vaccines-49"></rect></g><g><rect x="18.818181818181824" y="44.42923076923076" width="2" height="55.57076923076924" id="tests-vaccines-50"></rect></g><g><rect x="15.254545454545461" y="80.18846153846154" width="2" height="19.81153846153846" id="tests-vaccines-51"></rect></g><g><rect x="11.690909090909095" y="56.68461538461538" width="2" height="43.31538461538462" id="tests-vaccines-52"></rect></g><g><rect x="8.12727272727273" y="29.22769230769231" width="2" height="70.77230769230769" id="tests-vaccines-53"></rect></g><g><rect x="4.563636363636365" y="40.18153846153846" width="2" height="59.81846153846154" id="tests-vaccines-54"></rect></g><g><rect x="1" y="40.45923076923077" width="2" height="59.54076923076923" id="tests-vaccines-55"></rect></g></g><g class="fg-line tests-vaccines"><path stroke-linecap="round" d="M198,41.20241758241758L194.43636363636364,39.24428571428572L190.87272727272727,46.203516483516495L187.30909090909088,45.89945054945055L183.74545454545455,45.78131868131868L180.1818181818182,44.67076923076924L176.61818181818182,44.02747252747253L173.05454545454546,43.229120879120885L169.49090909090907,42.95945054945055L165.92727272727274,34.07538461538462L162.36363636363637,33.53142857142857L158.8,31.927252747252744L155.23636363636365,30.643406593406585L151.6727272727273,29.376703296703297L148.1090909090909,28.52054945054945L144.54545454545453,27.682307692307695L140.9818181818182,27.067802197802195L137.41818181818184,27.13439560439561L133.85454545454544,27.370439560439564L130.29090909090908,27.48076923076923L126.72727272727273,27.724505494505493L123.16363636363636,27.78362637362638L119.6,28.26439560439561L116.03636363636363,29.227472527472532L112.47272727272728,29.38340659340659L108.90909090909089,29.692967032967033L105.34545454545456,31.307802197802193L101.78181818181817,32.761758241758244L98.21818181818183,34.76846153846154L94.65454545454546,35.932967032967035L91.09090909090911,36.92186813186813L87.52727272727273,37.51934065934066L83.96363636363637,38.452527472527464L80.4,39.18340659340659L76.83636363636364,39.355714285714285L73.27272727272727,39.248791208791204L69.70909090909092,39.43043956043957L66.14545454545454,40.28054945054945L62.58181818181818,40.80637362637363L59.018181818181816,41.245934065934065L55.454545454545446,42.12967032967033L51.89090909090908,42.642747252747256L48.32727272727273,42.63032967032967L44.76363636363636,43.09461538461539L41.199999999999996,43.93923076923076L37.636363636363626,44.4232967032967L34.072727272727285,44.822527472527476L30.509090909090922,45.31945054945054L26.945454545454556,45.74824175824176L23.38181818181819,46.5178021978022L19.818181818181824,47.14615384615385L16.25454545454546,47.43263736263735L12.690909090909095,47.32736263736265L9.12727272727273,47.40351648351648L5.563636363636365,48.09153846153846L2,48.87098901098901"></path></g></svg>