<svg about="DATA_PUBLISHED_DATE:2021-10-08,RENDER_DATE:2021-10-08" xmlns="http://www.w3.org/2000/svg" viewBox="0,0,200,100"><g transform="translate(0,0)"></g><g class="fg-bars tests-vaccines" fill="#00183f" stroke="none"><g><rect x="197" y="8.308461538461543" width="2" height="91.69153846153846" id="tests-vaccines-0"></rect></g><g><rect x="193.43636363636364" y="5.203076923076921" width="2" height="94.79692307692308" id="tests-vaccines-1"></rect></g><g><rect x="189.87272727272727" y="3.4107692307692283" width="2" height="96.58923076923077" id="tests-vaccines-2"></rect></g><g><rect x="186.30909090909088" y="15.83230769230769" width="2" height="84.1676923076923" id="tests-vaccines-3"></rect></g><g><rect x="182.74545454545455" y="71.17076923076924" width="2" height="28.82923076923076" id="tests-vaccines-4"></rect></g><g><rect x="179.1818181818182" y="47.60076923076924" width="2" height="52.39923076923076" id="tests-vaccines-5"></rect></g><g><rect x="175.61818181818182" y="18.714615384615385" width="2" height="81.28538461538461" id="tests-vaccines-6"></rect></g><g><rect x="172.05454545454546" y="45.99384615384615" width="2" height="54.00615384615385" id="tests-vaccines-7"></rect></g><g><rect x="168.49090909090907" y="45.79538461538461" width="2" height="54.20461538461539" id="tests-vaccines-8"></rect></g><g><rect x="164.92727272727274" y="44.1023076923077" width="2" height="55.8976923076923" id="tests-vaccines-9"></rect></g><g><rect x="161.36363636363637" y="39.354615384615386" width="2" height="60.645384615384614" id="tests-vaccines-10"></rect></g><g><rect x="157.8" y="75.09153846153846" width="2" height="24.908461538461538" id="tests-vaccines-11"></rect></g><g><rect x="154.23636363636365" y="56.80538461538461" width="2" height="43.19461538461539" id="tests-vaccines-12"></rect></g><g><rect x="150.6727272727273" y="27.347692307692306" width="2" height="72.65230769230769" id="tests-vaccines-13"></rect></g><g><rect x="147.1090909090909" y="37.83" width="2" height="62.17" id="tests-vaccines-14"></rect></g><g><rect x="143.54545454545453" y="39.666153846153854" width="2" height="60.333846153846146" id="tests-vaccines-15"></rect></g><g><rect x="139.9818181818182" y="38.989230769230765" width="2" height="61.010769230769235" id="tests-vaccines-16"></rect></g><g><rect x="136.41818181818184" y="35.92307692307693" width="2" height="64.07692307692307" id="tests-vaccines-17"></rect></g><g><rect x="132.85454545454544" y="73.14615384615384" width="2" height="26.853846153846163" id="tests-vaccines-18"></rect></g><g><rect x="129.29090909090908" y="52.23692307692307" width="2" height="47.76307692307693" id="tests-vaccines-19"></rect></g><g><rect x="125.72727272727273" y="18.185384615384613" width="2" height="81.8146153846154" id="tests-vaccines-20"></rect></g><g><rect x="122.16363636363636" y="32.97538461538462" width="2" height="67.02461538461537" id="tests-vaccines-21"></rect></g><g><rect x="118.6" y="32.42307692307692" width="2" height="67.57692307692308" id="tests-vaccines-22"></rect></g><g><rect x="115.03636363636363" y="25.364615384615384" width="2" height="74.63538461538462" id="tests-vaccines-23"></rect></g><g><rect x="111.47272727272728" y="85.30846153846154" width="2" height="14.691538461538457" id="tests-vaccines-24"></rect></g><g><rect x="107.90909090909089" y="71.0276923076923" width="2" height="28.972307692307695" id="tests-vaccines-25"></rect></g><g><rect x="104.34545454545456" y="51.40538461538462" width="2" height="48.59461538461538" id="tests-vaccines-26"></rect></g><g><rect x="100.78181818181817" y="10.486923076923071" width="2" height="89.51307692307692" id="tests-vaccines-27"></rect></g><g><rect x="97.21818181818183" y="28.61076923076923" width="2" height="71.38923076923078" id="tests-vaccines-28"></rect></g><g><rect x="93.65454545454546" y="26.652307692307698" width="2" height="73.3476923076923" id="tests-vaccines-29"></rect></g><g><rect x="90.09090909090911" y="23.625384615384615" width="2" height="76.37461538461538" id="tests-vaccines-30"></rect></g><g><rect x="86.52727272727273" y="22.688461538461535" width="2" height="77.31153846153846" id="tests-vaccines-31"></rect></g><g><rect x="82.96363636363637" y="67.24" width="2" height="32.760000000000005" id="tests-vaccines-32"></rect></g><g><rect x="79.4" y="40.19076923076923" width="2" height="59.80923076923077" id="tests-vaccines-33"></rect></g><g><rect x="75.83636363636364" y="1.48076923076923" width="2" height="98.51923076923077" id="tests-vaccines-34"></rect></g><g><rect x="72.27272727272727" y="19.993076923076924" width="2" height="80.00692307692307" id="tests-vaccines-35"></rect></g><g><rect x="68.70909090909092" y="21.052307692307693" width="2" height="78.94769230769231" id="tests-vaccines-36"></rect></g><g><rect x="65.14545454545454" y="18.043846153846154" width="2" height="81.95615384615385" id="tests-vaccines-37"></rect></g><g><rect x="61.58181818181818" y="18.50615384615385" width="2" height="81.49384615384615" id="tests-vaccines-38"></rect></g><g><rect x="58.018181818181816" y="67.69461538461539" width="2" height="32.30538461538461" id="tests-vaccines-39"></rect></g><g><rect x="54.454545454545446" y="41.76384615384615" width="2" height="58.23615384615385" id="tests-vaccines-40"></rect></g><g><rect x="50.89090909090908" y="2.5769230769230766" width="2" height="97.42307692307692" id="tests-vaccines-41"></rect></g><g><rect x="47.32727272727273" y="21.79769230769231" width="2" height="78.2023076923077" id="tests-vaccines-42"></rect></g><g><rect x="43.76363636363636" y="21.60153846153846" width="2" height="78.39846153846153" id="tests-vaccines-43"></rect></g><g><rect x="40.199999999999996" y="21.389999999999997" width="2" height="78.61" id="tests-vaccines-44"></rect></g><g><rect x="36.636363636363626" y="25.22769230769231" width="2" height="74.77230769230769" id="tests-vaccines-45"></rect></g><g><rect x="33.072727272727285" y="68.82307692307693" width="2" height="31.176923076923075" id="tests-vaccines-46"></rect></g><g><rect x="29.509090909090922" y="43.958461538461535" width="2" height="56.041538461538465" id="tests-vaccines-47"></rect></g><g><rect x="25.945454545454556" y="14.006153846153847" width="2" height="85.99384615384615" id="tests-vaccines-48"></rect></g><g><rect x="22.38181818181819" y="32.06769230769231" width="2" height="67.93230769230769" id="tests-vaccines-49"></rect></g><g><rect x="18.818181818181824" y="35.639230769230764" width="2" height="64.36076923076924" id="tests-vaccines-50"></rect></g><g><rect x="15.254545454545461" y="29.60769230769231" width="2" height="70.3923076923077" id="tests-vaccines-51"></rect></g><g><rect x="11.690909090909095" y="32.25538461538462" width="2" height="67.74461538461537" id="tests-vaccines-52"></rect></g><g><rect x="8.12727272727273" y="72.98076923076924" width="2" height="27.01923076923076" id="tests-vaccines-53"></rect></g><g><rect x="4.563636363636365" y="50.629999999999995" width="2" height="49.370000000000005" id="tests-vaccines-54"></rect></g><g><rect x="1" y="19.150769230769228" width="2" height="80.84923076923077" id="tests-vaccines-55"></rect></g></g><g class="fg-line tests-vaccines" fill="none" stroke="#92c5de" stroke-width="2" stroke-linecap="round"><path d="M198,24.320109890109887L194.43636363636364,29.703736263736268L190.87272727272727,35.50263736263736L187.30909090909088,41.31571428571428L183.74545454545455,44.676043956043955L180.1818181818182,45.23615384615385L176.61818181818182,46.5510989010989L173.05454545454546,47.78439560439561L169.49090909090907,46.618131868131876L165.92727272727274,45.74252747252747L162.36363636363637,45.012087912087914L158.8,44.521868131868125L155.23636363636365,44.24395604395605L151.6727272727273,43.59131868131868L148.1090909090909,42.28241758241759L144.54545454545453,41.5889010989011L140.9818181818182,40.55417582417582L137.41818181818184,38.6078021978022L133.85454545454544,45.66285714285715L130.29090909090908,45.36021978021978L126.72727272727273,45.24142857142858L123.16363636363636,44.14164835164836L119.6,43.518131868131874L116.03636363636363,42.69373626373627L112.47272727272728,42.44527472527473L108.90909090909089,33.49956043956044L105.34545454545456,32.958461538461535L101.78181818181817,31.356373626373625L98.21818181818183,30.069780219780217L94.65454545454546,28.838681318681314L91.09090909090911,28.038681318681313L87.52727272727273,27.24131868131868L83.96363636363637,26.64384615384615L80.4,26.708791208791204L76.83636363636364,26.933516483516485L73.27272727272727,27.090109890109893L69.70909090909092,27.347912087912086L66.14545454545454,27.426373626373625L62.58181818181818,27.904395604395603L59.018181818181816,28.864615384615387L55.454545454545446,29.025824175824177L51.89090909090908,29.339340659340664L48.32727272727273,30.972087912087922L44.76363636363636,32.43923076923076L41.199999999999996,34.44461538461538L37.636363636363626,35.61857142857142L34.072727272727285,36.622527472527466L30.509090909090922,37.216483516483514L26.945454545454556,38.169560439560435L23.38181818181819,38.90450549450549L19.818181818181824,39.07857142857143L16.25454545454546,38.933846153846154L12.690909090909095,39.12923076923077L9.12727272727273,39.98824175824176L5.563636363636365,40.513296703296696L2,40.99208791208792"></path></g></svg>