<svg meta="{&quot;DATA_PUBLISHED_DATE&quot;:&quot;2022-02-11&quot;,&quot;RENDER_DATE&quot;:&quot;2022-02-13&quot;,&quot;FIRST_DATE&quot;:&quot;2021-12-09&quot;,&quot;LAST_DATE&quot;:&quot;2022-02-02&quot;}" xmlns="http://www.w3.org/2000/svg" viewBox="0,0,200,100"><g transform="translate(0,0)"></g><g class="fg-bars cases-ep" fill="#00183f" stroke="none"><g><rect x="197" y="83.603125" width="2" height="16.396874999999994" id="cases-ep-0"></rect></g><g><rect x="193.43636363636364" y="80.396875" width="2" height="19.603125000000006" id="cases-ep-1"></rect></g><g><rect x="189.87272727272727" y="76.051875" width="2" height="23.948125000000005" id="cases-ep-2"></rect></g><g><rect x="186.30909090909088" y="91.111875" width="2" height="8.888125000000002" id="cases-ep-3"></rect></g><g><rect x="182.74545454545455" y="87.36625000000001" width="2" height="12.633749999999992" id="cases-ep-4"></rect></g><g><rect x="179.1818181818182" y="76.029375" width="2" height="23.970625" id="cases-ep-5"></rect></g><g><rect x="175.61818181818182" y="72.52499999999999" width="2" height="27.47500000000001" id="cases-ep-6"></rect></g><g><rect x="172.05454545454546" y="67.59625" width="2" height="32.40375" id="cases-ep-7"></rect></g><g><rect x="168.49090909090907" y="62.800625" width="2" height="37.199375" id="cases-ep-8"></rect></g><g><rect x="164.92727272727274" y="56.77625" width="2" height="43.22375" id="cases-ep-9"></rect></g><g><rect x="161.36363636363637" y="83.0625" width="2" height="16.9375" id="cases-ep-10"></rect></g><g><rect x="157.8" y="75.544375" width="2" height="24.455624999999998" id="cases-ep-11"></rect></g><g><rect x="154.23636363636365" y="52.116249999999994" width="2" height="47.883750000000006" id="cases-ep-12"></rect></g><g><rect x="150.6727272727273" y="44.21125" width="2" height="55.78875" id="cases-ep-13"></rect></g><g><rect x="147.1090909090909" y="37.27625" width="2" height="62.72375" id="cases-ep-14"></rect></g><g><rect x="143.54545454545453" y="25.224375" width="2" height="74.775625" id="cases-ep-15"></rect></g><g><rect x="139.9818181818182" y="49.995" width="2" height="50.005" id="cases-ep-16"></rect></g><g><rect x="136.41818181818184" y="75.870625" width="2" height="24.129374999999996" id="cases-ep-17"></rect></g><g><rect x="132.85454545454544" y="64.09" width="2" height="35.91" id="cases-ep-18"></rect></g><g><rect x="129.29090909090908" y="35.238125" width="2" height="64.761875" id="cases-ep-19"></rect></g><g><rect x="125.72727272727273" y="29.3875" width="2" height="70.6125" id="cases-ep-20"></rect></g><g><rect x="122.16363636363636" y="22.4375" width="2" height="77.5625" id="cases-ep-21"></rect></g><g><rect x="118.6" y="17.56875" width="2" height="82.43125" id="cases-ep-22"></rect></g><g><rect x="115.03636363636363" y="14.101249999999999" width="2" height="85.89875" id="cases-ep-23"></rect></g><g><rect x="111.47272727272728" y="66.694375" width="2" height="33.305625000000006" id="cases-ep-24"></rect></g><g><rect x="107.90909090909089" y="53.5175" width="2" height="46.4825" id="cases-ep-25"></rect></g><g><rect x="104.34545454545456" y="17.375624999999996" width="2" height="82.624375" id="cases-ep-26"></rect></g><g><rect x="100.78181818181817" y="12.805625" width="2" height="87.19437500000001" id="cases-ep-27"></rect></g><g><rect x="97.21818181818183" y="6.033124999999995" width="2" height="93.966875" id="cases-ep-28"></rect></g><g><rect x="93.65454545454546" y="4.844375000000001" width="2" height="95.155625" id="cases-ep-29"></rect></g><g><rect x="90.09090909090911" y="15.813124999999994" width="2" height="84.186875" id="cases-ep-30"></rect></g><g><rect x="86.52727272727273" y="66.13" width="2" height="33.870000000000005" id="cases-ep-31"></rect></g><g><rect x="82.96363636363637" y="80.810625" width="2" height="19.189375" id="cases-ep-32"></rect></g><g><rect x="79.4" y="66.96375" width="2" height="33.036249999999995" id="cases-ep-33"></rect></g><g><rect x="75.83636363636364" y="47.364375" width="2" height="52.635625" id="cases-ep-34"></rect></g><g><rect x="72.27272727272727" y="44.975624999999994" width="2" height="55.024375000000006" id="cases-ep-35"></rect></g><g><rect x="68.70909090909092" y="45.778125" width="2" height="54.221875" id="cases-ep-36"></rect></g><g><rect x="65.14545454545454" y="54.025625" width="2" height="45.974375" id="cases-ep-37"></rect></g><g><rect x="61.58181818181818" y="78.245" width="2" height="21.754999999999995" id="cases-ep-38"></rect></g><g><rect x="58.018181818181816" y="91.23" width="2" height="8.769999999999996" id="cases-ep-39"></rect></g><g><rect x="54.454545454545446" y="86.5625" width="2" height="13.4375" id="cases-ep-40"></rect></g><g><rect x="50.89090909090908" y="80.058125" width="2" height="19.941874999999996" id="cases-ep-41"></rect></g><g><rect x="47.32727272727273" y="80.39" width="2" height="19.61" id="cases-ep-42"></rect></g><g><rect x="43.76363636363636" y="83.14" width="2" height="16.86" id="cases-ep-43"></rect></g><g><rect x="40.199999999999996" y="85.70687500000001" width="2" height="14.29312499999999" id="cases-ep-44"></rect></g><g><rect x="36.636363636363626" y="93.38" width="2" height="6.6200000000000045" id="cases-ep-45"></rect></g><g><rect x="33.072727272727285" y="93.978125" width="2" height="6.021874999999994" id="cases-ep-46"></rect></g><g><rect x="29.509090909090922" y="93.091875" width="2" height="6.908124999999998" id="cases-ep-47"></rect></g><g><rect x="25.945454545454556" y="93.653125" width="2" height="6.346874999999997" id="cases-ep-48"></rect></g><g><rect x="22.38181818181819" y="93.72562500000001" width="2" height="6.274374999999992" id="cases-ep-49"></rect></g><g><rect x="18.818181818181824" y="94.795625" width="2" height="5.204374999999999" id="cases-ep-50"></rect></g><g><rect x="15.254545454545461" y="94.46" width="2" height="5.540000000000006" id="cases-ep-51"></rect></g><g><rect x="11.690909090909095" y="97.271875" width="2" height="2.7281250000000057" id="cases-ep-52"></rect></g><g><rect x="8.12727272727273" y="97.35312499999999" width="2" height="2.6468750000000085" id="cases-ep-53"></rect></g><g><rect x="4.563636363636365" y="96.381875" width="2" height="3.6181250000000063" id="cases-ep-54"></rect></g><g><rect x="1" y="96.391875" width="2" height="3.608125000000001" id="cases-ep-55"></rect></g></g><g class="fg-line cases-ep" fill="none" stroke="#92c5de" stroke-width="2" stroke-linecap="round"><path d="M198,81.01205357142858L194.43636363636364,78.72535714285715L190.87272727272727,76.21160714285715L187.30909090909088,73.45794642857142L183.74545454545455,72.30803571428572L180.1818181818182,70.61919642857143L176.61818181818182,67.20303571428572L173.05454545454546,63.15821428571429L169.49090909090907,58.82678571428572L165.92727272727274,53.45875L162.36363636363637,52.489999999999995L158.8,51.46258928571428L155.23636363636365,49.82625L151.6727272727273,47.41508928571429L148.1090909090909,45.29741071428571L144.54545454545453,43.17758928571428L140.9818181818182,42.083928571428565L137.41818181818184,36.956250000000004L133.85454545454544,35.64535714285715L130.29090909090908,34.135000000000005L126.72727272727273,31.58321428571429L123.16363636363636,29.214375000000004L119.6,26.87089285714286L116.03636363636363,25.053124999999998L112.47272727272728,25.297678571428573L108.90909090909089,25.217053571428572L105.34545454545456,29.116071428571434L101.78181818181817,36.200089285714284L98.21818181818183,41.137053571428574L94.65454545454546,46.700267857142855L91.09090909090911,52.547946428571436L87.52727272727273,58.006875L83.96363636363637,59.737589285714286L80.4,61.22607142857143L76.83636363636364,64.02589285714286L73.27272727272727,68.69642857142857L69.70909090909092,73.75562500000001L66.14545454545454,79.09303571428572L62.58181818181818,83.61892857142857L59.018181818181816,85.78107142857144L55.454545454545446,86.17366071428572L51.89090909090908,87.10642857142858L48.32727272727273,89.04857142857144L44.76363636363636,90.95366071428572L41.199999999999996,92.61874999999999L37.636363636363626,93.86919642857143L34.072727272727285,94.42517857142857L30.509090909090922,94.90732142857144L26.945454545454556,95.37732142857142L23.38181818181819,95.76857142857142L19.818181818181824,96.08285714285715L16.25454545454546,96.23973214285715L12.690909090909095,96.36535714285715L9.12727272727273,96.40857142857143L5.563636363636365,96.41330357142857L2,96.37758928571428"></path></g></svg>