<svg meta="{&quot;DATA_PUBLISHED_DATE&quot;:&quot;2022-02-10&quot;,&quot;RENDER_DATE&quot;:&quot;2022-02-10&quot;,&quot;FIRST_DATE&quot;:&quot;2021-12-09&quot;,&quot;LAST_DATE&quot;:&quot;2022-02-02&quot;}" xmlns="http://www.w3.org/2000/svg" viewBox="0,0,200,100"><g transform="translate(0,0)"></g><g class="fg-bars tests-vaccines" fill="#00183f" stroke="none"><g><rect x="197" y="68.90666666666667" width="2" height="31.093333333333334" id="tests-vaccines-0"></rect></g><g><rect x="193.43636363636364" y="68.19666666666666" width="2" height="31.80333333333334" id="tests-vaccines-1"></rect></g><g><rect x="189.87272727272727" y="64.88666666666667" width="2" height="35.11333333333333" id="tests-vaccines-2"></rect></g><g><rect x="186.30909090909088" y="87.81866666666667" width="2" height="12.181333333333328" id="tests-vaccines-3"></rect></g><g><rect x="182.74545454545455" y="71.26666666666667" width="2" height="28.733333333333334" id="tests-vaccines-4"></rect></g><g><rect x="179.1818181818182" y="46.39" width="2" height="53.61" id="tests-vaccines-5"></rect></g><g><rect x="175.61818181818182" y="57.529999999999994" width="2" height="42.470000000000006" id="tests-vaccines-6"></rect></g><g><rect x="172.05454545454546" y="57.38633333333334" width="2" height="42.61366666666666" id="tests-vaccines-7"></rect></g><g><rect x="168.49090909090907" y="56.90766666666667" width="2" height="43.09233333333333" id="tests-vaccines-8"></rect></g><g><rect x="164.92727272727274" y="57.062999999999995" width="2" height="42.937000000000005" id="tests-vaccines-9"></rect></g><g><rect x="161.36363636363637" y="85.72999999999999" width="2" height="14.27000000000001" id="tests-vaccines-10"></rect></g><g><rect x="157.8" y="69.80466666666668" width="2" height="30.195333333333323" id="tests-vaccines-11"></rect></g><g><rect x="154.23636363636365" y="41.339000000000006" width="2" height="58.660999999999994" id="tests-vaccines-12"></rect></g><g><rect x="150.6727272727273" y="49.507999999999996" width="2" height="50.492000000000004" id="tests-vaccines-13"></rect></g><g><rect x="147.1090909090909" y="47.13699999999999" width="2" height="52.86300000000001" id="tests-vaccines-14"></rect></g><g><rect x="143.54545454545453" y="46.31933333333333" width="2" height="53.68066666666667" id="tests-vaccines-15"></rect></g><g><rect x="139.9818181818182" y="54.51200000000001" width="2" height="45.48799999999999" id="tests-vaccines-16"></rect></g><g><rect x="136.41818181818184" y="82.23866666666666" width="2" height="17.76133333333334" id="tests-vaccines-17"></rect></g><g><rect x="132.85454545454544" y="62.09" width="2" height="37.91" id="tests-vaccines-18"></rect></g><g><rect x="129.29090909090908" y="26.06166666666667" width="2" height="73.93833333333333" id="tests-vaccines-19"></rect></g><g><rect x="125.72727272727273" y="36.75000000000001" width="2" height="63.24999999999999" id="tests-vaccines-20"></rect></g><g><rect x="122.16363636363636" y="34.556" width="2" height="65.444" id="tests-vaccines-21"></rect></g><g><rect x="118.6" y="33.157000000000004" width="2" height="66.84299999999999" id="tests-vaccines-22"></rect></g><g><rect x="115.03636363636363" y="37.17766666666667" width="2" height="62.82233333333333" id="tests-vaccines-23"></rect></g><g><rect x="111.47272727272728" y="78.79266666666666" width="2" height="21.207333333333338" id="tests-vaccines-24"></rect></g><g><rect x="107.90909090909089" y="50.42733333333334" width="2" height="49.57266666666666" id="tests-vaccines-25"></rect></g><g><rect x="104.34545454545456" y="10.60766666666667" width="2" height="89.39233333333333" id="tests-vaccines-26"></rect></g><g><rect x="100.78181818181817" y="22.830666666666666" width="2" height="77.16933333333333" id="tests-vaccines-27"></rect></g><g><rect x="97.21818181818183" y="25.84833333333333" width="2" height="74.15166666666667" id="tests-vaccines-28"></rect></g><g><rect x="93.65454545454546" y="27.261666666666663" width="2" height="72.73833333333334" id="tests-vaccines-29"></rect></g><g><rect x="90.09090909090911" y="32.945" width="2" height="67.055" id="tests-vaccines-30"></rect></g><g><rect x="86.52727272727273" y="82.011" width="2" height="17.989000000000004" id="tests-vaccines-31"></rect></g><g><rect x="82.96363636363637" y="97.345" width="2" height="2.655000000000001" id="tests-vaccines-32"></rect></g><g><rect x="79.4" y="74.45366666666666" width="2" height="25.546333333333337" id="tests-vaccines-33"></rect></g><g><rect x="75.83636363636364" y="24.806666666666665" width="2" height="75.19333333333333" id="tests-vaccines-34"></rect></g><g><rect x="72.27272727272727" y="19.274333333333338" width="2" height="80.72566666666665" id="tests-vaccines-35"></rect></g><g><rect x="68.70909090909092" y="19.155666666666672" width="2" height="80.84433333333332" id="tests-vaccines-36"></rect></g><g><rect x="65.14545454545454" y="29.13933333333333" width="2" height="70.86066666666667" id="tests-vaccines-37"></rect></g><g><rect x="61.58181818181818" y="81.29266666666666" width="2" height="18.707333333333338" id="tests-vaccines-38"></rect></g><g><rect x="58.018181818181816" y="99.68866666666668" width="2" height="0.311333333333323" id="tests-vaccines-39"></rect></g><g><rect x="54.454545454545446" y="84.66433333333333" width="2" height="15.335666666666668" id="tests-vaccines-40"></rect></g><g><rect x="50.89090909090908" y="27.020333333333333" width="2" height="72.97966666666667" id="tests-vaccines-41"></rect></g><g><rect x="47.32727272727273" y="13.936666666666664" width="2" height="86.06333333333333" id="tests-vaccines-42"></rect></g><g><rect x="43.76363636363636" y="11.424000000000001" width="2" height="88.576" id="tests-vaccines-43"></rect></g><g><rect x="40.199999999999996" y="17.343333333333334" width="2" height="82.65666666666667" id="tests-vaccines-44"></rect></g><g><rect x="36.636363636363626" y="75.68766666666666" width="2" height="24.312333333333342" id="tests-vaccines-45"></rect></g><g><rect x="33.072727272727285" y="51.85833333333334" width="2" height="48.14166666666666" id="tests-vaccines-46"></rect></g><g><rect x="29.509090909090922" y="12.463000000000001" width="2" height="87.537" id="tests-vaccines-47"></rect></g><g><rect x="25.945454545454556" y="23.337666666666667" width="2" height="76.66233333333334" id="tests-vaccines-48"></rect></g><g><rect x="22.38181818181819" y="21.414999999999996" width="2" height="78.58500000000001" id="tests-vaccines-49"></rect></g><g><rect x="18.818181818181824" y="23.485333333333337" width="2" height="76.51466666666667" id="tests-vaccines-50"></rect></g><g><rect x="15.254545454545461" y="26.912000000000003" width="2" height="73.088" id="tests-vaccines-51"></rect></g><g><rect x="11.690909090909095" y="76.03566666666667" width="2" height="23.96433333333333" id="tests-vaccines-52"></rect></g><g><rect x="8.12727272727273" y="45.845333333333336" width="2" height="54.154666666666664" id="tests-vaccines-53"></rect></g><g><rect x="4.563636363636365" y="5.235333333333337" width="2" height="94.76466666666667" id="tests-vaccines-54"></rect></g><g><rect x="1" y="14.749333333333336" width="2" height="85.25066666666666" id="tests-vaccines-55"></rect></g></g><g class="fg-line tests-vaccines" fill="none" stroke="#92c5de" stroke-width="2" stroke-linecap="round"><path d="M198,66.42790476190477L194.43636363636364,64.78214285714286L190.87272727272727,63.169428571428575L187.30909090909088,62.051761904761904L183.74545454545455,61.75338095238095L180.1818181818182,61.54452380952381L176.61818181818182,60.82295238095239L173.05454545454546,59.676952380952386L169.49090909090907,58.2127619047619L165.92727272727274,56.70014285714286L162.36363636363637,56.33571428571429L158.8,55.836952380952376L155.23636363636365,54.73485714285714L151.6727272727273,52.55238095238095L148.1090909090909,50.72980952380952L144.54545454545453,48.93252380952381L140.9818181818182,47.05219047619047L137.41818181818184,44.575857142857146L133.85454545454544,44.08357142857143L130.29090909090908,42.41747619047619L126.72727272727273,40.2097619047619L123.16363636363636,38.22128571428571L119.6,36.97733333333333L116.03636363636363,36.13514285714285L112.47272727272728,35.53047619047619L108.90909090909089,35.99023809523809L105.34545454545456,42.6927619047619L101.78181818181817,51.81361904761904L98.21818181818183,52.09590476190476L94.65454545454546,51.15676190476191L91.09090909090911,49.9987619047619L87.52727272727273,49.45509523809524L83.96363636363637,49.35247619047619L80.4,49.687285714285714L76.83636363636364,51.14595238095237L73.27272727272727,51.46219047619047L69.70909090909092,50.699666666666666L66.14545454545454,49.59514285714286L62.58181818181818,47.91L59.018181818181816,47.10928571428571L55.454545454545446,40.276380952380954L51.89090909090908,29.96190476190477L48.32727272727273,29.43580952380953L44.76363636363636,30.504142857142856L41.199999999999996,32.22719047619047L37.636363636363626,33.59414285714286L34.072727272727285,33.64385714285714L30.509090909090922,32.784857142857135L26.945454545454556,31.75233333333334L23.38181818181819,30.52542857142857L19.818181818181824,29.168809523809525L16.25454545454546,27.553714285714292L12.690909090909095,26.354476190476195L9.12727272727273,25.76328571428571L5.563636363636365,24.6762380952381L2,22.84504761904762"></path></g></svg>