<svg about="DATA_PUBLISHED_DATE:2021-12-06,RENDER_DATE:2021-12-06" xmlns="http://www.w3.org/2000/svg" viewBox="0,0,200,100"><g transform="translate(0,0)"></g><g class="fg-bars death-date" fill="#00183f" stroke="none"><g><rect x="197" y="73.07692307692308" width="2" height="26.92307692307692" id="death-date-0"></rect></g><g><rect x="193.43636363636364" y="63.84615384615384" width="2" height="36.15384615384616" id="death-date-1"></rect></g><g><rect x="189.87272727272727" y="56.15384615384615" width="2" height="43.84615384615385" id="death-date-2"></rect></g><g><rect x="186.30909090909088" y="61.53846153846154" width="2" height="38.46153846153846" id="death-date-3"></rect></g><g><rect x="182.74545454545455" y="49.23076923076923" width="2" height="50.76923076923077" id="death-date-4"></rect></g><g><rect x="179.1818181818182" y="53.84615384615385" width="2" height="46.15384615384615" id="death-date-5"></rect></g><g><rect x="175.61818181818182" y="46.15384615384615" width="2" height="53.84615384615385" id="death-date-6"></rect></g><g><rect x="172.05454545454546" y="57.692307692307686" width="2" height="42.307692307692314" id="death-date-7"></rect></g><g><rect x="168.49090909090907" y="60.769230769230774" width="2" height="39.230769230769226" id="death-date-8"></rect></g><g><rect x="164.92727272727274" y="58.46153846153845" width="2" height="41.53846153846155" id="death-date-9"></rect></g><g><rect x="161.36363636363637" y="55.38461538461539" width="2" height="44.61538461538461" id="death-date-10"></rect></g><g><rect x="157.8" y="54.61538461538462" width="2" height="45.38461538461538" id="death-date-11"></rect></g><g><rect x="154.23636363636365" y="50.76923076923077" width="2" height="49.23076923076923" id="death-date-12"></rect></g><g><rect x="150.6727272727273" y="55.38461538461539" width="2" height="44.61538461538461" id="death-date-13"></rect></g><g><rect x="147.1090909090909" y="51.53846153846153" width="2" height="48.46153846153847" id="death-date-14"></rect></g><g><rect x="143.54545454545453" y="57.692307692307686" width="2" height="42.307692307692314" id="death-date-15"></rect></g><g><rect x="139.9818181818182" y="50" width="2" height="50" id="death-date-16"></rect></g><g><rect x="136.41818181818184" y="60.769230769230774" width="2" height="39.230769230769226" id="death-date-17"></rect></g><g><rect x="132.85454545454544" y="55.38461538461539" width="2" height="44.61538461538461" id="death-date-18"></rect></g><g><rect x="129.29090909090908" y="58.46153846153845" width="2" height="41.53846153846155" id="death-date-19"></rect></g><g><rect x="125.72727272727273" y="57.692307692307686" width="2" height="42.307692307692314" id="death-date-20"></rect></g><g><rect x="122.16363636363636" y="50.76923076923077" width="2" height="49.23076923076923" id="death-date-21"></rect></g><g><rect x="118.6" y="45.38461538461539" width="2" height="54.61538461538461" id="death-date-22"></rect></g><g><rect x="115.03636363636363" y="29.230769230769226" width="2" height="70.76923076923077" id="death-date-23"></rect></g><g><rect x="111.47272727272728" y="55.38461538461539" width="2" height="44.61538461538461" id="death-date-24"></rect></g><g><rect x="107.90909090909089" y="53.84615384615385" width="2" height="46.15384615384615" id="death-date-25"></rect></g><g><rect x="104.34545454545456" y="53.07692307692308" width="2" height="46.92307692307692" id="death-date-26"></rect></g><g><rect x="100.78181818181817" y="45.38461538461539" width="2" height="54.61538461538461" id="death-date-27"></rect></g><g><rect x="97.21818181818183" y="45.38461538461539" width="2" height="54.61538461538461" id="death-date-28"></rect></g><g><rect x="93.65454545454546" y="54.61538461538462" width="2" height="45.38461538461538" id="death-date-29"></rect></g><g><rect x="90.09090909090911" y="47.692307692307686" width="2" height="52.307692307692314" id="death-date-30"></rect></g><g><rect x="86.52727272727273" y="57.692307692307686" width="2" height="42.307692307692314" id="death-date-31"></rect></g><g><rect x="82.96363636363637" y="51.53846153846153" width="2" height="48.46153846153847" id="death-date-32"></rect></g><g><rect x="79.4" y="47.692307692307686" width="2" height="52.307692307692314" id="death-date-33"></rect></g><g><rect x="75.83636363636364" y="42.307692307692314" width="2" height="57.692307692307686" id="death-date-34"></rect></g><g><rect x="72.27272727272727" y="46.15384615384615" width="2" height="53.84615384615385" id="death-date-35"></rect></g><g><rect x="68.70909090909092" y="41.53846153846153" width="2" height="58.46153846153847" id="death-date-36"></rect></g><g><rect x="65.14545454545454" y="29.230769230769226" width="2" height="70.76923076923077" id="death-date-37"></rect></g><g><rect x="61.58181818181818" y="18.461538461538463" width="2" height="81.53846153846153" id="death-date-38"></rect></g><g><rect x="58.018181818181816" y="25.384615384615383" width="2" height="74.61538461538461" id="death-date-39"></rect></g><g><rect x="54.454545454545446" y="43.07692307692308" width="2" height="56.92307692307692" id="death-date-40"></rect></g><g><rect x="50.89090909090908" y="36.15384615384616" width="2" height="63.84615384615384" id="death-date-41"></rect></g><g><rect x="47.32727272727273" y="14.615384615384619" width="2" height="85.38461538461539" id="death-date-42"></rect></g><g><rect x="43.76363636363636" y="30.000000000000004" width="2" height="70" id="death-date-43"></rect></g><g><rect x="40.199999999999996" y="35.38461538461538" width="2" height="64.61538461538461" id="death-date-44"></rect></g><g><rect x="36.636363636363626" y="22.307692307692307" width="2" height="77.6923076923077" id="death-date-45"></rect></g><g><rect x="33.072727272727285" y="27.692307692307693" width="2" height="72.3076923076923" id="death-date-46"></rect></g><g><rect x="29.509090909090922" y="25.384615384615383" width="2" height="74.61538461538461" id="death-date-47"></rect></g><g><rect x="25.945454545454556" y="31.538461538461537" width="2" height="68.46153846153847" id="death-date-48"></rect></g><g><rect x="22.38181818181819" y="12.307692307692308" width="2" height="87.6923076923077" id="death-date-49"></rect></g><g><rect x="18.818181818181824" y="19.23076923076923" width="2" height="80.76923076923077" id="death-date-50"></rect></g><g><rect x="15.254545454545461" y="10.769230769230765" width="2" height="89.23076923076924" id="death-date-51"></rect></g><g><rect x="11.690909090909095" y="3.8461538461538436" width="2" height="96.15384615384616" id="death-date-52"></rect></g><g><rect x="8.12727272727273" y="26.15384615384615" width="2" height="73.84615384615385" id="death-date-53"></rect></g><g><rect x="4.563636363636365" y="10.769230769230765" width="2" height="89.23076923076924" id="death-date-54"></rect></g><g><rect x="1" y="32.30769230769231" width="2" height="67.6923076923077" id="death-date-55"></rect></g></g><g class="fg-line death-date" fill="none" stroke="#92c5de" stroke-width="2" stroke-linecap="round"><path d="M198,57.692307692307686L194.43636363636364,55.494505494505496L190.87272727272727,55.05494505494506L187.30909090909088,55.38461538461539L183.74545454545455,54.505494505494504L180.1818181818182,55.27472527472528L176.61818181818182,54.83516483516484L173.05454545454546,56.15384615384615L169.49090909090907,55.27472527472528L165.92727272727274,54.83516483516484L162.36363636363637,53.62637362637363L158.8,54.3956043956044L155.23636363636365,54.505494505494504L151.6727272727273,55.604395604395606L148.1090909090909,55.934065934065934L144.54545454545453,55.824175824175825L140.9818181818182,54.065934065934066L137.41818181818184,51.098901098901095L133.85454545454544,50.32967032967033L130.29090909090908,50.10989010989011L126.72727272727273,49.34065934065934L123.16363636363636,47.58241758241759L119.6,46.81318681318681L116.03636363636363,48.131868131868124L112.47272727272728,50.76923076923077L108.90909090909089,51.098901098901095L105.34545454545456,50.76923076923077L101.78181818181817,50L98.21818181818183,49.56043956043956L94.65454545454546,49.67032967032967L91.09090909090911,47.802197802197796L87.52727272727273,45.16483516483516L83.96363636363637,39.56043956043956L80.4,35.82417582417582L76.83636363636364,35.16483516483516L73.27272727272727,34.285714285714285L69.70909090909092,29.780219780219774L66.14545454545454,28.13186813186813L62.58181818181818,29.010989010989007L59.018181818181816,29.560439560439566L55.454545454545446,29.890109890109894L51.89090909090908,27.362637362637365L48.32727272727273,26.703296703296697L44.76363636363636,26.37362637362638L41.199999999999996,24.835164835164836L37.636363636363626,21.31868131868131L34.072727272727285,18.681318681318682L30.509090909090922,18.461538461538463L26.945454545454556,16.373626373626383L23.38181818181819,16.483516483516482L19.818181818181824,15.054945054945057L16.25454545454546,13.516483516483513L12.690909090909095,12.417582417582418L9.12727272727273,13.516483516483513L5.563636363636365,11.97802197802198L2,9.890109890109889"></path></g></svg>