<svg about="DATA_PUBLISHED_DATE:2022-01-17,RENDER_DATE:2022-01-17" xmlns="http://www.w3.org/2000/svg" viewBox="0,0,200,100"><g transform="translate(0,0)"></g><g class="fg-bars tests-vaccines" fill="#00183f" stroke="none"><g><rect x="197" y="82.63685714285714" width="2" height="17.36314285714286" id="tests-vaccines-0"></rect></g><g><rect x="193.43636363636364" y="59.45571428571428" width="2" height="40.54428571428572" id="tests-vaccines-1"></rect></g><g><rect x="189.87272727272727" y="26.88771428571428" width="2" height="73.11228571428572" id="tests-vaccines-2"></rect></g><g><rect x="186.30909090909088" y="36.33142857142857" width="2" height="63.66857142857143" id="tests-vaccines-3"></rect></g><g><rect x="182.74545454545455" y="38.65228571428572" width="2" height="61.34771428571428" id="tests-vaccines-4"></rect></g><g><rect x="179.1818181818182" y="39.52657142857143" width="2" height="60.47342857142857" id="tests-vaccines-5"></rect></g><g><rect x="175.61818181818182" y="44.265142857142855" width="2" height="55.734857142857145" id="tests-vaccines-6"></rect></g><g><rect x="172.05454545454546" y="84.96371428571429" width="2" height="15.036285714285711" id="tests-vaccines-7"></rect></g><g><rect x="168.49090909090907" y="97.82571428571428" width="2" height="2.174285714285716" id="tests-vaccines-8"></rect></g><g><rect x="164.92727272727274" y="78.76885714285714" width="2" height="21.231142857142856" id="tests-vaccines-9"></rect></g><g><rect x="161.36363636363637" y="37.10257142857143" width="2" height="62.89742857142857" id="tests-vaccines-10"></rect></g><g><rect x="157.8" y="31.88428571428571" width="2" height="68.11571428571429" id="tests-vaccines-11"></rect></g><g><rect x="154.23636363636365" y="31.737428571428573" width="2" height="68.26257142857142" id="tests-vaccines-12"></rect></g><g><rect x="150.6727272727273" y="40.278000000000006" width="2" height="59.721999999999994" id="tests-vaccines-13"></rect></g><g><rect x="147.1090909090909" y="84.20371428571428" width="2" height="15.796285714285716" id="tests-vaccines-14"></rect></g><g><rect x="143.54545454545453" y="99.74542857142858" width="2" height="0.254571428571424" id="tests-vaccines-15"></rect></g><g><rect x="139.9818181818182" y="87.17" width="2" height="12.829999999999998" id="tests-vaccines-16"></rect></g><g><rect x="136.41818181818184" y="38.36685714285715" width="2" height="61.63314285714285" id="tests-vaccines-17"></rect></g><g><rect x="132.85454545454544" y="27.27171428571429" width="2" height="72.7282857142857" id="tests-vaccines-18"></rect></g><g><rect x="129.29090909090908" y="25.18057142857143" width="2" height="74.81942857142857" id="tests-vaccines-19"></rect></g><g><rect x="125.72727272727273" y="30.17171428571429" width="2" height="69.82828571428571" id="tests-vaccines-20"></rect></g><g><rect x="122.16363636363636" y="79.43542857142857" width="2" height="20.564571428571426" id="tests-vaccines-21"></rect></g><g><rect x="118.6" y="59.238" width="2" height="40.762" id="tests-vaccines-22"></rect></g><g><rect x="115.03636363636363" y="26.047428571428576" width="2" height="73.95257142857142" id="tests-vaccines-23"></rect></g><g><rect x="111.47272727272728" y="35.13285714285714" width="2" height="64.86714285714285" id="tests-vaccines-24"></rect></g><g><rect x="107.90909090909089" y="33.58428571428571" width="2" height="66.41571428571429" id="tests-vaccines-25"></rect></g><g><rect x="104.34545454545456" y="35.491142857142854" width="2" height="64.50885714285715" id="tests-vaccines-26"></rect></g><g><rect x="100.78181818181817" y="38.05828571428571" width="2" height="61.94171428571429" id="tests-vaccines-27"></rect></g><g><rect x="97.21818181818183" y="79.95257142857143" width="2" height="20.04742857142857" id="tests-vaccines-28"></rect></g><g><rect x="93.65454545454546" y="53.92057142857143" width="2" height="46.07942857142857" id="tests-vaccines-29"></rect></g><g><rect x="90.09090909090911" y="19.54085714285714" width="2" height="80.45914285714287" id="tests-vaccines-30"></rect></g><g><rect x="86.52727272727273" y="27.548285714285715" width="2" height="72.45171428571429" id="tests-vaccines-31"></rect></g><g><rect x="82.96363636363637" y="25.152285714285718" width="2" height="74.84771428571429" id="tests-vaccines-32"></rect></g><g><rect x="79.4" y="25.34685714285714" width="2" height="74.65314285714285" id="tests-vaccines-33"></rect></g><g><rect x="75.83636363636364" y="30.620000000000005" width="2" height="69.38" id="tests-vaccines-34"></rect></g><g><rect x="72.27272727272727" y="76.18114285714286" width="2" height="23.81885714285714" id="tests-vaccines-35"></rect></g><g><rect x="68.70909090909092" y="47.585142857142856" width="2" height="52.414857142857144" id="tests-vaccines-36"></rect></g><g><rect x="65.14545454545454" y="8.803142857142854" width="2" height="91.19685714285714" id="tests-vaccines-37"></rect></g><g><rect x="61.58181818181818" y="19.393142857142852" width="2" height="80.60685714285715" id="tests-vaccines-38"></rect></g><g><rect x="58.018181818181816" y="21.38714285714286" width="2" height="78.61285714285714" id="tests-vaccines-39"></rect></g><g><rect x="54.454545454545446" y="29.19342857142857" width="2" height="70.80657142857143" id="tests-vaccines-40"></rect></g><g><rect x="50.89090909090908" y="38.84142857142857" width="2" height="61.15857142857143" id="tests-vaccines-41"></rect></g><g><rect x="47.32727272727273" y="81.53342857142857" width="2" height="18.466571428571427" id="tests-vaccines-42"></rect></g><g><rect x="43.76363636363636" y="67.21428571428572" width="2" height="32.78571428571428" id="tests-vaccines-43"></rect></g><g><rect x="40.199999999999996" y="56.221428571428575" width="2" height="43.778571428571425" id="tests-vaccines-44"></rect></g><g><rect x="36.636363636363626" y="98.578" width="2" height="1.421999999999997" id="tests-vaccines-45"></rect></g><g><rect x="33.072727272727285" y="41.25628571428571" width="2" height="58.74371428571429" id="tests-vaccines-46"></rect></g><g><rect x="29.509090909090922" y="30.117142857142852" width="2" height="69.88285714285715" id="tests-vaccines-47"></rect></g><g><rect x="25.945454545454556" y="33.24885714285715" width="2" height="66.75114285714285" id="tests-vaccines-48"></rect></g><g><rect x="22.38181818181819" y="78.78571428571428" width="2" height="21.214285714285722" id="tests-vaccines-49"></rect></g><g><rect x="18.818181818181824" y="54.932" width="2" height="45.068" id="tests-vaccines-50"></rect></g><g><rect x="15.254545454545461" y="22.573714285714285" width="2" height="77.42628571428571" id="tests-vaccines-51"></rect></g><g><rect x="11.690909090909095" y="34.681428571428576" width="2" height="65.31857142857143" id="tests-vaccines-52"></rect></g><g><rect x="8.12727272727273" y="33.541714285714285" width="2" height="66.45828571428572" id="tests-vaccines-53"></rect></g><g><rect x="4.563636363636365" y="35.105428571428575" width="2" height="64.89457142857142" id="tests-vaccines-54"></rect></g><g><rect x="1" y="40.758571428571436" width="2" height="59.241428571428564" id="tests-vaccines-55"></rect></g></g><g class="fg-line tests-vaccines" fill="none" stroke="#92c5de" stroke-width="2" stroke-linecap="round"><path d="M198,46.82224489795917L194.43636363636364,47.154653061224494L190.87272727272727,52.63608163265305L187.30909090909088,60.04767346938775L183.74545454545455,60.15783673469388L180.1818181818182,59.19097959183674L176.61818181818182,58.07824489795919L173.05454545454546,57.50865306122449L169.49090909090907,57.40008163265307L165.92727272727274,57.67432653061224L162.36363636363637,58.874489795918365L158.8,59.05510204081632L155.23636363636365,58.39616326530612L151.6727272727273,57.4594693877551L148.1090909090909,56.01571428571428L144.54545454545453,55.33453061224489L140.9818181818182,49.547755102040824L137.41818181818184,40.81595918367347L133.85454545454544,40.353959183673474L130.29090909090908,41.25575510204082L126.72727272727273,42.728693877551024L123.16363636363636,43.85534693877551L119.6,43.929224489795914L116.03636363636363,43.16959183673469L112.47272727272728,42.24008163265306L108.90909090909089,41.15657142857143L105.34545454545456,39.952L101.78181818181817,38.502816326530606L98.21818181818183,37.44020408163266L94.65454545454546,36.901428571428575L91.09090909090911,35.996367346938776L87.52727272727273,34.46240816326531L83.96363636363637,33.29738775510204L80.4,32.759510204081636L76.83636363636364,33.309020408163256L73.27272727272727,34.48351020408163L69.70909090909092,35.24812244897959L66.14545454545454,38.052285714285716L62.58181818181818,44.82632653061225L59.018181818181816,56.138448979591836L55.454545454545446,58.97689795918368L51.89090909090908,59.10885714285714L48.32727272727273,58.30991836734694L44.76363636363636,57.91738775510205L41.199999999999996,56.16277551020408L37.636363636363626,51.35595918367346L34.072727272727285,42.22787755102041L30.509090909090922,41.125795918367345L26.945454545454556,41.838408163265306L23.38181818181819,42.91122448979592L19.818181818181824,43.00387755102041L16.25454545454546,43.319877551020404L12.690909090909095,43.73048979591837L9.12727272727273,44.11355102040817L5.563636363636365,44.336244897959176L2,44.687714285714286"></path></g></svg>