<svg meta="{&quot;DATA_PUBLISHED_DATE&quot;:&quot;2023-01-05&quot;,&quot;RENDER_DATE&quot;:&quot;2023-01-05&quot;,&quot;FIRST_DATE&quot;:&quot;2022-11-03&quot;,&quot;LAST_DATE&quot;:&quot;2022-12-28&quot;}" xmlns="http://www.w3.org/2000/svg" viewBox="0,0,200,100"><g transform="translate(0,0)"></g><g class="fg-bars tests-vaccines" fill="#00183f" stroke="none"><g><rect x="197" y="60.73909090909091" width="2" height="39.26090909090909" id="tests-vaccines-0"></rect></g><g><rect x="193.43636363636364" y="57.840909090909086" width="2" height="42.159090909090914" id="tests-vaccines-1"></rect></g><g><rect x="189.87272727272727" y="86.1" width="2" height="13.900000000000006" id="tests-vaccines-2"></rect></g><g><rect x="186.30909090909088" y="99.79727272727273" width="2" height="0.2027272727272731" id="tests-vaccines-3"></rect></g><g><rect x="182.74545454545455" y="94.23545454545454" width="2" height="5.7645454545454555" id="tests-vaccines-4"></rect></g><g><rect x="179.1818181818182" y="65.84363636363636" width="2" height="34.156363636363636" id="tests-vaccines-5"></rect></g><g><rect x="175.61818181818182" y="61.35090909090909" width="2" height="38.64909090909091" id="tests-vaccines-6"></rect></g><g><rect x="172.05454545454546" y="56.869090909090914" width="2" height="43.130909090909086" id="tests-vaccines-7"></rect></g><g><rect x="168.49090909090907" y="54.13" width="2" height="45.87" id="tests-vaccines-8"></rect></g><g><rect x="164.92727272727274" y="49.92909090909091" width="2" height="50.07090909090909" id="tests-vaccines-9"></rect></g><g><rect x="161.36363636363637" y="85.36272727272727" width="2" height="14.63727272727273" id="tests-vaccines-10"></rect></g><g><rect x="157.8" y="72.6790909090909" width="2" height="27.320909090909097" id="tests-vaccines-11"></rect></g><g><rect x="154.23636363636365" y="42.65" width="2" height="57.35" id="tests-vaccines-12"></rect></g><g><rect x="150.6727272727273" y="51.63727272727272" width="2" height="48.36272727272728" id="tests-vaccines-13"></rect></g><g><rect x="147.1090909090909" y="50.65363636363636" width="2" height="49.34636363636364" id="tests-vaccines-14"></rect></g><g><rect x="143.54545454545453" y="50.00090909090908" width="2" height="49.99909090909092" id="tests-vaccines-15"></rect></g><g><rect x="139.9818181818182" y="48.45545454545454" width="2" height="51.54454545454546" id="tests-vaccines-16"></rect></g><g><rect x="136.41818181818184" y="84.32636363636364" width="2" height="15.673636363636362" id="tests-vaccines-17"></rect></g><g><rect x="132.85454545454544" y="68.61909090909091" width="2" height="31.380909090909086" id="tests-vaccines-18"></rect></g><g><rect x="129.29090909090908" y="34.194545454545455" width="2" height="65.80545454545455" id="tests-vaccines-19"></rect></g><g><rect x="125.72727272727273" y="44.79818181818182" width="2" height="55.20181818181818" id="tests-vaccines-20"></rect></g><g><rect x="122.16363636363636" y="43.66909090909091" width="2" height="56.33090909090909" id="tests-vaccines-21"></rect></g><g><rect x="118.6" y="46.84818181818182" width="2" height="53.15181818181818" id="tests-vaccines-22"></rect></g><g><rect x="115.03636363636363" y="47.902727272727276" width="2" height="52.097272727272724" id="tests-vaccines-23"></rect></g><g><rect x="111.47272727272728" y="84.13727272727273" width="2" height="15.86272727272727" id="tests-vaccines-24"></rect></g><g><rect x="107.90909090909089" y="69.07272727272728" width="2" height="30.927272727272722" id="tests-vaccines-25"></rect></g><g><rect x="104.34545454545456" y="31.86727272727272" width="2" height="68.13272727272728" id="tests-vaccines-26"></rect></g><g><rect x="100.78181818181817" y="46.47363636363636" width="2" height="53.52636363636364" id="tests-vaccines-27"></rect></g><g><rect x="97.21818181818183" y="37.07454545454546" width="2" height="62.92545454545454" id="tests-vaccines-28"></rect></g><g><rect x="93.65454545454546" y="53.540909090909096" width="2" height="46.459090909090904" id="tests-vaccines-29"></rect></g><g><rect x="90.09090909090911" y="54.83454545454545" width="2" height="45.16545454545455" id="tests-vaccines-30"></rect></g><g><rect x="86.52727272727273" y="85.21636363636364" width="2" height="14.783636363636361" id="tests-vaccines-31"></rect></g><g><rect x="82.96363636363637" y="73.93818181818182" width="2" height="26.061818181818182" id="tests-vaccines-32"></rect></g><g><rect x="79.4" y="66.55909090909091" width="2" height="33.44090909090909" id="tests-vaccines-33"></rect></g><g><rect x="75.83636363636364" y="98.99454545454546" width="2" height="1.0054545454545405" id="tests-vaccines-34"></rect></g><g><rect x="72.27272727272727" y="40.04" width="2" height="59.96" id="tests-vaccines-35"></rect></g><g><rect x="68.70909090909092" y="37.77636363636364" width="2" height="62.22363636363636" id="tests-vaccines-36"></rect></g><g><rect x="65.14545454545454" y="31.239090909090905" width="2" height="68.7609090909091" id="tests-vaccines-37"></rect></g><g><rect x="61.58181818181818" y="81.5409090909091" width="2" height="18.459090909090904" id="tests-vaccines-38"></rect></g><g><rect x="58.018181818181816" y="61.418181818181814" width="2" height="38.581818181818186" id="tests-vaccines-39"></rect></g><g><rect x="54.454545454545446" y="15.71818181818182" width="2" height="84.28181818181818" id="tests-vaccines-40"></rect></g><g><rect x="50.89090909090908" y="33.21727272727273" width="2" height="66.78272727272727" id="tests-vaccines-41"></rect></g><g><rect x="47.32727272727273" y="30.521818181818183" width="2" height="69.47818181818181" id="tests-vaccines-42"></rect></g><g><rect x="43.76363636363636" y="32.28727272727273" width="2" height="67.71272727272728" id="tests-vaccines-43"></rect></g><g><rect x="40.199999999999996" y="31.071818181818177" width="2" height="68.92818181818183" id="tests-vaccines-44"></rect></g><g><rect x="36.636363636363626" y="81.19727272727273" width="2" height="18.802727272727267" id="tests-vaccines-45"></rect></g><g><rect x="33.072727272727285" y="62.959999999999994" width="2" height="37.040000000000006" id="tests-vaccines-46"></rect></g><g><rect x="29.509090909090922" y="10.079090909090905" width="2" height="89.92090909090909" id="tests-vaccines-47"></rect></g><g><rect x="25.945454545454556" y="26.228181818181817" width="2" height="73.77181818181819" id="tests-vaccines-48"></rect></g><g><rect x="22.38181818181819" y="30.69090909090909" width="2" height="69.30909090909091" id="tests-vaccines-49"></rect></g><g><rect x="18.818181818181824" y="37.7890909090909" width="2" height="62.2109090909091" id="tests-vaccines-50"></rect></g><g><rect x="15.254545454545461" y="28.04" width="2" height="71.96000000000001" id="tests-vaccines-51"></rect></g><g><rect x="11.690909090909095" y="80.03181818181818" width="2" height="19.96818181818182" id="tests-vaccines-52"></rect></g><g><rect x="8.12727272727273" y="56.67181818181819" width="2" height="43.32818181818181" id="tests-vaccines-53"></rect></g><g><rect x="4.563636363636365" y="1.5672727272727283" width="2" height="98.43272727272728" id="tests-vaccines-54"></rect></g><g><rect x="1" y="25.58636363636364" width="2" height="74.41363636363636" id="tests-vaccines-55"></rect></g></g><g class="fg-line tests-vaccines" fill="none" stroke="#92c5de" stroke-width="2" stroke-linecap="round"><path d="M198,75.12961038961039L194.43636363636364,74.57675324675324L190.87272727272727,74.04662337662337L187.30909090909088,68.87935064935064L183.74545454545455,66.81727272727272L180.1818181818182,63.73779220779221L176.61818181818182,60.424415584415584L173.05454545454546,59.03675324675325L169.49090909090907,58.14883116883116L165.92727272727274,57.558961038961044L162.36363636363637,57.348441558441564L158.8,57.200389610389614L155.23636363636365,56.62038961038961L151.6727272727273,55.41246753246754L148.1090909090909,54.435454545454554L144.54545454545453,53.43766233766234L140.9818181818182,52.987272727272725L137.41818181818184,52.90831168831169L133.85454545454544,52.8812987012987L130.29090909090908,52.94610389610389L126.72727272727273,52.61363636363636L123.16363636363636,52.852987012987015L119.6,51.910909090909094L116.03636363636363,52.867012987012984L112.47272727272728,53.85727272727272L108.90909090909089,54.011428571428574L105.34545454545456,54.7064935064935L101.78181818181817,59.66246753246753L98.21818181818183,67.16545454545455L94.65454545454546,67.58909090909091L91.09090909090911,65.33701298701298L87.52727272727273,61.96623376623377L83.96363636363637,61.44116883116884L80.4,59.65259740259741L76.83636363636364,52.38961038961038L73.27272727272727,42.99285714285715L69.70909090909092,41.633116883116884L66.14545454545454,40.84896103896104L62.58181818181818,40.82506493506494L59.018181818181816,40.77597402597403L55.454545454545446,40.99623376623377L51.89090909090908,40.19064935064935L48.32727272727273,39.19220779220779L44.76363636363636,39.21636363636364L41.199999999999996,40.00233766233767L37.636363636363626,39.569220779220785L34.072727272727285,39.402727272727276L30.509090909090922,38.50441558441558L26.945454545454556,37.288441558441555L23.38181818181819,37.19675324675325L19.818181818181824,35.77662337662338L16.25454545454546,34.14025974025974L12.690909090909095,34.28727272727272L9.12727272727273,34.203246753246766L5.563636363636365,34.057272727272725L2,33.00012987012987"></path></g></svg>