<svg meta="{&quot;DATA_PUBLISHED_DATE&quot;:&quot;2022-02-15&quot;,&quot;RENDER_DATE&quot;:&quot;2022-02-15&quot;,&quot;FIRST_DATE&quot;:&quot;2021-12-13&quot;,&quot;LAST_DATE&quot;:&quot;2022-02-06&quot;}" xmlns="http://www.w3.org/2000/svg" viewBox="0,0,200,100"><g transform="translate(0,0)"></g><g class="fg-bars cases-ep" fill="#00183f" stroke="none"><g><rect x="197" y="94.57375" width="2" height="5.426249999999996" id="cases-ep-0"></rect></g><g><rect x="193.43636363636364" y="93.065625" width="2" height="6.934375000000003" id="cases-ep-1"></rect></g><g><rect x="189.87272727272727" y="86.79124999999999" width="2" height="13.208750000000009" id="cases-ep-2"></rect></g><g><rect x="186.30909090909088" y="85.55437500000001" width="2" height="14.445624999999993" id="cases-ep-3"></rect></g><g><rect x="182.74545454545455" y="83.44" width="2" height="16.560000000000002" id="cases-ep-4"></rect></g><g><rect x="179.1818181818182" y="80.303125" width="2" height="19.696875000000006" id="cases-ep-5"></rect></g><g><rect x="175.61818181818182" y="76.12625" width="2" height="23.87375" id="cases-ep-6"></rect></g><g><rect x="172.05454545454546" y="90.913125" width="2" height="9.086875000000006" id="cases-ep-7"></rect></g><g><rect x="168.49090909090907" y="87.231875" width="2" height="12.768124999999998" id="cases-ep-8"></rect></g><g><rect x="164.92727272727274" y="75.918125" width="2" height="24.081874999999997" id="cases-ep-9"></rect></g><g><rect x="161.36363636363637" y="72.466875" width="2" height="27.533125" id="cases-ep-10"></rect></g><g><rect x="157.8" y="67.58875" width="2" height="32.411249999999995" id="cases-ep-11"></rect></g><g><rect x="154.23636363636365" y="62.738749999999996" width="2" height="37.261250000000004" id="cases-ep-12"></rect></g><g><rect x="150.6727272727273" y="56.793749999999996" width="2" height="43.206250000000004" id="cases-ep-13"></rect></g><g><rect x="147.1090909090909" y="83.04249999999999" width="2" height="16.95750000000001" id="cases-ep-14"></rect></g><g><rect x="143.54545454545453" y="75.69624999999999" width="2" height="24.303750000000008" id="cases-ep-15"></rect></g><g><rect x="139.9818181818182" y="52.4875" width="2" height="47.5125" id="cases-ep-16"></rect></g><g><rect x="136.41818181818184" y="44.36125" width="2" height="55.63875" id="cases-ep-17"></rect></g><g><rect x="132.85454545454544" y="37.495" width="2" height="62.505" id="cases-ep-18"></rect></g><g><rect x="129.29090909090908" y="25.836250000000007" width="2" height="74.16375" id="cases-ep-19"></rect></g><g><rect x="125.72727272727273" y="50.08312500000001" width="2" height="49.91687499999999" id="cases-ep-20"></rect></g><g><rect x="122.16363636363636" y="75.731875" width="2" height="24.268124999999998" id="cases-ep-21"></rect></g><g><rect x="118.6" y="64.051875" width="2" height="35.948125000000005" id="cases-ep-22"></rect></g><g><rect x="115.03636363636363" y="35.28" width="2" height="64.72" id="cases-ep-23"></rect></g><g><rect x="111.47272727272728" y="29.214375000000004" width="2" height="70.785625" id="cases-ep-24"></rect></g><g><rect x="107.90909090909089" y="22.138125" width="2" height="77.861875" id="cases-ep-25"></rect></g><g><rect x="104.34545454545456" y="17.354375" width="2" height="82.645625" id="cases-ep-26"></rect></g><g><rect x="100.78181818181817" y="13.866875" width="2" height="86.133125" id="cases-ep-27"></rect></g><g><rect x="97.21818181818183" y="66.43" width="2" height="33.56999999999999" id="cases-ep-28"></rect></g><g><rect x="93.65454545454546" y="53.40625" width="2" height="46.59375" id="cases-ep-29"></rect></g><g><rect x="90.09090909090911" y="17.234375" width="2" height="82.765625" id="cases-ep-30"></rect></g><g><rect x="86.52727272727273" y="12.729374999999997" width="2" height="87.270625" id="cases-ep-31"></rect></g><g><rect x="82.96363636363637" y="5.908124999999997" width="2" height="94.091875" id="cases-ep-32"></rect></g><g><rect x="79.4" y="4.7581250000000015" width="2" height="95.241875" id="cases-ep-33"></rect></g><g><rect x="75.83636363636364" y="15.688124999999998" width="2" height="84.311875" id="cases-ep-34"></rect></g><g><rect x="72.27272727272727" y="66.0575" width="2" height="33.942499999999995" id="cases-ep-35"></rect></g><g><rect x="68.70909090909092" y="80.74687499999999" width="2" height="19.25312500000001" id="cases-ep-36"></rect></g><g><rect x="65.14545454545454" y="66.973125" width="2" height="33.026875000000004" id="cases-ep-37"></rect></g><g><rect x="61.58181818181818" y="47.380624999999995" width="2" height="52.619375000000005" id="cases-ep-38"></rect></g><g><rect x="58.018181818181816" y="44.97125" width="2" height="55.02875" id="cases-ep-39"></rect></g><g><rect x="54.454545454545446" y="45.720000000000006" width="2" height="54.279999999999994" id="cases-ep-40"></rect></g><g><rect x="50.89090909090908" y="53.978125" width="2" height="46.021875" id="cases-ep-41"></rect></g><g><rect x="47.32727272727273" y="78.185625" width="2" height="21.814375" id="cases-ep-42"></rect></g><g><rect x="43.76363636363636" y="91.19" width="2" height="8.810000000000002" id="cases-ep-43"></rect></g><g><rect x="40.199999999999996" y="86.52374999999999" width="2" height="13.476250000000007" id="cases-ep-44"></rect></g><g><rect x="36.636363636363626" y="80.048125" width="2" height="19.951875" id="cases-ep-45"></rect></g><g><rect x="33.072727272727285" y="80.3775" width="2" height="19.622500000000002" id="cases-ep-46"></rect></g><g><rect x="29.509090909090922" y="83.13375" width="2" height="16.866249999999994" id="cases-ep-47"></rect></g><g><rect x="25.945454545454556" y="85.705625" width="2" height="14.294375000000002" id="cases-ep-48"></rect></g><g><rect x="22.38181818181819" y="93.37062499999999" width="2" height="6.62937500000001" id="cases-ep-49"></rect></g><g><rect x="18.818181818181824" y="93.974375" width="2" height="6.025625000000005" id="cases-ep-50"></rect></g><g><rect x="15.254545454545461" y="93.085625" width="2" height="6.914375000000007" id="cases-ep-51"></rect></g><g><rect x="11.690909090909095" y="93.64375" width="2" height="6.356250000000003" id="cases-ep-52"></rect></g><g><rect x="8.12727272727273" y="93.72437500000001" width="2" height="6.275624999999991" id="cases-ep-53"></rect></g><g><rect x="4.563636363636365" y="94.791875" width="2" height="5.2081249999999955" id="cases-ep-54"></rect></g><g><rect x="1" y="94.45875000000001" width="2" height="5.541249999999991" id="cases-ep-55"></rect></g></g><g class="fg-line cases-ep" fill="none" stroke="#92c5de" stroke-width="2" stroke-linecap="round"><path d="M198,85.69348214285715L194.43636363636364,85.1705357142857L190.87272727272727,84.33714285714285L187.30909090909088,82.7838392857143L183.74545454545455,80.91419642857143L180.1818181818182,78.64973214285715L176.61818181818182,76.14053571428572L173.05454545454546,73.37875L169.49090909090907,72.25437500000001L165.92727272727274,70.60642857142858L162.36363636363637,67.25919642857143L158.8,63.24410714285714L155.23636363636365,58.945L151.6727272727273,53.67321428571428L148.1090909090909,52.71455357142857L144.54545454545453,51.67017857142857L140.9818181818182,50.00669642857143L137.41818181818184,47.548482142857154L133.85454545454544,45.38464285714285L130.29090909090908,43.190803571428575L126.72727272727273,41.97910714285714L123.16363636363636,36.80535714285714L119.6,35.47651785714285L116.03636363636363,33.955714285714286L112.47272727272728,31.377767857142857L108.90909090909089,29.02276785714285L105.34545454545456,26.704196428571436L101.78181818181817,24.904732142857146L98.21818181818183,25.164910714285714L94.65454545454546,25.111696428571427L91.09090909090911,29.017499999999995L87.52727272727273,36.12303571428571L83.96363636363637,41.073214285714286L80.4,46.653660714285714L76.83636363636364,52.50535714285714L73.27272727272727,57.975357142857156L69.70909090909092,59.707946428571425L66.14545454545454,61.19982142857143L62.58181818181818,63.99276785714285L59.018181818181816,68.65955357142856L55.454545454545446,73.71758928571428L51.89090909090908,79.06241071428572L48.32727272727273,83.5949107142857L44.76363636363636,85.76419642857142L41.199999999999996,86.16196428571429L37.636363636363626,87.099375L34.072727272727285,89.04160714285713L30.509090909090922,90.94830357142857L26.945454545454556,92.61375000000001L23.38181818181819,93.86419642857143L19.818181818181824,94.42044642857142L16.25454545454546,94.9030357142857L12.690909090909095,95.37410714285714L9.12727272727273,95.76714285714286L5.563636363636365,96.08133928571428L2,96.23866071428571"></path></g></svg>