<svg meta="{&quot;DATA_PUBLISHED_DATE&quot;:&quot;2022-07-08&quot;,&quot;RENDER_DATE&quot;:&quot;2022-07-12&quot;,&quot;FIRST_DATE&quot;:&quot;2022-05-06&quot;,&quot;LAST_DATE&quot;:&quot;2022-06-30&quot;}" xmlns="http://www.w3.org/2000/svg" viewBox="0,0,200,100"><g transform="translate(0,0)"></g><g class="fg-bars tests-vaccines" fill="#00183f" stroke="none"><g><rect x="197" y="49.29625" width="2" height="50.70375" id="tests-vaccines-0"></rect></g><g><rect x="193.43636363636364" y="49.89" width="2" height="50.11" id="tests-vaccines-1"></rect></g><g><rect x="189.87272727272727" y="50.315" width="2" height="49.685" id="tests-vaccines-2"></rect></g><g><rect x="186.30909090909088" y="50.668749999999996" width="2" height="49.331250000000004" id="tests-vaccines-3"></rect></g><g><rect x="182.74545454545455" y="85.02125000000001" width="2" height="14.978749999999991" id="tests-vaccines-4"></rect></g><g><rect x="179.1818181818182" y="65.5625" width="2" height="34.4375" id="tests-vaccines-5"></rect></g><g><rect x="175.61818181818182" y="35.721250000000005" width="2" height="64.27875" id="tests-vaccines-6"></rect></g><g><rect x="172.05454545454546" y="49.93875" width="2" height="50.06125" id="tests-vaccines-7"></rect></g><g><rect x="168.49090909090907" y="50.261250000000004" width="2" height="49.738749999999996" id="tests-vaccines-8"></rect></g><g><rect x="164.92727272727274" y="53.216249999999995" width="2" height="46.783750000000005" id="tests-vaccines-9"></rect></g><g><rect x="161.36363636363637" y="53.7575" width="2" height="46.2425" id="tests-vaccines-10"></rect></g><g><rect x="157.8" y="87.97500000000001" width="2" height="12.024999999999991" id="tests-vaccines-11"></rect></g><g><rect x="154.23636363636365" y="72.61125" width="2" height="27.38875" id="tests-vaccines-12"></rect></g><g><rect x="150.6727272727273" y="37.735" width="2" height="62.265" id="tests-vaccines-13"></rect></g><g><rect x="147.1090909090909" y="48.040000000000006" width="2" height="51.959999999999994" id="tests-vaccines-14"></rect></g><g><rect x="143.54545454545453" y="45.845" width="2" height="54.155" id="tests-vaccines-15"></rect></g><g><rect x="139.9818181818182" y="48.053749999999994" width="2" height="51.946250000000006" id="tests-vaccines-16"></rect></g><g><rect x="136.41818181818184" y="47.315" width="2" height="52.685" id="tests-vaccines-17"></rect></g><g><rect x="132.85454545454544" y="83.47625" width="2" height="16.523750000000007" id="tests-vaccines-18"></rect></g><g><rect x="129.29090909090908" y="67.20375000000001" width="2" height="32.796249999999986" id="tests-vaccines-19"></rect></g><g><rect x="125.72727272727273" y="29.657500000000002" width="2" height="70.3425" id="tests-vaccines-20"></rect></g><g><rect x="122.16363636363636" y="42.072500000000005" width="2" height="57.927499999999995" id="tests-vaccines-21"></rect></g><g><rect x="118.6" y="39.14875" width="2" height="60.85125" id="tests-vaccines-22"></rect></g><g><rect x="115.03636363636363" y="39.39625" width="2" height="60.60375" id="tests-vaccines-23"></rect></g><g><rect x="111.47272727272728" y="36.457499999999996" width="2" height="63.542500000000004" id="tests-vaccines-24"></rect></g><g><rect x="107.90909090909089" y="79.20375" width="2" height="20.79625" id="tests-vaccines-25"></rect></g><g><rect x="104.34545454545456" y="56.6775" width="2" height="43.3225" id="tests-vaccines-26"></rect></g><g><rect x="100.78181818181817" y="16.713750000000005" width="2" height="83.28625" id="tests-vaccines-27"></rect></g><g><rect x="97.21818181818183" y="31.708749999999995" width="2" height="68.29125" id="tests-vaccines-28"></rect></g><g><rect x="93.65454545454546" y="28.3575" width="2" height="71.6425" id="tests-vaccines-29"></rect></g><g><rect x="90.09090909090911" y="21.716250000000002" width="2" height="78.28375" id="tests-vaccines-30"></rect></g><g><rect x="86.52727272727273" y="95.59625" width="2" height="4.403750000000002" id="tests-vaccines-31"></rect></g><g><rect x="82.96363636363637" y="74.80125" width="2" height="25.198750000000004" id="tests-vaccines-32"></rect></g><g><rect x="79.4" y="54.72250000000001" width="2" height="45.27749999999999" id="tests-vaccines-33"></rect></g><g><rect x="75.83636363636364" y="5.601250000000002" width="2" height="94.39874999999999" id="tests-vaccines-34"></rect></g><g><rect x="72.27272727272727" y="27.815" width="2" height="72.185" id="tests-vaccines-35"></rect></g><g><rect x="68.70909090909092" y="23.61375" width="2" height="76.38625" id="tests-vaccines-36"></rect></g><g><rect x="65.14545454545454" y="23.538749999999997" width="2" height="76.46125" id="tests-vaccines-37"></rect></g><g><rect x="61.58181818181818" y="22.293750000000003" width="2" height="77.70625" id="tests-vaccines-38"></rect></g><g><rect x="58.018181818181816" y="72.15" width="2" height="27.849999999999994" id="tests-vaccines-39"></rect></g><g><rect x="54.454545454545446" y="49.315" width="2" height="50.685" id="tests-vaccines-40"></rect></g><g><rect x="50.89090909090908" y="5.3749999999999964" width="2" height="94.625" id="tests-vaccines-41"></rect></g><g><rect x="47.32727272727273" y="24.153749999999995" width="2" height="75.84625" id="tests-vaccines-42"></rect></g><g><rect x="43.76363636363636" y="27.905" width="2" height="72.095" id="tests-vaccines-43"></rect></g><g><rect x="40.199999999999996" y="30.488749999999996" width="2" height="69.51125" id="tests-vaccines-44"></rect></g><g><rect x="36.636363636363626" y="30.846249999999998" width="2" height="69.15375" id="tests-vaccines-45"></rect></g><g><rect x="33.072727272727285" y="78.245" width="2" height="21.754999999999995" id="tests-vaccines-46"></rect></g><g><rect x="29.509090909090922" y="57.745000000000005" width="2" height="42.254999999999995" id="tests-vaccines-47"></rect></g><g><rect x="25.945454545454556" y="12.9525" width="2" height="87.0475" id="tests-vaccines-48"></rect></g><g><rect x="22.38181818181819" y="24.107500000000005" width="2" height="75.8925" id="tests-vaccines-49"></rect></g><g><rect x="18.818181818181824" y="24.87125" width="2" height="75.12875" id="tests-vaccines-50"></rect></g><g><rect x="15.254545454545461" y="29.408749999999994" width="2" height="70.59125" id="tests-vaccines-51"></rect></g><g><rect x="11.690909090909095" y="30.605000000000004" width="2" height="69.395" id="tests-vaccines-52"></rect></g><g><rect x="8.12727272727273" y="83.98625" width="2" height="16.01375" id="tests-vaccines-53"></rect></g><g><rect x="4.563636363636365" y="61.98625" width="2" height="38.01375" id="tests-vaccines-54"></rect></g><g><rect x="1" y="13.558749999999996" width="2" height="86.44125" id="tests-vaccines-55"></rect></g></g><g class="fg-line tests-vaccines" fill="none" stroke="#92c5de" stroke-width="2" stroke-linecap="round"><path d="M198,55.21071428571429L194.43636363636364,55.3025L190.87272727272727,55.35553571428571L187.30909090909088,55.769999999999996L183.74545454545455,56.21125L180.1818181818182,56.63321428571428L176.61818181818182,57.64017857142857L173.05454545454546,57.92785714285715L169.49090909090907,57.65660714285714L165.92727272727274,57.02571428571428L162.36363636363637,56.28821428571429L158.8,55.36785714285715L155.23636363636365,54.725178571428565L151.6727272727273,53.95267857142857L148.1090909090909,52.798750000000005L144.54545454545453,51.94624999999999L140.9818181818182,50.98964285714285L137.41818181818184,49.752857142857145L133.85454545454544,48.20178571428572L130.29090909090908,47.59142857142857L126.72727272727273,46.08767857142857L123.16363636363636,44.238571428571426L119.6,42.75803571428571L116.03636363636363,41.216428571428565L112.47272727272728,38.69071428571429L108.90909090909089,47.13910714285715L105.34545454545456,46.510178571428575L101.78181818181817,46.230892857142855L98.21818181818183,44.64339285714285L94.65454545454546,44.08714285714286L91.09090909090911,43.409464285714286L87.52727272727273,43.66982142857143L83.96363636363637,33.19803571428571L80.4,32.81928571428572L76.83636363636364,32.04678571428572L73.27272727272727,32.01446428571428L69.70909090909092,31.49142857142857L66.14545454545454,32.104464285714286L62.58181818181818,33.09732142857143L59.018181818181816,34.31910714285714L55.454545454545446,35.189821428571435L51.89090909090908,36.394107142857145L48.32727272727273,37.47660714285714L44.76363636363636,37.470000000000006L41.199999999999996,37.03660714285715L37.636363636363626,36.88232142857143L34.072727272727285,36.847857142857144L30.509090909090922,37.66803571428572L26.945454545454556,38.27392857142857L23.38181818181819,38.36053571428572L19.818181818181824,38.61642857142857L16.25454545454546,38.78178571428571L12.690909090909095,38.35464285714285L9.12727272727273,37.80392857142857L5.563636363636365,36.87071428571428L2,36.068392857142854"></path></g></svg>