<svg meta="{&quot;DATA_PUBLISHED_DATE&quot;:&quot;2022-03-30&quot;,&quot;RENDER_DATE&quot;:&quot;2022-03-31&quot;,&quot;FIRST_DATE&quot;:&quot;2022-01-26&quot;,&quot;LAST_DATE&quot;:&quot;2022-03-22&quot;}" xmlns="http://www.w3.org/2000/svg" viewBox="0,0,200,100"><g transform="translate(0,0)"></g><g class="fg-bars tests-vaccines" fill="#00183f" stroke="none"><g><rect x="197" y="84.77555555555556" width="2" height="15.224444444444444" id="tests-vaccines-0"></rect></g><g><rect x="193.43636363636364" y="83.61944444444444" width="2" height="16.38055555555556" id="tests-vaccines-1"></rect></g><g><rect x="189.87272727272727" y="94.04166666666667" width="2" height="5.958333333333329" id="tests-vaccines-2"></rect></g><g><rect x="186.30909090909088" y="87.46833333333333" width="2" height="12.531666666666666" id="tests-vaccines-3"></rect></g><g><rect x="182.74545454545455" y="77.16277777777778" width="2" height="22.837222222222223" id="tests-vaccines-4"></rect></g><g><rect x="179.1818181818182" y="83.63333333333334" width="2" height="16.36666666666666" id="tests-vaccines-5"></rect></g><g><rect x="175.61818181818182" y="83.09722222222223" width="2" height="16.90277777777777" id="tests-vaccines-6"></rect></g><g><rect x="172.05454545454546" y="83.20444444444445" width="2" height="16.795555555555552" id="tests-vaccines-7"></rect></g><g><rect x="168.49090909090907" y="83.55777777777777" width="2" height="16.442222222222227" id="tests-vaccines-8"></rect></g><g><rect x="164.92727272727274" y="93.61277777777778" width="2" height="6.387222222222221" id="tests-vaccines-9"></rect></g><g><rect x="161.36363636363637" y="86.48833333333333" width="2" height="13.51166666666667" id="tests-vaccines-10"></rect></g><g><rect x="157.8" y="76.68833333333333" width="2" height="23.311666666666667" id="tests-vaccines-11"></rect></g><g><rect x="154.23636363636365" y="81.70666666666666" width="2" height="18.293333333333337" id="tests-vaccines-12"></rect></g><g><rect x="150.6727272727273" y="80.68777777777778" width="2" height="19.312222222222218" id="tests-vaccines-13"></rect></g><g><rect x="147.1090909090909" y="81.81277777777778" width="2" height="18.187222222222218" id="tests-vaccines-14"></rect></g><g><rect x="143.54545454545453" y="81.22833333333334" width="2" height="18.77166666666666" id="tests-vaccines-15"></rect></g><g><rect x="139.9818181818182" y="92.80277777777778" width="2" height="7.197222222222223" id="tests-vaccines-16"></rect></g><g><rect x="136.41818181818184" y="84.25" width="2" height="15.75" id="tests-vaccines-17"></rect></g><g><rect x="132.85454545454544" y="69.96555555555555" width="2" height="30.034444444444446" id="tests-vaccines-18"></rect></g><g><rect x="129.29090909090908" y="77.90333333333334" width="2" height="22.096666666666664" id="tests-vaccines-19"></rect></g><g><rect x="125.72727272727273" y="76.11833333333334" width="2" height="23.88166666666666" id="tests-vaccines-20"></rect></g><g><rect x="122.16363636363636" y="73.34888888888888" width="2" height="26.65111111111112" id="tests-vaccines-21"></rect></g><g><rect x="118.6" y="68.41277777777778" width="2" height="31.587222222222223" id="tests-vaccines-22"></rect></g><g><rect x="115.03636363636363" y="89.22166666666666" width="2" height="10.778333333333336" id="tests-vaccines-23"></rect></g><g><rect x="111.47272727272728" y="78.59777777777778" width="2" height="21.40222222222222" id="tests-vaccines-24"></rect></g><g><rect x="107.90909090909089" y="59.348888888888894" width="2" height="40.651111111111106" id="tests-vaccines-25"></rect></g><g><rect x="104.34545454545456" y="70.29944444444445" width="2" height="29.700555555555553" id="tests-vaccines-26"></rect></g><g><rect x="100.78181818181817" y="70.37722222222223" width="2" height="29.62277777777777" id="tests-vaccines-27"></rect></g><g><rect x="97.21818181818183" y="69.87777777777777" width="2" height="30.122222222222234" id="tests-vaccines-28"></rect></g><g><rect x="93.65454545454546" y="77.27444444444444" width="2" height="22.72555555555556" id="tests-vaccines-29"></rect></g><g><rect x="90.09090909090911" y="88.23777777777778" width="2" height="11.76222222222222" id="tests-vaccines-30"></rect></g><g><rect x="86.52727272727273" y="75.26666666666667" width="2" height="24.733333333333334" id="tests-vaccines-31"></rect></g><g><rect x="82.96363636363637" y="53.608333333333334" width="2" height="46.391666666666666" id="tests-vaccines-32"></rect></g><g><rect x="79.4" y="66.35777777777778" width="2" height="33.642222222222216" id="tests-vaccines-33"></rect></g><g><rect x="75.83636363636364" y="66.75944444444444" width="2" height="33.24055555555556" id="tests-vaccines-34"></rect></g><g><rect x="72.27272727272727" y="67.98666666666666" width="2" height="32.013333333333335" id="tests-vaccines-35"></rect></g><g><rect x="68.70909090909092" y="72.07055555555554" width="2" height="27.929444444444457" id="tests-vaccines-36"></rect></g><g><rect x="65.14545454545454" y="89.25555555555556" width="2" height="10.74444444444444" id="tests-vaccines-37"></rect></g><g><rect x="61.58181818181818" y="71.78277777777777" width="2" height="28.217222222222233" id="tests-vaccines-38"></rect></g><g><rect x="58.018181818181816" y="46.30722222222222" width="2" height="53.69277777777778" id="tests-vaccines-39"></rect></g><g><rect x="54.454545454545446" y="59.25666666666667" width="2" height="40.74333333333333" id="tests-vaccines-40"></rect></g><g><rect x="50.89090909090908" y="57.16833333333333" width="2" height="42.83166666666667" id="tests-vaccines-41"></rect></g><g><rect x="47.32727272727273" y="57.63333333333334" width="2" height="42.36666666666666" id="tests-vaccines-42"></rect></g><g><rect x="43.76363636363636" y="56.27333333333333" width="2" height="43.72666666666667" id="tests-vaccines-43"></rect></g><g><rect x="40.199999999999996" y="83.21388888888889" width="2" height="16.78611111111111" id="tests-vaccines-44"></rect></g><g><rect x="36.636363636363626" y="62.09611111111111" width="2" height="37.90388888888889" id="tests-vaccines-45"></rect></g><g><rect x="33.072727272727285" y="30.732777777777777" width="2" height="69.26722222222222" id="tests-vaccines-46"></rect></g><g><rect x="29.509090909090922" y="47.809999999999995" width="2" height="52.190000000000005" id="tests-vaccines-47"></rect></g><g><rect x="25.945454545454556" y="45.96111111111111" width="2" height="54.03888888888889" id="tests-vaccines-48"></rect></g><g><rect x="22.38181818181819" y="44.89222222222222" width="2" height="55.10777777777778" id="tests-vaccines-49"></rect></g><g><rect x="18.818181818181824" y="39.64777777777778" width="2" height="60.35222222222222" id="tests-vaccines-50"></rect></g><g><rect x="15.254545454545461" y="79.06944444444444" width="2" height="20.930555555555557" id="tests-vaccines-51"></rect></g><g><rect x="11.690909090909095" y="50.20722222222223" width="2" height="49.79277777777777" id="tests-vaccines-52"></rect></g><g><rect x="8.12727272727273" y="7.176111111111116" width="2" height="92.82388888888889" id="tests-vaccines-53"></rect></g><g><rect x="4.563636363636365" y="26.77666666666667" width="2" height="73.22333333333333" id="tests-vaccines-54"></rect></g><g><rect x="1" y="26.377777777777776" width="2" height="73.62222222222222" id="tests-vaccines-55"></rect></g></g><g class="fg-line tests-vaccines" fill="none" stroke="#92c5de" stroke-width="2" stroke-linecap="round"><path d="M198,84.82833333333333L194.43636363636364,84.60388888888889L190.87272727272727,84.59507936507936L187.30909090909088,84.53380952380952L183.74545454545455,84.39380952380952L180.1818181818182,84.32603174603175L176.61818181818182,84.05079365079365L173.05454545454546,83.7065873015873L169.49090909090907,83.50777777777778L165.92727272727274,83.175L162.36363636363637,83.0592857142857L158.8,82.7395238095238L155.23636363636365,81.77912698412698L151.6727272727273,81.23579365079365L148.1090909090909,80.58301587301587L144.54545454545453,79.37388888888889L140.9818181818182,77.54309523809523L137.41818181818184,77.03150793650794L133.85454545454544,76.22404761904762L130.29090909090908,74.70738095238096L126.72727272727273,73.62111111111112L123.16363636363636,72.80095238095238L119.6,72.30507936507937L116.03636363636363,73.57103174603175L112.47272727272728,73.43047619047618L108.90909090909089,72.95460317460318L105.34545454545456,72.13452380952381L101.78181818181817,71.57142857142857L98.21818181818183,71.05460317460317L94.65454545454546,70.78444444444445L91.09090909090911,70.04103174603175L87.52727272727273,70.18642857142858L83.96363636363637,69.68873015873017L80.4,68.64571428571429L76.83636363636364,67.63126984126984L73.27272727272727,66.2611111111111L69.70909090909092,64.78206349206349L66.14545454545454,62.52531746031747L62.58181818181818,61.66222222222222L59.018181818181816,60.278412698412694L55.454545454545446,58.053492063492065L51.89090909090908,56.41825396825397L48.32727272727273,54.81722222222223L44.76363636363636,52.9970634920635L41.199999999999996,50.62198412698413L37.636363636363626,50.02992063492064L34.072727272727285,48.33150793650793L30.509090909090922,44.966269841269835L26.945454545454556,41.961507936507935L23.38181818181819,39.163888888888884L19.818181818181824,36.41873015873016L16.25454545454546,34.49595238095239L12.690909090909095,33.942142857142855L9.12727272727273,33.480555555555554L5.563636363636365,32.254682539682534L2,30.4665873015873"></path></g></svg>