<svg meta="{&quot;DATA_PUBLISHED_DATE&quot;:&quot;2022-11-23&quot;,&quot;RENDER_DATE&quot;:&quot;2022-11-24&quot;,&quot;FIRST_DATE&quot;:&quot;2022-09-21&quot;,&quot;LAST_DATE&quot;:&quot;2022-11-15&quot;}" xmlns="http://www.w3.org/2000/svg" viewBox="0,0,200,100"><g transform="translate(0,0)"></g><g class="fg-bars cases-ep" fill="#00183f" stroke="none"><g><rect x="197" y="13" width="2" height="87" id="cases-ep-0"></rect></g><g><rect x="193.43636363636364" y="5.569230769230771" width="2" height="94.43076923076923" id="cases-ep-1"></rect></g><g><rect x="189.87272727272727" y="56.18461538461539" width="2" height="43.81538461538461" id="cases-ep-2"></rect></g><g><rect x="186.30909090909088" y="54.830769230769235" width="2" height="45.169230769230765" id="cases-ep-3"></rect></g><g><rect x="182.74545454545455" y="44.292307692307695" width="2" height="55.707692307692305" id="cases-ep-4"></rect></g><g><rect x="179.1818181818182" y="34.46153846153847" width="2" height="65.53846153846153" id="cases-ep-5"></rect></g><g><rect x="175.61818181818182" y="32.44615384615385" width="2" height="67.55384615384615" id="cases-ep-6"></rect></g><g><rect x="172.05454545454546" y="33.15384615384615" width="2" height="66.84615384615384" id="cases-ep-7"></rect></g><g><rect x="168.49090909090907" y="20.353846153846156" width="2" height="79.64615384615385" id="cases-ep-8"></rect></g><g><rect x="164.92727272727274" y="58.53846153846154" width="2" height="41.46153846153846" id="cases-ep-9"></rect></g><g><rect x="161.36363636363637" y="59.43076923076923" width="2" height="40.56923076923077" id="cases-ep-10"></rect></g><g><rect x="157.8" y="45.5076923076923" width="2" height="54.4923076923077" id="cases-ep-11"></rect></g><g><rect x="154.23636363636365" y="44.353846153846156" width="2" height="55.646153846153844" id="cases-ep-12"></rect></g><g><rect x="150.6727272727273" y="40.84615384615384" width="2" height="59.15384615384616" id="cases-ep-13"></rect></g><g><rect x="147.1090909090909" y="36.55384615384616" width="2" height="63.44615384615384" id="cases-ep-14"></rect></g><g><rect x="143.54545454545453" y="38.784615384615385" width="2" height="61.215384615384615" id="cases-ep-15"></rect></g><g><rect x="139.9818181818182" y="68.26153846153846" width="2" height="31.738461538461536" id="cases-ep-16"></rect></g><g><rect x="136.41818181818184" y="67.44615384615385" width="2" height="32.55384615384615" id="cases-ep-17"></rect></g><g><rect x="132.85454545454544" y="56.16923076923077" width="2" height="43.83076923076923" id="cases-ep-18"></rect></g><g><rect x="129.29090909090908" y="54.246153846153845" width="2" height="45.753846153846155" id="cases-ep-19"></rect></g><g><rect x="125.72727272727273" y="53.446153846153855" width="2" height="46.553846153846145" id="cases-ep-20"></rect></g><g><rect x="122.16363636363636" y="51.50769230769231" width="2" height="48.49230769230769" id="cases-ep-21"></rect></g><g><rect x="118.6" y="47.15384615384616" width="2" height="52.84615384615384" id="cases-ep-22"></rect></g><g><rect x="115.03636363636363" y="73.12307692307692" width="2" height="26.876923076923077" id="cases-ep-23"></rect></g><g><rect x="111.47272727272728" y="72.16923076923077" width="2" height="27.830769230769235" id="cases-ep-24"></rect></g><g><rect x="107.90909090909089" y="61.199999999999996" width="2" height="38.800000000000004" id="cases-ep-25"></rect></g><g><rect x="104.34545454545456" y="57.03076923076923" width="2" height="42.96923076923077" id="cases-ep-26"></rect></g><g><rect x="100.78181818181817" y="55.84615384615385" width="2" height="44.15384615384615" id="cases-ep-27"></rect></g><g><rect x="97.21818181818183" y="52.26153846153846" width="2" height="47.73846153846154" id="cases-ep-28"></rect></g><g><rect x="93.65454545454546" y="46.18461538461538" width="2" height="53.81538461538462" id="cases-ep-29"></rect></g><g><rect x="90.09090909090911" y="73.44615384615385" width="2" height="26.553846153846152" id="cases-ep-30"></rect></g><g><rect x="86.52727272727273" y="71.12307692307692" width="2" height="28.876923076923077" id="cases-ep-31"></rect></g><g><rect x="82.96363636363637" y="60.369230769230775" width="2" height="39.630769230769225" id="cases-ep-32"></rect></g><g><rect x="79.4" y="58.04615384615385" width="2" height="41.95384615384615" id="cases-ep-33"></rect></g><g><rect x="75.83636363636364" y="54.32307692307692" width="2" height="45.67692307692308" id="cases-ep-34"></rect></g><g><rect x="72.27272727272727" y="51.66153846153847" width="2" height="48.33846153846153" id="cases-ep-35"></rect></g><g><rect x="68.70909090909092" y="47.30769230769231" width="2" height="52.69230769230769" id="cases-ep-36"></rect></g><g><rect x="65.14545454545454" y="71.16923076923077" width="2" height="28.830769230769235" id="cases-ep-37"></rect></g><g><rect x="61.58181818181818" y="68.16923076923077" width="2" height="31.830769230769235" id="cases-ep-38"></rect></g><g><rect x="58.018181818181816" y="57.18461538461539" width="2" height="42.81538461538461" id="cases-ep-39"></rect></g><g><rect x="54.454545454545446" y="55.83076923076923" width="2" height="44.16923076923077" id="cases-ep-40"></rect></g><g><rect x="50.89090909090908" y="51.55384615384615" width="2" height="48.44615384615385" id="cases-ep-41"></rect></g><g><rect x="47.32727272727273" y="46.246153846153845" width="2" height="53.753846153846155" id="cases-ep-42"></rect></g><g><rect x="43.76363636363636" y="38.23076923076923" width="2" height="61.76923076923077" id="cases-ep-43"></rect></g><g><rect x="40.199999999999996" y="68.23076923076923" width="2" height="31.769230769230774" id="cases-ep-44"></rect></g><g><rect x="36.636363636363626" y="62.75384615384616" width="2" height="37.24615384615384" id="cases-ep-45"></rect></g><g><rect x="33.072727272727285" y="50.63076923076923" width="2" height="49.36923076923077" id="cases-ep-46"></rect></g><g><rect x="29.509090909090922" y="47.23076923076923" width="2" height="52.76923076923077" id="cases-ep-47"></rect></g><g><rect x="25.945454545454556" y="39.72307692307693" width="2" height="60.27692307692307" id="cases-ep-48"></rect></g><g><rect x="22.38181818181819" y="37.815384615384616" width="2" height="62.184615384615384" id="cases-ep-49"></rect></g><g><rect x="18.818181818181824" y="27.35384615384615" width="2" height="72.64615384615385" id="cases-ep-50"></rect></g><g><rect x="15.254545454545461" y="63.2" width="2" height="36.8" id="cases-ep-51"></rect></g><g><rect x="11.690909090909095" y="60.41538461538462" width="2" height="39.58461538461538" id="cases-ep-52"></rect></g><g><rect x="8.12727272727273" y="46.49230769230769" width="2" height="53.50769230769231" id="cases-ep-53"></rect></g><g><rect x="4.563636363636365" y="43.12307692307692" width="2" height="56.87692307692308" id="cases-ep-54"></rect></g><g><rect x="1" y="40.61538461538462" width="2" height="59.38461538461538" id="cases-ep-55"></rect></g></g><g class="fg-line cases-ep" fill="none" stroke="#92c5de" stroke-width="2" stroke-linecap="round"><path d="M198,34.39780219780219L194.43636363636364,37.276923076923076L190.87272727272727,39.389010989010984L187.30909090909088,39.72527472527473L183.74545454545455,40.38241758241759L180.1818181818182,40.556043956043965L176.61818181818182,41.96923076923077L173.05454545454546,43.16923076923077L169.49090909090907,43.654945054945046L165.92727272727274,46.28791208791208L162.36363636363637,47.676923076923075L158.8,48.82197802197802L155.23636363636365,50.34505494505495L151.6727272727273,51.75824175824175L148.1090909090909,53.558241758241756L144.54545454545453,55.6945054945055L140.9818181818182,56.89010989010988L137.41818181818184,57.58461538461539L133.85454545454544,58.259340659340666L130.29090909090908,58.97802197802198L126.72727272727273,59.37582417582418L123.16363636363636,59.71868131868132L119.6,59.82637362637363L116.03636363636363,59.68791208791209L112.47272727272728,59.73406593406594L108.90909090909089,59.58461538461539L105.34545454545456,59.465934065934064L101.78181818181817,59.610989010989016L98.21818181818183,59.393406593406596L94.65454545454546,59.30769230769231L91.09090909090911,59.46813186813187L87.52727272727273,59.14285714285714L83.96363636363637,58.72087912087911L80.4,58.26593406593407L76.83636363636364,57.94945054945055L73.27272727272727,57.55384615384615L69.70909090909092,56.78021978021979L66.14545454545454,55.48351648351648L62.58181818181818,55.06373626373626L59.018181818181816,54.290109890109896L55.454545454545446,53.35384615384615L51.89090909090908,52.12527472527473L48.32727272727273,50.435164835164834L44.76363636363636,49.23076923076923L41.199999999999996,47.676923076923075L37.636363636363626,46.95824175824176L34.072727272727285,46.624175824175815L30.509090909090922,46.03296703296703L26.945454545454556,45.44615384615385L23.38181818181819,45.573626373626375L19.818181818181824,45.03736263736264L16.25454545454546,44.78901098901099L12.690909090909095,44.55604395604396L9.12727272727273,44.12087912087912L5.563636363636365,43.40659340659341L2,42.646153846153844"></path></g></svg>