<svg meta="{&quot;DATA_PUBLISHED_DATE&quot;:&quot;2022-05-27&quot;,&quot;RENDER_DATE&quot;:&quot;2022-05-27&quot;,&quot;FIRST_DATE&quot;:&quot;2022-03-25&quot;,&quot;LAST_DATE&quot;:&quot;2022-05-19&quot;}" xmlns="http://www.w3.org/2000/svg" viewBox="0,0,200,100"><g transform="translate(0,0)"></g><g class="fg-bars tests-vaccines" fill="#00183f" stroke="none"><g><rect x="197" y="40.55" width="2" height="59.45" id="tests-vaccines-0"></rect></g><g><rect x="193.43636363636364" y="43.387" width="2" height="56.613" id="tests-vaccines-1"></rect></g><g><rect x="189.87272727272727" y="45.093" width="2" height="54.907" id="tests-vaccines-2"></rect></g><g><rect x="186.30909090909088" y="45.264" width="2" height="54.736" id="tests-vaccines-3"></rect></g><g><rect x="182.74545454545455" y="82.738" width="2" height="17.262" id="tests-vaccines-4"></rect></g><g><rect x="179.1818181818182" y="66.457" width="2" height="33.543000000000006" id="tests-vaccines-5"></rect></g><g><rect x="175.61818181818182" y="31.035999999999998" width="2" height="68.964" id="tests-vaccines-6"></rect></g><g><rect x="172.05454545454546" y="39.815999999999995" width="2" height="60.184000000000005" id="tests-vaccines-7"></rect></g><g><rect x="168.49090909090907" y="40.49700000000001" width="2" height="59.50299999999999" id="tests-vaccines-8"></rect></g><g><rect x="164.92727272727274" y="44.145999999999994" width="2" height="55.854000000000006" id="tests-vaccines-9"></rect></g><g><rect x="161.36363636363637" y="44.872" width="2" height="55.128" id="tests-vaccines-10"></rect></g><g><rect x="157.8" y="87.252" width="2" height="12.748000000000005" id="tests-vaccines-11"></rect></g><g><rect x="154.23636363636365" y="69.694" width="2" height="30.305999999999997" id="tests-vaccines-12"></rect></g><g><rect x="150.6727272727273" y="31.608999999999998" width="2" height="68.391" id="tests-vaccines-13"></rect></g><g><rect x="147.1090909090909" y="41.19199999999999" width="2" height="58.80800000000001" id="tests-vaccines-14"></rect></g><g><rect x="143.54545454545453" y="41.233" width="2" height="58.767" id="tests-vaccines-15"></rect></g><g><rect x="139.9818181818182" y="41.754000000000005" width="2" height="58.245999999999995" id="tests-vaccines-16"></rect></g><g><rect x="136.41818181818184" y="41.99699999999999" width="2" height="58.00300000000001" id="tests-vaccines-17"></rect></g><g><rect x="132.85454545454544" y="82.122" width="2" height="17.878" id="tests-vaccines-18"></rect></g><g><rect x="129.29090909090908" y="65.405" width="2" height="34.595" id="tests-vaccines-19"></rect></g><g><rect x="125.72727272727273" y="23.812" width="2" height="76.188" id="tests-vaccines-20"></rect></g><g><rect x="122.16363636363636" y="33.938" width="2" height="66.062" id="tests-vaccines-21"></rect></g><g><rect x="118.6" y="34.422" width="2" height="65.578" id="tests-vaccines-22"></rect></g><g><rect x="115.03636363636363" y="35.618" width="2" height="64.382" id="tests-vaccines-23"></rect></g><g><rect x="111.47272727272728" y="36.065000000000005" width="2" height="63.934999999999995" id="tests-vaccines-24"></rect></g><g><rect x="107.90909090909089" y="81.196" width="2" height="18.804000000000002" id="tests-vaccines-25"></rect></g><g><rect x="104.34545454545456" y="62.541000000000004" width="2" height="37.458999999999996" id="tests-vaccines-26"></rect></g><g><rect x="100.78181818181817" y="35.741" width="2" height="64.259" id="tests-vaccines-27"></rect></g><g><rect x="97.21818181818183" y="28.998" width="2" height="71.002" id="tests-vaccines-28"></rect></g><g><rect x="93.65454545454546" y="27.908" width="2" height="72.092" id="tests-vaccines-29"></rect></g><g><rect x="90.09090909090911" y="24.356" width="2" height="75.644" id="tests-vaccines-30"></rect></g><g><rect x="86.52727272727273" y="24.273999999999994" width="2" height="75.726" id="tests-vaccines-31"></rect></g><g><rect x="82.96363636363637" y="89.92599999999999" width="2" height="10.074000000000012" id="tests-vaccines-32"></rect></g><g><rect x="79.4" y="60.135000000000005" width="2" height="39.864999999999995" id="tests-vaccines-33"></rect></g><g><rect x="75.83636363636364" y="14.019000000000004" width="2" height="85.981" id="tests-vaccines-34"></rect></g><g><rect x="72.27272727272727" y="20.985" width="2" height="79.015" id="tests-vaccines-35"></rect></g><g><rect x="68.70909090909092" y="18.959000000000003" width="2" height="81.041" id="tests-vaccines-36"></rect></g><g><rect x="65.14545454545454" y="15.171000000000001" width="2" height="84.829" id="tests-vaccines-37"></rect></g><g><rect x="61.58181818181818" y="17.909" width="2" height="82.09100000000001" id="tests-vaccines-38"></rect></g><g><rect x="58.018181818181816" y="73.001" width="2" height="26.998999999999995" id="tests-vaccines-39"></rect></g><g><rect x="54.454545454545446" y="52.966" width="2" height="47.034" id="tests-vaccines-40"></rect></g><g><rect x="50.89090909090908" y="7.250999999999996" width="2" height="92.74900000000001" id="tests-vaccines-41"></rect></g><g><rect x="47.32727272727273" y="19.099" width="2" height="80.901" id="tests-vaccines-42"></rect></g><g><rect x="43.76363636363636" y="19.482999999999993" width="2" height="80.51700000000001" id="tests-vaccines-43"></rect></g><g><rect x="40.199999999999996" y="18.671000000000003" width="2" height="81.329" id="tests-vaccines-44"></rect></g><g><rect x="36.636363636363626" y="20.084999999999997" width="2" height="79.915" id="tests-vaccines-45"></rect></g><g><rect x="33.072727272727285" y="73.644" width="2" height="26.355999999999995" id="tests-vaccines-46"></rect></g><g><rect x="29.509090909090922" y="53.327999999999996" width="2" height="46.672000000000004" id="tests-vaccines-47"></rect></g><g><rect x="25.945454545454556" y="8.228999999999997" width="2" height="91.771" id="tests-vaccines-48"></rect></g><g><rect x="22.38181818181819" y="26.288999999999994" width="2" height="73.71100000000001" id="tests-vaccines-49"></rect></g><g><rect x="18.818181818181824" y="38.685" width="2" height="61.315" id="tests-vaccines-50"></rect></g><g><rect x="15.254545454545461" y="68.094" width="2" height="31.906000000000006" id="tests-vaccines-51"></rect></g><g><rect x="11.690909090909095" y="73.958" width="2" height="26.042" id="tests-vaccines-52"></rect></g><g><rect x="8.12727272727273" y="89.849" width="2" height="10.150999999999996" id="tests-vaccines-53"></rect></g><g><rect x="4.563636363636365" y="80.506" width="2" height="19.494" id="tests-vaccines-54"></rect></g><g><rect x="1" y="62.81099999999999" width="2" height="37.18900000000001" id="tests-vaccines-55"></rect></g></g><g class="fg-line tests-vaccines" fill="none" stroke="#92c5de" stroke-width="2" stroke-linecap="round"><path d="M198,50.64642857142857L194.43636363636364,50.54157142857143L190.87272727272727,50.12871428571428L187.30909090909088,49.99342857142858L183.74545454545455,49.937428571428576L180.1818181818182,50.58228571428571L176.61818181818182,51.044714285714285L173.05454545454546,51.126571428571424L169.49090909090907,51.323142857142855L165.92727272727274,51.428285714285714L162.36363636363637,51.086571428571425L158.8,50.67585714285714L155.23636363636365,49.943000000000005L151.6727272727273,49.330285714285715L148.1090909090909,48.21642857142857L144.54545454545453,47.18014285714286L140.9818181818182,46.207142857142856L137.41818181818184,45.33057142857143L133.85454545454544,44.48314285714285L130.29090909090908,44.350857142857144L126.72727272727273,43.94171428571428L123.16363636363636,45.645857142857146L119.6,44.94014285714285L116.03636363636363,44.00957142857143L112.47272727272728,42.40071428571428L108.90909090909089,40.71628571428572L105.34545454545456,41.96342857142857L101.78181818181817,41.61971428571428L98.21818181818183,38.516571428571424L94.65454545454546,37.371857142857145L91.09090909090911,36.093428571428575L87.52727272727273,34.781285714285715L83.96363636363637,33.872L80.4,31.454142857142852L76.83636363636364,30.43L73.27272727272727,29.463142857142856L69.70909090909092,29.19371428571429L66.14545454545454,29.268571428571434L62.58181818181818,29.768571428571434L59.018181818181816,30.07942857142857L55.454545454545446,30.171285714285712L51.89090909090908,30.223L48.32727272727273,30.362714285714286L44.76363636363636,31.389857142857146L41.199999999999996,34.133L37.636363636363626,41.19342857142857L34.072727272727285,48.88957142857143L30.509090909090922,51.20457142857142L26.945454545454556,55.08714285714286L23.38181818181819,62.88457142857142L19.818181818181824,69.25957142857142L16.25454545454546,73.71414285714286L12.690909090909095,74.0972857142857L9.12727272727273,73.30014285714286L5.563636363636365,73.08285714285714L2,72.41042857142857"></path></g></svg>