<svg meta="{&quot;DATA_PUBLISHED_DATE&quot;:&quot;2023-05-25&quot;,&quot;RENDER_DATE&quot;:&quot;2023-05-25&quot;,&quot;FIRST_DATE&quot;:&quot;2023-03-22&quot;,&quot;LAST_DATE&quot;:&quot;2023-05-16&quot;}" xmlns="http://www.w3.org/2000/svg" viewBox="0,0,200,100"><g transform="translate(0,0)"></g><g class="fg-bars cases-ep" fill="#00183f" stroke="none"><g><rect x="197" y="57.454545454545446" width="2" height="42.545454545454554" id="cases-ep-0"></rect></g><g><rect x="193.43636363636364" y="49" width="2" height="51" id="cases-ep-1"></rect></g><g><rect x="189.87272727272727" y="72.81818181818183" width="2" height="27.181818181818173" id="cases-ep-2"></rect></g><g><rect x="186.30909090909088" y="71.4090909090909" width="2" height="28.590909090909093" id="cases-ep-3"></rect></g><g><rect x="182.74545454545455" y="56.00000000000001" width="2" height="43.99999999999999" id="cases-ep-4"></rect></g><g><rect x="179.1818181818182" y="48.31818181818181" width="2" height="51.68181818181819" id="cases-ep-5"></rect></g><g><rect x="175.61818181818182" y="47.81818181818181" width="2" height="52.18181818181819" id="cases-ep-6"></rect></g><g><rect x="172.05454545454546" y="46.22727272727273" width="2" height="53.77272727272727" id="cases-ep-7"></rect></g><g><rect x="168.49090909090907" y="40.5" width="2" height="59.5" id="cases-ep-8"></rect></g><g><rect x="164.92727272727274" y="66.72727272727272" width="2" height="33.27272727272728" id="cases-ep-9"></rect></g><g><rect x="161.36363636363637" y="68.68181818181817" width="2" height="31.318181818181827" id="cases-ep-10"></rect></g><g><rect x="157.8" y="54.77272727272727" width="2" height="45.22727272727273" id="cases-ep-11"></rect></g><g><rect x="154.23636363636365" y="55.31818181818182" width="2" height="44.68181818181818" id="cases-ep-12"></rect></g><g><rect x="150.6727272727273" y="50.31818181818182" width="2" height="49.68181818181818" id="cases-ep-13"></rect></g><g><rect x="147.1090909090909" y="43.99999999999999" width="2" height="56.00000000000001" id="cases-ep-14"></rect></g><g><rect x="143.54545454545453" y="40.590909090909086" width="2" height="59.409090909090914" id="cases-ep-15"></rect></g><g><rect x="139.9818181818182" y="68" width="2" height="32" id="cases-ep-16"></rect></g><g><rect x="136.41818181818184" y="65.90909090909092" width="2" height="34.09090909090908" id="cases-ep-17"></rect></g><g><rect x="132.85454545454544" y="50.68181818181819" width="2" height="49.31818181818181" id="cases-ep-18"></rect></g><g><rect x="129.29090909090908" y="47" width="2" height="53" id="cases-ep-19"></rect></g><g><rect x="125.72727272727273" y="37.95454545454545" width="2" height="62.04545454545455" id="cases-ep-20"></rect></g><g><rect x="122.16363636363636" y="37.63636363636363" width="2" height="62.36363636363637" id="cases-ep-21"></rect></g><g><rect x="118.6" y="28.000000000000004" width="2" height="72" id="cases-ep-22"></rect></g><g><rect x="115.03636363636363" y="61.4090909090909" width="2" height="38.5909090909091" id="cases-ep-23"></rect></g><g><rect x="111.47272727272728" y="61.27272727272728" width="2" height="38.72727272727272" id="cases-ep-24"></rect></g><g><rect x="107.90909090909089" y="48.04545454545455" width="2" height="51.95454545454545" id="cases-ep-25"></rect></g><g><rect x="104.34545454545456" y="43.90909090909091" width="2" height="56.09090909090909" id="cases-ep-26"></rect></g><g><rect x="100.78181818181817" y="41.590909090909086" width="2" height="58.409090909090914" id="cases-ep-27"></rect></g><g><rect x="97.21818181818183" y="35.13636363636363" width="2" height="64.86363636363637" id="cases-ep-28"></rect></g><g><rect x="93.65454545454546" y="25.090909090909086" width="2" height="74.9090909090909" id="cases-ep-29"></rect></g><g><rect x="90.09090909090911" y="62.40909090909091" width="2" height="37.59090909090909" id="cases-ep-30"></rect></g><g><rect x="86.52727272727273" y="56.40909090909091" width="2" height="43.59090909090909" id="cases-ep-31"></rect></g><g><rect x="82.96363636363637" y="43.04545454545454" width="2" height="56.95454545454546" id="cases-ep-32"></rect></g><g><rect x="79.4" y="33.04545454545455" width="2" height="66.95454545454545" id="cases-ep-33"></rect></g><g><rect x="75.83636363636364" y="30.13636363636364" width="2" height="69.86363636363636" id="cases-ep-34"></rect></g><g><rect x="72.27272727272727" y="27.04545454545455" width="2" height="72.95454545454545" id="cases-ep-35"></rect></g><g><rect x="68.70909090909092" y="8.95454545454546" width="2" height="91.04545454545453" id="cases-ep-36"></rect></g><g><rect x="65.14545454545454" y="59.31818181818183" width="2" height="40.68181818181817" id="cases-ep-37"></rect></g><g><rect x="61.58181818181818" y="53.045454545454554" width="2" height="46.954545454545446" id="cases-ep-38"></rect></g><g><rect x="58.018181818181816" y="40.22727272727272" width="2" height="59.77272727272728" id="cases-ep-39"></rect></g><g><rect x="54.454545454545446" y="35.04545454545455" width="2" height="64.95454545454545" id="cases-ep-40"></rect></g><g><rect x="50.89090909090908" y="33.409090909090914" width="2" height="66.5909090909091" id="cases-ep-41"></rect></g><g><rect x="47.32727272727273" y="28.454545454545453" width="2" height="71.54545454545455" id="cases-ep-42"></rect></g><g><rect x="43.76363636363636" y="16.54545454545454" width="2" height="83.45454545454547" id="cases-ep-43"></rect></g><g><rect x="40.199999999999996" y="56.27272727272727" width="2" height="43.72727272727273" id="cases-ep-44"></rect></g><g><rect x="36.636363636363626" y="50.590909090909086" width="2" height="49.409090909090914" id="cases-ep-45"></rect></g><g><rect x="33.072727272727285" y="35.04545454545455" width="2" height="64.95454545454545" id="cases-ep-46"></rect></g><g><rect x="29.509090909090922" y="28.54545454545454" width="2" height="71.45454545454547" id="cases-ep-47"></rect></g><g><rect x="25.945454545454556" y="27.409090909090907" width="2" height="72.5909090909091" id="cases-ep-48"></rect></g><g><rect x="22.38181818181819" y="26.04545454545455" width="2" height="73.95454545454545" id="cases-ep-49"></rect></g><g><rect x="18.818181818181824" y="19.318181818181824" width="2" height="80.68181818181817" id="cases-ep-50"></rect></g><g><rect x="15.254545454545461" y="55.13636363636364" width="2" height="44.86363636363636" id="cases-ep-51"></rect></g><g><rect x="11.690909090909095" y="55.27272727272727" width="2" height="44.72727272727273" id="cases-ep-52"></rect></g><g><rect x="8.12727272727273" y="32.72727272727273" width="2" height="67.27272727272728" id="cases-ep-53"></rect></g><g><rect x="4.563636363636365" y="25.954545454545453" width="2" height="74.04545454545455" id="cases-ep-54"></rect></g><g><rect x="1" y="25.954545454545453" width="2" height="74.04545454545455" id="cases-ep-55"></rect></g></g><g class="fg-line cases-ep" fill="none" stroke="#92c5de" stroke-width="2" stroke-linecap="round"><path d="M198,57.54545454545455L194.43636363636364,55.941558441558435L190.87272727272727,54.727272727272734L187.30909090909088,53.85714285714286L183.74545454545455,53.467532467532465L180.1818181818182,53.292207792207776L176.61818181818182,54.29220779220779L173.05454545454546,54.64935064935066L169.49090909090907,54.33116883116884L165.92727272727274,54.344155844155836L162.36363636363637,54.52597402597404L158.8,54.12987012987014L155.23636363636365,53.54545454545454L151.6727272727273,52.35714285714286L148.1090909090909,50.590909090909086L144.54545454545453,49.68181818181818L140.9818181818182,47.883116883116884L137.41818181818184,46.94155844155844L133.85454545454544,46.27922077922078L130.29090909090908,45.9025974025974L126.72727272727273,45.46103896103896L123.16363636363636,45.98051948051949L119.6,45.62337662337662L116.03636363636363,45.20779220779221L112.47272727272728,45.350649350649356L108.90909090909089,44.65584415584415L105.34545454545456,43.94155844155845L101.78181818181817,42.3896103896104L98.21818181818183,40.75324675324675L94.65454545454546,39.5974025974026L91.09090909090911,37.29220779220779L87.52727272727273,36.850649350649356L83.96363636363637,36.370129870129865L80.4,35.96753246753246L76.83636363636364,36.253246753246756L73.27272727272727,36.72077922077922L69.70909090909092,36.922077922077925L66.14545454545454,38.00649350649351L62.58181818181818,37.57142857142858L59.018181818181816,37.22077922077922L55.454545454545446,36.48051948051948L51.89090909090908,35.551948051948045L48.32727272727273,34.69480519480519L44.76363636363636,34.350649350649356L41.199999999999996,34.74675324675324L37.636363636363626,34.58441558441558L34.072727272727285,35.253246753246756L30.509090909090922,34.92207792207792L26.945454545454556,34.55194805194806L23.38181818181819,34.34415584415584L19.818181818181824,33.19480519480519L16.25454545454546,31.16883116883117L12.690909090909095,30.376623376623368L9.12727272727273,28.54545454545454L5.563636363636365,26.331168831168828L2,23.95454545454545"></path></g></svg>