<svg meta="{&quot;DATA_PUBLISHED_DATE&quot;:&quot;2022-02-07&quot;,&quot;RENDER_DATE&quot;:&quot;2022-02-07&quot;,&quot;FIRST_DATE&quot;:&quot;2021-12-05&quot;,&quot;LAST_DATE&quot;:&quot;2022-01-29&quot;}" xmlns="http://www.w3.org/2000/svg" viewBox="0,0,200,100"><g transform="translate(0,0)"></g><g class="fg-bars cases-ep" fill="#00183f" stroke="none"><g><rect x="197" y="88.083125" width="2" height="11.916875000000005" id="cases-ep-0"></rect></g><g><rect x="193.43636363636364" y="76.724375" width="2" height="23.275625000000005" id="cases-ep-1"></rect></g><g><rect x="189.87272727272727" y="73.09625" width="2" height="26.903750000000002" id="cases-ep-2"></rect></g><g><rect x="186.30909090909088" y="68.003125" width="2" height="31.996875000000003" id="cases-ep-3"></rect></g><g><rect x="182.74545454545455" y="63.100625" width="2" height="36.899375" id="cases-ep-4"></rect></g><g><rect x="179.1818181818182" y="57.12375000000001" width="2" height="42.87624999999999" id="cases-ep-5"></rect></g><g><rect x="175.61818181818182" y="83.41437499999999" width="2" height="16.585625000000007" id="cases-ep-6"></rect></g><g><rect x="172.05454545454546" y="76.006875" width="2" height="23.993125000000006" id="cases-ep-7"></rect></g><g><rect x="168.49090909090907" y="52.72687499999999" width="2" height="47.27312500000001" id="cases-ep-8"></rect></g><g><rect x="164.92727272727274" y="44.361875" width="2" height="55.638125" id="cases-ep-9"></rect></g><g><rect x="161.36363636363637" y="38.135625" width="2" height="61.864375" id="cases-ep-10"></rect></g><g><rect x="157.8" y="26.363124999999997" width="2" height="73.636875" id="cases-ep-11"></rect></g><g><rect x="154.23636363636365" y="50.985625" width="2" height="49.014375" id="cases-ep-12"></rect></g><g><rect x="150.6727272727273" y="76.49000000000001" width="2" height="23.50999999999999" id="cases-ep-13"></rect></g><g><rect x="147.1090909090909" y="65.16875" width="2" height="34.83125" id="cases-ep-14"></rect></g><g><rect x="143.54545454545453" y="36.229375" width="2" height="63.770625" id="cases-ep-15"></rect></g><g><rect x="139.9818181818182" y="30.243750000000002" width="2" height="69.75625" id="cases-ep-16"></rect></g><g><rect x="136.41818181818184" y="23.888125000000006" width="2" height="76.111875" id="cases-ep-17"></rect></g><g><rect x="132.85454545454544" y="18.7125" width="2" height="81.2875" id="cases-ep-18"></rect></g><g><rect x="129.29090909090908" y="15.036249999999995" width="2" height="84.96375" id="cases-ep-19"></rect></g><g><rect x="125.72727272727273" y="67.05562499999999" width="2" height="32.94437500000001" id="cases-ep-20"></rect></g><g><rect x="122.16363636363636" y="54.039375" width="2" height="45.960625" id="cases-ep-21"></rect></g><g><rect x="118.6" y="18.10125" width="2" height="81.89875" id="cases-ep-22"></rect></g><g><rect x="115.03636363636363" y="13.472499999999998" width="2" height="86.5275" id="cases-ep-23"></rect></g><g><rect x="111.47272727272728" y="6.773750000000001" width="2" height="93.22625" id="cases-ep-24"></rect></g><g><rect x="107.90909090909089" y="5.549375000000001" width="2" height="94.450625" id="cases-ep-25"></rect></g><g><rect x="104.34545454545456" y="16.571250000000003" width="2" height="83.42875" id="cases-ep-26"></rect></g><g><rect x="100.78181818181817" y="66.603125" width="2" height="33.396874999999994" id="cases-ep-27"></rect></g><g><rect x="97.21818181818183" y="81.08125" width="2" height="18.918750000000003" id="cases-ep-28"></rect></g><g><rect x="93.65454545454546" y="67.486875" width="2" height="32.513125" id="cases-ep-29"></rect></g><g><rect x="90.09090909090911" y="47.815625" width="2" height="52.184375" id="cases-ep-30"></rect></g><g><rect x="86.52727272727273" y="45.45875" width="2" height="54.54125" id="cases-ep-31"></rect></g><g><rect x="82.96363636363637" y="46.10125000000001" width="2" height="53.89874999999999" id="cases-ep-32"></rect></g><g><rect x="79.4" y="54.349375" width="2" height="45.650625" id="cases-ep-33"></rect></g><g><rect x="75.83636363636364" y="78.615" width="2" height="21.385000000000005" id="cases-ep-34"></rect></g><g><rect x="72.27272727272727" y="91.37625" width="2" height="8.623750000000001" id="cases-ep-35"></rect></g><g><rect x="68.70909090909092" y="86.733125" width="2" height="13.266874999999999" id="cases-ep-36"></rect></g><g><rect x="65.14545454545454" y="80.265625" width="2" height="19.734375" id="cases-ep-37"></rect></g><g><rect x="61.58181818181818" y="80.56875" width="2" height="19.431250000000006" id="cases-ep-38"></rect></g><g><rect x="58.018181818181816" y="83.24875" width="2" height="16.75125" id="cases-ep-39"></rect></g><g><rect x="54.454545454545446" y="85.809375" width="2" height="14.190624999999997" id="cases-ep-40"></rect></g><g><rect x="50.89090909090908" y="93.43249999999999" width="2" height="6.56750000000001" id="cases-ep-41"></rect></g><g><rect x="47.32727272727273" y="94.00937499999999" width="2" height="5.9906250000000085" id="cases-ep-42"></rect></g><g><rect x="43.76363636363636" y="93.12125" width="2" height="6.878749999999997" id="cases-ep-43"></rect></g><g><rect x="40.199999999999996" y="93.678125" width="2" height="6.321875000000006" id="cases-ep-44"></rect></g><g><rect x="36.636363636363626" y="93.756875" width="2" height="6.243125000000006" id="cases-ep-45"></rect></g><g><rect x="33.072727272727285" y="94.82374999999999" width="2" height="5.17625000000001" id="cases-ep-46"></rect></g><g><rect x="29.509090909090922" y="94.47875" width="2" height="5.521249999999995" id="cases-ep-47"></rect></g><g><rect x="25.945454545454556" y="97.28125" width="2" height="2.71875" id="cases-ep-48"></rect></g><g><rect x="22.38181818181819" y="97.3625" width="2" height="2.637500000000003" id="cases-ep-49"></rect></g><g><rect x="18.818181818181824" y="96.395" width="2" height="3.605000000000004" id="cases-ep-50"></rect></g><g><rect x="15.254545454545461" y="96.405" width="2" height="3.594999999999999" id="cases-ep-51"></rect></g><g><rect x="11.690909090909095" y="95.94" width="2" height="4.060000000000002" id="cases-ep-52"></rect></g><g><rect x="8.12727272727273" y="95.91437499999999" width="2" height="4.085625000000007" id="cases-ep-53"></rect></g><g><rect x="4.563636363636365" y="95.35875" width="2" height="4.641249999999999" id="cases-ep-54"></rect></g><g><rect x="1" y="97.58312500000001" width="2" height="2.4168749999999903" id="cases-ep-55"></rect></g></g><g class="fg-line cases-ep" fill="none" stroke="#92c5de" stroke-width="2" stroke-linecap="round"><path d="M198,72.79223214285715L194.43636363636364,71.06705357142857L190.87272727272727,67.63883928571428L187.30909090909088,63.53392857142857L183.74545454545455,59.26714285714285L180.1818181818182,54.01892857142857L176.61818181818182,53.14205357142857L173.05454545454546,52.152857142857144L169.49090909090907,50.60455357142857L165.92727272727274,48.247767857142854L162.36363636363637,46.230892857142855L158.8,44.19553571428572L155.23636363636365,43.10258928571429L151.6727272727273,37.96696428571429L148.1090909090909,36.619196428571435L144.54545454545453,35.02928571428572L140.9818181818182,32.43955357142857L137.41818181818184,30.043660714285714L133.85454545454544,27.598750000000006L130.29090909090908,25.71830357142857L126.72727272727273,25.93758928571428L123.16363636363636,25.87294642857143L119.6,29.73607142857143L116.03636363636363,36.79116071428572L112.47272727272728,41.697321428571435L108.90909090909089,47.223749999999995L105.34545454545456,53.016875000000006L101.78181818181817,58.41375L98.21818181818183,60.12973214285714L94.65454545454546,61.60044642857143L91.09090909090911,64.34991071428571L87.52727272727273,68.985625L83.96363636363637,74.00133928571428L80.4,79.30812499999999L76.83636363636364,83.80241071428571L73.27272727272727,85.91919642857142L69.70909090909092,86.29535714285714L66.14545454545454,87.20794642857143L62.58181818181818,89.12401785714286L59.018181818181816,91.00803571428571L55.454545454545446,92.66160714285714L51.89090909090908,93.90008928571429L48.32727272727273,94.4499107142857L44.76363636363636,94.92892857142857L41.199999999999996,95.39660714285714L37.636363636363626,95.78616071428571L34.072727272727285,96.09803571428571L30.509090909090922,96.25383928571428L26.945454545454556,96.37955357142857L23.38181818181819,96.42267857142856L19.818181818181824,96.42723214285715L16.25454545454546,96.39294642857142L12.690909090909095,96.341875L9.12727272727273,96.251875L5.563636363636365,96.20303571428572L2,96.12625"></path></g></svg>