<svg meta="{&quot;DATA_PUBLISHED_DATE&quot;:&quot;2022-02-10&quot;,&quot;RENDER_DATE&quot;:&quot;2022-02-10&quot;,&quot;FIRST_DATE&quot;:&quot;2021-11-24&quot;,&quot;LAST_DATE&quot;:&quot;2022-01-18&quot;}" xmlns="http://www.w3.org/2000/svg" viewBox="0,0,200,100"><g transform="translate(0,0)"></g><g class="fg-bars death-date" fill="#00183f" stroke="none"><g><rect x="197" y="9.375" width="2" height="90.625" id="death-date-0"></rect></g><g><rect x="193.43636363636364" y="15.000000000000002" width="2" height="85" id="death-date-1"></rect></g><g><rect x="189.87272727272727" y="6.874999999999998" width="2" height="93.125" id="death-date-2"></rect></g><g><rect x="186.30909090909088" y="8.125000000000004" width="2" height="91.875" id="death-date-3"></rect></g><g><rect x="182.74545454545455" y="22.499999999999996" width="2" height="77.5" id="death-date-4"></rect></g><g><rect x="179.1818181818182" y="21.250000000000004" width="2" height="78.75" id="death-date-5"></rect></g><g><rect x="175.61818181818182" y="11.250000000000004" width="2" height="88.75" id="death-date-6"></rect></g><g><rect x="172.05454545454546" y="14.375000000000004" width="2" height="85.625" id="death-date-7"></rect></g><g><rect x="168.49090909090907" y="26.875000000000004" width="2" height="73.125" id="death-date-8"></rect></g><g><rect x="164.92727272727274" y="41.87499999999999" width="2" height="58.12500000000001" id="death-date-9"></rect></g><g><rect x="161.36363636363637" y="30.625000000000004" width="2" height="69.375" id="death-date-10"></rect></g><g><rect x="157.8" y="44.99999999999999" width="2" height="55.00000000000001" id="death-date-11"></rect></g><g><rect x="154.23636363636365" y="35" width="2" height="65" id="death-date-12"></rect></g><g><rect x="150.6727272727273" y="39.37500000000001" width="2" height="60.62499999999999" id="death-date-13"></rect></g><g><rect x="147.1090909090909" y="43.75" width="2" height="56.25" id="death-date-14"></rect></g><g><rect x="143.54545454545453" y="46.875" width="2" height="53.125" id="death-date-15"></rect></g><g><rect x="139.9818181818182" y="57.49999999999999" width="2" height="42.50000000000001" id="death-date-16"></rect></g><g><rect x="136.41818181818184" y="56.875" width="2" height="43.125" id="death-date-17"></rect></g><g><rect x="132.85454545454544" y="56.875" width="2" height="43.125" id="death-date-18"></rect></g><g><rect x="129.29090909090908" y="66.25" width="2" height="33.75" id="death-date-19"></rect></g><g><rect x="125.72727272727273" y="63.125" width="2" height="36.875" id="death-date-20"></rect></g><g><rect x="122.16363636363636" y="73.125" width="2" height="26.875" id="death-date-21"></rect></g><g><rect x="118.6" y="56.875" width="2" height="43.125" id="death-date-22"></rect></g><g><rect x="115.03636363636363" y="69.375" width="2" height="30.625" id="death-date-23"></rect></g><g><rect x="111.47272727272728" y="65.625" width="2" height="34.375" id="death-date-24"></rect></g><g><rect x="107.90909090909089" y="63.74999999999999" width="2" height="36.25000000000001" id="death-date-25"></rect></g><g><rect x="104.34545454545456" y="62.5" width="2" height="37.5" id="death-date-26"></rect></g><g><rect x="100.78181818181817" y="71.25" width="2" height="28.75" id="death-date-27"></rect></g><g><rect x="97.21818181818183" y="67.5" width="2" height="32.5" id="death-date-28"></rect></g><g><rect x="93.65454545454546" y="62.5" width="2" height="37.5" id="death-date-29"></rect></g><g><rect x="90.09090909090911" y="61.25000000000001" width="2" height="38.74999999999999" id="death-date-30"></rect></g><g><rect x="86.52727272727273" y="68.75" width="2" height="31.25" id="death-date-31"></rect></g><g><rect x="82.96363636363637" y="65.625" width="2" height="34.375" id="death-date-32"></rect></g><g><rect x="79.4" y="56.875" width="2" height="43.125" id="death-date-33"></rect></g><g><rect x="75.83636363636364" y="61.875" width="2" height="38.125" id="death-date-34"></rect></g><g><rect x="72.27272727272727" y="60" width="2" height="40" id="death-date-35"></rect></g><g><rect x="68.70909090909092" y="62.5" width="2" height="37.5" id="death-date-36"></rect></g><g><rect x="65.14545454545454" y="67.5" width="2" height="32.5" id="death-date-37"></rect></g><g><rect x="61.58181818181818" y="66.25" width="2" height="33.75" id="death-date-38"></rect></g><g><rect x="58.018181818181816" y="70" width="2" height="30" id="death-date-39"></rect></g><g><rect x="54.454545454545446" y="65.625" width="2" height="34.375" id="death-date-40"></rect></g><g><rect x="50.89090909090908" y="66.875" width="2" height="33.125" id="death-date-41"></rect></g><g><rect x="47.32727272727273" y="60.62499999999999" width="2" height="39.37500000000001" id="death-date-42"></rect></g><g><rect x="43.76363636363636" y="73.125" width="2" height="26.875" id="death-date-43"></rect></g><g><rect x="40.199999999999996" y="66.25" width="2" height="33.75" id="death-date-44"></rect></g><g><rect x="36.636363636363626" y="58.75" width="2" height="41.25" id="death-date-45"></rect></g><g><rect x="33.072727272727285" y="60.62499999999999" width="2" height="39.37500000000001" id="death-date-46"></rect></g><g><rect x="29.509090909090922" y="58.12500000000001" width="2" height="41.87499999999999" id="death-date-47"></rect></g><g><rect x="25.945454545454556" y="61.25000000000001" width="2" height="38.74999999999999" id="death-date-48"></rect></g><g><rect x="22.38181818181819" y="69.375" width="2" height="30.625" id="death-date-49"></rect></g><g><rect x="18.818181818181824" y="54.37499999999999" width="2" height="45.62500000000001" id="death-date-50"></rect></g><g><rect x="15.254545454545461" y="68.75" width="2" height="31.25" id="death-date-51"></rect></g><g><rect x="11.690909090909095" y="68.75" width="2" height="31.25" id="death-date-52"></rect></g><g><rect x="8.12727272727273" y="61.25000000000001" width="2" height="38.74999999999999" id="death-date-53"></rect></g><g><rect x="4.563636363636365" y="67.5" width="2" height="32.5" id="death-date-54"></rect></g><g><rect x="1" y="63.74999999999999" width="2" height="36.25000000000001" id="death-date-55"></rect></g></g><g class="fg-line death-date" fill="none" stroke="#92c5de" stroke-width="2" stroke-linecap="round"><path d="M198,13.482142857142865L194.43636363636364,14.196428571428577L190.87272727272727,15.892857142857132L187.30909090909088,20.892857142857146L183.74545454545455,24.10714285714286L180.1818181818182,27.321428571428562L176.61818181818182,29.285714285714292L173.05454545454546,33.30357142857143L169.49090909090907,37.5L165.92727272727274,40.35714285714286L162.36363636363637,42.58928571428571L158.8,46.339285714285715L155.23636363636365,48.03571428571429L151.6727272727273,52.5L148.1090909090909,55.892857142857146L144.54545454545453,60.08928571428571L140.9818181818182,61.517857142857146L137.41818181818184,63.21428571428571L133.85454545454544,64.46428571428572L130.29090909090908,65.44642857142857L126.72727272727273,64.91071428571429L123.16363636363636,66.07142857142857L119.6,65.26785714285714L116.03636363636363,66.07142857142857L112.47272727272728,64.91071428571429L108.90909090909089,65.35714285714286L105.34545454545456,65.625L101.78181818181817,64.82142857142857L98.21818181818183,63.482142857142854L94.65454545454546,62.410714285714285L91.09090909090911,62.410714285714285L87.52727272727273,63.30357142857142L83.96363636363637,62.94642857142857L80.4,63.57142857142857L76.83636363636364,64.82142857142857L73.27272727272727,65.53571428571429L69.70909090909092,65.625L66.14545454545454,67.14285714285715L62.58181818181818,66.96428571428572L59.018181818181816,65.89285714285714L55.454545454545446,64.55357142857143L51.89090909090908,63.482142857142854L48.32727272727273,62.67857142857143L44.76363636363636,63.92857142857142L41.199999999999996,61.25000000000001L37.636363636363626,61.60714285714286L34.072727272727285,63.035714285714285L30.509090909090922,63.125L26.945454545454556,64.46428571428572L23.38181818181819,64.82142857142857L19.818181818181824,62.857142857142854L16.25454545454546,63.39285714285714L12.690909090909095,61.69642857142858L9.12727272727273,60.357142857142854L5.563636363636365,58.75L2,57.41071428571429"></path></g></svg>