<svg about="DATA_PUBLISHED_DATE:2021-11-15,RENDER_DATE:2021-11-15" xmlns="http://www.w3.org/2000/svg" viewBox="0,0,200,100"><g transform="translate(0,0)"></g><g class="fg-bars cases-ep" fill="#00183f" stroke="none"><g><rect x="197" y="74.18181818181819" width="2" height="25.818181818181813" id="cases-ep-0"></rect></g><g><rect x="193.43636363636364" y="56.118181818181824" width="2" height="43.881818181818176" id="cases-ep-1"></rect></g><g><rect x="189.87272727272727" y="50.018181818181816" width="2" height="49.981818181818184" id="cases-ep-2"></rect></g><g><rect x="186.30909090909088" y="46.95454545454546" width="2" height="53.04545454545454" id="cases-ep-3"></rect></g><g><rect x="182.74545454545455" y="44.9" width="2" height="55.1" id="cases-ep-4"></rect></g><g><rect x="179.1818181818182" y="37.272727272727266" width="2" height="62.727272727272734" id="cases-ep-5"></rect></g><g><rect x="175.61818181818182" y="71.50909090909092" width="2" height="28.490909090909085" id="cases-ep-6"></rect></g><g><rect x="172.05454545454546" y="66.94545454545455" width="2" height="33.05454545454545" id="cases-ep-7"></rect></g><g><rect x="168.49090909090907" y="52.1" width="2" height="47.9" id="cases-ep-8"></rect></g><g><rect x="164.92727272727274" y="47.46363636363636" width="2" height="52.53636363636364" id="cases-ep-9"></rect></g><g><rect x="161.36363636363637" y="41.96363636363636" width="2" height="58.03636363636364" id="cases-ep-10"></rect></g><g><rect x="157.8" y="39.67272727272727" width="2" height="60.32727272727273" id="cases-ep-11"></rect></g><g><rect x="154.23636363636365" y="35.290909090909096" width="2" height="64.7090909090909" id="cases-ep-12"></rect></g><g><rect x="150.6727272727273" y="68.5" width="2" height="31.5" id="cases-ep-13"></rect></g><g><rect x="147.1090909090909" y="64.1909090909091" width="2" height="35.8090909090909" id="cases-ep-14"></rect></g><g><rect x="143.54545454545453" y="46.50909090909091" width="2" height="53.49090909090909" id="cases-ep-15"></rect></g><g><rect x="139.9818181818182" y="47.06363636363636" width="2" height="52.93636363636364" id="cases-ep-16"></rect></g><g><rect x="136.41818181818184" y="43.89999999999999" width="2" height="56.10000000000001" id="cases-ep-17"></rect></g><g><rect x="132.85454545454544" y="42.77272727272727" width="2" height="57.22727272727273" id="cases-ep-18"></rect></g><g><rect x="129.29090909090908" y="36.65454545454545" width="2" height="63.34545454545455" id="cases-ep-19"></rect></g><g><rect x="125.72727272727273" y="67.97272727272727" width="2" height="32.02727272727273" id="cases-ep-20"></rect></g><g><rect x="122.16363636363636" y="67.48181818181817" width="2" height="32.51818181818183" id="cases-ep-21"></rect></g><g><rect x="118.6" y="52.654545454545456" width="2" height="47.345454545454544" id="cases-ep-22"></rect></g><g><rect x="115.03636363636363" y="52.554545454545455" width="2" height="47.445454545454545" id="cases-ep-23"></rect></g><g><rect x="111.47272727272728" y="49.34545454545455" width="2" height="50.65454545454545" id="cases-ep-24"></rect></g><g><rect x="107.90909090909089" y="47.55454545454545" width="2" height="52.44545454545455" id="cases-ep-25"></rect></g><g><rect x="104.34545454545456" y="47.8909090909091" width="2" height="52.1090909090909" id="cases-ep-26"></rect></g><g><rect x="100.78181818181817" y="70.43636363636364" width="2" height="29.563636363636363" id="cases-ep-27"></rect></g><g><rect x="97.21818181818183" y="68.42727272727272" width="2" height="31.572727272727278" id="cases-ep-28"></rect></g><g><rect x="93.65454545454546" y="53.39090909090909" width="2" height="46.60909090909091" id="cases-ep-29"></rect></g><g><rect x="90.09090909090911" y="52.18181818181817" width="2" height="47.81818181818183" id="cases-ep-30"></rect></g><g><rect x="86.52727272727273" y="45.85454545454546" width="2" height="54.14545454545454" id="cases-ep-31"></rect></g><g><rect x="82.96363636363637" y="43.845454545454544" width="2" height="56.154545454545456" id="cases-ep-32"></rect></g><g><rect x="79.4" y="38.68181818181819" width="2" height="61.31818181818181" id="cases-ep-33"></rect></g><g><rect x="75.83636363636364" y="69.4909090909091" width="2" height="30.5090909090909" id="cases-ep-34"></rect></g><g><rect x="72.27272727272727" y="66.87272727272727" width="2" height="33.127272727272725" id="cases-ep-35"></rect></g><g><rect x="68.70909090909092" y="48.31818181818181" width="2" height="51.68181818181819" id="cases-ep-36"></rect></g><g><rect x="65.14545454545454" y="47.80909090909091" width="2" height="52.19090909090909" id="cases-ep-37"></rect></g><g><rect x="61.58181818181818" y="43.89090909090909" width="2" height="56.10909090909091" id="cases-ep-38"></rect></g><g><rect x="58.018181818181816" y="39.090909090909086" width="2" height="60.909090909090914" id="cases-ep-39"></rect></g><g><rect x="54.454545454545446" y="31.218181818181822" width="2" height="68.78181818181818" id="cases-ep-40"></rect></g><g><rect x="50.89090909090908" y="66.19999999999999" width="2" height="33.80000000000001" id="cases-ep-41"></rect></g><g><rect x="47.32727272727273" y="61.95454545454546" width="2" height="38.04545454545454" id="cases-ep-42"></rect></g><g><rect x="43.76363636363636" y="44.54545454545455" width="2" height="55.45454545454545" id="cases-ep-43"></rect></g><g><rect x="40.199999999999996" y="41.345454545454544" width="2" height="58.654545454545456" id="cases-ep-44"></rect></g><g><rect x="36.636363636363626" y="33.409090909090914" width="2" height="66.5909090909091" id="cases-ep-45"></rect></g><g><rect x="33.072727272727285" y="32.22727272727273" width="2" height="67.77272727272728" id="cases-ep-46"></rect></g><g><rect x="29.509090909090922" y="20.36363636363636" width="2" height="79.63636363636364" id="cases-ep-47"></rect></g><g><rect x="25.945454545454556" y="62.65454545454545" width="2" height="37.34545454545455" id="cases-ep-48"></rect></g><g><rect x="22.38181818181819" y="55.82727272727273" width="2" height="44.17272727272727" id="cases-ep-49"></rect></g><g><rect x="18.818181818181824" y="34.018181818181816" width="2" height="65.98181818181818" id="cases-ep-50"></rect></g><g><rect x="15.254545454545461" y="28.754545454545454" width="2" height="71.24545454545455" id="cases-ep-51"></rect></g><g><rect x="11.690909090909095" y="20.40909090909091" width="2" height="79.5909090909091" id="cases-ep-52"></rect></g><g><rect x="8.12727272727273" y="14.790909090909087" width="2" height="85.20909090909092" id="cases-ep-53"></rect></g><g><rect x="4.563636363636365" y="6.218181818181822" width="2" height="93.78181818181818" id="cases-ep-54"></rect></g><g><rect x="1" y="51.9" width="2" height="48.1" id="cases-ep-55"></rect></g></g><g class="fg-line cases-ep" fill="none" stroke="#92c5de" stroke-width="2" stroke-linecap="round"><path d="M198,54.42207792207792L194.43636363636364,53.38831168831169L190.87272727272727,52.81428571428572L187.30909090909088,52.449350649350656L183.74545454545455,51.736363636363635L180.1818181818182,50.989610389610384L176.61818181818182,50.7064935064935L173.05454545454546,50.27662337662338L169.49090909090907,49.883116883116884L165.92727272727274,49.08441558441559L162.36363636363637,49.02727272727273L158.8,49.30389610389611L155.23636363636365,49.74675324675324L151.6727272727273,49.94155844155844L148.1090909090909,49.86623376623377L144.54545454545453,50.336363636363636L140.9818181818182,51.214285714285715L137.41818181818184,51.9987012987013L133.85454545454544,52.77662337662338L130.29090909090908,53.45974025974025L126.72727272727273,55.064935064935064L123.16363636363636,55.41688311688312L119.6,55.55194805194805L116.03636363636363,55.65714285714286L112.47272727272728,55.60389610389611L108.90909090909089,55.1051948051948L105.34545454545456,54.57532467532468L101.78181818181817,53.259740259740255L98.21818181818183,53.124675324675316L94.65454545454546,52.90259740259741L91.09090909090911,52.17792207792208L87.52727272727273,51.55324675324675L83.96363636363637,51.272727272727266L80.4,50.59350649350649L76.83636363636364,49.52727272727273L73.27272727272727,49.057142857142864L69.70909090909092,48.35454545454545L66.14545454545454,47.81558441558441L62.58181818181818,46.892207792207785L59.018181818181816,45.3948051948052L55.454545454545446,44.41428571428572L51.89090909090908,42.86363636363636L48.32727272727273,42.35714285714286L44.76363636363636,41.481818181818184L41.199999999999996,39.97792207792208L37.636363636363626,38.17922077922078L34.072727272727285,36.32207792207792L30.509090909090922,33.83116883116883L26.945454545454556,31.81038961038961L23.38181818181819,30.274025974025975L19.818181818181824,28.550649350649348L16.25454545454546,25.980519480519483L12.690909090909095,23.02727272727273L9.12727272727273,19.82207792207792L5.563636363636365,16.003896103896096L2,20.831168831168824"></path></g></svg>