<svg meta="{&quot;DATA_PUBLISHED_DATE&quot;:&quot;2022-02-08&quot;,&quot;RENDER_DATE&quot;:&quot;2022-02-08&quot;,&quot;FIRST_DATE&quot;:&quot;2021-12-07&quot;,&quot;LAST_DATE&quot;:&quot;2022-01-31&quot;}" xmlns="http://www.w3.org/2000/svg" viewBox="0,0,200,100"><g transform="translate(0,0)"></g><g class="fg-bars tests-vaccines" fill="#00183f" stroke="none"><g><rect x="197" y="65.133" width="2" height="34.867000000000004" id="tests-vaccines-0"></rect></g><g><rect x="193.43636363636364" y="87.91066666666667" width="2" height="12.089333333333329" id="tests-vaccines-1"></rect></g><g><rect x="189.87272727272727" y="71.41133333333333" width="2" height="28.58866666666667" id="tests-vaccines-2"></rect></g><g><rect x="186.30909090909088" y="46.56" width="2" height="53.44" id="tests-vaccines-3"></rect></g><g><rect x="182.74545454545455" y="57.68066666666667" width="2" height="42.31933333333333" id="tests-vaccines-4"></rect></g><g><rect x="179.1818181818182" y="57.510666666666665" width="2" height="42.489333333333335" id="tests-vaccines-5"></rect></g><g><rect x="175.61818181818182" y="57.04366666666667" width="2" height="42.95633333333333" id="tests-vaccines-6"></rect></g><g><rect x="172.05454545454546" y="57.187333333333335" width="2" height="42.812666666666665" id="tests-vaccines-7"></rect></g><g><rect x="168.49090909090907" y="85.73466666666667" width="2" height="14.26533333333333" id="tests-vaccines-8"></rect></g><g><rect x="164.92727272727274" y="69.91833333333332" width="2" height="30.081666666666678" id="tests-vaccines-9"></rect></g><g><rect x="161.36363636363637" y="41.563" width="2" height="58.437" id="tests-vaccines-10"></rect></g><g><rect x="157.8" y="50.160000000000004" width="2" height="49.839999999999996" id="tests-vaccines-11"></rect></g><g><rect x="154.23636363636365" y="47.885999999999996" width="2" height="52.114000000000004" id="tests-vaccines-12"></rect></g><g><rect x="150.6727272727273" y="46.721666666666664" width="2" height="53.278333333333336" id="tests-vaccines-13"></rect></g><g><rect x="147.1090909090909" y="54.58033333333333" width="2" height="45.41966666666667" id="tests-vaccines-14"></rect></g><g><rect x="143.54545454545453" y="82.267" width="2" height="17.733000000000004" id="tests-vaccines-15"></rect></g><g><rect x="139.9818181818182" y="62.21266666666667" width="2" height="37.78733333333333" id="tests-vaccines-16"></rect></g><g><rect x="136.41818181818184" y="26.320333333333334" width="2" height="73.67966666666666" id="tests-vaccines-17"></rect></g><g><rect x="132.85454545454544" y="37.01233333333334" width="2" height="62.98766666666666" id="tests-vaccines-18"></rect></g><g><rect x="129.29090909090908" y="34.706" width="2" height="65.294" id="tests-vaccines-19"></rect></g><g><rect x="125.72727272727273" y="33.303000000000004" width="2" height="66.697" id="tests-vaccines-20"></rect></g><g><rect x="122.16363636363636" y="37.38333333333333" width="2" height="62.61666666666667" id="tests-vaccines-21"></rect></g><g><rect x="118.6" y="78.80066666666666" width="2" height="21.199333333333342" id="tests-vaccines-22"></rect></g><g><rect x="115.03636363636363" y="50.46900000000001" width="2" height="49.53099999999999" id="tests-vaccines-23"></rect></g><g><rect x="111.47272727272728" y="10.885" width="2" height="89.115" id="tests-vaccines-24"></rect></g><g><rect x="107.90909090909089" y="22.94466666666667" width="2" height="77.05533333333332" id="tests-vaccines-25"></rect></g><g><rect x="104.34545454545456" y="26.015" width="2" height="73.985" id="tests-vaccines-26"></rect></g><g><rect x="100.78181818181817" y="27.381999999999994" width="2" height="72.61800000000001" id="tests-vaccines-27"></rect></g><g><rect x="97.21818181818183" y="33.08433333333334" width="2" height="66.91566666666665" id="tests-vaccines-28"></rect></g><g><rect x="93.65454545454546" y="82.02733333333333" width="2" height="17.97266666666667" id="tests-vaccines-29"></rect></g><g><rect x="90.09090909090911" y="97.35366666666667" width="2" height="2.646333333333331" id="tests-vaccines-30"></rect></g><g><rect x="86.52727272727273" y="74.508" width="2" height="25.492000000000004" id="tests-vaccines-31"></rect></g><g><rect x="82.96363636363637" y="24.979666666666667" width="2" height="75.02033333333333" id="tests-vaccines-32"></rect></g><g><rect x="79.4" y="19.401999999999997" width="2" height="80.598" id="tests-vaccines-33"></rect></g><g><rect x="75.83636363636364" y="19.299333333333337" width="2" height="80.70066666666666" id="tests-vaccines-34"></rect></g><g><rect x="72.27272727272727" y="29.373666666666665" width="2" height="70.62633333333333" id="tests-vaccines-35"></rect></g><g><rect x="68.70909090909092" y="81.30333333333333" width="2" height="18.696666666666673" id="tests-vaccines-36"></rect></g><g><rect x="65.14545454545454" y="99.68933333333332" width="2" height="0.31066666666667686" id="tests-vaccines-37"></rect></g><g><rect x="61.58181818181818" y="84.68366666666667" width="2" height="15.316333333333333" id="tests-vaccines-38"></rect></g><g><rect x="58.018181818181816" y="27.15266666666667" width="2" height="72.84733333333332" id="tests-vaccines-39"></rect></g><g><rect x="54.454545454545446" y="14.068666666666662" width="2" height="85.93133333333334" id="tests-vaccines-40"></rect></g><g><rect x="50.89090909090908" y="11.573" width="2" height="88.42699999999999" id="tests-vaccines-41"></rect></g><g><rect x="47.32727272727273" y="17.43" width="2" height="82.57" id="tests-vaccines-42"></rect></g><g><rect x="43.76363636363636" y="75.75866666666667" width="2" height="24.24133333333333" id="tests-vaccines-43"></rect></g><g><rect x="40.199999999999996" y="51.89866666666667" width="2" height="48.10133333333333" id="tests-vaccines-44"></rect></g><g><rect x="36.636363636363626" y="12.600333333333335" width="2" height="87.39966666666666" id="tests-vaccines-45"></rect></g><g><rect x="33.072727272727285" y="23.371333333333332" width="2" height="76.62866666666667" id="tests-vaccines-46"></rect></g><g><rect x="29.509090909090922" y="21.531333333333336" width="2" height="78.46866666666666" id="tests-vaccines-47"></rect></g><g><rect x="25.945454545454556" y="23.513666666666666" width="2" height="76.48633333333333" id="tests-vaccines-48"></rect></g><g><rect x="22.38181818181819" y="26.931666666666665" width="2" height="73.06833333333333" id="tests-vaccines-49"></rect></g><g><rect x="18.818181818181824" y="76.12299999999999" width="2" height="23.87700000000001" id="tests-vaccines-50"></rect></g><g><rect x="15.254545454545461" y="45.84466666666667" width="2" height="54.15533333333333" id="tests-vaccines-51"></rect></g><g><rect x="11.690909090909095" y="5.300000000000004" width="2" height="94.69999999999999" id="tests-vaccines-52"></rect></g><g><rect x="8.12727272727273" y="14.81" width="2" height="85.19" id="tests-vaccines-53"></rect></g><g><rect x="4.563636363636365" y="11.990333333333336" width="2" height="88.00966666666666" id="tests-vaccines-54"></rect></g><g><rect x="1" y="12.211333333333329" width="2" height="87.78866666666667" id="tests-vaccines-55"></rect></g></g><g class="fg-line tests-vaccines" fill="none" stroke="#92c5de" stroke-width="2" stroke-linecap="round"><path d="M198,63.32142857142857L194.43636363636364,62.18633333333333L190.87272727272727,61.875476190476185L187.30909090909088,61.66219047619048L183.74545454545455,60.94833333333334L180.1818181818182,59.87395238095239L176.61818181818182,58.499L173.05454545454546,57.02442857142857L169.49090909090907,56.652L165.92727272727274,56.15661904761904L162.36363636363637,55.05580952380953L158.8,52.87828571428571L155.23636363636365,51.00004761904762L151.6727272727273,49.11719047619047L148.1090909090909,47.2002380952381L144.54545454545453,44.74352380952381L140.9818181818182,44.248333333333335L137.41818181818184,42.57066666666667L133.85454545454544,40.36561904761904L130.29090909090908,38.355952380952374L126.72727272727273,37.114380952380955L123.16363636363636,36.26852380952381L119.6,35.65438095238096L116.03636363636363,36.11533333333333L112.47272727272728,42.813142857142864L108.90909090909089,51.90214285714285L105.34545454545456,52.19285714285714L101.78181818181817,51.24814285714285L98.21818181818183,50.093476190476196L94.65454545454546,49.56338095238095L91.09090909090911,49.45995238095237L87.52727272727273,49.79361904761904L83.96363636363637,51.24728571428572L80.4,51.5577142857143L76.83636363636364,50.79580952380953L73.27272727272727,49.69204761904762L69.70909090909092,47.98580952380953L66.14545454545454,47.19371428571429L62.58181818181818,40.3664761904762L59.018181818181816,30.06885714285714L55.454545454545446,29.52866666666667L51.89090909090908,30.594761904761903L48.32727272727273,32.30057142857143L44.76363636363636,33.65795238095237L41.199999999999996,33.709999999999994L37.636363636363626,32.84514285714286L34.072727272727285,31.8022380952381L30.509090909090922,30.579190476190476L26.945454545454556,29.216190476190473L23.38181818181819,27.601571428571425L19.818181818181824,26.406333333333333L16.25454545454546,25.80428571428571L12.690909090909095,24.721000000000004L9.12727272727273,22.898333333333333L5.563636363636365,21.544857142857143L2,20.914857142857134"></path></g></svg>