<svg viewBox="0,0,200,100"><g transform="translate(0,0)"></g><g class="fg-bars cases-ep"><g><rect x="197" y="49.05555555555555" width="2" height="50.94444444444445" id="cases-ep-0"></rect></g><g><rect x="193.43636363636364" y="42.36666666666666" width="2" height="57.63333333333334" id="cases-ep-1"></rect></g><g><rect x="189.87272727272727" y="36.138888888888886" width="2" height="63.861111111111114" id="cases-ep-2"></rect></g><g><rect x="186.30909090909088" y="67.96111111111112" width="2" height="32.03888888888888" id="cases-ep-3"></rect></g><g><rect x="182.74545454545455" y="73.43333333333332" width="2" height="26.566666666666677" id="cases-ep-4"></rect></g><g><rect x="179.1818181818182" y="65.08333333333334" width="2" height="34.91666666666666" id="cases-ep-5"></rect></g><g><rect x="175.61818181818182" y="48.144444444444446" width="2" height="51.855555555555554" id="cases-ep-6"></rect></g><g><rect x="172.05454545454546" y="41.961111111111116" width="2" height="58.038888888888884" id="cases-ep-7"></rect></g><g><rect x="168.49090909090907" y="32.3" width="2" height="67.7" id="cases-ep-8"></rect></g><g><rect x="164.92727272727274" y="33.23888888888889" width="2" height="66.76111111111112" id="cases-ep-9"></rect></g><g><rect x="161.36363636363637" y="28.327777777777776" width="2" height="71.67222222222222" id="cases-ep-10"></rect></g><g><rect x="157.8" y="65.01666666666667" width="2" height="34.983333333333334" id="cases-ep-11"></rect></g><g><rect x="154.23636363636365" y="57.92222222222223" width="2" height="42.07777777777777" id="cases-ep-12"></rect></g><g><rect x="150.6727272727273" y="38.61666666666667" width="2" height="61.38333333333333" id="cases-ep-13"></rect></g><g><rect x="147.1090909090909" y="31.944444444444443" width="2" height="68.05555555555556" id="cases-ep-14"></rect></g><g><rect x="143.54545454545453" y="25.63333333333333" width="2" height="74.36666666666667" id="cases-ep-15"></rect></g><g><rect x="139.9818181818182" y="23.605555555555558" width="2" height="76.39444444444445" id="cases-ep-16"></rect></g><g><rect x="136.41818181818184" y="16.17222222222222" width="2" height="83.82777777777778" id="cases-ep-17"></rect></g><g><rect x="132.85454545454544" y="59.233333333333334" width="2" height="40.766666666666666" id="cases-ep-18"></rect></g><g><rect x="129.29090909090908" y="51.41111111111112" width="2" height="48.58888888888888" id="cases-ep-19"></rect></g><g><rect x="125.72727272727273" y="26.811111111111106" width="2" height="73.1888888888889" id="cases-ep-20"></rect></g><g><rect x="122.16363636363636" y="23.783333333333335" width="2" height="76.21666666666667" id="cases-ep-21"></rect></g><g><rect x="118.6" y="17.349999999999998" width="2" height="82.65" id="cases-ep-22"></rect></g><g><rect x="115.03636363636363" y="15.488888888888885" width="2" height="84.51111111111112" id="cases-ep-23"></rect></g><g><rect x="111.47272727272728" y="12.038888888888888" width="2" height="87.96111111111111" id="cases-ep-24"></rect></g><g><rect x="107.90909090909089" y="55.338888888888896" width="2" height="44.661111111111104" id="cases-ep-25"></rect></g><g><rect x="104.34545454545456" y="47.31666666666666" width="2" height="52.68333333333334" id="cases-ep-26"></rect></g><g><rect x="100.78181818181817" y="24.2" width="2" height="75.8" id="cases-ep-27"></rect></g><g><rect x="97.21818181818183" y="19.41111111111111" width="2" height="80.58888888888889" id="cases-ep-28"></rect></g><g><rect x="93.65454545454546" y="14.933333333333332" width="2" height="85.06666666666666" id="cases-ep-29"></rect></g><g><rect x="90.09090909090911" y="11.011111111111116" width="2" height="88.98888888888888" id="cases-ep-30"></rect></g><g><rect x="86.52727272727273" y="10.566666666666668" width="2" height="89.43333333333334" id="cases-ep-31"></rect></g><g><rect x="82.96363636363637" y="52.60555555555555" width="2" height="47.39444444444445" id="cases-ep-32"></rect></g><g><rect x="79.4" y="47" width="2" height="53" id="cases-ep-33"></rect></g><g><rect x="75.83636363636364" y="29.17777777777778" width="2" height="70.82222222222222" id="cases-ep-34"></rect></g><g><rect x="72.27272727272727" y="23.89444444444444" width="2" height="76.10555555555555" id="cases-ep-35"></rect></g><g><rect x="68.70909090909092" y="22.62222222222222" width="2" height="77.37777777777778" id="cases-ep-36"></rect></g><g><rect x="65.14545454545454" y="20.85555555555556" width="2" height="79.14444444444445" id="cases-ep-37"></rect></g><g><rect x="61.58181818181818" y="22.705555555555556" width="2" height="77.29444444444445" id="cases-ep-38"></rect></g><g><rect x="58.018181818181816" y="53.511111111111106" width="2" height="46.488888888888894" id="cases-ep-39"></rect></g><g><rect x="54.454545454545446" y="53.283333333333324" width="2" height="46.716666666666676" id="cases-ep-40"></rect></g><g><rect x="50.89090909090908" y="38.92777777777777" width="2" height="61.07222222222223" id="cases-ep-41"></rect></g><g><rect x="47.32727272727273" y="35.205555555555556" width="2" height="64.79444444444445" id="cases-ep-42"></rect></g><g><rect x="43.76363636363636" y="34.78888888888889" width="2" height="65.21111111111111" id="cases-ep-43"></rect></g><g><rect x="40.199999999999996" y="38.088888888888896" width="2" height="61.911111111111104" id="cases-ep-44"></rect></g><g><rect x="36.636363636363626" y="35.36111111111111" width="2" height="64.63888888888889" id="cases-ep-45"></rect></g><g><rect x="33.072727272727285" y="64.70555555555555" width="2" height="35.29444444444445" id="cases-ep-46"></rect></g><g><rect x="29.509090909090922" y="62.83333333333334" width="2" height="37.16666666666666" id="cases-ep-47"></rect></g><g><rect x="25.945454545454556" y="55.48333333333333" width="2" height="44.51666666666667" id="cases-ep-48"></rect></g><g><rect x="22.38181818181819" y="54.2" width="2" height="45.8" id="cases-ep-49"></rect></g><g><rect x="18.818181818181824" y="51.6888888888889" width="2" height="48.3111111111111" id="cases-ep-50"></rect></g><g><rect x="15.254545454545461" y="54.07777777777778" width="2" height="45.92222222222222" id="cases-ep-51"></rect></g><g><rect x="11.690909090909095" y="53.82777777777778" width="2" height="46.17222222222222" id="cases-ep-52"></rect></g><g><rect x="8.12727272727273" y="73.6888888888889" width="2" height="26.311111111111103" id="cases-ep-53"></rect></g><g><rect x="4.563636363636365" y="74.32222222222222" width="2" height="25.677777777777777" id="cases-ep-54"></rect></g><g><rect x="1" y="67.11111111111111" width="2" height="32.888888888888886" id="cases-ep-55"></rect></g></g><g class="fg-line cases-ep"><path stroke-linecap="round" d="M198,54.59761904761904L194.43636363636364,53.58412698412698L190.87272727272727,52.14603174603174L187.30909090909088,51.73174603174604L183.74545454545455,46.06984126984127L180.1818181818182,44.86746031746031L176.61818181818182,43.84444444444444L173.05454545454546,42.48333333333333L169.49090909090907,41.05238095238095L165.92727272727274,40.1L162.36363636363637,38.723809523809514L158.8,36.98730158730159L155.23636363636365,36.16111111111111L151.6727272727273,35.23095238095239L148.1090909090909,33.544444444444444L144.54545454545453,32.378571428571426L140.9818181818182,31.195238095238096L137.41818181818184,30.035714285714278L133.85454545454544,29.44523809523809L130.29090909090908,28.888888888888886L126.72727272727273,28.303968253968257L123.16363636363636,27.93095238095239L119.6,27.3063492063492L116.03636363636363,26.961111111111112L112.47272727272728,26.321428571428573L108.90909090909089,26.111111111111107L105.34545454545456,25.72063492063492L101.78181818181817,25.675396825396835L98.21818181818183,26.38650793650794L94.65454545454546,27.026984126984132L91.09090909090911,28.12539682539683L87.52727272727273,29.53174603174603L83.96363636363637,31.265873015873012L80.4,31.3952380952381L76.83636363636364,32.292857142857144L73.27272727272727,33.68571428571428L69.70909090909092,35.301587301587304L66.14545454545454,37.03968253968254L62.58181818181818,39.50158730158731L59.018181818181816,41.30952380952381L55.454545454545446,42.908730158730165L51.89090909090908,44.27301587301587L48.32727272727273,46.63809523809523L44.76363636363636,49.351587301587294L41.199999999999996,51.76587301587301L37.636363636363626,54.05L34.072727272727285,56.68809523809524L30.509090909090922,57.971428571428575L26.945454545454556,59.612698412698414L23.38181818181819,61.27380952380952L19.818181818181824,63.20714285714286L16.25454545454546,65.73095238095237L12.690909090909095,68.05714285714286L9.12727272727273,70.43095238095238L5.563636363636365,71.72936507936508L2,72.93095238095238"></path></g></svg>