<svg about="DATA_PUBLISHED_DATE:2021-12-24,RENDER_DATE:2021-12-24" xmlns="http://www.w3.org/2000/svg" viewBox="0,0,200,100"><g transform="translate(0,0)"></g><g class="fg-bars tests-vaccines" fill="#00183f" stroke="none"><g><rect x="197" y="37.22257142857143" width="2" height="62.77742857142857" id="tests-vaccines-0"></rect></g><g><rect x="193.43636363636364" y="35.48428571428571" width="2" height="64.5157142857143" id="tests-vaccines-1"></rect></g><g><rect x="189.87272727272727" y="37.07857142857143" width="2" height="62.92142857142857" id="tests-vaccines-2"></rect></g><g><rect x="186.30909090909088" y="39.76257142857143" width="2" height="60.23742857142857" id="tests-vaccines-3"></rect></g><g><rect x="182.74545454545455" y="81.04571428571428" width="2" height="18.954285714285717" id="tests-vaccines-4"></rect></g><g><rect x="179.1818181818182" y="55.31085714285715" width="2" height="44.68914285714285" id="tests-vaccines-5"></rect></g><g><rect x="175.61818181818182" y="21.14514285714286" width="2" height="78.85485714285714" id="tests-vaccines-6"></rect></g><g><rect x="172.05454545454546" y="28.645142857142858" width="2" height="71.35485714285714" id="tests-vaccines-7"></rect></g><g><rect x="168.49090909090907" y="26.496" width="2" height="73.504" id="tests-vaccines-8"></rect></g><g><rect x="164.92727272727274" y="26.217999999999996" width="2" height="73.78200000000001" id="tests-vaccines-9"></rect></g><g><rect x="161.36363636363637" y="31.756571428571434" width="2" height="68.24342857142857" id="tests-vaccines-10"></rect></g><g><rect x="157.8" y="76.99542857142858" width="2" height="23.004571428571424" id="tests-vaccines-11"></rect></g><g><rect x="154.23636363636365" y="48.64657142857143" width="2" height="51.35342857142857" id="tests-vaccines-12"></rect></g><g><rect x="150.6727272727273" y="10.237428571428575" width="2" height="89.76257142857142" id="tests-vaccines-13"></rect></g><g><rect x="147.1090909090909" y="20.680285714285716" width="2" height="79.31971428571428" id="tests-vaccines-14"></rect></g><g><rect x="143.54545454545453" y="22.411142857142853" width="2" height="77.58885714285715" id="tests-vaccines-15"></rect></g><g><rect x="139.9818181818182" y="30.18371428571428" width="2" height="69.81628571428573" id="tests-vaccines-16"></rect></g><g><rect x="136.41818181818184" y="39.418" width="2" height="60.582" id="tests-vaccines-17"></rect></g><g><rect x="132.85454545454544" y="81.64685714285714" width="2" height="18.353142857142856" id="tests-vaccines-18"></rect></g><g><rect x="129.29090909090908" y="67.452" width="2" height="32.548" id="tests-vaccines-19"></rect></g><g><rect x="125.72727272727273" y="56.48914285714286" width="2" height="43.51085714285714" id="tests-vaccines-20"></rect></g><g><rect x="122.16363636363636" y="98.59714285714286" width="2" height="1.402857142857144" id="tests-vaccines-21"></rect></g><g><rect x="118.6" y="41.59914285714286" width="2" height="58.40085714285714" id="tests-vaccines-22"></rect></g><g><rect x="115.03636363636363" y="30.549142857142854" width="2" height="69.45085714285715" id="tests-vaccines-23"></rect></g><g><rect x="111.47272727272728" y="33.916000000000004" width="2" height="66.084" id="tests-vaccines-24"></rect></g><g><rect x="107.90909090909089" y="79.20971428571428" width="2" height="20.790285714285716" id="tests-vaccines-25"></rect></g><g><rect x="104.34545454545456" y="55.14857142857144" width="2" height="44.85142857142856" id="tests-vaccines-26"></rect></g><g><rect x="100.78181818181817" y="23.21914285714286" width="2" height="76.78085714285714" id="tests-vaccines-27"></rect></g><g><rect x="97.21818181818183" y="35.242285714285714" width="2" height="64.75771428571429" id="tests-vaccines-28"></rect></g><g><rect x="93.65454545454546" y="33.99342857142857" width="2" height="66.00657142857142" id="tests-vaccines-29"></rect></g><g><rect x="90.09090909090911" y="35.42057142857142" width="2" height="64.57942857142858" id="tests-vaccines-30"></rect></g><g><rect x="86.52727272727273" y="41.16028571428571" width="2" height="58.83971428571429" id="tests-vaccines-31"></rect></g><g><rect x="82.96363636363637" y="79.61114285714285" width="2" height="20.388857142857148" id="tests-vaccines-32"></rect></g><g><rect x="79.4" y="57.40142857142857" width="2" height="42.59857142857143" id="tests-vaccines-33"></rect></g><g><rect x="75.83636363636364" y="25.852571428571423" width="2" height="74.14742857142858" id="tests-vaccines-34"></rect></g><g><rect x="72.27272727272727" y="37.92171428571428" width="2" height="62.07828571428572" id="tests-vaccines-35"></rect></g><g><rect x="68.70909090909092" y="35.40971428571429" width="2" height="64.59028571428571" id="tests-vaccines-36"></rect></g><g><rect x="65.14545454545454" y="37.80428571428571" width="2" height="62.19571428571429" id="tests-vaccines-37"></rect></g><g><rect x="61.58181818181818" y="42.80457142857143" width="2" height="57.19542857142857" id="tests-vaccines-38"></rect></g><g><rect x="58.018181818181816" y="80.67628571428571" width="2" height="19.32371428571429" id="tests-vaccines-39"></rect></g><g><rect x="54.454545454545446" y="63.3" width="2" height="36.7" id="tests-vaccines-40"></rect></g><g><rect x="50.89090909090908" y="30.44228571428571" width="2" height="69.5577142857143" id="tests-vaccines-41"></rect></g><g><rect x="47.32727272727273" y="43.336" width="2" height="56.664" id="tests-vaccines-42"></rect></g><g><rect x="43.76363636363636" y="45.856857142857145" width="2" height="54.143142857142855" id="tests-vaccines-43"></rect></g><g><rect x="40.199999999999996" y="45.75571428571429" width="2" height="54.24428571428571" id="tests-vaccines-44"></rect></g><g><rect x="36.636363636363626" y="49.063142857142864" width="2" height="50.936857142857136" id="tests-vaccines-45"></rect></g><g><rect x="33.072727272727285" y="85.48599999999999" width="2" height="14.51400000000001" id="tests-vaccines-46"></rect></g><g><rect x="29.509090909090922" y="70.46628571428572" width="2" height="29.533714285714282" id="tests-vaccines-47"></rect></g><g><rect x="25.945454545454556" y="37.470000000000006" width="2" height="62.529999999999994" id="tests-vaccines-48"></rect></g><g><rect x="22.38181818181819" y="47.92228571428572" width="2" height="52.07771428571428" id="tests-vaccines-49"></rect></g><g><rect x="18.818181818181824" y="47.84171428571429" width="2" height="52.15828571428571" id="tests-vaccines-50"></rect></g><g><rect x="15.254545454545461" y="48.41" width="2" height="51.59" id="tests-vaccines-51"></rect></g><g><rect x="11.690909090909095" y="53.307142857142864" width="2" height="46.692857142857136" id="tests-vaccines-52"></rect></g><g><rect x="8.12727272727273" y="86.4242857142857" width="2" height="13.575714285714298" id="tests-vaccines-53"></rect></g><g><rect x="4.563636363636365" y="73.48171428571429" width="2" height="26.51828571428571" id="tests-vaccines-54"></rect></g><g><rect x="1" y="53.447714285714284" width="2" height="46.552285714285716" id="tests-vaccines-55"></rect></g></g><g class="fg-line tests-vaccines" fill="none" stroke="#92c5de" stroke-width="2" stroke-linecap="round"><path d="M198,43.86424489795918L194.43636363636364,42.63889795918367L190.87272727272727,41.354857142857135L187.30909090909088,39.803346938775505L183.74545454545455,38.65963265306122L180.1818181818182,38.081020408163255L176.61818181818182,37.12897959183674L173.05454545454546,35.57073469387755L169.49090909090907,34.43289795918367L165.92727272727274,33.84934693877552L162.36363636363637,34.4158775510204L158.8,35.51036734693878L155.23636363636365,36.17485714285714L151.6727272727273,38.86134693877551L148.1090909090909,45.46873469387754L144.54545454545453,56.599714285714285L140.9818181818182,59.34085714285715L137.41818181818184,59.3930612244898L133.85454545454544,58.6070612244898L130.29090909090908,58.25889795918368L126.72727272727273,56.50126530612245L123.16363636363636,51.74840816326531L119.6,42.697714285714284L116.03636363636363,41.611183673469384L112.47272727272728,42.307102040816325L108.90909090909089,43.342000000000006L105.34545454545456,43.39934693877551L101.78181818181817,43.72118367346939L98.21818181818183,44.097387755102034L94.65454545454546,44.48016326530612L91.09090909090911,44.682489795918364L87.52727272727273,45.02302040816326L83.96363636363637,45.25791836734694L80.4,45.41008163265307L76.83636363636364,46.25273469387755L73.27272727272727,46.908408163265314L69.70909090909092,47.6818775510204L66.14545454545454,49.17432653061225L62.58181818181818,50.31024489795918L59.018181818181816,51.20432653061224L55.454545454545446,51.89142857142856L51.89090909090908,52.91518367346939L48.32727272727273,53.91914285714285L44.76363636363636,54.57432653061225L41.199999999999996,54.85787755102041L37.636363636363626,55.23706122448979L34.072727272727285,55.843346938775504L30.509090909090922,55.977387755102036L26.945454545454556,56.40816326530612L23.38181818181819,58.69069387755101L19.818181818181824,62.18065306122449L16.25454545454546,65.83375510204081L12.690909090909095,69.28779591836735L9.12727272727273,71.87542857142857L5.563636363636365,72.56371428571428L2,73.93946938775511"></path></g></svg>