<svg viewBox="0,0,200,100"><g transform="translate(0,0)"></g><g class="fg-bars death-date"><g><rect x="197" y="5.833333333333335" width="2" height="94.16666666666667" id="death-date-0"></rect></g><g><rect x="193.43636363636364" y="15.833333333333332" width="2" height="84.16666666666667" id="death-date-1"></rect></g><g><rect x="189.87272727272727" y="15.000000000000002" width="2" height="85" id="death-date-2"></rect></g><g><rect x="186.30909090909088" y="17.500000000000004" width="2" height="82.5" id="death-date-3"></rect></g><g><rect x="182.74545454545455" y="13.33333333333333" width="2" height="86.66666666666667" id="death-date-4"></rect></g><g><rect x="179.1818181818182" y="30.000000000000004" width="2" height="70" id="death-date-5"></rect></g><g><rect x="175.61818181818182" y="25.83333333333333" width="2" height="74.16666666666667" id="death-date-6"></rect></g><g><rect x="172.05454545454546" y="25" width="2" height="75" id="death-date-7"></rect></g><g><rect x="168.49090909090907" y="28.333333333333332" width="2" height="71.66666666666667" id="death-date-8"></rect></g><g><rect x="164.92727272727274" y="25" width="2" height="75" id="death-date-9"></rect></g><g><rect x="161.36363636363637" y="31.666666666666664" width="2" height="68.33333333333334" id="death-date-10"></rect></g><g><rect x="157.8" y="13.33333333333333" width="2" height="86.66666666666667" id="death-date-11"></rect></g><g><rect x="154.23636363636365" y="13.33333333333333" width="2" height="86.66666666666667" id="death-date-12"></rect></g><g><rect x="150.6727272727273" y="40" width="2" height="60" id="death-date-13"></rect></g><g><rect x="147.1090909090909" y="40.833333333333336" width="2" height="59.166666666666664" id="death-date-14"></rect></g><g><rect x="143.54545454545453" y="10.833333333333329" width="2" height="89.16666666666667" id="death-date-15"></rect></g><g><rect x="139.9818181818182" y="42.50000000000001" width="2" height="57.49999999999999" id="death-date-16"></rect></g><g><rect x="136.41818181818184" y="43.333333333333336" width="2" height="56.666666666666664" id="death-date-17"></rect></g><g><rect x="132.85454545454544" y="41.666666666666664" width="2" height="58.333333333333336" id="death-date-18"></rect></g><g><rect x="129.29090909090908" y="44.166666666666664" width="2" height="55.833333333333336" id="death-date-19"></rect></g><g><rect x="125.72727272727273" y="41.666666666666664" width="2" height="58.333333333333336" id="death-date-20"></rect></g><g><rect x="122.16363636363636" y="55.00000000000001" width="2" height="44.99999999999999" id="death-date-21"></rect></g><g><rect x="118.6" y="53.333333333333336" width="2" height="46.666666666666664" id="death-date-22"></rect></g><g><rect x="115.03636363636363" y="62.5" width="2" height="37.5" id="death-date-23"></rect></g><g><rect x="111.47272727272728" y="63.33333333333333" width="2" height="36.66666666666667" id="death-date-24"></rect></g><g><rect x="107.90909090909089" y="58.33333333333333" width="2" height="41.66666666666667" id="death-date-25"></rect></g><g><rect x="104.34545454545456" y="57.49999999999999" width="2" height="42.50000000000001" id="death-date-26"></rect></g><g><rect x="100.78181818181817" y="73.33333333333334" width="2" height="26.666666666666657" id="death-date-27"></rect></g><g><rect x="97.21818181818183" y="60.83333333333334" width="2" height="39.16666666666666" id="death-date-28"></rect></g><g><rect x="93.65454545454546" y="79.16666666666666" width="2" height="20.833333333333343" id="death-date-29"></rect></g><g><rect x="90.09090909090911" y="71.66666666666667" width="2" height="28.33333333333333" id="death-date-30"></rect></g><g><rect x="86.52727272727273" y="73.33333333333334" width="2" height="26.666666666666657" id="death-date-31"></rect></g><g><rect x="82.96363636363637" y="73.33333333333334" width="2" height="26.666666666666657" id="death-date-32"></rect></g><g><rect x="79.4" y="78.33333333333333" width="2" height="21.66666666666667" id="death-date-33"></rect></g><g><rect x="75.83636363636364" y="77.5" width="2" height="22.5" id="death-date-34"></rect></g><g><rect x="72.27272727272727" y="81.66666666666667" width="2" height="18.33333333333333" id="death-date-35"></rect></g><g><rect x="68.70909090909092" y="70.83333333333333" width="2" height="29.16666666666667" id="death-date-36"></rect></g><g><rect x="65.14545454545454" y="76.66666666666666" width="2" height="23.333333333333343" id="death-date-37"></rect></g><g><rect x="61.58181818181818" y="82.5" width="2" height="17.5" id="death-date-38"></rect></g><g><rect x="58.018181818181816" y="79.16666666666666" width="2" height="20.833333333333343" id="death-date-39"></rect></g><g><rect x="54.454545454545446" y="80" width="2" height="20" id="death-date-40"></rect></g><g><rect x="50.89090909090908" y="90.83333333333333" width="2" height="9.166666666666671" id="death-date-41"></rect></g><g><rect x="47.32727272727273" y="81.66666666666667" width="2" height="18.33333333333333" id="death-date-42"></rect></g><g><rect x="43.76363636363636" y="85.83333333333334" width="2" height="14.166666666666657" id="death-date-43"></rect></g><g><rect x="40.199999999999996" y="80.83333333333333" width="2" height="19.16666666666667" id="death-date-44"></rect></g><g><rect x="36.636363636363626" y="89.16666666666666" width="2" height="10.833333333333343" id="death-date-45"></rect></g><g><rect x="33.072727272727285" y="85.83333333333334" width="2" height="14.166666666666657" id="death-date-46"></rect></g><g><rect x="29.509090909090922" y="85" width="2" height="15" id="death-date-47"></rect></g><g><rect x="25.945454545454556" y="87.5" width="2" height="12.5" id="death-date-48"></rect></g><g><rect x="22.38181818181819" y="85" width="2" height="15" id="death-date-49"></rect></g><g><rect x="18.818181818181824" y="85.83333333333334" width="2" height="14.166666666666657" id="death-date-50"></rect></g><g><rect x="15.254545454545461" y="87.5" width="2" height="12.5" id="death-date-51"></rect></g><g><rect x="11.690909090909095" y="86.66666666666667" width="2" height="13.333333333333329" id="death-date-52"></rect></g><g><rect x="8.12727272727273" y="87.5" width="2" height="12.5" id="death-date-53"></rect></g><g><rect x="4.563636363636365" y="88.33333333333333" width="2" height="11.666666666666671" id="death-date-54"></rect></g><g><rect x="1" y="93.33333333333333" width="2" height="6.666666666666671" id="death-date-55"></rect></g></g><g class="fg-line death-date"><path stroke-linecap="round" d="M198,17.619047619047613L194.43636363636364,20.35714285714286L190.87272727272727,22.142857142857142L187.30909090909088,23.571428571428577L183.74545454545455,25.595238095238095L180.1818181818182,25.595238095238095L176.61818181818182,23.214285714285722L173.05454545454546,25.238095238095248L169.49090909090907,27.500000000000004L165.92727272727274,25L162.36363636363637,27.500000000000004L158.8,29.166666666666664L155.23636363636365,33.214285714285715L151.6727272727273,37.61904761904762L148.1090909090909,37.857142857142854L144.54545454545453,39.88095238095239L140.9818181818182,45.95238095238094L137.41818181818184,48.8095238095238L133.85454545454544,51.66666666666666L130.29090909090908,54.047619047619044L126.72727272727273,55.952380952380956L123.16363636363636,60.476190476190474L119.6,61.30952380952381L116.03636363636363,65L112.47272727272728,66.30952380952381L108.90909090909089,67.73809523809524L105.34545454545456,69.88095238095238L101.78181818181817,72.85714285714286L98.21818181818183,73.45238095238096L94.65454545454546,76.42857142857142L91.09090909090911,75.23809523809524L87.52727272727273,75.95238095238095L83.96363636363637,77.26190476190476L80.4,78.0952380952381L76.83636363636364,78.33333333333333L73.27272727272727,80.23809523809524L69.70909090909092,80.23809523809524L66.14545454545454,82.38095238095238L62.58181818181818,82.97619047619048L59.018181818181816,83.92857142857143L55.454545454545446,84.88095238095238L51.89090909090908,85.5952380952381L48.32727272727273,85.11904761904762L44.76363636363636,85.5952380952381L41.199999999999996,85.5952380952381L37.636363636363626,86.54761904761905L34.072727272727285,86.19047619047619L30.509090909090922,86.42857142857143L26.945454545454556,86.90476190476191L23.38181818181819,87.73809523809524L19.818181818181824,88.33333333333333L16.25454545454546,88.69047619047619L12.690909090909095,88.80952380952381L9.12727272727273,88.69047619047619L5.563636363636365,89.28571428571428L2,89.40476190476191"></path></g></svg>