<svg meta="{&quot;DATA_PUBLISHED_DATE&quot;:&quot;2022-03-18&quot;,&quot;RENDER_DATE&quot;:&quot;2022-03-18&quot;,&quot;FIRST_DATE&quot;:&quot;2021-12-30&quot;,&quot;LAST_DATE&quot;:&quot;2022-02-23&quot;}" xmlns="http://www.w3.org/2000/svg" viewBox="0,0,200,100"><g transform="translate(0,0)"></g><g class="fg-bars death-date" fill="#00183f" stroke="none"><g><rect x="197" y="68.84615384615384" width="2" height="31.15384615384616" id="death-date-0"></rect></g><g><rect x="193.43636363636364" y="66.92307692307693" width="2" height="33.076923076923066" id="death-date-1"></rect></g><g><rect x="189.87272727272727" y="64.61538461538461" width="2" height="35.38461538461539" id="death-date-2"></rect></g><g><rect x="186.30909090909088" y="59.61538461538461" width="2" height="40.38461538461539" id="death-date-3"></rect></g><g><rect x="182.74545454545455" y="68.46153846153847" width="2" height="31.538461538461533" id="death-date-4"></rect></g><g><rect x="179.1818181818182" y="60.769230769230774" width="2" height="39.230769230769226" id="death-date-5"></rect></g><g><rect x="175.61818181818182" y="53.84615384615385" width="2" height="46.15384615384615" id="death-date-6"></rect></g><g><rect x="172.05454545454546" y="55.38461538461539" width="2" height="44.61538461538461" id="death-date-7"></rect></g><g><rect x="168.49090909090907" y="57.692307692307686" width="2" height="42.307692307692314" id="death-date-8"></rect></g><g><rect x="164.92727272727274" y="47.30769230769231" width="2" height="52.69230769230769" id="death-date-9"></rect></g><g><rect x="161.36363636363637" y="46.53846153846154" width="2" height="53.46153846153846" id="death-date-10"></rect></g><g><rect x="157.8" y="46.15384615384615" width="2" height="53.84615384615385" id="death-date-11"></rect></g><g><rect x="154.23636363636365" y="34.61538461538461" width="2" height="65.38461538461539" id="death-date-12"></rect></g><g><rect x="150.6727272727273" y="39.23076923076923" width="2" height="60.76923076923077" id="death-date-13"></rect></g><g><rect x="147.1090909090909" y="25.769230769230766" width="2" height="74.23076923076923" id="death-date-14"></rect></g><g><rect x="143.54545454545453" y="21.153846153846157" width="2" height="78.84615384615384" id="death-date-15"></rect></g><g><rect x="139.9818181818182" y="33.07692307692308" width="2" height="66.92307692307692" id="death-date-16"></rect></g><g><rect x="136.41818181818184" y="34.23076923076923" width="2" height="65.76923076923077" id="death-date-17"></rect></g><g><rect x="132.85454545454544" y="22.307692307692307" width="2" height="77.6923076923077" id="death-date-18"></rect></g><g><rect x="129.29090909090908" y="10.384615384615381" width="2" height="89.61538461538461" id="death-date-19"></rect></g><g><rect x="125.72727272727273" y="21.923076923076923" width="2" height="78.07692307692308" id="death-date-20"></rect></g><g><rect x="122.16363636363636" y="13.461538461538458" width="2" height="86.53846153846155" id="death-date-21"></rect></g><g><rect x="118.6" y="6.153846153846154" width="2" height="93.84615384615384" id="death-date-22"></rect></g><g><rect x="115.03636363636363" y="13.846153846153841" width="2" height="86.15384615384616" id="death-date-23"></rect></g><g><rect x="111.47272727272728" y="5.000000000000004" width="2" height="95" id="death-date-24"></rect></g><g><rect x="107.90909090909089" y="5.384615384615388" width="2" height="94.61538461538461" id="death-date-25"></rect></g><g><rect x="104.34545454545456" y="15.769230769230768" width="2" height="84.23076923076923" id="death-date-26"></rect></g><g><rect x="100.78181818181817" y="10.769230769230765" width="2" height="89.23076923076924" id="death-date-27"></rect></g><g><rect x="97.21818181818183" y="18.461538461538463" width="2" height="81.53846153846153" id="death-date-28"></rect></g><g><rect x="93.65454545454546" y="15.384615384615385" width="2" height="84.61538461538461" id="death-date-29"></rect></g><g><rect x="90.09090909090911" y="28.076923076923077" width="2" height="71.92307692307692" id="death-date-30"></rect></g><g><rect x="86.52727272727273" y="11.153846153846159" width="2" height="88.84615384615384" id="death-date-31"></rect></g><g><rect x="82.96363636363637" y="17.692307692307697" width="2" height="82.3076923076923" id="death-date-32"></rect></g><g><rect x="79.4" y="12.307692307692308" width="2" height="87.6923076923077" id="death-date-33"></rect></g><g><rect x="75.83636363636364" y="19.615384615384613" width="2" height="80.38461538461539" id="death-date-34"></rect></g><g><rect x="72.27272727272727" y="12.692307692307692" width="2" height="87.3076923076923" id="death-date-35"></rect></g><g><rect x="68.70909090909092" y="23.076923076923073" width="2" height="76.92307692307693" id="death-date-36"></rect></g><g><rect x="65.14545454545454" y="30.384615384615387" width="2" height="69.61538461538461" id="death-date-37"></rect></g><g><rect x="61.58181818181818" y="28.46153846153846" width="2" height="71.53846153846155" id="death-date-38"></rect></g><g><rect x="58.018181818181816" y="28.46153846153846" width="2" height="71.53846153846155" id="death-date-39"></rect></g><g><rect x="54.454545454545446" y="38.84615384615384" width="2" height="61.15384615384616" id="death-date-40"></rect></g><g><rect x="50.89090909090908" y="36.15384615384616" width="2" height="63.84615384615384" id="death-date-41"></rect></g><g><rect x="47.32727272727273" y="33.84615384615385" width="2" height="66.15384615384616" id="death-date-42"></rect></g><g><rect x="43.76363636363636" y="38.46153846153846" width="2" height="61.53846153846154" id="death-date-43"></rect></g><g><rect x="40.199999999999996" y="46.53846153846154" width="2" height="53.46153846153846" id="death-date-44"></rect></g><g><rect x="36.636363636363626" y="56.15384615384615" width="2" height="43.84615384615385" id="death-date-45"></rect></g><g><rect x="33.072727272727285" y="49.23076923076923" width="2" height="50.76923076923077" id="death-date-46"></rect></g><g><rect x="29.509090909090922" y="56.15384615384615" width="2" height="43.84615384615385" id="death-date-47"></rect></g><g><rect x="25.945454545454556" y="53.46153846153846" width="2" height="46.53846153846154" id="death-date-48"></rect></g><g><rect x="22.38181818181819" y="51.53846153846153" width="2" height="48.46153846153847" id="death-date-49"></rect></g><g><rect x="18.818181818181824" y="61.53846153846154" width="2" height="38.46153846153846" id="death-date-50"></rect></g><g><rect x="15.254545454545461" y="60.384615384615394" width="2" height="39.615384615384606" id="death-date-51"></rect></g><g><rect x="11.690909090909095" y="70.76923076923076" width="2" height="29.23076923076924" id="death-date-52"></rect></g><g><rect x="8.12727272727273" y="67.6923076923077" width="2" height="32.30769230769231" id="death-date-53"></rect></g><g><rect x="4.563636363636365" y="68.46153846153847" width="2" height="31.538461538461533" id="death-date-54"></rect></g><g><rect x="1" y="75.38461538461539" width="2" height="24.615384615384613" id="death-date-55"></rect></g></g><g class="fg-line death-date" fill="none" stroke="#92c5de" stroke-width="2" stroke-linecap="round"><path d="M198,63.29670329670329L194.43636363636364,61.37362637362638L190.87272727272727,60.05494505494505L187.30909090909088,57.58241758241758L183.74545454545455,55.714285714285715L180.1818181818182,52.52747252747252L176.61818181818182,48.791208791208796L173.05454545454546,46.7032967032967L169.49090909090907,42.47252747252747L165.92727272727274,37.252747252747255L162.36363636363637,35.219780219780226L158.8,33.46153846153847L155.23636363636365,30.054945054945048L151.6727272727273,26.593406593406588L148.1090909090909,24.120879120879124L144.54545454545453,22.36263736263736L140.9818181818182,20.219780219780226L137.41818181818184,17.472527472527467L133.85454545454544,13.296703296703305L130.29090909090908,10.879120879120874L126.72727272727273,11.64835164835164L123.16363636363636,10.054945054945053L119.6,10.769230769230765L116.03636363636363,12.087912087912079L112.47272727272728,14.120879120879126L108.90909090909089,15.000000000000002L105.34545454545456,16.758241758241766L101.78181818181817,16.263736263736263L98.21818181818183,17.527472527472533L94.65454545454546,16.7032967032967L91.09090909090911,17.802197802197796L87.52727272727273,18.131868131868135L83.96363636363637,20.60439560439561L80.4,22.142857142857153L76.83636363636364,25.93406593406593L73.27272727272727,28.296703296703296L69.70909090909092,31.318681318681318L66.14545454545454,33.51648351648352L62.58181818181818,35.82417582417582L59.018181818181816,39.780219780219774L55.454545454545446,42.74725274725275L51.89090909090908,45.219780219780226L48.32727272727273,47.692307692307686L44.76363636363636,50.21978021978022L41.199999999999996,53.51648351648352L37.636363636363626,55.494505494505496L34.072727272727285,57.58241758241758L30.509090909090922,60.21978021978022L26.945454545454556,61.97802197802198L23.38181818181819,65.10989010989012L19.818181818181824,68.13186813186813L16.25454545454546,70.71428571428572L12.690909090909095,72.19780219780219L9.12727272727273,73.24175824175825L5.563636363636365,74.45054945054946L2,75.32967032967034"></path></g></svg>