<svg meta="{&quot;DATA_PUBLISHED_DATE&quot;:&quot;2022-08-26&quot;,&quot;RENDER_DATE&quot;:&quot;2022-08-30&quot;,&quot;FIRST_DATE&quot;:&quot;2022-06-23&quot;,&quot;LAST_DATE&quot;:&quot;2022-08-17&quot;}" xmlns="http://www.w3.org/2000/svg" viewBox="0,0,200,100"><g transform="translate(0,0)"></g><g class="fg-bars cases-ep" fill="#00183f" stroke="none"><g><rect x="197" y="66.44642857142857" width="2" height="33.55357142857143" id="cases-ep-0"></rect></g><g><rect x="193.43636363636364" y="62.39285714285714" width="2" height="37.60714285714286" id="cases-ep-1"></rect></g><g><rect x="189.87272727272727" y="58.91428571428572" width="2" height="41.08571428571428" id="cases-ep-2"></rect></g><g><rect x="186.30909090909088" y="79.33214285714286" width="2" height="20.667857142857144" id="cases-ep-3"></rect></g><g><rect x="182.74545454545455" y="77.46071428571429" width="2" height="22.53928571428571" id="cases-ep-4"></rect></g><g><rect x="179.1818181818182" y="66.97500000000001" width="2" height="33.02499999999999" id="cases-ep-5"></rect></g><g><rect x="175.61818181818182" y="64.025" width="2" height="35.974999999999994" id="cases-ep-6"></rect></g><g><rect x="172.05454545454546" y="59.83571428571428" width="2" height="40.16428571428572" id="cases-ep-7"></rect></g><g><rect x="168.49090909090907" y="56.21071428571429" width="2" height="43.78928571428571" id="cases-ep-8"></rect></g><g><rect x="164.92727272727274" y="48.71071428571428" width="2" height="51.28928571428572" id="cases-ep-9"></rect></g><g><rect x="161.36363636363637" y="75.24285714285715" width="2" height="24.757142857142853" id="cases-ep-10"></rect></g><g><rect x="157.8" y="72.25357142857143" width="2" height="27.746428571428567" id="cases-ep-11"></rect></g><g><rect x="154.23636363636365" y="59.30714285714286" width="2" height="40.69285714285714" id="cases-ep-12"></rect></g><g><rect x="150.6727272727273" y="56.767857142857146" width="2" height="43.232142857142854" id="cases-ep-13"></rect></g><g><rect x="147.1090909090909" y="51.68571428571429" width="2" height="48.31428571428571" id="cases-ep-14"></rect></g><g><rect x="143.54545454545453" y="45.925000000000004" width="2" height="54.074999999999996" id="cases-ep-15"></rect></g><g><rect x="139.9818181818182" y="38.44285714285714" width="2" height="61.55714285714286" id="cases-ep-16"></rect></g><g><rect x="136.41818181818184" y="71.3107142857143" width="2" height="28.689285714285703" id="cases-ep-17"></rect></g><g><rect x="132.85454545454544" y="67.23928571428571" width="2" height="32.760714285714286" id="cases-ep-18"></rect></g><g><rect x="129.29090909090908" y="51.142857142857146" width="2" height="48.857142857142854" id="cases-ep-19"></rect></g><g><rect x="125.72727272727273" y="46.732142857142854" width="2" height="53.267857142857146" id="cases-ep-20"></rect></g><g><rect x="122.16363636363636" y="41.01428571428571" width="2" height="58.98571428571429" id="cases-ep-21"></rect></g><g><rect x="118.6" y="34.03214285714286" width="2" height="65.96785714285714" id="cases-ep-22"></rect></g><g><rect x="115.03636363636363" y="24.535714285714285" width="2" height="75.46428571428572" id="cases-ep-23"></rect></g><g><rect x="111.47272727272728" y="65.025" width="2" height="34.974999999999994" id="cases-ep-24"></rect></g><g><rect x="107.90909090909089" y="59.910714285714285" width="2" height="40.089285714285715" id="cases-ep-25"></rect></g><g><rect x="104.34545454545456" y="39.06428571428572" width="2" height="60.93571428571428" id="cases-ep-26"></rect></g><g><rect x="100.78181818181817" y="37.26071428571428" width="2" height="62.73928571428572" id="cases-ep-27"></rect></g><g><rect x="97.21818181818183" y="31.025000000000002" width="2" height="68.975" id="cases-ep-28"></rect></g><g><rect x="93.65454545454546" y="25.142857142857146" width="2" height="74.85714285714286" id="cases-ep-29"></rect></g><g><rect x="90.09090909090911" y="16.660714285714285" width="2" height="83.33928571428572" id="cases-ep-30"></rect></g><g><rect x="86.52727272727273" y="60.96785714285714" width="2" height="39.03214285714286" id="cases-ep-31"></rect></g><g><rect x="82.96363636363637" y="54.25714285714286" width="2" height="45.74285714285714" id="cases-ep-32"></rect></g><g><rect x="79.4" y="33.22142857142857" width="2" height="66.77857142857144" id="cases-ep-33"></rect></g><g><rect x="75.83636363636364" y="29.400000000000006" width="2" height="70.6" id="cases-ep-34"></rect></g><g><rect x="72.27272727272727" y="24.796428571428574" width="2" height="75.20357142857142" id="cases-ep-35"></rect></g><g><rect x="68.70909090909092" y="20.578571428571422" width="2" height="79.42142857142858" id="cases-ep-36"></rect></g><g><rect x="65.14545454545454" y="13.321428571428573" width="2" height="86.67857142857143" id="cases-ep-37"></rect></g><g><rect x="61.58181818181818" y="58.64285714285714" width="2" height="41.35714285714286" id="cases-ep-38"></rect></g><g><rect x="58.018181818181816" y="52.35357142857142" width="2" height="47.64642857142858" id="cases-ep-39"></rect></g><g><rect x="54.454545454545446" y="28.349999999999998" width="2" height="71.65" id="cases-ep-40"></rect></g><g><rect x="50.89090909090908" y="24.85357142857143" width="2" height="75.14642857142857" id="cases-ep-41"></rect></g><g><rect x="47.32727272727273" y="18.342857142857138" width="2" height="81.65714285714286" id="cases-ep-42"></rect></g><g><rect x="43.76363636363636" y="3.5142857142857142" width="2" height="96.48571428571428" id="cases-ep-43"></rect></g><g><rect x="40.199999999999996" y="64.75714285714285" width="2" height="35.24285714285715" id="cases-ep-44"></rect></g><g><rect x="36.636363636363626" y="65.24642857142857" width="2" height="34.75357142857143" id="cases-ep-45"></rect></g><g><rect x="33.072727272727285" y="59.46071428571429" width="2" height="40.53928571428571" id="cases-ep-46"></rect></g><g><rect x="29.509090909090922" y="36.364285714285714" width="2" height="63.635714285714286" id="cases-ep-47"></rect></g><g><rect x="25.945454545454556" y="35.44642857142857" width="2" height="64.55357142857143" id="cases-ep-48"></rect></g><g><rect x="22.38181818181819" y="29.528571428571425" width="2" height="70.47142857142858" id="cases-ep-49"></rect></g><g><rect x="18.818181818181824" y="24.957142857142856" width="2" height="75.04285714285714" id="cases-ep-50"></rect></g><g><rect x="15.254545454545461" y="19.45" width="2" height="80.55" id="cases-ep-51"></rect></g><g><rect x="11.690909090909095" y="61.542857142857144" width="2" height="38.457142857142856" id="cases-ep-52"></rect></g><g><rect x="8.12727272727273" y="58.53928571428572" width="2" height="41.46071428571428" id="cases-ep-53"></rect></g><g><rect x="4.563636363636365" y="41.79642857142857" width="2" height="58.20357142857143" id="cases-ep-54"></rect></g><g><rect x="1" y="38.78928571428572" width="2" height="61.21071428571428" id="cases-ep-55"></rect></g></g><g class="fg-line cases-ep" fill="none" stroke="#92c5de" stroke-width="2" stroke-linecap="round"><path d="M198,67.93520408163265L194.43636363636364,66.9908163265306L190.87272727272727,66.10765306122448L187.30909090909088,64.65L183.74545454545455,64.06581632653061L180.1818181818182,63.3219387755102L176.61818181818182,62.2265306122449L173.05454545454546,61.18979591836735L169.49090909090907,60.025510204081634L165.92727272727274,58.556122448979586L162.36363636363637,57.08928571428571L158.8,56.52755102040816L155.23636363636365,55.81122448979592L151.6727272727273,54.64489795918368L148.1090909090909,53.21122448979592L144.54545454545453,51.68673469387755L140.9818181818182,49.98775510204082L137.41818181818184,48.001020408163264L133.85454545454544,47.10306122448979L130.29090909090908,46.0561224489796L126.72727272727273,44.330612244897964L123.16363636363636,42.977551020408164L119.6,41.55051020408164L116.03636363636363,40.28061224489795L112.47272727272728,39.15561224489795L108.90909090909089,38.57602040816326L105.34545454545456,37.76836734693878L101.78181818181817,36.93367346938776L98.21818181818183,35.81071428571428L94.65454545454546,34.92091836734693L91.09090909090911,34.2688775510204L87.52727272727273,33.79183673469388L83.96363636363637,33.459693877551025L80.4,33.18775510204082L76.83636363636364,32.49183673469388L73.27272727272727,31.8423469387755L69.70909090909092,30.92040816326531L66.14545454545454,28.482653061224493L62.58181818181818,35.83061224489795L59.018181818181816,36.773979591836735L55.454545454545446,37.78928571428571L51.89090909090908,38.93418367346938L48.32727272727273,40.44744897959184L44.76363636363636,42.04540816326531L41.199999999999996,45.10867346938775L37.636363636363626,38.63622448979592L34.072727272727285,38.10714285714286L30.509090909090922,37.975510204081644L26.945454545454556,38.7515306122449L23.38181818181819,39.22908163265306L19.818181818181824,40.211224489795924L16.25454545454546,41.02908163265306L12.690909090909095,43.23826530612245L9.12727272727273,43.98265306122448L5.563636363636365,44.64183673469388L2,45.36734693877551"></path></g></svg>