<svg meta="{&quot;DATA_PUBLISHED_DATE&quot;:&quot;2022-09-06&quot;,&quot;RENDER_DATE&quot;:&quot;2022-09-06&quot;,&quot;FIRST_DATE&quot;:&quot;2022-07-05&quot;,&quot;LAST_DATE&quot;:&quot;2022-08-29&quot;}" xmlns="http://www.w3.org/2000/svg" viewBox="0,0,200,100"><g transform="translate(0,0)"></g><g class="fg-bars cases-ep" fill="#00183f" stroke="none"><g><rect x="197" y="69.41428571428571" width="2" height="30.58571428571429" id="cases-ep-0"></rect></g><g><rect x="193.43636363636364" y="85.225" width="2" height="14.775000000000006" id="cases-ep-1"></rect></g><g><rect x="189.87272727272727" y="83.60714285714286" width="2" height="16.39285714285714" id="cases-ep-2"></rect></g><g><rect x="186.30909090909088" y="74.58571428571427" width="2" height="25.414285714285725" id="cases-ep-3"></rect></g><g><rect x="182.74545454545455" y="73.4357142857143" width="2" height="26.564285714285703" id="cases-ep-4"></rect></g><g><rect x="179.1818181818182" y="70.19285714285715" width="2" height="29.80714285714285" id="cases-ep-5"></rect></g><g><rect x="175.61818181818182" y="66.77142857142857" width="2" height="33.22857142857143" id="cases-ep-6"></rect></g><g><rect x="172.05454545454546" y="61.425" width="2" height="38.575" id="cases-ep-7"></rect></g><g><rect x="168.49090909090907" y="81.38571428571429" width="2" height="18.614285714285714" id="cases-ep-8"></rect></g><g><rect x="164.92727272727274" y="78.99285714285715" width="2" height="21.007142857142853" id="cases-ep-9"></rect></g><g><rect x="161.36363636363637" y="70.47142857142858" width="2" height="29.528571428571425" id="cases-ep-10"></rect></g><g><rect x="157.8" y="68.25357142857142" width="2" height="31.74642857142858" id="cases-ep-11"></rect></g><g><rect x="154.23636363636365" y="65.525" width="2" height="34.474999999999994" id="cases-ep-12"></rect></g><g><rect x="150.6727272727273" y="61.575" width="2" height="38.425" id="cases-ep-13"></rect></g><g><rect x="147.1090909090909" y="57.95" width="2" height="42.05" id="cases-ep-14"></rect></g><g><rect x="143.54545454545453" y="78.53571428571429" width="2" height="21.464285714285708" id="cases-ep-15"></rect></g><g><rect x="139.9818181818182" y="77.06428571428572" width="2" height="22.935714285714283" id="cases-ep-16"></rect></g><g><rect x="136.41818181818184" y="66.47142857142858" width="2" height="33.528571428571425" id="cases-ep-17"></rect></g><g><rect x="132.85454545454544" y="63.717857142857135" width="2" height="36.282142857142865" id="cases-ep-18"></rect></g><g><rect x="129.29090909090908" y="60.02142857142857" width="2" height="39.97857142857143" id="cases-ep-19"></rect></g><g><rect x="125.72727272727273" y="56.48214285714286" width="2" height="43.51785714285714" id="cases-ep-20"></rect></g><g><rect x="122.16363636363636" y="48.503571428571426" width="2" height="51.496428571428574" id="cases-ep-21"></rect></g><g><rect x="118.6" y="74.71071428571429" width="2" height="25.28928571428571" id="cases-ep-22"></rect></g><g><rect x="115.03636363636363" y="71.78214285714286" width="2" height="28.21785714285714" id="cases-ep-23"></rect></g><g><rect x="111.47272727272728" y="58.675" width="2" height="41.325" id="cases-ep-24"></rect></g><g><rect x="107.90909090909089" y="56.51428571428572" width="2" height="43.48571428571428" id="cases-ep-25"></rect></g><g><rect x="104.34545454545456" y="51.35357142857142" width="2" height="48.64642857142858" id="cases-ep-26"></rect></g><g><rect x="100.78181818181817" y="45.67142857142857" width="2" height="54.32857142857143" id="cases-ep-27"></rect></g><g><rect x="97.21818181818183" y="38.121428571428574" width="2" height="61.878571428571426" id="cases-ep-28"></rect></g><g><rect x="93.65454545454546" y="71.20714285714286" width="2" height="28.792857142857144" id="cases-ep-29"></rect></g><g><rect x="90.09090909090911" y="67.17500000000001" width="2" height="32.82499999999999" id="cases-ep-30"></rect></g><g><rect x="86.52727272727273" y="51.10357142857143" width="2" height="48.89642857142857" id="cases-ep-31"></rect></g><g><rect x="82.96363636363637" y="46.650000000000006" width="2" height="53.349999999999994" id="cases-ep-32"></rect></g><g><rect x="79.4" y="40.87142857142857" width="2" height="59.12857142857143" id="cases-ep-33"></rect></g><g><rect x="75.83636363636364" y="33.89642857142857" width="2" height="66.10357142857143" id="cases-ep-34"></rect></g><g><rect x="72.27272727272727" y="24.485714285714288" width="2" height="75.5142857142857" id="cases-ep-35"></rect></g><g><rect x="68.70909090909092" y="64.96071428571429" width="2" height="35.03928571428571" id="cases-ep-36"></rect></g><g><rect x="65.14545454545454" y="59.875" width="2" height="40.125" id="cases-ep-37"></rect></g><g><rect x="61.58181818181818" y="39.07857142857143" width="2" height="60.92142857142857" id="cases-ep-38"></rect></g><g><rect x="58.018181818181816" y="37.26071428571428" width="2" height="62.73928571428572" id="cases-ep-39"></rect></g><g><rect x="54.454545454545446" y="30.992857142857144" width="2" height="69.00714285714285" id="cases-ep-40"></rect></g><g><rect x="50.89090909090908" y="25.035714285714285" width="2" height="74.96428571428572" id="cases-ep-41"></rect></g><g><rect x="47.32727272727273" y="16.635714285714286" width="2" height="83.36428571428571" id="cases-ep-42"></rect></g><g><rect x="43.76363636363636" y="60.94285714285714" width="2" height="39.05714285714286" id="cases-ep-43"></rect></g><g><rect x="40.199999999999996" y="54.24285714285715" width="2" height="45.75714285714285" id="cases-ep-44"></rect></g><g><rect x="36.636363636363626" y="33.160714285714285" width="2" height="66.83928571428572" id="cases-ep-45"></rect></g><g><rect x="33.072727272727285" y="29.314285714285717" width="2" height="70.68571428571428" id="cases-ep-46"></rect></g><g><rect x="29.509090909090922" y="24.63214285714286" width="2" height="75.36785714285713" id="cases-ep-47"></rect></g><g><rect x="25.945454545454556" y="20.467857142857138" width="2" height="79.53214285714286" id="cases-ep-48"></rect></g><g><rect x="22.38181818181819" y="13.182142857142853" width="2" height="86.81785714285715" id="cases-ep-49"></rect></g><g><rect x="18.818181818181824" y="58.578571428571436" width="2" height="41.421428571428564" id="cases-ep-50"></rect></g><g><rect x="15.254545454545461" y="52.260714285714286" width="2" height="47.739285714285714" id="cases-ep-51"></rect></g><g><rect x="11.690909090909095" y="28.20357142857143" width="2" height="71.79642857142858" id="cases-ep-52"></rect></g><g><rect x="8.12727272727273" y="24.78214285714285" width="2" height="75.21785714285716" id="cases-ep-53"></rect></g><g><rect x="4.563636363636365" y="18.25" width="2" height="81.75" id="cases-ep-54"></rect></g><g><rect x="1" y="3.414285714285714" width="2" height="96.58571428571429" id="cases-ep-55"></rect></g></g><g class="fg-line cases-ep" fill="none" stroke="#92c5de" stroke-width="2" stroke-linecap="round"><path d="M198,74.74744897959185L194.43636363636364,73.60612244897959L190.87272727272727,73.0576530612245L187.30909090909088,72.3984693877551L183.74545454545455,71.81071428571428L180.1818181818182,71.07040816326531L176.61818181818182,70.40357142857144L173.05454545454546,69.66122448979593L169.49090909090907,69.16479591836735L165.92727272727274,68.75765306122449L162.36363636363637,68.48214285714286L158.8,67.91071428571429L155.23636363636365,67.26275510204081L151.6727272727273,66.4765306122449L148.1090909090909,65.74897959183674L144.54545454545453,64.39948979591836L140.9818181818182,63.85306122448979L137.41818181818184,63.09846938775511L133.85454545454544,61.984693877551024L130.29090909090908,60.955612244897964L126.72727272727273,59.717346938775506L123.16363636363636,58.17295918367347L119.6,56.689795918367345L116.03636363636363,56.18928571428572L112.47272727272728,55.531122448979595L108.90909090909089,54.44948979591837L105.34545454545456,53.040306122448975L101.78181818181817,51.54285714285714L98.21818181818183,49.86071428571428L94.65454545454546,47.91275510204082L91.09090909090911,47.0204081632653L87.52727272727273,45.97755102040817L83.96363636363637,44.25969387755102L80.4,42.91836734693878L76.83636363636364,41.50714285714285L73.27272727272727,40.24132653061224L69.70909090909092,39.11989795918367L66.14545454545454,38.54591836734693L62.58181818181818,37.74132653061224L59.018181818181816,36.89591836734694L55.454545454545446,35.76071428571429L51.89090909090908,34.85204081632652L48.32727272727273,34.19948979591836L44.76363636363636,33.70612244897959L41.199999999999996,33.368367346938776L37.636363636363626,33.08520408163265L34.072727272727285,32.37704081632653L30.509090909090922,31.729591836734695L26.945454545454556,30.817857142857143L23.38181818181819,28.381632653061217L19.818181818181824,35.73622448979592L16.25454545454546,36.6811224489796L12.690909090909095,37.69948979591836L9.12727272727273,38.857142857142854L5.563636363636365,40.3704081632653L2,41.971938775510196"></path></g></svg>