<svg about="DATA_PUBLISHED_DATE:2021-09-20,RENDER_DATE:2021-09-20" viewBox="0,0,200,100"><g transform="translate(0,0)"></g><g class="fg-bars cases-ep"><g><rect x="197" y="70.85555555555555" width="2" height="29.144444444444446" id="cases-ep-0"></rect></g><g><rect x="193.43636363636364" y="53.011111111111106" width="2" height="46.988888888888894" id="cases-ep-1"></rect></g><g><rect x="189.87272727272727" y="46.82777777777778" width="2" height="53.17222222222222" id="cases-ep-2"></rect></g><g><rect x="186.30909090909088" y="40.25555555555555" width="2" height="59.74444444444445" id="cases-ep-3"></rect></g><g><rect x="182.74545454545455" y="34.38333333333333" width="2" height="65.61666666666667" id="cases-ep-4"></rect></g><g><rect x="179.1818181818182" y="66.39444444444445" width="2" height="33.605555555555554" id="cases-ep-5"></rect></g><g><rect x="175.61818181818182" y="72.56666666666666" width="2" height="27.433333333333337" id="cases-ep-6"></rect></g><g><rect x="172.05454545454546" y="64.37777777777778" width="2" height="35.62222222222222" id="cases-ep-7"></rect></g><g><rect x="168.49090909090907" y="47.21666666666666" width="2" height="52.78333333333334" id="cases-ep-8"></rect></g><g><rect x="164.92727272727274" y="41.05555555555556" width="2" height="58.94444444444444" id="cases-ep-9"></rect></g><g><rect x="161.36363636363637" y="31.333333333333336" width="2" height="68.66666666666666" id="cases-ep-10"></rect></g><g><rect x="157.8" y="32.91111111111111" width="2" height="67.08888888888889" id="cases-ep-11"></rect></g><g><rect x="154.23636363636365" y="27.994444444444444" width="2" height="72.00555555555556" id="cases-ep-12"></rect></g><g><rect x="150.6727272727273" y="64.77222222222223" width="2" height="35.227777777777774" id="cases-ep-13"></rect></g><g><rect x="147.1090909090909" y="57.772222222222226" width="2" height="42.227777777777774" id="cases-ep-14"></rect></g><g><rect x="143.54545454545453" y="38.53333333333333" width="2" height="61.46666666666667" id="cases-ep-15"></rect></g><g><rect x="139.9818181818182" y="31.827777777777776" width="2" height="68.17222222222222" id="cases-ep-16"></rect></g><g><rect x="136.41818181818184" y="25.544444444444448" width="2" height="74.45555555555555" id="cases-ep-17"></rect></g><g><rect x="132.85454545454544" y="23.450000000000003" width="2" height="76.55" id="cases-ep-18"></rect></g><g><rect x="129.29090909090908" y="16.088888888888885" width="2" height="83.91111111111111" id="cases-ep-19"></rect></g><g><rect x="125.72727272727273" y="59.150000000000006" width="2" height="40.849999999999994" id="cases-ep-20"></rect></g><g><rect x="122.16363636363636" y="51.37777777777778" width="2" height="48.62222222222222" id="cases-ep-21"></rect></g><g><rect x="118.6" y="26.73888888888889" width="2" height="73.2611111111111" id="cases-ep-22"></rect></g><g><rect x="115.03636363636363" y="23.777777777777775" width="2" height="76.22222222222223" id="cases-ep-23"></rect></g><g><rect x="111.47272727272728" y="17.333333333333336" width="2" height="82.66666666666666" id="cases-ep-24"></rect></g><g><rect x="107.90909090909089" y="15.488888888888885" width="2" height="84.51111111111112" id="cases-ep-25"></rect></g><g><rect x="104.34545454545456" y="12.1" width="2" height="87.9" id="cases-ep-26"></rect></g><g><rect x="100.78181818181817" y="55.31111111111111" width="2" height="44.68888888888889" id="cases-ep-27"></rect></g><g><rect x="97.21818181818183" y="47.28333333333333" width="2" height="52.71666666666667" id="cases-ep-28"></rect></g><g><rect x="93.65454545454546" y="24.40555555555556" width="2" height="75.59444444444443" id="cases-ep-29"></rect></g><g><rect x="90.09090909090911" y="19.58888888888889" width="2" height="80.41111111111111" id="cases-ep-30"></rect></g><g><rect x="86.52727272727273" y="15.07777777777778" width="2" height="84.92222222222222" id="cases-ep-31"></rect></g><g><rect x="82.96363636363637" y="10.96111111111111" width="2" height="89.03888888888889" id="cases-ep-32"></rect></g><g><rect x="79.4" y="10.505555555555556" width="2" height="89.49444444444444" id="cases-ep-33"></rect></g><g><rect x="75.83636363636364" y="52.55555555555556" width="2" height="47.44444444444444" id="cases-ep-34"></rect></g><g><rect x="72.27272727272727" y="46.85" width="2" height="53.15" id="cases-ep-35"></rect></g><g><rect x="68.70909090909092" y="29.14444444444444" width="2" height="70.85555555555555" id="cases-ep-36"></rect></g><g><rect x="65.14545454545454" y="23.872222222222216" width="2" height="76.12777777777778" id="cases-ep-37"></rect></g><g><rect x="61.58181818181818" y="22.55555555555555" width="2" height="77.44444444444446" id="cases-ep-38"></rect></g><g><rect x="58.018181818181816" y="20.838888888888885" width="2" height="79.16111111111111" id="cases-ep-39"></rect></g><g><rect x="54.454545454545446" y="22.7" width="2" height="77.3" id="cases-ep-40"></rect></g><g><rect x="50.89090909090908" y="53.516666666666666" width="2" height="46.483333333333334" id="cases-ep-41"></rect></g><g><rect x="47.32727272727273" y="53.266666666666666" width="2" height="46.733333333333334" id="cases-ep-42"></rect></g><g><rect x="43.76363636363636" y="38.894444444444446" width="2" height="61.105555555555554" id="cases-ep-43"></rect></g><g><rect x="40.199999999999996" y="35.18333333333333" width="2" height="64.81666666666666" id="cases-ep-44"></rect></g><g><rect x="36.636363636363626" y="34.761111111111106" width="2" height="65.2388888888889" id="cases-ep-45"></rect></g><g><rect x="33.072727272727285" y="38.09444444444444" width="2" height="61.90555555555556" id="cases-ep-46"></rect></g><g><rect x="29.509090909090922" y="35.36111111111111" width="2" height="64.63888888888889" id="cases-ep-47"></rect></g><g><rect x="25.945454545454556" y="64.69444444444444" width="2" height="35.30555555555556" id="cases-ep-48"></rect></g><g><rect x="22.38181818181819" y="62.82777777777777" width="2" height="37.17222222222223" id="cases-ep-49"></rect></g><g><rect x="18.818181818181824" y="55.47777777777778" width="2" height="44.52222222222222" id="cases-ep-50"></rect></g><g><rect x="15.254545454545461" y="54.2" width="2" height="45.8" id="cases-ep-51"></rect></g><g><rect x="11.690909090909095" y="51.68333333333332" width="2" height="48.31666666666668" id="cases-ep-52"></rect></g><g><rect x="8.12727272727273" y="54.08333333333333" width="2" height="45.91666666666667" id="cases-ep-53"></rect></g><g><rect x="4.563636363636365" y="53.82777777777778" width="2" height="46.17222222222222" id="cases-ep-54"></rect></g><g><rect x="1" y="73.7" width="2" height="26.299999999999997" id="cases-ep-55"></rect></g></g><g class="fg-line cases-ep"><path stroke-linecap="round" d="M198,54.89920634920635L194.43636363636364,53.97380952380952L190.87272727272727,53.14603174603174L187.30909090909088,52.32142857142858L183.74545454545455,51.04682539682539L180.1818181818182,50.836507936507935L176.61818181818182,45.350793650793655L173.05454545454546,44.237301587301594L169.49090909090907,43.2936507936508L165.92727272727274,42.053174603174604L162.36363636363637,40.734920634920634L158.8,39.907936507936505L155.23636363636365,38.5563492063492L151.6727272727273,36.855555555555554L148.1090909090909,36.05238095238094L144.54545454545453,35.138888888888886L140.9818181818182,33.453968253968256L137.41818181818184,32.30396825396825L133.85454545454544,31.13095238095238L130.29090909090908,29.993650793650794L126.72727272727273,29.423809523809517L123.16363636363636,28.875396825396827L119.6,28.290476190476188L116.03636363636363,27.95714285714286L112.47272727272728,27.35873015873016L108.90909090909089,27.036507936507938L105.34545454545456,26.389682539682536L101.78181818181817,26.161904761904765L98.21818181818183,25.768253968253962L94.65454545454546,25.7063492063492L91.09090909090911,26.383333333333336L87.52727272727273,26.995238095238093L83.96363636363637,28.063492063492056L80.4,29.474603174603175L76.83636363636364,31.21666666666667L73.27272727272727,31.353968253968254L69.70909090909092,32.27063492063492L66.14545454545454,33.663492063492065L62.58181818181818,35.27936507936508L59.018181818181816,37.02301587301587L55.454545454545446,39.48809523809524L51.89090909090908,41.29682539682539L48.32727272727273,42.89365079365079L44.76363636363636,44.25952380952381L41.199999999999996,46.62857142857143L37.636363636363626,49.345238095238095L34.072727272727285,51.762698412698406L30.509090909090922,54.04682539682539L26.945454545454556,56.68492063492063L23.38181818181819,57.971428571428575L19.818181818181824,59.61349206349207L16.25454545454546,61.275396825396825L12.690909090909095,63.20873015873016L9.12727272727273,65.73253968253968L5.563636363636365,68.0563492063492L2,70.42777777777778"></path></g></svg>