<svg about="DATA_PUBLISHED_DATE:2021-12-13,RENDER_DATE:2021-12-13" xmlns="http://www.w3.org/2000/svg" viewBox="0,0,200,100"><g transform="translate(0,0)"></g><g class="fg-bars tests-vaccines" fill="#00183f" stroke="none"><g><rect x="197" y="77.74485714285714" width="2" height="22.255142857142857" id="tests-vaccines-0"></rect></g><g><rect x="193.43636363636364" y="50.366285714285716" width="2" height="49.633714285714284" id="tests-vaccines-1"></rect></g><g><rect x="189.87272727272727" y="12.952857142857145" width="2" height="87.04714285714286" id="tests-vaccines-2"></rect></g><g><rect x="186.30909090909088" y="22.890285714285717" width="2" height="77.10971428571429" id="tests-vaccines-3"></rect></g><g><rect x="182.74545454545455" y="24.761428571428567" width="2" height="75.23857142857143" id="tests-vaccines-4"></rect></g><g><rect x="179.1818181818182" y="32.099714285714285" width="2" height="67.90028571428572" id="tests-vaccines-5"></rect></g><g><rect x="175.61818181818182" y="40.311142857142855" width="2" height="59.688857142857145" id="tests-vaccines-6"></rect></g><g><rect x="172.05454545454546" y="81.85342857142857" width="2" height="18.146571428571434" id="tests-vaccines-7"></rect></g><g><rect x="168.49090909090907" y="67.976" width="2" height="32.024" id="tests-vaccines-8"></rect></g><g><rect x="164.92727272727274" y="56.88142857142857" width="2" height="43.11857142857143" id="tests-vaccines-9"></rect></g><g><rect x="161.36363636363637" y="98.62657142857142" width="2" height="1.373428571428576" id="tests-vaccines-10"></rect></g><g><rect x="157.8" y="42.12085714285714" width="2" height="57.87914285714286" id="tests-vaccines-11"></rect></g><g><rect x="154.23636363636365" y="31.089999999999996" width="2" height="68.91" id="tests-vaccines-12"></rect></g><g><rect x="150.6727272727273" y="34.49457142857143" width="2" height="65.50542857142857" id="tests-vaccines-13"></rect></g><g><rect x="147.1090909090909" y="79.354" width="2" height="20.646" id="tests-vaccines-14"></rect></g><g><rect x="143.54545454545453" y="55.552571428571426" width="2" height="44.447428571428574" id="tests-vaccines-15"></rect></g><g><rect x="139.9818181818182" y="23.834" width="2" height="76.166" id="tests-vaccines-16"></rect></g><g><rect x="136.41818181818184" y="35.81428571428571" width="2" height="64.18571428571428" id="tests-vaccines-17"></rect></g><g><rect x="132.85454545454544" y="34.471714285714285" width="2" height="65.52828571428572" id="tests-vaccines-18"></rect></g><g><rect x="129.29090909090908" y="35.87342857142857" width="2" height="64.12657142857142" id="tests-vaccines-19"></rect></g><g><rect x="125.72727272727273" y="41.51228571428571" width="2" height="58.48771428571429" id="tests-vaccines-20"></rect></g><g><rect x="122.16363636363636" y="79.83085714285714" width="2" height="20.16914285714286" id="tests-vaccines-21"></rect></g><g><rect x="118.6" y="57.81657142857143" width="2" height="42.18342857142857" id="tests-vaccines-22"></rect></g><g><rect x="115.03636363636363" y="26.437714285714286" width="2" height="73.56228571428571" id="tests-vaccines-23"></rect></g><g><rect x="111.47272727272728" y="38.350857142857144" width="2" height="61.649142857142856" id="tests-vaccines-24"></rect></g><g><rect x="107.90909090909089" y="35.70971428571429" width="2" height="64.29028571428572" id="tests-vaccines-25"></rect></g><g><rect x="104.34545454545456" y="38.11942857142857" width="2" height="61.88057142857143" id="tests-vaccines-26"></rect></g><g><rect x="100.78181818181817" y="42.97971428571429" width="2" height="57.02028571428571" id="tests-vaccines-27"></rect></g><g><rect x="97.21818181818183" y="80.77600000000001" width="2" height="19.22399999999999" id="tests-vaccines-28"></rect></g><g><rect x="93.65454545454546" y="63.440571428571424" width="2" height="36.559428571428576" id="tests-vaccines-29"></rect></g><g><rect x="90.09090909090911" y="30.77371428571428" width="2" height="69.22628571428572" id="tests-vaccines-30"></rect></g><g><rect x="86.52727272727273" y="43.72857142857143" width="2" height="56.27142857142857" id="tests-vaccines-31"></rect></g><g><rect x="82.96363636363637" y="46.018571428571434" width="2" height="53.981428571428566" id="tests-vaccines-32"></rect></g><g><rect x="79.4" y="45.89885714285714" width="2" height="54.10114285714286" id="tests-vaccines-33"></rect></g><g><rect x="75.83636363636364" y="49.23314285714285" width="2" height="50.76685714285715" id="tests-vaccines-34"></rect></g><g><rect x="72.27272727272727" y="85.52685714285715" width="2" height="14.473142857142847" id="tests-vaccines-35"></rect></g><g><rect x="68.70909090909092" y="70.54771428571429" width="2" height="29.452285714285708" id="tests-vaccines-36"></rect></g><g><rect x="65.14545454545454" y="37.65685714285715" width="2" height="62.34314285714285" id="tests-vaccines-37"></rect></g><g><rect x="61.58181818181818" y="48.06828571428572" width="2" height="51.93171428571428" id="tests-vaccines-38"></rect></g><g><rect x="58.018181818181816" y="48.00114285714285" width="2" height="51.99885714285715" id="tests-vaccines-39"></rect></g><g><rect x="54.454545454545446" y="48.62171428571429" width="2" height="51.37828571428571" id="tests-vaccines-40"></rect></g><g><rect x="50.89090909090908" y="53.426571428571435" width="2" height="46.573428571428565" id="tests-vaccines-41"></rect></g><g><rect x="47.32727272727273" y="86.46028571428572" width="2" height="13.539714285714282" id="tests-vaccines-42"></rect></g><g><rect x="43.76363636363636" y="73.55314285714284" width="2" height="26.446857142857155" id="tests-vaccines-43"></rect></g><g><rect x="40.199999999999996" y="53.580571428571425" width="2" height="46.419428571428575" id="tests-vaccines-44"></rect></g><g><rect x="36.636363636363626" y="72.44371428571428" width="2" height="27.55628571428572" id="tests-vaccines-45"></rect></g><g><rect x="33.072727272727285" y="73.52000000000001" width="2" height="26.47999999999999" id="tests-vaccines-46"></rect></g><g><rect x="29.509090909090922" y="72.65971428571429" width="2" height="27.340285714285713" id="tests-vaccines-47"></rect></g><g><rect x="25.945454545454556" y="71.52257142857144" width="2" height="28.47742857142856" id="tests-vaccines-48"></rect></g><g><rect x="22.38181818181819" y="91.27828571428572" width="2" height="8.721714285714285" id="tests-vaccines-49"></rect></g><g><rect x="18.818181818181824" y="83.17628571428571" width="2" height="16.82371428571429" id="tests-vaccines-50"></rect></g><g><rect x="15.254545454545461" y="63.976571428571425" width="2" height="36.023428571428575" id="tests-vaccines-51"></rect></g><g><rect x="11.690909090909095" y="71.2402857142857" width="2" height="28.759714285714296" id="tests-vaccines-52"></rect></g><g><rect x="8.12727272727273" y="71.56514285714286" width="2" height="28.43485714285714" id="tests-vaccines-53"></rect></g><g><rect x="4.563636363636365" y="69.794" width="2" height="30.206000000000003" id="tests-vaccines-54"></rect></g><g><rect x="1" y="69.44057142857143" width="2" height="30.55942857142857" id="tests-vaccines-55"></rect></g></g><g class="fg-line tests-vaccines" fill="none" stroke="#92c5de" stroke-width="2" stroke-linecap="round"><path d="M198,37.30379591836734L194.43636363636364,37.89073469387755L190.87272727272727,40.406408163265304L187.30909090909088,46.68191836734694L183.74545454545455,57.50138775510203L180.1818181818182,59.981306122448984L176.61818181818182,59.837061224489794L173.05454545454546,59.00612244897959L169.49090909090907,58.6490612244898L165.92727272727274,56.87428571428572L162.36363636363637,52.15322448979591L158.8,43.18004081632654L155.23636363636365,42.08730612244898L151.6727272727273,42.770653061224486L148.1090909090909,43.7731836734694L144.54545454545453,43.84130612244898L140.9818181818182,44.16473469387755L137.41818181818184,44.53669387755102L133.85454545454544,44.8990612244898L130.29090909090908,45.075918367346944L126.72727272727273,45.39677551020408L123.16363636363636,45.606408163265314L119.6,45.741428571428564L116.03636363636363,46.54485714285714L112.47272727272728,47.16428571428571L108.90909090909089,47.932530612244896L105.34545454545456,49.40522448979592L101.78181818181817,50.516571428571424L98.21818181818183,51.40991836734694L94.65454545454546,52.08861224489796L91.09090909090911,53.103918367346935L87.52727272727273,54.087224489795915L83.96363636363637,54.70718367346939L80.4,54.9904081632653L76.83636363636364,55.37938775510204L73.27272727272727,55.97844897959183L69.70909090909092,56.11179591836735L66.14545454545454,56.54114285714286L62.58181818181818,58.81595918367346L59.018181818181816,62.29816326530613L55.454545454545446,65.94371428571428L51.89090909090908,69.37771428571429L48.32727272727273,71.96285714285715L44.76363636363636,72.65114285714286L41.199999999999996,74.02587755102041L37.636363636363626,75.51102040816326L34.072727272727285,75.33910204081633L30.509090909090922,75.05983673469387L26.945454545454556,74.65044897959183L23.38181818181819,74.35302040816327L19.818181818181824,74.14514285714287L16.25454545454546,73.88122448979591L12.690909090909095,73.20020408163266L9.12727272727273,72.52808163265306L5.563636363636365,72.12689795918368L2,71.88787755102042"></path></g></svg>