<svg meta="{&quot;DATA_PUBLISHED_DATE&quot;:&quot;2023-03-30&quot;,&quot;RENDER_DATE&quot;:&quot;2023-03-30&quot;,&quot;FIRST_DATE&quot;:&quot;2023-01-26&quot;,&quot;LAST_DATE&quot;:&quot;2023-03-22&quot;}" xmlns="http://www.w3.org/2000/svg" viewBox="0,0,200,100"><g transform="translate(0,0)"></g><g class="fg-bars tests-vaccines" fill="#00183f" stroke="none"><g><rect x="197" y="59.75909090909091" width="2" height="40.24090909090909" id="tests-vaccines-0"></rect></g><g><rect x="193.43636363636364" y="61.777272727272724" width="2" height="38.222727272727276" id="tests-vaccines-1"></rect></g><g><rect x="189.87272727272727" y="57.36363636363636" width="2" height="42.63636363636364" id="tests-vaccines-2"></rect></g><g><rect x="186.30909090909088" y="90.01363636363637" width="2" height="9.986363636363635" id="tests-vaccines-3"></rect></g><g><rect x="182.74545454545455" y="80.53636363636365" width="2" height="19.463636363636354" id="tests-vaccines-4"></rect></g><g><rect x="179.1818181818182" y="48.92272727272727" width="2" height="51.07727272727273" id="tests-vaccines-5"></rect></g><g><rect x="175.61818181818182" y="56.372727272727275" width="2" height="43.627272727272725" id="tests-vaccines-6"></rect></g><g><rect x="172.05454545454546" y="56.731818181818184" width="2" height="43.268181818181816" id="tests-vaccines-7"></rect></g><g><rect x="168.49090909090907" y="59.78181818181818" width="2" height="40.21818181818182" id="tests-vaccines-8"></rect></g><g><rect x="164.92727272727274" y="57.345454545454544" width="2" height="42.654545454545456" id="tests-vaccines-9"></rect></g><g><rect x="161.36363636363637" y="88.44545454545455" width="2" height="11.554545454545448" id="tests-vaccines-10"></rect></g><g><rect x="157.8" y="78.75" width="2" height="21.25" id="tests-vaccines-11"></rect></g><g><rect x="154.23636363636365" y="44.586363636363636" width="2" height="55.413636363636364" id="tests-vaccines-12"></rect></g><g><rect x="150.6727272727273" y="54.027272727272724" width="2" height="45.972727272727276" id="tests-vaccines-13"></rect></g><g><rect x="147.1090909090909" y="53.56363636363637" width="2" height="46.43636363636363" id="tests-vaccines-14"></rect></g><g><rect x="143.54545454545453" y="54.08636363636363" width="2" height="45.91363636363637" id="tests-vaccines-15"></rect></g><g><rect x="139.9818181818182" y="52.96363636363637" width="2" height="47.03636363636363" id="tests-vaccines-16"></rect></g><g><rect x="136.41818181818184" y="88.29090909090908" width="2" height="11.709090909090918" id="tests-vaccines-17"></rect></g><g><rect x="132.85454545454544" y="75.79090909090908" width="2" height="24.209090909090918" id="tests-vaccines-18"></rect></g><g><rect x="129.29090909090908" y="38.65" width="2" height="61.35" id="tests-vaccines-19"></rect></g><g><rect x="125.72727272727273" y="50.33181818181818" width="2" height="49.66818181818182" id="tests-vaccines-20"></rect></g><g><rect x="122.16363636363636" y="50.736363636363635" width="2" height="49.263636363636365" id="tests-vaccines-21"></rect></g><g><rect x="118.6" y="47.8" width="2" height="52.2" id="tests-vaccines-22"></rect></g><g><rect x="115.03636363636363" y="49.650000000000006" width="2" height="50.349999999999994" id="tests-vaccines-23"></rect></g><g><rect x="111.47272727272728" y="88.13181818181818" width="2" height="11.868181818181824" id="tests-vaccines-24"></rect></g><g><rect x="107.90909090909089" y="75.23181818181818" width="2" height="24.768181818181816" id="tests-vaccines-25"></rect></g><g><rect x="104.34545454545456" y="40.77272727272727" width="2" height="59.22727272727273" id="tests-vaccines-26"></rect></g><g><rect x="100.78181818181817" y="45.32727272727273" width="2" height="54.67272727272727" id="tests-vaccines-27"></rect></g><g><rect x="97.21818181818183" y="47.99545454545454" width="2" height="52.00454545454546" id="tests-vaccines-28"></rect></g><g><rect x="93.65454545454546" y="46.61363636363637" width="2" height="53.38636363636363" id="tests-vaccines-29"></rect></g><g><rect x="90.09090909090911" y="66.33636363636364" width="2" height="33.66363636363636" id="tests-vaccines-30"></rect></g><g><rect x="86.52727272727273" y="87.60454545454546" width="2" height="12.395454545454541" id="tests-vaccines-31"></rect></g><g><rect x="82.96363636363637" y="74.2" width="2" height="25.799999999999997" id="tests-vaccines-32"></rect></g><g><rect x="79.4" y="31.399999999999995" width="2" height="68.60000000000001" id="tests-vaccines-33"></rect></g><g><rect x="75.83636363636364" y="44.64090909090908" width="2" height="55.35909090909092" id="tests-vaccines-34"></rect></g><g><rect x="72.27272727272727" y="43.65" width="2" height="56.35" id="tests-vaccines-35"></rect></g><g><rect x="68.70909090909092" y="51.42727272727272" width="2" height="48.57272727272728" id="tests-vaccines-36"></rect></g><g><rect x="65.14545454545454" y="44.913636363636364" width="2" height="55.086363636363636" id="tests-vaccines-37"></rect></g><g><rect x="61.58181818181818" y="87.75909090909092" width="2" height="12.240909090909085" id="tests-vaccines-38"></rect></g><g><rect x="58.018181818181816" y="67.15454545454546" width="2" height="32.845454545454544" id="tests-vaccines-39"></rect></g><g><rect x="54.454545454545446" y="24.38636363636364" width="2" height="75.61363636363636" id="tests-vaccines-40"></rect></g><g><rect x="50.89090909090908" y="34.4" width="2" height="65.6" id="tests-vaccines-41"></rect></g><g><rect x="47.32727272727273" y="35.35909090909091" width="2" height="64.64090909090909" id="tests-vaccines-42"></rect></g><g><rect x="43.76363636363636" y="36.88636363636364" width="2" height="63.11363636363636" id="tests-vaccines-43"></rect></g><g><rect x="40.199999999999996" y="32.56818181818182" width="2" height="67.43181818181819" id="tests-vaccines-44"></rect></g><g><rect x="36.636363636363626" y="82.91363636363637" width="2" height="17.08636363636363" id="tests-vaccines-45"></rect></g><g><rect x="33.072727272727285" y="64.23181818181818" width="2" height="35.768181818181816" id="tests-vaccines-46"></rect></g><g><rect x="29.509090909090922" y="10.36818181818182" width="2" height="89.63181818181818" id="tests-vaccines-47"></rect></g><g><rect x="25.945454545454556" y="28.077272727272728" width="2" height="71.92272727272727" id="tests-vaccines-48"></rect></g><g><rect x="22.38181818181819" y="25.4" width="2" height="74.6" id="tests-vaccines-49"></rect></g><g><rect x="18.818181818181824" y="24.404545454545456" width="2" height="75.59545454545454" id="tests-vaccines-50"></rect></g><g><rect x="15.254545454545461" y="27.25909090909091" width="2" height="72.74090909090908" id="tests-vaccines-51"></rect></g><g><rect x="11.690909090909095" y="81.02727272727273" width="2" height="18.97272727272727" id="tests-vaccines-52"></rect></g><g><rect x="8.12727272727273" y="60.877272727272725" width="2" height="39.122727272727275" id="tests-vaccines-53"></rect></g><g><rect x="4.563636363636365" y="3.1636363636363685" width="2" height="96.83636363636363" id="tests-vaccines-54"></rect></g><g><rect x="1" y="19.03636363636364" width="2" height="80.96363636363637" id="tests-vaccines-55"></rect></g></g><g class="fg-line tests-vaccines" fill="none" stroke="#92c5de" stroke-width="2" stroke-linecap="round"><path d="M198,64.96363636363635L194.43636363636364,64.53116883116883L190.87272727272727,64.2461038961039L187.30909090909088,64.2435064935065L183.74545454545455,64.01948051948052L180.1818181818182,63.76428571428572L176.61818181818182,63.1448051948052L173.05454545454546,62.809740259740266L169.49090909090907,62.35714285714287L165.92727272727274,61.54350649350649L162.36363636363637,60.91753246753247L158.8,60.895454545454555L155.23636363636365,60.472727272727276L151.6727272727273,59.62467532467532L148.1090909090909,59.096753246753245L144.54545454545453,58.69285714285715L140.9818181818182,57.7948051948052L137.41818181818184,57.32142857142857L133.85454545454544,57.298701298701296L130.29090909090908,57.21883116883117L126.72727272727273,57.522077922077926L123.16363636363636,56.80714285714286L119.6,56.415584415584405L116.03636363636363,56.2461038961039L112.47272727272728,58.629870129870135L108.90909090909089,58.55454545454546L105.34545454545456,58.40714285714286L101.78181818181817,57.06818181818182L98.21818181818183,56.97012987012986L94.65454545454546,56.34935064935065L91.09090909090911,57.03701298701298L87.52727272727273,53.97662337662338L83.96363636363637,53.9987012987013L80.4,52.99220779220779L76.83636363636364,51.990259740259745L73.27272727272727,50.52727272727273L69.70909090909092,49.34285714285714L66.14545454545454,47.265584415584414L62.58181818181818,45.50194805194805L59.018181818181816,44.80974025974026L55.454545454545446,44.39220779220779L51.89090909090908,42.38961038961039L48.32727272727273,41.486363636363635L44.76363636363636,40.06363636363637L41.199999999999996,38.28051948051948L37.636363636363626,37.522077922077926L34.072727272727285,37.25259740259741L30.509090909090922,36.77337662337662L26.945454545454556,35.74415584415584L23.38181818181819,34.452597402597405L19.818181818181824,32.73701298701298L16.25454545454546,31.71688311688312L12.690909090909095,30.35584415584416L9.12727272727273,30.201948051948047L5.563636363636365,29.394155844155843L2,26.726623376623383"></path></g></svg>