<svg meta="{&quot;DATA_PUBLISHED_DATE&quot;:&quot;2022-11-17&quot;,&quot;RENDER_DATE&quot;:&quot;2022-11-17&quot;,&quot;FIRST_DATE&quot;:&quot;2022-09-14&quot;,&quot;LAST_DATE&quot;:&quot;2022-11-08&quot;}" xmlns="http://www.w3.org/2000/svg" viewBox="0,0,200,100"><g transform="translate(0,0)"></g><g class="fg-bars cases-ep" fill="#00183f" stroke="none"><g><rect x="197" y="26.21818181818182" width="2" height="73.78181818181818" id="cases-ep-0"></rect></g><g><rect x="193.43636363636364" y="8.70909090909091" width="2" height="91.29090909090908" id="cases-ep-1"></rect></g><g><rect x="189.87272727272727" y="54.96363636363637" width="2" height="45.03636363636363" id="cases-ep-2"></rect></g><g><rect x="186.30909090909088" y="55.25454545454546" width="2" height="44.74545454545454" id="cases-ep-3"></rect></g><g><rect x="182.74545454545455" y="37.85454545454545" width="2" height="62.14545454545455" id="cases-ep-4"></rect></g><g><rect x="179.1818181818182" y="36" width="2" height="64" id="cases-ep-5"></rect></g><g><rect x="175.61818181818182" y="31.654545454545456" width="2" height="68.34545454545454" id="cases-ep-6"></rect></g><g><rect x="172.05454545454546" y="26.454545454545453" width="2" height="73.54545454545455" id="cases-ep-7"></rect></g><g><rect x="168.49090909090907" y="28.654545454545456" width="2" height="71.34545454545454" id="cases-ep-8"></rect></g><g><rect x="164.92727272727274" y="63.03636363636363" width="2" height="36.96363636363637" id="cases-ep-9"></rect></g><g><rect x="161.36363636363637" y="61.945454545454545" width="2" height="38.054545454545455" id="cases-ep-10"></rect></g><g><rect x="157.8" y="48.63636363636363" width="2" height="51.36363636363637" id="cases-ep-11"></rect></g><g><rect x="154.23636363636365" y="46.32727272727273" width="2" height="53.67272727272727" id="cases-ep-12"></rect></g><g><rect x="150.6727272727273" y="45.14545454545454" width="2" height="54.85454545454546" id="cases-ep-13"></rect></g><g><rect x="147.1090909090909" y="43.127272727272725" width="2" height="56.872727272727275" id="cases-ep-14"></rect></g><g><rect x="143.54545454545453" y="37.85454545454545" width="2" height="62.14545454545455" id="cases-ep-15"></rect></g><g><rect x="139.9818181818182" y="68.45454545454545" width="2" height="31.545454545454547" id="cases-ep-16"></rect></g><g><rect x="136.41818181818184" y="67.16363636363636" width="2" height="32.83636363636364" id="cases-ep-17"></rect></g><g><rect x="132.85454545454544" y="54.45454545454545" width="2" height="45.54545454545455" id="cases-ep-18"></rect></g><g><rect x="129.29090909090908" y="49.45454545454545" width="2" height="50.54545454545455" id="cases-ep-19"></rect></g><g><rect x="125.72727272727273" y="48.05454545454545" width="2" height="51.94545454545455" id="cases-ep-20"></rect></g><g><rect x="122.16363636363636" y="43.654545454545456" width="2" height="56.345454545454544" id="cases-ep-21"></rect></g><g><rect x="118.6" y="36.4909090909091" width="2" height="63.5090909090909" id="cases-ep-22"></rect></g><g><rect x="115.03636363636363" y="68.72727272727272" width="2" height="31.27272727272728" id="cases-ep-23"></rect></g><g><rect x="111.47272727272728" y="66.05454545454546" width="2" height="33.94545454545454" id="cases-ep-24"></rect></g><g><rect x="107.90909090909089" y="53.27272727272727" width="2" height="46.72727272727273" id="cases-ep-25"></rect></g><g><rect x="104.34545454545456" y="50.36363636363637" width="2" height="49.63636363636363" id="cases-ep-26"></rect></g><g><rect x="100.78181818181817" y="46.03636363636363" width="2" height="53.96363636363637" id="cases-ep-27"></rect></g><g><rect x="97.21818181818183" y="42.90909090909091" width="2" height="57.09090909090909" id="cases-ep-28"></rect></g><g><rect x="93.65454545454546" y="37.78181818181818" width="2" height="62.21818181818182" id="cases-ep-29"></rect></g><g><rect x="90.09090909090911" y="65.98181818181818" width="2" height="34.018181818181816" id="cases-ep-30"></rect></g><g><rect x="86.52727272727273" y="62.52727272727272" width="2" height="37.47272727272728" id="cases-ep-31"></rect></g><g><rect x="82.96363636363637" y="49.490909090909085" width="2" height="50.509090909090915" id="cases-ep-32"></rect></g><g><rect x="79.4" y="47.8" width="2" height="52.2" id="cases-ep-33"></rect></g><g><rect x="75.83636363636364" y="42.85454545454546" width="2" height="57.14545454545454" id="cases-ep-34"></rect></g><g><rect x="72.27272727272727" y="36.6" width="2" height="63.4" id="cases-ep-35"></rect></g><g><rect x="68.70909090909092" y="27.109090909090906" width="2" height="72.89090909090909" id="cases-ep-36"></rect></g><g><rect x="65.14545454545454" y="62.490909090909085" width="2" height="37.509090909090915" id="cases-ep-37"></rect></g><g><rect x="61.58181818181818" y="56.054545454545455" width="2" height="43.945454545454545" id="cases-ep-38"></rect></g><g><rect x="58.018181818181816" y="41.618181818181824" width="2" height="58.381818181818176" id="cases-ep-39"></rect></g><g><rect x="54.454545454545446" y="37.67272727272727" width="2" height="62.32727272727273" id="cases-ep-40"></rect></g><g><rect x="50.89090909090908" y="28.89090909090909" width="2" height="71.10909090909091" id="cases-ep-41"></rect></g><g><rect x="47.32727272727273" y="26.727272727272723" width="2" height="73.27272727272728" id="cases-ep-42"></rect></g><g><rect x="43.76363636363636" y="14.163636363636368" width="2" height="85.83636363636363" id="cases-ep-43"></rect></g><g><rect x="40.199999999999996" y="56.472727272727276" width="2" height="43.527272727272724" id="cases-ep-44"></rect></g><g><rect x="36.636363636363626" y="53.21818181818182" width="2" height="46.78181818181818" id="cases-ep-45"></rect></g><g><rect x="33.072727272727285" y="36.836363636363636" width="2" height="63.163636363636364" id="cases-ep-46"></rect></g><g><rect x="29.509090909090922" y="32.83636363636364" width="2" height="67.16363636363636" id="cases-ep-47"></rect></g><g><rect x="25.945454545454556" y="29.81818181818182" width="2" height="70.18181818181819" id="cases-ep-48"></rect></g><g><rect x="22.38181818181819" y="22.090909090909093" width="2" height="77.9090909090909" id="cases-ep-49"></rect></g><g><rect x="18.818181818181824" y="12.2" width="2" height="87.8" id="cases-ep-50"></rect></g><g><rect x="15.254545454545461" y="54.654545454545456" width="2" height="45.345454545454544" id="cases-ep-51"></rect></g><g><rect x="11.690909090909095" y="49.63636363636363" width="2" height="50.36363636363637" id="cases-ep-52"></rect></g><g><rect x="8.12727272727273" y="30.83636363636364" width="2" height="69.16363636363636" id="cases-ep-53"></rect></g><g><rect x="4.563636363636365" y="26.54545454545455" width="2" height="73.45454545454545" id="cases-ep-54"></rect></g><g><rect x="1" y="19.490909090909092" width="2" height="80.5090909090909" id="cases-ep-55"></rect></g></g><g class="fg-line cases-ep" fill="none" stroke="#92c5de" stroke-width="2" stroke-linecap="round"><path d="M198,35.80779220779221L194.43636363636364,35.84155844155844L190.87272727272727,38.69090909090909L187.30909090909088,39.84415584415585L183.74545454545455,40.800000000000004L180.1818181818182,42.34025974025975L176.61818181818182,43.81558441558441L173.05454545454546,45.74285714285714L169.49090909090907,48.12467532467532L165.92727272727274,49.43896103896104L162.36363636363637,50.21298701298702L158.8,50.95844155844156L155.23636363636365,51.78961038961039L151.6727272727273,52.236363636363635L148.1090909090909,52.65194805194805L144.54545454545453,52.727272727272734L140.9818181818182,52.53246753246753L137.41818181818184,52.571428571428584L133.85454545454544,52.412987012987024L130.29090909090908,52.24415584415585L126.72727272727273,52.374025974025976L123.16363636363636,52.08571428571429L119.6,51.97922077922077L116.03636363636363,52.16363636363637L112.47272727272728,51.77142857142858L108.90909090909089,51.26753246753246L105.34545454545456,50.727272727272734L101.78181818181817,50.361038961038965L98.21818181818183,49.9064935064935L94.65454545454546,49.005194805194805L91.09090909090911,47.480519480519476L87.52727272727273,46.98181818181818L83.96363636363637,46.057142857142864L80.4,44.932467532467534L76.83636363636364,43.48571428571428L73.27272727272727,41.49090909090909L69.70909090909092,40.080519480519484L66.14545454545454,38.23116883116883L62.58181818181818,37.37142857142858L59.018181818181816,36.96623376623377L55.454545454545446,36.28311688311688L51.89090909090908,35.59220779220779L48.32727272727273,35.724675324675324L44.76363636363636,35.06233766233766L41.199999999999996,34.78181818181818L37.636363636363626,34.52207792207792L34.072727272727285,34.010389610389616L30.509090909090922,33.153246753246755L26.945454545454556,32.25454545454546L23.38181818181819,30.779220779220772L19.818181818181824,28.98701298701298L16.25454545454546,26.73766233766234L12.690909090909095,25.32727272727273L9.12727272727273,24.05974025974027L5.563636363636365,21.42857142857143L2,18.192207792207792"></path></g></svg>