<svg about="DATA_PUBLISHED_DATE:2021-12-22,RENDER_DATE:2021-12-22" xmlns="http://www.w3.org/2000/svg" viewBox="0,0,200,100"><g transform="translate(0,0)"></g><g class="fg-bars tests-vaccines" fill="#00183f" stroke="none"><g><rect x="197" y="37.52485714285714" width="2" height="62.47514285714286" id="tests-vaccines-0"></rect></g><g><rect x="193.43636363636364" y="40.01085714285715" width="2" height="59.98914285714285" id="tests-vaccines-1"></rect></g><g><rect x="189.87272727272727" y="81.15314285714285" width="2" height="18.846857142857147" id="tests-vaccines-2"></rect></g><g><rect x="186.30909090909088" y="55.552857142857135" width="2" height="44.447142857142865" id="tests-vaccines-3"></rect></g><g><rect x="182.74545454545455" y="22.15714285714285" width="2" height="77.84285714285716" id="tests-vaccines-4"></rect></g><g><rect x="179.1818181818182" y="29.724285714285713" width="2" height="70.27571428571429" id="tests-vaccines-5"></rect></g><g><rect x="175.61818181818182" y="27.15085714285714" width="2" height="72.84914285714285" id="tests-vaccines-6"></rect></g><g><rect x="172.05454545454546" y="26.43257142857143" width="2" height="73.56742857142856" id="tests-vaccines-7"></rect></g><g><rect x="168.49090909090907" y="31.982571428571426" width="2" height="68.01742857142858" id="tests-vaccines-8"></rect></g><g><rect x="164.92727272727274" y="77.11314285714286" width="2" height="22.88685714285714" id="tests-vaccines-9"></rect></g><g><rect x="161.36363636363637" y="48.902" width="2" height="51.098" id="tests-vaccines-10"></rect></g><g><rect x="157.8" y="10.65342857142857" width="2" height="89.34657142857142" id="tests-vaccines-11"></rect></g><g><rect x="154.23636363636365" y="20.92571428571428" width="2" height="79.07428571428572" id="tests-vaccines-12"></rect></g><g><rect x="150.6727272727273" y="22.657142857142855" width="2" height="77.34285714285714" id="tests-vaccines-13"></rect></g><g><rect x="147.1090909090909" y="30.419428571428575" width="2" height="69.58057142857143" id="tests-vaccines-14"></rect></g><g><rect x="143.54545454545453" y="39.55914285714286" width="2" height="60.44085714285714" id="tests-vaccines-15"></rect></g><g><rect x="139.9818181818182" y="81.68114285714285" width="2" height="18.318857142857155" id="tests-vaccines-16"></rect></g><g><rect x="136.41818181818184" y="67.52428571428571" width="2" height="32.47571428571429" id="tests-vaccines-17"></rect></g><g><rect x="132.85454545454544" y="56.61828571428571" width="2" height="43.38171428571429" id="tests-vaccines-18"></rect></g><g><rect x="129.29090909090908" y="98.59742857142857" width="2" height="1.4025714285714344" id="tests-vaccines-19"></rect></g><g><rect x="125.72727272727273" y="41.69085714285714" width="2" height="58.30914285714286" id="tests-vaccines-20"></rect></g><g><rect x="122.16363636363636" y="30.638571428571424" width="2" height="69.36142857142858" id="tests-vaccines-21"></rect></g><g><rect x="118.6" y="34.01285714285714" width="2" height="65.98714285714286" id="tests-vaccines-22"></rect></g><g><rect x="115.03636363636363" y="79.22371428571428" width="2" height="20.77628571428572" id="tests-vaccines-23"></rect></g><g><rect x="111.47272727272728" y="55.228" width="2" height="44.772" id="tests-vaccines-24"></rect></g><g><rect x="107.90909090909089" y="23.30942857142857" width="2" height="76.69057142857143" id="tests-vaccines-25"></rect></g><g><rect x="104.34545454545456" y="35.31314285714286" width="2" height="64.68685714285715" id="tests-vaccines-26"></rect></g><g><rect x="100.78181818181817" y="34.11571428571428" width="2" height="65.88428571428571" id="tests-vaccines-27"></rect></g><g><rect x="97.21818181818183" y="35.55914285714286" width="2" height="64.44085714285714" id="tests-vaccines-28"></rect></g><g><rect x="93.65454545454546" y="41.20914285714286" width="2" height="58.79085714285714" id="tests-vaccines-29"></rect></g><g><rect x="90.09090909090911" y="79.65828571428571" width="2" height="20.34171428571429" id="tests-vaccines-30"></rect></g><g><rect x="86.52727272727273" y="57.61828571428571" width="2" height="42.38171428571429" id="tests-vaccines-31"></rect></g><g><rect x="82.96363636363637" y="26.137714285714285" width="2" height="73.86228571428572" id="tests-vaccines-32"></rect></g><g><rect x="79.4" y="37.98657142857142" width="2" height="62.01342857142858" id="tests-vaccines-33"></rect></g><g><rect x="75.83636363636364" y="35.46942857142857" width="2" height="64.53057142857142" id="tests-vaccines-34"></rect></g><g><rect x="72.27272727272727" y="37.87914285714285" width="2" height="62.12085714285715" id="tests-vaccines-35"></rect></g><g><rect x="68.70909090909092" y="42.859142857142864" width="2" height="57.140857142857136" id="tests-vaccines-36"></rect></g><g><rect x="65.14545454545454" y="80.692" width="2" height="19.308000000000007" id="tests-vaccines-37"></rect></g><g><rect x="61.58181818181818" y="63.31428571428571" width="2" height="36.68571428571429" id="tests-vaccines-38"></rect></g><g><rect x="58.018181818181816" y="30.503142857142862" width="2" height="69.49685714285714" id="tests-vaccines-39"></rect></g><g><rect x="54.454545454545446" y="43.412285714285716" width="2" height="56.587714285714284" id="tests-vaccines-40"></rect></g><g><rect x="50.89090909090908" y="45.880857142857145" width="2" height="54.119142857142855" id="tests-vaccines-41"></rect></g><g><rect x="47.32727272727273" y="45.79742857142857" width="2" height="54.20257142857143" id="tests-vaccines-42"></rect></g><g><rect x="43.76363636363636" y="49.09285714285714" width="2" height="50.90714285714286" id="tests-vaccines-43"></rect></g><g><rect x="40.199999999999996" y="85.49057142857143" width="2" height="14.509428571428572" id="tests-vaccines-44"></rect></g><g><rect x="36.636363636363626" y="70.48857142857143" width="2" height="29.511428571428567" id="tests-vaccines-45"></rect></g><g><rect x="33.072727272727285" y="37.523428571428575" width="2" height="62.476571428571425" id="tests-vaccines-46"></rect></g><g><rect x="29.509090909090922" y="47.95342857142857" width="2" height="52.04657142857143" id="tests-vaccines-47"></rect></g><g><rect x="25.945454545454556" y="47.89114285714285" width="2" height="52.10885714285715" id="tests-vaccines-48"></rect></g><g><rect x="22.38181818181819" y="48.46828571428572" width="2" height="51.53171428571428" id="tests-vaccines-49"></rect></g><g><rect x="18.818181818181824" y="53.360285714285716" width="2" height="46.639714285714284" id="tests-vaccines-50"></rect></g><g><rect x="15.254545454545461" y="86.432" width="2" height="13.567999999999998" id="tests-vaccines-51"></rect></g><g><rect x="11.690909090909095" y="73.50171428571429" width="2" height="26.498285714285714" id="tests-vaccines-52"></rect></g><g><rect x="8.12727272727273" y="53.47228571428572" width="2" height="46.52771428571428" id="tests-vaccines-53"></rect></g><g><rect x="4.563636363636365" y="72.37199999999999" width="2" height="27.628000000000014" id="tests-vaccines-54"></rect></g><g><rect x="1" y="73.45057142857144" width="2" height="26.549428571428564" id="tests-vaccines-55"></rect></g></g><g class="fg-line tests-vaccines" fill="none" stroke="#92c5de" stroke-width="2" stroke-linecap="round"><path d="M198,41.89628571428572L194.43636363636364,40.311673469387756L190.87272727272727,39.16477551020409L187.30909090909088,38.58763265306122L183.74545454545455,37.637510204081636L180.1818181818182,35.994122448979596L176.61818181818182,34.737183673469396L173.05454545454546,34.09522448979592L169.49090909090907,34.66477551020408L165.92727272727274,35.747142857142855L162.36363636363637,36.39971428571429L158.8,39.060040816326534L155.23636363636365,45.626448979591835L151.6727272727273,56.7224081632653L148.1090909090909,59.44151020408164L144.54545454545453,59.472816326530605L140.9818181818182,58.68048979591837L137.41818181818184,58.32942857142858L133.85454545454544,56.57281632653061L130.29090909090908,51.8144081632653L126.72727272727273,42.77379591836734L123.16363636363636,41.69163265306123L119.6,42.394571428571425L116.03636363636363,43.42261224489796L112.47272727272728,43.48469387755103L108.90909090909089,43.826163265306114L105.34545454545456,44.23020408163265L101.78181818181817,44.6121224489796L98.21818181818183,44.805510204081635L94.65454545454546,45.1369387755102L91.09090909090911,45.37265306122449L87.52727272727273,45.52032653061225L83.96363636363637,46.334040816326535L80.4,46.95767346938775L76.83636363636364,47.732775510204085L73.27272727272727,49.220122448979595L69.70909090909092,50.35130612244898L66.14545454545454,51.24183673469388L62.58181818181818,51.92734693877551L59.018181818181816,52.952244897959176L55.454545454545446,53.95514285714286L51.89090909090908,54.60387755102041L48.32727272727273,54.89106122448979L44.76363636363636,55.27261224489797L41.199999999999996,55.88224489795919L37.636363636363626,56.01673469387756L34.072727272727285,56.44718367346939L30.509090909090922,58.725591836734694L26.945454545454556,62.213959183673474L23.38181818181819,65.86530612244898L19.818181818181824,69.31306122448979L16.25454545454546,71.89604081632652L12.690909090909095,72.58338775510205L9.12727272727273,73.95677551020408L5.563636363636365,75.44432653061224L2,75.27473469387755"></path></g></svg>