<svg about="DATA_PUBLISHED_DATE:2022-01-28,RENDER_DATE:2022-01-28" xmlns="http://www.w3.org/2000/svg" viewBox="0,0,200,100"><g transform="translate(0,0)"></g><g class="fg-bars tests-vaccines" fill="#00183f" stroke="none"><g><rect x="197" y="57.98314285714285" width="2" height="42.01685714285715" id="tests-vaccines-0"></rect></g><g><rect x="193.43636363636364" y="55.83514285714286" width="2" height="44.16485714285714" id="tests-vaccines-1"></rect></g><g><rect x="189.87272727272727" y="54.998285714285714" width="2" height="45.001714285714286" id="tests-vaccines-2"></rect></g><g><rect x="186.30909090909088" y="61.79371428571429" width="2" height="38.20628571428571" id="tests-vaccines-3"></rect></g><g><rect x="182.74545454545455" y="85.05171428571428" width="2" height="14.948285714285717" id="tests-vaccines-4"></rect></g><g><rect x="179.1818181818182" y="68.27657142857143" width="2" height="31.72342857142857" id="tests-vaccines-5"></rect></g><g><rect x="175.61818181818182" y="38.054" width="2" height="61.946" id="tests-vaccines-6"></rect></g><g><rect x="172.05454545454546" y="47.145428571428575" width="2" height="52.854571428571425" id="tests-vaccines-7"></rect></g><g><rect x="168.49090909090907" y="45.13828571428572" width="2" height="54.86171428571428" id="tests-vaccines-8"></rect></g><g><rect x="164.92727272727274" y="43.96942857142857" width="2" height="56.03057142857143" id="tests-vaccines-9"></rect></g><g><rect x="161.36363636363637" y="47.38714285714286" width="2" height="52.61285714285714" id="tests-vaccines-10"></rect></g><g><rect x="157.8" y="82.11171428571429" width="2" height="17.888285714285715" id="tests-vaccines-11"></rect></g><g><rect x="154.23636363636365" y="58.16228571428572" width="2" height="41.83771428571428" id="tests-vaccines-12"></rect></g><g><rect x="150.6727272727273" y="24.47742857142857" width="2" height="75.52257142857142" id="tests-vaccines-13"></rect></g><g><rect x="147.1090909090909" y="34.540285714285716" width="2" height="65.45971428571428" id="tests-vaccines-14"></rect></g><g><rect x="143.54545454545453" y="37.04885714285714" width="2" height="62.95114285714286" id="tests-vaccines-15"></rect></g><g><rect x="139.9818181818182" y="38.21914285714286" width="2" height="61.78085714285714" id="tests-vaccines-16"></rect></g><g><rect x="136.41818181818184" y="43.007428571428576" width="2" height="56.992571428571424" id="tests-vaccines-17"></rect></g><g><rect x="132.85454545454544" y="84.64457142857142" width="2" height="15.355428571428575" id="tests-vaccines-18"></rect></g><g><rect x="129.29090909090908" y="97.75771428571429" width="2" height="2.242285714285714" id="tests-vaccines-19"></rect></g><g><rect x="125.72727272727273" y="78.24085714285715" width="2" height="21.759142857142848" id="tests-vaccines-20"></rect></g><g><rect x="122.16363636363636" y="36.01314285714285" width="2" height="63.98685714285715" id="tests-vaccines-21"></rect></g><g><rect x="118.6" y="31.279999999999998" width="2" height="68.72" id="tests-vaccines-22"></rect></g><g><rect x="115.03636363636363" y="31.19114285714286" width="2" height="68.80885714285714" id="tests-vaccines-23"></rect></g><g><rect x="111.47272727272728" y="39.78571428571429" width="2" height="60.21428571428571" id="tests-vaccines-24"></rect></g><g><rect x="107.90909090909089" y="84.02114285714286" width="2" height="15.978857142857137" id="tests-vaccines-25"></rect></g><g><rect x="104.34545454545456" y="99.73771428571429" width="2" height="0.26228571428571" id="tests-vaccines-26"></rect></g><g><rect x="100.78181818181817" y="87.03628571428571" width="2" height="12.963714285714289" id="tests-vaccines-27"></rect></g><g><rect x="97.21818181818183" y="37.88371428571429" width="2" height="62.11628571428571" id="tests-vaccines-28"></rect></g><g><rect x="93.65454545454546" y="26.810000000000002" width="2" height="73.19" id="tests-vaccines-29"></rect></g><g><rect x="90.09090909090911" y="24.739714285714285" width="2" height="75.26028571428571" id="tests-vaccines-30"></rect></g><g><rect x="86.52727272727273" y="29.767999999999994" width="2" height="70.232" id="tests-vaccines-31"></rect></g><g><rect x="82.96363636363637" y="79.26657142857142" width="2" height="20.733428571428576" id="tests-vaccines-32"></rect></g><g><rect x="79.4" y="58.96514285714285" width="2" height="41.03485714285715" id="tests-vaccines-33"></rect></g><g><rect x="75.83636363636364" y="25.464" width="2" height="74.536" id="tests-vaccines-34"></rect></g><g><rect x="72.27272727272727" y="34.660000000000004" width="2" height="65.34" id="tests-vaccines-35"></rect></g><g><rect x="68.70909090909092" y="33.19657142857143" width="2" height="66.80342857142857" id="tests-vaccines-36"></rect></g><g><rect x="65.14545454545454" y="34.958" width="2" height="65.042" id="tests-vaccines-37"></rect></g><g><rect x="61.58181818181818" y="37.728571428571435" width="2" height="62.271428571428565" id="tests-vaccines-38"></rect></g><g><rect x="58.018181818181816" y="79.71314285714286" width="2" height="20.286857142857144" id="tests-vaccines-39"></rect></g><g><rect x="54.454545454545446" y="53.815999999999995" width="2" height="46.184000000000005" id="tests-vaccines-40"></rect></g><g><rect x="50.89090909090908" y="19.072857142857146" width="2" height="80.92714285714285" id="tests-vaccines-41"></rect></g><g><rect x="47.32727272727273" y="27.27914285714286" width="2" height="72.72085714285714" id="tests-vaccines-42"></rect></g><g><rect x="43.76363636363636" y="24.86857142857143" width="2" height="75.13142857142857" id="tests-vaccines-43"></rect></g><g><rect x="40.199999999999996" y="25.011142857142854" width="2" height="74.98885714285714" id="tests-vaccines-44"></rect></g><g><rect x="36.636363636363626" y="30.427142857142854" width="2" height="69.57285714285715" id="tests-vaccines-45"></rect></g><g><rect x="33.072727272727285" y="76.0762857142857" width="2" height="23.923714285714297" id="tests-vaccines-46"></rect></g><g><rect x="29.509090909090922" y="47.24628571428572" width="2" height="52.75371428571428" id="tests-vaccines-47"></rect></g><g><rect x="25.945454545454556" y="8.272571428571428" width="2" height="91.72742857142858" id="tests-vaccines-48"></rect></g><g><rect x="22.38181818181819" y="19.16771428571429" width="2" height="80.83228571428572" id="tests-vaccines-49"></rect></g><g><rect x="18.818181818181824" y="21.087142857142858" width="2" height="78.91285714285715" id="tests-vaccines-50"></rect></g><g><rect x="15.254545454545461" y="28.970285714285716" width="2" height="71.02971428571428" id="tests-vaccines-51"></rect></g><g><rect x="11.690909090909095" y="38.56771428571428" width="2" height="61.43228571428572" id="tests-vaccines-52"></rect></g><g><rect x="8.12727272727273" y="81.48342857142858" width="2" height="18.516571428571424" id="tests-vaccines-53"></rect></g><g><rect x="4.563636363636365" y="67.16571428571429" width="2" height="32.83428571428571" id="tests-vaccines-54"></rect></g><g><rect x="1" y="56.08314285714287" width="2" height="43.91685714285713" id="tests-vaccines-55"></rect></g></g><g class="fg-line tests-vaccines" fill="none" stroke="#92c5de" stroke-width="2" stroke-linecap="round"><path d="M198,60.28465306122449L194.43636363636364,58.73640816326531L190.87272727272727,57.20828571428571L187.30909090909088,55.63273469387755L183.74545454545455,53.57465306122449L180.1818181818182,53.15465306122449L176.61818181818182,51.70975510204082L173.05454545454546,49.77024489795918L169.49090909090907,47.96951020408164L165.92727272727274,46.81387755102041L162.36363636363637,45.99240816326531L158.8,45.366734693877554L155.23636363636365,45.72857142857143L151.6727272727273,51.3850612244898L148.1090909090909,59.06555102040816L144.54545454545453,59.275959183673464L140.9818181818182,58.45183673469387L137.41818181818184,57.44783673469388L133.85454545454544,56.987591836734694L130.29090909090908,56.898530612244905L126.72727272727273,57.181387755102044L123.16363636363636,58.437877551020414L119.6,58.705102040816314L116.03636363636363,58.06653061224489L112.47272727272728,57.14489795918367L108.90909090909089,55.713795918367346L105.34545454545456,55.034571428571425L101.78181818181817,49.20991836734694L98.21818181818183,40.413877551020406L94.65454545454546,39.95334693877551L91.09090909090911,40.86571428571428L87.52727272727273,42.32546938775511L83.96363636363637,43.46269387755102L80.4,43.526489795918366L76.83636363636364,42.79089795918368L73.27272727272727,41.877877551020404L69.70909090909092,40.823469387755104L66.14545454545454,39.63375510204082L62.58181818181818,38.212775510204075L59.018181818181816,37.169714285714285L55.454545454545446,36.65016326530613L51.89090909090908,35.71163265306122L48.32727272727273,34.168734693877546L44.76363636363636,33.009959183673466L41.199999999999996,32.46975510204082L37.636363636363626,33.03534693877551L34.072727272727285,34.19828571428572L30.509090909090922,34.970734693877546L26.945454545454556,37.816367346938776L23.38181818181819,44.64644897959184L19.818181818181824,55.98979591836735L16.25454545454546,58.84767346938775L12.690909090909095,58.969142857142856L9.12727272727273,58.18208163265306L5.563636363636365,57.790000000000006L2,56.03"></path></g></svg>