<svg about="DATA_PUBLISHED_DATE:2021-09-23,RENDER_DATE:2021-09-23" xmlns="http://www.w3.org/2000/svg" viewBox="0,0,200,100"><g transform="translate(0,0)"></g><g class="fg-bars tests-vaccines" fill="#00183f" stroke="none"><g><rect x="197" y="40.51615384615385" width="2" height="59.48384615384615" id="tests-vaccines-0"></rect></g><g><rect x="193.43636363636364" y="39.723846153846154" width="2" height="60.276153846153846" id="tests-vaccines-1"></rect></g><g><rect x="189.87272727272727" y="36.637692307692305" width="2" height="63.362307692307695" id="tests-vaccines-2"></rect></g><g><rect x="186.30909090909088" y="73.30923076923077" width="2" height="26.690769230769234" id="tests-vaccines-3"></rect></g><g><rect x="182.74545454545455" y="52.503846153846155" width="2" height="47.496153846153845" id="tests-vaccines-4"></rect></g><g><rect x="179.1818181818182" y="19.046153846153846" width="2" height="80.95384615384616" id="tests-vaccines-5"></rect></g><g><rect x="175.61818181818182" y="33.75538461538462" width="2" height="66.24461538461537" id="tests-vaccines-6"></rect></g><g><rect x="172.05454545454546" y="32.97692307692308" width="2" height="67.02307692307693" id="tests-vaccines-7"></rect></g><g><rect x="168.49090909090907" y="26.116923076923083" width="2" height="73.88307692307691" id="tests-vaccines-8"></rect></g><g><rect x="164.92727272727274" y="85.39076923076922" width="2" height="14.609230769230777" id="tests-vaccines-9"></rect></g><g><rect x="161.36363636363637" y="71.18230769230769" width="2" height="28.81769230769231" id="tests-vaccines-10"></rect></g><g><rect x="157.8" y="51.67846153846154" width="2" height="48.32153846153846" id="tests-vaccines-11"></rect></g><g><rect x="154.23636363636365" y="11.326153846153842" width="2" height="88.67384615384616" id="tests-vaccines-12"></rect></g><g><rect x="150.6727272727273" y="29.312307692307694" width="2" height="70.6876923076923" id="tests-vaccines-13"></rect></g><g><rect x="147.1090909090909" y="27.33" width="2" height="72.67" id="tests-vaccines-14"></rect></g><g><rect x="143.54545454545453" y="24.255384615384614" width="2" height="75.74461538461539" id="tests-vaccines-15"></rect></g><g><rect x="139.9818181818182" y="23.15769230769231" width="2" height="76.84230769230768" id="tests-vaccines-16"></rect></g><g><rect x="136.41818181818184" y="67.37615384615385" width="2" height="32.623846153846145" id="tests-vaccines-17"></rect></g><g><rect x="132.85454545454544" y="40.41692307692307" width="2" height="59.58307692307693" id="tests-vaccines-18"></rect></g><g><rect x="129.29090909090908" y="2.2515384615384604" width="2" height="97.74846153846154" id="tests-vaccines-19"></rect></g><g><rect x="125.72727272727273" y="20.43076923076923" width="2" height="79.56923076923077" id="tests-vaccines-20"></rect></g><g><rect x="122.16363636363636" y="21.40384615384615" width="2" height="78.59615384615385" id="tests-vaccines-21"></rect></g><g><rect x="118.6" y="18.353076923076927" width="2" height="81.64692307692307" id="tests-vaccines-22"></rect></g><g><rect x="115.03636363636363" y="18.87923076923077" width="2" height="81.12076923076923" id="tests-vaccines-23"></rect></g><g><rect x="111.47272727272728" y="67.83769230769231" width="2" height="32.16230769230769" id="tests-vaccines-24"></rect></g><g><rect x="107.90909090909089" y="42.04692307692308" width="2" height="57.95307692307692" id="tests-vaccines-25"></rect></g><g><rect x="104.34545454545456" y="3.0861538461538496" width="2" height="96.91384615384615" id="tests-vaccines-26"></rect></g><g><rect x="100.78181818181817" y="22.181538461538462" width="2" height="77.81846153846153" id="tests-vaccines-27"></rect></g><g><rect x="97.21818181818183" y="21.844615384615384" width="2" height="78.15538461538462" id="tests-vaccines-28"></rect></g><g><rect x="93.65454545454546" y="21.70923076923077" width="2" height="78.29076923076923" id="tests-vaccines-29"></rect></g><g><rect x="90.09090909090911" y="25.58615384615385" width="2" height="74.41384615384615" id="tests-vaccines-30"></rect></g><g><rect x="86.52727272727273" y="68.93153846153845" width="2" height="31.06846153846155" id="tests-vaccines-31"></rect></g><g><rect x="82.96363636363637" y="44.16" width="2" height="55.84" id="tests-vaccines-32"></rect></g><g><rect x="79.4" y="14.38307692307692" width="2" height="85.61692307692309" id="tests-vaccines-33"></rect></g><g><rect x="75.83636363636364" y="32.36769230769231" width="2" height="67.63230769230769" id="tests-vaccines-34"></rect></g><g><rect x="72.27272727272727" y="35.893846153846155" width="2" height="64.10615384615384" id="tests-vaccines-35"></rect></g><g><rect x="68.70909090909092" y="29.916923076923073" width="2" height="70.08307692307693" id="tests-vaccines-36"></rect></g><g><rect x="65.14545454545454" y="32.54846153846154" width="2" height="67.45153846153846" id="tests-vaccines-37"></rect></g><g><rect x="61.58181818181818" y="73.11846153846153" width="2" height="26.88153846153847" id="tests-vaccines-38"></rect></g><g><rect x="58.018181818181816" y="50.80692307692307" width="2" height="49.19307692307693" id="tests-vaccines-39"></rect></g><g><rect x="54.454545454545446" y="19.549230769230775" width="2" height="80.45076923076923" id="tests-vaccines-40"></rect></g><g><rect x="50.89090909090908" y="33.55076923076923" width="2" height="66.44923076923078" id="tests-vaccines-41"></rect></g><g><rect x="47.32727272727273" y="34.96153846153847" width="2" height="65.03846153846153" id="tests-vaccines-42"></rect></g><g><rect x="43.76363636363636" y="31.189999999999994" width="2" height="68.81" id="tests-vaccines-43"></rect></g><g><rect x="40.199999999999996" y="38.51" width="2" height="61.49" id="tests-vaccines-44"></rect></g><g><rect x="36.636363636363626" y="76.79615384615384" width="2" height="23.203846153846158" id="tests-vaccines-45"></rect></g><g><rect x="33.072727272727285" y="54.05846153846154" width="2" height="45.94153846153846" id="tests-vaccines-46"></rect></g><g><rect x="29.509090909090922" y="25.95384615384615" width="2" height="74.04615384615386" id="tests-vaccines-47"></rect></g><g><rect x="25.945454545454556" y="37.35846153846154" width="2" height="62.64153846153846" id="tests-vaccines-48"></rect></g><g><rect x="22.38181818181819" y="35.26615384615385" width="2" height="64.73384615384614" id="tests-vaccines-49"></rect></g><g><rect x="18.818181818181824" y="34.63846153846154" width="2" height="65.36153846153846" id="tests-vaccines-50"></rect></g><g><rect x="15.254545454545461" y="44.64846153846154" width="2" height="55.35153846153846" id="tests-vaccines-51"></rect></g><g><rect x="11.690909090909095" y="80.27923076923076" width="2" height="19.720769230769235" id="tests-vaccines-52"></rect></g><g><rect x="8.12727272727273" y="56.85076923076924" width="2" height="43.14923076923076" id="tests-vaccines-53"></rect></g><g><rect x="4.563636363636365" y="29.405384615384612" width="2" height="70.5946153846154" id="tests-vaccines-54"></rect></g><g><rect x="1" y="40.32692307692308" width="2" height="59.67307692307692" id="tests-vaccines-55"></rect></g></g><g class="fg-line tests-vaccines" fill="none" stroke="#92c5de" stroke-width="2" stroke-linecap="round"><path d="M198,42.21318681318681L194.43636363636364,41.136153846153846L190.87272727272727,39.19230769230769L187.30909090909088,46.15703296703296L183.74545454545455,45.85318681318681L180.1818181818182,45.73527472527472L176.61818181818182,44.63241758241758L173.05454545454546,43.997692307692304L169.49090909090907,43.190989010989014L165.92727272727274,42.92505494505495L162.36363636363637,34.034615384615385L158.8,33.49087912087912L155.23636363636365,31.88208791208792L151.6727272727273,30.585714285714282L148.1090909090909,29.316923076923075L144.54545454545453,28.470329670329665L140.9818181818182,27.62714285714285L137.41818181818184,27.015934065934065L133.85454545454544,27.081868131868127L130.29090909090908,27.31472527472527L126.72727272727273,27.433956043956044L123.16363636363636,27.684065934065927L119.6,27.74703296703297L116.03636363636363,28.226483516483512L112.47272727272728,29.184615384615388L108.90909090909089,29.340879120879116L105.34545454545456,29.64274725274726L101.78181818181817,31.256593406593414L98.21818181818183,32.71175824175824L94.65454545454546,34.7187912087912L91.09090909090911,35.89131868131869L87.52727272727273,36.885934065934066L83.96363636363637,37.48406593406594L80.4,38.433626373626375L76.83636363636364,39.171648351648344L73.27272727272727,39.34065934065934L69.70909090909092,39.20747252747253L66.14545454545454,39.389340659340654L62.58181818181818,40.240989010989004L59.018181818181816,40.76637362637362L55.454545454545446,41.230879120879116L51.89090909090908,42.145824175824174L48.32727272727273,42.689780219780225L44.76363636363636,42.733296703296695L41.199999999999996,43.22593406593407L37.636363636363626,44.10285714285715L34.072727272727285,44.60043956043956L30.509090909090922,44.99934065934066L26.945454545454556,45.49241758241757L23.38181818181819,45.91648351648351L19.818181818181824,46.68230769230769L16.25454545454546,47.3078021978022L12.690909090909095,47.590109890109886L9.12727272727273,47.48923076923077L5.563636363636365,47.56142857142858L2,48.244835164835166"></path></g></svg>