<svg about="DATA_PUBLISHED_DATE:2021-11-13,RENDER_DATE:2021-11-13" xmlns="http://www.w3.org/2000/svg" viewBox="0,0,200,100"><g transform="translate(0,0)"></g><g class="fg-bars cases-ep" fill="#00183f" stroke="none"><g><rect x="197" y="51.79090909090909" width="2" height="48.20909090909091" id="cases-ep-0"></rect></g><g><rect x="193.43636363636364" y="48.518181818181816" width="2" height="51.481818181818184" id="cases-ep-1"></rect></g><g><rect x="189.87272727272727" y="46.290909090909096" width="2" height="53.709090909090904" id="cases-ep-2"></rect></g><g><rect x="186.30909090909088" y="38.654545454545456" width="2" height="61.345454545454544" id="cases-ep-3"></rect></g><g><rect x="182.74545454545455" y="72.23636363636363" width="2" height="27.763636363636365" id="cases-ep-4"></rect></g><g><rect x="179.1818181818182" y="67.25454545454545" width="2" height="32.74545454545455" id="cases-ep-5"></rect></g><g><rect x="175.61818181818182" y="52.400000000000006" width="2" height="47.599999999999994" id="cases-ep-6"></rect></g><g><rect x="172.05454545454546" y="47.70909090909091" width="2" height="52.29090909090909" id="cases-ep-7"></rect></g><g><rect x="168.49090909090907" y="42.118181818181824" width="2" height="57.881818181818176" id="cases-ep-8"></rect></g><g><rect x="164.92727272727274" y="39.71818181818182" width="2" height="60.28181818181818" id="cases-ep-9"></rect></g><g><rect x="161.36363636363637" y="35.67272727272728" width="2" height="64.32727272727271" id="cases-ep-10"></rect></g><g><rect x="157.8" y="68.64545454545454" width="2" height="31.35454545454546" id="cases-ep-11"></rect></g><g><rect x="154.23636363636365" y="64.25454545454545" width="2" height="35.74545454545455" id="cases-ep-12"></rect></g><g><rect x="150.6727272727273" y="46.61818181818182" width="2" height="53.38181818181818" id="cases-ep-13"></rect></g><g><rect x="147.1090909090909" y="47.21818181818181" width="2" height="52.78181818181819" id="cases-ep-14"></rect></g><g><rect x="143.54545454545453" y="43.89090909090909" width="2" height="56.10909090909091" id="cases-ep-15"></rect></g><g><rect x="139.9818181818182" y="42.85454545454546" width="2" height="57.14545454545454" id="cases-ep-16"></rect></g><g><rect x="136.41818181818184" y="36.68181818181818" width="2" height="63.31818181818182" id="cases-ep-17"></rect></g><g><rect x="132.85454545454544" y="67.95454545454545" width="2" height="32.04545454545455" id="cases-ep-18"></rect></g><g><rect x="129.29090909090908" y="67.5" width="2" height="32.5" id="cases-ep-19"></rect></g><g><rect x="125.72727272727273" y="52.64545454545455" width="2" height="47.35454545454545" id="cases-ep-20"></rect></g><g><rect x="122.16363636363636" y="52.56363636363637" width="2" height="47.43636363636363" id="cases-ep-21"></rect></g><g><rect x="118.6" y="49.37272727272727" width="2" height="50.62727272727273" id="cases-ep-22"></rect></g><g><rect x="115.03636363636363" y="47.57272727272728" width="2" height="52.42727272727272" id="cases-ep-23"></rect></g><g><rect x="111.47272727272728" y="47.909090909090914" width="2" height="52.090909090909086" id="cases-ep-24"></rect></g><g><rect x="107.90909090909089" y="70.46363636363637" width="2" height="29.53636363636363" id="cases-ep-25"></rect></g><g><rect x="104.34545454545456" y="68.41818181818182" width="2" height="31.58181818181818" id="cases-ep-26"></rect></g><g><rect x="100.78181818181817" y="53.372727272727275" width="2" height="46.627272727272725" id="cases-ep-27"></rect></g><g><rect x="97.21818181818183" y="52.19090909090909" width="2" height="47.80909090909091" id="cases-ep-28"></rect></g><g><rect x="93.65454545454546" y="45.85454545454546" width="2" height="54.14545454545454" id="cases-ep-29"></rect></g><g><rect x="90.09090909090911" y="43.85454545454546" width="2" height="56.14545454545454" id="cases-ep-30"></rect></g><g><rect x="86.52727272727273" y="38.68181818181819" width="2" height="61.31818181818181" id="cases-ep-31"></rect></g><g><rect x="82.96363636363637" y="69.5" width="2" height="30.5" id="cases-ep-32"></rect></g><g><rect x="79.4" y="66.87272727272727" width="2" height="33.127272727272725" id="cases-ep-33"></rect></g><g><rect x="75.83636363636364" y="48.3" width="2" height="51.7" id="cases-ep-34"></rect></g><g><rect x="72.27272727272727" y="47.8" width="2" height="52.2" id="cases-ep-35"></rect></g><g><rect x="68.70909090909092" y="43.89999999999999" width="2" height="56.10000000000001" id="cases-ep-36"></rect></g><g><rect x="65.14545454545454" y="39.081818181818186" width="2" height="60.918181818181814" id="cases-ep-37"></rect></g><g><rect x="61.58181818181818" y="31.200000000000006" width="2" height="68.8" id="cases-ep-38"></rect></g><g><rect x="58.018181818181816" y="66.19999999999999" width="2" height="33.80000000000001" id="cases-ep-39"></rect></g><g><rect x="54.454545454545446" y="61.95454545454546" width="2" height="38.04545454545454" id="cases-ep-40"></rect></g><g><rect x="50.89090909090908" y="44.54545454545455" width="2" height="55.45454545454545" id="cases-ep-41"></rect></g><g><rect x="47.32727272727273" y="41.345454545454544" width="2" height="58.654545454545456" id="cases-ep-42"></rect></g><g><rect x="43.76363636363636" y="33.409090909090914" width="2" height="66.5909090909091" id="cases-ep-43"></rect></g><g><rect x="40.199999999999996" y="32.23636363636364" width="2" height="67.76363636363635" id="cases-ep-44"></rect></g><g><rect x="36.636363636363626" y="20.372727272727275" width="2" height="79.62727272727273" id="cases-ep-45"></rect></g><g><rect x="33.072727272727285" y="62.64545454545454" width="2" height="37.35454545454546" id="cases-ep-46"></rect></g><g><rect x="29.509090909090922" y="55.82727272727273" width="2" height="44.17272727272727" id="cases-ep-47"></rect></g><g><rect x="25.945454545454556" y="33.99090909090909" width="2" height="66.0090909090909" id="cases-ep-48"></rect></g><g><rect x="22.38181818181819" y="28.781818181818185" width="2" height="71.21818181818182" id="cases-ep-49"></rect></g><g><rect x="18.818181818181824" y="20.399999999999995" width="2" height="79.60000000000001" id="cases-ep-50"></rect></g><g><rect x="15.254545454545461" y="14.800000000000002" width="2" height="85.2" id="cases-ep-51"></rect></g><g><rect x="11.690909090909095" y="6.172727272727274" width="2" height="93.82727272727273" id="cases-ep-52"></rect></g><g><rect x="8.12727272727273" y="51.90909090909091" width="2" height="48.09090909090909" id="cases-ep-53"></rect></g><g><rect x="4.563636363636365" y="43.75454545454546" width="2" height="56.24545454545454" id="cases-ep-54"></rect></g><g><rect x="1" y="16.027272727272724" width="2" height="83.97272727272727" id="cases-ep-55"></rect></g></g><g class="fg-line cases-ep" fill="none" stroke="#92c5de" stroke-width="2" stroke-linecap="round"><path d="M198,53.87792207792208L194.43636363636364,53.29480519480519L190.87272727272727,52.38051948051948L187.30909090909088,51.44155844155844L183.74545454545455,51.015584415584414L180.1818181818182,50.5025974025974L176.61818181818182,50.07402597402597L173.05454545454546,49.24805194805195L169.49090909090907,49.17792207792208L165.92727272727274,49.43116883116884L162.36363636363637,49.87922077922078L158.8,50.02337662337661L155.23636363636365,49.92467532467531L151.6727272727273,50.38831168831168L148.1090909090909,51.24935064935065L144.54545454545453,52.012987012987026L140.9818181818182,52.796103896103894L137.41818181818184,53.47012987012987L133.85454545454544,55.07402597402597L130.29090909090908,55.432467532467534L126.72727272727273,55.56363636363637L123.16363636363636,55.66753246753247L119.6,55.61428571428571L116.03636363636363,55.11168831168831L112.47272727272728,54.580519480519484L108.90909090909089,53.262337662337664L105.34545454545456,53.124675324675316L101.78181818181817,52.903896103896095L98.21818181818183,52.17922077922077L94.65454545454546,51.551948051948045L91.09090909090911,51.272727272727266L87.52727272727273,50.590909090909086L83.96363636363637,49.522077922077926L80.4,49.050649350649344L76.83636363636364,48.34805194805195L73.27272727272727,47.811688311688314L69.70909090909092,46.88961038961039L66.14545454545454,45.39090909090909L62.58181818181818,44.41298701298702L59.018181818181816,42.866233766233776L55.454545454545446,42.35844155844156L51.89090909090908,41.48311688311688L48.32727272727273,39.97532467532467L44.76363636363636,38.18051948051948L41.199999999999996,36.32207792207792L37.636363636363626,33.83116883116883L34.072727272727285,31.80259740259741L30.509090909090922,30.268831168831166L26.945454545454556,28.54415584415585L23.38181818181819,25.977922077922077L19.818181818181824,23.02727272727273L16.25454545454546,19.82337662337663L12.690909090909095,16.003896103896096L9.12727272727273,20.840259740259736L5.563636363636365,20.809090909090912L2,20.15714285714285"></path></g></svg>