<svg meta="{&quot;DATA_PUBLISHED_DATE&quot;:&quot;2022-03-17&quot;,&quot;RENDER_DATE&quot;:&quot;2022-03-17&quot;,&quot;FIRST_DATE&quot;:&quot;2021-12-29&quot;,&quot;LAST_DATE&quot;:&quot;2022-02-22&quot;}" xmlns="http://www.w3.org/2000/svg" viewBox="0,0,200,100"><g transform="translate(0,0)"></g><g class="fg-bars death-date" fill="#00183f" stroke="none"><g><rect x="197" y="68.84615384615384" width="2" height="31.15384615384616" id="death-date-0"></rect></g><g><rect x="193.43636363636364" y="66.15384615384615" width="2" height="33.846153846153854" id="death-date-1"></rect></g><g><rect x="189.87272727272727" y="60.769230769230774" width="2" height="39.230769230769226" id="death-date-2"></rect></g><g><rect x="186.30909090909088" y="69.23076923076923" width="2" height="30.769230769230774" id="death-date-3"></rect></g><g><rect x="182.74545454545455" y="61.53846153846154" width="2" height="38.46153846153846" id="death-date-4"></rect></g><g><rect x="179.1818181818182" y="54.23076923076924" width="2" height="45.76923076923076" id="death-date-5"></rect></g><g><rect x="175.61818181818182" y="55.769230769230774" width="2" height="44.230769230769226" id="death-date-6"></rect></g><g><rect x="172.05454545454546" y="57.692307692307686" width="2" height="42.307692307692314" id="death-date-7"></rect></g><g><rect x="168.49090909090907" y="47.692307692307686" width="2" height="52.307692307692314" id="death-date-8"></rect></g><g><rect x="164.92727272727274" y="47.692307692307686" width="2" height="52.307692307692314" id="death-date-9"></rect></g><g><rect x="161.36363636363637" y="46.92307692307692" width="2" height="53.07692307692308" id="death-date-10"></rect></g><g><rect x="157.8" y="36.15384615384616" width="2" height="63.84615384615384" id="death-date-11"></rect></g><g><rect x="154.23636363636365" y="39.61538461538462" width="2" height="60.38461538461538" id="death-date-12"></rect></g><g><rect x="150.6727272727273" y="26.538461538461533" width="2" height="73.46153846153847" id="death-date-13"></rect></g><g><rect x="147.1090909090909" y="21.923076923076923" width="2" height="78.07692307692308" id="death-date-14"></rect></g><g><rect x="143.54545454545453" y="33.84615384615385" width="2" height="66.15384615384616" id="death-date-15"></rect></g><g><rect x="139.9818181818182" y="35.76923076923077" width="2" height="64.23076923076923" id="death-date-16"></rect></g><g><rect x="136.41818181818184" y="23.076923076923073" width="2" height="76.92307692307693" id="death-date-17"></rect></g><g><rect x="132.85454545454544" y="11.923076923076925" width="2" height="88.07692307692308" id="death-date-18"></rect></g><g><rect x="129.29090909090908" y="22.69230769230769" width="2" height="77.3076923076923" id="death-date-19"></rect></g><g><rect x="125.72727272727273" y="13.076923076923075" width="2" height="86.92307692307692" id="death-date-20"></rect></g><g><rect x="122.16363636363636" y="6.538461538461537" width="2" height="93.46153846153847" id="death-date-21"></rect></g><g><rect x="118.6" y="13.846153846153841" width="2" height="86.15384615384616" id="death-date-22"></rect></g><g><rect x="115.03636363636363" y="5.000000000000004" width="2" height="95" id="death-date-23"></rect></g><g><rect x="111.47272727272728" y="6.153846153846154" width="2" height="93.84615384615384" id="death-date-24"></rect></g><g><rect x="107.90909090909089" y="17.692307692307697" width="2" height="82.3076923076923" id="death-date-25"></rect></g><g><rect x="104.34545454545456" y="12.692307692307692" width="2" height="87.3076923076923" id="death-date-26"></rect></g><g><rect x="100.78181818181817" y="19.615384615384613" width="2" height="80.38461538461539" id="death-date-27"></rect></g><g><rect x="97.21818181818183" y="15.384615384615385" width="2" height="84.61538461538461" id="death-date-28"></rect></g><g><rect x="93.65454545454546" y="28.846153846153843" width="2" height="71.15384615384616" id="death-date-29"></rect></g><g><rect x="90.09090909090911" y="11.153846153846159" width="2" height="88.84615384615384" id="death-date-30"></rect></g><g><rect x="86.52727272727273" y="18.07692307692308" width="2" height="81.92307692307692" id="death-date-31"></rect></g><g><rect x="82.96363636363637" y="12.692307692307692" width="2" height="87.3076923076923" id="death-date-32"></rect></g><g><rect x="79.4" y="19.615384615384613" width="2" height="80.38461538461539" id="death-date-33"></rect></g><g><rect x="75.83636363636364" y="13.076923076923075" width="2" height="86.92307692307692" id="death-date-34"></rect></g><g><rect x="72.27272727272727" y="23.076923076923073" width="2" height="76.92307692307693" id="death-date-35"></rect></g><g><rect x="68.70909090909092" y="31.153846153846153" width="2" height="68.84615384615384" id="death-date-36"></rect></g><g><rect x="65.14545454545454" y="28.46153846153846" width="2" height="71.53846153846155" id="death-date-37"></rect></g><g><rect x="61.58181818181818" y="28.46153846153846" width="2" height="71.53846153846155" id="death-date-38"></rect></g><g><rect x="58.018181818181816" y="38.84615384615384" width="2" height="61.15384615384616" id="death-date-39"></rect></g><g><rect x="54.454545454545446" y="36.92307692307693" width="2" height="63.07692307692307" id="death-date-40"></rect></g><g><rect x="50.89090909090908" y="34.23076923076923" width="2" height="65.76923076923077" id="death-date-41"></rect></g><g><rect x="47.32727272727273" y="38.07692307692307" width="2" height="61.92307692307693" id="death-date-42"></rect></g><g><rect x="43.76363636363636" y="46.53846153846154" width="2" height="53.46153846153846" id="death-date-43"></rect></g><g><rect x="40.199999999999996" y="56.15384615384615" width="2" height="43.84615384615385" id="death-date-44"></rect></g><g><rect x="36.636363636363626" y="49.23076923076923" width="2" height="50.76923076923077" id="death-date-45"></rect></g><g><rect x="33.072727272727285" y="56.15384615384615" width="2" height="43.84615384615385" id="death-date-46"></rect></g><g><rect x="29.509090909090922" y="53.46153846153846" width="2" height="46.53846153846154" id="death-date-47"></rect></g><g><rect x="25.945454545454556" y="51.53846153846153" width="2" height="48.46153846153847" id="death-date-48"></rect></g><g><rect x="22.38181818181819" y="61.92307692307693" width="2" height="38.07692307692307" id="death-date-49"></rect></g><g><rect x="18.818181818181824" y="60.384615384615394" width="2" height="39.615384615384606" id="death-date-50"></rect></g><g><rect x="15.254545454545461" y="70.76923076923076" width="2" height="29.23076923076924" id="death-date-51"></rect></g><g><rect x="11.690909090909095" y="67.6923076923077" width="2" height="32.30769230769231" id="death-date-52"></rect></g><g><rect x="8.12727272727273" y="68.46153846153847" width="2" height="31.538461538461533" id="death-date-53"></rect></g><g><rect x="4.563636363636365" y="75.38461538461539" width="2" height="24.615384615384613" id="death-date-54"></rect></g><g><rect x="1" y="72.69230769230771" width="2" height="27.307692307692292" id="death-date-55"></rect></g></g><g class="fg-line death-date" fill="none" stroke="#92c5de" stroke-width="2" stroke-linecap="round"><path d="M198,62.362637362637365L194.43636363636364,60.769230769230774L190.87272727272727,58.131868131868124L187.30909090909088,56.26373626373626L183.74545454545455,53.07692307692308L180.1818181818182,49.45054945054945L176.61818181818182,47.36263736263736L173.05454545454546,43.18681318681319L169.49090909090907,38.07692307692307L165.92727272727274,36.0989010989011L162.36363636363637,34.395604395604394L158.8,30.98901098901099L155.23636363636365,27.52747252747253L151.6727272727273,25.10989010989011L148.1090909090909,23.186813186813183L144.54545454545453,20.989010989010993L140.9818181818182,18.131868131868135L137.41818181818184,13.736263736263743L133.85454545454544,11.318681318681312L130.29090909090908,12.142857142857144L126.72727272727273,10.71428571428572L123.16363636363636,11.64835164835164L119.6,12.912087912087921L116.03636363636363,15.054945054945057L112.47272727272728,15.934065934065933L108.90909090909089,17.637362637362642L105.34545454545456,16.92307692307692L101.78181818181817,17.912087912087916L98.21818181818183,16.978021978021975L94.65454545454546,18.07692307692308L91.09090909090911,18.40659340659341L87.52727272727273,20.879120879120872L83.96363636363637,22.36263736263736L80.4,26.098901098901095L76.83636363636364,28.57142857142857L73.27272727272727,31.59340659340659L69.70909090909092,33.73626373626374L66.14545454545454,35.93406593406593L62.58181818181818,39.89010989010989L59.018181818181816,42.85714285714285L55.454545454545446,45.329670329670336L51.89090909090908,47.692307692307686L48.32727272727273,50.16483516483517L44.76363636363636,53.571428571428584L41.199999999999996,55.549450549450555L37.636363636363626,57.637362637362635L34.072727272727285,60.27472527472527L30.509090909090922,62.032967032967036L26.945454545454556,65.16483516483517L23.38181818181819,68.18681318681318L19.818181818181824,70.71428571428572L16.25454545454546,72.19780219780219L12.690909090909095,73.24175824175825L9.12727272727273,74.45054945054946L5.563636363636365,75.32967032967034L2,75"></path></g></svg>