<svg viewBox="0,0,200,100"><g transform="translate(0,0)"></g><g class="fg-bars cases-ep"><g><rect x="197" y="53.87777777777778" width="2" height="46.12222222222222" id="cases-ep-0"></rect></g><g><rect x="193.43636363636364" y="47.80555555555556" width="2" height="52.19444444444444" id="cases-ep-1"></rect></g><g><rect x="189.87272727272727" y="41.288888888888884" width="2" height="58.711111111111116" id="cases-ep-2"></rect></g><g><rect x="186.30909090909088" y="35.05555555555555" width="2" height="64.94444444444446" id="cases-ep-3"></rect></g><g><rect x="182.74545454545455" y="67.02777777777777" width="2" height="32.97222222222223" id="cases-ep-4"></rect></g><g><rect x="179.1818181818182" y="72.87777777777778" width="2" height="27.12222222222222" id="cases-ep-5"></rect></g><g><rect x="175.61818181818182" y="64.60000000000001" width="2" height="35.39999999999999" id="cases-ep-6"></rect></g><g><rect x="172.05454545454546" y="47.51111111111111" width="2" height="52.48888888888889" id="cases-ep-7"></rect></g><g><rect x="168.49090909090907" y="41.227777777777774" width="2" height="58.772222222222226" id="cases-ep-8"></rect></g><g><rect x="164.92727272727274" y="31.58888888888889" width="2" height="68.41111111111111" id="cases-ep-9"></rect></g><g><rect x="161.36363636363637" y="33.044444444444444" width="2" height="66.95555555555555" id="cases-ep-10"></rect></g><g><rect x="157.8" y="28.10555555555555" width="2" height="71.89444444444445" id="cases-ep-11"></rect></g><g><rect x="154.23636363636365" y="64.87777777777778" width="2" height="35.12222222222222" id="cases-ep-12"></rect></g><g><rect x="150.6727272727273" y="57.73333333333333" width="2" height="42.26666666666667" id="cases-ep-13"></rect></g><g><rect x="147.1090909090909" y="38.577777777777776" width="2" height="61.422222222222224" id="cases-ep-14"></rect></g><g><rect x="143.54545454545453" y="31.922222222222217" width="2" height="68.07777777777778" id="cases-ep-15"></rect></g><g><rect x="139.9818181818182" y="25.544444444444448" width="2" height="74.45555555555555" id="cases-ep-16"></rect></g><g><rect x="136.41818181818184" y="23.483333333333334" width="2" height="76.51666666666667" id="cases-ep-17"></rect></g><g><rect x="132.85454545454544" y="16.15" width="2" height="83.85" id="cases-ep-18"></rect></g><g><rect x="129.29090909090908" y="59.18888888888889" width="2" height="40.81111111111111" id="cases-ep-19"></rect></g><g><rect x="125.72727272727273" y="51.355555555555554" width="2" height="48.644444444444446" id="cases-ep-20"></rect></g><g><rect x="122.16363636363636" y="26.73888888888889" width="2" height="73.2611111111111" id="cases-ep-21"></rect></g><g><rect x="118.6" y="23.77222222222222" width="2" height="76.22777777777779" id="cases-ep-22"></rect></g><g><rect x="115.03636363636363" y="17.333333333333336" width="2" height="82.66666666666666" id="cases-ep-23"></rect></g><g><rect x="111.47272727272728" y="15.494444444444444" width="2" height="84.50555555555556" id="cases-ep-24"></rect></g><g><rect x="107.90909090909089" y="12.011111111111106" width="2" height="87.9888888888889" id="cases-ep-25"></rect></g><g><rect x="104.34545454545456" y="55.34444444444444" width="2" height="44.65555555555556" id="cases-ep-26"></rect></g><g><rect x="100.78181818181817" y="47.28333333333333" width="2" height="52.71666666666667" id="cases-ep-27"></rect></g><g><rect x="97.21818181818183" y="24.20555555555556" width="2" height="75.79444444444444" id="cases-ep-28"></rect></g><g><rect x="93.65454545454546" y="19.394444444444446" width="2" height="80.60555555555555" id="cases-ep-29"></rect></g><g><rect x="90.09090909090911" y="14.977777777777778" width="2" height="85.02222222222223" id="cases-ep-30"></rect></g><g><rect x="86.52727272727273" y="10.966666666666669" width="2" height="89.03333333333333" id="cases-ep-31"></rect></g><g><rect x="82.96363636363637" y="10.499999999999998" width="2" height="89.5" id="cases-ep-32"></rect></g><g><rect x="79.4" y="52.577777777777776" width="2" height="47.422222222222224" id="cases-ep-33"></rect></g><g><rect x="75.83636363636364" y="46.89444444444445" width="2" height="53.10555555555555" id="cases-ep-34"></rect></g><g><rect x="72.27272727272727" y="29.14444444444444" width="2" height="70.85555555555555" id="cases-ep-35"></rect></g><g><rect x="68.70909090909092" y="23.877777777777776" width="2" height="76.12222222222222" id="cases-ep-36"></rect></g><g><rect x="65.14545454545454" y="22.599999999999998" width="2" height="77.4" id="cases-ep-37"></rect></g><g><rect x="61.58181818181818" y="20.833333333333336" width="2" height="79.16666666666666" id="cases-ep-38"></rect></g><g><rect x="58.018181818181816" y="22.7" width="2" height="77.3" id="cases-ep-39"></rect></g><g><rect x="54.454545454545446" y="53.516666666666666" width="2" height="46.483333333333334" id="cases-ep-40"></rect></g><g><rect x="50.89090909090908" y="53.27777777777778" width="2" height="46.72222222222222" id="cases-ep-41"></rect></g><g><rect x="47.32727272727273" y="38.90555555555556" width="2" height="61.09444444444444" id="cases-ep-42"></rect></g><g><rect x="43.76363636363636" y="35.18333333333333" width="2" height="64.81666666666666" id="cases-ep-43"></rect></g><g><rect x="40.199999999999996" y="34.766666666666666" width="2" height="65.23333333333333" id="cases-ep-44"></rect></g><g><rect x="36.636363636363626" y="38.09444444444444" width="2" height="61.90555555555556" id="cases-ep-45"></rect></g><g><rect x="33.072727272727285" y="35.36111111111111" width="2" height="64.63888888888889" id="cases-ep-46"></rect></g><g><rect x="29.509090909090922" y="64.7" width="2" height="35.3" id="cases-ep-47"></rect></g><g><rect x="25.945454545454556" y="62.83333333333334" width="2" height="37.16666666666666" id="cases-ep-48"></rect></g><g><rect x="22.38181818181819" y="55.47777777777778" width="2" height="44.52222222222222" id="cases-ep-49"></rect></g><g><rect x="18.818181818181824" y="54.19444444444444" width="2" height="45.80555555555556" id="cases-ep-50"></rect></g><g><rect x="15.254545454545461" y="51.68333333333332" width="2" height="48.31666666666668" id="cases-ep-51"></rect></g><g><rect x="11.690909090909095" y="54.07777777777778" width="2" height="45.92222222222222" id="cases-ep-52"></rect></g><g><rect x="8.12727272727273" y="53.822222222222216" width="2" height="46.177777777777784" id="cases-ep-53"></rect></g><g><rect x="4.563636363636365" y="73.69444444444444" width="2" height="26.305555555555557" id="cases-ep-54"></rect></g><g><rect x="1" y="74.32222222222222" width="2" height="25.677777777777777" id="cases-ep-55"></rect></g></g><g class="fg-line cases-ep"><path stroke-linecap="round" d="M198,54.647619047619045L194.43636363636364,53.73809523809524L190.87272727272727,52.7984126984127L187.30909090909088,51.41269841269841L183.74545454545455,51.12539682539683L180.1818181818182,45.56507936507936L176.61818181818182,44.42222222222222L173.05454545454546,43.441269841269836L169.49090909090907,42.16507936507937L165.92727272727274,40.83571428571429L162.36363636363637,39.97222222222222L158.8,38.6063492063492L155.23636363636365,36.8984126984127L151.6727272727273,36.085714285714275L148.1090909090909,35.17460317460317L144.54545454545453,33.483333333333334L140.9818181818182,32.319047619047616L137.41818181818184,31.146031746031746L133.85454545454544,30.0047619047619L130.29090909090908,29.413492063492065L126.72727272727273,28.86428571428572L123.16363636363636,28.282539682539685L119.6,27.920634920634924L116.03636363636363,27.295238095238094L112.47272727272728,26.95873015873016L108.90909090909089,26.31190476190476L105.34545454545456,26.096031746031745L101.78181818181817,25.700793650793653L98.21818181818183,25.6452380952381L94.65454545454546,26.350793650793648L91.09090909090911,26.991269841269837L87.52727272727273,28.080158730158722L83.96363636363637,29.489682539682537L80.4,31.232539682539684L76.83636363636364,31.366666666666664L73.27272727272727,32.278571428571425L69.70909090909092,33.67301587301588L66.14545454545454,35.28809523809524L62.58181818181818,37.02619047619048L59.018181818181816,39.4920634920635L55.454545454545446,41.30079365079366L51.89090909090908,42.8984126984127L48.32727272727273,44.26349206349206L44.76363636363636,46.63095238095239L41.199999999999996,49.34682539682539L37.636363636363626,51.763492063492066L34.072727272727285,54.04682539682539L30.509090909090922,56.68412698412698L26.945454545454556,57.96904761904762L23.38181818181819,59.61031746031746L19.818181818181824,61.27222222222222L16.25454545454546,63.2063492063492L12.690909090909095,65.73015873015873L9.12727272727273,68.0547619047619L5.563636363636365,70.42777777777778L2,71.72539682539683"></path></g></svg>