<svg meta="{&quot;DATA_PUBLISHED_DATE&quot;:&quot;2023-09-15&quot;,&quot;RENDER_DATE&quot;:&quot;2023-09-15&quot;,&quot;FIRST_DATE&quot;:&quot;2023-07-16&quot;,&quot;LAST_DATE&quot;:&quot;2023-09-09&quot;}" xmlns="http://www.w3.org/2000/svg" viewBox="0,0,200,100"><g transform="translate(0,0)"></g><g class="fg-bars hospitalizations-count" fill="#00183f" stroke="none"><g><rect x="197" y="14.136363636363637" width="2" height="85.86363636363636" id="hospitalizations-count-0"></rect></g><g><rect x="193.43636363636364" y="12.590909090909086" width="2" height="87.4090909090909" id="hospitalizations-count-1"></rect></g><g><rect x="189.87272727272727" y="9.318181818181815" width="2" height="90.68181818181819" id="hospitalizations-count-2"></rect></g><g><rect x="186.30909090909088" y="8.136363636363642" width="2" height="91.86363636363636" id="hospitalizations-count-3"></rect></g><g><rect x="182.74545454545455" y="11.590909090909097" width="2" height="88.4090909090909" id="hospitalizations-count-4"></rect></g><g><rect x="179.1818181818182" y="14.04545454545455" width="2" height="85.95454545454545" id="hospitalizations-count-5"></rect></g><g><rect x="175.61818181818182" y="12.090909090909086" width="2" height="87.9090909090909" id="hospitalizations-count-6"></rect></g><g><rect x="172.05454545454546" y="16.81818181818182" width="2" height="83.18181818181819" id="hospitalizations-count-7"></rect></g><g><rect x="168.49090909090907" y="16.272727272727273" width="2" height="83.72727272727272" id="hospitalizations-count-8"></rect></g><g><rect x="164.92727272727274" y="15.636363636363637" width="2" height="84.36363636363636" id="hospitalizations-count-9"></rect></g><g><rect x="161.36363636363637" y="15.636363636363637" width="2" height="84.36363636363636" id="hospitalizations-count-10"></rect></g><g><rect x="157.8" y="17.04545454545454" width="2" height="82.95454545454547" id="hospitalizations-count-11"></rect></g><g><rect x="154.23636363636365" y="18.818181818181824" width="2" height="81.18181818181817" id="hospitalizations-count-12"></rect></g><g><rect x="150.6727272727273" y="20.227272727272727" width="2" height="79.77272727272728" id="hospitalizations-count-13"></rect></g><g><rect x="147.1090909090909" y="21.13636363636363" width="2" height="78.86363636363637" id="hospitalizations-count-14"></rect></g><g><rect x="143.54545454545453" y="19.954545454545457" width="2" height="80.04545454545455" id="hospitalizations-count-15"></rect></g><g><rect x="139.9818181818182" y="21.545454545454547" width="2" height="78.45454545454545" id="hospitalizations-count-16"></rect></g><g><rect x="136.41818181818184" y="21.727272727272727" width="2" height="78.27272727272728" id="hospitalizations-count-17"></rect></g><g><rect x="132.85454545454544" y="24.363636363636367" width="2" height="75.63636363636363" id="hospitalizations-count-18"></rect></g><g><rect x="129.29090909090908" y="25.727272727272734" width="2" height="74.27272727272727" id="hospitalizations-count-19"></rect></g><g><rect x="125.72727272727273" y="28.31818181818182" width="2" height="71.68181818181819" id="hospitalizations-count-20"></rect></g><g><rect x="122.16363636363636" y="32.13636363636364" width="2" height="67.86363636363636" id="hospitalizations-count-21"></rect></g><g><rect x="118.6" y="31.40909090909091" width="2" height="68.5909090909091" id="hospitalizations-count-22"></rect></g><g><rect x="115.03636363636363" y="30.909090909090907" width="2" height="69.0909090909091" id="hospitalizations-count-23"></rect></g><g><rect x="111.47272727272728" y="33.31818181818181" width="2" height="66.68181818181819" id="hospitalizations-count-24"></rect></g><g><rect x="107.90909090909089" y="34.13636363636363" width="2" height="65.86363636363637" id="hospitalizations-count-25"></rect></g><g><rect x="104.34545454545456" y="36.272727272727266" width="2" height="63.727272727272734" id="hospitalizations-count-26"></rect></g><g><rect x="100.78181818181817" y="38.5" width="2" height="61.5" id="hospitalizations-count-27"></rect></g><g><rect x="97.21818181818183" y="40.90909090909091" width="2" height="59.09090909090909" id="hospitalizations-count-28"></rect></g><g><rect x="93.65454545454546" y="42.50000000000001" width="2" height="57.49999999999999" id="hospitalizations-count-29"></rect></g><g><rect x="90.09090909090911" y="42.63636363636364" width="2" height="57.36363636363636" id="hospitalizations-count-30"></rect></g><g><rect x="86.52727272727273" y="42.86363636363636" width="2" height="57.13636363636364" id="hospitalizations-count-31"></rect></g><g><rect x="82.96363636363637" y="48.409090909090914" width="2" height="51.590909090909086" id="hospitalizations-count-32"></rect></g><g><rect x="79.4" y="46" width="2" height="54" id="hospitalizations-count-33"></rect></g><g><rect x="75.83636363636364" y="47" width="2" height="53" id="hospitalizations-count-34"></rect></g><g><rect x="72.27272727272727" y="50.36363636363637" width="2" height="49.63636363636363" id="hospitalizations-count-35"></rect></g><g><rect x="68.70909090909092" y="50.409090909090914" width="2" height="49.590909090909086" id="hospitalizations-count-36"></rect></g><g><rect x="65.14545454545454" y="49.409090909090914" width="2" height="50.590909090909086" id="hospitalizations-count-37"></rect></g><g><rect x="61.58181818181818" y="49.36363636363637" width="2" height="50.63636363636363" id="hospitalizations-count-38"></rect></g><g><rect x="58.018181818181816" y="50.90909090909091" width="2" height="49.09090909090909" id="hospitalizations-count-39"></rect></g><g><rect x="54.454545454545446" y="52.54545454545454" width="2" height="47.45454545454546" id="hospitalizations-count-40"></rect></g><g><rect x="50.89090909090908" y="53.68181818181819" width="2" height="46.31818181818181" id="hospitalizations-count-41"></rect></g><g><rect x="47.32727272727273" y="56.18181818181818" width="2" height="43.81818181818182" id="hospitalizations-count-42"></rect></g><g><rect x="43.76363636363636" y="55.59090909090909" width="2" height="44.40909090909091" id="hospitalizations-count-43"></rect></g><g><rect x="40.199999999999996" y="57.63636363636364" width="2" height="42.36363636363636" id="hospitalizations-count-44"></rect></g><g><rect x="36.636363636363626" y="60.86363636363637" width="2" height="39.13636363636363" id="hospitalizations-count-45"></rect></g><g><rect x="33.072727272727285" y="58.04545454545455" width="2" height="41.95454545454545" id="hospitalizations-count-46"></rect></g><g><rect x="29.509090909090922" y="60.18181818181818" width="2" height="39.81818181818182" id="hospitalizations-count-47"></rect></g><g><rect x="25.945454545454556" y="59.31818181818183" width="2" height="40.68181818181817" id="hospitalizations-count-48"></rect></g><g><rect x="22.38181818181819" y="60.68181818181818" width="2" height="39.31818181818182" id="hospitalizations-count-49"></rect></g><g><rect x="18.818181818181824" y="60.4090909090909" width="2" height="39.5909090909091" id="hospitalizations-count-50"></rect></g><g><rect x="15.254545454545461" y="60.95454545454546" width="2" height="39.04545454545454" id="hospitalizations-count-51"></rect></g><g><rect x="11.690909090909095" y="60.31818181818183" width="2" height="39.68181818181817" id="hospitalizations-count-52"></rect></g><g><rect x="8.12727272727273" y="59.09090909090908" width="2" height="40.90909090909092" id="hospitalizations-count-53"></rect></g><g><rect x="4.563636363636365" y="60" width="2" height="40" id="hospitalizations-count-54"></rect></g><g><rect x="1" y="59.86363636363636" width="2" height="40.13636363636364" id="hospitalizations-count-55"></rect></g></g><g class="fg-line hospitalizations-count" fill="none" stroke="#92c5de" stroke-width="2" stroke-linecap="round"><path d="M198,11.7012987012987L194.43636363636364,12.084415584415586L190.87272727272727,12.610389610389605L187.30909090909088,13.51298701298701L183.74545454545455,14.584415584415588L180.1818181818182,15.363636363636369L176.61818181818182,16.04545454545454L173.05454545454546,17.207792207792217L169.49090909090907,17.824675324675322L165.92727272727274,18.350649350649352L162.36363636363637,19.194805194805188L158.8,20.064935064935064L155.23636363636365,21.110389610389603L151.6727272727273,22.097402597402592L148.1090909090909,23.25324675324676L144.54545454545453,24.824675324675326L140.9818181818182,26.461038961038962L137.41818181818184,27.7987012987013L133.85454545454544,29.454545454545457L130.29090909090908,30.850649350649352L126.72727272727273,32.35714285714286L123.16363636363636,33.811688311688314L119.6,35.064935064935064L116.03636363636363,36.649350649350644L112.47272727272728,38.324675324675326L108.90909090909089,39.688311688311686L105.34545454545456,41.72727272727273L101.78181818181817,43.11688311688312L98.21818181818183,44.33116883116883L94.65454545454546,45.68181818181818L91.09090909090911,46.811688311688314L87.52727272727273,47.77922077922078L83.96363636363637,48.70779220779221L80.4,49.06493506493506L76.83636363636364,50L73.27272727272727,50.95454545454545L69.70909090909092,51.78571428571428L66.14545454545454,52.52597402597403L62.58181818181818,53.7012987012987L59.018181818181816,55.34415584415584L55.454545454545446,56.363636363636374L51.89090909090908,57.454545454545446L48.32727272727273,58.259740259740255L44.76363636363636,58.9025974025974L41.199999999999996,59.59090909090909L37.636363636363626,60.064935064935064L34.072727272727285,59.98701298701299L30.509090909090922,60.13636363636363L26.945454545454556,60.11038961038962L23.38181818181819,60.18831168831169L19.818181818181824,60.27272727272728L16.25454545454546,60.36363636363637L12.690909090909095,60.58441558441559L9.12727272727273,60.298701298701296L5.563636363636365,60.21428571428571L2,60.4090909090909"></path></g></svg>