<svg about="DATA_PUBLISHED_DATE:2021-12-12,RENDER_DATE:2021-12-12" xmlns="http://www.w3.org/2000/svg" viewBox="0,0,200,100"><g transform="translate(0,0)"></g><g class="fg-bars tests-vaccines" fill="#00183f" stroke="none"><g><rect x="197" y="50.40771428571429" width="2" height="49.59228571428571" id="tests-vaccines-0"></rect></g><g><rect x="193.43636363636364" y="13.037142857142857" width="2" height="86.96285714285715" id="tests-vaccines-1"></rect></g><g><rect x="189.87272727272727" y="22.948" width="2" height="77.05199999999999" id="tests-vaccines-2"></rect></g><g><rect x="186.30909090909088" y="24.79942857142857" width="2" height="75.20057142857144" id="tests-vaccines-3"></rect></g><g><rect x="182.74545454545455" y="32.14028571428571" width="2" height="67.85971428571429" id="tests-vaccines-4"></rect></g><g><rect x="179.1818181818182" y="40.34885714285714" width="2" height="59.65114285714286" id="tests-vaccines-5"></rect></g><g><rect x="175.61818181818182" y="81.85628571428572" width="2" height="18.14371428571428" id="tests-vaccines-6"></rect></g><g><rect x="172.05454545454546" y="67.97771428571428" width="2" height="32.022285714285715" id="tests-vaccines-7"></rect></g><g><rect x="168.49090909090907" y="56.88628571428571" width="2" height="43.11371428571429" id="tests-vaccines-8"></rect></g><g><rect x="164.92727272727274" y="98.62657142857142" width="2" height="1.373428571428576" id="tests-vaccines-9"></rect></g><g><rect x="161.36363636363637" y="42.12971428571428" width="2" height="57.87028571428572" id="tests-vaccines-10"></rect></g><g><rect x="157.8" y="31.12771428571428" width="2" height="68.87228571428572" id="tests-vaccines-11"></rect></g><g><rect x="154.23636363636365" y="34.53885714285714" width="2" height="65.46114285714286" id="tests-vaccines-12"></rect></g><g><rect x="150.6727272727273" y="79.35600000000001" width="2" height="20.64399999999999" id="tests-vaccines-13"></rect></g><g><rect x="147.1090909090909" y="55.553714285714285" width="2" height="44.446285714285715" id="tests-vaccines-14"></rect></g><g><rect x="143.54545454545453" y="23.887142857142862" width="2" height="76.11285714285714" id="tests-vaccines-15"></rect></g><g><rect x="139.9818181818182" y="35.82857142857143" width="2" height="64.17142857142858" id="tests-vaccines-16"></rect></g><g><rect x="136.41818181818184" y="34.48314285714286" width="2" height="65.51685714285713" id="tests-vaccines-17"></rect></g><g><rect x="132.85454545454544" y="35.87885714285714" width="2" height="64.12114285714286" id="tests-vaccines-18"></rect></g><g><rect x="129.29090909090908" y="41.528" width="2" height="58.472" id="tests-vaccines-19"></rect></g><g><rect x="125.72727272727273" y="79.83200000000001" width="2" height="20.167999999999992" id="tests-vaccines-20"></rect></g><g><rect x="122.16363636363636" y="57.82228571428571" width="2" height="42.17771428571429" id="tests-vaccines-21"></rect></g><g><rect x="118.6" y="26.442571428571426" width="2" height="73.55742857142857" id="tests-vaccines-22"></rect></g><g><rect x="115.03636363636363" y="38.354571428571425" width="2" height="61.645428571428575" id="tests-vaccines-23"></rect></g><g><rect x="111.47272727272728" y="35.72828571428571" width="2" height="64.2717142857143" id="tests-vaccines-24"></rect></g><g><rect x="107.90909090909089" y="38.11942857142857" width="2" height="61.88057142857143" id="tests-vaccines-25"></rect></g><g><rect x="104.34545454545456" y="42.98057142857142" width="2" height="57.01942857142858" id="tests-vaccines-26"></rect></g><g><rect x="100.78181818181817" y="80.77600000000001" width="2" height="19.22399999999999" id="tests-vaccines-27"></rect></g><g><rect x="97.21818181818183" y="63.449714285714286" width="2" height="36.550285714285714" id="tests-vaccines-28"></rect></g><g><rect x="93.65454545454546" y="30.775714285714283" width="2" height="69.22428571428571" id="tests-vaccines-29"></rect></g><g><rect x="90.09090909090911" y="43.73228571428571" width="2" height="56.26771428571429" id="tests-vaccines-30"></rect></g><g><rect x="86.52727272727273" y="46.01942857142857" width="2" height="53.98057142857143" id="tests-vaccines-31"></rect></g><g><rect x="82.96363636363637" y="45.89942857142857" width="2" height="54.10057142857143" id="tests-vaccines-32"></rect></g><g><rect x="79.4" y="49.24142857142857" width="2" height="50.75857142857143" id="tests-vaccines-33"></rect></g><g><rect x="75.83636363636364" y="85.52685714285715" width="2" height="14.473142857142847" id="tests-vaccines-34"></rect></g><g><rect x="72.27272727272727" y="70.54828571428571" width="2" height="29.45171428571429" id="tests-vaccines-35"></rect></g><g><rect x="68.70909090909092" y="37.662571428571425" width="2" height="62.337428571428575" id="tests-vaccines-36"></rect></g><g><rect x="65.14545454545454" y="48.072" width="2" height="51.928" id="tests-vaccines-37"></rect></g><g><rect x="61.58181818181818" y="48.00342857142857" width="2" height="51.99657142857143" id="tests-vaccines-38"></rect></g><g><rect x="58.018181818181816" y="48.62171428571429" width="2" height="51.37828571428571" id="tests-vaccines-39"></rect></g><g><rect x="54.454545454545446" y="53.426857142857145" width="2" height="46.573142857142855" id="tests-vaccines-40"></rect></g><g><rect x="50.89090909090908" y="86.46057142857143" width="2" height="13.539428571428573" id="tests-vaccines-41"></rect></g><g><rect x="47.32727272727273" y="73.55314285714284" width="2" height="26.446857142857155" id="tests-vaccines-42"></rect></g><g><rect x="43.76363636363636" y="53.58142857142857" width="2" height="46.41857142857143" id="tests-vaccines-43"></rect></g><g><rect x="40.199999999999996" y="72.44457142857144" width="2" height="27.555428571428564" id="tests-vaccines-44"></rect></g><g><rect x="36.636363636363626" y="73.52057142857143" width="2" height="26.47942857142857" id="tests-vaccines-45"></rect></g><g><rect x="33.072727272727285" y="72.6602857142857" width="2" height="27.339714285714294" id="tests-vaccines-46"></rect></g><g><rect x="29.509090909090922" y="71.52857142857142" width="2" height="28.471428571428575" id="tests-vaccines-47"></rect></g><g><rect x="25.945454545454556" y="91.27828571428572" width="2" height="8.721714285714285" id="tests-vaccines-48"></rect></g><g><rect x="22.38181818181819" y="83.17628571428571" width="2" height="16.82371428571429" id="tests-vaccines-49"></rect></g><g><rect x="18.818181818181824" y="63.976571428571425" width="2" height="36.023428571428575" id="tests-vaccines-50"></rect></g><g><rect x="15.254545454545461" y="71.24" width="2" height="28.760000000000005" id="tests-vaccines-51"></rect></g><g><rect x="11.690909090909095" y="71.56514285714286" width="2" height="28.43485714285714" id="tests-vaccines-52"></rect></g><g><rect x="8.12727272727273" y="69.79457142857143" width="2" height="30.20542857142857" id="tests-vaccines-53"></rect></g><g><rect x="4.563636363636365" y="69.44085714285715" width="2" height="30.559142857142845" id="tests-vaccines-54"></rect></g><g><rect x="1" y="89.82342857142858" width="2" height="10.176571428571421" id="tests-vaccines-55"></rect></g></g><g class="fg-line tests-vaccines" fill="none" stroke="#92c5de" stroke-width="2" stroke-linecap="round"><path d="M198,37.93395918367347L194.43636363636364,40.44395918367346L190.87272727272727,46.708122448979594L187.30909090909088,57.51934693877552L183.74545454545455,59.99510204081633L180.1818181818182,59.85044897959184L176.61818181818182,59.02044897959183L173.05454545454546,58.66326530612245L169.49090909090907,56.888408163265304L165.92727272727274,52.174244897959184L162.36363636363637,43.20310204081632L158.8,42.110734693877546L155.23636363636365,42.789469387755105L151.6727272727273,43.78791836734695L148.1090909090909,43.85591836734694L144.54545454545453,44.18L140.9818181818182,44.5450612244898L137.41818181818184,44.90591836734694L133.85454545454544,45.08379591836734L130.29090909090908,45.40387755102041L126.72727272727273,45.61138775510204L123.16363636363636,45.74624489795917L119.6,46.550163265306125L116.03636363636363,47.1691836734694L112.47272727272728,47.937428571428576L108.90909090909089,49.40759183673469L105.34545454545456,50.519020408163264L101.78181818181817,51.41342857142857L98.21818181818183,52.092122448979595L94.65454545454546,53.10620408163265L91.09090909090911,54.090040816326535L87.52727272727273,54.709999999999994L83.96363636363637,54.99342857142857L80.4,55.38232653061225L76.83636363636364,55.98024489795919L73.27272727272727,56.11363265306122L69.70909090909092,56.54289795918368L66.14545454545454,58.81702040816326L62.58181818181818,62.298816326530606L59.018181818181816,65.9441224489796L55.454545454545446,69.37820408163266L51.89090909090908,71.96416326530613L48.32727272727273,72.6524081632653L44.76363636363636,74.02714285714286L41.199999999999996,75.51216326530611L37.636363636363626,75.34008163265307L34.072727272727285,75.06073469387755L30.509090909090922,74.6513469387755L26.945454545454556,74.35310204081634L23.38181818181819,74.14526530612244L19.818181818181824,73.88138775510204L16.25454545454546,73.20036734693878L12.690909090909095,72.52824489795918L9.12727272727273,72.12714285714286L5.563636363636365,71.88808163265305L2,71.7234693877551"></path></g></svg>