<svg meta="{&quot;DATA_PUBLISHED_DATE&quot;:&quot;2022-06-03&quot;,&quot;RENDER_DATE&quot;:&quot;2022-06-03&quot;,&quot;FIRST_DATE&quot;:&quot;2022-04-01&quot;,&quot;LAST_DATE&quot;:&quot;2022-05-26&quot;}" xmlns="http://www.w3.org/2000/svg" viewBox="0,0,200,100"><g transform="translate(0,0)"></g><g class="fg-bars tests-vaccines" fill="#00183f" stroke="none"><g><rect x="197" y="43.67100000000001" width="2" height="56.32899999999999" id="tests-vaccines-0"></rect></g><g><rect x="193.43636363636364" y="40.312000000000005" width="2" height="59.687999999999995" id="tests-vaccines-1"></rect></g><g><rect x="189.87272727272727" y="39.88" width="2" height="60.12" id="tests-vaccines-2"></rect></g><g><rect x="186.30909090909088" y="38.419000000000004" width="2" height="61.580999999999996" id="tests-vaccines-3"></rect></g><g><rect x="182.74545454545455" y="78.077" width="2" height="21.923000000000002" id="tests-vaccines-4"></rect></g><g><rect x="179.1818181818182" y="59.82799999999999" width="2" height="40.17200000000001" id="tests-vaccines-5"></rect></g><g><rect x="175.61818181818182" y="24.983999999999995" width="2" height="75.016" id="tests-vaccines-6"></rect></g><g><rect x="172.05454545454546" y="40.120999999999995" width="2" height="59.879000000000005" id="tests-vaccines-7"></rect></g><g><rect x="168.49090909090907" y="43.042" width="2" height="56.958" id="tests-vaccines-8"></rect></g><g><rect x="164.92727272727274" y="44.757000000000005" width="2" height="55.242999999999995" id="tests-vaccines-9"></rect></g><g><rect x="161.36363636363637" y="45.117" width="2" height="54.883" id="tests-vaccines-10"></rect></g><g><rect x="157.8" y="82.711" width="2" height="17.289" id="tests-vaccines-11"></rect></g><g><rect x="154.23636363636365" y="66.428" width="2" height="33.572" id="tests-vaccines-12"></rect></g><g><rect x="150.6727272727273" y="30.861000000000004" width="2" height="69.139" id="tests-vaccines-13"></rect></g><g><rect x="147.1090909090909" y="39.698" width="2" height="60.302" id="tests-vaccines-14"></rect></g><g><rect x="143.54545454545453" y="40.364" width="2" height="59.636" id="tests-vaccines-15"></rect></g><g><rect x="139.9818181818182" y="44.023" width="2" height="55.977" id="tests-vaccines-16"></rect></g><g><rect x="136.41818181818184" y="44.789" width="2" height="55.211" id="tests-vaccines-17"></rect></g><g><rect x="132.85454545454544" y="87.24199999999999" width="2" height="12.75800000000001" id="tests-vaccines-18"></rect></g><g><rect x="129.29090909090908" y="69.672" width="2" height="30.328000000000003" id="tests-vaccines-19"></rect></g><g><rect x="125.72727272727273" y="31.494" width="2" height="68.506" id="tests-vaccines-20"></rect></g><g><rect x="122.16363636363636" y="41.108" width="2" height="58.892" id="tests-vaccines-21"></rect></g><g><rect x="118.6" y="41.154" width="2" height="58.846" id="tests-vaccines-22"></rect></g><g><rect x="115.03636363636363" y="41.55" width="2" height="58.45" id="tests-vaccines-23"></rect></g><g><rect x="111.47272727272728" y="41.75600000000001" width="2" height="58.24399999999999" id="tests-vaccines-24"></rect></g><g><rect x="107.90909090909089" y="82.09299999999999" width="2" height="17.90700000000001" id="tests-vaccines-25"></rect></g><g><rect x="104.34545454545456" y="65.37200000000001" width="2" height="34.627999999999986" id="tests-vaccines-26"></rect></g><g><rect x="100.78181818181817" y="23.709999999999997" width="2" height="76.29" id="tests-vaccines-27"></rect></g><g><rect x="97.21818181818183" y="33.875" width="2" height="66.125" id="tests-vaccines-28"></rect></g><g><rect x="93.65454545454546" y="34.328" width="2" height="65.672" id="tests-vaccines-29"></rect></g><g><rect x="90.09090909090911" y="35.545" width="2" height="64.455" id="tests-vaccines-30"></rect></g><g><rect x="86.52727272727273" y="36.017999999999994" width="2" height="63.982000000000006" id="tests-vaccines-31"></rect></g><g><rect x="82.96363636363637" y="81.176" width="2" height="18.823999999999998" id="tests-vaccines-32"></rect></g><g><rect x="79.4" y="62.495999999999995" width="2" height="37.504000000000005" id="tests-vaccines-33"></rect></g><g><rect x="75.83636363636364" y="35.595" width="2" height="64.405" id="tests-vaccines-34"></rect></g><g><rect x="72.27272727272727" y="28.959000000000003" width="2" height="71.041" id="tests-vaccines-35"></rect></g><g><rect x="68.70909090909092" y="27.793999999999997" width="2" height="72.206" id="tests-vaccines-36"></rect></g><g><rect x="65.14545454545454" y="24.317999999999994" width="2" height="75.682" id="tests-vaccines-37"></rect></g><g><rect x="61.58181818181818" y="24.229999999999997" width="2" height="75.77000000000001" id="tests-vaccines-38"></rect></g><g><rect x="58.018181818181816" y="89.925" width="2" height="10.075000000000003" id="tests-vaccines-39"></rect></g><g><rect x="54.454545454545446" y="60.107" width="2" height="39.893" id="tests-vaccines-40"></rect></g><g><rect x="50.89090909090908" y="13.983999999999996" width="2" height="86.016" id="tests-vaccines-41"></rect></g><g><rect x="47.32727272727273" y="20.950999999999997" width="2" height="79.049" id="tests-vaccines-42"></rect></g><g><rect x="43.76363636363636" y="18.928" width="2" height="81.072" id="tests-vaccines-43"></rect></g><g><rect x="40.199999999999996" y="15.098" width="2" height="84.902" id="tests-vaccines-44"></rect></g><g><rect x="36.636363636363626" y="17.891000000000002" width="2" height="82.109" id="tests-vaccines-45"></rect></g><g><rect x="33.072727272727285" y="72.996" width="2" height="27.004000000000005" id="tests-vaccines-46"></rect></g><g><rect x="29.509090909090922" y="52.961000000000006" width="2" height="47.038999999999994" id="tests-vaccines-47"></rect></g><g><rect x="25.945454545454556" y="7.230999999999998" width="2" height="92.769" id="tests-vaccines-48"></rect></g><g><rect x="22.38181818181819" y="19.050999999999995" width="2" height="80.94900000000001" id="tests-vaccines-49"></rect></g><g><rect x="18.818181818181824" y="19.449000000000005" width="2" height="80.55099999999999" id="tests-vaccines-50"></rect></g><g><rect x="15.254545454545461" y="18.623999999999995" width="2" height="81.376" id="tests-vaccines-51"></rect></g><g><rect x="11.690909090909095" y="17.830999999999996" width="2" height="82.16900000000001" id="tests-vaccines-52"></rect></g><g><rect x="8.12727272727273" y="71.289" width="2" height="28.711" id="tests-vaccines-53"></rect></g><g><rect x="4.563636363636365" y="50.18899999999999" width="2" height="49.81100000000001" id="tests-vaccines-54"></rect></g><g><rect x="1" y="7.3490000000000055" width="2" height="92.651" id="tests-vaccines-55"></rect></g></g><g class="fg-line tests-vaccines" fill="none" stroke="#92c5de" stroke-width="2" stroke-linecap="round"><path d="M198,46.453L194.43636363636364,45.94585714285715L190.87272727272727,46.33585714285714L187.30909090909088,47.03257142857142L183.74545454545455,47.98942857142857L180.1818181818182,48.65142857142857L176.61818181818182,49.59428571428571L173.05454545454546,50.43385714285715L169.49090909090907,50.37342857142857L165.92727272727274,49.990857142857145L162.36363636363637,49.885999999999996L158.8,49.83914285714286L155.23636363636365,50.486428571428576L151.6727272727273,50.94985714285715L148.1090909090909,51.040285714285716L144.54545454545453,51.24171428571429L140.9818181818182,51.354571428571425L137.41818181818184,51.001285714285714L133.85454545454544,50.568000000000005L130.29090909090908,49.83242857142858L126.72727272727273,49.21814285714285L123.16363636363636,48.106142857142856L119.6,47.07285714285715L116.03636363636363,46.09771428571429L112.47272727272728,45.23985714285714L108.90909090909089,44.42014285714285L105.34545454545456,44.28914285714286L101.78181818181817,43.87828571428572L98.21818181818183,45.576142857142855L94.65454545454546,44.87385714285714L91.09090909090911,43.94042857142857L87.52727272727273,42.336571428571425L83.96363636363637,40.65257142857143L80.4,41.90242857142857L76.83636363636364,41.561142857142855L73.27272727272727,38.47385714285715L69.70909090909092,37.32985714285715L66.14545454545454,36.06328571428572L62.58181818181818,34.74614285714286L59.018181818181816,33.84057142857143L55.454545454545446,31.422142857142855L51.89090909090908,30.40128571428571L48.32727272727273,29.436571428571433L44.76363636363636,29.165142857142857L41.199999999999996,29.23957142857143L37.636363636363626,29.743285714285705L34.072727272727285,29.734714285714293L30.509090909090922,29.49085714285714L26.945454545454556,29.094857142857144L23.38181818181819,29.111714285714285L19.818181818181824,30.11257142857143L16.25454545454546,32.84742857142856L12.690909090909095,39.91028571428572L9.12727272727273,47.92214285714286L5.563636363636365,50.573L2,54.90271428571428"></path></g></svg>