<svg about="DATA_PUBLISHED_DATE:2021-12-03,RENDER_DATE:2021-12-03" xmlns="http://www.w3.org/2000/svg" viewBox="0,0,200,100"><g transform="translate(0,0)"></g><g class="fg-bars tests-vaccines" fill="#00183f" stroke="none"><g><rect x="197" y="98.3417857142857" width="2" height="1.658214285714294" id="tests-vaccines-0"></rect></g><g><rect x="193.43636363636364" y="29.579285714285717" width="2" height="70.42071428571428" id="tests-vaccines-1"></rect></g><g><rect x="189.87272727272727" y="16.229285714285712" width="2" height="83.77071428571429" id="tests-vaccines-2"></rect></g><g><rect x="186.30909090909088" y="19.94964285714286" width="2" height="80.05035714285714" id="tests-vaccines-3"></rect></g><g><rect x="182.74545454545455" y="74.73107142857143" width="2" height="25.268928571428575" id="tests-vaccines-4"></rect></g><g><rect x="179.1818181818182" y="45.9175" width="2" height="54.0825" id="tests-vaccines-5"></rect></g><g><rect x="175.61818181818182" y="7.006428571428569" width="2" height="92.99357142857143" id="tests-vaccines-6"></rect></g><g><rect x="172.05454545454546" y="21.692500000000003" width="2" height="78.3075" id="tests-vaccines-7"></rect></g><g><rect x="168.49090909090907" y="19.160714285714285" width="2" height="80.83928571428572" id="tests-vaccines-8"></rect></g><g><rect x="164.92727272727274" y="20.65285714285714" width="2" height="79.34714285714286" id="tests-vaccines-9"></rect></g><g><rect x="161.36363636363637" y="27.919285714285714" width="2" height="72.0807142857143" id="tests-vaccines-10"></rect></g><g><rect x="157.8" y="75.205" width="2" height="24.795" id="tests-vaccines-11"></rect></g><g><rect x="154.23636363636365" y="48.355000000000004" width="2" height="51.644999999999996" id="tests-vaccines-12"></rect></g><g><rect x="150.6727272727273" y="9.577500000000006" width="2" height="90.4225" id="tests-vaccines-13"></rect></g><g><rect x="147.1090909090909" y="23.560000000000002" width="2" height="76.44" id="tests-vaccines-14"></rect></g><g><rect x="143.54545454545453" y="20.48428571428571" width="2" height="79.5157142857143" id="tests-vaccines-15"></rect></g><g><rect x="139.9818181818182" y="23.075000000000003" width="2" height="76.925" id="tests-vaccines-16"></rect></g><g><rect x="136.41818181818184" y="28.99678571428571" width="2" height="71.0032142857143" id="tests-vaccines-17"></rect></g><g><rect x="132.85454545454544" y="76.14678571428571" width="2" height="23.853214285714287" id="tests-vaccines-18"></rect></g><g><rect x="129.29090909090908" y="54.53392857142857" width="2" height="45.46607142857143" id="tests-vaccines-19"></rect></g><g><rect x="125.72727272727273" y="14.10285714285714" width="2" height="85.89714285714285" id="tests-vaccines-20"></rect></g><g><rect x="122.16363636363636" y="30.101071428571423" width="2" height="69.89892857142857" id="tests-vaccines-21"></rect></g><g><rect x="118.6" y="32.88107142857143" width="2" height="67.11892857142857" id="tests-vaccines-22"></rect></g><g><rect x="115.03636363636363" y="32.67214285714286" width="2" height="67.32785714285714" id="tests-vaccines-23"></rect></g><g><rect x="111.47272727272728" y="36.79892857142857" width="2" height="63.20107142857143" id="tests-vaccines-24"></rect></g><g><rect x="107.90909090909089" y="81.93357142857143" width="2" height="18.066428571428574" id="tests-vaccines-25"></rect></g><g><rect x="104.34545454545456" y="63.32107142857143" width="2" height="36.67892857142857" id="tests-vaccines-26"></rect></g><g><rect x="100.78181818181817" y="22.444285714285716" width="2" height="77.55571428571429" id="tests-vaccines-27"></rect></g><g><rect x="97.21818181818183" y="35.27964285714285" width="2" height="64.72035714285715" id="tests-vaccines-28"></rect></g><g><rect x="93.65454545454546" y="35.22357142857143" width="2" height="64.77642857142857" id="tests-vaccines-29"></rect></g><g><rect x="90.09090909090911" y="36.02892857142857" width="2" height="63.97107142857143" id="tests-vaccines-30"></rect></g><g><rect x="86.52727272727273" y="41.90428571428571" width="2" height="58.09571428571429" id="tests-vaccines-31"></rect></g><g><rect x="82.96363636363637" y="83.09642857142858" width="2" height="16.903571428571425" id="tests-vaccines-32"></rect></g><g><rect x="79.4" y="67.01178571428572" width="2" height="32.98821428571428" id="tests-vaccines-33"></rect></g><g><rect x="75.83636363636364" y="42.11035714285715" width="2" height="57.88964285714285" id="tests-vaccines-34"></rect></g><g><rect x="72.27272727272727" y="65.64964285714285" width="2" height="34.35035714285715" id="tests-vaccines-35"></rect></g><g><rect x="68.70909090909092" y="66.98392857142856" width="2" height="33.016071428571436" id="tests-vaccines-36"></rect></g><g><rect x="65.14545454545454" y="65.93" width="2" height="34.06999999999999" id="tests-vaccines-37"></rect></g><g><rect x="61.58181818181818" y="64.50571428571429" width="2" height="35.49428571428571" id="tests-vaccines-38"></rect></g><g><rect x="58.018181818181816" y="89.11035714285714" width="2" height="10.88964285714286" id="tests-vaccines-39"></rect></g><g><rect x="54.454545454545446" y="79.00214285714286" width="2" height="20.997857142857143" id="tests-vaccines-40"></rect></g><g><rect x="50.89090909090908" y="55.07035714285714" width="2" height="44.92964285714286" id="tests-vaccines-41"></rect></g><g><rect x="47.32727272727273" y="64.105" width="2" height="35.894999999999996" id="tests-vaccines-42"></rect></g><g><rect x="43.76363636363636" y="64.55" width="2" height="35.45" id="tests-vaccines-43"></rect></g><g><rect x="40.199999999999996" y="62.332857142857144" width="2" height="37.667142857142856" id="tests-vaccines-44"></rect></g><g><rect x="36.636363636363626" y="61.853928571428575" width="2" height="38.146071428571425" id="tests-vaccines-45"></rect></g><g><rect x="33.072727272727285" y="87.29035714285715" width="2" height="12.709642857142853" id="tests-vaccines-46"></rect></g><g><rect x="29.509090909090922" y="76.70607142857143" width="2" height="23.293928571428566" id="tests-vaccines-47"></rect></g><g><rect x="25.945454545454556" y="49.09321428571428" width="2" height="50.90678571428572" id="tests-vaccines-48"></rect></g><g><rect x="22.38181818181819" y="58.261428571428574" width="2" height="41.738571428571426" id="tests-vaccines-49"></rect></g><g><rect x="18.818181818181824" y="61.05392857142857" width="2" height="38.94607142857143" id="tests-vaccines-50"></rect></g><g><rect x="15.254545454545461" y="60.20607142857143" width="2" height="39.79392857142857" id="tests-vaccines-51"></rect></g><g><rect x="11.690909090909095" y="60.417142857142856" width="2" height="39.582857142857144" id="tests-vaccines-52"></rect></g><g><rect x="8.12727272727273" y="86.32178571428571" width="2" height="13.67821428571429" id="tests-vaccines-53"></rect></g><g><rect x="4.563636363636365" y="75.73607142857142" width="2" height="24.26392857142858" id="tests-vaccines-54"></rect></g><g><rect x="1" y="48.12964285714286" width="2" height="51.87035714285714" id="tests-vaccines-55"></rect></g></g><g class="fg-line tests-vaccines" fill="none" stroke="#92c5de" stroke-width="2" stroke-linecap="round"><path d="M198,41.67928571428572L194.43636363636364,30.729387755102046L190.87272727272727,29.241020408163266L187.30909090909088,29.872959183673466L183.74545454545455,31.011479591836743L180.1818181818182,31.07918367346939L176.61818181818182,31.42739795918368L173.05454545454546,31.794693877551026L169.49090909090907,32.061479591836736L165.92727272727274,32.25056122448979L162.36363636363637,32.59658163265306L158.8,32.75051020408164L155.23636363636365,32.88505102040816L151.6727272727273,33.76775510204082L148.1090909090909,34.414234693877546L144.54545454545453,35.34867346938776L140.9818181818182,37.11964285714286L137.41818181818184,38.49066326530611L133.85454545454544,39.605255102040815L130.29090909090908,40.43193877551021L126.72727272727273,41.68724489795919L123.16363636363636,42.8788775510204L119.6,43.61867346938776L116.03636363636363,43.95331632653061L112.47272727272728,44.43285714285714L108.90909090909089,45.162193877551026L105.34545454545456,45.32831632653062L101.78181818181817,45.85556122448979L98.21818181818183,48.665000000000006L94.65454545454546,53.003571428571426L91.09090909090911,57.540765306122445L87.52727272727273,61.812346938775505L83.96363636363637,65.04112244897959L80.4,65.90025510204082L76.83636363636364,67.61316326530613L73.27272727272727,69.4645918367347L69.70909090909092,69.24392857142857L66.14545454545454,68.89622448979591L62.58181818181818,68.38234693877551L59.018181818181816,68.00352040816327L55.454545454545446,67.74352040816328L51.89090909090908,67.41551020408163L48.32727272727273,66.56163265306122L44.76363636363636,65.72683673469388L41.199999999999996,65.22739795918368L37.636363636363626,64.92357142857144L34.072727272727285,64.71831632653061L30.509090909090922,64.57994897959183L26.945454545454556,64.44137755102041L23.38181818181819,64.30372448979591L19.818181818181824,63.53872448979592L16.25454545454546,62.51229591836734L12.690909090909095,61.587551020408156L9.12727272727273,61.17913265306123L5.563636363636365,61.1219387755102L2,60.96341836734693"></path></g></svg>