<svg about="DATA_PUBLISHED_DATE:2021-12-02,RENDER_DATE:2021-12-02" xmlns="http://www.w3.org/2000/svg" viewBox="0,0,200,100"><g transform="translate(0,0)"></g><g class="fg-bars cases-ep" fill="#00183f" stroke="none"><g><rect x="197" y="49.4375" width="2" height="50.5625" id="cases-ep-0"></rect></g><g><rect x="193.43636363636364" y="44.7875" width="2" height="55.2125" id="cases-ep-1"></rect></g><g><rect x="189.87272727272727" y="69.77499999999999" width="2" height="30.22500000000001" id="cases-ep-2"></rect></g><g><rect x="186.30909090909088" y="65.475" width="2" height="34.525000000000006" id="cases-ep-3"></rect></g><g><rect x="182.74545454545455" y="48.375" width="2" height="51.625" id="cases-ep-4"></rect></g><g><rect x="179.1818181818182" y="46.487500000000004" width="2" height="53.512499999999996" id="cases-ep-5"></rect></g><g><rect x="175.61818181818182" y="40.125" width="2" height="59.875" id="cases-ep-6"></rect></g><g><rect x="172.05454545454546" y="36.162499999999994" width="2" height="63.837500000000006" id="cases-ep-7"></rect></g><g><rect x="168.49090909090907" y="22.824999999999996" width="2" height="77.17500000000001" id="cases-ep-8"></rect></g><g><rect x="164.92727272727274" y="60.8" width="2" height="39.2" id="cases-ep-9"></rect></g><g><rect x="161.36363636363637" y="58.0125" width="2" height="41.9875" id="cases-ep-10"></rect></g><g><rect x="157.8" y="37.5875" width="2" height="62.4125" id="cases-ep-11"></rect></g><g><rect x="154.23636363636365" y="46.599999999999994" width="2" height="53.400000000000006" id="cases-ep-12"></rect></g><g><rect x="150.6727272727273" y="30.7875" width="2" height="69.2125" id="cases-ep-13"></rect></g><g><rect x="147.1090909090909" y="27.449999999999996" width="2" height="72.55000000000001" id="cases-ep-14"></rect></g><g><rect x="143.54545454545453" y="17.925" width="2" height="82.075" id="cases-ep-15"></rect></g><g><rect x="139.9818181818182" y="57.43750000000001" width="2" height="42.56249999999999" id="cases-ep-16"></rect></g><g><rect x="136.41818181818184" y="54.86249999999999" width="2" height="45.13750000000001" id="cases-ep-17"></rect></g><g><rect x="132.85454545454544" y="31.525000000000002" width="2" height="68.475" id="cases-ep-18"></rect></g><g><rect x="129.29090909090908" y="25.487499999999997" width="2" height="74.5125" id="cases-ep-19"></rect></g><g><rect x="125.72727272727273" y="20.887500000000003" width="2" height="79.1125" id="cases-ep-20"></rect></g><g><rect x="122.16363636363636" y="19.962500000000006" width="2" height="80.0375" id="cases-ep-21"></rect></g><g><rect x="118.6" y="8.837499999999999" width="2" height="91.1625" id="cases-ep-22"></rect></g><g><rect x="115.03636363636363" y="56.800000000000004" width="2" height="43.199999999999996" id="cases-ep-23"></rect></g><g><rect x="111.47272727272728" y="51.17499999999999" width="2" height="48.82500000000001" id="cases-ep-24"></rect></g><g><rect x="107.90909090909089" y="30.125" width="2" height="69.875" id="cases-ep-25"></rect></g><g><rect x="104.34545454545456" y="24.8" width="2" height="75.2" id="cases-ep-26"></rect></g><g><rect x="100.78181818181817" y="18.937499999999996" width="2" height="81.0625" id="cases-ep-27"></rect></g><g><rect x="97.21818181818183" y="15.974999999999994" width="2" height="84.025" id="cases-ep-28"></rect></g><g><rect x="93.65454545454546" y="10.399999999999999" width="2" height="89.6" id="cases-ep-29"></rect></g><g><rect x="90.09090909090911" y="55.9125" width="2" height="44.0875" id="cases-ep-30"></rect></g><g><rect x="86.52727272727273" y="49.824999999999996" width="2" height="50.175000000000004" id="cases-ep-31"></rect></g><g><rect x="82.96363636363637" y="25.937500000000004" width="2" height="74.0625" id="cases-ep-32"></rect></g><g><rect x="79.4" y="26.575000000000003" width="2" height="73.425" id="cases-ep-33"></rect></g><g><rect x="75.83636363636364" y="22.512500000000003" width="2" height="77.4875" id="cases-ep-34"></rect></g><g><rect x="72.27272727272727" y="20.899999999999995" width="2" height="79.10000000000001" id="cases-ep-35"></rect></g><g><rect x="68.70909090909092" y="12.562499999999998" width="2" height="87.4375" id="cases-ep-36"></rect></g><g><rect x="65.14545454545454" y="55.662499999999994" width="2" height="44.337500000000006" id="cases-ep-37"></rect></g><g><rect x="61.58181818181818" y="54.949999999999996" width="2" height="45.050000000000004" id="cases-ep-38"></rect></g><g><rect x="58.018181818181816" y="34.52499999999999" width="2" height="65.47500000000001" id="cases-ep-39"></rect></g><g><rect x="54.454545454545446" y="34.550000000000004" width="2" height="65.44999999999999" id="cases-ep-40"></rect></g><g><rect x="50.89090909090908" y="30.262500000000003" width="2" height="69.7375" id="cases-ep-41"></rect></g><g><rect x="47.32727272727273" y="28.000000000000004" width="2" height="72" id="cases-ep-42"></rect></g><g><rect x="43.76363636363636" y="28.037500000000005" width="2" height="71.96249999999999" id="cases-ep-43"></rect></g><g><rect x="40.199999999999996" y="59.2125" width="2" height="40.7875" id="cases-ep-44"></rect></g><g><rect x="36.636363636363626" y="56.512499999999996" width="2" height="43.487500000000004" id="cases-ep-45"></rect></g><g><rect x="33.072727272727285" y="35.8125" width="2" height="64.1875" id="cases-ep-46"></rect></g><g><rect x="29.509090909090922" y="34.175" width="2" height="65.825" id="cases-ep-47"></rect></g><g><rect x="25.945454545454556" y="25.5625" width="2" height="74.4375" id="cases-ep-48"></rect></g><g><rect x="22.38181818181819" y="22.624999999999996" width="2" height="77.375" id="cases-ep-49"></rect></g><g><rect x="18.818181818181824" y="15.575000000000006" width="2" height="84.425" id="cases-ep-50"></rect></g><g><rect x="15.254545454545461" y="57.975" width="2" height="42.025" id="cases-ep-51"></rect></g><g><rect x="11.690909090909095" y="54.2875" width="2" height="45.7125" id="cases-ep-52"></rect></g><g><rect x="8.12727272727273" y="29.012499999999996" width="2" height="70.98750000000001" id="cases-ep-53"></rect></g><g><rect x="4.563636363636365" y="28.212499999999995" width="2" height="71.78750000000001" id="cases-ep-54"></rect></g><g><rect x="1" y="22.9375" width="2" height="77.0625" id="cases-ep-55"></rect></g></g><g class="fg-line cases-ep" fill="none" stroke="#92c5de" stroke-width="2" stroke-linecap="round"><path d="M198,52.066071428571426L194.43636363636364,50.16964285714285L190.87272727272727,47.03214285714286L187.30909090909088,45.75L183.74545454545455,44.68392857142857L180.1818181818182,43.14285714285715L176.61818181818182,43.15892857142857L173.05454545454546,41.825L169.49090909090907,40.580357142857146L165.92727272727274,39.88035714285715L162.36363636363637,39.4L158.8,38.949999999999996L155.23636363636365,38.08392857142857L151.6727272727273,35.067857142857136L148.1090909090909,33.65357142857144L144.54545454545453,32.583928571428565L140.9818181818182,31.285714285714295L137.41818181818184,31.194642857142853L133.85454545454544,30.667857142857148L130.29090909090908,30.467857142857145L126.72727272727273,30.369642857142853L123.16363636363636,30.091071428571436L119.6,29.521428571428565L116.03636363636363,29.744642857142857L112.47272727272728,29.61785714285714L108.90909090909089,29.425L105.34545454545456,28.82678571428571L101.78181818181817,29.08035714285715L98.21818181818183,29.591071428571436L94.65454545454546,30.29464285714285L91.09090909090911,30.60357142857143L87.52727272727273,30.567857142857147L83.96363636363637,31.299999999999994L80.4,32.52678571428571L76.83636363636364,33.66607142857143L73.27272727272727,34.773214285714296L69.70909090909092,35.78750000000001L66.14545454545454,37.99821428571429L62.58181818181818,38.50535714285714L59.018181818181816,38.728571428571435L55.454545454545446,38.91250000000001L51.89090909090908,38.858928571428564L48.32727272727273,38.1875L44.76363636363636,37.419642857142854L41.199999999999996,35.639285714285705L37.636363636363626,35.4625L34.072727272727285,35.14464285714286L30.509090909090922,34.173214285714295L26.945454545454556,33.32142857142857L23.38181818181819,32.94642857142856L19.818181818181824,32.01785714285714L16.25454545454546,30.53392857142857L12.690909090909095,29.889285714285705L9.12727272727273,28.925L5.563636363636365,28.14642857142856L2,26.900000000000002"></path></g></svg>