<svg about="DATA_PUBLISHED_DATE:2021-11-29,RENDER_DATE:2021-11-29" xmlns="http://www.w3.org/2000/svg" viewBox="0,0,200,100"><g transform="translate(0,0)"></g><g class="fg-bars death-date" fill="#00183f" stroke="none"><g><rect x="197" y="65" width="2" height="35" id="death-date-0"></rect></g><g><rect x="193.43636363636364" y="65" width="2" height="35" id="death-date-1"></rect></g><g><rect x="189.87272727272727" y="64.28571428571428" width="2" height="35.71428571428572" id="death-date-2"></rect></g><g><rect x="186.30909090909088" y="62.857142857142854" width="2" height="37.142857142857146" id="death-date-3"></rect></g><g><rect x="182.74545454545455" y="61.42857142857143" width="2" height="38.57142857142857" id="death-date-4"></rect></g><g><rect x="179.1818181818182" y="57.14285714285714" width="2" height="42.85714285714286" id="death-date-5"></rect></g><g><rect x="175.61818181818182" y="62.142857142857146" width="2" height="37.857142857142854" id="death-date-6"></rect></g><g><rect x="172.05454545454546" y="56.42857142857143" width="2" height="43.57142857142857" id="death-date-7"></rect></g><g><rect x="168.49090909090907" y="61.42857142857143" width="2" height="38.57142857142857" id="death-date-8"></rect></g><g><rect x="164.92727272727274" y="55.00000000000001" width="2" height="44.99999999999999" id="death-date-9"></rect></g><g><rect x="161.36363636363637" y="65" width="2" height="35" id="death-date-10"></rect></g><g><rect x="157.8" y="60" width="2" height="40" id="death-date-11"></rect></g><g><rect x="154.23636363636365" y="62.857142857142854" width="2" height="37.142857142857146" id="death-date-12"></rect></g><g><rect x="150.6727272727273" y="63.57142857142857" width="2" height="36.42857142857143" id="death-date-13"></rect></g><g><rect x="147.1090909090909" y="57.857142857142854" width="2" height="42.142857142857146" id="death-date-14"></rect></g><g><rect x="143.54545454545453" y="50.71428571428571" width="2" height="49.28571428571429" id="death-date-15"></rect></g><g><rect x="139.9818181818182" y="35.71428571428571" width="2" height="64.28571428571429" id="death-date-16"></rect></g><g><rect x="136.41818181818184" y="58.57142857142856" width="2" height="41.42857142857144" id="death-date-17"></rect></g><g><rect x="132.85454545454544" y="59.285714285714285" width="2" height="40.714285714285715" id="death-date-18"></rect></g><g><rect x="129.29090909090908" y="56.42857142857143" width="2" height="43.57142857142857" id="death-date-19"></rect></g><g><rect x="125.72727272727273" y="50.71428571428571" width="2" height="49.28571428571429" id="death-date-20"></rect></g><g><rect x="122.16363636363636" y="50.71428571428571" width="2" height="49.28571428571429" id="death-date-21"></rect></g><g><rect x="118.6" y="58.57142857142856" width="2" height="41.42857142857144" id="death-date-22"></rect></g><g><rect x="115.03636363636363" y="53.57142857142857" width="2" height="46.42857142857143" id="death-date-23"></rect></g><g><rect x="111.47272727272728" y="60.71428571428572" width="2" height="39.28571428571428" id="death-date-24"></rect></g><g><rect x="107.90909090909089" y="56.42857142857143" width="2" height="43.57142857142857" id="death-date-25"></rect></g><g><rect x="104.34545454545456" y="52.85714285714286" width="2" height="47.14285714285714" id="death-date-26"></rect></g><g><rect x="100.78181818181817" y="47.857142857142854" width="2" height="52.142857142857146" id="death-date-27"></rect></g><g><rect x="97.21818181818183" y="50.71428571428571" width="2" height="49.28571428571429" id="death-date-28"></rect></g><g><rect x="93.65454545454546" y="46.42857142857143" width="2" height="53.57142857142857" id="death-date-29"></rect></g><g><rect x="90.09090909090911" y="35" width="2" height="65" id="death-date-30"></rect></g><g><rect x="86.52727272727273" y="25" width="2" height="75" id="death-date-31"></rect></g><g><rect x="82.96363636363637" y="31.428571428571427" width="2" height="68.57142857142857" id="death-date-32"></rect></g><g><rect x="79.4" y="47.14285714285714" width="2" height="52.85714285714286" id="death-date-33"></rect></g><g><rect x="75.83636363636364" y="41.42857142857142" width="2" height="58.57142857142858" id="death-date-34"></rect></g><g><rect x="72.27272727272727" y="21.42857142857143" width="2" height="78.57142857142857" id="death-date-35"></rect></g><g><rect x="68.70909090909092" y="36.42857142857143" width="2" height="63.57142857142857" id="death-date-36"></rect></g><g><rect x="65.14545454545454" y="40" width="2" height="60" id="death-date-37"></rect></g><g><rect x="61.58181818181818" y="28.57142857142857" width="2" height="71.42857142857143" id="death-date-38"></rect></g><g><rect x="58.018181818181816" y="33.57142857142858" width="2" height="66.42857142857142" id="death-date-39"></rect></g><g><rect x="54.454545454545446" y="31.428571428571427" width="2" height="68.57142857142857" id="death-date-40"></rect></g><g><rect x="50.89090909090908" y="36.42857142857143" width="2" height="63.57142857142857" id="death-date-41"></rect></g><g><rect x="47.32727272727273" y="19.285714285714285" width="2" height="80.71428571428572" id="death-date-42"></rect></g><g><rect x="43.76363636363636" y="25.71428571428571" width="2" height="74.28571428571429" id="death-date-43"></rect></g><g><rect x="40.199999999999996" y="17.85714285714286" width="2" height="82.14285714285714" id="death-date-44"></rect></g><g><rect x="36.636363636363626" y="10.71428571428571" width="2" height="89.28571428571429" id="death-date-45"></rect></g><g><rect x="33.072727272727285" y="31.428571428571427" width="2" height="68.57142857142857" id="death-date-46"></rect></g><g><rect x="29.509090909090922" y="17.14285714285714" width="2" height="82.85714285714286" id="death-date-47"></rect></g><g><rect x="25.945454545454556" y="37.857142857142854" width="2" height="62.142857142857146" id="death-date-48"></rect></g><g><rect x="22.38181818181819" y="9.999999999999998" width="2" height="90" id="death-date-49"></rect></g><g><rect x="18.818181818181824" y="15.000000000000002" width="2" height="85" id="death-date-50"></rect></g><g><rect x="15.254545454545461" y="10.71428571428571" width="2" height="89.28571428571429" id="death-date-51"></rect></g><g><rect x="11.690909090909095" y="17.85714285714286" width="2" height="82.14285714285714" id="death-date-52"></rect></g><g><rect x="8.12727272727273" y="21.42857142857143" width="2" height="78.57142857142857" id="death-date-53"></rect></g><g><rect x="4.563636363636365" y="5.714285714285716" width="2" height="94.28571428571428" id="death-date-54"></rect></g><g><rect x="1" y="21.42857142857143" width="2" height="78.57142857142857" id="death-date-55"></rect></g></g><g class="fg-line death-date" fill="none" stroke="#92c5de" stroke-width="2" stroke-linecap="round"><path d="M198,62.55102040816327L194.43636363636364,61.32653061224489L190.87272727272727,60.816326530612244L187.30909090909088,59.489795918367335L183.74545454545455,59.79591836734694L180.1818181818182,59.591836734693885L176.61818181818182,60.408163265306115L173.05454545454546,60.61224489795918L169.49090909090907,60.816326530612244L165.92727272727274,59.285714285714285L162.36363636363637,56.53061224489796L158.8,55.61224489795917L155.23636363636365,55.51020408163265L151.6727272727273,54.59183673469388L148.1090909090909,52.755102040816325L144.54545454545453,51.73469387755103L140.9818181818182,52.85714285714286L137.41818181818184,55.40816326530612L133.85454545454544,55.714285714285715L130.29090909090908,55.306122448979586L126.72727272727273,54.79591836734694L123.16363636363636,54.38775510204081L119.6,54.38775510204081L116.03636363636363,52.65306122448978L112.47272727272728,50L108.90909090909089,44.89795918367348L105.34545454545456,41.3265306122449L101.78181818181817,40.51020408163265L98.21818181818183,39.59183673469388L94.65454545454546,35.40816326530612L91.09090909090911,33.97959183673469L87.52727272727273,34.6938775510204L83.96363636363637,35.204081632653065L80.4,35.510204081632644L76.83636363636364,33.265306122448976L73.27272727272727,32.55102040816327L69.70909090909092,32.244897959183675L66.14545454545454,30.714285714285715L62.58181818181818,27.55102040816326L59.018181818181816,25L55.454545454545446,24.693877551020403L51.89090909090908,22.65306122448979L48.32727272727273,22.857142857142854L44.76363636363636,21.530612244897952L41.199999999999996,19.999999999999996L37.636363636363626,18.979591836734688L34.072727272727285,19.999999999999996L30.509090909090922,18.571428571428573L26.945454545454556,16.938775510204074L23.38181818181819,14.591836734693874L19.818181818181824,14.897959183673471L16.25454545454546,12.44897959183674L12.690909090909095,11.122448979591837L9.12727272727273,10.204081632653061L5.563636363636365,8.979591836734691L2,8.673469387755095"></path></g></svg>