<svg about="DATA_PUBLISHED_DATE:2021-12-15,RENDER_DATE:2021-12-15" xmlns="http://www.w3.org/2000/svg" viewBox="0,0,200,100"><g transform="translate(0,0)"></g><g class="fg-bars cases-ep" fill="#00183f" stroke="none"><g><rect x="197" y="29.488888888888887" width="2" height="70.51111111111112" id="cases-ep-0"></rect></g><g><rect x="193.43636363636364" y="65.63333333333333" width="2" height="34.366666666666674" id="cases-ep-1"></rect></g><g><rect x="189.87272727272727" y="60.011111111111106" width="2" height="39.988888888888894" id="cases-ep-2"></rect></g><g><rect x="186.30909090909088" y="37.8111111111111" width="2" height="62.1888888888889" id="cases-ep-3"></rect></g><g><rect x="182.74545454545455" y="34.199999999999996" width="2" height="65.80000000000001" id="cases-ep-4"></rect></g><g><rect x="179.1818181818182" y="21.611111111111114" width="2" height="78.38888888888889" id="cases-ep-5"></rect></g><g><rect x="175.61818181818182" y="23.55555555555555" width="2" height="76.44444444444446" id="cases-ep-6"></rect></g><g><rect x="172.05454545454546" y="10.933333333333328" width="2" height="89.06666666666668" id="cases-ep-7"></rect></g><g><rect x="168.49090909090907" y="53.02222222222221" width="2" height="46.97777777777779" id="cases-ep-8"></rect></g><g><rect x="164.92727272727274" y="54.49999999999999" width="2" height="45.50000000000001" id="cases-ep-9"></rect></g><g><rect x="161.36363636363637" y="52.955555555555556" width="2" height="47.044444444444444" id="cases-ep-10"></rect></g><g><rect x="157.8" y="75.53333333333333" width="2" height="24.46666666666667" id="cases-ep-11"></rect></g><g><rect x="154.23636363636365" y="49.422222222222224" width="2" height="50.577777777777776" id="cases-ep-12"></rect></g><g><rect x="150.6727272727273" y="47.099999999999994" width="2" height="52.900000000000006" id="cases-ep-13"></rect></g><g><rect x="147.1090909090909" y="42.855555555555554" width="2" height="57.144444444444446" id="cases-ep-14"></rect></g><g><rect x="143.54545454545453" y="67.77777777777779" width="2" height="32.222222222222214" id="cases-ep-15"></rect></g><g><rect x="139.9818181818182" y="64.36666666666666" width="2" height="35.63333333333334" id="cases-ep-16"></rect></g><g><rect x="136.41818181818184" y="49.522222222222226" width="2" height="50.477777777777774" id="cases-ep-17"></rect></g><g><rect x="132.85454545454544" y="48.522222222222226" width="2" height="51.477777777777774" id="cases-ep-18"></rect></g><g><rect x="129.29090909090908" y="43.111111111111114" width="2" height="56.888888888888886" id="cases-ep-19"></rect></g><g><rect x="125.72727272727273" y="40.233333333333334" width="2" height="59.766666666666666" id="cases-ep-20"></rect></g><g><rect x="122.16363636363636" y="29.600000000000005" width="2" height="70.39999999999999" id="cases-ep-21"></rect></g><g><rect x="118.6" y="64.22222222222223" width="2" height="35.77777777777777" id="cases-ep-22"></rect></g><g><rect x="115.03636363636363" y="62.06666666666667" width="2" height="37.93333333333333" id="cases-ep-23"></rect></g><g><rect x="111.47272727272728" y="43.78888888888889" width="2" height="56.21111111111111" id="cases-ep-24"></rect></g><g><rect x="107.90909090909089" y="52.366666666666674" width="2" height="47.633333333333326" id="cases-ep-25"></rect></g><g><rect x="104.34545454545456" y="38.011111111111106" width="2" height="61.988888888888894" id="cases-ep-26"></rect></g><g><rect x="100.78181818181817" y="34.95555555555555" width="2" height="65.04444444444445" id="cases-ep-27"></rect></g><g><rect x="97.21818181818183" y="26.700000000000003" width="2" height="73.3" id="cases-ep-28"></rect></g><g><rect x="93.65454545454546" y="61.73333333333333" width="2" height="38.26666666666667" id="cases-ep-29"></rect></g><g><rect x="90.09090909090911" y="59.52222222222222" width="2" height="40.47777777777778" id="cases-ep-30"></rect></g><g><rect x="86.52727272727273" y="38.87777777777778" width="2" height="61.12222222222222" id="cases-ep-31"></rect></g><g><rect x="82.96363636363637" y="33.51111111111111" width="2" height="66.48888888888888" id="cases-ep-32"></rect></g><g><rect x="79.4" y="29.166666666666664" width="2" height="70.83333333333334" id="cases-ep-33"></rect></g><g><rect x="75.83636363636364" y="28.411111111111108" width="2" height="71.58888888888889" id="cases-ep-34"></rect></g><g><rect x="72.27272727272727" y="18.500000000000007" width="2" height="81.5" id="cases-ep-35"></rect></g><g><rect x="68.70909090909092" y="61.45555555555555" width="2" height="38.54444444444445" id="cases-ep-36"></rect></g><g><rect x="65.14545454545454" y="56.44444444444445" width="2" height="43.55555555555555" id="cases-ep-37"></rect></g><g><rect x="61.58181818181818" y="37.66666666666667" width="2" height="62.33333333333333" id="cases-ep-38"></rect></g><g><rect x="58.018181818181816" y="32.92222222222222" width="2" height="67.07777777777778" id="cases-ep-39"></rect></g><g><rect x="54.454545454545446" y="27.855555555555554" width="2" height="72.14444444444445" id="cases-ep-40"></rect></g><g><rect x="50.89090909090908" y="25.177777777777777" width="2" height="74.82222222222222" id="cases-ep-41"></rect></g><g><rect x="47.32727272727273" y="20.222222222222218" width="2" height="79.77777777777779" id="cases-ep-42"></rect></g><g><rect x="43.76363636363636" y="60.6" width="2" height="39.4" id="cases-ep-43"></rect></g><g><rect x="40.199999999999996" y="55.233333333333334" width="2" height="44.766666666666666" id="cases-ep-44"></rect></g><g><rect x="36.636363636363626" y="33.94444444444444" width="2" height="66.05555555555556" id="cases-ep-45"></rect></g><g><rect x="33.072727272727285" y="34.73333333333334" width="2" height="65.26666666666665" id="cases-ep-46"></rect></g><g><rect x="29.509090909090922" y="31.08888888888889" width="2" height="68.91111111111111" id="cases-ep-47"></rect></g><g><rect x="25.945454545454556" y="29.533333333333335" width="2" height="70.46666666666667" id="cases-ep-48"></rect></g><g><rect x="22.38181818181819" y="22.144444444444446" width="2" height="77.85555555555555" id="cases-ep-49"></rect></g><g><rect x="18.818181818181824" y="60.577777777777776" width="2" height="39.422222222222224" id="cases-ep-50"></rect></g><g><rect x="15.254545454545461" y="59.84444444444444" width="2" height="40.15555555555556" id="cases-ep-51"></rect></g><g><rect x="11.690909090909095" y="41.75555555555556" width="2" height="58.24444444444444" id="cases-ep-52"></rect></g><g><rect x="8.12727272727273" y="41.72222222222223" width="2" height="58.27777777777777" id="cases-ep-53"></rect></g><g><rect x="4.563636363636365" y="37.955555555555556" width="2" height="62.044444444444444" id="cases-ep-54"></rect></g><g><rect x="1" y="35.75555555555555" width="2" height="64.24444444444444" id="cases-ep-55"></rect></g></g><g class="fg-line cases-ep" fill="none" stroke="#92c5de" stroke-width="2" stroke-linecap="round"><path d="M198,38.901587301587305L194.43636363636364,36.250793650793646L190.87272727272727,34.44920634920635L187.30909090909088,33.66190476190476L183.74545454545455,35.82539682539683L180.1818181818182,41.73015873015873L176.61818181818182,45.70317460317461L173.05454545454546,49.06666666666667L169.49090909090907,53.62698412698413L165.92727272727274,55.734920634920634L162.36363636363637,57.144444444444446L158.8,56.653968253968245L155.23636363636365,52.7952380952381L151.6727272727273,51.89365079365081L148.1090909090909,50.91269841269841L144.54545454545453,49.01904761904762L140.9818181818182,48.51111111111111L137.41818181818184,48.182539682539684L133.85454545454544,47.36349206349206L130.29090909090908,47.912698412698404L126.72727272727273,47.18412698412698L123.16363636363636,46.43015873015872L119.6,46.01587301587302L116.03636363636363,45.66031746031746L112.47272727272728,45.29682539682539L108.90909090909089,44.5952380952381L105.34545454545456,41.9015873015873L101.78181818181817,40.63809523809524L98.21818181818183,39.70317460317461L94.65454545454546,38.53174603174604L91.09090909090911,38.4920634920635L87.52727272727273,38.05238095238095L83.96363636363637,37.87936507936508L80.4,37.79523809523809L76.83636363636364,37.6079365079365L73.27272727272727,37.14603174603174L69.70909090909092,37.3920634920635L66.14545454545454,37.26984126984127L62.58181818181818,37.096825396825395L59.018181818181816,36.56507936507937L55.454545454545446,36.82380952380952L51.89090909090908,37.28571428571428L48.32727272727273,37.907936507936505L44.76363636363636,38.182539682539684L41.199999999999996,38.17936507936508L37.636363636363626,38.838095238095235L34.072727272727285,39.953968253968256L30.509090909090922,40.95238095238095L26.945454545454556,41.93333333333334L23.38181818181819,42.822222222222216L19.818181818181824,44.787301587301585L16.25454545454546,45.225396825396835L12.690909090909095,45.42857142857143L9.12727272727273,45.590476190476195L5.563636363636365,45.55079365079365L2,44.96349206349206"></path></g></svg>