<svg about="DATA_PUBLISHED_DATE:2021-12-30,RENDER_DATE:2021-12-30" xmlns="http://www.w3.org/2000/svg" viewBox="0,0,200,100"><g transform="translate(0,0)"></g><g class="fg-bars tests-vaccines" fill="#00183f" stroke="none"><g><rect x="197" y="30.102285714285713" width="2" height="69.89771428571429" id="tests-vaccines-0"></rect></g><g><rect x="193.43636363636364" y="27.54" width="2" height="72.46000000000001" id="tests-vaccines-1"></rect></g><g><rect x="189.87272727272727" y="32.08742857142857" width="2" height="67.91257142857143" id="tests-vaccines-2"></rect></g><g><rect x="186.30909090909088" y="80.32285714285715" width="2" height="19.677142857142854" id="tests-vaccines-3"></rect></g><g><rect x="182.74545454545455" y="60.858000000000004" width="2" height="39.141999999999996" id="tests-vaccines-4"></rect></g><g><rect x="179.1818181818182" y="28.10571428571429" width="2" height="71.89428571428572" id="tests-vaccines-5"></rect></g><g><rect x="175.61818181818182" y="36.67171428571429" width="2" height="63.32828571428571" id="tests-vaccines-6"></rect></g><g><rect x="172.05454545454546" y="34.5" width="2" height="65.5" id="tests-vaccines-7"></rect></g><g><rect x="168.49090909090907" y="35.998285714285714" width="2" height="64.00171428571429" id="tests-vaccines-8"></rect></g><g><rect x="164.92727272727274" y="38.79028571428571" width="2" height="61.20971428571429" id="tests-vaccines-9"></rect></g><g><rect x="161.36363636363637" y="80.56914285714285" width="2" height="19.43085714285715" id="tests-vaccines-10"></rect></g><g><rect x="157.8" y="54.52600000000001" width="2" height="45.47399999999999" id="tests-vaccines-11"></rect></g><g><rect x="154.23636363636365" y="20.485142857142858" width="2" height="79.51485714285714" id="tests-vaccines-12"></rect></g><g><rect x="150.6727272727273" y="28.341714285714282" width="2" height="71.65828571428571" id="tests-vaccines-13"></rect></g><g><rect x="147.1090909090909" y="26.017999999999997" width="2" height="73.982" id="tests-vaccines-14"></rect></g><g><rect x="143.54545454545453" y="25.841428571428573" width="2" height="74.15857142857143" id="tests-vaccines-15"></rect></g><g><rect x="139.9818181818182" y="31.277999999999995" width="2" height="68.72200000000001" id="tests-vaccines-16"></rect></g><g><rect x="136.41818181818184" y="76.80828571428572" width="2" height="23.191714285714284" id="tests-vaccines-17"></rect></g><g><rect x="132.85454545454544" y="48.37200000000001" width="2" height="51.62799999999999" id="tests-vaccines-18"></rect></g><g><rect x="129.29090909090908" y="9.607428571428567" width="2" height="90.39257142857143" id="tests-vaccines-19"></rect></g><g><rect x="125.72727272727273" y="20.301142857142864" width="2" height="79.69885714285714" id="tests-vaccines-20"></rect></g><g><rect x="122.16363636363636" y="21.993714285714283" width="2" height="78.00628571428572" id="tests-vaccines-21"></rect></g><g><rect x="118.6" y="29.656571428571432" width="2" height="70.34342857142857" id="tests-vaccines-22"></rect></g><g><rect x="115.03636363636363" y="39.16657142857143" width="2" height="60.83342857142857" id="tests-vaccines-23"></rect></g><g><rect x="111.47272727272728" y="81.59542857142857" width="2" height="18.40457142857143" id="tests-vaccines-24"></rect></g><g><rect x="107.90909090909089" y="67.32314285714286" width="2" height="32.676857142857145" id="tests-vaccines-25"></rect></g><g><rect x="104.34545454545456" y="56.361428571428576" width="2" height="43.638571428571424" id="tests-vaccines-26"></rect></g><g><rect x="100.78181818181817" y="98.59342857142857" width="2" height="1.406571428571425" id="tests-vaccines-27"></rect></g><g><rect x="97.21818181818183" y="41.45028571428572" width="2" height="58.54971428571428" id="tests-vaccines-28"></rect></g><g><rect x="93.65454545454546" y="30.355714285714285" width="2" height="69.64428571428572" id="tests-vaccines-29"></rect></g><g><rect x="90.09090909090911" y="33.56428571428572" width="2" height="66.43571428571428" id="tests-vaccines-30"></rect></g><g><rect x="86.52727272727273" y="79.09114285714286" width="2" height="20.908857142857144" id="tests-vaccines-31"></rect></g><g><rect x="82.96363636363637" y="55.05285714285715" width="2" height="44.94714285714285" id="tests-vaccines-32"></rect></g><g><rect x="79.4" y="22.986857142857144" width="2" height="77.01314285714285" id="tests-vaccines-33"></rect></g><g><rect x="75.83636363636364" y="35.057428571428574" width="2" height="64.94257142857143" id="tests-vaccines-34"></rect></g><g><rect x="72.27272727272727" y="33.84342857142857" width="2" height="66.15657142857143" id="tests-vaccines-35"></rect></g><g><rect x="68.70909090909092" y="35.26914285714285" width="2" height="64.73085714285715" id="tests-vaccines-36"></rect></g><g><rect x="65.14545454545454" y="41.07342857142857" width="2" height="58.92657142857143" id="tests-vaccines-37"></rect></g><g><rect x="61.58181818181818" y="79.48142857142857" width="2" height="20.518571428571434" id="tests-vaccines-38"></rect></g><g><rect x="58.018181818181816" y="57.278571428571425" width="2" height="42.721428571428575" id="tests-vaccines-39"></rect></g><g><rect x="54.454545454545446" y="25.726285714285712" width="2" height="74.27371428571429" id="tests-vaccines-40"></rect></g><g><rect x="50.89090909090908" y="37.79857142857143" width="2" height="62.20142857142857" id="tests-vaccines-41"></rect></g><g><rect x="47.32727272727273" y="35.327714285714286" width="2" height="64.67228571428572" id="tests-vaccines-42"></rect></g><g><rect x="43.76363636363636" y="37.77" width="2" height="62.23" id="tests-vaccines-43"></rect></g><g><rect x="40.199999999999996" y="42.76314285714285" width="2" height="57.23685714285715" id="tests-vaccines-44"></rect></g><g><rect x="36.636363636363626" y="80.57857142857144" width="2" height="19.421428571428564" id="tests-vaccines-45"></rect></g><g><rect x="33.072727272727285" y="63.288" width="2" height="36.712" id="tests-vaccines-46"></rect></g><g><rect x="29.509090909090922" y="30.392571428571426" width="2" height="69.60742857142857" id="tests-vaccines-47"></rect></g><g><rect x="25.945454545454556" y="43.26914285714286" width="2" height="56.73085714285714" id="tests-vaccines-48"></rect></g><g><rect x="22.38181818181819" y="45.79571428571428" width="2" height="54.20428571428572" id="tests-vaccines-49"></rect></g><g><rect x="18.818181818181824" y="45.69" width="2" height="54.31" id="tests-vaccines-50"></rect></g><g><rect x="15.254545454545461" y="49.00628571428571" width="2" height="50.99371428571429" id="tests-vaccines-51"></rect></g><g><rect x="11.690909090909095" y="85.47542857142857" width="2" height="14.524571428571434" id="tests-vaccines-52"></rect></g><g><rect x="8.12727272727273" y="70.45257142857143" width="2" height="29.54742857142857" id="tests-vaccines-53"></rect></g><g><rect x="4.563636363636365" y="37.43" width="2" height="62.57" id="tests-vaccines-54"></rect></g><g><rect x="1" y="47.885999999999996" width="2" height="52.114000000000004" id="tests-vaccines-55"></rect></g></g><g class="fg-line tests-vaccines" fill="none" stroke="#92c5de" stroke-width="2" stroke-linecap="round"><path d="M198,42.241142857142854L194.43636363636364,42.86938775510204L190.87272727272727,44.077714285714286L187.30909090909088,45.035265306122454L183.74545454545455,45.07044897959184L180.1818181818182,44.16587755102041L176.61818181818182,43.07722448979592L173.05454545454546,41.88722448979591L169.49090909090907,40.67551020408163L165.92727272727274,39.22453061224489L162.36363636363637,38.15134693877551L158.8,37.61408163265306L155.23636363636365,36.73493877551021L151.6727272727273,35.18097959183674L148.1090909090909,34.032326530612245L144.54545454545453,33.45742857142857L140.9818181818182,34.00244897959184L137.41818181818184,35.12938775510204L133.85454545454544,35.81326530612245L130.29090909090908,38.52057142857143L126.72727272727273,45.199714285714286L123.16363636363636,56.38432653061225L119.6,59.163836734693874L116.03636363636363,59.263714285714286L112.47272727272728,58.46338775510203L108.90909090909089,58.10563265306122L105.34545454545456,56.35273469387755L101.78181818181817,51.5849387755102L98.21818181818183,42.50836734693877L94.65454545454546,41.421673469387756L91.09090909090911,42.12359183673469L87.52727272727273,43.196326530612254L83.96363636363637,43.25208163265306L80.4,43.57004081632654L76.83636363636364,43.96138775510203L73.27272727272727,44.352979591836736L69.70909090909092,44.56502040816326L66.14545454545454,44.922285714285714L62.58181818181818,45.16367346938775L59.018181818181816,45.32040816326531L55.454545454545446,46.17889795918367L51.89090909090908,46.845510204081634L48.32727272727273,47.62702040816327L44.76363636363636,49.12244897959184L41.199999999999996,50.253877551020395L37.636363636363626,51.14575510204082L34.072727272727285,51.845306122448974L30.509090909090922,52.86881632653061L26.945454545454556,53.874163265306116L23.38181818181819,54.53371428571428L19.818181818181824,54.81975510204082L16.25454545454546,55.199959183673464L12.690909090909095,55.806612244897956L9.12727272727273,55.941510204081624L5.563636363636365,56.368367346938776L2,58.652408163265314"></path></g></svg>