<svg meta="{&quot;DATA_PUBLISHED_DATE&quot;:&quot;2022-12-29&quot;,&quot;RENDER_DATE&quot;:&quot;2022-12-29&quot;,&quot;FIRST_DATE&quot;:&quot;2022-10-27&quot;,&quot;LAST_DATE&quot;:&quot;2022-12-21&quot;}" xmlns="http://www.w3.org/2000/svg" viewBox="0,0,200,100"><g transform="translate(0,0)"></g><g class="fg-bars tests-vaccines" fill="#00183f" stroke="none"><g><rect x="197" y="60.70416666666667" width="2" height="39.29583333333333" id="tests-vaccines-0"></rect></g><g><rect x="193.43636363636364" y="58.15083333333333" width="2" height="41.84916666666667" id="tests-vaccines-1"></rect></g><g><rect x="189.87272727272727" y="54.24416666666667" width="2" height="45.75583333333333" id="tests-vaccines-2"></rect></g><g><rect x="186.30909090909088" y="86.61583333333334" width="2" height="13.384166666666658" id="tests-vaccines-3"></rect></g><g><rect x="182.74545454545455" y="75.10333333333334" width="2" height="24.89666666666666" id="tests-vaccines-4"></rect></g><g><rect x="179.1818181818182" y="47.629999999999995" width="2" height="52.370000000000005" id="tests-vaccines-5"></rect></g><g><rect x="175.61818181818182" y="55.81916666666666" width="2" height="44.18083333333334" id="tests-vaccines-6"></rect></g><g><rect x="172.05454545454546" y="54.92666666666667" width="2" height="45.07333333333333" id="tests-vaccines-7"></rect></g><g><rect x="168.49090909090907" y="54.2125" width="2" height="45.7875" id="tests-vaccines-8"></rect></g><g><rect x="164.92727272727274" y="52.804166666666674" width="2" height="47.195833333333326" id="tests-vaccines-9"></rect></g><g><rect x="161.36363636363637" y="85.63583333333334" width="2" height="14.364166666666662" id="tests-vaccines-10"></rect></g><g><rect x="157.8" y="71.31333333333333" width="2" height="28.686666666666667" id="tests-vaccines-11"></rect></g><g><rect x="154.23636363636365" y="39.83416666666667" width="2" height="60.16583333333333" id="tests-vaccines-12"></rect></g><g><rect x="150.6727272727273" y="49.50333333333333" width="2" height="50.49666666666667" id="tests-vaccines-13"></rect></g><g><rect x="147.1090909090909" y="48.530833333333334" width="2" height="51.469166666666666" id="tests-vaccines-14"></rect></g><g><rect x="143.54545454545453" y="51.345" width="2" height="48.655" id="tests-vaccines-15"></rect></g><g><rect x="139.9818181818182" y="52.356666666666676" width="2" height="47.643333333333324" id="tests-vaccines-16"></rect></g><g><rect x="136.41818181818184" y="85.465" width="2" height="14.534999999999997" id="tests-vaccines-17"></rect></g><g><rect x="132.85454545454544" y="71.7375" width="2" height="28.262500000000003" id="tests-vaccines-18"></rect></g><g><rect x="129.29090909090908" y="37.735" width="2" height="62.265" id="tests-vaccines-19"></rect></g><g><rect x="125.72727272727273" y="51.013333333333335" width="2" height="48.986666666666665" id="tests-vaccines-20"></rect></g><g><rect x="122.16363636363636" y="42.37583333333333" width="2" height="57.62416666666667" id="tests-vaccines-21"></rect></g><g><rect x="118.6" y="57.464999999999996" width="2" height="42.535000000000004" id="tests-vaccines-22"></rect></g><g><rect x="115.03636363636363" y="58.62083333333333" width="2" height="41.37916666666667" id="tests-vaccines-23"></rect></g><g><rect x="111.47272727272728" y="86.44833333333332" width="2" height="13.551666666666677" id="tests-vaccines-24"></rect></g><g><rect x="107.90909090909089" y="76.12916666666666" width="2" height="23.870833333333337" id="tests-vaccines-25"></rect></g><g><rect x="104.34545454545456" y="69.35666666666667" width="2" height="30.64333333333333" id="tests-vaccines-26"></rect></g><g><rect x="100.78181818181817" y="99.09333333333333" width="2" height="0.9066666666666663" id="tests-vaccines-27"></rect></g><g><rect x="97.21818181818183" y="45.084999999999994" width="2" height="54.915000000000006" id="tests-vaccines-28"></rect></g><g><rect x="93.65454545454546" y="43.060833333333335" width="2" height="56.939166666666665" id="tests-vaccines-29"></rect></g><g><rect x="90.09090909090911" y="37.00666666666667" width="2" height="62.99333333333333" id="tests-vaccines-30"></rect></g><g><rect x="86.52727272727273" y="83.08250000000001" width="2" height="16.91749999999999" id="tests-vaccines-31"></rect></g><g><rect x="82.96363636363637" y="64.64666666666668" width="2" height="35.353333333333325" id="tests-vaccines-32"></rect></g><g><rect x="79.4" y="22.78583333333334" width="2" height="77.21416666666666" id="tests-vaccines-33"></rect></g><g><rect x="75.83636363636364" y="38.81166666666667" width="2" height="61.18833333333333" id="tests-vaccines-34"></rect></g><g><rect x="72.27272727272727" y="36.3425" width="2" height="63.6575" id="tests-vaccines-35"></rect></g><g><rect x="68.70909090909092" y="38" width="2" height="62" id="tests-vaccines-36"></rect></g><g><rect x="65.14545454545454" y="36.84166666666666" width="2" height="63.15833333333334" id="tests-vaccines-37"></rect></g><g><rect x="61.58181818181818" y="82.76666666666667" width="2" height="17.233333333333334" id="tests-vaccines-38"></rect></g><g><rect x="58.018181818181816" y="66.06916666666666" width="2" height="33.93083333333334" id="tests-vaccines-39"></rect></g><g><rect x="54.454545454545446" y="17.640833333333326" width="2" height="82.35916666666668" id="tests-vaccines-40"></rect></g><g><rect x="50.89090909090908" y="32.505833333333335" width="2" height="67.49416666666667" id="tests-vaccines-41"></rect></g><g><rect x="47.32727272727273" y="36.49250000000001" width="2" height="63.50749999999999" id="tests-vaccines-42"></rect></g><g><rect x="43.76363636363636" y="42.993333333333325" width="2" height="57.006666666666675" id="tests-vaccines-43"></rect></g><g><rect x="40.199999999999996" y="34.065" width="2" height="65.935" id="tests-vaccines-44"></rect></g><g><rect x="36.636363636363626" y="81.6975" width="2" height="18.302499999999995" id="tests-vaccines-45"></rect></g><g><rect x="33.072727272727285" y="60.29416666666667" width="2" height="39.70583333333333" id="tests-vaccines-46"></rect></g><g><rect x="29.509090909090922" y="9.814166666666669" width="2" height="90.18583333333333" id="tests-vaccines-47"></rect></g><g><rect x="25.945454545454556" y="31.801666666666662" width="2" height="68.19833333333334" id="tests-vaccines-48"></rect></g><g><rect x="22.38181818181819" y="27.38083333333333" width="2" height="72.61916666666667" id="tests-vaccines-49"></rect></g><g><rect x="18.818181818181824" y="32.52083333333333" width="2" height="67.47916666666667" id="tests-vaccines-50"></rect></g><g><rect x="15.254545454545461" y="34.995" width="2" height="65.005" id="tests-vaccines-51"></rect></g><g><rect x="11.690909090909095" y="81.1575" width="2" height="18.8425" id="tests-vaccines-52"></rect></g><g><rect x="8.12727272727273" y="59.390833333333326" width="2" height="40.609166666666674" id="tests-vaccines-53"></rect></g><g><rect x="4.563636363636365" y="3.047500000000003" width="2" height="96.9525" id="tests-vaccines-54"></rect></g><g><rect x="1" y="20.332499999999996" width="2" height="79.6675" id="tests-vaccines-55"></rect></g></g><g class="fg-line tests-vaccines" fill="none" stroke="#92c5de" stroke-width="2" stroke-linecap="round"><path d="M198,62.60964285714286L194.43636363636364,61.784285714285716L190.87272727272727,61.221666666666664L187.30909090909088,61.015952380952385L183.74545454545455,60.875952380952384L180.1818181818182,60.33452380952381L176.61818181818182,59.22083333333333L173.05454545454546,58.31857142857143L169.49090909090907,57.40488095238096L165.92727272727274,56.9952380952381L162.36363636363637,56.931309523809524L158.8,56.90690476190476L155.23636363636365,56.967499999999994L151.6727272727273,56.66761904761904L148.1090909090909,56.88333333333333L144.54545454545453,56.004047619047626L140.9818181818182,56.87833333333333L137.41818181818184,57.77321428571429L133.85454545454544,57.91369047619048L130.29090909090908,58.541071428571435L126.72727272727273,63.05845238095238L123.16363636363636,69.9270238095238L119.6,70.31404761904763L116.03636363636363,68.25630952380952L112.47272727272728,65.16857142857143L108.90909090909089,64.68773809523809L105.34545454545456,63.04738095238096L101.78181818181817,56.39440476190476L98.21818181818183,47.782738095238095L94.65454545454546,46.53380952380952L91.09090909090911,45.810833333333335L87.52727272727273,45.7872619047619L83.96363636363637,45.74214285714285L80.4,45.94535714285715L76.83636363636364,45.21035714285714L73.27272727272727,44.30952380952381L69.70909090909092,44.33095238095238L66.14545454545454,45.044285714285714L62.58181818181818,44.647619047619045L59.018181818181816,44.49488095238095L55.454545454545446,43.66988095238096L51.89090909090908,42.551785714285714L48.32727272727273,42.45119047619047L44.76363636363636,41.1495238095238L41.199999999999996,39.65345238095238L37.636363636363626,39.78630952380953L34.072727272727285,39.70916666666666L30.509090909090922,39.58011904761904L26.945454545454556,38.61345238095238L23.38181818181819,36.975L19.818181818181824,34.90654761904762L16.25454545454546,33.34595238095238L12.690909090909095,31.08845238095238L9.12727272727273,30.875952380952377L5.563636363636365,30.32083333333333L2,29.751666666666665"></path></g></svg>