<svg about="DATA_PUBLISHED_DATE:2021-11-04,RENDER_DATE:2021-11-04" xmlns="http://www.w3.org/2000/svg" viewBox="0,0,200,100"><g transform="translate(0,0)"></g><g class="fg-bars tests-vaccines" fill="#00183f" stroke="none"><g><rect x="197" y="2.771666666666661" width="2" height="97.22833333333334" id="tests-vaccines-0"></rect></g><g><rect x="193.43636363636364" y="3.7050000000000027" width="2" height="96.295" id="tests-vaccines-1"></rect></g><g><rect x="189.87272727272727" y="11.79055555555556" width="2" height="88.20944444444444" id="tests-vaccines-2"></rect></g><g><rect x="186.30909090909088" y="74.32611111111112" width="2" height="25.673888888888882" id="tests-vaccines-3"></rect></g><g><rect x="182.74545454545455" y="50.23111111111112" width="2" height="49.76888888888888" id="tests-vaccines-4"></rect></g><g><rect x="179.1818181818182" y="12.167777777777777" width="2" height="87.83222222222223" id="tests-vaccines-5"></rect></g><g><rect x="175.61818181818182" y="47.845000000000006" width="2" height="52.154999999999994" id="tests-vaccines-6"></rect></g><g><rect x="172.05454545454546" y="50.025555555555556" width="2" height="49.974444444444444" id="tests-vaccines-7"></rect></g><g><rect x="168.49090909090907" y="48.12888888888889" width="2" height="51.87111111111111" id="tests-vaccines-8"></rect></g><g><rect x="164.92727272727274" y="45.92277777777778" width="2" height="54.07722222222222" id="tests-vaccines-9"></rect></g><g><rect x="161.36363636363637" y="83.37944444444445" width="2" height="16.620555555555555" id="tests-vaccines-10"></rect></g><g><rect x="157.8" y="68.09222222222222" width="2" height="31.90777777777778" id="tests-vaccines-11"></rect></g><g><rect x="154.23636363636365" y="31.64555555555556" width="2" height="68.35444444444444" id="tests-vaccines-12"></rect></g><g><rect x="150.6727272727273" y="45.367222222222225" width="2" height="54.632777777777775" id="tests-vaccines-13"></rect></g><g><rect x="147.1090909090909" y="45.93833333333334" width="2" height="54.06166666666666" id="tests-vaccines-14"></rect></g><g><rect x="143.54545454545453" y="42.58666666666666" width="2" height="57.41333333333334" id="tests-vaccines-15"></rect></g><g><rect x="139.9818181818182" y="41.69444444444444" width="2" height="58.30555555555556" id="tests-vaccines-16"></rect></g><g><rect x="136.41818181818184" y="80.61611111111111" width="2" height="19.38388888888889" id="tests-vaccines-17"></rect></g><g><rect x="132.85454545454544" y="64.52444444444446" width="2" height="35.475555555555545" id="tests-vaccines-18"></rect></g><g><rect x="129.29090909090908" y="22.46" width="2" height="77.53999999999999" id="tests-vaccines-19"></rect></g><g><rect x="125.72727272727273" y="36.32944444444445" width="2" height="63.67055555555555" id="tests-vaccines-20"></rect></g><g><rect x="122.16363636363636" y="40.67111111111112" width="2" height="59.32888888888888" id="tests-vaccines-21"></rect></g><g><rect x="118.6" y="39.17777777777778" width="2" height="60.82222222222222" id="tests-vaccines-22"></rect></g><g><rect x="115.03636363636363" y="39.43277777777779" width="2" height="60.56722222222221" id="tests-vaccines-23"></rect></g><g><rect x="111.47272727272728" y="79.095" width="2" height="20.905" id="tests-vaccines-24"></rect></g><g><rect x="107.90909090909089" y="62.97222222222223" width="2" height="37.02777777777777" id="tests-vaccines-25"></rect></g><g><rect x="104.34545454545456" y="20.854444444444443" width="2" height="79.14555555555556" id="tests-vaccines-26"></rect></g><g><rect x="100.78181818181817" y="27.60666666666667" width="2" height="72.39333333333333" id="tests-vaccines-27"></rect></g><g><rect x="97.21818181818183" y="29.11555555555555" width="2" height="70.88444444444445" id="tests-vaccines-28"></rect></g><g><rect x="93.65454545454546" y="28.689444444444444" width="2" height="71.31055555555555" id="tests-vaccines-29"></rect></g><g><rect x="90.09090909090911" y="34.360555555555564" width="2" height="65.63944444444444" id="tests-vaccines-30"></rect></g><g><rect x="86.52727272727273" y="78.28333333333333" width="2" height="21.71666666666667" id="tests-vaccines-31"></rect></g><g><rect x="82.96363636363637" y="60.815" width="2" height="39.185" id="tests-vaccines-32"></rect></g><g><rect x="79.4" y="40.11888888888889" width="2" height="59.88111111111111" id="tests-vaccines-33"></rect></g><g><rect x="75.83636363636364" y="60.168888888888894" width="2" height="39.831111111111106" id="tests-vaccines-34"></rect></g><g><rect x="72.27272727272727" y="60.06944444444444" width="2" height="39.93055555555556" id="tests-vaccines-35"></rect></g><g><rect x="68.70909090909092" y="58.875" width="2" height="41.125" id="tests-vaccines-36"></rect></g><g><rect x="65.14545454545454" y="55.54611111111112" width="2" height="44.45388888888888" id="tests-vaccines-37"></rect></g><g><rect x="61.58181818181818" y="81.81555555555555" width="2" height="18.184444444444452" id="tests-vaccines-38"></rect></g><g><rect x="58.018181818181816" y="68.35888888888888" width="2" height="31.641111111111115" id="tests-vaccines-39"></rect></g><g><rect x="54.454545454545446" y="46.635000000000005" width="2" height="53.364999999999995" id="tests-vaccines-40"></rect></g><g><rect x="50.89090909090908" y="54.278333333333336" width="2" height="45.721666666666664" id="tests-vaccines-41"></rect></g><g><rect x="47.32727272727273" y="55.65833333333333" width="2" height="44.34166666666667" id="tests-vaccines-42"></rect></g><g><rect x="43.76363636363636" y="55.202777777777776" width="2" height="44.797222222222224" id="tests-vaccines-43"></rect></g><g><rect x="40.199999999999996" y="53.061666666666675" width="2" height="46.938333333333325" id="tests-vaccines-44"></rect></g><g><rect x="36.636363636363626" y="80.34666666666666" width="2" height="19.653333333333336" id="tests-vaccines-45"></rect></g><g><rect x="33.072727272727285" y="64.90555555555555" width="2" height="35.09444444444445" id="tests-vaccines-46"></rect></g><g><rect x="29.509090909090922" y="39.95333333333333" width="2" height="60.04666666666667" id="tests-vaccines-47"></rect></g><g><rect x="25.945454545454556" y="50.71444444444444" width="2" height="49.28555555555556" id="tests-vaccines-48"></rect></g><g><rect x="22.38181818181819" y="50.33555555555556" width="2" height="49.66444444444444" id="tests-vaccines-49"></rect></g><g><rect x="18.818181818181824" y="45.12444444444444" width="2" height="54.87555555555556" id="tests-vaccines-50"></rect></g><g><rect x="15.254545454545461" y="89.2011111111111" width="2" height="10.798888888888897" id="tests-vaccines-51"></rect></g><g><rect x="11.690909090909095" y="78.80388888888889" width="2" height="21.196111111111108" id="tests-vaccines-52"></rect></g><g><rect x="8.12727272727273" y="64.36166666666668" width="2" height="35.63833333333332" id="tests-vaccines-53"></rect></g><g><rect x="4.563636363636365" y="34.21222222222222" width="2" height="65.78777777777778" id="tests-vaccines-54"></rect></g><g><rect x="1" y="47.57944444444444" width="2" height="52.42055555555556" id="tests-vaccines-55"></rect></g></g><g class="fg-line tests-vaccines" fill="none" stroke="#92c5de" stroke-width="2" stroke-linecap="round"><path d="M198,28.976746031746025L194.43636363636364,35.72730158730158L190.87272727272727,42.07357142857142L187.30909090909088,46.94960317460317L183.74545454545455,48.242936507936506L180.1818181818182,50.79452380952381L176.61818181818182,53.577063492063495L173.05454545454546,53.22309523809524L169.49090909090907,52.63920634920636L165.92727272727274,51.84746031746032L162.36363636363637,51.243412698412705L158.8,50.8486507936508L155.23636363636365,50.338968253968254L151.6727272727273,49.02674603174603L148.1090909090909,47.735634920634915L144.54545454545453,46.983174603174604L140.9818181818182,46.49619047619048L137.41818181818184,46.17309523809524L133.85454545454544,45.95579365079365L130.29090909090908,45.734047619047615L126.72727272727273,45.50468253968254L123.16363636363636,44.25857142857142L119.6,42.60777777777778L116.03636363636363,41.10944444444444L112.47272727272728,40.384841269841274L108.90909090909089,40.26888888888889L105.34545454545456,39.96071428571428L101.78181818181817,42.712777777777774L98.21818181818183,47.3645238095238L94.65454545454546,51.786507936507945L91.09090909090911,56.098730158730156L87.52727272727273,59.12523809523809L83.96363636363637,59.62984126984128L80.4,60.70753968253968L76.83636363636364,61.6384126984127L73.27272727272727,60.796904761904756L69.70909090909092,60.16674603174603L66.14545454545454,59.642142857142865L62.58181818181818,59.287222222222226L59.018181818181816,59.077380952380956L55.454545454545446,58.58404761904762L51.89090909090908,57.62952380952381L48.32727272727273,57.120396825396824L44.76363636363636,56.36L41.199999999999996,54.92023809523809L37.636363636363626,60.083015873015874L34.072727272727285,59.86261904761905L30.509090909090922,59.78492063492064L26.945454545454556,58.96476190476191L23.38181818181819,58.51690476190476L19.818181818181824,57.85460317460317L16.25454545454546,57.67984126984127L12.690909090909095,51.13452380952381L9.12727272727273,50.779444444444444L5.563636363636365,49.687619047619044L2,48.88952380952381"></path></g></svg>