<svg about="DATA_PUBLISHED_DATE:2021-12-11,RENDER_DATE:2021-12-11" xmlns="http://www.w3.org/2000/svg" viewBox="0,0,200,100"><g transform="translate(0,0)"></g><g class="fg-bars cases-ep" fill="#00183f" stroke="none"><g><rect x="197" y="19.525000000000002" width="2" height="80.475" id="cases-ep-0"></rect></g><g><rect x="193.43636363636364" y="19.725000000000005" width="2" height="80.27499999999999" id="cases-ep-1"></rect></g><g><rect x="189.87272727272727" y="5.800000000000005" width="2" height="94.19999999999999" id="cases-ep-2"></rect></g><g><rect x="186.30909090909088" y="51.287499999999994" width="2" height="48.712500000000006" id="cases-ep-3"></rect></g><g><rect x="182.74545454545455" y="51.337500000000006" width="2" height="48.662499999999994" id="cases-ep-4"></rect></g><g><rect x="179.1818181818182" y="48.975" width="2" height="51.025" id="cases-ep-5"></rect></g><g><rect x="175.61818181818182" y="73.8" width="2" height="26.200000000000003" id="cases-ep-6"></rect></g><g><rect x="172.05454545454546" y="43.7" width="2" height="56.3" id="cases-ep-7"></rect></g><g><rect x="168.49090909090907" y="41.0625" width="2" height="58.9375" id="cases-ep-8"></rect></g><g><rect x="164.92727272727274" y="36.4" width="2" height="63.6" id="cases-ep-9"></rect></g><g><rect x="161.36363636363637" y="64.07499999999999" width="2" height="35.92500000000001" id="cases-ep-10"></rect></g><g><rect x="157.8" y="60.387499999999996" width="2" height="39.612500000000004" id="cases-ep-11"></rect></g><g><rect x="154.23636363636365" y="43.3375" width="2" height="56.6625" id="cases-ep-12"></rect></g><g><rect x="150.6727272727273" y="42.512499999999996" width="2" height="57.487500000000004" id="cases-ep-13"></rect></g><g><rect x="147.1090909090909" y="36.287499999999994" width="2" height="63.712500000000006" id="cases-ep-14"></rect></g><g><rect x="143.54545454545453" y="32.925000000000004" width="2" height="67.07499999999999" id="cases-ep-15"></rect></g><g><rect x="139.9818181818182" y="21.125000000000004" width="2" height="78.875" id="cases-ep-16"></rect></g><g><rect x="136.41818181818184" y="59.962500000000006" width="2" height="40.037499999999994" id="cases-ep-17"></rect></g><g><rect x="132.85454545454544" y="57.49999999999999" width="2" height="42.50000000000001" id="cases-ep-18"></rect></g><g><rect x="129.29090909090908" y="36.95" width="2" height="63.05" id="cases-ep-19"></rect></g><g><rect x="125.72727272727273" y="46.5375" width="2" height="53.4625" id="cases-ep-20"></rect></g><g><rect x="122.16363636363636" y="30.737499999999997" width="2" height="69.2625" id="cases-ep-21"></rect></g><g><rect x="118.6" y="27.137500000000003" width="2" height="72.8625" id="cases-ep-22"></rect></g><g><rect x="115.03636363636363" y="17.65" width="2" height="82.35" id="cases-ep-23"></rect></g><g><rect x="111.47272727272728" y="56.962500000000006" width="2" height="43.037499999999994" id="cases-ep-24"></rect></g><g><rect x="107.90909090909089" y="54.449999999999996" width="2" height="45.550000000000004" id="cases-ep-25"></rect></g><g><rect x="104.34545454545456" y="31.25" width="2" height="68.75" id="cases-ep-26"></rect></g><g><rect x="100.78181818181817" y="25.275000000000002" width="2" height="74.725" id="cases-ep-27"></rect></g><g><rect x="97.21818181818183" y="20.6125" width="2" height="79.3875" id="cases-ep-28"></rect></g><g><rect x="93.65454545454546" y="19.587500000000002" width="2" height="80.4125" id="cases-ep-29"></rect></g><g><rect x="90.09090909090911" y="8.587500000000004" width="2" height="91.4125" id="cases-ep-30"></rect></g><g><rect x="86.52727272727273" y="56.65" width="2" height="43.35" id="cases-ep-31"></rect></g><g><rect x="82.96363636363637" y="51.05" width="2" height="48.95" id="cases-ep-32"></rect></g><g><rect x="79.4" y="29.862500000000004" width="2" height="70.13749999999999" id="cases-ep-33"></rect></g><g><rect x="75.83636363636364" y="24.575000000000003" width="2" height="75.425" id="cases-ep-34"></rect></g><g><rect x="72.27272727272727" y="18.874999999999996" width="2" height="81.125" id="cases-ep-35"></rect></g><g><rect x="68.70909090909092" y="15.825" width="2" height="84.175" id="cases-ep-36"></rect></g><g><rect x="65.14545454545454" y="10.424999999999995" width="2" height="89.575" id="cases-ep-37"></rect></g><g><rect x="61.58181818181818" y="55.725" width="2" height="44.275" id="cases-ep-38"></rect></g><g><rect x="58.018181818181816" y="49.675000000000004" width="2" height="50.324999999999996" id="cases-ep-39"></rect></g><g><rect x="54.454545454545446" y="25.775000000000002" width="2" height="74.225" id="cases-ep-40"></rect></g><g><rect x="50.89090909090908" y="26.625" width="2" height="73.375" id="cases-ep-41"></rect></g><g><rect x="47.32727272727273" y="22.562499999999996" width="2" height="77.4375" id="cases-ep-42"></rect></g><g><rect x="43.76363636363636" y="20.862499999999994" width="2" height="79.1375" id="cases-ep-43"></rect></g><g><rect x="40.199999999999996" y="12.524999999999997" width="2" height="87.47500000000001" id="cases-ep-44"></rect></g><g><rect x="36.636363636363626" y="55.67500000000001" width="2" height="44.32499999999999" id="cases-ep-45"></rect></g><g><rect x="33.072727272727285" y="54.837500000000006" width="2" height="45.162499999999994" id="cases-ep-46"></rect></g><g><rect x="29.509090909090922" y="34.5125" width="2" height="65.4875" id="cases-ep-47"></rect></g><g><rect x="25.945454545454556" y="34.5" width="2" height="65.5" id="cases-ep-48"></rect></g><g><rect x="22.38181818181819" y="30.2125" width="2" height="69.7875" id="cases-ep-49"></rect></g><g><rect x="18.818181818181824" y="27.962500000000002" width="2" height="72.0375" id="cases-ep-50"></rect></g><g><rect x="15.254545454545461" y="28.000000000000004" width="2" height="72" id="cases-ep-51"></rect></g><g><rect x="11.690909090909095" y="59.137499999999996" width="2" height="40.862500000000004" id="cases-ep-52"></rect></g><g><rect x="8.12727272727273" y="56.512499999999996" width="2" height="43.487500000000004" id="cases-ep-53"></rect></g><g><rect x="4.563636363636365" y="35.78750000000001" width="2" height="64.21249999999999" id="cases-ep-54"></rect></g><g><rect x="1" y="34.162499999999994" width="2" height="65.8375" id="cases-ep-55"></rect></g></g><g class="fg-line cases-ep" fill="none" stroke="#92c5de" stroke-width="2" stroke-linecap="round"><path d="M198,38.635714285714286L194.43636363636364,42.08928571428571L190.87272727272727,45.137499999999996L187.30909090909088,49.50892857142857L183.74545454545455,51.33571428571428L180.1818181818182,52.628571428571426L176.61818181818182,51.82321428571428L173.05454545454546,47.35357142857143L169.49090909090907,46.294642857142854L165.92727272727274,45.13214285714285L162.36363636363637,42.95L158.8,42.362500000000004L155.23636363636365,41.949999999999996L151.6727272727273,41.0375L148.1090909090909,41.6125L144.54545454545453,40.81964285714286L140.9818181818182,39.99285714285714L137.41818181818184,39.49642857142857L133.85454545454544,39.06785714285714L130.29090909090908,38.63214285714286L126.72727272727273,37.81785714285715L123.16363636363636,34.78035714285714L119.6,33.33392857142856L116.03636363636363,32.25535714285714L112.47272727272728,30.960714285714285L108.90909090909089,30.916071428571435L105.34545454545456,30.430357142857144L101.78181818181817,30.23214285714285L98.21818181818183,30.132142857142853L94.65454545454546,29.883928571428562L91.09090909090911,29.34642857142856L87.52727272727273,29.60892857142856L83.96363636363637,29.476785714285715L80.4,29.28035714285715L76.83636363636364,28.696428571428566L73.27272727272727,28.989285714285707L69.70909090909092,29.516071428571433L66.14545454545454,30.235714285714288L62.58181818181818,30.53571428571429L59.018181818181816,30.52857142857144L55.454545454545446,31.26607142857143L51.89090909090908,32.514285714285705L48.32727272727273,33.63928571428572L44.76363636363636,34.732142857142854L41.199999999999996,35.74642857142857L37.636363636363626,37.957142857142856L34.072727272727285,38.45178571428571L30.509090909090922,38.69107142857143L26.945454545454556,38.87321428571428L23.38181818181819,38.824999999999996L19.818181818181824,38.1625L16.25454545454546,37.40178571428571L12.690909090909095,35.621428571428574L9.12727272727273,35.457142857142856L5.563636363636365,35.141071428571436L2,34.16785714285715"></path></g></svg>