<svg about="DATA_PUBLISHED_DATE:2021-10-28,RENDER_DATE:2021-10-28" xmlns="http://www.w3.org/2000/svg" viewBox="0,0,200,100"><g transform="translate(0,0)"></g><g class="fg-bars tests-vaccines" fill="#00183f" stroke="none"><g><rect x="197" y="44.564375" width="2" height="55.435625" id="tests-vaccines-0"></rect></g><g><rect x="193.43636363636364" y="42.190000000000005" width="2" height="57.809999999999995" id="tests-vaccines-1"></rect></g><g><rect x="189.87272727272727" y="39.689375000000005" width="2" height="60.310624999999995" id="tests-vaccines-2"></rect></g><g><rect x="186.30909090909088" y="81.435" width="2" height="18.564999999999998" id="tests-vaccines-3"></rect></g><g><rect x="182.74545454545455" y="64.376875" width="2" height="35.623125" id="tests-vaccines-4"></rect></g><g><rect x="179.1818181818182" y="23.695" width="2" height="76.305" id="tests-vaccines-5"></rect></g><g><rect x="175.61818181818182" y="39.000625" width="2" height="60.999375" id="tests-vaccines-6"></rect></g><g><rect x="172.05454545454546" y="39.595" width="2" height="60.405" id="tests-vaccines-7"></rect></g><g><rect x="168.49090909090907" y="35.895624999999995" width="2" height="64.104375" id="tests-vaccines-8"></rect></g><g><rect x="164.92727272727274" y="34.769375000000004" width="2" height="65.230625" id="tests-vaccines-9"></rect></g><g><rect x="161.36363636363637" y="78.25750000000001" width="2" height="21.742499999999993" id="tests-vaccines-10"></rect></g><g><rect x="157.8" y="60.229375000000005" width="2" height="39.770624999999995" id="tests-vaccines-11"></rect></g><g><rect x="154.23636363636365" y="13.371875" width="2" height="86.628125" id="tests-vaccines-12"></rect></g><g><rect x="150.6727272727273" y="28.760624999999994" width="2" height="71.23937500000001" id="tests-vaccines-13"></rect></g><g><rect x="147.1090909090909" y="33.64125" width="2" height="66.35875" id="tests-vaccines-14"></rect></g><g><rect x="143.54545454545453" y="31.843125000000004" width="2" height="68.156875" id="tests-vaccines-15"></rect></g><g><rect x="139.9818181818182" y="32.123749999999994" width="2" height="67.87625" id="tests-vaccines-16"></rect></g><g><rect x="136.41818181818184" y="76.55375" width="2" height="23.446250000000006" id="tests-vaccines-17"></rect></g><g><rect x="132.85454545454544" y="58.496875" width="2" height="41.503125" id="tests-vaccines-18"></rect></g><g><rect x="129.29090909090908" y="11.255000000000004" width="2" height="88.74499999999999" id="tests-vaccines-19"></rect></g><g><rect x="125.72727272727273" y="18.788125" width="2" height="81.21187499999999" id="tests-vaccines-20"></rect></g><g><rect x="122.16363636363636" y="20.447499999999998" width="2" height="79.55250000000001" id="tests-vaccines-21"></rect></g><g><rect x="118.6" y="19.894374999999997" width="2" height="80.105625" id="tests-vaccines-22"></rect></g><g><rect x="115.03636363636363" y="26.305625" width="2" height="73.69437500000001" id="tests-vaccines-23"></rect></g><g><rect x="111.47272727272728" y="75.62625" width="2" height="24.37375" id="tests-vaccines-24"></rect></g><g><rect x="107.90909090909089" y="56.018125000000005" width="2" height="43.981874999999995" id="tests-vaccines-25"></rect></g><g><rect x="104.34545454545456" y="32.744375000000005" width="2" height="67.255625" id="tests-vaccines-26"></rect></g><g><rect x="100.78181818181817" y="55.2975" width="2" height="44.7025" id="tests-vaccines-27"></rect></g><g><rect x="97.21818181818183" y="55.186249999999994" width="2" height="44.813750000000006" id="tests-vaccines-28"></rect></g><g><rect x="93.65454545454546" y="53.824375" width="2" height="46.175625" id="tests-vaccines-29"></rect></g><g><rect x="90.09090909090911" y="50.07937499999999" width="2" height="49.92062500000001" id="tests-vaccines-30"></rect></g><g><rect x="86.52727272727273" y="79.56" width="2" height="20.439999999999998" id="tests-vaccines-31"></rect></g><g><rect x="82.96363636363637" y="64.435625" width="2" height="35.564375" id="tests-vaccines-32"></rect></g><g><rect x="79.4" y="40.069374999999994" width="2" height="59.930625000000006" id="tests-vaccines-33"></rect></g><g><rect x="75.83636363636364" y="48.67812500000001" width="2" height="51.32187499999999" id="tests-vaccines-34"></rect></g><g><rect x="72.27272727272727" y="50.235625000000006" width="2" height="49.764374999999994" id="tests-vaccines-35"></rect></g><g><rect x="68.70909090909092" y="49.706875" width="2" height="50.293125" id="tests-vaccines-36"></rect></g><g><rect x="65.14545454545454" y="47.255" width="2" height="52.745" id="tests-vaccines-37"></rect></g><g><rect x="61.58181818181818" y="77.90625" width="2" height="22.09375" id="tests-vaccines-38"></rect></g><g><rect x="58.018181818181816" y="60.53937499999999" width="2" height="39.46062500000001" id="tests-vaccines-39"></rect></g><g><rect x="54.454545454545446" y="32.516875" width="2" height="67.483125" id="tests-vaccines-40"></rect></g><g><rect x="50.89090909090908" y="44.628125" width="2" height="55.371875" id="tests-vaccines-41"></rect></g><g><rect x="47.32727272727273" y="44.206250000000004" width="2" height="55.793749999999996" id="tests-vaccines-42"></rect></g><g><rect x="43.76363636363636" y="38.329375" width="2" height="61.670625" id="tests-vaccines-43"></rect></g><g><rect x="40.199999999999996" y="87.86749999999999" width="2" height="12.132500000000007" id="tests-vaccines-44"></rect></g><g><rect x="36.636363636363626" y="76.16125" width="2" height="23.838750000000005" id="tests-vaccines-45"></rect></g><g><rect x="33.072727272727285" y="59.936875" width="2" height="40.063125" id="tests-vaccines-46"></rect></g><g><rect x="29.509090909090922" y="26.056250000000002" width="2" height="73.94375" id="tests-vaccines-47"></rect></g><g><rect x="25.945454545454556" y="41.071250000000006" width="2" height="58.928749999999994" id="tests-vaccines-48"></rect></g><g><rect x="22.38181818181819" y="38.985" width="2" height="61.015" id="tests-vaccines-49"></rect></g><g><rect x="18.818181818181824" y="36.94875" width="2" height="63.05125" id="tests-vaccines-50"></rect></g><g><rect x="15.254545454545461" y="36.350625" width="2" height="63.649375" id="tests-vaccines-51"></rect></g><g><rect x="11.690909090909095" y="73.37374999999999" width="2" height="26.626250000000013" id="tests-vaccines-52"></rect></g><g><rect x="8.12727272727273" y="51.331875000000004" width="2" height="48.668124999999996" id="tests-vaccines-53"></rect></g><g><rect x="4.563636363636365" y="19.759375000000002" width="2" height="80.240625" id="tests-vaccines-54"></rect></g><g><rect x="1" y="34.8525" width="2" height="65.14750000000001" id="tests-vaccines-55"></rect></g></g><g class="fg-line tests-vaccines" fill="none" stroke="#92c5de" stroke-width="2" stroke-linecap="round"><path d="M198,47.85017857142857L194.43636363636364,47.140267857142845L190.87272727272727,46.24107142857143L187.30909090909088,45.53821428571428L183.74545454545455,45.08428571428571L180.1818181818182,44.49178571428571L176.61818181818182,43.01705357142856L173.05454545454546,41.55419642857143L169.49090909090907,40.70366071428572L165.92727272727274,40.12473214285714L162.36363636363637,39.746785714285714L158.8,39.50339285714285L155.23636363636365,39.25589285714285L151.6727272727273,38.95348214285714L148.1090909090909,37.52883928571429L144.54545454545453,35.64401785714285L140.9818181818182,33.937053571428564L137.41818181818184,33.10589285714285L133.85454545454544,32.973392857142855L130.29090909090908,32.619285714285716L126.72727272727273,35.689196428571435L123.16363636363636,40.90482142857144L119.6,45.86750000000001L116.03636363636363,50.714642857142856L112.47272727272728,54.11089285714286L108.90909090909089,54.67285714285715L105.34545454545456,55.87535714285714L101.78181818181817,56.92178571428572L98.21818181818183,55.97616071428572L94.65454545454546,55.26892857142857L91.09090909090911,54.68071428571428L87.52727272727273,54.277232142857144L83.96363636363637,54.04098214285715L80.4,53.48437500000001L76.83636363636364,52.40544642857144L73.27272727272727,51.82687500000001L69.70909090909092,50.965535714285714L66.14545454545454,49.340178571428574L62.58181818181818,55.14196428571429L59.018181818181816,54.89267857142857L55.454545454545446,54.806607142857146L51.89090909090908,53.88366071428572L48.32727272727273,53.37553571428572L44.76363636363636,52.629642857142855L41.199999999999996,52.432410714285716L37.636363636363626,45.072857142857146L34.072727272727285,44.67464285714286L30.509090909090922,43.44535714285714L26.945454545454556,42.545803571428564L23.38181818181819,41.65741071428572L19.818181818181824,41.19410714285715L16.25454545454546,40.67357142857143L12.690909090909095,40.294464285714284L9.12727272727273,40.345L5.563636363636365,40.521249999999995L2,40.653660714285714"></path></g></svg>