<svg about="DATA_PUBLISHED_DATE:2021-10-27,RENDER_DATE:2021-10-27" xmlns="http://www.w3.org/2000/svg" viewBox="0,0,200,100"><g transform="translate(0,0)"></g><g class="fg-bars cases-ep" fill="#00183f" stroke="none"><g><rect x="197" y="57.471428571428575" width="2" height="42.528571428571425" id="cases-ep-0"></rect></g><g><rect x="193.43636363636364" y="80.11428571428571" width="2" height="19.885714285714286" id="cases-ep-1"></rect></g><g><rect x="189.87272727272727" y="77.90714285714286" width="2" height="22.09285714285714" id="cases-ep-2"></rect></g><g><rect x="186.30909090909088" y="65.14999999999999" width="2" height="34.85000000000001" id="cases-ep-3"></rect></g><g><rect x="182.74545454545455" y="64.40714285714286" width="2" height="35.59285714285714" id="cases-ep-4"></rect></g><g><rect x="179.1818181818182" y="61.357142857142854" width="2" height="38.642857142857146" id="cases-ep-5"></rect></g><g><rect x="175.61818181818182" y="59.964285714285715" width="2" height="40.035714285714285" id="cases-ep-6"></rect></g><g><rect x="172.05454545454546" y="60.25714285714285" width="2" height="39.74285714285715" id="cases-ep-7"></rect></g><g><rect x="168.49090909090907" y="78.2" width="2" height="21.799999999999997" id="cases-ep-8"></rect></g><g><rect x="164.92727272727274" y="75.67857142857143" width="2" height="24.32142857142857" id="cases-ep-9"></rect></g><g><rect x="161.36363636363637" y="63.842857142857135" width="2" height="36.157142857142865" id="cases-ep-10"></rect></g><g><rect x="157.8" y="62.45" width="2" height="37.55" id="cases-ep-11"></rect></g><g><rect x="154.23636363636365" y="57.74285714285714" width="2" height="42.25714285714286" id="cases-ep-12"></rect></g><g><rect x="150.6727272727273" y="56.35" width="2" height="43.65" id="cases-ep-13"></rect></g><g><rect x="147.1090909090909" y="52.36428571428571" width="2" height="47.63571428571429" id="cases-ep-14"></rect></g><g><rect x="143.54545454545453" y="76.77142857142857" width="2" height="23.228571428571428" id="cases-ep-15"></rect></g><g><rect x="139.9818181818182" y="74.60714285714285" width="2" height="25.392857142857153" id="cases-ep-16"></rect></g><g><rect x="136.41818181818184" y="60.378571428571426" width="2" height="39.621428571428574" id="cases-ep-17"></rect></g><g><rect x="132.85454545454544" y="59.50714285714286" width="2" height="40.49285714285714" id="cases-ep-18"></rect></g><g><rect x="129.29090909090908" y="56.371428571428574" width="2" height="43.628571428571426" id="cases-ep-19"></rect></g><g><rect x="125.72727272727273" y="52.57857142857143" width="2" height="47.42142857142857" id="cases-ep-20"></rect></g><g><rect x="122.16363636363636" y="46.378571428571426" width="2" height="53.621428571428574" id="cases-ep-21"></rect></g><g><rect x="118.6" y="73.72142857142858" width="2" height="26.278571428571425" id="cases-ep-22"></rect></g><g><rect x="115.03636363636363" y="70.32142857142858" width="2" height="29.678571428571416" id="cases-ep-23"></rect></g><g><rect x="111.47272727272728" y="56.42857142857143" width="2" height="43.57142857142857" id="cases-ep-24"></rect></g><g><rect x="107.90909090909089" y="54.135714285714286" width="2" height="45.864285714285714" id="cases-ep-25"></rect></g><g><rect x="104.34545454545456" y="47.66428571428571" width="2" height="52.33571428571429" id="cases-ep-26"></rect></g><g><rect x="100.78181818181817" y="46.8" width="2" height="53.2" id="cases-ep-27"></rect></g><g><rect x="97.21818181818183" y="37.93571428571428" width="2" height="62.06428571428572" id="cases-ep-28"></rect></g><g><rect x="93.65454545454546" y="70.72142857142858" width="2" height="29.278571428571425" id="cases-ep-29"></rect></g><g><rect x="90.09090909090911" y="65.35" width="2" height="34.650000000000006" id="cases-ep-30"></rect></g><g><rect x="86.52727272727273" y="48.3" width="2" height="51.7" id="cases-ep-31"></rect></g><g><rect x="82.96363636363637" y="44.06428571428571" width="2" height="55.93571428571429" id="cases-ep-32"></rect></g><g><rect x="79.4" y="37.37142857142857" width="2" height="62.62857142857143" id="cases-ep-33"></rect></g><g><rect x="75.83636363636364" y="33.27142857142857" width="2" height="66.72857142857143" id="cases-ep-34"></rect></g><g><rect x="72.27272727272727" y="26.307142857142864" width="2" height="73.69285714285714" id="cases-ep-35"></rect></g><g><rect x="68.70909090909092" y="62.40714285714286" width="2" height="37.59285714285714" id="cases-ep-36"></rect></g><g><rect x="65.14545454545454" y="55.90714285714286" width="2" height="44.09285714285714" id="cases-ep-37"></rect></g><g><rect x="61.58181818181818" y="33.99285714285715" width="2" height="66.00714285714285" id="cases-ep-38"></rect></g><g><rect x="58.018181818181816" y="27.84285714285715" width="2" height="72.15714285714284" id="cases-ep-39"></rect></g><g><rect x="54.454545454545446" y="19.864285714285714" width="2" height="80.13571428571429" id="cases-ep-40"></rect></g><g><rect x="50.89090909090908" y="12.271428571428567" width="2" height="87.72857142857143" id="cases-ep-41"></rect></g><g><rect x="47.32727272727273" y="53.042857142857144" width="2" height="46.957142857142856" id="cases-ep-42"></rect></g><g><rect x="43.76363636363636" y="62.07857142857143" width="2" height="37.92142857142857" id="cases-ep-43"></rect></g><g><rect x="40.199999999999996" y="52.35714285714286" width="2" height="47.64285714285714" id="cases-ep-44"></rect></g><g><rect x="36.636363636363626" y="29.65" width="2" height="70.35" id="cases-ep-45"></rect></g><g><rect x="33.072727272727285" y="22.42857142857143" width="2" height="77.57142857142857" id="cases-ep-46"></rect></g><g><rect x="29.509090909090922" y="9.12142857142857" width="2" height="90.87857142857143" id="cases-ep-47"></rect></g><g><rect x="25.945454545454556" y="13.007142857142862" width="2" height="86.99285714285713" id="cases-ep-48"></rect></g><g><rect x="22.38181818181819" y="5.992857142857144" width="2" height="94.00714285714285" id="cases-ep-49"></rect></g><g><rect x="18.818181818181824" y="53.38571428571428" width="2" height="46.61428571428572" id="cases-ep-50"></rect></g><g><rect x="15.254545454545461" y="44.792857142857144" width="2" height="55.207142857142856" id="cases-ep-51"></rect></g><g><rect x="11.690909090909095" y="20.185714285714283" width="2" height="79.81428571428572" id="cases-ep-52"></rect></g><g><rect x="8.12727272727273" y="11.835714285714282" width="2" height="88.16428571428571" id="cases-ep-53"></rect></g><g><rect x="4.563636363636365" y="3.485714285714281" width="2" height="96.51428571428572" id="cases-ep-54"></rect></g><g><rect x="1" y="0.4785714285714282" width="2" height="99.52142857142857" id="cases-ep-55"></rect></g></g><g class="fg-line cases-ep" fill="none" stroke="#92c5de" stroke-width="2" stroke-linecap="round"><path d="M198,66.62448979591838L194.43636363636364,67.02244897959184L190.87272727272727,66.74897959183674L187.30909090909088,66.43061224489797L183.74545454545455,66.24387755102042L180.1818181818182,65.96428571428572L176.61818181818182,65.44795918367346L173.05454545454546,64.93163265306123L169.49090909090907,63.80408163265305L165.92727272727274,63.6L162.36363636363637,63.4469387755102L158.8,62.95204081632653L155.23636363636365,62.53163265306123L151.6727272727273,62.33571428571428L148.1090909090909,61.7969387755102L144.54545454545453,60.94183673469388L140.9818181818182,60.506122448979596L137.41818181818184,59.8938775510204L133.85454545454544,59.32959183673469L130.29090909090908,58.56224489795918L126.72727272727273,57.31836734693878L123.16363636363636,56.49285714285715L119.6,55.28673469387755L116.03636363636363,54.858163265306125L112.47272727272728,54.147959183673464L108.90909090909089,52.98673469387756L105.34545454545456,51.54795918367346L101.78181818181817,50.077551020408166L98.21818181818183,48.14489795918367L94.65454545454546,46.48367346938775L91.09090909090911,45.29591836734694L87.52727272727273,43.946938775510205L83.96363636363637,41.903061224489804L80.4,39.58571428571429L76.83636363636364,37.084693877551025L73.27272727272727,34.08469387755102L69.70909090909092,37.90408163265306L66.14545454545454,37.857142857142854L62.58181818181818,37.35000000000001L59.018181818181816,36.729591836734684L55.454545454545446,35.956122448979585L51.89090909090908,34.42142857142857L48.32727272727273,34.5265306122449L44.76363636363636,27.805102040816333L41.199999999999996,26.563265306122453L37.636363636363626,25.482653061224493L34.072727272727285,24.130612244897954L30.509090909090922,22.617346938775505L26.945454545454556,21.81224489795919L23.38181818181819,20.022448979591832L19.818181818181824,17.938775510204074L16.25454545454546,16.9765306122449L12.690909090909095,15.861224489795923L9.12727272727273,13.668367346938782L5.563636363636365,12.161224489795918L2,10.696938775510212"></path></g></svg>