<svg viewBox="0,0,200,100"><g transform="translate(0,0)"></g><g class="fg-bars cases-ep"><g><rect x="200" y="43.62777777777778" width="2" height="56.37222222222222" id="cases-ep-0"></rect></g><g><rect x="196.36363636363637" y="37.45" width="2" height="62.55" id="cases-ep-1"></rect></g><g><rect x="192.72727272727272" y="69.65555555555557" width="2" height="30.344444444444434" id="cases-ep-2"></rect></g><g><rect x="189.0909090909091" y="74.64444444444445" width="2" height="25.355555555555554" id="cases-ep-3"></rect></g><g><rect x="185.45454545454544" y="66.11666666666667" width="2" height="33.883333333333326" id="cases-ep-4"></rect></g><g><rect x="181.8181818181818" y="48.95555555555555" width="2" height="51.04444444444445" id="cases-ep-5"></rect></g><g><rect x="178.1818181818182" y="42.48888888888889" width="2" height="57.51111111111111" id="cases-ep-6"></rect></g><g><rect x="174.54545454545456" y="32.68333333333333" width="2" height="67.31666666666666" id="cases-ep-7"></rect></g><g><rect x="170.9090909090909" y="33.711111111111116" width="2" height="66.28888888888889" id="cases-ep-8"></rect></g><g><rect x="167.27272727272728" y="28.588888888888885" width="2" height="71.41111111111111" id="cases-ep-9"></rect></g><g><rect x="163.63636363636363" y="65.13888888888889" width="2" height="34.861111111111114" id="cases-ep-10"></rect></g><g><rect x="160" y="58.072222222222216" width="2" height="41.927777777777784" id="cases-ep-11"></rect></g><g><rect x="156.36363636363637" y="38.74999999999999" width="2" height="61.25000000000001" id="cases-ep-12"></rect></g><g><rect x="152.72727272727275" y="31.933333333333337" width="2" height="68.06666666666666" id="cases-ep-13"></rect></g><g><rect x="149.0909090909091" y="25.694444444444443" width="2" height="74.30555555555556" id="cases-ep-14"></rect></g><g><rect x="145.45454545454547" y="23.599999999999998" width="2" height="76.4" id="cases-ep-15"></rect></g><g><rect x="141.8181818181818" y="16.30555555555555" width="2" height="83.69444444444446" id="cases-ep-16"></rect></g><g><rect x="138.1818181818182" y="59.29444444444445" width="2" height="40.70555555555555" id="cases-ep-17"></rect></g><g><rect x="134.54545454545453" y="51.422222222222224" width="2" height="48.577777777777776" id="cases-ep-18"></rect></g><g><rect x="130.9090909090909" y="26.816666666666666" width="2" height="73.18333333333334" id="cases-ep-19"></rect></g><g><rect x="127.27272727272727" y="23.77222222222222" width="2" height="76.22777777777779" id="cases-ep-20"></rect></g><g><rect x="123.63636363636363" y="17.388888888888886" width="2" height="82.61111111111111" id="cases-ep-21"></rect></g><g><rect x="120" y="15.37777777777778" width="2" height="84.62222222222222" id="cases-ep-22"></rect></g><g><rect x="116.36363636363636" y="12.011111111111106" width="2" height="87.9888888888889" id="cases-ep-23"></rect></g><g><rect x="112.72727272727275" y="55.40555555555555" width="2" height="44.59444444444445" id="cases-ep-24"></rect></g><g><rect x="109.09090909090908" y="47.28888888888889" width="2" height="52.71111111111111" id="cases-ep-25"></rect></g><g><rect x="105.45454545454547" y="24.13333333333333" width="2" height="75.86666666666667" id="cases-ep-26"></rect></g><g><rect x="101.81818181818181" y="19.299999999999994" width="2" height="80.7" id="cases-ep-27"></rect></g><g><rect x="98.18181818181819" y="14.827777777777772" width="2" height="85.17222222222223" id="cases-ep-28"></rect></g><g><rect x="94.54545454545456" y="11.02777777777778" width="2" height="88.97222222222221" id="cases-ep-29"></rect></g><g><rect x="90.90909090909092" y="10.633333333333328" width="2" height="89.36666666666667" id="cases-ep-30"></rect></g><g><rect x="87.27272727272728" y="52.70555555555556" width="2" height="47.29444444444444" id="cases-ep-31"></rect></g><g><rect x="83.63636363636364" y="46.988888888888894" width="2" height="53.011111111111106" id="cases-ep-32"></rect></g><g><rect x="80" y="29.15555555555556" width="2" height="70.84444444444443" id="cases-ep-33"></rect></g><g><rect x="76.36363636363637" y="23.89444444444444" width="2" height="76.10555555555555" id="cases-ep-34"></rect></g><g><rect x="72.72727272727273" y="22.65555555555555" width="2" height="77.34444444444445" id="cases-ep-35"></rect></g><g><rect x="69.0909090909091" y="20.972222222222225" width="2" height="79.02777777777777" id="cases-ep-36"></rect></g><g><rect x="65.45454545454545" y="22.755555555555553" width="2" height="77.24444444444444" id="cases-ep-37"></rect></g><g><rect x="61.81818181818181" y="53.62777777777779" width="2" height="46.37222222222221" id="cases-ep-38"></rect></g><g><rect x="58.18181818181818" y="53.31666666666667" width="2" height="46.68333333333333" id="cases-ep-39"></rect></g><g><rect x="54.54545454545454" y="38.977777777777774" width="2" height="61.022222222222226" id="cases-ep-40"></rect></g><g><rect x="50.90909090909091" y="35.272222222222226" width="2" height="64.72777777777777" id="cases-ep-41"></rect></g><g><rect x="47.272727272727266" y="34.8" width="2" height="65.2" id="cases-ep-42"></rect></g><g><rect x="43.636363636363626" y="38.1" width="2" height="61.9" id="cases-ep-43"></rect></g><g><rect x="39.99999999999999" y="35.38888888888889" width="2" height="64.61111111111111" id="cases-ep-44"></rect></g><g><rect x="36.36363636363635" y="64.71111111111112" width="2" height="35.28888888888888" id="cases-ep-45"></rect></g><g><rect x="32.72727272727274" y="62.85000000000001" width="2" height="37.14999999999999" id="cases-ep-46"></rect></g><g><rect x="29.0909090909091" y="55.48333333333333" width="2" height="44.51666666666667" id="cases-ep-47"></rect></g><g><rect x="25.454545454545464" y="54.2" width="2" height="45.8" id="cases-ep-48"></rect></g><g><rect x="21.818181818181827" y="51.6888888888889" width="2" height="48.3111111111111" id="cases-ep-49"></rect></g><g><rect x="18.181818181818187" y="54.07222222222222" width="2" height="45.92777777777778" id="cases-ep-50"></rect></g><g><rect x="14.54545454545455" y="53.81666666666667" width="2" height="46.18333333333333" id="cases-ep-51"></rect></g><g><rect x="10.909090909090914" y="73.69444444444444" width="2" height="26.305555555555557" id="cases-ep-52"></rect></g><g><rect x="7.272727272727275" y="74.33888888888889" width="2" height="25.66111111111111" id="cases-ep-53"></rect></g><g><rect x="3.6363636363636376" y="67.11111111111111" width="2" height="32.888888888888886" id="cases-ep-54"></rect></g><g><rect x="0" y="67.71666666666667" width="2" height="32.28333333333333" id="cases-ep-55"></rect></g></g><g class="fg-line cases-ep"><path d="M200,54.70555555555556L196.36363636363637,53.1420634920635L192.72727272727272,52.6079365079365L189.0909090909091,46.74126984126984L185.45454545454544,45.38333333333333L181.8181818181818,44.23412698412699L178.1818181818182,42.77619047619048L174.54545454545456,41.268253968253966L170.9090909090909,40.26984126984128L167.27272727272728,38.82539682539683L163.63636363636363,37.07063492063492L160,36.23571428571428L156.36363636363637,35.285714285714285L152.72727272727275,33.58095238095239L149.0909090909091,32.41507936507937L145.45454545454547,31.228571428571428L141.8181818181818,30.053968253968254L138.1818181818182,29.440476190476183L134.54545454545453,28.88492063492063L130.9090909090909,28.294444444444444L127.27272727272727,27.911111111111108L123.63636363636363,27.27222222222222L120,26.9063492063492L116.36363636363636,26.284920634920628L112.72727272727275,26.088095238095242L109.09090909090908,25.702380952380942L105.45454545454547,25.65952380952381L101.81818181818181,26.376984126984127L98.18181818181819,27.03333333333333L94.54545454545456,28.1515873015873L90.90909090909092,29.572222222222223L87.27272727272728,31.30396825396826L83.63636363636364,31.435714285714276L80,32.339682539682535L76.36363636363637,33.74285714285714L72.72727272727273,35.36825396825396L69.0909090909091,37.10317460317461L65.45454545454545,39.55L61.81818181818181,41.35476190476191L58.18181818181818,42.938095238095244L54.54545454545454,44.3L50.90909090909091,46.657936507936505L47.272727272727266,49.36190476190476L43.636363636363626,51.774603174603165L39.99999999999999,54.05634920634921L36.36363636363635,56.68888888888889L32.72727272727274,57.97222222222223L29.0909090909091,59.61349206349207L25.454545454545464,61.27460317460318L21.818181818181827,63.20555555555556L18.181818181818187,65.72936507936508L14.54545454545455,68.05873015873016L10.909090909090914,70.43412698412699L7.272727272727275,71.73174603174604L3.6363636363636376,72.93015873015874L0,74.78730158730158"></path></g></svg>