<svg meta="{&quot;DATA_PUBLISHED_DATE&quot;:&quot;2022-10-20&quot;,&quot;RENDER_DATE&quot;:&quot;2022-10-20&quot;,&quot;FIRST_DATE&quot;:&quot;2022-08-18&quot;,&quot;LAST_DATE&quot;:&quot;2022-10-12&quot;}" xmlns="http://www.w3.org/2000/svg" viewBox="0,0,200,100"><g transform="translate(0,0)"></g><g class="fg-bars tests-vaccines" fill="#00183f" stroke="none"><g><rect x="197" y="16.774999999999995" width="2" height="83.22500000000001" id="tests-vaccines-0"></rect></g><g><rect x="193.43636363636364" y="22.324999999999996" width="2" height="77.67500000000001" id="tests-vaccines-1"></rect></g><g><rect x="189.87272727272727" y="19.515000000000004" width="2" height="80.485" id="tests-vaccines-2"></rect></g><g><rect x="186.30909090909088" y="77.905" width="2" height="22.095" id="tests-vaccines-3"></rect></g><g><rect x="182.74545454545455" y="55.9125" width="2" height="44.0875" id="tests-vaccines-4"></rect></g><g><rect x="179.1818181818182" y="1.4425000000000021" width="2" height="98.5575" id="tests-vaccines-5"></rect></g><g><rect x="175.61818181818182" y="21.205833333333334" width="2" height="78.79416666666667" id="tests-vaccines-6"></rect></g><g><rect x="172.05454545454546" y="17.386666666666663" width="2" height="82.61333333333334" id="tests-vaccines-7"></rect></g><g><rect x="168.49090909090907" y="25.005" width="2" height="74.995" id="tests-vaccines-8"></rect></g><g><rect x="164.92727272727274" y="21.134166666666665" width="2" height="78.86583333333334" id="tests-vaccines-9"></rect></g><g><rect x="161.36363636363637" y="78.505" width="2" height="21.495000000000005" id="tests-vaccines-10"></rect></g><g><rect x="157.8" y="59.8875" width="2" height="40.1125" id="tests-vaccines-11"></rect></g><g><rect x="154.23636363636365" y="6.833333333333336" width="2" height="93.16666666666666" id="tests-vaccines-12"></rect></g><g><rect x="150.6727272727273" y="25.144999999999996" width="2" height="74.855" id="tests-vaccines-13"></rect></g><g><rect x="147.1090909090909" y="21.866666666666667" width="2" height="78.13333333333333" id="tests-vaccines-14"></rect></g><g><rect x="143.54545454545453" y="27.469166666666666" width="2" height="72.53083333333333" id="tests-vaccines-15"></rect></g><g><rect x="139.9818181818182" y="22.587500000000006" width="2" height="77.4125" id="tests-vaccines-16"></rect></g><g><rect x="136.41818181818184" y="78.05" width="2" height="21.950000000000003" id="tests-vaccines-17"></rect></g><g><rect x="132.85454545454544" y="57.88666666666666" width="2" height="42.11333333333334" id="tests-vaccines-18"></rect></g><g><rect x="129.29090909090908" y="2.675000000000005" width="2" height="97.32499999999999" id="tests-vaccines-19"></rect></g><g><rect x="125.72727272727273" y="24.816666666666663" width="2" height="75.18333333333334" id="tests-vaccines-20"></rect></g><g><rect x="122.16363636363636" y="22.87" width="2" height="77.13" id="tests-vaccines-21"></rect></g><g><rect x="118.6" y="30.679166666666667" width="2" height="69.32083333333333" id="tests-vaccines-22"></rect></g><g><rect x="115.03636363636363" y="29.269166666666667" width="2" height="70.73083333333334" id="tests-vaccines-23"></rect></g><g><rect x="111.47272727272728" y="80.71333333333334" width="2" height="19.28666666666666" id="tests-vaccines-24"></rect></g><g><rect x="107.90909090909089" y="63.260000000000005" width="2" height="36.739999999999995" id="tests-vaccines-25"></rect></g><g><rect x="104.34545454545456" y="15.575833333333334" width="2" height="84.42416666666666" id="tests-vaccines-26"></rect></g><g><rect x="100.78181818181817" y="34.74333333333334" width="2" height="65.25666666666666" id="tests-vaccines-27"></rect></g><g><rect x="97.21818181818183" y="32.495" width="2" height="67.505" id="tests-vaccines-28"></rect></g><g><rect x="93.65454545454546" y="40.210833333333326" width="2" height="59.789166666666674" id="tests-vaccines-29"></rect></g><g><rect x="90.09090909090911" y="35.9725" width="2" height="64.0275" id="tests-vaccines-30"></rect></g><g><rect x="86.52727272727273" y="79.78333333333335" width="2" height="20.216666666666654" id="tests-vaccines-31"></rect></g><g><rect x="82.96363636363637" y="67.00416666666666" width="2" height="32.99583333333334" id="tests-vaccines-32"></rect></g><g><rect x="79.4" y="38.775000000000006" width="2" height="61.224999999999994" id="tests-vaccines-33"></rect></g><g><rect x="75.83636363636364" y="60.49416666666667" width="2" height="39.50583333333333" id="tests-vaccines-34"></rect></g><g><rect x="72.27272727272727" y="60.30916666666667" width="2" height="39.69083333333333" id="tests-vaccines-35"></rect></g><g><rect x="68.70909090909092" y="76.82249999999999" width="2" height="23.17750000000001" id="tests-vaccines-36"></rect></g><g><rect x="65.14545454545454" y="99.00416666666668" width="2" height="0.9958333333333229" id="tests-vaccines-37"></rect></g><g><rect x="61.58181818181818" y="94.39999999999999" width="2" height="5.6000000000000085" id="tests-vaccines-38"></rect></g><g><rect x="58.018181818181816" y="92.04416666666667" width="2" height="7.955833333333331" id="tests-vaccines-39"></rect></g><g><rect x="54.454545454545446" y="89.31083333333333" width="2" height="10.689166666666665" id="tests-vaccines-40"></rect></g><g><rect x="50.89090909090908" y="91.10333333333334" width="2" height="8.896666666666661" id="tests-vaccines-41"></rect></g><g><rect x="47.32727272727273" y="86.41333333333333" width="2" height="13.586666666666673" id="tests-vaccines-42"></rect></g><g><rect x="43.76363636363636" y="83.74416666666666" width="2" height="16.255833333333342" id="tests-vaccines-43"></rect></g><g><rect x="40.199999999999996" y="84.38749999999999" width="2" height="15.612500000000011" id="tests-vaccines-44"></rect></g><g><rect x="36.636363636363626" y="95.50416666666666" width="2" height="4.495833333333337" id="tests-vaccines-45"></rect></g><g><rect x="33.072727272727285" y="89.93583333333333" width="2" height="10.064166666666665" id="tests-vaccines-46"></rect></g><g><rect x="29.509090909090922" y="77.59583333333333" width="2" height="22.40416666666667" id="tests-vaccines-47"></rect></g><g><rect x="25.945454545454556" y="81.88" width="2" height="18.120000000000005" id="tests-vaccines-48"></rect></g><g><rect x="22.38181818181819" y="80.78916666666667" width="2" height="19.210833333333326" id="tests-vaccines-49"></rect></g><g><rect x="18.818181818181824" y="81.22" width="2" height="18.78" id="tests-vaccines-50"></rect></g><g><rect x="15.254545454545461" y="81.52166666666668" width="2" height="18.478333333333325" id="tests-vaccines-51"></rect></g><g><rect x="11.690909090909095" y="95.33833333333334" width="2" height="4.661666666666662" id="tests-vaccines-52"></rect></g><g><rect x="8.12727272727273" y="89.25916666666667" width="2" height="10.740833333333327" id="tests-vaccines-53"></rect></g><g><rect x="4.563636363636365" y="73.58583333333333" width="2" height="26.414166666666674" id="tests-vaccines-54"></rect></g><g><rect x="1" y="78.52" width="2" height="21.480000000000004" id="tests-vaccines-55"></rect></g></g><g class="fg-line tests-vaccines" fill="none" stroke="#92c5de" stroke-width="2" stroke-linecap="round"><path d="M198,30.72583333333333L194.43636363636364,30.813214285714285L190.87272727272727,31.196071428571425L187.30909090909088,31.427380952380958L183.74545454545455,31.513095238095246L180.1818181818182,32.080952380952375L176.61818181818182,32.85107142857142L173.05454545454546,33.41380952380953L169.49090909090907,34.053809523809534L165.92727272727274,34.405833333333334L162.36363636363637,34.61345238095238L158.8,34.54845238095238L155.23636363636365,34.26261904761905L151.6727272727273,33.668571428571425L148.1090909090909,33.62166666666667L144.54545454545453,33.765L140.9818181818182,34.22357142857142L137.41818181818184,35.17809523809524L133.85454545454544,35.558571428571426L130.29090909090908,36.32619047619047L126.72727272727273,38.16916666666666L123.16363636363636,39.5872619047619L119.6,40.96226190476191L116.03636363636363,42.32392857142857L112.47272727272728,43.28154761904762L108.90909090909089,43.14869047619047L105.34545454545456,43.68357142857142L101.78181818181817,46.9977380952381L98.21818181818183,50.676428571428566L94.65454545454546,54.64988095238095L91.09090909090911,59.880119047619054L87.52727272727273,68.88464285714286L83.96363636363637,70.9727380952381L80.4,74.54988095238096L76.83636363636364,81.76928571428573L73.27272727272727,86.1420238095238L69.70909090909092,89.87119047619048L66.14545454545454,90.86L62.58181818181818,88.77190476190476L59.018181818181816,88.92964285714285L55.454545454545446,88.62845238095238L51.89090909090908,86.95488095238095L48.32727272727273,85.63726190476191L44.76363636363636,84.83380952380952L41.199999999999996,84.47321428571428L37.636363636363626,84.06380952380952L34.072727272727285,84.04011904761906L30.509090909090922,83.94345238095238L26.945454545454556,83.37059523809523L23.38181818181819,82.89059523809523L19.818181818181824,82.4647619047619L16.25454545454546,82.00440476190477L12.690909090909095,81.41785714285714L9.12727272727273,81.22785714285715L5.563636363636365,80.7875L2,80.05428571428573"></path></g></svg>