<svg about="DATA_PUBLISHED_DATE:2021-09-22,RENDER_DATE:2021-09-22" viewBox="0,0,200,100"><g transform="translate(0,0)"></g><g class="fg-bars cases-ep"><g><rect x="197" y="49.65555555555555" width="2" height="50.34444444444445" id="cases-ep-0"></rect></g><g><rect x="193.43636363636364" y="75.27222222222221" width="2" height="24.72777777777779" id="cases-ep-1"></rect></g><g><rect x="189.87272727272727" y="69.53888888888888" width="2" height="30.461111111111123" id="cases-ep-2"></rect></g><g><rect x="186.30909090909088" y="52.05555555555556" width="2" height="47.94444444444444" id="cases-ep-3"></rect></g><g><rect x="182.74545454545455" y="46.11666666666666" width="2" height="53.88333333333334" id="cases-ep-4"></rect></g><g><rect x="179.1818181818182" y="39.71666666666667" width="2" height="60.28333333333333" id="cases-ep-5"></rect></g><g><rect x="175.61818181818182" y="33.96666666666667" width="2" height="66.03333333333333" id="cases-ep-6"></rect></g><g><rect x="172.05454545454546" y="65.99999999999999" width="2" height="34.000000000000014" id="cases-ep-7"></rect></g><g><rect x="168.49090909090907" y="72.36111111111111" width="2" height="27.638888888888886" id="cases-ep-8"></rect></g><g><rect x="164.92727272727274" y="64.1888888888889" width="2" height="35.8111111111111" id="cases-ep-9"></rect></g><g><rect x="161.36363636363637" y="46.96666666666667" width="2" height="53.03333333333333" id="cases-ep-10"></rect></g><g><rect x="157.8" y="40.888888888888886" width="2" height="59.111111111111114" id="cases-ep-11"></rect></g><g><rect x="154.23636363636365" y="31.055555555555557" width="2" height="68.94444444444444" id="cases-ep-12"></rect></g><g><rect x="150.6727272727273" y="32.727777777777774" width="2" height="67.27222222222223" id="cases-ep-13"></rect></g><g><rect x="147.1090909090909" y="27.977777777777778" width="2" height="72.02222222222223" id="cases-ep-14"></rect></g><g><rect x="143.54545454545453" y="64.61111111111111" width="2" height="35.388888888888886" id="cases-ep-15"></rect></g><g><rect x="139.9818181818182" y="57.711111111111116" width="2" height="42.288888888888884" id="cases-ep-16"></rect></g><g><rect x="136.41818181818184" y="38.49444444444444" width="2" height="61.50555555555556" id="cases-ep-17"></rect></g><g><rect x="132.85454545454544" y="31.788888888888888" width="2" height="68.21111111111111" id="cases-ep-18"></rect></g><g><rect x="129.29090909090908" y="25.483333333333334" width="2" height="74.51666666666667" id="cases-ep-19"></rect></g><g><rect x="125.72727272727273" y="23.277777777777775" width="2" height="76.72222222222223" id="cases-ep-20"></rect></g><g><rect x="122.16363636363636" y="15.972222222222221" width="2" height="84.02777777777777" id="cases-ep-21"></rect></g><g><rect x="118.6" y="59.05555555555555" width="2" height="40.94444444444445" id="cases-ep-22"></rect></g><g><rect x="115.03636363636363" y="51.32777777777777" width="2" height="48.67222222222223" id="cases-ep-23"></rect></g><g><rect x="111.47272727272728" y="26.727777777777774" width="2" height="73.27222222222223" id="cases-ep-24"></rect></g><g><rect x="107.90909090909089" y="23.76111111111111" width="2" height="76.2388888888889" id="cases-ep-25"></rect></g><g><rect x="104.34545454545456" y="17.322222222222226" width="2" height="82.67777777777778" id="cases-ep-26"></rect></g><g><rect x="100.78181818181817" y="15.466666666666661" width="2" height="84.53333333333333" id="cases-ep-27"></rect></g><g><rect x="97.21818181818183" y="12.055555555555554" width="2" height="87.94444444444444" id="cases-ep-28"></rect></g><g><rect x="93.65454545454546" y="55.23888888888888" width="2" height="44.76111111111112" id="cases-ep-29"></rect></g><g><rect x="90.09090909090911" y="47.28333333333333" width="2" height="52.71666666666667" id="cases-ep-30"></rect></g><g><rect x="86.52727272727273" y="24.472222222222218" width="2" height="75.52777777777779" id="cases-ep-31"></rect></g><g><rect x="82.96363636363637" y="19.611111111111114" width="2" height="80.38888888888889" id="cases-ep-32"></rect></g><g><rect x="79.4" y="15.07222222222222" width="2" height="84.92777777777778" id="cases-ep-33"></rect></g><g><rect x="75.83636363636364" y="10.955555555555552" width="2" height="89.04444444444445" id="cases-ep-34"></rect></g><g><rect x="72.27272727272727" y="10.52777777777778" width="2" height="89.47222222222221" id="cases-ep-35"></rect></g><g><rect x="68.70909090909092" y="52.522222222222226" width="2" height="47.477777777777774" id="cases-ep-36"></rect></g><g><rect x="65.14545454545454" y="46.78888888888889" width="2" height="53.21111111111111" id="cases-ep-37"></rect></g><g><rect x="61.58181818181818" y="29.088888888888885" width="2" height="70.91111111111111" id="cases-ep-38"></rect></g><g><rect x="58.018181818181816" y="23.872222222222216" width="2" height="76.12777777777778" id="cases-ep-39"></rect></g><g><rect x="54.454545454545446" y="22.53333333333334" width="2" height="77.46666666666667" id="cases-ep-40"></rect></g><g><rect x="50.89090909090908" y="20.84444444444444" width="2" height="79.15555555555557" id="cases-ep-41"></rect></g><g><rect x="47.32727272727273" y="22.68888888888889" width="2" height="77.3111111111111" id="cases-ep-42"></rect></g><g><rect x="43.76363636363636" y="53.49444444444445" width="2" height="46.50555555555555" id="cases-ep-43"></rect></g><g><rect x="40.199999999999996" y="53.25555555555555" width="2" height="46.74444444444445" id="cases-ep-44"></rect></g><g><rect x="36.636363636363626" y="38.83333333333333" width="2" height="61.16666666666667" id="cases-ep-45"></rect></g><g><rect x="33.072727272727285" y="35.18333333333333" width="2" height="64.81666666666666" id="cases-ep-46"></rect></g><g><rect x="29.509090909090922" y="34.71666666666666" width="2" height="65.28333333333333" id="cases-ep-47"></rect></g><g><rect x="25.945454545454556" y="38.05555555555556" width="2" height="61.94444444444444" id="cases-ep-48"></rect></g><g><rect x="22.38181818181819" y="35.35" width="2" height="64.65" id="cases-ep-49"></rect></g><g><rect x="18.818181818181824" y="64.69444444444444" width="2" height="35.30555555555556" id="cases-ep-50"></rect></g><g><rect x="15.254545454545461" y="62.83333333333334" width="2" height="37.16666666666666" id="cases-ep-51"></rect></g><g><rect x="11.690909090909095" y="55.46666666666666" width="2" height="44.53333333333334" id="cases-ep-52"></rect></g><g><rect x="8.12727272727273" y="54.18888888888888" width="2" height="45.81111111111112" id="cases-ep-53"></rect></g><g><rect x="4.563636363636365" y="51.6888888888889" width="2" height="48.3111111111111" id="cases-ep-54"></rect></g><g><rect x="1" y="54.07777777777778" width="2" height="45.92222222222222" id="cases-ep-55"></rect></g></g><g class="fg-line cases-ep"><path stroke-linecap="round" d="M198,52.33174603174604L194.43636363636364,54.666666666666664L190.87272727272727,54.250793650793646L187.30909090909088,53.48650793650794L183.74545454545455,52.75952380952381L180.1818181818182,52.01269841269841L176.61818181818182,50.775396825396825L173.05454545454546,50.5984126984127L169.49090909090907,45.166666666666664L165.92727272727274,44.05952380952382L162.36363636363637,43.134126984126986L158.8,41.92380952380952L155.23636363636365,40.62380952380952L151.6727272727273,39.827777777777776L148.1090909090909,38.477777777777774L144.54545454545453,36.76269841269841L140.9818181818182,35.969047619047615L137.41818181818184,35.05714285714285L133.85454545454544,33.37619047619048L130.29090909090908,32.22936507936508L126.72727272727273,31.06349206349206L123.16363636363636,29.947619047619057L119.6,29.388095238095236L116.03636363636363,28.84285714285715L112.47272727272728,28.26507936507937L108.90909090909089,27.942857142857147L105.34545454545456,27.349999999999998L101.78181818181817,27.028571428571425L98.21818181818183,26.384126984126986L94.65454545454546,26.16587301587302L91.09090909090911,25.77777777777778L87.52727272727273,25.707142857142852L83.96363636363637,26.36666666666667L80.4,26.975396825396825L76.83636363636364,28.041269841269834L73.27272727272727,29.453968253968256L69.70909090909092,31.191269841269843L66.14545454545454,31.33015873015873L62.58181818181818,32.25396825396826L59.018181818181816,33.646031746031746L55.454545454545446,35.26190476190476L51.89090909090908,37.00238095238095L48.32727272727273,39.461111111111116L44.76363636363636,41.26984126984128L41.199999999999996,42.86984126984127L37.636363636363626,44.23809523809524L34.072727272727285,46.61428571428572L30.509090909090922,49.329365079365076L26.945454545454556,51.75396825396825L23.38181818181819,54.042857142857144L19.818181818181824,56.68253968253969L16.25454545454546,57.96825396825397L12.690909090909095,59.60873015873016L9.12727272727273,61.27142857142858L5.563636363636365,63.2063492063492L2,65.72857142857143"></path></g></svg>