<svg meta="{&quot;DATA_PUBLISHED_DATE&quot;:&quot;2023-03-02&quot;,&quot;RENDER_DATE&quot;:&quot;2023-03-02&quot;,&quot;FIRST_DATE&quot;:&quot;2022-12-28&quot;,&quot;LAST_DATE&quot;:&quot;2023-02-21&quot;}" xmlns="http://www.w3.org/2000/svg" viewBox="0,0,200,100"><g transform="translate(0,0)"></g><g class="fg-bars cases-ep" fill="#00183f" stroke="none"><g><rect x="197" y="57.87777777777778" width="2" height="42.12222222222222" id="cases-ep-0"></rect></g><g><rect x="193.43636363636364" y="68.83333333333333" width="2" height="31.16666666666667" id="cases-ep-1"></rect></g><g><rect x="189.87272727272727" y="78.87777777777778" width="2" height="21.12222222222222" id="cases-ep-2"></rect></g><g><rect x="186.30909090909088" y="79.0111111111111" width="2" height="20.988888888888894" id="cases-ep-3"></rect></g><g><rect x="182.74545454545455" y="69.07777777777777" width="2" height="30.92222222222223" id="cases-ep-4"></rect></g><g><rect x="179.1818181818182" y="66.42222222222223" width="2" height="33.57777777777777" id="cases-ep-5"></rect></g><g><rect x="175.61818181818182" y="65.21111111111111" width="2" height="34.78888888888889" id="cases-ep-6"></rect></g><g><rect x="172.05454545454546" y="64.12222222222222" width="2" height="35.87777777777778" id="cases-ep-7"></rect></g><g><rect x="168.49090909090907" y="58.666666666666664" width="2" height="41.333333333333336" id="cases-ep-8"></rect></g><g><rect x="164.92727272727274" y="78" width="2" height="22" id="cases-ep-9"></rect></g><g><rect x="161.36363636363637" y="76.42222222222223" width="2" height="23.57777777777777" id="cases-ep-10"></rect></g><g><rect x="157.8" y="66.3" width="2" height="33.7" id="cases-ep-11"></rect></g><g><rect x="154.23636363636365" y="65.21111111111111" width="2" height="34.78888888888889" id="cases-ep-12"></rect></g><g><rect x="150.6727272727273" y="61.95555555555556" width="2" height="38.04444444444444" id="cases-ep-13"></rect></g><g><rect x="147.1090909090909" y="61.133333333333326" width="2" height="38.866666666666674" id="cases-ep-14"></rect></g><g><rect x="143.54545454545453" y="53.98888888888889" width="2" height="46.01111111111111" id="cases-ep-15"></rect></g><g><rect x="139.9818181818182" y="76.52222222222223" width="2" height="23.477777777777774" id="cases-ep-16"></rect></g><g><rect x="136.41818181818184" y="76.42222222222223" width="2" height="23.57777777777777" id="cases-ep-17"></rect></g><g><rect x="132.85454545454544" y="67.64444444444445" width="2" height="32.355555555555554" id="cases-ep-18"></rect></g><g><rect x="129.29090909090908" y="65.88888888888889" width="2" height="34.111111111111114" id="cases-ep-19"></rect></g><g><rect x="125.72727272727273" y="63.65555555555555" width="2" height="36.34444444444445" id="cases-ep-20"></rect></g><g><rect x="122.16363636363636" y="62.144444444444446" width="2" height="37.855555555555554" id="cases-ep-21"></rect></g><g><rect x="118.6" y="59.488888888888894" width="2" height="40.511111111111106" id="cases-ep-22"></rect></g><g><rect x="115.03636363636363" y="79.17777777777778" width="2" height="20.822222222222223" id="cases-ep-23"></rect></g><g><rect x="111.47272727272728" y="78.05555555555556" width="2" height="21.944444444444443" id="cases-ep-24"></rect></g><g><rect x="107.90909090909089" y="68.6" width="2" height="31.400000000000006" id="cases-ep-25"></rect></g><g><rect x="104.34545454545456" y="69.37777777777778" width="2" height="30.62222222222222" id="cases-ep-26"></rect></g><g><rect x="100.78181818181817" y="66.32222222222222" width="2" height="33.67777777777778" id="cases-ep-27"></rect></g><g><rect x="97.21818181818183" y="64.83333333333333" width="2" height="35.16666666666667" id="cases-ep-28"></rect></g><g><rect x="93.65454545454546" y="64.33333333333333" width="2" height="35.66666666666667" id="cases-ep-29"></rect></g><g><rect x="90.09090909090911" y="80.83333333333333" width="2" height="19.16666666666667" id="cases-ep-30"></rect></g><g><rect x="86.52727272727273" y="80.52222222222223" width="2" height="19.477777777777774" id="cases-ep-31"></rect></g><g><rect x="82.96363636363637" y="71.9888888888889" width="2" height="28.011111111111106" id="cases-ep-32"></rect></g><g><rect x="79.4" y="69.73333333333333" width="2" height="30.266666666666666" id="cases-ep-33"></rect></g><g><rect x="75.83636363636364" y="66.8111111111111" width="2" height="33.1888888888889" id="cases-ep-34"></rect></g><g><rect x="72.27272727272727" y="61.077777777777776" width="2" height="38.922222222222224" id="cases-ep-35"></rect></g><g><rect x="68.70909090909092" y="70.08888888888889" width="2" height="29.91111111111111" id="cases-ep-36"></rect></g><g><rect x="65.14545454545454" y="79.43333333333334" width="2" height="20.566666666666663" id="cases-ep-37"></rect></g><g><rect x="61.58181818181818" y="78.24444444444445" width="2" height="21.755555555555546" id="cases-ep-38"></rect></g><g><rect x="58.018181818181816" y="66.41111111111111" width="2" height="33.58888888888889" id="cases-ep-39"></rect></g><g><rect x="54.454545454545446" y="63.844444444444434" width="2" height="36.155555555555566" id="cases-ep-40"></rect></g><g><rect x="50.89090909090908" y="58.55555555555556" width="2" height="41.44444444444444" id="cases-ep-41"></rect></g><g><rect x="47.32727272727273" y="58.18888888888889" width="2" height="41.81111111111111" id="cases-ep-42"></rect></g><g><rect x="43.76363636363636" y="47.05555555555555" width="2" height="52.94444444444445" id="cases-ep-43"></rect></g><g><rect x="40.199999999999996" y="70.24444444444444" width="2" height="29.75555555555556" id="cases-ep-44"></rect></g><g><rect x="36.636363636363626" y="64.83333333333333" width="2" height="35.16666666666667" id="cases-ep-45"></rect></g><g><rect x="33.072727272727285" y="45.49999999999999" width="2" height="54.50000000000001" id="cases-ep-46"></rect></g><g><rect x="29.509090909090922" y="45.199999999999996" width="2" height="54.800000000000004" id="cases-ep-47"></rect></g><g><rect x="25.945454545454556" y="35.67777777777778" width="2" height="64.32222222222222" id="cases-ep-48"></rect></g><g><rect x="22.38181818181819" y="18.24444444444444" width="2" height="81.75555555555556" id="cases-ep-49"></rect></g><g><rect x="18.818181818181824" y="38.3" width="2" height="61.7" id="cases-ep-50"></rect></g><g><rect x="15.254545454545461" y="69.38888888888889" width="2" height="30.611111111111114" id="cases-ep-51"></rect></g><g><rect x="11.690909090909095" y="57.95555555555556" width="2" height="42.04444444444444" id="cases-ep-52"></rect></g><g><rect x="8.12727272727273" y="25.377777777777776" width="2" height="74.62222222222222" id="cases-ep-53"></rect></g><g><rect x="4.563636363636365" y="15.300000000000002" width="2" height="84.7" id="cases-ep-54"></rect></g><g><rect x="1" y="3.5222222222222266" width="2" height="96.47777777777777" id="cases-ep-55"></rect></g></g><g class="fg-line cases-ep" fill="none" stroke="#92c5de" stroke-width="2" stroke-linecap="round"><path d="M198,69.33015873015873L194.43636363636364,70.22222222222223L190.87272727272727,68.76984126984127L187.30909090909088,68.64444444444445L183.74545454545455,68.27460317460317L180.1818181818182,67.87777777777777L176.61818181818182,67.70476190476191L173.05454545454546,67.23968253968253L169.49090909090907,66.81269841269841L165.92727272727274,66.14444444444445L162.36363636363637,65.93333333333334L158.8,65.93333333333334L155.23636363636365,66.12539682539682L151.6727272727273,66.22222222222223L148.1090909090909,66.46507936507936L144.54545454545453,66.60952380952381L140.9818181818182,67.39523809523808L137.41818181818184,67.77460317460317L133.85454545454544,68.0079365079365L130.29090909090908,68.14444444444445L126.72727272727273,68.64285714285714L123.16363636363636,69.02380952380953L119.6,69.40793650793651L116.03636363636363,70.10000000000001L112.47272727272728,70.33650793650794L108.90909090909089,70.6888888888889L105.34545454545456,71.17301587301587L101.78181818181817,71.22380952380954L98.21818181818183,71.2936507936508L94.65454545454546,70.75714285714285L91.09090909090911,71.57936507936509L87.52727272727273,71.37936507936509L83.96363636363637,71.05396825396826L80.4,70.25714285714287L76.83636363636364,69.41587301587302L73.27272727272727,68.23650793650793L69.70909090909092,67.82380952380953L66.14545454545454,64.53333333333333L62.58181818181818,63.22063492063492L59.018181818181816,61.304761904761904L55.454545454545446,58.31746031746032L51.89090909090908,55.653968253968245L48.32727272727273,52.38571428571428L44.76363636363636,46.67936507936508L41.199999999999996,45.42857142857143L37.636363636363626,45.3063492063492L34.072727272727285,44.32380952380952L30.509090909090922,41.44920634920635L26.945454545454556,37.17777777777778L23.38181818181819,32.58412698412698L19.818181818181824,28.71111111111111L16.25454545454546,26.09365079365079L12.690909090909095,25.953968253968252L9.12727272727273,25.60634920634921L5.563636363636365,25.449206349206356L2,25.450793650793646"></path></g></svg>