<svg meta="{&quot;DATA_PUBLISHED_DATE&quot;:&quot;2023-10-27&quot;,&quot;RENDER_DATE&quot;:&quot;2023-10-27&quot;,&quot;FIRST_DATE&quot;:&quot;2023-08-27&quot;,&quot;LAST_DATE&quot;:&quot;2023-10-21&quot;}" xmlns="http://www.w3.org/2000/svg" viewBox="0,0,200,100"><g transform="translate(0,0)"></g><g class="fg-bars hospitalizations-count" fill="#00183f" stroke="none"><g><rect x="197" y="42.40909090909091" width="2" height="57.59090909090909" id="hospitalizations-count-0"></rect></g><g><rect x="193.43636363636364" y="41.13636363636364" width="2" height="58.86363636363636" id="hospitalizations-count-1"></rect></g><g><rect x="189.87272727272727" y="42.50000000000001" width="2" height="57.49999999999999" id="hospitalizations-count-2"></rect></g><g><rect x="186.30909090909088" y="41.18181818181819" width="2" height="58.81818181818181" id="hospitalizations-count-3"></rect></g><g><rect x="182.74545454545455" y="39" width="2" height="61" id="hospitalizations-count-4"></rect></g><g><rect x="179.1818181818182" y="40.18181818181819" width="2" height="59.81818181818181" id="hospitalizations-count-5"></rect></g><g><rect x="175.61818181818182" y="40" width="2" height="60" id="hospitalizations-count-6"></rect></g><g><rect x="172.05454545454546" y="39.45454545454545" width="2" height="60.54545454545455" id="hospitalizations-count-7"></rect></g><g><rect x="168.49090909090907" y="37.227272727272734" width="2" height="62.772727272727266" id="hospitalizations-count-8"></rect></g><g><rect x="164.92727272727274" y="36.227272727272734" width="2" height="63.772727272727266" id="hospitalizations-count-9"></rect></g><g><rect x="161.36363636363637" y="36.409090909090914" width="2" height="63.590909090909086" id="hospitalizations-count-10"></rect></g><g><rect x="157.8" y="34.77272727272728" width="2" height="65.22727272727272" id="hospitalizations-count-11"></rect></g><g><rect x="154.23636363636365" y="33.63636363636363" width="2" height="66.36363636363637" id="hospitalizations-count-12"></rect></g><g><rect x="150.6727272727273" y="31.181818181818176" width="2" height="68.81818181818183" id="hospitalizations-count-13"></rect></g><g><rect x="147.1090909090909" y="32.18181818181818" width="2" height="67.81818181818181" id="hospitalizations-count-14"></rect></g><g><rect x="143.54545454545453" y="28.772727272727273" width="2" height="71.22727272727272" id="hospitalizations-count-15"></rect></g><g><rect x="139.9818181818182" y="32.22727272727273" width="2" height="67.77272727272728" id="hospitalizations-count-16"></rect></g><g><rect x="136.41818181818184" y="31.954545454545457" width="2" height="68.04545454545455" id="hospitalizations-count-17"></rect></g><g><rect x="132.85454545454544" y="27.727272727272723" width="2" height="72.27272727272728" id="hospitalizations-count-18"></rect></g><g><rect x="129.29090909090908" y="34.77272727272728" width="2" height="65.22727272727272" id="hospitalizations-count-19"></rect></g><g><rect x="125.72727272727273" y="29.181818181818187" width="2" height="70.81818181818181" id="hospitalizations-count-20"></rect></g><g><rect x="122.16363636363636" y="29.000000000000004" width="2" height="71" id="hospitalizations-count-21"></rect></g><g><rect x="118.6" y="26.909090909090907" width="2" height="73.0909090909091" id="hospitalizations-count-22"></rect></g><g><rect x="115.03636363636363" y="24.818181818181817" width="2" height="75.18181818181819" id="hospitalizations-count-23"></rect></g><g><rect x="111.47272727272728" y="20.45454545454546" width="2" height="79.54545454545453" id="hospitalizations-count-24"></rect></g><g><rect x="107.90909090909089" y="21.18181818181818" width="2" height="78.81818181818181" id="hospitalizations-count-25"></rect></g><g><rect x="104.34545454545456" y="18.954545454545457" width="2" height="81.04545454545455" id="hospitalizations-count-26"></rect></g><g><rect x="100.78181818181817" y="19.90909090909091" width="2" height="80.0909090909091" id="hospitalizations-count-27"></rect></g><g><rect x="97.21818181818183" y="19.772727272727273" width="2" height="80.22727272727272" id="hospitalizations-count-28"></rect></g><g><rect x="93.65454545454546" y="17.227272727272723" width="2" height="82.77272727272728" id="hospitalizations-count-29"></rect></g><g><rect x="90.09090909090911" y="18.13636363636364" width="2" height="81.86363636363636" id="hospitalizations-count-30"></rect></g><g><rect x="86.52727272727273" y="12.77272727272727" width="2" height="87.22727272727273" id="hospitalizations-count-31"></rect></g><g><rect x="82.96363636363637" y="13.181818181818183" width="2" height="86.81818181818181" id="hospitalizations-count-32"></rect></g><g><rect x="79.4" y="15.81818181818182" width="2" height="84.18181818181819" id="hospitalizations-count-33"></rect></g><g><rect x="75.83636363636364" y="13.363636363636367" width="2" height="86.63636363636363" id="hospitalizations-count-34"></rect></g><g><rect x="72.27272727272727" y="15.181818181818185" width="2" height="84.81818181818181" id="hospitalizations-count-35"></rect></g><g><rect x="68.70909090909092" y="10.909090909090914" width="2" height="89.0909090909091" id="hospitalizations-count-36"></rect></g><g><rect x="65.14545454545454" y="8.363636363636362" width="2" height="91.63636363636364" id="hospitalizations-count-37"></rect></g><g><rect x="61.58181818181818" y="8.18181818181818" width="2" height="91.81818181818181" id="hospitalizations-count-38"></rect></g><g><rect x="58.018181818181816" y="8.227272727272727" width="2" height="91.77272727272728" id="hospitalizations-count-39"></rect></g><g><rect x="54.454545454545446" y="14.04545454545455" width="2" height="85.95454545454545" id="hospitalizations-count-40"></rect></g><g><rect x="50.89090909090908" y="6.318181818181823" width="2" height="93.68181818181817" id="hospitalizations-count-41"></rect></g><g><rect x="47.32727272727273" y="12.409090909090914" width="2" height="87.5909090909091" id="hospitalizations-count-42"></rect></g><g><rect x="43.76363636363636" y="11.090909090909095" width="2" height="88.9090909090909" id="hospitalizations-count-43"></rect></g><g><rect x="40.199999999999996" y="7.8636363636363615" width="2" height="92.13636363636364" id="hospitalizations-count-44"></rect></g><g><rect x="36.636363636363626" y="7.045454545454543" width="2" height="92.95454545454545" id="hospitalizations-count-45"></rect></g><g><rect x="33.072727272727285" y="10.681818181818182" width="2" height="89.31818181818181" id="hospitalizations-count-46"></rect></g><g><rect x="29.509090909090922" y="13.318181818181818" width="2" height="86.68181818181819" id="hospitalizations-count-47"></rect></g><g><rect x="25.945454545454556" y="11.22727272727273" width="2" height="88.77272727272727" id="hospitalizations-count-48"></rect></g><g><rect x="22.38181818181819" y="15.81818181818182" width="2" height="84.18181818181819" id="hospitalizations-count-49"></rect></g><g><rect x="18.818181818181824" y="15.409090909090907" width="2" height="84.5909090909091" id="hospitalizations-count-50"></rect></g><g><rect x="15.254545454545461" y="14.863636363636367" width="2" height="85.13636363636363" id="hospitalizations-count-51"></rect></g><g><rect x="11.690909090909095" y="14.727272727272723" width="2" height="85.27272727272728" id="hospitalizations-count-52"></rect></g><g><rect x="8.12727272727273" y="16.500000000000004" width="2" height="83.5" id="hospitalizations-count-53"></rect></g><g><rect x="4.563636363636365" y="18.13636363636364" width="2" height="81.86363636363636" id="hospitalizations-count-54"></rect></g><g><rect x="1" y="19.499999999999996" width="2" height="80.5" id="hospitalizations-count-55"></rect></g></g><g class="fg-line hospitalizations-count" fill="none" stroke="#92c5de" stroke-width="2" stroke-linecap="round"><path d="M198,40.91558441558442L194.43636363636364,40.493506493506494L190.87272727272727,39.935064935064936L187.30909090909088,39.03896103896104L183.74545454545455,38.357142857142854L180.1818181818182,37.75324675324676L176.61818181818182,36.81818181818181L173.05454545454546,35.55844155844156L169.49090909090907,34.51948051948052L165.92727272727274,33.311688311688314L162.36363636363637,32.74025974025974L158.8,32.103896103896105L155.23636363636365,31.097402597402603L151.6727272727273,31.259740259740266L148.1090909090909,30.974025974025963L144.54545454545453,30.519480519480513L140.9818181818182,30.253246753246753L137.41818181818184,29.194805194805195L133.85454545454544,27.55194805194805L130.29090909090908,26.616883116883116L126.72727272727273,24.357142857142854L123.16363636363636,23.03246753246754L119.6,21.71428571428572L116.03636363636363,20.33116883116883L112.47272727272728,19.37662337662337L108.90909090909089,18.279220779220772L105.34545454545456,17.13636363636364L101.78181818181817,16.688311688311686L98.21818181818183,15.753246753246753L94.65454545454546,15.0974025974026L91.09090909090911,14.194805194805193L87.52727272727273,12.798701298701298L83.96363636363637,12.142857142857144L80.4,11.435064935064943L76.83636363636364,11.181818181818182L73.27272727272727,10.175324675324681L69.70909090909092,9.779220779220775L66.14545454545454,9.805194805194805L62.58181818181818,9.733766233766229L59.018181818181816,9.571428571428575L55.454545454545446,9.922077922077921L51.89090909090908,9.818181818181815L48.32727272727273,10.519480519480517L44.76363636363636,11.00649350649351L41.199999999999996,11.623376623376625L37.636363636363626,12.623376623376625L34.072727272727285,13.720779220779223L30.509090909090922,14.551948051948049L26.945454545454556,15.240259740259743L23.38181818181819,16.422077922077914L19.818181818181824,17.175324675324678L16.25454545454546,17.81168831168831L12.690909090909095,18.759740259740266L9.12727272727273,19.746753246753247L5.563636363636365,20.870129870129873L2,21.95454545454546"></path></g></svg>