<svg about="DATA_PUBLISHED_DATE:2021-11-18,RENDER_DATE:2021-11-18" xmlns="http://www.w3.org/2000/svg" viewBox="0,0,200,100"><g transform="translate(0,0)"></g><g class="fg-bars tests-vaccines" fill="#00183f" stroke="none"><g><rect x="197" y="10.652083333333328" width="2" height="89.34791666666668" id="tests-vaccines-0"></rect></g><g><rect x="193.43636363636364" y="12.93416666666667" width="2" height="87.06583333333333" id="tests-vaccines-1"></rect></g><g><rect x="189.87272727272727" y="19.410000000000004" width="2" height="80.59" id="tests-vaccines-2"></rect></g><g><rect x="186.30909090909088" y="73.13416666666667" width="2" height="26.865833333333327" id="tests-vaccines-3"></rect></g><g><rect x="182.74545454545455" y="49.025" width="2" height="50.975" id="tests-vaccines-4"></rect></g><g><rect x="179.1818181818182" y="2.020416666666669" width="2" height="97.97958333333334" id="tests-vaccines-5"></rect></g><g><rect x="175.61818181818182" y="20.120000000000005" width="2" height="79.88" id="tests-vaccines-6"></rect></g><g><rect x="172.05454545454546" y="23.172083333333337" width="2" height="76.82791666666667" id="tests-vaccines-7"></rect></g><g><rect x="168.49090909090907" y="22.818749999999998" width="2" height="77.18125" id="tests-vaccines-8"></rect></g><g><rect x="164.92727272727274" y="27.446666666666665" width="2" height="72.55333333333334" id="tests-vaccines-9"></rect></g><g><rect x="161.36363636363637" y="79.10708333333334" width="2" height="20.892916666666665" id="tests-vaccines-10"></rect></g><g><rect x="157.8" y="57.62499999999999" width="2" height="42.37500000000001" id="tests-vaccines-11"></rect></g><g><rect x="154.23636363636365" y="10.187916666666663" width="2" height="89.81208333333333" id="tests-vaccines-12"></rect></g><g><rect x="150.6727272727273" y="25.083750000000006" width="2" height="74.91624999999999" id="tests-vaccines-13"></rect></g><g><rect x="147.1090909090909" y="24.90083333333334" width="2" height="75.09916666666666" id="tests-vaccines-14"></rect></g><g><rect x="143.54545454545453" y="25.736250000000005" width="2" height="74.26374999999999" id="tests-vaccines-15"></rect></g><g><rect x="139.9818181818182" y="32.50416666666667" width="2" height="67.49583333333334" id="tests-vaccines-16"></rect></g><g><rect x="136.41818181818184" y="80.38916666666667" width="2" height="19.610833333333332" id="tests-vaccines-17"></rect></g><g><rect x="132.85454545454544" y="61.73041666666666" width="2" height="38.26958333333334" id="tests-vaccines-18"></rect></g><g><rect x="129.29090909090908" y="32.857499999999995" width="2" height="67.14250000000001" id="tests-vaccines-19"></rect></g><g><rect x="125.72727272727273" y="60.169583333333335" width="2" height="39.830416666666665" id="tests-vaccines-20"></rect></g><g><rect x="122.16363636363636" y="61.74458333333334" width="2" height="38.25541666666666" id="tests-vaccines-21"></rect></g><g><rect x="118.6" y="60.47291666666666" width="2" height="39.52708333333334" id="tests-vaccines-22"></rect></g><g><rect x="115.03636363636363" y="58.80916666666667" width="2" height="41.19083333333333" id="tests-vaccines-23"></rect></g><g><rect x="111.47272727272728" y="87.33666666666666" width="2" height="12.663333333333341" id="tests-vaccines-24"></rect></g><g><rect x="107.90909090909089" y="75.59291666666667" width="2" height="24.407083333333333" id="tests-vaccines-25"></rect></g><g><rect x="104.34545454545456" y="47.85583333333333" width="2" height="52.14416666666667" id="tests-vaccines-26"></rect></g><g><rect x="100.78181818181817" y="58.32208333333333" width="2" height="41.67791666666667" id="tests-vaccines-27"></rect></g><g><rect x="97.21818181818183" y="58.85958333333333" width="2" height="41.14041666666667" id="tests-vaccines-28"></rect></g><g><rect x="93.65454545454546" y="56.253750000000004" width="2" height="43.746249999999996" id="tests-vaccines-29"></rect></g><g><rect x="90.09090909090911" y="55.63291666666667" width="2" height="44.36708333333333" id="tests-vaccines-30"></rect></g><g><rect x="86.52727272727273" y="85.22958333333334" width="2" height="14.770416666666662" id="tests-vaccines-31"></rect></g><g><rect x="82.96363636363637" y="72.92916666666667" width="2" height="27.070833333333326" id="tests-vaccines-32"></rect></g><g><rect x="79.4" y="40.844583333333325" width="2" height="59.155416666666675" id="tests-vaccines-33"></rect></g><g><rect x="75.83636363636364" y="51.59708333333333" width="2" height="48.40291666666667" id="tests-vaccines-34"></rect></g><g><rect x="72.27272727272727" y="54.80875" width="2" height="45.19125" id="tests-vaccines-35"></rect></g><g><rect x="68.70909090909092" y="53.74" width="2" height="46.26" id="tests-vaccines-36"></rect></g><g><rect x="65.14545454545454" y="54.01083333333334" width="2" height="45.98916666666666" id="tests-vaccines-37"></rect></g><g><rect x="61.58181818181818" y="84.1075" width="2" height="15.892499999999998" id="tests-vaccines-38"></rect></g><g><rect x="58.018181818181816" y="71.83291666666666" width="2" height="28.167083333333338" id="tests-vaccines-39"></rect></g><g><rect x="54.454545454545446" y="39.78708333333333" width="2" height="60.21291666666667" id="tests-vaccines-40"></rect></g><g><rect x="50.89090909090908" y="45.20291666666667" width="2" height="54.79708333333333" id="tests-vaccines-41"></rect></g><g><rect x="47.32727272727273" y="46.37291666666666" width="2" height="53.62708333333334" id="tests-vaccines-42"></rect></g><g><rect x="43.76363636363636" y="46.16875" width="2" height="53.83125" id="tests-vaccines-43"></rect></g><g><rect x="40.199999999999996" y="50.59291666666667" width="2" height="49.40708333333333" id="tests-vaccines-44"></rect></g><g><rect x="36.636363636363626" y="83.62625" width="2" height="16.37375" id="tests-vaccines-45"></rect></g><g><rect x="33.072727272727285" y="70.54916666666666" width="2" height="29.450833333333335" id="tests-vaccines-46"></rect></g><g><rect x="29.509090909090922" y="54.968333333333334" width="2" height="45.031666666666666" id="tests-vaccines-47"></rect></g><g><rect x="25.945454545454556" y="70.04375" width="2" height="29.956249999999997" id="tests-vaccines-48"></rect></g><g><rect x="22.38181818181819" y="69.9775" width="2" height="30.022499999999994" id="tests-vaccines-49"></rect></g><g><rect x="18.818181818181824" y="69.0625" width="2" height="30.9375" id="tests-vaccines-50"></rect></g><g><rect x="15.254545454545461" y="66.60416666666666" width="2" height="33.39583333333334" id="tests-vaccines-51"></rect></g><g><rect x="11.690909090909095" y="86.33583333333334" width="2" height="13.66416666666666" id="tests-vaccines-52"></rect></g><g><rect x="8.12727272727273" y="76.24499999999999" width="2" height="23.75500000000001" id="tests-vaccines-53"></rect></g><g><rect x="4.563636363636365" y="59.88083333333334" width="2" height="40.11916666666666" id="tests-vaccines-54"></rect></g><g><rect x="1" y="65.61583333333334" width="2" height="34.38416666666666" id="tests-vaccines-55"></rect></g></g><g class="fg-line tests-vaccines" fill="none" stroke="#92c5de" stroke-width="2" stroke-linecap="round"><path d="M198,26.756547619047623L194.43636363636364,28.54511904761905L190.87272727272727,29.957202380952374L187.30909090909088,31.105297619047622L183.74545454545455,31.958571428571425L180.1818181818182,33.18714285714286L176.61818181818182,34.35392857142857L173.05454545454546,35.06303571428572L169.49090909090907,35.309999999999995L165.92727272727274,35.72678571428571L162.36363636363637,36.449285714285715L158.8,36.632440476190474L155.23636363636365,37.21892857142858L151.6727272727273,40.45744047619048L148.1090909090909,45.469702380952384L144.54545454545453,50.73309523809524L140.9818181818182,55.69547619047619L137.41818181818184,59.45333333333333L133.85454545454544,60.44583333333333L130.29090909090908,62.42619047619048L126.72727272727273,64.56880952380952L123.16363636363636,64.30488095238096L119.6,63.8927380952381L116.03636363636363,63.29L112.47272727272728,62.83624999999999L108.90909090909089,62.5352380952381L105.34545454545456,62.15470238095237L101.78181818181817,61.15309523809523L98.21818181818183,60.19238095238095L94.65454545454546,59.61369047619047L91.09090909090911,59.25458333333333L87.52727272727273,59.02285714285714L83.96363636363637,58.86255952380952L80.4,58.705952380952375L76.83636363636364,58.55488095238095L73.27272727272727,57.64142857142858L69.70909090909092,56.43630952380953L66.14545454545454,55.35470238095238L62.58181818181818,54.86642857142857L59.018181818181816,54.79767857142856L55.454545454545446,54.614285714285714L51.89090909090908,56.78303571428571L48.32727272727273,60.33172619047619L44.76363636363636,63.70380952380952L41.199999999999996,66.97434523809524L37.636363636363626,69.26166666666667L34.072727272727285,69.64874999999999L30.509090909090922,70.46244047619048L26.945454545454556,71.16422619047619L23.38181818181819,70.53166666666667L19.818181818181824,70.05791666666667L16.25454545454546,69.66904761904762L12.690909090909095,69.4029761904762L9.12727272727273,69.24607142857143L5.563636363636365,68.87297619047618L2,68.15982142857143"></path></g></svg>