<svg viewBox="0,0,200,100"><g transform="translate(0,0)"></g><g class="fg-bars tests-vaccines"><g><rect x="197" y="19.589999999999996" width="2" height="80.41" id="tests-vaccines-0"></rect></g><g><rect x="193.43636363636364" y="34.12307692307692" width="2" height="65.87692307692308" id="tests-vaccines-1"></rect></g><g><rect x="189.87272727272727" y="33.262307692307694" width="2" height="66.7376923076923" id="tests-vaccines-2"></rect></g><g><rect x="186.30909090909088" y="26.456153846153853" width="2" height="73.54384615384615" id="tests-vaccines-3"></rect></g><g><rect x="182.74545454545455" y="85.43307692307692" width="2" height="14.566923076923075" id="tests-vaccines-4"></rect></g><g><rect x="179.1818181818182" y="71.25" width="2" height="28.75" id="tests-vaccines-5"></rect></g><g><rect x="175.61818181818182" y="51.76307692307692" width="2" height="48.23692307692308" id="tests-vaccines-6"></rect></g><g><rect x="172.05454545454546" y="11.550000000000004" width="2" height="88.44999999999999" id="tests-vaccines-7"></rect></g><g><rect x="168.49090909090907" y="29.428461538461537" width="2" height="70.57153846153847" id="tests-vaccines-8"></rect></g><g><rect x="164.92727272727274" y="27.61076923076923" width="2" height="72.38923076923078" id="tests-vaccines-9"></rect></g><g><rect x="161.36363636363637" y="24.643846153846148" width="2" height="75.35615384615386" id="tests-vaccines-10"></rect></g><g><rect x="157.8" y="23.549230769230768" width="2" height="76.45076923076923" id="tests-vaccines-11"></rect></g><g><rect x="154.23636363636365" y="67.42" width="2" height="32.58" id="tests-vaccines-12"></rect></g><g><rect x="150.6727272727273" y="40.826153846153844" width="2" height="59.173846153846156" id="tests-vaccines-13"></rect></g><g><rect x="147.1090909090909" y="2.886923076923076" width="2" height="97.11307692307692" id="tests-vaccines-14"></rect></g><g><rect x="143.54545454545453" y="20.658461538461538" width="2" height="79.34153846153846" id="tests-vaccines-15"></rect></g><g><rect x="139.9818181818182" y="21.590769230769236" width="2" height="78.40923076923076" id="tests-vaccines-16"></rect></g><g><rect x="136.41818181818184" y="18.64461538461538" width="2" height="81.35538461538462" id="tests-vaccines-17"></rect></g><g><rect x="132.85454545454544" y="19.06923076923077" width="2" height="80.93076923076923" id="tests-vaccines-18"></rect></g><g><rect x="129.29090909090908" y="67.86" width="2" height="32.14" id="tests-vaccines-19"></rect></g><g><rect x="125.72727272727273" y="42.26230769230769" width="2" height="57.73769230769231" id="tests-vaccines-20"></rect></g><g><rect x="122.16363636363636" y="3.3938461538461584" width="2" height="96.60615384615384" id="tests-vaccines-21"></rect></g><g><rect x="118.6" y="22.40692307692308" width="2" height="77.59307692307692" id="tests-vaccines-22"></rect></g><g><rect x="115.03636363636363" y="21.96461538461538" width="2" height="78.03538461538461" id="tests-vaccines-23"></rect></g><g><rect x="111.47272727272728" y="22.05384615384616" width="2" height="77.94615384615383" id="tests-vaccines-24"></rect></g><g><rect x="107.90909090909089" y="25.72692307692308" width="2" height="74.27307692307693" id="tests-vaccines-25"></rect></g><g><rect x="104.34545454545456" y="69.82153846153847" width="2" height="30.178461538461534" id="tests-vaccines-26"></rect></g><g><rect x="100.78181818181817" y="44.419230769230765" width="2" height="55.580769230769235" id="tests-vaccines-27"></rect></g><g><rect x="97.21818181818183" y="14.719999999999999" width="2" height="85.28" id="tests-vaccines-28"></rect></g><g><rect x="93.65454545454546" y="32.433846153846154" width="2" height="67.56615384615384" id="tests-vaccines-29"></rect></g><g><rect x="90.09090909090911" y="35.94307692307692" width="2" height="64.05692307692308" id="tests-vaccines-30"></rect></g><g><rect x="86.52727272727273" y="29.96461538461539" width="2" height="70.03538461538461" id="tests-vaccines-31"></rect></g><g><rect x="82.96363636363637" y="32.607692307692304" width="2" height="67.3923076923077" id="tests-vaccines-32"></rect></g><g><rect x="79.4" y="73.14153846153846" width="2" height="26.85846153846154" id="tests-vaccines-33"></rect></g><g><rect x="75.83636363636364" y="50.85615384615385" width="2" height="49.14384615384615" id="tests-vaccines-34"></rect></g><g><rect x="72.27272727272727" y="19.63153846153847" width="2" height="80.36846153846153" id="tests-vaccines-35"></rect></g><g><rect x="68.70909090909092" y="33.702307692307684" width="2" height="66.29769230769232" id="tests-vaccines-36"></rect></g><g><rect x="65.14545454545454" y="35.40230769230769" width="2" height="64.59769230769231" id="tests-vaccines-37"></rect></g><g><rect x="61.58181818181818" y="31.25461538461538" width="2" height="68.74538461538462" id="tests-vaccines-38"></rect></g><g><rect x="58.018181818181816" y="38.61" width="2" height="61.39" id="tests-vaccines-39"></rect></g><g><rect x="54.454545454545446" y="76.81153846153846" width="2" height="23.18846153846154" id="tests-vaccines-40"></rect></g><g><rect x="50.89090909090908" y="54.12461538461538" width="2" height="45.87538461538462" id="tests-vaccines-41"></rect></g><g><rect x="47.32727272727273" y="26.064615384615387" width="2" height="73.9353846153846" id="tests-vaccines-42"></rect></g><g><rect x="43.76363636363636" y="37.457692307692305" width="2" height="62.542307692307695" id="tests-vaccines-43"></rect></g><g><rect x="40.199999999999996" y="35.395384615384614" width="2" height="64.60461538461539" id="tests-vaccines-44"></rect></g><g><rect x="36.636363636363626" y="34.72" width="2" height="65.28" id="tests-vaccines-45"></rect></g><g><rect x="33.072727272727285" y="44.73538461538461" width="2" height="55.26461538461539" id="tests-vaccines-46"></rect></g><g><rect x="29.509090909090922" y="80.31076923076922" width="2" height="19.689230769230775" id="tests-vaccines-47"></rect></g><g><rect x="25.945454545454556" y="56.89923076923077" width="2" height="43.10076923076923" id="tests-vaccines-48"></rect></g><g><rect x="22.38181818181819" y="29.512307692307694" width="2" height="70.4876923076923" id="tests-vaccines-49"></rect></g><g><rect x="18.818181818181824" y="40.42153846153846" width="2" height="59.57846153846154" id="tests-vaccines-50"></rect></g><g><rect x="15.254545454545461" y="40.6876923076923" width="2" height="59.3123076923077" id="tests-vaccines-51"></rect></g><g><rect x="11.690909090909095" y="39.09" width="2" height="60.91" id="tests-vaccines-52"></rect></g><g><rect x="8.12727272727273" y="46.69538461538462" width="2" height="53.30461538461538" id="tests-vaccines-53"></rect></g><g><rect x="4.563636363636365" y="79.61" width="2" height="20.39" id="tests-vaccines-54"></rect></g><g><rect x="1" y="57.39692307692308" width="2" height="42.60307692307692" id="tests-vaccines-55"></rect></g></g><g class="fg-line tests-vaccines"><path stroke-linecap="round" d="M198,45.982527472527465L194.43636363636364,44.83395604395605L190.87272727272727,44.163296703296695L187.30909090909088,43.355934065934065L183.74545454545455,43.097032967032966L180.1818181818182,34.25648351648351L176.61818181818182,33.70934065934066L173.05454545454546,32.14692307692307L169.49090909090907,30.909340659340657L165.92727272727274,29.65648351648351L162.36363636363637,28.796483516483505L158.8,27.93945054945055L155.23636363636365,27.299450549450544L151.6727272727273,27.362307692307695L148.1090909090909,27.567472527472525L144.54545454545453,27.639890109890107L140.9818181818182,27.889670329670334L137.41818181818184,27.943076923076926L133.85454545454544,28.43010989010989L130.29090909090908,29.381208791208792L126.72727272727273,29.661428571428573L123.16363636363636,29.96956043956044L119.6,31.587582417582418L116.03636363636363,33.02L112.47272727272728,35.01692307692308L108.90909090909089,36.14703296703296L105.34545454545456,37.129999999999995L101.78181818181817,37.60428571428572L98.21818181818183,38.52384615384615L94.65454545454546,39.22549450549451L91.09090909090911,39.406703296703306L87.52727272727273,39.32945054945055L83.96363636363637,39.51373626373626L80.4,40.3712087912088L76.83636363636364,40.8954945054945L73.27272727272727,41.36241758241758L69.70909090909092,42.28142857142857L66.14545454545454,42.81791208791208L62.58181818181818,42.816923076923075L59.018181818181816,43.31197802197803L55.454545454545446,44.18703296703297L51.89090909090908,44.68692307692308L48.32727272727273,45.0832967032967L44.76363636363636,45.575824175824174L41.199999999999996,45.99923076923077L37.636363636363626,46.75527472527473L34.072727272727285,47.37956043956043L30.509090909090922,47.65956043956044L26.945454545454556,47.559450549450546L23.38181818181819,47.63054945054945L19.818181818181824,48.318681318681314L16.25454545454546,49.09252747252747L12.690909090909095,49.90725274725275L9.12727272727273,50.64857142857142L5.563636363636365,50.76956043956044L2,51.00626373626373"></path></g></svg>