<svg about="DATA_PUBLISHED_DATE:2021-11-03,RENDER_DATE:2021-11-03" xmlns="http://www.w3.org/2000/svg" viewBox="0,0,200,100"><g transform="translate(0,0)"></g><g class="fg-bars tests-vaccines" fill="#00183f" stroke="none"><g><rect x="197" y="3.8344444444444403" width="2" height="96.16555555555556" id="tests-vaccines-0"></rect></g><g><rect x="193.43636363636364" y="11.862222222222218" width="2" height="88.13777777777779" id="tests-vaccines-1"></rect></g><g><rect x="189.87272727272727" y="74.37777777777778" width="2" height="25.62222222222222" id="tests-vaccines-2"></rect></g><g><rect x="186.30909090909088" y="50.32666666666666" width="2" height="49.67333333333334" id="tests-vaccines-3"></rect></g><g><rect x="182.74545454545455" y="12.336111111111114" width="2" height="87.66388888888889" id="tests-vaccines-4"></rect></g><g><rect x="179.1818181818182" y="47.90222222222222" width="2" height="52.09777777777778" id="tests-vaccines-5"></rect></g><g><rect x="175.61818181818182" y="50.09944444444445" width="2" height="49.90055555555555" id="tests-vaccines-6"></rect></g><g><rect x="172.05454545454546" y="48.23666666666667" width="2" height="51.76333333333333" id="tests-vaccines-7"></rect></g><g><rect x="168.49090909090907" y="46.01555555555555" width="2" height="53.98444444444445" id="tests-vaccines-8"></rect></g><g><rect x="164.92727272727274" y="83.38722222222222" width="2" height="16.61277777777778" id="tests-vaccines-9"></rect></g><g><rect x="161.36363636363637" y="68.115" width="2" height="31.885000000000005" id="tests-vaccines-10"></rect></g><g><rect x="157.8" y="31.723333333333336" width="2" height="68.27666666666667" id="tests-vaccines-11"></rect></g><g><rect x="154.23636363636365" y="45.456111111111106" width="2" height="54.543888888888894" id="tests-vaccines-12"></rect></g><g><rect x="150.6727272727273" y="46.02333333333334" width="2" height="53.97666666666666" id="tests-vaccines-13"></rect></g><g><rect x="147.1090909090909" y="42.61833333333334" width="2" height="57.38166666666666" id="tests-vaccines-14"></rect></g><g><rect x="143.54545454545453" y="41.79277777777778" width="2" height="58.20722222222222" id="tests-vaccines-15"></rect></g><g><rect x="139.9818181818182" y="80.61944444444444" width="2" height="19.38055555555556" id="tests-vaccines-16"></rect></g><g><rect x="136.41818181818184" y="64.53888888888889" width="2" height="35.46111111111111" id="tests-vaccines-17"></rect></g><g><rect x="132.85454545454544" y="22.52722222222222" width="2" height="77.47277777777778" id="tests-vaccines-18"></rect></g><g><rect x="129.29090909090908" y="36.36888888888888" width="2" height="63.63111111111112" id="tests-vaccines-19"></rect></g><g><rect x="125.72727272727273" y="40.71333333333334" width="2" height="59.28666666666666" id="tests-vaccines-20"></rect></g><g><rect x="122.16363636363636" y="39.25777777777778" width="2" height="60.74222222222222" id="tests-vaccines-21"></rect></g><g><rect x="118.6" y="39.45277777777778" width="2" height="60.54722222222222" id="tests-vaccines-22"></rect></g><g><rect x="115.03636363636363" y="79.10222222222222" width="2" height="20.897777777777776" id="tests-vaccines-23"></rect></g><g><rect x="111.47272727272728" y="62.992777777777775" width="2" height="37.007222222222225" id="tests-vaccines-24"></rect></g><g><rect x="107.90909090909089" y="20.87833333333333" width="2" height="79.12166666666667" id="tests-vaccines-25"></rect></g><g><rect x="104.34545454545456" y="27.64444444444445" width="2" height="72.35555555555555" id="tests-vaccines-26"></rect></g><g><rect x="100.78181818181817" y="29.145555555555557" width="2" height="70.85444444444444" id="tests-vaccines-27"></rect></g><g><rect x="97.21818181818183" y="28.716111111111108" width="2" height="71.2838888888889" id="tests-vaccines-28"></rect></g><g><rect x="93.65454545454546" y="34.39222222222222" width="2" height="65.60777777777778" id="tests-vaccines-29"></rect></g><g><rect x="90.09090909090911" y="78.29833333333333" width="2" height="21.701666666666668" id="tests-vaccines-30"></rect></g><g><rect x="86.52727272727273" y="60.85222222222222" width="2" height="39.14777777777778" id="tests-vaccines-31"></rect></g><g><rect x="82.96363636363637" y="40.14055555555556" width="2" height="59.85944444444444" id="tests-vaccines-32"></rect></g><g><rect x="79.4" y="60.181666666666665" width="2" height="39.818333333333335" id="tests-vaccines-33"></rect></g><g><rect x="75.83636363636364" y="60.085555555555544" width="2" height="39.914444444444456" id="tests-vaccines-34"></rect></g><g><rect x="72.27272727272727" y="58.89" width="2" height="41.11" id="tests-vaccines-35"></rect></g><g><rect x="68.70909090909092" y="55.562222222222225" width="2" height="44.437777777777775" id="tests-vaccines-36"></rect></g><g><rect x="65.14545454545454" y="81.82000000000001" width="2" height="18.179999999999993" id="tests-vaccines-37"></rect></g><g><rect x="61.58181818181818" y="68.36666666666666" width="2" height="31.63333333333334" id="tests-vaccines-38"></rect></g><g><rect x="58.018181818181816" y="46.64833333333333" width="2" height="53.35166666666667" id="tests-vaccines-39"></rect></g><g><rect x="54.454545454545446" y="54.28833333333334" width="2" height="45.71166666666666" id="tests-vaccines-40"></rect></g><g><rect x="50.89090909090908" y="55.675555555555555" width="2" height="44.324444444444445" id="tests-vaccines-41"></rect></g><g><rect x="47.32727272727273" y="55.20722222222223" width="2" height="44.79277777777777" id="tests-vaccines-42"></rect></g><g><rect x="43.76363636363636" y="53.06833333333334" width="2" height="46.93166666666666" id="tests-vaccines-43"></rect></g><g><rect x="40.199999999999996" y="80.35111111111111" width="2" height="19.64888888888889" id="tests-vaccines-44"></rect></g><g><rect x="36.636363636363626" y="64.90333333333334" width="2" height="35.096666666666664" id="tests-vaccines-45"></rect></g><g><rect x="33.072727272727285" y="39.964999999999996" width="2" height="60.035000000000004" id="tests-vaccines-46"></rect></g><g><rect x="29.509090909090922" y="50.720555555555556" width="2" height="49.279444444444444" id="tests-vaccines-47"></rect></g><g><rect x="25.945454545454556" y="50.349444444444444" width="2" height="49.650555555555556" id="tests-vaccines-48"></rect></g><g><rect x="22.38181818181819" y="45.132777777777775" width="2" height="54.867222222222225" id="tests-vaccines-49"></rect></g><g><rect x="18.818181818181824" y="89.20333333333333" width="2" height="10.796666666666667" id="tests-vaccines-50"></rect></g><g><rect x="15.254545454545461" y="78.80555555555556" width="2" height="21.194444444444443" id="tests-vaccines-51"></rect></g><g><rect x="11.690909090909095" y="64.36833333333334" width="2" height="35.63166666666666" id="tests-vaccines-52"></rect></g><g><rect x="8.12727272727273" y="34.218888888888884" width="2" height="65.78111111111112" id="tests-vaccines-53"></rect></g><g><rect x="4.563636363636365" y="47.58166666666666" width="2" height="52.41833333333334" id="tests-vaccines-54"></rect></g><g><rect x="1" y="45.705555555555556" width="2" height="54.294444444444444" id="tests-vaccines-55"></rect></g></g><g class="fg-line tests-vaccines" fill="none" stroke="#92c5de" stroke-width="2" stroke-linecap="round"><path d="M198,35.81984126984127L194.43636363636364,42.16301587301587L190.87272727272727,47.04206349206349L187.30909090909088,48.32912698412698L183.74545454545455,50.87031746031747L180.1818181818182,53.639920634920635L176.61818181818182,53.2904761904762L173.05454545454546,52.708174603174605L169.49090909090907,51.90555555555556L165.92727272727274,51.30230158730158L162.36363636363637,50.906904761904755L158.8,50.39603174603175L155.23636363636365,49.08230158730159L151.6727272727273,47.784126984126985L148.1090909090909,47.025555555555556L144.54545454545453,46.54547619047619L140.9818181818182,46.21119047619048L137.41818181818184,45.99444444444445L133.85454545454544,45.77357142857142L130.29090909090908,45.538015873015866L126.72727272727273,44.291666666666664L123.16363636363636,42.63912698412698L119.6,41.1331746031746L116.03636363636363,40.41023809523809L112.47272727272728,40.29539682539682L108.90909090909089,39.989603174603175L105.34545454545456,42.7413492063492L101.78181818181817,47.3895238095238L98.21818181818183,51.80952380952382L94.65454545454546,56.12007936507937L91.09090909090911,59.14436507936508L87.52727272727273,59.64746031746031L83.96363636363637,60.72095238095238L80.4,61.650634920634914L76.83636363636364,60.808730158730164L73.27272727272727,60.17873015873016L69.70909090909092,59.65261904761905L66.14545454545454,59.296349206349205L62.58181818181818,59.086507936507935L59.018181818181816,58.59174603174603L55.454545454545446,57.636984126984125L51.89090909090908,57.127301587301595L48.32727272727273,56.36642857142857L44.76363636363636,54.92722222222221L41.199999999999996,60.08936507936509L37.636363636363626,59.86857142857143L34.072727272727285,59.79214285714286L30.509090909090922,58.97126984126984L26.945454545454556,58.52285714285714L23.38181818181819,57.85944444444444L19.818181818181824,57.68507936507936L16.25454545454546,51.141428571428584L12.690909090909095,50.787142857142854L9.12727272727273,49.69563492063492L5.563636363636365,48.899206349206345L2,48.10753968253969"></path></g></svg>