<svg meta="{&quot;DATA_PUBLISHED_DATE&quot;:&quot;2022-02-24&quot;,&quot;RENDER_DATE&quot;:&quot;2022-02-24&quot;,&quot;FIRST_DATE&quot;:&quot;2021-12-08&quot;,&quot;LAST_DATE&quot;:&quot;2022-02-01&quot;}" xmlns="http://www.w3.org/2000/svg" viewBox="0,0,200,100"><g transform="translate(0,0)"></g><g class="fg-bars death-date" fill="#00183f" stroke="none"><g><rect x="197" y="20.45454545454546" width="2" height="79.54545454545453" id="death-date-0"></rect></g><g><rect x="193.43636363636364" y="22.72727272727273" width="2" height="77.27272727272727" id="death-date-1"></rect></g><g><rect x="189.87272727272727" y="9.545454545454547" width="2" height="90.45454545454545" id="death-date-2"></rect></g><g><rect x="186.30909090909088" y="13.636363636363635" width="2" height="86.36363636363636" id="death-date-3"></rect></g><g><rect x="182.74545454545455" y="20.45454545454546" width="2" height="79.54545454545453" id="death-date-4"></rect></g><g><rect x="179.1818181818182" y="15.909090909090907" width="2" height="84.0909090909091" id="death-date-5"></rect></g><g><rect x="175.61818181818182" y="19.545454545454543" width="2" height="80.45454545454545" id="death-date-6"></rect></g><g><rect x="172.05454545454546" y="15.454545454545453" width="2" height="84.54545454545455" id="death-date-7"></rect></g><g><rect x="168.49090909090907" y="29.54545454545454" width="2" height="70.45454545454547" id="death-date-8"></rect></g><g><rect x="164.92727272727274" y="11.363636363636365" width="2" height="88.63636363636364" id="death-date-9"></rect></g><g><rect x="161.36363636363637" y="16.81818181818182" width="2" height="83.18181818181819" id="death-date-10"></rect></g><g><rect x="157.8" y="7.727272727272727" width="2" height="92.27272727272728" id="death-date-11"></rect></g><g><rect x="154.23636363636365" y="13.636363636363635" width="2" height="86.36363636363636" id="death-date-12"></rect></g><g><rect x="150.6727272727273" y="9.090909090909093" width="2" height="90.9090909090909" id="death-date-13"></rect></g><g><rect x="147.1090909090909" y="22.72727272727273" width="2" height="77.27272727272727" id="death-date-14"></rect></g><g><rect x="143.54545454545453" y="25.454545454545453" width="2" height="74.54545454545455" id="death-date-15"></rect></g><g><rect x="139.9818181818182" y="23.18181818181818" width="2" height="76.81818181818181" id="death-date-16"></rect></g><g><rect x="136.41818181818184" y="22.72727272727273" width="2" height="77.27272727272727" id="death-date-17"></rect></g><g><rect x="132.85454545454544" y="32.72727272727273" width="2" height="67.27272727272728" id="death-date-18"></rect></g><g><rect x="129.29090909090908" y="32.27272727272727" width="2" height="67.72727272727272" id="death-date-19"></rect></g><g><rect x="125.72727272727273" y="27.727272727272723" width="2" height="72.27272727272728" id="death-date-20"></rect></g><g><rect x="122.16363636363636" y="31.36363636363636" width="2" height="68.63636363636364" id="death-date-21"></rect></g><g><rect x="118.6" y="43.63636363636364" width="2" height="56.36363636363636" id="death-date-22"></rect></g><g><rect x="115.03636363636363" y="55.00000000000001" width="2" height="44.99999999999999" id="death-date-23"></rect></g><g><rect x="111.47272727272728" y="44.54545454545455" width="2" height="55.45454545454545" id="death-date-24"></rect></g><g><rect x="107.90909090909089" y="55.45454545454545" width="2" height="44.54545454545455" id="death-date-25"></rect></g><g><rect x="104.34545454545456" y="49.09090909090909" width="2" height="50.90909090909091" id="death-date-26"></rect></g><g><rect x="100.78181818181817" y="50.90909090909091" width="2" height="49.09090909090909" id="death-date-27"></rect></g><g><rect x="97.21818181818183" y="58.18181818181818" width="2" height="41.81818181818182" id="death-date-28"></rect></g><g><rect x="93.65454545454546" y="58.18181818181818" width="2" height="41.81818181818182" id="death-date-29"></rect></g><g><rect x="90.09090909090911" y="68.63636363636363" width="2" height="31.363636363636374" id="death-date-30"></rect></g><g><rect x="86.52727272727273" y="67.72727272727272" width="2" height="32.27272727272728" id="death-date-31"></rect></g><g><rect x="82.96363636363637" y="65.45454545454545" width="2" height="34.54545454545455" id="death-date-32"></rect></g><g><rect x="79.4" y="74.54545454545455" width="2" height="25.454545454545453" id="death-date-33"></rect></g><g><rect x="75.83636363636364" y="70.9090909090909" width="2" height="29.090909090909093" id="death-date-34"></rect></g><g><rect x="72.27272727272727" y="79.0909090909091" width="2" height="20.909090909090907" id="death-date-35"></rect></g><g><rect x="68.70909090909092" y="68.18181818181819" width="2" height="31.818181818181813" id="death-date-36"></rect></g><g><rect x="65.14545454545454" y="77.27272727272727" width="2" height="22.727272727272734" id="death-date-37"></rect></g><g><rect x="61.58181818181818" y="74.0909090909091" width="2" height="25.909090909090907" id="death-date-38"></rect></g><g><rect x="58.018181818181816" y="72.27272727272727" width="2" height="27.727272727272734" id="death-date-39"></rect></g><g><rect x="54.454545454545446" y="71.81818181818183" width="2" height="28.181818181818173" id="death-date-40"></rect></g><g><rect x="50.89090909090908" y="78.63636363636364" width="2" height="21.36363636363636" id="death-date-41"></rect></g><g><rect x="47.32727272727273" y="75" width="2" height="25" id="death-date-42"></rect></g><g><rect x="43.76363636363636" y="72.27272727272727" width="2" height="27.727272727272734" id="death-date-43"></rect></g><g><rect x="40.199999999999996" y="70.45454545454545" width="2" height="29.545454545454547" id="death-date-44"></rect></g><g><rect x="36.636363636363626" y="77.27272727272727" width="2" height="22.727272727272734" id="death-date-45"></rect></g><g><rect x="33.072727272727285" y="74.0909090909091" width="2" height="25.909090909090907" id="death-date-46"></rect></g><g><rect x="29.509090909090922" y="67.72727272727272" width="2" height="32.27272727272728" id="death-date-47"></rect></g><g><rect x="25.945454545454556" y="71.36363636363636" width="2" height="28.63636363636364" id="death-date-48"></rect></g><g><rect x="22.38181818181819" y="70.9090909090909" width="2" height="29.090909090909093" id="death-date-49"></rect></g><g><rect x="18.818181818181824" y="72.72727272727273" width="2" height="27.272727272727266" id="death-date-50"></rect></g><g><rect x="15.254545454545461" y="75.9090909090909" width="2" height="24.090909090909093" id="death-date-51"></rect></g><g><rect x="11.690909090909095" y="74.0909090909091" width="2" height="25.909090909090907" id="death-date-52"></rect></g><g><rect x="8.12727272727273" y="77.27272727272727" width="2" height="22.727272727272734" id="death-date-53"></rect></g><g><rect x="4.563636363636365" y="73.63636363636363" width="2" height="26.363636363636374" id="death-date-54"></rect></g><g><rect x="1" y="75.9090909090909" width="2" height="24.090909090909093" id="death-date-55"></rect></g></g><g class="fg-line death-date" fill="none" stroke="#92c5de" stroke-width="2" stroke-linecap="round"><path d="M198,17.467532467532465L194.43636363636364,16.753246753246753L190.87272727272727,17.727272727272727L187.30909090909088,17.987012987012996L183.74545454545455,18.44155844155845L180.1818181818182,16.62337662337663L176.61818181818182,16.298701298701303L173.05454545454546,14.80519480519481L169.49090909090907,15.84415584415585L165.92727272727274,15.259740259740262L162.36363636363637,16.948051948051944L158.8,17.792207792207794L155.23636363636365,21.363636363636363L151.6727272727273,24.02597402597403L148.1090909090909,26.688311688311693L144.54545454545453,27.922077922077914L140.9818181818182,30.519480519480513L137.41818181818184,35.064935064935064L133.85454545454544,38.18181818181819L130.29090909090908,41.42857142857142L126.72727272727273,43.83116883116883L123.16363636363636,47.14285714285714L119.6,50.97402597402597L116.03636363636363,53.05194805194805L112.47272727272728,55.00000000000001L108.90909090909089,58.311688311688314L105.34545454545456,59.74025974025974L101.78181818181817,63.37662337662338L98.21818181818183,66.23376623376623L94.65454545454546,69.22077922077922L91.09090909090911,70.64935064935065L87.52727272727273,71.88311688311688L83.96363636363637,72.79220779220779L80.4,73.76623376623377L76.83636363636364,73.37662337662339L73.27272727272727,74.48051948051948L69.70909090909092,73.8961038961039L66.14545454545454,74.48051948051948L62.58181818181818,73.50649350649351L59.018181818181816,73.96103896103897L55.454545454545446,74.22077922077922L51.89090909090908,73.63636363636363L48.32727272727273,72.59740259740259L44.76363636363636,72.01298701298701L41.199999999999996,72.07792207792207L37.636363636363626,72.85714285714286L34.072727272727285,72.40259740259741L30.509090909090922,72.85714285714286L26.945454545454556,73.7012987012987L23.38181818181819,74.35064935064935L19.818181818181824,74.35064935064935L16.25454545454546,75.25974025974025L12.690909090909095,75.06493506493507L9.12727272727273,74.41558441558442L5.563636363636365,73.44155844155844L2,72.85714285714286"></path></g></svg>