<svg about="DATA_PUBLISHED_DATE:2021-10-10,RENDER_DATE:2021-10-10" xmlns="http://www.w3.org/2000/svg" viewBox="0,0,200,100"><g transform="translate(0,0)"></g><g class="fg-bars cases-ep" fill="#00183f" stroke="none"><g><rect x="197" y="69.02777777777777" width="2" height="30.97222222222223" id="cases-ep-0"></rect></g><g><rect x="193.43636363636364" y="66.16111111111111" width="2" height="33.83888888888889" id="cases-ep-1"></rect></g><g><rect x="189.87272727272727" y="61.199999999999996" width="2" height="38.800000000000004" id="cases-ep-2"></rect></g><g><rect x="186.30909090909088" y="81.41111111111111" width="2" height="18.58888888888889" id="cases-ep-3"></rect></g><g><rect x="182.74545454545455" y="78.28888888888889" width="2" height="21.71111111111111" id="cases-ep-4"></rect></g><g><rect x="179.1818181818182" y="67.18888888888888" width="2" height="32.81111111111112" id="cases-ep-5"></rect></g><g><rect x="175.61818181818182" y="65.23333333333333" width="2" height="34.766666666666666" id="cases-ep-6"></rect></g><g><rect x="172.05454545454546" y="60.35555555555556" width="2" height="39.64444444444444" id="cases-ep-7"></rect></g><g><rect x="168.49090909090907" y="59.099999999999994" width="2" height="40.900000000000006" id="cases-ep-8"></rect></g><g><rect x="164.92727272727274" y="52.644444444444446" width="2" height="47.355555555555554" id="cases-ep-9"></rect></g><g><rect x="161.36363636363637" y="77.53888888888889" width="2" height="22.46111111111111" id="cases-ep-10"></rect></g><g><rect x="157.8" y="73.32777777777777" width="2" height="26.67222222222223" id="cases-ep-11"></rect></g><g><rect x="154.23636363636365" y="60.105555555555554" width="2" height="39.894444444444446" id="cases-ep-12"></rect></g><g><rect x="150.6727272727273" y="56.92222222222223" width="2" height="43.07777777777777" id="cases-ep-13"></rect></g><g><rect x="147.1090909090909" y="51.455555555555556" width="2" height="48.544444444444444" id="cases-ep-14"></rect></g><g><rect x="143.54545454545453" y="48.42777777777778" width="2" height="51.57222222222222" id="cases-ep-15"></rect></g><g><rect x="139.9818181818182" y="42.90555555555555" width="2" height="57.09444444444445" id="cases-ep-16"></rect></g><g><rect x="136.41818181818184" y="71.09444444444443" width="2" height="28.905555555555566" id="cases-ep-17"></rect></g><g><rect x="132.85454545454544" y="66.05" width="2" height="33.95" id="cases-ep-18"></rect></g><g><rect x="129.29090909090908" y="49.138888888888886" width="2" height="50.861111111111114" id="cases-ep-19"></rect></g><g><rect x="125.72727272727273" y="44.28333333333333" width="2" height="55.71666666666667" id="cases-ep-20"></rect></g><g><rect x="122.16363636363636" y="37.855555555555554" width="2" height="62.144444444444446" id="cases-ep-21"></rect></g><g><rect x="118.6" y="32.12222222222222" width="2" height="67.87777777777778" id="cases-ep-22"></rect></g><g><rect x="115.03636363636363" y="63.81666666666666" width="2" height="36.18333333333334" id="cases-ep-23"></rect></g><g><rect x="111.47272727272728" y="71.00555555555556" width="2" height="28.99444444444444" id="cases-ep-24"></rect></g><g><rect x="107.90909090909089" y="63.26666666666667" width="2" height="36.73333333333333" id="cases-ep-25"></rect></g><g><rect x="104.34545454545456" y="45.761111111111106" width="2" height="54.238888888888894" id="cases-ep-26"></rect></g><g><rect x="100.78181818181817" y="39.93333333333333" width="2" height="60.06666666666667" id="cases-ep-27"></rect></g><g><rect x="97.21818181818183" y="30.005555555555553" width="2" height="69.99444444444444" id="cases-ep-28"></rect></g><g><rect x="93.65454545454546" y="32.138888888888886" width="2" height="67.86111111111111" id="cases-ep-29"></rect></g><g><rect x="90.09090909090911" y="26.83888888888889" width="2" height="73.16111111111111" id="cases-ep-30"></rect></g><g><rect x="86.52727272727273" y="64.25555555555556" width="2" height="35.74444444444444" id="cases-ep-31"></rect></g><g><rect x="82.96363636363637" y="57.400000000000006" width="2" height="42.599999999999994" id="cases-ep-32"></rect></g><g><rect x="79.4" y="38.23333333333333" width="2" height="61.76666666666667" id="cases-ep-33"></rect></g><g><rect x="75.83636363636364" y="31.55" width="2" height="68.45" id="cases-ep-34"></rect></g><g><rect x="72.27272727272727" y="25.06666666666667" width="2" height="74.93333333333334" id="cases-ep-35"></rect></g><g><rect x="68.70909090909092" y="22.83333333333334" width="2" height="77.16666666666666" id="cases-ep-36"></rect></g><g><rect x="65.14545454545454" y="15.727777777777774" width="2" height="84.27222222222223" id="cases-ep-37"></rect></g><g><rect x="61.58181818181818" y="58.67222222222222" width="2" height="41.32777777777778" id="cases-ep-38"></rect></g><g><rect x="58.018181818181816" y="51.138888888888886" width="2" height="48.861111111111114" id="cases-ep-39"></rect></g><g><rect x="54.454545454545446" y="26.14444444444445" width="2" height="73.85555555555555" id="cases-ep-40"></rect></g><g><rect x="50.89090909090908" y="23.28888888888889" width="2" height="76.71111111111111" id="cases-ep-41"></rect></g><g><rect x="47.32727272727273" y="17.10555555555555" width="2" height="82.89444444444445" id="cases-ep-42"></rect></g><g><rect x="43.76363636363636" y="14.483333333333338" width="2" height="85.51666666666667" id="cases-ep-43"></rect></g><g><rect x="40.199999999999996" y="10.99444444444444" width="2" height="89.00555555555556" id="cases-ep-44"></rect></g><g><rect x="36.636363636363626" y="54.94444444444444" width="2" height="45.05555555555556" id="cases-ep-45"></rect></g><g><rect x="33.072727272727285" y="47.044444444444444" width="2" height="52.955555555555556" id="cases-ep-46"></rect></g><g><rect x="29.509090909090922" y="24" width="2" height="76" id="cases-ep-47"></rect></g><g><rect x="25.945454545454556" y="19.377777777777784" width="2" height="80.62222222222222" id="cases-ep-48"></rect></g><g><rect x="22.38181818181819" y="14.649999999999997" width="2" height="85.35000000000001" id="cases-ep-49"></rect></g><g><rect x="18.818181818181824" y="10.816666666666663" width="2" height="89.18333333333334" id="cases-ep-50"></rect></g><g><rect x="15.254545454545461" y="10.111111111111114" width="2" height="89.88888888888889" id="cases-ep-51"></rect></g><g><rect x="11.690909090909095" y="52.300000000000004" width="2" height="47.699999999999996" id="cases-ep-52"></rect></g><g><rect x="8.12727272727273" y="46.638888888888886" width="2" height="53.361111111111114" id="cases-ep-53"></rect></g><g><rect x="4.563636363636365" y="28.761111111111116" width="2" height="71.23888888888888" id="cases-ep-54"></rect></g><g><rect x="1" y="23.166666666666668" width="2" height="76.83333333333333" id="cases-ep-55"></rect></g></g><g class="fg-line cases-ep" fill="none" stroke="#92c5de" stroke-width="2" stroke-linecap="round"><path d="M198,69.78730158730158L194.43636363636364,68.5484126984127L190.87272727272727,67.53968253968254L187.30909090909088,66.3174603174603L183.74545454545455,65.76428571428572L180.1818181818182,65.05555555555556L176.61818181818182,64.0436507936508L173.05454545454546,62.85634920634921L169.49090909090907,61.584920634920636L165.92727272727274,60.06031746031746L162.36363636363637,58.66904761904762L158.8,57.7484126984127L155.23636363636365,56.708730158730155L151.6727272727273,55.1420634920635L148.1090909090909,53.33650793650795L144.54545454545453,51.39365079365079L140.9818181818182,49.06428571428572L137.41818181818184,52.0515873015873L133.85454545454544,52.03888888888889L130.29090909090908,51.641269841269846L126.72727272727273,51.15873015873016L123.16363636363636,50.537301587301585L119.6,49.41587301587301L116.03636363636363,49.418253968253964L112.47272727272728,44.13571428571428L108.90909090909089,43.17142857142857L105.34545454545456,42.333333333333336L101.78181818181817,41.2579365079365L98.21818181818183,40.060317460317464L94.65454545454546,39.3547619047619L91.09090909090911,38.025396825396825L87.52727272727273,36.43809523809524L83.96363636363637,35.64047619047619L80.4,34.74603174603175L76.83636363636364,33.01904761904761L73.27272727272727,31.838888888888896L69.70909090909092,30.701587301587296L66.14545454545454,29.508730158730167L62.58181818181818,28.832539682539682L59.018181818181816,28.300000000000004L55.454545454545446,27.715079365079365L51.89090909090908,27.408730158730165L48.32727272727273,26.849999999999994L44.76363636363636,26.49920634920635L41.199999999999996,25.975396825396835L37.636363636363626,25.849206349206355L34.072727272727285,25.47142857142858L30.509090909090922,25.41349206349206L26.945454545454556,26.09365079365079L23.38181818181819,26.634920634920633L19.818181818181824,27.730952380952388L16.25454545454546,29.13730158730159L12.690909090909095,30.879365079365073L9.12727272727273,31.02936507936508L5.563636363636365,31.9484126984127L2,33.36428571428572"></path></g></svg>