<svg meta="{&quot;DATA_PUBLISHED_DATE&quot;:&quot;2022-03-16&quot;,&quot;RENDER_DATE&quot;:&quot;2022-03-16&quot;,&quot;FIRST_DATE&quot;:&quot;2022-01-12&quot;,&quot;LAST_DATE&quot;:&quot;2022-03-08&quot;}" xmlns="http://www.w3.org/2000/svg" viewBox="0,0,200,100"><g transform="translate(0,0)"></g><g class="fg-bars tests-vaccines" fill="#00183f" stroke="none"><g><rect x="197" y="86.47749999999999" width="2" height="13.522500000000008" id="tests-vaccines-0"></rect></g><g><rect x="193.43636363636364" y="86.04541666666667" width="2" height="13.954583333333332" id="tests-vaccines-1"></rect></g><g><rect x="189.87272727272727" y="94.63208333333333" width="2" height="5.367916666666673" id="tests-vaccines-2"></rect></g><g><rect x="186.30909090909088" y="88.24416666666667" width="2" height="11.755833333333328" id="tests-vaccines-3"></rect></g><g><rect x="182.74545454545455" y="77.64958333333334" width="2" height="22.35041666666666" id="tests-vaccines-4"></rect></g><g><rect x="179.1818181818182" y="83.625" width="2" height="16.375" id="tests-vaccines-5"></rect></g><g><rect x="175.61818181818182" y="82.26083333333334" width="2" height="17.739166666666662" id="tests-vaccines-6"></rect></g><g><rect x="172.05454545454546" y="80.17208333333333" width="2" height="19.827916666666667" id="tests-vaccines-7"></rect></g><g><rect x="168.49090909090907" y="76.46333333333332" width="2" height="23.536666666666676" id="tests-vaccines-8"></rect></g><g><rect x="164.92727272727274" y="91.95666666666666" width="2" height="8.043333333333337" id="tests-vaccines-9"></rect></g><g><rect x="161.36363636363637" y="84.02291666666667" width="2" height="15.977083333333326" id="tests-vaccines-10"></rect></g><g><rect x="157.8" y="69.72166666666666" width="2" height="30.278333333333336" id="tests-vaccines-11"></rect></g><g><rect x="154.23636363636365" y="77.8675" width="2" height="22.132499999999993" id="tests-vaccines-12"></rect></g><g><rect x="150.6727272727273" y="77.90916666666666" width="2" height="22.090833333333336" id="tests-vaccines-13"></rect></g><g><rect x="147.1090909090909" y="77.48708333333335" width="2" height="22.512916666666655" id="tests-vaccines-14"></rect></g><g><rect x="143.54545454545453" y="83.02083333333333" width="2" height="16.97916666666667" id="tests-vaccines-15"></rect></g><g><rect x="139.9818181818182" y="91.20791666666666" width="2" height="8.792083333333338" id="tests-vaccines-16"></rect></g><g><rect x="136.41818181818184" y="81.53333333333333" width="2" height="18.46666666666667" id="tests-vaccines-17"></rect></g><g><rect x="132.85454545454544" y="65.37375" width="2" height="34.62625" id="tests-vaccines-18"></rect></g><g><rect x="129.29090909090908" y="74.91291666666666" width="2" height="25.08708333333334" id="tests-vaccines-19"></rect></g><g><rect x="125.72727272727273" y="75.16916666666667" width="2" height="24.83083333333333" id="tests-vaccines-20"></rect></g><g><rect x="122.16363636363636" y="76.14041666666667" width="2" height="23.859583333333333" id="tests-vaccines-21"></rect></g><g><rect x="118.6" y="79.10833333333333" width="2" height="20.891666666666666" id="tests-vaccines-22"></rect></g><g><rect x="115.03636363636363" y="91.98791666666666" width="2" height="8.012083333333337" id="tests-vaccines-23"></rect></g><g><rect x="111.47272727272728" y="78.93124999999999" width="2" height="21.06875000000001" id="tests-vaccines-24"></rect></g><g><rect x="107.90909090909089" y="59.95041666666667" width="2" height="40.04958333333333" id="tests-vaccines-25"></rect></g><g><rect x="104.34545454545456" y="69.53750000000001" width="2" height="30.46249999999999" id="tests-vaccines-26"></rect></g><g><rect x="100.78181818181817" y="67.99416666666667" width="2" height="32.00583333333333" id="tests-vaccines-27"></rect></g><g><rect x="97.21818181818183" y="68.2675" width="2" height="31.7325" id="tests-vaccines-28"></rect></g><g><rect x="93.65454545454546" y="67.34125" width="2" height="32.65875" id="tests-vaccines-29"></rect></g><g><rect x="90.09090909090911" y="87.48916666666666" width="2" height="12.510833333333338" id="tests-vaccines-30"></rect></g><g><rect x="86.52727272727273" y="71.67" width="2" height="28.33" id="tests-vaccines-31"></rect></g><g><rect x="82.96363636363637" y="48.18" width="2" height="51.82" id="tests-vaccines-32"></rect></g><g><rect x="79.4" y="61.01541666666667" width="2" height="38.98458333333333" id="tests-vaccines-33"></rect></g><g><rect x="75.83636363636364" y="59.648333333333326" width="2" height="40.351666666666674" id="tests-vaccines-34"></rect></g><g><rect x="72.27272727272727" y="58.875" width="2" height="41.125" id="tests-vaccines-35"></rect></g><g><rect x="68.70909090909092" y="54.80208333333334" width="2" height="45.19791666666666" id="tests-vaccines-36"></rect></g><g><rect x="65.14545454545454" y="84.36749999999999" width="2" height="15.632500000000007" id="tests-vaccines-37"></rect></g><g><rect x="61.58181818181818" y="62.84458333333334" width="2" height="37.15541666666666" id="tests-vaccines-38"></rect></g><g><rect x="58.018181818181816" y="30.489166666666666" width="2" height="69.51083333333334" id="tests-vaccines-39"></rect></g><g><rect x="54.454545454545446" y="45.21458333333334" width="2" height="54.78541666666666" id="tests-vaccines-40"></rect></g><g><rect x="50.89090909090908" y="44.9075" width="2" height="55.0925" id="tests-vaccines-41"></rect></g><g><rect x="47.32727272727273" y="44.30916666666667" width="2" height="55.69083333333333" id="tests-vaccines-42"></rect></g><g><rect x="43.76363636363636" y="44.68416666666667" width="2" height="55.31583333333333" id="tests-vaccines-43"></rect></g><g><rect x="40.199999999999996" y="81.5" width="2" height="18.5" id="tests-vaccines-44"></rect></g><g><rect x="36.636363636363626" y="60.31041666666667" width="2" height="39.68958333333333" id="tests-vaccines-45"></rect></g><g><rect x="33.072727272727285" y="24.102083333333336" width="2" height="75.89791666666666" id="tests-vaccines-46"></rect></g><g><rect x="29.509090909090922" y="35.789166666666674" width="2" height="64.21083333333333" id="tests-vaccines-47"></rect></g><g><rect x="25.945454545454556" y="32.97666666666667" width="2" height="67.02333333333334" id="tests-vaccines-48"></rect></g><g><rect x="22.38181818181819" y="32.06666666666666" width="2" height="67.93333333333334" id="tests-vaccines-49"></rect></g><g><rect x="18.818181818181824" y="42.05083333333334" width="2" height="57.94916666666666" id="tests-vaccines-50"></rect></g><g><rect x="15.254545454545461" y="77.24458333333332" width="2" height="22.755416666666676" id="tests-vaccines-51"></rect></g><g><rect x="11.690909090909095" y="51.43666666666667" width="2" height="48.56333333333333" id="tests-vaccines-52"></rect></g><g><rect x="8.12727272727273" y="6.234583333333332" width="2" height="93.76541666666667" id="tests-vaccines-53"></rect></g><g><rect x="4.563636363636365" y="19.699999999999996" width="2" height="80.30000000000001" id="tests-vaccines-54"></rect></g><g><rect x="1" y="16.942083333333336" width="2" height="83.05791666666667" id="tests-vaccines-55"></rect></g></g><g class="fg-line tests-vaccines" fill="none" stroke="#92c5de" stroke-width="2" stroke-linecap="round"><path d="M198,85.56208333333333L194.43636363636364,84.66130952380952L190.87272727272727,83.29244047619048L187.30909090909088,82.9102380952381L183.74545454545455,82.30720238095238L180.1818181818182,81.17464285714286L176.61818181818182,80.35214285714285L173.05454545454546,79.7304761904762L169.49090909090907,79.34690476190475L165.92727272727274,80.28369047619049L162.36363636363637,80.17672619047619L158.8,79.82107142857143L155.23636363636365,79.19994047619048L151.6727272727273,78.77785714285714L148.1090909090909,78.38642857142857L144.54545454545453,78.19404761904762L140.9818181818182,77.63511904761906L137.41818181818184,77.74654761904762L133.85454545454544,77.37482142857142L130.29090909090908,76.60005952380953L126.72727272727273,75.83214285714286L123.16363636363636,74.80714285714285L119.6,73.68244047619048L116.03636363636363,72.00142857142858L112.47272727272728,71.35875L108.90909090909089,70.32142857142857L105.34545454545456,68.63994047619047L101.78181818181817,67.42250000000001L98.21818181818183,66.2302380952381L94.65454545454546,64.88845238095237L91.09090909090911,63.09714285714285L87.52727272727273,62.65119047619048L83.96363636363637,61.39041666666667L80.4,58.86315476190476L76.83636363636364,56.60589285714286L73.27272727272727,54.50005952380952L69.70909090909092,52.41922619047619L66.14545454545454,50.97380952380952L62.58181818181818,50.564166666666665L59.018181818181816,50.20214285714286L55.454545454545446,49.289702380952384L51.89090909090908,47.943214285714284L48.32727272727273,46.23880952380952L44.76363636363636,44.48988095238096L41.199999999999996,44.11369047619047L37.636363636363626,43.50577380952381L34.072727272727285,42.23809523809524L30.509090909090922,39.68559523809524L26.945454545454556,37.38714285714286L23.38181818181819,35.09648809523809L19.818181818181824,32.69583333333333L16.25454545454546,29.581250000000004L12.690909090909095,29.01964285714286L9.12727272727273,26.946130952380955L5.563636363636365,24.12863095238096L2,21.63708333333333"></path></g></svg>