<svg about="DATA_PUBLISHED_DATE:2021-12-28,RENDER_DATE:2021-12-29" xmlns="http://www.w3.org/2000/svg" viewBox="0,0,200,100"><g transform="translate(0,0)"></g><g class="fg-bars cases-ep" fill="#00183f" stroke="none"><g><rect x="197" y="21.450000000000003" width="2" height="78.55" id="cases-ep-0"></rect></g><g><rect x="193.43636363636364" y="20.66" width="2" height="79.34" id="cases-ep-1"></rect></g><g><rect x="189.87272727272727" y="2.0199999999999996" width="2" height="97.98" id="cases-ep-2"></rect></g><g><rect x="186.30909090909088" y="6.040000000000001" width="2" height="93.96" id="cases-ep-3"></rect></g><g><rect x="182.74545454545455" y="5.840000000000001" width="2" height="94.16" id="cases-ep-4"></rect></g><g><rect x="179.1818181818182" y="20.950000000000003" width="2" height="79.05" id="cases-ep-5"></rect></g><g><rect x="175.61818181818182" y="15.049999999999997" width="2" height="84.95" id="cases-ep-6"></rect></g><g><rect x="172.05454545454546" y="58.050000000000004" width="2" height="41.949999999999996" id="cases-ep-7"></rect></g><g><rect x="168.49090909090907" y="58.33999999999999" width="2" height="41.66000000000001" id="cases-ep-8"></rect></g><g><rect x="164.92727272727274" y="41.690000000000005" width="2" height="58.309999999999995" id="cases-ep-9"></rect></g><g><rect x="161.36363636363637" y="42.43" width="2" height="57.57" id="cases-ep-10"></rect></g><g><rect x="157.8" y="35.96" width="2" height="64.03999999999999" id="cases-ep-11"></rect></g><g><rect x="154.23636363636365" y="36.050000000000004" width="2" height="63.949999999999996" id="cases-ep-12"></rect></g><g><rect x="150.6727272727273" y="27.529999999999998" width="2" height="72.47" id="cases-ep-13"></rect></g><g><rect x="147.1090909090909" y="62.650000000000006" width="2" height="37.349999999999994" id="cases-ep-14"></rect></g><g><rect x="143.54545454545453" y="59.36" width="2" height="40.64" id="cases-ep-15"></rect></g><g><rect x="139.9818181818182" y="39.71" width="2" height="60.29" id="cases-ep-16"></rect></g><g><rect x="136.41818181818184" y="38.11" width="2" height="61.89" id="cases-ep-17"></rect></g><g><rect x="132.85454545454544" y="26.270000000000003" width="2" height="73.72999999999999" id="cases-ep-18"></rect></g><g><rect x="129.29090909090908" y="29.659999999999997" width="2" height="70.34" id="cases-ep-19"></rect></g><g><rect x="125.72727272727273" y="18.159999999999997" width="2" height="81.84" id="cases-ep-20"></rect></g><g><rect x="122.16363636363636" y="56.400000000000006" width="2" height="43.599999999999994" id="cases-ep-21"></rect></g><g><rect x="118.6" y="58.050000000000004" width="2" height="41.949999999999996" id="cases-ep-22"></rect></g><g><rect x="115.03636363636363" y="56.769999999999996" width="2" height="43.230000000000004" id="cases-ep-23"></rect></g><g><rect x="111.47272727272728" y="77.39" width="2" height="22.61" id="cases-ep-24"></rect></g><g><rect x="107.90909090909089" y="53.89999999999999" width="2" height="46.10000000000001" id="cases-ep-25"></rect></g><g><rect x="104.34545454545456" y="51.980000000000004" width="2" height="48.019999999999996" id="cases-ep-26"></rect></g><g><rect x="100.78181818181817" y="48.25000000000001" width="2" height="51.74999999999999" id="cases-ep-27"></rect></g><g><rect x="97.21818181818183" y="70.7" width="2" height="29.299999999999997" id="cases-ep-28"></rect></g><g><rect x="93.65454545454546" y="67.55" width="2" height="32.45" id="cases-ep-29"></rect></g><g><rect x="90.09090909090911" y="54.410000000000004" width="2" height="45.589999999999996" id="cases-ep-30"></rect></g><g><rect x="86.52727272727273" y="53.48" width="2" height="46.52" id="cases-ep-31"></rect></g><g><rect x="82.96363636363637" y="48.72" width="2" height="51.28" id="cases-ep-32"></rect></g><g><rect x="79.4" y="46.099999999999994" width="2" height="53.900000000000006" id="cases-ep-33"></rect></g><g><rect x="75.83636363636364" y="36.45" width="2" height="63.55" id="cases-ep-34"></rect></g><g><rect x="72.27272727272727" y="67.66" width="2" height="32.34" id="cases-ep-35"></rect></g><g><rect x="68.70909090909092" y="65.73" width="2" height="34.269999999999996" id="cases-ep-36"></rect></g><g><rect x="65.14545454545454" y="49.339999999999996" width="2" height="50.660000000000004" id="cases-ep-37"></rect></g><g><rect x="61.58181818181818" y="57.05" width="2" height="42.95" id="cases-ep-38"></rect></g><g><rect x="58.018181818181816" y="44.05" width="2" height="55.95" id="cases-ep-39"></rect></g><g><rect x="54.454545454545446" y="41.379999999999995" width="2" height="58.620000000000005" id="cases-ep-40"></rect></g><g><rect x="50.89090909090908" y="33.9" width="2" height="66.1" id="cases-ep-41"></rect></g><g><rect x="47.32727272727273" y="65.5" width="2" height="34.5" id="cases-ep-42"></rect></g><g><rect x="43.76363636363636" y="63.470000000000006" width="2" height="36.529999999999994" id="cases-ep-43"></rect></g><g><rect x="40.199999999999996" y="44.879999999999995" width="2" height="55.120000000000005" id="cases-ep-44"></rect></g><g><rect x="36.636363636363626" y="40.09" width="2" height="59.91" id="cases-ep-45"></rect></g><g><rect x="33.072727272727285" y="36.309999999999995" width="2" height="63.690000000000005" id="cases-ep-46"></rect></g><g><rect x="29.509090909090922" y="35.550000000000004" width="2" height="64.44999999999999" id="cases-ep-47"></rect></g><g><rect x="25.945454545454556" y="26.580000000000005" width="2" height="73.41999999999999" id="cases-ep-48"></rect></g><g><rect x="22.38181818181819" y="65.31" width="2" height="34.69" id="cases-ep-49"></rect></g><g><rect x="18.818181818181824" y="60.8" width="2" height="39.2" id="cases-ep-50"></rect></g><g><rect x="15.254545454545461" y="43.89999999999999" width="2" height="56.10000000000001" id="cases-ep-51"></rect></g><g><rect x="11.690909090909095" y="39.59" width="2" height="60.41" id="cases-ep-52"></rect></g><g><rect x="8.12727272727273" y="35" width="2" height="65" id="cases-ep-53"></rect></g><g><rect x="4.563636363636365" y="32.52" width="2" height="67.47999999999999" id="cases-ep-54"></rect></g><g><rect x="1" y="28.180000000000007" width="2" height="71.82" id="cases-ep-55"></rect></g></g><g class="fg-line cases-ep" fill="none" stroke="#92c5de" stroke-width="2" stroke-linecap="round"><path d="M198,13.144285714285708L194.43636363636364,18.372857142857146L190.87272727272727,23.75571428571428L187.30909090909088,29.42285714285715L183.74545454545455,34.62142857142857L180.1818181818182,38.92428571428571L176.61818181818182,41.08142857142857L173.05454545454546,42.864285714285714L169.49090909090907,43.521428571428565L165.92727272727274,43.66714285714285L162.36363636363637,43.38428571428572L158.8,42.76714285714285L155.23636363636365,41.38285714285714L151.6727272727273,40.46999999999999L148.1090909090909,39.13142857142857L144.54545454545453,38.23857142857143L140.9818181818182,38.051428571428566L137.41818181818184,40.48857142857143L133.85454545454544,46.099999999999994L130.29090909090908,50.047142857142845L126.72727272727273,53.23571428571429L123.16363636363636,57.534285714285716L119.6,59.57714285714286L116.03636363636363,60.93428571428572L112.47272727272728,60.59714285714286L108.90909090909089,57.18142857142856L105.34545454545456,56.441428571428574L101.78181818181817,55.60142857142857L98.21818181818183,53.91571428571429L94.65454545454546,53.481428571428566L91.09090909090911,53.221428571428575L87.52727272727273,52.497142857142855L83.96363636363637,53.00714285714285L80.4,52.339999999999996L76.83636363636364,51.665714285714294L73.27272727272727,51.301428571428566L69.70909090909092,50.99285714285715L66.14545454545454,50.669999999999995L62.58181818181818,50.03285714285715L59.018181818181816,47.61L55.454545454545446,46.50428571428572L51.89090909090908,45.67142857142857L48.32727272727273,44.62571428571428L44.76363636363636,44.59857142857143L41.199999999999996,44.21714285714285L37.636363636363626,44.077142857142846L34.072727272727285,44.005714285714284L30.509090909090922,43.81857142857143L26.945454545454556,43.385714285714286L23.38181818181819,43.614285714285714L19.818181818181824,43.50000000000001L16.25454545454546,43.34L12.690909090909095,42.85285714285715L9.12727272727273,43.09142857142857L5.563636363636365,43.527142857142856L2,44.10857142857143"></path></g></svg>