<svg meta="{&quot;DATA_PUBLISHED_DATE&quot;:&quot;2022-04-29&quot;,&quot;RENDER_DATE&quot;:&quot;2022-04-29&quot;,&quot;FIRST_DATE&quot;:&quot;2022-02-25&quot;,&quot;LAST_DATE&quot;:&quot;2022-04-21&quot;}" xmlns="http://www.w3.org/2000/svg" viewBox="0,0,200,100"><g transform="translate(0,0)"></g><g class="fg-bars tests-vaccines" fill="#00183f" stroke="none"><g><rect x="197" y="34.967000000000006" width="2" height="65.03299999999999" id="tests-vaccines-0"></rect></g><g><rect x="193.43636363636364" y="33.864000000000004" width="2" height="66.136" id="tests-vaccines-1"></rect></g><g><rect x="189.87272727272727" y="30.520000000000003" width="2" height="69.47999999999999" id="tests-vaccines-2"></rect></g><g><rect x="186.30909090909088" y="29.82" width="2" height="70.18" id="tests-vaccines-3"></rect></g><g><rect x="182.74545454545455" y="91.464" width="2" height="8.536000000000001" id="tests-vaccines-4"></rect></g><g><rect x="179.1818181818182" y="62.914" width="2" height="37.086" id="tests-vaccines-5"></rect></g><g><rect x="175.61818181818182" y="18.608000000000004" width="2" height="81.392" id="tests-vaccines-6"></rect></g><g><rect x="172.05454545454546" y="26.305999999999997" width="2" height="73.694" id="tests-vaccines-7"></rect></g><g><rect x="168.49090909090907" y="24.680000000000003" width="2" height="75.32" id="tests-vaccines-8"></rect></g><g><rect x="164.92727272727274" y="21.016000000000002" width="2" height="78.984" id="tests-vaccines-9"></rect></g><g><rect x="161.36363636363637" y="24.043999999999997" width="2" height="75.956" id="tests-vaccines-10"></rect></g><g><rect x="157.8" y="75.549" width="2" height="24.450999999999993" id="tests-vaccines-11"></rect></g><g><rect x="154.23636363636365" y="55.645999999999994" width="2" height="44.354000000000006" id="tests-vaccines-12"></rect></g><g><rect x="150.6727272727273" y="12.422" width="2" height="87.578" id="tests-vaccines-13"></rect></g><g><rect x="147.1090909090909" y="24.800999999999995" width="2" height="75.19900000000001" id="tests-vaccines-14"></rect></g><g><rect x="143.54545454545453" y="25.605" width="2" height="74.395" id="tests-vaccines-15"></rect></g><g><rect x="139.9818181818182" y="24.802999999999997" width="2" height="75.197" id="tests-vaccines-16"></rect></g><g><rect x="136.41818181818184" y="24.221999999999998" width="2" height="75.778" id="tests-vaccines-17"></rect></g><g><rect x="132.85454545454544" y="74.102" width="2" height="25.897999999999996" id="tests-vaccines-18"></rect></g><g><rect x="129.29090909090908" y="53.913" width="2" height="46.087" id="tests-vaccines-19"></rect></g><g><rect x="125.72727272727273" y="9.160000000000002" width="2" height="90.84" id="tests-vaccines-20"></rect></g><g><rect x="122.16363636363636" y="25.438000000000006" width="2" height="74.562" id="tests-vaccines-21"></rect></g><g><rect x="118.6" y="38.196" width="2" height="61.804" id="tests-vaccines-22"></rect></g><g><rect x="115.03636363636363" y="68.247" width="2" height="31.753" id="tests-vaccines-23"></rect></g><g><rect x="111.47272727272728" y="73.94800000000001" width="2" height="26.051999999999992" id="tests-vaccines-24"></rect></g><g><rect x="107.90909090909089" y="89.846" width="2" height="10.153999999999996" id="tests-vaccines-25"></rect></g><g><rect x="104.34545454545456" y="80.52" width="2" height="19.480000000000004" id="tests-vaccines-26"></rect></g><g><rect x="100.78181818181817" y="62.782000000000004" width="2" height="37.217999999999996" id="tests-vaccines-27"></rect></g><g><rect x="97.21818181818183" y="71.05799999999999" width="2" height="28.942000000000007" id="tests-vaccines-28"></rect></g><g><rect x="93.65454545454546" y="70.004" width="2" height="29.995999999999995" id="tests-vaccines-29"></rect></g><g><rect x="90.09090909090911" y="70.927" width="2" height="29.072999999999993" id="tests-vaccines-30"></rect></g><g><rect x="86.52727272727273" y="68.496" width="2" height="31.504000000000005" id="tests-vaccines-31"></rect></g><g><rect x="82.96363636363637" y="88.422" width="2" height="11.578000000000003" id="tests-vaccines-32"></rect></g><g><rect x="79.4" y="75.94300000000001" width="2" height="24.056999999999988" id="tests-vaccines-33"></rect></g><g><rect x="75.83636363636364" y="56.679" width="2" height="43.321" id="tests-vaccines-34"></rect></g><g><rect x="72.27272727272727" y="68.827" width="2" height="31.173000000000002" id="tests-vaccines-35"></rect></g><g><rect x="68.70909090909092" y="67.822" width="2" height="32.178" id="tests-vaccines-36"></rect></g><g><rect x="65.14545454545454" y="67.986" width="2" height="32.013999999999996" id="tests-vaccines-37"></rect></g><g><rect x="61.58181818181818" y="68.78299999999999" width="2" height="31.217000000000013" id="tests-vaccines-38"></rect></g><g><rect x="58.018181818181816" y="87.771" width="2" height="12.229" id="tests-vaccines-39"></rect></g><g><rect x="54.454545454545446" y="74.205" width="2" height="25.795" id="tests-vaccines-40"></rect></g><g><rect x="50.89090909090908" y="55.93" width="2" height="44.07" id="tests-vaccines-41"></rect></g><g><rect x="47.32727272727273" y="65.29400000000001" width="2" height="34.70599999999999" id="tests-vaccines-42"></rect></g><g><rect x="43.76363636363636" y="63.56999999999999" width="2" height="36.43000000000001" id="tests-vaccines-43"></rect></g><g><rect x="40.199999999999996" y="65.581" width="2" height="34.419" id="tests-vaccines-44"></rect></g><g><rect x="36.636363636363626" y="64.593" width="2" height="35.407" id="tests-vaccines-45"></rect></g><g><rect x="33.072727272727285" y="86.26" width="2" height="13.739999999999995" id="tests-vaccines-46"></rect></g><g><rect x="29.509090909090922" y="70.078" width="2" height="29.921999999999997" id="tests-vaccines-47"></rect></g><g><rect x="25.945454545454556" y="43.769000000000005" width="2" height="56.230999999999995" id="tests-vaccines-48"></rect></g><g><rect x="22.38181818181819" y="58.309999999999995" width="2" height="41.690000000000005" id="tests-vaccines-49"></rect></g><g><rect x="18.818181818181824" y="55.118" width="2" height="44.882" id="tests-vaccines-50"></rect></g><g><rect x="15.254545454545461" y="49.531000000000006" width="2" height="50.468999999999994" id="tests-vaccines-51"></rect></g><g><rect x="11.690909090909095" y="40.2" width="2" height="59.8" id="tests-vaccines-52"></rect></g><g><rect x="8.12727272727273" y="79.596" width="2" height="20.403999999999996" id="tests-vaccines-53"></rect></g><g><rect x="4.563636363636365" y="59.309" width="2" height="40.691" id="tests-vaccines-54"></rect></g><g><rect x="1" y="23.665999999999997" width="2" height="76.334" id="tests-vaccines-55"></rect></g></g><g class="fg-line tests-vaccines" fill="none" stroke="#92c5de" stroke-width="2" stroke-linecap="round"><path d="M198,43.165285714285716L194.43636363636364,41.928L190.87272727272727,40.616L187.30909090909088,39.25828571428571L183.74545454545455,38.433142857142855L180.1818181818182,36.159571428571425L176.61818181818182,35.12128571428572L173.05454545454546,34.237571428571435L169.49090909090907,34.02257142857144L165.92727272727274,34.15471428571429L162.36363636363637,34.69571428571429L158.8,34.72114285714285L155.23636363636365,34.51442857142857L151.6727272727273,34.26685714285714L148.1090909090909,33.80085714285714L144.54545454545453,33.89185714285714L140.9818181818182,35.690571428571424L137.41818181818184,41.896857142857144L133.85454545454544,49.000571428571426L130.29090909090908,51.249714285714276L126.72727272727273,55.050714285714285L123.16363636363636,62.711000000000006L119.6,69.22814285714286L116.03636363636363,73.77214285714287L112.47272727272728,74.15499999999999L108.90909090909089,73.37614285714285L105.34545454545456,73.17271428571428L101.78181818181817,72.51885714285714L98.21818181818183,71.64699999999999L94.65454545454546,71.32828571428571L91.09090909090911,71.01657142857142L87.52727272727273,70.59642857142858L83.96363636363637,70.63742857142857L80.4,70.54442857142857L76.83636363636364,70.29614285714285L73.27272727272727,70.18914285714285L69.70909090909092,69.68442857142858L66.14545454545454,69.077L62.58181818181818,68.73342857142856L59.018181818181816,68.13485714285714L55.454545454545446,67.919L51.89090909090908,67.32942857142858L48.32727272727273,65.59214285714286L44.76363636363636,64.59442857142858L41.199999999999996,63.38699999999999L37.636363636363626,61.094142857142856L34.072727272727285,57.609428571428566L30.509090909090922,56.65742857142857L26.945454545454556,55.11900000000001L23.38181818181819,52.24714285714285L19.818181818181824,50.199857142857155L16.25454545454546,48.68528571428572L12.690909090909095,47.85185714285715L9.12727272727273,50.201142857142855L5.563636363636365,49.94385714285714L2,49.14528571428571"></path></g></svg>