<svg meta="{&quot;DATA_PUBLISHED_DATE&quot;:&quot;2023-06-08&quot;,&quot;RENDER_DATE&quot;:&quot;2023-06-08&quot;,&quot;FIRST_DATE&quot;:&quot;2023-03-21&quot;,&quot;LAST_DATE&quot;:&quot;2023-05-15&quot;}" xmlns="http://www.w3.org/2000/svg" viewBox="0,0,200,100"><g transform="translate(0,0)"></g><g class="fg-bars death-date" fill="#00183f" stroke="none"><g><rect x="197" y="50" width="2" height="50" id="death-date-0"></rect></g><g><rect x="193.43636363636364" y="81.81818181818181" width="2" height="18.181818181818187" id="death-date-1"></rect></g><g><rect x="189.87272727272727" y="45.45454545454546" width="2" height="54.54545454545454" id="death-date-2"></rect></g><g><rect x="186.30909090909088" y="68.18181818181819" width="2" height="31.818181818181813" id="death-date-3"></rect></g><g><rect x="182.74545454545455" y="63.63636363636363" width="2" height="36.36363636363637" id="death-date-4"></rect></g><g><rect x="179.1818181818182" y="81.81818181818181" width="2" height="18.181818181818187" id="death-date-5"></rect></g><g><rect x="175.61818181818182" y="68.18181818181819" width="2" height="31.818181818181813" id="death-date-6"></rect></g><g><rect x="172.05454545454546" y="63.63636363636363" width="2" height="36.36363636363637" id="death-date-7"></rect></g><g><rect x="168.49090909090907" y="59.09090909090908" width="2" height="40.90909090909092" id="death-date-8"></rect></g><g><rect x="164.92727272727274" y="63.63636363636363" width="2" height="36.36363636363637" id="death-date-9"></rect></g><g><rect x="161.36363636363637" y="54.54545454545454" width="2" height="45.45454545454546" id="death-date-10"></rect></g><g><rect x="157.8" y="63.63636363636363" width="2" height="36.36363636363637" id="death-date-11"></rect></g><g><rect x="154.23636363636365" y="50" width="2" height="50" id="death-date-12"></rect></g><g><rect x="150.6727272727273" y="72.72727272727273" width="2" height="27.272727272727266" id="death-date-13"></rect></g><g><rect x="147.1090909090909" y="72.72727272727273" width="2" height="27.272727272727266" id="death-date-14"></rect></g><g><rect x="143.54545454545453" y="54.54545454545454" width="2" height="45.45454545454546" id="death-date-15"></rect></g><g><rect x="139.9818181818182" y="45.45454545454546" width="2" height="54.54545454545454" id="death-date-16"></rect></g><g><rect x="136.41818181818184" y="72.72727272727273" width="2" height="27.272727272727266" id="death-date-17"></rect></g><g><rect x="132.85454545454544" y="31.818181818181824" width="2" height="68.18181818181817" id="death-date-18"></rect></g><g><rect x="129.29090909090908" y="63.63636363636363" width="2" height="36.36363636363637" id="death-date-19"></rect></g><g><rect x="125.72727272727273" y="18.181818181818176" width="2" height="81.81818181818183" id="death-date-20"></rect></g><g><rect x="122.16363636363636" y="36.36363636363637" width="2" height="63.63636363636363" id="death-date-21"></rect></g><g><rect x="118.6" y="54.54545454545454" width="2" height="45.45454545454546" id="death-date-22"></rect></g><g><rect x="115.03636363636363" y="36.36363636363637" width="2" height="63.63636363636363" id="death-date-23"></rect></g><g><rect x="111.47272727272728" y="50" width="2" height="50" id="death-date-24"></rect></g><g><rect x="107.90909090909089" y="68.18181818181819" width="2" height="31.818181818181813" id="death-date-25"></rect></g><g><rect x="104.34545454545456" y="40.90909090909091" width="2" height="59.09090909090909" id="death-date-26"></rect></g><g><rect x="100.78181818181817" y="36.36363636363637" width="2" height="63.63636363636363" id="death-date-27"></rect></g><g><rect x="97.21818181818183" y="40.90909090909091" width="2" height="59.09090909090909" id="death-date-28"></rect></g><g><rect x="93.65454545454546" y="31.818181818181824" width="2" height="68.18181818181817" id="death-date-29"></rect></g><g><rect x="90.09090909090911" y="54.54545454545454" width="2" height="45.45454545454546" id="death-date-30"></rect></g><g><rect x="86.52727272727273" y="50" width="2" height="50" id="death-date-31"></rect></g><g><rect x="82.96363636363637" y="54.54545454545454" width="2" height="45.45454545454546" id="death-date-32"></rect></g><g><rect x="79.4" y="63.63636363636363" width="2" height="36.36363636363637" id="death-date-33"></rect></g><g><rect x="75.83636363636364" y="50" width="2" height="50" id="death-date-34"></rect></g><g><rect x="72.27272727272727" y="40.90909090909091" width="2" height="59.09090909090909" id="death-date-35"></rect></g><g><rect x="68.70909090909092" y="36.36363636363637" width="2" height="63.63636363636363" id="death-date-36"></rect></g><g><rect x="65.14545454545454" y="40.90909090909091" width="2" height="59.09090909090909" id="death-date-37"></rect></g><g><rect x="61.58181818181818" y="59.09090909090908" width="2" height="40.90909090909092" id="death-date-38"></rect></g><g><rect x="58.018181818181816" y="9.090909090909093" width="2" height="90.9090909090909" id="death-date-39"></rect></g><g><rect x="54.454545454545446" y="45.45454545454546" width="2" height="54.54545454545454" id="death-date-40"></rect></g><g><rect x="50.89090909090908" y="54.54545454545454" width="2" height="45.45454545454546" id="death-date-41"></rect></g><g><rect x="47.32727272727273" y="31.818181818181824" width="2" height="68.18181818181817" id="death-date-42"></rect></g><g><rect x="43.76363636363636" y="36.36363636363637" width="2" height="63.63636363636363" id="death-date-43"></rect></g><g><rect x="40.199999999999996" y="40.90909090909091" width="2" height="59.09090909090909" id="death-date-44"></rect></g><g><rect x="36.636363636363626" y="22.72727272727273" width="2" height="77.27272727272727" id="death-date-45"></rect></g><g><rect x="33.072727272727285" y="4.545454545454541" width="2" height="95.45454545454545" id="death-date-46"></rect></g><g><rect x="29.509090909090922" y="36.36363636363637" width="2" height="63.63636363636363" id="death-date-47"></rect></g><g><rect x="25.945454545454556" y="40.90909090909091" width="2" height="59.09090909090909" id="death-date-48"></rect></g><g><rect x="22.38181818181819" y="40.90909090909091" width="2" height="59.09090909090909" id="death-date-49"></rect></g><g><rect x="18.818181818181824" y="27.27272727272727" width="2" height="72.72727272727273" id="death-date-50"></rect></g><g><rect x="15.254545454545461" y="9.090909090909093" width="2" height="90.9090909090909" id="death-date-51"></rect></g><g><rect x="11.690909090909095" y="36.36363636363637" width="2" height="63.63636363636363" id="death-date-52"></rect></g><g><rect x="8.12727272727273" y="31.818181818181824" width="2" height="68.18181818181817" id="death-date-53"></rect></g><g><rect x="4.563636363636365" y="45.45454545454546" width="2" height="54.54545454545454" id="death-date-54"></rect></g><g><rect x="1" y="50" width="2" height="50" id="death-date-55"></rect></g></g><g class="fg-line death-date" fill="none" stroke="#92c5de" stroke-width="2" stroke-linecap="round"><path d="M198,65.5844155844156L194.43636363636364,67.53246753246754L190.87272727272727,64.28571428571428L187.30909090909088,66.88311688311688L183.74545454545455,64.93506493506493L180.1818181818182,64.93506493506493L176.61818181818182,60.3896103896104L173.05454545454546,61.03896103896105L169.49090909090907,62.33766233766234L165.92727272727274,61.68831168831168L162.36363636363637,59.09090909090908L158.8,61.68831168831168L155.23636363636365,57.14285714285714L151.6727272727273,59.09090909090908L148.1090909090909,51.29870129870131L144.54545454545453,46.103896103896105L140.9818181818182,46.103896103896105L137.41818181818184,44.8051948051948L133.85454545454544,41.55844155844156L130.29090909090908,46.753246753246756L126.72727272727273,43.506493506493506L123.16363636363636,46.103896103896105L119.6,46.753246753246756L116.03636363636363,43.506493506493506L112.47272727272728,46.103896103896105L108.90909090909089,46.103896103896105L105.34545454545456,44.15584415584415L101.78181818181817,47.4025974025974L98.21818181818183,49.350649350649356L94.65454545454546,49.350649350649356L91.09090909090911,50L87.52727272727273,48.051948051948045L83.96363636363637,49.350649350649356L80.4,42.85714285714286L76.83636363636364,40.25974025974026L73.27272727272727,40.90909090909091L69.70909090909092,39.6103896103896L66.14545454545454,39.6103896103896L62.58181818181818,39.6103896103896L59.018181818181816,34.41558441558441L55.454545454545446,33.76623376623377L51.89090909090908,32.467532467532465L48.32727272727273,30.519480519480513L44.76363636363636,31.818181818181824L41.199999999999996,30.519480519480513L37.636363636363626,25.974025974025984L34.072727272727285,27.922077922077914L30.509090909090922,31.818181818181824L26.945454545454556,33.11688311688312L23.38181818181819,34.41558441558441L19.818181818181824,31.16883116883117L16.25454545454546,31.818181818181824L12.690909090909095,31.818181818181824L9.12727272727273,27.27272727272727L5.563636363636365,21.42857142857143L2,18.181818181818176"></path></g></svg>