<svg about="DATA_PUBLISHED_DATE:2021-12-26,RENDER_DATE:2021-12-26" xmlns="http://www.w3.org/2000/svg" viewBox="0,0,200,100"><g transform="translate(0,0)"></g><g class="fg-bars tests-vaccines" fill="#00183f" stroke="none"><g><rect x="197" y="61.28742857142857" width="2" height="38.71257142857143" id="tests-vaccines-0"></rect></g><g><rect x="193.43636363636364" y="28.894" width="2" height="71.106" id="tests-vaccines-1"></rect></g><g><rect x="189.87272727272727" y="37.11257142857143" width="2" height="62.88742857142857" id="tests-vaccines-2"></rect></g><g><rect x="186.30909090909088" y="35.425428571428576" width="2" height="64.57457142857143" id="tests-vaccines-3"></rect></g><g><rect x="182.74545454545455" y="37.03485714285715" width="2" height="62.96514285714285" id="tests-vaccines-4"></rect></g><g><rect x="179.1818181818182" y="39.722" width="2" height="60.278" id="tests-vaccines-5"></rect></g><g><rect x="175.61818181818182" y="81.04542857142857" width="2" height="18.954571428571427" id="tests-vaccines-6"></rect></g><g><rect x="172.05454545454546" y="55.08657142857143" width="2" height="44.91342857142857" id="tests-vaccines-7"></rect></g><g><rect x="168.49090909090907" y="20.96771428571429" width="2" height="79.0322857142857" id="tests-vaccines-8"></rect></g><g><rect x="164.92727272727274" y="28.596571428571426" width="2" height="71.40342857142858" id="tests-vaccines-9"></rect></g><g><rect x="161.36363636363637" y="26.44457142857143" width="2" height="73.55542857142856" id="tests-vaccines-10"></rect></g><g><rect x="157.8" y="26.17085714285714" width="2" height="73.82914285714286" id="tests-vaccines-11"></rect></g><g><rect x="154.23636363636365" y="31.68685714285714" width="2" height="68.31314285714286" id="tests-vaccines-12"></rect></g><g><rect x="150.6727272727273" y="76.96714285714286" width="2" height="23.03285714285714" id="tests-vaccines-13"></rect></g><g><rect x="147.1090909090909" y="48.62114285714285" width="2" height="51.37885714285715" id="tests-vaccines-14"></rect></g><g><rect x="143.54545454545453" y="10.12885714285714" width="2" height="89.87114285714286" id="tests-vaccines-15"></rect></g><g><rect x="139.9818181818182" y="20.60914285714286" width="2" height="79.39085714285714" id="tests-vaccines-16"></rect></g><g><rect x="136.41818181818184" y="22.36571428571429" width="2" height="77.63428571428571" id="tests-vaccines-17"></rect></g><g><rect x="132.85454545454544" y="30.097428571428576" width="2" height="69.90257142857142" id="tests-vaccines-18"></rect></g><g><rect x="129.29090909090908" y="39.40685714285714" width="2" height="60.59314285714286" id="tests-vaccines-19"></rect></g><g><rect x="125.72727272727273" y="81.64085714285714" width="2" height="18.359142857142857" id="tests-vaccines-20"></rect></g><g><rect x="122.16363636363636" y="67.42314285714286" width="2" height="32.576857142857136" id="tests-vaccines-21"></rect></g><g><rect x="118.6" y="56.47057142857144" width="2" height="43.52942857142856" id="tests-vaccines-22"></rect></g><g><rect x="115.03636363636363" y="98.59571428571428" width="2" height="1.4042857142857201" id="tests-vaccines-23"></rect></g><g><rect x="111.47272727272728" y="41.592571428571425" width="2" height="58.407428571428575" id="tests-vaccines-24"></rect></g><g><rect x="107.90909090909089" y="30.547142857142862" width="2" height="69.45285714285714" id="tests-vaccines-25"></rect></g><g><rect x="104.34545454545456" y="33.883428571428574" width="2" height="66.11657142857143" id="tests-vaccines-26"></rect></g><g><rect x="100.78181818181817" y="79.20857142857143" width="2" height="20.79142857142857" id="tests-vaccines-27"></rect></g><g><rect x="97.21818181818183" y="55.12428571428571" width="2" height="44.87571428571429" id="tests-vaccines-28"></rect></g><g><rect x="93.65454545454546" y="23.12171428571429" width="2" height="76.87828571428571" id="tests-vaccines-29"></rect></g><g><rect x="90.09090909090911" y="35.19314285714286" width="2" height="64.80685714285714" id="tests-vaccines-30"></rect></g><g><rect x="86.52727272727273" y="33.924285714285716" width="2" height="66.07571428571428" id="tests-vaccines-31"></rect></g><g><rect x="82.96363636363637" y="35.384571428571434" width="2" height="64.61542857142857" id="tests-vaccines-32"></rect></g><g><rect x="79.4" y="41.150571428571425" width="2" height="58.849428571428575" id="tests-vaccines-33"></rect></g><g><rect x="75.83636363636364" y="79.58142857142857" width="2" height="20.418571428571425" id="tests-vaccines-34"></rect></g><g><rect x="72.27272727272727" y="57.39228571428572" width="2" height="42.60771428571428" id="tests-vaccines-35"></rect></g><g><rect x="68.70909090909092" y="25.797714285714292" width="2" height="74.20228571428571" id="tests-vaccines-36"></rect></g><g><rect x="65.14545454545454" y="37.902" width="2" height="62.098" id="tests-vaccines-37"></rect></g><g><rect x="61.58181818181818" y="35.392" width="2" height="64.608" id="tests-vaccines-38"></rect></g><g><rect x="58.018181818181816" y="37.79685714285714" width="2" height="62.20314285714286" id="tests-vaccines-39"></rect></g><g><rect x="54.454545454545446" y="42.799142857142854" width="2" height="57.200857142857146" id="tests-vaccines-40"></rect></g><g><rect x="50.89090909090908" y="80.66285714285715" width="2" height="19.33714285714285" id="tests-vaccines-41"></rect></g><g><rect x="47.32727272727273" y="63.29857142857143" width="2" height="36.70142857142857" id="tests-vaccines-42"></rect></g><g><rect x="43.76363636363636" y="30.434000000000005" width="2" height="69.566" id="tests-vaccines-43"></rect></g><g><rect x="40.199999999999996" y="43.33114285714286" width="2" height="56.66885714285714" id="tests-vaccines-44"></rect></g><g><rect x="36.636363636363626" y="45.83142857142857" width="2" height="54.16857142857143" id="tests-vaccines-45"></rect></g><g><rect x="33.072727272727285" y="45.752" width="2" height="54.248" id="tests-vaccines-46"></rect></g><g><rect x="29.509090909090922" y="49.05914285714286" width="2" height="50.94085714285714" id="tests-vaccines-47"></rect></g><g><rect x="25.945454545454556" y="85.48542857142857" width="2" height="14.51457142857143" id="tests-vaccines-48"></rect></g><g><rect x="22.38181818181819" y="70.46428571428571" width="2" height="29.535714285714292" id="tests-vaccines-49"></rect></g><g><rect x="18.818181818181824" y="37.46514285714285" width="2" height="62.53485714285715" id="tests-vaccines-50"></rect></g><g><rect x="15.254545454545461" y="47.92057142857142" width="2" height="52.07942857142858" id="tests-vaccines-51"></rect></g><g><rect x="11.690909090909095" y="47.83657142857143" width="2" height="52.16342857142857" id="tests-vaccines-52"></rect></g><g><rect x="8.12727272727273" y="48.39828571428571" width="2" height="51.60171428571429" id="tests-vaccines-53"></rect></g><g><rect x="4.563636363636365" y="53.307428571428574" width="2" height="46.692571428571426" id="tests-vaccines-54"></rect></g><g><rect x="1" y="86.4242857142857" width="2" height="13.575714285714298" id="tests-vaccines-55"></rect></g></g><g class="fg-line tests-vaccines" fill="none" stroke="#92c5de" stroke-width="2" stroke-linecap="round"><path d="M198,45.788816326530615L194.43636363636364,44.90297959183673L190.87272727272727,43.770653061224486L187.30909090909088,42.554081632653066L183.74545454545455,41.271102040816324L180.1818181818182,39.719102040816324L176.61818181818182,38.57122448979592L173.05454545454546,37.988612244897965L169.49090909090907,37.06497959183673L165.92727272727274,35.51657142857143L162.36363636363637,34.37551020408163L158.8,33.792816326530605L155.23636363636365,34.353755102040815L151.6727272727273,35.45661224489797L148.1090909090909,36.12428571428571L144.54545454545453,38.81028571428572L140.9818181818182,45.430530612244894L137.41818181818184,56.5714693877551L133.85454545454544,59.318163265306126L130.29090909090908,59.38240816326531L126.72727272727273,58.59334693877551L123.16363636363636,58.245877551020406L119.6,56.48889795918368L116.03636363636363,51.72477551020409L112.47272727272728,42.667265306122445L108.90909090909089,41.57179591836735L105.34545454545456,42.26285714285714L101.78181818181817,43.30102040816326L98.21818181818183,43.35428571428571L94.65454545454546,43.678285714285714L91.09090909090911,44.06057142857143L87.52727272727273,44.44755102040816L83.96363636363637,44.65722448979592L80.4,45.00183673469388L76.83636363636364,45.23734693877552L73.27272727272727,45.39183673469388L69.70909090909092,46.23559183673469L66.14545454545454,46.89791836734693L62.58181818181818,47.67351020408162L59.018181818181816,49.164857142857144L55.454545454545446,50.301306122448985L51.89090909090908,51.1955918367347L48.32727272727273,51.884530612244895L44.76363636363636,52.90820408163266L41.199999999999996,53.91265306122448L37.636363636363626,54.568285714285715L34.072727272727285,54.854734693877546L30.509090909090922,55.23277551020409L26.945454545454556,55.839673469387755L23.38181818181819,55.97379591836735L19.818181818181824,56.40461224489797L16.25454545454546,58.68746938775511L12.690909090909095,62.17755102040816L9.12727272727273,65.83085714285714L5.563636363636365,69.28657142857143L2,71.87387755102041"></path></g></svg>