<svg about="DATA_PUBLISHED_DATE:2021-10-07,RENDER_DATE:2021-10-08" xmlns="http://www.w3.org/2000/svg" viewBox="0,0,200,100"><g transform="translate(0,0)"></g><g class="fg-bars death-date" fill="#00183f" stroke="none"><g><rect x="197" y="35.38461538461538" width="2" height="64.61538461538461" id="death-date-0"></rect></g><g><rect x="193.43636363636364" y="29.230769230769226" width="2" height="70.76923076923077" id="death-date-1"></rect></g><g><rect x="189.87272727272727" y="30.000000000000004" width="2" height="70" id="death-date-2"></rect></g><g><rect x="186.30909090909088" y="28.46153846153846" width="2" height="71.53846153846155" id="death-date-3"></rect></g><g><rect x="182.74545454545455" y="14.615384615384619" width="2" height="85.38461538461539" id="death-date-4"></rect></g><g><rect x="179.1818181818182" y="18.461538461538463" width="2" height="81.53846153846153" id="death-date-5"></rect></g><g><rect x="175.61818181818182" y="24.615384615384617" width="2" height="75.38461538461539" id="death-date-6"></rect></g><g><rect x="172.05454545454546" y="19.999999999999996" width="2" height="80" id="death-date-7"></rect></g><g><rect x="168.49090909090907" y="18.461538461538463" width="2" height="81.53846153846153" id="death-date-8"></rect></g><g><rect x="164.92727272727274" y="8.461538461538465" width="2" height="91.53846153846153" id="death-date-9"></rect></g><g><rect x="161.36363636363637" y="29.230769230769226" width="2" height="70.76923076923077" id="death-date-10"></rect></g><g><rect x="157.8" y="11.538461538461542" width="2" height="88.46153846153845" id="death-date-11"></rect></g><g><rect x="154.23636363636365" y="8.461538461538465" width="2" height="91.53846153846153" id="death-date-12"></rect></g><g><rect x="150.6727272727273" y="20.769230769230774" width="2" height="79.23076923076923" id="death-date-13"></rect></g><g><rect x="147.1090909090909" y="17.692307692307697" width="2" height="82.3076923076923" id="death-date-14"></rect></g><g><rect x="143.54545454545453" y="22.307692307692307" width="2" height="77.6923076923077" id="death-date-15"></rect></g><g><rect x="139.9818181818182" y="28.46153846153846" width="2" height="71.53846153846155" id="death-date-16"></rect></g><g><rect x="136.41818181818184" y="3.076923076923077" width="2" height="96.92307692307692" id="death-date-17"></rect></g><g><rect x="132.85454545454544" y="13.076923076923075" width="2" height="86.92307692307692" id="death-date-18"></rect></g><g><rect x="129.29090909090908" y="14.615384615384619" width="2" height="85.38461538461539" id="death-date-19"></rect></g><g><rect x="125.72727272727273" y="13.846153846153841" width="2" height="86.15384615384616" id="death-date-20"></rect></g><g><rect x="122.16363636363636" y="13.076923076923075" width="2" height="86.92307692307692" id="death-date-21"></rect></g><g><rect x="118.6" y="25.384615384615383" width="2" height="74.61538461538461" id="death-date-22"></rect></g><g><rect x="115.03636363636363" y="28.46153846153846" width="2" height="71.53846153846155" id="death-date-23"></rect></g><g><rect x="111.47272727272728" y="22.307692307692307" width="2" height="77.6923076923077" id="death-date-24"></rect></g><g><rect x="107.90909090909089" y="30.000000000000004" width="2" height="70" id="death-date-25"></rect></g><g><rect x="104.34545454545456" y="27.692307692307693" width="2" height="72.3076923076923" id="death-date-26"></rect></g><g><rect x="100.78181818181817" y="32.30769230769231" width="2" height="67.6923076923077" id="death-date-27"></rect></g><g><rect x="97.21818181818183" y="19.999999999999996" width="2" height="80" id="death-date-28"></rect></g><g><rect x="93.65454545454546" y="17.692307692307697" width="2" height="82.3076923076923" id="death-date-29"></rect></g><g><rect x="90.09090909090911" y="44.61538461538461" width="2" height="55.38461538461539" id="death-date-30"></rect></g><g><rect x="86.52727272727273" y="43.07692307692308" width="2" height="56.92307692307692" id="death-date-31"></rect></g><g><rect x="82.96363636363637" y="15.384615384615385" width="2" height="84.61538461538461" id="death-date-32"></rect></g><g><rect x="79.4" y="43.07692307692308" width="2" height="56.92307692307692" id="death-date-33"></rect></g><g><rect x="75.83636363636364" y="46.15384615384615" width="2" height="53.84615384615385" id="death-date-34"></rect></g><g><rect x="72.27272727272727" y="45.38461538461539" width="2" height="54.61538461538461" id="death-date-35"></rect></g><g><rect x="68.70909090909092" y="46.15384615384615" width="2" height="53.84615384615385" id="death-date-36"></rect></g><g><rect x="65.14545454545454" y="46.15384615384615" width="2" height="53.84615384615385" id="death-date-37"></rect></g><g><rect x="61.58181818181818" y="56.92307692307692" width="2" height="43.07692307692308" id="death-date-38"></rect></g><g><rect x="58.018181818181816" y="57.692307692307686" width="2" height="42.307692307692314" id="death-date-39"></rect></g><g><rect x="54.454545454545446" y="60.769230769230774" width="2" height="39.230769230769226" id="death-date-40"></rect></g><g><rect x="50.89090909090908" y="65.38461538461539" width="2" height="34.61538461538461" id="death-date-41"></rect></g><g><rect x="47.32727272727273" y="59.23076923076923" width="2" height="40.76923076923077" id="death-date-42"></rect></g><g><rect x="43.76363636363636" y="60" width="2" height="40" id="death-date-43"></rect></g><g><rect x="40.199999999999996" y="75.38461538461539" width="2" height="24.615384615384613" id="death-date-44"></rect></g><g><rect x="36.636363636363626" y="62.30769230769231" width="2" height="37.69230769230769" id="death-date-45"></rect></g><g><rect x="33.072727272727285" y="81.53846153846153" width="2" height="18.461538461538467" id="death-date-46"></rect></g><g><rect x="29.509090909090922" y="73.84615384615385" width="2" height="26.153846153846146" id="death-date-47"></rect></g><g><rect x="25.945454545454556" y="74.61538461538461" width="2" height="25.384615384615387" id="death-date-48"></rect></g><g><rect x="22.38181818181819" y="74.61538461538461" width="2" height="25.384615384615387" id="death-date-49"></rect></g><g><rect x="18.818181818181824" y="80" width="2" height="20" id="death-date-50"></rect></g><g><rect x="15.254545454545461" y="80" width="2" height="20" id="death-date-51"></rect></g><g><rect x="11.690909090909095" y="81.53846153846153" width="2" height="18.461538461538467" id="death-date-52"></rect></g><g><rect x="8.12727272727273" y="72.3076923076923" width="2" height="27.692307692307693" id="death-date-53"></rect></g><g><rect x="4.563636363636365" y="77.6923076923077" width="2" height="22.307692307692307" id="death-date-54"></rect></g><g><rect x="1" y="85.38461538461539" width="2" height="14.615384615384613" id="death-date-55"></rect></g></g><g class="fg-line death-date" fill="none" stroke="#92c5de" stroke-width="2" stroke-linecap="round"><path d="M198,25.82417582417582L194.43636363636364,23.62637362637362L190.87272727272727,22.087912087912088L187.30909090909088,19.01098901098901L183.74545454545455,19.12087912087912L180.1818181818182,18.681318681318682L176.61818181818182,17.25274725274726L173.05454545454546,16.7032967032967L169.49090909090907,16.373626373626383L165.92727272727274,16.92307692307692L162.36363636363637,19.780219780219777L158.8,16.043956043956044L155.23636363636365,16.263736263736263L151.6727272727273,17.14285714285715L148.1090909090909,16.153846153846153L144.54545454545453,15.494505494505495L140.9818181818182,15.934065934065933L137.41818181818184,15.934065934065933L133.85454545454544,18.681318681318682L130.29090909090908,21.098901098901102L126.72727272727273,22.967032967032974L123.16363636363636,25.604395604395613L119.6,26.593406593406588L116.03636363636363,25.494505494505493L112.47272727272728,27.802197802197803L108.90909090909089,30.76923076923077L105.34545454545456,28.68131868131869L101.78181818181817,30.87912087912088L98.21818181818183,32.857142857142854L94.65454545454546,36.48351648351649L91.09090909090911,40.54945054945055L87.52727272727273,40.76923076923077L83.96363636363637,42.74725274725275L80.4,48.791208791208796L76.83636363636364,51.318681318681314L73.27272727272727,54.065934065934066L69.70909090909092,56.043956043956044L66.14545454545454,58.021978021978015L62.58181818181818,62.1978021978022L59.018181818181816,62.967032967032964L55.454545454545446,66.37362637362637L51.89090909090908,68.24175824175825L48.32727272727273,69.56043956043956L44.76363636363636,71.75824175824175L41.199999999999996,74.61538461538461L37.636363636363626,75.27472527472527L34.072727272727285,78.02197802197803L30.509090909090922,76.7032967032967L26.945454545454556,77.25274725274724L23.38181818181819,78.79120879120879L19.818181818181824,79.56043956043956L16.25454545454546,79.78021978021978L12.690909090909095,81.42857142857143L9.12727272727273,81.64835164835165L5.563636363636365,83.51648351648352L2,84.28571428571429"></path></g></svg>