<svg about="DATA_PUBLISHED_DATE:2021-09-30,RENDER_DATE:2021-09-30" xmlns="http://www.w3.org/2000/svg" viewBox="0,0,200,100"><g transform="translate(0,0)"></g><g class="fg-bars tests-vaccines" fill="#00183f" stroke="none"><g><rect x="197" y="46.05384615384616" width="2" height="53.94615384615384" id="tests-vaccines-0"></rect></g><g><rect x="193.43636363636364" y="44.72153846153846" width="2" height="55.27846153846154" id="tests-vaccines-1"></rect></g><g><rect x="189.87272727272727" y="39.996153846153845" width="2" height="60.003846153846155" id="tests-vaccines-2"></rect></g><g><rect x="186.30909090909088" y="75.2376923076923" width="2" height="24.7623076923077" id="tests-vaccines-3"></rect></g><g><rect x="182.74545454545455" y="57.05615384615385" width="2" height="42.94384615384615" id="tests-vaccines-4"></rect></g><g><rect x="179.1818181818182" y="27.992307692307694" width="2" height="72.00769230769231" id="tests-vaccines-5"></rect></g><g><rect x="175.61818181818182" y="38.370000000000005" width="2" height="61.629999999999995" id="tests-vaccines-6"></rect></g><g><rect x="172.05454545454546" y="40.05153846153846" width="2" height="59.94846153846154" id="tests-vaccines-7"></rect></g><g><rect x="168.49090909090907" y="39.49230769230769" width="2" height="60.50769230769231" id="tests-vaccines-8"></rect></g><g><rect x="164.92727272727274" y="36.39" width="2" height="63.61" id="tests-vaccines-9"></rect></g><g><rect x="161.36363636363637" y="73.23923076923077" width="2" height="26.760769230769228" id="tests-vaccines-10"></rect></g><g><rect x="157.8" y="52.47461538461538" width="2" height="47.52538461538462" id="tests-vaccines-11"></rect></g><g><rect x="154.23636363636365" y="18.71538461538461" width="2" height="81.28461538461539" id="tests-vaccines-12"></rect></g><g><rect x="150.6727272727273" y="33.41307692307692" width="2" height="66.58692307692309" id="tests-vaccines-13"></rect></g><g><rect x="147.1090909090909" y="32.79" width="2" height="67.21000000000001" id="tests-vaccines-14"></rect></g><g><rect x="143.54545454545453" y="25.833846153846153" width="2" height="74.16615384615385" id="tests-vaccines-15"></rect></g><g><rect x="139.9818181818182" y="85.35923076923078" width="2" height="14.640769230769223" id="tests-vaccines-16"></rect></g><g><rect x="136.41818181818184" y="71.16" width="2" height="28.840000000000003" id="tests-vaccines-17"></rect></g><g><rect x="132.85454545454544" y="51.62846153846154" width="2" height="48.37153846153846" id="tests-vaccines-18"></rect></g><g><rect x="129.29090909090908" y="10.862307692307693" width="2" height="89.1376923076923" id="tests-vaccines-19"></rect></g><g><rect x="125.72727272727273" y="29.053846153846152" width="2" height="70.94615384615385" id="tests-vaccines-20"></rect></g><g><rect x="122.16363636363636" y="27.057692307692307" width="2" height="72.9423076923077" id="tests-vaccines-21"></rect></g><g><rect x="118.6" y="23.922307692307687" width="2" height="76.07769230769232" id="tests-vaccines-22"></rect></g><g><rect x="115.03636363636363" y="22.971538461538465" width="2" height="77.02846153846153" id="tests-vaccines-23"></rect></g><g><rect x="111.47272727272728" y="67.35692307692307" width="2" height="32.64307692307693" id="tests-vaccines-24"></rect></g><g><rect x="107.90909090909089" y="40.36153846153846" width="2" height="59.63846153846154" id="tests-vaccines-25"></rect></g><g><rect x="104.34545454545456" y="1.7930769230769195" width="2" height="98.20692307692308" id="tests-vaccines-26"></rect></g><g><rect x="100.78181818181817" y="20.270769230769226" width="2" height="79.72923076923078" id="tests-vaccines-27"></rect></g><g><rect x="97.21818181818183" y="21.269230769230774" width="2" height="78.73076923076923" id="tests-vaccines-28"></rect></g><g><rect x="93.65454545454546" y="18.24692307692307" width="2" height="81.75307692307693" id="tests-vaccines-29"></rect></g><g><rect x="90.09090909090911" y="18.75461538461538" width="2" height="81.24538461538462" id="tests-vaccines-30"></rect></g><g><rect x="86.52727272727273" y="67.81692307692308" width="2" height="32.183076923076925" id="tests-vaccines-31"></rect></g><g><rect x="82.96363636363637" y="41.933846153846154" width="2" height="58.066153846153846" id="tests-vaccines-32"></rect></g><g><rect x="79.4" y="2.8984615384615386" width="2" height="97.10153846153847" id="tests-vaccines-33"></rect></g><g><rect x="75.83636363636364" y="22.069230769230774" width="2" height="77.93076923076923" id="tests-vaccines-34"></rect></g><g><rect x="72.27272727272727" y="21.788461538461533" width="2" height="78.21153846153847" id="tests-vaccines-35"></rect></g><g><rect x="68.70909090909092" y="21.583076923076927" width="2" height="78.41692307692307" id="tests-vaccines-36"></rect></g><g><rect x="65.14545454545454" y="25.413846153846155" width="2" height="74.58615384615385" id="tests-vaccines-37"></rect></g><g><rect x="61.58181818181818" y="68.90384615384615" width="2" height="31.096153846153854" id="tests-vaccines-38"></rect></g><g><rect x="58.018181818181816" y="44.12461538461538" width="2" height="55.87538461538462" id="tests-vaccines-39"></rect></g><g><rect x="54.454545454545446" y="14.293846153846157" width="2" height="85.70615384615384" id="tests-vaccines-40"></rect></g><g><rect x="50.89090909090908" y="32.293846153846154" width="2" height="67.70615384615385" id="tests-vaccines-41"></rect></g><g><rect x="47.32727272727273" y="35.80461538461538" width="2" height="64.19538461538463" id="tests-vaccines-42"></rect></g><g><rect x="43.76363636363636" y="29.816923076923075" width="2" height="70.18307692307692" id="tests-vaccines-43"></rect></g><g><rect x="40.199999999999996" y="32.48" width="2" height="67.52000000000001" id="tests-vaccines-44"></rect></g><g><rect x="36.636363636363626" y="73.07846153846154" width="2" height="26.92153846153846" id="tests-vaccines-45"></rect></g><g><rect x="33.072727272727285" y="50.76461538461538" width="2" height="49.23538461538462" id="tests-vaccines-46"></rect></g><g><rect x="29.509090909090922" y="19.402307692307698" width="2" height="80.5976923076923" id="tests-vaccines-47"></rect></g><g><rect x="25.945454545454556" y="33.482307692307685" width="2" height="66.51769230769231" id="tests-vaccines-48"></rect></g><g><rect x="22.38181818181819" y="34.81307692307693" width="2" height="65.18692307692308" id="tests-vaccines-49"></rect></g><g><rect x="18.818181818181824" y="31.145384615384618" width="2" height="68.85461538461539" id="tests-vaccines-50"></rect></g><g><rect x="15.254545454545461" y="38.45307692307692" width="2" height="61.54692307692308" id="tests-vaccines-51"></rect></g><g><rect x="11.690909090909095" y="76.77615384615385" width="2" height="23.223846153846154" id="tests-vaccines-52"></rect></g><g><rect x="8.12727272727273" y="54.02076923076924" width="2" height="45.97923076923076" id="tests-vaccines-53"></rect></g><g><rect x="4.563636363636365" y="25.88538461538461" width="2" height="74.11461538461539" id="tests-vaccines-54"></rect></g><g><rect x="1" y="37.30538461538462" width="2" height="62.69461538461538" id="tests-vaccines-55"></rect></g></g><g class="fg-line tests-vaccines" fill="none" stroke="#92c5de" stroke-width="2" stroke-linecap="round"><path d="M198,47.061098901098894L194.43636363636364,46.20362637362637L190.87272727272727,45.45659340659341L187.30909090909088,44.941428571428574L183.74545454545455,44.65593406593407L180.1818181818182,44.00142857142857L176.61818181818182,42.67615384615384L173.05454545454546,41.96802197802197L169.49090909090907,40.930659340659346L165.92727272727274,38.97945054945055L162.36363636363637,45.97505494505495L158.8,45.678021978021974L155.23636363636365,45.55714285714285L151.6727272727273,44.43527472527473L148.1090909090909,43.81252747252747L144.54545454545453,42.993626373626384L140.9818181818182,42.72054945054945L137.41818181818184,33.808021978021976L133.85454545454544,33.26472527472527L130.29090909090908,31.65516483516484L126.72727272727273,30.35956043956044L123.16363636363636,29.104835164835162L119.6,28.27791208791208L116.03636363636363,27.467142857142857L112.47272727272728,26.864725274725277L108.90909090909089,26.930439560439567L105.34545454545456,27.155054945054946L101.78181818181817,27.312967032967038L98.21818181818183,27.569890109890117L94.65454545454546,27.64406593406593L91.09090909090911,28.120659340659337L87.52727272727273,29.07197802197803L83.96363636363637,29.22725274725274L80.4,29.54021978021978L76.83636363636364,31.168131868131876L73.27272727272727,32.628791208791206L69.70909090909092,34.6310989010989L66.14545454545454,35.80736263736264L62.58181818181818,36.81681318681319L59.018181818181816,37.41318681318682L55.454545454545446,38.36175824175824L51.89090909090908,39.09153846153847L48.32727272727273,39.26131868131868L44.76363636363636,39.11967032967033L41.199999999999996,39.309450549450546L37.636363636363626,40.16274725274725L34.072727272727285,40.69098901098901L30.509090909090922,41.15615384615384L26.945454545454556,42.082307692307694L23.38181818181819,42.628461538461536L19.818181818181824,42.68703296703297L16.25454545454546,43.180659340659346L12.690909090909095,44.060329670329665L9.12727272727273,44.558681318681316L5.563636363636365,44.95923076923077L2,45.45197802197802"></path></g></svg>