<svg about="DATA_PUBLISHED_DATE:2021-09-23,RENDER_DATE:2021-09-23" xmlns="http://www.w3.org/2000/svg" viewBox="0,0,200,100"><g transform="translate(0,0)"></g><g class="fg-bars cases-ep" fill="#00183f" stroke="none"><g><rect x="197" y="53.455555555555556" width="2" height="46.544444444444444" id="cases-ep-0"></rect></g><g><rect x="193.43636363636364" y="47.577777777777776" width="2" height="52.422222222222224" id="cases-ep-1"></rect></g><g><rect x="189.87272727272727" y="74.35555555555555" width="2" height="25.644444444444446" id="cases-ep-2"></rect></g><g><rect x="186.30909090909088" y="68.73333333333333" width="2" height="31.266666666666666" id="cases-ep-3"></rect></g><g><rect x="182.74545454545455" y="51.11666666666667" width="2" height="48.88333333333333" id="cases-ep-4"></rect></g><g><rect x="179.1818181818182" y="45.81666666666667" width="2" height="54.18333333333333" id="cases-ep-5"></rect></g><g><rect x="175.61818181818182" y="39.077777777777776" width="2" height="60.922222222222224" id="cases-ep-6"></rect></g><g><rect x="172.05454545454546" y="33.58888888888889" width="2" height="66.41111111111111" id="cases-ep-7"></rect></g><g><rect x="168.49090909090907" y="65.52222222222221" width="2" height="34.47777777777779" id="cases-ep-8"></rect></g><g><rect x="164.92727272727274" y="72.20555555555556" width="2" height="27.794444444444437" id="cases-ep-9"></rect></g><g><rect x="161.36363636363637" y="63.961111111111116" width="2" height="36.038888888888884" id="cases-ep-10"></rect></g><g><rect x="157.8" y="46.605555555555554" width="2" height="53.394444444444446" id="cases-ep-11"></rect></g><g><rect x="154.23636363636365" y="40.67777777777778" width="2" height="59.32222222222222" id="cases-ep-12"></rect></g><g><rect x="150.6727272727273" y="30.933333333333334" width="2" height="69.06666666666666" id="cases-ep-13"></rect></g><g><rect x="147.1090909090909" y="32.62777777777778" width="2" height="67.37222222222222" id="cases-ep-14"></rect></g><g><rect x="143.54545454545453" y="27.861111111111114" width="2" height="72.13888888888889" id="cases-ep-15"></rect></g><g><rect x="139.9818181818182" y="64.56666666666666" width="2" height="35.43333333333334" id="cases-ep-16"></rect></g><g><rect x="136.41818181818184" y="57.68888888888889" width="2" height="42.31111111111111" id="cases-ep-17"></rect></g><g><rect x="132.85454545454544" y="38.449999999999996" width="2" height="61.550000000000004" id="cases-ep-18"></rect></g><g><rect x="129.29090909090908" y="31.75" width="2" height="68.25" id="cases-ep-19"></rect></g><g><rect x="125.72727272727273" y="25.477777777777778" width="2" height="74.52222222222223" id="cases-ep-20"></rect></g><g><rect x="122.16363636363636" y="23.277777777777775" width="2" height="76.72222222222223" id="cases-ep-21"></rect></g><g><rect x="118.6" y="15.988888888888885" width="2" height="84.01111111111112" id="cases-ep-22"></rect></g><g><rect x="115.03636363636363" y="58.99444444444444" width="2" height="41.00555555555556" id="cases-ep-23"></rect></g><g><rect x="111.47272727272728" y="51.32777777777777" width="2" height="48.67222222222223" id="cases-ep-24"></rect></g><g><rect x="107.90909090909089" y="26.70555555555556" width="2" height="73.29444444444444" id="cases-ep-25"></rect></g><g><rect x="104.34545454545456" y="23.777777777777775" width="2" height="76.22222222222223" id="cases-ep-26"></rect></g><g><rect x="100.78181818181817" y="17.322222222222226" width="2" height="82.67777777777778" id="cases-ep-27"></rect></g><g><rect x="97.21818181818183" y="15.47777777777778" width="2" height="84.52222222222223" id="cases-ep-28"></rect></g><g><rect x="93.65454545454546" y="12.044444444444446" width="2" height="87.95555555555555" id="cases-ep-29"></rect></g><g><rect x="90.09090909090911" y="55.2" width="2" height="44.8" id="cases-ep-30"></rect></g><g><rect x="86.52727272727273" y="47.261111111111106" width="2" height="52.738888888888894" id="cases-ep-31"></rect></g><g><rect x="82.96363636363637" y="24.450000000000006" width="2" height="75.55" id="cases-ep-32"></rect></g><g><rect x="79.4" y="19.572222222222223" width="2" height="80.42777777777778" id="cases-ep-33"></rect></g><g><rect x="75.83636363636364" y="15.033333333333331" width="2" height="84.96666666666667" id="cases-ep-34"></rect></g><g><rect x="72.27272727272727" y="10.911111111111115" width="2" height="89.08888888888889" id="cases-ep-35"></rect></g><g><rect x="68.70909090909092" y="10.499999999999998" width="2" height="89.5" id="cases-ep-36"></rect></g><g><rect x="65.14545454545454" y="52.522222222222226" width="2" height="47.477777777777774" id="cases-ep-37"></rect></g><g><rect x="61.58181818181818" y="46.77777777777777" width="2" height="53.22222222222223" id="cases-ep-38"></rect></g><g><rect x="58.018181818181816" y="29.066666666666663" width="2" height="70.93333333333334" id="cases-ep-39"></rect></g><g><rect x="54.454545454545446" y="23.86111111111111" width="2" height="76.13888888888889" id="cases-ep-40"></rect></g><g><rect x="50.89090909090908" y="22.505555555555556" width="2" height="77.49444444444444" id="cases-ep-41"></rect></g><g><rect x="47.32727272727273" y="20.85" width="2" height="79.15" id="cases-ep-42"></rect></g><g><rect x="43.76363636363636" y="22.63333333333334" width="2" height="77.36666666666666" id="cases-ep-43"></rect></g><g><rect x="40.199999999999996" y="53.488888888888894" width="2" height="46.511111111111106" id="cases-ep-44"></rect></g><g><rect x="36.636363636363626" y="53.25555555555555" width="2" height="46.74444444444445" id="cases-ep-45"></rect></g><g><rect x="33.072727272727285" y="38.849999999999994" width="2" height="61.150000000000006" id="cases-ep-46"></rect></g><g><rect x="29.509090909090922" y="35.138888888888886" width="2" height="64.86111111111111" id="cases-ep-47"></rect></g><g><rect x="25.945454545454556" y="34.72222222222222" width="2" height="65.27777777777777" id="cases-ep-48"></rect></g><g><rect x="22.38181818181819" y="38.05555555555556" width="2" height="61.94444444444444" id="cases-ep-49"></rect></g><g><rect x="18.818181818181824" y="35.355555555555554" width="2" height="64.64444444444445" id="cases-ep-50"></rect></g><g><rect x="15.254545454545461" y="64.67777777777778" width="2" height="35.32222222222222" id="cases-ep-51"></rect></g><g><rect x="11.690909090909095" y="62.82222222222222" width="2" height="37.17777777777778" id="cases-ep-52"></rect></g><g><rect x="8.12727272727273" y="55.47222222222222" width="2" height="44.52777777777778" id="cases-ep-53"></rect></g><g><rect x="4.563636363636365" y="54.172222222222224" width="2" height="45.827777777777776" id="cases-ep-54"></rect></g><g><rect x="1" y="51.68333333333332" width="2" height="48.31666666666668" id="cases-ep-55"></rect></g></g><g class="fg-line cases-ep" fill="none" stroke="#92c5de" stroke-width="2" stroke-linecap="round"><path d="M198,54.304761904761904L194.43636363636364,51.46666666666666L190.87272727272727,54.03015873015873L187.30909090909088,53.72301587301587L183.74545454545455,53.041269841269845L180.1818181818182,52.3968253968254L176.61818181818182,51.66269841269842L173.05454545454546,50.49920634920635L169.49090909090907,50.36190476190476L165.92727272727274,44.98174603174604L162.36363636363637,43.89047619047619L158.8,42.99444444444445L155.23636363636365,41.829365079365076L151.6727272727273,40.55396825396825L148.1090909090909,39.77460317460317L144.54545454545453,38.43888888888889L140.9818181818182,36.74285714285715L137.41818181818184,35.94682539682539L133.85454545454544,35.03809523809524L130.29090909090908,33.360317460317454L126.72727272727273,32.22142857142857L123.16363636363636,31.05634920634921L119.6,29.942063492063497L116.03636363636363,29.378571428571433L112.47272727272728,28.83650793650794L108.90909090909089,28.255555555555556L105.34545454545456,27.933333333333334L101.78181818181817,27.332539682539682L98.21818181818183,27.00555555555556L94.65454545454546,26.35317460317461L91.09090909090911,26.13253968253968L87.52727272727273,25.749999999999996L83.96363636363637,25.680952380952384L80.4,26.340476190476192L76.83636363636364,26.953174603174613L73.27272727272727,28.020634920634922L69.70909090909092,29.440476190476183L66.14545454545454,31.173809523809524L62.58181818181818,31.311904761904763L59.018181818181816,32.237301587301594L55.454545454545446,33.634920634920626L51.89090909090908,35.24603174603175L48.32727272727273,36.99126984126983L44.76363636363636,39.44920634920636L41.199999999999996,41.266666666666666L37.636363636363626,42.865079365079374L34.072727272727285,44.231746031746034L30.509090909090922,46.60634920634921L26.945454545454556,49.32539682539683L23.38181818181819,51.74841269841271L19.818181818181824,54.03809523809524L16.25454545454546,56.67857142857142L12.690909090909095,57.965873015873015L9.12727272727273,59.60714285714286L5.563636363636365,61.26984126984127L2,63.2063492063492"></path></g></svg>