<svg meta="{&quot;DATA_PUBLISHED_DATE&quot;:&quot;2022-09-15&quot;,&quot;RENDER_DATE&quot;:&quot;2022-09-15&quot;,&quot;FIRST_DATE&quot;:&quot;2022-07-13&quot;,&quot;LAST_DATE&quot;:&quot;2022-09-06&quot;}" xmlns="http://www.w3.org/2000/svg" viewBox="0,0,200,100"><g transform="translate(0,0)"></g><g class="fg-bars cases-ep" fill="#00183f" stroke="none"><g><rect x="197" y="69.6375" width="2" height="30.362499999999997" id="cases-ep-0"></rect></g><g><rect x="193.43636363636364" y="88.375" width="2" height="11.625" id="cases-ep-1"></rect></g><g><rect x="189.87272727272727" y="88.02499999999999" width="2" height="11.975000000000009" id="cases-ep-2"></rect></g><g><rect x="186.30909090909088" y="86.16666666666667" width="2" height="13.833333333333329" id="cases-ep-3"></rect></g><g><rect x="182.74545454545455" y="78.60833333333333" width="2" height="21.391666666666666" id="cases-ep-4"></rect></g><g><rect x="179.1818181818182" y="75.425" width="2" height="24.575000000000003" id="cases-ep-5"></rect></g><g><rect x="175.61818181818182" y="72.17916666666666" width="2" height="27.82083333333334" id="cases-ep-6"></rect></g><g><rect x="172.05454545454546" y="68.61666666666666" width="2" height="31.38333333333334" id="cases-ep-7"></rect></g><g><rect x="168.49090909090907" y="63.324999999999996" width="2" height="36.675000000000004" id="cases-ep-8"></rect></g><g><rect x="164.92727272727274" y="81.92083333333333" width="2" height="18.079166666666666" id="cases-ep-9"></rect></g><g><rect x="161.36363636363637" y="80.175" width="2" height="19.825000000000003" id="cases-ep-10"></rect></g><g><rect x="157.8" y="69.75" width="2" height="30.25" id="cases-ep-11"></rect></g><g><rect x="154.23636363636365" y="68.54583333333333" width="2" height="31.454166666666666" id="cases-ep-12"></rect></g><g><rect x="150.6727272727273" y="64.95416666666667" width="2" height="35.045833333333334" id="cases-ep-13"></rect></g><g><rect x="147.1090909090909" y="60.616666666666674" width="2" height="39.383333333333326" id="cases-ep-14"></rect></g><g><rect x="143.54545454545453" y="54.58333333333334" width="2" height="45.41666666666666" id="cases-ep-15"></rect></g><g><rect x="139.9818181818182" y="77.95833333333333" width="2" height="22.04166666666667" id="cases-ep-16"></rect></g><g><rect x="136.41818181818184" y="75.23333333333333" width="2" height="24.766666666666666" id="cases-ep-17"></rect></g><g><rect x="132.85454545454544" y="65.29166666666666" width="2" height="34.70833333333334" id="cases-ep-18"></rect></g><g><rect x="129.29090909090908" y="62.55833333333334" width="2" height="37.44166666666666" id="cases-ep-19"></rect></g><g><rect x="125.72727272727273" y="59.50416666666667" width="2" height="40.49583333333333" id="cases-ep-20"></rect></g><g><rect x="122.16363636363636" y="54.925000000000004" width="2" height="45.074999999999996" id="cases-ep-21"></rect></g><g><rect x="118.6" y="50.670833333333334" width="2" height="49.329166666666666" id="cases-ep-22"></rect></g><g><rect x="115.03636363636363" y="74.73333333333333" width="2" height="25.266666666666666" id="cases-ep-23"></rect></g><g><rect x="111.47272727272728" y="72.86666666666667" width="2" height="27.133333333333326" id="cases-ep-24"></rect></g><g><rect x="107.90909090909089" y="60.4375" width="2" height="39.5625" id="cases-ep-25"></rect></g><g><rect x="104.34545454545456" y="57.3125" width="2" height="42.6875" id="cases-ep-26"></rect></g><g><rect x="100.78181818181817" y="53.15833333333333" width="2" height="46.84166666666667" id="cases-ep-27"></rect></g><g><rect x="97.21818181818183" y="49.15416666666667" width="2" height="50.84583333333333" id="cases-ep-28"></rect></g><g><rect x="93.65454545454546" y="39.787499999999994" width="2" height="60.212500000000006" id="cases-ep-29"></rect></g><g><rect x="90.09090909090911" y="70.42916666666666" width="2" height="29.57083333333334" id="cases-ep-30"></rect></g><g><rect x="86.52727272727273" y="67" width="2" height="33" id="cases-ep-31"></rect></g><g><rect x="82.96363636363637" y="51.6625" width="2" height="48.3375" id="cases-ep-32"></rect></g><g><rect x="79.4" y="49.09166666666667" width="2" height="50.90833333333333" id="cases-ep-33"></rect></g><g><rect x="75.83636363636364" y="43.07083333333333" width="2" height="56.92916666666667" id="cases-ep-34"></rect></g><g><rect x="72.27272727272727" y="36.5" width="2" height="63.5" id="cases-ep-35"></rect></g><g><rect x="68.70909090909092" y="27.6" width="2" height="72.4" id="cases-ep-36"></rect></g><g><rect x="65.14545454545454" y="66.18333333333332" width="2" height="33.81666666666668" id="cases-ep-37"></rect></g><g><rect x="61.58181818181818" y="61.6" width="2" height="38.4" id="cases-ep-38"></rect></g><g><rect x="58.018181818181816" y="42.425000000000004" width="2" height="57.574999999999996" id="cases-ep-39"></rect></g><g><rect x="54.454545454545446" y="37.612500000000004" width="2" height="62.387499999999996" id="cases-ep-40"></rect></g><g><rect x="50.89090909090908" y="30.866666666666664" width="2" height="69.13333333333334" id="cases-ep-41"></rect></g><g><rect x="47.32727272727273" y="22.750000000000004" width="2" height="77.25" id="cases-ep-42"></rect></g><g><rect x="43.76363636363636" y="11.658333333333337" width="2" height="88.34166666666667" id="cases-ep-43"></rect></g><g><rect x="40.199999999999996" y="59.020833333333336" width="2" height="40.979166666666664" id="cases-ep-44"></rect></g><g><rect x="36.636363636363626" y="53.04583333333333" width="2" height="46.95416666666667" id="cases-ep-45"></rect></g><g><rect x="33.072727272727285" y="28.829166666666662" width="2" height="71.17083333333333" id="cases-ep-46"></rect></g><g><rect x="29.509090909090922" y="26.675000000000004" width="2" height="73.32499999999999" id="cases-ep-47"></rect></g><g><rect x="25.945454545454556" y="19.329166666666666" width="2" height="80.67083333333333" id="cases-ep-48"></rect></g><g><rect x="22.38181818181819" y="12.291666666666668" width="2" height="87.70833333333333" id="cases-ep-49"></rect></g><g><rect x="18.818181818181824" y="2.6291666666666713" width="2" height="97.37083333333332" id="cases-ep-50"></rect></g><g><rect x="15.254545454545461" y="54.362500000000004" width="2" height="45.637499999999996" id="cases-ep-51"></rect></g><g><rect x="11.690909090909095" y="46.46666666666667" width="2" height="53.53333333333333" id="cases-ep-52"></rect></g><g><rect x="8.12727272727273" y="21.87916666666667" width="2" height="78.12083333333334" id="cases-ep-53"></rect></g><g><rect x="4.563636363636365" y="17.391666666666673" width="2" height="82.60833333333332" id="cases-ep-54"></rect></g><g><rect x="1" y="11.96666666666667" width="2" height="88.03333333333333" id="cases-ep-55"></rect></g></g><g class="fg-line cases-ep" fill="none" stroke="#92c5de" stroke-width="2" stroke-linecap="round"><path d="M198,79.77380952380952L194.43636363636364,79.62797619047619L190.87272727272727,76.04940476190475L187.30909090909088,75.17738095238096L183.74545454545455,74.32142857142857L180.1818181818182,73.05595238095238L176.61818181818182,72.0732142857143L173.05454545454546,71.04107142857143L169.49090909090907,69.89821428571427L165.92727272727274,68.64940476190476L162.36363636363637,68.08333333333334L158.8,67.37738095238095L155.23636363636365,66.74047619047619L151.6727272727273,65.88511904761904L148.1090909090909,65.10654761904762L144.54545454545453,64.29345238095237L140.9818181818182,63.7345238095238L137.41818181818184,63.27380952380952L133.85454545454544,62.9357142857143L130.29090909090908,62.2422619047619L126.72727272727273,61.49285714285714L123.16363636363636,60.586309523809526L119.6,59.76190476190476L116.03636363636363,58.207142857142856L112.47272727272728,57.5922619047619L108.90909090909089,56.75416666666666L105.34545454545456,55.50059523809523L101.78181818181817,54.326190476190476L98.21818181818183,52.88511904761904L94.65454545454546,51.077380952380956L91.09090909090911,49.33630952380953L87.52727272727273,48.7297619047619L83.96363636363637,47.958333333333336L80.4,46.63869047619047L76.83636363636364,44.99880952380953L73.27272727272727,43.25535714285714L69.70909090909092,41.29107142857143L66.14545454545454,39.013690476190476L62.58181818181818,37.990476190476194L59.018181818181816,36.768452380952375L55.454545454545446,34.826190476190476L51.89090909090908,33.263690476190476L48.32727272727273,31.615476190476187L44.76363636363636,30.121428571428577L41.199999999999996,28.831547619047615L37.636363636363626,28.166071428571428L34.072727272727285,27.22619047619047L30.509090909090922,26.23333333333333L26.945454545454556,24.907142857142862L23.38181818181819,23.855357142857137L19.818181818181824,23.104761904761904L16.25454545454546,22.520833333333336L12.690909090909095,22.130357142857136L9.12727272727273,21.822619047619053L5.563636363636365,21.03154761904762L2,20.29940476190476"></path></g></svg>