<svg meta="{&quot;DATA_PUBLISHED_DATE&quot;:&quot;2022-07-15&quot;,&quot;RENDER_DATE&quot;:&quot;2022-07-15&quot;,&quot;FIRST_DATE&quot;:&quot;2022-05-12&quot;,&quot;LAST_DATE&quot;:&quot;2022-07-06&quot;}" xmlns="http://www.w3.org/2000/svg" viewBox="0,0,200,100"><g transform="translate(0,0)"></g><g class="fg-bars cases-ep" fill="#00183f" stroke="none"><g><rect x="197" y="21.517857142857146" width="2" height="78.48214285714286" id="cases-ep-0"></rect></g><g><rect x="193.43636363636364" y="6.960714285714287" width="2" height="93.03928571428571" id="cases-ep-1"></rect></g><g><rect x="189.87272727272727" y="69.15357142857144" width="2" height="30.84642857142856" id="cases-ep-2"></rect></g><g><rect x="186.30909090909088" y="67.81428571428572" width="2" height="32.18571428571428" id="cases-ep-3"></rect></g><g><rect x="182.74545454545455" y="61.614285714285714" width="2" height="38.385714285714286" id="cases-ep-4"></rect></g><g><rect x="179.1818181818182" y="38.21785714285715" width="2" height="61.78214285714285" id="cases-ep-5"></rect></g><g><rect x="175.61818181818182" y="36.49285714285714" width="2" height="63.50714285714286" id="cases-ep-6"></rect></g><g><rect x="172.05454545454546" y="30.714285714285715" width="2" height="69.28571428571428" id="cases-ep-7"></rect></g><g><rect x="168.49090909090907" y="26.08571428571429" width="2" height="73.91428571428571" id="cases-ep-8"></rect></g><g><rect x="164.92727272727274" y="20.48928571428571" width="2" height="79.51071428571429" id="cases-ep-9"></rect></g><g><rect x="161.36363636363637" y="62.10714285714285" width="2" height="37.89285714285715" id="cases-ep-10"></rect></g><g><rect x="157.8" y="59.02857142857143" width="2" height="40.97142857142857" id="cases-ep-11"></rect></g><g><rect x="154.23636363636365" y="42.167857142857144" width="2" height="57.832142857142856" id="cases-ep-12"></rect></g><g><rect x="150.6727272727273" y="39.167857142857144" width="2" height="60.832142857142856" id="cases-ep-13"></rect></g><g><rect x="147.1090909090909" y="36.76428571428572" width="2" height="63.23571428571428" id="cases-ep-14"></rect></g><g><rect x="143.54545454545453" y="30.953571428571426" width="2" height="69.04642857142858" id="cases-ep-15"></rect></g><g><rect x="139.9818181818182" y="35.49285714285715" width="2" height="64.50714285714285" id="cases-ep-16"></rect></g><g><rect x="136.41818181818184" y="67.03571428571429" width="2" height="32.96428571428571" id="cases-ep-17"></rect></g><g><rect x="132.85454545454544" y="63.32857142857142" width="2" height="36.67142857142858" id="cases-ep-18"></rect></g><g><rect x="129.29090909090908" y="47.11785714285715" width="2" height="52.88214285714285" id="cases-ep-19"></rect></g><g><rect x="125.72727272727273" y="45.778571428571425" width="2" height="54.221428571428575" id="cases-ep-20"></rect></g><g><rect x="122.16363636363636" y="41.97142857142857" width="2" height="58.02857142857143" id="cases-ep-21"></rect></g><g><rect x="118.6" y="40.05357142857143" width="2" height="59.94642857142857" id="cases-ep-22"></rect></g><g><rect x="115.03636363636363" y="34.175" width="2" height="65.825" id="cases-ep-23"></rect></g><g><rect x="111.47272727272728" y="68.2357142857143" width="2" height="31.764285714285705" id="cases-ep-24"></rect></g><g><rect x="107.90909090909089" y="64.78928571428571" width="2" height="35.21071428571429" id="cases-ep-25"></rect></g><g><rect x="104.34545454545456" y="44.996428571428574" width="2" height="55.003571428571426" id="cases-ep-26"></rect></g><g><rect x="100.78181818181817" y="43.50000000000001" width="2" height="56.49999999999999" id="cases-ep-27"></rect></g><g><rect x="97.21818181818183" y="36.925" width="2" height="63.075" id="cases-ep-28"></rect></g><g><rect x="93.65454545454546" y="33.04285714285714" width="2" height="66.95714285714286" id="cases-ep-29"></rect></g><g><rect x="90.09090909090911" y="25.4" width="2" height="74.6" id="cases-ep-30"></rect></g><g><rect x="86.52727272727273" y="65.74642857142857" width="2" height="34.25357142857143" id="cases-ep-31"></rect></g><g><rect x="82.96363636363637" y="62.20357142857142" width="2" height="37.79642857142858" id="cases-ep-32"></rect></g><g><rect x="79.4" y="41.66428571428571" width="2" height="58.33571428571429" id="cases-ep-33"></rect></g><g><rect x="75.83636363636364" y="35.78928571428571" width="2" height="64.21071428571429" id="cases-ep-34"></rect></g><g><rect x="72.27272727272727" y="26.289285714285715" width="2" height="73.71071428571429" id="cases-ep-35"></rect></g><g><rect x="68.70909090909092" y="14.67857142857143" width="2" height="85.32142857142857" id="cases-ep-36"></rect></g><g><rect x="65.14545454545454" y="69.25357142857142" width="2" height="30.74642857142858" id="cases-ep-37"></rect></g><g><rect x="61.58181818181818" y="71.87857142857143" width="2" height="28.121428571428567" id="cases-ep-38"></rect></g><g><rect x="58.018181818181816" y="68.36071428571428" width="2" height="31.63928571428572" id="cases-ep-39"></rect></g><g><rect x="54.454545454545446" y="49.4" width="2" height="50.6" id="cases-ep-40"></rect></g><g><rect x="50.89090909090908" y="44.607142857142854" width="2" height="55.392857142857146" id="cases-ep-41"></rect></g><g><rect x="47.32727272727273" y="38.88214285714285" width="2" height="61.11785714285715" id="cases-ep-42"></rect></g><g><rect x="43.76363636363636" y="35.16785714285714" width="2" height="64.83214285714286" id="cases-ep-43"></rect></g><g><rect x="40.199999999999996" y="30.453571428571426" width="2" height="69.54642857142858" id="cases-ep-44"></rect></g><g><rect x="36.636363636363626" y="68.97142857142858" width="2" height="31.028571428571425" id="cases-ep-45"></rect></g><g><rect x="33.072727272727285" y="67.93571428571428" width="2" height="32.06428571428572" id="cases-ep-46"></rect></g><g><rect x="29.509090909090922" y="50.167857142857144" width="2" height="49.832142857142856" id="cases-ep-47"></rect></g><g><rect x="25.945454545454556" y="47.67142857142858" width="2" height="52.32857142857142" id="cases-ep-48"></rect></g><g><rect x="22.38181818181819" y="43.675" width="2" height="56.325" id="cases-ep-49"></rect></g><g><rect x="18.818181818181824" y="42.13214285714286" width="2" height="57.86785714285714" id="cases-ep-50"></rect></g><g><rect x="15.254545454545461" y="38.02857142857143" width="2" height="61.97142857142857" id="cases-ep-51"></rect></g><g><rect x="11.690909090909095" y="71.81785714285715" width="2" height="28.18214285714285" id="cases-ep-52"></rect></g><g><rect x="8.12727272727273" y="71.37857142857142" width="2" height="28.62142857142858" id="cases-ep-53"></rect></g><g><rect x="4.563636363636365" y="59.07857142857142" width="2" height="40.92142857142858" id="cases-ep-54"></rect></g><g><rect x="1" y="58.81785714285714" width="2" height="41.18214285714286" id="cases-ep-55"></rect></g></g><g class="fg-line cases-ep" fill="none" stroke="#92c5de" stroke-width="2" stroke-linecap="round"><path d="M198,43.11020408163265L194.43636363636364,44.42397959183674L190.87272727272727,47.1561224489796L187.30909090909088,40.204081632653065L183.74545454545455,39.38877551020408L180.1818181818182,39.019387755102045L176.61818181818182,39.58367346938776L173.05454545454546,39.965816326530614L169.49090909090907,40.83010204081633L165.92727272727274,41.52551020408163L162.36363636363637,43.6688775510204L158.8,44.372959183673466L155.23636363636365,44.98724489795918L151.6727272727273,45.69438775510204L148.1090909090909,46.63877551020408L144.54545454545453,47.38265306122449L140.9818181818182,48.68265306122449L137.41818181818184,48.49438775510204L133.85454545454544,48.66581632653061L130.29090909090908,48.874489795918365L126.72727272727273,48.57142857142858L123.16363636363636,48.24591836734694L119.6,47.52499999999999L116.03636363636363,46.5234693877551L112.47272727272728,45.26989795918368L108.90909090909089,44.91428571428572L105.34545454545456,44.54489795918367L101.78181818181817,44.0688775510204L98.21818181818183,42.967346938775506L94.65454545454546,41.447959183673476L91.09090909090911,38.82448979591836L87.52727272727273,45.08928571428571L83.96363636363637,45.96530612244898L80.4,46.844897959183676L76.83636363636364,47.95L73.27272727272727,49.20969387755102L69.70909090909092,51.00867346938776L66.14545454545454,53.93571428571428L62.58181818181818,48.39285714285714L59.018181818181816,47.97755102040816L55.454545454545446,47.91683673469388L51.89090909090908,48.0265306122449L48.32727272727273,48.464285714285715L44.76363636363636,49.14897959183674L41.199999999999996,50.14387755102041L37.636363636363626,51.226020408163265L34.072727272727285,51.63265306122449L30.509090909090922,52.12448979591837L26.945454545454556,53.397448979591836L23.38181818181819,54.98979591836735L19.818181818181824,56.95255102040817L16.25454545454546,59.10408163265306L12.690909090909095,61.40051020408164L9.12727272727273,62.32397959183673L5.563636363636365,63.19897959183673L2,64.49540816326531"></path></g></svg>