<svg meta="{&quot;DATA_PUBLISHED_DATE&quot;:&quot;2022-02-11&quot;,&quot;RENDER_DATE&quot;:&quot;2022-02-12&quot;,&quot;FIRST_DATE&quot;:&quot;2021-12-10&quot;,&quot;LAST_DATE&quot;:&quot;2022-02-03&quot;}" xmlns="http://www.w3.org/2000/svg" viewBox="0,0,200,100"><g transform="translate(0,0)"></g><g class="fg-bars tests-vaccines" fill="#00183f" stroke="none"><g><rect x="197" y="69.846" width="2" height="30.153999999999996" id="tests-vaccines-0"></rect></g><g><rect x="193.43636363636364" y="68.83366666666666" width="2" height="31.16633333333334" id="tests-vaccines-1"></rect></g><g><rect x="189.87272727272727" y="68.14899999999999" width="2" height="31.851000000000013" id="tests-vaccines-2"></rect></g><g><rect x="186.30909090909088" y="64.873" width="2" height="35.126999999999995" id="tests-vaccines-3"></rect></g><g><rect x="182.74545454545455" y="87.79933333333332" width="2" height="12.200666666666677" id="tests-vaccines-4"></rect></g><g><rect x="179.1818181818182" y="71.242" width="2" height="28.757999999999996" id="tests-vaccines-5"></rect></g><g><rect x="175.61818181818182" y="46.33566666666666" width="2" height="53.66433333333334" id="tests-vaccines-6"></rect></g><g><rect x="172.05454545454546" y="57.48933333333333" width="2" height="42.51066666666667" id="tests-vaccines-7"></rect></g><g><rect x="168.49090909090907" y="57.369" width="2" height="42.631" id="tests-vaccines-8"></rect></g><g><rect x="164.92727272727274" y="56.86533333333333" width="2" height="43.13466666666667" id="tests-vaccines-9"></rect></g><g><rect x="161.36363636363637" y="57.01700000000001" width="2" height="42.98299999999999" id="tests-vaccines-10"></rect></g><g><rect x="157.8" y="85.72866666666667" width="2" height="14.271333333333331" id="tests-vaccines-11"></rect></g><g><rect x="154.23636363636365" y="69.58166666666668" width="2" height="30.418333333333322" id="tests-vaccines-12"></rect></g><g><rect x="150.6727272727273" y="40.57633333333334" width="2" height="59.42366666666666" id="tests-vaccines-13"></rect></g><g><rect x="147.1090909090909" y="49.385999999999996" width="2" height="50.614000000000004" id="tests-vaccines-14"></rect></g><g><rect x="143.54545454545453" y="47.09266666666667" width="2" height="52.90733333333333" id="tests-vaccines-15"></rect></g><g><rect x="139.9818181818182" y="46.267" width="2" height="53.733" id="tests-vaccines-16"></rect></g><g><rect x="136.41818181818184" y="54.42133333333333" width="2" height="45.57866666666667" id="tests-vaccines-17"></rect></g><g><rect x="132.85454545454544" y="82.177" width="2" height="17.822999999999993" id="tests-vaccines-18"></rect></g><g><rect x="129.29090909090908" y="62.044" width="2" height="37.956" id="tests-vaccines-19"></rect></g><g><rect x="125.72727272727273" y="25.927" width="2" height="74.07300000000001" id="tests-vaccines-20"></rect></g><g><rect x="122.16363636363636" y="36.687000000000005" width="2" height="63.312999999999995" id="tests-vaccines-21"></rect></g><g><rect x="118.6" y="34.467999999999996" width="2" height="65.53200000000001" id="tests-vaccines-22"></rect></g><g><rect x="115.03636363636363" y="33.09166666666666" width="2" height="66.90833333333333" id="tests-vaccines-23"></rect></g><g><rect x="111.47272727272728" y="37.13533333333333" width="2" height="62.86466666666667" id="tests-vaccines-24"></rect></g><g><rect x="107.90909090909089" y="78.78133333333334" width="2" height="21.218666666666664" id="tests-vaccines-25"></rect></g><g><rect x="104.34545454545456" y="50.401666666666664" width="2" height="49.598333333333336" id="tests-vaccines-26"></rect></g><g><rect x="100.78181818181817" y="10.540000000000004" width="2" height="89.46" id="tests-vaccines-27"></rect></g><g><rect x="97.21818181818183" y="22.794333333333338" width="2" height="77.20566666666666" id="tests-vaccines-28"></rect></g><g><rect x="93.65454545454546" y="25.771999999999995" width="2" height="74.22800000000001" id="tests-vaccines-29"></rect></g><g><rect x="90.09090909090911" y="27.176999999999996" width="2" height="72.82300000000001" id="tests-vaccines-30"></rect></g><g><rect x="86.52727272727273" y="32.88266666666667" width="2" height="67.11733333333333" id="tests-vaccines-31"></rect></g><g><rect x="82.96363636363637" y="81.99633333333334" width="2" height="18.00366666666666" id="tests-vaccines-32"></rect></g><g><rect x="79.4" y="97.336" width="2" height="2.6640000000000015" id="tests-vaccines-33"></rect></g><g><rect x="75.83636363636364" y="74.44633333333333" width="2" height="25.553666666666672" id="tests-vaccines-34"></rect></g><g><rect x="72.27272727272727" y="24.77466666666667" width="2" height="75.22533333333334" id="tests-vaccines-35"></rect></g><g><rect x="68.70909090909092" y="19.123999999999995" width="2" height="80.876" id="tests-vaccines-36"></rect></g><g><rect x="65.14545454545454" y="18.993000000000006" width="2" height="81.00699999999999" id="tests-vaccines-37"></rect></g><g><rect x="61.58181818181818" y="29.068000000000005" width="2" height="70.93199999999999" id="tests-vaccines-38"></rect></g><g><rect x="58.018181818181816" y="81.28866666666667" width="2" height="18.71133333333333" id="tests-vaccines-39"></rect></g><g><rect x="54.454545454545446" y="99.688" width="2" height="0.3119999999999976" id="tests-vaccines-40"></rect></g><g><rect x="50.89090909090908" y="84.662" width="2" height="15.337999999999994" id="tests-vaccines-41"></rect></g><g><rect x="47.32727272727273" y="26.98933333333333" width="2" height="73.01066666666667" id="tests-vaccines-42"></rect></g><g><rect x="43.76363636363636" y="13.912999999999997" width="2" height="86.087" id="tests-vaccines-43"></rect></g><g><rect x="40.199999999999996" y="11.326000000000002" width="2" height="88.67399999999999" id="tests-vaccines-44"></rect></g><g><rect x="36.636363636363626" y="17.288999999999998" width="2" height="82.711" id="tests-vaccines-45"></rect></g><g><rect x="33.072727272727285" y="75.66833333333334" width="2" height="24.331666666666663" id="tests-vaccines-46"></rect></g><g><rect x="29.509090909090922" y="51.825666666666656" width="2" height="48.174333333333344" id="tests-vaccines-47"></rect></g><g><rect x="25.945454545454556" y="12.409000000000002" width="2" height="87.591" id="tests-vaccines-48"></rect></g><g><rect x="22.38181818181819" y="23.29233333333334" width="2" height="76.70766666666665" id="tests-vaccines-49"></rect></g><g><rect x="18.818181818181824" y="21.315666666666665" width="2" height="78.68433333333334" id="tests-vaccines-50"></rect></g><g><rect x="15.254545454545461" y="23.46733333333333" width="2" height="76.53266666666667" id="tests-vaccines-51"></rect></g><g><rect x="11.690909090909095" y="26.912333333333336" width="2" height="73.08766666666666" id="tests-vaccines-52"></rect></g><g><rect x="8.12727272727273" y="76.01966666666667" width="2" height="23.980333333333334" id="tests-vaccines-53"></rect></g><g><rect x="4.563636363636365" y="45.82633333333334" width="2" height="54.17366666666666" id="tests-vaccines-54"></rect></g><g><rect x="1" y="5.136666666666667" width="2" height="94.86333333333333" id="tests-vaccines-55"></rect></g></g><g class="fg-line tests-vaccines" fill="none" stroke="#92c5de" stroke-width="2" stroke-linecap="round"><path d="M198,68.15409523809524L194.43636363636364,66.38885714285713L190.87272727272727,64.75104761904763L187.30909090909088,63.139095238095244L183.74545454545455,62.01680952380953L180.1818181818182,61.721000000000004L176.61818181818182,61.48380952380952L173.05454545454546,60.66104761904762L169.49090909090907,59.503428571428564L165.92727272727274,58.03538095238095L162.36363636363637,56.52133333333333L158.8,56.15052380952381L155.23636363636365,55.643142857142855L151.6727272727273,54.56633333333334L148.1090909090909,52.47357142857143L144.54545454545453,50.65942857142858L140.9818181818182,48.85590476190477L137.41818181818184,46.97371428571429L133.85454545454544,44.50428571428571L130.29090909090908,44.019190476190474L126.72727272727273,42.356L123.16363636363636,40.15785714285715L119.6,38.17319047619048L116.03636363636363,36.930904761904756L112.47272727272728,36.08595238095238L108.90909090909089,35.478428571428566L105.34545454545456,35.93771428571429L101.78181818181817,42.64261904761904L98.21818181818183,51.77209523809524L94.65454545454546,52.05500000000001L91.09090909090911,51.105285714285706L87.52727272727273,49.93614285714286L83.96363636363637,49.391190476190474L80.4,49.29009523809523L76.83636363636364,49.62609523809524L73.27272727272727,51.085476190476186L69.70909090909092,51.401857142857146L66.14545454545454,50.65742857142857L62.58181818181818,49.56214285714285L59.018181818181816,47.879428571428576L55.454545454545446,47.076523809523806L51.89090909090908,40.23904761904762L48.32727272727273,29.91719047619047L44.76363636363636,29.389047619047627L41.199999999999996,30.446571428571435L37.636363636363626,32.18104761904762L34.072727272727285,33.55580952380952L30.509090909090922,33.606L26.945454545454556,32.74895238095238L23.38181818181819,31.71004761904762L19.818181818181824,30.484333333333336L16.25454545454546,29.135380952380952L12.690909090909095,27.522000000000002L9.12727272727273,26.317999999999998L5.563636363636365,25.728714285714293L2,24.642142857142858"></path></g></svg>