<svg meta="{&quot;DATA_PUBLISHED_DATE&quot;:&quot;2023-02-02&quot;,&quot;RENDER_DATE&quot;:&quot;2023-02-09&quot;,&quot;FIRST_DATE&quot;:&quot;2022-12-01&quot;,&quot;LAST_DATE&quot;:&quot;2023-01-25&quot;}" xmlns="http://www.w3.org/2000/svg" viewBox="0,0,200,100"><g transform="translate(0,0)"></g><g class="fg-bars tests-vaccines" fill="#00183f" stroke="none"><g><rect x="197" y="76.58" width="2" height="23.42" id="tests-vaccines-0"></rect></g><g><rect x="193.43636363636364" y="77.58375" width="2" height="22.416250000000005" id="tests-vaccines-1"></rect></g><g><rect x="189.87272727272727" y="77.62125" width="2" height="22.378749999999997" id="tests-vaccines-2"></rect></g><g><rect x="186.30909090909088" y="94.65125" width="2" height="5.3487499999999955" id="tests-vaccines-3"></rect></g><g><rect x="182.74545454545455" y="87.90249999999999" width="2" height="12.09750000000001" id="tests-vaccines-4"></rect></g><g><rect x="179.1818181818182" y="68.5875" width="2" height="31.412499999999994" id="tests-vaccines-5"></rect></g><g><rect x="175.61818181818182" y="72.86625" width="2" height="27.133750000000006" id="tests-vaccines-6"></rect></g><g><rect x="172.05454545454546" y="72.11000000000001" width="2" height="27.889999999999986" id="tests-vaccines-7"></rect></g><g><rect x="168.49090909090907" y="70.41" width="2" height="29.590000000000003" id="tests-vaccines-8"></rect></g><g><rect x="164.92727272727274" y="84.7275" width="2" height="15.272499999999994" id="tests-vaccines-9"></rect></g><g><rect x="161.36363636363637" y="90.80875" width="2" height="9.191249999999997" id="tests-vaccines-10"></rect></g><g><rect x="157.8" y="82.79875" width="2" height="17.20125" id="tests-vaccines-11"></rect></g><g><rect x="154.23636363636365" y="56.743750000000006" width="2" height="43.256249999999994" id="tests-vaccines-12"></rect></g><g><rect x="150.6727272727273" y="64.0925" width="2" height="35.9075" id="tests-vaccines-13"></rect></g><g><rect x="147.1090909090909" y="64.64375" width="2" height="35.35625" id="tests-vaccines-14"></rect></g><g><rect x="143.54545454545453" y="67.9425" width="2" height="32.057500000000005" id="tests-vaccines-15"></rect></g><g><rect x="139.9818181818182" y="63.55375" width="2" height="36.44625" id="tests-vaccines-16"></rect></g><g><rect x="136.41818181818184" y="88.3975" width="2" height="11.602500000000006" id="tests-vaccines-17"></rect></g><g><rect x="132.85454545454544" y="75.38625" width="2" height="24.613749999999996" id="tests-vaccines-18"></rect></g><g><rect x="129.29090909090908" y="43.60874999999999" width="2" height="56.39125000000001" id="tests-vaccines-19"></rect></g><g><rect x="125.72727272727273" y="58.26125" width="2" height="41.73875" id="tests-vaccines-20"></rect></g><g><rect x="122.16363636363636" y="57.272499999999994" width="2" height="42.727500000000006" id="tests-vaccines-21"></rect></g><g><rect x="118.6" y="49.40624999999999" width="2" height="50.59375000000001" id="tests-vaccines-22"></rect></g><g><rect x="115.03636363636363" y="81.7925" width="2" height="18.207499999999996" id="tests-vaccines-23"></rect></g><g><rect x="111.47272727272728" y="98.95875" width="2" height="1.0412500000000051" id="tests-vaccines-24"></rect></g><g><rect x="107.90909090909089" y="88.46625" width="2" height="11.533749999999998" id="tests-vaccines-25"></rect></g><g><rect x="104.34545454545456" y="47.502500000000005" width="2" height="52.497499999999995" id="tests-vaccines-26"></rect></g><g><rect x="100.78181818181817" y="44.8" width="2" height="55.2" id="tests-vaccines-27"></rect></g><g><rect x="97.21818181818183" y="43.135" width="2" height="56.865" id="tests-vaccines-28"></rect></g><g><rect x="93.65454545454546" y="39.349999999999994" width="2" height="60.650000000000006" id="tests-vaccines-29"></rect></g><g><rect x="90.09090909090911" y="80.2225" width="2" height="19.777500000000003" id="tests-vaccines-30"></rect></g><g><rect x="86.52727272727273" y="99.715" width="2" height="0.2849999999999966" id="tests-vaccines-31"></rect></g><g><rect x="82.96363636363637" y="91.89625" width="2" height="8.103750000000005" id="tests-vaccines-32"></rect></g><g><rect x="79.4" y="50.7725" width="2" height="49.2275" id="tests-vaccines-33"></rect></g><g><rect x="75.83636363636364" y="44.4175" width="2" height="55.5825" id="tests-vaccines-34"></rect></g><g><rect x="72.27272727272727" y="38.347500000000004" width="2" height="61.652499999999996" id="tests-vaccines-35"></rect></g><g><rect x="68.70909090909092" y="34.455000000000005" width="2" height="65.54499999999999" id="tests-vaccines-36"></rect></g><g><rect x="65.14545454545454" y="28.80625" width="2" height="71.19375" id="tests-vaccines-37"></rect></g><g><rect x="61.58181818181818" y="79.3125" width="2" height="20.6875" id="tests-vaccines-38"></rect></g><g><rect x="58.018181818181816" y="60.9475" width="2" height="39.0525" id="tests-vaccines-39"></rect></g><g><rect x="54.454545454545446" y="18.427499999999995" width="2" height="81.5725" id="tests-vaccines-40"></rect></g><g><rect x="50.89090909090908" y="31.4075" width="2" height="68.5925" id="tests-vaccines-41"></rect></g><g><rect x="47.32727272727273" y="30.02125" width="2" height="69.97875" id="tests-vaccines-42"></rect></g><g><rect x="43.76363636363636" y="29.24875" width="2" height="70.75125" id="tests-vaccines-43"></rect></g><g><rect x="40.199999999999996" y="27.32" width="2" height="72.68" id="tests-vaccines-44"></rect></g><g><rect x="36.636363636363626" y="78.06124999999999" width="2" height="21.938750000000013" id="tests-vaccines-45"></rect></g><g><rect x="33.072727272727285" y="55.93375" width="2" height="44.06625" id="tests-vaccines-46"></rect></g><g><rect x="29.509090909090922" y="6.877500000000003" width="2" height="93.1225" id="tests-vaccines-47"></rect></g><g><rect x="25.945454545454556" y="21.994999999999997" width="2" height="78.005" id="tests-vaccines-48"></rect></g><g><rect x="22.38181818181819" y="20.674999999999997" width="2" height="79.325" id="tests-vaccines-49"></rect></g><g><rect x="18.818181818181824" y="25.057499999999997" width="2" height="74.9425" id="tests-vaccines-50"></rect></g><g><rect x="15.254545454545461" y="26.590000000000003" width="2" height="73.41" id="tests-vaccines-51"></rect></g><g><rect x="11.690909090909095" y="77.73" width="2" height="22.269999999999996" id="tests-vaccines-52"></rect></g><g><rect x="8.12727272727273" y="56.19624999999999" width="2" height="43.80375000000001" id="tests-vaccines-53"></rect></g><g><rect x="4.563636363636365" y="4.274999999999995" width="2" height="95.72500000000001" id="tests-vaccines-54"></rect></g><g><rect x="1" y="24.517500000000002" width="2" height="75.4825" id="tests-vaccines-55"></rect></g></g><g class="fg-line tests-vaccines" fill="none" stroke="#92c5de" stroke-width="2" stroke-linecap="round"><path d="M198,79.39892857142857L194.43636363636364,78.76035714285715L190.87272727272727,77.73553571428572L187.30909090909088,78.75071428571428L183.74545454545455,78.2017857142857L180.1818181818182,77.47267857142857L176.61818181818182,75.7807142857143L173.05454545454546,74.52732142857143L169.49090909090907,73.46071428571427L165.92727272727274,73.10821428571428L162.36363636363637,70.08339285714285L158.8,69.73892857142857L155.23636363636365,68.68L151.6727272727273,66.80357142857143L148.1090909090909,65.97053571428572L144.54545454545453,64.9175L140.9818181818182,62.269464285714285L137.41818181818184,64.875L133.85454545454544,66.38375L130.29090909090908,68.25232142857143L126.72727272727273,68.80857142857141L123.16363636363636,66.88553571428571L119.6,64.86589285714285L116.03636363636363,63.42928571428572L112.47272727272728,63.205L108.90909090909089,63.31303571428572L105.34545454545456,63.80303571428571L101.78181818181817,64.27017857142857L98.21818181818183,64.2155357142857L94.65454545454546,63.53160714285715L91.09090909090911,62.832321428571426L87.52727272727273,55.48714285714284L83.96363636363637,52.5725L80.4,48.151250000000005L76.83636363636364,43.53053571428571L73.27272727272727,41.67196428571428L69.70909090909092,40.4825L66.14545454545454,39.73875L62.58181818181818,39.526428571428575L59.018181818181816,39.34767857142857L55.454545454545446,38.63142857142857L51.89090909090908,36.981428571428566L48.32727272727273,35.636785714285715L44.76363636363636,34.30160714285715L41.199999999999996,33.70285714285715L37.636363636363626,33.59857142857143L34.072727272727285,33.551249999999996L30.509090909090922,33.58875L26.945454545454556,33.21696428571429L23.38181818181819,33.57732142857143L19.818181818181824,32.26357142857144L16.25454545454546,33.623749999999994L12.690909090909095,35.02607142857143L9.12727272727273,35.246607142857144L5.563636363636365,36.29017857142857L2,43.32910714285715"></path></g></svg>