<svg about="DATA_PUBLISHED_DATE:2022-01-04,RENDER_DATE:2022-01-04" xmlns="http://www.w3.org/2000/svg" viewBox="0,0,200,100"><g transform="translate(0,0)"></g><g class="fg-bars tests-vaccines" fill="#00183f" stroke="none"><g><rect x="197" y="42.12285714285714" width="2" height="57.87714285714286" id="tests-vaccines-0"></rect></g><g><rect x="193.43636363636364" y="84.804" width="2" height="15.195999999999998" id="tests-vaccines-1"></rect></g><g><rect x="189.87272727272727" y="99.75571428571428" width="2" height="0.24428571428572354" id="tests-vaccines-2"></rect></g><g><rect x="186.30909090909088" y="87.52942857142857" width="2" height="12.470571428571432" id="tests-vaccines-3"></rect></g><g><rect x="182.74545454545455" y="40.028" width="2" height="59.972" id="tests-vaccines-4"></rect></g><g><rect x="179.1818181818182" y="29.326285714285717" width="2" height="70.67371428571428" id="tests-vaccines-5"></rect></g><g><rect x="175.61818181818182" y="26.864571428571427" width="2" height="73.13542857142858" id="tests-vaccines-6"></rect></g><g><rect x="172.05454545454546" y="31.776000000000003" width="2" height="68.22399999999999" id="tests-vaccines-7"></rect></g><g><rect x="168.49090909090907" y="80.262" width="2" height="19.738" id="tests-vaccines-8"></rect></g><g><rect x="164.92727272727274" y="60.419714285714285" width="2" height="39.580285714285715" id="tests-vaccines-9"></rect></g><g><rect x="161.36363636363637" y="27.006285714285717" width="2" height="72.99371428571428" id="tests-vaccines-10"></rect></g><g><rect x="157.8" y="35.71742857142857" width="2" height="64.28257142857143" id="tests-vaccines-11"></rect></g><g><rect x="154.23636363636365" y="34.106" width="2" height="65.894" id="tests-vaccines-12"></rect></g><g><rect x="150.6727272727273" y="35.85771428571428" width="2" height="64.14228571428572" id="tests-vaccines-13"></rect></g><g><rect x="147.1090909090909" y="38.61457142857143" width="2" height="61.38542857142857" id="tests-vaccines-14"></rect></g><g><rect x="143.54545454545453" y="80.54914285714285" width="2" height="19.450857142857146" id="tests-vaccines-15"></rect></g><g><rect x="139.9818181818182" y="54.38085714285714" width="2" height="45.61914285714286" id="tests-vaccines-16"></rect></g><g><rect x="136.41818181818184" y="20.19142857142857" width="2" height="79.80857142857143" id="tests-vaccines-17"></rect></g><g><rect x="132.85454545454544" y="28.150285714285715" width="2" height="71.84971428571428" id="tests-vaccines-18"></rect></g><g><rect x="129.29090909090908" y="25.79114285714286" width="2" height="74.20885714285714" id="tests-vaccines-19"></rect></g><g><rect x="125.72727272727273" y="25.71685714285714" width="2" height="74.28314285714286" id="tests-vaccines-20"></rect></g><g><rect x="122.16363636363636" y="31.075142857142858" width="2" height="68.92485714285715" id="tests-vaccines-21"></rect></g><g><rect x="118.6" y="76.6" width="2" height="23.400000000000006" id="tests-vaccines-22"></rect></g><g><rect x="115.03636363636363" y="48.059428571428576" width="2" height="51.940571428571424" id="tests-vaccines-23"></rect></g><g><rect x="111.47272727272728" y="9.424571428571426" width="2" height="90.57542857142857" id="tests-vaccines-24"></rect></g><g><rect x="107.90909090909089" y="20.075142857142858" width="2" height="79.92485714285715" id="tests-vaccines-25"></rect></g><g><rect x="104.34545454545456" y="21.829428571428565" width="2" height="78.17057142857144" id="tests-vaccines-26"></rect></g><g><rect x="100.78181818181817" y="29.41085714285714" width="2" height="70.58914285714286" id="tests-vaccines-27"></rect></g><g><rect x="97.21818181818183" y="39.04457142857143" width="2" height="60.95542857142857" id="tests-vaccines-28"></rect></g><g><rect x="93.65454545454546" y="81.56885714285714" width="2" height="18.43114285714286" id="tests-vaccines-29"></rect></g><g><rect x="90.09090909090911" y="67.29171428571429" width="2" height="32.70828571428571" id="tests-vaccines-30"></rect></g><g><rect x="86.52727272727273" y="56.32828571428572" width="2" height="43.67171428571428" id="tests-vaccines-31"></rect></g><g><rect x="82.96363636363637" y="98.59057142857142" width="2" height="1.4094285714285775" id="tests-vaccines-32"></rect></g><g><rect x="79.4" y="41.38942857142857" width="2" height="58.61057142857143" id="tests-vaccines-33"></rect></g><g><rect x="75.83636363636364" y="30.29171428571429" width="2" height="69.70828571428571" id="tests-vaccines-34"></rect></g><g><rect x="72.27272727272727" y="33.43142857142857" width="2" height="66.56857142857143" id="tests-vaccines-35"></rect></g><g><rect x="68.70909090909092" y="79.06628571428571" width="2" height="20.933714285714288" id="tests-vaccines-36"></rect></g><g><rect x="65.14545454545454" y="55.02199999999999" width="2" height="44.97800000000001" id="tests-vaccines-37"></rect></g><g><rect x="61.58181818181818" y="22.86085714285714" width="2" height="77.13914285714286" id="tests-vaccines-38"></rect></g><g><rect x="58.018181818181816" y="34.920857142857145" width="2" height="65.07914285714286" id="tests-vaccines-39"></rect></g><g><rect x="54.454545454545446" y="33.69228571428572" width="2" height="66.30771428571428" id="tests-vaccines-40"></rect></g><g><rect x="50.89090909090908" y="35.23342857142857" width="2" height="64.76657142857144" id="tests-vaccines-41"></rect></g><g><rect x="47.32727272727273" y="40.95057142857142" width="2" height="59.04942857142858" id="tests-vaccines-42"></rect></g><g><rect x="43.76363636363636" y="79.46285714285715" width="2" height="20.537142857142854" id="tests-vaccines-43"></rect></g><g><rect x="40.199999999999996" y="57.20057142857142" width="2" height="42.79942857142858" id="tests-vaccines-44"></rect></g><g><rect x="36.636363636363626" y="25.67085714285714" width="2" height="74.32914285714286" id="tests-vaccines-45"></rect></g><g><rect x="33.072727272727285" y="37.71" width="2" height="62.29" id="tests-vaccines-46"></rect></g><g><rect x="29.509090909090922" y="35.279428571428575" width="2" height="64.72057142857142" id="tests-vaccines-47"></rect></g><g><rect x="25.945454545454556" y="37.72428571428571" width="2" height="62.27571428571429" id="tests-vaccines-48"></rect></g><g><rect x="22.38181818181819" y="42.732000000000006" width="2" height="57.267999999999994" id="tests-vaccines-49"></rect></g><g><rect x="18.818181818181824" y="80.572" width="2" height="19.427999999999997" id="tests-vaccines-50"></rect></g><g><rect x="15.254545454545461" y="63.26514285714286" width="2" height="36.73485714285714" id="tests-vaccines-51"></rect></g><g><rect x="11.690909090909095" y="30.351428571428574" width="2" height="69.64857142857143" id="tests-vaccines-52"></rect></g><g><rect x="8.12727272727273" y="43.248" width="2" height="56.752" id="tests-vaccines-53"></rect></g><g><rect x="4.563636363636365" y="45.754" width="2" height="54.246" id="tests-vaccines-54"></rect></g><g><rect x="1" y="45.67028571428572" width="2" height="54.32971428571428" id="tests-vaccines-55"></rect></g></g><g class="fg-line tests-vaccines" fill="none" stroke="#92c5de" stroke-width="2" stroke-linecap="round"><path d="M198,58.63297959183673L194.43636363636364,57.15485714285714L190.87272727272727,56.506L187.30909090909088,50.88657142857143L183.74545454545455,42.24040816326531L180.1818181818182,41.62461224489796L176.61818181818182,42.307428571428574L173.05454545454546,43.59216326530612L169.49090909090907,44.56910204081632L165.92727272727274,44.610122448979595L162.36363636363637,43.74742857142857L158.8,42.7738775510204L155.23636363636365,41.69285714285714L151.6727272727273,40.50502040816326L148.1090909090909,39.05632653061225L144.54545454545453,37.97926530612246L140.9818181818182,37.41510204081633L137.41818181818184,36.51204081632653L133.85454545454544,34.97391836734693L130.29090909090908,33.82032653061224L126.72727272727273,33.25436734693877L123.16363636363636,33.78208163265306L119.6,34.92057142857142L116.03636363636363,35.6304081632653L112.47272727272728,38.377877551020404L108.90909090909089,45.0784081632653L105.34545454545456,56.29489795918368L101.78181818181817,59.08918367346939L98.21818181818183,59.21502040816327L94.65454545454546,58.41314285714285L91.09090909090911,58.05563265306122L87.52727272727273,56.3028163265306L83.96363636363637,51.52175510204082L80.4,42.42608163265306L76.83636363636364,41.32648979591836L73.27272727272727,42.03244897959183L69.70909090909092,43.10661224489797L66.14545454545454,43.163265306122454L62.58181818181818,43.47448979591837L59.018181818181816,43.87591836734694L55.454545454545446,44.27436734693877L51.89090909090908,44.50110204081632L48.32727272727273,44.8569387755102L44.76363636363636,45.11142857142857L41.199999999999996,45.26987755102041L37.636363636363626,46.13624489795918L34.072727272727285,46.80489795918368L30.509090909090922,47.596040816326536L26.945454545454556,49.09240816326531L23.38181818181819,50.22755102040817L19.818181818181824,51.11710204081632L16.25454545454546,51.816979591836734L12.690909090909095,52.84187755102041L9.12727272727273,53.84918367346939L5.563636363636365,54.50461224489796L2,54.79310204081632"></path></g></svg>