<svg meta="{&quot;DATA_PUBLISHED_DATE&quot;:&quot;2022-09-09&quot;,&quot;RENDER_DATE&quot;:&quot;2022-09-09&quot;,&quot;FIRST_DATE&quot;:&quot;2022-07-08&quot;,&quot;LAST_DATE&quot;:&quot;2022-09-01&quot;}" xmlns="http://www.w3.org/2000/svg" viewBox="0,0,200,100"><g transform="translate(0,0)"></g><g class="fg-bars tests-vaccines" fill="#00183f" stroke="none"><g><rect x="197" y="84.14923076923077" width="2" height="15.850769230769231" id="tests-vaccines-0"></rect></g><g><rect x="193.43636363636364" y="75.37538461538462" width="2" height="24.62461538461538" id="tests-vaccines-1"></rect></g><g><rect x="189.87272727272727" y="70.44769230769231" width="2" height="29.552307692307693" id="tests-vaccines-2"></rect></g><g><rect x="186.30909090909088" y="71.42923076923077" width="2" height="28.57076923076923" id="tests-vaccines-3"></rect></g><g><rect x="182.74545454545455" y="91.74" width="2" height="8.260000000000005" id="tests-vaccines-4"></rect></g><g><rect x="179.1818181818182" y="81.63538461538462" width="2" height="18.364615384615377" id="tests-vaccines-5"></rect></g><g><rect x="175.61818181818182" y="59.16923076923077" width="2" height="40.83076923076923" id="tests-vaccines-6"></rect></g><g><rect x="172.05454545454546" y="67.0076923076923" width="2" height="32.992307692307705" id="tests-vaccines-7"></rect></g><g><rect x="168.49090909090907" y="64.94461538461537" width="2" height="35.055384615384625" id="tests-vaccines-8"></rect></g><g><rect x="164.92727272727274" y="65.69076923076923" width="2" height="34.309230769230766" id="tests-vaccines-9"></rect></g><g><rect x="161.36363636363637" y="66.12307692307692" width="2" height="33.87692307692308" id="tests-vaccines-10"></rect></g><g><rect x="157.8" y="91.43846153846154" width="2" height="8.561538461538461" id="tests-vaccines-11"></rect></g><g><rect x="154.23636363636365" y="80.31076923076922" width="2" height="19.689230769230775" id="tests-vaccines-12"></rect></g><g><rect x="150.6727272727273" y="51.746153846153845" width="2" height="48.253846153846155" id="tests-vaccines-13"></rect></g><g><rect x="147.1090909090909" y="60.660000000000004" width="2" height="39.339999999999996" id="tests-vaccines-14"></rect></g><g><rect x="143.54545454545453" y="59.312307692307684" width="2" height="40.687692307692316" id="tests-vaccines-15"></rect></g><g><rect x="139.9818181818182" y="59.72461538461539" width="2" height="40.27538461538461" id="tests-vaccines-16"></rect></g><g><rect x="136.41818181818184" y="58.52153846153847" width="2" height="41.47846153846153" id="tests-vaccines-17"></rect></g><g><rect x="132.85454545454544" y="88.96461538461539" width="2" height="11.035384615384615" id="tests-vaccines-18"></rect></g><g><rect x="129.29090909090908" y="74.61846153846155" width="2" height="25.381538461538454" id="tests-vaccines-19"></rect></g><g><rect x="125.72727272727273" y="42.2" width="2" height="57.8" id="tests-vaccines-20"></rect></g><g><rect x="122.16363636363636" y="63.21076923076922" width="2" height="36.78923076923078" id="tests-vaccines-21"></rect></g><g><rect x="118.6" y="64.27692307692308" width="2" height="35.72307692307692" id="tests-vaccines-22"></rect></g><g><rect x="115.03636363636363" y="50.30153846153846" width="2" height="49.69846153846154" id="tests-vaccines-23"></rect></g><g><rect x="111.47272727272728" y="51.044615384615376" width="2" height="48.955384615384624" id="tests-vaccines-24"></rect></g><g><rect x="107.90909090909089" y="87.09846153846154" width="2" height="12.901538461538465" id="tests-vaccines-25"></rect></g><g><rect x="104.34545454545456" y="70.39692307692307" width="2" height="29.603076923076927" id="tests-vaccines-26"></rect></g><g><rect x="100.78181818181817" y="36.098461538461535" width="2" height="63.901538461538465" id="tests-vaccines-27"></rect></g><g><rect x="97.21818181818183" y="45.91076923076923" width="2" height="54.08923076923077" id="tests-vaccines-28"></rect></g><g><rect x="93.65454545454546" y="44.15692307692307" width="2" height="55.84307692307693" id="tests-vaccines-29"></rect></g><g><rect x="90.09090909090911" y="45.13846153846154" width="2" height="54.86153846153846" id="tests-vaccines-30"></rect></g><g><rect x="86.52727272727273" y="47.606153846153845" width="2" height="52.393846153846155" id="tests-vaccines-31"></rect></g><g><rect x="82.96363636363637" y="86.22615384615384" width="2" height="13.773846153846165" id="tests-vaccines-32"></rect></g><g><rect x="79.4" y="66.46461538461539" width="2" height="33.535384615384615" id="tests-vaccines-33"></rect></g><g><rect x="75.83636363636364" y="23.852307692307694" width="2" height="76.14769230769231" id="tests-vaccines-34"></rect></g><g><rect x="72.27272727272727" y="35.78" width="2" height="64.22" id="tests-vaccines-35"></rect></g><g><rect x="68.70909090909092" y="34.10307692307693" width="2" height="65.89692307692307" id="tests-vaccines-36"></rect></g><g><rect x="65.14545454545454" y="32.17692307692308" width="2" height="67.82307692307691" id="tests-vaccines-37"></rect></g><g><rect x="61.58181818181818" y="34.37230769230769" width="2" height="65.62769230769231" id="tests-vaccines-38"></rect></g><g><rect x="58.018181818181816" y="81.09692307692308" width="2" height="18.903076923076924" id="tests-vaccines-39"></rect></g><g><rect x="54.454545454545446" y="55.39846153846154" width="2" height="44.60153846153846" id="tests-vaccines-40"></rect></g><g><rect x="50.89090909090908" y="6.627692307692312" width="2" height="93.37230769230769" id="tests-vaccines-41"></rect></g><g><rect x="47.32727272727273" y="23.661538461538456" width="2" height="76.33846153846154" id="tests-vaccines-42"></rect></g><g><rect x="43.76363636363636" y="26.626153846153844" width="2" height="73.37384615384616" id="tests-vaccines-43"></rect></g><g><rect x="40.199999999999996" y="23.50461538461538" width="2" height="76.49538461538462" id="tests-vaccines-44"></rect></g><g><rect x="36.636363636363626" y="24.227692307692305" width="2" height="75.77230769230769" id="tests-vaccines-45"></rect></g><g><rect x="33.072727272727285" y="75.97384615384615" width="2" height="24.026153846153846" id="tests-vaccines-46"></rect></g><g><rect x="29.509090909090922" y="51.70461538461538" width="2" height="48.29538461538462" id="tests-vaccines-47"></rect></g><g><rect x="25.945454545454556" y="2.236923076923081" width="2" height="97.76307692307692" id="tests-vaccines-48"></rect></g><g><rect x="22.38181818181819" y="20.703076923076924" width="2" height="79.29692307692308" id="tests-vaccines-49"></rect></g><g><rect x="18.818181818181824" y="23.919999999999998" width="2" height="76.08" id="tests-vaccines-50"></rect></g><g><rect x="15.254545454545461" y="32.887692307692305" width="2" height="67.1123076923077" id="tests-vaccines-51"></rect></g><g><rect x="11.690909090909095" y="37.419999999999995" width="2" height="62.580000000000005" id="tests-vaccines-52"></rect></g><g><rect x="8.12727272727273" y="81.4676923076923" width="2" height="18.532307692307697" id="tests-vaccines-53"></rect></g><g><rect x="4.563636363636365" y="60.170769230769224" width="2" height="39.829230769230776" id="tests-vaccines-54"></rect></g><g><rect x="1" y="20.42307692307692" width="2" height="79.57692307692308" id="tests-vaccines-55"></rect></g></g><g class="fg-line tests-vaccines" fill="none" stroke="#92c5de" stroke-width="2" stroke-linecap="round"><path d="M198,76.27802197802198L194.43636363636364,73.82923076923078L190.87272727272727,72.33912087912088L187.30909090909088,71.65956043956044L183.74545454545455,70.90153846153846L180.1818181818182,70.85846153846154L176.61818181818182,70.66923076923078L173.05454545454546,69.6087912087912L169.49090909090907,68.70197802197802L165.92727272727274,67.89736263736263L162.36363636363637,67.04505494505494L158.8,65.95912087912087L155.23636363636365,65.60571428571428L151.6727272727273,64.79252747252747L148.1090909090909,63.42879120879121L144.54545454545453,63.79318681318682L140.9818181818182,64.50241758241758L137.41818181818184,63.15626373626373L133.85454545454544,62.08813186813187L130.29090909090908,61.82153846153846L126.72727272727273,61.21846153846153L123.16363636363636,60.346813186813186L119.6,57.87538461538462L116.03636363636363,55.0010989010989L112.47272727272728,54.26351648351648L108.90909090909089,53.7723076923077L105.34545454545456,53.64769230769231L101.78181818181817,53.08593406593407L98.21818181818183,51.336483516483526L94.65454545454546,49.88923076923078L91.09090909090911,48.45296703296703L87.52727272727273,46.60131868131868L83.96363636363637,44.71076923076923L80.4,43.97802197802198L76.83636363636364,42.39714285714285L73.27272727272727,39.93648351648351L69.70909090909092,38.20527472527473L66.14545454545454,37.137142857142855L62.58181818181818,35.89824175824177L59.018181818181816,34.449010989011L55.454545454545446,33.71714285714285L51.89090909090908,33.18945054945055L48.32727272727273,32.5621978021978L44.76363636363636,32.139560439560434L41.199999999999996,31.75296703296704L37.636363636363626,33.09340659340659L34.072727272727285,34.97802197802198L30.509090909090922,35.76285714285714L26.945454545454556,36.972307692307695L23.38181818181819,39.57032967032966L19.818181818181824,41.76021978021978L16.25454545454546,43.57010989010989L12.690909090909095,44.144615384615385L9.12727272727273,52.73296703296704L5.563636363636365,53.297142857142866L2,54.62307692307693"></path></g></svg>