<svg meta="{&quot;DATA_PUBLISHED_DATE&quot;:&quot;2022-07-19&quot;,&quot;RENDER_DATE&quot;:&quot;2022-07-19&quot;,&quot;FIRST_DATE&quot;:&quot;2022-05-16&quot;,&quot;LAST_DATE&quot;:&quot;2022-07-10&quot;}" xmlns="http://www.w3.org/2000/svg" viewBox="0,0,200,100"><g transform="translate(0,0)"></g><g class="fg-bars cases-ep" fill="#00183f" stroke="none"><g><rect x="197" y="61.74642857142857" width="2" height="38.25357142857143" id="cases-ep-0"></rect></g><g><rect x="193.43636363636364" y="53.93214285714285" width="2" height="46.06785714285715" id="cases-ep-1"></rect></g><g><rect x="189.87272727272727" y="29.65714285714286" width="2" height="70.34285714285714" id="cases-ep-2"></rect></g><g><rect x="186.30909090909088" y="25.77142857142857" width="2" height="74.22857142857143" id="cases-ep-3"></rect></g><g><rect x="182.74545454545455" y="20.08214285714286" width="2" height="79.91785714285714" id="cases-ep-4"></rect></g><g><rect x="179.1818181818182" y="5.614285714285716" width="2" height="94.38571428571429" id="cases-ep-5"></rect></g><g><rect x="175.61818181818182" y="67.17500000000001" width="2" height="32.82499999999999" id="cases-ep-6"></rect></g><g><rect x="172.05454545454546" y="66.65357142857142" width="2" height="33.346428571428575" id="cases-ep-7"></rect></g><g><rect x="168.49090909090907" y="60.557142857142864" width="2" height="39.442857142857136" id="cases-ep-8"></rect></g><g><rect x="164.92727272727274" y="37.54642857142857" width="2" height="62.45357142857143" id="cases-ep-9"></rect></g><g><rect x="161.36363636363637" y="35.86071428571429" width="2" height="64.1392857142857" id="cases-ep-10"></rect></g><g><rect x="157.8" y="30.160714285714285" width="2" height="69.83928571428572" id="cases-ep-11"></rect></g><g><rect x="154.23636363636365" y="25.6" width="2" height="74.4" id="cases-ep-12"></rect></g><g><rect x="150.6727272727273" y="20.06785714285715" width="2" height="79.93214285714285" id="cases-ep-13"></rect></g><g><rect x="147.1090909090909" y="61.85000000000001" width="2" height="38.14999999999999" id="cases-ep-14"></rect></g><g><rect x="143.54545454545453" y="58.885714285714286" width="2" height="41.114285714285714" id="cases-ep-15"></rect></g><g><rect x="139.9818181818182" y="41.99642857142857" width="2" height="58.00357142857143" id="cases-ep-16"></rect></g><g><rect x="136.41818181818184" y="39.01785714285714" width="2" height="60.98214285714286" id="cases-ep-17"></rect></g><g><rect x="132.85454545454544" y="36.60714285714286" width="2" height="63.39285714285714" id="cases-ep-18"></rect></g><g><rect x="129.29090909090908" y="30.767857142857146" width="2" height="69.23214285714286" id="cases-ep-19"></rect></g><g><rect x="125.72727272727273" y="35.278571428571425" width="2" height="64.72142857142858" id="cases-ep-20"></rect></g><g><rect x="122.16363636363636" y="66.96071428571429" width="2" height="33.03928571428571" id="cases-ep-21"></rect></g><g><rect x="118.6" y="63.21071428571429" width="2" height="36.78928571428571" id="cases-ep-22"></rect></g><g><rect x="115.03636363636363" y="47.01428571428572" width="2" height="52.98571428571428" id="cases-ep-23"></rect></g><g><rect x="111.47272727272728" y="45.63928571428571" width="2" height="54.36071428571429" id="cases-ep-24"></rect></g><g><rect x="107.90909090909089" y="41.81785714285714" width="2" height="58.18214285714286" id="cases-ep-25"></rect></g><g><rect x="104.34545454545456" y="39.949999999999996" width="2" height="60.050000000000004" id="cases-ep-26"></rect></g><g><rect x="100.78181818181817" y="34.06071428571429" width="2" height="65.93928571428572" id="cases-ep-27"></rect></g><g><rect x="97.21818181818183" y="68.22142857142856" width="2" height="31.77857142857144" id="cases-ep-28"></rect></g><g><rect x="93.65454545454546" y="64.85000000000001" width="2" height="35.14999999999999" id="cases-ep-29"></rect></g><g><rect x="90.09090909090911" y="45.18928571428571" width="2" height="54.81071428571429" id="cases-ep-30"></rect></g><g><rect x="86.52727272727273" y="43.70357142857143" width="2" height="56.29642857142857" id="cases-ep-31"></rect></g><g><rect x="82.96363636363637" y="36.99285714285714" width="2" height="63.00714285714286" id="cases-ep-32"></rect></g><g><rect x="79.4" y="32.832142857142856" width="2" height="67.16785714285714" id="cases-ep-33"></rect></g><g><rect x="75.83636363636364" y="24.903571428571425" width="2" height="75.09642857142858" id="cases-ep-34"></rect></g><g><rect x="72.27272727272727" y="65.52857142857142" width="2" height="34.471428571428575" id="cases-ep-35"></rect></g><g><rect x="68.70909090909092" y="62.075" width="2" height="37.925" id="cases-ep-36"></rect></g><g><rect x="65.14545454545454" y="41.49285714285714" width="2" height="58.50714285714286" id="cases-ep-37"></rect></g><g><rect x="61.58181818181818" y="35.58214285714286" width="2" height="64.41785714285714" id="cases-ep-38"></rect></g><g><rect x="58.018181818181816" y="26.064285714285717" width="2" height="73.93571428571428" id="cases-ep-39"></rect></g><g><rect x="54.454545454545446" y="14.510714285714288" width="2" height="85.48928571428571" id="cases-ep-40"></rect></g><g><rect x="50.89090909090908" y="69.19999999999999" width="2" height="30.80000000000001" id="cases-ep-41"></rect></g><g><rect x="47.32727272727273" y="71.81428571428572" width="2" height="28.185714285714283" id="cases-ep-42"></rect></g><g><rect x="43.76363636363636" y="68.2642857142857" width="2" height="31.735714285714295" id="cases-ep-43"></rect></g><g><rect x="40.199999999999996" y="49.417857142857144" width="2" height="50.582142857142856" id="cases-ep-44"></rect></g><g><rect x="36.636363636363626" y="44.58571428571428" width="2" height="55.41428571428572" id="cases-ep-45"></rect></g><g><rect x="33.072727272727285" y="38.86071428571428" width="2" height="61.13928571428572" id="cases-ep-46"></rect></g><g><rect x="29.509090909090922" y="35.150000000000006" width="2" height="64.85" id="cases-ep-47"></rect></g><g><rect x="25.945454545454556" y="30.435714285714287" width="2" height="69.56428571428572" id="cases-ep-48"></rect></g><g><rect x="22.38181818181819" y="68.96071428571429" width="2" height="31.03928571428571" id="cases-ep-49"></rect></g><g><rect x="18.818181818181824" y="67.91785714285714" width="2" height="32.082142857142856" id="cases-ep-50"></rect></g><g><rect x="15.254545454545461" y="50.135714285714286" width="2" height="49.864285714285714" id="cases-ep-51"></rect></g><g><rect x="11.690909090909095" y="47.682142857142864" width="2" height="52.317857142857136" id="cases-ep-52"></rect></g><g><rect x="8.12727272727273" y="43.635714285714286" width="2" height="56.364285714285714" id="cases-ep-53"></rect></g><g><rect x="4.563636363636365" y="42.11071428571429" width="2" height="57.88928571428571" id="cases-ep-54"></rect></g><g><rect x="1" y="37.97857142857143" width="2" height="62.02142857142857" id="cases-ep-55"></rect></g></g><g class="fg-line cases-ep" fill="none" stroke="#92c5de" stroke-width="2" stroke-linecap="round"><path d="M198,37.711224489795924L194.43636363636364,38.41224489795919L190.87272727272727,39.35867346938776L187.30909090909088,40.48571428571428L183.74545454545455,41.92704081632653L180.1818181818182,43.366836734693884L176.61818181818182,46.22193877551021L173.05454545454546,39.492346938775505L169.49090909090907,38.80612244897959L165.92727272727274,38.5673469387755L162.36363636363637,39.20306122448979L158.8,39.654081632653075L155.23636363636365,40.575L151.6727272727273,41.313265306122446L148.1090909090909,43.48622448979592L144.54545454545453,44.21632653061225L140.9818181818182,44.83418367346938L137.41818181818184,45.55102040816327L133.85454545454544,46.4969387755102L130.29090909090908,47.24132653061225L126.72727272727273,48.5530612244898L123.16363636363636,48.37908163265306L119.6,48.559183673469384L116.03636363636363,48.79336734693878L112.47272727272728,48.53265306122449L108.90909090909089,48.256122448979596L105.34545454545456,47.56683673469389L101.78181818181817,46.550000000000004L98.21818181818183,45.24183673469388L94.65454545454546,44.85714285714286L91.09090909090911,44.46071428571429L87.52727272727273,43.93265306122449L83.96363636363637,42.772448979591836L80.4,41.211224489795924L76.83636363636364,38.593877551020405L73.27272727272727,44.921938775510206L69.70909090909092,45.81989795918368L66.14545454545454,46.70408163265306L62.58181818181818,47.83622448979592L59.018181818181816,49.12244897959184L55.454545454545446,50.95051020408163L51.89090909090908,53.898979591836735L48.32727272727273,48.361224489795916L44.76363636363636,47.95357142857143L41.199999999999996,47.90408163265306L37.636363636363626,48.00663265306122L34.072727272727285,48.44897959183674L30.509090909090922,49.13112244897959L26.945454545454556,50.12551020408162L23.38181818181819,51.2030612244898L19.818181818181824,51.60102040816326L16.25454545454546,52.091836734693885L12.690909090909095,53.36938775510204L9.12727272727273,54.95918367346939L5.563636363636365,56.92551020408163L2,59.07908163265305"></path></g></svg>