<svg about="DATA_PUBLISHED_DATE:2021-12-23,RENDER_DATE:2021-12-23" xmlns="http://www.w3.org/2000/svg" viewBox="0,0,200,100"><g transform="translate(0,0)"></g><g class="fg-bars death-date" fill="#00183f" stroke="none"><g><rect x="197" y="70" width="2" height="30" id="death-date-0"></rect></g><g><rect x="193.43636363636364" y="51.81818181818182" width="2" height="48.18181818181818" id="death-date-1"></rect></g><g><rect x="189.87272727272727" y="62.72727272727272" width="2" height="37.27272727272728" id="death-date-2"></rect></g><g><rect x="186.30909090909088" y="68.18181818181819" width="2" height="31.818181818181813" id="death-date-3"></rect></g><g><rect x="182.74545454545455" y="54.54545454545454" width="2" height="45.45454545454546" id="death-date-4"></rect></g><g><rect x="179.1818181818182" y="64.54545454545455" width="2" height="35.45454545454545" id="death-date-5"></rect></g><g><rect x="175.61818181818182" y="60.909090909090914" width="2" height="39.090909090909086" id="death-date-6"></rect></g><g><rect x="172.05454545454546" y="49.09090909090909" width="2" height="50.90909090909091" id="death-date-7"></rect></g><g><rect x="168.49090909090907" y="52.727272727272734" width="2" height="47.272727272727266" id="death-date-8"></rect></g><g><rect x="164.92727272727274" y="60.909090909090914" width="2" height="39.090909090909086" id="death-date-9"></rect></g><g><rect x="161.36363636363637" y="56.363636363636374" width="2" height="43.636363636363626" id="death-date-10"></rect></g><g><rect x="157.8" y="38.18181818181819" width="2" height="61.81818181818181" id="death-date-11"></rect></g><g><rect x="154.23636363636365" y="51.81818181818182" width="2" height="48.18181818181818" id="death-date-12"></rect></g><g><rect x="150.6727272727273" y="41.81818181818182" width="2" height="58.18181818181818" id="death-date-13"></rect></g><g><rect x="147.1090909090909" y="54.54545454545454" width="2" height="45.45454545454546" id="death-date-14"></rect></g><g><rect x="143.54545454545453" y="41.81818181818182" width="2" height="58.18181818181818" id="death-date-15"></rect></g><g><rect x="139.9818181818182" y="50" width="2" height="50" id="death-date-16"></rect></g><g><rect x="136.41818181818184" y="56.363636363636374" width="2" height="43.636363636363626" id="death-date-17"></rect></g><g><rect x="132.85454545454544" y="48.18181818181818" width="2" height="51.81818181818182" id="death-date-18"></rect></g><g><rect x="129.29090909090908" y="34.54545454545455" width="2" height="65.45454545454545" id="death-date-19"></rect></g><g><rect x="125.72727272727273" y="50" width="2" height="50" id="death-date-20"></rect></g><g><rect x="122.16363636363636" y="31.818181818181824" width="2" height="68.18181818181817" id="death-date-21"></rect></g><g><rect x="118.6" y="41.81818181818182" width="2" height="58.18181818181818" id="death-date-22"></rect></g><g><rect x="115.03636363636363" y="29.09090909090909" width="2" height="70.9090909090909" id="death-date-23"></rect></g><g><rect x="111.47272727272728" y="41.81818181818182" width="2" height="58.18181818181818" id="death-date-24"></rect></g><g><rect x="107.90909090909089" y="45.45454545454546" width="2" height="54.54545454545454" id="death-date-25"></rect></g><g><rect x="104.34545454545456" y="46.36363636363636" width="2" height="53.63636363636364" id="death-date-26"></rect></g><g><rect x="100.78181818181817" y="38.18181818181819" width="2" height="61.81818181818181" id="death-date-27"></rect></g><g><rect x="97.21818181818183" y="43.63636363636364" width="2" height="56.36363636363636" id="death-date-28"></rect></g><g><rect x="93.65454545454546" y="39.090909090909086" width="2" height="60.909090909090914" id="death-date-29"></rect></g><g><rect x="90.09090909090911" y="46.36363636363636" width="2" height="53.63636363636364" id="death-date-30"></rect></g><g><rect x="86.52727272727273" y="38.18181818181819" width="2" height="61.81818181818181" id="death-date-31"></rect></g><g><rect x="82.96363636363637" y="45.45454545454546" width="2" height="54.54545454545454" id="death-date-32"></rect></g><g><rect x="79.4" y="40.90909090909091" width="2" height="59.09090909090909" id="death-date-33"></rect></g><g><rect x="75.83636363636364" y="48.18181818181818" width="2" height="51.81818181818182" id="death-date-34"></rect></g><g><rect x="72.27272727272727" y="44.54545454545455" width="2" height="55.45454545454545" id="death-date-35"></rect></g><g><rect x="68.70909090909092" y="44.54545454545455" width="2" height="55.45454545454545" id="death-date-36"></rect></g><g><rect x="65.14545454545454" y="45.45454545454546" width="2" height="54.54545454545454" id="death-date-37"></rect></g><g><rect x="61.58181818181818" y="40.90909090909091" width="2" height="59.09090909090909" id="death-date-38"></rect></g><g><rect x="58.018181818181816" y="35.45454545454545" width="2" height="64.54545454545455" id="death-date-39"></rect></g><g><rect x="54.454545454545446" y="9.999999999999998" width="2" height="90" id="death-date-40"></rect></g><g><rect x="50.89090909090908" y="42.72727272727273" width="2" height="57.27272727272727" id="death-date-41"></rect></g><g><rect x="47.32727272727273" y="43.63636363636364" width="2" height="56.36363636363636" id="death-date-42"></rect></g><g><rect x="43.76363636363636" y="40.90909090909091" width="2" height="59.09090909090909" id="death-date-43"></rect></g><g><rect x="40.199999999999996" y="35.45454545454545" width="2" height="64.54545454545455" id="death-date-44"></rect></g><g><rect x="36.636363636363626" y="33.63636363636363" width="2" height="66.36363636363637" id="death-date-45"></rect></g><g><rect x="33.072727272727285" y="45.45454545454546" width="2" height="54.54545454545454" id="death-date-46"></rect></g><g><rect x="29.509090909090922" y="37.272727272727266" width="2" height="62.727272727272734" id="death-date-47"></rect></g><g><rect x="25.945454545454556" y="48.18181818181818" width="2" height="51.81818181818182" id="death-date-48"></rect></g><g><rect x="22.38181818181819" y="39.090909090909086" width="2" height="60.909090909090914" id="death-date-49"></rect></g><g><rect x="18.818181818181824" y="38.18181818181819" width="2" height="61.81818181818181" id="death-date-50"></rect></g><g><rect x="15.254545454545461" y="30.000000000000004" width="2" height="70" id="death-date-51"></rect></g><g><rect x="11.690909090909095" y="35.45454545454545" width="2" height="64.54545454545455" id="death-date-52"></rect></g><g><rect x="8.12727272727273" y="30.000000000000004" width="2" height="70" id="death-date-53"></rect></g><g><rect x="4.563636363636365" y="13.636363636363635" width="2" height="86.36363636363636" id="death-date-54"></rect></g><g><rect x="1" y="0.9090909090909038" width="2" height="99.0909090909091" id="death-date-55"></rect></g></g><g class="fg-line death-date" fill="none" stroke="#92c5de" stroke-width="2" stroke-linecap="round"><path d="M198,61.81818181818181L194.43636363636364,58.83116883116883L190.87272727272727,58.96103896103896L187.30909090909088,58.7012987012987L183.74545454545455,57.01298701298702L180.1818181818182,54.675324675324674L176.61818181818182,52.85714285714286L173.05454545454546,50.129870129870135L169.49090909090907,50.90909090909091L165.92727272727274,49.35064935064935L162.36363636363637,47.79220779220778L158.8,47.79220779220778L155.23636363636365,49.22077922077922L151.6727272727273,46.753246753246756L148.1090909090909,47.92207792207792L144.54545454545453,44.67532467532468L140.9818181818182,44.67532467532468L137.41818181818184,41.6883116883117L133.85454545454544,39.6103896103896L130.29090909090908,39.220779220779214L126.72727272727273,40.90909090909091L123.16363636363636,39.220779220779214L119.6,40.90909090909091L116.03636363636363,40.519480519480524L112.47272727272728,42.98701298701298L108.90909090909089,42.467532467532465L105.34545454545456,42.467532467532465L101.78181818181817,41.6883116883117L98.21818181818183,43.11688311688312L94.65454545454546,43.246753246753244L91.09090909090911,44.02597402597402L87.52727272727273,43.8961038961039L83.96363636363637,44.285714285714285L80.4,42.85714285714286L76.83636363636364,38.44155844155844L73.27272727272727,37.66233766233766L69.70909090909092,37.53246753246754L66.14545454545454,37.01298701298701L62.58181818181818,35.58441558441559L59.018181818181816,34.54545454545455L55.454545454545446,35.97402597402597L51.89090909090908,39.87012987012988L48.32727272727273,40.649350649350644L44.76363636363636,40L41.199999999999996,39.6103896103896L37.636363636363626,38.831168831168824L34.072727272727285,39.090909090909086L30.509090909090922,36.883116883116884L26.945454545454556,33.506493506493506L23.38181818181819,26.75324675324675L19.818181818181824,22.337662337662334L16.25454545454546,21.298701298701307L12.690909090909095,20.519480519480517L9.12727272727273,14.935064935064934L5.563636363636365,12.987012987012992L2,14.415584415584416"></path></g></svg>