<svg meta="{&quot;DATA_PUBLISHED_DATE&quot;:&quot;2022-02-17&quot;,&quot;RENDER_DATE&quot;:&quot;2022-02-17&quot;,&quot;FIRST_DATE&quot;:&quot;2021-12-15&quot;,&quot;LAST_DATE&quot;:&quot;2022-02-08&quot;}" xmlns="http://www.w3.org/2000/svg" viewBox="0,0,200,100"><g transform="translate(0,0)"></g><g class="fg-bars cases-ep" fill="#00183f" stroke="none"><g><rect x="197" y="89.446875" width="2" height="10.553124999999994" id="cases-ep-0"></rect></g><g><rect x="193.43636363636364" y="86.405625" width="2" height="13.594375" id="cases-ep-1"></rect></g><g><rect x="189.87272727272727" y="94.41437499999999" width="2" height="5.585625000000007" id="cases-ep-2"></rect></g><g><rect x="186.30909090909088" y="92.948125" width="2" height="7.0518749999999955" id="cases-ep-3"></rect></g><g><rect x="182.74545454545455" y="86.660625" width="2" height="13.339375000000004" id="cases-ep-4"></rect></g><g><rect x="179.1818181818182" y="85.408125" width="2" height="14.591875000000002" id="cases-ep-5"></rect></g><g><rect x="175.61818181818182" y="83.303125" width="2" height="16.696875000000006" id="cases-ep-6"></rect></g><g><rect x="172.05454545454546" y="80.1675" width="2" height="19.832499999999996" id="cases-ep-7"></rect></g><g><rect x="168.49090909090907" y="76.03750000000001" width="2" height="23.96249999999999" id="cases-ep-8"></rect></g><g><rect x="164.92727272727274" y="90.871875" width="2" height="9.128124999999997" id="cases-ep-9"></rect></g><g><rect x="161.36363636363637" y="87.17625" width="2" height="12.823750000000004" id="cases-ep-10"></rect></g><g><rect x="157.8" y="75.855" width="2" height="24.144999999999996" id="cases-ep-11"></rect></g><g><rect x="154.23636363636365" y="72.42124999999999" width="2" height="27.578750000000014" id="cases-ep-12"></rect></g><g><rect x="150.6727272727273" y="67.52125" width="2" height="32.478750000000005" id="cases-ep-13"></rect></g><g><rect x="147.1090909090909" y="62.6725" width="2" height="37.3275" id="cases-ep-14"></rect></g><g><rect x="143.54545454545453" y="56.752500000000005" width="2" height="43.247499999999995" id="cases-ep-15"></rect></g><g><rect x="139.9818181818182" y="83.015625" width="2" height="16.984375" id="cases-ep-16"></rect></g><g><rect x="136.41818181818184" y="75.6725" width="2" height="24.3275" id="cases-ep-17"></rect></g><g><rect x="132.85454545454544" y="52.381875" width="2" height="47.618125" id="cases-ep-18"></rect></g><g><rect x="129.29090909090908" y="44.301875" width="2" height="55.698125" id="cases-ep-19"></rect></g><g><rect x="125.72727272727273" y="37.438125" width="2" height="62.561875" id="cases-ep-20"></rect></g><g><rect x="122.16363636363636" y="25.807500000000005" width="2" height="74.1925" id="cases-ep-21"></rect></g><g><rect x="118.6" y="49.990625" width="2" height="50.009375" id="cases-ep-22"></rect></g><g><rect x="115.03636363636363" y="75.6625" width="2" height="24.337500000000006" id="cases-ep-23"></rect></g><g><rect x="111.47272727272728" y="64.09" width="2" height="35.91" id="cases-ep-24"></rect></g><g><rect x="107.90909090909089" y="35.666875" width="2" height="64.333125" id="cases-ep-25"></rect></g><g><rect x="104.34545454545456" y="29.630625" width="2" height="70.369375" id="cases-ep-26"></rect></g><g><rect x="100.78181818181817" y="22.301875000000003" width="2" height="77.698125" id="cases-ep-27"></rect></g><g><rect x="97.21818181818183" y="17.173125" width="2" height="82.826875" id="cases-ep-28"></rect></g><g><rect x="93.65454545454546" y="13.513750000000002" width="2" height="86.48625" id="cases-ep-29"></rect></g><g><rect x="90.09090909090911" y="66.201875" width="2" height="33.798125" id="cases-ep-30"></rect></g><g><rect x="86.52727272727273" y="53.193749999999994" width="2" height="46.806250000000006" id="cases-ep-31"></rect></g><g><rect x="82.96363636363637" y="17.036249999999995" width="2" height="82.96375" id="cases-ep-32"></rect></g><g><rect x="79.4" y="12.589375000000002" width="2" height="87.410625" id="cases-ep-33"></rect></g><g><rect x="75.83636363636364" y="5.736249999999998" width="2" height="94.26375" id="cases-ep-34"></rect></g><g><rect x="72.27272727272727" y="4.635" width="2" height="95.365" id="cases-ep-35"></rect></g><g><rect x="68.70909090909092" y="15.587499999999999" width="2" height="84.4125" id="cases-ep-36"></rect></g><g><rect x="65.14545454545454" y="66.013125" width="2" height="33.986875" id="cases-ep-37"></rect></g><g><rect x="61.58181818181818" y="80.694375" width="2" height="19.305625000000006" id="cases-ep-38"></rect></g><g><rect x="58.018181818181816" y="66.94562499999999" width="2" height="33.05437500000001" id="cases-ep-39"></rect></g><g><rect x="54.454545454545446" y="47.38250000000001" width="2" height="52.61749999999999" id="cases-ep-40"></rect></g><g><rect x="50.89090909090908" y="44.9125" width="2" height="55.0875" id="cases-ep-41"></rect></g><g><rect x="47.32727272727273" y="45.636874999999996" width="2" height="54.363125000000004" id="cases-ep-42"></rect></g><g><rect x="43.76363636363636" y="53.889374999999994" width="2" height="46.110625000000006" id="cases-ep-43"></rect></g><g><rect x="40.199999999999996" y="78.151875" width="2" height="21.848124999999996" id="cases-ep-44"></rect></g><g><rect x="36.636363636363626" y="91.17375" width="2" height="8.826250000000002" id="cases-ep-45"></rect></g><g><rect x="33.072727272727285" y="86.50625000000001" width="2" height="13.493749999999991" id="cases-ep-46"></rect></g><g><rect x="29.509090909090922" y="80.020625" width="2" height="19.979375000000005" id="cases-ep-47"></rect></g><g><rect x="25.945454545454556" y="80.305625" width="2" height="19.694374999999994" id="cases-ep-48"></rect></g><g><rect x="22.38181818181819" y="83.129375" width="2" height="16.870625000000004" id="cases-ep-49"></rect></g><g><rect x="18.818181818181824" y="85.705" width="2" height="14.295000000000002" id="cases-ep-50"></rect></g><g><rect x="15.254545454545461" y="93.37" width="2" height="6.6299999999999955" id="cases-ep-51"></rect></g><g><rect x="11.690909090909095" y="93.974375" width="2" height="6.025625000000005" id="cases-ep-52"></rect></g><g><rect x="8.12727272727273" y="93.085625" width="2" height="6.914375000000007" id="cases-ep-53"></rect></g><g><rect x="4.563636363636365" y="93.64125" width="2" height="6.358750000000001" id="cases-ep-54"></rect></g><g><rect x="1" y="93.72125" width="2" height="6.278750000000002" id="cases-ep-55"></rect></g></g><g class="fg-line cases-ep" fill="none" stroke="#92c5de" stroke-width="2" stroke-linecap="round"><path d="M198,88.36955357142857L194.43636363636364,87.04392857142858L190.87272727272727,85.56276785714286L187.30909090909088,85.05669642857143L183.74545454545455,84.23214285714286L180.1818181818182,82.68848214285714L176.61818181818182,80.83321428571428L173.05454545454546,78.57866071428572L169.49090909090907,76.079375L165.92727272727274,73.324375L162.36363636363637,72.20205357142856L158.8,70.55866071428571L155.23636363636365,67.20535714285714L151.6727272727273,63.18830357142857L148.1090909090909,58.89071428571428L144.54545454545453,53.62428571428571L140.9818181818182,52.65830357142857L137.41818181818184,51.60785714285714L133.85454545454544,49.95321428571429L130.29090909090908,47.565357142857145L126.72727272727273,45.46946428571429L123.16363636363636,43.30714285714286L119.6,42.07366071428572L116.03636363636363,36.86267857142857L112.47272727272728,35.511160714285715L108.90909090909089,33.95455357142857L105.34545454545456,31.29303571428571L101.78181818181817,28.858571428571434L98.21818181818183,26.492053571428563L94.65454545454546,24.700892857142854L91.09090909090911,24.99714285714285L87.52727272727273,24.97017857142857L83.96363636363637,28.898839285714285L80.4,36.028749999999995L76.83636363636364,40.99919642857143L73.27272727272727,46.595803571428576L69.70909090909092,52.45321428571428L66.14545454545454,57.924910714285716L62.58181818181818,59.65901785714286L59.018181818181816,61.15607142857142L55.454545454545446,63.950446428571425L51.89090909090908,68.61303571428572L48.32727272727273,73.66919642857142L44.76363636363636,79.02526785714285L41.199999999999996,83.57035714285715L37.636363636363626,85.744375L34.072727272727285,86.14446428571428L30.509090909090922,87.08437500000001L26.945454545454556,89.03017857142858L23.38181818181819,90.94669642857143L19.818181818181824,92.61303571428572L16.25454545454546,93.86357142857142L12.690909090909095,94.42L9.12727272727273,94.90258928571428L5.563636363636365,95.37375L2,95.766875"></path></g></svg>