<svg meta="{&quot;DATA_PUBLISHED_DATE&quot;:&quot;2023-02-16&quot;,&quot;RENDER_DATE&quot;:&quot;2023-02-23&quot;,&quot;FIRST_DATE&quot;:&quot;2022-11-29&quot;,&quot;LAST_DATE&quot;:&quot;2023-01-23&quot;}" xmlns="http://www.w3.org/2000/svg" viewBox="0,0,200,100"><g transform="translate(0,0)"></g><g class="fg-bars death-date" fill="#00183f" stroke="none"><g><rect x="197" y="64.61538461538461" width="2" height="35.38461538461539" id="death-date-0"></rect></g><g><rect x="193.43636363636364" y="67.6923076923077" width="2" height="32.30769230769231" id="death-date-1"></rect></g><g><rect x="189.87272727272727" y="66.15384615384615" width="2" height="33.846153846153854" id="death-date-2"></rect></g><g><rect x="186.30909090909088" y="58.46153846153845" width="2" height="41.53846153846155" id="death-date-3"></rect></g><g><rect x="182.74545454545455" y="66.15384615384615" width="2" height="33.846153846153854" id="death-date-4"></rect></g><g><rect x="179.1818181818182" y="50.76923076923077" width="2" height="49.23076923076923" id="death-date-5"></rect></g><g><rect x="175.61818181818182" y="58.46153846153845" width="2" height="41.53846153846155" id="death-date-6"></rect></g><g><rect x="172.05454545454546" y="47.692307692307686" width="2" height="52.307692307692314" id="death-date-7"></rect></g><g><rect x="168.49090909090907" y="43.07692307692308" width="2" height="56.92307692307692" id="death-date-8"></rect></g><g><rect x="164.92727272727274" y="46.15384615384615" width="2" height="53.84615384615385" id="death-date-9"></rect></g><g><rect x="161.36363636363637" y="32.30769230769231" width="2" height="67.6923076923077" id="death-date-10"></rect></g><g><rect x="157.8" y="29.230769230769226" width="2" height="70.76923076923077" id="death-date-11"></rect></g><g><rect x="154.23636363636365" y="56.92307692307692" width="2" height="43.07692307692308" id="death-date-12"></rect></g><g><rect x="150.6727272727273" y="27.692307692307693" width="2" height="72.3076923076923" id="death-date-13"></rect></g><g><rect x="147.1090909090909" y="38.46153846153846" width="2" height="61.53846153846154" id="death-date-14"></rect></g><g><rect x="143.54545454545453" y="56.92307692307692" width="2" height="43.07692307692308" id="death-date-15"></rect></g><g><rect x="139.9818181818182" y="46.15384615384615" width="2" height="53.84615384615385" id="death-date-16"></rect></g><g><rect x="136.41818181818184" y="12.307692307692308" width="2" height="87.6923076923077" id="death-date-17"></rect></g><g><rect x="132.85454545454544" y="33.84615384615385" width="2" height="66.15384615384616" id="death-date-18"></rect></g><g><rect x="129.29090909090908" y="23.076923076923073" width="2" height="76.92307692307693" id="death-date-19"></rect></g><g><rect x="125.72727272727273" y="32.30769230769231" width="2" height="67.6923076923077" id="death-date-20"></rect></g><g><rect x="122.16363636363636" y="38.46153846153846" width="2" height="61.53846153846154" id="death-date-21"></rect></g><g><rect x="118.6" y="33.84615384615385" width="2" height="66.15384615384616" id="death-date-22"></rect></g><g><rect x="115.03636363636363" y="40" width="2" height="60" id="death-date-23"></rect></g><g><rect x="111.47272727272728" y="6.153846153846154" width="2" height="93.84615384615384" id="death-date-24"></rect></g><g><rect x="107.90909090909089" y="29.230769230769226" width="2" height="70.76923076923077" id="death-date-25"></rect></g><g><rect x="104.34545454545456" y="26.15384615384615" width="2" height="73.84615384615385" id="death-date-26"></rect></g><g><rect x="100.78181818181817" y="10.769230769230765" width="2" height="89.23076923076924" id="death-date-27"></rect></g><g><rect x="97.21818181818183" y="16.92307692307692" width="2" height="83.07692307692308" id="death-date-28"></rect></g><g><rect x="93.65454545454546" y="6.153846153846154" width="2" height="93.84615384615384" id="death-date-29"></rect></g><g><rect x="90.09090909090911" y="18.461538461538463" width="2" height="81.53846153846153" id="death-date-30"></rect></g><g><rect x="86.52727272727273" y="3.076923076923077" width="2" height="96.92307692307692" id="death-date-31"></rect></g><g><rect x="82.96363636363637" y="33.84615384615385" width="2" height="66.15384615384616" id="death-date-32"></rect></g><g><rect x="79.4" y="3.076923076923077" width="2" height="96.92307692307692" id="death-date-33"></rect></g><g><rect x="75.83636363636364" y="13.846153846153841" width="2" height="86.15384615384616" id="death-date-34"></rect></g><g><rect x="72.27272727272727" y="27.692307692307693" width="2" height="72.3076923076923" id="death-date-35"></rect></g><g><rect x="68.70909090909092" y="18.461538461538463" width="2" height="81.53846153846153" id="death-date-36"></rect></g><g><rect x="65.14545454545454" y="29.230769230769226" width="2" height="70.76923076923077" id="death-date-37"></rect></g><g><rect x="61.58181818181818" y="30.76923076923077" width="2" height="69.23076923076923" id="death-date-38"></rect></g><g><rect x="58.018181818181816" y="52.3076923076923" width="2" height="47.6923076923077" id="death-date-39"></rect></g><g><rect x="54.454545454545446" y="24.615384615384617" width="2" height="75.38461538461539" id="death-date-40"></rect></g><g><rect x="50.89090909090908" y="33.84615384615385" width="2" height="66.15384615384616" id="death-date-41"></rect></g><g><rect x="47.32727272727273" y="19.999999999999996" width="2" height="80" id="death-date-42"></rect></g><g><rect x="43.76363636363636" y="21.53846153846154" width="2" height="78.46153846153845" id="death-date-43"></rect></g><g><rect x="40.199999999999996" y="19.999999999999996" width="2" height="80" id="death-date-44"></rect></g><g><rect x="36.636363636363626" y="36.92307692307693" width="2" height="63.07692307692307" id="death-date-45"></rect></g><g><rect x="33.072727272727285" y="27.692307692307693" width="2" height="72.3076923076923" id="death-date-46"></rect></g><g><rect x="29.509090909090922" y="27.692307692307693" width="2" height="72.3076923076923" id="death-date-47"></rect></g><g><rect x="25.945454545454556" y="24.615384615384617" width="2" height="75.38461538461539" id="death-date-48"></rect></g><g><rect x="22.38181818181819" y="41.53846153846153" width="2" height="58.46153846153847" id="death-date-49"></rect></g><g><rect x="18.818181818181824" y="32.30769230769231" width="2" height="67.6923076923077" id="death-date-50"></rect></g><g><rect x="15.254545454545461" y="40" width="2" height="60" id="death-date-51"></rect></g><g><rect x="11.690909090909095" y="49.23076923076923" width="2" height="50.76923076923077" id="death-date-52"></rect></g><g><rect x="8.12727272727273" y="63.07692307692307" width="2" height="36.92307692307693" id="death-date-53"></rect></g><g><rect x="4.563636363636365" y="53.84615384615385" width="2" height="46.15384615384615" id="death-date-54"></rect></g><g><rect x="1" y="53.84615384615385" width="2" height="46.15384615384615" id="death-date-55"></rect></g></g><g class="fg-line death-date" fill="none" stroke="#92c5de" stroke-width="2" stroke-linecap="round"><path d="M198,61.75824175824176L194.43636363636364,59.34065934065934L190.87272727272727,55.824175824175825L187.30909090909088,52.96703296703296L183.74545454545455,49.23076923076923L180.1818181818182,43.956043956043956L176.61818181818182,44.83516483516484L173.05454545454546,40.43956043956044L169.49090909090907,39.120879120879124L165.92727272727274,41.098901098901095L162.36363636363637,41.098901098901095L158.8,38.24175824175824L155.23636363636365,38.9010989010989L151.6727272727273,34.065934065934066L148.1090909090909,34.72527472527472L144.54545454545453,34.72527472527472L140.9818181818182,31.428571428571427L137.41818181818184,30.54945054945054L133.85454545454544,29.670329670329664L130.29090909090908,29.010989010989007L126.72727272727273,29.450549450549456L123.16363636363636,26.37362637362638L119.6,23.296703296703303L116.03636363636363,19.34065934065934L112.47272727272728,16.263736263736263L108.90909090909089,15.824175824175823L105.34545454545456,16.483516483516482L101.78181818181817,13.186813186813184L98.21818181818183,13.626373626373622L94.65454545454546,15.164835164835155L91.09090909090911,16.92307692307692L87.52727272727273,18.461538461538463L83.96363636363637,22.417582417582416L80.4,25.054945054945055L76.83636363636364,28.13186813186813L73.27272727272727,30.98901098901099L69.70909090909092,29.890109890109894L66.14545454545454,30.329670329670332L62.58181818181818,29.010989010989007L59.018181818181816,29.890109890109894L55.454545454545446,26.37362637362638L51.89090909090908,26.813186813186817L48.32727272727273,25.494505494505493L44.76363636363636,28.57142857142857L41.199999999999996,30.109890109890102L37.636363636363626,32.96703296703297L34.072727272727285,34.72527472527472L30.509090909090922,39.780219780219774L26.945454545454556,43.51648351648352L23.38181818181819,47.692307692307686L19.818181818181824,49.67032967032967L16.25454545454546,50.989010989010985L12.690909090909095,53.62637362637363L9.12727272727273,54.285714285714285L5.563636363636365,55.604395604395606L2,54.72527472527473"></path></g></svg>