<svg about="DATA_PUBLISHED_DATE:2021-11-27,RENDER_DATE:2021-11-27" xmlns="http://www.w3.org/2000/svg" viewBox="0,0,200,100"><g transform="translate(0,0)"></g><g class="fg-bars tests-vaccines" fill="#00183f" stroke="none"><g><rect x="197" y="1.3173076923076898" width="2" height="98.6826923076923" id="tests-vaccines-0"></rect></g><g><rect x="193.43636363636364" y="16.749615384615378" width="2" height="83.25038461538462" id="tests-vaccines-1"></rect></g><g><rect x="189.87272727272727" y="13.896538461538466" width="2" height="86.10346153846153" id="tests-vaccines-2"></rect></g><g><rect x="186.30909090909088" y="15.392692307692313" width="2" height="84.60730769230769" id="tests-vaccines-3"></rect></g><g><rect x="182.74545454545455" y="23.11192307692308" width="2" height="76.88807692307692" id="tests-vaccines-4"></rect></g><g><rect x="179.1818181818182" y="73.66730769230769" width="2" height="26.332692307692312" id="tests-vaccines-5"></rect></g><g><rect x="175.61818181818182" y="45.060769230769225" width="2" height="54.939230769230775" id="tests-vaccines-6"></rect></g><g><rect x="172.05454545454546" y="3.8588461538461516" width="2" height="96.14115384615386" id="tests-vaccines-7"></rect></g><g><rect x="168.49090909090907" y="19.378076923076925" width="2" height="80.62192307692308" id="tests-vaccines-8"></rect></g><g><rect x="164.92727272727274" y="15.985000000000005" width="2" height="84.015" id="tests-vaccines-9"></rect></g><g><rect x="161.36363636363637" y="18.61307692307692" width="2" height="81.38692307692308" id="tests-vaccines-10"></rect></g><g><rect x="157.8" y="24.934999999999995" width="2" height="75.065" id="tests-vaccines-11"></rect></g><g><rect x="154.23636363636365" y="74.98538461538462" width="2" height="25.014615384615382" id="tests-vaccines-12"></rect></g><g><rect x="150.6727272727273" y="52.32" width="2" height="47.68" id="tests-vaccines-13"></rect></g><g><rect x="147.1090909090909" y="8.930769230769231" width="2" height="91.06923076923077" id="tests-vaccines-14"></rect></g><g><rect x="143.54545454545453" y="25.755769230769232" width="2" height="74.24423076923077" id="tests-vaccines-15"></rect></g><g><rect x="139.9818181818182" y="28.164999999999996" width="2" height="71.83500000000001" id="tests-vaccines-16"></rect></g><g><rect x="136.41818181818184" y="27.798846153846156" width="2" height="72.20115384615384" id="tests-vaccines-17"></rect></g><g><rect x="132.85454545454544" y="32.135000000000005" width="2" height="67.865" id="tests-vaccines-18"></rect></g><g><rect x="129.29090909090908" y="80.56615384615384" width="2" height="19.43384615384616" id="tests-vaccines-19"></rect></g><g><rect x="125.72727272727273" y="60.57307692307692" width="2" height="39.42692307692308" id="tests-vaccines-20"></rect></g><g><rect x="122.16363636363636" y="16.667307692307688" width="2" height="83.33269230769231" id="tests-vaccines-21"></rect></g><g><rect x="118.6" y="30.483076923076922" width="2" height="69.51692307692308" id="tests-vaccines-22"></rect></g><g><rect x="115.03636363636363" y="30.363461538461532" width="2" height="69.63653846153846" id="tests-vaccines-23"></rect></g><g><rect x="111.47272727272728" y="31.222307692307695" width="2" height="68.7776923076923" id="tests-vaccines-24"></rect></g><g><rect x="107.90909090909089" y="37.50846153846153" width="2" height="62.49153846153847" id="tests-vaccines-25"></rect></g><g><rect x="104.34545454545456" y="81.85153846153847" width="2" height="18.148461538461532" id="tests-vaccines-26"></rect></g><g><rect x="100.78181818181817" y="64.53846153846155" width="2" height="35.46153846153845" id="tests-vaccines-27"></rect></g><g><rect x="97.21818181818183" y="37.75807692307692" width="2" height="62.24192307692308" id="tests-vaccines-28"></rect></g><g><rect x="93.65454545454546" y="63.10307692307693" width="2" height="36.89692307692307" id="tests-vaccines-29"></rect></g><g><rect x="90.09090909090911" y="64.55423076923077" width="2" height="35.44576923076923" id="tests-vaccines-30"></rect></g><g><rect x="86.52727272727273" y="63.37653846153846" width="2" height="36.62346153846154" id="tests-vaccines-31"></rect></g><g><rect x="82.96363636363637" y="61.82576923076923" width="2" height="38.17423076923077" id="tests-vaccines-32"></rect></g><g><rect x="79.4" y="88.285" width="2" height="11.715000000000003" id="tests-vaccines-33"></rect></g><g><rect x="75.83636363636364" y="77.40846153846154" width="2" height="22.591538461538462" id="tests-vaccines-34"></rect></g><g><rect x="72.27272727272727" y="51.71576923076924" width="2" height="48.28423076923076" id="tests-vaccines-35"></rect></g><g><rect x="68.70909090909092" y="61.418076923076924" width="2" height="38.581923076923076" id="tests-vaccines-36"></rect></g><g><rect x="65.14545454545454" y="61.92461538461538" width="2" height="38.07538461538462" id="tests-vaccines-37"></rect></g><g><rect x="61.58181818181818" y="59.50423076923077" width="2" height="40.49576923076923" id="tests-vaccines-38"></rect></g><g><rect x="58.018181818181816" y="58.973846153846154" width="2" height="41.026153846153846" id="tests-vaccines-39"></rect></g><g><rect x="54.454545454545446" y="86.33153846153846" width="2" height="13.668461538461543" id="tests-vaccines-40"></rect></g><g><rect x="50.89090909090908" y="74.94192307692308" width="2" height="25.058076923076925" id="tests-vaccines-41"></rect></g><g><rect x="47.32727272727273" y="45.235" width="2" height="54.765" id="tests-vaccines-42"></rect></g><g><rect x="43.76363636363636" y="55.112307692307695" width="2" height="44.887692307692305" id="tests-vaccines-43"></rect></g><g><rect x="40.199999999999996" y="58.19730769230769" width="2" height="41.80269230769231" id="tests-vaccines-44"></rect></g><g><rect x="36.636363636363626" y="57.19346153846154" width="2" height="42.80653846153846" id="tests-vaccines-45"></rect></g><g><rect x="33.072727272727285" y="57.40538461538461" width="2" height="42.59461538461539" id="tests-vaccines-46"></rect></g><g><rect x="29.509090909090922" y="85.27923076923076" width="2" height="14.720769230769235" id="tests-vaccines-47"></rect></g><g><rect x="25.945454545454556" y="73.88923076923078" width="2" height="26.110769230769222" id="tests-vaccines-48"></rect></g><g><rect x="22.38181818181819" y="44.22153846153846" width="2" height="55.77846153846154" id="tests-vaccines-49"></rect></g><g><rect x="18.818181818181824" y="49.31153846153846" width="2" height="50.68846153846154" id="tests-vaccines-50"></rect></g><g><rect x="15.254545454545461" y="50.38115384615385" width="2" height="49.61884615384615" id="tests-vaccines-51"></rect></g><g><rect x="11.690909090909095" y="50.224615384615376" width="2" height="49.775384615384624" id="tests-vaccines-52"></rect></g><g><rect x="8.12727272727273" y="54.32192307692307" width="2" height="45.67807692307693" id="tests-vaccines-53"></rect></g><g><rect x="4.563636363636365" y="84.84846153846154" width="2" height="15.151538461538465" id="tests-vaccines-54"></rect></g><g><rect x="1" y="72.725" width="2" height="27.275000000000006" id="tests-vaccines-55"></rect></g></g><g class="fg-line tests-vaccines" fill="none" stroke="#92c5de" stroke-width="2" stroke-linecap="round"><path d="M198,27.028021978021975L194.43636363636364,27.3910989010989L190.87272727272727,27.766593406593408L187.30909090909088,28.064945054945046L183.74545454545455,28.525L180.1818181818182,28.785439560439563L176.61818181818182,28.97373626373626L173.05454545454546,30.01076923076923L169.49090909090907,30.73532967032967L165.92727272727274,31.646428571428576L162.36363636363637,33.386428571428574L158.8,34.69868131868131L155.23636363636365,35.72725274725275L151.6727272727273,36.5245054945055L148.1090909090909,37.70351648351649L144.54545454545453,38.808736263736265L140.9818181818182,39.484065934065924L137.41818181818184,39.79813186813187L133.85454545454544,40.2871978021978L130.29090909090908,41.054835164835154L126.72727272727273,41.238461538461536L123.16363636363636,41.80494505494505L119.6,44.817912087912084L116.03636363636363,49.47791208791208L112.47272727272728,54.362307692307695L108.90909090909089,58.95576923076923L105.34545454545456,62.42967032967033L101.78181818181817,63.34873626373627L98.21818181818183,65.1873076923077L94.65454545454546,67.18126373626374L91.09090909090911,66.94054945054944L87.52727272727273,66.5648901098901L83.96363636363637,66.01170329670329L80.4,65.60428571428571L76.83636363636364,65.32521978021978L73.27272727272727,64.97285714285714L69.70909090909092,64.04703296703296L66.14545454545454,63.14620879120879L62.58181818181818,62.613736263736264L59.018181818181816,62.28362637362637L55.454545454545446,62.05956043956044L51.89090909090908,61.909230769230774L48.32727272727273,61.75884615384615L44.76363636363636,61.614065934065934L41.199999999999996,60.78538461538461L37.636363636363626,59.668791208791205L34.072727272727285,58.67324175824176L30.509090909090922,58.23274725274725L26.945454545454556,58.171208791208784L23.38181818181819,58.00489010989012L19.818181818181824,60.01912087912088L16.25454545454546,63.303241758241754L12.690909090909095,66.42478021978022L9.12727272727273,69.44934065934065L5.563636363636365,71.5603846153846L2,71.92142857142858"></path></g></svg>