<svg about="DATA_PUBLISHED_DATE:2021-10-01,RENDER_DATE:2021-10-01" xmlns="http://www.w3.org/2000/svg" viewBox="0,0,200,100"><g transform="translate(0,0)"></g><g class="fg-bars tests-vaccines" fill="#00183f" stroke="none"><g><rect x="197" y="46.5" width="2" height="53.5" id="tests-vaccines-0"></rect></g><g><rect x="193.43636363636364" y="46.37769230769231" width="2" height="53.62230769230769" id="tests-vaccines-1"></rect></g><g><rect x="189.87272727272727" y="44.64307692307692" width="2" height="55.35692307692308" id="tests-vaccines-2"></rect></g><g><rect x="186.30909090909088" y="39.893846153846155" width="2" height="60.106153846153845" id="tests-vaccines-3"></rect></g><g><rect x="182.74545454545455" y="75.23615384615385" width="2" height="24.763846153846146" id="tests-vaccines-4"></rect></g><g><rect x="179.1818181818182" y="57.059230769230766" width="2" height="42.940769230769234" id="tests-vaccines-5"></rect></g><g><rect x="175.61818181818182" y="27.953076923076924" width="2" height="72.04692307692308" id="tests-vaccines-6"></rect></g><g><rect x="172.05454545454546" y="38.33230769230769" width="2" height="61.66769230769231" id="tests-vaccines-7"></rect></g><g><rect x="168.49090909090907" y="40.00307692307692" width="2" height="59.99692307692308" id="tests-vaccines-8"></rect></g><g><rect x="164.92727272727274" y="39.4623076923077" width="2" height="60.5376923076923" id="tests-vaccines-9"></rect></g><g><rect x="161.36363636363637" y="36.36923076923077" width="2" height="63.63076923076923" id="tests-vaccines-10"></rect></g><g><rect x="157.8" y="73.23615384615385" width="2" height="26.763846153846146" id="tests-vaccines-11"></rect></g><g><rect x="154.23636363636365" y="52.470769230769235" width="2" height="47.529230769230765" id="tests-vaccines-12"></rect></g><g><rect x="150.6727272727273" y="18.68153846153846" width="2" height="81.31846153846155" id="tests-vaccines-13"></rect></g><g><rect x="147.1090909090909" y="33.35538461538462" width="2" height="66.64461538461538" id="tests-vaccines-14"></rect></g><g><rect x="143.54545454545453" y="32.746923076923075" width="2" height="67.25307692307692" id="tests-vaccines-15"></rect></g><g><rect x="139.9818181818182" y="25.73615384615384" width="2" height="74.26384615384616" id="tests-vaccines-16"></rect></g><g><rect x="136.41818181818184" y="85.35307692307693" width="2" height="14.646923076923073" id="tests-vaccines-17"></rect></g><g><rect x="132.85454545454544" y="71.15461538461538" width="2" height="28.845384615384617" id="tests-vaccines-18"></rect></g><g><rect x="129.29090909090908" y="51.620769230769234" width="2" height="48.379230769230766" id="tests-vaccines-19"></rect></g><g><rect x="125.72727272727273" y="10.837692307692304" width="2" height="89.16230769230769" id="tests-vaccines-20"></rect></g><g><rect x="122.16363636363636" y="29.01615384615385" width="2" height="70.98384615384614" id="tests-vaccines-21"></rect></g><g><rect x="118.6" y="27.004615384615384" width="2" height="72.99538461538461" id="tests-vaccines-22"></rect></g><g><rect x="115.03636363636363" y="23.89692307692308" width="2" height="76.10307692307691" id="tests-vaccines-23"></rect></g><g><rect x="111.47272727272728" y="22.949230769230766" width="2" height="77.05076923076923" id="tests-vaccines-24"></rect></g><g><rect x="107.90909090909089" y="67.34769230769231" width="2" height="32.65230769230769" id="tests-vaccines-25"></rect></g><g><rect x="104.34545454545456" y="40.355384615384615" width="2" height="59.644615384615385" id="tests-vaccines-26"></rect></g><g><rect x="100.78181818181817" y="1.7784615384615399" width="2" height="98.22153846153846" id="tests-vaccines-27"></rect></g><g><rect x="97.21818181818183" y="20.233076923076922" width="2" height="79.76692307692308" id="tests-vaccines-28"></rect></g><g><rect x="93.65454545454546" y="21.256153846153847" width="2" height="78.74384615384615" id="tests-vaccines-29"></rect></g><g><rect x="90.09090909090911" y="18.228461538461538" width="2" height="81.77153846153846" id="tests-vaccines-30"></rect></g><g><rect x="86.52727272727273" y="18.73538461538462" width="2" height="81.26461538461538" id="tests-vaccines-31"></rect></g><g><rect x="82.96363636363637" y="67.81384615384616" width="2" height="32.18615384615384" id="tests-vaccines-32"></rect></g><g><rect x="79.4" y="41.90846153846154" width="2" height="58.09153846153846" id="tests-vaccines-33"></rect></g><g><rect x="75.83636363636364" y="2.8676923076923044" width="2" height="97.13230769230769" id="tests-vaccines-34"></rect></g><g><rect x="72.27272727272727" y="22.064615384615383" width="2" height="77.93538461538462" id="tests-vaccines-35"></rect></g><g><rect x="68.70909090909092" y="21.778461538461535" width="2" height="78.22153846153847" id="tests-vaccines-36"></rect></g><g><rect x="65.14545454545454" y="21.570769230769226" width="2" height="78.42923076923077" id="tests-vaccines-37"></rect></g><g><rect x="61.58181818181818" y="25.396923076923073" width="2" height="74.60307692307693" id="tests-vaccines-38"></rect></g><g><rect x="58.018181818181816" y="68.89769230769231" width="2" height="31.10230769230769" id="tests-vaccines-39"></rect></g><g><rect x="54.454545454545446" y="44.12076923076923" width="2" height="55.87923076923077" id="tests-vaccines-40"></rect></g><g><rect x="50.89090909090908" y="14.28076923076923" width="2" height="85.71923076923076" id="tests-vaccines-41"></rect></g><g><rect x="47.32727272727273" y="32.283076923076926" width="2" height="67.71692307692308" id="tests-vaccines-42"></rect></g><g><rect x="43.76363636363636" y="35.793076923076924" width="2" height="64.20692307692308" id="tests-vaccines-43"></rect></g><g><rect x="40.199999999999996" y="29.80538461538461" width="2" height="70.19461538461539" id="tests-vaccines-44"></rect></g><g><rect x="36.636363636363626" y="32.43153846153846" width="2" height="67.56846153846155" id="tests-vaccines-45"></rect></g><g><rect x="33.072727272727285" y="73.07307692307691" width="2" height="26.92692307692309" id="tests-vaccines-46"></rect></g><g><rect x="29.509090909090922" y="50.75769230769232" width="2" height="49.24230769230768" id="tests-vaccines-47"></rect></g><g><rect x="25.945454545454556" y="19.392307692307696" width="2" height="80.6076923076923" id="tests-vaccines-48"></rect></g><g><rect x="22.38181818181819" y="33.47" width="2" height="66.53" id="tests-vaccines-49"></rect></g><g><rect x="18.818181818181824" y="34.79692307692308" width="2" height="65.20307692307692" id="tests-vaccines-50"></rect></g><g><rect x="15.254545454545461" y="31.137692307692312" width="2" height="68.8623076923077" id="tests-vaccines-51"></rect></g><g><rect x="11.690909090909095" y="38.4423076923077" width="2" height="61.5576923076923" id="tests-vaccines-52"></rect></g><g><rect x="8.12727272727273" y="76.77230769230769" width="2" height="23.22769230769231" id="tests-vaccines-53"></rect></g><g><rect x="4.563636363636365" y="54.01538461538462" width="2" height="45.98461538461538" id="tests-vaccines-54"></rect></g><g><rect x="1" y="25.86615384615385" width="2" height="74.13384615384615" id="tests-vaccines-55"></rect></g></g><g class="fg-line tests-vaccines" fill="none" stroke="#92c5de" stroke-width="2" stroke-linecap="round"><path d="M198,48.237582417582416L194.43636363636364,47.07076923076923L190.87272727272727,46.160109890109894L187.30909090909088,45.42L183.74545454545455,44.91648351648351L180.1818181818182,44.63076923076923L176.61818181818182,43.97527472527473L173.05454545454546,42.65076923076923L169.49090909090907,41.93978021978022L165.92727272727274,40.90318681318681L162.36363636363637,38.942307692307686L158.8,45.940000000000005L155.23636363636365,45.64263736263736L151.6727272727273,45.5212087912088L148.1090909090909,44.400659340659345L144.54545454545453,43.78076923076924L140.9818181818182,42.96043956043957L137.41818181818184,42.6976923076923L133.85454545454544,33.78285714285715L130.29090909090908,33.239010989011L126.72727272727273,31.629670329670333L123.16363636363636,30.33549450549451L119.6,29.08076923076923L116.03636363636363,28.25956043956044L112.47272727272728,27.449780219780216L108.90909090909089,26.847802197802196L105.34545454545456,26.9143956043956L101.78181818181817,27.136263736263732L98.21818181818183,27.291868131868124L94.65454545454546,27.553516483516493L91.09090909090911,27.628131868131877L87.52727272727273,28.105604395604388L83.96363636363637,29.057252747252736L80.4,29.212087912087913L76.83636363636364,29.52813186813187L73.27272727272727,31.158571428571424L69.70909090909092,32.61835164835165L66.14545454545454,34.620439560439564L62.58181818181818,35.79681318681319L59.018181818181816,36.80175824175824L55.454545454545446,37.39824175824176L51.89090909090908,38.34637362637362L48.32727272727273,39.07659340659341L44.76363636363636,39.246153846153845L41.199999999999996,39.103846153846156L37.636363636363626,39.29417582417582L34.072727272727285,40.152857142857144L30.509090909090922,40.68131868131869L26.945454545454556,41.1467032967033L23.38181818181819,42.07153846153846L19.818181818181824,42.61835164835165L16.25454545454546,42.67846153846154L12.690909090909095,43.17087912087912L9.12727272727273,44.05120879120879L5.563636363636365,44.549780219780224L2,44.95043956043957"></path></g></svg>