<svg about="DATA_PUBLISHED_DATE:2021-12-07,RENDER_DATE:2021-12-07" xmlns="http://www.w3.org/2000/svg" viewBox="0,0,200,100"><g transform="translate(0,0)"></g><g class="fg-bars cases-ep" fill="#00183f" stroke="none"><g><rect x="197" y="57.325" width="2" height="42.675" id="cases-ep-0"></rect></g><g><rect x="193.43636363636364" y="55.537499999999994" width="2" height="44.462500000000006" id="cases-ep-1"></rect></g><g><rect x="189.87272727272727" y="52.175" width="2" height="47.825" id="cases-ep-2"></rect></g><g><rect x="186.30909090909088" y="76.15" width="2" height="23.849999999999994" id="cases-ep-3"></rect></g><g><rect x="182.74545454545455" y="45.137499999999996" width="2" height="54.862500000000004" id="cases-ep-4"></rect></g><g><rect x="179.1818181818182" y="42.225" width="2" height="57.775" id="cases-ep-5"></rect></g><g><rect x="175.61818181818182" y="37.275000000000006" width="2" height="62.724999999999994" id="cases-ep-6"></rect></g><g><rect x="172.05454545454546" y="64.63749999999999" width="2" height="35.36250000000001" id="cases-ep-7"></rect></g><g><rect x="168.49090909090907" y="60.775" width="2" height="39.225" id="cases-ep-8"></rect></g><g><rect x="164.92727272727274" y="43.625" width="2" height="56.375" id="cases-ep-9"></rect></g><g><rect x="161.36363636363637" y="42.7125" width="2" height="57.2875" id="cases-ep-10"></rect></g><g><rect x="157.8" y="36.4125" width="2" height="63.5875" id="cases-ep-11"></rect></g><g><rect x="154.23636363636365" y="32.9" width="2" height="67.1" id="cases-ep-12"></rect></g><g><rect x="150.6727272727273" y="21.3125" width="2" height="78.6875" id="cases-ep-13"></rect></g><g><rect x="147.1090909090909" y="60.050000000000004" width="2" height="39.949999999999996" id="cases-ep-14"></rect></g><g><rect x="143.54545454545453" y="57.5125" width="2" height="42.4875" id="cases-ep-15"></rect></g><g><rect x="139.9818181818182" y="37.0875" width="2" height="62.9125" id="cases-ep-16"></rect></g><g><rect x="136.41818181818184" y="46.5125" width="2" height="53.4875" id="cases-ep-17"></rect></g><g><rect x="132.85454545454544" y="30.700000000000006" width="2" height="69.3" id="cases-ep-18"></rect></g><g><rect x="129.29090909090908" y="27.0875" width="2" height="72.9125" id="cases-ep-19"></rect></g><g><rect x="125.72727272727273" y="17.6875" width="2" height="82.3125" id="cases-ep-20"></rect></g><g><rect x="122.16363636363636" y="57.074999999999996" width="2" height="42.925000000000004" id="cases-ep-21"></rect></g><g><rect x="118.6" y="54.49999999999999" width="2" height="45.50000000000001" id="cases-ep-22"></rect></g><g><rect x="115.03636363636363" y="31.2125" width="2" height="68.7875" id="cases-ep-23"></rect></g><g><rect x="111.47272727272728" y="25.2625" width="2" height="74.7375" id="cases-ep-24"></rect></g><g><rect x="107.90909090909089" y="20.674999999999997" width="2" height="79.325" id="cases-ep-25"></rect></g><g><rect x="104.34545454545456" y="19.587500000000002" width="2" height="80.4125" id="cases-ep-26"></rect></g><g><rect x="100.78181818181817" y="8.375" width="2" height="91.625" id="cases-ep-27"></rect></g><g><rect x="97.21818181818183" y="56.662499999999994" width="2" height="43.337500000000006" id="cases-ep-28"></rect></g><g><rect x="93.65454545454546" y="51.0625" width="2" height="48.9375" id="cases-ep-29"></rect></g><g><rect x="90.09090909090911" y="29.974999999999994" width="2" height="70.025" id="cases-ep-30"></rect></g><g><rect x="86.52727272727273" y="24.662499999999998" width="2" height="75.3375" id="cases-ep-31"></rect></g><g><rect x="82.96363636363637" y="18.974999999999998" width="2" height="81.025" id="cases-ep-32"></rect></g><g><rect x="79.4" y="15.912499999999996" width="2" height="84.0875" id="cases-ep-33"></rect></g><g><rect x="75.83636363636364" y="10.487500000000004" width="2" height="89.51249999999999" id="cases-ep-34"></rect></g><g><rect x="72.27272727272727" y="55.800000000000004" width="2" height="44.199999999999996" id="cases-ep-35"></rect></g><g><rect x="68.70909090909092" y="49.737500000000004" width="2" height="50.262499999999996" id="cases-ep-36"></rect></g><g><rect x="65.14545454545454" y="25.775000000000002" width="2" height="74.225" id="cases-ep-37"></rect></g><g><rect x="61.58181818181818" y="26.6" width="2" height="73.4" id="cases-ep-38"></rect></g><g><rect x="58.018181818181816" y="22.537499999999998" width="2" height="77.4625" id="cases-ep-39"></rect></g><g><rect x="54.454545454545446" y="20.85" width="2" height="79.15" id="cases-ep-40"></rect></g><g><rect x="50.89090909090908" y="12.549999999999994" width="2" height="87.45" id="cases-ep-41"></rect></g><g><rect x="47.32727272727273" y="55.662499999999994" width="2" height="44.337500000000006" id="cases-ep-42"></rect></g><g><rect x="43.76363636363636" y="54.825" width="2" height="45.175" id="cases-ep-43"></rect></g><g><rect x="40.199999999999996" y="34.5375" width="2" height="65.4625" id="cases-ep-44"></rect></g><g><rect x="36.636363636363626" y="34.52499999999999" width="2" height="65.47500000000001" id="cases-ep-45"></rect></g><g><rect x="33.072727272727285" y="30.200000000000003" width="2" height="69.8" id="cases-ep-46"></rect></g><g><rect x="29.509090909090922" y="27.949999999999996" width="2" height="72.05000000000001" id="cases-ep-47"></rect></g><g><rect x="25.945454545454556" y="27.987499999999997" width="2" height="72.0125" id="cases-ep-48"></rect></g><g><rect x="22.38181818181819" y="59.175" width="2" height="40.825" id="cases-ep-49"></rect></g><g><rect x="18.818181818181824" y="56.512499999999996" width="2" height="43.487500000000004" id="cases-ep-50"></rect></g><g><rect x="15.254545454545461" y="35.775" width="2" height="64.225" id="cases-ep-51"></rect></g><g><rect x="11.690909090909095" y="34.137499999999996" width="2" height="65.86250000000001" id="cases-ep-52"></rect></g><g><rect x="8.12727272727273" y="25.5625" width="2" height="74.4375" id="cases-ep-53"></rect></g><g><rect x="4.563636363636365" y="22.624999999999996" width="2" height="77.375" id="cases-ep-54"></rect></g><g><rect x="1" y="15.549999999999997" width="2" height="84.45" id="cases-ep-55"></rect></g></g><g class="fg-line cases-ep" fill="none" stroke="#92c5de" stroke-width="2" stroke-linecap="round"><path d="M198,52.260714285714286L194.43636363636364,53.30535714285715L190.87272727272727,54.05357142857143L187.30909090909088,52.83214285714286L183.74545454545455,48.05535714285715L180.1818181818182,46.80892857142857L176.61818181818182,45.476785714285704L173.05454545454546,43.19642857142857L169.49090909090907,42.54107142857143L165.92727272727274,42.074999999999996L162.36363636363637,41.14107142857143L158.8,41.68392857142857L155.23636363636365,40.86785714285715L151.6727272727273,40.0375L148.1090909090909,39.519642857142856L144.54545454545453,39.09464285714286L140.9818181818182,38.664285714285704L137.41818181818184,37.824999999999996L133.85454545454544,34.78928571428571L130.29090909090908,33.357142857142854L126.72727272727273,32.285714285714285L123.16363636363636,30.955357142857142L119.6,30.89642857142857L116.03636363636363,30.40535714285715L112.47272727272728,30.22857142857144L108.90909090909089,30.14285714285715L105.34545454545456,29.900000000000006L101.78181818181817,29.374999999999996L98.21818181818183,29.676785714285714L94.65454545454546,29.553571428571434L91.09090909090911,29.36428571428571L87.52727272727273,28.76428571428571L83.96363636363637,29.04107142857143L80.4,29.549999999999997L76.83636363636364,30.255357142857143L73.27272727272727,30.55L69.70909090909092,30.530357142857145L66.14545454545454,31.25714285714285L62.58181818181818,32.50892857142856L59.018181818181816,33.641071428571436L55.454545454545446,34.735714285714295L51.89090909090908,35.75000000000001L48.32727272727273,37.955357142857146L44.76363636363636,38.457142857142856L41.199999999999996,38.69821428571429L37.636363636363626,38.87500000000001L34.072727272727285,38.81964285714285L30.509090909090922,38.15714285714286L26.945454545454556,37.396428571428565L23.38181818181819,35.61964285714285L19.818181818181824,35.45L16.25454545454546,35.13214285714285L12.690909090909095,34.162499999999994L9.12727272727273,33.31428571428571L5.563636363636365,32.93392857142856L2,31.998214285714287"></path></g></svg>