<svg meta="{&quot;DATA_PUBLISHED_DATE&quot;:&quot;2022-05-20&quot;,&quot;RENDER_DATE&quot;:&quot;2022-05-20&quot;,&quot;FIRST_DATE&quot;:&quot;2022-03-18&quot;,&quot;LAST_DATE&quot;:&quot;2022-05-12&quot;}" xmlns="http://www.w3.org/2000/svg" viewBox="0,0,200,100"><g transform="translate(0,0)"></g><g class="fg-bars tests-vaccines" fill="#00183f" stroke="none"><g><rect x="197" y="40.108" width="2" height="59.892" id="tests-vaccines-0"></rect></g><g><rect x="193.43636363636364" y="40.92" width="2" height="59.08" id="tests-vaccines-1"></rect></g><g><rect x="189.87272727272727" y="44.318999999999996" width="2" height="55.681000000000004" id="tests-vaccines-2"></rect></g><g><rect x="186.30909090909088" y="44.923" width="2" height="55.077" id="tests-vaccines-3"></rect></g><g><rect x="182.74545454545455" y="87.309" width="2" height="12.691000000000003" id="tests-vaccines-4"></rect></g><g><rect x="179.1818181818182" y="69.843" width="2" height="30.156999999999996" id="tests-vaccines-5"></rect></g><g><rect x="175.61818181818182" y="31.813999999999997" width="2" height="68.186" id="tests-vaccines-6"></rect></g><g><rect x="172.05454545454546" y="41.213" width="2" height="58.787" id="tests-vaccines-7"></rect></g><g><rect x="168.49090909090907" y="41.193999999999996" width="2" height="58.806000000000004" id="tests-vaccines-8"></rect></g><g><rect x="164.92727272727274" y="41.717999999999996" width="2" height="58.282000000000004" id="tests-vaccines-9"></rect></g><g><rect x="161.36363636363637" y="41.925000000000004" width="2" height="58.074999999999996" id="tests-vaccines-10"></rect></g><g><rect x="157.8" y="82.16600000000001" width="2" height="17.83399999999999" id="tests-vaccines-11"></rect></g><g><rect x="154.23636363636365" y="65.469" width="2" height="34.531000000000006" id="tests-vaccines-12"></rect></g><g><rect x="150.6727272727273" y="29.293999999999997" width="2" height="70.706" id="tests-vaccines-13"></rect></g><g><rect x="147.1090909090909" y="34.026" width="2" height="65.97399999999999" id="tests-vaccines-14"></rect></g><g><rect x="143.54545454545453" y="34.561" width="2" height="65.439" id="tests-vaccines-15"></rect></g><g><rect x="139.9818181818182" y="35.692" width="2" height="64.30799999999999" id="tests-vaccines-16"></rect></g><g><rect x="136.41818181818184" y="36.145" width="2" height="63.855" id="tests-vaccines-17"></rect></g><g><rect x="132.85454545454544" y="81.34700000000001" width="2" height="18.65299999999999" id="tests-vaccines-18"></rect></g><g><rect x="129.29090909090908" y="62.641000000000005" width="2" height="37.358999999999995" id="tests-vaccines-19"></rect></g><g><rect x="125.72727272727273" y="35.92999999999999" width="2" height="64.07000000000001" id="tests-vaccines-20"></rect></g><g><rect x="122.16363636363636" y="29.133" width="2" height="70.867" id="tests-vaccines-21"></rect></g><g><rect x="118.6" y="27.997000000000007" width="2" height="72.00299999999999" id="tests-vaccines-22"></rect></g><g><rect x="115.03636363636363" y="24.421000000000003" width="2" height="75.579" id="tests-vaccines-23"></rect></g><g><rect x="111.47272727272728" y="24.312" width="2" height="75.688" id="tests-vaccines-24"></rect></g><g><rect x="107.90909090909089" y="89.93299999999999" width="2" height="10.067000000000007" id="tests-vaccines-25"></rect></g><g><rect x="104.34545454545456" y="60.15200000000001" width="2" height="39.84799999999999" id="tests-vaccines-26"></rect></g><g><rect x="100.78181818181817" y="14.11" width="2" height="85.89" id="tests-vaccines-27"></rect></g><g><rect x="97.21818181818183" y="21.053" width="2" height="78.947" id="tests-vaccines-28"></rect></g><g><rect x="93.65454545454546" y="22.591000000000005" width="2" height="77.40899999999999" id="tests-vaccines-29"></rect></g><g><rect x="90.09090909090911" y="19.972999999999995" width="2" height="80.027" id="tests-vaccines-30"></rect></g><g><rect x="86.52727272727273" y="23.177999999999997" width="2" height="76.822" id="tests-vaccines-31"></rect></g><g><rect x="82.96363636363637" y="75.19" width="2" height="24.810000000000002" id="tests-vaccines-32"></rect></g><g><rect x="79.4" y="55.008" width="2" height="44.992" id="tests-vaccines-33"></rect></g><g><rect x="75.83636363636364" y="13.371999999999995" width="2" height="86.628" id="tests-vaccines-34"></rect></g><g><rect x="72.27272727272727" y="24.746999999999996" width="2" height="75.253" id="tests-vaccines-35"></rect></g><g><rect x="68.70909090909092" y="24.880000000000003" width="2" height="75.12" id="tests-vaccines-36"></rect></g><g><rect x="65.14545454545454" y="24.072000000000003" width="2" height="75.928" id="tests-vaccines-37"></rect></g><g><rect x="61.58181818181818" y="23.582000000000004" width="2" height="76.41799999999999" id="tests-vaccines-38"></rect></g><g><rect x="58.018181818181816" y="73.808" width="2" height="26.191999999999993" id="tests-vaccines-39"></rect></g><g><rect x="54.454545454545446" y="53.532000000000004" width="2" height="46.467999999999996" id="tests-vaccines-40"></rect></g><g><rect x="50.89090909090908" y="8.509999999999994" width="2" height="91.49000000000001" id="tests-vaccines-41"></rect></g><g><rect x="47.32727272727273" y="26.417" width="2" height="73.583" id="tests-vaccines-42"></rect></g><g><rect x="43.76363636363636" y="38.75999999999999" width="2" height="61.24000000000001" id="tests-vaccines-43"></rect></g><g><rect x="40.199999999999996" y="68.12400000000001" width="2" height="31.87599999999999" id="tests-vaccines-44"></rect></g><g><rect x="36.636363636363626" y="73.97" width="2" height="26.03" id="tests-vaccines-45"></rect></g><g><rect x="33.072727272727285" y="89.85600000000001" width="2" height="10.143999999999991" id="tests-vaccines-46"></rect></g><g><rect x="29.509090909090922" y="80.522" width="2" height="19.477999999999994" id="tests-vaccines-47"></rect></g><g><rect x="25.945454545454556" y="62.832" width="2" height="37.168" id="tests-vaccines-48"></rect></g><g><rect x="22.38181818181819" y="70.95" width="2" height="29.049999999999997" id="tests-vaccines-49"></rect></g><g><rect x="18.818181818181824" y="69.901" width="2" height="30.099000000000004" id="tests-vaccines-50"></rect></g><g><rect x="15.254545454545461" y="70.791" width="2" height="29.209000000000003" id="tests-vaccines-51"></rect></g><g><rect x="11.690909090909095" y="68.41900000000001" width="2" height="31.58099999999999" id="tests-vaccines-52"></rect></g><g><rect x="8.12727272727273" y="88.339" width="2" height="11.661000000000001" id="tests-vaccines-53"></rect></g><g><rect x="4.563636363636365" y="75.84500000000001" width="2" height="24.154999999999987" id="tests-vaccines-54"></rect></g><g><rect x="1" y="56.565" width="2" height="43.435" id="tests-vaccines-55"></rect></g></g><g class="fg-line tests-vaccines" fill="none" stroke="#92c5de" stroke-width="2" stroke-linecap="round"><path d="M198,51.319428571428574L194.43636363636364,51.47728571428571L190.87272727272727,51.51642857142858L187.30909090909088,51.14485714285715L183.74545454545455,50.71657142857142L180.1818181818182,49.981857142857145L176.61818181818182,49.35699999999999L173.05454545454546,48.997L169.49090909090907,47.97028571428572L165.92727272727274,47.02271428571429L162.36363636363637,46.161857142857144L158.8,45.33614285714286L155.23636363636365,45.219142857142856L151.6727272727273,44.81514285714285L148.1090909090909,45.76314285714286L144.54545454545453,45.064142857142855L140.9818181818182,44.126428571428576L137.41818181818184,42.516285714285715L133.85454545454544,40.825857142857146L130.29090909090908,42.05242857142857L126.72727272727273,41.69685714285715L123.16363636363636,38.57971428571428L119.6,37.425428571428576L116.03636363636363,36.65314285714285L112.47272727272728,36.017714285714284L108.90909090909089,35.85571428571428L105.34545454545456,33.749571428571436L101.78181818181817,33.014714285714284L98.21818181818183,32.90928571428571L94.65454545454546,33.437L91.09090909090911,33.764L87.52727272727273,34.34957142857144L83.96363636363637,34.407285714285706L80.4,34.209857142857146L76.83636363636364,33.999L73.27272727272727,33.304428571428566L69.70909090909092,33.543L66.14545454545454,35.52585714285714L62.58181818181818,41.818999999999996L59.018181818181816,49.01728571428572L55.454545454545446,51.30985714285714L51.89090909090908,55.165571428571425L48.32727272727273,62.92585714285715L44.76363636363636,69.28771428571429L41.199999999999996,73.73642857142858L37.636363636363626,74.11742857142858L34.072727272727285,73.32442857142858L30.509090909090922,73.10771428571428L26.945454545454556,72.43957142857143L23.38181818181819,71.54428571428572L19.818181818181824,71.23257142857142L16.25454545454546,70.921L12.690909090909095,70.50842857142857L9.12727272727273,70.55285714285714L5.563636363636365,70.468L2,70.223"></path></g></svg>