<svg meta="{&quot;DATA_PUBLISHED_DATE&quot;:&quot;2022-07-08&quot;,&quot;RENDER_DATE&quot;:&quot;2022-07-08&quot;,&quot;FIRST_DATE&quot;:&quot;2022-05-05&quot;,&quot;LAST_DATE&quot;:&quot;2022-06-29&quot;}" xmlns="http://www.w3.org/2000/svg" viewBox="0,0,200,100"><g transform="translate(0,0)"></g><g class="fg-bars cases-ep" fill="#00183f" stroke="none"><g><rect x="197" y="20.816666666666674" width="2" height="79.18333333333332" id="cases-ep-0"></rect></g><g><rect x="193.43636363636364" y="15.195833333333331" width="2" height="84.80416666666667" id="cases-ep-1"></rect></g><g><rect x="189.87272727272727" y="8.962499999999995" width="2" height="91.03750000000001" id="cases-ep-2"></rect></g><g><rect x="186.30909090909088" y="57.77083333333333" width="2" height="42.22916666666667" id="cases-ep-3"></rect></g><g><rect x="182.74545454545455" y="53.09166666666667" width="2" height="46.90833333333333" id="cases-ep-4"></rect></g><g><rect x="179.1818181818182" y="33.27916666666667" width="2" height="66.72083333333333" id="cases-ep-5"></rect></g><g><rect x="175.61818181818182" y="29.82083333333333" width="2" height="70.17916666666667" id="cases-ep-6"></rect></g><g><rect x="172.05454545454546" y="27.245833333333337" width="2" height="72.75416666666666" id="cases-ep-7"></rect></g><g><rect x="168.49090909090907" y="20.262500000000006" width="2" height="79.7375" id="cases-ep-8"></rect></g><g><rect x="164.92727272727274" y="25.83333333333333" width="2" height="74.16666666666667" id="cases-ep-9"></rect></g><g><rect x="161.36363636363637" y="62.15416666666667" width="2" height="37.84583333333333" id="cases-ep-10"></rect></g><g><rect x="157.8" y="57.58333333333333" width="2" height="42.41666666666667" id="cases-ep-11"></rect></g><g><rect x="154.23636363636365" y="38.695833333333326" width="2" height="61.304166666666674" id="cases-ep-12"></rect></g><g><rect x="150.6727272727273" y="36.9625" width="2" height="63.0375" id="cases-ep-13"></rect></g><g><rect x="147.1090909090909" y="32.55416666666666" width="2" height="67.44583333333334" id="cases-ep-14"></rect></g><g><rect x="143.54545454545453" y="30.262500000000003" width="2" height="69.7375" id="cases-ep-15"></rect></g><g><rect x="139.9818181818182" y="23.358333333333338" width="2" height="76.64166666666667" id="cases-ep-16"></rect></g><g><rect x="136.41818181818184" y="63.03333333333334" width="2" height="36.96666666666666" id="cases-ep-17"></rect></g><g><rect x="132.85454545454544" y="58.88333333333333" width="2" height="41.11666666666667" id="cases-ep-18"></rect></g><g><rect x="129.29090909090908" y="35.71666666666666" width="2" height="64.28333333333333" id="cases-ep-19"></rect></g><g><rect x="125.72727272727273" y="34.15416666666666" width="2" height="65.84583333333333" id="cases-ep-20"></rect></g><g><rect x="122.16363636363636" y="26.52083333333334" width="2" height="73.47916666666666" id="cases-ep-21"></rect></g><g><rect x="118.6" y="21.862499999999997" width="2" height="78.1375" id="cases-ep-22"></rect></g><g><rect x="115.03636363636363" y="13.158333333333339" width="2" height="86.84166666666667" id="cases-ep-23"></rect></g><g><rect x="111.47272727272728" y="60.22083333333333" width="2" height="39.77916666666667" id="cases-ep-24"></rect></g><g><rect x="107.90909090909089" y="56.012499999999996" width="2" height="43.987500000000004" id="cases-ep-25"></rect></g><g><rect x="104.34545454545456" y="32.025000000000006" width="2" height="67.975" id="cases-ep-26"></rect></g><g><rect x="100.78181818181817" y="25.25833333333334" width="2" height="74.74166666666666" id="cases-ep-27"></rect></g><g><rect x="97.21818181818183" y="14.183333333333337" width="2" height="85.81666666666666" id="cases-ep-28"></rect></g><g><rect x="93.65454545454546" y="0.5708333333333315" width="2" height="99.42916666666667" id="cases-ep-29"></rect></g><g><rect x="90.09090909090911" y="64.19166666666666" width="2" height="35.80833333333334" id="cases-ep-30"></rect></g><g><rect x="86.52727272727273" y="67.27916666666667" width="2" height="32.72083333333333" id="cases-ep-31"></rect></g><g><rect x="82.96363636363637" y="63.1625" width="2" height="36.8375" id="cases-ep-32"></rect></g><g><rect x="79.4" y="41.025" width="2" height="58.975" id="cases-ep-33"></rect></g><g><rect x="75.83636363636364" y="35.47083333333333" width="2" height="64.52916666666667" id="cases-ep-34"></rect></g><g><rect x="72.27272727272727" y="28.75833333333333" width="2" height="71.24166666666667" id="cases-ep-35"></rect></g><g><rect x="68.70909090909092" y="24.391666666666666" width="2" height="75.60833333333333" id="cases-ep-36"></rect></g><g><rect x="65.14545454545454" y="18.94583333333333" width="2" height="81.05416666666667" id="cases-ep-37"></rect></g><g><rect x="61.58181818181818" y="63.81250000000001" width="2" height="36.18749999999999" id="cases-ep-38"></rect></g><g><rect x="58.018181818181816" y="62.5875" width="2" height="37.4125" id="cases-ep-39"></rect></g><g><rect x="54.454545454545446" y="41.92083333333333" width="2" height="58.07916666666667" id="cases-ep-40"></rect></g><g><rect x="50.89090909090908" y="39" width="2" height="61" id="cases-ep-41"></rect></g><g><rect x="47.32727272727273" y="34.35" width="2" height="65.65" id="cases-ep-42"></rect></g><g><rect x="43.76363636363636" y="32.49999999999999" width="2" height="67.5" id="cases-ep-43"></rect></g><g><rect x="40.199999999999996" y="27.75833333333333" width="2" height="72.24166666666667" id="cases-ep-44"></rect></g><g><rect x="36.636363636363626" y="67.15416666666667" width="2" height="32.84583333333333" id="cases-ep-45"></rect></g><g><rect x="33.072727272727285" y="66.625" width="2" height="33.375" id="cases-ep-46"></rect></g><g><rect x="29.509090909090922" y="52.27916666666667" width="2" height="47.72083333333333" id="cases-ep-47"></rect></g><g><rect x="25.945454545454556" y="51.983333333333334" width="2" height="48.016666666666666" id="cases-ep-48"></rect></g><g><rect x="22.38181818181819" y="50.30416666666666" width="2" height="49.69583333333334" id="cases-ep-49"></rect></g><g><rect x="18.818181818181824" y="50.0625" width="2" height="49.9375" id="cases-ep-50"></rect></g><g><rect x="15.254545454545461" y="46.50416666666667" width="2" height="53.49583333333333" id="cases-ep-51"></rect></g><g><rect x="11.690909090909095" y="74.65833333333333" width="2" height="25.34166666666667" id="cases-ep-52"></rect></g><g><rect x="8.12727272727273" y="73.76666666666667" width="2" height="26.233333333333334" id="cases-ep-53"></rect></g><g><rect x="4.563636363636365" y="62.87083333333333" width="2" height="37.12916666666667" id="cases-ep-54"></rect></g><g><rect x="1" y="61.083333333333336" width="2" height="38.916666666666664" id="cases-ep-55"></rect></g></g><g class="fg-line cases-ep" fill="none" stroke="#92c5de" stroke-width="2" stroke-linecap="round"><path d="M198,31.276785714285715L194.43636363636364,32.195238095238096L190.87272727272727,32.919047619047625L187.30909090909088,35.329166666666666L183.74545454545455,35.95535714285714L180.1818181818182,36.59702380952381L176.61818181818182,37.37083333333333L173.05454545454546,38.391071428571436L169.49090909090907,39.14940476190476L165.92727272727274,40.57797619047619L162.36363636363637,40.224404761904765L158.8,40.349999999999994L155.23636363636365,40.535714285714285L151.6727272727273,40.110119047619044L148.1090909090909,39.70892857142857L144.54545454545453,38.847023809523805L140.9818181818182,37.6470238095238L137.41818181818184,36.18988095238096L133.85454545454544,35.78809523809524L130.29090909090908,35.37797619047619L126.72727272727273,34.85059523809524L123.16363636363636,33.57976190476191L119.6,31.817261904761907L116.03636363636363,28.775595238095242L112.47272727272728,36.06607142857143L108.90909090909089,37.074404761904766L105.34545454545456,38.09583333333333L101.78181818181817,39.381547619047616L98.21818181818183,40.840476190476195L94.65454545454546,42.92261904761905L91.09090909090911,46.32559523809524L87.52727272727273,39.86190476190477L83.96363636363637,39.366666666666674L80.4,39.284523809523805L76.83636363636364,39.412499999999994L73.27272727272727,39.916666666666664L69.70909090909092,40.715476190476195L66.14545454545454,41.87380952380953L62.58181818181818,43.132738095238096L59.018181818181816,43.610119047619044L55.454545454545446,44.18690476190476L51.89090909090908,45.666666666666664L48.32727272727273,47.52142857142857L44.76363636363636,49.800595238095234L41.199999999999996,52.3095238095238L37.636363636363626,54.9875L34.072727272727285,56.05952380952382L30.509090909090922,57.0797619047619L26.945454545454556,58.592857142857135L23.38181818181819,59.892857142857146L19.818181818181824,61.16071428571429L16.25454545454546,62.38095238095238L12.690909090909095,63.841071428571425L9.12727272727273,64.36845238095238L5.563636363636365,65.25714285714285L2,66.68333333333334"></path></g></svg>