<svg meta="{&quot;DATA_PUBLISHED_DATE&quot;:&quot;2022-07-08&quot;,&quot;RENDER_DATE&quot;:&quot;2022-07-08&quot;,&quot;FIRST_DATE&quot;:&quot;2022-04-21&quot;,&quot;LAST_DATE&quot;:&quot;2022-06-15&quot;}" xmlns="http://www.w3.org/2000/svg" viewBox="0,0,200,100"><g transform="translate(0,0)"></g><g class="fg-bars death-date" fill="#00183f" stroke="none"><g><rect x="197" y="19.23076923076923" width="2" height="80.76923076923077" id="death-date-0"></rect></g><g><rect x="193.43636363636364" y="19.23076923076923" width="2" height="80.76923076923077" id="death-date-1"></rect></g><g><rect x="189.87272727272727" y="50" width="2" height="50" id="death-date-2"></rect></g><g><rect x="186.30909090909088" y="23.076923076923073" width="2" height="76.92307692307693" id="death-date-3"></rect></g><g><rect x="182.74545454545455" y="11.538461538461542" width="2" height="88.46153846153845" id="death-date-4"></rect></g><g><rect x="179.1818181818182" y="19.23076923076923" width="2" height="80.76923076923077" id="death-date-5"></rect></g><g><rect x="175.61818181818182" y="11.538461538461542" width="2" height="88.46153846153845" id="death-date-6"></rect></g><g><rect x="172.05454545454546" y="34.61538461538461" width="2" height="65.38461538461539" id="death-date-7"></rect></g><g><rect x="168.49090909090907" y="34.61538461538461" width="2" height="65.38461538461539" id="death-date-8"></rect></g><g><rect x="164.92727272727274" y="23.076923076923073" width="2" height="76.92307692307693" id="death-date-9"></rect></g><g><rect x="161.36363636363637" y="30.76923076923077" width="2" height="69.23076923076923" id="death-date-10"></rect></g><g><rect x="157.8" y="38.46153846153846" width="2" height="61.53846153846154" id="death-date-11"></rect></g><g><rect x="154.23636363636365" y="19.23076923076923" width="2" height="80.76923076923077" id="death-date-12"></rect></g><g><rect x="150.6727272727273" y="19.23076923076923" width="2" height="80.76923076923077" id="death-date-13"></rect></g><g><rect x="147.1090909090909" y="38.46153846153846" width="2" height="61.53846153846154" id="death-date-14"></rect></g><g><rect x="143.54545454545453" y="53.84615384615385" width="2" height="46.15384615384615" id="death-date-15"></rect></g><g><rect x="139.9818181818182" y="30.76923076923077" width="2" height="69.23076923076923" id="death-date-16"></rect></g><g><rect x="136.41818181818184" y="15.384615384615385" width="2" height="84.61538461538461" id="death-date-17"></rect></g><g><rect x="132.85454545454544" y="34.61538461538461" width="2" height="65.38461538461539" id="death-date-18"></rect></g><g><rect x="129.29090909090908" y="42.307692307692314" width="2" height="57.692307692307686" id="death-date-19"></rect></g><g><rect x="125.72727272727273" y="50" width="2" height="50" id="death-date-20"></rect></g><g><rect x="122.16363636363636" y="38.46153846153846" width="2" height="61.53846153846154" id="death-date-21"></rect></g><g><rect x="118.6" y="0" width="2" height="100" id="death-date-22"></rect></g><g><rect x="115.03636363636363" y="50" width="2" height="50" id="death-date-23"></rect></g><g><rect x="111.47272727272728" y="46.15384615384615" width="2" height="53.84615384615385" id="death-date-24"></rect></g><g><rect x="107.90909090909089" y="26.923076923076927" width="2" height="73.07692307692307" id="death-date-25"></rect></g><g><rect x="104.34545454545456" y="30.76923076923077" width="2" height="69.23076923076923" id="death-date-26"></rect></g><g><rect x="100.78181818181817" y="34.61538461538461" width="2" height="65.38461538461539" id="death-date-27"></rect></g><g><rect x="97.21818181818183" y="34.61538461538461" width="2" height="65.38461538461539" id="death-date-28"></rect></g><g><rect x="93.65454545454546" y="42.307692307692314" width="2" height="57.692307692307686" id="death-date-29"></rect></g><g><rect x="90.09090909090911" y="61.53846153846154" width="2" height="38.46153846153846" id="death-date-30"></rect></g><g><rect x="86.52727272727273" y="0" width="2" height="100" id="death-date-31"></rect></g><g><rect x="82.96363636363637" y="42.307692307692314" width="2" height="57.692307692307686" id="death-date-32"></rect></g><g><rect x="79.4" y="23.076923076923073" width="2" height="76.92307692307693" id="death-date-33"></rect></g><g><rect x="75.83636363636364" y="61.53846153846154" width="2" height="38.46153846153846" id="death-date-34"></rect></g><g><rect x="72.27272727272727" y="57.692307692307686" width="2" height="42.307692307692314" id="death-date-35"></rect></g><g><rect x="68.70909090909092" y="23.076923076923073" width="2" height="76.92307692307693" id="death-date-36"></rect></g><g><rect x="65.14545454545454" y="53.84615384615385" width="2" height="46.15384615384615" id="death-date-37"></rect></g><g><rect x="61.58181818181818" y="34.61538461538461" width="2" height="65.38461538461539" id="death-date-38"></rect></g><g><rect x="58.018181818181816" y="61.53846153846154" width="2" height="38.46153846153846" id="death-date-39"></rect></g><g><rect x="54.454545454545446" y="50" width="2" height="50" id="death-date-40"></rect></g><g><rect x="50.89090909090908" y="76.92307692307692" width="2" height="23.07692307692308" id="death-date-41"></rect></g><g><rect x="47.32727272727273" y="57.692307692307686" width="2" height="42.307692307692314" id="death-date-42"></rect></g><g><rect x="43.76363636363636" y="65.38461538461539" width="2" height="34.61538461538461" id="death-date-43"></rect></g><g><rect x="40.199999999999996" y="57.692307692307686" width="2" height="42.307692307692314" id="death-date-44"></rect></g><g><rect x="36.636363636363626" y="61.53846153846154" width="2" height="38.46153846153846" id="death-date-45"></rect></g><g><rect x="33.072727272727285" y="42.307692307692314" width="2" height="57.692307692307686" id="death-date-46"></rect></g><g><rect x="29.509090909090922" y="46.15384615384615" width="2" height="53.84615384615385" id="death-date-47"></rect></g><g><rect x="25.945454545454556" y="61.53846153846154" width="2" height="38.46153846153846" id="death-date-48"></rect></g><g><rect x="22.38181818181819" y="53.84615384615385" width="2" height="46.15384615384615" id="death-date-49"></rect></g><g><rect x="18.818181818181824" y="65.38461538461539" width="2" height="34.61538461538461" id="death-date-50"></rect></g><g><rect x="15.254545454545461" y="34.61538461538461" width="2" height="65.38461538461539" id="death-date-51"></rect></g><g><rect x="11.690909090909095" y="38.46153846153846" width="2" height="61.53846153846154" id="death-date-52"></rect></g><g><rect x="8.12727272727273" y="57.692307692307686" width="2" height="42.307692307692314" id="death-date-53"></rect></g><g><rect x="4.563636363636365" y="61.53846153846154" width="2" height="38.46153846153846" id="death-date-54"></rect></g><g><rect x="1" y="65.38461538461539" width="2" height="34.61538461538461" id="death-date-55"></rect></g></g><g class="fg-line death-date" fill="none" stroke="#92c5de" stroke-width="2" stroke-linecap="round"><path d="M198,21.978021978021978L194.43636363636364,24.175824175824168L190.87272727272727,26.37362637362638L187.30909090909088,22.527472527472526L183.74545454545455,23.62637362637362L180.1818181818182,27.472527472527474L176.61818181818182,27.472527472527474L173.05454545454546,28.57142857142857L169.49090909090907,29.120879120879128L165.92727272727274,31.868131868131865L162.36363636363637,32.96703296703297L158.8,30.76923076923077L155.23636363636365,30.219780219780223L151.6727272727273,33.51648351648352L148.1090909090909,37.91208791208791L144.54545454545453,37.91208791208791L140.9818181818182,30.219780219780223L137.41818181818184,32.96703296703297L133.85454545454544,37.362637362637365L130.29090909090908,36.263736263736256L126.72727272727273,34.61538461538461L123.16363636363636,32.417582417582416L119.6,31.868131868131865L116.03636363636363,37.91208791208791L112.47272727272728,39.56043956043956L108.90909090909089,32.96703296703297L105.34545454545456,35.16483516483516L101.78181818181817,34.065934065934066L98.21818181818183,37.91208791208791L94.65454545454546,41.208791208791204L91.09090909090911,38.46153846153846L87.52727272727273,37.362637362637365L83.96363636363637,42.307692307692314L80.4,45.05494505494505L76.83636363636364,48.90109890109889L73.27272727272727,51.098901098901095L69.70909090909092,51.098901098901095L66.14545454545454,57.14285714285714L62.58181818181818,57.692307692307686L59.018181818181816,61.53846153846154L55.454545454545446,58.791208791208796L51.89090909090908,58.241758241758234L48.32727272727273,56.043956043956044L44.76363636363636,55.494505494505496L41.199999999999996,55.494505494505496L37.636363636363626,52.19780219780219L34.072727272727285,48.90109890109889L30.509090909090922,51.098901098901095L26.945454545454556,53.2967032967033L23.38181818181819,53.84615384615385L19.818181818181824,52.19780219780219L16.25454545454546,51.64835164835164L12.690909090909095,52.19780219780219L9.12727272727273,52.74725274725274L5.563636363636365,51.098901098901095L2,46.15384615384615"></path></g></svg>