<svg meta="{&quot;DATA_PUBLISHED_DATE&quot;:&quot;2022-07-01&quot;,&quot;RENDER_DATE&quot;:&quot;2022-07-08&quot;,&quot;FIRST_DATE&quot;:&quot;2022-04-29&quot;,&quot;LAST_DATE&quot;:&quot;2022-06-23&quot;}" xmlns="http://www.w3.org/2000/svg" viewBox="0,0,200,100"><g transform="translate(0,0)"></g><g class="fg-bars tests-vaccines" fill="#00183f" stroke="none"><g><rect x="197" y="50.35125" width="2" height="49.64875" id="tests-vaccines-0"></rect></g><g><rect x="193.43636363636364" y="50.74125000000001" width="2" height="49.25874999999999" id="tests-vaccines-1"></rect></g><g><rect x="189.87272727272727" y="53.44375" width="2" height="46.55625" id="tests-vaccines-2"></rect></g><g><rect x="186.30909090909088" y="53.8875" width="2" height="46.1125" id="tests-vaccines-3"></rect></g><g><rect x="182.74545454545455" y="88.0175" width="2" height="11.982500000000002" id="tests-vaccines-4"></rect></g><g><rect x="179.1818181818182" y="72.64999999999999" width="2" height="27.35000000000001" id="tests-vaccines-5"></rect></g><g><rect x="175.61818181818182" y="37.885000000000005" width="2" height="62.114999999999995" id="tests-vaccines-6"></rect></g><g><rect x="172.05454545454546" y="48.162499999999994" width="2" height="51.837500000000006" id="tests-vaccines-7"></rect></g><g><rect x="168.49090909090907" y="46.04625" width="2" height="53.95375" id="tests-vaccines-8"></rect></g><g><rect x="164.92727272727274" y="48.2025" width="2" height="51.7975" id="tests-vaccines-9"></rect></g><g><rect x="161.36363636363637" y="47.35875000000001" width="2" height="52.64124999999999" id="tests-vaccines-10"></rect></g><g><rect x="157.8" y="83.51375" width="2" height="16.48625" id="tests-vaccines-11"></rect></g><g><rect x="154.23636363636365" y="67.24625" width="2" height="32.75375" id="tests-vaccines-12"></rect></g><g><rect x="150.6727272727273" y="29.836249999999996" width="2" height="70.16375000000001" id="tests-vaccines-13"></rect></g><g><rect x="147.1090909090909" y="42.15375" width="2" height="57.84625" id="tests-vaccines-14"></rect></g><g><rect x="143.54545454545453" y="39.295" width="2" height="60.705" id="tests-vaccines-15"></rect></g><g><rect x="139.9818181818182" y="39.464999999999996" width="2" height="60.535000000000004" id="tests-vaccines-16"></rect></g><g><rect x="136.41818181818184" y="36.48875" width="2" height="63.51125" id="tests-vaccines-17"></rect></g><g><rect x="132.85454545454544" y="79.21374999999999" width="2" height="20.78625000000001" id="tests-vaccines-18"></rect></g><g><rect x="129.29090909090908" y="56.7025" width="2" height="43.2975" id="tests-vaccines-19"></rect></g><g><rect x="125.72727272727273" y="16.85875" width="2" height="83.14125" id="tests-vaccines-20"></rect></g><g><rect x="122.16363636363636" y="31.789999999999996" width="2" height="68.21000000000001" id="tests-vaccines-21"></rect></g><g><rect x="118.6" y="28.452500000000004" width="2" height="71.5475" id="tests-vaccines-22"></rect></g><g><rect x="115.03636363636363" y="21.773750000000003" width="2" height="78.22625" id="tests-vaccines-23"></rect></g><g><rect x="111.47272727272728" y="95.60499999999999" width="2" height="4.39500000000001" id="tests-vaccines-24"></rect></g><g><rect x="107.90909090909089" y="74.81" width="2" height="25.189999999999998" id="tests-vaccines-25"></rect></g><g><rect x="104.34545454545456" y="54.89125" width="2" height="45.10875" id="tests-vaccines-26"></rect></g><g><rect x="100.78181818181817" y="5.717499999999998" width="2" height="94.2825" id="tests-vaccines-27"></rect></g><g><rect x="97.21818181818183" y="27.85875" width="2" height="72.14125" id="tests-vaccines-28"></rect></g><g><rect x="93.65454545454546" y="23.682499999999994" width="2" height="76.31750000000001" id="tests-vaccines-29"></rect></g><g><rect x="90.09090909090911" y="23.580000000000002" width="2" height="76.42" id="tests-vaccines-30"></rect></g><g><rect x="86.52727272727273" y="22.314999999999998" width="2" height="77.685" id="tests-vaccines-31"></rect></g><g><rect x="82.96363636363637" y="72.16" width="2" height="27.840000000000003" id="tests-vaccines-32"></rect></g><g><rect x="79.4" y="49.470000000000006" width="2" height="50.529999999999994" id="tests-vaccines-33"></rect></g><g><rect x="75.83636363636364" y="5.422499999999997" width="2" height="94.5775" id="tests-vaccines-34"></rect></g><g><rect x="72.27272727272727" y="24.252499999999998" width="2" height="75.7475" id="tests-vaccines-35"></rect></g><g><rect x="68.70909090909092" y="27.921249999999997" width="2" height="72.07875" id="tests-vaccines-36"></rect></g><g><rect x="65.14545454545454" y="30.51625" width="2" height="69.48375" id="tests-vaccines-37"></rect></g><g><rect x="61.58181818181818" y="30.861249999999995" width="2" height="69.13875" id="tests-vaccines-38"></rect></g><g><rect x="58.018181818181816" y="78.275" width="2" height="21.724999999999994" id="tests-vaccines-39"></rect></g><g><rect x="54.454545454545446" y="57.8175" width="2" height="42.1825" id="tests-vaccines-40"></rect></g><g><rect x="50.89090909090908" y="12.988750000000005" width="2" height="87.01124999999999" id="tests-vaccines-41"></rect></g><g><rect x="47.32727272727273" y="24.150000000000006" width="2" height="75.85" id="tests-vaccines-42"></rect></g><g><rect x="43.76363636363636" y="24.911249999999995" width="2" height="75.08875" id="tests-vaccines-43"></rect></g><g><rect x="40.199999999999996" y="29.42625" width="2" height="70.57375" id="tests-vaccines-44"></rect></g><g><rect x="36.636363636363626" y="30.618749999999995" width="2" height="69.38125000000001" id="tests-vaccines-45"></rect></g><g><rect x="33.072727272727285" y="83.99875" width="2" height="16.00125" id="tests-vaccines-46"></rect></g><g><rect x="29.509090909090922" y="61.99250000000001" width="2" height="38.00749999999999" id="tests-vaccines-47"></rect></g><g><rect x="25.945454545454556" y="13.583750000000006" width="2" height="86.41624999999999" id="tests-vaccines-48"></rect></g><g><rect x="22.38181818181819" y="25.939999999999998" width="2" height="74.06" id="tests-vaccines-49"></rect></g><g><rect x="18.818181818181824" y="26.04375" width="2" height="73.95625" id="tests-vaccines-50"></rect></g><g><rect x="15.254545454545461" y="26.441250000000004" width="2" height="73.55875" id="tests-vaccines-51"></rect></g><g><rect x="11.690909090909095" y="26.761250000000004" width="2" height="73.23875" id="tests-vaccines-52"></rect></g><g><rect x="8.12727272727273" y="77.46875" width="2" height="22.53125" id="tests-vaccines-53"></rect></g><g><rect x="4.563636363636365" y="56.39875" width="2" height="43.60125" id="tests-vaccines-54"></rect></g><g><rect x="1" y="4.149999999999999" width="2" height="95.85" id="tests-vaccines-55"></rect></g></g><g class="fg-line tests-vaccines" fill="none" stroke="#92c5de" stroke-width="2" stroke-linecap="round"><path d="M198,58.13946428571428L194.43636363636364,57.82678571428572L190.87272727272727,57.15607142857143L187.30909090909088,56.407321428571436L183.74545454545455,55.474642857142854L180.1818181818182,54.83125L176.61818181818182,54.05928571428571L173.05454545454546,52.90946428571428L169.49090909090907,52.05107142857144L165.92727272727274,51.086607142857154L162.36363636363637,49.83839285714286L158.8,48.28553571428572L155.23636363636365,47.67125L151.6727272727273,46.165L148.1090909090909,44.31107142857144L144.54545454545453,42.83053571428571L140.9818181818182,41.28160714285715L137.41818181818184,38.75428571428572L133.85454545454544,47.199464285714285L130.29090909090908,46.57035714285714L126.72727272727273,46.31160714285715L123.16363636363636,44.720000000000006L119.6,44.15839285714286L116.03636363636363,43.47696428571428L112.47272727272728,43.735L108.90909090909089,33.265L105.34545454545456,32.886428571428574L101.78181818181817,32.111964285714286L98.21818181818183,32.06982142857143L94.65454545454546,31.554642857142856L91.09090909090911,32.16017857142857L87.52727272727273,33.151071428571434L83.96363636363637,34.371964285714284L80.4,35.245535714285715L76.83636363636364,36.43803571428571L73.27272727272727,37.51892857142857L69.70909090909092,37.504285714285714L66.14545454545454,37.074285714285715L62.58181818181818,36.91857142857143L59.018181818181816,36.88392857142857L55.454545454545446,37.70160714285715L51.89090909090908,38.29803571428572L48.32727272727273,38.38303571428572L44.76363636363636,38.63875L41.199999999999996,38.80053571428571L37.636363636363626,38.37410714285715L34.072727272727285,37.823035714285716L30.509090909090922,36.890178571428564L26.945454545454556,36.09107142857143L23.38181818181819,34.74339285714285L19.818181818181824,33.43696428571429L16.25454545454546,32.23839285714285L12.690909090909095,31.15875L9.12727272727273,30.144821428571433L5.563636363636365,29.996428571428567L2,29.510357142857146"></path></g></svg>