<svg about="DATA_PUBLISHED_DATE:2021-09-25,RENDER_DATE:2021-09-25" xmlns="http://www.w3.org/2000/svg" viewBox="0,0,200,100"><g transform="translate(0,0)"></g><g class="fg-bars tests-vaccines" fill="#00183f" stroke="none"><g><rect x="197" y="28.310000000000002" width="2" height="71.69" id="tests-vaccines-0"></rect></g><g><rect x="193.43636363636364" y="38.565384615384616" width="2" height="61.434615384615384" id="tests-vaccines-1"></rect></g><g><rect x="189.87272727272727" y="40.277692307692305" width="2" height="59.722307692307695" id="tests-vaccines-2"></rect></g><g><rect x="186.30909090909088" y="39.60846153846154" width="2" height="60.39153846153846" id="tests-vaccines-3"></rect></g><g><rect x="182.74545454545455" y="36.51461538461539" width="2" height="63.48538461538461" id="tests-vaccines-4"></rect></g><g><rect x="179.1818181818182" y="73.28384615384616" width="2" height="26.716153846153844" id="tests-vaccines-5"></rect></g><g><rect x="175.61818181818182" y="52.48923076923078" width="2" height="47.51076923076922" id="tests-vaccines-6"></rect></g><g><rect x="172.05454545454546" y="18.804615384615385" width="2" height="81.19538461538461" id="tests-vaccines-7"></rect></g><g><rect x="168.49090909090907" y="33.57769230769231" width="2" height="66.4223076923077" id="tests-vaccines-8"></rect></g><g><rect x="164.92727272727274" y="32.90384615384615" width="2" height="67.09615384615384" id="tests-vaccines-9"></rect></g><g><rect x="161.36363636363637" y="26.003846153846155" width="2" height="73.99615384615385" id="tests-vaccines-10"></rect></g><g><rect x="157.8" y="85.37384615384616" width="2" height="14.62615384615384" id="tests-vaccines-11"></rect></g><g><rect x="154.23636363636365" y="71.16692307692307" width="2" height="28.83307692307693" id="tests-vaccines-12"></rect></g><g><rect x="150.6727272727273" y="51.66615384615385" width="2" height="48.33384615384615" id="tests-vaccines-13"></rect></g><g><rect x="147.1090909090909" y="11.193846153846154" width="2" height="88.80615384615385" id="tests-vaccines-14"></rect></g><g><rect x="143.54545454545453" y="29.15461538461539" width="2" height="70.8453846153846" id="tests-vaccines-15"></rect></g><g><rect x="139.9818181818182" y="27.196923076923074" width="2" height="72.80307692307693" id="tests-vaccines-16"></rect></g><g><rect x="136.41818181818184" y="24.020769230769233" width="2" height="75.97923076923077" id="tests-vaccines-17"></rect></g><g><rect x="132.85454545454544" y="23.07461538461538" width="2" height="76.92538461538462" id="tests-vaccines-18"></rect></g><g><rect x="129.29090909090908" y="67.37230769230769" width="2" height="32.627692307692314" id="tests-vaccines-19"></rect></g><g><rect x="125.72727272727273" y="40.392307692307696" width="2" height="59.607692307692304" id="tests-vaccines-20"></rect></g><g><rect x="122.16363636363636" y="2.0030769230769185" width="2" height="97.99692307692308" id="tests-vaccines-21"></rect></g><g><rect x="118.6" y="20.358461538461537" width="2" height="79.64153846153846" id="tests-vaccines-22"></rect></g><g><rect x="115.03636363636363" y="21.354615384615382" width="2" height="78.64538461538461" id="tests-vaccines-23"></rect></g><g><rect x="111.47272727272728" y="18.307692307692303" width="2" height="81.6923076923077" id="tests-vaccines-24"></rect></g><g><rect x="107.90909090909089" y="18.848461538461535" width="2" height="81.15153846153846" id="tests-vaccines-25"></rect></g><g><rect x="104.34545454545456" y="67.8276923076923" width="2" height="32.1723076923077" id="tests-vaccines-26"></rect></g><g><rect x="100.78181818181817" y="41.959999999999994" width="2" height="58.040000000000006" id="tests-vaccines-27"></rect></g><g><rect x="97.21818181818183" y="2.9930769230769205" width="2" height="97.00692307692307" id="tests-vaccines-28"></rect></g><g><rect x="93.65454545454546" y="22.144615384615385" width="2" height="77.85538461538462" id="tests-vaccines-29"></rect></g><g><rect x="90.09090909090911" y="21.83076923076923" width="2" height="78.16923076923077" id="tests-vaccines-30"></rect></g><g><rect x="86.52727272727273" y="21.640000000000004" width="2" height="78.36" id="tests-vaccines-31"></rect></g><g><rect x="82.96363636363637" y="25.45384615384615" width="2" height="74.54615384615386" id="tests-vaccines-32"></rect></g><g><rect x="79.4" y="68.91538461538462" width="2" height="31.084615384615375" id="tests-vaccines-33"></rect></g><g><rect x="75.83636363636364" y="44.15" width="2" height="55.85" id="tests-vaccines-34"></rect></g><g><rect x="72.27272727272727" y="14.345384615384615" width="2" height="85.65461538461538" id="tests-vaccines-35"></rect></g><g><rect x="68.70909090909092" y="32.32615384615385" width="2" height="67.67384615384614" id="tests-vaccines-36"></rect></g><g><rect x="65.14545454545454" y="35.856923076923074" width="2" height="64.14307692307693" id="tests-vaccines-37"></rect></g><g><rect x="61.58181818181818" y="29.856153846153845" width="2" height="70.14384615384616" id="tests-vaccines-38"></rect></g><g><rect x="58.018181818181816" y="32.521538461538455" width="2" height="67.47846153846154" id="tests-vaccines-39"></rect></g><g><rect x="54.454545454545446" y="73.09384615384616" width="2" height="26.906153846153842" id="tests-vaccines-40"></rect></g><g><rect x="50.89090909090908" y="50.786923076923074" width="2" height="49.213076923076926" id="tests-vaccines-41"></rect></g><g><rect x="47.32727272727273" y="19.465384615384618" width="2" height="80.53461538461538" id="tests-vaccines-42"></rect></g><g><rect x="43.76363636363636" y="33.510769230769235" width="2" height="66.48923076923077" id="tests-vaccines-43"></rect></g><g><rect x="40.199999999999996" y="34.87538461538462" width="2" height="65.12461538461538" id="tests-vaccines-44"></rect></g><g><rect x="36.636363636363626" y="31.163076923076925" width="2" height="68.83692307692307" id="tests-vaccines-45"></rect></g><g><rect x="33.072727272727285" y="38.48692307692308" width="2" height="61.51307692307692" id="tests-vaccines-46"></rect></g><g><rect x="29.509090909090922" y="76.78846153846153" width="2" height="23.211538461538467" id="tests-vaccines-47"></rect></g><g><rect x="25.945454545454556" y="54.00769230769231" width="2" height="45.99230769230769" id="tests-vaccines-48"></rect></g><g><rect x="22.38181818181819" y="25.89076923076923" width="2" height="74.10923076923078" id="tests-vaccines-49"></rect></g><g><rect x="18.818181818181824" y="37.30769230769231" width="2" height="62.69230769230769" id="tests-vaccines-50"></rect></g><g><rect x="15.254545454545461" y="35.2176923076923" width="2" height="64.7823076923077" id="tests-vaccines-51"></rect></g><g><rect x="11.690909090909095" y="34.59230769230769" width="2" height="65.40769230769232" id="tests-vaccines-52"></rect></g><g><rect x="8.12727272727273" y="44.61384615384615" width="2" height="55.38615384615385" id="tests-vaccines-53"></rect></g><g><rect x="4.563636363636365" y="80.25384615384615" width="2" height="19.746153846153845" id="tests-vaccines-54"></rect></g><g><rect x="1" y="56.81769230769231" width="2" height="43.18230769230769" id="tests-vaccines-55"></rect></g></g><g class="fg-line tests-vaccines" fill="none" stroke="#92c5de" stroke-width="2" stroke-linecap="round"><path d="M198,44.14989010989011L194.43636363636364,42.791978021978025L190.87272727272727,42.07945054945055L187.30909090909088,41.02604395604396L183.74545454545455,39.082527472527474L180.1818181818182,46.06241758241758L176.61818181818182,45.76L173.05454545454546,45.64241758241758L169.49090909090907,44.55516483516484L165.92727272727274,43.9232967032967L162.36363636363637,43.10802197802197L158.8,42.824725274725274L155.23636363636365,33.924835164835166L151.6727272727273,33.38274725274726L148.1090909090909,31.772197802197798L144.54545454545453,30.45923076923077L140.9818181818182,29.20263736263736L137.41818181818184,28.36802197802197L133.85454545454544,27.55186813186813L130.29090909090908,26.948131868131874L126.72727272727273,27.013186813186806L123.16363636363636,27.23714285714285L119.6,27.37857142857143L116.03636363636363,27.633736263736264L112.47272727272728,27.701758241758235L108.90909090909089,28.177802197802194L105.34545454545456,29.121428571428577L101.78181818181817,29.27681318681319L98.21818181818183,29.589670329670337L94.65454545454546,31.211428571428566L91.09090909090911,32.66593406593407L87.52727272727273,34.66967032967033L83.96363636363637,35.84340659340659L80.4,36.85307692307692L76.83636363636364,37.45L73.27272727272727,38.39813186813187L69.70909090909092,39.12956043956044L66.14545454545454,39.29879120879121L62.58181818181818,39.158571428571435L59.018181818181816,39.34527472527473L55.454545454545446,40.197472527472534L51.89090909090908,40.72527472527473L48.32727272727273,41.18538461538461L44.76363636363636,42.1032967032967L41.199999999999996,42.64571428571428L37.636363636363626,42.69461538461539L34.072727272727285,43.1845054945055L30.509090909090922,44.05978021978022L26.945454545454556,44.55483516483516L23.38181818181819,44.956263736263736L19.818181818181824,45.45241758241758L16.25454545454546,45.87538461538462L12.690909090909095,46.64285714285714L9.12727272727273,47.26824175824176L5.563636363636365,47.550219780219784L2,47.44868131868132"></path></g></svg>