<svg about="DATA_PUBLISHED_DATE:2022-01-11,RENDER_DATE:2022-01-11" xmlns="http://www.w3.org/2000/svg" viewBox="0,0,200,100"><g transform="translate(0,0)"></g><g class="fg-bars cases-ep" fill="#00183f" stroke="none"><g><rect x="197" y="50.351111111111116" width="2" height="49.648888888888884" id="cases-ep-0"></rect></g><g><rect x="193.43636363636364" y="74.7611111111111" width="2" height="25.238888888888894" id="cases-ep-1"></rect></g><g><rect x="189.87272727272727" y="49.88555555555556" width="2" height="50.11444444444444" id="cases-ep-2"></rect></g><g><rect x="186.30909090909088" y="15.723333333333333" width="2" height="84.27666666666667" id="cases-ep-3"></rect></g><g><rect x="182.74545454545455" y="10.911111111111115" width="2" height="89.08888888888889" id="cases-ep-4"></rect></g><g><rect x="179.1818181818182" y="11.22333333333333" width="2" height="88.77666666666667" id="cases-ep-5"></rect></g><g><rect x="175.61818181818182" y="23.554444444444446" width="2" height="76.44555555555556" id="cases-ep-6"></rect></g><g><rect x="172.05454545454546" y="64.05444444444444" width="2" height="35.94555555555556" id="cases-ep-7"></rect></g><g><rect x="168.49090909090907" y="85.66222222222221" width="2" height="14.337777777777788" id="cases-ep-8"></rect></g><g><rect x="164.92727272727274" y="77.42" width="2" height="22.58" id="cases-ep-9"></rect></g><g><rect x="161.36363636363637" y="65.83444444444444" width="2" height="34.16555555555556" id="cases-ep-10"></rect></g><g><rect x="157.8" y="66.24444444444444" width="2" height="33.75555555555556" id="cases-ep-11"></rect></g><g><rect x="154.23636363636365" y="70.81888888888889" width="2" height="29.181111111111107" id="cases-ep-12"></rect></g><g><rect x="150.6727272727273" y="75.20222222222223" width="2" height="24.797777777777767" id="cases-ep-13"></rect></g><g><rect x="147.1090909090909" y="88.62666666666667" width="2" height="11.373333333333335" id="cases-ep-14"></rect></g><g><rect x="143.54545454545453" y="89.46333333333334" width="2" height="10.536666666666662" id="cases-ep-15"></rect></g><g><rect x="139.9818181818182" y="87.87333333333333" width="2" height="12.126666666666665" id="cases-ep-16"></rect></g><g><rect x="136.41818181818184" y="88.81777777777778" width="2" height="11.182222222222222" id="cases-ep-17"></rect></g><g><rect x="132.85454545454544" y="88.89777777777778" width="2" height="11.102222222222224" id="cases-ep-18"></rect></g><g><rect x="129.29090909090908" y="90.77222222222223" width="2" height="9.227777777777774" id="cases-ep-19"></rect></g><g><rect x="125.72727272727273" y="90.20666666666666" width="2" height="9.793333333333337" id="cases-ep-20"></rect></g><g><rect x="122.16363636363636" y="95.16222222222223" width="2" height="4.837777777777774" id="cases-ep-21"></rect></g><g><rect x="118.6" y="95.29666666666667" width="2" height="4.703333333333333" id="cases-ep-22"></rect></g><g><rect x="115.03636363636363" y="93.64" width="2" height="6.359999999999999" id="cases-ep-23"></rect></g><g><rect x="111.47272727272728" y="93.64" width="2" height="6.359999999999999" id="cases-ep-24"></rect></g><g><rect x="107.90909090909089" y="92.83" width="2" height="7.170000000000002" id="cases-ep-25"></rect></g><g><rect x="104.34545454545456" y="92.7911111111111" width="2" height="7.208888888888893" id="cases-ep-26"></rect></g><g><rect x="100.78181818181817" y="91.79888888888888" width="2" height="8.201111111111118" id="cases-ep-27"></rect></g><g><rect x="97.21818181818183" y="95.73222222222222" width="2" height="4.267777777777781" id="cases-ep-28"></rect></g><g><rect x="93.65454545454546" y="95.40888888888888" width="2" height="4.591111111111118" id="cases-ep-29"></rect></g><g><rect x="90.09090909090911" y="93.19777777777777" width="2" height="6.802222222222227" id="cases-ep-30"></rect></g><g><rect x="86.52727272727273" y="93.01444444444445" width="2" height="6.98555555555555" id="cases-ep-31"></rect></g><g><rect x="82.96363636363637" y="91.72666666666667" width="2" height="8.273333333333326" id="cases-ep-32"></rect></g><g><rect x="79.4" y="92.16666666666666" width="2" height="7.833333333333343" id="cases-ep-33"></rect></g><g><rect x="75.83636363636364" y="90.88333333333334" width="2" height="9.11666666666666" id="cases-ep-34"></rect></g><g><rect x="72.27272727272727" y="95.12444444444445" width="2" height="4.87555555555555" id="cases-ep-35"></rect></g><g><rect x="68.70909090909092" y="95.32333333333334" width="2" height="4.676666666666662" id="cases-ep-36"></rect></g><g><rect x="65.14545454545454" y="95.18444444444445" width="2" height="4.815555555555548" id="cases-ep-37"></rect></g><g><rect x="61.58181818181818" y="97.46777777777777" width="2" height="2.532222222222231" id="cases-ep-38"></rect></g><g><rect x="58.018181818181816" y="94.84333333333333" width="2" height="5.156666666666666" id="cases-ep-39"></rect></g><g><rect x="54.454545454545446" y="94.64666666666666" width="2" height="5.353333333333339" id="cases-ep-40"></rect></g><g><rect x="50.89090909090908" y="94.22222222222221" width="2" height="5.777777777777786" id="cases-ep-41"></rect></g><g><rect x="47.32727272727273" y="96.73888888888888" width="2" height="3.26111111111112" id="cases-ep-42"></rect></g><g><rect x="43.76363636363636" y="96.38555555555556" width="2" height="3.6144444444444446" id="cases-ep-43"></rect></g><g><rect x="40.199999999999996" y="94.91888888888889" width="2" height="5.081111111111113" id="cases-ep-44"></rect></g><g><rect x="36.636363636363626" y="94.82666666666667" width="2" height="5.173333333333332" id="cases-ep-45"></rect></g><g><rect x="33.072727272727285" y="94.29666666666667" width="2" height="5.703333333333333" id="cases-ep-46"></rect></g><g><rect x="29.509090909090922" y="94.00777777777778" width="2" height="5.992222222222225" id="cases-ep-47"></rect></g><g><rect x="25.945454545454556" y="92.92888888888888" width="2" height="7.071111111111122" id="cases-ep-48"></rect></g><g><rect x="22.38181818181819" y="96.40444444444445" width="2" height="3.595555555555549" id="cases-ep-49"></rect></g><g><rect x="18.818181818181824" y="96.19222222222223" width="2" height="3.8077777777777726" id="cases-ep-50"></rect></g><g><rect x="15.254545454545461" y="94.36333333333333" width="2" height="5.63666666666667" id="cases-ep-51"></rect></g><g><rect x="11.690909090909095" y="95.22777777777777" width="2" height="4.772222222222226" id="cases-ep-52"></rect></g><g><rect x="8.12727272727273" y="93.78555555555556" width="2" height="6.214444444444439" id="cases-ep-53"></rect></g><g><rect x="4.563636363636365" y="93.48111111111112" width="2" height="6.518888888888881" id="cases-ep-54"></rect></g><g><rect x="1" y="92.64777777777778" width="2" height="7.352222222222224" id="cases-ep-55"></rect></g></g><g class="fg-line cases-ep" fill="none" stroke="#92c5de" stroke-width="2" stroke-linecap="round"><path d="M198,33.772857142857134L194.43636363636364,35.73047619047619L190.87272727272727,37.28777777777778L187.30909090909088,41.22126984126984L183.74545454545455,48.38L180.1818181818182,56.28476190476191L176.61818181818182,64.7984126984127L173.05454545454546,72.17666666666666L169.49090909090907,75.68698412698413L165.92727272727274,76.23L162.36363636363637,77.72333333333333L158.8,81.00666666666667L155.23636363636365,84.24285714285715L151.6727272727273,87.09333333333333L148.1090909090909,89.2368253968254L144.54545454545453,90.1704761904762L140.9818181818182,91.00380952380952L137.41818181818184,91.82761904761905L133.85454545454544,92.51650793650794L130.29090909090908,93.07825396825396L126.72727272727273,93.36666666666666L123.16363636363636,93.59412698412697L119.6,93.67555555555556L116.03636363636363,93.6915873015873L112.47272727272728,93.6284126984127L108.90909090909089,93.53904761904762L105.34545454545456,93.38142857142857L101.78181818181817,93.29222222222222L98.21818181818183,93.16142857142857L94.65454545454546,93.07460317460318L91.09090909090911,93.06238095238095L87.52727272727273,93.34619047619047L83.96363636363637,93.98238095238095L80.4,94.42761904761905L76.83636363636364,94.78190476190476L73.27272727272727,95.25888888888889L69.70909090909092,95.48952380952382L66.14545454545454,95.64126984126983L62.58181818181818,95.60333333333332L59.018181818181816,95.22603174603175L55.454545454545446,95.1479365079365L51.89090909090908,95.05666666666667L48.32727272727273,94.87190476190476L44.76363636363636,94.82412698412699L41.199999999999996,94.79650793650794L37.636363636363626,94.71714285714286L34.072727272727285,94.77444444444446L30.509090909090922,94.70142857142856L26.945454545454556,94.62619047619047L23.38181818181819,94.58603174603175L19.818181818181824,94.5515873015873L16.25454545454546,94.51539682539682L12.690909090909095,94.44555555555556L9.12727272727273,94.17571428571428L5.563636363636365,94.05222222222223L2,93.96"></path></g></svg>