<svg meta="{&quot;DATA_PUBLISHED_DATE&quot;:&quot;2022-05-13&quot;,&quot;RENDER_DATE&quot;:&quot;2022-05-13&quot;,&quot;FIRST_DATE&quot;:&quot;2022-02-24&quot;,&quot;LAST_DATE&quot;:&quot;2022-04-20&quot;}" xmlns="http://www.w3.org/2000/svg" viewBox="0,0,200,100"><g transform="translate(0,0)"></g><g class="fg-bars death-date" fill="#00183f" stroke="none"><g><rect x="197" y="88" width="2" height="12" id="death-date-0"></rect></g><g><rect x="193.43636363636364" y="91" width="2" height="9" id="death-date-1"></rect></g><g><rect x="189.87272727272727" y="88" width="2" height="12" id="death-date-2"></rect></g><g><rect x="186.30909090909088" y="91" width="2" height="9" id="death-date-3"></rect></g><g><rect x="182.74545454545455" y="88" width="2" height="12" id="death-date-4"></rect></g><g><rect x="179.1818181818182" y="85" width="2" height="15" id="death-date-5"></rect></g><g><rect x="175.61818181818182" y="86" width="2" height="14" id="death-date-6"></rect></g><g><rect x="172.05454545454546" y="89" width="2" height="11" id="death-date-7"></rect></g><g><rect x="168.49090909090907" y="93" width="2" height="7" id="death-date-8"></rect></g><g><rect x="164.92727272727274" y="84" width="2" height="16" id="death-date-9"></rect></g><g><rect x="161.36363636363637" y="93" width="2" height="7" id="death-date-10"></rect></g><g><rect x="157.8" y="92" width="2" height="8" id="death-date-11"></rect></g><g><rect x="154.23636363636365" y="84" width="2" height="16" id="death-date-12"></rect></g><g><rect x="150.6727272727273" y="86" width="2" height="14" id="death-date-13"></rect></g><g><rect x="147.1090909090909" y="79" width="2" height="21" id="death-date-14"></rect></g><g><rect x="143.54545454545453" y="81" width="2" height="19" id="death-date-15"></rect></g><g><rect x="139.9818181818182" y="88" width="2" height="12" id="death-date-16"></rect></g><g><rect x="136.41818181818184" y="86" width="2" height="14" id="death-date-17"></rect></g><g><rect x="132.85454545454544" y="84" width="2" height="16" id="death-date-18"></rect></g><g><rect x="129.29090909090908" y="85" width="2" height="15" id="death-date-19"></rect></g><g><rect x="125.72727272727273" y="81" width="2" height="19" id="death-date-20"></rect></g><g><rect x="122.16363636363636" y="80" width="2" height="20" id="death-date-21"></rect></g><g><rect x="118.6" y="81" width="2" height="19" id="death-date-22"></rect></g><g><rect x="115.03636363636363" y="79" width="2" height="21" id="death-date-23"></rect></g><g><rect x="111.47272727272728" y="80" width="2" height="20" id="death-date-24"></rect></g><g><rect x="107.90909090909089" y="77" width="2" height="23" id="death-date-25"></rect></g><g><rect x="104.34545454545456" y="71" width="2" height="29" id="death-date-26"></rect></g><g><rect x="100.78181818181817" y="86" width="2" height="14" id="death-date-27"></rect></g><g><rect x="97.21818181818183" y="79" width="2" height="21" id="death-date-28"></rect></g><g><rect x="93.65454545454546" y="75" width="2" height="25" id="death-date-29"></rect></g><g><rect x="90.09090909090911" y="69" width="2" height="31" id="death-date-30"></rect></g><g><rect x="86.52727272727273" y="68" width="2" height="32" id="death-date-31"></rect></g><g><rect x="82.96363636363637" y="78" width="2" height="22" id="death-date-32"></rect></g><g><rect x="79.4" y="68" width="2" height="32" id="death-date-33"></rect></g><g><rect x="75.83636363636364" y="62" width="2" height="38" id="death-date-34"></rect></g><g><rect x="72.27272727272727" y="69" width="2" height="31" id="death-date-35"></rect></g><g><rect x="68.70909090909092" y="69" width="2" height="31" id="death-date-36"></rect></g><g><rect x="65.14545454545454" y="70" width="2" height="30" id="death-date-37"></rect></g><g><rect x="61.58181818181818" y="64" width="2" height="36" id="death-date-38"></rect></g><g><rect x="58.018181818181816" y="59.00000000000001" width="2" height="40.99999999999999" id="death-date-39"></rect></g><g><rect x="54.454545454545446" y="51" width="2" height="49" id="death-date-40"></rect></g><g><rect x="50.89090909090908" y="44.99999999999999" width="2" height="55.00000000000001" id="death-date-41"></rect></g><g><rect x="47.32727272727273" y="46" width="2" height="54" id="death-date-42"></rect></g><g><rect x="43.76363636363636" y="43.99999999999999" width="2" height="56.00000000000001" id="death-date-43"></rect></g><g><rect x="40.199999999999996" y="46" width="2" height="54" id="death-date-44"></rect></g><g><rect x="36.636363636363626" y="40" width="2" height="60" id="death-date-45"></rect></g><g><rect x="33.072727272727285" y="36" width="2" height="64" id="death-date-46"></rect></g><g><rect x="29.509090909090922" y="43.99999999999999" width="2" height="56.00000000000001" id="death-date-47"></rect></g><g><rect x="25.945454545454556" y="24" width="2" height="76" id="death-date-48"></rect></g><g><rect x="22.38181818181819" y="38" width="2" height="62" id="death-date-49"></rect></g><g><rect x="18.818181818181824" y="21.999999999999996" width="2" height="78" id="death-date-50"></rect></g><g><rect x="15.254545454545461" y="18.000000000000004" width="2" height="82" id="death-date-51"></rect></g><g><rect x="11.690909090909095" y="29.000000000000004" width="2" height="71" id="death-date-52"></rect></g><g><rect x="8.12727272727273" y="18.999999999999993" width="2" height="81" id="death-date-53"></rect></g><g><rect x="4.563636363636365" y="6.999999999999995" width="2" height="93" id="death-date-54"></rect></g><g><rect x="1" y="18.000000000000004" width="2" height="82" id="death-date-55"></rect></g></g><g class="fg-line death-date" fill="none" stroke="#92c5de" stroke-width="2" stroke-linecap="round"><path d="M198,88.14285714285714L194.43636363636364,88.28571428571429L190.87272727272727,88.57142857142857L187.30909090909088,88L183.74545454545455,88.28571428571429L180.1818181818182,88.85714285714286L176.61818181818182,88.71428571428571L173.05454545454546,88.71428571428571L169.49090909090907,87.28571428571429L165.92727272727274,85.57142857142857L162.36363636363637,86.14285714285714L158.8,85.14285714285714L155.23636363636365,84L151.6727272727273,84.14285714285714L148.1090909090909,83.42857142857143L144.54545454545453,83.57142857142857L140.9818181818182,83.57142857142857L137.41818181818184,82.28571428571428L133.85454545454544,81.42857142857143L130.29090909090908,80.42857142857143L126.72727272727273,78.42857142857143L123.16363636363636,79.14285714285714L119.6,79L116.03636363636363,78.14285714285714L112.47272727272728,76.71428571428571L108.90909090909089,75L105.34545454545456,75.14285714285714L101.78181818181817,74.71428571428571L98.21818181818183,71.28571428571429L94.65454545454546,69.85714285714286L91.09090909090911,69L87.52727272727273,69.14285714285715L83.96363636363637,68.57142857142857L80.4,65.85714285714286L76.83636363636364,63.42857142857143L73.27272727272727,61L69.70909090909092,57.714285714285715L66.14545454545454,54.142857142857146L62.58181818181818,50.71428571428571L59.018181818181816,47.285714285714285L55.454545454545446,43.99999999999999L51.89090909090908,43.00000000000001L48.32727272727273,40L44.76363636363636,38.857142857142854L41.199999999999996,35.71428571428571L37.636363636363626,31.714285714285705L34.072727272727285,30.14285714285714L30.509090909090922,27.714285714285715L26.945454545454556,22.42857142857143L23.38181818181819,21.571428571428577L19.818181818181824,15.285714285714292L16.25454545454546,10.999999999999998L12.690909090909095,5.857142857142861L9.12727272727273,-2.0000000000000018L5.563636363636365,-5.714285714285716L2,-11.571428571428566"></path></g></svg>