<svg about="DATA_PUBLISHED_DATE:2021-12-06,RENDER_DATE:2021-12-06" xmlns="http://www.w3.org/2000/svg" viewBox="0,0,200,100"><g transform="translate(0,0)"></g><g class="fg-bars tests-vaccines" fill="#00183f" stroke="none"><g><rect x="197" y="77.66285714285715" width="2" height="22.33714285714285" id="tests-vaccines-0"></rect></g><g><rect x="193.43636363636364" y="60.7425" width="2" height="39.2575" id="tests-vaccines-1"></rect></g><g><rect x="189.87272727272727" y="47.01642857142857" width="2" height="52.98357142857143" id="tests-vaccines-2"></rect></g><g><rect x="186.30909090909088" y="98.31857142857143" width="2" height="1.6814285714285688" id="tests-vaccines-3"></rect></g><g><rect x="182.74545454545455" y="29.14214285714286" width="2" height="70.85785714285714" id="tests-vaccines-4"></rect></g><g><rect x="179.1818181818182" y="15.699642857142859" width="2" height="84.30035714285714" id="tests-vaccines-5"></rect></g><g><rect x="175.61818181818182" y="19.61857142857143" width="2" height="80.38142857142857" id="tests-vaccines-6"></rect></g><g><rect x="172.05454545454546" y="74.72607142857143" width="2" height="25.27392857142857" id="tests-vaccines-7"></rect></g><g><rect x="168.49090909090907" y="45.54892857142857" width="2" height="54.45107142857143" id="tests-vaccines-8"></rect></g><g><rect x="164.92727272727274" y="6.71357142857143" width="2" height="93.28642857142857" id="tests-vaccines-9"></rect></g><g><rect x="161.36363636363637" y="21.402857142857144" width="2" height="78.59714285714286" id="tests-vaccines-10"></rect></g><g><rect x="157.8" y="18.891071428571426" width="2" height="81.10892857142858" id="tests-vaccines-11"></rect></g><g><rect x="154.23636363636365" y="20.323214285714286" width="2" height="79.67678571428571" id="tests-vaccines-12"></rect></g><g><rect x="150.6727272727273" y="27.523571428571426" width="2" height="72.47642857142857" id="tests-vaccines-13"></rect></g><g><rect x="147.1090909090909" y="74.90392857142858" width="2" height="25.09607142857142" id="tests-vaccines-14"></rect></g><g><rect x="143.54545454545453" y="47.5325" width="2" height="52.4675" id="tests-vaccines-15"></rect></g><g><rect x="139.9818181818182" y="8.632857142857143" width="2" height="91.36714285714285" id="tests-vaccines-16"></rect></g><g><rect x="136.41818181818184" y="23.308928571428567" width="2" height="76.69107142857143" id="tests-vaccines-17"></rect></g><g><rect x="132.85454545454544" y="20.320000000000004" width="2" height="79.67999999999999" id="tests-vaccines-18"></rect></g><g><rect x="129.29090909090908" y="22.8525" width="2" height="77.14750000000001" id="tests-vaccines-19"></rect></g><g><rect x="125.72727272727273" y="28.890357142857148" width="2" height="71.10964285714286" id="tests-vaccines-20"></rect></g><g><rect x="122.16363636363636" y="76.09428571428572" width="2" height="23.905714285714282" id="tests-vaccines-21"></rect></g><g><rect x="118.6" y="54.49928571428572" width="2" height="45.50071428571428" id="tests-vaccines-22"></rect></g><g><rect x="115.03636363636363" y="13.821071428571429" width="2" height="86.17892857142857" id="tests-vaccines-23"></rect></g><g><rect x="111.47272727272728" y="29.978928571428575" width="2" height="70.02107142857142" id="tests-vaccines-24"></rect></g><g><rect x="107.90909090909089" y="32.736071428571435" width="2" height="67.26392857142856" id="tests-vaccines-25"></rect></g><g><rect x="104.34545454545456" y="32.53571428571429" width="2" height="67.46428571428571" id="tests-vaccines-26"></rect></g><g><rect x="100.78181818181817" y="36.68964285714286" width="2" height="63.31035714285714" id="tests-vaccines-27"></rect></g><g><rect x="97.21818181818183" y="81.92714285714285" width="2" height="18.072857142857146" id="tests-vaccines-28"></rect></g><g><rect x="93.65454545454546" y="63.278214285714284" width="2" height="36.721785714285716" id="tests-vaccines-29"></rect></g><g><rect x="90.09090909090911" y="22.273571428571426" width="2" height="77.72642857142857" id="tests-vaccines-30"></rect></g><g><rect x="86.52727272727273" y="35.20535714285714" width="2" height="64.79464285714286" id="tests-vaccines-31"></rect></g><g><rect x="82.96363636363637" y="35.14785714285714" width="2" height="64.85214285714287" id="tests-vaccines-32"></rect></g><g><rect x="79.4" y="35.980000000000004" width="2" height="64.02" id="tests-vaccines-33"></rect></g><g><rect x="75.83636363636364" y="41.88964285714286" width="2" height="58.11035714285714" id="tests-vaccines-34"></rect></g><g><rect x="72.27272727272727" y="83.10035714285713" width="2" height="16.899642857142865" id="tests-vaccines-35"></rect></g><g><rect x="68.70909090909092" y="66.99642857142858" width="2" height="33.00357142857142" id="tests-vaccines-36"></rect></g><g><rect x="65.14545454545454" y="42.07107142857143" width="2" height="57.92892857142857" id="tests-vaccines-37"></rect></g><g><rect x="61.58181818181818" y="65.62928571428571" width="2" height="34.370714285714286" id="tests-vaccines-38"></rect></g><g><rect x="58.018181818181816" y="66.96642857142857" width="2" height="33.033571428571435" id="tests-vaccines-39"></rect></g><g><rect x="54.454545454545446" y="65.89964285714287" width="2" height="34.100357142857135" id="tests-vaccines-40"></rect></g><g><rect x="50.89090909090908" y="64.47785714285715" width="2" height="35.52214285714285" id="tests-vaccines-41"></rect></g><g><rect x="47.32727272727273" y="89.10785714285714" width="2" height="10.892142857142858" id="tests-vaccines-42"></rect></g><g><rect x="43.76363636363636" y="78.98821428571429" width="2" height="21.011785714285708" id="tests-vaccines-43"></rect></g><g><rect x="40.199999999999996" y="55.04071428571429" width="2" height="44.95928571428571" id="tests-vaccines-44"></rect></g><g><rect x="36.636363636363626" y="64.09285714285714" width="2" height="35.90714285714286" id="tests-vaccines-45"></rect></g><g><rect x="33.072727272727285" y="64.51071428571429" width="2" height="35.489285714285714" id="tests-vaccines-46"></rect></g><g><rect x="29.509090909090922" y="62.317857142857136" width="2" height="37.682142857142864" id="tests-vaccines-47"></rect></g><g><rect x="25.945454545454556" y="61.84392857142858" width="2" height="38.15607142857142" id="tests-vaccines-48"></rect></g><g><rect x="22.38181818181819" y="87.28571428571429" width="2" height="12.714285714285708" id="tests-vaccines-49"></rect></g><g><rect x="18.818181818181824" y="76.68607142857142" width="2" height="23.313928571428576" id="tests-vaccines-50"></rect></g><g><rect x="15.254545454545461" y="49.06178571428571" width="2" height="50.93821428571429" id="tests-vaccines-51"></rect></g><g><rect x="11.690909090909095" y="58.24964285714286" width="2" height="41.75035714285714" id="tests-vaccines-52"></rect></g><g><rect x="8.12727272727273" y="61.0425" width="2" height="38.9575" id="tests-vaccines-53"></rect></g><g><rect x="4.563636363636365" y="60.1925" width="2" height="39.8075" id="tests-vaccines-54"></rect></g><g><rect x="1" y="60.40714285714286" width="2" height="39.59285714285714" id="tests-vaccines-55"></rect></g></g><g class="fg-line tests-vaccines" fill="none" stroke="#92c5de" stroke-width="2" stroke-linecap="round"><path d="M198,49.74295918367346L194.43636363636364,49.32341836734694L190.87272727272727,47.15290816326531L187.30909090909088,41.39535714285715L183.74545454545455,30.40739795918368L180.1818181818182,28.942959183673466L176.61818181818182,29.603469387755098L173.05454545454546,30.73275510204082L169.49090909090907,30.758163265306116L165.92727272727274,31.041530612244895L162.36363636363637,31.315714285714293L158.8,31.58801020408164L155.23636363636365,31.792142857142856L151.6727272727273,32.15346938775511L148.1090909090909,32.34872448979592L144.54545454545453,32.51877551020408L140.9818181818182,33.514030612244895L137.41818181818184,34.25520408163265L133.85454545454544,35.208061224489796L130.29090909090908,36.98178571428572L126.72727272727273,38.365102040816325L123.16363636363636,39.479285714285716L119.6,40.31255102040817L116.03636363636363,41.566683673469385L112.47272727272728,42.77418367346939L108.90909090909089,43.52081632653061L105.34545454545456,43.86535714285714L101.78181818181817,44.35739795918367L98.21818181818183,45.10025510204082L94.65454545454546,45.26785714285714L91.09090909090911,45.7990306122449L87.52727272727273,48.62724489795919L83.96363636363637,52.97352040816325L80.4,57.519030612244904L76.83636363636364,61.79326530612245L73.27272727272727,65.02015306122448L69.70909090909092,65.87836734693877L66.14545454545454,67.59147959183673L62.58181818181818,69.44428571428571L59.018181818181816,69.22479591836735L55.454545454545446,68.87397959183673L51.89090909090908,68.36229591836734L48.32727272727273,67.98602040816326L44.76363636363636,67.72571428571428L41.199999999999996,67.39683673469388L37.636363636363626,66.54270408163265L34.072727272727285,65.70795918367347L30.509090909090922,65.2125L26.945454545454556,64.90887755102041L23.38181818181819,64.70362244897959L19.818181818181824,64.56551020408163L16.25454545454546,64.42882653061226L12.690909090909095,64.28903061224489L9.12727272727273,63.52326530612245L5.563636363636365,62.49688775510204L2,61.572500000000005"></path></g></svg>