<svg meta="{&quot;DATA_PUBLISHED_DATE&quot;:&quot;2023-09-08&quot;,&quot;RENDER_DATE&quot;:&quot;2023-09-08&quot;,&quot;FIRST_DATE&quot;:&quot;2023-07-09&quot;,&quot;LAST_DATE&quot;:&quot;2023-09-02&quot;}" xmlns="http://www.w3.org/2000/svg" viewBox="0,0,200,100"><g transform="translate(0,0)"></g><g class="fg-bars admissions-count" fill="#00183f" stroke="none"><g><rect x="197" y="21.777777777777775" width="2" height="78.22222222222223" id="admissions-count-0"></rect></g><g><rect x="193.43636363636364" y="16.666666666666664" width="2" height="83.33333333333334" id="admissions-count-1"></rect></g><g><rect x="189.87272727272727" y="8.444444444444443" width="2" height="91.55555555555556" id="admissions-count-2"></rect></g><g><rect x="186.30909090909088" y="2.2222222222222254" width="2" height="97.77777777777777" id="admissions-count-3"></rect></g><g><rect x="182.74545454545455" y="7.1111111111111125" width="2" height="92.88888888888889" id="admissions-count-4"></rect></g><g><rect x="179.1818181818182" y="26" width="2" height="74" id="admissions-count-5"></rect></g><g><rect x="175.61818181818182" y="22.444444444444443" width="2" height="77.55555555555556" id="admissions-count-6"></rect></g><g><rect x="172.05454545454546" y="14.888888888888886" width="2" height="85.11111111111111" id="admissions-count-7"></rect></g><g><rect x="168.49090909090907" y="3.3333333333333326" width="2" height="96.66666666666667" id="admissions-count-8"></rect></g><g><rect x="164.92727272727274" y="14.000000000000002" width="2" height="86" id="admissions-count-9"></rect></g><g><rect x="161.36363636363637" y="12.666666666666671" width="2" height="87.33333333333333" id="admissions-count-10"></rect></g><g><rect x="157.8" y="10.444444444444445" width="2" height="89.55555555555556" id="admissions-count-11"></rect></g><g><rect x="154.23636363636365" y="31.777777777777782" width="2" height="68.22222222222221" id="admissions-count-12"></rect></g><g><rect x="150.6727272727273" y="25.33333333333333" width="2" height="74.66666666666667" id="admissions-count-13"></rect></g><g><rect x="147.1090909090909" y="28.222222222222225" width="2" height="71.77777777777777" id="admissions-count-14"></rect></g><g><rect x="143.54545454545453" y="26" width="2" height="74" id="admissions-count-15"></rect></g><g><rect x="139.9818181818182" y="20.666666666666668" width="2" height="79.33333333333333" id="admissions-count-16"></rect></g><g><rect x="136.41818181818184" y="15.777777777777779" width="2" height="84.22222222222223" id="admissions-count-17"></rect></g><g><rect x="132.85454545454544" y="17.555555555555557" width="2" height="82.44444444444444" id="admissions-count-18"></rect></g><g><rect x="129.29090909090908" y="26.44444444444445" width="2" height="73.55555555555554" id="admissions-count-19"></rect></g><g><rect x="125.72727272727273" y="34.66666666666667" width="2" height="65.33333333333333" id="admissions-count-20"></rect></g><g><rect x="122.16363636363636" y="17.555555555555557" width="2" height="82.44444444444444" id="admissions-count-21"></rect></g><g><rect x="118.6" y="39.55555555555556" width="2" height="60.44444444444444" id="admissions-count-22"></rect></g><g><rect x="115.03636363636363" y="36" width="2" height="64" id="admissions-count-23"></rect></g><g><rect x="111.47272727272728" y="30.666666666666664" width="2" height="69.33333333333334" id="admissions-count-24"></rect></g><g><rect x="107.90909090909089" y="44.44444444444444" width="2" height="55.55555555555556" id="admissions-count-25"></rect></g><g><rect x="104.34545454545456" y="42.44444444444444" width="2" height="57.55555555555556" id="admissions-count-26"></rect></g><g><rect x="100.78181818181817" y="38.66666666666667" width="2" height="61.33333333333333" id="admissions-count-27"></rect></g><g><rect x="97.21818181818183" y="42.44444444444444" width="2" height="57.55555555555556" id="admissions-count-28"></rect></g><g><rect x="93.65454545454546" y="43.777777777777786" width="2" height="56.222222222222214" id="admissions-count-29"></rect></g><g><rect x="90.09090909090911" y="44.888888888888886" width="2" height="55.111111111111114" id="admissions-count-30"></rect></g><g><rect x="86.52727272727273" y="40.666666666666664" width="2" height="59.333333333333336" id="admissions-count-31"></rect></g><g><rect x="82.96363636363637" y="44.666666666666664" width="2" height="55.333333333333336" id="admissions-count-32"></rect></g><g><rect x="79.4" y="58.00000000000001" width="2" height="41.99999999999999" id="admissions-count-33"></rect></g><g><rect x="75.83636363636364" y="52.8888888888889" width="2" height="47.1111111111111" id="admissions-count-34"></rect></g><g><rect x="72.27272727272727" y="51.33333333333333" width="2" height="48.66666666666667" id="admissions-count-35"></rect></g><g><rect x="68.70909090909092" y="48.66666666666667" width="2" height="51.33333333333333" id="admissions-count-36"></rect></g><g><rect x="65.14545454545454" y="54.888888888888886" width="2" height="45.111111111111114" id="admissions-count-37"></rect></g><g><rect x="61.58181818181818" y="58.666666666666664" width="2" height="41.333333333333336" id="admissions-count-38"></rect></g><g><rect x="58.018181818181816" y="49.55555555555555" width="2" height="50.44444444444445" id="admissions-count-39"></rect></g><g><rect x="54.454545454545446" y="55.55555555555556" width="2" height="44.44444444444444" id="admissions-count-40"></rect></g><g><rect x="50.89090909090908" y="62" width="2" height="38" id="admissions-count-41"></rect></g><g><rect x="47.32727272727273" y="58.88888888888889" width="2" height="41.11111111111111" id="admissions-count-42"></rect></g><g><rect x="43.76363636363636" y="56.888888888888886" width="2" height="43.111111111111114" id="admissions-count-43"></rect></g><g><rect x="40.199999999999996" y="60.88888888888888" width="2" height="39.11111111111112" id="admissions-count-44"></rect></g><g><rect x="36.636363636363626" y="53.11111111111111" width="2" height="46.88888888888889" id="admissions-count-45"></rect></g><g><rect x="33.072727272727285" y="50" width="2" height="50" id="admissions-count-46"></rect></g><g><rect x="29.509090909090922" y="63.33333333333333" width="2" height="36.66666666666667" id="admissions-count-47"></rect></g><g><rect x="25.945454545454556" y="53.333333333333336" width="2" height="46.666666666666664" id="admissions-count-48"></rect></g><g><rect x="22.38181818181819" y="63.111111111111114" width="2" height="36.888888888888886" id="admissions-count-49"></rect></g><g><rect x="18.818181818181824" y="58.44444444444444" width="2" height="41.55555555555556" id="admissions-count-50"></rect></g><g><rect x="15.254545454545461" y="68" width="2" height="32" id="admissions-count-51"></rect></g><g><rect x="11.690909090909095" y="54.44444444444445" width="2" height="45.55555555555555" id="admissions-count-52"></rect></g><g><rect x="8.12727272727273" y="56.888888888888886" width="2" height="43.111111111111114" id="admissions-count-53"></rect></g><g><rect x="4.563636363636365" y="59.33333333333333" width="2" height="40.66666666666667" id="admissions-count-54"></rect></g><g><rect x="1" y="63.111111111111114" width="2" height="36.888888888888886" id="admissions-count-55"></rect></g></g><g class="fg-line admissions-count" fill="none" stroke="#92c5de" stroke-width="2" stroke-linecap="round"><path d="M198,14.95238095238095L194.43636363636364,13.968253968253963L190.87272727272727,12.063492063492065L187.30909090909088,12.857142857142856L183.74545454545455,14.349206349206344L180.1818181818182,14.82539682539683L176.61818181818182,15.65079365079366L173.05454545454546,16.063492063492056L169.49090909090907,17.96825396825397L165.92727272727274,21.206349206349206L162.36363636363637,22.158730158730155L158.8,22.6031746031746L155.23636363636365,23.619047619047617L151.6727272727273,22.857142857142854L148.1090909090909,24.190476190476183L144.54545454545453,22.666666666666668L140.9818181818182,24.603174603174605L137.41818181818184,26.79365079365079L133.85454545454544,28.920634920634924L130.29090909090908,32.76190476190477L126.72727272727273,35.04761904761905L123.16363636363636,35.61904761904762L119.6,39.17460317460317L116.03636363636363,39.77777777777778L112.47272727272728,41.047619047619044L108.90909090909089,42.47619047619048L105.34545454545456,42.507936507936506L101.78181818181817,44.730158730158735L98.21818181818183,46.76190476190476L94.65454545454546,48.031746031746025L91.09090909090911,48.73015873015872L87.52727272727273,50.15873015873016L83.96363636363637,52.73015873015873L80.4,53.42857142857142L76.83636363636364,53.07936507936508L73.27272727272727,54.38095238095239L69.70909090909092,55.46031746031746L66.14545454545454,56.63492063492064L62.58181818181818,57.492063492063494L59.018181818181816,56.698412698412696L55.454545454545446,56.76190476190476L51.89090909090908,57.87301587301587L48.32727272727273,56.63492063492064L44.76363636363636,57.23809523809524L41.199999999999996,57.460317460317455L37.636363636363626,58.47619047619048L34.072727272727285,58.666666666666664L30.509090909090922,59.650793650793645L26.945454545454556,59.07936507936509L23.38181818181819,60.47619047619048L19.818181818181824,60.44444444444444L16.25454545454546,60.47619047619048L12.690909090909095,59.36507936507937L9.12727272727273,60.76190476190476L5.563636363636365,62.25396825396825L2,63.682539682539684"></path></g></svg>