<svg about="DATA_PUBLISHED_DATE:2021-10-31,RENDER_DATE:2021-10-31" xmlns="http://www.w3.org/2000/svg" viewBox="0,0,200,100"><g transform="translate(0,0)"></g><g class="fg-bars tests-vaccines" fill="#00183f" stroke="none"><g><rect x="197" y="44.808749999999996" width="2" height="55.191250000000004" id="tests-vaccines-0"></rect></g><g><rect x="193.43636363636364" y="2.238125000000002" width="2" height="97.761875" id="tests-vaccines-1"></rect></g><g><rect x="189.87272727272727" y="41.68875" width="2" height="58.31125" id="tests-vaccines-2"></rect></g><g><rect x="186.30909090909088" y="44.06625" width="2" height="55.93375" id="tests-vaccines-3"></rect></g><g><rect x="182.74545454545455" y="41.934375" width="2" height="58.065625" id="tests-vaccines-4"></rect></g><g><rect x="179.1818181818182" y="39.566875" width="2" height="60.433125" id="tests-vaccines-5"></rect></g><g><rect x="175.61818181818182" y="81.365625" width="2" height="18.634375000000006" id="tests-vaccines-6"></rect></g><g><rect x="172.05454545454546" y="64.23125" width="2" height="35.76875" id="tests-vaccines-7"></rect></g><g><rect x="168.49090909090907" y="23.453749999999996" width="2" height="76.54625" id="tests-vaccines-8"></rect></g><g><rect x="164.92727272727274" y="38.83562499999999" width="2" height="61.16437500000001" id="tests-vaccines-9"></rect></g><g><rect x="161.36363636363637" y="39.480000000000004" width="2" height="60.519999999999996" id="tests-vaccines-10"></rect></g><g><rect x="157.8" y="35.65625" width="2" height="64.34375" id="tests-vaccines-11"></rect></g><g><rect x="154.23636363636365" y="34.638124999999995" width="2" height="65.361875" id="tests-vaccines-12"></rect></g><g><rect x="150.6727272727273" y="78.230625" width="2" height="21.769374999999997" id="tests-vaccines-13"></rect></g><g><rect x="147.1090909090909" y="60.19375" width="2" height="39.80625" id="tests-vaccines-14"></rect></g><g><rect x="143.54545454545453" y="13.165000000000004" width="2" height="86.835" id="tests-vaccines-15"></rect></g><g><rect x="139.9818181818182" y="28.55875" width="2" height="71.44125" id="tests-vaccines-16"></rect></g><g><rect x="136.41818181818184" y="33.50625" width="2" height="66.49375" id="tests-vaccines-17"></rect></g><g><rect x="132.85454545454544" y="31.76375" width="2" height="68.23625" id="tests-vaccines-18"></rect></g><g><rect x="129.29090909090908" y="32.035000000000004" width="2" height="67.965" id="tests-vaccines-19"></rect></g><g><rect x="125.72727272727273" y="76.53999999999999" width="2" height="23.460000000000008" id="tests-vaccines-20"></rect></g><g><rect x="122.16363636363636" y="58.450625" width="2" height="41.549375" id="tests-vaccines-21"></rect></g><g><rect x="118.6" y="11.146250000000002" width="2" height="88.85374999999999" id="tests-vaccines-22"></rect></g><g><rect x="115.03636363636363" y="18.703125" width="2" height="81.296875" id="tests-vaccines-23"></rect></g><g><rect x="111.47272727272728" y="20.363750000000003" width="2" height="79.63624999999999" id="tests-vaccines-24"></rect></g><g><rect x="107.90909090909089" y="19.845000000000002" width="2" height="80.155" id="tests-vaccines-25"></rect></g><g><rect x="104.34545454545456" y="26.248125" width="2" height="73.751875" id="tests-vaccines-26"></rect></g><g><rect x="100.78181818181817" y="75.6" width="2" height="24.400000000000006" id="tests-vaccines-27"></rect></g><g><rect x="97.21818181818183" y="55.98624999999999" width="2" height="44.01375000000001" id="tests-vaccines-28"></rect></g><g><rect x="93.65454545454546" y="32.703125" width="2" height="67.296875" id="tests-vaccines-29"></rect></g><g><rect x="90.09090909090911" y="55.250625" width="2" height="44.749375" id="tests-vaccines-30"></rect></g><g><rect x="86.52727272727273" y="55.13125" width="2" height="44.86875" id="tests-vaccines-31"></rect></g><g><rect x="82.96363636363637" y="53.78000000000001" width="2" height="46.21999999999999" id="tests-vaccines-32"></rect></g><g><rect x="79.4" y="50.046875" width="2" height="49.953125" id="tests-vaccines-33"></rect></g><g><rect x="75.83636363636364" y="79.55250000000001" width="2" height="20.44749999999999" id="tests-vaccines-34"></rect></g><g><rect x="72.27272727272727" y="64.42" width="2" height="35.58" id="tests-vaccines-35"></rect></g><g><rect x="68.70909090909092" y="40.018750000000004" width="2" height="59.981249999999996" id="tests-vaccines-36"></rect></g><g><rect x="65.14545454545454" y="48.646875" width="2" height="51.353125" id="tests-vaccines-37"></rect></g><g><rect x="61.58181818181818" y="50.17875000000001" width="2" height="49.82124999999999" id="tests-vaccines-38"></rect></g><g><rect x="58.018181818181816" y="49.628125" width="2" height="50.371875" id="tests-vaccines-39"></rect></g><g><rect x="54.454545454545446" y="47.228125" width="2" height="52.771875" id="tests-vaccines-40"></rect></g><g><rect x="50.89090909090908" y="77.903125" width="2" height="22.096874999999997" id="tests-vaccines-41"></rect></g><g><rect x="47.32727272727273" y="60.525000000000006" width="2" height="39.474999999999994" id="tests-vaccines-42"></rect></g><g><rect x="43.76363636363636" y="32.481875" width="2" height="67.518125" id="tests-vaccines-43"></rect></g><g><rect x="40.199999999999996" y="44.576875" width="2" height="55.423125" id="tests-vaccines-44"></rect></g><g><rect x="36.636363636363626" y="44.166875000000005" width="2" height="55.833124999999995" id="tests-vaccines-45"></rect></g><g><rect x="33.072727272727285" y="38.299375000000005" width="2" height="61.700624999999995" id="tests-vaccines-46"></rect></g><g><rect x="29.509090909090922" y="87.855625" width="2" height="12.144374999999997" id="tests-vaccines-47"></rect></g><g><rect x="25.945454545454556" y="76.1575" width="2" height="23.8425" id="tests-vaccines-48"></rect></g><g><rect x="22.38181818181819" y="59.923125" width="2" height="40.076875" id="tests-vaccines-49"></rect></g><g><rect x="18.818181818181824" y="26.02375" width="2" height="73.97625" id="tests-vaccines-50"></rect></g><g><rect x="15.254545454545461" y="41.05" width="2" height="58.95" id="tests-vaccines-51"></rect></g><g><rect x="11.690909090909095" y="38.954375" width="2" height="61.045625" id="tests-vaccines-52"></rect></g><g><rect x="8.12727272727273" y="36.914375" width="2" height="63.085625" id="tests-vaccines-53"></rect></g><g><rect x="4.563636363636365" y="36.3375" width="2" height="63.6625" id="tests-vaccines-54"></rect></g><g><rect x="1" y="73.37374999999999" width="2" height="26.626250000000013" id="tests-vaccines-55"></rect></g></g><g class="fg-line tests-vaccines" fill="none" stroke="#92c5de" stroke-width="2" stroke-linecap="round"><path d="M198,42.23839285714285L194.43636363636364,45.01303571428572L190.87272727272727,48.043839285714284L187.30909090909088,47.636250000000004L183.74545454545455,46.98107142857143L180.1818181818182,46.08419642857143L176.61818181818182,45.380089285714284L173.05454545454546,44.932232142857146L169.49090909090907,44.35544642857143L165.92727272727274,42.885625000000005L162.36363636363637,41.4175L158.8,40.56410714285714L155.23636363636365,40.00803571428572L151.6727272727273,39.636160714285715L148.1090909090909,39.394642857142856L144.54545454545453,39.145624999999995L140.9818181818182,38.85723214285714L137.41818181818184,37.44928571428572L133.85454545454544,35.57178571428572L130.29090909090908,33.869107142857146L126.72727272727273,33.04241071428572L123.16363636363636,32.908125L119.6,32.55607142857143L116.03636363636363,35.635625000000005L112.47272727272728,40.856696428571425L108.90909090909089,45.823482142857145L105.34545454545456,50.67133928571428L101.78181818181817,54.07116071428572L98.21818181818183,54.63580357142857L94.65454545454546,55.840625L91.09090909090911,56.885714285714286L87.52727272727273,55.94232142857143L83.96363636363637,55.234821428571436L80.4,54.64169642857143L76.83636363636364,54.23901785714285L73.27272727272727,54.00339285714285L69.70909090909092,53.44696428571428L66.14545454545454,52.37026785714285L62.58181818181818,51.78883928571428L59.018181818181816,50.93L55.454545454545446,49.31160714285715L51.89090909090908,55.11553571428571L48.32727272727273,54.86616071428572L44.76363636363636,54.780178571428564L41.199999999999996,53.85758928571429L37.636363636363626,53.35375L34.072727272727285,52.60910714285715L30.509090909090922,52.411249999999995L26.945454545454556,45.051517857142855L23.38181818181819,44.653839285714284L19.818181818181824,43.425625000000004L16.25454545454546,42.528214285714284L12.690909090909095,41.63776785714285L9.12727272727273,41.174910714285716L5.563636363636365,40.65508928571428L2,40.27544642857143"></path></g></svg>