<svg about="DATA_PUBLISHED_DATE:2022-01-17,RENDER_DATE:2022-01-17" xmlns="http://www.w3.org/2000/svg" viewBox="0,0,200,100"><g transform="translate(0,0)"></g><g class="fg-bars cases-ep" fill="#00183f" stroke="none"><g><rect x="197" y="60.881874999999994" width="2" height="39.118125000000006" id="cases-ep-0"></rect></g><g><rect x="193.43636363636364" y="24.601249999999997" width="2" height="75.39875" id="cases-ep-1"></rect></g><g><rect x="189.87272727272727" y="19.934375000000003" width="2" height="80.065625" id="cases-ep-2"></rect></g><g><rect x="186.30909090909088" y="12.939374999999998" width="2" height="87.060625" id="cases-ep-3"></rect></g><g><rect x="182.74545454545455" y="9.965625" width="2" height="90.034375" id="cases-ep-4"></rect></g><g><rect x="179.1818181818182" y="19.736874999999998" width="2" height="80.263125" id="cases-ep-5"></rect></g><g><rect x="175.61818181818182" y="68.51812500000001" width="2" height="31.481874999999988" id="cases-ep-6"></rect></g><g><rect x="172.05454545454546" y="82.623125" width="2" height="17.376875" id="cases-ep-7"></rect></g><g><rect x="168.49090909090907" y="68.891875" width="2" height="31.108125" id="cases-ep-8"></rect></g><g><rect x="164.92727272727274" y="49.08" width="2" height="50.92" id="cases-ep-9"></rect></g><g><rect x="161.36363636363637" y="46.94875" width="2" height="53.05125" id="cases-ep-10"></rect></g><g><rect x="157.8" y="47.549375000000005" width="2" height="52.450624999999995" id="cases-ep-11"></rect></g><g><rect x="154.23636363636365" y="55.464999999999996" width="2" height="44.535000000000004" id="cases-ep-12"></rect></g><g><rect x="150.6727272727273" y="79.095" width="2" height="20.905" id="cases-ep-13"></rect></g><g><rect x="147.1090909090909" y="91.63875" width="2" height="8.361249999999998" id="cases-ep-14"></rect></g><g><rect x="143.54545454545453" y="87.054375" width="2" height="12.945625000000007" id="cases-ep-15"></rect></g><g><rect x="139.9818181818182" y="80.649375" width="2" height="19.350624999999994" id="cases-ep-16"></rect></g><g><rect x="136.41818181818184" y="80.949375" width="2" height="19.050624999999997" id="cases-ep-17"></rect></g><g><rect x="132.85454545454544" y="83.55" width="2" height="16.450000000000003" id="cases-ep-18"></rect></g><g><rect x="129.29090909090908" y="85.98" width="2" height="14.019999999999996" id="cases-ep-19"></rect></g><g><rect x="125.72727272727273" y="93.575625" width="2" height="6.424374999999998" id="cases-ep-20"></rect></g><g><rect x="122.16363636363636" y="94.05312500000001" width="2" height="5.9468749999999915" id="cases-ep-21"></rect></g><g><rect x="118.6" y="93.16375000000001" width="2" height="6.836249999999993" id="cases-ep-22"></rect></g><g><rect x="115.03636363636363" y="93.705625" width="2" height="6.294375000000002" id="cases-ep-23"></rect></g><g><rect x="111.47272727272728" y="93.77375" width="2" height="6.226249999999993" id="cases-ep-24"></rect></g><g><rect x="107.90909090909089" y="94.843125" width="2" height="5.156874999999999" id="cases-ep-25"></rect></g><g><rect x="104.34545454545456" y="94.5075" width="2" height="5.492500000000007" id="cases-ep-26"></rect></g><g><rect x="100.78181818181817" y="97.280625" width="2" height="2.7193749999999994" id="cases-ep-27"></rect></g><g><rect x="97.21818181818183" y="97.36875" width="2" height="2.6312499999999943" id="cases-ep-28"></rect></g><g><rect x="93.65454545454546" y="96.41" width="2" height="3.5900000000000034" id="cases-ep-29"></rect></g><g><rect x="90.09090909090911" y="96.416875" width="2" height="3.5831249999999955" id="cases-ep-30"></rect></g><g><rect x="86.52727272727273" y="95.965625" width="2" height="4.034374999999997" id="cases-ep-31"></rect></g><g><rect x="82.96363636363637" y="95.934375" width="2" height="4.065624999999997" id="cases-ep-32"></rect></g><g><rect x="79.4" y="95.379375" width="2" height="4.620625000000004" id="cases-ep-33"></rect></g><g><rect x="75.83636363636364" y="97.5925" width="2" height="2.407499999999999" id="cases-ep-34"></rect></g><g><rect x="72.27272727272727" y="97.408125" width="2" height="2.5918750000000017" id="cases-ep-35"></rect></g><g><rect x="68.70909090909092" y="96.164375" width="2" height="3.835624999999993" id="cases-ep-36"></rect></g><g><rect x="65.14545454545454" y="96.055" width="2" height="3.944999999999993" id="cases-ep-37"></rect></g><g><rect x="61.58181818181818" y="95.331875" width="2" height="4.668125000000003" id="cases-ep-38"></rect></g><g><rect x="58.018181818181816" y="95.580625" width="2" height="4.419375000000002" id="cases-ep-39"></rect></g><g><rect x="54.454545454545446" y="94.83562500000001" width="2" height="5.164374999999993" id="cases-ep-40"></rect></g><g><rect x="50.89090909090908" y="97.248125" width="2" height="2.7518749999999983" id="cases-ep-41"></rect></g><g><rect x="47.32727272727273" y="97.36437500000001" width="2" height="2.6356249999999903" id="cases-ep-42"></rect></g><g><rect x="43.76363636363636" y="97.28625" width="2" height="2.7137500000000045" id="cases-ep-43"></rect></g><g><rect x="40.199999999999996" y="98.57312499999999" width="2" height="1.4268750000000097" id="cases-ep-44"></rect></g><g><rect x="36.636363636363626" y="97.0925" width="2" height="2.907499999999999" id="cases-ep-45"></rect></g><g><rect x="33.072727272727285" y="96.9775" width="2" height="3.0224999999999937" id="cases-ep-46"></rect></g><g><rect x="29.509090909090922" y="96.74625" width="2" height="3.2537499999999966" id="cases-ep-47"></rect></g><g><rect x="25.945454545454556" y="98.160625" width="2" height="1.839375000000004" id="cases-ep-48"></rect></g><g><rect x="22.38181818181819" y="97.96375" width="2" height="2.0362499999999955" id="cases-ep-49"></rect></g><g><rect x="18.818181818181824" y="97.14125" width="2" height="2.8587500000000006" id="cases-ep-50"></rect></g><g><rect x="15.254545454545461" y="97.088125" width="2" height="2.911874999999995" id="cases-ep-51"></rect></g><g><rect x="11.690909090909095" y="96.78999999999999" width="2" height="3.210000000000008" id="cases-ep-52"></rect></g><g><rect x="8.12727272727273" y="96.625625" width="2" height="3.3743750000000006" id="cases-ep-53"></rect></g><g><rect x="4.563636363636365" y="96.01875" width="2" height="3.981250000000003" id="cases-ep-54"></rect></g><g><rect x="1" y="97.97625" width="2" height="2.023750000000007" id="cases-ep-55"></rect></g></g><g class="fg-line cases-ep" fill="none" stroke="#92c5de" stroke-width="2" stroke-linecap="round"><path d="M198,30.939642857142857L194.43636363636364,34.04553571428571L190.87272727272727,40.372767857142854L187.30909090909088,44.536428571428566L183.74545454545455,49.394910714285714L180.1818181818182,54.76401785714285L176.61818181818182,59.86803571428572L173.05454545454546,61.379017857142856L169.49090909090907,62.66696428571428L165.92727272727274,65.26160714285713L162.36363636363637,69.77151785714287L158.8,74.62875L155.23636363636365,79.77169642857143L151.6727272727273,84.13098214285715L148.1090909090909,86.19964285714286L144.54545454545453,86.54455357142858L140.9818181818182,87.41732142857143L137.41818181818184,89.2825L133.85454545454544,91.11455357142857L130.29090909090908,92.72785714285715L126.72727272727273,93.94607142857143L123.16363636363636,94.47535714285713L119.6,94.94901785714286L116.03636363636363,95.41276785714285L112.47272727272728,95.80008928571428L108.90909090909089,96.11321428571429L105.34545454545456,96.26910714285715L101.78181818181817,96.39366071428572L98.21818181818183,96.43821428571428L94.65454545454546,96.44383928571429L91.09090909090911,96.40875L87.52727272727273,96.35705357142858L83.96363636363637,96.26651785714286L80.4,96.21598214285714L76.83636363636364,96.13830357142858L73.27272727272727,96.08910714285715L69.70909090909092,96.08285714285715L66.14545454545454,96.24312499999999L62.58181818181818,96.60285714285715L59.018181818181816,96.854375L55.454545454545446,97.05392857142857L51.89090909090908,97.326875L48.32727272727273,97.45723214285714L44.76363636363636,97.54285714285714L41.199999999999996,97.52214285714285L37.636363636363626,97.31L34.072727272727285,97.26678571428572L30.509090909090922,97.21651785714286L26.945454545454556,97.1125892857143L23.38181818181819,97.08624999999999L19.818181818181824,97.07107142857143L16.25454545454546,97.02553571428571L12.690909090909095,97.05785714285715L9.12727272727273,97.01669642857142L5.563636363636365,96.97428571428571L2,96.95169642857144"></path></g></svg>