<svg about="DATA_PUBLISHED_DATE:2021-11-18,RENDER_DATE:2021-11-18" xmlns="http://www.w3.org/2000/svg" viewBox="0,0,200,100"><g transform="translate(0,0)"></g><g class="fg-bars death-date" fill="#00183f" stroke="none"><g><rect x="197" y="69.375" width="2" height="30.625" id="death-date-0"></rect></g><g><rect x="193.43636363636364" y="71.875" width="2" height="28.125" id="death-date-1"></rect></g><g><rect x="189.87272727272727" y="71.875" width="2" height="28.125" id="death-date-2"></rect></g><g><rect x="186.30909090909088" y="67.5" width="2" height="32.5" id="death-date-3"></rect></g><g><rect x="182.74545454545455" y="60.62499999999999" width="2" height="39.37500000000001" id="death-date-4"></rect></g><g><rect x="179.1818181818182" y="49.375" width="2" height="50.625" id="death-date-5"></rect></g><g><rect x="175.61818181818182" y="65.625" width="2" height="34.375" id="death-date-6"></rect></g><g><rect x="172.05454545454546" y="69.375" width="2" height="30.625" id="death-date-7"></rect></g><g><rect x="168.49090909090907" y="66.25" width="2" height="33.75" id="death-date-8"></rect></g><g><rect x="164.92727272727274" y="61.25000000000001" width="2" height="38.74999999999999" id="death-date-9"></rect></g><g><rect x="161.36363636363637" y="61.25000000000001" width="2" height="38.74999999999999" id="death-date-10"></rect></g><g><rect x="157.8" y="66.25" width="2" height="33.75" id="death-date-11"></rect></g><g><rect x="154.23636363636365" y="61.875" width="2" height="38.125" id="death-date-12"></rect></g><g><rect x="150.6727272727273" y="67.5" width="2" height="32.5" id="death-date-13"></rect></g><g><rect x="147.1090909090909" y="63.74999999999999" width="2" height="36.25000000000001" id="death-date-14"></rect></g><g><rect x="143.54545454545453" y="62.5" width="2" height="37.5" id="death-date-15"></rect></g><g><rect x="139.9818181818182" y="56.875" width="2" height="43.125" id="death-date-16"></rect></g><g><rect x="136.41818181818184" y="59.375" width="2" height="40.625" id="death-date-17"></rect></g><g><rect x="132.85454545454544" y="53.125" width="2" height="46.875" id="death-date-18"></rect></g><g><rect x="129.29090909090908" y="44.99999999999999" width="2" height="55.00000000000001" id="death-date-19"></rect></g><g><rect x="125.72727272727273" y="36.875" width="2" height="63.125" id="death-date-20"></rect></g><g><rect x="122.16363636363636" y="44.375" width="2" height="55.625" id="death-date-21"></rect></g><g><rect x="118.6" y="55.625" width="2" height="44.375" id="death-date-22"></rect></g><g><rect x="115.03636363636363" y="49.375" width="2" height="50.625" id="death-date-23"></rect></g><g><rect x="111.47272727272728" y="32.49999999999999" width="2" height="67.5" id="death-date-24"></rect></g><g><rect x="107.90909090909089" y="44.99999999999999" width="2" height="55.00000000000001" id="death-date-25"></rect></g><g><rect x="104.34545454545456" y="46.875" width="2" height="53.125" id="death-date-26"></rect></g><g><rect x="100.78181818181817" y="38.74999999999999" width="2" height="61.25000000000001" id="death-date-27"></rect></g><g><rect x="97.21818181818183" y="42.50000000000001" width="2" height="57.49999999999999" id="death-date-28"></rect></g><g><rect x="93.65454545454546" y="41.87499999999999" width="2" height="58.12500000000001" id="death-date-29"></rect></g><g><rect x="90.09090909090911" y="45.62500000000001" width="2" height="54.37499999999999" id="death-date-30"></rect></g><g><rect x="86.52727272727273" y="31.25" width="2" height="68.75" id="death-date-31"></rect></g><g><rect x="82.96363636363637" y="35.62499999999999" width="2" height="64.375" id="death-date-32"></rect></g><g><rect x="79.4" y="30.625000000000004" width="2" height="69.375" id="death-date-33"></rect></g><g><rect x="75.83636363636364" y="23.124999999999996" width="2" height="76.875" id="death-date-34"></rect></g><g><rect x="72.27272727272727" y="43.75" width="2" height="56.25" id="death-date-35"></rect></g><g><rect x="68.70909090909092" y="28.749999999999996" width="2" height="71.25" id="death-date-36"></rect></g><g><rect x="65.14545454545454" y="46.875" width="2" height="53.125" id="death-date-37"></rect></g><g><rect x="61.58181818181818" y="24.375000000000004" width="2" height="75.625" id="death-date-38"></rect></g><g><rect x="58.018181818181816" y="27.500000000000004" width="2" height="72.5" id="death-date-39"></rect></g><g><rect x="54.454545454545446" y="23.750000000000004" width="2" height="76.25" id="death-date-40"></rect></g><g><rect x="50.89090909090908" y="27.500000000000004" width="2" height="72.5" id="death-date-41"></rect></g><g><rect x="47.32727272727273" y="32.49999999999999" width="2" height="67.5" id="death-date-42"></rect></g><g><rect x="43.76363636363636" y="18.125000000000004" width="2" height="81.875" id="death-date-43"></rect></g><g><rect x="40.199999999999996" y="31.25" width="2" height="68.75" id="death-date-44"></rect></g><g><rect x="36.636363636363626" y="23.750000000000004" width="2" height="76.25" id="death-date-45"></rect></g><g><rect x="33.072727272727285" y="11.875000000000002" width="2" height="88.125" id="death-date-46"></rect></g><g><rect x="29.509090909090922" y="13.749999999999996" width="2" height="86.25" id="death-date-47"></rect></g><g><rect x="25.945454545454556" y="22.499999999999996" width="2" height="77.5" id="death-date-48"></rect></g><g><rect x="22.38181818181819" y="23.750000000000004" width="2" height="76.25" id="death-date-49"></rect></g><g><rect x="18.818181818181824" y="17.500000000000004" width="2" height="82.5" id="death-date-50"></rect></g><g><rect x="15.254545454545461" y="11.875000000000002" width="2" height="88.125" id="death-date-51"></rect></g><g><rect x="11.690909090909095" y="32.49999999999999" width="2" height="67.5" id="death-date-52"></rect></g><g><rect x="8.12727272727273" y="17.500000000000004" width="2" height="82.5" id="death-date-53"></rect></g><g><rect x="4.563636363636365" y="9.999999999999998" width="2" height="90" id="death-date-54"></rect></g><g><rect x="1" y="26.249999999999996" width="2" height="73.75" id="death-date-55"></rect></g></g><g class="fg-line death-date" fill="none" stroke="#92c5de" stroke-width="2" stroke-linecap="round"><path d="M198,65.17857142857143L194.43636363636364,65.17857142857143L190.87272727272727,64.375L187.30909090909088,62.857142857142854L183.74545454545455,61.964285714285715L180.1818181818182,62.76785714285714L176.61818181818182,64.55357142857143L173.05454545454546,64.82142857142857L169.49090909090907,64.01785714285715L165.92727272727274,63.482142857142854L162.36363636363637,62.857142857142854L158.8,62.589285714285715L155.23636363636365,60.71428571428572L151.6727272727273,58.30357142857143L148.1090909090909,53.92857142857144L144.54545454545453,51.16071428571429L140.9818181818182,50.17857142857143L137.41818181818184,49.10714285714286L133.85454545454544,45.267857142857146L130.29090909090908,44.107142857142854L126.72727272727273,44.375L123.16363636363636,44.64285714285714L119.6,44.375L116.03636363636363,42.41071428571429L112.47272727272728,41.87499999999999L108.90909090909089,41.69642857142857L105.34545454545456,40.35714285714286L101.78181818181817,38.035714285714285L98.21818181818183,35.80357142857144L94.65454545454546,35.982142857142854L91.09090909090911,34.10714285714286L87.52727272727273,34.285714285714285L83.96363636363637,33.30357142857143L80.4,32.14285714285714L76.83636363636364,31.160714285714285L73.27272727272727,31.785714285714285L69.70909090909092,30.17857142857143L66.14545454545454,28.660714285714285L62.58181818181818,26.428571428571434L59.018181818181816,26.339285714285708L55.454545454545446,24.10714285714286L51.89090909090908,22.678571428571438L48.32727272727273,21.964285714285715L44.76363636363636,20.714285714285708L41.199999999999996,20.625000000000004L37.636363636363626,17.85714285714286L34.072727272727285,19.10714285714287L30.509090909090922,19.910714285714292L26.945454545454556,19.374999999999996L23.38181818181819,19.910714285714292L19.818181818181824,19.553571428571427L16.25454545454546,20.98214285714286L12.690909090909095,24.196428571428562L9.12727272727273,21.42857142857143L5.563636363636365,22.58928571428571L2,24.10714285714286"></path></g></svg>