<svg meta="{&quot;DATA_PUBLISHED_DATE&quot;:&quot;2022-03-04&quot;,&quot;RENDER_DATE&quot;:&quot;2022-03-04&quot;,&quot;FIRST_DATE&quot;:&quot;2021-12-30&quot;,&quot;LAST_DATE&quot;:&quot;2022-02-23&quot;}" xmlns="http://www.w3.org/2000/svg" viewBox="0,0,200,100"><g transform="translate(0,0)"></g><g class="fg-bars cases-ep" fill="#00183f" stroke="none"><g><rect x="197" y="96.646875" width="2" height="3.3531250000000057" id="cases-ep-0"></rect></g><g><rect x="193.43636363636364" y="95.721875" width="2" height="4.278125000000003" id="cases-ep-1"></rect></g><g><rect x="189.87272727272727" y="96.869375" width="2" height="3.130624999999995" id="cases-ep-2"></rect></g><g><rect x="186.30909090909088" y="97.87125" width="2" height="2.1287499999999966" id="cases-ep-3"></rect></g><g><rect x="182.74545454545455" y="97.451875" width="2" height="2.548124999999999" id="cases-ep-4"></rect></g><g><rect x="179.1818181818182" y="95.6925" width="2" height="4.3075000000000045" id="cases-ep-5"></rect></g><g><rect x="175.61818181818182" y="94.9375" width="2" height="5.0625" id="cases-ep-6"></rect></g><g><rect x="172.05454545454546" y="94.064375" width="2" height="5.935625000000002" id="cases-ep-7"></rect></g><g><rect x="168.49090909090907" y="93.17875" width="2" height="6.821250000000006" id="cases-ep-8"></rect></g><g><rect x="164.92727272727274" y="91.94250000000001" width="2" height="8.05749999999999" id="cases-ep-9"></rect></g><g><rect x="161.36363636363637" y="96.643125" width="2" height="3.3568750000000023" id="cases-ep-10"></rect></g><g><rect x="157.8" y="95.5875" width="2" height="4.412499999999994" id="cases-ep-11"></rect></g><g><rect x="154.23636363636365" y="91.425" width="2" height="8.575000000000003" id="cases-ep-12"></rect></g><g><rect x="150.6727272727273" y="91.21249999999999" width="2" height="8.787500000000009" id="cases-ep-13"></rect></g><g><rect x="147.1090909090909" y="89.89375" width="2" height="10.106250000000003" id="cases-ep-14"></rect></g><g><rect x="143.54545454545453" y="88.845" width="2" height="11.155000000000001" id="cases-ep-15"></rect></g><g><rect x="139.9818181818182" y="86.044375" width="2" height="13.955624999999998" id="cases-ep-16"></rect></g><g><rect x="136.41818181818184" y="94.048125" width="2" height="5.951875000000001" id="cases-ep-17"></rect></g><g><rect x="132.85454545454544" y="92.70937500000001" width="2" height="7.2906249999999915" id="cases-ep-18"></rect></g><g><rect x="129.29090909090908" y="86.373125" width="2" height="13.626874999999998" id="cases-ep-19"></rect></g><g><rect x="125.72727272727273" y="85.000625" width="2" height="14.999375" id="cases-ep-20"></rect></g><g><rect x="122.16363636363636" y="82.84375" width="2" height="17.15625" id="cases-ep-21"></rect></g><g><rect x="118.6" y="79.61125" width="2" height="20.38875" id="cases-ep-22"></rect></g><g><rect x="115.03636363636363" y="75.81750000000001" width="2" height="24.18249999999999" id="cases-ep-23"></rect></g><g><rect x="111.47272727272728" y="90.67" width="2" height="9.329999999999998" id="cases-ep-24"></rect></g><g><rect x="107.90909090909089" y="87.19687499999999" width="2" height="12.803125000000009" id="cases-ep-25"></rect></g><g><rect x="104.34545454545456" y="75.97687499999999" width="2" height="24.023125000000007" id="cases-ep-26"></rect></g><g><rect x="100.78181818181817" y="72.60625" width="2" height="27.393749999999997" id="cases-ep-27"></rect></g><g><rect x="97.21818181818183" y="67.628125" width="2" height="32.371875" id="cases-ep-28"></rect></g><g><rect x="93.65454545454546" y="62.567499999999995" width="2" height="37.432500000000005" id="cases-ep-29"></rect></g><g><rect x="90.09090909090911" y="56.224374999999995" width="2" height="43.775625000000005" id="cases-ep-30"></rect></g><g><rect x="86.52727272727273" y="82.551875" width="2" height="17.448125000000005" id="cases-ep-31"></rect></g><g><rect x="82.96363636363637" y="75.3325" width="2" height="24.667500000000004" id="cases-ep-32"></rect></g><g><rect x="79.4" y="51.841874999999995" width="2" height="48.158125000000005" id="cases-ep-33"></rect></g><g><rect x="75.83636363636364" y="43.97" width="2" height="56.03" id="cases-ep-34"></rect></g><g><rect x="72.27272727272727" y="37.150000000000006" width="2" height="62.849999999999994" id="cases-ep-35"></rect></g><g><rect x="68.70909090909092" y="25.321875000000006" width="2" height="74.678125" id="cases-ep-36"></rect></g><g><rect x="65.14545454545454" y="49.57749999999999" width="2" height="50.42250000000001" id="cases-ep-37"></rect></g><g><rect x="61.58181818181818" y="75.53750000000001" width="2" height="24.46249999999999" id="cases-ep-38"></rect></g><g><rect x="58.018181818181816" y="64.12875" width="2" height="35.87125" id="cases-ep-39"></rect></g><g><rect x="54.454545454545446" y="35.645" width="2" height="64.35499999999999" id="cases-ep-40"></rect></g><g><rect x="50.89090909090908" y="29.44375" width="2" height="70.55625" id="cases-ep-41"></rect></g><g><rect x="47.32727272727273" y="21.995624999999997" width="2" height="78.00437500000001" id="cases-ep-42"></rect></g><g><rect x="43.76363636363636" y="17.115000000000002" width="2" height="82.88499999999999" id="cases-ep-43"></rect></g><g><rect x="40.199999999999996" y="13.577499999999997" width="2" height="86.4225" id="cases-ep-44"></rect></g><g><rect x="36.636363636363626" y="66.02312500000001" width="2" height="33.97687499999999" id="cases-ep-45"></rect></g><g><rect x="33.072727272727285" y="53.04187499999999" width="2" height="46.95812500000001" id="cases-ep-46"></rect></g><g><rect x="29.509090909090922" y="17.178749999999997" width="2" height="82.82125" id="cases-ep-47"></rect></g><g><rect x="25.945454545454556" y="12.166875" width="2" height="87.833125" id="cases-ep-48"></rect></g><g><rect x="22.38181818181819" y="4.835000000000001" width="2" height="95.16499999999999" id="cases-ep-49"></rect></g><g><rect x="18.818181818181824" y="3.6993750000000047" width="2" height="96.300625" id="cases-ep-50"></rect></g><g><rect x="15.254545454545461" y="14.729999999999999" width="2" height="85.27" id="cases-ep-51"></rect></g><g><rect x="11.690909090909095" y="65.57875" width="2" height="34.42125" id="cases-ep-52"></rect></g><g><rect x="8.12727272727273" y="80.27" width="2" height="19.730000000000004" id="cases-ep-53"></rect></g><g><rect x="4.563636363636365" y="66.51875000000001" width="2" height="33.48124999999999" id="cases-ep-54"></rect></g><g><rect x="1" y="47.113125" width="2" height="52.886875" id="cases-ep-55"></rect></g></g><g class="fg-line cases-ep" fill="none" stroke="#92c5de" stroke-width="2" stroke-linecap="round"><path d="M198,96.45589285714286L194.43636363636364,96.08696428571429L190.87272727272727,95.72366071428571L187.30909090909088,95.01982142857143L183.74545454545455,94.844375L180.1818181818182,94.57803571428572L176.61818181818182,93.96839285714286L173.05454545454546,93.43625L169.49090909090907,92.84044642857143L165.92727272727274,92.2213392857143L162.36363636363637,91.37875L158.8,91.00803571428571L155.23636363636365,90.596875L151.6727272727273,89.87517857142858L148.1090909090909,88.98776785714287L144.54545454545453,87.980625L140.9818181818182,86.66151785714285L137.41818181818184,85.20053571428572L133.85454545454544,84.71794642857142L130.29090909090908,83.93044642857143L126.72727272727273,82.44526785714285L123.16363636363636,80.67464285714286L119.6,78.50098214285714L116.03636363636363,76.06616071428572L112.47272727272728,73.26714285714286L108.90909090909089,72.10741071428572L105.34545454545456,70.4125L101.78181818181817,66.96464285714285L98.21818181818183,62.873749999999994L94.65454545454546,58.51973214285715L91.09090909090911,53.19892857142856L87.52727272727273,52.249375L83.96363636363637,51.247321428571425L80.4,49.64678571428571L76.83636363636364,47.33294642857143L73.27272727272727,45.25776785714285L69.70909090909092,43.09285714285714L66.14545454545454,41.92044642857143L62.58181818181818,36.777589285714285L59.018181818181816,35.418392857142855L55.454545454545446,33.83455357142857L51.89090909090908,31.196517857142858L48.32727272727273,28.728392857142847L44.76363636363636,26.276875L41.199999999999996,24.360357142857147L37.636363636363626,24.525L34.072727272727285,24.461517857142855L30.509090909090922,28.351249999999993L26.945454545454556,35.39982142857143L23.38181818181819,40.39214285714286L19.818181818181824,46.18553571428572L16.25454545454546,52.12696428571428L12.690909090909095,57.64723214285714L9.12727272727273,59.394464285714285L5.563636363636365,60.91410714285714L2,63.73919642857142"></path></g></svg>