<svg about="DATA_PUBLISHED_DATE:2021-12-27,RENDER_DATE:2021-12-27" xmlns="http://www.w3.org/2000/svg" viewBox="0,0,200,100"><g transform="translate(0,0)"></g><g class="fg-bars tests-vaccines" fill="#00183f" stroke="none"><g><rect x="197" y="80.538" width="2" height="19.462000000000003" id="tests-vaccines-0"></rect></g><g><rect x="193.43636363636364" y="61.24685714285714" width="2" height="38.75314285714286" id="tests-vaccines-1"></rect></g><g><rect x="189.87272727272727" y="28.814857142857143" width="2" height="71.18514285714286" id="tests-vaccines-2"></rect></g><g><rect x="186.30909090909088" y="37.054857142857145" width="2" height="62.945142857142855" id="tests-vaccines-3"></rect></g><g><rect x="182.74545454545455" y="35.39514285714286" width="2" height="64.60485714285714" id="tests-vaccines-4"></rect></g><g><rect x="179.1818181818182" y="37.011714285714284" width="2" height="62.988285714285716" id="tests-vaccines-5"></rect></g><g><rect x="175.61818181818182" y="39.705714285714286" width="2" height="60.294285714285714" id="tests-vaccines-6"></rect></g><g><rect x="172.05454545454546" y="81.01714285714286" width="2" height="18.982857142857142" id="tests-vaccines-7"></rect></g><g><rect x="168.49090909090907" y="55.05057142857142" width="2" height="44.94942857142858" id="tests-vaccines-8"></rect></g><g><rect x="164.92727272727274" y="20.930285714285713" width="2" height="79.06971428571428" id="tests-vaccines-9"></rect></g><g><rect x="161.36363636363637" y="28.575142857142854" width="2" height="71.42485714285715" id="tests-vaccines-10"></rect></g><g><rect x="157.8" y="26.409428571428574" width="2" height="73.59057142857142" id="tests-vaccines-11"></rect></g><g><rect x="154.23636363636365" y="26.15628571428571" width="2" height="73.8437142857143" id="tests-vaccines-12"></rect></g><g><rect x="150.6727272727273" y="31.659142857142854" width="2" height="68.34085714285715" id="tests-vaccines-13"></rect></g><g><rect x="147.1090909090909" y="76.96600000000001" width="2" height="23.033999999999992" id="tests-vaccines-14"></rect></g><g><rect x="143.54545454545453" y="48.61114285714285" width="2" height="51.38885714285715" id="tests-vaccines-15"></rect></g><g><rect x="139.9818181818182" y="10.09742857142857" width="2" height="89.90257142857143" id="tests-vaccines-16"></rect></g><g><rect x="136.41818181818184" y="20.593142857142855" width="2" height="79.40685714285715" id="tests-vaccines-17"></rect></g><g><rect x="132.85454545454544" y="22.32428571428572" width="2" height="77.67571428571428" id="tests-vaccines-18"></rect></g><g><rect x="129.29090909090908" y="30.066571428571432" width="2" height="69.93342857142856" id="tests-vaccines-19"></rect></g><g><rect x="125.72727272727273" y="39.38028571428571" width="2" height="60.61971428571429" id="tests-vaccines-20"></rect></g><g><rect x="122.16363636363636" y="81.63942857142857" width="2" height="18.360571428571433" id="tests-vaccines-21"></rect></g><g><rect x="118.6" y="67.41714285714286" width="2" height="32.58285714285714" id="tests-vaccines-22"></rect></g><g><rect x="115.03636363636363" y="56.45028571428572" width="2" height="43.54971428571428" id="tests-vaccines-23"></rect></g><g><rect x="111.47272727272728" y="98.59571428571428" width="2" height="1.4042857142857201" id="tests-vaccines-24"></rect></g><g><rect x="107.90909090909089" y="41.591428571428565" width="2" height="58.408571428571435" id="tests-vaccines-25"></rect></g><g><rect x="104.34545454545456" y="30.538571428571426" width="2" height="69.46142857142857" id="tests-vaccines-26"></rect></g><g><rect x="100.78181818181817" y="33.87171428571428" width="2" height="66.12828571428571" id="tests-vaccines-27"></rect></g><g><rect x="97.21818181818183" y="79.20714285714286" width="2" height="20.792857142857144" id="tests-vaccines-28"></rect></g><g><rect x="93.65454545454546" y="55.11771428571428" width="2" height="44.88228571428572" id="tests-vaccines-29"></rect></g><g><rect x="90.09090909090911" y="23.116285714285713" width="2" height="76.88371428571429" id="tests-vaccines-30"></rect></g><g><rect x="86.52727272727273" y="35.189142857142855" width="2" height="64.81085714285715" id="tests-vaccines-31"></rect></g><g><rect x="82.96363636363637" y="33.91742857142857" width="2" height="66.08257142857143" id="tests-vaccines-32"></rect></g><g><rect x="79.4" y="35.34685714285715" width="2" height="64.65314285714285" id="tests-vaccines-33"></rect></g><g><rect x="75.83636363636364" y="41.147999999999996" width="2" height="58.852000000000004" id="tests-vaccines-34"></rect></g><g><rect x="72.27272727272727" y="79.58114285714286" width="2" height="20.418857142857135" id="tests-vaccines-35"></rect></g><g><rect x="68.70909090909092" y="57.38771428571429" width="2" height="42.61228571428571" id="tests-vaccines-36"></rect></g><g><rect x="65.14545454545454" y="25.796285714285716" width="2" height="74.20371428571428" id="tests-vaccines-37"></rect></g><g><rect x="61.58181818181818" y="37.89657142857143" width="2" height="62.10342857142857" id="tests-vaccines-38"></rect></g><g><rect x="58.018181818181816" y="35.38542857142857" width="2" height="64.61457142857142" id="tests-vaccines-39"></rect></g><g><rect x="54.454545454545446" y="37.79085714285715" width="2" height="62.20914285714285" id="tests-vaccines-40"></rect></g><g><rect x="50.89090909090908" y="42.79685714285715" width="2" height="57.20314285714285" id="tests-vaccines-41"></rect></g><g><rect x="47.32727272727273" y="80.62971428571429" width="2" height="19.370285714285714" id="tests-vaccines-42"></rect></g><g><rect x="43.76363636363636" y="63.298285714285704" width="2" height="36.701714285714296" id="tests-vaccines-43"></rect></g><g><rect x="40.199999999999996" y="30.433714285714288" width="2" height="69.56628571428571" id="tests-vaccines-44"></rect></g><g><rect x="36.636363636363626" y="43.32485714285714" width="2" height="56.67514285714286" id="tests-vaccines-45"></rect></g><g><rect x="33.072727272727285" y="45.830285714285715" width="2" height="54.169714285714285" id="tests-vaccines-46"></rect></g><g><rect x="29.509090909090922" y="45.738571428571426" width="2" height="54.261428571428574" id="tests-vaccines-47"></rect></g><g><rect x="25.945454545454556" y="49.05828571428571" width="2" height="50.94171428571429" id="tests-vaccines-48"></rect></g><g><rect x="22.38181818181819" y="85.48542857142857" width="2" height="14.51457142857143" id="tests-vaccines-49"></rect></g><g><rect x="18.818181818181824" y="70.46428571428571" width="2" height="29.535714285714292" id="tests-vaccines-50"></rect></g><g><rect x="15.254545454545461" y="37.46314285714286" width="2" height="62.53685714285714" id="tests-vaccines-51"></rect></g><g><rect x="11.690909090909095" y="47.92057142857142" width="2" height="52.07942857142858" id="tests-vaccines-52"></rect></g><g><rect x="8.12727272727273" y="47.83542857142857" width="2" height="52.16457142857143" id="tests-vaccines-53"></rect></g><g><rect x="4.563636363636365" y="48.39742857142857" width="2" height="51.60257142857143" id="tests-vaccines-54"></rect></g><g><rect x="1" y="53.306" width="2" height="46.694" id="tests-vaccines-55"></rect></g></g><g class="fg-line tests-vaccines" fill="none" stroke="#92c5de" stroke-width="2" stroke-linecap="round"><path d="M198,45.68102040816326L194.43636363636364,45.749469387755106L190.87272727272727,44.864285714285714L187.30909090909088,43.73791836734694L183.74545454545455,42.5265306122449L180.1818181818182,41.24285714285715L176.61818181818182,39.692081632653064L173.05454545454546,38.54257142857143L169.49090909090907,37.96383673469388L165.92727272727274,37.04391836734694L162.36363636363637,35.496367346938776L158.8,34.35608163265306L155.23636363636365,33.77248979591837L151.6727272727273,34.33110204081632L148.1090909090909,35.4341224489796L144.54545454545453,36.10175510204082L140.9818181818182,38.78832653061225L137.41818181818184,45.410163265306124L133.85454545454544,56.55338775510204L130.29090909090908,59.30583673469387L126.72727272727273,59.373265306122455L123.16363636363636,58.58632653061224L119.6,58.23885714285715L116.03636363636363,56.481795918367354L112.47272727272728,51.71979591836735L108.90909090909089,42.66171428571428L105.34545454545456,41.565428571428576L101.78181818181817,42.25232653061225L98.21818181818183,43.29179591836735L94.65454545454546,43.34522448979592L91.09090909090911,43.66951020408163L87.52727272727273,44.05236734693877L83.96363636363637,44.439142857142855L80.4,44.648857142857146L76.83636363636364,44.998000000000005L73.27272727272727,45.23355102040817L69.70909090909092,45.38334693877552L66.14545454545454,46.227714285714285L62.58181818181818,46.89020408163266L59.018181818181816,47.66567346938775L55.454545454545446,49.15779591836734L51.89090909090908,50.2931836734694L48.32727272727273,51.187673469387754L44.76363636363636,51.88134693877551L41.199999999999996,52.90506122448979L37.636363636363626,53.90926530612246L34.072727272727285,54.56579591836734L30.509090909090922,54.85224489795918L26.945454545454556,55.23208163265306L23.38181818181819,55.838897959183676L19.818181818181824,55.973020408163265L16.25454545454546,56.40379591836735L12.690909090909095,58.68689795918367L9.12727272727273,62.17689795918368L5.563636363636365,65.83044897959184L2,69.28620408163265"></path></g></svg>