<svg meta="{&quot;DATA_PUBLISHED_DATE&quot;:&quot;2022-02-09&quot;,&quot;RENDER_DATE&quot;:&quot;2022-02-09&quot;,&quot;FIRST_DATE&quot;:&quot;2021-11-23&quot;,&quot;LAST_DATE&quot;:&quot;2022-01-17&quot;}" xmlns="http://www.w3.org/2000/svg" viewBox="0,0,200,100"><g transform="translate(0,0)"></g><g class="fg-bars death-date" fill="#00183f" stroke="none"><g><rect x="197" y="16.874999999999996" width="2" height="83.125" id="death-date-0"></rect></g><g><rect x="193.43636363636364" y="8.125000000000004" width="2" height="91.875" id="death-date-1"></rect></g><g><rect x="189.87272727272727" y="8.750000000000002" width="2" height="91.25" id="death-date-2"></rect></g><g><rect x="186.30909090909088" y="25" width="2" height="75" id="death-date-3"></rect></g><g><rect x="182.74545454545455" y="21.875" width="2" height="78.125" id="death-date-4"></rect></g><g><rect x="179.1818181818182" y="11.875000000000002" width="2" height="88.125" id="death-date-5"></rect></g><g><rect x="175.61818181818182" y="16.249999999999996" width="2" height="83.75" id="death-date-6"></rect></g><g><rect x="172.05454545454546" y="26.875000000000004" width="2" height="73.125" id="death-date-7"></rect></g><g><rect x="168.49090909090907" y="43.125" width="2" height="56.875" id="death-date-8"></rect></g><g><rect x="164.92727272727274" y="31.874999999999996" width="2" height="68.125" id="death-date-9"></rect></g><g><rect x="161.36363636363637" y="46.875" width="2" height="53.125" id="death-date-10"></rect></g><g><rect x="157.8" y="35" width="2" height="65" id="death-date-11"></rect></g><g><rect x="154.23636363636365" y="40" width="2" height="60" id="death-date-12"></rect></g><g><rect x="150.6727272727273" y="44.99999999999999" width="2" height="55.00000000000001" id="death-date-13"></rect></g><g><rect x="147.1090909090909" y="47.5" width="2" height="52.5" id="death-date-14"></rect></g><g><rect x="143.54545454545453" y="58.12500000000001" width="2" height="41.87499999999999" id="death-date-15"></rect></g><g><rect x="139.9818181818182" y="57.49999999999999" width="2" height="42.50000000000001" id="death-date-16"></rect></g><g><rect x="136.41818181818184" y="56.875" width="2" height="43.125" id="death-date-17"></rect></g><g><rect x="132.85454545454544" y="66.25" width="2" height="33.75" id="death-date-18"></rect></g><g><rect x="129.29090909090908" y="63.125" width="2" height="36.875" id="death-date-19"></rect></g><g><rect x="125.72727272727273" y="73.125" width="2" height="26.875" id="death-date-20"></rect></g><g><rect x="122.16363636363636" y="56.875" width="2" height="43.125" id="death-date-21"></rect></g><g><rect x="118.6" y="69.375" width="2" height="30.625" id="death-date-22"></rect></g><g><rect x="115.03636363636363" y="65.625" width="2" height="34.375" id="death-date-23"></rect></g><g><rect x="111.47272727272728" y="63.74999999999999" width="2" height="36.25000000000001" id="death-date-24"></rect></g><g><rect x="107.90909090909089" y="62.5" width="2" height="37.5" id="death-date-25"></rect></g><g><rect x="104.34545454545456" y="71.25" width="2" height="28.75" id="death-date-26"></rect></g><g><rect x="100.78181818181817" y="67.5" width="2" height="32.5" id="death-date-27"></rect></g><g><rect x="97.21818181818183" y="63.125" width="2" height="36.875" id="death-date-28"></rect></g><g><rect x="93.65454545454546" y="61.25000000000001" width="2" height="38.74999999999999" id="death-date-29"></rect></g><g><rect x="90.09090909090911" y="68.75" width="2" height="31.25" id="death-date-30"></rect></g><g><rect x="86.52727272727273" y="65.625" width="2" height="34.375" id="death-date-31"></rect></g><g><rect x="82.96363636363637" y="56.875" width="2" height="43.125" id="death-date-32"></rect></g><g><rect x="79.4" y="61.875" width="2" height="38.125" id="death-date-33"></rect></g><g><rect x="75.83636363636364" y="60" width="2" height="40" id="death-date-34"></rect></g><g><rect x="72.27272727272727" y="62.5" width="2" height="37.5" id="death-date-35"></rect></g><g><rect x="68.70909090909092" y="67.5" width="2" height="32.5" id="death-date-36"></rect></g><g><rect x="65.14545454545454" y="66.25" width="2" height="33.75" id="death-date-37"></rect></g><g><rect x="61.58181818181818" y="70" width="2" height="30" id="death-date-38"></rect></g><g><rect x="58.018181818181816" y="65.625" width="2" height="34.375" id="death-date-39"></rect></g><g><rect x="54.454545454545446" y="66.875" width="2" height="33.125" id="death-date-40"></rect></g><g><rect x="50.89090909090908" y="60.62499999999999" width="2" height="39.37500000000001" id="death-date-41"></rect></g><g><rect x="47.32727272727273" y="73.125" width="2" height="26.875" id="death-date-42"></rect></g><g><rect x="43.76363636363636" y="66.25" width="2" height="33.75" id="death-date-43"></rect></g><g><rect x="40.199999999999996" y="58.75" width="2" height="41.25" id="death-date-44"></rect></g><g><rect x="36.636363636363626" y="60.62499999999999" width="2" height="39.37500000000001" id="death-date-45"></rect></g><g><rect x="33.072727272727285" y="58.12500000000001" width="2" height="41.87499999999999" id="death-date-46"></rect></g><g><rect x="29.509090909090922" y="61.25000000000001" width="2" height="38.74999999999999" id="death-date-47"></rect></g><g><rect x="25.945454545454556" y="69.375" width="2" height="30.625" id="death-date-48"></rect></g><g><rect x="22.38181818181819" y="54.37499999999999" width="2" height="45.62500000000001" id="death-date-49"></rect></g><g><rect x="18.818181818181824" y="68.75" width="2" height="31.25" id="death-date-50"></rect></g><g><rect x="15.254545454545461" y="68.75" width="2" height="31.25" id="death-date-51"></rect></g><g><rect x="11.690909090909095" y="61.25000000000001" width="2" height="38.74999999999999" id="death-date-52"></rect></g><g><rect x="8.12727272727273" y="67.5" width="2" height="32.5" id="death-date-53"></rect></g><g><rect x="4.563636363636365" y="63.74999999999999" width="2" height="36.25000000000001" id="death-date-54"></rect></g><g><rect x="1" y="55.625" width="2" height="44.375" id="death-date-55"></rect></g></g><g class="fg-line death-date" fill="none" stroke="#92c5de" stroke-width="2" stroke-linecap="round"><path d="M198,15.535714285714286L194.43636363636364,16.964285714285708L190.87272727272727,21.964285714285715L187.30909090909088,25.267857142857142L183.74545454545455,28.392857142857142L180.1818181818182,30.267857142857146L176.61818181818182,34.285714285714285L173.05454545454546,38.39285714285714L169.49090909090907,41.33928571428571L165.92727272727274,43.48214285714286L162.36363636363637,47.14285714285714L158.8,48.57142857142856L155.23636363636365,53.035714285714285L151.6727272727273,56.339285714285715L148.1090909090909,60.357142857142854L144.54545454545453,61.69642857142858L140.9818181818182,63.30357142857142L137.41818181818184,64.46428571428572L133.85454545454544,65.44642857142857L130.29090909090908,64.91071428571429L126.72727272727273,66.07142857142857L123.16363636363636,65.26785714285714L119.6,66.16071428571428L116.03636363636363,65L112.47272727272728,65.44642857142857L108.90909090909089,65.71428571428571L105.34545454545456,64.91071428571429L101.78181818181817,63.57142857142857L98.21818181818183,62.5L94.65454545454546,62.410714285714285L91.09090909090911,63.30357142857142L87.52727272727273,62.94642857142857L83.96363636363637,63.57142857142857L80.4,64.82142857142857L76.83636363636364,65.53571428571429L73.27272727272727,65.625L69.70909090909092,67.14285714285715L66.14545454545454,66.96428571428572L62.58181818181818,65.89285714285714L59.018181818181816,64.55357142857143L55.454545454545446,63.482142857142854L51.89090909090908,62.67857142857143L48.32727272727273,63.92857142857142L44.76363636363636,61.25000000000001L41.199999999999996,61.60714285714286L37.636363636363626,63.035714285714285L34.072727272727285,63.125L30.509090909090922,64.46428571428572L26.945454545454556,64.82142857142857L23.38181818181819,62.857142857142854L19.818181818181824,63.39285714285714L16.25454545454546,61.69642857142858L12.690909090909095,60.357142857142854L9.12727272727273,58.75L5.563636363636365,57.41071428571429L2,55.714285714285715"></path></g></svg>