<svg meta="{&quot;DATA_PUBLISHED_DATE&quot;:&quot;2022-09-06&quot;,&quot;RENDER_DATE&quot;:&quot;2022-09-06&quot;,&quot;FIRST_DATE&quot;:&quot;2022-06-20&quot;,&quot;LAST_DATE&quot;:&quot;2022-08-14&quot;}" xmlns="http://www.w3.org/2000/svg" viewBox="0,0,200,100"><g transform="translate(0,0)"></g><g class="fg-bars death-date" fill="#00183f" stroke="none"><g><rect x="197" y="56.92307692307692" width="2" height="43.07692307692308" id="death-date-0"></rect></g><g><rect x="193.43636363636364" y="64.61538461538461" width="2" height="35.38461538461539" id="death-date-1"></rect></g><g><rect x="189.87272727272727" y="43.07692307692308" width="2" height="56.92307692307692" id="death-date-2"></rect></g><g><rect x="186.30909090909088" y="49.23076923076923" width="2" height="50.76923076923077" id="death-date-3"></rect></g><g><rect x="182.74545454545455" y="50.76923076923077" width="2" height="49.23076923076923" id="death-date-4"></rect></g><g><rect x="179.1818181818182" y="41.53846153846153" width="2" height="58.46153846153847" id="death-date-5"></rect></g><g><rect x="175.61818181818182" y="50.76923076923077" width="2" height="49.23076923076923" id="death-date-6"></rect></g><g><rect x="172.05454545454546" y="58.46153846153845" width="2" height="41.53846153846155" id="death-date-7"></rect></g><g><rect x="168.49090909090907" y="47.692307692307686" width="2" height="52.307692307692314" id="death-date-8"></rect></g><g><rect x="164.92727272727274" y="15.384615384615385" width="2" height="84.61538461538461" id="death-date-9"></rect></g><g><rect x="161.36363636363637" y="46.15384615384615" width="2" height="53.84615384615385" id="death-date-10"></rect></g><g><rect x="157.8" y="40" width="2" height="60" id="death-date-11"></rect></g><g><rect x="154.23636363636365" y="49.23076923076923" width="2" height="50.76923076923077" id="death-date-12"></rect></g><g><rect x="150.6727272727273" y="40" width="2" height="60" id="death-date-13"></rect></g><g><rect x="147.1090909090909" y="36.92307692307693" width="2" height="63.07692307692307" id="death-date-14"></rect></g><g><rect x="143.54545454545453" y="35.38461538461538" width="2" height="64.61538461538461" id="death-date-15"></rect></g><g><rect x="139.9818181818182" y="46.15384615384615" width="2" height="53.84615384615385" id="death-date-16"></rect></g><g><rect x="136.41818181818184" y="32.30769230769231" width="2" height="67.6923076923077" id="death-date-17"></rect></g><g><rect x="132.85454545454544" y="27.692307692307693" width="2" height="72.3076923076923" id="death-date-18"></rect></g><g><rect x="129.29090909090908" y="33.84615384615385" width="2" height="66.15384615384616" id="death-date-19"></rect></g><g><rect x="125.72727272727273" y="4.61538461538461" width="2" height="95.38461538461539" id="death-date-20"></rect></g><g><rect x="122.16363636363636" y="38.46153846153846" width="2" height="61.53846153846154" id="death-date-21"></rect></g><g><rect x="118.6" y="50.76923076923077" width="2" height="49.23076923076923" id="death-date-22"></rect></g><g><rect x="115.03636363636363" y="32.30769230769231" width="2" height="67.6923076923077" id="death-date-23"></rect></g><g><rect x="111.47272727272728" y="52.3076923076923" width="2" height="47.6923076923077" id="death-date-24"></rect></g><g><rect x="107.90909090909089" y="9.230769230769232" width="2" height="90.76923076923077" id="death-date-25"></rect></g><g><rect x="104.34545454545456" y="29.230769230769226" width="2" height="70.76923076923077" id="death-date-26"></rect></g><g><rect x="100.78181818181817" y="38.46153846153846" width="2" height="61.53846153846154" id="death-date-27"></rect></g><g><rect x="97.21818181818183" y="29.230769230769226" width="2" height="70.76923076923077" id="death-date-28"></rect></g><g><rect x="93.65454545454546" y="46.15384615384615" width="2" height="53.84615384615385" id="death-date-29"></rect></g><g><rect x="90.09090909090911" y="44.61538461538461" width="2" height="55.38461538461539" id="death-date-30"></rect></g><g><rect x="86.52727272727273" y="43.07692307692308" width="2" height="56.92307692307692" id="death-date-31"></rect></g><g><rect x="82.96363636363637" y="50.76923076923077" width="2" height="49.23076923076923" id="death-date-32"></rect></g><g><rect x="79.4" y="29.230769230769226" width="2" height="70.76923076923077" id="death-date-33"></rect></g><g><rect x="75.83636363636364" y="44.61538461538461" width="2" height="55.38461538461539" id="death-date-34"></rect></g><g><rect x="72.27272727272727" y="44.61538461538461" width="2" height="55.38461538461539" id="death-date-35"></rect></g><g><rect x="68.70909090909092" y="32.30769230769231" width="2" height="67.6923076923077" id="death-date-36"></rect></g><g><rect x="65.14545454545454" y="19.999999999999996" width="2" height="80" id="death-date-37"></rect></g><g><rect x="61.58181818181818" y="55.38461538461539" width="2" height="44.61538461538461" id="death-date-38"></rect></g><g><rect x="58.018181818181816" y="36.92307692307693" width="2" height="63.07692307692307" id="death-date-39"></rect></g><g><rect x="54.454545454545446" y="52.3076923076923" width="2" height="47.6923076923077" id="death-date-40"></rect></g><g><rect x="50.89090909090908" y="33.84615384615385" width="2" height="66.15384615384616" id="death-date-41"></rect></g><g><rect x="47.32727272727273" y="35.38461538461538" width="2" height="64.61538461538461" id="death-date-42"></rect></g><g><rect x="43.76363636363636" y="29.230769230769226" width="2" height="70.76923076923077" id="death-date-43"></rect></g><g><rect x="40.199999999999996" y="49.23076923076923" width="2" height="50.76923076923077" id="death-date-44"></rect></g><g><rect x="36.636363636363626" y="46.15384615384615" width="2" height="53.84615384615385" id="death-date-45"></rect></g><g><rect x="33.072727272727285" y="53.84615384615385" width="2" height="46.15384615384615" id="death-date-46"></rect></g><g><rect x="29.509090909090922" y="55.38461538461539" width="2" height="44.61538461538461" id="death-date-47"></rect></g><g><rect x="25.945454545454556" y="58.46153846153845" width="2" height="41.53846153846155" id="death-date-48"></rect></g><g><rect x="22.38181818181819" y="58.46153846153845" width="2" height="41.53846153846155" id="death-date-49"></rect></g><g><rect x="18.818181818181824" y="66.15384615384615" width="2" height="33.846153846153854" id="death-date-50"></rect></g><g><rect x="15.254545454545461" y="50.76923076923077" width="2" height="49.23076923076923" id="death-date-51"></rect></g><g><rect x="11.690909090909095" y="47.692307692307686" width="2" height="52.307692307692314" id="death-date-52"></rect></g><g><rect x="8.12727272727273" y="44.61538461538461" width="2" height="55.38461538461539" id="death-date-53"></rect></g><g><rect x="4.563636363636365" y="60" width="2" height="40" id="death-date-54"></rect></g><g><rect x="1" y="56.92307692307692" width="2" height="43.07692307692308" id="death-date-55"></rect></g></g><g class="fg-line death-date" fill="none" stroke="#92c5de" stroke-width="2" stroke-linecap="round"><path d="M198,50.989010989010985L194.43636363636364,51.208791208791204L190.87272727272727,48.791208791208796L187.30909090909088,44.83516483516484L183.74545454545455,44.395604395604394L180.1818181818182,42.85714285714285L176.61818181818182,43.956043956043956L173.05454545454546,42.41758241758241L169.49090909090907,39.340659340659336L165.92727272727274,37.582417582417584L162.36363636363637,41.97802197802197L158.8,40L155.23636363636365,38.24175824175824L151.6727272727273,36.04395604395605L148.1090909090909,30.98901098901099L144.54545454545453,31.208791208791208L140.9818181818182,33.40659340659341L137.41818181818184,31.428571428571427L133.85454545454544,34.285714285714285L130.29090909090908,31.648351648351646L126.72727272727273,30.98901098901099L123.16363636363636,35.82417582417582L119.6,34.505494505494504L116.03636363636363,33.84615384615385L112.47272727272728,35.60439560439561L108.90909090909089,34.285714285714285L105.34545454545456,40.21978021978022L101.78181818181817,40.21978021978022L98.21818181818183,41.098901098901095L94.65454545454546,43.2967032967033L91.09090909090911,41.318681318681314L87.52727272727273,37.8021978021978L83.96363636363637,39.56043956043956L80.4,37.582417582417584L76.83636363636364,40.879120879120876L73.27272727272727,39.340659340659336L69.70909090909092,38.02197802197802L66.14545454545454,37.582417582417584L62.58181818181818,41.758241758241766L59.018181818181816,40.43956043956044L55.454545454545446,42.85714285714285L51.89090909090908,43.2967032967033L48.32727272727273,46.81318681318681L44.76363636363636,50.10989010989011L41.199999999999996,55.38461538461539L37.636363636363626,55.604395604395606L34.072727272727285,55.824175824175825L30.509090909090922,54.505494505494504L26.945454545454556,55.16483516483517L23.38181818181819,54.94505494505495L19.818181818181824,54.505494505494504L16.25454545454546,53.18681318681319L12.690909090909095,52.08791208791208L9.12727272727273,52.96703296703296L5.563636363636365,54.94505494505495L2,56.043956043956044"></path></g></svg>