<svg about="DATA_PUBLISHED_DATE:2021-10-27,RENDER_DATE:2021-10-27" xmlns="http://www.w3.org/2000/svg" viewBox="0,0,200,100"><g transform="translate(0,0)"></g><g class="fg-bars tests-vaccines" fill="#00183f" stroke="none"><g><rect x="197" y="42.30625" width="2" height="57.69375" id="tests-vaccines-0"></rect></g><g><rect x="193.43636363636364" y="39.754999999999995" width="2" height="60.245000000000005" id="tests-vaccines-1"></rect></g><g><rect x="189.87272727272727" y="81.485625" width="2" height="18.514375" id="tests-vaccines-2"></rect></g><g><rect x="186.30909090909088" y="64.3875" width="2" height="35.6125" id="tests-vaccines-3"></rect></g><g><rect x="182.74545454545455" y="23.839374999999997" width="2" height="76.16062500000001" id="tests-vaccines-4"></rect></g><g><rect x="179.1818181818182" y="39.174375" width="2" height="60.825625" id="tests-vaccines-5"></rect></g><g><rect x="175.61818181818182" y="39.717499999999994" width="2" height="60.282500000000006" id="tests-vaccines-6"></rect></g><g><rect x="172.05454545454546" y="36.28875" width="2" height="63.71125" id="tests-vaccines-7"></rect></g><g><rect x="168.49090909090907" y="34.824374999999996" width="2" height="65.175625" id="tests-vaccines-8"></rect></g><g><rect x="164.92727272727274" y="78.273125" width="2" height="21.726875000000007" id="tests-vaccines-9"></rect></g><g><rect x="161.36363636363637" y="60.2375" width="2" height="39.7625" id="tests-vaccines-10"></rect></g><g><rect x="157.8" y="13.531875000000005" width="2" height="86.468125" id="tests-vaccines-11"></rect></g><g><rect x="154.23636363636365" y="28.830624999999998" width="2" height="71.169375" id="tests-vaccines-12"></rect></g><g><rect x="150.6727272727273" y="33.676874999999995" width="2" height="66.323125" id="tests-vaccines-13"></rect></g><g><rect x="147.1090909090909" y="31.880624999999995" width="2" height="68.119375" id="tests-vaccines-14"></rect></g><g><rect x="143.54545454545453" y="32.160624999999996" width="2" height="67.839375" id="tests-vaccines-15"></rect></g><g><rect x="139.9818181818182" y="76.56125" width="2" height="23.43875" id="tests-vaccines-16"></rect></g><g><rect x="136.41818181818184" y="58.525625000000005" width="2" height="41.474374999999995" id="tests-vaccines-17"></rect></g><g><rect x="132.85454545454544" y="11.329374999999997" width="2" height="88.670625" id="tests-vaccines-18"></rect></g><g><rect x="129.29090909090908" y="18.860625" width="2" height="81.139375" id="tests-vaccines-19"></rect></g><g><rect x="125.72727272727273" y="20.589999999999996" width="2" height="79.41" id="tests-vaccines-20"></rect></g><g><rect x="122.16363636363636" y="19.977500000000003" width="2" height="80.0225" id="tests-vaccines-21"></rect></g><g><rect x="118.6" y="26.398750000000003" width="2" height="73.60125" id="tests-vaccines-22"></rect></g><g><rect x="115.03636363636363" y="75.641875" width="2" height="24.358125" id="tests-vaccines-23"></rect></g><g><rect x="111.47272727272728" y="56.035625" width="2" height="43.964375" id="tests-vaccines-24"></rect></g><g><rect x="107.90909090909089" y="32.78" width="2" height="67.22" id="tests-vaccines-25"></rect></g><g><rect x="104.34545454545456" y="55.317499999999995" width="2" height="44.682500000000005" id="tests-vaccines-26"></rect></g><g><rect x="100.78181818181817" y="55.21625" width="2" height="44.78375" id="tests-vaccines-27"></rect></g><g><rect x="97.21818181818183" y="53.83375" width="2" height="46.16625" id="tests-vaccines-28"></rect></g><g><rect x="93.65454545454546" y="50.08625" width="2" height="49.91375" id="tests-vaccines-29"></rect></g><g><rect x="90.09090909090911" y="79.561875" width="2" height="20.438125" id="tests-vaccines-30"></rect></g><g><rect x="86.52727272727273" y="64.443125" width="2" height="35.556875000000005" id="tests-vaccines-31"></rect></g><g><rect x="82.96363636363637" y="40.09875" width="2" height="59.90125" id="tests-vaccines-32"></rect></g><g><rect x="79.4" y="48.694375" width="2" height="51.305625" id="tests-vaccines-33"></rect></g><g><rect x="75.83636363636364" y="50.25999999999999" width="2" height="49.74000000000001" id="tests-vaccines-34"></rect></g><g><rect x="72.27272727272727" y="49.724999999999994" width="2" height="50.275000000000006" id="tests-vaccines-35"></rect></g><g><rect x="68.70909090909092" y="47.28" width="2" height="52.72" id="tests-vaccines-36"></rect></g><g><rect x="65.14545454545454" y="77.9075" width="2" height="22.0925" id="tests-vaccines-37"></rect></g><g><rect x="61.58181818181818" y="60.546875" width="2" height="39.453125" id="tests-vaccines-38"></rect></g><g><rect x="58.018181818181816" y="32.529375" width="2" height="67.470625" id="tests-vaccines-39"></rect></g><g><rect x="54.454545454545446" y="44.663125" width="2" height="55.336875" id="tests-vaccines-40"></rect></g><g><rect x="50.89090909090908" y="44.2275" width="2" height="55.7725" id="tests-vaccines-41"></rect></g><g><rect x="47.32727272727273" y="38.35125" width="2" height="61.64875" id="tests-vaccines-42"></rect></g><g><rect x="43.76363636363636" y="87.86874999999999" width="2" height="12.131250000000009" id="tests-vaccines-43"></rect></g><g><rect x="40.199999999999996" y="76.165625" width="2" height="23.834374999999994" id="tests-vaccines-44"></rect></g><g><rect x="36.636363636363626" y="59.942499999999995" width="2" height="40.057500000000005" id="tests-vaccines-45"></rect></g><g><rect x="33.072727272727285" y="26.069374999999994" width="2" height="73.930625" id="tests-vaccines-46"></rect></g><g><rect x="29.509090909090922" y="41.099375" width="2" height="58.900625" id="tests-vaccines-47"></rect></g><g><rect x="25.945454545454556" y="39.000625" width="2" height="60.999375" id="tests-vaccines-48"></rect></g><g><rect x="22.38181818181819" y="36.958749999999995" width="2" height="63.041250000000005" id="tests-vaccines-49"></rect></g><g><rect x="18.818181818181824" y="36.35874999999999" width="2" height="63.64125000000001" id="tests-vaccines-50"></rect></g><g><rect x="15.254545454545461" y="73.37625" width="2" height="26.62375" id="tests-vaccines-51"></rect></g><g><rect x="11.690909090909095" y="51.343125" width="2" height="48.656875" id="tests-vaccines-52"></rect></g><g><rect x="8.12727272727273" y="19.765624999999996" width="2" height="80.234375" id="tests-vaccines-53"></rect></g><g><rect x="4.563636363636365" y="34.863125" width="2" height="65.136875" id="tests-vaccines-54"></rect></g><g><rect x="1" y="35.74625" width="2" height="64.25375" id="tests-vaccines-55"></rect></g></g><g class="fg-line tests-vaccines" fill="none" stroke="#92c5de" stroke-width="2" stroke-linecap="round"><path d="M198,47.23794642857143L194.43636363636364,46.37830357142857L190.87272727272727,45.67392857142857L187.30909090909088,45.215L183.74545454545455,44.622142857142855L180.1818181818182,43.14964285714286L176.61818181818182,41.67196428571428L173.05454545454546,40.80901785714285L169.49090909090907,40.17928571428572L165.92727272727274,39.798750000000005L162.36363636363637,39.55419642857143L158.8,39.309642857142855L155.23636363636365,38.995000000000005L151.6727272727273,37.57071428571428L148.1090909090909,35.70116071428572L144.54545454545453,34.00071428571428L140.9818181818182,33.177589285714284L137.41818181818184,33.04625L133.85454545454544,32.690535714285716L130.29090909090908,35.754910714285714L126.72727272727273,40.96303571428571L123.16363636363636,45.90964285714285L119.6,50.74624999999999L116.03636363636363,54.130178571428566L112.47272727272728,54.690178571428575L108.90909090909089,55.89124999999999L105.34545454545456,56.93678571428571L101.78181818181817,55.99062500000001L98.21818181818183,55.28258928571428L94.65454545454546,54.69562500000001L91.09090909090911,54.29473214285715L87.52727272727273,54.05839285714285L83.96363636363637,53.501785714285724L80.4,52.42044642857143L76.83636363636364,51.84455357142856L73.27272727272727,50.98276785714285L69.70909090909092,49.35794642857143L66.14545454545454,55.15633928571428L62.58181818181818,54.9075L59.018181818181816,54.82116071428571L55.454545454545446,53.89830357142857L51.89090909090908,53.38919642857143L48.32727272727273,52.64249999999999L44.76363636363636,52.44357142857143L41.199999999999996,45.084999999999994L37.636363636363626,44.686517857142846L34.072727272727285,43.458035714285714L30.509090909090922,42.557500000000005L26.945454545454556,41.666607142857146L23.38181818181819,41.20169642857143L19.818181818181824,40.68044642857143L16.25454545454546,40.300982142857144L12.690909090909095,40.35187500000001L9.12727272727273,40.52714285714285L5.563636363636365,40.659464285714286L2,40.87616071428572"></path></g></svg>