<svg meta="{&quot;DATA_PUBLISHED_DATE&quot;:&quot;2022-03-24&quot;,&quot;RENDER_DATE&quot;:&quot;2022-03-24&quot;,&quot;FIRST_DATE&quot;:&quot;2022-01-05&quot;,&quot;LAST_DATE&quot;:&quot;2022-03-01&quot;}" xmlns="http://www.w3.org/2000/svg" viewBox="0,0,200,100"><g transform="translate(0,0)"></g><g class="fg-bars death-date" fill="#00183f" stroke="none"><g><rect x="197" y="79.61538461538463" width="2" height="20.384615384615373" id="death-date-0"></rect></g><g><rect x="193.43636363636364" y="75.38461538461539" width="2" height="24.615384615384613" id="death-date-1"></rect></g><g><rect x="189.87272727272727" y="80.38461538461539" width="2" height="19.615384615384613" id="death-date-2"></rect></g><g><rect x="186.30909090909088" y="74.23076923076923" width="2" height="25.769230769230774" id="death-date-3"></rect></g><g><rect x="182.74545454545455" y="74.23076923076923" width="2" height="25.769230769230774" id="death-date-4"></rect></g><g><rect x="179.1818181818182" y="74.23076923076923" width="2" height="25.769230769230774" id="death-date-5"></rect></g><g><rect x="175.61818181818182" y="65.38461538461539" width="2" height="34.61538461538461" id="death-date-6"></rect></g><g><rect x="172.05454545454546" y="63.84615384615384" width="2" height="36.15384615384616" id="death-date-7"></rect></g><g><rect x="168.49090909090907" y="61.92307692307693" width="2" height="38.07692307692307" id="death-date-8"></rect></g><g><rect x="164.92727272727274" y="56.53846153846154" width="2" height="43.46153846153846" id="death-date-9"></rect></g><g><rect x="161.36363636363637" y="64.23076923076923" width="2" height="35.769230769230774" id="death-date-10"></rect></g><g><rect x="157.8" y="58.46153846153845" width="2" height="41.53846153846155" id="death-date-11"></rect></g><g><rect x="154.23636363636365" y="50" width="2" height="50" id="death-date-12"></rect></g><g><rect x="150.6727272727273" y="52.69230769230769" width="2" height="47.30769230769231" id="death-date-13"></rect></g><g><rect x="147.1090909090909" y="55.00000000000001" width="2" height="44.99999999999999" id="death-date-14"></rect></g><g><rect x="143.54545454545453" y="45.38461538461539" width="2" height="54.61538461538461" id="death-date-15"></rect></g><g><rect x="139.9818181818182" y="44.61538461538461" width="2" height="55.38461538461539" id="death-date-16"></rect></g><g><rect x="136.41818181818184" y="42.69230769230769" width="2" height="57.30769230769231" id="death-date-17"></rect></g><g><rect x="132.85454545454544" y="31.538461538461537" width="2" height="68.46153846153847" id="death-date-18"></rect></g><g><rect x="129.29090909090908" y="36.92307692307693" width="2" height="63.07692307692307" id="death-date-19"></rect></g><g><rect x="125.72727272727273" y="23.84615384615385" width="2" height="76.15384615384615" id="death-date-20"></rect></g><g><rect x="122.16363636363636" y="19.615384615384613" width="2" height="80.38461538461539" id="death-date-21"></rect></g><g><rect x="118.6" y="30.76923076923077" width="2" height="69.23076923076923" id="death-date-22"></rect></g><g><rect x="115.03636363636363" y="32.692307692307686" width="2" height="67.30769230769232" id="death-date-23"></rect></g><g><rect x="111.47272727272728" y="20.769230769230774" width="2" height="79.23076923076923" id="death-date-24"></rect></g><g><rect x="107.90909090909089" y="9.230769230769232" width="2" height="90.76923076923077" id="death-date-25"></rect></g><g><rect x="104.34545454545456" y="19.999999999999996" width="2" height="80" id="death-date-26"></rect></g><g><rect x="100.78181818181817" y="11.538461538461542" width="2" height="88.46153846153845" id="death-date-27"></rect></g><g><rect x="97.21818181818183" y="3.8461538461538436" width="2" height="96.15384615384616" id="death-date-28"></rect></g><g><rect x="93.65454545454546" y="13.076923076923075" width="2" height="86.92307692307692" id="death-date-29"></rect></g><g><rect x="90.09090909090911" y="4.230769230769226" width="2" height="95.76923076923077" id="death-date-30"></rect></g><g><rect x="86.52727272727273" y="5.000000000000004" width="2" height="95" id="death-date-31"></rect></g><g><rect x="82.96363636363637" y="15.769230769230768" width="2" height="84.23076923076923" id="death-date-32"></rect></g><g><rect x="79.4" y="10.384615384615381" width="2" height="89.61538461538461" id="death-date-33"></rect></g><g><rect x="75.83636363636364" y="18.07692307692308" width="2" height="81.92307692307692" id="death-date-34"></rect></g><g><rect x="72.27272727272727" y="13.076923076923075" width="2" height="86.92307692307692" id="death-date-35"></rect></g><g><rect x="68.70909090909092" y="27.692307692307693" width="2" height="72.3076923076923" id="death-date-36"></rect></g><g><rect x="65.14545454545454" y="10.384615384615381" width="2" height="89.61538461538461" id="death-date-37"></rect></g><g><rect x="61.58181818181818" y="17.307692307692314" width="2" height="82.69230769230768" id="death-date-38"></rect></g><g><rect x="58.018181818181816" y="11.923076923076925" width="2" height="88.07692307692308" id="death-date-39"></rect></g><g><rect x="54.454545454545446" y="17.692307692307697" width="2" height="82.3076923076923" id="death-date-40"></rect></g><g><rect x="50.89090909090908" y="11.538461538461542" width="2" height="88.46153846153845" id="death-date-41"></rect></g><g><rect x="47.32727272727273" y="21.923076923076923" width="2" height="78.07692307692308" id="death-date-42"></rect></g><g><rect x="43.76363636363636" y="30.000000000000004" width="2" height="70" id="death-date-43"></rect></g><g><rect x="40.199999999999996" y="28.076923076923077" width="2" height="71.92307692307692" id="death-date-44"></rect></g><g><rect x="36.636363636363626" y="27.30769230769231" width="2" height="72.6923076923077" id="death-date-45"></rect></g><g><rect x="33.072727272727285" y="38.07692307692307" width="2" height="61.92307692307693" id="death-date-46"></rect></g><g><rect x="29.509090909090922" y="36.15384615384616" width="2" height="63.84615384615384" id="death-date-47"></rect></g><g><rect x="25.945454545454556" y="32.30769230769231" width="2" height="67.6923076923077" id="death-date-48"></rect></g><g><rect x="22.38181818181819" y="38.07692307692307" width="2" height="61.92307692307693" id="death-date-49"></rect></g><g><rect x="18.818181818181824" y="45.769230769230774" width="2" height="54.230769230769226" id="death-date-50"></rect></g><g><rect x="15.254545454545461" y="56.15384615384615" width="2" height="43.84615384615385" id="death-date-51"></rect></g><g><rect x="11.690909090909095" y="48.07692307692307" width="2" height="51.92307692307693" id="death-date-52"></rect></g><g><rect x="8.12727272727273" y="56.15384615384615" width="2" height="43.84615384615385" id="death-date-53"></rect></g><g><rect x="4.563636363636365" y="53.07692307692308" width="2" height="46.92307692307692" id="death-date-54"></rect></g><g><rect x="1" y="52.3076923076923" width="2" height="47.6923076923077" id="death-date-55"></rect></g></g><g class="fg-line death-date" fill="none" stroke="#92c5de" stroke-width="2" stroke-linecap="round"><path d="M198,74.78021978021978L194.43636363636364,72.52747252747253L190.87272727272727,70.60439560439559L187.30909090909088,67.1978021978022L183.74545454545455,65.76923076923077L180.1818181818182,63.51648351648351L176.61818181818182,60.05494505494505L173.05454545454546,58.241758241758234L169.49090909090907,56.97802197802198L165.92727272727274,54.61538461538462L162.36363636363637,52.91208791208791L158.8,49.83516483516483L155.23636363636365,45.98901098901099L151.6727272727273,44.12087912087912L148.1090909090909,40L144.54545454545453,34.94505494505494L140.9818181818182,32.857142857142854L137.41818181818184,31.153846153846153L133.85454545454544,28.021978021978022L130.29090909090908,24.835164835164836L126.72727272727273,22.417582417582416L123.16363636363636,20.659340659340664L119.6,18.40659340659341L116.03636363636363,15.879120879120878L112.47272727272728,11.813186813186816L108.90909090909089,9.56043956043956L105.34545454545456,10.494505494505491L101.78181818181817,9.120879120879122L98.21818181818183,10.054945054945053L94.65454545454546,11.373626373626378L91.09090909090911,13.461538461538458L87.52727272727273,14.340659340659334L83.96363636363637,16.0989010989011L80.4,15.54945054945055L76.83636363636364,16.59340659340659L73.27272727272727,15.659340659340659L69.70909090909092,16.92307692307692L66.14545454545454,17.25274725274726L62.58181818181818,19.780219780219777L59.018181818181816,21.20879120879121L55.454545454545446,24.945054945054945L51.89090909090908,27.582417582417584L48.32727272727273,30.54945054945054L44.76363636363636,32.857142857142854L41.199999999999996,35.10989010989011L37.636363636363626,39.120879120879124L34.072727272727285,42.08791208791208L30.509090909090922,44.670329670329664L26.945454545454556,47.08791208791209L23.38181818181819,49.94505494505495L19.818181818181824,53.35164835164835L16.25454545454546,55.329670329670336L12.690909090909095,57.417582417582416L9.12727272727273,60.10989010989012L5.563636363636365,61.92307692307693L2,65.10989010989012"></path></g></svg>