<svg about="DATA_PUBLISHED_DATE:2022-01-01,RENDER_DATE:2022-01-01" xmlns="http://www.w3.org/2000/svg" viewBox="0,0,200,100"><g transform="translate(0,0)"></g><g class="fg-bars tests-vaccines" fill="#00183f" stroke="none"><g><rect x="197" y="87.55914285714286" width="2" height="12.44085714285714" id="tests-vaccines-0"></rect></g><g><rect x="193.43636363636364" y="40.27828571428571" width="2" height="59.72171428571429" id="tests-vaccines-1"></rect></g><g><rect x="189.87272727272727" y="29.698857142857136" width="2" height="70.30114285714286" id="tests-vaccines-2"></rect></g><g><rect x="186.30909090909088" y="27.011714285714284" width="2" height="72.98828571428572" id="tests-vaccines-3"></rect></g><g><rect x="182.74545454545455" y="31.836285714285715" width="2" height="68.16371428571429" id="tests-vaccines-4"></rect></g><g><rect x="179.1818181818182" y="80.28057142857143" width="2" height="19.719428571428566" id="tests-vaccines-5"></rect></g><g><rect x="175.61818181818182" y="60.62257142857143" width="2" height="39.37742857142857" id="tests-vaccines-6"></rect></g><g><rect x="172.05454545454546" y="27.596857142857147" width="2" height="72.40314285714285" id="tests-vaccines-7"></rect></g><g><rect x="168.49090909090907" y="35.826857142857136" width="2" height="64.17314285714286" id="tests-vaccines-8"></rect></g><g><rect x="164.92727272727274" y="34.17771428571429" width="2" height="65.82228571428571" id="tests-vaccines-9"></rect></g><g><rect x="161.36363636363637" y="35.89171428571428" width="2" height="64.10828571428573" id="tests-vaccines-10"></rect></g><g><rect x="157.8" y="38.71514285714286" width="2" height="61.28485714285714" id="tests-vaccines-11"></rect></g><g><rect x="154.23636363636365" y="80.55657142857142" width="2" height="19.443428571428583" id="tests-vaccines-12"></rect></g><g><rect x="150.6727272727273" y="54.433428571428564" width="2" height="45.566571428571436" id="tests-vaccines-13"></rect></g><g><rect x="147.1090909090909" y="20.25314285714286" width="2" height="79.74685714285714" id="tests-vaccines-14"></rect></g><g><rect x="143.54545454545453" y="28.186857142857146" width="2" height="71.81314285714285" id="tests-vaccines-15"></rect></g><g><rect x="139.9818181818182" y="25.855428571428575" width="2" height="74.14457142857142" id="tests-vaccines-16"></rect></g><g><rect x="136.41818181818184" y="25.74371428571428" width="2" height="74.25628571428572" id="tests-vaccines-17"></rect></g><g><rect x="132.85454545454544" y="31.137999999999998" width="2" height="68.862" id="tests-vaccines-18"></rect></g><g><rect x="129.29090909090908" y="76.608" width="2" height="23.391999999999996" id="tests-vaccines-19"></rect></g><g><rect x="125.72727272727273" y="48.21714285714286" width="2" height="51.78285714285714" id="tests-vaccines-20"></rect></g><g><rect x="122.16363636363636" y="9.498571428571434" width="2" height="90.50142857142856" id="tests-vaccines-21"></rect></g><g><rect x="118.6" y="20.185714285714283" width="2" height="79.81428571428572" id="tests-vaccines-22"></rect></g><g><rect x="115.03636363636363" y="21.900285714285715" width="2" height="78.09971428571428" id="tests-vaccines-23"></rect></g><g><rect x="111.47272727272728" y="29.487142857142857" width="2" height="70.51285714285714" id="tests-vaccines-24"></rect></g><g><rect x="107.90909090909089" y="39.07657142857143" width="2" height="60.92342857142857" id="tests-vaccines-25"></rect></g><g><rect x="104.34545454545456" y="81.58742857142857" width="2" height="18.412571428571425" id="tests-vaccines-26"></rect></g><g><rect x="100.78181818181817" y="67.30857142857143" width="2" height="32.691428571428574" id="tests-vaccines-27"></rect></g><g><rect x="97.21818181818183" y="56.339714285714294" width="2" height="43.660285714285706" id="tests-vaccines-28"></rect></g><g><rect x="93.65454545454546" y="98.592" width="2" height="1.4080000000000013" id="tests-vaccines-29"></rect></g><g><rect x="90.09090909090911" y="41.40571428571429" width="2" height="58.59428571428571" id="tests-vaccines-30"></rect></g><g><rect x="86.52727272727273" y="30.301714285714286" width="2" height="69.69828571428572" id="tests-vaccines-31"></rect></g><g><rect x="82.96363636363637" y="33.454571428571434" width="2" height="66.54542857142857" id="tests-vaccines-32"></rect></g><g><rect x="79.4" y="79.08571428571429" width="2" height="20.91428571428571" id="tests-vaccines-33"></rect></g><g><rect x="75.83636363636364" y="55.029428571428575" width="2" height="44.970571428571425" id="tests-vaccines-34"></rect></g><g><rect x="72.27272727272727" y="22.905714285714286" width="2" height="77.09428571428572" id="tests-vaccines-35"></rect></g><g><rect x="68.70909090909092" y="34.966857142857144" width="2" height="65.03314285714285" id="tests-vaccines-36"></rect></g><g><rect x="65.14545454545454" y="33.766" width="2" height="66.23400000000001" id="tests-vaccines-37"></rect></g><g><rect x="61.58181818181818" y="35.24885714285714" width="2" height="64.75114285714287" id="tests-vaccines-38"></rect></g><g><rect x="58.018181818181816" y="40.96228571428572" width="2" height="59.03771428571428" id="tests-vaccines-39"></rect></g><g><rect x="54.454545454545446" y="79.46514285714285" width="2" height="20.53485714285715" id="tests-vaccines-40"></rect></g><g><rect x="50.89090909090908" y="57.20828571428571" width="2" height="42.79171428571429" id="tests-vaccines-41"></rect></g><g><rect x="47.32727272727273" y="25.69771428571429" width="2" height="74.30228571428572" id="tests-vaccines-42"></rect></g><g><rect x="43.76363636363636" y="37.74171428571429" width="2" height="62.25828571428571" id="tests-vaccines-43"></rect></g><g><rect x="40.199999999999996" y="35.290285714285716" width="2" height="64.70971428571428" id="tests-vaccines-44"></rect></g><g><rect x="36.636363636363626" y="37.74142857142857" width="2" height="62.25857142857143" id="tests-vaccines-45"></rect></g><g><rect x="33.072727272727285" y="42.741142857142854" width="2" height="57.258857142857146" id="tests-vaccines-46"></rect></g><g><rect x="29.509090909090922" y="80.57514285714285" width="2" height="19.42485714285715" id="tests-vaccines-47"></rect></g><g><rect x="25.945454545454556" y="63.27514285714286" width="2" height="36.72485714285714" id="tests-vaccines-48"></rect></g><g><rect x="22.38181818181819" y="30.37628571428571" width="2" height="69.62371428571429" id="tests-vaccines-49"></rect></g><g><rect x="18.818181818181824" y="43.26085714285715" width="2" height="56.73914285714285" id="tests-vaccines-50"></rect></g><g><rect x="15.254545454545461" y="45.77142857142857" width="2" height="54.22857142857143" id="tests-vaccines-51"></rect></g><g><rect x="11.690909090909095" y="45.679142857142864" width="2" height="54.320857142857136" id="tests-vaccines-52"></rect></g><g><rect x="8.12727272727273" y="48.97085714285714" width="2" height="51.02914285714286" id="tests-vaccines-53"></rect></g><g><rect x="4.563636363636365" y="85.47428571428571" width="2" height="14.525714285714287" id="tests-vaccines-54"></rect></g><g><rect x="1" y="70.44428571428571" width="2" height="29.555714285714288" id="tests-vaccines-55"></rect></g></g><g class="fg-line tests-vaccines" fill="none" stroke="#92c5de" stroke-width="2" stroke-linecap="round"><path d="M198,51.041061224489795L194.43636363636364,42.47502040816327L190.87272727272727,41.83910204081632L187.30909090909088,42.4789387755102L183.74545454545455,43.74751020408163L180.1818181818182,44.73020408163265L176.61818181818182,44.76963265306123L173.05454545454546,43.88546938775511L169.49090909090907,42.83636734693877L165.92727272727274,41.7449387755102L162.36363636363637,40.55604081632653L158.8,39.10632653061224L155.23636363636365,38.023877551020405L151.6727272727273,37.45979591836735L148.1090909090909,36.57175510204082L144.54545454545453,35.03538775510203L140.9818181818182,33.89236734693878L137.41818181818184,33.32734693877551L133.85454545454544,33.86212244897959L130.29090909090908,34.996204081632655L126.72727272727273,35.70755102040817L123.16363636363636,38.43489795918368L119.6,45.12648979591837L116.03636363636363,56.327387755102045L112.47272727272728,59.1138775510204L108.90909090909089,59.23024489795918L105.34545454545456,58.42710204081632L101.78181818181817,58.069714285714284L98.21818181818183,56.31555102040817L94.65454545454546,51.53926530612245L91.09090909090911,42.44995918367347L87.52727272727273,41.35857142857143L83.96363636363637,42.06530612244897L80.4,43.13783673469388L76.83636363636364,43.19204081632654L73.27272727272727,43.50330612244898L69.70909090909092,43.902163265306115L66.14545454545454,44.298571428571435L62.58181818181818,44.51632653061225L59.018181818181816,44.87240816326531L55.454545454545446,45.1265306122449L51.89090909090908,45.28510204081633L48.32727272727273,46.15179591836734L44.76363636363636,46.82016326530613L41.199999999999996,47.60861224489796L37.636363636363626,49.10591836734694L34.072727272727285,50.239877551020406L30.509090909090922,51.12983673469388L26.945454545454556,51.82971428571428L23.38181818181819,52.8538775510204L19.818181818181824,53.8590612244898L16.25454545454546,54.51669387755103L12.690909090909095,54.80383673469388L9.12727272727273,55.18395918367347L5.563636363636365,55.79048979591836L2,55.924734693877554"></path></g></svg>