<svg meta="{&quot;DATA_PUBLISHED_DATE&quot;:&quot;2022-08-02&quot;,&quot;RENDER_DATE&quot;:&quot;2022-08-02&quot;,&quot;FIRST_DATE&quot;:&quot;2022-05-16&quot;,&quot;LAST_DATE&quot;:&quot;2022-07-10&quot;}" xmlns="http://www.w3.org/2000/svg" viewBox="0,0,200,100"><g transform="translate(0,0)"></g><g class="fg-bars death-date" fill="#00183f" stroke="none"><g><rect x="197" y="37.77777777777778" width="2" height="62.22222222222222" id="death-date-0"></rect></g><g><rect x="193.43636363636364" y="22.22222222222222" width="2" height="77.77777777777777" id="death-date-1"></rect></g><g><rect x="189.87272727272727" y="4.444444444444439" width="2" height="95.55555555555556" id="death-date-2"></rect></g><g><rect x="186.30909090909088" y="48.88888888888889" width="2" height="51.11111111111111" id="death-date-3"></rect></g><g><rect x="182.74545454545455" y="33.333333333333336" width="2" height="66.66666666666666" id="death-date-4"></rect></g><g><rect x="179.1818181818182" y="40" width="2" height="60" id="death-date-5"></rect></g><g><rect x="175.61818181818182" y="13.33333333333333" width="2" height="86.66666666666667" id="death-date-6"></rect></g><g><rect x="172.05454545454546" y="24.444444444444446" width="2" height="75.55555555555556" id="death-date-7"></rect></g><g><rect x="168.49090909090907" y="13.33333333333333" width="2" height="86.66666666666667" id="death-date-8"></rect></g><g><rect x="164.92727272727274" y="37.77777777777778" width="2" height="62.22222222222222" id="death-date-9"></rect></g><g><rect x="161.36363636363637" y="35.55555555555555" width="2" height="64.44444444444446" id="death-date-10"></rect></g><g><rect x="157.8" y="44.44444444444444" width="2" height="55.55555555555556" id="death-date-11"></rect></g><g><rect x="154.23636363636365" y="37.77777777777778" width="2" height="62.22222222222222" id="death-date-12"></rect></g><g><rect x="150.6727272727273" y="44.44444444444444" width="2" height="55.55555555555556" id="death-date-13"></rect></g><g><rect x="147.1090909090909" y="42.22222222222223" width="2" height="57.77777777777777" id="death-date-14"></rect></g><g><rect x="143.54545454545453" y="55.55555555555556" width="2" height="44.44444444444444" id="death-date-15"></rect></g><g><rect x="139.9818181818182" y="37.77777777777778" width="2" height="62.22222222222222" id="death-date-16"></rect></g><g><rect x="136.41818181818184" y="28.888888888888886" width="2" height="71.11111111111111" id="death-date-17"></rect></g><g><rect x="132.85454545454544" y="28.888888888888886" width="2" height="71.11111111111111" id="death-date-18"></rect></g><g><rect x="129.29090909090908" y="44.44444444444444" width="2" height="55.55555555555556" id="death-date-19"></rect></g><g><rect x="125.72727272727273" y="42.22222222222223" width="2" height="57.77777777777777" id="death-date-20"></rect></g><g><rect x="122.16363636363636" y="44.44444444444444" width="2" height="55.55555555555556" id="death-date-21"></rect></g><g><rect x="118.6" y="44.44444444444444" width="2" height="55.55555555555556" id="death-date-22"></rect></g><g><rect x="115.03636363636363" y="26.66666666666667" width="2" height="73.33333333333333" id="death-date-23"></rect></g><g><rect x="111.47272727272728" y="33.333333333333336" width="2" height="66.66666666666666" id="death-date-24"></rect></g><g><rect x="107.90909090909089" y="42.22222222222223" width="2" height="57.77777777777777" id="death-date-25"></rect></g><g><rect x="104.34545454545456" y="53.333333333333336" width="2" height="46.666666666666664" id="death-date-26"></rect></g><g><rect x="100.78181818181817" y="68.88888888888889" width="2" height="31.111111111111114" id="death-date-27"></rect></g><g><rect x="97.21818181818183" y="44.44444444444444" width="2" height="55.55555555555556" id="death-date-28"></rect></g><g><rect x="93.65454545454546" y="37.77777777777778" width="2" height="62.22222222222222" id="death-date-29"></rect></g><g><rect x="90.09090909090911" y="37.77777777777778" width="2" height="62.22222222222222" id="death-date-30"></rect></g><g><rect x="86.52727272727273" y="40" width="2" height="60" id="death-date-31"></rect></g><g><rect x="82.96363636363637" y="53.333333333333336" width="2" height="46.666666666666664" id="death-date-32"></rect></g><g><rect x="79.4" y="60" width="2" height="40" id="death-date-33"></rect></g><g><rect x="75.83636363636364" y="48.88888888888889" width="2" height="51.11111111111111" id="death-date-34"></rect></g><g><rect x="72.27272727272727" y="60" width="2" height="40" id="death-date-35"></rect></g><g><rect x="68.70909090909092" y="60" width="2" height="40" id="death-date-36"></rect></g><g><rect x="65.14545454545454" y="55.55555555555556" width="2" height="44.44444444444444" id="death-date-37"></rect></g><g><rect x="61.58181818181818" y="53.333333333333336" width="2" height="46.666666666666664" id="death-date-38"></rect></g><g><rect x="58.018181818181816" y="62.22222222222222" width="2" height="37.77777777777778" id="death-date-39"></rect></g><g><rect x="54.454545454545446" y="73.33333333333334" width="2" height="26.666666666666657" id="death-date-40"></rect></g><g><rect x="50.89090909090908" y="55.55555555555556" width="2" height="44.44444444444444" id="death-date-41"></rect></g><g><rect x="47.32727272727273" y="42.22222222222223" width="2" height="57.77777777777777" id="death-date-42"></rect></g><g><rect x="43.76363636363636" y="60" width="2" height="40" id="death-date-43"></rect></g><g><rect x="40.199999999999996" y="64.44444444444444" width="2" height="35.55555555555556" id="death-date-44"></rect></g><g><rect x="36.636363636363626" y="71.11111111111111" width="2" height="28.888888888888886" id="death-date-45"></rect></g><g><rect x="33.072727272727285" y="60" width="2" height="40" id="death-date-46"></rect></g><g><rect x="29.509090909090922" y="40" width="2" height="60" id="death-date-47"></rect></g><g><rect x="25.945454545454556" y="71.11111111111111" width="2" height="28.888888888888886" id="death-date-48"></rect></g><g><rect x="22.38181818181819" y="66.66666666666667" width="2" height="33.33333333333333" id="death-date-49"></rect></g><g><rect x="18.818181818181824" y="55.55555555555556" width="2" height="44.44444444444444" id="death-date-50"></rect></g><g><rect x="15.254545454545461" y="60" width="2" height="40" id="death-date-51"></rect></g><g><rect x="11.690909090909095" y="62.22222222222222" width="2" height="37.77777777777778" id="death-date-52"></rect></g><g><rect x="8.12727272727273" y="62.22222222222222" width="2" height="37.77777777777778" id="death-date-53"></rect></g><g><rect x="4.563636363636365" y="68.88888888888889" width="2" height="31.111111111111114" id="death-date-54"></rect></g><g><rect x="1" y="75.55555555555556" width="2" height="24.444444444444443" id="death-date-55"></rect></g></g><g class="fg-line death-date" fill="none" stroke="#92c5de" stroke-width="2" stroke-linecap="round"><path d="M198,28.57142857142857L194.43636363636364,26.66666666666667L190.87272727272727,25.396825396825406L187.30909090909088,30.15873015873016L183.74545454545455,28.253968253968253L180.1818181818182,29.841269841269835L176.61818181818182,29.52380952380952L173.05454545454546,33.96825396825397L169.49090909090907,36.5079365079365L165.92727272727274,42.539682539682545L162.36363636363637,42.539682539682545L158.8,41.587301587301596L155.23636363636365,39.36507936507937L151.6727272727273,40.317460317460316L148.1090909090909,40L144.54545454545453,40.317460317460316L140.9818181818182,38.73015873015873L137.41818181818184,37.142857142857146L133.85454545454544,37.77777777777778L130.29090909090908,39.682539682539684L126.72727272727273,40.95238095238095L123.16363636363636,44.76190476190476L119.6,44.76190476190476L116.03636363636363,43.80952380952381L112.47272727272728,45.39682539682539L108.90909090909089,46.34920634920635L105.34545454545456,47.936507936507944L101.78181818181817,48.88888888888889L98.21818181818183,46.03174603174603L94.65454545454546,48.25396825396826L91.09090909090911,51.42857142857142L87.52727272727273,53.96825396825397L83.96363636363637,55.87301587301587L80.4,57.14285714285714L76.83636363636364,59.04761904761905L73.27272727272727,60L69.70909090909092,57.460317460317455L66.14545454545454,57.460317460317455L62.58181818181818,58.73015873015872L59.018181818181816,61.26984126984127L55.454545454545446,60.95238095238095L51.89090909090908,56.19047619047619L48.32727272727273,58.412698412698404L44.76363636363636,61.904761904761905L41.199999999999996,61.26984126984127L37.636363636363626,60.63492063492063L34.072727272727285,59.36507936507937L30.509090909090922,59.682539682539684L26.945454545454556,63.8095238095238L23.38181818181819,64.44444444444444L19.818181818181824,60.63492063492063L16.25454545454546,61.58730158730159L12.690909090909095,60.95238095238095L9.12727272727273,63.17460317460317L5.563636363636365,65.39682539682539L2,63.49206349206349"></path></g></svg>