<svg meta="{&quot;DATA_PUBLISHED_DATE&quot;:&quot;2022-03-17&quot;,&quot;RENDER_DATE&quot;:&quot;2022-03-17&quot;,&quot;FIRST_DATE&quot;:&quot;2022-01-12&quot;,&quot;LAST_DATE&quot;:&quot;2022-03-08&quot;}" xmlns="http://www.w3.org/2000/svg" viewBox="0,0,200,100"><g transform="translate(0,0)"></g><g class="fg-bars cases-ep" fill="#00183f" stroke="none"><g><rect x="197" y="97.71692307692308" width="2" height="2.2830769230769192" id="cases-ep-0"></rect></g><g><rect x="193.43636363636364" y="97.32" width="2" height="2.680000000000007" id="cases-ep-1"></rect></g><g><rect x="189.87272727272727" y="98.77076923076923" width="2" height="1.2292307692307674" id="cases-ep-2"></rect></g><g><rect x="186.30909090909088" y="98.5176923076923" width="2" height="1.4823076923076997" id="cases-ep-3"></rect></g><g><rect x="182.74545454545455" y="97.68153846153847" width="2" height="2.318461538461534" id="cases-ep-4"></rect></g><g><rect x="179.1818181818182" y="97.34" width="2" height="2.6599999999999966" id="cases-ep-5"></rect></g><g><rect x="175.61818181818182" y="97.0176923076923" width="2" height="2.9823076923076997" id="cases-ep-6"></rect></g><g><rect x="172.05454545454546" y="96.50230769230768" width="2" height="3.4976923076923185" id="cases-ep-7"></rect></g><g><rect x="168.49090909090907" y="96.04153846153847" width="2" height="3.9584615384615347" id="cases-ep-8"></rect></g><g><rect x="164.92727272727274" y="98.21846153846154" width="2" height="1.7815384615384602" id="cases-ep-9"></rect></g><g><rect x="161.36363636363637" y="97.96230769230769" width="2" height="2.0376923076923106" id="cases-ep-10"></rect></g><g><rect x="157.8" y="96.38692307692308" width="2" height="3.6130769230769175" id="cases-ep-11"></rect></g><g><rect x="154.23636363636365" y="96.12461538461538" width="2" height="3.8753846153846183" id="cases-ep-12"></rect></g><g><rect x="150.6727272727273" y="95.74076923076923" width="2" height="4.2592307692307685" id="cases-ep-13"></rect></g><g><rect x="147.1090909090909" y="94.55153846153847" width="2" height="5.44846153846153" id="cases-ep-14"></rect></g><g><rect x="143.54545454545453" y="95.89153846153846" width="2" height="4.10846153846154" id="cases-ep-15"></rect></g><g><rect x="139.9818181818182" y="97.24153846153845" width="2" height="2.758461538461546" id="cases-ep-16"></rect></g><g><rect x="136.41818181818184" y="96.74615384615385" width="2" height="3.2538461538461547" id="cases-ep-17"></rect></g><g><rect x="132.85454545454544" y="94.56692307692308" width="2" height="5.433076923076925" id="cases-ep-18"></rect></g><g><rect x="129.29090909090908" y="93.68615384615384" width="2" height="6.313846153846157" id="cases-ep-19"></rect></g><g><rect x="125.72727272727273" y="92.61692307692307" width="2" height="7.383076923076928" id="cases-ep-20"></rect></g><g><rect x="122.16363636363636" y="91.50307692307692" width="2" height="8.496923076923082" id="cases-ep-21"></rect></g><g><rect x="118.6" y="90.01692307692308" width="2" height="9.983076923076922" id="cases-ep-22"></rect></g><g><rect x="115.03636363636363" y="95.85615384615384" width="2" height="4.143846153846155" id="cases-ep-23"></rect></g><g><rect x="111.47272727272728" y="94.67384615384616" width="2" height="5.326153846153844" id="cases-ep-24"></rect></g><g><rect x="107.90909090909089" y="89.56846153846155" width="2" height="10.431538461538452" id="cases-ep-25"></rect></g><g><rect x="104.34545454545456" y="89.31" width="2" height="10.689999999999998" id="cases-ep-26"></rect></g><g><rect x="100.78181818181817" y="87.74846153846154" width="2" height="12.251538461538459" id="cases-ep-27"></rect></g><g><rect x="97.21818181818183" y="86.39153846153846" width="2" height="13.60846153846154" id="cases-ep-28"></rect></g><g><rect x="93.65454545454546" y="83.02846153846154" width="2" height="16.971538461538458" id="cases-ep-29"></rect></g><g><rect x="90.09090909090911" y="92.54538461538462" width="2" height="7.45461538461538" id="cases-ep-30"></rect></g><g><rect x="86.52727272727273" y="90.96538461538461" width="2" height="9.034615384615392" id="cases-ep-31"></rect></g><g><rect x="82.96363636363637" y="83.27153846153847" width="2" height="16.72846153846153" id="cases-ep-32"></rect></g><g><rect x="79.4" y="81.62" width="2" height="18.379999999999995" id="cases-ep-33"></rect></g><g><rect x="75.83636363636364" y="79.14538461538461" width="2" height="20.854615384615386" id="cases-ep-34"></rect></g><g><rect x="72.27272727272727" y="74.98923076923076" width="2" height="25.01076923076924" id="cases-ep-35"></rect></g><g><rect x="68.70909090909092" y="70.46" width="2" height="29.540000000000006" id="cases-ep-36"></rect></g><g><rect x="65.14545454545454" y="88.34615384615385" width="2" height="11.653846153846146" id="cases-ep-37"></rect></g><g><rect x="61.58181818181818" y="84.09769230769231" width="2" height="15.902307692307687" id="cases-ep-38"></rect></g><g><rect x="58.018181818181816" y="70.52000000000001" width="2" height="29.47999999999999" id="cases-ep-39"></rect></g><g><rect x="54.454545454545446" y="66.33307692307693" width="2" height="33.66692307692307" id="cases-ep-40"></rect></g><g><rect x="50.89090909090908" y="60.45" width="2" height="39.55" id="cases-ep-41"></rect></g><g><rect x="47.32727272727273" y="54.18923076923077" width="2" height="45.81076923076923" id="cases-ep-42"></rect></g><g><rect x="43.76363636363636" y="46.28153846153846" width="2" height="53.71846153846154" id="cases-ep-43"></rect></g><g><rect x="40.199999999999996" y="78.40769230769232" width="2" height="21.592307692307685" id="cases-ep-44"></rect></g><g><rect x="36.636363636363626" y="69.55615384615385" width="2" height="30.443846153846152" id="cases-ep-45"></rect></g><g><rect x="33.072727272727285" y="41.00692307692307" width="2" height="58.99307692307693" id="cases-ep-46"></rect></g><g><rect x="29.509090909090922" y="31.453846153846154" width="2" height="68.54615384615384" id="cases-ep-47"></rect></g><g><rect x="25.945454545454556" y="22.87538461538462" width="2" height="77.12461538461538" id="cases-ep-48"></rect></g><g><rect x="22.38181818181819" y="8.656153846153847" width="2" height="91.34384615384616" id="cases-ep-49"></rect></g><g><rect x="18.818181818181824" y="38.1476923076923" width="2" height="61.8523076923077" id="cases-ep-50"></rect></g><g><rect x="15.254545454545461" y="69.31384615384614" width="2" height="30.686153846153857" id="cases-ep-51"></rect></g><g><rect x="11.690909090909095" y="55.57000000000001" width="2" height="44.42999999999999" id="cases-ep-52"></rect></g><g><rect x="8.12727272727273" y="20.797692307692305" width="2" height="79.2023076923077" id="cases-ep-53"></rect></g><g><rect x="4.563636363636365" y="13.200000000000001" width="2" height="86.8" id="cases-ep-54"></rect></g><g><rect x="1" y="3.8846153846153864" width="2" height="96.11538461538461" id="cases-ep-55"></rect></g></g><g class="fg-line cases-ep" fill="none" stroke="#92c5de" stroke-width="2" stroke-linecap="round"><path d="M198,97.76637362637362L194.43636363636364,97.59285714285714L190.87272727272727,97.41021978021978L187.30909090909088,97.33131868131868L183.74545454545455,97.25197802197802L180.1818181818182,97.06703296703296L176.61818181818182,96.8934065934066L173.05454545454546,96.71098901098901L169.49090909090907,96.43230769230769L165.92727272727274,96.41087912087912L162.36363636363637,96.27131868131869L158.8,96.09758241758242L155.23636363636365,95.83758241758242L151.6727272727273,95.48923076923077L148.1090909090909,95.04296703296703L144.54545454545453,94.60747252747252L140.9818181818182,93.76824175824176L137.41818181818184,93.57032967032967L133.85454545454544,93.27428571428571L130.29090909090908,92.56021978021978L126.72727272727273,91.93505494505494L123.16363636363636,91.23956043956044L119.6,90.50934065934067L116.03636363636363,89.51098901098901L112.47272727272728,89.03802197802197L108.90909090909089,88.50824175824175L105.34545454545456,87.60868131868132L101.78181818181817,86.51010989010989L98.21818181818183,85.2810989010989L94.65454545454546,83.6521978021978L91.09090909090911,81.85670329670329L87.52727272727273,81.25681318681318L83.96363636363637,80.27571428571429L80.4,78.45406593406594L76.83636363636364,76.27021978021979L73.27272727272727,73.59945054945055L69.70909090909092,70.62802197802198L66.14545454545454,67.17395604395604L62.58181818181818,65.75417582417582L59.018181818181816,63.676813186813185L55.454545454545446,59.46065934065934L51.89090909090908,54.47791208791208L48.32727272727273,49.11010989010989L44.76363636363636,42.60538461538461L41.199999999999996,41.443406593406586L37.636363636363626,40.14428571428572L34.072727272727285,38.146263736263734L30.509090909090922,35.25923076923077L26.945454545454556,32.651538461538465L23.38181818181819,29.938571428571425L19.818181818181824,28.349670329670328L16.25454545454546,21.89989010989011L12.690909090909095,20.200219780219776L9.12727272727273,18.23340659340659L5.563636363636365,14.925494505494507L2,11.79725274725274"></path></g></svg>