<svg meta="{&quot;DATA_PUBLISHED_DATE&quot;:&quot;2023-06-15&quot;,&quot;RENDER_DATE&quot;:&quot;2023-06-15&quot;,&quot;FIRST_DATE&quot;:&quot;2023-04-12&quot;,&quot;LAST_DATE&quot;:&quot;2023-06-06&quot;}" xmlns="http://www.w3.org/2000/svg" viewBox="0,0,200,100"><g transform="translate(0,0)"></g><g class="fg-bars cases-ep" fill="#00183f" stroke="none"><g><rect x="197" y="51.944444444444436" width="2" height="48.055555555555564" id="cases-ep-0"></rect></g><g><rect x="193.43636363636364" y="50.22222222222222" width="2" height="49.77777777777778" id="cases-ep-1"></rect></g><g><rect x="189.87272727272727" y="70.22222222222223" width="2" height="29.77777777777777" id="cases-ep-2"></rect></g><g><rect x="186.30909090909088" y="69.38888888888889" width="2" height="30.611111111111114" id="cases-ep-3"></rect></g><g><rect x="182.74545454545455" y="60" width="2" height="40" id="cases-ep-4"></rect></g><g><rect x="179.1818181818182" y="51.22222222222222" width="2" height="48.77777777777778" id="cases-ep-5"></rect></g><g><rect x="175.61818181818182" y="52.05555555555556" width="2" height="47.94444444444444" id="cases-ep-6"></rect></g><g><rect x="172.05454545454546" y="38.83333333333333" width="2" height="61.16666666666667" id="cases-ep-7"></rect></g><g><rect x="168.49090909090907" y="68.72222222222221" width="2" height="31.277777777777786" id="cases-ep-8"></rect></g><g><rect x="164.92727272727274" y="70.16666666666667" width="2" height="29.83333333333333" id="cases-ep-9"></rect></g><g><rect x="161.36363636363637" y="70.11111111111111" width="2" height="29.888888888888886" id="cases-ep-10"></rect></g><g><rect x="157.8" y="56.44444444444445" width="2" height="43.55555555555555" id="cases-ep-11"></rect></g><g><rect x="154.23636363636365" y="53.333333333333336" width="2" height="46.666666666666664" id="cases-ep-12"></rect></g><g><rect x="150.6727272727273" y="51.66666666666666" width="2" height="48.33333333333334" id="cases-ep-13"></rect></g><g><rect x="147.1090909090909" y="46.77777777777777" width="2" height="53.22222222222223" id="cases-ep-14"></rect></g><g><rect x="143.54545454545453" y="43.777777777777786" width="2" height="56.222222222222214" id="cases-ep-15"></rect></g><g><rect x="139.9818181818182" y="66.61111111111111" width="2" height="33.388888888888886" id="cases-ep-16"></rect></g><g><rect x="136.41818181818184" y="65.22222222222223" width="2" height="34.77777777777777" id="cases-ep-17"></rect></g><g><rect x="132.85454545454544" y="52.5" width="2" height="47.5" id="cases-ep-18"></rect></g><g><rect x="129.29090909090908" y="44.777777777777786" width="2" height="55.222222222222214" id="cases-ep-19"></rect></g><g><rect x="125.72727272727273" y="39.44444444444445" width="2" height="60.55555555555555" id="cases-ep-20"></rect></g><g><rect x="122.16363636363636" y="41.55555555555556" width="2" height="58.44444444444444" id="cases-ep-21"></rect></g><g><rect x="118.6" y="32.88888888888889" width="2" height="67.11111111111111" id="cases-ep-22"></rect></g><g><rect x="115.03636363636363" y="65.16666666666666" width="2" height="34.83333333333334" id="cases-ep-23"></rect></g><g><rect x="111.47272727272728" y="64.27777777777777" width="2" height="35.72222222222223" id="cases-ep-24"></rect></g><g><rect x="107.90909090909089" y="43.55555555555556" width="2" height="56.44444444444444" id="cases-ep-25"></rect></g><g><rect x="104.34545454545456" y="30.555555555555557" width="2" height="69.44444444444444" id="cases-ep-26"></rect></g><g><rect x="100.78181818181817" y="33.666666666666664" width="2" height="66.33333333333334" id="cases-ep-27"></rect></g><g><rect x="97.21818181818183" y="33.38888888888889" width="2" height="66.61111111111111" id="cases-ep-28"></rect></g><g><rect x="93.65454545454546" y="25.611111111111107" width="2" height="74.38888888888889" id="cases-ep-29"></rect></g><g><rect x="90.09090909090911" y="58.72222222222222" width="2" height="41.27777777777778" id="cases-ep-30"></rect></g><g><rect x="86.52727272727273" y="61.38888888888889" width="2" height="38.61111111111111" id="cases-ep-31"></rect></g><g><rect x="82.96363636363637" y="43.55555555555556" width="2" height="56.44444444444444" id="cases-ep-32"></rect></g><g><rect x="79.4" y="44.166666666666664" width="2" height="55.833333333333336" id="cases-ep-33"></rect></g><g><rect x="75.83636363636364" y="37.88888888888889" width="2" height="62.11111111111111" id="cases-ep-34"></rect></g><g><rect x="72.27272727272727" y="29.94444444444444" width="2" height="70.05555555555556" id="cases-ep-35"></rect></g><g><rect x="68.70909090909092" y="26.27777777777778" width="2" height="73.72222222222223" id="cases-ep-36"></rect></g><g><rect x="65.14545454545454" y="60.22222222222222" width="2" height="39.77777777777778" id="cases-ep-37"></rect></g><g><rect x="61.58181818181818" y="57.72222222222223" width="2" height="42.27777777777777" id="cases-ep-38"></rect></g><g><rect x="58.018181818181816" y="39" width="2" height="61" id="cases-ep-39"></rect></g><g><rect x="54.454545454545446" y="34" width="2" height="66" id="cases-ep-40"></rect></g><g><rect x="50.89090909090908" y="23.388888888888893" width="2" height="76.61111111111111" id="cases-ep-41"></rect></g><g><rect x="47.32727272727273" y="23.388888888888893" width="2" height="76.61111111111111" id="cases-ep-42"></rect></g><g><rect x="43.76363636363636" y="10.277777777777775" width="2" height="89.72222222222223" id="cases-ep-43"></rect></g><g><rect x="40.199999999999996" y="52.388888888888886" width="2" height="47.611111111111114" id="cases-ep-44"></rect></g><g><rect x="36.636363636363626" y="52.388888888888886" width="2" height="47.611111111111114" id="cases-ep-45"></rect></g><g><rect x="33.072727272727285" y="35.94444444444444" width="2" height="64.05555555555556" id="cases-ep-46"></rect></g><g><rect x="29.509090909090922" y="29.666666666666664" width="2" height="70.33333333333334" id="cases-ep-47"></rect></g><g><rect x="25.945454545454556" y="27.77777777777778" width="2" height="72.22222222222223" id="cases-ep-48"></rect></g><g><rect x="22.38181818181819" y="18.666666666666664" width="2" height="81.33333333333334" id="cases-ep-49"></rect></g><g><rect x="18.818181818181824" y="6.888888888888889" width="2" height="93.11111111111111" id="cases-ep-50"></rect></g><g><rect x="15.254545454545461" y="53.55555555555556" width="2" height="46.44444444444444" id="cases-ep-51"></rect></g><g><rect x="11.690909090909095" y="46" width="2" height="54" id="cases-ep-52"></rect></g><g><rect x="8.12727272727273" y="29.833333333333336" width="2" height="70.16666666666666" id="cases-ep-53"></rect></g><g><rect x="4.563636363636365" y="17.388888888888886" width="2" height="82.61111111111111" id="cases-ep-54"></rect></g><g><rect x="1" y="13.222222222222225" width="2" height="86.77777777777777" id="cases-ep-55"></rect></g></g><g class="fg-line cases-ep" fill="none" stroke="#92c5de" stroke-width="2" stroke-linecap="round"><path d="M198,57.86507936507937L194.43636363636364,55.992063492063494L190.87272727272727,58.63492063492064L187.30909090909088,58.62698412698413L183.74545454545455,58.73015873015872L180.1818181818182,58.22222222222222L176.61818181818182,58.523809523809526L173.05454545454546,58.46825396825397L169.49090909090907,59.6031746031746L165.92727272727274,56.039682539682545L162.36363636363637,55.53174603174603L158.8,54.833333333333336L155.23636363636365,54.269841269841265L151.6727272727273,53.04761904761905L148.1090909090909,51.301587301587304L144.54545454545453,50.55555555555556L140.9818181818182,49L137.41818181818184,48.7936507936508L133.85454545454544,48.65873015873016L130.29090909090908,47.38095238095238L126.72727272727273,45.34920634920635L123.16363636363636,44.52380952380952L119.6,43.35714285714286L116.03636363636363,42.31746031746032L112.47272727272728,41.3968253968254L108.90909090909089,40.98412698412699L105.34545454545456,40.98412698412699L101.78181818181817,42.92857142857143L98.21818181818183,43.53174603174603L94.65454545454546,43.039682539682545L91.09090909090911,43.13492063492064L87.52727272727273,43.34920634920635L83.96363636363637,42.82539682539682L80.4,42.17460317460318L76.83636363636364,40.72222222222223L73.27272727272727,38.65079365079366L69.70909090909092,37.71428571428571L66.14545454545454,35.42857142857143L62.58181818181818,34.30952380952381L59.018181818181816,33.54761904761905L55.454545454545446,33.111111111111114L51.89090909090908,32.492063492063494L48.32727272727273,33.11904761904761L44.76363636363636,32.44444444444444L41.199999999999996,31.960317460317455L37.636363636363626,32.12698412698413L34.072727272727285,31.214285714285715L30.509090909090922,30.341269841269835L26.945454545454556,28.587301587301596L23.38181818181819,26.507936507936503L19.818181818181824,25.25396825396826L16.25454545454546,22.579365079365076L12.690909090909095,22.03968253968255L9.12727272727273,21.492063492063494L5.563636363636365,21.03968253968255L2,21.468253968253958"></path></g></svg>