<svg about="DATA_PUBLISHED_DATE:2021-11-04,RENDER_DATE:2021-11-04" xmlns="http://www.w3.org/2000/svg" viewBox="0,0,200,100"><g transform="translate(0,0)"></g><g class="fg-bars cases-ep" fill="#00183f" stroke="none"><g><rect x="197" y="55.46923076923077" width="2" height="44.53076923076923" id="cases-ep-0"></rect></g><g><rect x="193.43636363636364" y="52.523076923076914" width="2" height="47.476923076923086" id="cases-ep-1"></rect></g><g><rect x="189.87272727272727" y="76.76923076923077" width="2" height="23.230769230769226" id="cases-ep-2"></rect></g><g><rect x="186.30909090909088" y="73.09230769230768" width="2" height="26.907692307692315" id="cases-ep-3"></rect></g><g><rect x="182.74545454545455" y="57.369230769230775" width="2" height="42.630769230769225" id="cases-ep-4"></rect></g><g><rect x="179.1818181818182" y="57.11538461538461" width="2" height="42.88461538461539" id="cases-ep-5"></rect></g><g><rect x="175.61818181818182" y="54.49230769230768" width="2" height="45.50769230769232" id="cases-ep-6"></rect></g><g><rect x="172.05454545454546" y="53.446153846153855" width="2" height="46.553846153846145" id="cases-ep-7"></rect></g><g><rect x="168.49090909090907" y="47.27692307692307" width="2" height="52.72307692307693" id="cases-ep-8"></rect></g><g><rect x="164.92727272727274" y="73.6" width="2" height="26.400000000000006" id="cases-ep-9"></rect></g><g><rect x="161.36363636363637" y="73.04615384615386" width="2" height="26.953846153846143" id="cases-ep-10"></rect></g><g><rect x="157.8" y="60.384615384615394" width="2" height="39.615384615384606" id="cases-ep-11"></rect></g><g><rect x="154.23636363636365" y="60.27692307692307" width="2" height="39.72307692307693" id="cases-ep-12"></rect></g><g><rect x="150.6727272727273" y="57.34615384615385" width="2" height="42.65384615384615" id="cases-ep-13"></rect></g><g><rect x="147.1090909090909" y="55.95384615384616" width="2" height="44.04615384615384" id="cases-ep-14"></rect></g><g><rect x="143.54545454545453" y="56.22307692307693" width="2" height="43.77692307692307" id="cases-ep-15"></rect></g><g><rect x="139.9818181818182" y="75.42307692307692" width="2" height="24.57692307692308" id="cases-ep-16"></rect></g><g><rect x="136.41818181818184" y="73.59230769230768" width="2" height="26.407692307692315" id="cases-ep-17"></rect></g><g><rect x="132.85454545454544" y="60.85384615384615" width="2" height="39.14615384615385" id="cases-ep-18"></rect></g><g><rect x="129.29090909090908" y="59.715384615384615" width="2" height="40.284615384615385" id="cases-ep-19"></rect></g><g><rect x="125.72727272727273" y="54.415384615384625" width="2" height="45.584615384615375" id="cases-ep-20"></rect></g><g><rect x="122.16363636363636" y="52.807692307692314" width="2" height="47.192307692307686" id="cases-ep-21"></rect></g><g><rect x="118.6" y="48.41538461538462" width="2" height="51.58461538461538" id="cases-ep-22"></rect></g><g><rect x="115.03636363636363" y="74.44615384615385" width="2" height="25.553846153846152" id="cases-ep-23"></rect></g><g><rect x="111.47272727272728" y="72.2" width="2" height="27.799999999999997" id="cases-ep-24"></rect></g><g><rect x="107.90909090909089" y="56.62307692307692" width="2" height="43.37692307692308" id="cases-ep-25"></rect></g><g><rect x="104.34545454545456" y="56.00769230769232" width="2" height="43.99230769230768" id="cases-ep-26"></rect></g><g><rect x="100.78181818181817" y="52.753846153846155" width="2" height="47.246153846153845" id="cases-ep-27"></rect></g><g><rect x="97.21818181818183" y="48.61538461538461" width="2" height="51.38461538461539" id="cases-ep-28"></rect></g><g><rect x="93.65454545454546" y="41.900000000000006" width="2" height="58.099999999999994" id="cases-ep-29"></rect></g><g><rect x="90.09090909090911" y="71.52307692307693" width="2" height="28.47692307692307" id="cases-ep-30"></rect></g><g><rect x="86.52727272727273" y="67.85384615384615" width="2" height="32.14615384615385" id="cases-ep-31"></rect></g><g><rect x="82.96363636363637" y="53.123076923076916" width="2" height="46.876923076923084" id="cases-ep-32"></rect></g><g><rect x="79.4" y="50.47692307692307" width="2" height="49.52307692307693" id="cases-ep-33"></rect></g><g><rect x="75.83636363636364" y="43.646153846153844" width="2" height="56.353846153846156" id="cases-ep-34"></rect></g><g><rect x="72.27272727272727" y="42.69230769230769" width="2" height="57.30769230769231" id="cases-ep-35"></rect></g><g><rect x="68.70909090909092" y="33.05384615384616" width="2" height="66.94615384615383" id="cases-ep-36"></rect></g><g><rect x="65.14545454545454" y="68.43076923076923" width="2" height="31.56923076923077" id="cases-ep-37"></rect></g><g><rect x="61.58181818181818" y="62.6" width="2" height="37.4" id="cases-ep-38"></rect></g><g><rect x="58.018181818181816" y="44.15384615384615" width="2" height="55.84615384615385" id="cases-ep-39"></rect></g><g><rect x="54.454545454545446" y="39.738461538461536" width="2" height="60.261538461538464" id="cases-ep-40"></rect></g><g><rect x="50.89090909090908" y="32.592307692307685" width="2" height="67.40769230769232" id="cases-ep-41"></rect></g><g><rect x="47.32727272727273" y="27.96153846153846" width="2" height="72.03846153846155" id="cases-ep-42"></rect></g><g><rect x="43.76363636363636" y="20.623076923076923" width="2" height="79.37692307692308" id="cases-ep-43"></rect></g><g><rect x="40.199999999999996" y="59.369230769230775" width="2" height="40.630769230769225" id="cases-ep-44"></rect></g><g><rect x="36.636363636363626" y="52.47692307692308" width="2" height="47.52307692307692" id="cases-ep-45"></rect></g><g><rect x="33.072727272727285" y="28.861538461538462" width="2" height="71.13846153846154" id="cases-ep-46"></rect></g><g><rect x="29.509090909090922" y="22.24615384615385" width="2" height="77.75384615384615" id="cases-ep-47"></rect></g><g><rect x="25.945454545454556" y="13.630769230769236" width="2" height="86.36923076923077" id="cases-ep-48"></rect></g><g><rect x="22.38181818181819" y="5.376923076923079" width="2" height="94.62307692307692" id="cases-ep-49"></rect></g><g><rect x="18.818181818181824" y="49.36153846153846" width="2" height="50.63846153846154" id="cases-ep-50"></rect></g><g><rect x="15.254545454545461" y="59.16923076923077" width="2" height="40.83076923076923" id="cases-ep-51"></rect></g><g><rect x="11.690909090909095" y="48.63076923076923" width="2" height="51.36923076923077" id="cases-ep-52"></rect></g><g><rect x="8.12727272727273" y="23.85384615384616" width="2" height="76.14615384615384" id="cases-ep-53"></rect></g><g><rect x="4.563636363636365" y="16.42307692307692" width="2" height="83.57692307692308" id="cases-ep-54"></rect></g><g><rect x="1" y="2.061538461538459" width="2" height="97.93846153846154" id="cases-ep-55"></rect></g></g><g class="fg-line cases-ep" fill="none" stroke="#92c5de" stroke-width="2" stroke-linecap="round"><path d="M198,60.97582417582418L194.43636363636364,60.6868131868132L190.87272727272727,59.93736263736265L187.30909090909088,59.48461538461538L183.74545454545455,59.47802197802198L180.1818181818182,59.9087912087912L176.61818181818182,60.36043956043956L173.05454545454546,60.76813186813187L169.49090909090907,61.126373626373635L165.92727272727274,62.4043956043956L162.36363636363637,62.66483516483517L158.8,62.74285714285715L155.23636363636365,62.80989010989011L151.6727272727273,62.72967032967034L148.1090909090909,62.31098901098902L144.54545454545453,61.86153846153846L140.9818181818182,60.74615384615385L137.41818181818184,60.606593406593404L133.85454545454544,60.40769230769231L130.29090909090908,59.8032967032967L126.72727272727273,59.273626373626364L123.16363636363636,59.03626373626374L119.6,58.43736263736263L116.03636363636363,57.50659340659341L112.47272727272728,57.08901098901098L108.90909090909089,56.46813186813186L105.34545454545456,55.96813186813188L101.78181818181817,55.178021978021974L98.21818181818183,53.87692307692308L94.65454545454546,53.03076923076924L91.09090909090911,51.76703296703297L87.52727272727273,51.325274725274724L83.96363636363637,50.574725274725274L80.4,49.293406593406594L76.83636363636364,47.75934065934065L73.27272727272727,46.18021978021978L69.70909090909092,44.075824175824174L66.14545454545454,42.300000000000004L62.58181818181818,41.0054945054945L59.018181818181816,39.559340659340656L55.454545454545446,37.37472527472527L51.89090909090908,34.87582417582418L48.32727272727273,32.16703296703297L44.76363636363636,28.940659340659337L41.199999999999996,33.04615384615385L37.636363636363626,33.01758241758242L34.072727272727285,32.46813186813186L30.509090909090922,31.75274725274726L26.945454545454556,30.92087912087913L23.38181818181819,29.268131868131874L19.818181818181824,29.404395604395607L16.25454545454546,22.185714285714287L12.690909090909095,20.838461538461537L9.12727272727273,19.680219780219776L5.563636363636365,18.291208791208792L2,16.69120879120879"></path></g></svg>