<svg meta="{&quot;DATA_PUBLISHED_DATE&quot;:&quot;2022-05-06&quot;,&quot;RENDER_DATE&quot;:&quot;2022-05-06&quot;,&quot;FIRST_DATE&quot;:&quot;2022-03-04&quot;,&quot;LAST_DATE&quot;:&quot;2022-04-28&quot;}" xmlns="http://www.w3.org/2000/svg" viewBox="0,0,200,100"><g transform="translate(0,0)"></g><g class="fg-bars tests-vaccines" fill="#00183f" stroke="none"><g><rect x="197" y="35.114999999999995" width="2" height="64.885" id="tests-vaccines-0"></rect></g><g><rect x="193.43636363636364" y="39.232" width="2" height="60.768" id="tests-vaccines-1"></rect></g><g><rect x="189.87272727272727" y="40.041000000000004" width="2" height="59.958999999999996" id="tests-vaccines-2"></rect></g><g><rect x="186.30909090909088" y="40.782" width="2" height="59.218" id="tests-vaccines-3"></rect></g><g><rect x="182.74545454545455" y="83.145" width="2" height="16.855000000000004" id="tests-vaccines-4"></rect></g><g><rect x="179.1818181818182" y="65.29400000000001" width="2" height="34.70599999999999" id="tests-vaccines-5"></rect></g><g><rect x="175.61818181818182" y="42.147999999999996" width="2" height="57.852000000000004" id="tests-vaccines-6"></rect></g><g><rect x="172.05454545454546" y="34.830000000000005" width="2" height="65.16999999999999" id="tests-vaccines-7"></rect></g><g><rect x="168.49090909090907" y="29.817000000000004" width="2" height="70.18299999999999" id="tests-vaccines-8"></rect></g><g><rect x="164.92727272727274" y="29.744999999999997" width="2" height="70.255" id="tests-vaccines-9"></rect></g><g><rect x="161.36363636363637" y="29.500999999999998" width="2" height="70.499" id="tests-vaccines-10"></rect></g><g><rect x="157.8" y="91.434" width="2" height="8.566000000000003" id="tests-vaccines-11"></rect></g><g><rect x="154.23636363636365" y="62.792" width="2" height="37.208" id="tests-vaccines-12"></rect></g><g><rect x="150.6727272727273" y="20.301000000000002" width="2" height="79.699" id="tests-vaccines-13"></rect></g><g><rect x="147.1090909090909" y="26.841000000000005" width="2" height="73.15899999999999" id="tests-vaccines-14"></rect></g><g><rect x="143.54545454545453" y="24.261999999999993" width="2" height="75.738" id="tests-vaccines-15"></rect></g><g><rect x="139.9818181818182" y="21.018000000000004" width="2" height="78.982" id="tests-vaccines-16"></rect></g><g><rect x="136.41818181818184" y="23.970000000000002" width="2" height="76.03" id="tests-vaccines-17"></rect></g><g><rect x="132.85454545454544" y="75.52300000000001" width="2" height="24.47699999999999" id="tests-vaccines-18"></rect></g><g><rect x="129.29090909090908" y="55.566" width="2" height="44.434" id="tests-vaccines-19"></rect></g><g><rect x="125.72727272727273" y="14.268999999999998" width="2" height="85.731" id="tests-vaccines-20"></rect></g><g><rect x="122.16363636363636" y="25.692999999999998" width="2" height="74.307" id="tests-vaccines-21"></rect></g><g><rect x="118.6" y="25.607999999999997" width="2" height="74.392" id="tests-vaccines-22"></rect></g><g><rect x="115.03636363636363" y="24.729999999999997" width="2" height="75.27000000000001" id="tests-vaccines-23"></rect></g><g><rect x="111.47272727272728" y="24.212999999999994" width="2" height="75.787" id="tests-vaccines-24"></rect></g><g><rect x="107.90909090909089" y="74.073" width="2" height="25.927000000000007" id="tests-vaccines-25"></rect></g><g><rect x="104.34545454545456" y="53.848000000000006" width="2" height="46.151999999999994" id="tests-vaccines-26"></rect></g><g><rect x="100.78181818181817" y="9.119" width="2" height="90.881" id="tests-vaccines-27"></rect></g><g><rect x="97.21818181818183" y="27.037999999999997" width="2" height="72.962" id="tests-vaccines-28"></rect></g><g><rect x="93.65454545454546" y="39.122" width="2" height="60.878" id="tests-vaccines-29"></rect></g><g><rect x="90.09090909090911" y="68.29700000000001" width="2" height="31.70299999999999" id="tests-vaccines-30"></rect></g><g><rect x="86.52727272727273" y="74.105" width="2" height="25.894999999999996" id="tests-vaccines-31"></rect></g><g><rect x="82.96363636363637" y="89.90599999999999" width="2" height="10.094000000000008" id="tests-vaccines-32"></rect></g><g><rect x="79.4" y="80.608" width="2" height="19.391999999999996" id="tests-vaccines-33"></rect></g><g><rect x="75.83636363636364" y="63.016000000000005" width="2" height="36.983999999999995" id="tests-vaccines-34"></rect></g><g><rect x="72.27272727272727" y="71.118" width="2" height="28.882000000000005" id="tests-vaccines-35"></rect></g><g><rect x="68.70909090909092" y="70.071" width="2" height="29.929000000000002" id="tests-vaccines-36"></rect></g><g><rect x="65.14545454545454" y="70.951" width="2" height="29.049000000000007" id="tests-vaccines-37"></rect></g><g><rect x="61.58181818181818" y="68.554" width="2" height="31.445999999999998" id="tests-vaccines-38"></rect></g><g><rect x="58.018181818181816" y="88.437" width="2" height="11.563000000000002" id="tests-vaccines-39"></rect></g><g><rect x="54.454545454545446" y="75.979" width="2" height="24.021" id="tests-vaccines-40"></rect></g><g><rect x="50.89090909090908" y="56.742000000000004" width="2" height="43.257999999999996" id="tests-vaccines-41"></rect></g><g><rect x="47.32727272727273" y="68.896" width="2" height="31.104" id="tests-vaccines-42"></rect></g><g><rect x="43.76363636363636" y="67.863" width="2" height="32.137" id="tests-vaccines-43"></rect></g><g><rect x="40.199999999999996" y="68.048" width="2" height="31.951999999999998" id="tests-vaccines-44"></rect></g><g><rect x="36.636363636363626" y="68.853" width="2" height="31.147000000000006" id="tests-vaccines-45"></rect></g><g><rect x="33.072727272727285" y="87.801" width="2" height="12.198999999999998" id="tests-vaccines-46"></rect></g><g><rect x="29.509090909090922" y="74.241" width="2" height="25.759" id="tests-vaccines-47"></rect></g><g><rect x="25.945454545454556" y="56.003" width="2" height="43.997" id="tests-vaccines-48"></rect></g><g><rect x="22.38181818181819" y="65.391" width="2" height="34.608999999999995" id="tests-vaccines-49"></rect></g><g><rect x="18.818181818181824" y="63.673" width="2" height="36.327" id="tests-vaccines-50"></rect></g><g><rect x="15.254545454545461" y="65.677" width="2" height="34.32299999999999" id="tests-vaccines-51"></rect></g><g><rect x="11.690909090909095" y="64.643" width="2" height="35.357" id="tests-vaccines-52"></rect></g><g><rect x="8.12727272727273" y="86.295" width="2" height="13.704999999999998" id="tests-vaccines-53"></rect></g><g><rect x="4.563636363636365" y="70.143" width="2" height="29.857" id="tests-vaccines-54"></rect></g><g><rect x="1" y="43.875" width="2" height="56.125" id="tests-vaccines-55"></rect></g></g><g class="fg-line tests-vaccines" fill="none" stroke="#92c5de" stroke-width="2" stroke-linecap="round"><path d="M198,49.393857142857144L194.43636363636364,49.35314285714285L190.87272727272727,48.00814285714286L187.30909090909088,46.537285714285716L183.74545454545455,44.92571428571428L180.1818181818182,46.109857142857145L176.61818181818182,45.752428571428574L173.05454545454546,42.63142857142858L169.49090909090907,41.49014285714286L165.92727272727274,40.696571428571424L162.36363636363637,39.44985714285715L158.8,38.65971428571429L155.23636363636365,36.386714285714284L151.6727272727273,35.35442857142858L148.1090909090909,34.492714285714285L144.54545454545453,34.32871428571429L140.9818181818182,34.521L137.41818181818184,35.05128571428572L133.85454545454544,35.086L130.29090909090908,34.87885714285714L126.72727272727273,34.63342857142857L123.16363636363636,33.89771428571429L119.6,34.08985714285715L116.03636363636363,36.020428571428575L112.47272727272728,42.24428571428571L108.90909090909089,49.37171428571428L105.34545454545456,51.633571428571436L101.78181818181817,55.456428571428575L98.21818181818183,63.156L94.65454545454546,69.45314285714286L91.09090909090911,73.87442857142858L87.52727272727273,74.25357142857143L83.96363636363637,73.46057142857143L80.4,73.25071428571428L76.83636363636364,72.58942857142857L73.27272727272727,71.69314285714286L69.70909090909092,71.37571428571428L66.14545454545454,71.06028571428571L62.58181818181818,70.64557142857143L59.018181818181816,70.68828571428571L55.454545454545446,70.59742857142857L51.89090909090908,70.34914285714287L48.32727272727273,70.24357142857143L44.76363636363636,69.74285714285713L41.199999999999996,69.14428571428572L37.636363636363626,68.80557142857143L34.072727272727285,68.20414285714286L30.509090909090922,67.989L26.945454545454556,67.40357142857142L23.38181818181819,65.671L19.818181818181824,64.67457142857143L16.25454545454546,63.467000000000006L12.690909090909095,61.17600000000001L9.12727272727273,57.700571428571436L5.563636363636365,56.74985714285714L2,55.21771428571428"></path></g></svg>