<svg meta="{&quot;DATA_PUBLISHED_DATE&quot;:&quot;2022-05-10&quot;,&quot;RENDER_DATE&quot;:&quot;2022-05-10&quot;,&quot;FIRST_DATE&quot;:&quot;2022-03-07&quot;,&quot;LAST_DATE&quot;:&quot;2022-05-01&quot;}" xmlns="http://www.w3.org/2000/svg" viewBox="0,0,200,100"><g transform="translate(0,0)"></g><g class="fg-bars cases-ep" fill="#00183f" stroke="none"><g><rect x="197" y="46.075" width="2" height="53.925" id="cases-ep-0"></rect></g><g><rect x="193.43636363636364" y="45.3" width="2" height="54.7" id="cases-ep-1"></rect></g><g><rect x="189.87272727272727" y="22.4125" width="2" height="77.5875" id="cases-ep-2"></rect></g><g><rect x="186.30909090909088" y="16.512499999999996" width="2" height="83.48750000000001" id="cases-ep-3"></rect></g><g><rect x="182.74545454545455" y="11.0375" width="2" height="88.9625" id="cases-ep-4"></rect></g><g><rect x="179.1818181818182" y="9.837499999999999" width="2" height="90.1625" id="cases-ep-5"></rect></g><g><rect x="175.61818181818182" y="5.0625000000000036" width="2" height="94.9375" id="cases-ep-6"></rect></g><g><rect x="172.05454545454546" y="56.474999999999994" width="2" height="43.525000000000006" id="cases-ep-7"></rect></g><g><rect x="168.49090909090907" y="56.05" width="2" height="43.95" id="cases-ep-8"></rect></g><g><rect x="164.92727272727274" y="36.8625" width="2" height="63.1375" id="cases-ep-9"></rect></g><g><rect x="161.36363636363637" y="32.65" width="2" height="67.35" id="cases-ep-10"></rect></g><g><rect x="157.8" y="30.600000000000005" width="2" height="69.39999999999999" id="cases-ep-11"></rect></g><g><rect x="154.23636363636365" y="27.8625" width="2" height="72.1375" id="cases-ep-12"></rect></g><g><rect x="150.6727272727273" y="22.712500000000002" width="2" height="77.2875" id="cases-ep-13"></rect></g><g><rect x="147.1090909090909" y="71.30000000000001" width="2" height="28.69999999999999" id="cases-ep-14"></rect></g><g><rect x="143.54545454545453" y="67.0125" width="2" height="32.9875" id="cases-ep-15"></rect></g><g><rect x="139.9818181818182" y="55.137499999999996" width="2" height="44.862500000000004" id="cases-ep-16"></rect></g><g><rect x="136.41818181818184" y="53.89999999999999" width="2" height="46.10000000000001" id="cases-ep-17"></rect></g><g><rect x="132.85454545454544" y="50.57499999999999" width="2" height="49.42500000000001" id="cases-ep-18"></rect></g><g><rect x="129.29090909090908" y="49.3125" width="2" height="50.6875" id="cases-ep-19"></rect></g><g><rect x="125.72727272727273" y="45.25" width="2" height="54.75" id="cases-ep-20"></rect></g><g><rect x="122.16363636363636" y="72.64999999999999" width="2" height="27.35000000000001" id="cases-ep-21"></rect></g><g><rect x="118.6" y="74.4375" width="2" height="25.5625" id="cases-ep-22"></rect></g><g><rect x="115.03636363636363" y="63.48750000000001" width="2" height="36.51249999999999" id="cases-ep-23"></rect></g><g><rect x="111.47272727272728" y="61.824999999999996" width="2" height="38.175000000000004" id="cases-ep-24"></rect></g><g><rect x="107.90909090909089" y="57.7375" width="2" height="42.2625" id="cases-ep-25"></rect></g><g><rect x="104.34545454545456" y="58.425" width="2" height="41.575" id="cases-ep-26"></rect></g><g><rect x="100.78181818181817" y="52.900000000000006" width="2" height="47.099999999999994" id="cases-ep-27"></rect></g><g><rect x="97.21818181818183" y="78.425" width="2" height="21.575000000000003" id="cases-ep-28"></rect></g><g><rect x="93.65454545454546" y="78.6125" width="2" height="21.387500000000003" id="cases-ep-29"></rect></g><g><rect x="90.09090909090911" y="67.1375" width="2" height="32.8625" id="cases-ep-30"></rect></g><g><rect x="86.52727272727273" y="69.65" width="2" height="30.349999999999994" id="cases-ep-31"></rect></g><g><rect x="82.96363636363637" y="66.9375" width="2" height="33.0625" id="cases-ep-32"></rect></g><g><rect x="79.4" y="65.7625" width="2" height="34.2375" id="cases-ep-33"></rect></g><g><rect x="75.83636363636364" y="64.0625" width="2" height="35.9375" id="cases-ep-34"></rect></g><g><rect x="72.27272727272727" y="80.575" width="2" height="19.424999999999997" id="cases-ep-35"></rect></g><g><rect x="68.70909090909092" y="81.7375" width="2" height="18.262500000000003" id="cases-ep-36"></rect></g><g><rect x="65.14545454545454" y="74.88749999999999" width="2" height="25.11250000000001" id="cases-ep-37"></rect></g><g><rect x="61.58181818181818" y="71.42500000000001" width="2" height="28.57499999999999" id="cases-ep-38"></rect></g><g><rect x="58.018181818181816" y="71.88749999999999" width="2" height="28.11250000000001" id="cases-ep-39"></rect></g><g><rect x="54.454545454545446" y="62.075" width="2" height="37.925" id="cases-ep-40"></rect></g><g><rect x="50.89090909090908" y="65.9375" width="2" height="34.0625" id="cases-ep-41"></rect></g><g><rect x="47.32727272727273" y="83.7125" width="2" height="16.287499999999994" id="cases-ep-42"></rect></g><g><rect x="43.76363636363636" y="84.475" width="2" height="15.525000000000006" id="cases-ep-43"></rect></g><g><rect x="40.199999999999996" y="75.1625" width="2" height="24.837500000000006" id="cases-ep-44"></rect></g><g><rect x="36.636363636363626" y="71.25" width="2" height="28.75" id="cases-ep-45"></rect></g><g><rect x="33.072727272727285" y="69.3375" width="2" height="30.662499999999994" id="cases-ep-46"></rect></g><g><rect x="29.509090909090922" y="67.21249999999999" width="2" height="32.78750000000001" id="cases-ep-47"></rect></g><g><rect x="25.945454545454556" y="63.824999999999996" width="2" height="36.175000000000004" id="cases-ep-48"></rect></g><g><rect x="22.38181818181819" y="84.16250000000001" width="2" height="15.837499999999991" id="cases-ep-49"></rect></g><g><rect x="18.818181818181824" y="81.525" width="2" height="18.474999999999994" id="cases-ep-50"></rect></g><g><rect x="15.254545454545461" y="71.35000000000001" width="2" height="28.64999999999999" id="cases-ep-51"></rect></g><g><rect x="11.690909090909095" y="68.3875" width="2" height="31.612499999999997" id="cases-ep-52"></rect></g><g><rect x="8.12727272727273" y="62.5375" width="2" height="37.4625" id="cases-ep-53"></rect></g><g><rect x="4.563636363636365" y="58.8125" width="2" height="41.1875" id="cases-ep-54"></rect></g><g><rect x="1" y="51.6625" width="2" height="48.3375" id="cases-ep-55"></rect></g></g><g class="fg-line cases-ep" fill="none" stroke="#92c5de" stroke-width="2" stroke-linecap="round"><path d="M198,22.319642857142853L194.43636363636364,23.80535714285714L190.87272727272727,25.34107142857144L187.30909090909088,27.405357142857145L183.74545454545455,29.71071428571429L180.1818181818182,32.50535714285715L176.61818181818182,35.080357142857146L173.05454545454546,37.601785714285704L169.49090909090907,39.71964285714286L165.92727272727274,41.28571428571429L162.36363636363637,43.89642857142857L158.8,46.93214285714286L155.23636363636365,49.78571428571429L151.6727272727273,52.849999999999994L148.1090909090909,56.06964285714285L144.54545454545453,56.262499999999996L140.9818181818182,57.323214285714286L137.41818181818184,58.51607142857142L133.85454545454544,59.64821428571428L130.29090909090908,60.67142857142858L126.72727272727273,61.973214285714285L123.16363636363636,63.06607142857143L119.6,63.89107142857142L116.03636363636363,64.4875L112.47272727272728,65.00892857142857L108.90909090909089,66.12678571428572L105.34545454545456,67.44107142857143L101.78181818181817,68.48928571428571L98.21818181818183,70.08392857142857L94.65454545454546,70.39107142857142L91.09090909090911,70.83749999999999L87.52727272727273,71.94464285714287L83.96363636363637,72.19821428571429L80.4,72.90535714285716L76.83636363636364,72.37857142857142L73.27272727272727,72.64642857142857L69.70909090909092,73.09464285714286L66.14545454545454,73.4857142857143L62.58181818181818,73.52499999999999L59.018181818181816,73.5L55.454545454545446,73.13571428571429L51.89090909090908,73.86964285714286L48.32727272727273,73.56785714285714L44.76363636363636,73.63214285714285L41.199999999999996,73.21071428571429L37.636363636363626,72.66607142857143L34.072727272727285,72.25714285714285L30.509090909090922,71.28571428571429L26.945454545454556,70.08571428571429L23.38181818181819,68.34821428571428L19.818181818181824,67.40714285714286L16.25454545454546,66.38571428571429L12.690909090909095,64.94285714285715L9.12727272727273,63.09642857142856L5.563636363636365,61.39107142857143L2,58.96785714285715"></path></g></svg>