<svg meta="{&quot;DATA_PUBLISHED_DATE&quot;:&quot;2022-11-03&quot;,&quot;RENDER_DATE&quot;:&quot;2022-11-03&quot;,&quot;FIRST_DATE&quot;:&quot;2022-08-31&quot;,&quot;LAST_DATE&quot;:&quot;2022-10-25&quot;}" xmlns="http://www.w3.org/2000/svg" viewBox="0,0,200,100"><g transform="translate(0,0)"></g><g class="fg-bars cases-ep" fill="#00183f" stroke="none"><g><rect x="197" y="62.724999999999994" width="2" height="37.275000000000006" id="cases-ep-0"></rect></g><g><rect x="193.43636363636364" y="59.599999999999994" width="2" height="40.400000000000006" id="cases-ep-1"></rect></g><g><rect x="189.87272727272727" y="80.5375" width="2" height="19.462500000000006" id="cases-ep-2"></rect></g><g><rect x="186.30909090909088" y="79.23750000000001" width="2" height="20.76249999999999" id="cases-ep-3"></rect></g><g><rect x="182.74545454545455" y="70.32499999999999" width="2" height="29.67500000000001" id="cases-ep-4"></rect></g><g><rect x="179.1818181818182" y="66.7" width="2" height="33.3" id="cases-ep-5"></rect></g><g><rect x="175.61818181818182" y="65.625" width="2" height="34.375" id="cases-ep-6"></rect></g><g><rect x="172.05454545454546" y="62.425" width="2" height="37.575" id="cases-ep-7"></rect></g><g><rect x="168.49090909090907" y="57.975" width="2" height="42.025" id="cases-ep-8"></rect></g><g><rect x="164.92727272727274" y="79.2875" width="2" height="20.712500000000006" id="cases-ep-9"></rect></g><g><rect x="161.36363636363637" y="77.21249999999999" width="2" height="22.78750000000001" id="cases-ep-10"></rect></g><g><rect x="157.8" y="68.7875" width="2" height="31.212500000000006" id="cases-ep-11"></rect></g><g><rect x="154.23636363636365" y="66.83749999999999" width="2" height="33.16250000000001" id="cases-ep-12"></rect></g><g><rect x="150.6727272727273" y="63.837500000000006" width="2" height="36.162499999999994" id="cases-ep-13"></rect></g><g><rect x="147.1090909090909" y="61.375" width="2" height="38.625" id="cases-ep-14"></rect></g><g><rect x="143.54545454545453" y="57.7875" width="2" height="42.2125" id="cases-ep-15"></rect></g><g><rect x="139.9818181818182" y="77.05" width="2" height="22.950000000000003" id="cases-ep-16"></rect></g><g><rect x="136.41818181818184" y="74.47500000000001" width="2" height="25.52499999999999" id="cases-ep-17"></rect></g><g><rect x="132.85454545454544" y="65.825" width="2" height="34.175" id="cases-ep-18"></rect></g><g><rect x="129.29090909090908" y="64.625" width="2" height="35.375" id="cases-ep-19"></rect></g><g><rect x="125.72727272727273" y="61.3" width="2" height="38.7" id="cases-ep-20"></rect></g><g><rect x="122.16363636363636" y="56.7125" width="2" height="43.2875" id="cases-ep-21"></rect></g><g><rect x="118.6" y="50.5125" width="2" height="49.4875" id="cases-ep-22"></rect></g><g><rect x="115.03636363636363" y="74.5375" width="2" height="25.462500000000006" id="cases-ep-23"></rect></g><g><rect x="111.47272727272728" y="69.825" width="2" height="30.174999999999997" id="cases-ep-24"></rect></g><g><rect x="107.90909090909089" y="60.3" width="2" height="39.7" id="cases-ep-25"></rect></g><g><rect x="104.34545454545456" y="57.7125" width="2" height="42.2875" id="cases-ep-26"></rect></g><g><rect x="100.78181818181817" y="51.81249999999999" width="2" height="48.18750000000001" id="cases-ep-27"></rect></g><g><rect x="97.21818181818183" y="50.31250000000001" width="2" height="49.68749999999999" id="cases-ep-28"></rect></g><g><rect x="93.65454545454546" y="41.949999999999996" width="2" height="58.050000000000004" id="cases-ep-29"></rect></g><g><rect x="90.09090909090911" y="70.3625" width="2" height="29.637500000000003" id="cases-ep-30"></rect></g><g><rect x="86.52727272727273" y="67.8875" width="2" height="32.1125" id="cases-ep-31"></rect></g><g><rect x="82.96363636363637" y="56.7125" width="2" height="43.2875" id="cases-ep-32"></rect></g><g><rect x="79.4" y="54.0625" width="2" height="45.9375" id="cases-ep-33"></rect></g><g><rect x="75.83636363636364" y="51.9" width="2" height="48.1" id="cases-ep-34"></rect></g><g><rect x="72.27272727272727" y="46.587500000000006" width="2" height="53.412499999999994" id="cases-ep-35"></rect></g><g><rect x="68.70909090909092" y="39.97500000000001" width="2" height="60.02499999999999" id="cases-ep-36"></rect></g><g><rect x="65.14545454545454" y="68.7875" width="2" height="31.212500000000006" id="cases-ep-37"></rect></g><g><rect x="61.58181818181818" y="65.3875" width="2" height="34.6125" id="cases-ep-38"></rect></g><g><rect x="58.018181818181816" y="52.525" width="2" height="47.475" id="cases-ep-39"></rect></g><g><rect x="54.454545454545446" y="49.6375" width="2" height="50.3625" id="cases-ep-40"></rect></g><g><rect x="50.89090909090908" y="44.825" width="2" height="55.175" id="cases-ep-41"></rect></g><g><rect x="47.32727272727273" y="37.9125" width="2" height="62.0875" id="cases-ep-42"></rect></g><g><rect x="43.76363636363636" y="28.95" width="2" height="71.05" id="cases-ep-43"></rect></g><g><rect x="40.199999999999996" y="62" width="2" height="38" id="cases-ep-44"></rect></g><g><rect x="36.636363636363626" y="59.275" width="2" height="40.725" id="cases-ep-45"></rect></g><g><rect x="33.072727272727285" y="39.81249999999999" width="2" height="60.18750000000001" id="cases-ep-46"></rect></g><g><rect x="29.509090909090922" y="34" width="2" height="66" id="cases-ep-47"></rect></g><g><rect x="25.945454545454556" y="25.575000000000003" width="2" height="74.425" id="cases-ep-48"></rect></g><g><rect x="22.38181818181819" y="2.6000000000000023" width="2" height="97.39999999999999" id="cases-ep-49"></rect></g><g><rect x="18.818181818181824" y="58.58749999999999" width="2" height="41.41250000000001" id="cases-ep-50"></rect></g><g><rect x="15.254545454545461" y="60.5125" width="2" height="39.4875" id="cases-ep-51"></rect></g><g><rect x="11.690909090909095" y="55.8125" width="2" height="44.1875" id="cases-ep-52"></rect></g><g><rect x="8.12727272727273" y="32.1125" width="2" height="67.8875" id="cases-ep-53"></rect></g><g><rect x="4.563636363636365" y="22.287500000000005" width="2" height="77.71249999999999" id="cases-ep-54"></rect></g><g><rect x="1" y="14.287499999999998" width="2" height="85.7125" id="cases-ep-55"></rect></g></g><g class="fg-line cases-ep" fill="none" stroke="#92c5de" stroke-width="2" stroke-linecap="round"><path d="M198,69.25L194.43636363636364,69.20714285714286L190.87272727272727,68.975L187.30909090909088,68.79642857142856L183.74545454545455,68.50714285714285L180.1818181818182,68.2875L176.61818181818182,68.30714285714285L173.05454545454546,68.05178571428571L169.49090909090907,67.90178571428571L165.92727272727274,67.875L162.36363636363637,67.55535714285715L158.8,67.16428571428573L155.23636363636365,66.74107142857143L151.6727272727273,66.425L148.1090909090909,66.0625L144.54545454545453,65.39642857142857L140.9818181818182,64.35714285714286L137.41818181818184,63.99821428571428L133.85454545454544,63.333928571428565L130.29090909090908,62.544642857142854L126.72727272727273,61.55714285714286L123.16363636363636,60.20178571428572L119.6,59.2875L116.03636363636363,58.064285714285724L112.47272727272728,57.467857142857135L108.90909090909089,57.191071428571426L105.34545454545456,56.67857142857142L101.78181818181817,56.15714285714286L98.21818181818183,56.169642857142854L94.65454545454546,55.6375L91.09090909090911,55.355357142857144L87.52727272727273,55.13035714285714L83.96363636363637,54.77321428571429L80.4,54.175L76.83636363636364,53.54285714285714L73.27272727272727,52.53214285714285L69.70909090909092,51.29285714285714L66.14545454545454,49.71785714285715L62.58181818181818,48.74821428571428L59.018181818181816,47.875L55.454545454545446,46.05892857142857L51.89090909090908,43.825L48.32727272727273,41.074999999999996L44.76363636363636,36.03035714285714L41.199999999999996,40.264285714285705L37.636363636363626,40.051785714285714L34.072727272727285,39.55714285714286L30.509090909090922,38.457142857142856L26.945454545454556,36.78392857142857L23.38181818181819,35.171428571428564L19.818181818181824,35.41607142857144L16.25454545454546,25.305357142857144L12.690909090909095,22.98392857142857L9.12727272727273,20.764285714285712L5.563636363636365,17.437499999999993L2,14.97857142857143"></path></g></svg>