<svg meta="{&quot;DATA_PUBLISHED_DATE&quot;:&quot;2022-02-24&quot;,&quot;RENDER_DATE&quot;:&quot;2022-02-24&quot;,&quot;FIRST_DATE&quot;:&quot;2021-12-22&quot;,&quot;LAST_DATE&quot;:&quot;2022-02-15&quot;}" xmlns="http://www.w3.org/2000/svg" viewBox="0,0,200,100"><g transform="translate(0,0)"></g><g class="fg-bars cases-ep" fill="#00183f" stroke="none"><g><rect x="197" y="93.340625" width="2" height="6.659374999999997" id="cases-ep-0"></rect></g><g><rect x="193.43636363636364" y="92.11500000000001" width="2" height="7.884999999999991" id="cases-ep-1"></rect></g><g><rect x="189.87272727272727" y="96.8275" width="2" height="3.1724999999999994" id="cases-ep-2"></rect></g><g><rect x="186.30909090909088" y="95.70375" width="2" height="4.296250000000001" id="cases-ep-3"></rect></g><g><rect x="182.74545454545455" y="91.483125" width="2" height="8.516874999999999" id="cases-ep-4"></rect></g><g><rect x="179.1818181818182" y="91.301875" width="2" height="8.698125000000005" id="cases-ep-5"></rect></g><g><rect x="175.61818181818182" y="89.97500000000001" width="2" height="10.024999999999991" id="cases-ep-6"></rect></g><g><rect x="172.05454545454546" y="89.05125000000001" width="2" height="10.94874999999999" id="cases-ep-7"></rect></g><g><rect x="168.49090909090907" y="86.275625" width="2" height="13.724374999999995" id="cases-ep-8"></rect></g><g><rect x="164.92727272727274" y="94.3075" width="2" height="5.6924999999999955" id="cases-ep-9"></rect></g><g><rect x="161.36363636363637" y="92.925625" width="2" height="7.074375000000003" id="cases-ep-10"></rect></g><g><rect x="157.8" y="86.656875" width="2" height="13.343125" id="cases-ep-11"></rect></g><g><rect x="154.23636363636365" y="85.248125" width="2" height="14.751874999999998" id="cases-ep-12"></rect></g><g><rect x="150.6727272727273" y="83.089375" width="2" height="16.910624999999996" id="cases-ep-13"></rect></g><g><rect x="147.1090909090909" y="79.86375" width="2" height="20.136250000000004" id="cases-ep-14"></rect></g><g><rect x="143.54545454545453" y="75.934375" width="2" height="24.065624999999997" id="cases-ep-15"></rect></g><g><rect x="139.9818181818182" y="90.776875" width="2" height="9.223124999999996" id="cases-ep-16"></rect></g><g><rect x="136.41818181818184" y="87.26937500000001" width="2" height="12.73062499999999" id="cases-ep-17"></rect></g><g><rect x="132.85454545454544" y="75.86375" width="2" height="24.136250000000004" id="cases-ep-18"></rect></g><g><rect x="129.29090909090908" y="72.390625" width="2" height="27.609375" id="cases-ep-19"></rect></g><g><rect x="125.72727272727273" y="67.47125" width="2" height="32.52875" id="cases-ep-20"></rect></g><g><rect x="122.16363636363636" y="62.53999999999999" width="2" height="37.46000000000001" id="cases-ep-21"></rect></g><g><rect x="118.6" y="56.52375000000001" width="2" height="43.47624999999999" id="cases-ep-22"></rect></g><g><rect x="115.03636363636363" y="82.84125" width="2" height="17.158749999999998" id="cases-ep-23"></rect></g><g><rect x="111.47272727272728" y="75.51875" width="2" height="24.481250000000003" id="cases-ep-24"></rect></g><g><rect x="107.90909090909089" y="52.09375000000001" width="2" height="47.90624999999999" id="cases-ep-25"></rect></g><g><rect x="104.34545454545456" y="44.163125" width="2" height="55.836875" id="cases-ep-26"></rect></g><g><rect x="100.78181818181817" y="37.301249999999996" width="2" height="62.698750000000004" id="cases-ep-27"></rect></g><g><rect x="97.21818181818183" y="25.50125" width="2" height="74.49875" id="cases-ep-28"></rect></g><g><rect x="93.65454545454546" y="49.738749999999996" width="2" height="50.261250000000004" id="cases-ep-29"></rect></g><g><rect x="90.09090909090911" y="75.666875" width="2" height="24.333124999999995" id="cases-ep-30"></rect></g><g><rect x="86.52727272727273" y="64.195625" width="2" height="35.80437499999999" id="cases-ep-31"></rect></g><g><rect x="82.96363636363637" y="35.755625" width="2" height="64.24437499999999" id="cases-ep-32"></rect></g><g><rect x="79.4" y="29.55375" width="2" height="70.44624999999999" id="cases-ep-33"></rect></g><g><rect x="75.83636363636364" y="22.14125" width="2" height="77.85875" id="cases-ep-34"></rect></g><g><rect x="72.27272727272727" y="17.221249999999998" width="2" height="82.77875" id="cases-ep-35"></rect></g><g><rect x="68.70909090909092" y="13.806249999999999" width="2" height="86.19375" id="cases-ep-36"></rect></g><g><rect x="65.14545454545454" y="66.135" width="2" height="33.864999999999995" id="cases-ep-37"></rect></g><g><rect x="61.58181818181818" y="53.22" width="2" height="46.78" id="cases-ep-38"></rect></g><g><rect x="58.018181818181816" y="17.288124999999997" width="2" height="82.711875" id="cases-ep-39"></rect></g><g><rect x="54.454545454545446" y="12.366875" width="2" height="87.633125" id="cases-ep-40"></rect></g><g><rect x="50.89090909090908" y="5.053125000000003" width="2" height="94.94687499999999" id="cases-ep-41"></rect></g><g><rect x="47.32727272727273" y="3.992499999999999" width="2" height="96.00750000000001" id="cases-ep-42"></rect></g><g><rect x="43.76363636363636" y="15.013125000000006" width="2" height="84.986875" id="cases-ep-43"></rect></g><g><rect x="40.199999999999996" y="65.68499999999999" width="2" height="34.31500000000001" id="cases-ep-44"></rect></g><g><rect x="36.636363636363626" y="80.43312499999999" width="2" height="19.56687500000001" id="cases-ep-45"></rect></g><g><rect x="33.072727272727285" y="66.64812500000001" width="2" height="33.35187499999999" id="cases-ep-46"></rect></g><g><rect x="29.509090909090922" y="47.195625" width="2" height="52.804375" id="cases-ep-47"></rect></g><g><rect x="25.945454545454556" y="44.684374999999996" width="2" height="55.315625000000004" id="cases-ep-48"></rect></g><g><rect x="22.38181818181819" y="45.43000000000001" width="2" height="54.56999999999999" id="cases-ep-49"></rect></g><g><rect x="18.818181818181824" y="53.622499999999995" width="2" height="46.377500000000005" id="cases-ep-50"></rect></g><g><rect x="15.254545454545461" y="78.04375" width="2" height="21.956249999999997" id="cases-ep-51"></rect></g><g><rect x="11.690909090909095" y="91.0775" width="2" height="8.9225" id="cases-ep-52"></rect></g><g><rect x="8.12727272727273" y="86.429375" width="2" height="13.570625000000007" id="cases-ep-53"></rect></g><g><rect x="4.563636363636365" y="80.011875" width="2" height="19.988124999999997" id="cases-ep-54"></rect></g><g><rect x="1" y="80.33749999999999" width="2" height="19.66250000000001" id="cases-ep-55"></rect></g></g><g class="fg-line cases-ep" fill="none" stroke="#92c5de" stroke-width="2" stroke-linecap="round"><path d="M198,92.96383928571429L194.43636363636364,92.35107142857143L190.87272727272727,91.516875L187.30909090909088,91.156875L183.74545454545455,90.75999999999999L180.1818181818182,90.07053571428571L176.61818181818182,89.2057142857143L173.05454545454546,88.22205357142857L169.49090909090907,86.90955357142857L165.92727272727274,85.43223214285715L162.36363636363637,84.92785714285715L158.8,84.11982142857143L155.23636363636365,82.57794642857142L151.6727272727273,80.74116071428573L148.1090909090909,78.51L144.54545454545453,76.03517857142857L140.9818181818182,73.26223214285714L137.41818181818184,72.12857142857143L133.85454545454544,70.4499107142857L130.29090909090908,67.05419642857142L126.72727272727273,63.02169642857143L123.16363636363636,58.711696428571436L119.6,53.42044642857143L116.03636363636363,52.45116071428571L112.47272727272728,51.42625000000001L108.90909090909089,49.808660714285715L105.34545454545456,47.474642857142854L101.78181818181817,45.38758928571428L98.21818181818183,43.221875L94.65454545454546,42.03901785714286L91.09090909090911,36.905803571428564L87.52727272727273,35.54410714285715L83.96363636363637,33.97616071428572L80.4,31.337946428571428L76.83636363636364,28.882678571428567L73.27272727272727,26.44151785714285L69.70909090909092,24.551696428571436L66.14545454545454,24.724107142857143L62.58181818181818,24.659821428571426L59.018181818181816,28.547410714285714L55.454545454545446,35.59883928571429L51.89090909090908,40.574374999999996L48.32727272727273,46.23598214285715L44.76363636363636,52.15562499999999L41.199999999999996,57.67124999999999L37.636363636363626,59.43678571428572L34.072727272727285,60.95741071428571L30.509090909090922,63.783303571428576L26.945454545454556,68.47133928571428L23.38181818181819,73.56464285714286L19.818181818181824,78.95053571428572L16.25454545454546,83.528125L12.690909090909095,85.70723214285714L9.12727272727273,86.11875L5.563636363636365,87.06785714285714L2,89.01571428571428"></path></g></svg>