<svg about="DATA_PUBLISHED_DATE:2021-12-19,RENDER_DATE:2021-12-19" xmlns="http://www.w3.org/2000/svg" viewBox="0,0,200,100"><g transform="translate(0,0)"></g><g class="fg-bars cases-ep" fill="#00183f" stroke="none"><g><rect x="197" y="36.3" width="2" height="63.7" id="cases-ep-0"></rect></g><g><rect x="193.43636363636364" y="34.44444444444444" width="2" height="65.55555555555556" id="cases-ep-1"></rect></g><g><rect x="189.87272727272727" y="24.73333333333333" width="2" height="75.26666666666667" id="cases-ep-2"></rect></g><g><rect x="186.30909090909088" y="62" width="2" height="38" id="cases-ep-3"></rect></g><g><rect x="182.74545454545455" y="57.08888888888889" width="2" height="42.91111111111111" id="cases-ep-4"></rect></g><g><rect x="179.1818181818182" y="35.16666666666667" width="2" height="64.83333333333333" id="cases-ep-5"></rect></g><g><rect x="175.61818181818182" y="32.611111111111114" width="2" height="67.38888888888889" id="cases-ep-6"></rect></g><g><rect x="172.05454545454546" y="20.02222222222222" width="2" height="79.97777777777779" id="cases-ep-7"></rect></g><g><rect x="168.49090909090907" y="22.577777777777776" width="2" height="77.42222222222222" id="cases-ep-8"></rect></g><g><rect x="164.92727272727274" y="10.033333333333339" width="2" height="89.96666666666667" id="cases-ep-9"></rect></g><g><rect x="161.36363636363637" y="52.03333333333333" width="2" height="47.96666666666667" id="cases-ep-10"></rect></g><g><rect x="157.8" y="54.14444444444444" width="2" height="45.85555555555556" id="cases-ep-11"></rect></g><g><rect x="154.23636363636365" y="52.6" width="2" height="47.4" id="cases-ep-12"></rect></g><g><rect x="150.6727272727273" y="75.23333333333333" width="2" height="24.766666666666666" id="cases-ep-13"></rect></g><g><rect x="147.1090909090909" y="49.23333333333333" width="2" height="50.76666666666667" id="cases-ep-14"></rect></g><g><rect x="143.54545454545453" y="46.78888888888889" width="2" height="53.21111111111111" id="cases-ep-15"></rect></g><g><rect x="139.9818181818182" y="42.7" width="2" height="57.3" id="cases-ep-16"></rect></g><g><rect x="136.41818181818184" y="67.62222222222223" width="2" height="32.377777777777766" id="cases-ep-17"></rect></g><g><rect x="132.85454545454544" y="64.27777777777777" width="2" height="35.72222222222223" id="cases-ep-18"></rect></g><g><rect x="129.29090909090908" y="49.44444444444444" width="2" height="50.55555555555556" id="cases-ep-19"></rect></g><g><rect x="125.72727272727273" y="48.44444444444444" width="2" height="51.55555555555556" id="cases-ep-20"></rect></g><g><rect x="122.16363636363636" y="43.06666666666666" width="2" height="56.93333333333334" id="cases-ep-21"></rect></g><g><rect x="118.6" y="40.2" width="2" height="59.8" id="cases-ep-22"></rect></g><g><rect x="115.03636363636363" y="29.500000000000004" width="2" height="70.5" id="cases-ep-23"></rect></g><g><rect x="111.47272727272728" y="64.16666666666666" width="2" height="35.83333333333334" id="cases-ep-24"></rect></g><g><rect x="107.90909090909089" y="62.022222222222226" width="2" height="37.977777777777774" id="cases-ep-25"></rect></g><g><rect x="104.34545454545456" y="43.84444444444444" width="2" height="56.15555555555556" id="cases-ep-26"></rect></g><g><rect x="100.78181818181817" y="52.33333333333333" width="2" height="47.66666666666667" id="cases-ep-27"></rect></g><g><rect x="97.21818181818183" y="38.1" width="2" height="61.9" id="cases-ep-28"></rect></g><g><rect x="93.65454545454546" y="34.86666666666667" width="2" height="65.13333333333333" id="cases-ep-29"></rect></g><g><rect x="90.09090909090911" y="26.66666666666667" width="2" height="73.33333333333333" id="cases-ep-30"></rect></g><g><rect x="86.52727272727273" y="61.711111111111116" width="2" height="38.288888888888884" id="cases-ep-31"></rect></g><g><rect x="82.96363636363637" y="59.488888888888894" width="2" height="40.511111111111106" id="cases-ep-32"></rect></g><g><rect x="79.4" y="38.83333333333333" width="2" height="61.16666666666667" id="cases-ep-33"></rect></g><g><rect x="75.83636363636364" y="33.5" width="2" height="66.5" id="cases-ep-34"></rect></g><g><rect x="72.27272727272727" y="29.200000000000003" width="2" height="70.8" id="cases-ep-35"></rect></g><g><rect x="68.70909090909092" y="28.355555555555554" width="2" height="71.64444444444445" id="cases-ep-36"></rect></g><g><rect x="65.14545454545454" y="18.444444444444443" width="2" height="81.55555555555556" id="cases-ep-37"></rect></g><g><rect x="61.58181818181818" y="61.43333333333334" width="2" height="38.56666666666666" id="cases-ep-38"></rect></g><g><rect x="58.018181818181816" y="56.47777777777778" width="2" height="43.52222222222222" id="cases-ep-39"></rect></g><g><rect x="54.454545454545446" y="37.66666666666667" width="2" height="62.33333333333333" id="cases-ep-40"></rect></g><g><rect x="50.89090909090908" y="32.9" width="2" height="67.1" id="cases-ep-41"></rect></g><g><rect x="47.32727272727273" y="27.81111111111111" width="2" height="72.1888888888889" id="cases-ep-42"></rect></g><g><rect x="43.76363636363636" y="25.122222222222224" width="2" height="74.87777777777778" id="cases-ep-43"></rect></g><g><rect x="40.199999999999996" y="20.222222222222218" width="2" height="79.77777777777779" id="cases-ep-44"></rect></g><g><rect x="36.636363636363626" y="60.555555555555564" width="2" height="39.444444444444436" id="cases-ep-45"></rect></g><g><rect x="33.072727272727285" y="55.25555555555556" width="2" height="44.74444444444444" id="cases-ep-46"></rect></g><g><rect x="29.509090909090922" y="33.988888888888894" width="2" height="66.0111111111111" id="cases-ep-47"></rect></g><g><rect x="25.945454545454556" y="34.73333333333334" width="2" height="65.26666666666665" id="cases-ep-48"></rect></g><g><rect x="22.38181818181819" y="31.08888888888889" width="2" height="68.91111111111111" id="cases-ep-49"></rect></g><g><rect x="18.818181818181824" y="29.566666666666663" width="2" height="70.43333333333334" id="cases-ep-50"></rect></g><g><rect x="15.254545454545461" y="22.12222222222222" width="2" height="77.87777777777778" id="cases-ep-51"></rect></g><g><rect x="11.690909090909095" y="60.555555555555564" width="2" height="39.444444444444436" id="cases-ep-52"></rect></g><g><rect x="8.12727272727273" y="59.8" width="2" height="40.2" id="cases-ep-53"></rect></g><g><rect x="4.563636363636365" y="41.7" width="2" height="58.3" id="cases-ep-54"></rect></g><g><rect x="1" y="41.65555555555556" width="2" height="58.34444444444444" id="cases-ep-55"></rect></g></g><g class="fg-line cases-ep" fill="none" stroke="#92c5de" stroke-width="2" stroke-linecap="round"><path d="M198,40.334920634920636L194.43636363636364,38.00952380952381L190.87272727272727,36.314285714285724L187.30909090909088,34.21428571428572L183.74545454545455,32.79047619047619L180.1818181818182,32.369841269841274L176.61818181818182,34.86031746031746L173.05454545454546,40.94920634920635L169.49090909090907,45.12222222222222L165.92727272727274,48.58095238095238L162.36363636363637,53.247619047619054L158.8,55.474603174603175L155.23636363636365,56.92222222222223L151.6727272727273,56.471428571428575L148.1090909090909,52.644444444444446L144.54545454545453,51.763492063492066L140.9818181818182,50.82222222222222L137.41818181818184,48.936507936507944L133.85454545454544,48.44285714285714L130.29090909090908,48.12063492063492L126.72727272727273,47.320634920634916L123.16363636363636,47.87619047619048L119.6,47.16666666666667L116.03636363636363,46.404761904761905L112.47272727272728,46L108.90909090909089,45.64920634920635L105.34545454545456,45.287301587301585L101.78181818181817,44.57142857142857L98.21818181818183,41.88095238095239L94.65454545454546,40.609523809523814L91.09090909090911,39.679365079365084L87.52727272727273,38.50476190476191L83.96363636363637,38.46507936507937L80.4,38.03492063492063L76.83636363636364,37.86825396825396L73.27272727272727,37.782539682539685L69.70909090909092,37.58412698412699L66.14545454545454,37.12222222222222L62.58181818181818,37.37619047619047L59.018181818181816,37.250793650793646L55.454545454545446,37.076190476190476L51.89090909090908,36.55079365079364L48.32727272727273,36.81269841269841L44.76363636363636,37.28095238095238L41.199999999999996,37.91587301587301L37.636363636363626,38.18730158730159L34.072727272727285,38.18730158730159L30.509090909090922,38.836507936507935L26.945454545454556,39.93809523809524L23.38181818181819,40.92698412698413L19.818181818181824,41.90476190476191L16.25454545454546,42.79206349206349L12.690909090909095,44.75873015873017L9.12727272727273,45.19523809523809L5.563636363636365,45.406349206349205L2,45.56825396825397"></path></g></svg>