<svg meta="{&quot;DATA_PUBLISHED_DATE&quot;:&quot;2022-04-05&quot;,&quot;RENDER_DATE&quot;:&quot;2022-04-05&quot;,&quot;FIRST_DATE&quot;:&quot;2022-01-31&quot;,&quot;LAST_DATE&quot;:&quot;2022-03-27&quot;}" xmlns="http://www.w3.org/2000/svg" viewBox="0,0,200,100"><g transform="translate(0,0)"></g><g class="fg-bars cases-ep" fill="#00183f" stroke="none"><g><rect x="197" y="96.78" width="2" height="3.219999999999999" id="cases-ep-0"></rect></g><g><rect x="193.43636363636364" y="96.8" width="2" height="3.200000000000003" id="cases-ep-1"></rect></g><g><rect x="189.87272727272727" y="95.3325" width="2" height="4.667500000000004" id="cases-ep-2"></rect></g><g><rect x="186.30909090909088" y="94.5075" width="2" height="5.492500000000007" id="cases-ep-3"></rect></g><g><rect x="182.74545454545455" y="94.61" width="2" height="5.390000000000001" id="cases-ep-4"></rect></g><g><rect x="179.1818181818182" y="92.205" width="2" height="7.795000000000002" id="cases-ep-5"></rect></g><g><rect x="175.61818181818182" y="93.405" width="2" height="6.594999999999999" id="cases-ep-6"></rect></g><g><rect x="172.05454545454546" y="96.89999999999999" width="2" height="3.1000000000000085" id="cases-ep-7"></rect></g><g><rect x="168.49090909090907" y="96.94500000000001" width="2" height="3.0549999999999926" id="cases-ep-8"></rect></g><g><rect x="164.92727272727274" y="95.1" width="2" height="4.900000000000006" id="cases-ep-9"></rect></g><g><rect x="161.36363636363637" y="94.3725" width="2" height="5.627499999999998" id="cases-ep-10"></rect></g><g><rect x="157.8" y="94.0375" width="2" height="5.962500000000006" id="cases-ep-11"></rect></g><g><rect x="154.23636363636365" y="93.66250000000001" width="2" height="6.3374999999999915" id="cases-ep-12"></rect></g><g><rect x="150.6727272727273" y="92.9025" width="2" height="7.097499999999997" id="cases-ep-13"></rect></g><g><rect x="147.1090909090909" y="96.875" width="2" height="3.125" id="cases-ep-14"></rect></g><g><rect x="143.54545454545453" y="96.32000000000001" width="2" height="3.6799999999999926" id="cases-ep-15"></rect></g><g><rect x="139.9818181818182" y="94.3175" width="2" height="5.6825000000000045" id="cases-ep-16"></rect></g><g><rect x="136.41818181818184" y="93.7075" width="2" height="6.292500000000004" id="cases-ep-17"></rect></g><g><rect x="132.85454545454544" y="92.56" width="2" height="7.439999999999998" id="cases-ep-18"></rect></g><g><rect x="129.29090909090908" y="91.85" width="2" height="8.150000000000006" id="cases-ep-19"></rect></g><g><rect x="125.72727272727273" y="90.505" width="2" height="9.495000000000005" id="cases-ep-20"></rect></g><g><rect x="122.16363636363636" y="95.56" width="2" height="4.439999999999998" id="cases-ep-21"></rect></g><g><rect x="118.6" y="94.88499999999999" width="2" height="5.115000000000009" id="cases-ep-22"></rect></g><g><rect x="115.03636363636363" y="92.2375" width="2" height="7.762500000000003" id="cases-ep-23"></rect></g><g><rect x="111.47272727272728" y="91.035" width="2" height="8.965000000000003" id="cases-ep-24"></rect></g><g><rect x="107.90909090909089" y="90.0675" width="2" height="9.932500000000005" id="cases-ep-25"></rect></g><g><rect x="104.34545454545456" y="88.36749999999999" width="2" height="11.632500000000007" id="cases-ep-26"></rect></g><g><rect x="100.78181818181817" y="86.9425" width="2" height="13.057500000000005" id="cases-ep-27"></rect></g><g><rect x="97.21818181818183" y="94.0775" width="2" height="5.922499999999999" id="cases-ep-28"></rect></g><g><rect x="93.65454545454546" y="93.2925" width="2" height="6.707499999999996" id="cases-ep-29"></rect></g><g><rect x="90.09090909090911" y="88.07000000000001" width="2" height="11.929999999999993" id="cases-ep-30"></rect></g><g><rect x="86.52727272727273" y="87.1725" width="2" height="12.8275" id="cases-ep-31"></rect></g><g><rect x="82.96363636363637" y="86.0425" width="2" height="13.957499999999996" id="cases-ep-32"></rect></g><g><rect x="79.4" y="82.17750000000001" width="2" height="17.82249999999999" id="cases-ep-33"></rect></g><g><rect x="75.83636363636364" y="86.675" width="2" height="13.325000000000003" id="cases-ep-34"></rect></g><g><rect x="72.27272727272727" y="91.0175" width="2" height="8.982500000000002" id="cases-ep-35"></rect></g><g><rect x="68.70909090909092" y="89.55" width="2" height="10.450000000000003" id="cases-ep-36"></rect></g><g><rect x="65.14545454545454" y="82.41499999999999" width="2" height="17.585000000000008" id="cases-ep-37"></rect></g><g><rect x="61.58181818181818" y="79.815" width="2" height="20.185000000000002" id="cases-ep-38"></rect></g><g><rect x="58.018181818181816" y="76.6125" width="2" height="23.387500000000003" id="cases-ep-39"></rect></g><g><rect x="54.454545454545446" y="72.85" width="2" height="27.150000000000006" id="cases-ep-40"></rect></g><g><rect x="50.89090909090908" y="67.95249999999999" width="2" height="32.047500000000014" id="cases-ep-41"></rect></g><g><rect x="47.32727272727273" y="86.1625" width="2" height="13.837500000000006" id="cases-ep-42"></rect></g><g><rect x="43.76363636363636" y="82.2175" width="2" height="17.7825" id="cases-ep-43"></rect></g><g><rect x="40.199999999999996" y="67.865" width="2" height="32.135000000000005" id="cases-ep-44"></rect></g><g><rect x="36.636363636363626" y="64.8525" width="2" height="35.147499999999994" id="cases-ep-45"></rect></g><g><rect x="33.072727272727285" y="59.8625" width="2" height="40.1375" id="cases-ep-46"></rect></g><g><rect x="29.509090909090922" y="55.50999999999999" width="2" height="44.49000000000001" id="cases-ep-47"></rect></g><g><rect x="25.945454545454556" y="44.36750000000001" width="2" height="55.63249999999999" id="cases-ep-48"></rect></g><g><rect x="22.38181818181819" y="75.565" width="2" height="24.435000000000002" id="cases-ep-49"></rect></g><g><rect x="18.818181818181824" y="70.9475" width="2" height="29.052499999999995" id="cases-ep-50"></rect></g><g><rect x="15.254545454545461" y="45.9125" width="2" height="54.0875" id="cases-ep-51"></rect></g><g><rect x="11.690909090909095" y="40.6125" width="2" height="59.3875" id="cases-ep-52"></rect></g><g><rect x="8.12727272727273" y="32.330000000000005" width="2" height="67.66999999999999" id="cases-ep-53"></rect></g><g><rect x="4.563636363636365" y="18.962500000000006" width="2" height="81.0375" id="cases-ep-54"></rect></g><g><rect x="1" y="4.347500000000004" width="2" height="95.6525" id="cases-ep-55"></rect></g></g><g class="fg-line cases-ep" fill="none" stroke="#92c5de" stroke-width="2" stroke-linecap="round"><path d="M198,94.80571428571429L194.43636363636364,94.82285714285715L190.87272727272727,94.84357142857142L187.30909090909088,94.81035714285714L183.74545454545455,94.79107142857143L180.1818181818182,94.70928571428571L176.61818181818182,94.9175L173.05454545454546,94.8457142857143L169.49090909090907,94.84214285714285L165.92727272727274,94.75285714285714L162.36363636363637,94.64107142857144L158.8,94.54607142857144L155.23636363636365,94.33500000000001L151.6727272727273,94.07607142857142L148.1090909090909,93.73357142857142L144.54545454545453,93.54571428571428L140.9818181818182,93.34071428571428L137.41818181818184,93.04357142857143L133.85454545454544,92.66178571428571L130.29090909090908,92.30571428571427L126.72727272727273,91.80821428571429L123.16363636363636,91.29928571428572L119.6,91.0875L116.03636363636363,90.86L112.47272727272728,90.26464285714286L108.90909090909089,89.71285714285713L105.34545454545456,89.13785714285714L101.78181818181817,88.25357142857143L98.21818181818183,88.21535714285714L94.65454545454546,87.77821428571428L91.09090909090911,87.24357142857143L87.52727272727273,86.43571428571428L83.96363636363637,85.38464285714285L80.4,84.0375L76.83636363636364,82.70500000000001L73.27272727272727,80.03035714285714L69.70909090909092,79.33678571428572L66.14545454545454,78.28928571428571L62.58181818181818,76.21071428571429L59.018181818181816,74.07321428571429L55.454545454545446,71.68035714285715L51.89090909090908,69.20321428571428L48.32727272727273,65.83392857142857L44.76363636363636,64.32L41.199999999999996,62.71L37.636363636363626,59.57392857142858L34.072727272727285,56.111071428571435L30.509090909090922,52.17785714285714L26.945454545454556,46.95678571428572L23.38181818181819,41.239642857142854L19.818181818181824,39.22107142857143L16.25454545454546,35.913214285714275L12.690909090909095,29.838928571428568L9.12727272727273,22.61428571428572L5.563636363636365,13.843928571428565L2,4.073214285714288"></path></g></svg>