<svg meta="{&quot;DATA_PUBLISHED_DATE&quot;:&quot;2022-04-22&quot;,&quot;RENDER_DATE&quot;:&quot;2022-04-22&quot;,&quot;FIRST_DATE&quot;:&quot;2022-02-03&quot;,&quot;LAST_DATE&quot;:&quot;2022-03-30&quot;}" xmlns="http://www.w3.org/2000/svg" viewBox="0,0,200,100"><g transform="translate(0,0)"></g><g class="fg-bars death-date" fill="#00183f" stroke="none"><g><rect x="197" y="93.84615384615384" width="2" height="6.15384615384616" id="death-date-0"></rect></g><g><rect x="193.43636363636364" y="94.23076923076923" width="2" height="5.769230769230774" id="death-date-1"></rect></g><g><rect x="189.87272727272727" y="93.46153846153847" width="2" height="6.538461538461533" id="death-date-2"></rect></g><g><rect x="186.30909090909088" y="93.07692307692308" width="2" height="6.92307692307692" id="death-date-3"></rect></g><g><rect x="182.74545454545455" y="92.6923076923077" width="2" height="7.307692307692307" id="death-date-4"></rect></g><g><rect x="179.1818181818182" y="89.23076923076923" width="2" height="10.769230769230774" id="death-date-5"></rect></g><g><rect x="175.61818181818182" y="95.38461538461537" width="2" height="4.615384615384627" id="death-date-6"></rect></g><g><rect x="172.05454545454546" y="92.6923076923077" width="2" height="7.307692307692307" id="death-date-7"></rect></g><g><rect x="168.49090909090907" y="90.76923076923077" width="2" height="9.230769230769226" id="death-date-8"></rect></g><g><rect x="164.92727272727274" y="89.23076923076923" width="2" height="10.769230769230774" id="death-date-9"></rect></g><g><rect x="161.36363636363637" y="90" width="2" height="10" id="death-date-10"></rect></g><g><rect x="157.8" y="91.92307692307692" width="2" height="8.07692307692308" id="death-date-11"></rect></g><g><rect x="154.23636363636365" y="88.07692307692308" width="2" height="11.92307692307692" id="death-date-12"></rect></g><g><rect x="150.6727272727273" y="87.3076923076923" width="2" height="12.692307692307693" id="death-date-13"></rect></g><g><rect x="147.1090909090909" y="89.61538461538461" width="2" height="10.384615384615387" id="death-date-14"></rect></g><g><rect x="143.54545454545453" y="88.07692307692308" width="2" height="11.92307692307692" id="death-date-15"></rect></g><g><rect x="139.9818181818182" y="89.23076923076923" width="2" height="10.769230769230774" id="death-date-16"></rect></g><g><rect x="136.41818181818184" y="86.92307692307692" width="2" height="13.07692307692308" id="death-date-17"></rect></g><g><rect x="132.85454545454544" y="83.84615384615385" width="2" height="16.153846153846146" id="death-date-18"></rect></g><g><rect x="129.29090909090908" y="81.53846153846153" width="2" height="18.461538461538467" id="death-date-19"></rect></g><g><rect x="125.72727272727273" y="79.23076923076923" width="2" height="20.769230769230774" id="death-date-20"></rect></g><g><rect x="122.16363636363636" y="79.61538461538463" width="2" height="20.384615384615373" id="death-date-21"></rect></g><g><rect x="118.6" y="81.15384615384616" width="2" height="18.84615384615384" id="death-date-22"></rect></g><g><rect x="115.03636363636363" y="80" width="2" height="20" id="death-date-23"></rect></g><g><rect x="111.47272727272728" y="78.07692307692308" width="2" height="21.92307692307692" id="death-date-24"></rect></g><g><rect x="107.90909090909089" y="76.53846153846153" width="2" height="23.461538461538467" id="death-date-25"></rect></g><g><rect x="104.34545454545456" y="80.38461538461539" width="2" height="19.615384615384613" id="death-date-26"></rect></g><g><rect x="100.78181818181817" y="72.69230769230771" width="2" height="27.307692307692292" id="death-date-27"></rect></g><g><rect x="97.21818181818183" y="77.3076923076923" width="2" height="22.692307692307693" id="death-date-28"></rect></g><g><rect x="93.65454545454546" y="71.92307692307692" width="2" height="28.07692307692308" id="death-date-29"></rect></g><g><rect x="90.09090909090911" y="68.84615384615384" width="2" height="31.15384615384616" id="death-date-30"></rect></g><g><rect x="86.52727272727273" y="75" width="2" height="25" id="death-date-31"></rect></g><g><rect x="82.96363636363637" y="68.84615384615384" width="2" height="31.15384615384616" id="death-date-32"></rect></g><g><rect x="79.4" y="68.07692307692308" width="2" height="31.92307692307692" id="death-date-33"></rect></g><g><rect x="75.83636363636364" y="70.38461538461537" width="2" height="29.615384615384627" id="death-date-34"></rect></g><g><rect x="72.27272727272727" y="60.384615384615394" width="2" height="39.615384615384606" id="death-date-35"></rect></g><g><rect x="68.70909090909092" y="60.769230769230774" width="2" height="39.230769230769226" id="death-date-36"></rect></g><g><rect x="65.14545454545454" y="55.38461538461539" width="2" height="44.61538461538461" id="death-date-37"></rect></g><g><rect x="61.58181818181818" y="51.53846153846153" width="2" height="48.46153846153847" id="death-date-38"></rect></g><g><rect x="58.018181818181816" y="60.384615384615394" width="2" height="39.615384615384606" id="death-date-39"></rect></g><g><rect x="54.454545454545446" y="52.3076923076923" width="2" height="47.6923076923077" id="death-date-40"></rect></g><g><rect x="50.89090909090908" y="43.07692307692308" width="2" height="56.92307692307692" id="death-date-41"></rect></g><g><rect x="47.32727272727273" y="47.30769230769231" width="2" height="52.69230769230769" id="death-date-42"></rect></g><g><rect x="43.76363636363636" y="48.846153846153854" width="2" height="51.153846153846146" id="death-date-43"></rect></g><g><rect x="40.199999999999996" y="43.07692307692308" width="2" height="56.92307692307692" id="death-date-44"></rect></g><g><rect x="36.636363636363626" y="40" width="2" height="60" id="death-date-45"></rect></g><g><rect x="33.072727272727285" y="33.84615384615385" width="2" height="66.15384615384616" id="death-date-46"></rect></g><g><rect x="29.509090909090922" y="29.230769230769226" width="2" height="70.76923076923077" id="death-date-47"></rect></g><g><rect x="25.945454545454556" y="34.61538461538461" width="2" height="65.38461538461539" id="death-date-48"></rect></g><g><rect x="22.38181818181819" y="19.23076923076923" width="2" height="80.76923076923077" id="death-date-49"></rect></g><g><rect x="18.818181818181824" y="15.769230769230768" width="2" height="84.23076923076923" id="death-date-50"></rect></g><g><rect x="15.254545454545461" y="25" width="2" height="75" id="death-date-51"></rect></g><g><rect x="11.690909090909095" y="27.30769230769231" width="2" height="72.6923076923077" id="death-date-52"></rect></g><g><rect x="8.12727272727273" y="16.92307692307692" width="2" height="83.07692307692308" id="death-date-53"></rect></g><g><rect x="4.563636363636365" y="4.61538461538461" width="2" height="95.38461538461539" id="death-date-54"></rect></g><g><rect x="1" y="15.769230769230768" width="2" height="84.23076923076923" id="death-date-55"></rect></g></g><g class="fg-line death-date" fill="none" stroke="#92c5de" stroke-width="2" stroke-linecap="round"><path d="M198,93.13186813186813L194.43636363636364,92.96703296703296L190.87272727272727,92.47252747252747L187.30909090909088,91.86813186813187L183.74545454545455,91.42857142857143L180.1818181818182,91.31868131868131L176.61818181818182,91.15384615384615L173.05454545454546,90L169.49090909090907,89.56043956043956L165.92727272727274,89.17582417582418L162.36363636363637,89.17582417582418L158.8,88.73626373626374L155.23636363636365,87.58241758241758L151.6727272727273,86.64835164835165L148.1090909090909,85.49450549450549L144.54545454545453,84.06593406593407L140.9818181818182,83.07692307692307L137.41818181818184,81.75824175824175L133.85454545454544,80.4945054945055L130.29090909090908,79.45054945054945L126.72727272727273,79.28571428571429L123.16363636363636,78.35164835164835L119.6,78.02197802197803L116.03636363636363,76.7032967032967L112.47272727272728,75.1098901098901L108.90909090909089,74.67032967032966L105.34545454545456,73.57142857142858L101.78181818181817,71.81318681318682L98.21818181818183,71.48351648351648L94.65454545454546,69.06593406593406L91.09090909090911,67.47252747252747L87.52727272727273,65.54945054945055L83.96363636363637,62.1978021978022L80.4,60.98901098901099L76.83636363636364,58.73626373626373L73.27272727272727,54.83516483516484L69.70909090909092,52.96703296703296L66.14545454545454,51.26373626373626L62.58181818181818,49.50549450549451L59.018181818181816,47.857142857142854L55.454545454545446,44.06593406593407L51.89090909090908,40.76923076923077L48.32727272727273,39.56043956043956L44.76363636363636,35.54945054945055L41.199999999999996,30.824175824175825L37.636363636363626,28.24175824175824L34.072727272727285,26.428571428571434L30.509090909090922,24.010989010989004L26.945454545454556,20.49450549450549L23.38181818181819,17.802197802197796L19.818181818181824,16.0989010989011L16.25454545454546,13.461538461538458L12.690909090909095,11.04395604395605L9.12727272727273,7.142857142857151L5.563636363636365,4.83516483516484L2,5.714285714285716"></path></g></svg>