<svg about="DATA_PUBLISHED_DATE:2021-09-30,RENDER_DATE:2021-09-30" xmlns="http://www.w3.org/2000/svg" viewBox="0,0,200,100"><g transform="translate(0,0)"></g><g class="fg-bars cases-ep" fill="#00183f" stroke="none"><g><rect x="197" y="62.29444444444445" width="2" height="37.70555555555555" id="cases-ep-0"></rect></g><g><rect x="193.43636363636364" y="56.699999999999996" width="2" height="43.300000000000004" id="cases-ep-1"></rect></g><g><rect x="189.87272727272727" y="79.51666666666667" width="2" height="20.483333333333334" id="cases-ep-2"></rect></g><g><rect x="186.30909090909088" y="75.34444444444445" width="2" height="24.65555555555555" id="cases-ep-3"></rect></g><g><rect x="182.74545454545455" y="61.71666666666666" width="2" height="38.28333333333334" id="cases-ep-4"></rect></g><g><rect x="179.1818181818182" y="57.99444444444444" width="2" height="42.00555555555556" id="cases-ep-5"></rect></g><g><rect x="175.61818181818182" y="52.71666666666667" width="2" height="47.28333333333333" id="cases-ep-6"></rect></g><g><rect x="172.05454545454546" y="49.12777777777778" width="2" height="50.87222222222222" id="cases-ep-7"></rect></g><g><rect x="168.49090909090907" y="43.261111111111106" width="2" height="56.738888888888894" id="cases-ep-8"></rect></g><g><rect x="164.92727272727274" y="71.6" width="2" height="28.400000000000006" id="cases-ep-9"></rect></g><g><rect x="161.36363636363637" y="66.42222222222223" width="2" height="33.57777777777777" id="cases-ep-10"></rect></g><g><rect x="157.8" y="49.33888888888889" width="2" height="50.66111111111111" id="cases-ep-11"></rect></g><g><rect x="154.23636363636365" y="44.59444444444445" width="2" height="55.40555555555555" id="cases-ep-12"></rect></g><g><rect x="150.6727272727273" y="38.011111111111106" width="2" height="61.988888888888894" id="cases-ep-13"></rect></g><g><rect x="147.1090909090909" y="32.172222222222224" width="2" height="67.82777777777778" id="cases-ep-14"></rect></g><g><rect x="143.54545454545453" y="64.22222222222223" width="2" height="35.77777777777777" id="cases-ep-15"></rect></g><g><rect x="139.9818181818182" y="71.36666666666667" width="2" height="28.633333333333326" id="cases-ep-16"></rect></g><g><rect x="136.41818181818184" y="63.422222222222224" width="2" height="36.577777777777776" id="cases-ep-17"></rect></g><g><rect x="132.85454545454544" y="45.894444444444446" width="2" height="54.105555555555554" id="cases-ep-18"></rect></g><g><rect x="129.29090909090908" y="40.17222222222222" width="2" height="59.82777777777778" id="cases-ep-19"></rect></g><g><rect x="125.72727272727273" y="30.277777777777782" width="2" height="69.72222222222221" id="cases-ep-20"></rect></g><g><rect x="122.16363636363636" y="32.28888888888889" width="2" height="67.71111111111111" id="cases-ep-21"></rect></g><g><rect x="118.6" y="27.016666666666666" width="2" height="72.98333333333333" id="cases-ep-22"></rect></g><g><rect x="115.03636363636363" y="64.33333333333333" width="2" height="35.66666666666667" id="cases-ep-23"></rect></g><g><rect x="111.47272727272728" y="57.51111111111111" width="2" height="42.48888888888889" id="cases-ep-24"></rect></g><g><rect x="107.90909090909089" y="38.3" width="2" height="61.7" id="cases-ep-25"></rect></g><g><rect x="104.34545454545456" y="31.555555555555557" width="2" height="68.44444444444444" id="cases-ep-26"></rect></g><g><rect x="100.78181818181817" y="25.26666666666667" width="2" height="74.73333333333333" id="cases-ep-27"></rect></g><g><rect x="97.21818181818183" y="23.044444444444444" width="2" height="76.95555555555555" id="cases-ep-28"></rect></g><g><rect x="93.65454545454546" y="15.766666666666662" width="2" height="84.23333333333333" id="cases-ep-29"></rect></g><g><rect x="90.09090909090911" y="58.644444444444446" width="2" height="41.355555555555554" id="cases-ep-30"></rect></g><g><rect x="86.52727272727273" y="51.16111111111111" width="2" height="48.83888888888889" id="cases-ep-31"></rect></g><g><rect x="82.96363636363637" y="26.283333333333335" width="2" height="73.71666666666667" id="cases-ep-32"></rect></g><g><rect x="79.4" y="23.42222222222222" width="2" height="76.57777777777778" id="cases-ep-33"></rect></g><g><rect x="75.83636363636364" y="17.194444444444446" width="2" height="82.80555555555556" id="cases-ep-34"></rect></g><g><rect x="72.27272727272727" y="15.188888888888885" width="2" height="84.81111111111112" id="cases-ep-35"></rect></g><g><rect x="68.70909090909092" y="11.86666666666667" width="2" height="88.13333333333333" id="cases-ep-36"></rect></g><g><rect x="65.14545454545454" y="55.02222222222222" width="2" height="44.97777777777778" id="cases-ep-37"></rect></g><g><rect x="61.58181818181818" y="47.172222222222224" width="2" height="52.827777777777776" id="cases-ep-38"></rect></g><g><rect x="58.018181818181816" y="24.183333333333334" width="2" height="75.81666666666666" id="cases-ep-39"></rect></g><g><rect x="54.454545454545446" y="19.41111111111111" width="2" height="80.58888888888889" id="cases-ep-40"></rect></g><g><rect x="50.89090909090908" y="14.761111111111113" width="2" height="85.23888888888888" id="cases-ep-41"></rect></g><g><rect x="47.32727272727273" y="10.933333333333328" width="2" height="89.06666666666668" id="cases-ep-42"></rect></g><g><rect x="43.76363636363636" y="10.311111111111115" width="2" height="89.68888888888888" id="cases-ep-43"></rect></g><g><rect x="40.199999999999996" y="52.366666666666674" width="2" height="47.633333333333326" id="cases-ep-44"></rect></g><g><rect x="36.636363636363626" y="46.650000000000006" width="2" height="53.349999999999994" id="cases-ep-45"></rect></g><g><rect x="33.072727272727285" y="28.77777777777778" width="2" height="71.22222222222223" id="cases-ep-46"></rect></g><g><rect x="29.509090909090922" y="23.65555555555555" width="2" height="76.34444444444445" id="cases-ep-47"></rect></g><g><rect x="25.945454545454556" y="22.33333333333334" width="2" height="77.66666666666666" id="cases-ep-48"></rect></g><g><rect x="22.38181818181819" y="20.672222222222224" width="2" height="79.32777777777778" id="cases-ep-49"></rect></g><g><rect x="18.818181818181824" y="22.438888888888886" width="2" height="77.56111111111112" id="cases-ep-50"></rect></g><g><rect x="15.254545454545461" y="53.400000000000006" width="2" height="46.599999999999994" id="cases-ep-51"></rect></g><g><rect x="11.690909090909095" y="53.13333333333333" width="2" height="46.86666666666667" id="cases-ep-52"></rect></g><g><rect x="8.12727272727273" y="38.76111111111111" width="2" height="61.23888888888889" id="cases-ep-53"></rect></g><g><rect x="4.563636363636365" y="34.94444444444444" width="2" height="65.05555555555556" id="cases-ep-54"></rect></g><g><rect x="1" y="34.62222222222222" width="2" height="65.37777777777778" id="cases-ep-55"></rect></g></g><g class="fg-line cases-ep" fill="none" stroke="#92c5de" stroke-width="2" stroke-linecap="round"><path d="M198,63.75476190476191L194.43636363636364,61.87380952380952L190.87272727272727,59.953968253968256L187.30909090909088,58.82301587301587L183.74545454545455,57.5484126984127L180.1818181818182,55.78015873015873L176.61818181818182,53.86587301587302L173.05454545454546,51.76507936507937L169.49090909090907,49.34285714285714L165.92727272727274,52.33730158730159L162.36363636363637,52.30396825396826L158.8,51.875396825396834L155.23636363636365,51.38333333333334L151.6727272727273,50.7515873015873L148.1090909090909,49.64682539682539L144.54545454545453,49.66349206349206L140.9818181818182,44.3484126984127L137.41818181818184,43.34365079365079L133.85454545454544,42.499206349206354L130.29090909090908,41.41428571428571L126.72727272727273,40.18333333333334L123.16363636363636,39.467460317460315L119.6,38.14682539682539L116.03636363636363,36.53968253968254L112.47272727272728,35.72698412698413L108.90909090909089,34.81984126984128L105.34545454545456,33.103174603174615L101.78181818181817,31.941269841269836L98.21818181818183,30.788095238095238L94.65454545454546,29.66587301587301L91.09090909090911,29.108730158730168L87.52727272727273,28.59126984126984L83.96363636363637,28.021428571428576L80.4,27.721428571428575L76.83636363636364,27.148412698412706L73.27272727272727,26.800793650793654L69.70909090909092,26.19285714285715L66.14545454545454,25.97063492063493L62.58181818181818,25.59126984126984L59.018181818181816,25.516666666666666L55.454545454545446,26.17301587301587L51.89090909090908,26.779365079365082L48.32727272727273,27.861111111111114L44.76363636363636,29.252380952380953L41.199999999999996,30.98492063492063L37.636363636363626,31.132539682539683L34.072727272727285,32.058730158730164L30.509090909090922,33.484920634920634L26.945454545454556,35.097619047619055L23.38181818181819,36.85317460317461L19.818181818181824,39.329365079365076L16.25454545454546,41.17301587301587L12.690909090909095,42.77857142857143L9.12727272727273,44.160317460317465L5.563636363636365,46.536507936507945L2,49.28095238095238"></path></g></svg>