<svg meta="{&quot;DATA_PUBLISHED_DATE&quot;:&quot;2022-06-03&quot;,&quot;RENDER_DATE&quot;:&quot;2022-06-03&quot;,&quot;FIRST_DATE&quot;:&quot;2022-03-17&quot;,&quot;LAST_DATE&quot;:&quot;2022-05-11&quot;}" xmlns="http://www.w3.org/2000/svg" viewBox="0,0,200,100"><g transform="translate(0,0)"></g><g class="fg-bars death-date" fill="#00183f" stroke="none"><g><rect x="197" y="91.11111111111111" width="2" height="8.888888888888886" id="death-date-0"></rect></g><g><rect x="193.43636363636364" y="66.66666666666667" width="2" height="33.33333333333333" id="death-date-1"></rect></g><g><rect x="189.87272727272727" y="82.22222222222221" width="2" height="17.777777777777786" id="death-date-2"></rect></g><g><rect x="186.30909090909088" y="73.33333333333334" width="2" height="26.666666666666657" id="death-date-3"></rect></g><g><rect x="182.74545454545455" y="80" width="2" height="20" id="death-date-4"></rect></g><g><rect x="179.1818181818182" y="80" width="2" height="20" id="death-date-5"></rect></g><g><rect x="175.61818181818182" y="86.66666666666667" width="2" height="13.333333333333329" id="death-date-6"></rect></g><g><rect x="172.05454545454546" y="77.77777777777779" width="2" height="22.222222222222214" id="death-date-7"></rect></g><g><rect x="168.49090909090907" y="86.66666666666667" width="2" height="13.333333333333329" id="death-date-8"></rect></g><g><rect x="164.92727272727274" y="77.77777777777779" width="2" height="22.222222222222214" id="death-date-9"></rect></g><g><rect x="161.36363636363637" y="82.22222222222221" width="2" height="17.777777777777786" id="death-date-10"></rect></g><g><rect x="157.8" y="71.11111111111111" width="2" height="28.888888888888886" id="death-date-11"></rect></g><g><rect x="154.23636363636365" y="75.55555555555556" width="2" height="24.444444444444443" id="death-date-12"></rect></g><g><rect x="150.6727272727273" y="82.22222222222221" width="2" height="17.777777777777786" id="death-date-13"></rect></g><g><rect x="147.1090909090909" y="75.55555555555556" width="2" height="24.444444444444443" id="death-date-14"></rect></g><g><rect x="143.54545454545453" y="84.44444444444444" width="2" height="15.555555555555557" id="death-date-15"></rect></g><g><rect x="139.9818181818182" y="64.44444444444444" width="2" height="35.55555555555556" id="death-date-16"></rect></g><g><rect x="136.41818181818184" y="66.66666666666667" width="2" height="33.33333333333333" id="death-date-17"></rect></g><g><rect x="132.85454545454544" y="80" width="2" height="20" id="death-date-18"></rect></g><g><rect x="129.29090909090908" y="77.77777777777779" width="2" height="22.222222222222214" id="death-date-19"></rect></g><g><rect x="125.72727272727273" y="82.22222222222221" width="2" height="17.777777777777786" id="death-date-20"></rect></g><g><rect x="122.16363636363636" y="68.88888888888889" width="2" height="31.111111111111114" id="death-date-21"></rect></g><g><rect x="118.6" y="77.77777777777779" width="2" height="22.222222222222214" id="death-date-22"></rect></g><g><rect x="115.03636363636363" y="68.88888888888889" width="2" height="31.111111111111114" id="death-date-23"></rect></g><g><rect x="111.47272727272728" y="66.66666666666667" width="2" height="33.33333333333333" id="death-date-24"></rect></g><g><rect x="107.90909090909089" y="71.11111111111111" width="2" height="28.888888888888886" id="death-date-25"></rect></g><g><rect x="104.34545454545456" y="64.44444444444444" width="2" height="35.55555555555556" id="death-date-26"></rect></g><g><rect x="100.78181818181817" y="68.88888888888889" width="2" height="31.111111111111114" id="death-date-27"></rect></g><g><rect x="97.21818181818183" y="71.11111111111111" width="2" height="28.888888888888886" id="death-date-28"></rect></g><g><rect x="93.65454545454546" y="75.55555555555556" width="2" height="24.444444444444443" id="death-date-29"></rect></g><g><rect x="90.09090909090911" y="57.77777777777777" width="2" height="42.22222222222223" id="death-date-30"></rect></g><g><rect x="86.52727272727273" y="77.77777777777779" width="2" height="22.222222222222214" id="death-date-31"></rect></g><g><rect x="82.96363636363637" y="82.22222222222221" width="2" height="17.777777777777786" id="death-date-32"></rect></g><g><rect x="79.4" y="64.44444444444444" width="2" height="35.55555555555556" id="death-date-33"></rect></g><g><rect x="75.83636363636364" y="64.44444444444444" width="2" height="35.55555555555556" id="death-date-34"></rect></g><g><rect x="72.27272727272727" y="46.666666666666664" width="2" height="53.333333333333336" id="death-date-35"></rect></g><g><rect x="68.70909090909092" y="53.333333333333336" width="2" height="46.666666666666664" id="death-date-36"></rect></g><g><rect x="65.14545454545454" y="68.88888888888889" width="2" height="31.111111111111114" id="death-date-37"></rect></g><g><rect x="61.58181818181818" y="68.88888888888889" width="2" height="31.111111111111114" id="death-date-38"></rect></g><g><rect x="58.018181818181816" y="62.22222222222222" width="2" height="37.77777777777778" id="death-date-39"></rect></g><g><rect x="54.454545454545446" y="64.44444444444444" width="2" height="35.55555555555556" id="death-date-40"></rect></g><g><rect x="50.89090909090908" y="57.77777777777777" width="2" height="42.22222222222223" id="death-date-41"></rect></g><g><rect x="47.32727272727273" y="55.55555555555556" width="2" height="44.44444444444444" id="death-date-42"></rect></g><g><rect x="43.76363636363636" y="55.55555555555556" width="2" height="44.44444444444444" id="death-date-43"></rect></g><g><rect x="40.199999999999996" y="48.88888888888889" width="2" height="51.11111111111111" id="death-date-44"></rect></g><g><rect x="36.636363636363626" y="53.333333333333336" width="2" height="46.666666666666664" id="death-date-45"></rect></g><g><rect x="33.072727272727285" y="46.666666666666664" width="2" height="53.333333333333336" id="death-date-46"></rect></g><g><rect x="29.509090909090922" y="26.66666666666667" width="2" height="73.33333333333333" id="death-date-47"></rect></g><g><rect x="25.945454545454556" y="62.22222222222222" width="2" height="37.77777777777778" id="death-date-48"></rect></g><g><rect x="22.38181818181819" y="51.11111111111111" width="2" height="48.88888888888889" id="death-date-49"></rect></g><g><rect x="18.818181818181824" y="42.22222222222223" width="2" height="57.77777777777777" id="death-date-50"></rect></g><g><rect x="15.254545454545461" y="19.999999999999996" width="2" height="80" id="death-date-51"></rect></g><g><rect x="11.690909090909095" y="24.444444444444446" width="2" height="75.55555555555556" id="death-date-52"></rect></g><g><rect x="8.12727272727273" y="51.11111111111111" width="2" height="48.88888888888889" id="death-date-53"></rect></g><g><rect x="4.563636363636365" y="26.66666666666667" width="2" height="73.33333333333333" id="death-date-54"></rect></g><g><rect x="1" y="6.666666666666665" width="2" height="93.33333333333333" id="death-date-55"></rect></g></g><g class="fg-line death-date" fill="none" stroke="#92c5de" stroke-width="2" stroke-linecap="round"><path d="M198,80L194.43636363636364,78.0952380952381L190.87272727272727,80.95238095238095L187.30909090909088,80.31746031746032L183.74545454545455,81.58730158730158L180.1818181818182,80.31746031746032L176.61818181818182,79.68253968253968L173.05454545454546,79.04761904761905L169.49090909090907,78.73015873015873L165.92727272727274,78.41269841269842L162.36363636363637,76.5079365079365L158.8,74.28571428571429L155.23636363636365,75.55555555555556L151.6727272727273,75.87301587301587L148.1090909090909,75.87301587301587L144.54545454545453,74.92063492063492L140.9818181818182,73.96825396825398L137.41818181818184,74.60317460317461L133.85454545454544,74.60317460317461L130.29090909090908,73.33333333333334L126.72727272727273,71.42857142857143L123.16363636363636,69.52380952380952L119.6,69.84126984126983L116.03636363636363,69.52380952380952L112.47272727272728,67.93650793650794L108.90909090909089,69.52380952380952L105.34545454545456,71.11111111111111L101.78181818181817,71.11111111111111L98.21818181818183,70.47619047619047L94.65454545454546,66.98412698412699L91.09090909090911,63.8095238095238L87.52727272727273,65.39682539682539L83.96363636363637,64.12698412698413L80.4,61.26984126984127L76.83636363636364,61.26984126984127L73.27272727272727,60.317460317460316L69.70909090909092,61.58730158730159L66.14545454545454,61.904761904761905L62.58181818181818,59.04761904761905L59.018181818181816,56.82539682539682L55.454545454545446,54.60317460317461L51.89090909090908,49.20634920634921L48.32727272727273,49.84126984126984L44.76363636363636,49.20634920634921L41.199999999999996,47.3015873015873L37.636363636363626,43.17460317460318L34.072727272727285,39.04761904761905L30.509090909090922,39.682539682539684L26.945454545454556,39.682539682539684L23.38181818181819,31.746031746031743L19.818181818181824,28.57142857142857L16.25454545454546,26.349206349206344L12.690909090909095,26.984126984126988L9.12727272727273,25.396825396825406L5.563636363636365,19.365079365079364L2,12.698412698412698"></path></g></svg>