<svg about="DATA_PUBLISHED_DATE:2022-01-27,RENDER_DATE:2022-01-27" xmlns="http://www.w3.org/2000/svg" viewBox="0,0,200,100"><g transform="translate(0,0)"></g><g class="fg-bars tests-vaccines" fill="#00183f" stroke="none"><g><rect x="197" y="55.896" width="2" height="44.104" id="tests-vaccines-0"></rect></g><g><rect x="193.43636363636364" y="55.05914285714286" width="2" height="44.94085714285714" id="tests-vaccines-1"></rect></g><g><rect x="189.87272727272727" y="61.82914285714285" width="2" height="38.17085714285715" id="tests-vaccines-2"></rect></g><g><rect x="186.30909090909088" y="85.054" width="2" height="14.945999999999998" id="tests-vaccines-3"></rect></g><g><rect x="182.74545454545455" y="68.29742857142858" width="2" height="31.702571428571417" id="tests-vaccines-4"></rect></g><g><rect x="179.1818181818182" y="38.137142857142855" width="2" height="61.862857142857145" id="tests-vaccines-5"></rect></g><g><rect x="175.61818181818182" y="47.18542857142857" width="2" height="52.81457142857143" id="tests-vaccines-6"></rect></g><g><rect x="172.05454545454546" y="45.19657142857143" width="2" height="54.80342857142857" id="tests-vaccines-7"></rect></g><g><rect x="168.49090909090907" y="44.05685714285714" width="2" height="55.94314285714286" id="tests-vaccines-8"></rect></g><g><rect x="164.92727272727274" y="47.443714285714286" width="2" height="52.556285714285714" id="tests-vaccines-9"></rect></g><g><rect x="161.36363636363637" y="82.22428571428571" width="2" height="17.775714285714287" id="tests-vaccines-10"></rect></g><g><rect x="157.8" y="58.708285714285715" width="2" height="41.291714285714285" id="tests-vaccines-11"></rect></g><g><rect x="154.23636363636365" y="24.952571428571424" width="2" height="75.04742857142858" id="tests-vaccines-12"></rect></g><g><rect x="150.6727272727273" y="34.58914285714285" width="2" height="65.41085714285714" id="tests-vaccines-13"></rect></g><g><rect x="147.1090909090909" y="37.12542857142858" width="2" height="62.87457142857142" id="tests-vaccines-14"></rect></g><g><rect x="143.54545454545453" y="38.27028571428571" width="2" height="61.72971428571429" id="tests-vaccines-15"></rect></g><g><rect x="139.9818181818182" y="43.138571428571424" width="2" height="56.861428571428576" id="tests-vaccines-16"></rect></g><g><rect x="136.41818181818184" y="84.6482857142857" width="2" height="15.351714285714294" id="tests-vaccines-17"></rect></g><g><rect x="132.85454545454544" y="97.76085714285713" width="2" height="2.239142857142866" id="tests-vaccines-18"></rect></g><g><rect x="129.29090909090908" y="78.25971428571428" width="2" height="21.74028571428572" id="tests-vaccines-19"></rect></g><g><rect x="125.72727272727273" y="36.04685714285715" width="2" height="63.95314285714285" id="tests-vaccines-20"></rect></g><g><rect x="122.16363636363636" y="31.31657142857143" width="2" height="68.68342857142858" id="tests-vaccines-21"></rect></g><g><rect x="118.6" y="31.244857142857143" width="2" height="68.75514285714286" id="tests-vaccines-22"></rect></g><g><rect x="115.03636363636363" y="39.81342857142857" width="2" height="60.18657142857143" id="tests-vaccines-23"></rect></g><g><rect x="111.47272727272728" y="84.03" width="2" height="15.969999999999999" id="tests-vaccines-24"></rect></g><g><rect x="107.90909090909089" y="99.73771428571429" width="2" height="0.26228571428571" id="tests-vaccines-25"></rect></g><g><rect x="104.34545454545456" y="87.05199999999999" width="2" height="12.948000000000008" id="tests-vaccines-26"></rect></g><g><rect x="100.78181818181817" y="37.929142857142864" width="2" height="62.070857142857136" id="tests-vaccines-27"></rect></g><g><rect x="97.21818181818183" y="26.84914285714286" width="2" height="73.15085714285715" id="tests-vaccines-28"></rect></g><g><rect x="93.65454545454546" y="24.812285714285707" width="2" height="75.18771428571429" id="tests-vaccines-29"></rect></g><g><rect x="90.09090909090911" y="29.802571428571433" width="2" height="70.19742857142856" id="tests-vaccines-30"></rect></g><g><rect x="86.52727272727273" y="79.27085714285714" width="2" height="20.72914285714286" id="tests-vaccines-31"></rect></g><g><rect x="82.96363636363637" y="59.03685714285714" width="2" height="40.96314285714286" id="tests-vaccines-32"></rect></g><g><rect x="79.4" y="25.484571428571424" width="2" height="74.51542857142857" id="tests-vaccines-33"></rect></g><g><rect x="75.83636363636364" y="34.709999999999994" width="2" height="65.29" id="tests-vaccines-34"></rect></g><g><rect x="72.27272727272727" y="33.21714285714285" width="2" height="66.78285714285715" id="tests-vaccines-35"></rect></g><g><rect x="68.70909090909092" y="34.99685714285714" width="2" height="65.00314285714286" id="tests-vaccines-36"></rect></g><g><rect x="65.14545454545454" y="37.74314285714285" width="2" height="62.25685714285715" id="tests-vaccines-37"></rect></g><g><rect x="61.58181818181818" y="79.72457142857144" width="2" height="20.275428571428563" id="tests-vaccines-38"></rect></g><g><rect x="58.018181818181816" y="53.830571428571425" width="2" height="46.169428571428575" id="tests-vaccines-39"></rect></g><g><rect x="54.454545454545446" y="19.126571428571427" width="2" height="80.87342857142858" id="tests-vaccines-40"></rect></g><g><rect x="50.89090909090908" y="27.302000000000003" width="2" height="72.698" id="tests-vaccines-41"></rect></g><g><rect x="47.32727272727273" y="24.905714285714286" width="2" height="75.09428571428572" id="tests-vaccines-42"></rect></g><g><rect x="43.76363636363636" y="25.02257142857143" width="2" height="74.97742857142858" id="tests-vaccines-43"></rect></g><g><rect x="40.199999999999996" y="30.438857142857145" width="2" height="69.56114285714285" id="tests-vaccines-44"></rect></g><g><rect x="36.636363636363626" y="76.10342857142858" width="2" height="23.89657142857142" id="tests-vaccines-45"></rect></g><g><rect x="33.072727272727285" y="47.252" width="2" height="52.748" id="tests-vaccines-46"></rect></g><g><rect x="29.509090909090922" y="8.313428571428572" width="2" height="91.68657142857143" id="tests-vaccines-47"></rect></g><g><rect x="25.945454545454556" y="19.177142857142858" width="2" height="80.82285714285715" id="tests-vaccines-48"></rect></g><g><rect x="22.38181818181819" y="21.12371428571429" width="2" height="78.87628571428571" id="tests-vaccines-49"></rect></g><g><rect x="18.818181818181824" y="28.99085714285714" width="2" height="71.00914285714286" id="tests-vaccines-50"></rect></g><g><rect x="15.254545454545461" y="38.572857142857146" width="2" height="61.427142857142854" id="tests-vaccines-51"></rect></g><g><rect x="11.690909090909095" y="81.484" width="2" height="18.516000000000005" id="tests-vaccines-52"></rect></g><g><rect x="8.12727272727273" y="67.16742857142857" width="2" height="32.83257142857143" id="tests-vaccines-53"></rect></g><g><rect x="4.563636363636365" y="56.08685714285715" width="2" height="43.91314285714285" id="tests-vaccines-54"></rect></g><g><rect x="1" y="98.572" width="2" height="1.4279999999999973" id="tests-vaccines-55"></rect></g></g><g class="fg-line tests-vaccines" fill="none" stroke="#92c5de" stroke-width="2" stroke-linecap="round"><path d="M198,58.77975510204082L194.43636363636364,57.251265306122455L190.87272727272727,55.67951020408164L187.30909090909088,53.62444897959183L183.74545454545455,53.22020408163266L180.1818181818182,51.85032653061226L176.61818181818182,49.966816326530605L173.05454545454546,48.16734693877551L169.49090909090907,47.01432653061225L165.92727272727274,46.18767346938775L162.36363636363637,45.572653061224486L158.8,45.9189387755102L155.23636363636365,51.4978775510204L151.6727272727273,59.11318367346939L148.1090909090909,59.32142857142857L144.54545454545453,58.49159183673469L140.9818181818182,57.48795918367347L137.41818181818184,57.0129387755102L133.85454545454544,56.924612244897965L130.29090909090908,57.20702040816326L126.72727272727273,58.4630612244898L123.16363636363636,58.73195918367347L119.6,58.093755102040824L116.03636363636363,57.17481632653061L112.47272727272728,55.74469387755102L108.90909090909089,55.06481632653061L105.34545454545456,49.25040816326531L101.78181818181817,40.455061224489796L98.21818181818183,39.99518367346939L94.65454545454546,40.90489795918367L91.09090909090911,42.35983673469388L87.52727272727273,43.49420408163266L83.96363636363637,43.55902040816326L80.4,42.815265306122456L76.83636363636364,41.90697959183674L73.27272727272727,40.84869387755102L69.70909090909092,39.66134693877551L66.14545454545454,38.23644897959183L62.58181818181818,37.19297959183674L59.018181818181816,36.675673469387746L55.454545454545446,35.7358775510204L51.89090909090908,34.19114285714285L48.32727272727273,33.03044897959183L44.76363636363636,32.490163265306116L41.199999999999996,33.05706122448979L37.636363636363626,34.2190612244898L34.072727272727285,34.98771428571429L30.509090909090922,37.83277551020409L26.945454545454556,44.65755102040817L23.38181818181819,55.999673469387744L19.818181818181824,58.85318367346939L16.25454545454546,58.97824489795917L12.690909090909095,58.19191836734694L9.12727272727273,57.80085714285714L5.563636363636365,56.04114285714286L2,51.21591836734694"></path></g></svg>