<svg meta="{&quot;DATA_PUBLISHED_DATE&quot;:&quot;2022-04-12&quot;,&quot;RENDER_DATE&quot;:&quot;2022-04-12&quot;,&quot;FIRST_DATE&quot;:&quot;2022-02-08&quot;,&quot;LAST_DATE&quot;:&quot;2022-04-04&quot;}" xmlns="http://www.w3.org/2000/svg" viewBox="0,0,200,100"><g transform="translate(0,0)"></g><g class="fg-bars tests-vaccines" fill="#00183f" stroke="none"><g><rect x="197" y="33.172000000000004" width="2" height="66.828" id="tests-vaccines-0"></rect></g><g><rect x="193.43636363636364" y="75.71600000000001" width="2" height="24.283999999999992" id="tests-vaccines-1"></rect></g><g><rect x="189.87272727272727" y="56.379000000000005" width="2" height="43.620999999999995" id="tests-vaccines-2"></rect></g><g><rect x="186.30909090909088" y="12.463000000000001" width="2" height="87.537" id="tests-vaccines-3"></rect></g><g><rect x="182.74545454545455" y="27.139000000000003" width="2" height="72.86099999999999" id="tests-vaccines-4"></rect></g><g><rect x="179.1818181818182" y="39.26500000000001" width="2" height="60.73499999999999" id="tests-vaccines-5"></rect></g><g><rect x="175.61818181818182" y="69.049" width="2" height="30.950999999999993" id="tests-vaccines-6"></rect></g><g><rect x="172.05454545454546" y="74.587" width="2" height="25.412999999999997" id="tests-vaccines-7"></rect></g><g><rect x="168.49090909090907" y="90.054" width="2" height="9.945999999999998" id="tests-vaccines-8"></rect></g><g><rect x="164.92727272727274" y="80.963" width="2" height="19.037000000000006" id="tests-vaccines-9"></rect></g><g><rect x="161.36363636363637" y="63.590999999999994" width="2" height="36.409000000000006" id="tests-vaccines-10"></rect></g><g><rect x="157.8" y="71.64399999999999" width="2" height="28.35600000000001" id="tests-vaccines-11"></rect></g><g><rect x="154.23636363636365" y="70.545" width="2" height="29.455" id="tests-vaccines-12"></rect></g><g><rect x="150.6727272727273" y="71.531" width="2" height="28.468999999999994" id="tests-vaccines-13"></rect></g><g><rect x="147.1090909090909" y="69.264" width="2" height="30.736000000000004" id="tests-vaccines-14"></rect></g><g><rect x="143.54545454545453" y="88.654" width="2" height="11.346000000000004" id="tests-vaccines-15"></rect></g><g><rect x="139.9818181818182" y="76.393" width="2" height="23.607" id="tests-vaccines-16"></rect></g><g><rect x="136.41818181818184" y="57.44199999999999" width="2" height="42.55800000000001" id="tests-vaccines-17"></rect></g><g><rect x="132.85454545454544" y="69.399" width="2" height="30.601" id="tests-vaccines-18"></rect></g><g><rect x="129.29090909090908" y="68.398" width="2" height="31.602000000000004" id="tests-vaccines-19"></rect></g><g><rect x="125.72727272727273" y="68.526" width="2" height="31.474000000000004" id="tests-vaccines-20"></rect></g><g><rect x="122.16363636363636" y="69.353" width="2" height="30.647000000000006" id="tests-vaccines-21"></rect></g><g><rect x="118.6" y="87.993" width="2" height="12.007000000000005" id="tests-vaccines-22"></rect></g><g><rect x="115.03636363636363" y="74.766" width="2" height="25.233999999999995" id="tests-vaccines-23"></rect></g><g><rect x="111.47272727272728" y="56.657000000000004" width="2" height="43.342999999999996" id="tests-vaccines-24"></rect></g><g><rect x="107.90909090909089" y="65.866" width="2" height="34.134" id="tests-vaccines-25"></rect></g><g><rect x="104.34545454545456" y="64.14" width="2" height="35.86" id="tests-vaccines-26"></rect></g><g><rect x="100.78181818181817" y="66.204" width="2" height="33.79600000000001" id="tests-vaccines-27"></rect></g><g><rect x="97.21818181818183" y="65.138" width="2" height="34.861999999999995" id="tests-vaccines-28"></rect></g><g><rect x="93.65454545454546" y="86.496" width="2" height="13.504000000000005" id="tests-vaccines-29"></rect></g><g><rect x="90.09090909090911" y="70.659" width="2" height="29.340999999999994" id="tests-vaccines-30"></rect></g><g><rect x="86.52727272727273" y="44.54" width="2" height="55.46" id="tests-vaccines-31"></rect></g><g><rect x="82.96363636363637" y="58.941" width="2" height="41.059" id="tests-vaccines-32"></rect></g><g><rect x="79.4" y="55.785" width="2" height="44.215" id="tests-vaccines-33"></rect></g><g><rect x="75.83636363636364" y="50.517" width="2" height="49.483" id="tests-vaccines-34"></rect></g><g><rect x="72.27272727272727" y="41.388000000000005" width="2" height="58.611999999999995" id="tests-vaccines-35"></rect></g><g><rect x="68.70909090909092" y="79.88300000000001" width="2" height="20.11699999999999" id="tests-vaccines-36"></rect></g><g><rect x="65.14545454545454" y="60.111000000000004" width="2" height="39.888999999999996" id="tests-vaccines-37"></rect></g><g><rect x="61.58181818181818" y="24.965000000000003" width="2" height="75.035" id="tests-vaccines-38"></rect></g><g><rect x="58.018181818181816" y="44.975" width="2" height="55.025" id="tests-vaccines-39"></rect></g><g><rect x="54.454545454545446" y="45.43000000000001" width="2" height="54.56999999999999" id="tests-vaccines-40"></rect></g><g><rect x="50.89090909090908" y="44.562999999999995" width="2" height="55.437000000000005" id="tests-vaccines-41"></rect></g><g><rect x="47.32727272727273" y="57.696999999999996" width="2" height="42.303000000000004" id="tests-vaccines-42"></rect></g><g><rect x="43.76363636363636" y="78.16199999999999" width="2" height="21.838000000000008" id="tests-vaccines-43"></rect></g><g><rect x="40.199999999999996" y="54.482000000000006" width="2" height="45.517999999999994" id="tests-vaccines-44"></rect></g><g><rect x="36.636363636363626" y="14.434000000000003" width="2" height="85.566" id="tests-vaccines-45"></rect></g><g><rect x="33.072727272727285" y="37.954" width="2" height="62.046" id="tests-vaccines-46"></rect></g><g><rect x="29.509090909090922" y="38.766" width="2" height="61.234" id="tests-vaccines-47"></rect></g><g><rect x="25.945454545454556" y="41.132999999999996" width="2" height="58.867000000000004" id="tests-vaccines-48"></rect></g><g><rect x="22.38181818181819" y="48.331" width="2" height="51.669" id="tests-vaccines-49"></rect></g><g><rect x="18.818181818181824" y="80.105" width="2" height="19.894999999999996" id="tests-vaccines-50"></rect></g><g><rect x="15.254545454545461" y="47.992000000000004" width="2" height="52.007999999999996" id="tests-vaccines-51"></rect></g><g><rect x="11.690909090909095" y="1.4619999999999966" width="2" height="98.538" id="tests-vaccines-52"></rect></g><g><rect x="8.12727272727273" y="24.980000000000004" width="2" height="75.02" id="tests-vaccines-53"></rect></g><g><rect x="4.563636363636365" y="21.331" width="2" height="78.669" id="tests-vaccines-54"></rect></g><g><rect x="1" y="22.114999999999995" width="2" height="77.885" id="tests-vaccines-55"></rect></g></g><g class="fg-line tests-vaccines" fill="none" stroke="#92c5de" stroke-width="2" stroke-linecap="round"><path d="M198,44.740428571428566L194.43636363636364,50.65685714285715L190.87272727272727,52.70514285714285L187.30909090909088,56.21714285714285L183.74545454545455,63.521142857142856L180.1818181818182,69.879L176.61818181818182,74.34757142857143L173.05454545454546,74.70214285714286L169.49090909090907,73.94171428571428L165.92727272727274,73.7417142857143L162.36363636363637,73.08885714285714L158.8,72.21042857142857L155.23636363636365,71.88971428571429L151.6727272727273,71.583L148.1090909090909,71.15371428571429L144.54545454545453,71.16642857142857L140.9818181818182,71.072L137.41818181818184,70.83957142857142L133.85454545454544,70.72742857142858L130.29090909090908,70.22271428571429L126.72727272727273,69.61442857142856L123.16363636363636,69.28271428571429L119.6,68.68057142857143L116.03636363636363,68.46671428571429L112.47272727272728,67.88000000000001L108.90909090909089,66.149L105.34545454545456,65.15971428571427L101.78181818181817,63.96614285714286L98.21818181818183,61.725142857142856L94.65454545454546,58.332285714285725L91.09090909090911,57.38757142857143L87.52727272727273,55.880714285714284L83.96363636363637,53.08428571428572L80.4,51.08914285714285L76.83636363636364,49.60985714285715L73.27272727272727,48.75928571428572L69.70909090909092,51.08914285714285L66.14545454545454,50.84328571428571L62.58181818181818,50.03914285714286L59.018181818181816,48.53471428571429L55.454545454545446,47.53171428571428L51.89090909090908,46.57971428571428L48.32727272727273,46.08971428571428L44.76363636363636,44.751714285714286L41.199999999999996,45.02928571428571L37.636363636363626,44.10214285714286L34.072727272727285,42.249L30.509090909090922,40.39557142857143L26.945454545454556,37.90485714285714L23.38181818181819,35.187999999999995L19.818181818181824,31.061857142857143L16.25454545454546,29.495714285714293L12.690909090909095,27.021571428571434L9.12727272727273,22.997L5.563636363636365,20.032000000000004L2,17.134714285714292"></path></g></svg>