<svg meta="{&quot;DATA_PUBLISHED_DATE&quot;:&quot;2022-02-18&quot;,&quot;RENDER_DATE&quot;:&quot;2022-02-20&quot;,&quot;FIRST_DATE&quot;:&quot;2021-12-17&quot;,&quot;LAST_DATE&quot;:&quot;2022-02-10&quot;}" xmlns="http://www.w3.org/2000/svg" viewBox="0,0,200,100"><g transform="translate(0,0)"></g><g class="fg-bars tests-vaccines" fill="#00183f" stroke="none"><g><rect x="197" y="74.83964285714286" width="2" height="25.160357142857137" id="tests-vaccines-0"></rect></g><g><rect x="193.43636363636364" y="73.62535714285714" width="2" height="26.37464285714286" id="tests-vaccines-1"></rect></g><g><rect x="189.87272727272727" y="73.85357142857143" width="2" height="26.146428571428572" id="tests-vaccines-2"></rect></g><g><rect x="186.30909090909088" y="72.94178571428571" width="2" height="27.058214285714286" id="tests-vaccines-3"></rect></g><g><rect x="182.74545454545455" y="89.48535714285714" width="2" height="10.51464285714286" id="tests-vaccines-4"></rect></g><g><rect x="179.1818181818182" y="76.60178571428571" width="2" height="23.39821428571429" id="tests-vaccines-5"></rect></g><g><rect x="175.61818181818182" y="56.97714285714286" width="2" height="43.02285714285714" id="tests-vaccines-6"></rect></g><g><rect x="172.05454545454546" y="67.52678571428572" width="2" height="32.47321428571428" id="tests-vaccines-7"></rect></g><g><rect x="168.49090909090907" y="66.43785714285715" width="2" height="33.562142857142845" id="tests-vaccines-8"></rect></g><g><rect x="164.92727272727274" y="65.59428571428572" width="2" height="34.40571428571428" id="tests-vaccines-9"></rect></g><g><rect x="161.36363636363637" y="61.68178571428571" width="2" height="38.31821428571429" id="tests-vaccines-10"></rect></g><g><rect x="157.8" y="86.68464285714286" width="2" height="13.315357142857138" id="tests-vaccines-11"></rect></g><g><rect x="154.23636363636365" y="68.56964285714287" width="2" height="31.430357142857133" id="tests-vaccines-12"></rect></g><g><rect x="150.6727272727273" y="41.3925" width="2" height="58.6075" id="tests-vaccines-13"></rect></g><g><rect x="147.1090909090909" y="53.660714285714285" width="2" height="46.339285714285715" id="tests-vaccines-14"></rect></g><g><rect x="143.54545454545453" y="53.555" width="2" height="46.445" id="tests-vaccines-15"></rect></g><g><rect x="139.9818181818182" y="52.89821428571428" width="2" height="47.10178571428572" id="tests-vaccines-16"></rect></g><g><rect x="136.41818181818184" y="53.17142857142857" width="2" height="46.82857142857143" id="tests-vaccines-17"></rect></g><g><rect x="132.85454545454544" y="84.36250000000001" width="2" height="15.637499999999989" id="tests-vaccines-18"></rect></g><g><rect x="129.29090909090908" y="66.98321428571428" width="2" height="33.01678571428572" id="tests-vaccines-19"></rect></g><g><rect x="125.72727272727273" y="35.80857142857143" width="2" height="64.19142857142856" id="tests-vaccines-20"></rect></g><g><rect x="122.16363636363636" y="45.42071428571428" width="2" height="54.57928571428572" id="tests-vaccines-21"></rect></g><g><rect x="118.6" y="42.941428571428574" width="2" height="57.058571428571426" id="tests-vaccines-22"></rect></g><g><rect x="115.03636363636363" y="42.11035714285715" width="2" height="57.88964285714285" id="tests-vaccines-23"></rect></g><g><rect x="111.47272727272728" y="50.865" width="2" height="49.135" id="tests-vaccines-24"></rect></g><g><rect x="107.90909090909089" y="80.87392857142856" width="2" height="19.126071428571436" id="tests-vaccines-25"></rect></g><g><rect x="104.34545454545456" y="59.13178571428571" width="2" height="40.86821428571429" id="tests-vaccines-26"></rect></g><g><rect x="100.78181818181817" y="20.32428571428572" width="2" height="79.67571428571428" id="tests-vaccines-27"></rect></g><g><rect x="97.21818181818183" y="31.966428571428573" width="2" height="68.03357142857143" id="tests-vaccines-28"></rect></g><g><rect x="93.65454545454546" y="29.56928571428571" width="2" height="70.43071428571429" id="tests-vaccines-29"></rect></g><g><rect x="90.09090909090911" y="28.078928571428573" width="2" height="71.92107142857142" id="tests-vaccines-30"></rect></g><g><rect x="86.52727272727273" y="32.43785714285714" width="2" height="67.56214285714286" id="tests-vaccines-31"></rect></g><g><rect x="82.96363636363637" y="77.24214285714285" width="2" height="22.757857142857148" id="tests-vaccines-32"></rect></g><g><rect x="79.4" y="46.60714285714286" width="2" height="53.39285714285714" id="tests-vaccines-33"></rect></g><g><rect x="75.83636363636364" y="3.83" width="2" height="96.17" id="tests-vaccines-34"></rect></g><g><rect x="72.27272727272727" y="17.041428571428575" width="2" height="82.95857142857142" id="tests-vaccines-35"></rect></g><g><rect x="68.70909090909092" y="20.26321428571428" width="2" height="79.73678571428572" id="tests-vaccines-36"></rect></g><g><rect x="65.14545454545454" y="21.722142857142856" width="2" height="78.27785714285714" id="tests-vaccines-37"></rect></g><g><rect x="61.58181818181818" y="27.95428571428571" width="2" height="72.0457142857143" id="tests-vaccines-38"></rect></g><g><rect x="58.018181818181816" y="80.61464285714285" width="2" height="19.385357142857146" id="tests-vaccines-39"></rect></g><g><rect x="54.454545454545446" y="97.1125" width="2" height="2.887500000000003" id="tests-vaccines-40"></rect></g><g><rect x="50.89090909090908" y="72.5125" width="2" height="27.487499999999997" id="tests-vaccines-41"></rect></g><g><rect x="47.32727272727273" y="19.044285714285714" width="2" height="80.9557142857143" id="tests-vaccines-42"></rect></g><g><rect x="43.76363636363636" y="12.892499999999995" width="2" height="87.1075" id="tests-vaccines-43"></rect></g><g><rect x="40.199999999999996" y="12.898214285714282" width="2" height="87.10178571428571" id="tests-vaccines-44"></rect></g><g><rect x="36.636363636363626" y="23.722500000000004" width="2" height="76.2775" id="tests-vaccines-45"></rect></g><g><rect x="33.072727272727285" y="79.80535714285715" width="2" height="20.194642857142853" id="tests-vaccines-46"></rect></g><g><rect x="29.509090909090922" y="99.66535714285715" width="2" height="0.33464285714285325" id="tests-vaccines-47"></rect></g><g><rect x="25.945454545454556" y="83.51571428571428" width="2" height="16.48428571428572" id="tests-vaccines-48"></rect></g><g><rect x="22.38181818181819" y="21.59214285714286" width="2" height="78.40785714285714" id="tests-vaccines-49"></rect></g><g><rect x="18.818181818181824" y="7.627857142857142" width="2" height="92.37214285714286" id="tests-vaccines-50"></rect></g><g><rect x="15.254545454545461" y="4.72285714285714" width="2" height="95.27714285714286" id="tests-vaccines-51"></rect></g><g><rect x="11.690909090909095" y="11.232500000000002" width="2" height="88.7675" id="tests-vaccines-52"></rect></g><g><rect x="8.12727272727273" y="73.84535714285714" width="2" height="26.15464285714286" id="tests-vaccines-53"></rect></g><g><rect x="4.563636363636365" y="48.146428571428565" width="2" height="51.853571428571435" id="tests-vaccines-54"></rect></g><g><rect x="1" y="5.969999999999997" width="2" height="94.03" id="tests-vaccines-55"></rect></g></g><g class="fg-line tests-vaccines" fill="none" stroke="#92c5de" stroke-width="2" stroke-linecap="round"><path d="M198,74.04637755102041L194.43636363636364,73.0016836734694L190.87272727272727,71.97489795918368L187.30909090909088,70.795L183.74545454545455,69.18642857142856L180.1818181818182,68.78632653061226L176.61818181818182,67.6388775510204L173.05454545454546,65.41250000000001L169.49090909090907,63.43163265306122L165.92727272727274,61.59122448979591L162.36363636363637,59.777499999999996L158.8,58.561734693877554L155.23636363636365,58.230000000000004L151.6727272727273,58.003367346938774L148.1090909090909,57.205663265306114L144.54545454545453,56.02852040816326L140.9818181818182,54.51229591836735L137.41818181818184,52.97117346938776L133.85454545454544,52.641683673469394L130.29090909090908,52.14331632653061L126.72727272727273,51.02168367346939L123.16363636363636,48.809642857142855L119.6,46.887602040816326L116.03636363636363,44.97729591836735L112.47272727272728,42.97280612244897L108.90909090909089,40.340357142857144L105.34545454545456,39.82153061224489L101.78181818181817,38.03229591836735L98.21818181818183,35.6759693877551L94.65454545454546,33.54382653061224L91.09090909090911,32.21438775510204L87.52727272727273,31.306275510204074L83.96363636363637,30.66576530612245L80.4,31.14755102040817L76.83636363636364,38.36260204081633L73.27272727272727,48.174387755102046L69.70909090909092,48.46051020408163L66.14545454545454,47.407551020408164L62.58181818181818,46.14698979591837L59.018181818181816,45.54244897959183L55.454545454545446,45.426836734693886L51.89090909090908,45.7915306122449L48.32727272727273,47.36341836734693L44.76363636363636,47.72739795918367L41.199999999999996,46.97530612244898L37.636363636363626,45.807397959183675L34.072727272727285,44.023112244897966L30.509090909090922,43.17168367346939L26.945454545454556,35.811836734693884L23.38181818181819,24.7338775510204L19.818181818181824,24.153673469387748L16.25454545454546,25.288010204081633L12.690909090909095,27.154642857142854L9.12727272727273,28.62841836734693L5.563636363636365,28.680663265306116L2,27.77260204081633"></path></g></svg>