<svg meta="{&quot;DATA_PUBLISHED_DATE&quot;:&quot;2023-07-13&quot;,&quot;RENDER_DATE&quot;:&quot;2023-07-20&quot;,&quot;FIRST_DATE&quot;:&quot;2023-05-14&quot;,&quot;LAST_DATE&quot;:&quot;2023-07-08&quot;}" xmlns="http://www.w3.org/2000/svg" viewBox="0,0,200,100"><g transform="translate(0,0)"></g><g class="fg-bars hospitalizations-count" fill="#00183f" stroke="none"><g><rect x="197" y="27.54545454545455" width="2" height="72.45454545454545" id="hospitalizations-count-0"></rect></g><g><rect x="193.43636363636364" y="26.54545454545455" width="2" height="73.45454545454545" id="hospitalizations-count-1"></rect></g><g><rect x="189.87272727272727" y="26.909090909090907" width="2" height="73.0909090909091" id="hospitalizations-count-2"></rect></g><g><rect x="186.30909090909088" y="25" width="2" height="75" id="hospitalizations-count-3"></rect></g><g><rect x="182.74545454545455" y="38.90909090909091" width="2" height="61.09090909090909" id="hospitalizations-count-4"></rect></g><g><rect x="179.1818181818182" y="41.54545454545454" width="2" height="58.45454545454546" id="hospitalizations-count-5"></rect></g><g><rect x="175.61818181818182" y="48" width="2" height="52" id="hospitalizations-count-6"></rect></g><g><rect x="172.05454545454546" y="31.90909090909091" width="2" height="68.0909090909091" id="hospitalizations-count-7"></rect></g><g><rect x="168.49090909090907" y="31.727272727272727" width="2" height="68.27272727272728" id="hospitalizations-count-8"></rect></g><g><rect x="164.92727272727274" y="26.909090909090907" width="2" height="73.0909090909091" id="hospitalizations-count-9"></rect></g><g><rect x="161.36363636363637" y="26.54545454545455" width="2" height="73.45454545454545" id="hospitalizations-count-10"></rect></g><g><rect x="157.8" y="29.272727272727273" width="2" height="70.72727272727272" id="hospitalizations-count-11"></rect></g><g><rect x="154.23636363636365" y="28.181818181818187" width="2" height="71.81818181818181" id="hospitalizations-count-12"></rect></g><g><rect x="150.6727272727273" y="34.18181818181818" width="2" height="65.81818181818181" id="hospitalizations-count-13"></rect></g><g><rect x="147.1090909090909" y="28.727272727272723" width="2" height="71.27272727272728" id="hospitalizations-count-14"></rect></g><g><rect x="143.54545454545453" y="26.54545454545455" width="2" height="73.45454545454545" id="hospitalizations-count-15"></rect></g><g><rect x="139.9818181818182" y="28.909090909090907" width="2" height="71.0909090909091" id="hospitalizations-count-16"></rect></g><g><rect x="136.41818181818184" y="25.54545454545455" width="2" height="74.45454545454545" id="hospitalizations-count-17"></rect></g><g><rect x="132.85454545454544" y="26.181818181818183" width="2" height="73.81818181818181" id="hospitalizations-count-18"></rect></g><g><rect x="129.29090909090908" y="19.727272727272727" width="2" height="80.27272727272728" id="hospitalizations-count-19"></rect></g><g><rect x="125.72727272727273" y="19.454545454545457" width="2" height="80.54545454545455" id="hospitalizations-count-20"></rect></g><g><rect x="122.16363636363636" y="17.63636363636364" width="2" height="82.36363636363636" id="hospitalizations-count-21"></rect></g><g><rect x="118.6" y="19.999999999999996" width="2" height="80" id="hospitalizations-count-22"></rect></g><g><rect x="115.03636363636363" y="16.272727272727273" width="2" height="83.72727272727272" id="hospitalizations-count-23"></rect></g><g><rect x="111.47272727272728" y="17.272727272727273" width="2" height="82.72727272727272" id="hospitalizations-count-24"></rect></g><g><rect x="107.90909090909089" y="19.90909090909091" width="2" height="80.0909090909091" id="hospitalizations-count-25"></rect></g><g><rect x="104.34545454545456" y="16.54545454545454" width="2" height="83.45454545454547" id="hospitalizations-count-26"></rect></g><g><rect x="100.78181818181817" y="17.454545454545457" width="2" height="82.54545454545455" id="hospitalizations-count-27"></rect></g><g><rect x="97.21818181818183" y="19.63636363636364" width="2" height="80.36363636363636" id="hospitalizations-count-28"></rect></g><g><rect x="93.65454545454546" y="17.09090909090909" width="2" height="82.9090909090909" id="hospitalizations-count-29"></rect></g><g><rect x="90.09090909090911" y="15.54545454545454" width="2" height="84.45454545454547" id="hospitalizations-count-30"></rect></g><g><rect x="86.52727272727273" y="13.818181818181818" width="2" height="86.18181818181819" id="hospitalizations-count-31"></rect></g><g><rect x="82.96363636363637" y="12.181818181818183" width="2" height="87.81818181818181" id="hospitalizations-count-32"></rect></g><g><rect x="79.4" y="12.090909090909086" width="2" height="87.9090909090909" id="hospitalizations-count-33"></rect></g><g><rect x="75.83636363636364" y="14.81818181818182" width="2" height="85.18181818181819" id="hospitalizations-count-34"></rect></g><g><rect x="72.27272727272727" y="15.454545454545453" width="2" height="84.54545454545455" id="hospitalizations-count-35"></rect></g><g><rect x="68.70909090909092" y="13.363636363636367" width="2" height="86.63636363636363" id="hospitalizations-count-36"></rect></g><g><rect x="65.14545454545454" y="11.181818181818182" width="2" height="88.81818181818181" id="hospitalizations-count-37"></rect></g><g><rect x="61.58181818181818" y="6.272727272727274" width="2" height="93.72727272727272" id="hospitalizations-count-38"></rect></g><g><rect x="58.018181818181816" y="8.545454545454545" width="2" height="91.45454545454545" id="hospitalizations-count-39"></rect></g><g><rect x="54.454545454545446" y="12.818181818181817" width="2" height="87.18181818181819" id="hospitalizations-count-40"></rect></g><g><rect x="50.89090909090908" y="11.72727272727273" width="2" height="88.27272727272727" id="hospitalizations-count-41"></rect></g><g><rect x="47.32727272727273" y="9.999999999999998" width="2" height="90" id="hospitalizations-count-42"></rect></g><g><rect x="43.76363636363636" y="9.727272727272728" width="2" height="90.27272727272727" id="hospitalizations-count-43"></rect></g><g><rect x="40.199999999999996" y="5.272727272727273" width="2" height="94.72727272727272" id="hospitalizations-count-44"></rect></g><g><rect x="36.636363636363626" y="1.8181818181818188" width="2" height="98.18181818181819" id="hospitalizations-count-45"></rect></g><g><rect x="33.072727272727285" y="11.363636363636365" width="2" height="88.63636363636364" id="hospitalizations-count-46"></rect></g><g><rect x="29.509090909090922" y="0.4545454545454519" width="2" height="99.54545454545455" id="hospitalizations-count-47"></rect></g><g><rect x="25.945454545454556" y="4.363636363636358" width="2" height="95.63636363636364" id="hospitalizations-count-48"></rect></g><g><rect x="22.38181818181819" y="7.272727272727275" width="2" height="92.72727272727272" id="hospitalizations-count-49"></rect></g><g><rect x="18.818181818181824" y="1.7272727272727217" width="2" height="98.27272727272728" id="hospitalizations-count-50"></rect></g><g><rect x="15.254545454545461" y="3.0909090909090886" width="2" height="96.9090909090909" id="hospitalizations-count-51"></rect></g><g><rect x="11.690909090909095" y="0.363636363636366" width="2" height="99.63636363636364" id="hospitalizations-count-52"></rect></g><g><rect x="8.12727272727273" y="0.8181818181818179" width="2" height="99.18181818181819" id="hospitalizations-count-53"></rect></g><g><rect x="4.563636363636365" y="1.5454545454545499" width="2" height="98.45454545454545" id="hospitalizations-count-54"></rect></g><g><rect x="1" y="4.909090909090907" width="2" height="95.0909090909091" id="hospitalizations-count-55"></rect></g></g><g class="fg-line hospitalizations-count" fill="none" stroke="#92c5de" stroke-width="2" stroke-linecap="round"><path d="M198,33.493506493506494L194.43636363636364,34.11688311688312L190.87272727272727,34.857142857142854L187.30909090909088,34.857142857142854L183.74545454545455,35.07792207792208L180.1818181818182,33.7012987012987L176.61818181818182,31.792207792207783L173.05454545454546,29.81818181818182L169.49090909090907,29.36363636363636L165.92727272727274,28.62337662337663L162.36363636363637,28.909090909090907L158.8,28.766233766233775L155.23636363636365,28.32467532467532L151.6727272727273,27.116883116883116L148.1090909090909,25.012987012987008L144.54545454545453,23.42857142857142L140.9818181818182,22.493506493506498L137.41818181818184,20.68831168831169L133.85454545454544,19.506493506493506L130.29090909090908,18.61038961038961L126.72727272727273,18.155844155844147L123.16363636363636,17.87012987012987L119.6,18.155844155844147L116.03636363636363,17.740259740259734L112.47272727272728,17.63636363636364L108.90909090909089,17.14285714285714L105.34545454545456,16.03896103896104L101.78181818181817,15.402597402597406L98.21818181818183,15.025974025974032L94.65454545454546,14.428571428571423L91.09090909090911,13.896103896103895L87.52727272727273,13.27272727272727L83.96363636363637,12.194805194805191L80.4,11.675324675324672L76.83636363636364,11.779220779220779L73.27272727272727,11.337662337662335L69.70909090909092,10.558441558441556L66.14545454545454,10.038961038961036L62.58181818181818,9.19480519480519L59.018181818181816,8.558441558441555L55.454545454545446,8.961038961038959L51.89090909090908,7.194805194805188L48.32727272727273,6.1428571428571495L44.76363636363636,5.753246753246744L41.199999999999996,4.61038961038962L37.636363636363626,4.298701298701291L34.072727272727285,4.09090909090909L30.509090909090922,2.584415584415578L26.945454545454556,2.740259740259743L23.38181818181819,2.8181818181818197L19.818181818181824,2.675324675324664L16.25454545454546,2.5194805194805214L12.690909090909095,2.0779220779220786L9.12727272727273,0.9610389610389736L5.563636363636365,-0.09090909090909705L2,-1.454545454545464"></path></g></svg>