<svg about="DATA_PUBLISHED_DATE:2021-10-24,RENDER_DATE:2021-10-24" xmlns="http://www.w3.org/2000/svg" viewBox="0,0,200,100"><g transform="translate(0,0)"></g><g class="fg-bars tests-vaccines" fill="#00183f" stroke="none"><g><rect x="197" y="66.42375" width="2" height="33.57625" id="tests-vaccines-0"></rect></g><g><rect x="193.43636363636364" y="28.695000000000004" width="2" height="71.30499999999999" id="tests-vaccines-1"></rect></g><g><rect x="189.87272727272727" y="41.034375" width="2" height="58.965625" id="tests-vaccines-2"></rect></g><g><rect x="186.30909090909088" y="40.20312499999999" width="2" height="59.79687500000001" id="tests-vaccines-3"></rect></g><g><rect x="182.74545454545455" y="36.7075" width="2" height="63.2925" id="tests-vaccines-4"></rect></g><g><rect x="179.1818181818182" y="35.06625" width="2" height="64.93375" id="tests-vaccines-5"></rect></g><g><rect x="175.61818181818182" y="78.305" width="2" height="21.694999999999993" id="tests-vaccines-6"></rect></g><g><rect x="172.05454545454546" y="60.325" width="2" height="39.675" id="tests-vaccines-7"></rect></g><g><rect x="168.49090909090907" y="13.792499999999997" width="2" height="86.20750000000001" id="tests-vaccines-8"></rect></g><g><rect x="164.92727272727274" y="29.019375000000004" width="2" height="70.980625" id="tests-vaccines-9"></rect></g><g><rect x="161.36363636363637" y="33.89" width="2" height="66.11" id="tests-vaccines-10"></rect></g><g><rect x="157.8" y="32.0025" width="2" height="67.9975" id="tests-vaccines-11"></rect></g><g><rect x="154.23636363636365" y="32.235625" width="2" height="67.764375" id="tests-vaccines-12"></rect></g><g><rect x="150.6727272727273" y="76.571875" width="2" height="23.428124999999994" id="tests-vaccines-13"></rect></g><g><rect x="147.1090909090909" y="58.576249999999995" width="2" height="41.423750000000005" id="tests-vaccines-14"></rect></g><g><rect x="143.54545454545453" y="11.470000000000002" width="2" height="88.53" id="tests-vaccines-15"></rect></g><g><rect x="139.9818181818182" y="19.275624999999998" width="2" height="80.72437500000001" id="tests-vaccines-16"></rect></g><g><rect x="136.41818181818184" y="20.990624999999994" width="2" height="79.009375" id="tests-vaccines-17"></rect></g><g><rect x="132.85454545454544" y="20.411875000000002" width="2" height="79.58812499999999" id="tests-vaccines-18"></rect></g><g><rect x="129.29090909090908" y="26.930624999999996" width="2" height="73.06937500000001" id="tests-vaccines-19"></rect></g><g><rect x="125.72727272727273" y="75.84124999999999" width="2" height="24.158750000000012" id="tests-vaccines-20"></rect></g><g><rect x="122.16363636363636" y="56.50124999999999" width="2" height="43.49875000000001" id="tests-vaccines-21"></rect></g><g><rect x="118.6" y="33.504374999999996" width="2" height="66.495625" id="tests-vaccines-22"></rect></g><g><rect x="115.03636363636363" y="55.81499999999999" width="2" height="44.18500000000001" id="tests-vaccines-23"></rect></g><g><rect x="111.47272727272728" y="55.706875" width="2" height="44.293125" id="tests-vaccines-24"></rect></g><g><rect x="107.90909090909089" y="54.309374999999996" width="2" height="45.690625000000004" id="tests-vaccines-25"></rect></g><g><rect x="104.34545454545456" y="50.270625" width="2" height="49.729375" id="tests-vaccines-26"></rect></g><g><rect x="100.78181818181817" y="79.5925" width="2" height="20.4075" id="tests-vaccines-27"></rect></g><g><rect x="97.21818181818183" y="64.501875" width="2" height="35.498125" id="tests-vaccines-28"></rect></g><g><rect x="93.65454545454546" y="40.18125" width="2" height="59.81875" id="tests-vaccines-29"></rect></g><g><rect x="90.09090909090911" y="48.759375000000006" width="2" height="51.240624999999994" id="tests-vaccines-30"></rect></g><g><rect x="86.52727272727273" y="50.314375" width="2" height="49.685625" id="tests-vaccines-31"></rect></g><g><rect x="82.96363636363637" y="49.7925" width="2" height="50.2075" id="tests-vaccines-32"></rect></g><g><rect x="79.4" y="47.34125" width="2" height="52.65875" id="tests-vaccines-33"></rect></g><g><rect x="75.83636363636364" y="77.9275" width="2" height="22.072500000000005" id="tests-vaccines-34"></rect></g><g><rect x="72.27272727272727" y="60.589999999999996" width="2" height="39.410000000000004" id="tests-vaccines-35"></rect></g><g><rect x="68.70909090909092" y="32.639375" width="2" height="67.360625" id="tests-vaccines-36"></rect></g><g><rect x="65.14545454545454" y="44.765625" width="2" height="55.234375" id="tests-vaccines-37"></rect></g><g><rect x="61.58181818181818" y="44.279375" width="2" height="55.720625" id="tests-vaccines-38"></rect></g><g><rect x="58.018181818181816" y="38.40125" width="2" height="61.59875" id="tests-vaccines-39"></rect></g><g><rect x="54.454545454545446" y="87.8825" width="2" height="12.117500000000007" id="tests-vaccines-40"></rect></g><g><rect x="50.89090909090908" y="76.18875" width="2" height="23.81125" id="tests-vaccines-41"></rect></g><g><rect x="47.32727272727273" y="59.974375" width="2" height="40.025625" id="tests-vaccines-42"></rect></g><g><rect x="43.76363636363636" y="26.13" width="2" height="73.87" id="tests-vaccines-43"></rect></g><g><rect x="40.199999999999996" y="41.165" width="2" height="58.835" id="tests-vaccines-44"></rect></g><g><rect x="36.636363636363626" y="39.043125" width="2" height="60.956875" id="tests-vaccines-45"></rect></g><g><rect x="33.072727272727285" y="36.97625" width="2" height="63.02375" id="tests-vaccines-46"></rect></g><g><rect x="29.509090909090922" y="36.571875" width="2" height="63.428125" id="tests-vaccines-47"></rect></g><g><rect x="25.945454545454556" y="73.38374999999999" width="2" height="26.616250000000008" id="tests-vaccines-48"></rect></g><g><rect x="22.38181818181819" y="51.3575" width="2" height="48.6425" id="tests-vaccines-49"></rect></g><g><rect x="18.818181818181824" y="19.799999999999997" width="2" height="80.2" id="tests-vaccines-50"></rect></g><g><rect x="15.254545454545461" y="34.8875" width="2" height="65.1125" id="tests-vaccines-51"></rect></g><g><rect x="11.690909090909095" y="35.779375" width="2" height="64.220625" id="tests-vaccines-52"></rect></g><g><rect x="8.12727272727273" y="33.32875" width="2" height="66.67125" id="tests-vaccines-53"></rect></g><g><rect x="4.563636363636365" y="33.720625000000005" width="2" height="66.27937499999999" id="tests-vaccines-54"></rect></g><g><rect x="1" y="73.73875" width="2" height="26.261250000000004" id="tests-vaccines-55"></rect></g></g><g class="fg-line tests-vaccines" fill="none" stroke="#92c5de" stroke-width="2" stroke-linecap="round"><path d="M198,46.63357142857143L194.43636363636364,45.762321428571425L190.87272727272727,43.63339285714285L187.30909090909088,41.916964285714286L183.74545454545455,41.01508928571428L180.1818181818182,40.34294642857144L176.61818181818182,39.938571428571436L173.05454545454546,39.690982142857145L169.49090909090907,39.441160714285715L165.92727272727274,39.109375L162.36363636363637,37.71741071428571L158.8,35.87464285714286L155.23636363636365,34.21883928571429L151.6727272727273,33.46098214285714L148.1090909090909,33.35660714285714L144.54545454545453,33.060178571428565L140.9818181818182,36.20794642857143L137.41818181818184,41.42785714285715L133.85454545454544,46.387321428571425L130.29090909090908,51.229821428571434L126.72727272727273,54.564107142857154L123.16363636363636,55.099999999999994L119.6,56.242946428571436L116.03636363636363,57.19678571428572L112.47272727272728,56.18883928571429L108.90909090909089,55.41848214285714L105.34545454545456,54.77321428571429L101.78181818181817,54.35473214285715L98.21818181818183,54.116875L94.65454545454546,53.55803571428572L91.09090909090911,52.48062499999999L87.52727272727273,51.91008928571428L83.96363636363637,51.047946428571436L80.4,49.420624999999994L76.83636363636364,55.212232142857154L73.27272727272727,54.963839285714286L69.70909090909092,54.87589285714285L66.14545454545454,53.945982142857154L62.58181818181818,53.43160714285715L59.018181818181816,52.683571428571426L55.454545454545446,52.47999999999999L51.89090909090908,45.14991071428571L48.32727272727273,44.74919642857144L44.76363636363636,43.518214285714286L41.199999999999996,42.61392857142857L37.636363636363626,41.71714285714285L34.072727272727285,41.25089285714285L30.509090909090922,40.729821428571434L26.945454545454556,40.32249999999999L23.38181818181819,40.37321428571429L19.818181818181824,40.54892857142857L16.25454545454546,40.68133928571428L12.690909090909095,40.89803571428572L9.12727272727273,40.964464285714286L5.563636363636365,41.35660714285715L2,42.13785714285715"></path></g></svg>