<svg meta="{&quot;DATA_PUBLISHED_DATE&quot;:&quot;2022-09-09&quot;,&quot;RENDER_DATE&quot;:&quot;2022-09-09&quot;,&quot;FIRST_DATE&quot;:&quot;2022-06-23&quot;,&quot;LAST_DATE&quot;:&quot;2022-08-17&quot;}" xmlns="http://www.w3.org/2000/svg" viewBox="0,0,200,100"><g transform="translate(0,0)"></g><g class="fg-bars death-date" fill="#00183f" stroke="none"><g><rect x="197" y="64.28571428571428" width="2" height="35.71428571428572" id="death-date-0"></rect></g><g><rect x="193.43636363636364" y="54.28571428571429" width="2" height="45.71428571428571" id="death-date-1"></rect></g><g><rect x="189.87272727272727" y="67.14285714285715" width="2" height="32.85714285714285" id="death-date-2"></rect></g><g><rect x="186.30909090909088" y="51.42857142857142" width="2" height="48.57142857142858" id="death-date-3"></rect></g><g><rect x="182.74545454545455" y="64.28571428571428" width="2" height="35.71428571428572" id="death-date-4"></rect></g><g><rect x="179.1818181818182" y="37.142857142857146" width="2" height="62.857142857142854" id="death-date-5"></rect></g><g><rect x="175.61818181818182" y="51.42857142857142" width="2" height="48.57142857142858" id="death-date-6"></rect></g><g><rect x="172.05454545454546" y="48.57142857142858" width="2" height="51.42857142857142" id="death-date-7"></rect></g><g><rect x="168.49090909090907" y="40" width="2" height="60" id="death-date-8"></rect></g><g><rect x="164.92727272727274" y="48.57142857142858" width="2" height="51.42857142857142" id="death-date-9"></rect></g><g><rect x="161.36363636363637" y="54.28571428571429" width="2" height="45.71428571428571" id="death-date-10"></rect></g><g><rect x="157.8" y="48.57142857142858" width="2" height="51.42857142857142" id="death-date-11"></rect></g><g><rect x="154.23636363636365" y="17.14285714285714" width="2" height="82.85714285714286" id="death-date-12"></rect></g><g><rect x="150.6727272727273" y="47.14285714285714" width="2" height="52.85714285714286" id="death-date-13"></rect></g><g><rect x="147.1090909090909" y="37.142857142857146" width="2" height="62.857142857142854" id="death-date-14"></rect></g><g><rect x="143.54545454545453" y="48.57142857142858" width="2" height="51.42857142857142" id="death-date-15"></rect></g><g><rect x="139.9818181818182" y="40" width="2" height="60" id="death-date-16"></rect></g><g><rect x="136.41818181818184" y="38.57142857142857" width="2" height="61.42857142857143" id="death-date-17"></rect></g><g><rect x="132.85454545454544" y="31.428571428571427" width="2" height="68.57142857142857" id="death-date-18"></rect></g><g><rect x="129.29090909090908" y="45.714285714285715" width="2" height="54.285714285714285" id="death-date-19"></rect></g><g><rect x="125.72727272727273" y="28.57142857142857" width="2" height="71.42857142857143" id="death-date-20"></rect></g><g><rect x="122.16363636363636" y="28.57142857142857" width="2" height="71.42857142857143" id="death-date-21"></rect></g><g><rect x="118.6" y="34.285714285714285" width="2" height="65.71428571428572" id="death-date-22"></rect></g><g><rect x="115.03636363636363" y="5.714285714285716" width="2" height="94.28571428571428" id="death-date-23"></rect></g><g><rect x="111.47272727272728" y="41.42857142857142" width="2" height="58.57142857142858" id="death-date-24"></rect></g><g><rect x="107.90909090909089" y="51.42857142857142" width="2" height="48.57142857142858" id="death-date-25"></rect></g><g><rect x="104.34545454545456" y="34.285714285714285" width="2" height="65.71428571428572" id="death-date-26"></rect></g><g><rect x="100.78181818181817" y="52.85714285714286" width="2" height="47.14285714285714" id="death-date-27"></rect></g><g><rect x="97.21818181818183" y="12.857142857142856" width="2" height="87.14285714285714" id="death-date-28"></rect></g><g><rect x="93.65454545454546" y="32.85714285714286" width="2" height="67.14285714285714" id="death-date-29"></rect></g><g><rect x="90.09090909090911" y="41.42857142857142" width="2" height="58.57142857142858" id="death-date-30"></rect></g><g><rect x="86.52727272727273" y="31.428571428571427" width="2" height="68.57142857142857" id="death-date-31"></rect></g><g><rect x="82.96363636363637" y="50" width="2" height="50" id="death-date-32"></rect></g><g><rect x="79.4" y="44.285714285714285" width="2" height="55.714285714285715" id="death-date-33"></rect></g><g><rect x="75.83636363636364" y="47.14285714285714" width="2" height="52.85714285714286" id="death-date-34"></rect></g><g><rect x="72.27272727272727" y="54.28571428571429" width="2" height="45.71428571428571" id="death-date-35"></rect></g><g><rect x="68.70909090909092" y="34.285714285714285" width="2" height="65.71428571428572" id="death-date-36"></rect></g><g><rect x="65.14545454545454" y="47.14285714285714" width="2" height="52.85714285714286" id="death-date-37"></rect></g><g><rect x="61.58181818181818" y="48.57142857142858" width="2" height="51.42857142857142" id="death-date-38"></rect></g><g><rect x="58.018181818181816" y="37.142857142857146" width="2" height="62.857142857142854" id="death-date-39"></rect></g><g><rect x="54.454545454545446" y="25.71428571428571" width="2" height="74.28571428571429" id="death-date-40"></rect></g><g><rect x="50.89090909090908" y="58.57142857142856" width="2" height="41.42857142857144" id="death-date-41"></rect></g><g><rect x="47.32727272727273" y="41.42857142857142" width="2" height="58.57142857142858" id="death-date-42"></rect></g><g><rect x="43.76363636363636" y="55.714285714285715" width="2" height="44.285714285714285" id="death-date-43"></rect></g><g><rect x="40.199999999999996" y="38.57142857142857" width="2" height="61.42857142857143" id="death-date-44"></rect></g><g><rect x="36.636363636363626" y="38.57142857142857" width="2" height="61.42857142857143" id="death-date-45"></rect></g><g><rect x="33.072727272727285" y="34.285714285714285" width="2" height="65.71428571428572" id="death-date-46"></rect></g><g><rect x="29.509090909090922" y="52.85714285714286" width="2" height="47.14285714285714" id="death-date-47"></rect></g><g><rect x="25.945454545454556" y="50" width="2" height="50" id="death-date-48"></rect></g><g><rect x="22.38181818181819" y="57.14285714285714" width="2" height="42.85714285714286" id="death-date-49"></rect></g><g><rect x="18.818181818181824" y="58.57142857142856" width="2" height="41.42857142857144" id="death-date-50"></rect></g><g><rect x="15.254545454545461" y="61.42857142857143" width="2" height="38.57142857142857" id="death-date-51"></rect></g><g><rect x="11.690909090909095" y="61.42857142857143" width="2" height="38.57142857142857" id="death-date-52"></rect></g><g><rect x="8.12727272727273" y="68.57142857142857" width="2" height="31.42857142857143" id="death-date-53"></rect></g><g><rect x="4.563636363636365" y="54.28571428571429" width="2" height="45.71428571428571" id="death-date-54"></rect></g><g><rect x="1" y="51.42857142857142" width="2" height="48.57142857142858" id="death-date-55"></rect></g></g><g class="fg-line death-date" fill="none" stroke="#92c5de" stroke-width="2" stroke-linecap="round"><path d="M198,55.714285714285715L194.43636363636364,53.46938775510204L190.87272727272727,51.42857142857142L187.30909090909088,48.77551020408164L183.74545454545455,49.183673469387756L180.1818181818182,46.93877551020408L176.61818181818182,44.08163265306122L173.05454545454546,43.46938775510204L169.49090909090907,41.83673469387755L165.92727272727274,43.061224489795926L162.36363636363637,41.83673469387755L158.8,39.59183673469388L155.23636363636365,37.142857142857146L151.6727272727273,41.22448979591836L148.1090909090909,38.57142857142857L144.54545454545453,37.34693877551021L140.9818181818182,35.30612244897959L137.41818181818184,30.408163265306122L133.85454545454544,30.816326530612237L130.29090909090908,33.6734693877551L126.72727272727273,32.04081632653062L123.16363636363636,35.510204081632644L119.6,33.265306122448976L116.03636363636363,33.061224489795926L112.47272727272728,38.163265306122454L108.90909090909089,36.73469387755102L105.34545454545456,36.53061224489795L101.78181818181817,37.95918367346939L98.21818181818183,37.142857142857146L94.65454545454546,43.061224489795926L91.09090909090911,43.265306122448976L87.52727272727273,44.08163265306122L83.96363636363637,46.53061224489795L80.4,44.693877551020414L76.83636363636364,42.04081632653062L73.27272727272727,43.673469387755105L69.70909090909092,41.83673469387755L66.14545454545454,44.89795918367348L62.58181818181818,43.673469387755105L59.018181818181816,42.24489795918367L55.454545454545446,41.83673469387755L51.89090909090908,45.714285714285715L48.32727272727273,44.48979591836735L44.76363636363636,46.734693877551024L41.199999999999996,47.14285714285714L37.636363636363626,50.40816326530613L34.072727272727285,53.673469387755105L30.509090909090922,58.57142857142856L26.945454545454556,58.77551020408163L23.38181818181819,58.97959183673469L19.818181818181824,57.75510204081633L16.25454545454546,58.36734693877551L12.690909090909095,58.163265306122454L9.12727272727273,57.75510204081633L5.563636363636365,56.53061224489796L2,55.51020408163265"></path></g></svg>