<svg meta="{&quot;DATA_PUBLISHED_DATE&quot;:&quot;2022-06-17&quot;,&quot;RENDER_DATE&quot;:&quot;2022-06-17&quot;,&quot;FIRST_DATE&quot;:&quot;2022-04-15&quot;,&quot;LAST_DATE&quot;:&quot;2022-06-09&quot;}" xmlns="http://www.w3.org/2000/svg" viewBox="0,0,200,100"><g transform="translate(0,0)"></g><g class="fg-bars tests-vaccines" fill="#00183f" stroke="none"><g><rect x="197" y="48.94444444444444" width="2" height="51.05555555555556" id="tests-vaccines-0"></rect></g><g><rect x="193.43636363636364" y="46.31999999999999" width="2" height="53.68000000000001" id="tests-vaccines-1"></rect></g><g><rect x="189.87272727272727" y="46.56888888888889" width="2" height="53.43111111111111" id="tests-vaccines-2"></rect></g><g><rect x="186.30909090909088" y="43.74777777777778" width="2" height="56.25222222222222" id="tests-vaccines-3"></rect></g><g><rect x="182.74545454545455" y="81.59333333333333" width="2" height="18.406666666666666" id="tests-vaccines-4"></rect></g><g><rect x="179.1818181818182" y="61.59444444444444" width="2" height="38.40555555555556" id="tests-vaccines-5"></rect></g><g><rect x="175.61818181818182" y="26.43444444444445" width="2" height="73.56555555555555" id="tests-vaccines-6"></rect></g><g><rect x="172.05454545454546" y="40.022222222222226" width="2" height="59.977777777777774" id="tests-vaccines-7"></rect></g><g><rect x="168.49090909090907" y="36.7" width="2" height="63.3" id="tests-vaccines-8"></rect></g><g><rect x="164.92727272727274" y="30.71222222222222" width="2" height="69.28777777777778" id="tests-vaccines-9"></rect></g><g><rect x="161.36363636363637" y="96.1588888888889" width="2" height="3.841111111111104" id="tests-vaccines-10"></rect></g><g><rect x="157.8" y="77.63" width="2" height="22.370000000000005" id="tests-vaccines-11"></rect></g><g><rect x="154.23636363636365" y="59.93999999999999" width="2" height="40.06000000000001" id="tests-vaccines-12"></rect></g><g><rect x="150.6727272727273" y="16.351111111111116" width="2" height="83.64888888888888" id="tests-vaccines-13"></rect></g><g><rect x="147.1090909090909" y="36.11444444444445" width="2" height="63.88555555555555" id="tests-vaccines-14"></rect></g><g><rect x="143.54545454545453" y="32.34111111111111" width="2" height="67.6588888888889" id="tests-vaccines-15"></rect></g><g><rect x="139.9818181818182" y="32.352222222222224" width="2" height="67.64777777777778" id="tests-vaccines-16"></rect></g><g><rect x="136.41818181818184" y="31.055555555555557" width="2" height="68.94444444444444" id="tests-vaccines-17"></rect></g><g><rect x="132.85454545454544" y="75.27777777777777" width="2" height="24.72222222222223" id="tests-vaccines-18"></rect></g><g><rect x="129.29090909090908" y="55.15444444444444" width="2" height="44.84555555555556" id="tests-vaccines-19"></rect></g><g><rect x="125.72727272727273" y="16.049999999999997" width="2" height="83.95" id="tests-vaccines-20"></rect></g><g><rect x="122.16363636363636" y="32.87555555555556" width="2" height="67.12444444444444" id="tests-vaccines-21"></rect></g><g><rect x="118.6" y="36.025555555555556" width="2" height="63.974444444444444" id="tests-vaccines-22"></rect></g><g><rect x="115.03636363636363" y="38.312222222222225" width="2" height="61.687777777777775" id="tests-vaccines-23"></rect></g><g><rect x="111.47272727272728" y="38.64222222222222" width="2" height="61.35777777777778" id="tests-vaccines-24"></rect></g><g><rect x="107.90909090909089" y="80.71000000000001" width="2" height="19.289999999999992" id="tests-vaccines-25"></rect></g><g><rect x="104.34545454545456" y="62.59" width="2" height="37.41" id="tests-vaccines-26"></rect></g><g><rect x="100.78181818181817" y="22.771111111111107" width="2" height="77.22888888888889" id="tests-vaccines-27"></rect></g><g><rect x="97.21818181818183" y="32.675555555555555" width="2" height="67.32444444444445" id="tests-vaccines-28"></rect></g><g><rect x="93.65454545454546" y="33.48444444444444" width="2" height="66.51555555555555" id="tests-vaccines-29"></rect></g><g><rect x="90.09090909090911" y="37.32444444444445" width="2" height="62.67555555555555" id="tests-vaccines-30"></rect></g><g><rect x="86.52727272727273" y="38.408888888888896" width="2" height="61.591111111111104" id="tests-vaccines-31"></rect></g><g><rect x="82.96363636363637" y="85.78222222222223" width="2" height="14.21777777777777" id="tests-vaccines-32"></rect></g><g><rect x="79.4" y="66.25333333333333" width="2" height="33.74666666666667" id="tests-vaccines-33"></rect></g><g><rect x="75.83636363636364" y="23.493333333333332" width="2" height="76.50666666666666" id="tests-vaccines-34"></rect></g><g><rect x="72.27272727272727" y="34.315555555555555" width="2" height="65.68444444444444" id="tests-vaccines-35"></rect></g><g><rect x="68.70909090909092" y="34.330000000000005" width="2" height="65.66999999999999" id="tests-vaccines-36"></rect></g><g><rect x="65.14545454545454" y="34.711111111111116" width="2" height="65.28888888888889" id="tests-vaccines-37"></rect></g><g><rect x="61.58181818181818" y="34.973333333333336" width="2" height="65.02666666666667" id="tests-vaccines-38"></rect></g><g><rect x="58.018181818181816" y="80.03222222222222" width="2" height="19.967777777777783" id="tests-vaccines-39"></rect></g><g><rect x="54.454545454545446" y="61.34777777777778" width="2" height="38.65222222222222" id="tests-vaccines-40"></rect></g><g><rect x="50.89090909090908" y="14.946666666666664" width="2" height="85.05333333333334" id="tests-vaccines-41"></rect></g><g><rect x="47.32727272727273" y="26.22444444444444" width="2" height="73.77555555555556" id="tests-vaccines-42"></rect></g><g><rect x="43.76363636363636" y="26.854444444444447" width="2" height="73.14555555555555" id="tests-vaccines-43"></rect></g><g><rect x="40.199999999999996" y="28.03333333333333" width="2" height="71.96666666666667" id="tests-vaccines-44"></rect></g><g><rect x="36.636363636363626" y="28.668888888888887" width="2" height="71.33111111111111" id="tests-vaccines-45"></rect></g><g><rect x="33.072727272727285" y="79.06222222222222" width="2" height="20.937777777777782" id="tests-vaccines-46"></rect></g><g><rect x="29.509090909090922" y="58.25111111111111" width="2" height="41.74888888888889" id="tests-vaccines-47"></rect></g><g><rect x="25.945454545454556" y="28.093333333333337" width="2" height="71.90666666666667" id="tests-vaccines-48"></rect></g><g><rect x="22.38181818181819" y="20.87333333333333" width="2" height="79.12666666666667" id="tests-vaccines-49"></rect></g><g><rect x="18.818181818181824" y="19.59444444444445" width="2" height="80.40555555555555" id="tests-vaccines-50"></rect></g><g><rect x="15.254545454545461" y="15.735555555555559" width="2" height="84.26444444444444" id="tests-vaccines-51"></rect></g><g><rect x="11.690909090909095" y="15.495555555555551" width="2" height="84.50444444444445" id="tests-vaccines-52"></rect></g><g><rect x="8.12727272727273" y="88.78333333333333" width="2" height="11.216666666666669" id="tests-vaccines-53"></rect></g><g><rect x="4.563636363636365" y="55.580000000000005" width="2" height="44.419999999999995" id="tests-vaccines-54"></rect></g><g><rect x="1" y="4.217777777777776" width="2" height="95.78222222222223" id="tests-vaccines-55"></rect></g></g><g class="fg-line tests-vaccines" fill="none" stroke="#92c5de" stroke-width="2" stroke-linecap="round"><path d="M198,50.74333333333334L194.43636363636364,49.46873015873015L190.87272727272727,48.09444444444444L187.30909090909088,45.82920634920635L183.74545454545455,53.31650793650794L180.1818181818182,52.75031746031746L176.61818181818182,52.51396825396826L173.05454545454546,51.073492063492054L169.49090909090907,50.51523809523809L165.92727272727274,49.892539682539685L162.36363636363637,50.12682539682539L158.8,40.8263492063492L155.23636363636365,40.490317460317456L151.6727272727273,39.806666666666665L148.1090909090909,39.7636507936508L144.54545454545453,39.30095238095238L140.9818181818182,39.82730158730159L137.41818181818184,40.67873015873016L133.85454545454544,41.76253968253969L130.29090909090908,42.53857142857142L126.72727272727273,43.60079365079365L123.16363636363636,44.56095238095238L119.6,44.53238095238095L116.03636363636363,44.169365079365086L112.47272727272728,44.02825396825397L108.90909090909089,43.99492063492063L105.34545454545456,44.71952380952381L101.78181818181817,45.24285714285714L98.21818181818183,45.34603174603175L94.65454545454546,45.58031746031747L91.09090909090911,45.70111111111112L87.52727272727273,45.327777777777776L83.96363636363637,44.83698412698413L80.4,44.01555555555555L76.83636363636364,43.31476190476191L73.27272727272727,42.093809523809526L69.70909090909092,40.9379365079365L66.14545454545454,39.870000000000005L62.58181818181818,38.91603174603174L59.018181818181816,38.01539682539683L55.454545454545446,37.876825396825396L51.89090909090908,37.434444444444445L48.32727272727273,39.31253968253968L44.76363636363636,38.548095238095236L41.199999999999996,37.510952380952375L37.636363636363626,35.75412698412698L34.072727272727285,33.87222222222223L30.509090909090922,35.26095238095238L26.945454545454556,34.87936507936508L23.38181818181819,31.468571428571423L19.818181818181824,30.20222222222222L16.25454545454546,28.790952380952383L12.690909090909095,27.33269841269841L9.12727272727273,26.355555555555554L5.563636363636365,23.666031746031734L2,22.535555555555554"></path></g></svg>