<svg meta="{&quot;DATA_PUBLISHED_DATE&quot;:&quot;2022-05-24&quot;,&quot;RENDER_DATE&quot;:&quot;2022-05-24&quot;,&quot;FIRST_DATE&quot;:&quot;2022-03-22&quot;,&quot;LAST_DATE&quot;:&quot;2022-05-16&quot;}" xmlns="http://www.w3.org/2000/svg" viewBox="0,0,200,100"><g transform="translate(0,0)"></g><g class="fg-bars tests-vaccines" fill="#00183f" stroke="none"><g><rect x="197" y="45.479" width="2" height="54.521" id="tests-vaccines-0"></rect></g><g><rect x="193.43636363636364" y="82.765" width="2" height="17.235" id="tests-vaccines-1"></rect></g><g><rect x="189.87272727272727" y="66.526" width="2" height="33.474000000000004" id="tests-vaccines-2"></rect></g><g><rect x="186.30909090909088" y="31.365" width="2" height="68.635" id="tests-vaccines-3"></rect></g><g><rect x="182.74545454545455" y="39.967" width="2" height="60.033" id="tests-vaccines-4"></rect></g><g><rect x="179.1818181818182" y="40.742" width="2" height="59.258" id="tests-vaccines-5"></rect></g><g><rect x="175.61818181818182" y="44.25" width="2" height="55.75" id="tests-vaccines-6"></rect></g><g><rect x="172.05454545454546" y="44.843999999999994" width="2" height="55.156000000000006" id="tests-vaccines-7"></rect></g><g><rect x="168.49090909090907" y="87.268" width="2" height="12.732" id="tests-vaccines-8"></rect></g><g><rect x="164.92727272727274" y="69.745" width="2" height="30.254999999999995" id="tests-vaccines-9"></rect></g><g><rect x="161.36363636363637" y="31.588000000000005" width="2" height="68.41199999999999" id="tests-vaccines-10"></rect></g><g><rect x="157.8" y="41.151" width="2" height="58.849" id="tests-vaccines-11"></rect></g><g><rect x="154.23636363636365" y="41.164" width="2" height="58.836" id="tests-vaccines-12"></rect></g><g><rect x="150.6727272727273" y="41.678000000000004" width="2" height="58.321999999999996" id="tests-vaccines-13"></rect></g><g><rect x="147.1090909090909" y="41.900000000000006" width="2" height="58.099999999999994" id="tests-vaccines-14"></rect></g><g><rect x="143.54545454545453" y="82.134" width="2" height="17.866" id="tests-vaccines-15"></rect></g><g><rect x="139.9818181818182" y="65.429" width="2" height="34.571" id="tests-vaccines-16"></rect></g><g><rect x="136.41818181818184" y="29.154000000000003" width="2" height="70.846" id="tests-vaccines-17"></rect></g><g><rect x="132.85454545454544" y="33.965999999999994" width="2" height="66.034" id="tests-vaccines-18"></rect></g><g><rect x="129.29090909090908" y="34.472" width="2" height="65.52799999999999" id="tests-vaccines-19"></rect></g><g><rect x="125.72727272727273" y="35.653" width="2" height="64.34700000000001" id="tests-vaccines-20"></rect></g><g><rect x="122.16363636363636" y="36.102999999999994" width="2" height="63.897000000000006" id="tests-vaccines-21"></rect></g><g><rect x="118.6" y="81.34599999999999" width="2" height="18.65400000000001" id="tests-vaccines-22"></rect></g><g><rect x="115.03636363636363" y="62.612" width="2" height="37.388" id="tests-vaccines-23"></rect></g><g><rect x="111.47272727272728" y="35.857000000000006" width="2" height="64.143" id="tests-vaccines-24"></rect></g><g><rect x="107.90909090909089" y="29.101" width="2" height="70.899" id="tests-vaccines-25"></rect></g><g><rect x="104.34545454545456" y="27.936000000000007" width="2" height="72.064" id="tests-vaccines-26"></rect></g><g><rect x="100.78181818181817" y="24.378" width="2" height="75.622" id="tests-vaccines-27"></rect></g><g><rect x="97.21818181818183" y="24.289000000000005" width="2" height="75.711" id="tests-vaccines-28"></rect></g><g><rect x="93.65454545454546" y="89.934" width="2" height="10.066000000000003" id="tests-vaccines-29"></rect></g><g><rect x="90.09090909090911" y="60.145" width="2" height="39.855" id="tests-vaccines-30"></rect></g><g><rect x="86.52727272727273" y="14.075000000000005" width="2" height="85.925" id="tests-vaccines-31"></rect></g><g><rect x="82.96363636363637" y="21.006000000000004" width="2" height="78.994" id="tests-vaccines-32"></rect></g><g><rect x="79.4" y="18.994999999999994" width="2" height="81.00500000000001" id="tests-vaccines-33"></rect></g><g><rect x="75.83636363636364" y="15.230999999999995" width="2" height="84.769" id="tests-vaccines-34"></rect></g><g><rect x="72.27272727272727" y="17.964000000000002" width="2" height="82.036" id="tests-vaccines-35"></rect></g><g><rect x="68.70909090909092" y="73.019" width="2" height="26.980999999999995" id="tests-vaccines-36"></rect></g><g><rect x="65.14545454545454" y="54.181000000000004" width="2" height="45.818999999999996" id="tests-vaccines-37"></rect></g><g><rect x="61.58181818181818" y="12.809999999999999" width="2" height="87.19" id="tests-vaccines-38"></rect></g><g><rect x="58.018181818181816" y="24.461999999999996" width="2" height="75.53800000000001" id="tests-vaccines-39"></rect></g><g><rect x="54.454545454545446" y="24.732" width="2" height="75.268" id="tests-vaccines-40"></rect></g><g><rect x="50.89090909090908" y="23.812" width="2" height="76.188" id="tests-vaccines-41"></rect></g><g><rect x="47.32727272727273" y="23.458000000000002" width="2" height="76.542" id="tests-vaccines-42"></rect></g><g><rect x="43.76363636363636" y="73.797" width="2" height="26.203000000000003" id="tests-vaccines-43"></rect></g><g><rect x="40.199999999999996" y="53.461000000000006" width="2" height="46.538999999999994" id="tests-vaccines-44"></rect></g><g><rect x="36.636363636363626" y="8.489999999999998" width="2" height="91.51" id="tests-vaccines-45"></rect></g><g><rect x="33.072727272727285" y="26.395000000000003" width="2" height="73.60499999999999" id="tests-vaccines-46"></rect></g><g><rect x="29.509090909090922" y="38.737" width="2" height="61.263" id="tests-vaccines-47"></rect></g><g><rect x="25.945454545454556" y="68.116" width="2" height="31.884" id="tests-vaccines-48"></rect></g><g><rect x="22.38181818181819" y="73.97" width="2" height="26.03" id="tests-vaccines-49"></rect></g><g><rect x="18.818181818181824" y="89.854" width="2" height="10.146" id="tests-vaccines-50"></rect></g><g><rect x="15.254545454545461" y="80.518" width="2" height="19.482" id="tests-vaccines-51"></rect></g><g><rect x="11.690909090909095" y="62.82600000000001" width="2" height="37.17399999999999" id="tests-vaccines-52"></rect></g><g><rect x="8.12727272727273" y="70.93" width="2" height="29.069999999999993" id="tests-vaccines-53"></rect></g><g><rect x="4.563636363636365" y="69.89699999999999" width="2" height="30.10300000000001" id="tests-vaccines-54"></rect></g><g><rect x="1" y="70.789" width="2" height="29.211" id="tests-vaccines-55"></rect></g></g><g class="fg-line tests-vaccines" fill="none" stroke="#92c5de" stroke-width="2" stroke-linecap="round"><path d="M198,50.15628571428572L194.43636363636364,50.06557142857142L190.87272727272727,50.70885714285714L187.30909090909088,51.16871428571428L183.74545454545455,51.20057142857143L180.1818181818182,51.36971428571429L176.61818181818182,51.43L173.05454545454546,51.062571428571424L169.49090909090907,50.641999999999996L165.92727272727274,49.90857142857143L162.36363636363637,49.292L158.8,48.94428571428572L155.23636363636365,47.917857142857144L151.6727272727273,46.96185714285714L148.1090909090909,46.101142857142854L144.54545454545453,45.272999999999996L140.9818181818182,45.16042857142857L137.41818181818184,44.757999999999996L133.85454545454544,45.71557142857142L130.29090909090908,45.02057142857143L126.72727272727273,44.08685714285715L123.16363636363636,42.476142857142854L119.6,40.78842857142857L116.03636363636363,42.015285714285724L112.47272727272728,41.66285714285715L108.90909090909089,38.55114285714285L105.34545454545456,37.39471428571428L101.78181818181817,36.11742857142857L98.21818181818183,34.81071428571428L94.65454545454546,33.90714285714286L91.09090909090911,31.490714285714294L87.52727272727273,30.638714285714286L83.96363636363637,30.457999999999995L80.4,30.951714285714292L76.83636363636364,31.771285714285714L73.27272727272727,32.99714285714286L69.70909090909092,33.782000000000004L66.14545454545454,33.893142857142855L62.58181818181818,33.79028571428571L59.018181818181816,33.17314285714286L55.454545454545446,33.449285714285715L51.89090909090908,35.45L48.32727272727273,41.77914285714286L44.76363636363636,48.99514285714286L41.199999999999996,51.28900000000001L37.636363636363626,55.15428571428571L34.072727272727285,62.91657142857143L30.509090909090922,69.27871428571429L26.945454545454556,73.73014285714285L23.38181818181819,74.112L19.818181818181824,73.317L16.25454545454546,73.09971428571428L12.690909090909095,72.43114285714286L9.12727272727273,71.5352857142857L5.563636363636365,71.22514285714286L2,70.91185714285714"></path></g></svg>