<svg meta="{&quot;DATA_PUBLISHED_DATE&quot;:&quot;2023-03-09&quot;,&quot;RENDER_DATE&quot;:&quot;2023-03-09&quot;,&quot;FIRST_DATE&quot;:&quot;2023-01-04&quot;,&quot;LAST_DATE&quot;:&quot;2023-02-28&quot;}" xmlns="http://www.w3.org/2000/svg" viewBox="0,0,200,100"><g transform="translate(0,0)"></g><g class="fg-bars cases-ep" fill="#00183f" stroke="none"><g><rect x="197" y="50.81666666666666" width="2" height="49.18333333333334" id="cases-ep-0"></rect></g><g><rect x="193.43636363636364" y="47.16666666666667" width="2" height="52.83333333333333" id="cases-ep-1"></rect></g><g><rect x="189.87272727272727" y="71.98333333333333" width="2" height="28.016666666666666" id="cases-ep-2"></rect></g><g><rect x="186.30909090909088" y="71.36666666666667" width="2" height="28.633333333333326" id="cases-ep-3"></rect></g><g><rect x="182.74545454545455" y="57.06666666666666" width="2" height="42.93333333333334" id="cases-ep-4"></rect></g><g><rect x="179.1818181818182" y="50.13333333333334" width="2" height="49.86666666666666" id="cases-ep-5"></rect></g><g><rect x="175.61818181818182" y="46.766666666666666" width="2" height="53.233333333333334" id="cases-ep-6"></rect></g><g><rect x="172.05454545454546" y="35.650000000000006" width="2" height="64.35" id="cases-ep-7"></rect></g><g><rect x="168.49090909090907" y="50.71666666666667" width="2" height="49.28333333333333" id="cases-ep-8"></rect></g><g><rect x="164.92727272727274" y="66.51666666666667" width="2" height="33.483333333333334" id="cases-ep-9"></rect></g><g><rect x="161.36363636363637" y="66.75" width="2" height="33.25" id="cases-ep-10"></rect></g><g><rect x="157.8" y="52.5" width="2" height="47.5" id="cases-ep-11"></rect></g><g><rect x="154.23636363636365" y="49.016666666666666" width="2" height="50.983333333333334" id="cases-ep-12"></rect></g><g><rect x="150.6727272727273" y="46.666666666666664" width="2" height="53.333333333333336" id="cases-ep-13"></rect></g><g><rect x="147.1090909090909" y="45.13333333333334" width="2" height="54.86666666666666" id="cases-ep-14"></rect></g><g><rect x="143.54545454545453" y="37.3" width="2" height="62.7" id="cases-ep-15"></rect></g><g><rect x="139.9818181818182" y="66.43333333333334" width="2" height="33.56666666666666" id="cases-ep-16"></rect></g><g><rect x="136.41818181818184" y="64.06666666666668" width="2" height="35.93333333333332" id="cases-ep-17"></rect></g><g><rect x="132.85454545454544" y="48.71666666666666" width="2" height="51.28333333333334" id="cases-ep-18"></rect></g><g><rect x="129.29090909090908" y="47.18333333333333" width="2" height="52.81666666666667" id="cases-ep-19"></rect></g><g><rect x="125.72727272727273" y="42.516666666666666" width="2" height="57.483333333333334" id="cases-ep-20"></rect></g><g><rect x="122.16363636363636" y="41.41666666666667" width="2" height="58.58333333333333" id="cases-ep-21"></rect></g><g><rect x="118.6" y="30.333333333333336" width="2" height="69.66666666666666" id="cases-ep-22"></rect></g><g><rect x="115.03636363636363" y="64.36666666666666" width="2" height="35.63333333333334" id="cases-ep-23"></rect></g><g><rect x="111.47272727272728" y="64.33333333333333" width="2" height="35.66666666666667" id="cases-ep-24"></rect></g><g><rect x="107.90909090909089" y="50.96666666666667" width="2" height="49.03333333333333" id="cases-ep-25"></rect></g><g><rect x="104.34545454545456" y="48.21666666666666" width="2" height="51.78333333333334" id="cases-ep-26"></rect></g><g><rect x="100.78181818181817" y="44.699999999999996" width="2" height="55.300000000000004" id="cases-ep-27"></rect></g><g><rect x="97.21818181818183" y="43.05" width="2" height="56.95" id="cases-ep-28"></rect></g><g><rect x="93.65454545454546" y="38.96666666666667" width="2" height="61.03333333333333" id="cases-ep-29"></rect></g><g><rect x="90.09090909090911" y="68.6" width="2" height="31.400000000000006" id="cases-ep-30"></rect></g><g><rect x="86.52727272727273" y="67.06666666666668" width="2" height="32.93333333333332" id="cases-ep-31"></rect></g><g><rect x="82.96363636363637" y="52.900000000000006" width="2" height="47.099999999999994" id="cases-ep-32"></rect></g><g><rect x="79.4" y="54.016666666666666" width="2" height="45.983333333333334" id="cases-ep-33"></rect></g><g><rect x="75.83636363636364" y="49.43333333333333" width="2" height="50.56666666666667" id="cases-ep-34"></rect></g><g><rect x="72.27272727272727" y="47.199999999999996" width="2" height="52.800000000000004" id="cases-ep-35"></rect></g><g><rect x="68.70909090909092" y="46.51666666666666" width="2" height="53.48333333333334" id="cases-ep-36"></rect></g><g><rect x="65.14545454545454" y="71.21666666666667" width="2" height="28.78333333333333" id="cases-ep-37"></rect></g><g><rect x="61.58181818181818" y="70.76666666666667" width="2" height="29.233333333333334" id="cases-ep-38"></rect></g><g><rect x="58.018181818181816" y="57.91666666666666" width="2" height="42.08333333333334" id="cases-ep-39"></rect></g><g><rect x="54.454545454545446" y="54.63333333333333" width="2" height="45.36666666666667" id="cases-ep-40"></rect></g><g><rect x="50.89090909090908" y="50.2" width="2" height="49.8" id="cases-ep-41"></rect></g><g><rect x="47.32727272727273" y="41.583333333333336" width="2" height="58.416666666666664" id="cases-ep-42"></rect></g><g><rect x="43.76363636363636" y="55.03333333333333" width="2" height="44.96666666666667" id="cases-ep-43"></rect></g><g><rect x="40.199999999999996" y="69.10000000000001" width="2" height="30.89999999999999" id="cases-ep-44"></rect></g><g><rect x="36.636363636363626" y="67.31666666666666" width="2" height="32.68333333333334" id="cases-ep-45"></rect></g><g><rect x="33.072727272727285" y="49.61666666666667" width="2" height="50.38333333333333" id="cases-ep-46"></rect></g><g><rect x="29.509090909090922" y="45.766666666666666" width="2" height="54.233333333333334" id="cases-ep-47"></rect></g><g><rect x="25.945454545454556" y="37.81666666666666" width="2" height="62.18333333333334" id="cases-ep-48"></rect></g><g><rect x="22.38181818181819" y="37.25000000000001" width="2" height="62.74999999999999" id="cases-ep-49"></rect></g><g><rect x="18.818181818181824" y="20.55" width="2" height="79.45" id="cases-ep-50"></rect></g><g><rect x="15.254545454545461" y="55.316666666666656" width="2" height="44.683333333333344" id="cases-ep-51"></rect></g><g><rect x="11.690909090909095" y="47.21666666666666" width="2" height="52.78333333333334" id="cases-ep-52"></rect></g><g><rect x="8.12727272727273" y="18.166666666666664" width="2" height="81.83333333333334" id="cases-ep-53"></rect></g><g><rect x="4.563636363636365" y="17.75" width="2" height="82.25" id="cases-ep-54"></rect></g><g><rect x="1" y="3.4499999999999975" width="2" height="96.55" id="cases-ep-55"></rect></g></g><g class="fg-line cases-ep" fill="none" stroke="#92c5de" stroke-width="2" stroke-linecap="round"><path d="M198,56.471428571428575L194.43636363636364,54.304761904761904L190.87272727272727,54.81190476190476L187.30909090909088,54.03095238095238L183.74545454545455,53.37142857142857L180.1818181818182,52.71904761904762L176.61818181818182,52.5595238095238L173.05454545454546,52.5452380952381L169.49090909090907,53.89999999999999L165.92727272727274,51.983333333333334L162.36363636363637,51.97142857142857L158.8,51.58809523809524L155.23636363636365,51.047619047619044L151.6727272727273,50.78571428571429L148.1090909090909,50.192857142857136L144.54545454545453,49.661904761904765L140.9818181818182,48.66666666666667L137.41818181818184,48.37142857142857L133.85454545454544,48.409523809523805L130.29090909090908,48.730952380952374L126.72727272727273,48.878571428571426L123.16363636363636,49.1904761904762L119.6,49.423809523809524L116.03636363636363,50.657142857142865L112.47272727272728,51.261904761904766L108.90909090909089,51.65238095238096L105.34545454545456,51.92857142857144L101.78181818181817,52.75714285714286L98.21818181818183,53.43333333333333L94.65454545454546,54.02619047619047L91.09090909090911,55.1047619047619L87.52727272727273,55.47857142857142L83.96363636363637,56.00714285714285L80.4,56.723809523809535L76.83636363636364,56.81190476190476L73.27272727272727,56.921428571428564L69.70909090909092,56.11904761904762L66.14545454545454,57.33571428571429L62.58181818181818,57.03333333333334L59.018181818181816,56.5404761904762L55.454545454545446,55.354761904761894L51.89090909090908,54.088095238095235L48.32727272727273,52.31904761904762L44.76363636363636,51.7L41.199999999999996,46.773809523809526L37.636363636363626,44.804761904761904L34.072727272727285,41.93333333333334L30.509090909090922,37.44047619047619L26.945454545454556,33.43809523809524L23.38181818181819,28.528571428571425L19.818181818181824,19.926190476190474L16.25454545454546,18.02857142857143L12.690909090909095,17.849999999999998L9.12727272727273,16.361904761904754L5.563636363636365,12.028571428571421L2,5.580952380952386"></path></g></svg>