<svg about="DATA_PUBLISHED_DATE:2021-09-21,RENDER_DATE:2021-09-21" viewBox="0,0,200,100"><g transform="translate(0,0)"></g><g class="fg-bars tests-vaccines"><g><rect x="197" y="36.838461538461544" width="2" height="63.161538461538456" id="tests-vaccines-0"></rect></g><g><rect x="193.43636363636364" y="73.33846153846153" width="2" height="26.66153846153847" id="tests-vaccines-1"></rect></g><g><rect x="189.87272727272727" y="52.54769230769231" width="2" height="47.45230769230769" id="tests-vaccines-2"></rect></g><g><rect x="186.30909090909088" y="19.321538461538456" width="2" height="80.67846153846155" id="tests-vaccines-3"></rect></g><g><rect x="182.74545454545455" y="33.97769230769231" width="2" height="66.02230769230769" id="tests-vaccines-4"></rect></g><g><rect x="179.1818181818182" y="33.099999999999994" width="2" height="66.9" id="tests-vaccines-5"></rect></g><g><rect x="175.61818181818182" y="26.273846153846158" width="2" height="73.72615384615384" id="tests-vaccines-6"></rect></g><g><rect x="172.05454545454546" y="85.41538461538461" width="2" height="14.58461538461539" id="tests-vaccines-7"></rect></g><g><rect x="168.49090909090907" y="71.19153846153846" width="2" height="28.808461538461543" id="tests-vaccines-8"></rect></g><g><rect x="164.92727272727274" y="51.70769230769231" width="2" height="48.29230769230769" id="tests-vaccines-9"></rect></g><g><rect x="161.36363636363637" y="11.432307692307697" width="2" height="88.5676923076923" id="tests-vaccines-10"></rect></g><g><rect x="157.8" y="29.39846153846154" width="2" height="70.60153846153847" id="tests-vaccines-11"></rect></g><g><rect x="154.23636363636365" y="27.537692307692307" width="2" height="72.46230769230769" id="tests-vaccines-12"></rect></g><g><rect x="150.6727272727273" y="24.387692307692312" width="2" height="75.6123076923077" id="tests-vaccines-13"></rect></g><g><rect x="147.1090909090909" y="23.271538461538466" width="2" height="76.72846153846153" id="tests-vaccines-14"></rect></g><g><rect x="143.54545454545453" y="67.38461538461539" width="2" height="32.61538461538461" id="tests-vaccines-15"></rect></g><g><rect x="139.9818181818182" y="40.598461538461535" width="2" height="59.401538461538465" id="tests-vaccines-16"></rect></g><g><rect x="136.41818181818184" y="2.6038461538461566" width="2" height="97.39615384615384" id="tests-vaccines-17"></rect></g><g><rect x="132.85454545454544" y="20.563846153846153" width="2" height="79.43615384615384" id="tests-vaccines-18"></rect></g><g><rect x="129.29090909090908" y="21.519230769230766" width="2" height="78.48076923076923" id="tests-vaccines-19"></rect></g><g><rect x="125.72727272727273" y="18.49153846153846" width="2" height="81.50846153846155" id="tests-vaccines-20"></rect></g><g><rect x="122.16363636363636" y="18.963846153846152" width="2" height="81.03615384615385" id="tests-vaccines-21"></rect></g><g><rect x="118.6" y="67.84846153846154" width="2" height="32.151538461538465" id="tests-vaccines-22"></rect></g><g><rect x="115.03636363636363" y="42.183076923076925" width="2" height="57.816923076923075" id="tests-vaccines-23"></rect></g><g><rect x="111.47272727272728" y="3.306923076923074" width="2" height="96.69307692307693" id="tests-vaccines-24"></rect></g><g><rect x="107.90909090909089" y="22.305384615384614" width="2" height="77.69461538461539" id="tests-vaccines-25"></rect></g><g><rect x="104.34545454545456" y="21.930000000000007" width="2" height="78.07" id="tests-vaccines-26"></rect></g><g><rect x="100.78181818181817" y="21.90923076923077" width="2" height="78.09076923076923" id="tests-vaccines-27"></rect></g><g><rect x="97.21818181818183" y="25.681538461538466" width="2" height="74.31846153846153" id="tests-vaccines-28"></rect></g><g><rect x="93.65454545454546" y="68.94769230769231" width="2" height="31.052307692307693" id="tests-vaccines-29"></rect></g><g><rect x="90.09090909090911" y="44.403846153846146" width="2" height="55.596153846153854" id="tests-vaccines-30"></rect></g><g><rect x="86.52727272727273" y="14.568461538461541" width="2" height="85.43153846153845" id="tests-vaccines-31"></rect></g><g><rect x="82.96363636363637" y="32.40461538461539" width="2" height="67.5953846153846" id="tests-vaccines-32"></rect></g><g><rect x="79.4" y="35.925384615384615" width="2" height="64.07461538461538" id="tests-vaccines-33"></rect></g><g><rect x="75.83636363636364" y="29.94692307692308" width="2" height="70.05307692307692" id="tests-vaccines-34"></rect></g><g><rect x="72.27272727272727" y="32.58307692307692" width="2" height="67.41692307692307" id="tests-vaccines-35"></rect></g><g><rect x="68.70909090909092" y="73.13769230769232" width="2" height="26.86230769230768" id="tests-vaccines-36"></rect></g><g><rect x="65.14545454545454" y="50.84384615384616" width="2" height="49.15615384615384" id="tests-vaccines-37"></rect></g><g><rect x="61.58181818181818" y="19.60846153846154" width="2" height="80.39153846153846" id="tests-vaccines-38"></rect></g><g><rect x="58.018181818181816" y="33.65307692307692" width="2" height="66.34692307692308" id="tests-vaccines-39"></rect></g><g><rect x="54.454545454545446" y="35.293076923076924" width="2" height="64.70692307692308" id="tests-vaccines-40"></rect></g><g><rect x="50.89090909090908" y="31.232307692307693" width="2" height="68.7676923076923" id="tests-vaccines-41"></rect></g><g><rect x="47.32727272727273" y="38.55384615384615" width="2" height="61.44615384615385" id="tests-vaccines-42"></rect></g><g><rect x="43.76363636363636" y="76.80384615384615" width="2" height="23.196153846153848" id="tests-vaccines-43"></rect></g><g><rect x="40.199999999999996" y="53.96846153846153" width="2" height="46.03153846153847" id="tests-vaccines-44"></rect></g><g><rect x="36.636363636363626" y="25.83923076923077" width="2" height="74.16076923076923" id="tests-vaccines-45"></rect></g><g><rect x="33.072727272727285" y="37.27769230769231" width="2" height="62.72230769230769" id="tests-vaccines-46"></rect></g><g><rect x="29.509090909090922" y="35.24" width="2" height="64.75999999999999" id="tests-vaccines-47"></rect></g><g><rect x="25.945454545454556" y="34.543076923076924" width="2" height="65.45692307692308" id="tests-vaccines-48"></rect></g><g><rect x="22.38181818181819" y="44.566153846153846" width="2" height="55.433846153846154" id="tests-vaccines-49"></rect></g><g><rect x="18.818181818181824" y="80.21461538461539" width="2" height="19.785384615384615" id="tests-vaccines-50"></rect></g><g><rect x="15.254545454545461" y="56.74769230769231" width="2" height="43.25230769230769" id="tests-vaccines-51"></rect></g><g><rect x="11.690909090909095" y="29.329230769230776" width="2" height="70.67076923076922" id="tests-vaccines-52"></rect></g><g><rect x="8.12727272727273" y="40.244615384615386" width="2" height="59.755384615384614" id="tests-vaccines-53"></rect></g><g><rect x="4.563636363636365" y="40.513076923076916" width="2" height="59.486923076923084" id="tests-vaccines-54"></rect></g><g><rect x="1" y="38.94461538461539" width="2" height="61.05538461538461" id="tests-vaccines-55"></rect></g></g><g class="fg-line tests-vaccines"><path stroke-linecap="round" d="M198,39.342527472527465L194.43636363636364,46.28208791208791L190.87272727272727,45.97538461538462L187.30909090909088,45.85538461538462L183.74545454545455,44.72835164835165L180.1818181818182,44.07417582417582L176.61818181818182,43.27956043956044L173.05454545454546,43.010109890109895L169.49090909090907,34.13241758241759L165.92727272727274,33.58857142857142L162.36363636363637,32.00153846153846L158.8,30.74032967032967L155.23636363636365,29.478241758241765L151.6727272727273,28.61846153846154L148.1090909090909,27.77615384615385L144.54545454545453,27.160769230769233L140.9818181818182,27.22703296703296L137.41818181818184,27.453406593406594L133.85454545454544,27.553846153846152L130.29090909090908,27.802637362637363L126.72727272727273,27.861318681318682L123.16363636363636,28.349560439560438L119.6,29.309230769230766L116.03636363636363,29.46626373626373L112.47272727272728,29.783516483516493L108.90909090909089,31.392307692307696L105.34545454545456,32.83505494505496L101.78181818181817,34.83439560439561L98.21818181818183,35.98263736263736L94.65454545454546,36.96857142857143L91.09090909090911,37.567142857142855L87.52727272727273,38.48714285714286L83.96363636363637,39.20714285714285L80.4,39.3854945054945L76.83636363636364,39.29516483516484L73.27272727272727,39.47879120879121L69.70909090909092,40.331758241758244L66.14545454545454,40.855494505494505L62.58181818181818,41.301868131868126L59.018181818181816,42.19197802197803L55.454545454545446,42.70978021978023L51.89090909090908,42.70219780219781L48.32727272727273,43.175164835164836L44.76363636363636,44.034065934065936L41.199999999999996,44.52131868131869L37.636363636363626,44.91835164835165L34.072727272727285,45.41692307692308L30.509090909090922,45.840769230769226L26.945454545454556,46.59406593406593L23.38181818181819,47.222857142857144L19.818181818181824,47.503956043956045L16.25454545454546,47.40197802197803L12.690909090909095,47.475714285714275L9.12727272727273,48.16274725274726L5.563636363636365,48.9410989010989L2,49.76153846153846"></path></g></svg>