<svg about="DATA_PUBLISHED_DATE:2021-10-24,RENDER_DATE:2021-10-25" xmlns="http://www.w3.org/2000/svg" viewBox="0,0,200,100"><g transform="translate(0,0)"></g><g class="fg-bars death-date" fill="#00183f" stroke="none"><g><rect x="197" y="50.71428571428571" width="2" height="49.28571428571429" id="death-date-0"></rect></g><g><rect x="193.43636363636364" y="50.71428571428571" width="2" height="49.28571428571429" id="death-date-1"></rect></g><g><rect x="189.87272727272727" y="44.285714285714285" width="2" height="55.714285714285715" id="death-date-2"></rect></g><g><rect x="186.30909090909088" y="50.71428571428571" width="2" height="49.28571428571429" id="death-date-3"></rect></g><g><rect x="182.74545454545455" y="34.285714285714285" width="2" height="65.71428571428572" id="death-date-4"></rect></g><g><rect x="179.1818181818182" y="35.71428571428571" width="2" height="64.28571428571429" id="death-date-5"></rect></g><g><rect x="175.61818181818182" y="30.714285714285715" width="2" height="69.28571428571428" id="death-date-6"></rect></g><g><rect x="172.05454545454546" y="27.857142857142858" width="2" height="72.14285714285714" id="death-date-7"></rect></g><g><rect x="168.49090909090907" y="45.714285714285715" width="2" height="54.285714285714285" id="death-date-8"></rect></g><g><rect x="164.92727272727274" y="30.714285714285715" width="2" height="69.28571428571428" id="death-date-9"></rect></g><g><rect x="161.36363636363637" y="45.714285714285715" width="2" height="54.285714285714285" id="death-date-10"></rect></g><g><rect x="157.8" y="22.857142857142854" width="2" height="77.14285714285714" id="death-date-11"></rect></g><g><rect x="154.23636363636365" y="24.28571428571429" width="2" height="75.71428571428571" id="death-date-12"></rect></g><g><rect x="150.6727272727273" y="22.142857142857142" width="2" height="77.85714285714286" id="death-date-13"></rect></g><g><rect x="147.1090909090909" y="25" width="2" height="75" id="death-date-14"></rect></g><g><rect x="143.54545454545453" y="30.714285714285715" width="2" height="69.28571428571428" id="death-date-15"></rect></g><g><rect x="139.9818181818182" y="16.428571428571427" width="2" height="83.57142857142857" id="death-date-16"></rect></g><g><rect x="136.41818181818184" y="29.28571428571428" width="2" height="70.71428571428572" id="death-date-17"></rect></g><g><rect x="132.85454545454544" y="23.571428571428577" width="2" height="76.42857142857142" id="death-date-18"></rect></g><g><rect x="129.29090909090908" y="3.57142857142857" width="2" height="96.42857142857143" id="death-date-19"></rect></g><g><rect x="125.72727272727273" y="9.285714285714286" width="2" height="90.71428571428571" id="death-date-20"></rect></g><g><rect x="122.16363636363636" y="19.285714285714285" width="2" height="80.71428571428572" id="death-date-21"></rect></g><g><rect x="118.6" y="19.285714285714285" width="2" height="80.71428571428572" id="death-date-22"></rect></g><g><rect x="115.03636363636363" y="14.28571428571429" width="2" height="85.71428571428571" id="death-date-23"></rect></g><g><rect x="111.47272727272728" y="7.14285714285714" width="2" height="92.85714285714286" id="death-date-24"></rect></g><g><rect x="107.90909090909089" y="28.57142857142857" width="2" height="71.42857142857143" id="death-date-25"></rect></g><g><rect x="104.34545454545456" y="9.999999999999998" width="2" height="90" id="death-date-26"></rect></g><g><rect x="100.78181818181817" y="4.285714285714281" width="2" height="95.71428571428572" id="death-date-27"></rect></g><g><rect x="97.21818181818183" y="20.71428571428572" width="2" height="79.28571428571428" id="death-date-28"></rect></g><g><rect x="93.65454545454546" y="17.85714285714286" width="2" height="82.14285714285714" id="death-date-29"></rect></g><g><rect x="90.09090909090911" y="21.42857142857143" width="2" height="78.57142857142857" id="death-date-30"></rect></g><g><rect x="86.52727272727273" y="30.714285714285715" width="2" height="69.28571428571428" id="death-date-31"></rect></g><g><rect x="82.96363636363637" y="2.857142857142858" width="2" height="97.14285714285714" id="death-date-32"></rect></g><g><rect x="79.4" y="17.85714285714286" width="2" height="82.14285714285714" id="death-date-33"></rect></g><g><rect x="75.83636363636364" y="15.000000000000002" width="2" height="85" id="death-date-34"></rect></g><g><rect x="72.27272727272727" y="15.714285714285714" width="2" height="84.28571428571429" id="death-date-35"></rect></g><g><rect x="68.70909090909092" y="18.571428571428573" width="2" height="81.42857142857143" id="death-date-36"></rect></g><g><rect x="65.14545454545454" y="28.57142857142857" width="2" height="71.42857142857143" id="death-date-37"></rect></g><g><rect x="61.58181818181818" y="28.57142857142857" width="2" height="71.42857142857143" id="death-date-38"></rect></g><g><rect x="58.018181818181816" y="25" width="2" height="75" id="death-date-39"></rect></g><g><rect x="54.454545454545446" y="34.285714285714285" width="2" height="65.71428571428572" id="death-date-40"></rect></g><g><rect x="50.89090909090908" y="29.28571428571428" width="2" height="70.71428571428572" id="death-date-41"></rect></g><g><rect x="47.32727272727273" y="35" width="2" height="65" id="death-date-42"></rect></g><g><rect x="43.76363636363636" y="21.42857142857143" width="2" height="78.57142857142857" id="death-date-43"></rect></g><g><rect x="40.199999999999996" y="21.42857142857143" width="2" height="78.57142857142857" id="death-date-44"></rect></g><g><rect x="36.636363636363626" y="48.57142857142858" width="2" height="51.42857142857142" id="death-date-45"></rect></g><g><rect x="33.072727272727285" y="45.714285714285715" width="2" height="54.285714285714285" id="death-date-46"></rect></g><g><rect x="29.509090909090922" y="19.285714285714285" width="2" height="80.71428571428572" id="death-date-47"></rect></g><g><rect x="25.945454545454556" y="44.99999999999999" width="2" height="55.00000000000001" id="death-date-48"></rect></g><g><rect x="22.38181818181819" y="48.57142857142858" width="2" height="51.42857142857142" id="death-date-49"></rect></g><g><rect x="18.818181818181824" y="47.14285714285714" width="2" height="52.85714285714286" id="death-date-50"></rect></g><g><rect x="15.254545454545461" y="49.28571428571429" width="2" height="50.71428571428571" id="death-date-51"></rect></g><g><rect x="11.690909090909095" y="49.28571428571429" width="2" height="50.71428571428571" id="death-date-52"></rect></g><g><rect x="8.12727272727273" y="58.57142857142856" width="2" height="41.42857142857144" id="death-date-53"></rect></g><g><rect x="4.563636363636365" y="60.71428571428572" width="2" height="39.28571428571428" id="death-date-54"></rect></g><g><rect x="1" y="63.57142857142857" width="2" height="36.42857142857143" id="death-date-55"></rect></g></g><g class="fg-line death-date" fill="none" stroke="#92c5de" stroke-width="2" stroke-linecap="round"><path d="M198,42.44897959183673L194.43636363636364,39.183673469387756L190.87272727272727,38.46938775510205L187.30909090909088,36.53061224489795L183.74545454545455,35.816326530612244L180.1818181818182,34.183673469387756L176.61818181818182,32.55102040816327L173.05454545454546,31.326530612244895L169.49090909090907,30.91836734693878L165.92727272727274,28.775510204081634L162.36363636363637,26.73469387755102L158.8,24.38775510204081L155.23636363636365,24.489795918367353L151.6727272727273,21.530612244897952L148.1090909090909,19.69387755102041L144.54545454545453,18.877551020408166L140.9818181818182,17.244897959183668L137.41818181818184,16.938775510204074L133.85454545454544,13.775510204081643L130.29090909090908,14.489795918367355L126.72727272727273,15.408163265306118L123.16363636363636,14.693877551020407L119.6,14.897959183673471L116.03636363636363,14.693877551020407L112.47272727272728,15.714285714285714L108.90909090909089,19.08163265306122L105.34545454545456,15.408163265306118L101.78181818181817,16.53061224489796L98.21818181818183,18.061224489795926L94.65454545454546,17.34693877551021L91.09090909090911,17.448979591836732L87.52727272727273,18.46938775510204L83.96363636363637,18.163265306122454L80.4,21.3265306122449L76.83636363636364,23.673469387755098L73.27272727272727,25.71428571428571L69.70909090909092,28.469387755102048L66.14545454545454,28.877551020408166L62.58181818181818,27.857142857142858L59.018181818181816,30.714285714285715L55.454545454545446,33.6734693877551L51.89090909090908,31.53061224489796L48.32727272727273,33.77551020408164L44.76363636363636,35.71428571428571L41.199999999999996,39.38775510204081L37.636363636363626,43.36734693877551L34.072727272727285,43.46938775510204L30.509090909090922,45.30612244897959L26.945454545454556,51.22448979591836L23.38181818181819,53.87755102040816L19.818181818181824,56.326530612244895L16.25454545454546,58.57142857142856L12.690909090909095,60L9.12727272727273,63.67346938775511L5.563636363636365,64.38775510204083L2,67.0408163265306"></path></g></svg>