<svg about="DATA_PUBLISHED_DATE:2021-11-28,RENDER_DATE:2021-11-28" xmlns="http://www.w3.org/2000/svg" viewBox="0,0,200,100"><g transform="translate(0,0)"></g><g class="fg-bars tests-vaccines" fill="#00183f" stroke="none"><g><rect x="197" y="42.53884615384615" width="2" height="57.46115384615385" id="tests-vaccines-0"></rect></g><g><rect x="193.43636363636364" y="1.1503846153846142" width="2" height="98.84961538461539" id="tests-vaccines-1"></rect></g><g><rect x="189.87272727272727" y="16.641538461538463" width="2" height="83.35846153846154" id="tests-vaccines-2"></rect></g><g><rect x="186.30909090909088" y="13.764615384615386" width="2" height="86.23538461538462" id="tests-vaccines-3"></rect></g><g><rect x="182.74545454545455" y="15.313076923076919" width="2" height="84.68692307692308" id="tests-vaccines-4"></rect></g><g><rect x="179.1818181818182" y="23.095384615384617" width="2" height="76.90461538461538" id="tests-vaccines-5"></rect></g><g><rect x="175.61818181818182" y="73.66384615384615" width="2" height="26.33615384615385" id="tests-vaccines-6"></rect></g><g><rect x="172.05454545454546" y="45.03038461538461" width="2" height="54.96961538461539" id="tests-vaccines-7"></rect></g><g><rect x="168.49090909090907" y="3.833076923076928" width="2" height="96.16692307692307" id="tests-vaccines-8"></rect></g><g><rect x="164.92727272727274" y="19.354230769230774" width="2" height="80.64576923076922" id="tests-vaccines-9"></rect></g><g><rect x="161.36363636363637" y="15.936153846153845" width="2" height="84.06384615384616" id="tests-vaccines-10"></rect></g><g><rect x="157.8" y="18.608076923076922" width="2" height="81.39192307692308" id="tests-vaccines-11"></rect></g><g><rect x="154.23636363636365" y="24.885769230769228" width="2" height="75.11423076923077" id="tests-vaccines-12"></rect></g><g><rect x="150.6727272727273" y="74.94692307692307" width="2" height="25.05307692307693" id="tests-vaccines-13"></rect></g><g><rect x="147.1090909090909" y="52.223846153846154" width="2" height="47.776153846153846" id="tests-vaccines-14"></rect></g><g><rect x="143.54545454545453" y="8.898461538461543" width="2" height="91.10153846153845" id="tests-vaccines-15"></rect></g><g><rect x="139.9818181818182" y="25.737692307692306" width="2" height="74.2623076923077" id="tests-vaccines-16"></rect></g><g><rect x="136.41818181818184" y="28.157692307692304" width="2" height="71.8423076923077" id="tests-vaccines-17"></rect></g><g><rect x="132.85454545454544" y="27.79307692307692" width="2" height="72.20692307692308" id="tests-vaccines-18"></rect></g><g><rect x="129.29090909090908" y="32.11576923076923" width="2" height="67.88423076923077" id="tests-vaccines-19"></rect></g><g><rect x="125.72727272727273" y="80.56576923076923" width="2" height="19.434230769230766" id="tests-vaccines-20"></rect></g><g><rect x="122.16363636363636" y="60.57269230769231" width="2" height="39.42730769230769" id="tests-vaccines-21"></rect></g><g><rect x="118.6" y="16.656153846153842" width="2" height="83.34384615384616" id="tests-vaccines-22"></rect></g><g><rect x="115.03636363636363" y="30.48153846153846" width="2" height="69.51846153846154" id="tests-vaccines-23"></rect></g><g><rect x="111.47272727272728" y="30.36192307692308" width="2" height="69.63807692307692" id="tests-vaccines-24"></rect></g><g><rect x="107.90909090909089" y="31.22038461538461" width="2" height="68.7796153846154" id="tests-vaccines-25"></rect></g><g><rect x="104.34545454545456" y="37.50653846153846" width="2" height="62.49346153846154" id="tests-vaccines-26"></rect></g><g><rect x="100.78181818181817" y="81.85115384615385" width="2" height="18.14884615384615" id="tests-vaccines-27"></rect></g><g><rect x="97.21818181818183" y="64.53615384615385" width="2" height="35.46384615384615" id="tests-vaccines-28"></rect></g><g><rect x="93.65454545454546" y="37.75692307692308" width="2" height="62.24307692307692" id="tests-vaccines-29"></rect></g><g><rect x="90.09090909090911" y="63.10115384615385" width="2" height="36.89884615384615" id="tests-vaccines-30"></rect></g><g><rect x="86.52727272727273" y="64.55307692307693" width="2" height="35.44692307692307" id="tests-vaccines-31"></rect></g><g><rect x="82.96363636363637" y="63.37538461538461" width="2" height="36.62461538461539" id="tests-vaccines-32"></rect></g><g><rect x="79.4" y="61.82576923076923" width="2" height="38.17423076923077" id="tests-vaccines-33"></rect></g><g><rect x="75.83636363636364" y="88.28538461538461" width="2" height="11.714615384615385" id="tests-vaccines-34"></rect></g><g><rect x="72.27272727272727" y="77.40846153846154" width="2" height="22.591538461538462" id="tests-vaccines-35"></rect></g><g><rect x="68.70909090909092" y="51.705769230769235" width="2" height="48.294230769230765" id="tests-vaccines-36"></rect></g><g><rect x="65.14545454545454" y="61.418076923076924" width="2" height="38.581923076923076" id="tests-vaccines-37"></rect></g><g><rect x="61.58181818181818" y="61.92423076923077" width="2" height="38.07576923076923" id="tests-vaccines-38"></rect></g><g><rect x="58.018181818181816" y="59.50461538461538" width="2" height="40.49538461538462" id="tests-vaccines-39"></rect></g><g><rect x="54.454545454545446" y="58.973461538461535" width="2" height="41.026538461538465" id="tests-vaccines-40"></rect></g><g><rect x="50.89090909090908" y="86.33115384615384" width="2" height="13.668846153846161" id="tests-vaccines-41"></rect></g><g><rect x="47.32727272727273" y="74.94153846153846" width="2" height="25.058461538461543" id="tests-vaccines-42"></rect></g><g><rect x="43.76363636363636" y="45.23461538461538" width="2" height="54.76538461538462" id="tests-vaccines-43"></rect></g><g><rect x="40.199999999999996" y="55.112307692307695" width="2" height="44.887692307692305" id="tests-vaccines-44"></rect></g><g><rect x="36.636363636363626" y="58.19692307692308" width="2" height="41.80307692307692" id="tests-vaccines-45"></rect></g><g><rect x="33.072727272727285" y="57.19307692307692" width="2" height="42.80692307692308" id="tests-vaccines-46"></rect></g><g><rect x="29.509090909090922" y="57.404999999999994" width="2" height="42.595000000000006" id="tests-vaccines-47"></rect></g><g><rect x="25.945454545454556" y="85.27884615384616" width="2" height="14.72115384615384" id="tests-vaccines-48"></rect></g><g><rect x="22.38181818181819" y="73.88884615384616" width="2" height="26.11115384615384" id="tests-vaccines-49"></rect></g><g><rect x="18.818181818181824" y="44.22038461538461" width="2" height="55.77961538461539" id="tests-vaccines-50"></rect></g><g><rect x="15.254545454545461" y="49.309999999999995" width="2" height="50.690000000000005" id="tests-vaccines-51"></rect></g><g><rect x="11.690909090909095" y="50.38" width="2" height="49.62" id="tests-vaccines-52"></rect></g><g><rect x="8.12727272727273" y="50.22230769230769" width="2" height="49.77769230769231" id="tests-vaccines-53"></rect></g><g><rect x="4.563636363636365" y="54.31807692307693" width="2" height="45.68192307692307" id="tests-vaccines-54"></rect></g><g><rect x="1" y="84.84846153846154" width="2" height="15.151538461538465" id="tests-vaccines-55"></rect></g></g><g class="fg-line tests-vaccines" fill="none" stroke="#92c5de" stroke-width="2" stroke-linecap="round"><path d="M198,26.59538461538462L194.43636363636364,26.951318681318682L190.87272727272727,27.33456043956044L187.30909090909088,27.72208791208791L183.74545454545455,28.03230769230769L180.1818181818182,28.50302197802197L176.61818181818182,28.7587912087912L173.05454545454546,28.94208791208791L169.49090909090907,29.969725274725278L165.92727272727274,30.69335164835165L162.36363636363637,31.605274725274725L158.8,33.3512087912088L155.23636363636365,34.66335164835165L151.6727272727273,35.6962087912088L148.1090909090909,36.4989010989011L144.54545454545453,37.69159340659341L140.9818181818182,38.79983516483516L137.41818181818184,39.47752747252748L133.85454545454544,39.792417582417585L130.29090909090908,40.28203296703297L126.72727272727273,41.05214285714286L123.16363636363636,41.23576923076923L119.6,41.80197802197802L116.03636363636363,44.81637362637362L112.47272727272728,49.47631868131869L108.90909090909089,54.36076923076922L105.34545454545456,58.954340659340666L101.78181818181817,62.42851648351648L98.21818181818183,63.347692307692306L94.65454545454546,65.1865934065934L91.09090909090911,67.17928571428571L87.52727272727273,66.93884615384616L83.96363636363637,66.5632967032967L80.4,66.01032967032967L76.83636363636364,65.60285714285715L73.27272727272727,65.32368131868131L69.70909090909092,64.97126373626374L66.14545454545454,64.0468131868132L62.58181818181818,63.14598901098901L59.018181818181816,62.613516483516484L55.454545454545446,62.283296703296706L51.89090909090908,62.059230769230766L48.32727272727273,61.908901098901104L44.76363636363636,61.75851648351649L41.199999999999996,61.613626373626374L37.636363636363626,60.78472527472527L34.072727272727285,59.668021978021976L30.509090909090922,58.672197802197815L26.945454545454556,58.231208791208786L23.38181818181819,58.16972527472528L19.818181818181824,58.00346153846154L16.25454545454546,60.017637362637366L12.690909090909095,63.301813186813185L9.12727272727273,66.42335164835164L5.563636363636365,69.44824175824176L2,71.55983516483518"></path></g></svg>