<svg about="DATA_PUBLISHED_DATE:2021-10-07,RENDER_DATE:2021-10-07" xmlns="http://www.w3.org/2000/svg" viewBox="0,0,200,100"><g transform="translate(0,0)"></g><g class="fg-bars tests-vaccines" fill="#00183f" stroke="none"><g><rect x="197" y="9.44076923076923" width="2" height="90.55923076923077" id="tests-vaccines-0"></rect></g><g><rect x="193.43636363636364" y="4.866153846153843" width="2" height="95.13384615384615" id="tests-vaccines-1"></rect></g><g><rect x="189.87272727272727" y="16.95461538461538" width="2" height="83.04538461538462" id="tests-vaccines-2"></rect></g><g><rect x="186.30909090909088" y="71.26692307692308" width="2" height="28.733076923076922" id="tests-vaccines-3"></rect></g><g><rect x="182.74545454545455" y="47.77307692307692" width="2" height="52.22692307692308" id="tests-vaccines-4"></rect></g><g><rect x="179.1818181818182" y="18.963846153846152" width="2" height="81.03615384615385" id="tests-vaccines-5"></rect></g><g><rect x="175.61818181818182" y="46.136923076923075" width="2" height="53.863076923076925" id="tests-vaccines-6"></rect></g><g><rect x="172.05454545454546" y="45.937692307692316" width="2" height="54.062307692307684" id="tests-vaccines-7"></rect></g><g><rect x="168.49090909090907" y="44.21846153846154" width="2" height="55.78153846153846" id="tests-vaccines-8"></rect></g><g><rect x="164.92727272727274" y="39.502307692307696" width="2" height="60.497692307692304" id="tests-vaccines-9"></rect></g><g><rect x="161.36363636363637" y="75.17384615384616" width="2" height="24.826153846153844" id="tests-vaccines-10"></rect></g><g><rect x="157.8" y="56.88923076923077" width="2" height="43.11076923076923" id="tests-vaccines-11"></rect></g><g><rect x="154.23636363636365" y="27.489230769230765" width="2" height="72.51076923076923" id="tests-vaccines-12"></rect></g><g><rect x="150.6727272727273" y="37.96307692307692" width="2" height="62.03692307692308" id="tests-vaccines-13"></rect></g><g><rect x="147.1090909090909" y="39.79538461538461" width="2" height="60.20461538461539" id="tests-vaccines-14"></rect></g><g><rect x="143.54545454545453" y="39.17615384615385" width="2" height="60.82384615384615" id="tests-vaccines-15"></rect></g><g><rect x="139.9818181818182" y="36.11153846153846" width="2" height="63.88846153846154" id="tests-vaccines-16"></rect></g><g><rect x="136.41818181818184" y="73.22692307692307" width="2" height="26.77307692307693" id="tests-vaccines-17"></rect></g><g><rect x="132.85454545454544" y="52.354615384615386" width="2" height="47.645384615384614" id="tests-vaccines-18"></rect></g><g><rect x="129.29090909090908" y="18.4076923076923" width="2" height="81.5923076923077" id="tests-vaccines-19"></rect></g><g><rect x="125.72727272727273" y="33.16153846153846" width="2" height="66.83846153846153" id="tests-vaccines-20"></rect></g><g><rect x="122.16363636363636" y="32.575384615384614" width="2" height="67.42461538461538" id="tests-vaccines-21"></rect></g><g><rect x="118.6" y="25.550769230769234" width="2" height="74.44923076923077" id="tests-vaccines-22"></rect></g><g><rect x="115.03636363636363" y="85.34615384615385" width="2" height="14.653846153846146" id="tests-vaccines-23"></rect></g><g><rect x="111.47272727272728" y="71.13153846153845" width="2" height="28.868461538461546" id="tests-vaccines-24"></rect></g><g><rect x="107.90909090909089" y="51.53846153846153" width="2" height="48.46153846153847" id="tests-vaccines-25"></rect></g><g><rect x="104.34545454545456" y="10.671538461538466" width="2" height="89.32846153846154" id="tests-vaccines-26"></rect></g><g><rect x="100.78181818181817" y="28.759999999999998" width="2" height="71.24000000000001" id="tests-vaccines-27"></rect></g><g><rect x="97.21818181818183" y="26.791538461538465" width="2" height="73.20846153846153" id="tests-vaccines-28"></rect></g><g><rect x="93.65454545454546" y="23.73923076923077" width="2" height="76.26076923076923" id="tests-vaccines-29"></rect></g><g><rect x="90.09090909090911" y="22.837692307692304" width="2" height="77.16230769230769" id="tests-vaccines-30"></rect></g><g><rect x="86.52727272727273" y="67.33384615384615" width="2" height="32.66615384615385" id="tests-vaccines-31"></rect></g><g><rect x="82.96363636363637" y="40.316923076923075" width="2" height="59.683076923076925" id="tests-vaccines-32"></rect></g><g><rect x="79.4" y="1.6476923076923056" width="2" height="98.35230769230769" id="tests-vaccines-33"></rect></g><g><rect x="75.83636363636364" y="20.123076923076923" width="2" height="79.87692307692308" id="tests-vaccines-34"></rect></g><g><rect x="72.27272727272727" y="21.186153846153843" width="2" height="78.81384615384616" id="tests-vaccines-35"></rect></g><g><rect x="68.70909090909092" y="18.180769230769233" width="2" height="81.81923076923077" id="tests-vaccines-36"></rect></g><g><rect x="65.14545454545454" y="18.68230769230769" width="2" height="81.31769230769231" id="tests-vaccines-37"></rect></g><g><rect x="61.58181818181818" y="67.79615384615386" width="2" height="32.20384615384614" id="tests-vaccines-38"></rect></g><g><rect x="58.018181818181816" y="41.88153846153846" width="2" height="58.11846153846154" id="tests-vaccines-39"></rect></g><g><rect x="54.454545454545446" y="2.729999999999999" width="2" height="97.27" id="tests-vaccines-40"></rect></g><g><rect x="50.89090909090908" y="21.929230769230767" width="2" height="78.07076923076923" id="tests-vaccines-41"></rect></g><g><rect x="47.32727272727273" y="21.72615384615385" width="2" height="78.27384615384615" id="tests-vaccines-42"></rect></g><g><rect x="43.76363636363636" y="21.515384615384615" width="2" height="78.48461538461538" id="tests-vaccines-43"></rect></g><g><rect x="40.199999999999996" y="25.354615384615386" width="2" height="74.64538461538461" id="tests-vaccines-44"></rect></g><g><rect x="36.636363636363626" y="68.88692307692308" width="2" height="31.113076923076918" id="tests-vaccines-45"></rect></g><g><rect x="33.072727272727285" y="44.08153846153846" width="2" height="55.91846153846154" id="tests-vaccines-46"></rect></g><g><rect x="29.509090909090922" y="14.146153846153842" width="2" height="85.85384615384616" id="tests-vaccines-47"></rect></g><g><rect x="25.945454545454556" y="32.18923076923077" width="2" height="67.81076923076924" id="tests-vaccines-48"></rect></g><g><rect x="22.38181818181819" y="35.746923076923075" width="2" height="64.25307692307692" id="tests-vaccines-49"></rect></g><g><rect x="18.818181818181824" y="29.74538461538462" width="2" height="70.25461538461538" id="tests-vaccines-50"></rect></g><g><rect x="15.254545454545461" y="32.364615384615384" width="2" height="67.63538461538462" id="tests-vaccines-51"></rect></g><g><rect x="11.690909090909095" y="73.06615384615385" width="2" height="26.933846153846147" id="tests-vaccines-52"></rect></g><g><rect x="8.12727272727273" y="50.73615384615384" width="2" height="49.26384615384616" id="tests-vaccines-53"></rect></g><g><rect x="4.563636363636365" y="19.28461538461539" width="2" height="80.71538461538461" id="tests-vaccines-54"></rect></g><g><rect x="1" y="33.403076923076924" width="2" height="66.59692307692308" id="tests-vaccines-55"></rect></g></g><g class="fg-line tests-vaccines" fill="none" stroke="#92c5de" stroke-width="2" stroke-linecap="round"><path d="M198,30.771758241758242L194.43636363636364,35.98560439560438L190.87272727272727,41.60736263736264L187.30909090909088,44.82846153846154L183.74545454545455,45.38659340659341L180.1818181818182,46.688901098901106L176.61818181818182,47.90681318681319L173.05454545454546,46.739120879120875L169.49090909090907,45.861648351648356L165.92727272727274,45.14131868131869L162.36363636363637,44.65692307692307L158.8,44.3787912087912L155.23636363636365,43.730989010989006L151.6727272727273,42.433626373626375L148.1090909090909,41.747692307692304L144.54545454545453,40.716263736263734L140.9818181818182,38.76978021978022L137.41818181818184,45.8032967032967L133.85454545454544,45.50395604395604L130.29090909090908,45.387362637362635L126.72727272727273,44.28219780219781L123.16363636363636,43.65340659340659L119.6,42.82714285714285L116.03636363636363,42.56835164835165L112.47272727272728,33.63857142857143L108.90909090909089,33.09604395604395L105.34545454545456,31.492967032967034L101.78181818181817,30.203846153846158L98.21818181818183,28.969999999999995L94.65454545454546,28.16923076923077L91.09090909090911,27.375164835164835L87.52727272727273,26.781538461538457L83.96363636363637,26.847582417582416L80.4,27.0710989010989L76.83636363636364,27.225714285714286L73.27272727272727,27.48373626373627L69.70909090909092,27.56087912087912L66.14545454545454,28.03725274725274L62.58181818181818,28.99043956043956L59.018181818181816,29.146263736263734L55.454545454545446,29.460549450549458L51.89090909090908,31.09142857142857L48.32727272727273,32.55714285714285L44.76363636363636,34.56010989010989L41.199999999999996,35.735824175824185L37.636363636363626,36.73725274725275L34.072727272727285,37.33428571428572L30.509090909090922,38.284945054945055L26.945454545454556,39.019010989010994L23.38181818181819,39.19241758241758L19.818181818181824,39.048241758241765L16.25454545454546,39.240989010989004L12.690909090909095,40.10296703296703L9.12727272727273,40.6289010989011L5.563636363636365,41.09373626373627L2,42.02604395604396"></path></g></svg>