<svg meta="{&quot;DATA_PUBLISHED_DATE&quot;:&quot;2022-03-10&quot;,&quot;RENDER_DATE&quot;:&quot;2022-03-10&quot;,&quot;FIRST_DATE&quot;:&quot;2022-01-06&quot;,&quot;LAST_DATE&quot;:&quot;2022-03-02&quot;}" xmlns="http://www.w3.org/2000/svg" viewBox="0,0,200,100"><g transform="translate(0,0)"></g><g class="fg-bars tests-vaccines" fill="#00183f" stroke="none"><g><rect x="197" y="84.89142857142858" width="2" height="15.108571428571423" id="tests-vaccines-0"></rect></g><g><rect x="193.43636363636364" y="83.10107142857143" width="2" height="16.89892857142857" id="tests-vaccines-1"></rect></g><g><rect x="189.87272727272727" y="79.87964285714287" width="2" height="20.12035714285713" id="tests-vaccines-2"></rect></g><g><rect x="186.30909090909088" y="93.14428571428572" width="2" height="6.855714285714285" id="tests-vaccines-3"></rect></g><g><rect x="182.74545454545455" y="86.35178571428571" width="2" height="13.648214285714289" id="tests-vaccines-4"></rect></g><g><rect x="179.1818181818182" y="74.12964285714285" width="2" height="25.870357142857145" id="tests-vaccines-5"></rect></g><g><rect x="175.61818181818182" y="81.07714285714286" width="2" height="18.92285714285714" id="tests-vaccines-6"></rect></g><g><rect x="172.05454545454546" y="81.09857142857143" width="2" height="18.901428571428568" id="tests-vaccines-7"></rect></g><g><rect x="168.49090909090907" y="80.74535714285715" width="2" height="19.254642857142855" id="tests-vaccines-8"></rect></g><g><rect x="164.92727272727274" y="85.50107142857144" width="2" height="14.498928571428564" id="tests-vaccines-9"></rect></g><g><rect x="161.36363636363637" y="92.46607142857142" width="2" height="7.533928571428575" id="tests-vaccines-10"></rect></g><g><rect x="157.8" y="84.18892857142856" width="2" height="15.811071428571438" id="tests-vaccines-11"></rect></g><g><rect x="154.23636363636365" y="70.44357142857143" width="2" height="29.55642857142857" id="tests-vaccines-12"></rect></g><g><rect x="150.6727272727273" y="78.5425" width="2" height="21.457499999999996" id="tests-vaccines-13"></rect></g><g><rect x="147.1090909090909" y="78.75821428571429" width="2" height="21.24178571428571" id="tests-vaccines-14"></rect></g><g><rect x="143.54545454545453" y="79.59428571428572" width="2" height="20.405714285714282" id="tests-vaccines-15"></rect></g><g><rect x="139.9818181818182" y="82.1257142857143" width="2" height="17.874285714285705" id="tests-vaccines-16"></rect></g><g><rect x="136.41818181818184" y="93.13607142857143" width="2" height="6.863928571428573" id="tests-vaccines-17"></rect></g><g><rect x="132.85454545454544" y="81.96821428571428" width="2" height="18.031785714285718" id="tests-vaccines-18"></rect></g><g><rect x="129.29090909090908" y="65.80071428571428" width="2" height="34.19928571428572" id="tests-vaccines-19"></rect></g><g><rect x="125.72727272727273" y="73.95107142857142" width="2" height="26.048928571428576" id="tests-vaccines-20"></rect></g><g><rect x="122.16363636363636" y="72.68" width="2" height="27.319999999999993" id="tests-vaccines-21"></rect></g><g><rect x="118.6" y="72.93892857142858" width="2" height="27.061071428571424" id="tests-vaccines-22"></rect></g><g><rect x="115.03636363636363" y="72.07357142857143" width="2" height="27.926428571428573" id="tests-vaccines-23"></rect></g><g><rect x="111.47272727272728" y="89.27892857142858" width="2" height="10.72107142857142" id="tests-vaccines-24"></rect></g><g><rect x="107.90909090909089" y="75.81107142857142" width="2" height="24.188928571428576" id="tests-vaccines-25"></rect></g><g><rect x="104.34545454545456" y="55.68071428571428" width="2" height="44.31928571428572" id="tests-vaccines-26"></rect></g><g><rect x="100.78181818181817" y="66.63642857142858" width="2" height="33.36357142857142" id="tests-vaccines-27"></rect></g><g><rect x="97.21818181818183" y="65.47107142857142" width="2" height="34.52892857142858" id="tests-vaccines-28"></rect></g><g><rect x="93.65454545454546" y="64.77714285714285" width="2" height="35.22285714285715" id="tests-vaccines-29"></rect></g><g><rect x="90.09090909090911" y="61.282142857142865" width="2" height="38.717857142857135" id="tests-vaccines-30"></rect></g><g><rect x="86.52727272727273" y="86.64642857142857" width="2" height="13.353571428571428" id="tests-vaccines-31"></rect></g><g><rect x="82.96363636363637" y="68.20107142857144" width="2" height="31.79892857142856" id="tests-vaccines-32"></rect></g><g><rect x="79.4" y="40.55464285714285" width="2" height="59.44535714285715" id="tests-vaccines-33"></rect></g><g><rect x="75.83636363636364" y="53.08142857142857" width="2" height="46.91857142857143" id="tests-vaccines-34"></rect></g><g><rect x="72.27272727272727" y="52.869642857142864" width="2" height="47.130357142857136" id="tests-vaccines-35"></rect></g><g><rect x="68.70909090909092" y="52.302142857142854" width="2" height="47.697857142857146" id="tests-vaccines-36"></rect></g><g><rect x="65.14545454545454" y="52.60964285714286" width="2" height="47.39035714285714" id="tests-vaccines-37"></rect></g><g><rect x="61.58181818181818" y="84.14928571428571" width="2" height="15.85071428571429" id="tests-vaccines-38"></rect></g><g><rect x="58.018181818181816" y="66.05" width="2" height="33.95" id="tests-vaccines-39"></rect></g><g><rect x="54.454545454545446" y="35.01285714285714" width="2" height="64.98714285714286" id="tests-vaccines-40"></rect></g><g><rect x="50.89090909090908" y="45.005357142857136" width="2" height="54.994642857142864" id="tests-vaccines-41"></rect></g><g><rect x="47.32727272727273" y="42.60321428571429" width="2" height="57.39678571428571" id="tests-vaccines-42"></rect></g><g><rect x="43.76363636363636" y="41.83" width="2" height="58.17" id="tests-vaccines-43"></rect></g><g><rect x="40.199999999999996" y="50.38642857142857" width="2" height="49.61357142857143" id="tests-vaccines-44"></rect></g><g><rect x="36.636363636363626" y="80.52035714285715" width="2" height="19.47964285714285" id="tests-vaccines-45"></rect></g><g><rect x="33.072727272727285" y="58.427142857142854" width="2" height="41.572857142857146" id="tests-vaccines-46"></rect></g><g><rect x="29.509090909090922" y="19.707142857142856" width="2" height="80.29285714285714" id="tests-vaccines-47"></rect></g><g><rect x="25.945454545454556" y="31.243571428571425" width="2" height="68.75642857142857" id="tests-vaccines-48"></rect></g><g><rect x="22.38181818181819" y="28.878214285714286" width="2" height="71.12178571428572" id="tests-vaccines-49"></rect></g><g><rect x="18.818181818181824" y="27.42714285714286" width="2" height="72.57285714285715" id="tests-vaccines-50"></rect></g><g><rect x="15.254545454545461" y="31.713214285714287" width="2" height="68.28678571428571" id="tests-vaccines-51"></rect></g><g><rect x="11.690909090909095" y="77.1392857142857" width="2" height="22.860714285714295" id="tests-vaccines-52"></rect></g><g><rect x="8.12727272727273" y="45.99071428571428" width="2" height="54.00928571428572" id="tests-vaccines-53"></rect></g><g><rect x="4.563636363636365" y="2.829999999999999" width="2" height="97.17" id="tests-vaccines-54"></rect></g><g><rect x="1" y="16.338928571428568" width="2" height="83.66107142857143" id="tests-vaccines-55"></rect></g></g><g class="fg-line tests-vaccines" fill="none" stroke="#92c5de" stroke-width="2" stroke-linecap="round"><path d="M198,83.225L194.43636363636364,82.68316326530612L190.87272727272727,82.34663265306122L187.30909090909088,83.14969387755102L183.74545454545455,83.05280612244898L180.1818181818182,82.74382653061224L176.61818181818182,82.21724489795919L173.05454545454546,81.85515306122448L169.49090909090907,81.5208163265306L165.92727272727274,81.35637755102042L162.36363636363637,80.87418367346939L158.8,80.96989795918368L155.23636363636365,80.65265306122448L151.6727272727273,79.98938775510204L148.1090909090909,79.3334693877551L144.54545454545453,78.46515306122448L140.9818181818182,77.51438775510205L137.41818181818184,76.07836734693878L133.85454545454544,75.52734693877552L130.29090909090908,74.64775510204082L126.72727272727273,73.20204081632653L123.16363636363636,72.1570918367347L119.6,71.12724489795919L116.03636363636363,69.96127551020408L112.47272727272728,68.41964285714286L108.90909090909089,68.04357142857143L105.34545454545456,66.95642857142857L101.78181818181817,64.7955612244898L98.21818181818183,62.85913265306122L94.65454545454546,61.058928571428574L91.09090909090911,59.276785714285715L87.52727272727273,58.03785714285714L83.96363636363637,57.68112244897959L80.4,57.37382653061225L76.83636363636364,56.582142857142856L73.27272727272727,55.42841836734694L69.70909090909092,53.96178571428572L66.14545454545454,52.46576530612246L62.58181818181818,52.14816326530611L59.018181818181816,51.629744897959185L55.454545454545446,50.54076530612246L51.89090909090908,48.35423469387755L48.32727272727273,46.388265306122456L44.76363636363636,44.42755102040816L41.199999999999996,42.37L37.636363636363626,39.70239795918368L34.072727272727285,39.21938775510204L30.509090909090922,37.44275510204081L26.945454545454556,35.031734693877546L23.38181818181819,32.9025L19.818181818181824,31.5915306122449L16.25454545454546,30.70688775510204L12.690909090909095,30.067959183673466L9.12727272727273,30.54627551020408L5.563636363636365,37.837755102040816L2,47.75561224489796"></path></g></svg>