<svg meta="{&quot;DATA_PUBLISHED_DATE&quot;:&quot;2023-05-11&quot;,&quot;RENDER_DATE&quot;:&quot;2023-05-11&quot;,&quot;FIRST_DATE&quot;:&quot;2023-03-09&quot;,&quot;LAST_DATE&quot;:&quot;2023-05-03&quot;}" xmlns="http://www.w3.org/2000/svg" viewBox="0,0,200,100"><g transform="translate(0,0)"></g><g class="fg-bars tests-vaccines" fill="#00183f" stroke="none"><g><rect x="197" y="2.9111111111111088" width="2" height="97.08888888888889" id="tests-vaccines-0"></rect></g><g><rect x="193.43636363636364" y="8.566666666666666" width="2" height="91.43333333333334" id="tests-vaccines-1"></rect></g><g><rect x="189.87272727272727" y="15.322222222222226" width="2" height="84.67777777777778" id="tests-vaccines-2"></rect></g><g><rect x="186.30909090909088" y="91.7" width="2" height="8.299999999999997" id="tests-vaccines-3"></rect></g><g><rect x="182.74545454545455" y="86.15555555555555" width="2" height="13.844444444444449" id="tests-vaccines-4"></rect></g><g><rect x="179.1818181818182" y="5.394444444444446" width="2" height="94.60555555555555" id="tests-vaccines-5"></rect></g><g><rect x="175.61818181818182" y="13.33333333333333" width="2" height="86.66666666666667" id="tests-vaccines-6"></rect></g><g><rect x="172.05454545454546" y="20.38888888888889" width="2" height="79.61111111111111" id="tests-vaccines-7"></rect></g><g><rect x="168.49090909090907" y="25.188888888888894" width="2" height="74.8111111111111" id="tests-vaccines-8"></rect></g><g><rect x="164.92727272727274" y="25.93888888888889" width="2" height="74.0611111111111" id="tests-vaccines-9"></rect></g><g><rect x="161.36363636363637" y="76.74444444444445" width="2" height="23.255555555555546" id="tests-vaccines-10"></rect></g><g><rect x="157.8" y="63.12777777777778" width="2" height="36.87222222222222" id="tests-vaccines-11"></rect></g><g><rect x="154.23636363636365" y="26.13888888888889" width="2" height="73.86111111111111" id="tests-vaccines-12"></rect></g><g><rect x="150.6727272727273" y="43.661111111111104" width="2" height="56.338888888888896" id="tests-vaccines-13"></rect></g><g><rect x="147.1090909090909" y="61.85000000000001" width="2" height="38.14999999999999" id="tests-vaccines-14"></rect></g><g><rect x="143.54545454545453" y="62.77777777777778" width="2" height="37.22222222222222" id="tests-vaccines-15"></rect></g><g><rect x="139.9818181818182" y="63.72222222222222" width="2" height="36.27777777777778" id="tests-vaccines-16"></rect></g><g><rect x="136.41818181818184" y="91.41666666666667" width="2" height="8.583333333333329" id="tests-vaccines-17"></rect></g><g><rect x="132.85454545454544" y="84.13888888888889" width="2" height="15.861111111111114" id="tests-vaccines-18"></rect></g><g><rect x="129.29090909090908" y="51.727777777777774" width="2" height="48.272222222222226" id="tests-vaccines-19"></rect></g><g><rect x="125.72727272727273" y="58.68333333333333" width="2" height="41.31666666666667" id="tests-vaccines-20"></rect></g><g><rect x="122.16363636363636" y="56.83888888888888" width="2" height="43.16111111111112" id="tests-vaccines-21"></rect></g><g><rect x="118.6" y="58.07777777777778" width="2" height="41.92222222222222" id="tests-vaccines-22"></rect></g><g><rect x="115.03636363636363" y="57.833333333333336" width="2" height="42.166666666666664" id="tests-vaccines-23"></rect></g><g><rect x="111.47272727272728" y="94.47777777777779" width="2" height="5.5222222222222115" id="tests-vaccines-24"></rect></g><g><rect x="107.90909090909089" y="79.21666666666667" width="2" height="20.78333333333333" id="tests-vaccines-25"></rect></g><g><rect x="104.34545454545456" y="54.727777777777774" width="2" height="45.272222222222226" id="tests-vaccines-26"></rect></g><g><rect x="100.78181818181817" y="55.25" width="2" height="44.75" id="tests-vaccines-27"></rect></g><g><rect x="97.21818181818183" y="53.75555555555556" width="2" height="46.24444444444444" id="tests-vaccines-28"></rect></g><g><rect x="93.65454545454546" y="56.46666666666667" width="2" height="43.53333333333333" id="tests-vaccines-29"></rect></g><g><rect x="90.09090909090911" y="57.183333333333344" width="2" height="42.816666666666656" id="tests-vaccines-30"></rect></g><g><rect x="86.52727272727273" y="90.22222222222223" width="2" height="9.777777777777771" id="tests-vaccines-31"></rect></g><g><rect x="82.96363636363637" y="81.81666666666668" width="2" height="18.183333333333323" id="tests-vaccines-32"></rect></g><g><rect x="79.4" y="46.17777777777777" width="2" height="53.82222222222223" id="tests-vaccines-33"></rect></g><g><rect x="75.83636363636364" y="51.13333333333333" width="2" height="48.86666666666667" id="tests-vaccines-34"></rect></g><g><rect x="72.27272727272727" y="51.416666666666664" width="2" height="48.583333333333336" id="tests-vaccines-35"></rect></g><g><rect x="68.70909090909092" y="52.488888888888894" width="2" height="47.511111111111106" id="tests-vaccines-36"></rect></g><g><rect x="65.14545454545454" y="51.91111111111111" width="2" height="48.08888888888889" id="tests-vaccines-37"></rect></g><g><rect x="61.58181818181818" y="88.99444444444444" width="2" height="11.00555555555556" id="tests-vaccines-38"></rect></g><g><rect x="58.018181818181816" y="78.10555555555555" width="2" height="21.894444444444446" id="tests-vaccines-39"></rect></g><g><rect x="54.454545454545446" y="40.13888888888889" width="2" height="59.86111111111111" id="tests-vaccines-40"></rect></g><g><rect x="50.89090909090908" y="49.85000000000001" width="2" height="50.14999999999999" id="tests-vaccines-41"></rect></g><g><rect x="47.32727272727273" y="50.18888888888888" width="2" height="49.81111111111112" id="tests-vaccines-42"></rect></g><g><rect x="43.76363636363636" y="52.65555555555556" width="2" height="47.34444444444444" id="tests-vaccines-43"></rect></g><g><rect x="40.199999999999996" y="47.37777777777777" width="2" height="52.62222222222223" id="tests-vaccines-44"></rect></g><g><rect x="36.636363636363626" y="87.56666666666668" width="2" height="12.433333333333323" id="tests-vaccines-45"></rect></g><g><rect x="33.072727272727285" y="75.93888888888888" width="2" height="24.061111111111117" id="tests-vaccines-46"></rect></g><g><rect x="29.509090909090922" y="36.977777777777774" width="2" height="63.022222222222226" id="tests-vaccines-47"></rect></g><g><rect x="25.945454545454556" y="46.233333333333334" width="2" height="53.766666666666666" id="tests-vaccines-48"></rect></g><g><rect x="22.38181818181819" y="46.79444444444445" width="2" height="53.20555555555555" id="tests-vaccines-49"></rect></g><g><rect x="18.818181818181824" y="50.49444444444444" width="2" height="49.50555555555556" id="tests-vaccines-50"></rect></g><g><rect x="15.254545454545461" y="47.68333333333333" width="2" height="52.31666666666667" id="tests-vaccines-51"></rect></g><g><rect x="11.690909090909095" y="85.8111111111111" width="2" height="14.188888888888897" id="tests-vaccines-52"></rect></g><g><rect x="8.12727272727273" y="73.95" width="2" height="26.049999999999997" id="tests-vaccines-53"></rect></g><g><rect x="4.563636363636365" y="31.81666666666667" width="2" height="68.18333333333334" id="tests-vaccines-54"></rect></g><g><rect x="1" y="43.51111111111111" width="2" height="56.48888888888889" id="tests-vaccines-55"></rect></g></g><g class="fg-line tests-vaccines" fill="none" stroke="#92c5de" stroke-width="2" stroke-linecap="round"><path d="M198,31.911904761904765L194.43636363636364,34.40873015873016L190.87272727272727,36.78333333333333L187.30909090909088,38.3L183.74545454545455,36.163492063492065L180.1818181818182,32.87380952380951L176.61818181818182,35.837301587301596L173.05454545454546,40.16984126984128L169.49090909090907,46.09285714285715L165.92727272727274,51.462698412698415L162.36363636363637,56.860317460317454L158.8,58.9563492063492L155.23636363636365,61.95793650793651L151.6727272727273,65.61349206349206L148.1090909090909,67.75952380952381L144.54545454545453,67.0436507936508L140.9818181818182,66.37222222222222L137.41818181818184,65.53095238095239L133.85454545454544,65.96825396825396L130.29090909090908,65.26507936507937L126.72727272727273,65.69365079365079L123.16363636363636,65.2031746031746L119.6,64.76269841269841L116.03636363636363,64.53253968253969L112.47272727272728,64.43968253968254L108.90909090909089,63.83174603174603L105.34545454545456,64.2031746031746L101.78181818181817,62.98174603174602L98.21818181818183,62.3936507936508L94.65454545454546,62.05952380952381L91.09090909090911,61.49126984126985L87.52727272727273,60.738095238095234L83.96363636363637,60.56269841269841L80.4,60.03253968253968L76.83636363636364,59.169841269841264L73.27272727272727,58.986507936507934L69.70909090909092,58.8111111111111L66.14545454545454,58.83492063492064L62.58181818181818,58.18730158730159L59.018181818181816,57.983333333333334L55.454545454545446,57.673809523809524L51.89090909090908,57.22222222222222L48.32727272727273,56.705555555555556L44.76363636363636,56.220634920634915L41.199999999999996,55.911904761904765L37.636363636363626,55.955555555555556L34.072727272727285,55.7047619047619L30.509090909090922,55.42063492063492L26.945454545454556,54.68333333333333L23.38181818181819,54.294444444444444L19.818181818181824,53.74761904761905L16.25454545454546,52.77063492063492L12.690909090909095,52.00634920634921L9.12727272727273,51.983333333333334L5.563636363636365,51.449999999999996L2,50.42380952380952"></path></g></svg>