<svg about="DATA_PUBLISHED_DATE:2022-01-15,RENDER_DATE:2022-01-15" xmlns="http://www.w3.org/2000/svg" viewBox="0,0,200,100"><g transform="translate(0,0)"></g><g class="fg-bars tests-vaccines" fill="#00183f" stroke="none"><g><rect x="197" y="27.026571428571433" width="2" height="72.97342857142857" id="tests-vaccines-0"></rect></g><g><rect x="193.43636363636364" y="36.41942857142857" width="2" height="63.58057142857143" id="tests-vaccines-1"></rect></g><g><rect x="189.87272727272727" y="38.79057142857143" width="2" height="61.20942857142857" id="tests-vaccines-2"></rect></g><g><rect x="186.30909090909088" y="39.62971428571429" width="2" height="60.37028571428571" id="tests-vaccines-3"></rect></g><g><rect x="182.74545454545455" y="44.38457142857143" width="2" height="55.61542857142857" id="tests-vaccines-4"></rect></g><g><rect x="179.1818181818182" y="84.97542857142857" width="2" height="15.024571428571434" id="tests-vaccines-5"></rect></g><g><rect x="175.61818181818182" y="97.82714285714286" width="2" height="2.17285714285714" id="tests-vaccines-6"></rect></g><g><rect x="172.05454545454546" y="78.81028571428571" width="2" height="21.189714285714288" id="tests-vaccines-7"></rect></g><g><rect x="168.49090909090907" y="37.15714285714286" width="2" height="62.84285714285714" id="tests-vaccines-8"></rect></g><g><rect x="164.92727272727274" y="31.910000000000004" width="2" height="68.09" id="tests-vaccines-9"></rect></g><g><rect x="161.36363636363637" y="31.804857142857145" width="2" height="68.19514285714286" id="tests-vaccines-10"></rect></g><g><rect x="157.8" y="40.309428571428576" width="2" height="59.690571428571424" id="tests-vaccines-11"></rect></g><g><rect x="154.23636363636365" y="84.20657142857144" width="2" height="15.793428571428564" id="tests-vaccines-12"></rect></g><g><rect x="150.6727272727273" y="99.74542857142858" width="2" height="0.254571428571424" id="tests-vaccines-13"></rect></g><g><rect x="147.1090909090909" y="87.17457142857144" width="2" height="12.82542857142856" id="tests-vaccines-14"></rect></g><g><rect x="143.54545454545453" y="38.39399999999999" width="2" height="61.60600000000001" id="tests-vaccines-15"></rect></g><g><rect x="139.9818181818182" y="27.321142857142856" width="2" height="72.67885714285714" id="tests-vaccines-16"></rect></g><g><rect x="136.41818181818184" y="25.195428571428568" width="2" height="74.80457142857144" id="tests-vaccines-17"></rect></g><g><rect x="132.85454545454544" y="30.199428571428566" width="2" height="69.80057142857143" id="tests-vaccines-18"></rect></g><g><rect x="129.29090909090908" y="79.43571428571428" width="2" height="20.564285714285717" id="tests-vaccines-19"></rect></g><g><rect x="125.72727272727273" y="59.23571428571428" width="2" height="40.76428571428572" id="tests-vaccines-20"></rect></g><g><rect x="122.16363636363636" y="26.053428571428572" width="2" height="73.94657142857143" id="tests-vaccines-21"></rect></g><g><rect x="118.6" y="35.13885714285714" width="2" height="64.86114285714285" id="tests-vaccines-22"></rect></g><g><rect x="115.03636363636363" y="33.58942857142857" width="2" height="66.41057142857143" id="tests-vaccines-23"></rect></g><g><rect x="111.47272727272728" y="35.510285714285715" width="2" height="64.48971428571429" id="tests-vaccines-24"></rect></g><g><rect x="107.90909090909089" y="38.06428571428572" width="2" height="61.93571428571428" id="tests-vaccines-25"></rect></g><g><rect x="104.34545454545456" y="80.01142857142858" width="2" height="19.98857142857142" id="tests-vaccines-26"></rect></g><g><rect x="100.78181818181817" y="53.93942857142857" width="2" height="46.06057142857143" id="tests-vaccines-27"></rect></g><g><rect x="97.21818181818183" y="19.567999999999998" width="2" height="80.432" id="tests-vaccines-28"></rect></g><g><rect x="93.65454545454546" y="27.554285714285708" width="2" height="72.44571428571429" id="tests-vaccines-29"></rect></g><g><rect x="90.09090909090911" y="25.222285714285718" width="2" height="74.77771428571428" id="tests-vaccines-30"></rect></g><g><rect x="86.52727272727273" y="25.366857142857146" width="2" height="74.63314285714286" id="tests-vaccines-31"></rect></g><g><rect x="82.96363636363637" y="30.645999999999994" width="2" height="69.35400000000001" id="tests-vaccines-32"></rect></g><g><rect x="79.4" y="76.25542857142858" width="2" height="23.74457142857142" id="tests-vaccines-33"></rect></g><g><rect x="75.83636363636364" y="47.61628571428571" width="2" height="52.38371428571429" id="tests-vaccines-34"></rect></g><g><rect x="72.27272727272727" y="8.845142857142863" width="2" height="91.15485714285714" id="tests-vaccines-35"></rect></g><g><rect x="68.70909090909092" y="19.47171428571428" width="2" height="80.52828571428572" id="tests-vaccines-36"></rect></g><g><rect x="65.14545454545454" y="21.39714285714286" width="2" height="78.60285714285715" id="tests-vaccines-37"></rect></g><g><rect x="61.58181818181818" y="29.19828571428571" width="2" height="70.8017142857143" id="tests-vaccines-38"></rect></g><g><rect x="58.018181818181816" y="38.849714285714285" width="2" height="61.150285714285715" id="tests-vaccines-39"></rect></g><g><rect x="54.454545454545446" y="81.53399999999999" width="2" height="18.466000000000008" id="tests-vaccines-40"></rect></g><g><rect x="50.89090909090908" y="67.21571428571428" width="2" height="32.784285714285716" id="tests-vaccines-41"></rect></g><g><rect x="47.32727272727273" y="56.22314285714285" width="2" height="43.77685714285715" id="tests-vaccines-42"></rect></g><g><rect x="43.76363636363636" y="98.57828571428571" width="2" height="1.4217142857142875" id="tests-vaccines-43"></rect></g><g><rect x="40.199999999999996" y="41.25914285714286" width="2" height="58.74085714285714" id="tests-vaccines-44"></rect></g><g><rect x="36.636363636363626" y="30.119714285714284" width="2" height="69.88028571428572" id="tests-vaccines-45"></rect></g><g><rect x="33.072727272727285" y="33.25514285714286" width="2" height="66.74485714285714" id="tests-vaccines-46"></rect></g><g><rect x="29.509090909090922" y="78.78971428571428" width="2" height="21.210285714285718" id="tests-vaccines-47"></rect></g><g><rect x="25.945454545454556" y="54.94314285714286" width="2" height="45.05685714285714" id="tests-vaccines-48"></rect></g><g><rect x="22.38181818181819" y="22.585714285714285" width="2" height="77.41428571428571" id="tests-vaccines-49"></rect></g><g><rect x="18.818181818181824" y="34.68342857142858" width="2" height="65.31657142857142" id="tests-vaccines-50"></rect></g><g><rect x="15.254545454545461" y="33.54571428571429" width="2" height="66.4542857142857" id="tests-vaccines-51"></rect></g><g><rect x="11.690909090909095" y="35.109428571428566" width="2" height="64.89057142857143" id="tests-vaccines-52"></rect></g><g><rect x="8.12727272727273" y="40.76228571428572" width="2" height="59.23771428571428" id="tests-vaccines-53"></rect></g><g><rect x="4.563636363636365" y="79.43571428571428" width="2" height="20.564285714285717" id="tests-vaccines-54"></rect></g><g><rect x="1" y="57.14485714285714" width="2" height="42.85514285714286" id="tests-vaccines-55"></rect></g></g><g class="fg-line tests-vaccines" fill="none" stroke="#92c5de" stroke-width="2" stroke-linecap="round"><path d="M198,52.721918367346944L194.43636363636364,60.1195918367347L190.87272727272727,60.224979591836735L187.30909090909088,59.242040816326536L183.74545454545455,58.124204081632655L180.1818181818182,57.542040816326534L176.61818181818182,57.432204081632655L173.05454545454546,57.70624489795918L169.49090909090907,58.90114285714285L165.92727272727274,59.077836734693875L162.36363636363637,58.422285714285714L158.8,57.478081632653065L155.23636363636365,56.033795918367346L151.6727272727273,55.35224489795918L148.1090909090909,49.56514285714285L144.54545454545453,40.833551020408166L140.9818181818182,40.36853061224489L137.41818181818184,41.264L133.85454545454544,42.73755102040817L130.29090909090908,43.86110204081633L126.72727272727273,43.943346938775505L123.16363636363636,43.18673469387755L119.6,42.260244897959176L116.03636363636363,41.17673469387755L112.47272727272728,39.981428571428566L108.90909090909089,38.53236734693878L105.34545454545456,37.47261224489796L101.78181818181817,36.93604081632653L98.21818181818183,36.03273469387754L94.65454545454546,34.500897959183675L91.09090909090911,33.346244897959174L87.52727272727273,32.799795918367344L83.96363636363637,33.347142857142856L80.4,34.51910204081632L76.83636363636364,35.27318367346939L73.27272727272727,38.07310204081632L69.70909090909092,44.84138775510203L66.14545454545454,56.14232653061224L62.58181818181818,58.97975510204082L59.018181818181816,59.11138775510203L55.454545454545446,58.312163265306125L51.89090909090908,57.9201224489796L48.32727272727273,56.16689795918368L44.76363636363636,51.36155102040816L41.199999999999996,42.233714285714285L37.636363636363626,41.131795918367345L34.072727272727285,41.84461224489796L30.509090909090922,42.91706122448979L26.945454545454556,43.009346938775515L23.38181818181819,43.32387755102041L19.818181818181824,43.73318367346939L16.25454545454546,44.116L12.690909090909095,44.33832653061225L9.12727272727273,44.68946938775511L5.563636363636365,44.94951020408163L2,45.10812244897959"></path></g></svg>