<svg viewBox="0,0,200,100"><g transform="translate(0,0)"></g><g class="fg-bars cases-ep"><g><rect x="200" y="49.05555555555555" width="2" height="50.94444444444445" id="cases-ep-0"></rect></g><g><rect x="196.36363636363637" y="42.36666666666666" width="2" height="57.63333333333334" id="cases-ep-1"></rect></g><g><rect x="192.72727272727272" y="36.138888888888886" width="2" height="63.861111111111114" id="cases-ep-2"></rect></g><g><rect x="189.0909090909091" y="67.96111111111112" width="2" height="32.03888888888888" id="cases-ep-3"></rect></g><g><rect x="185.45454545454544" y="73.43333333333332" width="2" height="26.566666666666677" id="cases-ep-4"></rect></g><g><rect x="181.8181818181818" y="65.08333333333334" width="2" height="34.91666666666666" id="cases-ep-5"></rect></g><g><rect x="178.1818181818182" y="48.144444444444446" width="2" height="51.855555555555554" id="cases-ep-6"></rect></g><g><rect x="174.54545454545456" y="41.961111111111116" width="2" height="58.038888888888884" id="cases-ep-7"></rect></g><g><rect x="170.9090909090909" y="32.3" width="2" height="67.7" id="cases-ep-8"></rect></g><g><rect x="167.27272727272728" y="33.23888888888889" width="2" height="66.76111111111112" id="cases-ep-9"></rect></g><g><rect x="163.63636363636363" y="28.327777777777776" width="2" height="71.67222222222222" id="cases-ep-10"></rect></g><g><rect x="160" y="65.01666666666667" width="2" height="34.983333333333334" id="cases-ep-11"></rect></g><g><rect x="156.36363636363637" y="57.92222222222223" width="2" height="42.07777777777777" id="cases-ep-12"></rect></g><g><rect x="152.72727272727275" y="38.61666666666667" width="2" height="61.38333333333333" id="cases-ep-13"></rect></g><g><rect x="149.0909090909091" y="31.944444444444443" width="2" height="68.05555555555556" id="cases-ep-14"></rect></g><g><rect x="145.45454545454547" y="25.63333333333333" width="2" height="74.36666666666667" id="cases-ep-15"></rect></g><g><rect x="141.8181818181818" y="23.605555555555558" width="2" height="76.39444444444445" id="cases-ep-16"></rect></g><g><rect x="138.1818181818182" y="16.17222222222222" width="2" height="83.82777777777778" id="cases-ep-17"></rect></g><g><rect x="134.54545454545453" y="59.233333333333334" width="2" height="40.766666666666666" id="cases-ep-18"></rect></g><g><rect x="130.9090909090909" y="51.41111111111112" width="2" height="48.58888888888888" id="cases-ep-19"></rect></g><g><rect x="127.27272727272727" y="26.811111111111106" width="2" height="73.1888888888889" id="cases-ep-20"></rect></g><g><rect x="123.63636363636363" y="23.783333333333335" width="2" height="76.21666666666667" id="cases-ep-21"></rect></g><g><rect x="120" y="17.349999999999998" width="2" height="82.65" id="cases-ep-22"></rect></g><g><rect x="116.36363636363636" y="15.488888888888885" width="2" height="84.51111111111112" id="cases-ep-23"></rect></g><g><rect x="112.72727272727275" y="12.038888888888888" width="2" height="87.96111111111111" id="cases-ep-24"></rect></g><g><rect x="109.09090909090908" y="55.338888888888896" width="2" height="44.661111111111104" id="cases-ep-25"></rect></g><g><rect x="105.45454545454547" y="47.31666666666666" width="2" height="52.68333333333334" id="cases-ep-26"></rect></g><g><rect x="101.81818181818181" y="24.2" width="2" height="75.8" id="cases-ep-27"></rect></g><g><rect x="98.18181818181819" y="19.41111111111111" width="2" height="80.58888888888889" id="cases-ep-28"></rect></g><g><rect x="94.54545454545456" y="14.933333333333332" width="2" height="85.06666666666666" id="cases-ep-29"></rect></g><g><rect x="90.90909090909092" y="11.011111111111116" width="2" height="88.98888888888888" id="cases-ep-30"></rect></g><g><rect x="87.27272727272728" y="10.566666666666668" width="2" height="89.43333333333334" id="cases-ep-31"></rect></g><g><rect x="83.63636363636364" y="52.60555555555555" width="2" height="47.39444444444445" id="cases-ep-32"></rect></g><g><rect x="80" y="47" width="2" height="53" id="cases-ep-33"></rect></g><g><rect x="76.36363636363637" y="29.17777777777778" width="2" height="70.82222222222222" id="cases-ep-34"></rect></g><g><rect x="72.72727272727273" y="23.89444444444444" width="2" height="76.10555555555555" id="cases-ep-35"></rect></g><g><rect x="69.0909090909091" y="22.62222222222222" width="2" height="77.37777777777778" id="cases-ep-36"></rect></g><g><rect x="65.45454545454545" y="20.85555555555556" width="2" height="79.14444444444445" id="cases-ep-37"></rect></g><g><rect x="61.81818181818181" y="22.705555555555556" width="2" height="77.29444444444445" id="cases-ep-38"></rect></g><g><rect x="58.18181818181818" y="53.511111111111106" width="2" height="46.488888888888894" id="cases-ep-39"></rect></g><g><rect x="54.54545454545454" y="53.283333333333324" width="2" height="46.716666666666676" id="cases-ep-40"></rect></g><g><rect x="50.90909090909091" y="38.92777777777777" width="2" height="61.07222222222223" id="cases-ep-41"></rect></g><g><rect x="47.272727272727266" y="35.205555555555556" width="2" height="64.79444444444445" id="cases-ep-42"></rect></g><g><rect x="43.636363636363626" y="34.78888888888889" width="2" height="65.21111111111111" id="cases-ep-43"></rect></g><g><rect x="39.99999999999999" y="38.088888888888896" width="2" height="61.911111111111104" id="cases-ep-44"></rect></g><g><rect x="36.36363636363635" y="35.36111111111111" width="2" height="64.63888888888889" id="cases-ep-45"></rect></g><g><rect x="32.72727272727274" y="64.70555555555555" width="2" height="35.29444444444445" id="cases-ep-46"></rect></g><g><rect x="29.0909090909091" y="62.83333333333334" width="2" height="37.16666666666666" id="cases-ep-47"></rect></g><g><rect x="25.454545454545464" y="55.48333333333333" width="2" height="44.51666666666667" id="cases-ep-48"></rect></g><g><rect x="21.818181818181827" y="54.2" width="2" height="45.8" id="cases-ep-49"></rect></g><g><rect x="18.181818181818187" y="51.6888888888889" width="2" height="48.3111111111111" id="cases-ep-50"></rect></g><g><rect x="14.54545454545455" y="54.07777777777778" width="2" height="45.92222222222222" id="cases-ep-51"></rect></g><g><rect x="10.909090909090914" y="53.82777777777778" width="2" height="46.17222222222222" id="cases-ep-52"></rect></g><g><rect x="7.272727272727275" y="73.6888888888889" width="2" height="26.311111111111103" id="cases-ep-53"></rect></g><g><rect x="3.6363636363636376" y="74.32222222222222" width="2" height="25.677777777777777" id="cases-ep-54"></rect></g><g><rect x="0" y="67.11111111111111" width="2" height="32.888888888888886" id="cases-ep-55"></rect></g></g><g class="fg-line cases-ep"><path d="M200,54.59761904761904L196.36363636363637,53.58412698412698L192.72727272727272,52.14603174603174L189.0909090909091,51.73174603174604L185.45454545454544,46.06984126984127L181.8181818181818,44.86746031746031L178.1818181818182,43.84444444444444L174.54545454545456,42.48333333333333L170.9090909090909,41.05238095238095L167.27272727272728,40.1L163.63636363636363,38.723809523809514L160,36.98730158730159L156.36363636363637,36.16111111111111L152.72727272727275,35.23095238095239L149.0909090909091,33.544444444444444L145.45454545454547,32.378571428571426L141.8181818181818,31.195238095238096L138.1818181818182,30.035714285714278L134.54545454545453,29.44523809523809L130.9090909090909,28.888888888888886L127.27272727272727,28.303968253968257L123.63636363636363,27.93095238095239L120,27.3063492063492L116.36363636363636,26.961111111111112L112.72727272727275,26.321428571428573L109.09090909090908,26.111111111111107L105.45454545454547,25.72063492063492L101.81818181818181,25.675396825396835L98.18181818181819,26.38650793650794L94.54545454545456,27.026984126984132L90.90909090909092,28.12539682539683L87.27272727272728,29.53174603174603L83.63636363636364,31.265873015873012L80,31.3952380952381L76.36363636363637,32.292857142857144L72.72727272727273,33.68571428571428L69.0909090909091,35.301587301587304L65.45454545454545,37.03968253968254L61.81818181818181,39.50158730158731L58.18181818181818,41.30952380952381L54.54545454545454,42.908730158730165L50.90909090909091,44.27301587301587L47.272727272727266,46.63809523809523L43.636363636363626,49.351587301587294L39.99999999999999,51.76587301587301L36.36363636363635,54.05L32.72727272727274,56.68809523809524L29.0909090909091,57.971428571428575L25.454545454545464,59.612698412698414L21.818181818181827,61.27380952380952L18.181818181818187,63.20714285714286L14.54545454545455,65.73095238095237L10.909090909090914,68.05714285714286L7.272727272727275,70.43095238095238L3.6363636363636376,71.72936507936508L0,72.93095238095238"></path></g></svg>