<svg meta="{&quot;DATA_PUBLISHED_DATE&quot;:&quot;2022-03-24&quot;,&quot;RENDER_DATE&quot;:&quot;2022-03-24&quot;,&quot;FIRST_DATE&quot;:&quot;2022-01-20&quot;,&quot;LAST_DATE&quot;:&quot;2022-03-16&quot;}" xmlns="http://www.w3.org/2000/svg" viewBox="0,0,200,100"><g transform="translate(0,0)"></g><g class="fg-bars tests-vaccines" fill="#00183f" stroke="none"><g><rect x="197" y="84.9205" width="2" height="15.079499999999996" id="tests-vaccines-0"></rect></g><g><rect x="193.43636363636364" y="85.0285" width="2" height="14.971500000000006" id="tests-vaccines-1"></rect></g><g><rect x="189.87272727272727" y="85.2855" width="2" height="14.714500000000001" id="tests-vaccines-2"></rect></g><g><rect x="186.30909090909088" y="94.2805" width="2" height="5.7194999999999965" id="tests-vaccines-3"></rect></g><g><rect x="182.74545454545455" y="87.8825" width="2" height="12.117500000000007" id="tests-vaccines-4"></rect></g><g><rect x="179.1818181818182" y="79.135" width="2" height="20.864999999999995" id="tests-vaccines-5"></rect></g><g><rect x="175.61818181818182" y="83.649" width="2" height="16.351" id="tests-vaccines-6"></rect></g><g><rect x="172.05454545454546" y="82.708" width="2" height="17.292" id="tests-vaccines-7"></rect></g><g><rect x="168.49090909090907" y="83.66" width="2" height="16.340000000000003" id="tests-vaccines-8"></rect></g><g><rect x="164.92727272727274" y="83.157" width="2" height="16.843000000000004" id="tests-vaccines-9"></rect></g><g><rect x="161.36363636363637" y="93.526" width="2" height="6.474000000000004" id="tests-vaccines-10"></rect></g><g><rect x="157.8" y="85.85249999999999" width="2" height="14.147500000000008" id="tests-vaccines-11"></rect></g><g><rect x="154.23636363636365" y="73.045" width="2" height="26.955" id="tests-vaccines-12"></rect></g><g><rect x="150.6727272727273" y="80.182" width="2" height="19.817999999999998" id="tests-vaccines-13"></rect></g><g><rect x="147.1090909090909" y="78.571" width="2" height="21.429000000000002" id="tests-vaccines-14"></rect></g><g><rect x="143.54545454545453" y="76.072" width="2" height="23.927999999999997" id="tests-vaccines-15"></rect></g><g><rect x="139.9818181818182" y="71.628" width="2" height="28.372" id="tests-vaccines-16"></rect></g><g><rect x="136.41818181818184" y="90.30749999999999" width="2" height="9.69250000000001" id="tests-vaccines-17"></rect></g><g><rect x="132.85454545454544" y="80.755" width="2" height="19.245000000000005" id="tests-vaccines-18"></rect></g><g><rect x="129.29090909090908" y="63.498" width="2" height="36.502" id="tests-vaccines-19"></rect></g><g><rect x="125.72727272727273" y="73.3205" width="2" height="26.679500000000004" id="tests-vaccines-20"></rect></g><g><rect x="122.16363636363636" y="73.392" width="2" height="26.608000000000004" id="tests-vaccines-21"></rect></g><g><rect x="118.6" y="72.93" width="2" height="27.069999999999993" id="tests-vaccines-22"></rect></g><g><rect x="115.03636363636363" y="79.55799999999999" width="2" height="20.442000000000007" id="tests-vaccines-23"></rect></g><g><rect x="111.47272727272728" y="89.41900000000001" width="2" height="10.580999999999989" id="tests-vaccines-24"></rect></g><g><rect x="107.90909090909089" y="77.767" width="2" height="22.233000000000004" id="tests-vaccines-25"></rect></g><g><rect x="104.34545454545456" y="58.3245" width="2" height="41.6755" id="tests-vaccines-26"></rect></g><g><rect x="100.78181818181817" y="69.825" width="2" height="30.174999999999997" id="tests-vaccines-27"></rect></g><g><rect x="97.21818181818183" y="70.13199999999999" width="2" height="29.86800000000001" id="tests-vaccines-28"></rect></g><g><rect x="93.65454545454546" y="71.294" width="2" height="28.706000000000003" id="tests-vaccines-29"></rect></g><g><rect x="90.09090909090911" y="74.8795" width="2" height="25.120500000000007" id="tests-vaccines-30"></rect></g><g><rect x="86.52727272727273" y="90.3335" width="2" height="9.6665" id="tests-vaccines-31"></rect></g><g><rect x="82.96363636363637" y="74.667" width="2" height="25.333" id="tests-vaccines-32"></rect></g><g><rect x="79.4" y="51.73" width="2" height="48.27" id="tests-vaccines-33"></rect></g><g><rect x="75.83636363636364" y="63.38900000000001" width="2" height="36.61099999999999" id="tests-vaccines-34"></rect></g><g><rect x="72.27272727272727" y="61.495" width="2" height="38.505" id="tests-vaccines-35"></rect></g><g><rect x="68.70909090909092" y="61.9015" width="2" height="38.0985" id="tests-vaccines-36"></rect></g><g><rect x="65.14545454545454" y="60.6915" width="2" height="39.3085" id="tests-vaccines-37"></rect></g><g><rect x="61.58181818181818" y="84.9255" width="2" height="15.0745" id="tests-vaccines-38"></rect></g><g><rect x="58.018181818181816" y="65.9335" width="2" height="34.066500000000005" id="tests-vaccines-39"></rect></g><g><rect x="54.454545454545446" y="37.6975" width="2" height="62.3025" id="tests-vaccines-40"></rect></g><g><rect x="50.89090909090908" y="53.0985" width="2" height="46.9015" id="tests-vaccines-41"></rect></g><g><rect x="47.32727272727273" y="51.443" width="2" height="48.557" id="tests-vaccines-42"></rect></g><g><rect x="43.76363636363636" y="50.49950000000001" width="2" height="49.50049999999999" id="tests-vaccines-43"></rect></g><g><rect x="40.199999999999996" y="45.723" width="2" height="54.277" id="tests-vaccines-44"></rect></g><g><rect x="36.636363636363626" y="81.1695" width="2" height="18.8305" id="tests-vaccines-45"></rect></g><g><rect x="33.072727272727285" y="55.211" width="2" height="44.789" id="tests-vaccines-46"></rect></g><g><rect x="29.509090909090922" y="16.507499999999997" width="2" height="83.4925" id="tests-vaccines-47"></rect></g><g><rect x="25.945454545454556" y="34.189" width="2" height="65.811" id="tests-vaccines-48"></rect></g><g><rect x="22.38181818181819" y="33.7785" width="2" height="66.22149999999999" id="tests-vaccines-49"></rect></g><g><rect x="18.818181818181824" y="33.133500000000005" width="2" height="66.8665" id="tests-vaccines-50"></rect></g><g><rect x="15.254545454545461" y="33.572" width="2" height="66.428" id="tests-vaccines-51"></rect></g><g><rect x="11.690909090909095" y="77.703" width="2" height="22.296999999999997" id="tests-vaccines-52"></rect></g><g><rect x="8.12727272727273" y="52.327999999999996" width="2" height="47.672000000000004" id="tests-vaccines-53"></rect></g><g><rect x="4.563636363636365" y="8.805499999999999" width="2" height="91.1945" id="tests-vaccines-54"></rect></g><g><rect x="1" y="22.890999999999995" width="2" height="77.10900000000001" id="tests-vaccines-55"></rect></g></g><g class="fg-line tests-vaccines" fill="none" stroke="#92c5de" stroke-width="2" stroke-linecap="round"><path d="M198,85.74021428571429L194.43636363636364,85.42414285714285L190.87272727272727,85.22864285714286L187.30909090909088,84.92457142857143L183.74545454545455,84.81678571428571L180.1818181818182,84.52678571428571L176.61818181818182,83.65678571428572L173.05454545454546,83.1615L169.49090909090907,82.5705L165.92727272727274,81.48649999999999L162.36363636363637,79.8395L158.8,79.37971428571429L155.23636363636365,78.6515L151.6727272727273,77.28764285714286L148.1090909090909,76.30742857142857L144.54545454545453,75.56757142857143L140.9818181818182,75.11871428571428L137.41818181818184,76.25157142857142L133.85454545454544,76.12464285714286L130.29090909090908,75.69778571428571L126.72727272727273,74.95871428571428L123.16363636363636,74.45935714285714L119.6,73.99364285714286L116.03636363636363,73.75992857142857L112.47272727272728,73.09157142857143L108.90909090909089,73.22221428571429L105.34545454545456,72.77935714285715L101.78181818181817,71.83728571428571L98.21818181818183,70.91785714285714L94.65454545454546,69.684L91.09090909090911,68.34221428571429L87.52727272727273,66.31535714285715L83.96363636363637,65.54278571428571L80.4,64.29514285714286L76.83636363636364,62.2905L73.27272727272727,60.82042857142858L69.70909090909092,59.38442857142857L66.14545454545454,57.75557142857143L62.58181818181818,55.61721428571429L59.018181818181816,55.08064285714285L55.454545454545446,53.548857142857145L51.89090909090908,50.52171428571428L48.32727272727273,47.82035714285714L44.76363636363636,45.29685714285715L41.199999999999996,42.815999999999995L37.636363636363626,41.08014285714285L34.072727272727285,40.58492857142857L30.509090909090922,40.173071428571426L26.945454545454556,39.072785714285715L23.38181818181819,37.45878571428571L19.818181818181824,35.42007142857143L16.25454545454546,33.31128571428571L12.690909090909095,32.8475L9.12727272727273,32.121857142857145L5.563636363636365,30.596428571428568L2,27.52892857142857"></path></g></svg>