<svg about="DATA_PUBLISHED_DATE:2022-01-28,RENDER_DATE:2022-01-30" xmlns="http://www.w3.org/2000/svg" viewBox="0,0,200,100"><g transform="translate(0,0)"></g><g class="fg-bars cases-ep" fill="#00183f" stroke="none"><g><rect x="197" y="41.643750000000004" width="2" height="58.356249999999996" id="cases-ep-0"></rect></g><g><rect x="193.43636363636364" y="29.978749999999998" width="2" height="70.02125000000001" id="cases-ep-1"></rect></g><g><rect x="189.87272727272727" y="52.99812500000001" width="2" height="47.00187499999999" id="cases-ep-2"></rect></g><g><rect x="186.30909090909088" y="77.4475" width="2" height="22.552499999999995" id="cases-ep-3"></rect></g><g><rect x="182.74545454545455" y="66.03875000000001" width="2" height="33.96124999999999" id="cases-ep-4"></rect></g><g><rect x="179.1818181818182" y="37.371874999999996" width="2" height="62.628125000000004" id="cases-ep-5"></rect></g><g><rect x="175.61818181818182" y="31.411250000000003" width="2" height="68.58875" id="cases-ep-6"></rect></g><g><rect x="172.05454545454546" y="24.911249999999995" width="2" height="75.08875" id="cases-ep-7"></rect></g><g><rect x="168.49090909090907" y="19.451874999999998" width="2" height="80.548125" id="cases-ep-8"></rect></g><g><rect x="164.92727272727274" y="16.013750000000005" width="2" height="83.98625" id="cases-ep-9"></rect></g><g><rect x="161.36363636363637" y="67.40125" width="2" height="32.598749999999995" id="cases-ep-10"></rect></g><g><rect x="157.8" y="54.37624999999999" width="2" height="45.62375000000001" id="cases-ep-11"></rect></g><g><rect x="154.23636363636365" y="18.40625" width="2" height="81.59375" id="cases-ep-12"></rect></g><g><rect x="150.6727272727273" y="13.909375" width="2" height="86.090625" id="cases-ep-13"></rect></g><g><rect x="147.1090909090909" y="6.967500000000005" width="2" height="93.0325" id="cases-ep-14"></rect></g><g><rect x="143.54545454545453" y="6.555" width="2" height="93.445" id="cases-ep-15"></rect></g><g><rect x="139.9818181818182" y="17.523750000000003" width="2" height="82.47625" id="cases-ep-16"></rect></g><g><rect x="136.41818181818184" y="67.32000000000001" width="2" height="32.67999999999999" id="cases-ep-17"></rect></g><g><rect x="132.85454545454544" y="81.515" width="2" height="18.485" id="cases-ep-18"></rect></g><g><rect x="129.29090909090908" y="68.25187500000001" width="2" height="31.748124999999987" id="cases-ep-19"></rect></g><g><rect x="125.72727272727273" y="48.34375" width="2" height="51.65625" id="cases-ep-20"></rect></g><g><rect x="122.16363636363636" y="46.18687500000001" width="2" height="53.81312499999999" id="cases-ep-21"></rect></g><g><rect x="118.6" y="46.573125000000005" width="2" height="53.426874999999995" id="cases-ep-22"></rect></g><g><rect x="115.03636363636363" y="54.60875000000001" width="2" height="45.39124999999999" id="cases-ep-23"></rect></g><g><rect x="111.47272727272728" y="78.71625" width="2" height="21.283749999999998" id="cases-ep-24"></rect></g><g><rect x="107.90909090909089" y="91.45875" width="2" height="8.541250000000005" id="cases-ep-25"></rect></g><g><rect x="104.34545454545456" y="86.814375" width="2" height="13.185625000000002" id="cases-ep-26"></rect></g><g><rect x="100.78181818181817" y="80.320625" width="2" height="19.679374999999993" id="cases-ep-27"></rect></g><g><rect x="97.21818181818183" y="80.6325" width="2" height="19.367500000000007" id="cases-ep-28"></rect></g><g><rect x="93.65454545454546" y="83.320625" width="2" height="16.679374999999993" id="cases-ep-29"></rect></g><g><rect x="90.09090909090911" y="85.85437499999999" width="2" height="14.14562500000001" id="cases-ep-30"></rect></g><g><rect x="86.52727272727273" y="93.47375" width="2" height="6.5262500000000045" id="cases-ep-31"></rect></g><g><rect x="82.96363636363637" y="94.036875" width="2" height="5.963125000000005" id="cases-ep-32"></rect></g><g><rect x="79.4" y="93.14812500000001" width="2" height="6.851874999999993" id="cases-ep-33"></rect></g><g><rect x="75.83636363636364" y="93.69" width="2" height="6.310000000000002" id="cases-ep-34"></rect></g><g><rect x="72.27272727272727" y="93.756875" width="2" height="6.243125000000006" id="cases-ep-35"></rect></g><g><rect x="68.70909090909092" y="94.82125" width="2" height="5.178749999999994" id="cases-ep-36"></rect></g><g><rect x="65.14545454545454" y="94.48375" width="2" height="5.516249999999999" id="cases-ep-37"></rect></g><g><rect x="61.58181818181818" y="97.280625" width="2" height="2.7193749999999994" id="cases-ep-38"></rect></g><g><rect x="58.018181818181816" y="97.36437500000001" width="2" height="2.6356249999999903" id="cases-ep-39"></rect></g><g><rect x="54.454545454545446" y="96.40125" width="2" height="3.5987499999999955" id="cases-ep-40"></rect></g><g><rect x="50.89090909090908" y="96.41375" width="2" height="3.586250000000007" id="cases-ep-41"></rect></g><g><rect x="47.32727272727273" y="95.953125" width="2" height="4.046875" id="cases-ep-42"></rect></g><g><rect x="43.76363636363636" y="95.920625" width="2" height="4.079374999999999" id="cases-ep-43"></rect></g><g><rect x="40.199999999999996" y="95.3625" width="2" height="4.637500000000003" id="cases-ep-44"></rect></g><g><rect x="36.636363636363626" y="97.585" width="2" height="2.4150000000000063" id="cases-ep-45"></rect></g><g><rect x="33.072727272727285" y="97.395" width="2" height="2.605000000000004" id="cases-ep-46"></rect></g><g><rect x="29.509090909090922" y="96.16" width="2" height="3.8400000000000034" id="cases-ep-47"></rect></g><g><rect x="25.945454545454556" y="96.05" width="2" height="3.950000000000003" id="cases-ep-48"></rect></g><g><rect x="22.38181818181819" y="95.306875" width="2" height="4.693124999999995" id="cases-ep-49"></rect></g><g><rect x="18.818181818181824" y="95.5725" width="2" height="4.427499999999995" id="cases-ep-50"></rect></g><g><rect x="15.254545454545461" y="94.82374999999999" width="2" height="5.17625000000001" id="cases-ep-51"></rect></g><g><rect x="11.690909090909095" y="97.244375" width="2" height="2.755624999999995" id="cases-ep-52"></rect></g><g><rect x="8.12727272727273" y="97.361875" width="2" height="2.6381250000000023" id="cases-ep-53"></rect></g><g><rect x="4.563636363636365" y="97.280625" width="2" height="2.7193749999999994" id="cases-ep-54"></rect></g><g><rect x="1" y="98.56937500000001" width="2" height="1.430624999999992" id="cases-ep-55"></rect></g></g><g class="fg-line cases-ep" fill="none" stroke="#92c5de" stroke-width="2" stroke-linecap="round"><path d="M198,48.12714285714286L194.43636363636364,45.73678571428571L190.87272727272727,44.23294642857143L187.30909090909088,38.949464285714285L183.74545454545455,37.51428571428571L180.1818181818182,35.848214285714285L176.61818181818182,33.13883928571428L173.05454545454546,30.638571428571424L169.49090909090907,28.075178571428573L165.92727272727274,26.232767857142857L162.36363636363637,26.448482142857145L158.8,26.436875000000004L155.23636363636365,30.313839285714284L151.6727272727273,37.434642857142855L148.1090909090909,42.35383928571429L144.54545454545453,47.956607142857145L140.9818181818182,53.67348214285714L137.41818181818184,58.971339285714286L133.85454545454544,60.599375L130.29090909090908,62.01991071428572L126.72727272727273,64.67169642857142L123.16363636363636,69.23982142857142L119.6,74.160625L116.03636363636363,79.41026785714286L112.47272727272728,83.87392857142856L108.90909090909089,85.98214285714285L105.34545454545456,86.35044642857143L101.78181818181817,87.25526785714285L98.21818181818183,89.16517857142857L94.65454545454546,91.04008928571429L91.09090909090911,92.68303571428571L87.52727272727273,93.91580357142857L83.96363636363637,94.45964285714285L80.4,94.935L76.83636363636364,95.39973214285715L73.27272727272727,95.78883928571429L69.70909090909092,96.10258928571429L66.14545454545454,96.25964285714286L62.58181818181818,96.38517857142858L59.018181818181816,96.42866071428571L55.454545454545446,96.43303571428572L51.89090909090908,96.39857142857143L48.32727272727273,96.34660714285714L44.76363636363636,96.25428571428571L41.199999999999996,96.20455357142858L37.636363636363626,96.1275892857143L34.072727272727285,96.07892857142856L30.509090909090922,96.07419642857143L26.945454545454556,96.23428571428572L23.38181818181819,96.59419642857144L19.818181818181824,96.84883928571428L16.25454545454546,97.04910714285714L12.690909090909095,97.323125L9.12727272727273,97.45375L5.563636363636365,97.53928571428571L2,97.51857142857143"></path></g></svg>