<svg meta="{&quot;DATA_PUBLISHED_DATE&quot;:&quot;2023-05-25&quot;,&quot;RENDER_DATE&quot;:&quot;2023-05-25&quot;,&quot;FIRST_DATE&quot;:&quot;2023-03-07&quot;,&quot;LAST_DATE&quot;:&quot;2023-05-01&quot;}" xmlns="http://www.w3.org/2000/svg" viewBox="0,0,200,100"><g transform="translate(0,0)"></g><g class="fg-bars death-date" fill="#00183f" stroke="none"><g><rect x="197" y="85.71428571428572" width="2" height="14.285714285714278" id="death-date-0"></rect></g><g><rect x="193.43636363636364" y="77.14285714285715" width="2" height="22.857142857142847" id="death-date-1"></rect></g><g><rect x="189.87272727272727" y="74.28571428571429" width="2" height="25.714285714285708" id="death-date-2"></rect></g><g><rect x="186.30909090909088" y="82.85714285714285" width="2" height="17.142857142857153" id="death-date-3"></rect></g><g><rect x="182.74545454545455" y="60" width="2" height="40" id="death-date-4"></rect></g><g><rect x="179.1818181818182" y="82.85714285714285" width="2" height="17.142857142857153" id="death-date-5"></rect></g><g><rect x="175.61818181818182" y="51.42857142857142" width="2" height="48.57142857142858" id="death-date-6"></rect></g><g><rect x="172.05454545454546" y="62.857142857142854" width="2" height="37.142857142857146" id="death-date-7"></rect></g><g><rect x="168.49090909090907" y="71.42857142857143" width="2" height="28.57142857142857" id="death-date-8"></rect></g><g><rect x="164.92727272727274" y="60" width="2" height="40" id="death-date-9"></rect></g><g><rect x="161.36363636363637" y="68.57142857142857" width="2" height="31.42857142857143" id="death-date-10"></rect></g><g><rect x="157.8" y="82.85714285714285" width="2" height="17.142857142857153" id="death-date-11"></rect></g><g><rect x="154.23636363636365" y="62.857142857142854" width="2" height="37.142857142857146" id="death-date-12"></rect></g><g><rect x="150.6727272727273" y="60" width="2" height="40" id="death-date-13"></rect></g><g><rect x="147.1090909090909" y="62.857142857142854" width="2" height="37.142857142857146" id="death-date-14"></rect></g><g><rect x="143.54545454545453" y="57.14285714285714" width="2" height="42.85714285714286" id="death-date-15"></rect></g><g><rect x="139.9818181818182" y="71.42857142857143" width="2" height="28.57142857142857" id="death-date-16"></rect></g><g><rect x="136.41818181818184" y="68.57142857142857" width="2" height="31.42857142857143" id="death-date-17"></rect></g><g><rect x="132.85454545454544" y="71.42857142857143" width="2" height="28.57142857142857" id="death-date-18"></rect></g><g><rect x="129.29090909090908" y="80" width="2" height="20" id="death-date-19"></rect></g><g><rect x="125.72727272727273" y="65.71428571428571" width="2" height="34.28571428571429" id="death-date-20"></rect></g><g><rect x="122.16363636363636" y="60" width="2" height="40" id="death-date-21"></rect></g><g><rect x="118.6" y="60" width="2" height="40" id="death-date-22"></rect></g><g><rect x="115.03636363636363" y="62.857142857142854" width="2" height="37.142857142857146" id="death-date-23"></rect></g><g><rect x="111.47272727272728" y="74.28571428571429" width="2" height="25.714285714285708" id="death-date-24"></rect></g><g><rect x="107.90909090909089" y="42.85714285714286" width="2" height="57.14285714285714" id="death-date-25"></rect></g><g><rect x="104.34545454545456" y="65.71428571428571" width="2" height="34.28571428571429" id="death-date-26"></rect></g><g><rect x="100.78181818181817" y="71.42857142857143" width="2" height="28.57142857142857" id="death-date-27"></rect></g><g><rect x="97.21818181818183" y="57.14285714285714" width="2" height="42.85714285714286" id="death-date-28"></rect></g><g><rect x="93.65454545454546" y="57.14285714285714" width="2" height="42.85714285714286" id="death-date-29"></rect></g><g><rect x="90.09090909090911" y="62.857142857142854" width="2" height="37.142857142857146" id="death-date-30"></rect></g><g><rect x="86.52727272727273" y="51.42857142857142" width="2" height="48.57142857142858" id="death-date-31"></rect></g><g><rect x="82.96363636363637" y="42.85714285714286" width="2" height="57.14285714285714" id="death-date-32"></rect></g><g><rect x="79.4" y="62.857142857142854" width="2" height="37.142857142857146" id="death-date-33"></rect></g><g><rect x="75.83636363636364" y="62.857142857142854" width="2" height="37.142857142857146" id="death-date-34"></rect></g><g><rect x="72.27272727272727" y="62.857142857142854" width="2" height="37.142857142857146" id="death-date-35"></rect></g><g><rect x="68.70909090909092" y="57.14285714285714" width="2" height="42.85714285714286" id="death-date-36"></rect></g><g><rect x="65.14545454545454" y="42.85714285714286" width="2" height="57.14285714285714" id="death-date-37"></rect></g><g><rect x="61.58181818181818" y="60" width="2" height="40" id="death-date-38"></rect></g><g><rect x="58.018181818181816" y="57.14285714285714" width="2" height="42.85714285714286" id="death-date-39"></rect></g><g><rect x="54.454545454545446" y="68.57142857142857" width="2" height="31.42857142857143" id="death-date-40"></rect></g><g><rect x="50.89090909090908" y="68.57142857142857" width="2" height="31.42857142857143" id="death-date-41"></rect></g><g><rect x="47.32727272727273" y="48.57142857142858" width="2" height="51.42857142857142" id="death-date-42"></rect></g><g><rect x="43.76363636363636" y="57.14285714285714" width="2" height="42.85714285714286" id="death-date-43"></rect></g><g><rect x="40.199999999999996" y="42.85714285714286" width="2" height="57.14285714285714" id="death-date-44"></rect></g><g><rect x="36.636363636363626" y="40" width="2" height="60" id="death-date-45"></rect></g><g><rect x="33.072727272727285" y="31.428571428571427" width="2" height="68.57142857142857" id="death-date-46"></rect></g><g><rect x="29.509090909090922" y="54.28571428571429" width="2" height="45.71428571428571" id="death-date-47"></rect></g><g><rect x="25.945454545454556" y="45.714285714285715" width="2" height="54.285714285714285" id="death-date-48"></rect></g><g><rect x="22.38181818181819" y="5.714285714285716" width="2" height="94.28571428571428" id="death-date-49"></rect></g><g><rect x="18.818181818181824" y="57.14285714285714" width="2" height="42.85714285714286" id="death-date-50"></rect></g><g><rect x="15.254545454545461" y="57.14285714285714" width="2" height="42.85714285714286" id="death-date-51"></rect></g><g><rect x="11.690909090909095" y="17.14285714285714" width="2" height="82.85714285714286" id="death-date-52"></rect></g><g><rect x="8.12727272727273" y="31.428571428571427" width="2" height="68.57142857142857" id="death-date-53"></rect></g><g><rect x="4.563636363636365" y="17.14285714285714" width="2" height="82.85714285714286" id="death-date-54"></rect></g><g><rect x="1" y="54.28571428571429" width="2" height="45.71428571428571" id="death-date-55"></rect></g></g><g class="fg-line death-date" fill="none" stroke="#92c5de" stroke-width="2" stroke-linecap="round"><path d="M198,73.46938775510203L194.43636363636364,70.20408163265306L190.87272727272727,69.38775510204083L187.30909090909088,67.3469387755102L183.74545454545455,65.3061224489796L180.1818181818182,68.57142857142857L176.61818181818182,65.71428571428571L173.05454545454546,66.93877551020408L169.49090909090907,66.93877551020408L165.92727272727274,64.89795918367346L162.36363636363637,66.53061224489795L158.8,66.53061224489795L155.23636363636365,64.89795918367346L151.6727272727273,67.3469387755102L148.1090909090909,68.16326530612244L144.54545454545453,67.75510204081631L140.9818181818182,68.16326530612244L137.41818181818184,66.93877551020408L133.85454545454544,67.75510204081631L130.29090909090908,63.67346938775511L126.72727272727273,61.632653061224495L123.16363636363636,62.44897959183673L119.6,62.04081632653061L116.03636363636363,61.632653061224495L112.47272727272728,61.632653061224495L108.90909090909089,58.36734693877551L105.34545454545456,58.36734693877551L101.78181818181817,57.9591836734694L98.21818181818183,56.734693877551024L94.65454545454546,57.55102040816327L91.09090909090911,57.55102040816327L87.52727272727273,54.69387755102041L83.96363636363637,55.91836734693878L80.4,57.9591836734694L76.83636363636364,58.77551020408163L73.27272727272727,59.591836734693885L69.70909090909092,57.55102040816327L66.14545454545454,57.55102040816327L62.58181818181818,57.55102040816327L59.018181818181816,54.69387755102041L55.454545454545446,51.02040816326531L51.89090909090908,48.97959183673469L48.32727272727273,45.714285714285715L44.76363636363636,39.59183673469388L41.199999999999996,39.59183673469388L37.636363636363626,41.63265306122449L34.072727272727285,38.367346938775505L30.509090909090922,38.367346938775505L26.945454545454556,33.061224489795926L23.38181818181819,34.285714285714285L19.818181818181824,41.22448979591836L16.25454545454546,39.183673469387756L12.690909090909095,33.061224489795926L9.12727272727273,37.95918367346939L5.563636363636365,36.73469387755102L2,40.408163265306115"></path></g></svg>