<svg meta="{&quot;DATA_PUBLISHED_DATE&quot;:&quot;2022-03-25&quot;,&quot;RENDER_DATE&quot;:&quot;2022-03-25&quot;,&quot;FIRST_DATE&quot;:&quot;2022-01-06&quot;,&quot;LAST_DATE&quot;:&quot;2022-03-02&quot;}" xmlns="http://www.w3.org/2000/svg" viewBox="0,0,200,100"><g transform="translate(0,0)"></g><g class="fg-bars death-date" fill="#00183f" stroke="none"><g><rect x="197" y="82.3076923076923" width="2" height="17.692307692307693" id="death-date-0"></rect></g><g><rect x="193.43636363636364" y="78.84615384615384" width="2" height="21.15384615384616" id="death-date-1"></rect></g><g><rect x="189.87272727272727" y="74.61538461538461" width="2" height="25.384615384615387" id="death-date-2"></rect></g><g><rect x="186.30909090909088" y="80" width="2" height="20" id="death-date-3"></rect></g><g><rect x="182.74545454545455" y="73.46153846153847" width="2" height="26.538461538461533" id="death-date-4"></rect></g><g><rect x="179.1818181818182" y="73.84615384615385" width="2" height="26.153846153846146" id="death-date-5"></rect></g><g><rect x="175.61818181818182" y="74.23076923076923" width="2" height="25.769230769230774" id="death-date-6"></rect></g><g><rect x="172.05454545454546" y="65" width="2" height="35" id="death-date-7"></rect></g><g><rect x="168.49090909090907" y="63.84615384615384" width="2" height="36.15384615384616" id="death-date-8"></rect></g><g><rect x="164.92727272727274" y="61.15384615384616" width="2" height="38.84615384615384" id="death-date-9"></rect></g><g><rect x="161.36363636363637" y="56.53846153846154" width="2" height="43.46153846153846" id="death-date-10"></rect></g><g><rect x="157.8" y="63.84615384615384" width="2" height="36.15384615384616" id="death-date-11"></rect></g><g><rect x="154.23636363636365" y="57.692307692307686" width="2" height="42.307692307692314" id="death-date-12"></rect></g><g><rect x="150.6727272727273" y="50" width="2" height="50" id="death-date-13"></rect></g><g><rect x="147.1090909090909" y="52.3076923076923" width="2" height="47.6923076923077" id="death-date-14"></rect></g><g><rect x="143.54545454545453" y="54.23076923076924" width="2" height="45.76923076923076" id="death-date-15"></rect></g><g><rect x="139.9818181818182" y="44.99999999999999" width="2" height="55.00000000000001" id="death-date-16"></rect></g><g><rect x="136.41818181818184" y="43.84615384615385" width="2" height="56.15384615384615" id="death-date-17"></rect></g><g><rect x="132.85454545454544" y="42.69230769230769" width="2" height="57.30769230769231" id="death-date-18"></rect></g><g><rect x="129.29090909090908" y="31.92307692307692" width="2" height="68.07692307692308" id="death-date-19"></rect></g><g><rect x="125.72727272727273" y="36.15384615384616" width="2" height="63.84615384615384" id="death-date-20"></rect></g><g><rect x="122.16363636363636" y="23.461538461538467" width="2" height="76.53846153846153" id="death-date-21"></rect></g><g><rect x="118.6" y="18.846153846153847" width="2" height="81.15384615384616" id="death-date-22"></rect></g><g><rect x="115.03636363636363" y="29.61538461538461" width="2" height="70.38461538461539" id="death-date-23"></rect></g><g><rect x="111.47272727272728" y="32.30769230769231" width="2" height="67.6923076923077" id="death-date-24"></rect></g><g><rect x="107.90909090909089" y="20.38461538461539" width="2" height="79.61538461538461" id="death-date-25"></rect></g><g><rect x="104.34545454545456" y="9.230769230769232" width="2" height="90.76923076923077" id="death-date-26"></rect></g><g><rect x="100.78181818181817" y="19.999999999999996" width="2" height="80" id="death-date-27"></rect></g><g><rect x="97.21818181818183" y="11.538461538461542" width="2" height="88.46153846153845" id="death-date-28"></rect></g><g><rect x="93.65454545454546" y="3.8461538461538436" width="2" height="96.15384615384616" id="death-date-29"></rect></g><g><rect x="90.09090909090911" y="12.307692307692308" width="2" height="87.6923076923077" id="death-date-30"></rect></g><g><rect x="86.52727272727273" y="4.230769230769226" width="2" height="95.76923076923077" id="death-date-31"></rect></g><g><rect x="82.96363636363637" y="4.61538461538461" width="2" height="95.38461538461539" id="death-date-32"></rect></g><g><rect x="79.4" y="15.384615384615385" width="2" height="84.61538461538461" id="death-date-33"></rect></g><g><rect x="75.83636363636364" y="9.999999999999998" width="2" height="90" id="death-date-34"></rect></g><g><rect x="72.27272727272727" y="17.692307692307697" width="2" height="82.3076923076923" id="death-date-35"></rect></g><g><rect x="68.70909090909092" y="13.076923076923075" width="2" height="86.92307692307692" id="death-date-36"></rect></g><g><rect x="65.14545454545454" y="27.692307692307693" width="2" height="72.3076923076923" id="death-date-37"></rect></g><g><rect x="61.58181818181818" y="10.384615384615381" width="2" height="89.61538461538461" id="death-date-38"></rect></g><g><rect x="58.018181818181816" y="17.307692307692314" width="2" height="82.69230769230768" id="death-date-39"></rect></g><g><rect x="54.454545454545446" y="11.923076923076925" width="2" height="88.07692307692308" id="death-date-40"></rect></g><g><rect x="50.89090909090908" y="17.307692307692314" width="2" height="82.69230769230768" id="death-date-41"></rect></g><g><rect x="47.32727272727273" y="11.153846153846159" width="2" height="88.84615384615384" id="death-date-42"></rect></g><g><rect x="43.76363636363636" y="21.53846153846154" width="2" height="78.46153846153845" id="death-date-43"></rect></g><g><rect x="40.199999999999996" y="29.61538461538461" width="2" height="70.38461538461539" id="death-date-44"></rect></g><g><rect x="36.636363636363626" y="27.692307692307693" width="2" height="72.3076923076923" id="death-date-45"></rect></g><g><rect x="33.072727272727285" y="27.30769230769231" width="2" height="72.6923076923077" id="death-date-46"></rect></g><g><rect x="29.509090909090922" y="38.07692307692307" width="2" height="61.92307692307693" id="death-date-47"></rect></g><g><rect x="25.945454545454556" y="35.76923076923077" width="2" height="64.23076923076923" id="death-date-48"></rect></g><g><rect x="22.38181818181819" y="31.538461538461537" width="2" height="68.46153846153847" id="death-date-49"></rect></g><g><rect x="18.818181818181824" y="37.30769230769231" width="2" height="62.69230769230769" id="death-date-50"></rect></g><g><rect x="15.254545454545461" y="45.769230769230774" width="2" height="54.230769230769226" id="death-date-51"></rect></g><g><rect x="11.690909090909095" y="56.15384615384615" width="2" height="43.84615384615385" id="death-date-52"></rect></g><g><rect x="8.12727272727273" y="47.692307692307686" width="2" height="52.307692307692314" id="death-date-53"></rect></g><g><rect x="4.563636363636365" y="56.15384615384615" width="2" height="43.84615384615385" id="death-date-54"></rect></g><g><rect x="1" y="52.69230769230769" width="2" height="47.30769230769231" id="death-date-55"></rect></g></g><g class="fg-line death-date" fill="none" stroke="#92c5de" stroke-width="2" stroke-linecap="round"><path d="M198,76.75824175824175L194.43636363636364,74.28571428571429L190.87272727272727,72.14285714285714L187.30909090909088,70.21978021978022L183.74545454545455,66.86813186813187L180.1818181818182,65.49450549450549L176.61818181818182,63.18681318681318L173.05454545454546,59.72527472527474L169.49090909090907,57.912087912087905L165.92727272727274,56.53846153846154L162.36363636363637,54.23076923076924L158.8,52.41758241758242L155.23636363636365,49.39560439560439L151.6727272727273,45.714285714285715L148.1090909090909,43.73626373626374L144.54545454545453,39.61538461538462L140.9818181818182,34.56043956043956L137.41818181818184,32.36263736263736L133.85454545454544,30.714285714285715L130.29090909090908,27.52747252747253L126.72727272727273,24.28571428571429L123.16363636363636,21.978021978021978L119.6,20.27472527472528L116.03636363636363,18.131868131868135L112.47272727272728,15.659340659340659L108.90909090909089,11.64835164835164L105.34545454545456,9.395604395604396L101.78181818181817,10.274725274725283L98.21818181818183,8.846153846153848L94.65454545454546,9.725274725274724L91.09090909090911,11.04395604395605L87.52727272727273,13.24175824175824L83.96363636363637,14.120879120879126L80.4,15.934065934065933L76.83636363636364,15.43956043956044L73.27272727272727,16.483516483516482L69.70909090909092,15.54945054945055L66.14545454545454,16.758241758241766L62.58181818181818,17.03296703296703L59.018181818181816,19.505494505494514L55.454545454545446,20.934065934065927L51.89090909090908,24.67032967032967L48.32727272727273,27.30769230769231L44.76363636363636,30.219780219780223L41.199999999999996,32.47252747252747L37.636363636363626,34.78021978021978L34.072727272727285,38.84615384615384L30.509090909090922,41.758241758241766L26.945454545454556,44.340659340659336L23.38181818181819,46.75824175824176L19.818181818181824,49.72527472527473L16.25454545454546,53.18681318681319L12.690909090909095,55.16483516483517L9.12727272727273,57.1978021978022L5.563636363636365,59.945054945054956L2,61.75824175824176"></path></g></svg>