<svg meta="{&quot;DATA_PUBLISHED_DATE&quot;:&quot;2022-09-02&quot;,&quot;RENDER_DATE&quot;:&quot;2022-09-02&quot;,&quot;FIRST_DATE&quot;:&quot;2022-07-01&quot;,&quot;LAST_DATE&quot;:&quot;2022-08-25&quot;}" xmlns="http://www.w3.org/2000/svg" viewBox="0,0,200,100"><g transform="translate(0,0)"></g><g class="fg-bars cases-ep" fill="#00183f" stroke="none"><g><rect x="197" y="73.95" width="2" height="26.049999999999997" id="cases-ep-0"></rect></g><g><rect x="193.43636363636364" y="70.65714285714286" width="2" height="29.34285714285714" id="cases-ep-1"></rect></g><g><rect x="189.87272727272727" y="67.26785714285714" width="2" height="32.73214285714286" id="cases-ep-2"></rect></g><g><rect x="186.30909090909088" y="61.989285714285714" width="2" height="38.010714285714286" id="cases-ep-3"></rect></g><g><rect x="182.74545454545455" y="81.77857142857144" width="2" height="18.22142857142856" id="cases-ep-4"></rect></g><g><rect x="179.1818181818182" y="79.35" width="2" height="20.650000000000006" id="cases-ep-5"></rect></g><g><rect x="175.61818181818182" y="70.68214285714285" width="2" height="29.31785714285715" id="cases-ep-6"></rect></g><g><rect x="172.05454545454546" y="68.51428571428572" width="2" height="31.48571428571428" id="cases-ep-7"></rect></g><g><rect x="168.49090909090907" y="65.73928571428571" width="2" height="34.260714285714286" id="cases-ep-8"></rect></g><g><rect x="164.92727272727274" y="61.650000000000006" width="2" height="38.349999999999994" id="cases-ep-9"></rect></g><g><rect x="161.36363636363637" y="58.00000000000001" width="2" height="41.99999999999999" id="cases-ep-10"></rect></g><g><rect x="157.8" y="78.6392857142857" width="2" height="21.360714285714295" id="cases-ep-11"></rect></g><g><rect x="154.23636363636365" y="77.10714285714286" width="2" height="22.89285714285714" id="cases-ep-12"></rect></g><g><rect x="150.6727272727273" y="66.53214285714286" width="2" height="33.46785714285714" id="cases-ep-13"></rect></g><g><rect x="147.1090909090909" y="63.725" width="2" height="36.275" id="cases-ep-14"></rect></g><g><rect x="143.54545454545453" y="60.05714285714285" width="2" height="39.94285714285715" id="cases-ep-15"></rect></g><g><rect x="139.9818181818182" y="56.51071428571428" width="2" height="43.48928571428572" id="cases-ep-16"></rect></g><g><rect x="136.41818181818184" y="48.50714285714286" width="2" height="51.49285714285714" id="cases-ep-17"></rect></g><g><rect x="132.85454545454544" y="74.88214285714285" width="2" height="25.117857142857147" id="cases-ep-18"></rect></g><g><rect x="129.29090909090908" y="71.94642857142857" width="2" height="28.05357142857143" id="cases-ep-19"></rect></g><g><rect x="125.72727272727273" y="58.964285714285715" width="2" height="41.035714285714285" id="cases-ep-20"></rect></g><g><rect x="122.16363636363636" y="56.56785714285715" width="2" height="43.43214285714285" id="cases-ep-21"></rect></g><g><rect x="118.6" y="51.38214285714287" width="2" height="48.61785714285713" id="cases-ep-22"></rect></g><g><rect x="115.03636363636363" y="45.75" width="2" height="54.25" id="cases-ep-23"></rect></g><g><rect x="111.47272727272728" y="38.17857142857143" width="2" height="61.82142857142857" id="cases-ep-24"></rect></g><g><rect x="107.90909090909089" y="71.21071428571429" width="2" height="28.78928571428571" id="cases-ep-25"></rect></g><g><rect x="104.34545454545456" y="67.17857142857142" width="2" height="32.821428571428584" id="cases-ep-26"></rect></g><g><rect x="100.78181818181817" y="51.121428571428574" width="2" height="48.878571428571426" id="cases-ep-27"></rect></g><g><rect x="97.21818181818183" y="46.67142857142858" width="2" height="53.32857142857142" id="cases-ep-28"></rect></g><g><rect x="93.65454545454546" y="40.91428571428571" width="2" height="59.08571428571429" id="cases-ep-29"></rect></g><g><rect x="90.09090909090911" y="33.94642857142857" width="2" height="66.05357142857143" id="cases-ep-30"></rect></g><g><rect x="86.52727272727273" y="24.482142857142854" width="2" height="75.51785714285714" id="cases-ep-31"></rect></g><g><rect x="82.96363636363637" y="64.95714285714286" width="2" height="35.042857142857144" id="cases-ep-32"></rect></g><g><rect x="79.4" y="59.910714285714285" width="2" height="40.089285714285715" id="cases-ep-33"></rect></g><g><rect x="75.83636363636364" y="39.114285714285714" width="2" height="60.885714285714286" id="cases-ep-34"></rect></g><g><rect x="72.27272727272727" y="37.28214285714285" width="2" height="62.71785714285715" id="cases-ep-35"></rect></g><g><rect x="68.70909090909092" y="31.039285714285715" width="2" height="68.96071428571429" id="cases-ep-36"></rect></g><g><rect x="65.14545454545454" y="25.035714285714285" width="2" height="74.96428571428572" id="cases-ep-37"></rect></g><g><rect x="61.58181818181818" y="16.65" width="2" height="83.35" id="cases-ep-38"></rect></g><g><rect x="58.018181818181816" y="60.96785714285714" width="2" height="39.03214285714286" id="cases-ep-39"></rect></g><g><rect x="54.454545454545446" y="54.26428571428572" width="2" height="45.73571428571428" id="cases-ep-40"></rect></g><g><rect x="50.89090909090908" y="33.18928571428571" width="2" height="66.81071428571428" id="cases-ep-41"></rect></g><g><rect x="47.32727272727273" y="29.360714285714284" width="2" height="70.63928571428572" id="cases-ep-42"></rect></g><g><rect x="43.76363636363636" y="24.69285714285714" width="2" height="75.30714285714286" id="cases-ep-43"></rect></g><g><rect x="40.199999999999996" y="20.510714285714283" width="2" height="79.48928571428571" id="cases-ep-44"></rect></g><g><rect x="36.636363636363626" y="13.182142857142853" width="2" height="86.81785714285715" id="cases-ep-45"></rect></g><g><rect x="33.072727272727285" y="58.58928571428572" width="2" height="41.41071428571428" id="cases-ep-46"></rect></g><g><rect x="29.509090909090922" y="52.25714285714286" width="2" height="47.74285714285714" id="cases-ep-47"></rect></g><g><rect x="25.945454545454556" y="28.200000000000003" width="2" height="71.8" id="cases-ep-48"></rect></g><g><rect x="22.38181818181819" y="24.775000000000002" width="2" height="75.225" id="cases-ep-49"></rect></g><g><rect x="18.818181818181824" y="18.25714285714286" width="2" height="81.74285714285713" id="cases-ep-50"></rect></g><g><rect x="15.254545454545461" y="3.410714285714289" width="2" height="96.58928571428571" id="cases-ep-51"></rect></g><g><rect x="11.690909090909095" y="64.69285714285714" width="2" height="35.307142857142864" id="cases-ep-52"></rect></g><g><rect x="8.12727272727273" y="65.19285714285714" width="2" height="34.807142857142864" id="cases-ep-53"></rect></g><g><rect x="4.563636363636365" y="59.40714285714286" width="2" height="40.59285714285714" id="cases-ep-54"></rect></g><g><rect x="1" y="36.31785714285714" width="2" height="63.68214285714286" id="cases-ep-55"></rect></g></g><g class="fg-line cases-ep" fill="none" stroke="#92c5de" stroke-width="2" stroke-linecap="round"><path d="M198,72.23928571428571L194.43636363636364,71.4627551020408L190.87272727272727,70.76020408163266L187.30909090909088,69.95765306122449L183.74545454545455,69.38775510204083L180.1818181818182,68.93928571428572L176.61818181818182,68.6188775510204L173.05454545454546,68.02602040816326L169.49090909090907,67.34183673469387L165.92727272727274,66.53010204081633L162.36363636363637,65.79591836734694L158.8,64.43979591836735L155.23636363636365,63.9030612244898L151.6727272727273,63.16581632653061L148.1090909090909,62.084693877551025L144.54545454545453,61.06224489795918L140.9818181818182,59.82295918367346L137.41818181818184,58.285714285714285L133.85454545454544,56.810204081632655L130.29090909090908,56.285714285714285L126.72727272727273,55.6045918367347L123.16363636363636,54.48418367346939L119.6,53.07040816326531L116.03636363636363,51.574999999999996L112.47272727272728,49.888775510204084L108.90909090909089,47.93214285714286L105.34545454545456,47.038775510204076L101.78181818181817,46.000510204081635L98.21818181818183,44.285204081632656L94.65454545454546,42.94387755102041L91.09090909090911,41.533163265306115L87.52727272727273,40.260204081632644L83.96363636363637,39.14132653061224L80.4,38.57142857142857L76.83636363636364,37.764795918367355L73.27272727272727,36.91836734693879L69.70909090909092,35.786734693877555L66.14545454545454,34.88010204081633L62.58181818181818,34.23367346938776L59.018181818181816,33.73826530612245L55.454545454545446,33.3984693877551L51.89090909090908,33.11173469387755L48.32727272727273,32.39897959183674L44.76363636363636,31.743877551020404L41.199999999999996,30.824489795918364L37.636363636363626,28.381632653061217L34.072727272727285,35.74030612244897L30.509090909090922,36.683673469387756L26.945454545454556,37.70510204081633L23.38181818181819,38.864795918367356L19.818181818181824,40.3795918367347L16.25454545454546,41.98010204081633L12.690909090909095,45.050510204081625L9.12727272727273,38.58571428571429L5.563636363636365,38.06275510204081L2,37.93775510204082"></path></g></svg>