<svg about="DATA_PUBLISHED_DATE:2021-11-18,RENDER_DATE:2021-11-18" xmlns="http://www.w3.org/2000/svg" viewBox="0,0,200,100"><g transform="translate(0,0)"></g><g class="fg-bars cases-ep" fill="#00183f" stroke="none"><g><rect x="197" y="42.766666666666666" width="2" height="57.233333333333334" id="cases-ep-0"></rect></g><g><rect x="193.43636363636364" y="36.06666666666667" width="2" height="63.93333333333333" id="cases-ep-1"></rect></g><g><rect x="189.87272727272727" y="68.23333333333333" width="2" height="31.766666666666666" id="cases-ep-2"></rect></g><g><rect x="186.30909090909088" y="65.10000000000001" width="2" height="34.89999999999999" id="cases-ep-3"></rect></g><g><rect x="182.74545454545455" y="44.21111111111111" width="2" height="55.78888888888889" id="cases-ep-4"></rect></g><g><rect x="179.1818181818182" y="37.21111111111111" width="2" height="62.78888888888889" id="cases-ep-5"></rect></g><g><rect x="175.61818181818182" y="33.333333333333336" width="2" height="66.66666666666666" id="cases-ep-6"></rect></g><g><rect x="172.05454545454546" y="31.52222222222222" width="2" height="68.47777777777779" id="cases-ep-7"></rect></g><g><rect x="168.49090909090907" y="21.811111111111114" width="2" height="78.18888888888888" id="cases-ep-8"></rect></g><g><rect x="164.92727272727274" y="64.42222222222223" width="2" height="35.57777777777777" id="cases-ep-9"></rect></g><g><rect x="161.36363636363637" y="59.07777777777778" width="2" height="40.92222222222222" id="cases-ep-10"></rect></g><g><rect x="157.8" y="41.11111111111111" width="2" height="58.88888888888889" id="cases-ep-11"></rect></g><g><rect x="154.23636363636365" y="35.72222222222222" width="2" height="64.27777777777777" id="cases-ep-12"></rect></g><g><rect x="150.6727272727273" y="28.87777777777778" width="2" height="71.12222222222222" id="cases-ep-13"></rect></g><g><rect x="147.1090909090909" y="25.755555555555553" width="2" height="74.24444444444444" id="cases-ep-14"></rect></g><g><rect x="143.54545454545453" y="20.72222222222222" width="2" height="79.27777777777777" id="cases-ep-15"></rect></g><g><rect x="139.9818181818182" y="61.411111111111104" width="2" height="38.588888888888896" id="cases-ep-16"></rect></g><g><rect x="136.41818181818184" y="56.04444444444445" width="2" height="43.95555555555555" id="cases-ep-17"></rect></g><g><rect x="132.85454545454544" y="34.51111111111111" width="2" height="65.48888888888888" id="cases-ep-18"></rect></g><g><rect x="129.29090909090908" y="35.17777777777778" width="2" height="64.82222222222222" id="cases-ep-19"></rect></g><g><rect x="125.72727272727273" y="31.399999999999995" width="2" height="68.60000000000001" id="cases-ep-20"></rect></g><g><rect x="122.16363636363636" y="30.000000000000004" width="2" height="70" id="cases-ep-21"></rect></g><g><rect x="118.6" y="22.544444444444444" width="2" height="77.45555555555555" id="cases-ep-22"></rect></g><g><rect x="115.03636363636363" y="60.8111111111111" width="2" height="39.1888888888889" id="cases-ep-23"></rect></g><g><rect x="111.47272727272728" y="60.17777777777778" width="2" height="39.82222222222222" id="cases-ep-24"></rect></g><g><rect x="107.90909090909089" y="42.17777777777778" width="2" height="57.82222222222222" id="cases-ep-25"></rect></g><g><rect x="104.34545454545456" y="42.01111111111111" width="2" height="57.98888888888889" id="cases-ep-26"></rect></g><g><rect x="100.78181818181817" y="38.022222222222226" width="2" height="61.977777777777774" id="cases-ep-27"></rect></g><g><rect x="97.21818181818183" y="35.96666666666667" width="2" height="64.03333333333333" id="cases-ep-28"></rect></g><g><rect x="93.65454545454546" y="36.24444444444445" width="2" height="63.75555555555555" id="cases-ep-29"></rect></g><g><rect x="90.09090909090911" y="63.9" width="2" height="36.1" id="cases-ep-30"></rect></g><g><rect x="86.52727272727273" y="61.4" width="2" height="38.6" id="cases-ep-31"></rect></g><g><rect x="82.96363636363637" y="43.01111111111111" width="2" height="56.98888888888889" id="cases-ep-32"></rect></g><g><rect x="79.4" y="41.54444444444444" width="2" height="58.45555555555556" id="cases-ep-33"></rect></g><g><rect x="75.83636363636364" y="33.833333333333336" width="2" height="66.16666666666666" id="cases-ep-34"></rect></g><g><rect x="72.27272727272727" y="31.333333333333336" width="2" height="68.66666666666666" id="cases-ep-35"></rect></g><g><rect x="68.70909090909092" y="25.011111111111106" width="2" height="74.9888888888889" id="cases-ep-36"></rect></g><g><rect x="65.14545454545454" y="62.7" width="2" height="37.3" id="cases-ep-37"></rect></g><g><rect x="61.58181818181818" y="59.52222222222222" width="2" height="40.47777777777778" id="cases-ep-38"></rect></g><g><rect x="58.018181818181816" y="36.84444444444445" width="2" height="63.15555555555555" id="cases-ep-39"></rect></g><g><rect x="54.454545454545446" y="36.23333333333333" width="2" height="63.76666666666667" id="cases-ep-40"></rect></g><g><rect x="50.89090909090908" y="31.433333333333337" width="2" height="68.56666666666666" id="cases-ep-41"></rect></g><g><rect x="47.32727272727273" y="25.555555555555554" width="2" height="74.44444444444444" id="cases-ep-42"></rect></g><g><rect x="43.76363636363636" y="15.84444444444445" width="2" height="84.15555555555555" id="cases-ep-43"></rect></g><g><rect x="40.199999999999996" y="58.666666666666664" width="2" height="41.333333333333336" id="cases-ep-44"></rect></g><g><rect x="36.636363636363626" y="53.455555555555556" width="2" height="46.544444444444444" id="cases-ep-45"></rect></g><g><rect x="33.072727272727285" y="32.15555555555556" width="2" height="67.84444444444443" id="cases-ep-46"></rect></g><g><rect x="29.509090909090922" y="28.366666666666664" width="2" height="71.63333333333334" id="cases-ep-47"></rect></g><g><rect x="25.945454545454556" y="18.58888888888889" width="2" height="81.41111111111111" id="cases-ep-48"></rect></g><g><rect x="22.38181818181819" y="17.15555555555556" width="2" height="82.84444444444443" id="cases-ep-49"></rect></g><g><rect x="18.818181818181824" y="2.6444444444444493" width="2" height="97.35555555555555" id="cases-ep-50"></rect></g><g><rect x="15.254545454545461" y="54.355555555555554" width="2" height="45.644444444444446" id="cases-ep-51"></rect></g><g><rect x="11.690909090909095" y="46.01111111111111" width="2" height="53.98888888888889" id="cases-ep-52"></rect></g><g><rect x="8.12727272727273" y="19.277777777777782" width="2" height="80.72222222222221" id="cases-ep-53"></rect></g><g><rect x="4.563636363636365" y="12.877777777777776" width="2" height="87.12222222222222" id="cases-ep-54"></rect></g><g><rect x="1" y="2.7111111111111086" width="2" height="97.28888888888889" id="cases-ep-55"></rect></g></g><g class="fg-line cases-ep" fill="none" stroke="#92c5de" stroke-width="2" stroke-linecap="round"><path d="M198,46.7031746031746L194.43636363636364,45.09682539682539L190.87272727272727,43.060317460317464L187.30909090909088,42.51587301587302L183.74545454545455,41.65555555555556L180.1818181818182,41.212698412698415L176.61818181818182,41L173.05454545454546,40.36349206349206L169.49090909090907,39.539682539682545L165.92727272727274,39.384126984126986L162.36363636363637,38.95396825396825L158.8,38.52063492063492L155.23636363636365,37.577777777777776L151.6727272727273,37.5L148.1090909090909,37.86031746031746L144.54545454545453,38.46666666666667L140.9818181818182,38.726984126984135L137.41818181818184,38.64126984126983L133.85454545454544,39.23174603174604L130.29090909090908,40.32698412698414L126.72727272727273,41.30317460317461L123.16363636363636,42.24920634920635L119.6,43.101587301587294L116.03636363636363,45.058730158730164L112.47272727272728,45.49999999999999L108.90909090909089,45.67460317460317L105.34545454545456,45.7936507936508L101.78181818181817,45.72698412698413L98.21818181818183,45.128571428571426L94.65454545454546,44.46666666666667L91.09090909090911,42.86190476190475L87.52727272727273,42.69047619047619L83.96363636363637,42.42222222222222L80.4,41.54126984126984L76.83636363636364,40.782539682539685L73.27272727272727,40.43968253968254L69.70909090909092,39.61428571428572L66.14545454545454,38.30476190476191L62.58181818181818,37.72857142857142L59.018181818181816,36.86190476190476L55.454545454545446,36.1920634920635L51.89090909090908,35.06825396825397L48.32727272727273,33.233333333333334L44.76363636363636,32.03333333333334L41.199999999999996,30.147619047619056L37.636363636363626,29.53174603174603L34.072727272727285,28.468253968253965L30.509090909090922,26.628571428571423L26.945454545454556,24.415873015873014L23.38181818181819,22.14761904761905L19.818181818181824,19.085714285714282L16.25454545454546,16.622222222222227L12.690909090909095,14.74603174603174L9.12727272727273,12.636507936507947L5.563636363636365,9.507936507936499L2,5.898412698412702"></path></g></svg>