<svg meta="{&quot;DATA_PUBLISHED_DATE&quot;:&quot;2023-07-20&quot;,&quot;RENDER_DATE&quot;:&quot;2023-07-27&quot;,&quot;FIRST_DATE&quot;:&quot;2023-05-02&quot;,&quot;LAST_DATE&quot;:&quot;2023-06-26&quot;}" xmlns="http://www.w3.org/2000/svg" viewBox="0,0,200,100"><g transform="translate(0,0)"></g><g class="fg-bars death-date" fill="#00183f" stroke="none"><g><rect x="197" y="62.5" width="2" height="37.5" id="death-date-0"></rect></g><g><rect x="193.43636363636364" y="81.25" width="2" height="18.75" id="death-date-1"></rect></g><g><rect x="189.87272727272727" y="62.5" width="2" height="37.5" id="death-date-2"></rect></g><g><rect x="186.30909090909088" y="75" width="2" height="25" id="death-date-3"></rect></g><g><rect x="182.74545454545455" y="81.25" width="2" height="18.75" id="death-date-4"></rect></g><g><rect x="179.1818181818182" y="62.5" width="2" height="37.5" id="death-date-5"></rect></g><g><rect x="175.61818181818182" y="62.5" width="2" height="37.5" id="death-date-6"></rect></g><g><rect x="172.05454545454546" y="68.75" width="2" height="31.25" id="death-date-7"></rect></g><g><rect x="168.49090909090907" y="75" width="2" height="25" id="death-date-8"></rect></g><g><rect x="164.92727272727274" y="43.75" width="2" height="56.25" id="death-date-9"></rect></g><g><rect x="161.36363636363637" y="62.5" width="2" height="37.5" id="death-date-10"></rect></g><g><rect x="157.8" y="62.5" width="2" height="37.5" id="death-date-11"></rect></g><g><rect x="154.23636363636365" y="56.25" width="2" height="43.75" id="death-date-12"></rect></g><g><rect x="150.6727272727273" y="68.75" width="2" height="31.25" id="death-date-13"></rect></g><g><rect x="147.1090909090909" y="62.5" width="2" height="37.5" id="death-date-14"></rect></g><g><rect x="143.54545454545453" y="62.5" width="2" height="37.5" id="death-date-15"></rect></g><g><rect x="139.9818181818182" y="87.5" width="2" height="12.5" id="death-date-16"></rect></g><g><rect x="136.41818181818184" y="62.5" width="2" height="37.5" id="death-date-17"></rect></g><g><rect x="132.85454545454544" y="75" width="2" height="25" id="death-date-18"></rect></g><g><rect x="129.29090909090908" y="25" width="2" height="75" id="death-date-19"></rect></g><g><rect x="125.72727272727273" y="62.5" width="2" height="37.5" id="death-date-20"></rect></g><g><rect x="122.16363636363636" y="37.5" width="2" height="62.5" id="death-date-21"></rect></g><g><rect x="118.6" y="75" width="2" height="25" id="death-date-22"></rect></g><g><rect x="115.03636363636363" y="25" width="2" height="75" id="death-date-23"></rect></g><g><rect x="111.47272727272728" y="56.25" width="2" height="43.75" id="death-date-24"></rect></g><g><rect x="107.90909090909089" y="68.75" width="2" height="31.25" id="death-date-25"></rect></g><g><rect x="104.34545454545456" y="43.75" width="2" height="56.25" id="death-date-26"></rect></g><g><rect x="100.78181818181817" y="43.75" width="2" height="56.25" id="death-date-27"></rect></g><g><rect x="97.21818181818183" y="37.5" width="2" height="62.5" id="death-date-28"></rect></g><g><rect x="93.65454545454546" y="37.5" width="2" height="62.5" id="death-date-29"></rect></g><g><rect x="90.09090909090911" y="0" width="2" height="100" id="death-date-30"></rect></g><g><rect x="86.52727272727273" y="31.25" width="2" height="68.75" id="death-date-31"></rect></g><g><rect x="82.96363636363637" y="62.5" width="2" height="37.5" id="death-date-32"></rect></g><g><rect x="79.4" y="25" width="2" height="75" id="death-date-33"></rect></g><g><rect x="75.83636363636364" y="68.75" width="2" height="31.25" id="death-date-34"></rect></g><g><rect x="72.27272727272727" y="31.25" width="2" height="68.75" id="death-date-35"></rect></g><g><rect x="68.70909090909092" y="12.5" width="2" height="87.5" id="death-date-36"></rect></g><g><rect x="65.14545454545454" y="37.5" width="2" height="62.5" id="death-date-37"></rect></g><g><rect x="61.58181818181818" y="37.5" width="2" height="62.5" id="death-date-38"></rect></g><g><rect x="58.018181818181816" y="50" width="2" height="50" id="death-date-39"></rect></g><g><rect x="54.454545454545446" y="81.25" width="2" height="18.75" id="death-date-40"></rect></g><g><rect x="50.89090909090908" y="43.75" width="2" height="56.25" id="death-date-41"></rect></g><g><rect x="47.32727272727273" y="25" width="2" height="75" id="death-date-42"></rect></g><g><rect x="43.76363636363636" y="68.75" width="2" height="31.25" id="death-date-43"></rect></g><g><rect x="40.199999999999996" y="18.75" width="2" height="81.25" id="death-date-44"></rect></g><g><rect x="36.636363636363626" y="43.75" width="2" height="56.25" id="death-date-45"></rect></g><g><rect x="33.072727272727285" y="31.25" width="2" height="68.75" id="death-date-46"></rect></g><g><rect x="29.509090909090922" y="62.5" width="2" height="37.5" id="death-date-47"></rect></g><g><rect x="25.945454545454556" y="56.25" width="2" height="43.75" id="death-date-48"></rect></g><g><rect x="22.38181818181819" y="18.75" width="2" height="81.25" id="death-date-49"></rect></g><g><rect x="18.818181818181824" y="37.5" width="2" height="62.5" id="death-date-50"></rect></g><g><rect x="15.254545454545461" y="31.25" width="2" height="68.75" id="death-date-51"></rect></g><g><rect x="11.690909090909095" y="37.5" width="2" height="62.5" id="death-date-52"></rect></g><g><rect x="8.12727272727273" y="50" width="2" height="50" id="death-date-53"></rect></g><g><rect x="4.563636363636365" y="25" width="2" height="75" id="death-date-54"></rect></g><g><rect x="1" y="62.5" width="2" height="37.5" id="death-date-55"></rect></g></g><g class="fg-line death-date" fill="none" stroke="#92c5de" stroke-width="2" stroke-linecap="round"><path d="M198,69.64285714285714L194.43636363636364,70.53571428571428L190.87272727272727,69.64285714285714L187.30909090909088,66.96428571428572L183.74545454545455,65.17857142857143L180.1818181818182,62.5L176.61818181818182,61.60714285714286L173.05454545454546,62.5L169.49090909090907,61.60714285714286L165.92727272727274,59.82142857142857L162.36363636363637,66.07142857142857L158.8,66.07142857142857L155.23636363636365,67.85714285714286L151.6727272727273,63.39285714285714L148.1090909090909,62.5L144.54545454545453,58.92857142857143L140.9818181818182,60.71428571428572L137.41818181818184,51.78571428571428L133.85454545454544,50.89285714285714L130.29090909090908,50L126.72727272727273,52.67857142857143L123.16363636363636,50L119.6,50L116.03636363636363,44.64285714285714L112.47272727272728,41.07142857142857L108.90909090909089,37.5L105.34545454545456,36.60714285714286L101.78181818181817,33.92857142857143L98.21818181818183,37.5L94.65454545454546,36.60714285714286L91.09090909090911,33.03571428571429L87.52727272727273,38.39285714285714L83.96363636363637,39.28571428571429L80.4,37.5L76.83636363636364,45.53571428571429L73.27272727272727,41.96428571428571L69.70909090909092,41.07142857142857L66.14545454545454,49.10714285714286L62.58181818181818,46.42857142857143L59.018181818181816,47.32142857142857L55.454545454545446,44.64285714285714L51.89090909090908,41.96428571428571L48.32727272727273,43.75L44.76363636363636,42.85714285714286L41.199999999999996,38.39285714285714L37.636363636363626,40.17857142857143L34.072727272727285,39.28571428571429L30.509090909090922,41.96428571428571L26.945454545454556,36.60714285714286L23.38181818181819,37.5L19.818181818181824,43.75L16.25454545454546,42.85714285714286L12.690909090909095,41.96428571428571L9.12727272727273,44.64285714285714L5.563636363636365,38.39285714285714L2,41.96428571428571"></path></g></svg>