<svg meta="{&quot;DATA_PUBLISHED_DATE&quot;:&quot;2022-10-27&quot;,&quot;RENDER_DATE&quot;:&quot;2022-10-27&quot;,&quot;FIRST_DATE&quot;:&quot;2022-08-24&quot;,&quot;LAST_DATE&quot;:&quot;2022-10-18&quot;}" xmlns="http://www.w3.org/2000/svg" viewBox="0,0,200,100"><g transform="translate(0,0)"></g><g class="fg-bars cases-ep" fill="#00183f" stroke="none"><g><rect x="197" y="68.37777777777778" width="2" height="31.62222222222222" id="cases-ep-0"></rect></g><g><rect x="193.43636363636364" y="64.62222222222222" width="2" height="35.37777777777778" id="cases-ep-1"></rect></g><g><rect x="189.87272727272727" y="82.94444444444444" width="2" height="17.055555555555557" id="cases-ep-2"></rect></g><g><rect x="186.30909090909088" y="80.81111111111112" width="2" height="19.188888888888883" id="cases-ep-3"></rect></g><g><rect x="182.74545454545455" y="72.8" width="2" height="27.200000000000003" id="cases-ep-4"></rect></g><g><rect x="179.1818181818182" y="70.91111111111111" width="2" height="29.08888888888889" id="cases-ep-5"></rect></g><g><rect x="175.61818181818182" y="68.53333333333333" width="2" height="31.46666666666667" id="cases-ep-6"></rect></g><g><rect x="172.05454545454546" y="66.16666666666666" width="2" height="33.83333333333334" id="cases-ep-7"></rect></g><g><rect x="168.49090909090907" y="63.24444444444444" width="2" height="36.75555555555556" id="cases-ep-8"></rect></g><g><rect x="164.92727272727274" y="79.96666666666667" width="2" height="20.03333333333333" id="cases-ep-9"></rect></g><g><rect x="161.36363636363637" y="77.57777777777778" width="2" height="22.422222222222217" id="cases-ep-10"></rect></g><g><rect x="157.8" y="69.83333333333333" width="2" height="30.16666666666667" id="cases-ep-11"></rect></g><g><rect x="154.23636363636365" y="68.67777777777778" width="2" height="31.322222222222223" id="cases-ep-12"></rect></g><g><rect x="150.6727272727273" y="65.73333333333333" width="2" height="34.266666666666666" id="cases-ep-13"></rect></g><g><rect x="147.1090909090909" y="61.82222222222222" width="2" height="38.17777777777778" id="cases-ep-14"></rect></g><g><rect x="143.54545454545453" y="56.35555555555556" width="2" height="43.64444444444444" id="cases-ep-15"></rect></g><g><rect x="139.9818181818182" y="77.43333333333334" width="2" height="22.566666666666663" id="cases-ep-16"></rect></g><g><rect x="136.41818181818184" y="73.32222222222222" width="2" height="26.677777777777777" id="cases-ep-17"></rect></g><g><rect x="132.85454545454544" y="64.78888888888889" width="2" height="35.21111111111111" id="cases-ep-18"></rect></g><g><rect x="129.29090909090908" y="62.48888888888888" width="2" height="37.51111111111112" id="cases-ep-19"></rect></g><g><rect x="125.72727272727273" y="57.277777777777786" width="2" height="42.722222222222214" id="cases-ep-20"></rect></g><g><rect x="122.16363636363636" y="55.94444444444444" width="2" height="44.05555555555556" id="cases-ep-21"></rect></g><g><rect x="118.6" y="48.46666666666667" width="2" height="51.53333333333333" id="cases-ep-22"></rect></g><g><rect x="115.03636363636363" y="73.6888888888889" width="2" height="26.311111111111103" id="cases-ep-23"></rect></g><g><rect x="111.47272727272728" y="71.5111111111111" width="2" height="28.488888888888894" id="cases-ep-24"></rect></g><g><rect x="107.90909090909089" y="61.62222222222222" width="2" height="38.37777777777778" id="cases-ep-25"></rect></g><g><rect x="104.34545454545456" y="59.266666666666666" width="2" height="40.733333333333334" id="cases-ep-26"></rect></g><g><rect x="100.78181818181817" y="57.43333333333334" width="2" height="42.56666666666666" id="cases-ep-27"></rect></g><g><rect x="97.21818181818183" y="52.63333333333333" width="2" height="47.36666666666667" id="cases-ep-28"></rect></g><g><rect x="93.65454545454546" y="46.81111111111112" width="2" height="53.18888888888888" id="cases-ep-29"></rect></g><g><rect x="90.09090909090911" y="72.3111111111111" width="2" height="27.688888888888897" id="cases-ep-30"></rect></g><g><rect x="86.52727272727273" y="69.25555555555556" width="2" height="30.74444444444444" id="cases-ep-31"></rect></g><g><rect x="82.96363636363637" y="57.977777777777774" width="2" height="42.022222222222226" id="cases-ep-32"></rect></g><g><rect x="79.4" y="55.41111111111111" width="2" height="44.58888888888889" id="cases-ep-33"></rect></g><g><rect x="75.83636363636364" y="51.077777777777776" width="2" height="48.922222222222224" id="cases-ep-34"></rect></g><g><rect x="72.27272727272727" y="44.822222222222216" width="2" height="55.177777777777784" id="cases-ep-35"></rect></g><g><rect x="68.70909090909092" y="36.88888888888889" width="2" height="63.11111111111111" id="cases-ep-36"></rect></g><g><rect x="65.14545454545454" y="66.23333333333333" width="2" height="33.766666666666666" id="cases-ep-37"></rect></g><g><rect x="61.58181818181818" y="63.81111111111111" width="2" height="36.18888888888889" id="cases-ep-38"></rect></g><g><rect x="58.018181818181816" y="46.51111111111111" width="2" height="53.48888888888889" id="cases-ep-39"></rect></g><g><rect x="54.454545454545446" y="41.422222222222224" width="2" height="58.577777777777776" id="cases-ep-40"></rect></g><g><rect x="50.89090909090908" y="33.9" width="2" height="66.1" id="cases-ep-41"></rect></g><g><rect x="47.32727272727273" y="13.411111111111108" width="2" height="86.58888888888889" id="cases-ep-42"></rect></g><g><rect x="43.76363636363636" y="63.22222222222222" width="2" height="36.77777777777778" id="cases-ep-43"></rect></g><g><rect x="40.199999999999996" y="64.92222222222222" width="2" height="35.07777777777778" id="cases-ep-44"></rect></g><g><rect x="36.636363636363626" y="60.74444444444445" width="2" height="39.25555555555555" id="cases-ep-45"></rect></g><g><rect x="33.072727272727285" y="39.7" width="2" height="60.3" id="cases-ep-46"></rect></g><g><rect x="29.509090909090922" y="30.944444444444443" width="2" height="69.05555555555556" id="cases-ep-47"></rect></g><g><rect x="25.945454545454556" y="23.844444444444445" width="2" height="76.15555555555555" id="cases-ep-48"></rect></g><g><rect x="22.38181818181819" y="14.955555555555556" width="2" height="85.04444444444445" id="cases-ep-49"></rect></g><g><rect x="18.818181818181824" y="0.41111111111110654" width="2" height="99.58888888888889" id="cases-ep-50"></rect></g><g><rect x="15.254545454545461" y="50.477777777777774" width="2" height="49.522222222222226" id="cases-ep-51"></rect></g><g><rect x="11.690909090909095" y="46.91111111111111" width="2" height="53.08888888888889" id="cases-ep-52"></rect></g><g><rect x="8.12727272727273" y="18.97777777777778" width="2" height="81.02222222222221" id="cases-ep-53"></rect></g><g><rect x="4.563636363636365" y="15.633333333333333" width="2" height="84.36666666666667" id="cases-ep-54"></rect></g><g><rect x="1" y="6.333333333333336" width="2" height="93.66666666666666" id="cases-ep-55"></rect></g></g><g class="fg-line cases-ep" fill="none" stroke="#92c5de" stroke-width="2" stroke-linecap="round"><path d="M198,72.71428571428571L194.43636363636364,72.3984126984127L190.87272727272727,72.2015873015873L187.30909090909088,71.77619047619048L183.74545454545455,71.3142857142857L180.1818181818182,70.89047619047619L176.61818181818182,70.57142857142857L173.05454545454546,70.17142857142858L169.49090909090907,69.55079365079365L165.92727272727274,68.56666666666666L162.36363636363637,68.2047619047619L158.8,67.5968253968254L155.23636363636365,66.87619047619047L151.6727272727273,65.9920634920635L148.1090909090909,64.78412698412698L144.54545454545453,63.94444444444445L140.9818181818182,62.817460317460316L137.41818181818184,62.282539682539685L133.85454545454544,62.023809523809526L130.29090909090908,61.57142857142857L126.72727272727273,61.111111111111114L123.16363636363636,61.133333333333326L119.6,60.66031746031746L116.03636363636363,60.423809523809524L112.47272727272728,60.22698412698413L108.90909090909089,59.904761904761905L105.34545454545456,59.384126984126986L101.78181818181817,58.833333333333336L98.21818181818183,57.925396825396824L94.65454545454546,56.80952380952381L91.09090909090911,55.39206349206349L87.52727272727273,54.52380952380953L83.96363636363637,53.74603174603174L80.4,52.1079365079365L76.83636363636364,50.109523809523814L73.27272727272727,47.65555555555555L69.70909090909092,43.168253968253964L66.14545454545454,46.93015873015872L62.58181818181818,46.74285714285714L59.018181818181816,46.304761904761904L55.454545454545446,45.331746031746036L51.89090909090908,43.83492063492063L48.32727272727273,42.3984126984127L44.76363636363636,42.61904761904761L41.199999999999996,33.646031746031746L37.636363636363626,31.58253968253968L34.072727272727285,29.606349206349204L30.509090909090922,26.64603174603174L26.945454545454556,24.45873015873016L23.38181818181819,21.957142857142852L19.818181818181824,19.058730158730164L16.25454545454546,15.823809523809517L12.690909090909095,14.322222222222225L9.12727272727273,12.336507936507946L5.563636363636365,10.646031746031747L2,8.380952380952378"></path></g></svg>