<svg meta="{&quot;DATA_PUBLISHED_DATE&quot;:&quot;2022-02-14&quot;,&quot;RENDER_DATE&quot;:&quot;2022-02-14&quot;,&quot;FIRST_DATE&quot;:&quot;2021-12-12&quot;,&quot;LAST_DATE&quot;:&quot;2022-02-05&quot;}" xmlns="http://www.w3.org/2000/svg" viewBox="0,0,200,100"><g transform="translate(0,0)"></g><g class="fg-bars cases-ep" fill="#00183f" stroke="none"><g><rect x="197" y="93.085" width="2" height="6.915000000000006" id="cases-ep-0"></rect></g><g><rect x="193.43636363636364" y="86.795" width="2" height="13.204999999999998" id="cases-ep-1"></rect></g><g><rect x="189.87272727272727" y="85.5725" width="2" height="14.427499999999995" id="cases-ep-2"></rect></g><g><rect x="186.30909090909088" y="83.44875" width="2" height="16.551249999999996" id="cases-ep-3"></rect></g><g><rect x="182.74545454545455" y="80.303125" width="2" height="19.696875000000006" id="cases-ep-4"></rect></g><g><rect x="179.1818181818182" y="76.121875" width="2" height="23.878124999999997" id="cases-ep-5"></rect></g><g><rect x="175.61818181818182" y="90.91875" width="2" height="9.081249999999997" id="cases-ep-6"></rect></g><g><rect x="172.05454545454546" y="87.2275" width="2" height="12.772499999999994" id="cases-ep-7"></rect></g><g><rect x="168.49090909090907" y="75.91" width="2" height="24.090000000000003" id="cases-ep-8"></rect></g><g><rect x="164.92727272727274" y="72.44437500000001" width="2" height="27.555624999999992" id="cases-ep-9"></rect></g><g><rect x="161.36363636363637" y="67.58" width="2" height="32.42" id="cases-ep-10"></rect></g><g><rect x="157.8" y="62.724999999999994" width="2" height="37.275000000000006" id="cases-ep-11"></rect></g><g><rect x="154.23636363636365" y="56.77687499999999" width="2" height="43.22312500000001" id="cases-ep-12"></rect></g><g><rect x="150.6727272727273" y="83.03625" width="2" height="16.963750000000005" id="cases-ep-13"></rect></g><g><rect x="147.1090909090909" y="75.689375" width="2" height="24.310625" id="cases-ep-14"></rect></g><g><rect x="143.54545454545453" y="52.465" width="2" height="47.535" id="cases-ep-15"></rect></g><g><rect x="139.9818181818182" y="44.333124999999995" width="2" height="55.666875000000005" id="cases-ep-16"></rect></g><g><rect x="136.41818181818184" y="37.274375000000006" width="2" height="62.725624999999994" id="cases-ep-17"></rect></g><g><rect x="132.85454545454544" y="25.390625" width="2" height="74.609375" id="cases-ep-18"></rect></g><g><rect x="129.29090909090908" y="49.993125000000006" width="2" height="50.006874999999994" id="cases-ep-19"></rect></g><g><rect x="125.72727272727273" y="75.838125" width="2" height="24.161874999999995" id="cases-ep-20"></rect></g><g><rect x="122.16363636363636" y="64.19874999999999" width="2" height="35.80125000000001" id="cases-ep-21"></rect></g><g><rect x="118.6" y="35.378125000000004" width="2" height="64.62187499999999" id="cases-ep-22"></rect></g><g><rect x="115.03636363636363" y="29.32" width="2" height="70.68" id="cases-ep-23"></rect></g><g><rect x="111.47272727272728" y="22.226875" width="2" height="77.773125" id="cases-ep-24"></rect></g><g><rect x="107.90909090909089" y="17.4075" width="2" height="82.5925" id="cases-ep-25"></rect></g><g><rect x="104.34545454545456" y="13.951875000000003" width="2" height="86.048125" id="cases-ep-26"></rect></g><g><rect x="100.78181818181817" y="66.511875" width="2" height="33.488125" id="cases-ep-27"></rect></g><g><rect x="97.21818181818183" y="53.435" width="2" height="46.565" id="cases-ep-28"></rect></g><g><rect x="93.65454545454546" y="17.275624999999994" width="2" height="82.72437500000001" id="cases-ep-29"></rect></g><g><rect x="90.09090909090911" y="12.734374999999998" width="2" height="87.265625" id="cases-ep-30"></rect></g><g><rect x="86.52727272727273" y="5.925625000000001" width="2" height="94.074375" id="cases-ep-31"></rect></g><g><rect x="82.96363636363637" y="4.7643749999999985" width="2" height="95.235625" id="cases-ep-32"></rect></g><g><rect x="79.4" y="15.693124999999997" width="2" height="84.306875" id="cases-ep-33"></rect></g><g><rect x="75.83636363636364" y="66.0575" width="2" height="33.942499999999995" id="cases-ep-34"></rect></g><g><rect x="72.27272727272727" y="80.77250000000001" width="2" height="19.227499999999992" id="cases-ep-35"></rect></g><g><rect x="68.70909090909092" y="66.9475" width="2" height="33.052499999999995" id="cases-ep-36"></rect></g><g><rect x="65.14545454545454" y="47.378125000000004" width="2" height="52.621874999999996" id="cases-ep-37"></rect></g><g><rect x="61.58181818181818" y="44.97875" width="2" height="55.02125" id="cases-ep-38"></rect></g><g><rect x="58.018181818181816" y="45.744375000000005" width="2" height="54.255624999999995" id="cases-ep-39"></rect></g><g><rect x="54.454545454545446" y="53.9875" width="2" height="46.0125" id="cases-ep-40"></rect></g><g><rect x="50.89090909090908" y="78.194375" width="2" height="21.805625000000006" id="cases-ep-41"></rect></g><g><rect x="47.32727272727273" y="91.200625" width="2" height="8.799374999999998" id="cases-ep-42"></rect></g><g><rect x="43.76363636363636" y="86.53999999999999" width="2" height="13.460000000000008" id="cases-ep-43"></rect></g><g><rect x="40.199999999999996" y="80.04375" width="2" height="19.956249999999997" id="cases-ep-44"></rect></g><g><rect x="36.636363636363626" y="80.3775" width="2" height="19.622500000000002" id="cases-ep-45"></rect></g><g><rect x="33.072727272727285" y="83.135625" width="2" height="16.864374999999995" id="cases-ep-46"></rect></g><g><rect x="29.509090909090922" y="85.705" width="2" height="14.295000000000002" id="cases-ep-47"></rect></g><g><rect x="25.945454545454556" y="93.37875" width="2" height="6.621250000000003" id="cases-ep-48"></rect></g><g><rect x="22.38181818181819" y="93.976875" width="2" height="6.023124999999993" id="cases-ep-49"></rect></g><g><rect x="18.818181818181824" y="93.08937499999999" width="2" height="6.91062500000001" id="cases-ep-50"></rect></g><g><rect x="15.254545454545461" y="93.646875" width="2" height="6.353125000000006" id="cases-ep-51"></rect></g><g><rect x="11.690909090909095" y="93.72625" width="2" height="6.273750000000007" id="cases-ep-52"></rect></g><g><rect x="8.12727272727273" y="94.793125" width="2" height="5.206874999999997" id="cases-ep-53"></rect></g><g><rect x="4.563636363636365" y="94.4575" width="2" height="5.542500000000004" id="cases-ep-54"></rect></g><g><rect x="1" y="97.27" width="2" height="2.730000000000004" id="cases-ep-55"></rect></g></g><g class="fg-line cases-ep" fill="none" stroke="#92c5de" stroke-width="2" stroke-linecap="round"><path d="M198,85.17785714285714L194.43636363636364,84.34107142857144L190.87272727272727,82.78607142857143L187.30909090909088,80.910625L183.74545454545455,78.64366071428572L180.1818181818182,76.13250000000001L176.61818181818182,73.36892857142857L173.05454545454546,72.24285714285715L169.49090909090907,70.59455357142858L165.92727272727274,67.24526785714286L162.36363636363637,63.229375L158.8,58.9L155.23636363636365,53.566517857142856L151.6727272727273,52.59741071428572L148.1090909090909,51.56910714285714L144.54545454545453,49.92758928571428L140.9818181818182,47.48660714285715L137.41818181818184,45.341875L133.85454545454544,43.192232142857144L130.29090909090908,42.051785714285714L126.72727272727273,36.903035714285714L123.16363636363636,35.57071428571429L119.6,34.03303571428572L116.03636363636363,31.446964285714284L112.47272727272728,29.07758928571429L108.90909090909089,26.748839285714286L105.34545454545456,24.942678571428566L101.78181818181817,25.191428571428563L98.21818181818183,25.12651785714285L94.65454545454546,29.031874999999996L91.09090909090911,36.127857142857145L87.52727272727273,41.07696428571428L83.96363636363637,46.65598214285714L80.4,52.51026785714286L76.83636363636364,57.98089285714285L73.27272727272727,59.714732142857144L69.70909090909092,61.20446428571429L66.14545454545454,64.00339285714286L62.58181818181818,68.66991071428572L59.018181818181816,73.72687499999999L55.454545454545446,79.06848214285715L51.89090909090908,83.59955357142856L48.32727272727273,85.76875L44.76363636363636,86.16535714285715L41.199999999999996,87.10098214285715L37.636363636363626,89.0442857142857L34.072727272727285,90.95124999999999L30.509090909090922,92.61660714285715L26.945454545454556,93.86696428571429L23.38181818181819,94.42285714285714L19.818181818181824,94.90517857142858L16.25454545454546,95.37526785714286L12.690909090909095,95.76741071428572L9.12727272727273,96.08151785714286L5.563636363636365,96.23857142857143L2,96.36428571428571"></path></g></svg>