<svg about="DATA_PUBLISHED_DATE:2021-12-07,RENDER_DATE:2021-12-07" xmlns="http://www.w3.org/2000/svg" viewBox="0,0,200,100"><g transform="translate(0,0)"></g><g class="fg-bars tests-vaccines" fill="#00183f" stroke="none"><g><rect x="197" y="26.86035714285714" width="2" height="73.13964285714286" id="tests-vaccines-0"></rect></g><g><rect x="193.43636363636364" y="77.65142857142857" width="2" height="22.348571428571432" id="tests-vaccines-1"></rect></g><g><rect x="189.87272727272727" y="60.70321428571428" width="2" height="39.29678571428572" id="tests-vaccines-2"></rect></g><g><rect x="186.30909090909088" y="46.971428571428575" width="2" height="53.028571428571425" id="tests-vaccines-3"></rect></g><g><rect x="182.74545454545455" y="98.31357142857144" width="2" height="1.6864285714285643" id="tests-vaccines-4"></rect></g><g><rect x="179.1818181818182" y="29.043928571428566" width="2" height="70.95607142857143" id="tests-vaccines-5"></rect></g><g><rect x="175.61818181818182" y="15.480357142857137" width="2" height="84.51964285714286" id="tests-vaccines-6"></rect></g><g><rect x="172.05454545454546" y="19.537499999999998" width="2" height="80.4625" id="tests-vaccines-7"></rect></g><g><rect x="168.49090909090907" y="74.71214285714285" width="2" height="25.28785714285715" id="tests-vaccines-8"></rect></g><g><rect x="164.92727272727274" y="45.50142857142857" width="2" height="54.49857142857143" id="tests-vaccines-9"></rect></g><g><rect x="161.36363636363637" y="6.231071428571433" width="2" height="93.76892857142857" id="tests-vaccines-10"></rect></g><g><rect x="157.8" y="20.378214285714293" width="2" height="79.6217857142857" id="tests-vaccines-11"></rect></g><g><rect x="154.23636363636365" y="18.482857142857146" width="2" height="81.51714285714286" id="tests-vaccines-12"></rect></g><g><rect x="150.6727272727273" y="20.193928571428575" width="2" height="79.80607142857143" id="tests-vaccines-13"></rect></g><g><rect x="147.1090909090909" y="27.185000000000002" width="2" height="72.815" id="tests-vaccines-14"></rect></g><g><rect x="143.54545454545453" y="74.85035714285715" width="2" height="25.14964285714285" id="tests-vaccines-15"></rect></g><g><rect x="139.9818181818182" y="47.433214285714286" width="2" height="52.566785714285714" id="tests-vaccines-16"></rect></g><g><rect x="136.41818181818184" y="8.468928571428568" width="2" height="91.53107142857144" id="tests-vaccines-17"></rect></g><g><rect x="132.85454545454544" y="23.2475" width="2" height="76.7525" id="tests-vaccines-18"></rect></g><g><rect x="129.29090909090908" y="20.26178571428572" width="2" height="79.73821428571428" id="tests-vaccines-19"></rect></g><g><rect x="125.72727272727273" y="22.795714285714286" width="2" height="77.20428571428572" id="tests-vaccines-20"></rect></g><g><rect x="122.16363636363636" y="28.865714285714283" width="2" height="71.13428571428571" id="tests-vaccines-21"></rect></g><g><rect x="118.6" y="76.08321428571429" width="2" height="23.91678571428571" id="tests-vaccines-22"></rect></g><g><rect x="115.03636363636363" y="54.469642857142865" width="2" height="45.530357142857135" id="tests-vaccines-23"></rect></g><g><rect x="111.47272727272728" y="13.761428571428569" width="2" height="86.23857142857143" id="tests-vaccines-24"></rect></g><g><rect x="107.90909090909089" y="29.942142857142862" width="2" height="70.05785714285713" id="tests-vaccines-25"></rect></g><g><rect x="104.34545454545456" y="32.65821428571428" width="2" height="67.34178571428572" id="tests-vaccines-26"></rect></g><g><rect x="100.78181818181817" y="32.471785714285716" width="2" height="67.52821428571428" id="tests-vaccines-27"></rect></g><g><rect x="97.21818181818183" y="36.661071428571425" width="2" height="63.338928571428575" id="tests-vaccines-28"></rect></g><g><rect x="93.65454545454546" y="81.91821428571428" width="2" height="18.081785714285715" id="tests-vaccines-29"></rect></g><g><rect x="90.09090909090911" y="63.27428571428572" width="2" height="36.72571428571428" id="tests-vaccines-30"></rect></g><g><rect x="86.52727272727273" y="22.241071428571423" width="2" height="77.75892857142858" id="tests-vaccines-31"></rect></g><g><rect x="82.96363636363637" y="35.18678571428572" width="2" height="64.81321428571428" id="tests-vaccines-32"></rect></g><g><rect x="79.4" y="35.128928571428574" width="2" height="64.87107142857143" id="tests-vaccines-33"></rect></g><g><rect x="75.83636363636364" y="35.94607142857142" width="2" height="64.05392857142857" id="tests-vaccines-34"></rect></g><g><rect x="72.27272727272727" y="41.8575" width="2" height="58.1425" id="tests-vaccines-35"></rect></g><g><rect x="68.70909090909092" y="83.09535714285714" width="2" height="16.90464285714286" id="tests-vaccines-36"></rect></g><g><rect x="65.14545454545454" y="66.99249999999999" width="2" height="33.00750000000001" id="tests-vaccines-37"></rect></g><g><rect x="61.58181818181818" y="42.057857142857145" width="2" height="57.942142857142855" id="tests-vaccines-38"></rect></g><g><rect x="58.018181818181816" y="65.60642857142858" width="2" height="34.39357142857142" id="tests-vaccines-39"></rect></g><g><rect x="54.454545454545446" y="66.94714285714285" width="2" height="33.05285714285715" id="tests-vaccines-40"></rect></g><g><rect x="50.89090909090908" y="65.87607142857144" width="2" height="34.123928571428564" id="tests-vaccines-41"></rect></g><g><rect x="47.32727272727273" y="64.46964285714284" width="2" height="35.530357142857156" id="tests-vaccines-42"></rect></g><g><rect x="43.76363636363636" y="89.10714285714285" width="2" height="10.892857142857153" id="tests-vaccines-43"></rect></g><g><rect x="40.199999999999996" y="78.98571428571428" width="2" height="21.01428571428572" id="tests-vaccines-44"></rect></g><g><rect x="36.636363636363626" y="55.03142857142858" width="2" height="44.96857142857142" id="tests-vaccines-45"></rect></g><g><rect x="33.072727272727285" y="64.07964285714284" width="2" height="35.920357142857156" id="tests-vaccines-46"></rect></g><g><rect x="29.509090909090922" y="64.50392857142857" width="2" height="35.496071428571426" id="tests-vaccines-47"></rect></g><g><rect x="25.945454545454556" y="62.29857142857143" width="2" height="37.70142857142857" id="tests-vaccines-48"></rect></g><g><rect x="22.38181818181819" y="61.83928571428572" width="2" height="38.16071428571428" id="tests-vaccines-49"></rect></g><g><rect x="18.818181818181824" y="87.28535714285715" width="2" height="12.714642857142849" id="tests-vaccines-50"></rect></g><g><rect x="15.254545454545461" y="76.68071428571427" width="2" height="23.319285714285726" id="tests-vaccines-51"></rect></g><g><rect x="11.690909090909095" y="49.05357142857143" width="2" height="50.94642857142857" id="tests-vaccines-52"></rect></g><g><rect x="8.12727272727273" y="58.24178571428571" width="2" height="41.75821428571429" id="tests-vaccines-53"></rect></g><g><rect x="4.563636363636365" y="61.03214285714286" width="2" height="38.96785714285714" id="tests-vaccines-54"></rect></g><g><rect x="1" y="60.184642857142855" width="2" height="39.815357142857145" id="tests-vaccines-55"></rect></g></g><g class="fg-line tests-vaccines" fill="none" stroke="#92c5de" stroke-width="2" stroke-linecap="round"><path d="M198,50.71775510204082L194.43636363636364,49.67163265306122L190.87272727272727,49.251734693877545L187.30909090909088,47.08005102040816L183.74545454545455,41.26L180.1818181818182,30.1263775510204L176.61818181818182,28.61765306122449L173.05454545454546,29.29102040816326L169.49090909090907,30.383520408163257L165.92727272727274,30.40326530612245L162.36363636363637,30.679234693877543L158.8,30.998928571428575L155.23636363636365,31.408826530612245L151.6727272727273,31.66295918367347L148.1090909090909,32.034642857142856L144.54545454545453,32.27474489795918L140.9818181818182,32.450867346938786L137.41818181818184,33.456071428571434L133.85454545454544,34.21214285714286L130.29090909090908,35.16852040816326L126.72727272727273,36.939438775510204L123.16363636363636,38.32173469387755L119.6,39.43535714285714L116.03636363636363,40.268928571428575L112.47272727272728,41.52673469387754L108.90909090909089,42.73811224489796L105.34545454545456,43.48734693877551L101.78181818181817,43.84030612244898L98.21818181818183,44.33663265306122L94.65454545454546,45.07897959183674L91.09090909090911,45.247142857142855L87.52727272727273,45.77831632653061L83.96363636363637,48.60928571428571L80.4,52.95494897959183L76.83636363636364,57.500408163265305L73.27272727272727,61.776122448979585L69.70909090909092,65.00642857142857L66.14545454545454,65.86525510204082L62.58181818181818,67.57857142857142L59.018181818181816,69.43193877551019L55.454545454545446,69.21382653061225L51.89090909090908,68.86479591836734L48.32727272727273,68.35372448979591L44.76363636363636,67.97795918367346L41.199999999999996,67.71770408163266L37.636363636363626,67.38841836734694L34.072727272727285,66.5344387755102L30.509090909090922,65.70045918367346L26.945454545454556,65.20448979591838L23.38181818181819,64.9025L19.818181818181824,64.6966836734694L16.25454545454546,64.55795918367346L12.690909090909095,64.42117346938775L9.12727272727273,64.28107142857142L5.563636363636365,63.51459183673469L2,62.48775510204081"></path></g></svg>