<svg meta="{&quot;DATA_PUBLISHED_DATE&quot;:&quot;2022-04-19&quot;,&quot;RENDER_DATE&quot;:&quot;2022-04-19&quot;,&quot;FIRST_DATE&quot;:&quot;2022-02-14&quot;,&quot;LAST_DATE&quot;:&quot;2022-04-10&quot;}" xmlns="http://www.w3.org/2000/svg" viewBox="0,0,200,100"><g transform="translate(0,0)"></g><g class="fg-bars cases-ep" fill="#00183f" stroke="none"><g><rect x="197" y="86.2" width="2" height="13.799999999999997" id="cases-ep-0"></rect></g><g><rect x="193.43636363636364" y="86.31538461538462" width="2" height="13.684615384615384" id="cases-ep-1"></rect></g><g><rect x="189.87272727272727" y="79.46153846153847" width="2" height="20.538461538461533" id="cases-ep-2"></rect></g><g><rect x="186.30909090909088" y="77.63076923076923" width="2" height="22.369230769230768" id="cases-ep-3"></rect></g><g><rect x="182.74545454545455" y="74.95384615384614" width="2" height="25.046153846153857" id="cases-ep-4"></rect></g><g><rect x="179.1818181818182" y="75.4" width="2" height="24.599999999999994" id="cases-ep-5"></rect></g><g><rect x="175.61818181818182" y="71.82307692307693" width="2" height="28.176923076923075" id="cases-ep-6"></rect></g><g><rect x="172.05454545454546" y="87.14615384615385" width="2" height="12.853846153846149" id="cases-ep-7"></rect></g><g><rect x="168.49090909090907" y="87.7" width="2" height="12.299999999999997" id="cases-ep-8"></rect></g><g><rect x="164.92727272727274" y="80.47692307692309" width="2" height="19.523076923076914" id="cases-ep-9"></rect></g><g><rect x="161.36363636363637" y="81.54615384615384" width="2" height="18.453846153846158" id="cases-ep-10"></rect></g><g><rect x="157.8" y="79.96153846153847" width="2" height="20.038461538461533" id="cases-ep-11"></rect></g><g><rect x="154.23636363636365" y="79.31538461538462" width="2" height="20.684615384615384" id="cases-ep-12"></rect></g><g><rect x="150.6727272727273" y="78.26923076923077" width="2" height="21.730769230769226" id="cases-ep-13"></rect></g><g><rect x="147.1090909090909" y="88.37692307692308" width="2" height="11.623076923076923" id="cases-ep-14"></rect></g><g><rect x="143.54545454545453" y="89.03076923076924" width="2" height="10.969230769230762" id="cases-ep-15"></rect></g><g><rect x="139.9818181818182" y="84.8" width="2" height="15.200000000000003" id="cases-ep-16"></rect></g><g><rect x="136.41818181818184" y="82.53076923076922" width="2" height="17.469230769230776" id="cases-ep-17"></rect></g><g><rect x="132.85454545454544" y="82.85384615384615" width="2" height="17.14615384615385" id="cases-ep-18"></rect></g><g><rect x="129.29090909090908" y="76.83076923076923" width="2" height="23.169230769230765" id="cases-ep-19"></rect></g><g><rect x="125.72727272727273" y="79.32307692307691" width="2" height="20.67692307692309" id="cases-ep-20"></rect></g><g><rect x="122.16363636363636" y="90.1923076923077" width="2" height="9.807692307692307" id="cases-ep-21"></rect></g><g><rect x="118.6" y="90.53846153846153" width="2" height="9.461538461538467" id="cases-ep-22"></rect></g><g><rect x="115.03636363636363" y="84.81538461538462" width="2" height="15.184615384615384" id="cases-ep-23"></rect></g><g><rect x="111.47272727272728" y="82.3" width="2" height="17.700000000000003" id="cases-ep-24"></rect></g><g><rect x="107.90909090909089" y="81.16923076923077" width="2" height="18.830769230769235" id="cases-ep-25"></rect></g><g><rect x="104.34545454545456" y="79.94615384615385" width="2" height="20.053846153846152" id="cases-ep-26"></rect></g><g><rect x="100.78181818181817" y="78.16153846153846" width="2" height="21.838461538461544" id="cases-ep-27"></rect></g><g><rect x="97.21818181818183" y="90.22307692307692" width="2" height="9.776923076923083" id="cases-ep-28"></rect></g><g><rect x="93.65454545454546" y="88.63076923076923" width="2" height="11.369230769230768" id="cases-ep-29"></rect></g><g><rect x="90.09090909090911" y="82.37692307692308" width="2" height="17.623076923076923" id="cases-ep-30"></rect></g><g><rect x="86.52727272727273" y="80.58461538461539" width="2" height="19.41538461538461" id="cases-ep-31"></rect></g><g><rect x="82.96363636363637" y="76.93076923076923" width="2" height="23.06923076923077" id="cases-ep-32"></rect></g><g><rect x="79.4" y="74.6923076923077" width="2" height="25.307692307692307" id="cases-ep-33"></rect></g><g><rect x="75.83636363636364" y="70.24615384615385" width="2" height="29.753846153846155" id="cases-ep-34"></rect></g><g><rect x="72.27272727272727" y="86.1923076923077" width="2" height="13.807692307692307" id="cases-ep-35"></rect></g><g><rect x="68.70909090909092" y="84.25384615384615" width="2" height="15.746153846153845" id="cases-ep-36"></rect></g><g><rect x="65.14545454545454" y="76.11538461538461" width="2" height="23.884615384615387" id="cases-ep-37"></rect></g><g><rect x="61.58181818181818" y="72.54615384615384" width="2" height="27.453846153846158" id="cases-ep-38"></rect></g><g><rect x="58.018181818181816" y="69.56153846153846" width="2" height="30.43846153846154" id="cases-ep-39"></rect></g><g><rect x="54.454545454545446" y="64.22307692307692" width="2" height="35.77692307692308" id="cases-ep-40"></rect></g><g><rect x="50.89090909090908" y="59.91538461538462" width="2" height="40.08461538461538" id="cases-ep-41"></rect></g><g><rect x="47.32727272727273" y="81.77692307692308" width="2" height="18.223076923076917" id="cases-ep-42"></rect></g><g><rect x="43.76363636363636" y="79.36923076923077" width="2" height="20.630769230769232" id="cases-ep-43"></rect></g><g><rect x="40.199999999999996" y="63.292307692307695" width="2" height="36.707692307692305" id="cases-ep-44"></rect></g><g><rect x="36.636363636363626" y="60.41538461538462" width="2" height="39.58461538461538" id="cases-ep-45"></rect></g><g><rect x="33.072727272727285" y="57.092307692307685" width="2" height="42.907692307692315" id="cases-ep-46"></rect></g><g><rect x="29.509090909090922" y="45.099999999999994" width="2" height="54.900000000000006" id="cases-ep-47"></rect></g><g><rect x="25.945454545454556" y="59.069230769230764" width="2" height="40.930769230769236" id="cases-ep-48"></rect></g><g><rect x="22.38181818181819" y="72.36153846153846" width="2" height="27.63846153846154" id="cases-ep-49"></rect></g><g><rect x="18.818181818181824" y="67.86923076923077" width="2" height="32.13076923076923" id="cases-ep-50"></rect></g><g><rect x="15.254545454545461" y="45.89230769230769" width="2" height="54.10769230769231" id="cases-ep-51"></rect></g><g><rect x="11.690909090909095" y="37.91538461538462" width="2" height="62.08461538461538" id="cases-ep-52"></rect></g><g><rect x="8.12727272727273" y="28.16153846153846" width="2" height="71.83846153846154" id="cases-ep-53"></rect></g><g><rect x="4.563636363636365" y="16.953846153846154" width="2" height="83.04615384615384" id="cases-ep-54"></rect></g><g><rect x="1" y="1.8153846153846187" width="2" height="98.18461538461538" id="cases-ep-55"></rect></g></g><g class="fg-line cases-ep" fill="none" stroke="#92c5de" stroke-width="2" stroke-linecap="round"><path d="M198,78.82637362637362L194.43636363636364,78.96153846153847L190.87272727272727,79.15934065934066L187.30909090909088,79.30439560439561L183.74545454545455,79.86373626373626L180.1818181818182,80.57912087912088L176.61818181818182,81.13846153846154L173.05454545454546,82.05934065934066L169.49090909090907,82.23516483516484L165.92727272727274,82.42527472527472L162.36363636363637,83.04285714285714L158.8,83.18351648351648L155.23636363636365,83.5967032967033L151.6727272727273,83.24175824175825L148.1090909090909,83.3923076923077L144.54545454545453,83.65164835164836L140.9818181818182,83.86703296703297L137.41818181818184,83.86923076923077L133.85454545454544,83.83626373626373L130.29090909090908,83.5956043956044L126.72727272727273,84.04065934065935L123.16363636363636,83.87472527472528L119.6,83.87912087912088L116.03636363636363,83.6065934065934L112.47272727272728,83.25824175824175L108.90909090909089,83.0131868131868L105.34545454545456,82.4076923076923L101.78181818181817,81.65714285714286L98.21818181818183,80.52637362637363L94.65454545454546,79.95054945054945L91.09090909090911,79.32527472527472L87.52727272727273,78.43076923076924L83.96363636363637,77.28241758241758L80.4,76.22967032967033L76.83636363636364,74.73406593406592L73.27272727272727,73.25824175824177L69.70909090909092,72.62747252747252L66.14545454545454,71.92967032967033L62.58181818181818,70.0978021978022L59.018181818181816,68.36483516483516L55.454545454545446,66.58351648351648L51.89090909090908,63.85164835164835L48.32727272727273,63.73076923076923L44.76363636363636,62.385714285714286L41.199999999999996,60.74285714285714L37.636363636363626,58.25714285714285L34.072727272727285,55.04285714285715L30.509090909090922,50.909890109890114L26.945454545454556,46.88901098901099L23.38181818181819,38.70989010989011L19.818181818181824,36.59560439560438L16.25454545454546,33.42087912087912L12.690909090909095,27.07142857142857L9.12727272727273,20.468131868131866L5.563636363636365,13.091208791208796L2,5.421978021978024"></path></g></svg>