<svg about="DATA_PUBLISHED_DATE:2022-01-12,RENDER_DATE:2022-01-12" xmlns="http://www.w3.org/2000/svg" viewBox="0,0,200,100"><g transform="translate(0,0)"></g><g class="fg-bars cases-ep" fill="#00183f" stroke="none"><g><rect x="197" y="6.601538461538459" width="2" height="93.39846153846155" id="cases-ep-0"></rect></g><g><rect x="193.43636363636364" y="64.06923076923077" width="2" height="35.93076923076923" id="cases-ep-1"></rect></g><g><rect x="189.87272727272727" y="80.64615384615385" width="2" height="19.35384615384615" id="cases-ep-2"></rect></g><g><rect x="186.30909090909088" y="63.040000000000006" width="2" height="36.959999999999994" id="cases-ep-3"></rect></g><g><rect x="182.74545454545455" y="38.53230769230769" width="2" height="61.46769230769231" id="cases-ep-4"></rect></g><g><rect x="179.1818181818182" y="35.06538461538462" width="2" height="64.93461538461537" id="cases-ep-5"></rect></g><g><rect x="175.61818181818182" y="36.21153846153846" width="2" height="63.78846153846154" id="cases-ep-6"></rect></g><g><rect x="172.05454545454546" y="46.456153846153846" width="2" height="53.543846153846154" id="cases-ep-7"></rect></g><g><rect x="168.49090909090907" y="74.82846153846154" width="2" height="25.17153846153846" id="cases-ep-8"></rect></g><g><rect x="164.92727272727274" y="89.96384615384615" width="2" height="10.036153846153852" id="cases-ep-9"></rect></g><g><rect x="161.36363636363637" y="84.28769230769231" width="2" height="15.71230769230769" id="cases-ep-10"></rect></g><g><rect x="157.8" y="76.23461538461538" width="2" height="23.76538461538462" id="cases-ep-11"></rect></g><g><rect x="154.23636363636365" y="76.53307692307692" width="2" height="23.46692307692308" id="cases-ep-12"></rect></g><g><rect x="150.6727272727273" y="79.76923076923077" width="2" height="20.230769230769226" id="cases-ep-13"></rect></g><g><rect x="147.1090909090909" y="82.8123076923077" width="2" height="17.187692307692302" id="cases-ep-14"></rect></g><g><rect x="143.54545454545453" y="92.12" width="2" height="7.8799999999999955" id="cases-ep-15"></rect></g><g><rect x="139.9818181818182" y="92.69923076923077" width="2" height="7.300769230769234" id="cases-ep-16"></rect></g><g><rect x="136.41818181818184" y="91.60000000000001" width="2" height="8.399999999999991" id="cases-ep-17"></rect></g><g><rect x="132.85454545454544" y="92.25769230769231" width="2" height="7.742307692307691" id="cases-ep-18"></rect></g><g><rect x="129.29090909090908" y="92.30153846153846" width="2" height="7.698461538461544" id="cases-ep-19"></rect></g><g><rect x="125.72727272727273" y="93.60846153846154" width="2" height="6.39153846153846" id="cases-ep-20"></rect></g><g><rect x="122.16363636363636" y="93.21230769230769" width="2" height="6.787692307692311" id="cases-ep-21"></rect></g><g><rect x="118.6" y="96.64846153846153" width="2" height="3.3515384615384676" id="cases-ep-22"></rect></g><g><rect x="115.03636363636363" y="96.73692307692308" width="2" height="3.263076923076923" id="cases-ep-23"></rect></g><g><rect x="111.47272727272728" y="95.58846153846153" width="2" height="4.41153846153847" id="cases-ep-24"></rect></g><g><rect x="107.90909090909089" y="95.5946153846154" width="2" height="4.405384615384605" id="cases-ep-25"></rect></g><g><rect x="104.34545454545456" y="95.03538461538461" width="2" height="4.964615384615385" id="cases-ep-26"></rect></g><g><rect x="100.78181818181817" y="95.00461538461539" width="2" height="4.995384615384609" id="cases-ep-27"></rect></g><g><rect x="97.21818181818183" y="94.32307692307693" width="2" height="5.6769230769230745" id="cases-ep-28"></rect></g><g><rect x="93.65454545454546" y="97.04615384615384" width="2" height="2.9538461538461576" id="cases-ep-29"></rect></g><g><rect x="90.09090909090911" y="96.82307692307693" width="2" height="3.1769230769230745" id="cases-ep-30"></rect></g><g><rect x="86.52727272727273" y="95.28538461538461" width="2" height="4.714615384615385" id="cases-ep-31"></rect></g><g><rect x="82.96363636363637" y="95.15692307692308" width="2" height="4.8430769230769215" id="cases-ep-32"></rect></g><g><rect x="79.4" y="94.26846153846154" width="2" height="5.731538461538463" id="cases-ep-33"></rect></g><g><rect x="75.83636363636364" y="94.5776923076923" width="2" height="5.422307692307697" id="cases-ep-34"></rect></g><g><rect x="72.27272727272727" y="93.68692307692308" width="2" height="6.31307692307692" id="cases-ep-35"></rect></g><g><rect x="68.70909090909092" y="96.62307692307692" width="2" height="3.3769230769230774" id="cases-ep-36"></rect></g><g><rect x="65.14545454545454" y="96.76076923076923" width="2" height="3.2392307692307725" id="cases-ep-37"></rect></g><g><rect x="61.58181818181818" y="96.66538461538462" width="2" height="3.3346153846153754" id="cases-ep-38"></rect></g><g><rect x="58.018181818181816" y="98.24538461538461" width="2" height="1.7546153846153913" id="cases-ep-39"></rect></g><g><rect x="54.454545454545446" y="96.42846153846153" width="2" height="3.5715384615384664" id="cases-ep-40"></rect></g><g><rect x="50.89090909090908" y="96.29076923076923" width="2" height="3.7092307692307713" id="cases-ep-41"></rect></g><g><rect x="47.32727272727273" y="96" width="2" height="4" id="cases-ep-42"></rect></g><g><rect x="43.76363636363636" y="97.74076923076923" width="2" height="2.2592307692307685" id="cases-ep-43"></rect></g><g><rect x="40.199999999999996" y="97.49692307692308" width="2" height="2.503076923076918" id="cases-ep-44"></rect></g><g><rect x="36.636363636363626" y="96.48153846153846" width="2" height="3.518461538461537" id="cases-ep-45"></rect></g><g><rect x="33.072727272727285" y="96.4176923076923" width="2" height="3.582307692307694" id="cases-ep-46"></rect></g><g><rect x="29.509090909090922" y="96.05153846153847" width="2" height="3.9484615384615296" id="cases-ep-47"></rect></g><g><rect x="25.945454545454556" y="95.85076923076923" width="2" height="4.149230769230769" id="cases-ep-48"></rect></g><g><rect x="22.38181818181819" y="95.10076923076923" width="2" height="4.899230769230769" id="cases-ep-49"></rect></g><g><rect x="18.818181818181824" y="97.51076923076923" width="2" height="2.4892307692307725" id="cases-ep-50"></rect></g><g><rect x="15.254545454545461" y="97.36461538461538" width="2" height="2.6353846153846234" id="cases-ep-51"></rect></g><g><rect x="11.690909090909095" y="96.09769230769231" width="2" height="3.902307692307687" id="cases-ep-52"></rect></g><g><rect x="8.12727272727273" y="96.69615384615385" width="2" height="3.303846153846152" id="cases-ep-53"></rect></g><g><rect x="4.563636363636365" y="95.69615384615385" width="2" height="4.303846153846152" id="cases-ep-54"></rect></g><g><rect x="1" y="95.48230769230769" width="2" height="4.517692307692315" id="cases-ep-55"></rect></g></g><g class="fg-line cases-ep" fill="none" stroke="#92c5de" stroke-width="2" stroke-linecap="round"><path d="M198,46.309450549450546L194.43636363636364,52.00296703296703L190.87272727272727,53.54L187.30909090909088,54.871098901098904L183.74545454545455,57.90648351648351L180.1818181818182,63.29252747252747L176.61818181818182,69.21648351648352L173.05454545454546,75.439010989011L169.49090909090907,80.63274725274725L165.92727272727274,83.10296703296703L162.36363636363637,83.49373626373627L158.8,84.53835164835165L155.23636363636365,86.82736263736264L151.6727272727273,89.08L148.1090909090909,91.05703296703297L144.54545454545453,92.54274725274725L140.9818181818182,93.18967032967032L137.41818181818184,93.76648351648352L133.85454545454544,94.33626373626373L130.29090909090908,94.81296703296704L126.72727272727273,95.20351648351648L123.16363636363636,95.40296703296704L119.6,95.56164835164836L116.03636363636363,95.61846153846155L112.47272727272728,95.63076923076923L108.90909090909089,95.58747252747253L105.34545454545456,95.52494505494505L101.78181818181817,95.41538461538461L98.21818181818183,95.3543956043956L94.65454545454546,95.26351648351648L91.09090909090911,95.20307692307692L87.52727272727273,95.19417582417582L83.96363636363637,95.39131868131868L80.4,95.83252747252747L76.83636363636364,96.1410989010989L73.27272727272727,96.38582417582417L69.70909090909092,96.71626373626374L66.14545454545454,96.87593406593406L62.58181818181818,96.9810989010989L59.018181818181816,96.95483516483516L55.454545454545446,96.69373626373627L51.89090909090908,96.63989010989012L48.32727272727273,96.57703296703298L44.76363636363636,96.44857142857143L41.199999999999996,96.41571428571429L37.636363636363626,96.39681318681319L34.072727272727285,96.34197802197802L30.509090909090922,96.38175824175825L26.945454545454556,96.33098901098901L23.38181818181819,96.27835164835165L19.818181818181824,96.25054945054944L16.25454545454546,96.22659340659341L12.690909090909095,96.20142857142856L9.12727272727273,96.15296703296703L5.563636363636365,95.96593406593406L2,95.88043956043956"></path></g></svg>