<svg about="DATA_PUBLISHED_DATE:2021-10-05,RENDER_DATE:2021-10-05" xmlns="http://www.w3.org/2000/svg" viewBox="0,0,200,100"><g transform="translate(0,0)"></g><g class="fg-bars tests-vaccines" fill="#00183f" stroke="none"><g><rect x="197" y="17.692307692307697" width="2" height="82.3076923076923" id="tests-vaccines-0"></rect></g><g><rect x="193.43636363636364" y="71.39615384615385" width="2" height="28.60384615384615" id="tests-vaccines-1"></rect></g><g><rect x="189.87272727272727" y="47.85846153846154" width="2" height="52.14153846153846" id="tests-vaccines-2"></rect></g><g><rect x="186.30909090909088" y="19.261538461538464" width="2" height="80.73846153846154" id="tests-vaccines-3"></rect></g><g><rect x="182.74545454545455" y="46.239230769230765" width="2" height="53.760769230769235" id="tests-vaccines-4"></rect></g><g><rect x="179.1818181818182" y="46.03307692307692" width="2" height="53.96692307692308" id="tests-vaccines-5"></rect></g><g><rect x="175.61818181818182" y="44.30461538461539" width="2" height="55.69538461538461" id="tests-vaccines-6"></rect></g><g><rect x="172.05454545454546" y="39.68000000000001" width="2" height="60.31999999999999" id="tests-vaccines-7"></rect></g><g><rect x="168.49090909090907" y="75.18461538461538" width="2" height="24.815384615384616" id="tests-vaccines-8"></rect></g><g><rect x="164.92727272727274" y="56.91384615384616" width="2" height="43.08615384615384" id="tests-vaccines-9"></rect></g><g><rect x="161.36363636363637" y="27.591538461538455" width="2" height="72.40846153846155" id="tests-vaccines-10"></rect></g><g><rect x="157.8" y="38.06" width="2" height="61.94" id="tests-vaccines-11"></rect></g><g><rect x="154.23636363636365" y="39.83615384615384" width="2" height="60.16384615384616" id="tests-vaccines-12"></rect></g><g><rect x="150.6727272727273" y="39.262307692307694" width="2" height="60.737692307692306" id="tests-vaccines-13"></rect></g><g><rect x="147.1090909090909" y="36.17076923076923" width="2" height="63.82923076923077" id="tests-vaccines-14"></rect></g><g><rect x="143.54545454545453" y="73.23076923076923" width="2" height="26.769230769230774" id="tests-vaccines-15"></rect></g><g><rect x="139.9818181818182" y="52.386923076923075" width="2" height="47.613076923076925" id="tests-vaccines-16"></rect></g><g><rect x="136.41818181818184" y="18.523846153846158" width="2" height="81.47615384615384" id="tests-vaccines-17"></rect></g><g><rect x="132.85454545454544" y="33.251538461538466" width="2" height="66.74846153846153" id="tests-vaccines-18"></rect></g><g><rect x="129.29090909090908" y="32.644615384615385" width="2" height="67.35538461538462" id="tests-vaccines-19"></rect></g><g><rect x="125.72727272727273" y="25.657692307692304" width="2" height="74.3423076923077" id="tests-vaccines-20"></rect></g><g><rect x="122.16363636363636" y="85.35384615384616" width="2" height="14.646153846153837" id="tests-vaccines-21"></rect></g><g><rect x="118.6" y="71.14" width="2" height="28.86" id="tests-vaccines-22"></rect></g><g><rect x="115.03636363636363" y="51.550769230769234" width="2" height="48.449230769230766" id="tests-vaccines-23"></rect></g><g><rect x="111.47272727272728" y="10.729999999999995" width="2" height="89.27000000000001" id="tests-vaccines-24"></rect></g><g><rect x="107.90909090909089" y="28.87461538461539" width="2" height="71.1253846153846" id="tests-vaccines-25"></rect></g><g><rect x="104.34545454545456" y="26.841538461538462" width="2" height="73.15846153846154" id="tests-vaccines-26"></rect></g><g><rect x="100.78181818181817" y="23.76769230769231" width="2" height="76.23230769230769" id="tests-vaccines-27"></rect></g><g><rect x="97.21818181818183" y="22.876153846153848" width="2" height="77.12384615384616" id="tests-vaccines-28"></rect></g><g><rect x="93.65454545454546" y="67.34076923076924" width="2" height="32.65923076923076" id="tests-vaccines-29"></rect></g><g><rect x="90.09090909090911" y="40.33230769230769" width="2" height="59.66769230769231" id="tests-vaccines-30"></rect></g><g><rect x="86.52727272727273" y="1.6853846153846108" width="2" height="98.3146153846154" id="tests-vaccines-31"></rect></g><g><rect x="82.96363636363637" y="20.150000000000002" width="2" height="79.85" id="tests-vaccines-32"></rect></g><g><rect x="79.4" y="21.20384615384615" width="2" height="78.79615384615386" id="tests-vaccines-33"></rect></g><g><rect x="75.83636363636364" y="18.19615384615385" width="2" height="81.80384615384615" id="tests-vaccines-34"></rect></g><g><rect x="72.27272727272727" y="18.700000000000006" width="2" height="81.3" id="tests-vaccines-35"></rect></g><g><rect x="68.70909090909092" y="67.80615384615385" width="2" height="32.19384615384615" id="tests-vaccines-36"></rect></g><g><rect x="65.14545454545454" y="41.89846153846154" width="2" height="58.10153846153846" id="tests-vaccines-37"></rect></g><g><rect x="61.58181818181818" y="2.780769230769231" width="2" height="97.21923076923076" id="tests-vaccines-38"></rect></g><g><rect x="58.018181818181816" y="21.951538461538465" width="2" height="78.04846153846154" id="tests-vaccines-39"></rect></g><g><rect x="54.454545454545446" y="21.745384615384612" width="2" height="78.25461538461539" id="tests-vaccines-40"></rect></g><g><rect x="50.89090909090908" y="21.53384615384616" width="2" height="78.46615384615384" id="tests-vaccines-41"></rect></g><g><rect x="47.32727272727273" y="25.374615384615385" width="2" height="74.62538461538462" id="tests-vaccines-42"></rect></g><g><rect x="43.76363636363636" y="68.89384615384616" width="2" height="31.106153846153845" id="tests-vaccines-43"></rect></g><g><rect x="40.199999999999996" y="44.088461538461544" width="2" height="55.911538461538456" id="tests-vaccines-44"></rect></g><g><rect x="36.636363636363626" y="14.212307692307691" width="2" height="85.78769230769231" id="tests-vaccines-45"></rect></g><g><rect x="33.072727272727285" y="32.206923076923076" width="2" height="67.79307692307692" id="tests-vaccines-46"></rect></g><g><rect x="29.509090909090922" y="35.76384615384616" width="2" height="64.23615384615384" id="tests-vaccines-47"></rect></g><g><rect x="25.945454545454556" y="29.782307692307697" width="2" height="70.2176923076923" id="tests-vaccines-48"></rect></g><g><rect x="22.38181818181819" y="32.41538461538461" width="2" height="67.58461538461539" id="tests-vaccines-49"></rect></g><g><rect x="18.818181818181824" y="73.07076923076923" width="2" height="26.92923076923077" id="tests-vaccines-50"></rect></g><g><rect x="15.254545454545461" y="50.74615384615384" width="2" height="49.25384615384616" id="tests-vaccines-51"></rect></g><g><rect x="11.690909090909095" y="19.359230769230773" width="2" height="80.64076923076922" id="tests-vaccines-52"></rect></g><g><rect x="8.12727272727273" y="33.424615384615386" width="2" height="66.57538461538462" id="tests-vaccines-53"></rect></g><g><rect x="4.563636363636365" y="34.75307692307692" width="2" height="65.24692307692308" id="tests-vaccines-54"></rect></g><g><rect x="1" y="31.115384615384613" width="2" height="68.88461538461539" id="tests-vaccines-55"></rect></g></g><g class="fg-line tests-vaccines" fill="none" stroke="#92c5de" stroke-width="2" stroke-linecap="round"><path d="M198,41.82648351648351L194.43636363636364,44.96758241758242L190.87272727272727,45.5087912087912L187.30909090909088,46.802417582417576L183.74545454545455,47.99241758241758L180.1818181818182,46.82395604395604L176.61818181818182,45.93868131868132L173.05454545454546,45.21835164835165L169.49090909090907,44.717032967032964L165.92727272727274,44.43791208791208L162.36363636363637,43.79120879120879L158.8,42.49582417582418L155.23636363636365,41.80890109890111L151.6727272727273,40.78153846153846L148.1090909090909,38.83802197802198L144.54545454545453,45.864175824175824L140.9818181818182,45.565494505494506L137.41818181818184,45.44604395604396L133.85454545454544,44.332637362637364L130.29090909090908,43.70736263736264L126.72727272727273,42.878351648351654L123.16363636363636,42.60835164835165L119.6,33.682967032967035L116.03636363636363,33.14021978021978L112.47272727272728,31.53758241758242L108.90909090909089,30.24549450549451L105.34545454545456,28.999120879120877L101.78181818181817,28.19373626373627L98.21818181818183,27.3978021978022L94.65454545454546,26.801208791208797L91.09090909090911,26.8676923076923L87.52727272727273,27.091428571428576L83.96363636363637,27.247912087912084L80.4,27.50527472527473L76.83636363636364,27.582637362637364L73.27272727272727,28.05945054945055L69.70909090909092,29.01296703296703L66.14545454545454,29.168351648351653L62.58181818181818,29.48120879120879L59.018181818181816,31.114285714285717L55.454545454545446,32.57934065934066L51.89090909090908,34.581978021978024L48.32727272727273,35.76032967032966L44.76363636363636,36.76615384615385L41.199999999999996,37.362857142857145L37.636363636363626,38.31395604395604L34.072727272727285,39.04923076923077L30.509090909090922,39.223186813186814L26.945454545454556,39.07879120879121L23.38181818181819,39.26923076923077L19.818181818181824,40.126703296703305L16.25454545454546,40.652967032967034L12.690909090909095,41.11813186813187L9.12727272727273,42.041318681318685L5.563636363636365,42.58747252747253L2,42.64989010989011"></path></g></svg>