<svg about="DATA_PUBLISHED_DATE:2021-10-27,RENDER_DATE:2021-10-27" xmlns="http://www.w3.org/2000/svg" viewBox="0,0,200,100"><g transform="translate(0,0)"></g><g class="fg-bars death-date" fill="#00183f" stroke="none"><g><rect x="197" y="60" width="2" height="40" id="death-date-0"></rect></g><g><rect x="193.43636363636364" y="55.00000000000001" width="2" height="44.99999999999999" id="death-date-1"></rect></g><g><rect x="189.87272727272727" y="40.714285714285715" width="2" height="59.285714285714285" id="death-date-2"></rect></g><g><rect x="186.30909090909088" y="50" width="2" height="50" id="death-date-3"></rect></g><g><rect x="182.74545454545455" y="58.57142857142856" width="2" height="41.42857142857144" id="death-date-4"></rect></g><g><rect x="179.1818181818182" y="44.99999999999999" width="2" height="55.00000000000001" id="death-date-5"></rect></g><g><rect x="175.61818181818182" y="44.285714285714285" width="2" height="55.714285714285715" id="death-date-6"></rect></g><g><rect x="172.05454545454546" y="40" width="2" height="60" id="death-date-7"></rect></g><g><rect x="168.49090909090907" y="46.42857142857143" width="2" height="53.57142857142857" id="death-date-8"></rect></g><g><rect x="164.92727272727274" y="30.000000000000004" width="2" height="70" id="death-date-9"></rect></g><g><rect x="161.36363636363637" y="31.428571428571427" width="2" height="68.57142857142857" id="death-date-10"></rect></g><g><rect x="157.8" y="27.142857142857146" width="2" height="72.85714285714286" id="death-date-11"></rect></g><g><rect x="154.23636363636365" y="19.285714285714285" width="2" height="80.71428571428572" id="death-date-12"></rect></g><g><rect x="150.6727272727273" y="40.714285714285715" width="2" height="59.285714285714285" id="death-date-13"></rect></g><g><rect x="147.1090909090909" y="27.857142857142858" width="2" height="72.14285714285714" id="death-date-14"></rect></g><g><rect x="143.54545454545453" y="42.85714285714286" width="2" height="57.14285714285714" id="death-date-15"></rect></g><g><rect x="139.9818181818182" y="18.571428571428573" width="2" height="81.42857142857143" id="death-date-16"></rect></g><g><rect x="136.41818181818184" y="23.571428571428577" width="2" height="76.42857142857142" id="death-date-17"></rect></g><g><rect x="132.85454545454544" y="20.71428571428572" width="2" height="79.28571428571428" id="death-date-18"></rect></g><g><rect x="129.29090909090908" y="22.142857142857142" width="2" height="77.85714285714286" id="death-date-19"></rect></g><g><rect x="125.72727272727273" y="30.000000000000004" width="2" height="70" id="death-date-20"></rect></g><g><rect x="122.16363636363636" y="14.28571428571429" width="2" height="85.71428571428571" id="death-date-21"></rect></g><g><rect x="118.6" y="25" width="2" height="75" id="death-date-22"></rect></g><g><rect x="115.03636363636363" y="19.285714285714285" width="2" height="80.71428571428572" id="death-date-23"></rect></g><g><rect x="111.47272727272728" y="0" width="2" height="100" id="death-date-24"></rect></g><g><rect x="107.90909090909089" y="6.428571428571428" width="2" height="93.57142857142857" id="death-date-25"></rect></g><g><rect x="104.34545454545456" y="17.14285714285714" width="2" height="82.85714285714286" id="death-date-26"></rect></g><g><rect x="100.78181818181817" y="15.714285714285714" width="2" height="84.28571428571429" id="death-date-27"></rect></g><g><rect x="97.21818181818183" y="12.857142857142856" width="2" height="87.14285714285714" id="death-date-28"></rect></g><g><rect x="93.65454545454546" y="5.000000000000004" width="2" height="95" id="death-date-29"></rect></g><g><rect x="90.09090909090911" y="26.428571428571423" width="2" height="73.57142857142858" id="death-date-30"></rect></g><g><rect x="86.52727272727273" y="8.571428571428575" width="2" height="91.42857142857143" id="death-date-31"></rect></g><g><rect x="82.96363636363637" y="2.1428571428571463" width="2" height="97.85714285714285" id="death-date-32"></rect></g><g><rect x="79.4" y="19.999999999999996" width="2" height="80" id="death-date-33"></rect></g><g><rect x="75.83636363636364" y="15.000000000000002" width="2" height="85" id="death-date-34"></rect></g><g><rect x="72.27272727272727" y="19.285714285714285" width="2" height="80.71428571428572" id="death-date-35"></rect></g><g><rect x="68.70909090909092" y="30.714285714285715" width="2" height="69.28571428571428" id="death-date-36"></rect></g><g><rect x="65.14545454545454" y="2.857142857142858" width="2" height="97.14285714285714" id="death-date-37"></rect></g><g><rect x="61.58181818181818" y="15.714285714285714" width="2" height="84.28571428571429" id="death-date-38"></rect></g><g><rect x="58.018181818181816" y="14.28571428571429" width="2" height="85.71428571428571" id="death-date-39"></rect></g><g><rect x="54.454545454545446" y="13.571428571428568" width="2" height="86.42857142857143" id="death-date-40"></rect></g><g><rect x="50.89090909090908" y="16.428571428571427" width="2" height="83.57142857142857" id="death-date-41"></rect></g><g><rect x="47.32727272727273" y="27.857142857142858" width="2" height="72.14285714285714" id="death-date-42"></rect></g><g><rect x="43.76363636363636" y="26.428571428571423" width="2" height="73.57142857142858" id="death-date-43"></rect></g><g><rect x="40.199999999999996" y="23.571428571428577" width="2" height="76.42857142857142" id="death-date-44"></rect></g><g><rect x="36.636363636363626" y="32.14285714285714" width="2" height="67.85714285714286" id="death-date-45"></rect></g><g><rect x="33.072727272727285" y="29.28571428571428" width="2" height="70.71428571428572" id="death-date-46"></rect></g><g><rect x="29.509090909090922" y="35" width="2" height="65" id="death-date-47"></rect></g><g><rect x="25.945454545454556" y="21.42857142857143" width="2" height="78.57142857142857" id="death-date-48"></rect></g><g><rect x="22.38181818181819" y="20.71428571428572" width="2" height="79.28571428571428" id="death-date-49"></rect></g><g><rect x="18.818181818181824" y="48.57142857142858" width="2" height="51.42857142857142" id="death-date-50"></rect></g><g><rect x="15.254545454545461" y="44.99999999999999" width="2" height="55.00000000000001" id="death-date-51"></rect></g><g><rect x="11.690909090909095" y="19.285714285714285" width="2" height="80.71428571428572" id="death-date-52"></rect></g><g><rect x="8.12727272727273" y="44.285714285714285" width="2" height="55.714285714285715" id="death-date-53"></rect></g><g><rect x="4.563636363636365" y="49.28571428571429" width="2" height="50.71428571428571" id="death-date-54"></rect></g><g><rect x="1" y="46.42857142857143" width="2" height="53.57142857142857" id="death-date-55"></rect></g></g><g class="fg-line death-date" fill="none" stroke="#92c5de" stroke-width="2" stroke-linecap="round"><path d="M198,50.51020408163265L194.43636363636364,47.65306122448979L190.87272727272727,46.42857142857143L187.30909090909088,44.89795918367348L183.74545454545455,42.24489795918367L180.1818181818182,37.755102040816325L176.61818181818182,34.08163265306122L173.05454545454546,33.57142857142858L169.49090909090907,31.836734693877546L165.92727272727274,31.326530612244895L162.36363636363637,29.69387755102041L158.8,28.57142857142857L155.23636363636365,27.653061224489793L151.6727272727273,28.061224489795922L148.1090909090909,26.530612244897956L144.54545454545453,24.591836734693885L140.9818181818182,22.04081632653061L137.41818181818184,22.142857142857142L133.85454545454544,18.775510204081634L130.29090909090908,16.73469387755102L126.72727272727273,16.02040816326531L123.16363636363636,13.979591836734695L119.6,13.775510204081643L116.03636363636363,10.918367346938783L112.47272727272728,11.938775510204081L108.90909090909089,13.163265306122451L105.34545454545456,12.55102040816326L101.78181818181817,12.959183673469388L98.21818181818183,12.857142857142856L94.65454545454546,13.775510204081643L91.09090909090911,17.448979591836732L87.52727272727273,14.081632653061217L83.96363636363637,15.102040816326523L80.4,16.836734693877553L76.83636363636364,15.918367346938778L73.27272727272727,16.12244897959183L69.70909090909092,17.34693877551021L66.14545454545454,16.73469387755102L62.58181818181818,19.69387755102041L59.018181818181816,22.04081632653061L55.454545454545446,24.183673469387756L51.89090909090908,27.244897959183668L48.32727272727273,27.95918367346939L44.76363636363636,26.93877551020408L41.199999999999996,30.102040816326525L37.636363636363626,33.16326530612245L34.072727272727285,31.326530612244895L30.509090909090922,33.46938775510204L26.945454545454556,35.510204081632644L23.38181818181819,39.08163265306121L19.818181818181824,43.163265306122454L16.25454545454546,43.36734693877551L12.690909090909095,45.20408163265307L9.12727272727273,51.12244897959184L5.563636363636365,53.87755102040816L2,56.122448979591844"></path></g></svg>