<svg about="DATA_PUBLISHED_DATE:2021-10-15,RENDER_DATE:2021-10-15" xmlns="http://www.w3.org/2000/svg" viewBox="0,0,200,100"><g transform="translate(0,0)"></g><g class="fg-bars cases-ep" fill="#00183f" stroke="none"><g><rect x="197" y="70.82777777777778" width="2" height="29.172222222222217" id="cases-ep-0"></rect></g><g><rect x="193.43636363636364" y="69.33888888888889" width="2" height="30.66111111111111" id="cases-ep-1"></rect></g><g><rect x="189.87272727272727" y="66.11666666666667" width="2" height="33.883333333333326" id="cases-ep-2"></rect></g><g><rect x="186.30909090909088" y="83.62777777777778" width="2" height="16.37222222222222" id="cases-ep-3"></rect></g><g><rect x="182.74545454545455" y="81.48333333333333" width="2" height="18.516666666666666" id="cases-ep-4"></rect></g><g><rect x="179.1818181818182" y="70.88888888888889" width="2" height="29.111111111111114" id="cases-ep-5"></rect></g><g><rect x="175.61818181818182" y="68.99444444444444" width="2" height="31.00555555555556" id="cases-ep-6"></rect></g><g><rect x="172.05454545454546" y="66.83888888888889" width="2" height="33.16111111111111" id="cases-ep-7"></rect></g><g><rect x="168.49090909090907" y="63.733333333333334" width="2" height="36.266666666666666" id="cases-ep-8"></rect></g><g><rect x="164.92727272727274" y="59.01666666666667" width="2" height="40.98333333333333" id="cases-ep-9"></rect></g><g><rect x="161.36363636363637" y="79.96666666666667" width="2" height="20.03333333333333" id="cases-ep-10"></rect></g><g><rect x="157.8" y="77.27777777777777" width="2" height="22.72222222222223" id="cases-ep-11"></rect></g><g><rect x="154.23636363636365" y="66.59444444444445" width="2" height="33.40555555555555" id="cases-ep-12"></rect></g><g><rect x="150.6727272727273" y="64.82222222222222" width="2" height="35.17777777777778" id="cases-ep-13"></rect></g><g><rect x="147.1090909090909" y="59.88888888888889" width="2" height="40.11111111111111" id="cases-ep-14"></rect></g><g><rect x="143.54545454545453" y="58.88333333333333" width="2" height="41.11666666666667" id="cases-ep-15"></rect></g><g><rect x="139.9818181818182" y="52.38333333333334" width="2" height="47.61666666666666" id="cases-ep-16"></rect></g><g><rect x="136.41818181818184" y="77.4388888888889" width="2" height="22.561111111111103" id="cases-ep-17"></rect></g><g><rect x="132.85454545454544" y="73.17777777777779" width="2" height="26.82222222222221" id="cases-ep-18"></rect></g><g><rect x="129.29090909090908" y="60.00555555555556" width="2" height="39.99444444444444" id="cases-ep-19"></rect></g><g><rect x="125.72727272727273" y="56.894444444444446" width="2" height="43.105555555555554" id="cases-ep-20"></rect></g><g><rect x="122.16363636363636" y="51.6" width="2" height="48.4" id="cases-ep-21"></rect></g><g><rect x="118.6" y="48.45" width="2" height="51.55" id="cases-ep-22"></rect></g><g><rect x="115.03636363636363" y="43.12777777777777" width="2" height="56.87222222222223" id="cases-ep-23"></rect></g><g><rect x="111.47272727272728" y="71.05555555555556" width="2" height="28.944444444444443" id="cases-ep-24"></rect></g><g><rect x="107.90909090909089" y="66.00555555555556" width="2" height="33.99444444444444" id="cases-ep-25"></rect></g><g><rect x="104.34545454545456" y="49.09444444444444" width="2" height="50.90555555555556" id="cases-ep-26"></rect></g><g><rect x="100.78181818181817" y="44.277777777777786" width="2" height="55.722222222222214" id="cases-ep-27"></rect></g><g><rect x="97.21818181818183" y="37.97222222222222" width="2" height="62.02777777777778" id="cases-ep-28"></rect></g><g><rect x="93.65454545454546" y="32.28333333333333" width="2" height="67.71666666666667" id="cases-ep-29"></rect></g><g><rect x="90.09090909090911" y="63.71666666666667" width="2" height="36.28333333333333" id="cases-ep-30"></rect></g><g><rect x="86.52727272727273" y="70.76111111111112" width="2" height="29.23888888888888" id="cases-ep-31"></rect></g><g><rect x="82.96363636363637" y="63.17222222222223" width="2" height="36.82777777777777" id="cases-ep-32"></rect></g><g><rect x="79.4" y="45.72777777777778" width="2" height="54.27222222222222" id="cases-ep-33"></rect></g><g><rect x="75.83636363636364" y="40.12222222222223" width="2" height="59.87777777777777" id="cases-ep-34"></rect></g><g><rect x="72.27272727272727" y="29.91111111111111" width="2" height="70.08888888888889" id="cases-ep-35"></rect></g><g><rect x="68.70909090909092" y="32.28888888888889" width="2" height="67.71111111111111" id="cases-ep-36"></rect></g><g><rect x="65.14545454545454" y="26.861111111111114" width="2" height="73.13888888888889" id="cases-ep-37"></rect></g><g><rect x="61.58181818181818" y="63.894444444444446" width="2" height="36.105555555555554" id="cases-ep-38"></rect></g><g><rect x="58.018181818181816" y="57.24444444444444" width="2" height="42.75555555555556" id="cases-ep-39"></rect></g><g><rect x="54.454545454545446" y="38.10555555555556" width="2" height="61.89444444444444" id="cases-ep-40"></rect></g><g><rect x="50.89090909090908" y="31.499999999999993" width="2" height="68.5" id="cases-ep-41"></rect></g><g><rect x="47.32727272727273" y="25.055555555555554" width="2" height="74.94444444444444" id="cases-ep-42"></rect></g><g><rect x="43.76363636363636" y="22.69444444444444" width="2" height="77.30555555555556" id="cases-ep-43"></rect></g><g><rect x="40.199999999999996" y="15.538888888888891" width="2" height="84.46111111111111" id="cases-ep-44"></rect></g><g><rect x="36.636363636363626" y="58.57222222222222" width="2" height="41.42777777777778" id="cases-ep-45"></rect></g><g><rect x="33.072727272727285" y="51.06666666666666" width="2" height="48.93333333333334" id="cases-ep-46"></rect></g><g><rect x="29.509090909090922" y="26.077777777777776" width="2" height="73.92222222222222" id="cases-ep-47"></rect></g><g><rect x="25.945454545454556" y="23.22777777777778" width="2" height="76.77222222222221" id="cases-ep-48"></rect></g><g><rect x="22.38181818181819" y="17.04444444444444" width="2" height="82.95555555555556" id="cases-ep-49"></rect></g><g><rect x="18.818181818181824" y="14.422222222222224" width="2" height="85.57777777777778" id="cases-ep-50"></rect></g><g><rect x="15.254545454545461" y="10.916666666666664" width="2" height="89.08333333333334" id="cases-ep-51"></rect></g><g><rect x="11.690909090909095" y="54.905555555555566" width="2" height="45.094444444444434" id="cases-ep-52"></rect></g><g><rect x="8.12727272727273" y="47.02222222222222" width="2" height="52.97777777777778" id="cases-ep-53"></rect></g><g><rect x="4.563636363636365" y="23.988888888888894" width="2" height="76.0111111111111" id="cases-ep-54"></rect></g><g><rect x="1" y="19.366666666666667" width="2" height="80.63333333333333" id="cases-ep-55"></rect></g></g><g class="fg-line cases-ep" fill="none" stroke="#92c5de" stroke-width="2" stroke-linecap="round"><path d="M198,73.03968253968253L194.43636363636364,72.46984126984127L190.87272727272727,71.66904761904762L187.30909090909088,70.6547619047619L183.74545454545455,70.13174603174603L180.1818181818182,69.53095238095239L176.61818181818182,68.91746031746031L173.05454545454546,68.32142857142858L169.49090909090907,67.32857142857142L165.92727272727274,66.63571428571429L162.36363636363637,65.68809523809524L158.8,65.32698412698412L155.23636363636365,64.74126984126984L151.6727272727273,63.800000000000004L148.1090909090909,62.66746031746031L144.54545454545453,61.483333333333334L140.9818181818182,59.99285714285713L137.41818181818184,58.67063492063491L133.85454545454544,57.75873015873017L130.29090909090908,56.73412698412699L126.72727272727273,55.17539682539683L123.16363636363636,53.37301587301587L119.6,51.426190476190484L116.03636363636363,49.11666666666667L112.47272727272728,52.05793650793651L108.90909090909089,52.01587301587301L105.34545454545456,51.61111111111112L101.78181818181817,51.130158730158726L98.21818181818183,50.536507936507945L94.65454545454546,49.38492063492064L91.09090909090911,49.38571428571428L87.52727272727273,44.12063492063493L83.96363636363637,43.13968253968253L80.4,42.292857142857144L76.83636363636364,41.203968253968256L73.27272727272727,39.97222222222222L69.70909090909092,39.27857142857143L66.14545454545454,37.907936507936505L62.58181818181818,36.290476190476184L59.018181818181816,35.530158730158725L55.454545454545446,34.64761904761905L51.89090909090908,32.929365079365084L48.32727272727273,31.747619047619047L44.76363636363636,30.603174603174608L41.199999999999996,29.421428571428578L37.636363636363626,28.761111111111116L34.072727272727285,28.237301587301587L30.509090909090922,27.65952380952381L26.945454545454556,27.361111111111114L23.38181818181819,26.809523809523817L19.818181818181824,26.462698412698405L16.25454545454546,25.943650793650797L12.690909090909095,25.81349206349206L9.12727272727273,25.435714285714283L5.563636363636365,25.37936507936508L2,26.057142857142857"></path></g></svg>