<svg about="DATA_PUBLISHED_DATE:2022-01-24,RENDER_DATE:2022-01-24" xmlns="http://www.w3.org/2000/svg" viewBox="0,0,200,100"><g transform="translate(0,0)"></g><g class="fg-bars cases-ep" fill="#00183f" stroke="none"><g><rect x="197" y="68.035" width="2" height="31.965000000000003" id="cases-ep-0"></rect></g><g><rect x="193.43636363636364" y="39.790625" width="2" height="60.209375" id="cases-ep-1"></rect></g><g><rect x="189.87272727272727" y="33.383125" width="2" height="66.616875" id="cases-ep-2"></rect></g><g><rect x="186.30909090909088" y="26.569374999999994" width="2" height="73.430625" id="cases-ep-3"></rect></g><g><rect x="182.74545454545455" y="21.034375000000004" width="2" height="78.96562499999999" id="cases-ep-4"></rect></g><g><rect x="179.1818181818182" y="17.581875000000004" width="2" height="82.418125" id="cases-ep-5"></rect></g><g><rect x="175.61818181818182" y="68.02625" width="2" height="31.973749999999995" id="cases-ep-6"></rect></g><g><rect x="172.05454545454546" y="55.13187500000001" width="2" height="44.86812499999999" id="cases-ep-7"></rect></g><g><rect x="168.49090909090907" y="19.251874999999995" width="2" height="80.748125" id="cases-ep-8"></rect></g><g><rect x="164.92727272727274" y="14.664374999999996" width="2" height="85.33562500000001" id="cases-ep-9"></rect></g><g><rect x="161.36363636363637" y="7.705625000000005" width="2" height="92.294375" id="cases-ep-10"></rect></g><g><rect x="157.8" y="7.0749999999999975" width="2" height="92.925" id="cases-ep-11"></rect></g><g><rect x="154.23636363636365" y="17.979374999999997" width="2" height="82.020625" id="cases-ep-12"></rect></g><g><rect x="150.6727272727273" y="67.58937499999999" width="2" height="32.41062500000001" id="cases-ep-13"></rect></g><g><rect x="147.1090909090909" y="81.73125" width="2" height="18.268749999999997" id="cases-ep-14"></rect></g><g><rect x="143.54545454545453" y="68.428125" width="2" height="31.571875000000006" id="cases-ep-15"></rect></g><g><rect x="139.9818181818182" y="48.579375" width="2" height="51.420625" id="cases-ep-16"></rect></g><g><rect x="136.41818181818184" y="46.514374999999994" width="2" height="53.485625000000006" id="cases-ep-17"></rect></g><g><rect x="132.85454545454544" y="46.946875" width="2" height="53.053125" id="cases-ep-18"></rect></g><g><rect x="129.29090909090908" y="55.03875" width="2" height="44.96125" id="cases-ep-19"></rect></g><g><rect x="125.72727272727273" y="78.895625" width="2" height="21.104375000000005" id="cases-ep-20"></rect></g><g><rect x="122.16363636363636" y="91.58937499999999" width="2" height="8.41062500000001" id="cases-ep-21"></rect></g><g><rect x="118.6" y="86.94999999999999" width="2" height="13.050000000000011" id="cases-ep-22"></rect></g><g><rect x="115.03636363636363" y="80.48124999999999" width="2" height="19.51875000000001" id="cases-ep-23"></rect></g><g><rect x="111.47272727272728" y="80.798125" width="2" height="19.201875" id="cases-ep-24"></rect></g><g><rect x="107.90909090909089" y="83.44500000000001" width="2" height="16.554999999999993" id="cases-ep-25"></rect></g><g><rect x="104.34545454545456" y="85.926875" width="2" height="14.073125000000005" id="cases-ep-26"></rect></g><g><rect x="100.78181818181817" y="93.55437500000001" width="2" height="6.445624999999993" id="cases-ep-27"></rect></g><g><rect x="97.21818181818183" y="94.04" width="2" height="5.959999999999994" id="cases-ep-28"></rect></g><g><rect x="93.65454545454546" y="93.1525" width="2" height="6.847499999999997" id="cases-ep-29"></rect></g><g><rect x="90.09090909090911" y="93.694375" width="2" height="6.305625000000006" id="cases-ep-30"></rect></g><g><rect x="86.52727272727273" y="93.764375" width="2" height="6.235624999999999" id="cases-ep-31"></rect></g><g><rect x="82.96363636363637" y="94.824375" width="2" height="5.175624999999997" id="cases-ep-32"></rect></g><g><rect x="79.4" y="94.49437499999999" width="2" height="5.505625000000009" id="cases-ep-33"></rect></g><g><rect x="75.83636363636364" y="97.28125" width="2" height="2.71875" id="cases-ep-34"></rect></g><g><rect x="72.27272727272727" y="97.368125" width="2" height="2.6318749999999937" id="cases-ep-35"></rect></g><g><rect x="68.70909090909092" y="96.404375" width="2" height="3.5956249999999983" id="cases-ep-36"></rect></g><g><rect x="65.14545454545454" y="96.416875" width="2" height="3.5831249999999955" id="cases-ep-37"></rect></g><g><rect x="61.58181818181818" y="95.96249999999999" width="2" height="4.0375000000000085" id="cases-ep-38"></rect></g><g><rect x="58.018181818181816" y="95.92625" width="2" height="4.073750000000004" id="cases-ep-39"></rect></g><g><rect x="54.454545454545446" y="95.373125" width="2" height="4.626874999999998" id="cases-ep-40"></rect></g><g><rect x="50.89090909090908" y="97.589375" width="2" height="2.410624999999996" id="cases-ep-41"></rect></g><g><rect x="47.32727272727273" y="97.405" width="2" height="2.594999999999999" id="cases-ep-42"></rect></g><g><rect x="43.76363636363636" y="96.16125" width="2" height="3.8387500000000045" id="cases-ep-43"></rect></g><g><rect x="40.199999999999996" y="96.05125" width="2" height="3.948750000000004" id="cases-ep-44"></rect></g><g><rect x="36.636363636363626" y="95.320625" width="2" height="4.679374999999993" id="cases-ep-45"></rect></g><g><rect x="33.072727272727285" y="95.575" width="2" height="4.424999999999997" id="cases-ep-46"></rect></g><g><rect x="29.509090909090922" y="94.828125" width="2" height="5.171875" id="cases-ep-47"></rect></g><g><rect x="25.945454545454556" y="97.246875" width="2" height="2.753124999999997" id="cases-ep-48"></rect></g><g><rect x="22.38181818181819" y="97.361875" width="2" height="2.6381250000000023" id="cases-ep-49"></rect></g><g><rect x="18.818181818181824" y="97.283125" width="2" height="2.7168750000000017" id="cases-ep-50"></rect></g><g><rect x="15.254545454545461" y="98.57124999999999" width="2" height="1.428750000000008" id="cases-ep-51"></rect></g><g><rect x="11.690909090909095" y="97.0925" width="2" height="2.907499999999999" id="cases-ep-52"></rect></g><g><rect x="8.12727272727273" y="96.975" width="2" height="3.0250000000000057" id="cases-ep-53"></rect></g><g><rect x="4.563636363636365" y="96.74312499999999" width="2" height="3.256875000000008" id="cases-ep-54"></rect></g><g><rect x="1" y="98.158125" width="2" height="1.8418750000000017" id="cases-ep-55"></rect></g></g><g class="fg-line cases-ep" fill="none" stroke="#92c5de" stroke-width="2" stroke-linecap="round"><path d="M198,39.20294642857143L194.43636363636364,37.35964285714285L190.87272727272727,34.425535714285715L187.30909090909088,31.751428571428562L183.74545454545455,29.05660714285715L180.1818181818182,27.06241071428571L176.61818181818182,27.119196428571435L173.05454545454546,27.056785714285713L169.49090909090907,30.85669642857143L165.92727272727274,37.881875L162.36363636363637,42.726875L158.8,48.27098214285714L155.23636363636365,53.96696428571428L151.6727272727273,59.26116071428571L148.1090909090909,60.87633928571429L144.54545454545453,62.284642857142856L140.9818181818182,64.93062499999999L137.41818181818184,69.48803571428573L133.85454545454544,74.38571428571427L130.29090909090908,79.59973214285714L126.72727272727273,84.01232142857143L123.16363636363636,86.10642857142857L119.6,86.45651785714286L116.03636363636363,87.34258928571428L112.47272727272728,89.23017857142858L108.90909090909089,91.0825L105.34545454545456,92.708125L101.78181818181817,93.93205357142858L98.21818181818183,94.46446428571429L94.65454545454546,94.93991071428572L91.09090909090911,95.40446428571428L87.52727272727273,95.79339285714286L83.96363636363637,96.1074107142857L80.4,96.26482142857142L76.83636363636364,96.39035714285714L73.27272727272727,96.434375L69.70909090909092,96.43964285714286L66.14545454545454,96.40491071428572L62.58181818181818,96.35267857142857L59.018181818181816,96.26098214285715L55.454545454545446,96.21080357142857L51.89090909090908,96.13294642857143L48.32727272727273,96.08401785714285L44.76363636363636,96.07785714285714L41.199999999999996,96.238125L37.636363636363626,96.598125L34.072727272727285,96.85125L30.509090909090922,97.05125L26.945454545454556,97.32482142857143L23.38181818181819,97.455L19.818181818181824,97.540625L16.25454545454546,97.51991071428571L12.690909090909095,97.30767857142857L9.12727272727273,97.264375L5.563636363636365,97.21428571428572L2,97.11116071428572"></path></g></svg>