<svg meta="{&quot;DATA_PUBLISHED_DATE&quot;:&quot;2023-03-30&quot;,&quot;RENDER_DATE&quot;:&quot;2023-03-30&quot;,&quot;FIRST_DATE&quot;:&quot;2023-01-25&quot;,&quot;LAST_DATE&quot;:&quot;2023-03-21&quot;}" xmlns="http://www.w3.org/2000/svg" viewBox="0,0,200,100"><g transform="translate(0,0)"></g><g class="fg-bars cases-ep" fill="#00183f" stroke="none"><g><rect x="197" y="62.8" width="2" height="37.2" id="cases-ep-0"></rect></g><g><rect x="193.43636363636364" y="56.13333333333333" width="2" height="43.86666666666667" id="cases-ep-1"></rect></g><g><rect x="189.87272727272727" y="76.42222222222223" width="2" height="23.57777777777777" id="cases-ep-2"></rect></g><g><rect x="186.30909090909088" y="72.82222222222222" width="2" height="27.177777777777777" id="cases-ep-3"></rect></g><g><rect x="182.74545454545455" y="60.4" width="2" height="39.6" id="cases-ep-4"></rect></g><g><rect x="179.1818181818182" y="56.37777777777777" width="2" height="43.62222222222223" id="cases-ep-5"></rect></g><g><rect x="175.61818181818182" y="55.62222222222222" width="2" height="44.37777777777778" id="cases-ep-6"></rect></g><g><rect x="172.05454545454546" y="52.86666666666666" width="2" height="47.13333333333334" id="cases-ep-7"></rect></g><g><rect x="168.49090909090907" y="38" width="2" height="62" id="cases-ep-8"></rect></g><g><rect x="164.92727272727274" y="68.86666666666666" width="2" height="31.13333333333334" id="cases-ep-9"></rect></g><g><rect x="161.36363636363637" y="66.06666666666668" width="2" height="33.93333333333332" id="cases-ep-10"></rect></g><g><rect x="157.8" y="51.84444444444445" width="2" height="48.15555555555555" id="cases-ep-11"></rect></g><g><rect x="154.23636363636365" y="45.82222222222222" width="2" height="54.17777777777778" id="cases-ep-12"></rect></g><g><rect x="150.6727272727273" y="44.68888888888889" width="2" height="55.31111111111111" id="cases-ep-13"></rect></g><g><rect x="147.1090909090909" y="43.13333333333333" width="2" height="56.86666666666667" id="cases-ep-14"></rect></g><g><rect x="143.54545454545453" y="33.13333333333334" width="2" height="66.86666666666666" id="cases-ep-15"></rect></g><g><rect x="139.9818181818182" y="65.93333333333334" width="2" height="34.06666666666666" id="cases-ep-16"></rect></g><g><rect x="136.41818181818184" y="62.33333333333333" width="2" height="37.66666666666667" id="cases-ep-17"></rect></g><g><rect x="132.85454545454544" y="45.599999999999994" width="2" height="54.400000000000006" id="cases-ep-18"></rect></g><g><rect x="129.29090909090908" y="40.800000000000004" width="2" height="59.199999999999996" id="cases-ep-19"></rect></g><g><rect x="125.72727272727273" y="37.82222222222222" width="2" height="62.17777777777778" id="cases-ep-20"></rect></g><g><rect x="122.16363636363636" y="31.24444444444444" width="2" height="68.75555555555556" id="cases-ep-21"></rect></g><g><rect x="118.6" y="26.911111111111108" width="2" height="73.08888888888889" id="cases-ep-22"></rect></g><g><rect x="115.03636363636363" y="59.42222222222222" width="2" height="40.57777777777778" id="cases-ep-23"></rect></g><g><rect x="111.47272727272728" y="60.133333333333326" width="2" height="39.866666666666674" id="cases-ep-24"></rect></g><g><rect x="107.90909090909089" y="40.77777777777778" width="2" height="59.22222222222222" id="cases-ep-25"></rect></g><g><rect x="104.34545454545456" y="31.75555555555556" width="2" height="68.24444444444444" id="cases-ep-26"></rect></g><g><rect x="100.78181818181817" y="26.84444444444445" width="2" height="73.15555555555555" id="cases-ep-27"></rect></g><g><rect x="97.21818181818183" y="12.111111111111105" width="2" height="87.8888888888889" id="cases-ep-28"></rect></g><g><rect x="93.65454545454546" y="32.733333333333334" width="2" height="67.26666666666667" id="cases-ep-29"></rect></g><g><rect x="90.09090909090911" y="54.51111111111111" width="2" height="45.48888888888889" id="cases-ep-30"></rect></g><g><rect x="86.52727272727273" y="54.77777777777777" width="2" height="45.22222222222223" id="cases-ep-31"></rect></g><g><rect x="82.96363636363637" y="35.422222222222224" width="2" height="64.57777777777778" id="cases-ep-32"></rect></g><g><rect x="79.4" y="31.08888888888889" width="2" height="68.91111111111111" id="cases-ep-33"></rect></g><g><rect x="75.83636363636364" y="27.333333333333332" width="2" height="72.66666666666667" id="cases-ep-34"></rect></g><g><rect x="72.27272727272727" y="25.86666666666667" width="2" height="74.13333333333333" id="cases-ep-35"></rect></g><g><rect x="68.70909090909092" y="15.333333333333332" width="2" height="84.66666666666667" id="cases-ep-36"></rect></g><g><rect x="65.14545454545454" y="54.57777777777777" width="2" height="45.42222222222223" id="cases-ep-37"></rect></g><g><rect x="61.58181818181818" y="51.733333333333334" width="2" height="48.266666666666666" id="cases-ep-38"></rect></g><g><rect x="58.018181818181816" y="31.133333333333336" width="2" height="68.86666666666666" id="cases-ep-39"></rect></g><g><rect x="54.454545454545446" y="29.200000000000003" width="2" height="70.8" id="cases-ep-40"></rect></g><g><rect x="50.89090909090908" y="22.888888888888893" width="2" height="77.11111111111111" id="cases-ep-41"></rect></g><g><rect x="47.32727272727273" y="21.53333333333334" width="2" height="78.46666666666667" id="cases-ep-42"></rect></g><g><rect x="43.76363636363636" y="6.822222222222218" width="2" height="93.17777777777778" id="cases-ep-43"></rect></g><g><rect x="40.199999999999996" y="52.13333333333333" width="2" height="47.86666666666667" id="cases-ep-44"></rect></g><g><rect x="36.636363636363626" y="52" width="2" height="48" id="cases-ep-45"></rect></g><g><rect x="33.072727272727285" y="34.17777777777778" width="2" height="65.82222222222222" id="cases-ep-46"></rect></g><g><rect x="29.509090909090922" y="30.355555555555558" width="2" height="69.64444444444445" id="cases-ep-47"></rect></g><g><rect x="25.945454545454556" y="26" width="2" height="74" id="cases-ep-48"></rect></g><g><rect x="22.38181818181819" y="23.799999999999997" width="2" height="76.2" id="cases-ep-49"></rect></g><g><rect x="18.818181818181824" y="18.288888888888888" width="2" height="81.71111111111111" id="cases-ep-50"></rect></g><g><rect x="15.254545454545461" y="57.666666666666664" width="2" height="42.333333333333336" id="cases-ep-51"></rect></g><g><rect x="11.690909090909095" y="56.00000000000001" width="2" height="43.99999999999999" id="cases-ep-52"></rect></g><g><rect x="8.12727272727273" y="36.644444444444446" width="2" height="63.355555555555554" id="cases-ep-53"></rect></g><g><rect x="4.563636363636365" y="38.22222222222222" width="2" height="61.77777777777778" id="cases-ep-54"></rect></g><g><rect x="1" y="31.97777777777778" width="2" height="68.02222222222221" id="cases-ep-55"></rect></g></g><g class="fg-line cases-ep" fill="none" stroke="#92c5de" stroke-width="2" stroke-linecap="round"><path d="M198,62.939682539682536L194.43636363636364,61.52063492063492L190.87272727272727,58.93015873015873L187.30909090909088,57.85079365079364L183.74545454545455,56.885714285714286L180.1818181818182,55.66349206349206L176.61818181818182,54.15555555555556L173.05454545454546,52.593650793650795L169.49090909090907,51.2031746031746L165.92727272727274,50.5079365079365L162.36363636363637,50.088888888888896L158.8,49.55555555555555L155.23636363636365,48.663492063492065L151.6727272727273,47.94603174603175L148.1090909090909,46.96507936507936L144.54545454545453,45.266666666666666L140.9818181818182,44.37777777777778L137.41818181818184,43.44761904761906L133.85454545454544,43.13333333333333L130.29090909090908,42.44444444444444L126.72727272727273,41.15238095238095L123.16363636363636,39.584126984126975L119.6,36.85079365079365L116.03636363636363,37.682539682539684L112.47272727272728,36.98095238095238L108.90909090909089,36.215873015873015L105.34545454545456,35.45079365079364L101.78181818181817,35.355555555555554L98.21818181818183,35.425396825396824L94.65454545454546,37.390476190476186L91.09090909090911,34.904761904761905L87.52727272727273,34.91428571428572L83.96363636363637,34.479365079365074L80.4,33.86666666666667L76.83636363636364,33.596825396825395L73.27272727272727,32.96190476190476L69.70909090909092,32.34285714285715L66.14545454545454,31.126984126984127L62.58181818181818,30.777777777777782L59.018181818181816,30.81587301587302L55.454545454545446,31.25079365079365L51.89090909090908,31.415873015873018L48.32727272727273,31.860317460317468L44.76363636363636,32.18412698412698L41.199999999999996,33.82222222222222L37.636363636363626,34.61269841269841L34.072727272727285,35.18412698412698L30.509090909090922,35.536507936507945L26.945454545454556,36.66031746031746L23.38181818181819,37.51428571428572L19.818181818181824,38.27936507936508L16.25454545454546,39.72063492063492L12.690909090909095,40.26984126984128L9.12727272727273,40.97142857142857L5.563636363636365,41.97777777777778L2,42.095238095238095"></path></g></svg>