<svg meta="{&quot;DATA_PUBLISHED_DATE&quot;:&quot;2022-03-30&quot;,&quot;RENDER_DATE&quot;:&quot;2022-03-30&quot;,&quot;FIRST_DATE&quot;:&quot;2022-01-25&quot;,&quot;LAST_DATE&quot;:&quot;2022-03-21&quot;}" xmlns="http://www.w3.org/2000/svg" viewBox="0,0,200,100"><g transform="translate(0,0)"></g><g class="fg-bars cases-ep" fill="#00183f" stroke="none"><g><rect x="197" y="95.845" width="2" height="4.155000000000001" id="cases-ep-0"></rect></g><g><rect x="193.43636363636364" y="98.15" width="2" height="1.8499999999999943" id="cases-ep-1"></rect></g><g><rect x="189.87272727272727" y="98.07666666666667" width="2" height="1.923333333333332" id="cases-ep-2"></rect></g><g><rect x="186.30909090909088" y="96.82666666666665" width="2" height="3.173333333333346" id="cases-ep-3"></rect></g><g><rect x="182.74545454545455" y="96.33666666666667" width="2" height="3.663333333333327" id="cases-ep-4"></rect></g><g><rect x="179.1818181818182" y="96.07166666666667" width="2" height="3.9283333333333275" id="cases-ep-5"></rect></g><g><rect x="175.61818181818182" y="95.84333333333333" width="2" height="4.156666666666666" id="cases-ep-6"></rect></g><g><rect x="172.05454545454546" y="95.33500000000001" width="2" height="4.664999999999992" id="cases-ep-7"></rect></g><g><rect x="168.49090909090907" y="97.96666666666667" width="2" height="2.0333333333333314" id="cases-ep-8"></rect></g><g><rect x="164.92727272727274" y="97.565" width="2" height="2.4350000000000023" id="cases-ep-9"></rect></g><g><rect x="161.36363636363637" y="96.23166666666667" width="2" height="3.768333333333331" id="cases-ep-10"></rect></g><g><rect x="157.8" y="95.80833333333332" width="2" height="4.191666666666677" id="cases-ep-11"></rect></g><g><rect x="154.23636363636365" y="95.06" width="2" height="4.939999999999998" id="cases-ep-12"></rect></g><g><rect x="150.6727272727273" y="94.58666666666666" width="2" height="5.413333333333341" id="cases-ep-13"></rect></g><g><rect x="147.1090909090909" y="93.70166666666665" width="2" height="6.298333333333346" id="cases-ep-14"></rect></g><g><rect x="143.54545454545453" y="97.06333333333333" width="2" height="2.9366666666666674" id="cases-ep-15"></rect></g><g><rect x="139.9818181818182" y="96.595" width="2" height="3.405000000000001" id="cases-ep-16"></rect></g><g><rect x="136.41818181818184" y="94.81333333333333" width="2" height="5.186666666666667" id="cases-ep-17"></rect></g><g><rect x="132.85454545454544" y="94.095" width="2" height="5.905000000000001" id="cases-ep-18"></rect></g><g><rect x="129.29090909090908" y="93.45333333333333" width="2" height="6.546666666666667" id="cases-ep-19"></rect></g><g><rect x="125.72727272727273" y="92.27333333333333" width="2" height="7.726666666666674" id="cases-ep-20"></rect></g><g><rect x="122.16363636363636" y="91.32000000000001" width="2" height="8.679999999999993" id="cases-ep-21"></rect></g><g><rect x="118.6" y="96.085" width="2" height="3.9150000000000063" id="cases-ep-22"></rect></g><g><rect x="115.03636363636363" y="95.54166666666667" width="2" height="4.458333333333329" id="cases-ep-23"></rect></g><g><rect x="111.47272727272728" y="92.08833333333332" width="2" height="7.911666666666676" id="cases-ep-24"></rect></g><g><rect x="107.90909090909089" y="91.45833333333333" width="2" height="8.541666666666671" id="cases-ep-25"></rect></g><g><rect x="104.34545454545456" y="90.71833333333333" width="2" height="9.281666666666666" id="cases-ep-26"></rect></g><g><rect x="100.78181818181817" y="88.15666666666667" width="2" height="11.843333333333334" id="cases-ep-27"></rect></g><g><rect x="97.21818181818183" y="91.115" width="2" height="8.885000000000005" id="cases-ep-28"></rect></g><g><rect x="93.65454545454546" y="94.02666666666667" width="2" height="5.973333333333329" id="cases-ep-29"></rect></g><g><rect x="90.09090909090911" y="93.04666666666667" width="2" height="6.953333333333333" id="cases-ep-30"></rect></g><g><rect x="86.52727272727273" y="88.28666666666666" width="2" height="11.713333333333338" id="cases-ep-31"></rect></g><g><rect x="82.96363636363637" y="86.49333333333334" width="2" height="13.50666666666666" id="cases-ep-32"></rect></g><g><rect x="79.4" y="84.42666666666668" width="2" height="15.573333333333323" id="cases-ep-33"></rect></g><g><rect x="75.83636363636364" y="81.91333333333333" width="2" height="18.086666666666673" id="cases-ep-34"></rect></g><g><rect x="72.27272727272727" y="78.66166666666666" width="2" height="21.33833333333334" id="cases-ep-35"></rect></g><g><rect x="68.70909090909092" y="90.75166666666667" width="2" height="9.248333333333335" id="cases-ep-36"></rect></g><g><rect x="65.14545454545454" y="88.11833333333333" width="2" height="11.881666666666675" id="cases-ep-37"></rect></g><g><rect x="61.58181818181818" y="77.13666666666667" width="2" height="22.86333333333333" id="cases-ep-38"></rect></g><g><rect x="58.018181818181816" y="76.53166666666667" width="2" height="23.468333333333334" id="cases-ep-39"></rect></g><g><rect x="54.454545454545446" y="73.2" width="2" height="26.799999999999997" id="cases-ep-40"></rect></g><g><rect x="50.89090909090908" y="70.33" width="2" height="29.67" id="cases-ep-41"></rect></g><g><rect x="47.32727272727273" y="62.94333333333333" width="2" height="37.05666666666667" id="cases-ep-42"></rect></g><g><rect x="43.76363636363636" y="83.705" width="2" height="16.295" id="cases-ep-43"></rect></g><g><rect x="40.199999999999996" y="80.63166666666667" width="2" height="19.368333333333325" id="cases-ep-44"></rect></g><g><rect x="36.636363636363626" y="63.88166666666666" width="2" height="36.11833333333334" id="cases-ep-45"></rect></g><g><rect x="33.072727272727285" y="60.41000000000001" width="2" height="39.58999999999999" id="cases-ep-46"></rect></g><g><rect x="29.509090909090922" y="54.94833333333333" width="2" height="45.05166666666667" id="cases-ep-47"></rect></g><g><rect x="25.945454545454556" y="45.98166666666666" width="2" height="54.01833333333334" id="cases-ep-48"></rect></g><g><rect x="22.38181818181819" y="36.321666666666665" width="2" height="63.678333333333335" id="cases-ep-49"></rect></g><g><rect x="18.818181818181824" y="74.4" width="2" height="25.599999999999994" id="cases-ep-50"></rect></g><g><rect x="15.254545454545461" y="65.36666666666666" width="2" height="34.63333333333334" id="cases-ep-51"></rect></g><g><rect x="11.690909090909095" y="35.73666666666667" width="2" height="64.26333333333332" id="cases-ep-52"></rect></g><g><rect x="8.12727272727273" y="26.895000000000003" width="2" height="73.10499999999999" id="cases-ep-53"></rect></g><g><rect x="4.563636363636365" y="14.12" width="2" height="85.88" id="cases-ep-54"></rect></g><g><rect x="1" y="0.5666666666666709" width="2" height="99.43333333333332" id="cases-ep-55"></rect></g></g><g class="fg-line cases-ep" fill="none" stroke="#92c5de" stroke-width="2" stroke-linecap="round"><path d="M198,96.73571428571428L194.43636363636364,96.66285714285713L190.87272727272727,96.63666666666667L187.30909090909088,96.56357142857142L183.74545454545455,96.47857142857143L180.1818181818182,96.40309523809523L176.61818181818182,96.25857142857143L173.05454545454546,96.07904761904761L169.49090909090907,95.8457142857143L165.92727272727274,95.71666666666667L162.36363636363637,95.57809523809524L158.8,95.37547619047619L155.23636363636365,95.13071428571429L151.6727272727273,94.90119047619048L148.1090909090909,94.57071428571429L144.54545454545453,94.23047619047618L140.9818181818182,94.09071428571428L137.41818181818184,93.94023809523809L133.85454545454544,93.55095238095238L130.29090909090908,93.17428571428572L126.72727272727273,92.78357142857143L123.16363636363636,92.19547619047619L119.6,92.16619047619048L116.03636363636363,91.87214285714286L112.47272727272728,91.5157142857143L108.90909090909089,90.97261904761905L105.34545454545456,90.26333333333334L101.78181818181817,89.36452380952382L98.21818181818183,88.47261904761905L94.65454545454546,86.69357142857143L91.09090909090911,86.22571428571429L87.52727272727273,85.52166666666666L83.96363636363637,83.92880952380952L80.4,82.50571428571428L76.83636363636364,80.90190476190476L73.27272727272727,79.24714285714286L69.70909090909092,77.00166666666667L66.14545454545454,75.995L62.58181818181818,74.92547619047619L59.018181818181816,73.03190476190476L55.454545454545446,70.72880952380952L51.89090909090908,68.12142857142857L48.32727272727273,64.64309523809524L44.76363636363636,60.84L41.199999999999996,59.510714285714286L37.636363636363626,57.32999999999999L34.072727272727285,53.309285714285714L30.509090909090922,48.52142857142857L26.945454545454556,42.68880952380953L23.38181818181819,36.20095238095238L19.818181818181824,28.63738095238095L16.25454545454546,25.59380952380953L12.690909090909095,21.112857142857134L9.12727272727273,12.032857142857134L5.563636363636365,1.2433333333333296L2,-10.385476190476183"></path></g></svg>