<svg meta="{&quot;DATA_PUBLISHED_DATE&quot;:&quot;2022-09-15&quot;,&quot;RENDER_DATE&quot;:&quot;2022-09-15&quot;,&quot;FIRST_DATE&quot;:&quot;2022-06-28&quot;,&quot;LAST_DATE&quot;:&quot;2022-08-22&quot;}" xmlns="http://www.w3.org/2000/svg" viewBox="0,0,200,100"><g transform="translate(0,0)"></g><g class="fg-bars death-date" fill="#00183f" stroke="none"><g><rect x="197" y="58.57142857142856" width="2" height="41.42857142857144" id="death-date-0"></rect></g><g><rect x="193.43636363636364" y="62.857142857142854" width="2" height="37.142857142857146" id="death-date-1"></rect></g><g><rect x="189.87272727272727" y="58.57142857142856" width="2" height="41.42857142857144" id="death-date-2"></rect></g><g><rect x="186.30909090909088" y="58.57142857142856" width="2" height="41.42857142857144" id="death-date-3"></rect></g><g><rect x="182.74545454545455" y="57.14285714285714" width="2" height="42.85714285714286" id="death-date-4"></rect></g><g><rect x="179.1818181818182" y="55.714285714285715" width="2" height="44.285714285714285" id="death-date-5"></rect></g><g><rect x="175.61818181818182" y="45.714285714285715" width="2" height="54.285714285714285" id="death-date-6"></rect></g><g><rect x="172.05454545454546" y="60" width="2" height="40" id="death-date-7"></rect></g><g><rect x="168.49090909090907" y="47.14285714285714" width="2" height="52.85714285714286" id="death-date-8"></rect></g><g><rect x="164.92727272727274" y="64.28571428571428" width="2" height="35.71428571428572" id="death-date-9"></rect></g><g><rect x="161.36363636363637" y="35.71428571428571" width="2" height="64.28571428571429" id="death-date-10"></rect></g><g><rect x="157.8" y="51.42857142857142" width="2" height="48.57142857142858" id="death-date-11"></rect></g><g><rect x="154.23636363636365" y="45.714285714285715" width="2" height="54.285714285714285" id="death-date-12"></rect></g><g><rect x="150.6727272727273" y="37.142857142857146" width="2" height="62.857142857142854" id="death-date-13"></rect></g><g><rect x="147.1090909090909" y="44.285714285714285" width="2" height="55.714285714285715" id="death-date-14"></rect></g><g><rect x="143.54545454545453" y="54.28571428571429" width="2" height="45.71428571428571" id="death-date-15"></rect></g><g><rect x="139.9818181818182" y="50" width="2" height="50" id="death-date-16"></rect></g><g><rect x="136.41818181818184" y="15.714285714285714" width="2" height="84.28571428571429" id="death-date-17"></rect></g><g><rect x="132.85454545454544" y="41.42857142857142" width="2" height="58.57142857142858" id="death-date-18"></rect></g><g><rect x="129.29090909090908" y="35.71428571428571" width="2" height="64.28571428571429" id="death-date-19"></rect></g><g><rect x="125.72727272727273" y="44.285714285714285" width="2" height="55.714285714285715" id="death-date-20"></rect></g><g><rect x="122.16363636363636" y="35.71428571428571" width="2" height="64.28571428571429" id="death-date-21"></rect></g><g><rect x="118.6" y="35.71428571428571" width="2" height="64.28571428571429" id="death-date-22"></rect></g><g><rect x="115.03636363636363" y="27.142857142857146" width="2" height="72.85714285714286" id="death-date-23"></rect></g><g><rect x="111.47272727272728" y="44.285714285714285" width="2" height="55.714285714285715" id="death-date-24"></rect></g><g><rect x="107.90909090909089" y="27.142857142857146" width="2" height="72.85714285714286" id="death-date-25"></rect></g><g><rect x="104.34545454545456" y="25.71428571428571" width="2" height="74.28571428571429" id="death-date-26"></rect></g><g><rect x="100.78181818181817" y="34.285714285714285" width="2" height="65.71428571428572" id="death-date-27"></rect></g><g><rect x="97.21818181818183" y="4.285714285714281" width="2" height="95.71428571428572" id="death-date-28"></rect></g><g><rect x="93.65454545454546" y="40" width="2" height="60" id="death-date-29"></rect></g><g><rect x="90.09090909090911" y="50" width="2" height="50" id="death-date-30"></rect></g><g><rect x="86.52727272727273" y="34.285714285714285" width="2" height="65.71428571428572" id="death-date-31"></rect></g><g><rect x="82.96363636363637" y="48.57142857142858" width="2" height="51.42857142857142" id="death-date-32"></rect></g><g><rect x="79.4" y="11.428571428571432" width="2" height="88.57142857142857" id="death-date-33"></rect></g><g><rect x="75.83636363636364" y="32.85714285714286" width="2" height="67.14285714285714" id="death-date-34"></rect></g><g><rect x="72.27272727272727" y="41.42857142857142" width="2" height="58.57142857142858" id="death-date-35"></rect></g><g><rect x="68.70909090909092" y="31.428571428571427" width="2" height="68.57142857142857" id="death-date-36"></rect></g><g><rect x="65.14545454545454" y="50" width="2" height="50" id="death-date-37"></rect></g><g><rect x="61.58181818181818" y="44.285714285714285" width="2" height="55.714285714285715" id="death-date-38"></rect></g><g><rect x="58.018181818181816" y="47.14285714285714" width="2" height="52.85714285714286" id="death-date-39"></rect></g><g><rect x="54.454545454545446" y="54.28571428571429" width="2" height="45.71428571428571" id="death-date-40"></rect></g><g><rect x="50.89090909090908" y="34.285714285714285" width="2" height="65.71428571428572" id="death-date-41"></rect></g><g><rect x="47.32727272727273" y="47.14285714285714" width="2" height="52.85714285714286" id="death-date-42"></rect></g><g><rect x="43.76363636363636" y="48.57142857142858" width="2" height="51.42857142857142" id="death-date-43"></rect></g><g><rect x="40.199999999999996" y="37.142857142857146" width="2" height="62.857142857142854" id="death-date-44"></rect></g><g><rect x="36.636363636363626" y="25.71428571428571" width="2" height="74.28571428571429" id="death-date-45"></rect></g><g><rect x="33.072727272727285" y="57.14285714285714" width="2" height="42.85714285714286" id="death-date-46"></rect></g><g><rect x="29.509090909090922" y="41.42857142857142" width="2" height="58.57142857142858" id="death-date-47"></rect></g><g><rect x="25.945454545454556" y="55.714285714285715" width="2" height="44.285714285714285" id="death-date-48"></rect></g><g><rect x="22.38181818181819" y="38.57142857142857" width="2" height="61.42857142857143" id="death-date-49"></rect></g><g><rect x="18.818181818181824" y="40" width="2" height="60" id="death-date-50"></rect></g><g><rect x="15.254545454545461" y="34.285714285714285" width="2" height="65.71428571428572" id="death-date-51"></rect></g><g><rect x="11.690909090909095" y="51.42857142857142" width="2" height="48.57142857142858" id="death-date-52"></rect></g><g><rect x="8.12727272727273" y="50" width="2" height="50" id="death-date-53"></rect></g><g><rect x="4.563636363636365" y="57.14285714285714" width="2" height="42.85714285714286" id="death-date-54"></rect></g><g><rect x="1" y="58.57142857142856" width="2" height="41.42857142857144" id="death-date-55"></rect></g></g><g class="fg-line death-date" fill="none" stroke="#92c5de" stroke-width="2" stroke-linecap="round"><path d="M198,56.734693877551024L194.43636363636364,56.938775510204074L190.87272727272727,54.69387755102041L187.30909090909088,55.51020408163265L183.74545454545455,52.244897959183675L180.1818181818182,51.42857142857142L176.61818181818182,50L173.05454545454546,48.77551020408164L169.49090909090907,46.53061224489795L165.92727272727274,47.55102040816327L162.36363636363637,45.510204081632644L158.8,42.6530612244898L155.23636363636365,41.22448979591836L151.6727272727273,39.795918367346935L148.1090909090909,40.816326530612244L144.54545454545453,39.59183673469388L140.9818181818182,36.93877551020408L137.41818181818184,33.6734693877551L133.85454545454544,37.755102040816325L130.29090909090908,35.71428571428571L126.72727272727273,34.285714285714285L123.16363636363636,32.85714285714286L119.6,28.367346938775505L116.03636363636363,28.9795918367347L112.47272727272728,32.244897959183675L108.90909090909089,30.816326530612237L105.34545454545456,33.87755102040817L101.78181818181817,31.836734693877546L98.21818181818183,31.63265306122449L94.65454545454546,36.93877551020408L91.09090909090911,35.71428571428571L87.52727272727273,35.71428571428571L83.96363636363637,37.142857142857146L80.4,36.93877551020408L76.83636363636364,43.061224489795926L73.27272727272727,43.265306122448976L69.70909090909092,44.08163265306122L66.14545454545454,46.53061224489795L62.58181818181818,44.693877551020414L59.018181818181816,42.04081632653062L55.454545454545446,43.46938775510204L51.89090909090908,41.63265306122449L48.32727272727273,44.693877551020414L44.76363636363636,43.46938775510204L41.199999999999996,42.24489795918367L37.636363636363626,41.83673469387755L34.072727272727285,45.510204081632644L30.509090909090922,44.48979591836735L26.945454545454556,46.734693877551024L23.38181818181819,47.14285714285714L19.818181818181824,50.40816326530613L16.25454545454546,53.46938775510204L12.690909090909095,58.36734693877551L9.12727272727273,58.77551020408163L5.563636363636365,58.97959183673469L2,57.75510204081633"></path></g></svg>