<svg about="DATA_PUBLISHED_DATE:2021-11-20,RENDER_DATE:2021-11-20" xmlns="http://www.w3.org/2000/svg" viewBox="0,0,200,100"><g transform="translate(0,0)"></g><g class="fg-bars tests-vaccines" fill="#00183f" stroke="none"><g><rect x="197" y="4.6684615384615435" width="2" height="95.33153846153846" id="tests-vaccines-0"></rect></g><g><rect x="193.43636363636364" y="19.943846153846156" width="2" height="80.05615384615385" id="tests-vaccines-1"></rect></g><g><rect x="189.87272727272727" y="16.70076923076923" width="2" height="83.29923076923077" id="tests-vaccines-2"></rect></g><g><rect x="186.30909090909088" y="19.021923076923073" width="2" height="80.97807692307693" id="tests-vaccines-3"></rect></g><g><rect x="182.74545454545455" y="25.153461538461542" width="2" height="74.84653846153846" id="tests-vaccines-4"></rect></g><g><rect x="179.1818181818182" y="75.0776923076923" width="2" height="24.922307692307697" id="tests-vaccines-5"></rect></g><g><rect x="175.61818181818182" y="52.543846153846154" width="2" height="47.456153846153846" id="tests-vaccines-6"></rect></g><g><rect x="172.05454545454546" y="9.29961538461539" width="2" height="90.7003846153846" id="tests-vaccines-7"></rect></g><g><rect x="168.49090909090907" y="26.120769230769238" width="2" height="73.87923076923076" id="tests-vaccines-8"></rect></g><g><rect x="164.92727272727274" y="28.923846153846156" width="2" height="71.07615384615384" id="tests-vaccines-9"></rect></g><g><rect x="161.36363636363637" y="28.658076923076926" width="2" height="71.34192307692308" id="tests-vaccines-10"></rect></g><g><rect x="157.8" y="32.95538461538462" width="2" height="67.04461538461538" id="tests-vaccines-11"></rect></g><g><rect x="154.23636363636365" y="80.6876923076923" width="2" height="19.312307692307698" id="tests-vaccines-12"></rect></g><g><rect x="150.6727272727273" y="60.81807692307692" width="2" height="39.18192307692308" id="tests-vaccines-13"></rect></g><g><rect x="147.1090909090909" y="16.986923076923077" width="2" height="83.01307692307692" id="tests-vaccines-14"></rect></g><g><rect x="143.54545454545453" y="30.724230769230765" width="2" height="69.27576923076924" id="tests-vaccines-15"></rect></g><g><rect x="139.9818181818182" y="30.56461538461539" width="2" height="69.4353846153846" id="tests-vaccines-16"></rect></g><g><rect x="136.41818181818184" y="31.375769230769237" width="2" height="68.62423076923076" id="tests-vaccines-17"></rect></g><g><rect x="132.85454545454544" y="37.60846153846153" width="2" height="62.39153846153847" id="tests-vaccines-18"></rect></g><g><rect x="129.29090909090908" y="81.86769230769231" width="2" height="18.13230769230769" id="tests-vaccines-19"></rect></g><g><rect x="125.72727272727273" y="64.62807692307693" width="2" height="35.37192307692307" id="tests-vaccines-20"></rect></g><g><rect x="122.16363636363636" y="37.91730769230769" width="2" height="62.08269230769231" id="tests-vaccines-21"></rect></g><g><rect x="118.6" y="63.19076923076923" width="2" height="36.80923076923077" id="tests-vaccines-22"></rect></g><g><rect x="115.03636363636363" y="64.64807692307693" width="2" height="35.35192307692307" id="tests-vaccines-23"></rect></g><g><rect x="111.47272727272728" y="63.463461538461544" width="2" height="36.536538461538456" id="tests-vaccines-24"></rect></g><g><rect x="107.90909090909089" y="61.934230769230766" width="2" height="38.065769230769234" id="tests-vaccines-25"></rect></g><g><rect x="104.34545454545456" y="88.29384615384616" width="2" height="11.706153846153839" id="tests-vaccines-26"></rect></g><g><rect x="100.78181818181817" y="77.43346153846153" width="2" height="22.56653846153847" id="tests-vaccines-27"></rect></g><g><rect x="97.21818181818183" y="51.7926923076923" width="2" height="48.2073076923077" id="tests-vaccines-28"></rect></g><g><rect x="93.65454545454546" y="61.49730769230769" width="2" height="38.50269230769231" id="tests-vaccines-29"></rect></g><g><rect x="90.09090909090911" y="61.99230769230769" width="2" height="38.00769230769231" id="tests-vaccines-30"></rect></g><g><rect x="86.52727272727273" y="59.57769230769231" width="2" height="40.42230769230769" id="tests-vaccines-31"></rect></g><g><rect x="82.96363636363637" y="59.00961538461538" width="2" height="40.99038461538462" id="tests-vaccines-32"></rect></g><g><rect x="79.4" y="86.34884615384615" width="2" height="13.651153846153846" id="tests-vaccines-33"></rect></g><g><rect x="75.83636363636364" y="74.97500000000001" width="2" height="25.02499999999999" id="tests-vaccines-34"></rect></g><g><rect x="72.27272727272727" y="45.33153846153846" width="2" height="54.66846153846154" id="tests-vaccines-35"></rect></g><g><rect x="68.70909090909092" y="55.24923076923076" width="2" height="44.75076923076924" id="tests-vaccines-36"></rect></g><g><rect x="65.14545454545454" y="58.244615384615386" width="2" height="41.755384615384614" id="tests-vaccines-37"></rect></g><g><rect x="61.58181818181818" y="57.25038461538461" width="2" height="42.74961538461539" id="tests-vaccines-38"></rect></g><g><rect x="58.018181818181816" y="57.46115384615385" width="2" height="42.53884615384615" id="tests-vaccines-39"></rect></g><g><rect x="54.454545454545446" y="85.31346153846154" width="2" height="14.686538461538461" id="tests-vaccines-40"></rect></g><g><rect x="50.89090909090908" y="73.94884615384616" width="2" height="26.051153846153838" id="tests-vaccines-41"></rect></g><g><rect x="47.32727272727273" y="44.316923076923075" width="2" height="55.683076923076925" id="tests-vaccines-42"></rect></g><g><rect x="43.76363636363636" y="49.35884615384616" width="2" height="50.64115384615384" id="tests-vaccines-43"></rect></g><g><rect x="40.199999999999996" y="50.444615384615375" width="2" height="49.555384615384625" id="tests-vaccines-44"></rect></g><g><rect x="36.636363636363626" y="50.264230769230764" width="2" height="49.735769230769236" id="tests-vaccines-45"></rect></g><g><rect x="33.072727272727285" y="54.35038461538462" width="2" height="45.64961538461538" id="tests-vaccines-46"></rect></g><g><rect x="29.509090909090922" y="84.86461538461538" width="2" height="15.135384615384623" id="tests-vaccines-47"></rect></g><g><rect x="25.945454545454556" y="72.78423076923077" width="2" height="27.215769230769226" id="tests-vaccines-48"></rect></g><g><rect x="22.38181818181819" y="58.37576923076924" width="2" height="41.62423076923076" id="tests-vaccines-49"></rect></g><g><rect x="18.818181818181824" y="72.33423076923077" width="2" height="27.66576923076923" id="tests-vaccines-50"></rect></g><g><rect x="15.254545454545461" y="72.275" width="2" height="27.724999999999994" id="tests-vaccines-51"></rect></g><g><rect x="11.690909090909095" y="71.43230769230769" width="2" height="28.56769230769231" id="tests-vaccines-52"></rect></g><g><rect x="8.12727272727273" y="69.15884615384616" width="2" height="30.841153846153844" id="tests-vaccines-53"></rect></g><g><rect x="4.563636363636365" y="87.38423076923077" width="2" height="12.615769230769232" id="tests-vaccines-54"></rect></g><g><rect x="1" y="78.06346153846152" width="2" height="21.936538461538476" id="tests-vaccines-55"></rect></g></g><g class="fg-line tests-vaccines" fill="none" stroke="#92c5de" stroke-width="2" stroke-linecap="round"><path d="M198,30.444285714285723L194.43636363636364,31.10587912087912L190.87272727272727,31.988296703296704L187.30909090909088,33.73445054945054L183.74545454545455,35.11104395604395L180.1818181818182,36.22560439560439L176.61818181818182,37.027032967032966L173.05454545454546,38.20906593406593L169.49090909090907,39.30725274725274L165.92727272727274,39.96489010989011L162.36363636363637,40.199285714285715L158.8,40.587527472527476L155.23636363636365,41.25225274725274L151.6727272727273,41.42082417582418L148.1090909090909,41.965109890109886L144.54545454545453,44.95516483516484L140.9818181818182,49.59324175824176L137.41818181818184,54.46230769230769L133.85454545454544,59.04626373626374L130.29090909090908,62.521373626373624L126.72727272727273,63.4393956043956L123.16363636363636,65.26873626373626L119.6,67.25093406593406L116.03636363636363,67.00901098901099L112.47272727272728,66.62961538461538L108.90909090909089,66.0745054945055L105.34545454545456,65.6567032967033L101.78181818181817,65.37884615384615L98.21818181818183,65.02763736263736L94.65454545454546,64.10461538461539L91.09090909090911,63.21203296703297L87.52727272727273,62.676648351648346L83.96363636363637,62.34417582417582L80.4,62.12296703296703L76.83636363636364,61.97505494505494L73.27272727272727,61.82846153846153L69.70909090909092,61.683516483516485L66.14545454545454,60.842032967032964L62.58181818181818,59.72774725274726L59.018181818181816,58.729725274725276L55.454545454545446,58.285329670329666L51.89090909090908,58.22120879120879L48.32727272727273,58.05483516483516L44.76363636363636,60.06324175824176L41.199999999999996,63.345439560439566L37.636363636363626,66.46406593406593L34.072727272727285,69.48807692307693L30.509090909090922,71.60357142857143L26.945454545454556,71.96351648351649L23.38181818181819,72.7176923076923L19.818181818181824,73.37010989010989L16.25454545454546,72.78587912087913L12.690909090909095,72.34752747252747L9.12727272727273,71.98807692307692L5.563636363636365,71.7432967032967L2,71.59851648351648"></path></g></svg>