<svg about="DATA_PUBLISHED_DATE:2021-11-06,RENDER_DATE:2021-11-06" xmlns="http://www.w3.org/2000/svg" viewBox="0,0,200,100"><g transform="translate(0,0)"></g><g class="fg-bars tests-vaccines" fill="#00183f" stroke="none"><g><rect x="197" y="5.717727272727268" width="2" height="94.28227272727273" id="tests-vaccines-0"></rect></g><g><rect x="193.43636363636364" y="20.47181818181818" width="2" height="79.52818181818182" id="tests-vaccines-1"></rect></g><g><rect x="189.87272727272727" y="20.091363636363635" width="2" height="79.90863636363636" id="tests-vaccines-2"></rect></g><g><rect x="186.30909090909088" y="20.812272727272727" width="2" height="79.18772727272727" id="tests-vaccines-3"></rect></g><g><rect x="182.74545454545455" y="27.719545454545457" width="2" height="72.28045454545455" id="tests-vaccines-4"></rect></g><g><rect x="179.1818181818182" y="78.97636363636363" width="2" height="21.02363636363637" id="tests-vaccines-5"></rect></g><g><rect x="175.61818181818182" y="59.05227272727272" width="2" height="40.94772727272728" id="tests-vaccines-6"></rect></g><g><rect x="172.05454545454546" y="27.97909090909091" width="2" height="72.02090909090909" id="tests-vaccines-7"></rect></g><g><rect x="168.49090909090907" y="57.244545454545445" width="2" height="42.755454545454555" id="tests-vaccines-8"></rect></g><g><rect x="164.92727272727274" y="58.99727272727273" width="2" height="41.00272727272727" id="tests-vaccines-9"></rect></g><g><rect x="161.36363636363637" y="57.49818181818183" width="2" height="42.50181818181817" id="tests-vaccines-10"></rect></g><g><rect x="157.8" y="55.68363636363636" width="2" height="44.31636363636364" id="tests-vaccines-11"></rect></g><g><rect x="154.23636363636365" y="86.38363636363636" width="2" height="13.616363636363644" id="tests-vaccines-12"></rect></g><g><rect x="150.6727272727273" y="73.87545454545455" width="2" height="26.124545454545455" id="tests-vaccines-13"></rect></g><g><rect x="147.1090909090909" y="43.985" width="2" height="56.015" id="tests-vaccines-14"></rect></g><g><rect x="143.54545454545453" y="55.19863636363637" width="2" height="44.80136363636363" id="tests-vaccines-15"></rect></g><g><rect x="139.9818181818182" y="55.68727272727273" width="2" height="44.31272727272727" id="tests-vaccines-16"></rect></g><g><rect x="136.41818181818184" y="52.94409090909091" width="2" height="47.05590909090909" id="tests-vaccines-17"></rect></g><g><rect x="132.85454545454544" y="52.23227272727273" width="2" height="47.76772727272727" id="tests-vaccines-18"></rect></g><g><rect x="129.29090909090908" y="84.09909090909092" width="2" height="15.900909090909082" id="tests-vaccines-19"></rect></g><g><rect x="125.72727272727273" y="70.92181818181817" width="2" height="29.078181818181832" id="tests-vaccines-20"></rect></g><g><rect x="122.16363636363636" y="36.49181818181818" width="2" height="63.50818181818182" id="tests-vaccines-21"></rect></g><g><rect x="118.6" y="47.83090909090909" width="2" height="52.16909090909091" id="tests-vaccines-22"></rect></g><g><rect x="115.03636363636363" y="51.41090909090909" width="2" height="48.58909090909091" id="tests-vaccines-23"></rect></g><g><rect x="111.47272727272728" y="50.213181818181816" width="2" height="49.786818181818184" id="tests-vaccines-24"></rect></g><g><rect x="107.90909090909089" y="50.42136363636364" width="2" height="49.57863636363636" id="tests-vaccines-25"></rect></g><g><rect x="104.34545454545456" y="82.88727272727272" width="2" height="17.112727272727284" id="tests-vaccines-26"></rect></g><g><rect x="100.78181818181817" y="69.68636363636364" width="2" height="30.313636363636363" id="tests-vaccines-27"></rect></g><g><rect x="97.21818181818183" y="34.959090909090904" width="2" height="65.0409090909091" id="tests-vaccines-28"></rect></g><g><rect x="93.65454545454546" y="40.69818181818182" width="2" height="59.30181818181818" id="tests-vaccines-29"></rect></g><g><rect x="90.09090909090911" y="41.93636363636364" width="2" height="58.06363636363636" id="tests-vaccines-30"></rect></g><g><rect x="86.52727272727273" y="41.47409090909091" width="2" height="58.52590909090909" id="tests-vaccines-31"></rect></g><g><rect x="82.96363636363637" y="46.26136363636364" width="2" height="53.73863636363636" id="tests-vaccines-32"></rect></g><g><rect x="79.4" y="82.19772727272728" width="2" height="17.802272727272722" id="tests-vaccines-33"></rect></g><g><rect x="75.83636363636364" y="67.92136363636362" width="2" height="32.07863636363638" id="tests-vaccines-34"></rect></g><g><rect x="72.27272727272727" y="50.98409090909091" width="2" height="49.01590909090909" id="tests-vaccines-35"></rect></g><g><rect x="68.70909090909092" y="67.39909090909092" width="2" height="32.600909090909084" id="tests-vaccines-36"></rect></g><g><rect x="65.14545454545454" y="67.31727272727272" width="2" height="32.68272727272728" id="tests-vaccines-37"></rect></g><g><rect x="61.58181818181818" y="66.33954545454546" width="2" height="33.66045454545454" id="tests-vaccines-38"></rect></g><g><rect x="58.018181818181816" y="63.620909090909095" width="2" height="36.379090909090905" id="tests-vaccines-39"></rect></g><g><rect x="54.454545454545446" y="85.11863636363637" width="2" height="14.88136363636363" id="tests-vaccines-40"></rect></g><g><rect x="50.89090909090908" y="74.10818181818182" width="2" height="25.89181818181818" id="tests-vaccines-41"></rect></g><g><rect x="47.32727272727273" y="56.31909090909091" width="2" height="43.68090909090909" id="tests-vaccines-42"></rect></g><g><rect x="43.76363636363636" y="62.55227272727273" width="2" height="37.44772727272727" id="tests-vaccines-43"></rect></g><g><rect x="40.199999999999996" y="63.70681818181818" width="2" height="36.29318181818182" id="tests-vaccines-44"></rect></g><g><rect x="36.636363636363626" y="63.33590909090909" width="2" height="36.66409090909091" id="tests-vaccines-45"></rect></g><g><rect x="33.072727272727285" y="61.58818181818182" width="2" height="38.41181818181818" id="tests-vaccines-46"></rect></g><g><rect x="29.509090909090922" y="83.91909090909091" width="2" height="16.08090909090909" id="tests-vaccines-47"></rect></g><g><rect x="25.945454545454556" y="71.28272727272727" width="2" height="28.71727272727273" id="tests-vaccines-48"></rect></g><g><rect x="22.38181818181819" y="50.86636363636363" width="2" height="49.13363636363637" id="tests-vaccines-49"></rect></g><g><rect x="18.818181818181824" y="59.67045454545455" width="2" height="40.32954545454545" id="tests-vaccines-50"></rect></g><g><rect x="15.254545454545461" y="59.3609090909091" width="2" height="40.6390909090909" id="tests-vaccines-51"></rect></g><g><rect x="11.690909090909095" y="55.09045454545455" width="2" height="44.90954545454545" id="tests-vaccines-52"></rect></g><g><rect x="8.12727272727273" y="91.15818181818182" width="2" height="8.841818181818184" id="tests-vaccines-53"></rect></g><g><rect x="4.563636363636365" y="82.655" width="2" height="17.345" id="tests-vaccines-54"></rect></g><g><rect x="1" y="70.83818181818182" width="2" height="29.161818181818177" id="tests-vaccines-55"></rect></g></g><g class="fg-line tests-vaccines" fill="none" stroke="#92c5de" stroke-width="2" stroke-linecap="round"><path d="M198,33.263051948051945L194.43636363636364,36.44324675324676L190.87272727272727,41.6964935064935L187.30909090909088,47.25448051948052L183.74545454545455,52.495324675324675L180.1818181818182,56.490194805194804L176.61818181818182,57.54837662337662L173.05454545454546,59.66597402597402L169.49090909090907,61.95253246753247L165.92727272727274,61.66025974025975L162.36363636363637,61.187402597402595L158.8,60.53681818181818L155.23636363636365,60.043766233766235L151.6727272727273,59.71740259740259L148.1090909090909,59.295454545454554L144.54545454545453,58.224999999999994L140.9818181818182,57.17246753246753L137.41818181818184,56.56155844155843L133.85454545454544,56.17142857142857L130.29090909090908,55.91272727272727L126.72727272727273,55.73961038961039L123.16363636363636,55.563116883116884L119.6,55.34415584415584L116.03636363636363,54.3251948051948L112.47272727272728,52.97168831168831L108.90909090909089,51.723246753246755L105.34545454545456,51.12896103896104L101.78181818181817,51.03045454545454L98.21818181818183,50.77831168831168L94.65454545454546,53.067597402597414L91.09090909090911,56.882012987012985L87.52727272727273,60.507857142857134L83.96363636363637,64.06006493506493L80.4,66.53999999999999L76.83636363636364,66.95727272727272L73.27272727272727,67.84110389610389L69.70909090909092,68.60324675324676L66.14545454545454,67.91084415584416L62.58181818181818,67.39506493506494L59.018181818181816,66.96597402597402L55.454545454545446,66.67558441558441L51.89090909090908,66.50422077922077L48.32727272727273,66.10058441558442L44.76363636363636,65.32162337662338L41.199999999999996,64.90993506493507L37.636363636363626,64.2890909090909L34.072727272727285,63.111168831168825L30.509090909090922,67.33545454545454L26.945454545454556,67.15487012987013L23.38181818181819,67.09136363636364L19.818181818181824,66.42L16.25454545454546,66.05318181818181L12.690909090909095,65.51L9.12727272727273,65.3638961038961L5.563636363636365,59.99746753246753L2,59.699350649350656"></path></g></svg>