<svg meta="{&quot;DATA_PUBLISHED_DATE&quot;:&quot;2022-02-03&quot;,&quot;RENDER_DATE&quot;:&quot;2022-02-04&quot;,&quot;FIRST_DATE&quot;:&quot;2021-12-01&quot;,&quot;LAST_DATE&quot;:&quot;2022-01-25&quot;}" xmlns="http://www.w3.org/2000/svg" viewBox="0,0,200,100"><g transform="translate(0,0)"></g><g class="fg-bars cases-ep" fill="#00183f" stroke="none"><g><rect x="197" y="63.912499999999994" width="2" height="36.087500000000006" id="cases-ep-0"></rect></g><g><rect x="193.43636363636364" y="57.883125" width="2" height="42.116875" id="cases-ep-1"></rect></g><g><rect x="189.87272727272727" y="83.679375" width="2" height="16.320625000000007" id="cases-ep-2"></rect></g><g><rect x="186.30909090909088" y="76.219375" width="2" height="23.780625" id="cases-ep-3"></rect></g><g><rect x="182.74545454545455" y="53.00375" width="2" height="46.99625" id="cases-ep-4"></rect></g><g><rect x="179.1818181818182" y="44.79875" width="2" height="55.20125" id="cases-ep-5"></rect></g><g><rect x="175.61818181818182" y="38.463125" width="2" height="61.536875" id="cases-ep-6"></rect></g><g><rect x="172.05454545454546" y="26.818125000000002" width="2" height="73.18187499999999" id="cases-ep-7"></rect></g><g><rect x="168.49090909090907" y="51.245625000000004" width="2" height="48.754374999999996" id="cases-ep-8"></rect></g><g><rect x="164.92727272727274" y="76.633125" width="2" height="23.366874999999993" id="cases-ep-9"></rect></g><g><rect x="161.36363636363637" y="65.27875" width="2" height="34.72125" id="cases-ep-10"></rect></g><g><rect x="157.8" y="36.39875" width="2" height="63.60125" id="cases-ep-11"></rect></g><g><rect x="154.23636363636365" y="30.442499999999995" width="2" height="69.5575" id="cases-ep-12"></rect></g><g><rect x="150.6727272727273" y="24.099999999999998" width="2" height="75.9" id="cases-ep-13"></rect></g><g><rect x="147.1090909090909" y="18.894374999999997" width="2" height="81.105625" id="cases-ep-14"></rect></g><g><rect x="143.54545454545453" y="15.273124999999999" width="2" height="84.726875" id="cases-ep-15"></rect></g><g><rect x="139.9818181818182" y="67.10625" width="2" height="32.89375" id="cases-ep-16"></rect></g><g><rect x="136.41818181818184" y="54.02625" width="2" height="45.97375" id="cases-ep-17"></rect></g><g><rect x="132.85454545454544" y="18.123750000000005" width="2" height="81.87625" id="cases-ep-18"></rect></g><g><rect x="129.29090909090908" y="13.415624999999999" width="2" height="86.584375" id="cases-ep-19"></rect></g><g><rect x="125.72727272727273" y="6.735000000000002" width="2" height="93.265" id="cases-ep-20"></rect></g><g><rect x="122.16363636363636" y="6.123749999999994" width="2" height="93.87625" id="cases-ep-21"></rect></g><g><rect x="118.6" y="17.326249999999998" width="2" height="82.67375" id="cases-ep-22"></rect></g><g><rect x="115.03636363636363" y="67.15625" width="2" height="32.84375" id="cases-ep-23"></rect></g><g><rect x="111.47272727272728" y="81.46187499999999" width="2" height="18.538125000000008" id="cases-ep-24"></rect></g><g><rect x="107.90909090909089" y="68.13312499999999" width="2" height="31.866875000000007" id="cases-ep-25"></rect></g><g><rect x="104.34545454545456" y="48.17125" width="2" height="51.82875" id="cases-ep-26"></rect></g><g><rect x="100.78181818181817" y="45.833124999999995" width="2" height="54.166875000000005" id="cases-ep-27"></rect></g><g><rect x="97.21818181818183" y="46.28375" width="2" height="53.71625" id="cases-ep-28"></rect></g><g><rect x="93.65454545454546" y="54.493750000000006" width="2" height="45.506249999999994" id="cases-ep-29"></rect></g><g><rect x="90.09090909090911" y="78.713125" width="2" height="21.286874999999995" id="cases-ep-30"></rect></g><g><rect x="86.52727272727273" y="91.44875" width="2" height="8.551249999999996" id="cases-ep-31"></rect></g><g><rect x="82.96363636363637" y="86.79124999999999" width="2" height="13.208750000000009" id="cases-ep-32"></rect></g><g><rect x="79.4" y="80.31937500000001" width="2" height="19.680624999999992" id="cases-ep-33"></rect></g><g><rect x="75.83636363636364" y="80.60125000000001" width="2" height="19.398749999999993" id="cases-ep-34"></rect></g><g><rect x="72.27272727272727" y="83.298125" width="2" height="16.701875" id="cases-ep-35"></rect></g><g><rect x="68.70909090909092" y="85.846875" width="2" height="14.153125000000003" id="cases-ep-36"></rect></g><g><rect x="65.14545454545454" y="93.47125000000001" width="2" height="6.528749999999988" id="cases-ep-37"></rect></g><g><rect x="61.58181818181818" y="94.0325" width="2" height="5.967500000000001" id="cases-ep-38"></rect></g><g><rect x="58.018181818181816" y="93.144375" width="2" height="6.855625000000003" id="cases-ep-39"></rect></g><g><rect x="54.454545454545446" y="93.69125" width="2" height="6.308750000000003" id="cases-ep-40"></rect></g><g><rect x="50.89090909090908" y="93.765625" width="2" height="6.234375" id="cases-ep-41"></rect></g><g><rect x="47.32727272727273" y="94.82625" width="2" height="5.173749999999998" id="cases-ep-42"></rect></g><g><rect x="43.76363636363636" y="94.48125" width="2" height="5.518749999999997" id="cases-ep-43"></rect></g><g><rect x="40.199999999999996" y="97.281875" width="2" height="2.7181250000000006" id="cases-ep-44"></rect></g><g><rect x="36.636363636363626" y="97.36625" width="2" height="2.6337500000000063" id="cases-ep-45"></rect></g><g><rect x="33.072727272727285" y="96.40062499999999" width="2" height="3.599375000000009" id="cases-ep-46"></rect></g><g><rect x="29.509090909090922" y="96.40875" width="2" height="3.5912500000000023" id="cases-ep-47"></rect></g><g><rect x="25.945454545454556" y="95.940625" width="2" height="4.059375000000003" id="cases-ep-48"></rect></g><g><rect x="22.38181818181819" y="95.91625" width="2" height="4.083749999999995" id="cases-ep-49"></rect></g><g><rect x="18.818181818181824" y="95.364375" width="2" height="4.6356250000000045" id="cases-ep-50"></rect></g><g><rect x="15.254545454545461" y="97.58250000000001" width="2" height="2.4174999999999898" id="cases-ep-51"></rect></g><g><rect x="11.690909090909095" y="97.39625" width="2" height="2.603750000000005" id="cases-ep-52"></rect></g><g><rect x="8.12727272727273" y="96.15875" width="2" height="3.8412500000000023" id="cases-ep-53"></rect></g><g><rect x="4.563636363636365" y="96.051875" width="2" height="3.9481250000000045" id="cases-ep-54"></rect></g><g><rect x="1" y="95.3125" width="2" height="4.6875" id="cases-ep-55"></rect></g></g><g class="fg-line cases-ep" fill="none" stroke="#92c5de" stroke-width="2" stroke-linecap="round"><path d="M198,59.708571428571425L194.43636363636364,54.409375000000004L190.87272727272727,53.46116071428572L187.30909090909088,52.45455357142856L183.74545454545455,50.89160714285714L180.1818181818182,48.519464285714285L176.61818181818182,46.46857142857142L173.05454545454546,44.416696428571434L169.49090909090907,43.28473214285715L165.92727272727274,38.14580357142857L162.36363636363637,36.78482142857143L158.8,35.17732142857143L155.23636363636365,32.56660714285715L151.6727272727273,30.134196428571435L148.1090909090909,27.653482142857143L144.54545454545453,25.829107142857143L140.9818181818182,26.122410714285714L137.41818181818184,26.129553571428566L133.85454545454544,30.04892857142857L130.29090909090908,37.193125L126.72727272727273,42.15821428571428L123.16363636363636,47.74366071428572L119.6,53.48080357142857L116.03636363636363,58.79044642857143L112.47272727272728,60.44142857142858L108.90909090909089,61.868125000000006L105.34545454545456,64.53357142857143L101.78181818181817,69.12616071428572L98.21818181818183,74.09303571428572L94.65454545454546,79.38080357142857L91.09090909090911,83.85982142857142L87.52727272727273,85.968125L83.96363636363637,86.33723214285715L80.4,87.24482142857143L76.83636363636364,89.15508928571428L73.27272727272727,91.03571428571429L69.70909090909092,92.68258928571429L66.14545454545454,93.91607142857143L62.58181818181818,94.46044642857143L59.018181818181816,94.93669642857144L55.454545454545446,95.401875L51.89090909090908,95.79008928571429L48.32727272727273,96.10080357142857L44.76363636363636,96.25651785714285L41.199999999999996,96.38267857142857L37.636363636363626,96.425625L34.072727272727285,96.42991071428571L30.509090909090922,96.39535714285714L26.945454545454556,96.344375L23.38181818181819,96.25464285714285L19.818181818181824,96.20598214285714L16.25454545454546,96.12883928571428L12.690909090909095,96.08044642857143L9.12727272727273,96.07535714285714L5.563636363636365,96.23553571428572L2,96.59517857142858"></path></g></svg>