<svg about="DATA_PUBLISHED_DATE:2021-09-22,RENDER_DATE:2021-09-22" viewBox="0,0,200,100"><g transform="translate(0,0)"></g><g class="fg-bars death-date"><g><rect x="197" y="25.83333333333333" width="2" height="74.16666666666667" id="death-date-0"></rect></g><g><rect x="193.43636363636364" y="31.666666666666664" width="2" height="68.33333333333334" id="death-date-1"></rect></g><g><rect x="189.87272727272727" y="4.1666666666666625" width="2" height="95.83333333333334" id="death-date-2"></rect></g><g><rect x="186.30909090909088" y="14.166666666666671" width="2" height="85.83333333333333" id="death-date-3"></rect></g><g><rect x="182.74545454545455" y="13.33333333333333" width="2" height="86.66666666666667" id="death-date-4"></rect></g><g><rect x="179.1818181818182" y="16.666666666666664" width="2" height="83.33333333333334" id="death-date-5"></rect></g><g><rect x="175.61818181818182" y="10.833333333333329" width="2" height="89.16666666666667" id="death-date-6"></rect></g><g><rect x="172.05454545454546" y="28.333333333333332" width="2" height="71.66666666666667" id="death-date-7"></rect></g><g><rect x="168.49090909090907" y="25" width="2" height="75" id="death-date-8"></rect></g><g><rect x="164.92727272727274" y="25" width="2" height="75" id="death-date-9"></rect></g><g><rect x="161.36363636363637" y="26.66666666666667" width="2" height="73.33333333333333" id="death-date-10"></rect></g><g><rect x="157.8" y="25" width="2" height="75" id="death-date-11"></rect></g><g><rect x="154.23636363636365" y="31.666666666666664" width="2" height="68.33333333333334" id="death-date-12"></rect></g><g><rect x="150.6727272727273" y="13.33333333333333" width="2" height="86.66666666666667" id="death-date-13"></rect></g><g><rect x="147.1090909090909" y="12.5" width="2" height="87.5" id="death-date-14"></rect></g><g><rect x="143.54545454545453" y="40" width="2" height="60" id="death-date-15"></rect></g><g><rect x="139.9818181818182" y="40.833333333333336" width="2" height="59.166666666666664" id="death-date-16"></rect></g><g><rect x="136.41818181818184" y="10.833333333333329" width="2" height="89.16666666666667" id="death-date-17"></rect></g><g><rect x="132.85454545454544" y="40" width="2" height="60" id="death-date-18"></rect></g><g><rect x="129.29090909090908" y="43.333333333333336" width="2" height="56.666666666666664" id="death-date-19"></rect></g><g><rect x="125.72727272727273" y="42.50000000000001" width="2" height="57.49999999999999" id="death-date-20"></rect></g><g><rect x="122.16363636363636" y="43.333333333333336" width="2" height="56.666666666666664" id="death-date-21"></rect></g><g><rect x="118.6" y="41.666666666666664" width="2" height="58.333333333333336" id="death-date-22"></rect></g><g><rect x="115.03636363636363" y="55.00000000000001" width="2" height="44.99999999999999" id="death-date-23"></rect></g><g><rect x="111.47272727272728" y="53.333333333333336" width="2" height="46.666666666666664" id="death-date-24"></rect></g><g><rect x="107.90909090909089" y="61.66666666666667" width="2" height="38.33333333333333" id="death-date-25"></rect></g><g><rect x="104.34545454545456" y="63.33333333333333" width="2" height="36.66666666666667" id="death-date-26"></rect></g><g><rect x="100.78181818181817" y="58.33333333333333" width="2" height="41.66666666666667" id="death-date-27"></rect></g><g><rect x="97.21818181818183" y="57.49999999999999" width="2" height="42.50000000000001" id="death-date-28"></rect></g><g><rect x="93.65454545454546" y="73.33333333333334" width="2" height="26.666666666666657" id="death-date-29"></rect></g><g><rect x="90.09090909090911" y="60.83333333333334" width="2" height="39.16666666666666" id="death-date-30"></rect></g><g><rect x="86.52727272727273" y="79.16666666666666" width="2" height="20.833333333333343" id="death-date-31"></rect></g><g><rect x="82.96363636363637" y="71.66666666666667" width="2" height="28.33333333333333" id="death-date-32"></rect></g><g><rect x="79.4" y="73.33333333333334" width="2" height="26.666666666666657" id="death-date-33"></rect></g><g><rect x="75.83636363636364" y="73.33333333333334" width="2" height="26.666666666666657" id="death-date-34"></rect></g><g><rect x="72.27272727272727" y="78.33333333333333" width="2" height="21.66666666666667" id="death-date-35"></rect></g><g><rect x="68.70909090909092" y="78.33333333333333" width="2" height="21.66666666666667" id="death-date-36"></rect></g><g><rect x="65.14545454545454" y="81.66666666666667" width="2" height="18.33333333333333" id="death-date-37"></rect></g><g><rect x="61.58181818181818" y="70.83333333333333" width="2" height="29.16666666666667" id="death-date-38"></rect></g><g><rect x="58.018181818181816" y="75.83333333333333" width="2" height="24.16666666666667" id="death-date-39"></rect></g><g><rect x="54.454545454545446" y="83.33333333333334" width="2" height="16.666666666666657" id="death-date-40"></rect></g><g><rect x="50.89090909090908" y="79.16666666666666" width="2" height="20.833333333333343" id="death-date-41"></rect></g><g><rect x="47.32727272727273" y="80" width="2" height="20" id="death-date-42"></rect></g><g><rect x="43.76363636363636" y="90.83333333333333" width="2" height="9.166666666666671" id="death-date-43"></rect></g><g><rect x="40.199999999999996" y="81.66666666666667" width="2" height="18.33333333333333" id="death-date-44"></rect></g><g><rect x="36.636363636363626" y="85.83333333333334" width="2" height="14.166666666666657" id="death-date-45"></rect></g><g><rect x="33.072727272727285" y="80.83333333333333" width="2" height="19.16666666666667" id="death-date-46"></rect></g><g><rect x="29.509090909090922" y="89.16666666666666" width="2" height="10.833333333333343" id="death-date-47"></rect></g><g><rect x="25.945454545454556" y="85.83333333333334" width="2" height="14.166666666666657" id="death-date-48"></rect></g><g><rect x="22.38181818181819" y="85" width="2" height="15" id="death-date-49"></rect></g><g><rect x="18.818181818181824" y="87.5" width="2" height="12.5" id="death-date-50"></rect></g><g><rect x="15.254545454545461" y="85" width="2" height="15" id="death-date-51"></rect></g><g><rect x="11.690909090909095" y="85.83333333333334" width="2" height="14.166666666666657" id="death-date-52"></rect></g><g><rect x="8.12727272727273" y="87.5" width="2" height="12.5" id="death-date-53"></rect></g><g><rect x="4.563636363636365" y="86.66666666666667" width="2" height="13.333333333333329" id="death-date-54"></rect></g><g><rect x="1" y="87.5" width="2" height="12.5" id="death-date-55"></rect></g></g><g class="fg-line death-date"><path stroke-linecap="round" d="M198,16.666666666666664L194.43636363636364,17.02380952380953L190.87272727272727,16.07142857142858L187.30909090909088,19.047619047619047L183.74545454545455,20.833333333333336L180.1818181818182,22.499999999999996L176.61818181818182,24.642857142857146L173.05454545454546,25L169.49090909090907,22.738095238095248L165.92727272727274,24.88095238095238L162.36363636363637,27.142857142857146L158.8,24.88095238095238L155.23636363636365,27.02380952380953L151.6727272727273,28.69047619047619L148.1090909090909,32.85714285714286L144.54545454545453,37.26190476190475L140.9818181818182,37.5L137.41818181818184,39.523809523809526L133.85454545454544,45.59523809523809L130.29090909090908,48.6904761904762L126.72727272727273,51.547619047619044L123.16363636363636,53.80952380952381L119.6,55.833333333333336L116.03636363636363,60.35714285714286L112.47272727272728,61.1904761904762L108.90909090909089,64.88095238095238L105.34545454545456,66.30952380952381L101.78181818181817,67.73809523809524L98.21818181818183,69.88095238095238L94.65454545454546,72.85714285714286L91.09090909090911,73.57142857142858L87.52727272727273,76.54761904761904L83.96363636363637,75.35714285714286L80.4,75.95238095238095L76.83636363636364,77.38095238095238L73.27272727272727,78.21428571428571L69.70909090909092,78.45238095238095L66.14545454545454,80.23809523809524L62.58181818181818,80.23809523809524L59.018181818181816,82.38095238095238L55.454545454545446,83.0952380952381L51.89090909090908,83.92857142857143L48.32727272727273,84.88095238095238L44.76363636363636,85.5952380952381L41.199999999999996,85.11904761904762L37.636363636363626,85.5952380952381L34.072727272727285,85.5952380952381L30.509090909090922,86.54761904761905L26.945454545454556,86.19047619047619L23.38181818181819,86.42857142857143L19.818181818181824,86.90476190476191L16.25454545454546,87.73809523809524L12.690909090909095,88.33333333333333L9.12727272727273,88.69047619047619L5.563636363636365,88.80952380952381L2,88.69047619047619"></path></g></svg>