<svg meta="{&quot;DATA_PUBLISHED_DATE&quot;:&quot;2022-03-22&quot;,&quot;RENDER_DATE&quot;:&quot;2022-03-23&quot;,&quot;FIRST_DATE&quot;:&quot;2022-01-03&quot;,&quot;LAST_DATE&quot;:&quot;2022-02-27&quot;}" xmlns="http://www.w3.org/2000/svg" viewBox="0,0,200,100"><g transform="translate(0,0)"></g><g class="fg-bars death-date" fill="#00183f" stroke="none"><g><rect x="197" y="81.92307692307692" width="2" height="18.07692307692308" id="death-date-0"></rect></g><g><rect x="193.43636363636364" y="75.38461538461539" width="2" height="24.615384615384613" id="death-date-1"></rect></g><g><rect x="189.87272727272727" y="75.38461538461539" width="2" height="24.615384615384613" id="death-date-2"></rect></g><g><rect x="186.30909090909088" y="74.61538461538461" width="2" height="25.384615384615387" id="death-date-3"></rect></g><g><rect x="182.74545454545455" y="66.15384615384615" width="2" height="33.846153846153854" id="death-date-4"></rect></g><g><rect x="179.1818181818182" y="64.61538461538461" width="2" height="35.38461538461539" id="death-date-5"></rect></g><g><rect x="175.61818181818182" y="62.69230769230769" width="2" height="37.30769230769231" id="death-date-6"></rect></g><g><rect x="172.05454545454546" y="58.07692307692307" width="2" height="41.92307692307693" id="death-date-7"></rect></g><g><rect x="168.49090909090907" y="65.76923076923077" width="2" height="34.230769230769226" id="death-date-8"></rect></g><g><rect x="164.92727272727274" y="60" width="2" height="40" id="death-date-9"></rect></g><g><rect x="161.36363636363637" y="51.53846153846153" width="2" height="48.46153846153847" id="death-date-10"></rect></g><g><rect x="157.8" y="52.69230769230769" width="2" height="47.30769230769231" id="death-date-11"></rect></g><g><rect x="154.23636363636365" y="55.38461538461539" width="2" height="44.61538461538461" id="death-date-12"></rect></g><g><rect x="150.6727272727273" y="45.769230769230774" width="2" height="54.230769230769226" id="death-date-13"></rect></g><g><rect x="147.1090909090909" y="44.99999999999999" width="2" height="55.00000000000001" id="death-date-14"></rect></g><g><rect x="143.54545454545453" y="43.84615384615385" width="2" height="56.15384615384615" id="death-date-15"></rect></g><g><rect x="139.9818181818182" y="32.30769230769231" width="2" height="67.6923076923077" id="death-date-16"></rect></g><g><rect x="136.41818181818184" y="37.30769230769231" width="2" height="62.69230769230769" id="death-date-17"></rect></g><g><rect x="132.85454545454544" y="25.384615384615383" width="2" height="74.61538461538461" id="death-date-18"></rect></g><g><rect x="129.29090909090908" y="19.615384615384613" width="2" height="80.38461538461539" id="death-date-19"></rect></g><g><rect x="125.72727272727273" y="31.538461538461537" width="2" height="68.46153846153847" id="death-date-20"></rect></g><g><rect x="122.16363636363636" y="32.692307692307686" width="2" height="67.30769230769232" id="death-date-21"></rect></g><g><rect x="118.6" y="21.153846153846157" width="2" height="78.84615384615384" id="death-date-22"></rect></g><g><rect x="115.03636363636363" y="9.999999999999998" width="2" height="90" id="death-date-23"></rect></g><g><rect x="111.47272727272728" y="20.769230769230774" width="2" height="79.23076923076923" id="death-date-24"></rect></g><g><rect x="107.90909090909089" y="12.307692307692308" width="2" height="87.6923076923077" id="death-date-25"></rect></g><g><rect x="104.34545454545456" y="4.230769230769226" width="2" height="95.76923076923077" id="death-date-26"></rect></g><g><rect x="100.78181818181817" y="14.230769230769235" width="2" height="85.76923076923076" id="death-date-27"></rect></g><g><rect x="97.21818181818183" y="4.61538461538461" width="2" height="95.38461538461539" id="death-date-28"></rect></g><g><rect x="93.65454545454546" y="5.000000000000004" width="2" height="95" id="death-date-29"></rect></g><g><rect x="90.09090909090911" y="15.769230769230768" width="2" height="84.23076923076923" id="death-date-30"></rect></g><g><rect x="86.52727272727273" y="10.384615384615381" width="2" height="89.61538461538461" id="death-date-31"></rect></g><g><rect x="82.96363636363637" y="18.07692307692308" width="2" height="81.92307692307692" id="death-date-32"></rect></g><g><rect x="79.4" y="13.461538461538458" width="2" height="86.53846153846155" id="death-date-33"></rect></g><g><rect x="75.83636363636364" y="28.076923076923077" width="2" height="71.92307692307692" id="death-date-34"></rect></g><g><rect x="72.27272727272727" y="10.769230769230765" width="2" height="89.23076923076924" id="death-date-35"></rect></g><g><rect x="68.70909090909092" y="17.307692307692314" width="2" height="82.69230769230768" id="death-date-36"></rect></g><g><rect x="65.14545454545454" y="12.307692307692308" width="2" height="87.6923076923077" id="death-date-37"></rect></g><g><rect x="61.58181818181818" y="19.615384615384613" width="2" height="80.38461538461539" id="death-date-38"></rect></g><g><rect x="58.018181818181816" y="11.923076923076925" width="2" height="88.07692307692308" id="death-date-39"></rect></g><g><rect x="54.454545454545446" y="22.307692307692307" width="2" height="77.6923076923077" id="death-date-40"></rect></g><g><rect x="50.89090909090908" y="30.000000000000004" width="2" height="70" id="death-date-41"></rect></g><g><rect x="47.32727272727273" y="28.46153846153846" width="2" height="71.53846153846155" id="death-date-42"></rect></g><g><rect x="43.76363636363636" y="28.076923076923077" width="2" height="71.92307692307692" id="death-date-43"></rect></g><g><rect x="40.199999999999996" y="38.07692307692307" width="2" height="61.92307692307693" id="death-date-44"></rect></g><g><rect x="36.636363636363626" y="36.15384615384616" width="2" height="63.84615384615384" id="death-date-45"></rect></g><g><rect x="33.072727272727285" y="32.30769230769231" width="2" height="67.6923076923077" id="death-date-46"></rect></g><g><rect x="29.509090909090922" y="38.46153846153846" width="2" height="61.53846153846154" id="death-date-47"></rect></g><g><rect x="25.945454545454556" y="46.15384615384615" width="2" height="53.84615384615385" id="death-date-48"></rect></g><g><rect x="22.38181818181819" y="56.15384615384615" width="2" height="43.84615384615385" id="death-date-49"></rect></g><g><rect x="18.818181818181824" y="48.846153846153854" width="2" height="51.153846153846146" id="death-date-50"></rect></g><g><rect x="15.254545454545461" y="56.15384615384615" width="2" height="43.84615384615385" id="death-date-51"></rect></g><g><rect x="11.690909090909095" y="53.07692307692308" width="2" height="46.92307692307692" id="death-date-52"></rect></g><g><rect x="8.12727272727273" y="51.92307692307692" width="2" height="48.07692307692308" id="death-date-53"></rect></g><g><rect x="4.563636363636365" y="61.92307692307693" width="2" height="38.07692307692307" id="death-date-54"></rect></g><g><rect x="1" y="59.61538461538461" width="2" height="40.38461538461539" id="death-date-55"></rect></g></g><g class="fg-line death-date" fill="none" stroke="#92c5de" stroke-width="2" stroke-linecap="round"><path d="M198,71.53846153846153L194.43636363636364,68.13186813186813L190.87272727272727,66.75824175824177L187.30909090909088,64.56043956043956L183.74545454545455,61.26373626373627L180.1818181818182,59.34065934065934L176.61818181818182,58.021978021978015L173.05454545454546,55.604395604395606L169.49090909090907,53.73626373626374L165.92727272727274,50.604395604395606L162.36363636363637,46.64835164835165L158.8,44.61538461538461L155.23636363636365,40.714285714285715L151.6727272727273,35.60439560439561L148.1090909090909,33.57142857142856L144.54545454545453,31.81318681318681L140.9818181818182,28.57142857142857L137.41818181818184,25.384615384615383L133.85454545454544,23.02197802197803L130.29090909090908,21.153846153846157L126.72727272727273,18.956043956043956L123.16363636363636,16.483516483516482L119.6,12.472527472527473L116.03636363636363,10.164835164835162L112.47272727272728,10.989010989010994L108.90909090909089,9.505494505494505L105.34545454545456,10.329670329670327L101.78181818181817,11.64835164835164L98.21818181818183,13.626373626373622L94.65454545454546,14.505494505494509L91.09090909090911,16.263736263736263L87.52727272727273,15.769230769230768L83.96363636363637,17.087912087912084L80.4,16.208791208791208L76.83636363636364,17.472527472527467L73.27272727272727,17.74725274725275L69.70909090909092,20.27472527472528L66.14545454545454,21.813186813186814L62.58181818181818,25.494505494505493L59.018181818181816,27.857142857142847L55.454545454545446,30.76923076923077L51.89090909090908,33.07692307692308L48.32727272727273,35.38461538461538L44.76363636363636,39.340659340659336L41.199999999999996,42.307692307692314L37.636363636363626,44.8901098901099L34.072727272727285,47.30769230769231L30.509090909090922,50.10989010989011L26.945454545454556,53.46153846153846L23.38181818181819,55.38461538461539L19.818181818181824,57.47252747252747L16.25454545454546,60.164835164835175L12.690909090909095,61.92307692307693L9.12727272727273,65.10989010989012L5.563636363636365,68.07692307692308L2,70.4945054945055"></path></g></svg>