<svg about="DATA_PUBLISHED_DATE:2022-01-07,RENDER_DATE:2022-01-07" xmlns="http://www.w3.org/2000/svg" viewBox="0,0,200,100"><g transform="translate(0,0)"></g><g class="fg-bars tests-vaccines" fill="#00183f" stroke="none"><g><rect x="197" y="38.462857142857146" width="2" height="61.537142857142854" id="tests-vaccines-0"></rect></g><g><rect x="193.43636363636364" y="33.95628571428572" width="2" height="66.04371428571429" id="tests-vaccines-1"></rect></g><g><rect x="189.87272727272727" y="33.66142857142857" width="2" height="66.33857142857143" id="tests-vaccines-2"></rect></g><g><rect x="186.30909090909088" y="41.788000000000004" width="2" height="58.211999999999996" id="tests-vaccines-3"></rect></g><g><rect x="182.74545454545455" y="84.78685714285714" width="2" height="15.213142857142856" id="tests-vaccines-4"></rect></g><g><rect x="179.1818181818182" y="99.75057142857143" width="2" height="0.24942857142856667" id="tests-vaccines-5"></rect></g><g><rect x="175.61818181818182" y="87.48542857142857" width="2" height="12.51457142857143" id="tests-vaccines-6"></rect></g><g><rect x="172.05454545454546" y="39.68857142857143" width="2" height="60.31142857142857" id="tests-vaccines-7"></rect></g><g><rect x="168.49090909090907" y="28.77657142857143" width="2" height="71.22342857142857" id="tests-vaccines-8"></rect></g><g><rect x="164.92727272727274" y="25.892000000000003" width="2" height="74.108" id="tests-vaccines-9"></rect></g><g><rect x="161.36363636363637" y="30.791142857142862" width="2" height="69.20885714285714" id="tests-vaccines-10"></rect></g><g><rect x="157.8" y="79.87142857142857" width="2" height="20.128571428571433" id="tests-vaccines-11"></rect></g><g><rect x="154.23636363636365" y="59.91485714285714" width="2" height="40.08514285714286" id="tests-vaccines-12"></rect></g><g><rect x="150.6727272727273" y="26.784857142857142" width="2" height="73.21514285714287" id="tests-vaccines-13"></rect></g><g><rect x="147.1090909090909" y="35.556571428571424" width="2" height="64.44342857142857" id="tests-vaccines-14"></rect></g><g><rect x="143.54545454545453" y="33.940000000000005" width="2" height="66.06" id="tests-vaccines-15"></rect></g><g><rect x="139.9818181818182" y="35.72571428571428" width="2" height="64.27428571428572" id="tests-vaccines-16"></rect></g><g><rect x="136.41818181818184" y="38.42542857142857" width="2" height="61.57457142857143" id="tests-vaccines-17"></rect></g><g><rect x="132.85454545454544" y="80.52457142857143" width="2" height="19.475428571428566" id="tests-vaccines-18"></rect></g><g><rect x="129.29090909090908" y="54.30542857142857" width="2" height="45.69457142857143" id="tests-vaccines-19"></rect></g><g><rect x="125.72727272727273" y="20.06485714285714" width="2" height="79.93514285714286" id="tests-vaccines-20"></rect></g><g><rect x="122.16363636363636" y="27.992285714285714" width="2" height="72.00771428571429" id="tests-vaccines-21"></rect></g><g><rect x="118.6" y="25.470857142857138" width="2" height="74.52914285714286" id="tests-vaccines-22"></rect></g><g><rect x="115.03636363636363" y="25.6" width="2" height="74.4" id="tests-vaccines-23"></rect></g><g><rect x="111.47272727272728" y="30.97114285714285" width="2" height="69.02885714285715" id="tests-vaccines-24"></rect></g><g><rect x="107.90909090909089" y="76.56914285714286" width="2" height="23.430857142857135" id="tests-vaccines-25"></rect></g><g><rect x="104.34545454545456" y="47.952" width="2" height="52.048" id="tests-vaccines-26"></rect></g><g><rect x="100.78181818181817" y="9.304571428571428" width="2" height="90.69542857142858" id="tests-vaccines-27"></rect></g><g><rect x="97.21818181818183" y="19.860857142857146" width="2" height="80.13914285714286" id="tests-vaccines-28"></rect></g><g><rect x="93.65454545454546" y="21.69685714285714" width="2" height="78.30314285714286" id="tests-vaccines-29"></rect></g><g><rect x="90.09090909090911" y="29.341142857142856" width="2" height="70.65885714285714" id="tests-vaccines-30"></rect></g><g><rect x="86.52727272727273" y="38.989714285714285" width="2" height="61.010285714285715" id="tests-vaccines-31"></rect></g><g><rect x="82.96363636363637" y="81.55914285714286" width="2" height="18.44085714285714" id="tests-vaccines-32"></rect></g><g><rect x="79.4" y="67.27428571428571" width="2" height="32.72571428571429" id="tests-vaccines-33"></rect></g><g><rect x="75.83636363636364" y="56.30171428571429" width="2" height="43.69828571428571" id="tests-vaccines-34"></rect></g><g><rect x="72.27272727272727" y="98.58742857142857" width="2" height="1.4125714285714253" id="tests-vaccines-35"></rect></g><g><rect x="68.70909090909092" y="41.344" width="2" height="58.656" id="tests-vaccines-36"></rect></g><g><rect x="65.14545454545454" y="30.226857142857146" width="2" height="69.77314285714286" id="tests-vaccines-37"></rect></g><g><rect x="61.58181818181818" y="33.36571428571429" width="2" height="66.63428571428571" id="tests-vaccines-38"></rect></g><g><rect x="58.018181818181816" y="78.92285714285714" width="2" height="21.07714285714286" id="tests-vaccines-39"></rect></g><g><rect x="54.454545454545446" y="54.99285714285714" width="2" height="45.00714285714286" id="tests-vaccines-40"></rect></g><g><rect x="50.89090909090908" y="22.795428571428566" width="2" height="77.20457142857143" id="tests-vaccines-41"></rect></g><g><rect x="47.32727272727273" y="34.806285714285714" width="2" height="65.1937142857143" id="tests-vaccines-42"></rect></g><g><rect x="43.76363636363636" y="33.650857142857134" width="2" height="66.34914285714287" id="tests-vaccines-43"></rect></g><g><rect x="40.199999999999996" y="35.208285714285715" width="2" height="64.79171428571428" id="tests-vaccines-44"></rect></g><g><rect x="36.636363636363626" y="40.882285714285715" width="2" height="59.117714285714285" id="tests-vaccines-45"></rect></g><g><rect x="33.072727272727285" y="79.45457142857143" width="2" height="20.545428571428573" id="tests-vaccines-46"></rect></g><g><rect x="29.509090909090922" y="57.18514285714286" width="2" height="42.81485714285714" id="tests-vaccines-47"></rect></g><g><rect x="25.945454545454556" y="25.6" width="2" height="74.4" id="tests-vaccines-48"></rect></g><g><rect x="22.38181818181819" y="37.66657142857143" width="2" height="62.33342857142857" id="tests-vaccines-49"></rect></g><g><rect x="18.818181818181824" y="35.238" width="2" height="64.762" id="tests-vaccines-50"></rect></g><g><rect x="15.254545454545461" y="37.681714285714285" width="2" height="62.318285714285715" id="tests-vaccines-51"></rect></g><g><rect x="11.690909090909095" y="42.657999999999994" width="2" height="57.342000000000006" id="tests-vaccines-52"></rect></g><g><rect x="8.12727272727273" y="80.56457142857143" width="2" height="19.435428571428574" id="tests-vaccines-53"></rect></g><g><rect x="4.563636363636365" y="63.25085714285714" width="2" height="36.74914285714286" id="tests-vaccines-54"></rect></g><g><rect x="1" y="30.30057142857143" width="2" height="69.69942857142857" id="tests-vaccines-55"></rect></g></g><g class="fg-line tests-vaccines" fill="none" stroke="#92c5de" stroke-width="2" stroke-linecap="round"><path d="M198,59.98448979591837L194.43636363636364,60.15959183673469L190.87272727272727,59.41963265306123L187.30909090909088,58.309714285714286L183.74545454545455,56.73873469387755L180.1818181818182,56.036530612244896L176.61818181818182,50.34571428571428L173.05454545454546,41.67420408163266L169.49090909090907,41.08391836734694L165.92727272727274,41.821551020408165L162.36363636363637,43.22636734693878L158.8,44.316979591836734L155.23636363636365,44.41028571428571L151.6727272727273,43.6089387755102L148.1090909090909,42.6489387755102L144.54545454545453,41.56832653061224L140.9818181818182,40.358448979591834L137.41818181818184,38.91191836734694L133.85454545454544,37.84702040816327L130.29090909090908,37.281959183673465L126.72727272727273,36.374326530612244L123.16363636363636,34.83714285714286L119.6,33.675510204081625L116.03636363636363,33.136367346938776L112.47272727272728,33.670816326530606L108.90909090909089,34.81632653061225L105.34545454545456,35.52918367346939L101.78181818181817,38.28951020408164L98.21818181818183,45.00338775510204L94.65454545454546,56.25004081632654L91.09090909090911,59.05677551020408L87.52727272727273,59.183306122448975L83.96363636363637,58.37987755102041L80.4,58.00326530612245L76.83636363636364,56.248775510204084L73.27272727272727,51.462163265306124L69.70909090909092,42.35057142857143L66.14545454545454,41.25155102040816L62.58181818181818,41.963183673469395L59.018181818181816,43.03697959183673L55.454545454545446,43.1129387755102L51.89090909090908,43.4261224489796L48.32727272727273,43.82677551020409L44.76363636363636,44.23538775510204L41.199999999999996,44.46212244897959L37.636363636363626,44.8154693877551L34.072727272727285,45.06914285714285L30.509090909090922,45.227714285714285L26.945454545454556,46.09424489795918L23.38181818181819,46.76575510204082L19.818181818181824,47.55869387755103L16.25454545454546,49.05489795918368L12.690909090909095,50.18918367346939L9.12727272727273,51.08273469387754L5.563636363636365,51.78248979591837L2,52.80779591836735"></path></g></svg>