<svg about="DATA_PUBLISHED_DATE:2021-10-02,RENDER_DATE:2021-10-02" xmlns="http://www.w3.org/2000/svg" viewBox="0,0,200,100"><g transform="translate(0,0)"></g><g class="fg-bars tests-vaccines" fill="#00183f" stroke="none"><g><rect x="197" y="19.565384615384616" width="2" height="80.43461538461538" id="tests-vaccines-0"></rect></g><g><rect x="193.43636363636364" y="46.34230769230769" width="2" height="53.65769230769231" id="tests-vaccines-1"></rect></g><g><rect x="189.87272727272727" y="46.18461538461538" width="2" height="53.81538461538462" id="tests-vaccines-2"></rect></g><g><rect x="186.30909090909088" y="44.59076923076923" width="2" height="55.40923076923077" id="tests-vaccines-3"></rect></g><g><rect x="182.74545454545455" y="39.83538461538462" width="2" height="60.16461538461538" id="tests-vaccines-4"></rect></g><g><rect x="179.1818181818182" y="75.22692307692309" width="2" height="24.773076923076914" id="tests-vaccines-5"></rect></g><g><rect x="175.61818181818182" y="57.002307692307696" width="2" height="42.997692307692304" id="tests-vaccines-6"></rect></g><g><rect x="172.05454545454546" y="27.889230769230767" width="2" height="72.11076923076924" id="tests-vaccines-7"></rect></g><g><rect x="168.49090909090907" y="38.26153846153846" width="2" height="61.73846153846154" id="tests-vaccines-8"></rect></g><g><rect x="164.92727272727274" y="39.98692307692308" width="2" height="60.01307692307692" id="tests-vaccines-9"></rect></g><g><rect x="161.36363636363637" y="39.440769230769234" width="2" height="60.559230769230766" id="tests-vaccines-10"></rect></g><g><rect x="157.8" y="36.28923076923078" width="2" height="63.71076923076922" id="tests-vaccines-11"></rect></g><g><rect x="154.23636363636365" y="73.23538461538462" width="2" height="26.764615384615382" id="tests-vaccines-12"></rect></g><g><rect x="150.6727272727273" y="52.42923076923076" width="2" height="47.57076923076924" id="tests-vaccines-13"></rect></g><g><rect x="147.1090909090909" y="18.600000000000005" width="2" height="81.39999999999999" id="tests-vaccines-14"></rect></g><g><rect x="143.54545454545453" y="33.32923076923077" width="2" height="66.67076923076922" id="tests-vaccines-15"></rect></g><g><rect x="139.9818181818182" y="32.73461538461538" width="2" height="67.26538461538462" id="tests-vaccines-16"></rect></g><g><rect x="136.41818181818184" y="25.713076923076926" width="2" height="74.28692307692307" id="tests-vaccines-17"></rect></g><g><rect x="132.85454545454544" y="85.35153846153847" width="2" height="14.648461538461532" id="tests-vaccines-18"></rect></g><g><rect x="129.29090909090908" y="71.14769230769231" width="2" height="28.85230769230769" id="tests-vaccines-19"></rect></g><g><rect x="125.72727272727273" y="51.598461538461535" width="2" height="48.401538461538465" id="tests-vaccines-20"></rect></g><g><rect x="122.16363636363636" y="10.808461538461533" width="2" height="89.19153846153847" id="tests-vaccines-21"></rect></g><g><rect x="118.6" y="28.97846153846154" width="2" height="71.02153846153846" id="tests-vaccines-22"></rect></g><g><rect x="115.03636363636363" y="26.918461538461536" width="2" height="73.08153846153846" id="tests-vaccines-23"></rect></g><g><rect x="111.47272727272728" y="23.85076923076923" width="2" height="76.14923076923077" id="tests-vaccines-24"></rect></g><g><rect x="107.90909090909089" y="22.941538461538457" width="2" height="77.05846153846154" id="tests-vaccines-25"></rect></g><g><rect x="104.34545454545456" y="67.34769230769231" width="2" height="32.65230769230769" id="tests-vaccines-26"></rect></g><g><rect x="100.78181818181817" y="40.348461538461535" width="2" height="59.651538461538465" id="tests-vaccines-27"></rect></g><g><rect x="97.21818181818183" y="1.7569230769230781" width="2" height="98.24307692307693" id="tests-vaccines-28"></rect></g><g><rect x="93.65454545454546" y="20.220000000000006" width="2" height="79.78" id="tests-vaccines-29"></rect></g><g><rect x="90.09090909090911" y="21.248461538461537" width="2" height="78.75153846153846" id="tests-vaccines-30"></rect></g><g><rect x="86.52727272727273" y="18.214615384615385" width="2" height="81.78538461538461" id="tests-vaccines-31"></rect></g><g><rect x="82.96363636363637" y="18.711538461538456" width="2" height="81.28846153846155" id="tests-vaccines-32"></rect></g><g><rect x="79.4" y="67.81076923076922" width="2" height="32.189230769230775" id="tests-vaccines-33"></rect></g><g><rect x="75.83636363636364" y="41.90384615384616" width="2" height="58.09615384615384" id="tests-vaccines-34"></rect></g><g><rect x="72.27272727272727" y="2.8507692307692345" width="2" height="97.14923076923077" id="tests-vaccines-35"></rect></g><g><rect x="68.70909090909092" y="22.00384615384615" width="2" height="77.99615384615385" id="tests-vaccines-36"></rect></g><g><rect x="65.14545454545454" y="21.764615384615382" width="2" height="78.23538461538462" id="tests-vaccines-37"></rect></g><g><rect x="61.58181818181818" y="21.556153846153848" width="2" height="78.44384615384615" id="tests-vaccines-38"></rect></g><g><rect x="58.018181818181816" y="25.38307692307692" width="2" height="74.61692307692309" id="tests-vaccines-39"></rect></g><g><rect x="54.454545454545446" y="68.89538461538461" width="2" height="31.104615384615386" id="tests-vaccines-40"></rect></g><g><rect x="50.89090909090908" y="44.09461538461539" width="2" height="55.90538461538461" id="tests-vaccines-41"></rect></g><g><rect x="47.32727272727273" y="14.269230769230766" width="2" height="85.73076923076923" id="tests-vaccines-42"></rect></g><g><rect x="43.76363636363636" y="32.269999999999996" width="2" height="67.73" id="tests-vaccines-43"></rect></g><g><rect x="40.199999999999996" y="35.78230769230769" width="2" height="64.21769230769232" id="tests-vaccines-44"></rect></g><g><rect x="36.636363636363626" y="29.79846153846154" width="2" height="70.20153846153846" id="tests-vaccines-45"></rect></g><g><rect x="33.072727272727285" y="32.42307692307692" width="2" height="67.57692307692308" id="tests-vaccines-46"></rect></g><g><rect x="29.509090909090922" y="73.07153846153847" width="2" height="26.928461538461534" id="tests-vaccines-47"></rect></g><g><rect x="25.945454545454556" y="50.75000000000001" width="2" height="49.24999999999999" id="tests-vaccines-48"></rect></g><g><rect x="22.38181818181819" y="19.380769230769236" width="2" height="80.61923076923077" id="tests-vaccines-49"></rect></g><g><rect x="18.818181818181824" y="33.46307692307692" width="2" height="66.53692307692307" id="tests-vaccines-50"></rect></g><g><rect x="15.254545454545461" y="34.78230769230769" width="2" height="65.21769230769232" id="tests-vaccines-51"></rect></g><g><rect x="11.690909090909095" y="31.130000000000003" width="2" height="68.87" id="tests-vaccines-52"></rect></g><g><rect x="8.12727272727273" y="38.43769230769231" width="2" height="61.56230769230769" id="tests-vaccines-53"></rect></g><g><rect x="4.563636363636365" y="76.76384615384615" width="2" height="23.236153846153854" id="tests-vaccines-54"></rect></g><g><rect x="1" y="54.00692307692307" width="2" height="45.99307692307693" id="tests-vaccines-55"></rect></g></g><g class="fg-line tests-vaccines" fill="none" stroke="#92c5de" stroke-width="2" stroke-linecap="round"><path d="M198,46.963956043956046L194.43636363636364,48.153076923076924L190.87272727272727,46.998681318681314L187.30909090909088,46.113296703296704L183.74545454545455,45.37758241758242L180.1818181818182,44.87098901098901L176.61818181818182,44.58648351648351L173.05454545454546,43.93318681318681L169.49090909090907,42.60615384615385L165.92727272727274,41.90153846153846L162.36363636363637,40.8654945054945L158.8,38.9043956043956L155.23636363636365,45.9132967032967L151.6727272727273,45.61505494505494L148.1090909090909,45.49637362637362L144.54545454545453,44.38329670329671L140.9818181818182,43.761758241758244L137.41818181818184,42.93087912087912L133.85454545454544,42.66483516483516L130.29090909090908,33.74912087912087L126.72727272727273,33.20626373626373L123.16363636363636,31.59912087912088L119.6,30.30604395604396L116.03636363636363,29.054835164835158L112.47272727272728,28.24483516483516L108.90909090909089,27.439670329670328L105.34545454545456,26.835384615384616L101.78181818181817,26.901538461538465L98.21818181818183,27.123736263736266L94.65454545454546,27.280000000000005L91.09090909090911,27.534835164835158L87.52727272727273,27.608571428571427L83.96363636363637,28.08593406593407L80.4,29.039010989010993L76.83636363636364,29.19395604395604L73.27272727272727,29.506923076923076L69.70909090909092,31.138131868131868L66.14545454545454,32.604725274725276L62.58181818181818,34.60725274725274L59.018181818181816,35.78472527472527L55.454545454545446,36.790439560439566L51.89090909090908,37.387032967032965L48.32727272727273,38.3378021978022L44.76363636363636,39.068021978021974L41.199999999999996,39.238461538461536L37.636363636363626,39.09560439560439L34.072727272727285,39.28582417582418L30.509090909090922,40.145054945054945L26.945454545454556,40.67252747252746L23.38181818181819,41.137802197802195L19.818181818181824,42.06230769230769L16.25454545454546,42.60934065934065L12.690909090909095,42.669780219780215L9.12727272727273,43.162527472527465L5.563636363636365,44.042087912087915L2,44.541538461538465"></path></g></svg>