<svg about="DATA_PUBLISHED_DATE:2021-12-02,RENDER_DATE:2021-12-02" xmlns="http://www.w3.org/2000/svg" viewBox="0,0,200,100"><g transform="translate(0,0)"></g><g class="fg-bars tests-vaccines" fill="#00183f" stroke="none"><g><rect x="197" y="24.40961538461538" width="2" height="75.59038461538462" id="tests-vaccines-0"></rect></g><g><rect x="193.43636363636364" y="10.04615384615385" width="2" height="89.95384615384614" id="tests-vaccines-1"></rect></g><g><rect x="189.87272727272727" y="13.975000000000005" width="2" height="86.02499999999999" id="tests-vaccines-2"></rect></g><g><rect x="186.30909090909088" y="72.795" width="2" height="27.205" id="tests-vaccines-3"></rect></g><g><rect x="182.74545454545455" y="41.91769230769231" width="2" height="58.08230769230769" id="tests-vaccines-4"></rect></g><g><rect x="179.1818181818182" y="0.01153846153846283" width="2" height="99.98846153846154" id="tests-vaccines-5"></rect></g><g><rect x="175.61818181818182" y="15.816923076923073" width="2" height="84.18307692307692" id="tests-vaccines-6"></rect></g><g><rect x="172.05454545454546" y="13.021538461538462" width="2" height="86.97846153846154" id="tests-vaccines-7"></rect></g><g><rect x="168.49090909090907" y="14.661923076923078" width="2" height="85.33807692307693" id="tests-vaccines-8"></rect></g><g><rect x="164.92727272727274" y="22.471538461538465" width="2" height="77.52846153846153" id="tests-vaccines-9"></rect></g><g><rect x="161.36363636363637" y="73.31615384615384" width="2" height="26.68384615384616" id="tests-vaccines-10"></rect></g><g><rect x="157.8" y="44.424615384615386" width="2" height="55.575384615384614" id="tests-vaccines-11"></rect></g><g><rect x="154.23636363636365" y="3.086923076923076" width="2" height="96.91307692307693" id="tests-vaccines-12"></rect></g><g><rect x="150.6727272727273" y="18.646538461538466" width="2" height="81.35346153846153" id="tests-vaccines-13"></rect></g><g><rect x="147.1090909090909" y="14.941538461538462" width="2" height="85.05846153846154" id="tests-vaccines-14"></rect></g><g><rect x="143.54545454545453" y="17.252692307692307" width="2" height="82.74730769230769" id="tests-vaccines-15"></rect></g><g><rect x="139.9818181818182" y="23.600384615384616" width="2" height="76.39961538461539" id="tests-vaccines-16"></rect></g><g><rect x="136.41818181818184" y="74.33461538461539" width="2" height="25.66538461538461" id="tests-vaccines-17"></rect></g><g><rect x="132.85454545454544" y="51.12076923076923" width="2" height="48.87923076923077" id="tests-vaccines-18"></rect></g><g><rect x="129.29090909090908" y="7.587692307692306" width="2" height="92.41230769230769" id="tests-vaccines-19"></rect></g><g><rect x="125.72727272727273" y="24.840384615384615" width="2" height="75.15961538461539" id="tests-vaccines-20"></rect></g><g><rect x="122.16363636363636" y="27.769230769230766" width="2" height="72.23076923076923" id="tests-vaccines-21"></rect></g><g><rect x="118.6" y="27.518461538461537" width="2" height="72.48153846153846" id="tests-vaccines-22"></rect></g><g><rect x="115.03636363636363" y="31.97" width="2" height="68.03" id="tests-vaccines-23"></rect></g><g><rect x="111.47272727272728" y="80.5473076923077" width="2" height="19.452692307692303" id="tests-vaccines-24"></rect></g><g><rect x="107.90909090909089" y="60.50769230769231" width="2" height="39.49230769230769" id="tests-vaccines-25"></rect></g><g><rect x="104.34545454545456" y="16.519230769230763" width="2" height="83.48076923076924" id="tests-vaccines-26"></rect></g><g><rect x="100.78181818181817" y="30.333846153846157" width="2" height="69.66615384615385" id="tests-vaccines-27"></rect></g><g><rect x="97.21818181818183" y="30.258846153846154" width="2" height="69.74115384615385" id="tests-vaccines-28"></rect></g><g><rect x="93.65454545454546" y="31.119615384615386" width="2" height="68.88038461538461" id="tests-vaccines-29"></rect></g><g><rect x="90.09090909090911" y="37.44538461538461" width="2" height="62.55461538461539" id="tests-vaccines-30"></rect></g><g><rect x="86.52727272727273" y="81.78076923076924" width="2" height="18.219230769230762" id="tests-vaccines-31"></rect></g><g><rect x="82.96363636363637" y="64.49384615384615" width="2" height="35.50615384615385" id="tests-vaccines-32"></rect></g><g><rect x="79.4" y="37.69038461538462" width="2" height="62.30961538461538" id="tests-vaccines-33"></rect></g><g><rect x="75.83636363636364" y="63.03461538461539" width="2" height="36.96538461538461" id="tests-vaccines-34"></rect></g><g><rect x="72.27272727272727" y="64.46461538461539" width="2" height="35.535384615384615" id="tests-vaccines-35"></rect></g><g><rect x="68.70909090909092" y="63.33692307692308" width="2" height="36.66307692307692" id="tests-vaccines-36"></rect></g><g><rect x="65.14545454545454" y="61.794230769230765" width="2" height="38.205769230769235" id="tests-vaccines-37"></rect></g><g><rect x="61.58181818181818" y="88.2803846153846" width="2" height="11.719615384615395" id="tests-vaccines-38"></rect></g><g><rect x="58.018181818181816" y="77.39" width="2" height="22.61" id="tests-vaccines-39"></rect></g><g><rect x="54.454545454545446" y="51.620769230769234" width="2" height="48.379230769230766" id="tests-vaccines-40"></rect></g><g><rect x="50.89090909090908" y="61.3523076923077" width="2" height="38.6476923076923" id="tests-vaccines-41"></rect></g><g><rect x="47.32727272727273" y="61.838076923076926" width="2" height="38.161923076923074" id="tests-vaccines-42"></rect></g><g><rect x="43.76363636363636" y="59.45576923076923" width="2" height="40.54423076923077" id="tests-vaccines-43"></rect></g><g><rect x="40.199999999999996" y="58.93999999999999" width="2" height="41.06000000000001" id="tests-vaccines-44"></rect></g><g><rect x="36.636363636363626" y="86.31576923076923" width="2" height="13.684230769230766" id="tests-vaccines-45"></rect></g><g><rect x="33.072727272727285" y="74.91846153846153" width="2" height="25.08153846153847" id="tests-vaccines-46"></rect></g><g><rect x="29.509090909090922" y="45.184999999999995" width="2" height="54.815000000000005" id="tests-vaccines-47"></rect></g><g><rect x="25.945454545454556" y="55.067692307692305" width="2" height="44.932307692307695" id="tests-vaccines-48"></rect></g><g><rect x="22.38181818181819" y="58.06730769230769" width="2" height="41.93269230769231" id="tests-vaccines-49"></rect></g><g><rect x="18.818181818181824" y="57.14961538461538" width="2" height="42.85038461538462" id="tests-vaccines-50"></rect></g><g><rect x="15.254545454545461" y="57.37692307692308" width="2" height="42.62307692307692" id="tests-vaccines-51"></rect></g><g><rect x="11.690909090909095" y="85.27269230769231" width="2" height="14.72730769230769" id="tests-vaccines-52"></rect></g><g><rect x="8.12727272727273" y="73.87346153846154" width="2" height="26.12653846153846" id="tests-vaccines-53"></rect></g><g><rect x="4.563636363636365" y="44.15307692307693" width="2" height="55.84692307692307" id="tests-vaccines-54"></rect></g><g><rect x="1" y="49.293461538461536" width="2" height="50.706538461538464" id="tests-vaccines-55"></rect></g></g><g class="fg-line tests-vaccines" fill="none" stroke="#92c5de" stroke-width="2" stroke-linecap="round"><path d="M198,25.567417582417583L194.43636363636364,23.940549450549454L190.87272727272727,24.59994505494505L187.30909090909088,25.813736263736264L183.74545454545455,25.88818681318681L180.1818181818182,26.24631868131868L176.61818181818182,26.685659340659342L173.05454545454546,27.089890109890113L169.49090909090907,27.364175824175817L165.92727272727274,27.734285714285722L162.36363636363637,27.89554945054945L158.8,28.041043956043954L155.23636363636365,28.997637362637363L151.6727272727273,29.6406043956044L148.1090909090909,30.52543956043956L144.54545454545453,32.35796703296704L140.9818181818182,33.824505494505495L137.41818181818184,35.020164835164834L133.85454545454544,35.90769230769231L130.29090909090908,37.24868131868132L126.72727272727273,38.52461538461538L123.16363636363636,39.309395604395604L119.6,39.66505494505495L116.03636363636363,40.1795054945055L112.47272727272728,40.9617032967033L108.90909090909089,41.137912087912085L105.34545454545456,41.70736263736264L101.78181818181817,44.731813186813184L98.21818181818183,49.403351648351645L94.65454545454546,54.289890109890116L91.09090909090911,58.89236263736264L87.52727272727273,62.37076923076923L83.96363636363637,63.299285714285716L80.4,65.1415934065934L76.83636363636364,67.13164835164835L73.27272727272727,66.89131868131868L69.70909090909092,66.51609890109891L66.14545454545454,65.96164835164835L62.58181818181818,65.5539010989011L59.018181818181816,65.27324175824177L55.454545454545446,64.92016483516483L51.89090909090908,64.00076923076922L48.32727272727273,63.10296703296703L44.76363636363636,62.56428571428572L41.199999999999996,62.23483516483517L37.636363636363626,62.011538461538464L34.072727272727285,61.862527472527475L30.509090909090922,61.71324175824176L26.945454545454556,61.56582417582417L23.38181818181819,60.74093406593406L19.818181818181824,59.63813186813187L16.25454545454546,58.6426923076923L12.690909090909095,58.20296703296704L9.12727272727273,58.14104395604396L5.563636363636365,57.975549450549444L2,59.99686813186813"></path></g></svg>