<svg meta="{&quot;DATA_PUBLISHED_DATE&quot;:&quot;2023-06-01&quot;,&quot;RENDER_DATE&quot;:&quot;2023-06-01&quot;,&quot;FIRST_DATE&quot;:&quot;2023-03-29&quot;,&quot;LAST_DATE&quot;:&quot;2023-05-23&quot;}" xmlns="http://www.w3.org/2000/svg" viewBox="0,0,200,100"><g transform="translate(0,0)"></g><g class="fg-bars tests-vaccines" fill="#00183f" stroke="none"><g><rect x="197" y="44.89545454545455" width="2" height="55.10454545454545" id="tests-vaccines-0"></rect></g><g><rect x="193.43636363636364" y="43.45909090909091" width="2" height="56.54090909090909" id="tests-vaccines-1"></rect></g><g><rect x="189.87272727272727" y="87.76818181818183" width="2" height="12.23181818181817" id="tests-vaccines-2"></rect></g><g><rect x="186.30909090909088" y="77.30909090909091" width="2" height="22.690909090909088" id="tests-vaccines-3"></rect></g><g><rect x="182.74545454545455" y="37.70454545454546" width="2" height="62.29545454545454" id="tests-vaccines-4"></rect></g><g><rect x="179.1818181818182" y="36.763636363636365" width="2" height="63.236363636363635" id="tests-vaccines-5"></rect></g><g><rect x="175.61818181818182" y="39.78181818181818" width="2" height="60.21818181818182" id="tests-vaccines-6"></rect></g><g><rect x="172.05454545454546" y="36.20909090909091" width="2" height="63.79090909090909" id="tests-vaccines-7"></rect></g><g><rect x="168.49090909090907" y="41.13181818181818" width="2" height="58.86818181818182" id="tests-vaccines-8"></rect></g><g><rect x="164.92727272727274" y="89.33636363636364" width="2" height="10.663636363636357" id="tests-vaccines-9"></rect></g><g><rect x="161.36363636363637" y="76.65454545454546" width="2" height="23.345454545454544" id="tests-vaccines-10"></rect></g><g><rect x="157.8" y="25.454545454545453" width="2" height="74.54545454545455" id="tests-vaccines-11"></rect></g><g><rect x="154.23636363636365" y="26.37272727272727" width="2" height="73.62727272727273" id="tests-vaccines-12"></rect></g><g><rect x="150.6727272727273" y="21.15454545454546" width="2" height="78.84545454545454" id="tests-vaccines-13"></rect></g><g><rect x="147.1090909090909" y="17.627272727272725" width="2" height="82.37272727272727" id="tests-vaccines-14"></rect></g><g><rect x="143.54545454545453" y="15.390909090909089" width="2" height="84.60909090909091" id="tests-vaccines-15"></rect></g><g><rect x="139.9818181818182" y="78.57272727272728" width="2" height="21.427272727272722" id="tests-vaccines-16"></rect></g><g><rect x="136.41818181818184" y="61.445454545454545" width="2" height="38.554545454545455" id="tests-vaccines-17"></rect></g><g><rect x="132.85454545454544" y="7.49545454545455" width="2" height="92.50454545454545" id="tests-vaccines-18"></rect></g><g><rect x="129.29090909090908" y="13.754545454545452" width="2" height="86.24545454545455" id="tests-vaccines-19"></rect></g><g><rect x="125.72727272727273" y="17.959090909090914" width="2" height="82.04090909090908" id="tests-vaccines-20"></rect></g><g><rect x="122.16363636363636" y="23.231818181818188" width="2" height="76.76818181818182" id="tests-vaccines-21"></rect></g><g><rect x="118.6" y="30.227272727272727" width="2" height="69.77272727272728" id="tests-vaccines-22"></rect></g><g><rect x="115.03636363636363" y="91.54545454545455" width="2" height="8.454545454545453" id="tests-vaccines-23"></rect></g><g><rect x="111.47272727272728" y="87.94545454545455" width="2" height="12.054545454545448" id="tests-vaccines-24"></rect></g><g><rect x="107.90909090909089" y="21.89545454545454" width="2" height="78.10454545454546" id="tests-vaccines-25"></rect></g><g><rect x="104.34545454545456" y="28.654545454545456" width="2" height="71.34545454545454" id="tests-vaccines-26"></rect></g><g><rect x="100.78181818181817" y="34.54090909090909" width="2" height="65.45909090909092" id="tests-vaccines-27"></rect></g><g><rect x="97.21818181818183" y="38.52272727272727" width="2" height="61.47727272727273" id="tests-vaccines-28"></rect></g><g><rect x="93.65454545454546" y="39.14545454545455" width="2" height="60.85454545454545" id="tests-vaccines-29"></rect></g><g><rect x="90.09090909090911" y="80.95454545454545" width="2" height="19.045454545454547" id="tests-vaccines-30"></rect></g><g><rect x="86.52727272727273" y="69.69545454545454" width="2" height="30.304545454545462" id="tests-vaccines-31"></rect></g><g><rect x="82.96363636363637" y="39.27727272727273" width="2" height="60.72272727272727" id="tests-vaccines-32"></rect></g><g><rect x="79.4" y="53.71363636363636" width="2" height="46.28636363636364" id="tests-vaccines-33"></rect></g><g><rect x="75.83636363636364" y="68.67727272727274" width="2" height="31.322727272727263" id="tests-vaccines-34"></rect></g><g><rect x="72.27272727272727" y="69.39545454545456" width="2" height="30.604545454545445" id="tests-vaccines-35"></rect></g><g><rect x="68.70909090909092" y="70.21818181818182" width="2" height="29.78181818181818" id="tests-vaccines-36"></rect></g><g><rect x="65.14545454545454" y="92.91363636363637" width="2" height="7.086363636363629" id="tests-vaccines-37"></rect></g><g><rect x="61.58181818181818" y="87.0090909090909" width="2" height="12.9909090909091" id="tests-vaccines-38"></rect></g><g><rect x="58.018181818181816" y="60.41363636363637" width="2" height="39.58636363636363" id="tests-vaccines-39"></rect></g><g><rect x="54.454545454545446" y="66.10454545454544" width="2" height="33.895454545454555" id="tests-vaccines-40"></rect></g><g><rect x="50.89090909090908" y="64.61363636363636" width="2" height="35.38636363636364" id="tests-vaccines-41"></rect></g><g><rect x="47.32727272727273" y="65.64545454545454" width="2" height="34.35454545454546" id="tests-vaccines-42"></rect></g><g><rect x="43.76363636363636" y="65.4" width="2" height="34.599999999999994" id="tests-vaccines-43"></rect></g><g><rect x="40.199999999999996" y="95.48181818181818" width="2" height="4.518181818181816" id="tests-vaccines-44"></rect></g><g><rect x="36.636363636363626" y="82.93636363636364" width="2" height="17.063636363636363" id="tests-vaccines-45"></rect></g><g><rect x="33.072727272727285" y="62.86363636363637" width="2" height="37.13636363636363" id="tests-vaccines-46"></rect></g><g><rect x="29.509090909090922" y="63.31363636363636" width="2" height="36.68636363636364" id="tests-vaccines-47"></rect></g><g><rect x="25.945454545454556" y="62.11818181818182" width="2" height="37.88181818181818" id="tests-vaccines-48"></rect></g><g><rect x="22.38181818181819" y="64.31363636363636" width="2" height="35.68636363636364" id="tests-vaccines-49"></rect></g><g><rect x="18.818181818181824" y="64.85909090909091" width="2" height="35.14090909090909" id="tests-vaccines-50"></rect></g><g><rect x="15.254545454545461" y="91.97272727272727" width="2" height="8.027272727272731" id="tests-vaccines-51"></rect></g><g><rect x="11.690909090909095" y="85.01363636363637" width="2" height="14.986363636363635" id="tests-vaccines-52"></rect></g><g><rect x="8.12727272727273" y="55.87727272727272" width="2" height="44.12272727272728" id="tests-vaccines-53"></rect></g><g><rect x="4.563636363636365" y="59.96818181818182" width="2" height="40.03181818181818" id="tests-vaccines-54"></rect></g><g><rect x="1" y="60.17727272727274" width="2" height="39.82272727272726" id="tests-vaccines-55"></rect></g></g><g class="fg-line tests-vaccines" fill="none" stroke="#92c5de" stroke-width="2" stroke-linecap="round"><path d="M198,52.52597402597403L194.43636363636364,51.28506493506494L190.87272727272727,50.95259740259741L187.30909090909088,51.176623376623375L183.74545454545455,51.08311688311689L180.1818181818182,49.33311688311688L176.61818181818182,47.8487012987013L173.05454545454546,45.18766233766234L169.49090909090907,42.53311688311688L165.92727272727274,38.85584415584415L162.36363636363637,37.31818181818182L158.8,35.14545454545455L155.23636363636365,32.57987012987014L151.6727272727273,30.77727272727273L148.1090909090909,30.320779220779226L144.54545454545453,31.121428571428577L140.9818181818182,33.240909090909085L137.41818181818184,35.09415584415585L133.85454545454544,38.87987012987013L130.29090909090908,40.93701298701299L126.72727272727273,43.06558441558441L123.16363636363636,45.43441558441559L119.6,47.618831168831164L116.03636363636363,48.89285714285714L112.47272727272728,47.37987012987014L108.90909090909089,44.77272727272727L105.34545454545456,47.25584415584415L101.78181818181817,50.835714285714296L98.21818181818183,55.71233766233766L94.65454545454546,60.122727272727275L91.09090909090911,64.56168831168831L87.52727272727273,66.27012987012986L83.96363636363637,68.74350649350649L80.4,71.76298701298701L76.83636363636364,73.53311688311688L73.27272727272727,72.9525974025974L69.70909090909092,72.41688311688311L66.14545454545454,71.72857142857143L62.58181818181818,72.09545454545454L59.018181818181816,71.51363636363637L55.454545454545446,71.86363636363636L51.89090909090908,71.46493506493506L48.32727272727273,71.10844155844156L44.76363636363636,70.91818181818181L41.199999999999996,70.8409090909091L37.636363636363626,70.33961038961039L34.072727272727285,70.63636363636363L30.509090909090922,69.63831168831169L26.945454545454556,69.16038961038961L23.38181818181819,68.88311688311688L19.818181818181824,68.42077922077922L16.25454545454546,67.80324675324675L12.690909090909095,67.6590909090909L9.12727272727273,67.2383116883117L5.563636363636365,66.52467532467531L2,66.37272727272727"></path></g></svg>