<svg about="DATA_PUBLISHED_DATE:2022-01-20,RENDER_DATE:2022-01-20" xmlns="http://www.w3.org/2000/svg" viewBox="0,0,200,100"><g transform="translate(0,0)"></g><g class="fg-bars tests-vaccines" fill="#00183f" stroke="none"><g><rect x="197" y="45.87514285714286" width="2" height="54.12485714285714" id="tests-vaccines-0"></rect></g><g><rect x="193.43636363636364" y="44.58828571428571" width="2" height="55.41171428571429" id="tests-vaccines-1"></rect></g><g><rect x="189.87272727272727" y="47.959714285714284" width="2" height="52.040285714285716" id="tests-vaccines-2"></rect></g><g><rect x="186.30909090909088" y="82.43142857142858" width="2" height="17.568571428571417" id="tests-vaccines-3"></rect></g><g><rect x="182.74545454545455" y="59.178" width="2" height="40.822" id="tests-vaccines-4"></rect></g><g><rect x="179.1818181818182" y="26.22771428571429" width="2" height="73.77228571428572" id="tests-vaccines-5"></rect></g><g><rect x="175.61818181818182" y="35.924" width="2" height="64.076" id="tests-vaccines-6"></rect></g><g><rect x="172.05454545454546" y="38.40428571428571" width="2" height="61.59571428571429" id="tests-vaccines-7"></rect></g><g><rect x="168.49090909090907" y="39.31542857142857" width="2" height="60.68457142857143" id="tests-vaccines-8"></rect></g><g><rect x="164.92727272727274" y="43.88142857142857" width="2" height="56.11857142857143" id="tests-vaccines-9"></rect></g><g><rect x="161.36363636363637" y="84.73371428571429" width="2" height="15.266285714285715" id="tests-vaccines-10"></rect></g><g><rect x="157.8" y="97.79171428571428" width="2" height="2.208285714285722" id="tests-vaccines-11"></rect></g><g><rect x="154.23636363636365" y="78.40742857142857" width="2" height="21.592571428571432" id="tests-vaccines-12"></rect></g><g><rect x="150.6727272727273" y="36.41971428571429" width="2" height="63.58028571428571" id="tests-vaccines-13"></rect></g><g><rect x="147.1090909090909" y="31.689428571428568" width="2" height="68.31057142857144" id="tests-vaccines-14"></rect></g><g><rect x="143.54545454545453" y="31.568571428571424" width="2" height="68.43142857142857" id="tests-vaccines-15"></rect></g><g><rect x="139.9818181818182" y="40.09028571428571" width="2" height="59.90971428571429" id="tests-vaccines-16"></rect></g><g><rect x="136.41818181818184" y="84.09228571428571" width="2" height="15.907714285714292" id="tests-vaccines-17"></rect></g><g><rect x="132.85454545454544" y="99.74114285714286" width="2" height="0.25885714285713846" id="tests-vaccines-18"></rect></g><g><rect x="129.29090909090908" y="87.12457142857143" width="2" height="12.875428571428571" id="tests-vaccines-19"></rect></g><g><rect x="125.72727272727273" y="38.204571428571434" width="2" height="61.795428571428566" id="tests-vaccines-20"></rect></g><g><rect x="122.16363636363636" y="27.14628571428571" width="2" height="72.85371428571429" id="tests-vaccines-21"></rect></g><g><rect x="118.6" y="25.061999999999994" width="2" height="74.938" id="tests-vaccines-22"></rect></g><g><rect x="115.03636363636363" y="30.06428571428571" width="2" height="69.93571428571428" id="tests-vaccines-23"></rect></g><g><rect x="111.47272727272728" y="79.36999999999999" width="2" height="20.63000000000001" id="tests-vaccines-24"></rect></g><g><rect x="107.90909090909089" y="59.18114285714285" width="2" height="40.81885714285715" id="tests-vaccines-25"></rect></g><g><rect x="104.34545454545456" y="25.848285714285712" width="2" height="74.15171428571429" id="tests-vaccines-26"></rect></g><g><rect x="100.78181818181817" y="35.039142857142856" width="2" height="64.96085714285715" id="tests-vaccines-27"></rect></g><g><rect x="97.21818181818183" y="33.506" width="2" height="66.494" id="tests-vaccines-28"></rect></g><g><rect x="93.65454545454546" y="35.329428571428565" width="2" height="64.67057142857144" id="tests-vaccines-29"></rect></g><g><rect x="90.09090909090911" y="37.932857142857145" width="2" height="62.067142857142855" id="tests-vaccines-30"></rect></g><g><rect x="86.52727272727273" y="79.85257142857142" width="2" height="20.147428571428577" id="tests-vaccines-31"></rect></g><g><rect x="82.96363636363637" y="53.875142857142855" width="2" height="46.124857142857145" id="tests-vaccines-32"></rect></g><g><rect x="79.4" y="19.461714285714283" width="2" height="80.53828571428572" id="tests-vaccines-33"></rect></g><g><rect x="75.83636363636364" y="27.481714285714286" width="2" height="72.51828571428571" id="tests-vaccines-34"></rect></g><g><rect x="72.27272727272727" y="25.065428571428573" width="2" height="74.93457142857143" id="tests-vaccines-35"></rect></g><g><rect x="68.70909090909092" y="25.254285714285718" width="2" height="74.74571428571429" id="tests-vaccines-36"></rect></g><g><rect x="65.14545454545454" y="30.55" width="2" height="69.45" id="tests-vaccines-37"></rect></g><g><rect x="61.58181818181818" y="76.12171428571428" width="2" height="23.878285714285724" id="tests-vaccines-38"></rect></g><g><rect x="58.018181818181816" y="47.402857142857144" width="2" height="52.597142857142856" id="tests-vaccines-39"></rect></g><g><rect x="54.454545454545446" y="8.675714285714287" width="2" height="91.32428571428571" id="tests-vaccines-40"></rect></g><g><rect x="50.89090909090908" y="19.300285714285714" width="2" height="80.6997142857143" id="tests-vaccines-41"></rect></g><g><rect x="47.32727272727273" y="21.284571428571432" width="2" height="78.71542857142856" id="tests-vaccines-42"></rect></g><g><rect x="43.76363636363636" y="29.143428571428576" width="2" height="70.85657142857143" id="tests-vaccines-43"></rect></g><g><rect x="40.199999999999996" y="38.716571428571434" width="2" height="61.283428571428566" id="tests-vaccines-44"></rect></g><g><rect x="36.636363636363626" y="81.52371428571429" width="2" height="18.47628571428571" id="tests-vaccines-45"></rect></g><g><rect x="33.072727272727285" y="67.19514285714286" width="2" height="32.804857142857145" id="tests-vaccines-46"></rect></g><g><rect x="29.509090909090922" y="56.18000000000001" width="2" height="43.81999999999999" id="tests-vaccines-47"></rect></g><g><rect x="25.945454545454556" y="98.57685714285715" width="2" height="1.4231428571428495" id="tests-vaccines-48"></rect></g><g><rect x="22.38181818181819" y="41.214" width="2" height="58.786" id="tests-vaccines-49"></rect></g><g><rect x="18.818181818181824" y="30.03314285714286" width="2" height="69.96685714285714" id="tests-vaccines-50"></rect></g><g><rect x="15.254545454545461" y="33.214285714285715" width="2" height="66.78571428571428" id="tests-vaccines-51"></rect></g><g><rect x="11.690909090909095" y="78.77057142857143" width="2" height="21.22942857142857" id="tests-vaccines-52"></rect></g><g><rect x="8.12727272727273" y="54.89828571428572" width="2" height="45.10171428571428" id="tests-vaccines-53"></rect></g><g><rect x="4.563636363636365" y="22.489142857142852" width="2" height="77.51085714285715" id="tests-vaccines-54"></rect></g><g><rect x="1" y="34.61485714285715" width="2" height="65.38514285714285" id="tests-vaccines-55"></rect></g></g><g class="fg-line tests-vaccines" fill="none" stroke="#92c5de" stroke-width="2" stroke-linecap="round"><path d="M198,48.883469387755106L194.43636363636364,47.81620408163265L190.87272727272727,47.0629387755102L187.30909090909088,46.480326530612246L183.74545454545455,46.80922448979592L180.1818181818182,52.325469387755106L176.61818181818182,59.77971428571429L173.05454545454546,59.8505306122449L169.49090909090907,58.891265306122456L165.92727272727274,57.78457142857143L162.36363636363637,57.24297959183673L158.8,57.151346938775504L155.23636363636365,57.429836734693886L151.6727272727273,58.67514285714286L148.1090909090909,58.930122448979596L144.54545454545453,58.28110204081632L140.9818181818182,57.351591836734684L137.41818181818184,55.91930612244897L133.85454545454544,55.24469387755102L130.29090909090908,49.450408163265315L126.72727272727273,40.69665306122449L123.16363636363636,40.24444897959183L119.6,41.15297959183673L116.03636363636363,42.61975510204083L112.47272727272728,43.74383673469387L108.90909090909089,43.812775510204084L105.34545454545456,43.05477551020408L101.78181818181817,42.14240816326531L98.21818181818183,41.062775510204084L94.65454545454546,39.85697959183674L91.09090909090911,38.41767346938775L87.52727272727273,37.36297959183674L83.96363636363637,36.83L80.4,35.90538775510203L76.83636363636364,34.36453061224489L73.27272727272727,33.19575510204083L69.70909090909092,32.655632653061225L66.14545454545454,33.211224489795924L62.58181818181818,34.37787755102041L59.018181818181816,35.14959183673469L55.454545454545446,37.977061224489795L51.89090909090908,44.76338775510204L48.32727272727273,56.08861224489796L44.76363636363636,58.93567346938775L41.199999999999996,59.06277551020409L37.636363636363626,58.27673469387755L34.072727272727285,57.88342857142857L30.509090909090922,56.126734693877545L26.945454545454556,51.313755102040815L23.38181818181819,42.17632653061225L19.818181818181824,41.07391836734694L16.25454545454546,41.79310204081632L12.690909090909095,42.865836734693886L9.12727272727273,42.95963265306123L5.563636363636365,43.27673469387755L2,43.69122448979592"></path></g></svg>