<svg meta="{&quot;DATA_PUBLISHED_DATE&quot;:&quot;2022-02-28&quot;,&quot;RENDER_DATE&quot;:&quot;2022-02-28&quot;,&quot;FIRST_DATE&quot;:&quot;2021-12-26&quot;,&quot;LAST_DATE&quot;:&quot;2022-02-19&quot;}" xmlns="http://www.w3.org/2000/svg" viewBox="0,0,200,100"><g transform="translate(0,0)"></g><g class="fg-bars cases-ep" fill="#00183f" stroke="none"><g><rect x="197" y="97.55875" width="2" height="2.4412499999999966" id="cases-ep-0"></rect></g><g><rect x="193.43636363636364" y="95.798125" width="2" height="4.201875000000001" id="cases-ep-1"></rect></g><g><rect x="189.87272727272727" y="95.023125" width="2" height="4.976875000000007" id="cases-ep-2"></rect></g><g><rect x="186.30909090909088" y="94.14812500000001" width="2" height="5.851874999999993" id="cases-ep-3"></rect></g><g><rect x="182.74545454545455" y="93.22625" width="2" height="6.773750000000007" id="cases-ep-4"></rect></g><g><rect x="179.1818181818182" y="92.020625" width="2" height="7.9793750000000045" id="cases-ep-5"></rect></g><g><rect x="175.61818181818182" y="96.68187499999999" width="2" height="3.318125000000009" id="cases-ep-6"></rect></g><g><rect x="172.05454545454546" y="95.6175" width="2" height="4.382499999999993" id="cases-ep-7"></rect></g><g><rect x="168.49090909090907" y="91.49312499999999" width="2" height="8.506875000000008" id="cases-ep-8"></rect></g><g><rect x="164.92727272727274" y="91.320625" width="2" height="8.679374999999993" id="cases-ep-9"></rect></g><g><rect x="161.36363636363637" y="89.9525" width="2" height="10.0475" id="cases-ep-10"></rect></g><g><rect x="157.8" y="88.94125" width="2" height="11.058750000000003" id="cases-ep-11"></rect></g><g><rect x="154.23636363636365" y="86.02" width="2" height="13.980000000000004" id="cases-ep-12"></rect></g><g><rect x="150.6727272727273" y="94.04187499999999" width="2" height="5.95812500000001" id="cases-ep-13"></rect></g><g><rect x="147.1090909090909" y="92.72" width="2" height="7.280000000000001" id="cases-ep-14"></rect></g><g><rect x="143.54545454545453" y="86.444375" width="2" height="13.555625000000006" id="cases-ep-15"></rect></g><g><rect x="139.9818181818182" y="85.07000000000001" width="2" height="14.929999999999993" id="cases-ep-16"></rect></g><g><rect x="136.41818181818184" y="82.89375" width="2" height="17.106250000000003" id="cases-ep-17"></rect></g><g><rect x="132.85454545454544" y="79.69437500000001" width="2" height="20.305624999999992" id="cases-ep-18"></rect></g><g><rect x="129.29090909090908" y="75.86749999999999" width="2" height="24.132500000000007" id="cases-ep-19"></rect></g><g><rect x="125.72727272727273" y="90.685625" width="2" height="9.314374999999998" id="cases-ep-20"></rect></g><g><rect x="122.16363636363636" y="87.225" width="2" height="12.775000000000006" id="cases-ep-21"></rect></g><g><rect x="118.6" y="75.98812500000001" width="2" height="24.01187499999999" id="cases-ep-22"></rect></g><g><rect x="115.03636363636363" y="72.6" width="2" height="27.400000000000006" id="cases-ep-23"></rect></g><g><rect x="111.47272727272728" y="67.625" width="2" height="32.375" id="cases-ep-24"></rect></g><g><rect x="107.90909090909089" y="62.565000000000005" width="2" height="37.434999999999995" id="cases-ep-25"></rect></g><g><rect x="104.34545454545456" y="56.29625" width="2" height="43.70375" id="cases-ep-26"></rect></g><g><rect x="100.78181818181817" y="82.56625" width="2" height="17.433750000000003" id="cases-ep-27"></rect></g><g><rect x="97.21818181818183" y="75.363125" width="2" height="24.636875000000003" id="cases-ep-28"></rect></g><g><rect x="93.65454545454546" y="51.906875" width="2" height="48.093125" id="cases-ep-29"></rect></g><g><rect x="90.09090909090911" y="44.005" width="2" height="55.995" id="cases-ep-30"></rect></g><g><rect x="86.52727272727273" y="37.178124999999994" width="2" height="62.821875000000006" id="cases-ep-31"></rect></g><g><rect x="82.96363636363637" y="25.38625" width="2" height="74.61375" id="cases-ep-32"></rect></g><g><rect x="79.4" y="49.620625" width="2" height="50.379375" id="cases-ep-33"></rect></g><g><rect x="75.83636363636364" y="75.55875" width="2" height="24.441249999999997" id="cases-ep-34"></rect></g><g><rect x="72.27272727272727" y="64.13875" width="2" height="35.86125" id="cases-ep-35"></rect></g><g><rect x="68.70909090909092" y="35.663124999999994" width="2" height="64.336875" id="cases-ep-36"></rect></g><g><rect x="65.14545454545454" y="29.508124999999996" width="2" height="70.49187500000001" id="cases-ep-37"></rect></g><g><rect x="61.58181818181818" y="21.991875000000004" width="2" height="78.00812499999999" id="cases-ep-38"></rect></g><g><rect x="58.018181818181816" y="17.108124999999998" width="2" height="82.891875" id="cases-ep-39"></rect></g><g><rect x="54.454545454545446" y="13.623125000000002" width="2" height="86.376875" id="cases-ep-40"></rect></g><g><rect x="50.89090909090908" y="66.03875000000001" width="2" height="33.96124999999999" id="cases-ep-41"></rect></g><g><rect x="47.32727272727273" y="53.11812499999999" width="2" height="46.88187500000001" id="cases-ep-42"></rect></g><g><rect x="43.76363636363636" y="17.173125" width="2" height="82.826875" id="cases-ep-43"></rect></g><g><rect x="40.199999999999996" y="12.230624999999995" width="2" height="87.76937500000001" id="cases-ep-44"></rect></g><g><rect x="36.636363636363626" y="4.8825" width="2" height="95.1175" id="cases-ep-45"></rect></g><g><rect x="33.072727272727285" y="3.846875000000005" width="2" height="96.15312499999999" id="cases-ep-46"></rect></g><g><rect x="29.509090909090922" y="14.803124999999994" width="2" height="85.196875" id="cases-ep-47"></rect></g><g><rect x="25.945454545454556" y="65.64375" width="2" height="34.35625" id="cases-ep-48"></rect></g><g><rect x="22.38181818181819" y="80.363125" width="2" height="19.636875000000003" id="cases-ep-49"></rect></g><g><rect x="18.818181818181824" y="66.58625" width="2" height="33.41374999999999" id="cases-ep-50"></rect></g><g><rect x="15.254545454545461" y="47.158125" width="2" height="52.841875" id="cases-ep-51"></rect></g><g><rect x="11.690909090909095" y="44.855000000000004" width="2" height="55.144999999999996" id="cases-ep-52"></rect></g><g><rect x="8.12727272727273" y="45.361875" width="2" height="54.638125" id="cases-ep-53"></rect></g><g><rect x="4.563636363636365" y="53.515" width="2" height="46.485" id="cases-ep-54"></rect></g><g><rect x="1" y="77.955" width="2" height="22.045" id="cases-ep-55"></rect></g></g><g class="fg-line cases-ep" fill="none" stroke="#92c5de" stroke-width="2" stroke-linecap="round"><path d="M198,94.9224107142857L194.43636363636364,94.64508928571429L190.87272727272727,94.03008928571428L187.30909090909088,93.50116071428572L183.74545454545455,92.90178571428571L180.1818181818182,92.28964285714285L176.61818181818182,91.43241071428572L173.05454545454546,91.05526785714285L169.49090909090907,90.64133928571428L165.92727272727274,89.92008928571428L162.36363636363637,89.02714285714286L158.8,88.01875L155.23636363636365,86.69776785714286L151.6727272727273,85.2474107142857L148.1090909090909,84.76794642857143L144.54545454545453,83.98294642857142L140.9818181818182,82.48919642857143L137.41818181818184,80.70776785714287L133.85454545454544,78.52651785714286L130.29090909090908,76.07946428571428L126.72727272727273,73.28357142857142L123.16363636363636,72.1236607142857L119.6,70.42910714285715L116.03636363636363,66.98892857142857L112.47272727272728,62.903928571428565L108.90909090909089,58.554375L105.34545454545456,53.243125L101.78181818181817,52.28946428571428L98.21818181818183,51.28839285714286L94.65454545454546,49.684910714285714L91.09090909090911,47.364375L87.52727272727273,45.293392857142855L83.96363636363637,43.12392857142857L80.4,41.941339285714285L76.83636363636364,36.79883928571428L73.27272727272727,35.43883928571429L69.70909090909092,33.86446428571428L66.14545454545454,31.223035714285718L62.58181818181818,28.754821428571432L59.018181818181816,26.310624999999998L55.454545454545446,24.416160714285716L51.89090909090908,24.584732142857145L48.32727272727273,24.528303571428566L44.76363636363636,28.420446428571434L41.199999999999996,35.47946428571428L37.636363636363626,40.46910714285714L34.072727272727285,46.17946428571429L30.509090909090922,52.11017857142857L26.945454545454556,57.64044642857142L23.38181818181819,59.39919642857143L19.818181818181824,60.92178571428571L16.25454545454546,63.74892857142858L12.690909090909095,68.43446428571428L9.12727272727273,73.49473214285715L5.563636363636365,78.88482142857143L2,83.47044642857144"></path></g></svg>