<svg meta="{&quot;DATA_PUBLISHED_DATE&quot;:&quot;2023-06-01&quot;,&quot;RENDER_DATE&quot;:&quot;2023-06-01&quot;,&quot;FIRST_DATE&quot;:&quot;2023-03-29&quot;,&quot;LAST_DATE&quot;:&quot;2023-05-23&quot;}" xmlns="http://www.w3.org/2000/svg" viewBox="0,0,200,100"><g transform="translate(0,0)"></g><g class="fg-bars cases-ep" fill="#00183f" stroke="none"><g><rect x="197" y="60.22727272727273" width="2" height="39.77272727272727" id="cases-ep-0"></rect></g><g><rect x="193.43636363636364" y="56.09090909090909" width="2" height="43.90909090909091" id="cases-ep-1"></rect></g><g><rect x="189.87272727272727" y="73.54545454545455" width="2" height="26.454545454545453" id="cases-ep-2"></rect></g><g><rect x="186.30909090909088" y="72.45454545454547" width="2" height="27.545454545454533" id="cases-ep-3"></rect></g><g><rect x="182.74545454545455" y="62.63636363636363" width="2" height="37.36363636363637" id="cases-ep-4"></rect></g><g><rect x="179.1818181818182" y="56.54545454545455" width="2" height="43.45454545454545" id="cases-ep-5"></rect></g><g><rect x="175.61818181818182" y="52.18181818181817" width="2" height="47.81818181818183" id="cases-ep-6"></rect></g><g><rect x="172.05454545454546" y="53" width="2" height="47" id="cases-ep-7"></rect></g><g><rect x="168.49090909090907" y="45.68181818181818" width="2" height="54.31818181818182" id="cases-ep-8"></rect></g><g><rect x="164.92727272727274" y="71.95454545454545" width="2" height="28.045454545454547" id="cases-ep-9"></rect></g><g><rect x="161.36363636363637" y="71.04545454545455" width="2" height="28.954545454545453" id="cases-ep-10"></rect></g><g><rect x="157.8" y="54.090909090909086" width="2" height="45.909090909090914" id="cases-ep-11"></rect></g><g><rect x="154.23636363636365" y="44.68181818181818" width="2" height="55.31818181818182" id="cases-ep-12"></rect></g><g><rect x="150.6727272727273" y="46.04545454545455" width="2" height="53.95454545454545" id="cases-ep-13"></rect></g><g><rect x="147.1090909090909" y="45.81818181818181" width="2" height="54.18181818181819" id="cases-ep-14"></rect></g><g><rect x="143.54545454545453" y="39.68181818181819" width="2" height="60.31818181818181" id="cases-ep-15"></rect></g><g><rect x="139.9818181818182" y="66.63636363636364" width="2" height="33.36363636363636" id="cases-ep-16"></rect></g><g><rect x="136.41818181818184" y="68.54545454545455" width="2" height="31.454545454545453" id="cases-ep-17"></rect></g><g><rect x="132.85454545454544" y="54.090909090909086" width="2" height="45.909090909090914" id="cases-ep-18"></rect></g><g><rect x="129.29090909090908" y="54.40909090909091" width="2" height="45.59090909090909" id="cases-ep-19"></rect></g><g><rect x="125.72727272727273" y="49.54545454545455" width="2" height="50.45454545454545" id="cases-ep-20"></rect></g><g><rect x="122.16363636363636" y="43.18181818181818" width="2" height="56.81818181818182" id="cases-ep-21"></rect></g><g><rect x="118.6" y="40.090909090909086" width="2" height="59.909090909090914" id="cases-ep-22"></rect></g><g><rect x="115.03636363636363" y="67.5909090909091" width="2" height="32.40909090909091" id="cases-ep-23"></rect></g><g><rect x="111.47272727272728" y="65.68181818181817" width="2" height="34.31818181818183" id="cases-ep-24"></rect></g><g><rect x="107.90909090909089" y="50.409090909090914" width="2" height="49.590909090909086" id="cases-ep-25"></rect></g><g><rect x="104.34545454545456" y="46.31818181818181" width="2" height="53.68181818181819" id="cases-ep-26"></rect></g><g><rect x="100.78181818181817" y="37.5" width="2" height="62.5" id="cases-ep-27"></rect></g><g><rect x="97.21818181818183" y="37.45454545454545" width="2" height="62.54545454545455" id="cases-ep-28"></rect></g><g><rect x="93.65454545454546" y="27.090909090909086" width="2" height="72.9090909090909" id="cases-ep-29"></rect></g><g><rect x="90.09090909090911" y="61.31818181818181" width="2" height="38.68181818181819" id="cases-ep-30"></rect></g><g><rect x="86.52727272727273" y="61.27272727272728" width="2" height="38.72727272727272" id="cases-ep-31"></rect></g><g><rect x="82.96363636363637" y="47.81818181818181" width="2" height="52.18181818181819" id="cases-ep-32"></rect></g><g><rect x="79.4" y="42.72727272727273" width="2" height="57.27272727272727" id="cases-ep-33"></rect></g><g><rect x="75.83636363636364" y="40.95454545454545" width="2" height="59.04545454545455" id="cases-ep-34"></rect></g><g><rect x="72.27272727272727" y="33.909090909090914" width="2" height="66.0909090909091" id="cases-ep-35"></rect></g><g><rect x="68.70909090909092" y="24.272727272727266" width="2" height="75.72727272727273" id="cases-ep-36"></rect></g><g><rect x="65.14545454545454" y="62.090909090909086" width="2" height="37.909090909090914" id="cases-ep-37"></rect></g><g><rect x="61.58181818181818" y="56.00000000000001" width="2" height="43.99999999999999" id="cases-ep-38"></rect></g><g><rect x="58.018181818181816" y="42.63636363636364" width="2" height="57.36363636363636" id="cases-ep-39"></rect></g><g><rect x="54.454545454545446" y="32.63636363636364" width="2" height="67.36363636363636" id="cases-ep-40"></rect></g><g><rect x="50.89090909090908" y="29.09090909090909" width="2" height="70.9090909090909" id="cases-ep-41"></rect></g><g><rect x="47.32727272727273" y="26.181818181818183" width="2" height="73.81818181818181" id="cases-ep-42"></rect></g><g><rect x="43.76363636363636" y="8.68181818181818" width="2" height="91.31818181818181" id="cases-ep-43"></rect></g><g><rect x="40.199999999999996" y="59.13636363636363" width="2" height="40.86363636363637" id="cases-ep-44"></rect></g><g><rect x="36.636363636363626" y="52.86363636363636" width="2" height="47.13636363636364" id="cases-ep-45"></rect></g><g><rect x="33.072727272727285" y="39.90909090909091" width="2" height="60.09090909090909" id="cases-ep-46"></rect></g><g><rect x="29.509090909090922" y="34.909090909090914" width="2" height="65.0909090909091" id="cases-ep-47"></rect></g><g><rect x="25.945454545454556" y="33.31818181818181" width="2" height="66.68181818181819" id="cases-ep-48"></rect></g><g><rect x="22.38181818181819" y="28.181818181818187" width="2" height="71.81818181818181" id="cases-ep-49"></rect></g><g><rect x="18.818181818181824" y="16.454545454545453" width="2" height="83.54545454545455" id="cases-ep-50"></rect></g><g><rect x="15.254545454545461" y="56.09090909090909" width="2" height="43.90909090909091" id="cases-ep-51"></rect></g><g><rect x="11.690909090909095" y="50.272727272727266" width="2" height="49.727272727272734" id="cases-ep-52"></rect></g><g><rect x="8.12727272727273" y="35.09090909090909" width="2" height="64.9090909090909" id="cases-ep-53"></rect></g><g><rect x="4.563636363636365" y="28.31818181818182" width="2" height="71.68181818181819" id="cases-ep-54"></rect></g><g><rect x="1" y="26.5" width="2" height="73.5" id="cases-ep-55"></rect></g></g><g class="fg-line cases-ep" fill="none" stroke="#92c5de" stroke-width="2" stroke-linecap="round"><path d="M198,61.95454545454546L194.43636363636364,60.922077922077925L190.87272727272727,59.43506493506494L187.30909090909088,59.20779220779221L183.74545454545455,59.006493506493506L180.1818181818182,57.785714285714285L176.61818181818182,56.09090909090909L173.05454545454546,55.21428571428571L169.49090909090907,54.188311688311686L165.92727272727274,53.33116883116883L162.36363636363637,52.571428571428584L158.8,52.21428571428572L155.23636363636365,52.21428571428572L151.6727272727273,53.60389610389611L148.1090909090909,54.1038961038961L144.54545454545453,53.727272727272734L140.9818181818182,53.78571428571428L137.41818181818184,53.922077922077925L133.85454545454544,53.51298701298701L130.29090909090908,52.98701298701298L126.72727272727273,51.831168831168824L123.16363636363636,50.1103896103896L119.6,49.29220779220779L116.03636363636363,47.43506493506494L112.47272727272728,46.538961038961034L108.90909090909089,45.909090909090914L105.34545454545456,45.53896103896105L101.78181818181817,45.02597402597402L98.21818181818183,45.51948051948052L94.65454545454546,45.012987012987004L91.09090909090911,44.61038961038961L87.52727272727273,44.72077922077923L83.96363636363637,43.967532467532465L80.4,43.22727272727273L76.83636363636364,41.785714285714285L73.27272727272727,40.090909090909086L69.70909090909092,38.98701298701299L66.14545454545454,36.75974025974026L62.58181818181818,36.33766233766234L59.018181818181816,35.8896103896104L55.454545454545446,35.5L51.89090909090908,35.824675324675326L48.32727272727273,36.42857142857142L44.76363636363636,36.71428571428572L41.199999999999996,37.824675324675326L37.636363636363626,37.3896103896104L34.072727272727285,37.01948051948052L30.509090909090922,36.331168831168824L26.945454545454556,35.3896103896104L23.38181818181819,34.41558441558441L19.818181818181824,34.064935064935064L16.25454545454546,34.3961038961039L12.690909090909095,34.24675324675325L9.12727272727273,34.94805194805195L5.563636363636365,34.603896103896105L2,34.26623376623377"></path></g></svg>