<svg meta="{&quot;DATA_PUBLISHED_DATE&quot;:&quot;2022-11-10&quot;,&quot;RENDER_DATE&quot;:&quot;2022-11-10&quot;,&quot;FIRST_DATE&quot;:&quot;2022-08-23&quot;,&quot;LAST_DATE&quot;:&quot;2022-10-17&quot;}" xmlns="http://www.w3.org/2000/svg" viewBox="0,0,200,100"><g transform="translate(0,0)"></g><g class="fg-bars death-date" fill="#00183f" stroke="none"><g><rect x="197" y="65" width="2" height="35" id="death-date-0"></rect></g><g><rect x="193.43636363636364" y="77.5" width="2" height="22.5" id="death-date-1"></rect></g><g><rect x="189.87272727272727" y="72.5" width="2" height="27.5" id="death-date-2"></rect></g><g><rect x="186.30909090909088" y="50" width="2" height="50" id="death-date-3"></rect></g><g><rect x="182.74545454545455" y="57.49999999999999" width="2" height="42.50000000000001" id="death-date-4"></rect></g><g><rect x="179.1818181818182" y="60" width="2" height="40" id="death-date-5"></rect></g><g><rect x="175.61818181818182" y="60" width="2" height="40" id="death-date-6"></rect></g><g><rect x="172.05454545454546" y="62.5" width="2" height="37.5" id="death-date-7"></rect></g><g><rect x="168.49090909090907" y="70" width="2" height="30" id="death-date-8"></rect></g><g><rect x="164.92727272727274" y="65" width="2" height="35" id="death-date-9"></rect></g><g><rect x="161.36363636363637" y="55.00000000000001" width="2" height="44.99999999999999" id="death-date-10"></rect></g><g><rect x="157.8" y="57.49999999999999" width="2" height="42.50000000000001" id="death-date-11"></rect></g><g><rect x="154.23636363636365" y="65" width="2" height="35" id="death-date-12"></rect></g><g><rect x="150.6727272727273" y="52.5" width="2" height="47.5" id="death-date-13"></rect></g><g><rect x="147.1090909090909" y="65" width="2" height="35" id="death-date-14"></rect></g><g><rect x="143.54545454545453" y="52.5" width="2" height="47.5" id="death-date-15"></rect></g><g><rect x="139.9818181818182" y="55.00000000000001" width="2" height="44.99999999999999" id="death-date-16"></rect></g><g><rect x="136.41818181818184" y="65" width="2" height="35" id="death-date-17"></rect></g><g><rect x="132.85454545454544" y="47.5" width="2" height="52.5" id="death-date-18"></rect></g><g><rect x="129.29090909090908" y="52.5" width="2" height="47.5" id="death-date-19"></rect></g><g><rect x="125.72727272727273" y="44.99999999999999" width="2" height="55.00000000000001" id="death-date-20"></rect></g><g><rect x="122.16363636363636" y="42.50000000000001" width="2" height="57.49999999999999" id="death-date-21"></rect></g><g><rect x="118.6" y="27.500000000000004" width="2" height="72.5" id="death-date-22"></rect></g><g><rect x="115.03636363636363" y="60" width="2" height="40" id="death-date-23"></rect></g><g><rect x="111.47272727272728" y="32.49999999999999" width="2" height="67.5" id="death-date-24"></rect></g><g><rect x="107.90909090909089" y="52.5" width="2" height="47.5" id="death-date-25"></rect></g><g><rect x="104.34545454545456" y="47.5" width="2" height="52.5" id="death-date-26"></rect></g><g><rect x="100.78181818181817" y="44.99999999999999" width="2" height="55.00000000000001" id="death-date-27"></rect></g><g><rect x="97.21818181818183" y="40" width="2" height="60" id="death-date-28"></rect></g><g><rect x="93.65454545454546" y="30.000000000000004" width="2" height="70" id="death-date-29"></rect></g><g><rect x="90.09090909090911" y="37.5" width="2" height="62.5" id="death-date-30"></rect></g><g><rect x="86.52727272727273" y="50" width="2" height="50" id="death-date-31"></rect></g><g><rect x="82.96363636363637" y="25" width="2" height="75" id="death-date-32"></rect></g><g><rect x="79.4" y="44.99999999999999" width="2" height="55.00000000000001" id="death-date-33"></rect></g><g><rect x="75.83636363636364" y="37.5" width="2" height="62.5" id="death-date-34"></rect></g><g><rect x="72.27272727272727" y="15.000000000000002" width="2" height="85" id="death-date-35"></rect></g><g><rect x="68.70909090909092" y="37.5" width="2" height="62.5" id="death-date-36"></rect></g><g><rect x="65.14545454545454" y="25" width="2" height="75" id="death-date-37"></rect></g><g><rect x="61.58181818181818" y="12.5" width="2" height="87.5" id="death-date-38"></rect></g><g><rect x="58.018181818181816" y="37.5" width="2" height="62.5" id="death-date-39"></rect></g><g><rect x="54.454545454545446" y="17.500000000000004" width="2" height="82.5" id="death-date-40"></rect></g><g><rect x="50.89090909090908" y="22.499999999999996" width="2" height="77.5" id="death-date-41"></rect></g><g><rect x="47.32727272727273" y="25" width="2" height="75" id="death-date-42"></rect></g><g><rect x="43.76363636363636" y="25" width="2" height="75" id="death-date-43"></rect></g><g><rect x="40.199999999999996" y="15.000000000000002" width="2" height="85" id="death-date-44"></rect></g><g><rect x="36.636363636363626" y="2.500000000000002" width="2" height="97.5" id="death-date-45"></rect></g><g><rect x="33.072727272727285" y="40" width="2" height="60" id="death-date-46"></rect></g><g><rect x="29.509090909090922" y="2.500000000000002" width="2" height="97.5" id="death-date-47"></rect></g><g><rect x="25.945454545454556" y="2.500000000000002" width="2" height="97.5" id="death-date-48"></rect></g><g><rect x="22.38181818181819" y="30.000000000000004" width="2" height="70" id="death-date-49"></rect></g><g><rect x="18.818181818181824" y="17.500000000000004" width="2" height="82.5" id="death-date-50"></rect></g><g><rect x="15.254545454545461" y="50" width="2" height="50" id="death-date-51"></rect></g><g><rect x="11.690909090909095" y="2.500000000000002" width="2" height="97.5" id="death-date-52"></rect></g><g><rect x="8.12727272727273" y="22.499999999999996" width="2" height="77.5" id="death-date-53"></rect></g><g><rect x="4.563636363636365" y="17.500000000000004" width="2" height="82.5" id="death-date-54"></rect></g><g><rect x="1" y="35" width="2" height="65" id="death-date-55"></rect></g></g><g class="fg-line death-date" fill="none" stroke="#92c5de" stroke-width="2" stroke-linecap="round"><path d="M198,63.21428571428571L194.43636363636364,62.857142857142854L190.87272727272727,61.78571428571429L187.30909090909088,60.71428571428572L183.74545454545455,61.42857142857143L180.1818181818182,61.42857142857143L176.61818181818182,62.142857142857146L173.05454545454546,61.07142857142858L169.49090909090907,61.42857142857143L165.92727272727274,58.92857142857143L162.36363636363637,57.49999999999999L158.8,58.92857142857143L155.23636363636365,57.49999999999999L151.6727272727273,55.714285714285715L148.1090909090909,54.642857142857146L144.54545454545453,51.42857142857144L140.9818181818182,47.857142857142854L137.41818181818184,48.57142857142856L133.85454545454544,43.92857142857143L130.29090909090908,44.64285714285714L126.72727272727273,43.92857142857143L123.16363636363636,43.92857142857143L119.6,43.57142857142857L116.03636363636363,43.92857142857143L112.47272727272728,40.714285714285715L108.90909090909089,43.214285714285715L105.34545454545456,39.28571428571429L101.78181818181817,38.92857142857144L98.21818181818183,37.857142857142854L94.65454545454546,34.285714285714285L91.09090909090911,35.357142857142854L87.52727272727273,33.57142857142856L83.96363636363637,28.214285714285715L80.4,30.000000000000004L76.83636363636364,26.07142857142857L73.27272727272727,23.92857142857143L69.70909090909092,25.357142857142854L66.14545454545454,23.571428571428566L62.58181818181818,22.142857142857142L59.018181818181816,20.714285714285708L55.454545454545446,21.071428571428562L51.89090909090908,18.928571428571427L48.32727272727273,16.07142857142858L44.76363636363636,16.785714285714292L41.199999999999996,15.714285714285714L37.636363636363626,20.714285714285708L34.072727272727285,20.714285714285708L30.509090909090922,18.214285714285715L26.945454545454556,20.35714285714285L23.38181818181819,25L19.818181818181824,20.714285714285708L16.25454545454546,19.999999999999996L12.690909090909095,11.785714285714288L9.12727272727273,12.142857142857133L5.563636363636365,9.999999999999998L2,9.285714285714286"></path></g></svg>