<svg meta="{&quot;DATA_PUBLISHED_DATE&quot;:&quot;2022-03-28&quot;,&quot;RENDER_DATE&quot;:&quot;2022-03-28&quot;,&quot;FIRST_DATE&quot;:&quot;2022-01-23&quot;,&quot;LAST_DATE&quot;:&quot;2022-03-19&quot;}" xmlns="http://www.w3.org/2000/svg" viewBox="0,0,200,100"><g transform="translate(0,0)"></g><g class="fg-bars cases-ep" fill="#00183f" stroke="none"><g><rect x="197" y="98.40857142857142" width="2" height="1.5914285714285796" id="cases-ep-0"></rect></g><g><rect x="193.43636363636364" y="97.32285714285715" width="2" height="2.6771428571428544" id="cases-ep-1"></rect></g><g><rect x="189.87272727272727" y="96.88" width="2" height="3.1200000000000045" id="cases-ep-2"></rect></g><g><rect x="186.30909090909088" y="96.65285714285714" width="2" height="3.347142857142856" id="cases-ep-3"></rect></g><g><rect x="182.74545454545455" y="96.44714285714285" width="2" height="3.5528571428571496" id="cases-ep-4"></rect></g><g><rect x="179.1818181818182" y="96.01571428571428" width="2" height="3.9842857142857184" id="cases-ep-5"></rect></g><g><rect x="175.61818181818182" y="98.25857142857143" width="2" height="1.741428571428571" id="cases-ep-6"></rect></g><g><rect x="172.05454545454546" y="97.91571428571429" width="2" height="2.0842857142857127" id="cases-ep-7"></rect></g><g><rect x="168.49090909090907" y="96.77" width="2" height="3.230000000000004" id="cases-ep-8"></rect></g><g><rect x="164.92727272727274" y="96.41428571428573" width="2" height="3.5857142857142748" id="cases-ep-9"></rect></g><g><rect x="161.36363636363637" y="95.77428571428571" width="2" height="4.2257142857142895" id="cases-ep-10"></rect></g><g><rect x="157.8" y="95.37857142857142" width="2" height="4.621428571428581" id="cases-ep-11"></rect></g><g><rect x="154.23636363636365" y="94.6" width="2" height="5.400000000000006" id="cases-ep-12"></rect></g><g><rect x="150.6727272727273" y="97.47571428571429" width="2" height="2.5242857142857105" id="cases-ep-13"></rect></g><g><rect x="147.1090909090909" y="97.08428571428571" width="2" height="2.9157142857142873" id="cases-ep-14"></rect></g><g><rect x="143.54545454545453" y="95.55142857142857" width="2" height="4.448571428571427" id="cases-ep-15"></rect></g><g><rect x="139.9818181818182" y="94.93" width="2" height="5.069999999999993" id="cases-ep-16"></rect></g><g><rect x="136.41818181818184" y="94.38571428571429" width="2" height="5.614285714285714" id="cases-ep-17"></rect></g><g><rect x="132.85454545454544" y="93.38" width="2" height="6.6200000000000045" id="cases-ep-18"></rect></g><g><rect x="129.29090909090908" y="92.55714285714286" width="2" height="7.442857142857136" id="cases-ep-19"></rect></g><g><rect x="125.72727272727273" y="96.64142857142856" width="2" height="3.3585714285714374" id="cases-ep-20"></rect></g><g><rect x="122.16363636363636" y="96.17428571428572" width="2" height="3.825714285714284" id="cases-ep-21"></rect></g><g><rect x="118.6" y="93.21571428571428" width="2" height="6.784285714285716" id="cases-ep-22"></rect></g><g><rect x="115.03636363636363" y="92.67999999999999" width="2" height="7.320000000000007" id="cases-ep-23"></rect></g><g><rect x="111.47272727272728" y="92.04714285714286" width="2" height="7.952857142857141" id="cases-ep-24"></rect></g><g><rect x="107.90909090909089" y="89.83571428571429" width="2" height="10.164285714285711" id="cases-ep-25"></rect></g><g><rect x="104.34545454545456" y="92.38571428571429" width="2" height="7.614285714285714" id="cases-ep-26"></rect></g><g><rect x="100.78181818181817" y="94.88" width="2" height="5.1200000000000045" id="cases-ep-27"></rect></g><g><rect x="97.21818181818183" y="94.03571428571429" width="2" height="5.964285714285708" id="cases-ep-28"></rect></g><g><rect x="93.65454545454546" y="89.96" width="2" height="10.040000000000006" id="cases-ep-29"></rect></g><g><rect x="90.09090909090911" y="88.42142857142858" width="2" height="11.578571428571422" id="cases-ep-30"></rect></g><g><rect x="86.52727272727273" y="86.64" width="2" height="13.36" id="cases-ep-31"></rect></g><g><rect x="82.96363636363637" y="84.48714285714286" width="2" height="15.512857142857143" id="cases-ep-32"></rect></g><g><rect x="79.4" y="81.70428571428572" width="2" height="18.295714285714283" id="cases-ep-33"></rect></g><g><rect x="75.83636363636364" y="92.07857142857144" width="2" height="7.921428571428564" id="cases-ep-34"></rect></g><g><rect x="72.27272727272727" y="89.82" width="2" height="10.180000000000007" id="cases-ep-35"></rect></g><g><rect x="68.70909090909092" y="80.36999999999999" width="2" height="19.63000000000001" id="cases-ep-36"></rect></g><g><rect x="65.14545454545454" y="79.87857142857143" width="2" height="20.121428571428567" id="cases-ep-37"></rect></g><g><rect x="61.58181818181818" y="77.01571428571428" width="2" height="22.98428571428572" id="cases-ep-38"></rect></g><g><rect x="58.018181818181816" y="74.56" width="2" height="25.439999999999998" id="cases-ep-39"></rect></g><g><rect x="54.454545454545446" y="68.22428571428571" width="2" height="31.775714285714287" id="cases-ep-40"></rect></g><g><rect x="50.89090909090908" y="86.03285714285714" width="2" height="13.96714285714286" id="cases-ep-41"></rect></g><g><rect x="47.32727272727273" y="83.35000000000001" width="2" height="16.64999999999999" id="cases-ep-42"></rect></g><g><rect x="43.76363636363636" y="68.99285714285715" width="2" height="31.007142857142853" id="cases-ep-43"></rect></g><g><rect x="40.199999999999996" y="65.74857142857142" width="2" height="34.251428571428576" id="cases-ep-44"></rect></g><g><rect x="36.636363636363626" y="61.02000000000001" width="2" height="38.97999999999999" id="cases-ep-45"></rect></g><g><rect x="33.072727272727285" y="53.64714285714286" width="2" height="46.35285714285714" id="cases-ep-46"></rect></g><g><rect x="29.509090909090922" y="45.207142857142856" width="2" height="54.792857142857144" id="cases-ep-47"></rect></g><g><rect x="25.945454545454556" y="78.23857142857142" width="2" height="21.76142857142858" id="cases-ep-48"></rect></g><g><rect x="22.38181818181819" y="70.44857142857143" width="2" height="29.551428571428573" id="cases-ep-49"></rect></g><g><rect x="18.818181818181824" y="45.06" width="2" height="54.94" id="cases-ep-50"></rect></g><g><rect x="15.254545454545461" y="37.39" width="2" height="62.61" id="cases-ep-51"></rect></g><g><rect x="11.690909090909095" y="26.447142857142858" width="2" height="73.55285714285714" id="cases-ep-52"></rect></g><g><rect x="8.12727272727273" y="14.915714285714287" width="2" height="85.08428571428571" id="cases-ep-53"></rect></g><g><rect x="4.563636363636365" y="0.13142857142857123" width="2" height="99.86857142857143" id="cases-ep-54"></rect></g><g><rect x="1" y="59.84571428571428" width="2" height="40.15428571428572" id="cases-ep-55"></rect></g></g><g class="fg-line cases-ep" fill="none" stroke="#92c5de" stroke-width="2" stroke-linecap="round"><path d="M198,97.14081632653061L194.43636363636364,97.07040816326531L190.87272727272727,96.99142857142857L187.30909090909088,96.92489795918368L183.74545454545455,96.79938775510205L180.1818181818182,96.64673469387756L176.61818181818182,96.44448979591836L173.05454545454546,96.33265306122449L169.49090909090907,96.21387755102042L165.92727272727274,96.03979591836735L162.36363636363637,95.82775510204081L158.8,95.62938775510203L155.23636363636365,95.34387755102041L151.6727272727273,95.05204081632654L148.1090909090909,94.93285714285715L144.54545454545453,94.80285714285715L140.9818181818182,94.46918367346939L137.41818181818184,94.14775510204082L133.85454545454544,93.81367346938777L130.29090909090908,93.30734693877551L126.72727272727273,93.28285714285714L123.16363636363636,93.03122448979592L119.6,92.72571428571429L116.03636363636363,92.26061224489796L112.47272727272728,91.65224489795918L108.90909090909089,90.87979591836735L105.34545454545456,90.11571428571429L101.78181818181817,88.58979591836736L98.21818181818183,88.18959183673469L94.65454545454546,87.58734693877551L91.09090909090911,86.2173469387755L87.52727272727273,84.9969387755102L83.96363636363637,83.62204081632653L80.4,82.20387755102041L76.83636363636364,80.27816326530612L73.27272727272727,79.41448979591837L69.70909090909092,78.49020408163265L66.14545454545454,76.86489795918368L62.58181818181818,74.84632653061225L59.018181818181816,72.56122448979592L55.454545454545446,69.57367346938776L51.89090909090908,66.28551020408163L48.32727272727273,65.17204081632653L44.76363636363636,63.328979591836735L41.199999999999996,59.91L37.636363636363626,55.85877551020408L34.072727272727285,50.91979591836735L30.509090909090922,45.38673469387755L26.945454545454556,38.94734693877551L23.38181818181819,36.31979591836735L19.818181818181824,32.47061224489796L16.25454545454546,24.680408163265312L12.690909090909095,15.425714285714287L9.12727272727273,5.449183673469382L5.563636363636365,-6.654081632653064L2,-8.864285714285725"></path></g></svg>