<svg about="DATA_PUBLISHED_DATE:2021-11-10,RENDER_DATE:2021-11-10" xmlns="http://www.w3.org/2000/svg" viewBox="0,0,200,100"><g transform="translate(0,0)"></g><g class="fg-bars death-date" fill="#00183f" stroke="none"><g><rect x="197" y="72.5" width="2" height="27.5" id="death-date-0"></rect></g><g><rect x="193.43636363636364" y="68.125" width="2" height="31.875" id="death-date-1"></rect></g><g><rect x="189.87272727272727" y="70" width="2" height="30" id="death-date-2"></rect></g><g><rect x="186.30909090909088" y="72.5" width="2" height="27.5" id="death-date-3"></rect></g><g><rect x="182.74545454545455" y="67.5" width="2" height="32.5" id="death-date-4"></rect></g><g><rect x="179.1818181818182" y="73.125" width="2" height="26.875" id="death-date-5"></rect></g><g><rect x="175.61818181818182" y="64.375" width="2" height="35.625" id="death-date-6"></rect></g><g><rect x="172.05454545454546" y="64.375" width="2" height="35.625" id="death-date-7"></rect></g><g><rect x="168.49090909090907" y="60" width="2" height="40" id="death-date-8"></rect></g><g><rect x="164.92727272727274" y="62.5" width="2" height="37.5" id="death-date-9"></rect></g><g><rect x="161.36363636363637" y="55.625" width="2" height="44.375" id="death-date-10"></rect></g><g><rect x="157.8" y="51.24999999999999" width="2" height="48.75000000000001" id="death-date-11"></rect></g><g><rect x="154.23636363636365" y="40.625" width="2" height="59.375" id="death-date-12"></rect></g><g><rect x="150.6727272727273" y="46.875" width="2" height="53.125" id="death-date-13"></rect></g><g><rect x="147.1090909090909" y="58.12500000000001" width="2" height="41.87499999999999" id="death-date-14"></rect></g><g><rect x="143.54545454545453" y="51.24999999999999" width="2" height="48.75000000000001" id="death-date-15"></rect></g><g><rect x="139.9818181818182" y="35.62499999999999" width="2" height="64.375" id="death-date-16"></rect></g><g><rect x="136.41818181818184" y="48.12499999999999" width="2" height="51.87500000000001" id="death-date-17"></rect></g><g><rect x="132.85454545454544" y="51.87500000000001" width="2" height="48.12499999999999" id="death-date-18"></rect></g><g><rect x="129.29090909090908" y="41.87499999999999" width="2" height="58.12500000000001" id="death-date-19"></rect></g><g><rect x="125.72727272727273" y="44.375" width="2" height="55.625" id="death-date-20"></rect></g><g><rect x="122.16363636363636" y="44.375" width="2" height="55.625" id="death-date-21"></rect></g><g><rect x="118.6" y="47.5" width="2" height="52.5" id="death-date-22"></rect></g><g><rect x="115.03636363636363" y="32.49999999999999" width="2" height="67.5" id="death-date-23"></rect></g><g><rect x="111.47272727272728" y="36.875" width="2" height="63.125" id="death-date-24"></rect></g><g><rect x="107.90909090909089" y="32.49999999999999" width="2" height="67.5" id="death-date-25"></rect></g><g><rect x="104.34545454545456" y="23.124999999999996" width="2" height="76.875" id="death-date-26"></rect></g><g><rect x="100.78181818181817" y="44.99999999999999" width="2" height="55.00000000000001" id="death-date-27"></rect></g><g><rect x="97.21818181818183" y="30.000000000000004" width="2" height="70" id="death-date-28"></rect></g><g><rect x="93.65454545454546" y="47.5" width="2" height="52.5" id="death-date-29"></rect></g><g><rect x="90.09090909090911" y="24.375000000000004" width="2" height="75.625" id="death-date-30"></rect></g><g><rect x="86.52727272727273" y="28.125" width="2" height="71.875" id="death-date-31"></rect></g><g><rect x="82.96363636363637" y="26.875000000000004" width="2" height="73.125" id="death-date-32"></rect></g><g><rect x="79.4" y="28.125" width="2" height="71.875" id="death-date-33"></rect></g><g><rect x="75.83636363636364" y="33.75" width="2" height="66.25" id="death-date-34"></rect></g><g><rect x="72.27272727272727" y="21.250000000000004" width="2" height="78.75" id="death-date-35"></rect></g><g><rect x="68.70909090909092" y="32.49999999999999" width="2" height="67.5" id="death-date-36"></rect></g><g><rect x="65.14545454545454" y="25" width="2" height="75" id="death-date-37"></rect></g><g><rect x="61.58181818181818" y="11.250000000000004" width="2" height="88.75" id="death-date-38"></rect></g><g><rect x="58.018181818181816" y="15.000000000000002" width="2" height="85" id="death-date-39"></rect></g><g><rect x="54.454545454545446" y="23.750000000000004" width="2" height="76.25" id="death-date-40"></rect></g><g><rect x="50.89090909090908" y="24.375000000000004" width="2" height="75.625" id="death-date-41"></rect></g><g><rect x="47.32727272727273" y="19.999999999999996" width="2" height="80" id="death-date-42"></rect></g><g><rect x="43.76363636363636" y="15.000000000000002" width="2" height="85" id="death-date-43"></rect></g><g><rect x="40.199999999999996" y="35" width="2" height="65" id="death-date-44"></rect></g><g><rect x="36.636363636363626" y="17.500000000000004" width="2" height="82.5" id="death-date-45"></rect></g><g><rect x="33.072727272727285" y="10.624999999999996" width="2" height="89.375" id="death-date-46"></rect></g><g><rect x="29.509090909090922" y="26.875000000000004" width="2" height="73.125" id="death-date-47"></rect></g><g><rect x="25.945454545454556" y="21.875" width="2" height="78.125" id="death-date-48"></rect></g><g><rect x="22.38181818181819" y="28.125" width="2" height="71.875" id="death-date-49"></rect></g><g><rect x="18.818181818181824" y="37.5" width="2" height="62.5" id="death-date-50"></rect></g><g><rect x="15.254545454545461" y="14.375000000000004" width="2" height="85.625" id="death-date-51"></rect></g><g><rect x="11.690909090909095" y="26.249999999999996" width="2" height="73.75" id="death-date-52"></rect></g><g><rect x="8.12727272727273" y="21.875" width="2" height="78.125" id="death-date-53"></rect></g><g><rect x="4.563636363636365" y="23.750000000000004" width="2" height="76.25" id="death-date-54"></rect></g><g><rect x="1" y="25" width="2" height="75" id="death-date-55"></rect></g></g><g class="fg-line death-date" fill="none" stroke="#92c5de" stroke-width="2" stroke-linecap="round"><path d="M198,69.73214285714285L194.43636363636364,68.57142857142857L190.87272727272727,67.41071428571428L187.30909090909088,66.33928571428571L183.74545454545455,63.92857142857142L180.1818181818182,61.60714285714286L176.61818181818182,56.96428571428571L173.05454545454546,54.46428571428571L169.49090909090907,53.57142857142857L165.92727272727274,52.32142857142856L162.36363636363637,48.482142857142854L158.8,47.410714285714285L155.23636363636365,47.5L151.6727272727273,47.67857142857144L148.1090909090909,47.32142857142857L144.54545454545453,45.357142857142854L140.9818181818182,44.82142857142857L137.41818181818184,44.375L133.85454545454544,42.767857142857146L130.29090909090908,40L126.72727272727273,37.32142857142857L123.16363636363636,37.410714285714285L119.6,35.357142857142854L116.03636363636363,35.357142857142854L112.47272727272728,34.19642857142857L108.90909090909089,32.94642857142856L105.34545454545456,32.14285714285714L101.78181818181817,32.857142857142854L98.21818181818183,31.25L94.65454545454546,30.000000000000004L91.09090909090911,27.857142857142858L87.52727272727273,27.946428571428573L83.96363636363637,25.535714285714285L80.4,23.839285714285708L76.83636363636364,23.214285714285708L73.27272727272727,21.875L69.70909090909092,21.696428571428573L66.14545454545454,19.19642857142858L62.58181818181818,20.625000000000004L59.018181818181816,21.517857142857146L55.454545454545446,20.892857142857146L51.89090909090908,21.339285714285715L48.32727272727273,20.98214285714286L44.76363636363636,22.142857142857142L41.199999999999996,25.357142857142854L37.636363636363626,22.410714285714285L34.072727272727285,23.660714285714292L30.509090909090922,25.267857142857142L26.945454545454556,24.821428571428573L23.38181818181819,25.267857142857142L19.818181818181824,26.339285714285708L16.25454545454546,25.803571428571438L12.690909090909095,28.392857142857142L9.12727272727273,30.446428571428562L5.563636363636365,32.58928571428571L2,35.357142857142854"></path></g></svg>