<svg meta="{&quot;DATA_PUBLISHED_DATE&quot;:&quot;2023-02-09&quot;,&quot;RENDER_DATE&quot;:&quot;2023-02-16&quot;,&quot;FIRST_DATE&quot;:&quot;2022-12-08&quot;,&quot;LAST_DATE&quot;:&quot;2023-02-01&quot;}" xmlns="http://www.w3.org/2000/svg" viewBox="0,0,200,100"><g transform="translate(0,0)"></g><g class="fg-bars tests-vaccines" fill="#00183f" stroke="none"><g><rect x="197" y="79.77875" width="2" height="20.221249999999998" id="tests-vaccines-0"></rect></g><g><rect x="193.43636363636364" y="79.41125" width="2" height="20.588750000000005" id="tests-vaccines-1"></rect></g><g><rect x="189.87272727272727" y="80.2975" width="2" height="19.7025" id="tests-vaccines-2"></rect></g><g><rect x="186.30909090909088" y="94.87875" width="2" height="5.121250000000003" id="tests-vaccines-3"></rect></g><g><rect x="182.74545454545455" y="89.38000000000001" width="2" height="10.61999999999999" id="tests-vaccines-4"></rect></g><g><rect x="179.1818181818182" y="73.73375" width="2" height="26.26625" id="tests-vaccines-5"></rect></g><g><rect x="175.61818181818182" y="77.98375" width="2" height="22.01625" id="tests-vaccines-6"></rect></g><g><rect x="172.05454545454546" y="76.43875" width="2" height="23.56125" id="tests-vaccines-7"></rect></g><g><rect x="168.49090909090907" y="77.4825" width="2" height="22.5175" id="tests-vaccines-8"></rect></g><g><rect x="164.92727272727274" y="77.56" width="2" height="22.439999999999998" id="tests-vaccines-9"></rect></g><g><rect x="161.36363636363637" y="94.6375" width="2" height="5.362499999999997" id="tests-vaccines-10"></rect></g><g><rect x="157.8" y="87.8725" width="2" height="12.127499999999998" id="tests-vaccines-11"></rect></g><g><rect x="154.23636363636365" y="68.51125" width="2" height="31.488749999999996" id="tests-vaccines-12"></rect></g><g><rect x="150.6727272727273" y="72.8" width="2" height="27.200000000000003" id="tests-vaccines-13"></rect></g><g><rect x="147.1090909090909" y="72.05375000000001" width="2" height="27.946249999999992" id="tests-vaccines-14"></rect></g><g><rect x="143.54545454545453" y="70.355" width="2" height="29.644999999999996" id="tests-vaccines-15"></rect></g><g><rect x="139.9818181818182" y="84.7025" width="2" height="15.2975" id="tests-vaccines-16"></rect></g><g><rect x="136.41818181818184" y="90.80375000000001" width="2" height="9.196249999999992" id="tests-vaccines-17"></rect></g><g><rect x="132.85454545454544" y="82.76625" width="2" height="17.23375" id="tests-vaccines-18"></rect></g><g><rect x="129.29090909090908" y="56.68875" width="2" height="43.31125" id="tests-vaccines-19"></rect></g><g><rect x="125.72727272727273" y="64.0575" width="2" height="35.942499999999995" id="tests-vaccines-20"></rect></g><g><rect x="122.16363636363636" y="64.58874999999999" width="2" height="35.41125000000001" id="tests-vaccines-21"></rect></g><g><rect x="118.6" y="67.88250000000001" width="2" height="32.11749999999999" id="tests-vaccines-22"></rect></g><g><rect x="115.03636363636363" y="63.522499999999994" width="2" height="36.477500000000006" id="tests-vaccines-23"></rect></g><g><rect x="111.47272727272728" y="88.3925" width="2" height="11.607500000000002" id="tests-vaccines-24"></rect></g><g><rect x="107.90909090909089" y="75.3725" width="2" height="24.627499999999998" id="tests-vaccines-25"></rect></g><g><rect x="104.34545454545456" y="43.498749999999994" width="2" height="56.501250000000006" id="tests-vaccines-26"></rect></g><g><rect x="100.78181818181817" y="58.2225" width="2" height="41.7775" id="tests-vaccines-27"></rect></g><g><rect x="97.21818181818183" y="57.2225" width="2" height="42.7775" id="tests-vaccines-28"></rect></g><g><rect x="93.65454545454546" y="49.37375000000001" width="2" height="50.62624999999999" id="tests-vaccines-29"></rect></g><g><rect x="90.09090909090911" y="81.78750000000001" width="2" height="18.21249999999999" id="tests-vaccines-30"></rect></g><g><rect x="86.52727272727273" y="98.95" width="2" height="1.0499999999999972" id="tests-vaccines-31"></rect></g><g><rect x="82.96363636363637" y="88.45375" width="2" height="11.54625" id="tests-vaccines-32"></rect></g><g><rect x="79.4" y="47.463750000000005" width="2" height="52.536249999999995" id="tests-vaccines-33"></rect></g><g><rect x="75.83636363636364" y="44.76125" width="2" height="55.23875" id="tests-vaccines-34"></rect></g><g><rect x="72.27272727272727" y="43.0775" width="2" height="56.9225" id="tests-vaccines-35"></rect></g><g><rect x="68.70909090909092" y="39.298750000000005" width="2" height="60.701249999999995" id="tests-vaccines-36"></rect></g><g><rect x="65.14545454545454" y="80.22" width="2" height="19.78" id="tests-vaccines-37"></rect></g><g><rect x="61.58181818181818" y="99.715" width="2" height="0.2849999999999966" id="tests-vaccines-38"></rect></g><g><rect x="58.018181818181816" y="91.89" width="2" height="8.11" id="tests-vaccines-39"></rect></g><g><rect x="54.454545454545446" y="50.7425" width="2" height="49.2575" id="tests-vaccines-40"></rect></g><g><rect x="50.89090909090908" y="44.379999999999995" width="2" height="55.620000000000005" id="tests-vaccines-41"></rect></g><g><rect x="47.32727272727273" y="38.301249999999996" width="2" height="61.698750000000004" id="tests-vaccines-42"></rect></g><g><rect x="43.76363636363636" y="34.39375" width="2" height="65.60625" id="tests-vaccines-43"></rect></g><g><rect x="40.199999999999996" y="28.732500000000005" width="2" height="71.2675" id="tests-vaccines-44"></rect></g><g><rect x="36.636363636363626" y="79.2875" width="2" height="20.712500000000006" id="tests-vaccines-45"></rect></g><g><rect x="33.072727272727285" y="60.805" width="2" height="39.195" id="tests-vaccines-46"></rect></g><g><rect x="29.509090909090922" y="18.365" width="2" height="81.635" id="tests-vaccines-47"></rect></g><g><rect x="25.945454545454556" y="31.38375" width="2" height="68.61625000000001" id="tests-vaccines-48"></rect></g><g><rect x="22.38181818181819" y="29.951249999999995" width="2" height="70.04875000000001" id="tests-vaccines-49"></rect></g><g><rect x="18.818181818181824" y="29.21125" width="2" height="70.78875" id="tests-vaccines-50"></rect></g><g><rect x="15.254545454545461" y="27.263749999999998" width="2" height="72.73625" id="tests-vaccines-51"></rect></g><g><rect x="11.690909090909095" y="78.05499999999999" width="2" height="21.945000000000007" id="tests-vaccines-52"></rect></g><g><rect x="8.12727272727273" y="55.87875" width="2" height="44.12125" id="tests-vaccines-53"></rect></g><g><rect x="4.563636363636365" y="6.851249999999998" width="2" height="93.14875" id="tests-vaccines-54"></rect></g><g><rect x="1" y="21.958750000000006" width="2" height="78.04124999999999" id="tests-vaccines-55"></rect></g></g><g class="fg-line tests-vaccines" fill="none" stroke="#92c5de" stroke-width="2" stroke-linecap="round"><path d="M198,82.20910714285714L194.43636363636364,81.73196428571428L190.87272727272727,81.45642857142857L187.30909090909088,81.06535714285714L183.74545454545455,81.03089285714286L180.1818181818182,80.81553571428572L176.61818181818182,80.06946428571429L173.05454545454546,79.32892857142858L169.49090909090907,78.7025L165.92727272727274,77.68428571428572L162.36363636363637,78.70464285714286L158.8,78.15696428571428L155.23636363636365,77.42750000000001L151.6727272727273,75.73857142857143L148.1090909090909,74.48964285714285L144.54545454545453,73.42321428571428L140.9818181818182,73.07000000000001L137.41818181818184,70.04428571428572L133.85454545454544,69.69982142857143L130.29090909090908,68.64357142857142L126.72727272727273,66.75928571428571L123.16363636363636,65.92571428571428L119.6,64.87339285714286L116.03636363636363,62.22928571428572L112.47272727272728,64.83857142857144L108.90909090909089,66.34678571428572L105.34545454545456,68.2155357142857L101.78181818181817,68.78196428571428L98.21818181818183,66.85892857142856L94.65454545454546,64.83821428571429L91.09090909090911,63.39892857142857L87.52727272727273,63.175000000000004L83.96363636363637,63.284285714285716L80.4,63.77517857142858L76.83636363636364,64.24357142857143L73.27272727272727,64.18910714285715L69.70909090909092,63.50678571428572L66.14545454545454,62.80607142857142L62.58181818181818,55.450714285714284L59.018181818181816,52.532500000000006L55.454545454545446,48.09178571428572L51.89090909090908,43.46642857142857L48.32727272727273,41.609821428571436L44.76363636363636,40.416964285714286L41.199999999999996,39.676607142857144L37.636363636363626,39.46678571428571L34.072727272727285,39.29071428571429L30.509090909090922,38.58696428571429L26.945454545454556,36.942142857142855L23.38181818181819,35.59571428571429L19.818181818181824,34.265178571428564L16.25454545454546,33.66839285714285L12.690909090909095,33.56803571428571L9.12727272727273,33.520535714285714L5.563636363636365,33.56428571428572L2,33.190535714285716"></path></g></svg>