<!-- --><svg viewBox="0,0,200,100"><g transform="translate(0,0)"></g><g class="fg-bars pos-rate"><g><rect x="200" y="72.86666666666667" width="2" height="27.133333333333326" id="pos-rate-0"></rect></g><g><rect x="196.36363636363637" y="77.24444444444445" width="2" height="22.755555555555546" id="pos-rate-1"></rect></g><g><rect x="192.72727272727272" y="68.53333333333333" width="2" height="31.46666666666667" id="pos-rate-2"></rect></g><g><rect x="189.0909090909091" y="50.97222222222222" width="2" height="49.02777777777778" id="pos-rate-3"></rect></g><g><rect x="185.45454545454544" y="43.89999999999999" width="2" height="56.10000000000001" id="pos-rate-4"></rect></g><g><rect x="181.8181818181818" y="34.18888888888889" width="2" height="65.8111111111111" id="pos-rate-5"></rect></g><g><rect x="178.1818181818182" y="34.57222222222222" width="2" height="65.42777777777778" id="pos-rate-6"></rect></g><g><rect x="174.54545454545456" y="29.37222222222222" width="2" height="70.62777777777778" id="pos-rate-7"></rect></g><g><rect x="170.9090909090909" y="65.81666666666666" width="2" height="34.18333333333334" id="pos-rate-8"></rect></g><g><rect x="167.27272727272728" y="58.56666666666667" width="2" height="41.43333333333333" id="pos-rate-9"></rect></g><g><rect x="163.63636363636363" y="39.21666666666667" width="2" height="60.78333333333333" id="pos-rate-10"></rect></g><g><rect x="160" y="32.40555555555555" width="2" height="67.59444444444445" id="pos-rate-11"></rect></g><g><rect x="156.36363636363637" y="26.13888888888889" width="2" height="73.86111111111111" id="pos-rate-12"></rect></g><g><rect x="152.72727272727275" y="23.888888888888893" width="2" height="76.11111111111111" id="pos-rate-13"></rect></g><g><rect x="149.0909090909091" y="16.555555555555557" width="2" height="83.44444444444444" id="pos-rate-14"></rect></g><g><rect x="145.45454545454547" y="59.43333333333334" width="2" height="40.56666666666666" id="pos-rate-15"></rect></g><g><rect x="141.8181818181818" y="51.49444444444444" width="2" height="48.50555555555556" id="pos-rate-16"></rect></g><g><rect x="138.1818181818182" y="26.961111111111112" width="2" height="73.03888888888889" id="pos-rate-17"></rect></g><g><rect x="134.54545454545453" y="23.850000000000005" width="2" height="76.14999999999999" id="pos-rate-18"></rect></g><g><rect x="130.9090909090909" y="17.40555555555555" width="2" height="82.59444444444445" id="pos-rate-19"></rect></g><g><rect x="127.27272727272727" y="15.400000000000002" width="2" height="84.6" id="pos-rate-20"></rect></g><g><rect x="123.63636363636363" y="12.077777777777776" width="2" height="87.92222222222222" id="pos-rate-21"></rect></g><g><rect x="120" y="55.47222222222222" width="2" height="44.52777777777778" id="pos-rate-22"></rect></g><g><rect x="116.36363636363636" y="47.36666666666667" width="2" height="52.63333333333333" id="pos-rate-23"></rect></g><g><rect x="112.72727272727275" y="24.15555555555555" width="2" height="75.84444444444445" id="pos-rate-24"></rect></g><g><rect x="109.09090909090908" y="19.32222222222222" width="2" height="80.67777777777778" id="pos-rate-25"></rect></g><g><rect x="105.45454545454547" y="14.911111111111108" width="2" height="85.08888888888889" id="pos-rate-26"></rect></g><g><rect x="101.81818181818181" y="11.088888888888892" width="2" height="88.91111111111111" id="pos-rate-27"></rect></g><g><rect x="98.18181818181819" y="10.66111111111111" width="2" height="89.33888888888889" id="pos-rate-28"></rect></g><g><rect x="94.54545454545456" y="52.761111111111106" width="2" height="47.238888888888894" id="pos-rate-29"></rect></g><g><rect x="90.90909090909092" y="47.01111111111111" width="2" height="52.98888888888889" id="pos-rate-30"></rect></g><g><rect x="87.27272727272728" y="29.183333333333326" width="2" height="70.81666666666668" id="pos-rate-31"></rect></g><g><rect x="83.63636363636364" y="23.916666666666664" width="2" height="76.08333333333334" id="pos-rate-32"></rect></g><g><rect x="80" y="22.66111111111111" width="2" height="77.33888888888889" id="pos-rate-33"></rect></g><g><rect x="76.36363636363637" y="21.016666666666662" width="2" height="78.98333333333333" id="pos-rate-34"></rect></g><g><rect x="72.72727272727273" y="22.78888888888889" width="2" height="77.21111111111111" id="pos-rate-35"></rect></g><g><rect x="69.0909090909091" y="53.65555555555556" width="2" height="46.34444444444444" id="pos-rate-36"></rect></g><g><rect x="65.45454545454545" y="53.31666666666667" width="2" height="46.68333333333333" id="pos-rate-37"></rect></g><g><rect x="61.81818181818181" y="38.983333333333334" width="2" height="61.016666666666666" id="pos-rate-38"></rect></g><g><rect x="58.18181818181818" y="35.272222222222226" width="2" height="64.72777777777777" id="pos-rate-39"></rect></g><g><rect x="54.54545454545454" y="34.8" width="2" height="65.2" id="pos-rate-40"></rect></g><g><rect x="50.90909090909091" y="38.083333333333336" width="2" height="61.916666666666664" id="pos-rate-41"></rect></g><g><rect x="47.272727272727266" y="35.40555555555556" width="2" height="64.59444444444443" id="pos-rate-42"></rect></g><g><rect x="43.636363636363626" y="64.71666666666667" width="2" height="35.28333333333333" id="pos-rate-43"></rect></g><g><rect x="39.99999999999999" y="62.82777777777777" width="2" height="37.17222222222223" id="pos-rate-44"></rect></g><g><rect x="36.36363636363635" y="55.49444444444445" width="2" height="44.50555555555555" id="pos-rate-45"></rect></g><g><rect x="32.72727272727274" y="54.21111111111111" width="2" height="45.78888888888889" id="pos-rate-46"></rect></g><g><rect x="29.0909090909091" y="51.67222222222223" width="2" height="48.32777777777777" id="pos-rate-47"></rect></g><g><rect x="25.454545454545464" y="54.07222222222222" width="2" height="45.92777777777778" id="pos-rate-48"></rect></g><g><rect x="21.818181818181827" y="53.833333333333336" width="2" height="46.166666666666664" id="pos-rate-49"></rect></g><g><rect x="18.181818181818187" y="73.68333333333334" width="2" height="26.316666666666663" id="pos-rate-50"></rect></g><g><rect x="14.54545454545455" y="74.33333333333334" width="2" height="25.666666666666657" id="pos-rate-51"></rect></g><g><rect x="10.909090909090914" y="67.13333333333334" width="2" height="32.86666666666666" id="pos-rate-52"></rect></g><g><rect x="7.272727272727275" y="67.71666666666667" width="2" height="32.28333333333333" id="pos-rate-53"></rect></g><g><rect x="3.6363636363636376" y="69.36666666666666" width="2" height="30.63333333333334" id="pos-rate-54"></rect></g><g><rect x="0" y="70.37222222222222" width="2" height="29.62777777777778" id="pos-rate-55"></rect></g></g><g class="fg-line pos-rate"><path d="M200,54.61111111111111L196.36363636363637,48.39761904761906L192.72727272727272,46.765079365079366L189.0909090909091,45.341269841269835L185.45454545454544,43.66190476190476L181.8181818181818,42.01984126984127L178.1818181818182,40.86984126984128L174.54545454545456,39.343650793650795L170.9090909090909,37.512698412698406L167.27272727272728,36.60079365079365L163.63636363636363,35.59047619047618L160,33.839682539682535L156.36363636363637,32.61746031746031L152.72727272727275,31.36984126984127L149.0909090909091,30.157142857142848L145.45454545454547,29.51746031746032L141.8181818181818,28.9515873015873L138.1818181818182,28.361904761904768L134.54545454545453,27.961111111111116L130.9090909090909,27.314285714285713L127.27272727272727,26.95793650793651L123.63636363636363,26.342063492063495L120,26.13968253968254L116.36363636363636,25.75238095238095L112.72727272727275,25.701587301587303L109.09090909090908,26.41984126984127L105.45454545454547,27.076190476190476L101.81818181818181,28.183333333333337L98.18181818181819,29.601587301587294L94.54545454545456,31.334126984126986L90.90909090909092,31.46190476190476L87.27272727272728,32.36269841269841L83.63636363636364,33.76269841269841L80,35.38492063492063L76.36363636363637,37.11904761904762L72.72727272727273,39.55714285714286L69.0909090909091,41.359523809523814L65.45454545454545,42.939682539682536L61.81818181818181,44.298412698412704L58.18181818181818,46.65714285714285L54.54545454545454,49.362698412698414L50.90909090909091,51.77301587301587L47.272727272727266,54.05714285714285L43.636363636363626,56.689682539682536L39.99999999999999,57.97063492063492L36.36363636363635,59.61428571428571L32.72727272727274,61.276984126984125L29.0909090909091,63.2063492063492L25.454545454545464,65.73412698412699L21.818181818181827,68.06269841269841L18.181818181818187,70.43809523809523L14.54545454545455,71.73650793650795L10.909090909090914,72.93730158730159L7.272727272727275,74.79365079365078L3.6363636363636376,76.58492063492064L0,77.9968253968254"></path></g></svg>
