<svg meta="{&quot;DATA_PUBLISHED_DATE&quot;:&quot;2022-02-25&quot;,&quot;RENDER_DATE&quot;:&quot;2022-02-27&quot;,&quot;FIRST_DATE&quot;:&quot;2021-12-24&quot;,&quot;LAST_DATE&quot;:&quot;2022-02-17&quot;}" xmlns="http://www.w3.org/2000/svg" viewBox="0,0,200,100"><g transform="translate(0,0)"></g><g class="fg-bars tests-vaccines" fill="#00183f" stroke="none"><g><rect x="197" y="79.01928571428572" width="2" height="20.980714285714285" id="tests-vaccines-0"></rect></g><g><rect x="193.43636363636364" y="79.32607142857144" width="2" height="20.67392857142856" id="tests-vaccines-1"></rect></g><g><rect x="189.87272727272727" y="80.00678571428571" width="2" height="19.993214285714288" id="tests-vaccines-2"></rect></g><g><rect x="186.30909090909088" y="82.53357142857143" width="2" height="17.466428571428565" id="tests-vaccines-3"></rect></g><g><rect x="182.74545454545455" y="93.24142857142857" width="2" height="6.758571428571429" id="tests-vaccines-4"></rect></g><g><rect x="179.1818181818182" y="82.27714285714286" width="2" height="17.722857142857137" id="tests-vaccines-5"></rect></g><g><rect x="175.61818181818182" y="66.58500000000001" width="2" height="33.41499999999999" id="tests-vaccines-6"></rect></g><g><rect x="172.05454545454546" y="74.45642857142857" width="2" height="25.543571428571425" id="tests-vaccines-7"></rect></g><g><rect x="168.49090909090907" y="73.1907142857143" width="2" height="26.809285714285707" id="tests-vaccines-8"></rect></g><g><rect x="164.92727272727274" y="73.14571428571428" width="2" height="26.854285714285723" id="tests-vaccines-9"></rect></g><g><rect x="161.36363636363637" y="72.28535714285714" width="2" height="27.714642857142863" id="tests-vaccines-10"></rect></g><g><rect x="157.8" y="89.31535714285714" width="2" height="10.684642857142862" id="tests-vaccines-11"></rect></g><g><rect x="154.23636363636365" y="76.03464285714286" width="2" height="23.965357142857144" id="tests-vaccines-12"></rect></g><g><rect x="150.6727272727273" y="56.08928571428571" width="2" height="43.91071428571429" id="tests-vaccines-13"></rect></g><g><rect x="147.1090909090909" y="66.7967857142857" width="2" height="33.203214285714296" id="tests-vaccines-14"></rect></g><g><rect x="143.54545454545453" y="65.63571428571429" width="2" height="34.364285714285714" id="tests-vaccines-15"></rect></g><g><rect x="139.9818181818182" y="64.93178571428572" width="2" height="35.06821428571428" id="tests-vaccines-16"></rect></g><g><rect x="136.41818181818184" y="61.47214285714286" width="2" height="38.52785714285714" id="tests-vaccines-17"></rect></g><g><rect x="132.85454545454544" y="86.66821428571428" width="2" height="13.331785714285715" id="tests-vaccines-18"></rect></g><g><rect x="129.29090909090908" y="68.28571428571428" width="2" height="31.714285714285722" id="tests-vaccines-19"></rect></g><g><rect x="125.72727272727273" y="40.8825" width="2" height="59.1175" id="tests-vaccines-20"></rect></g><g><rect x="122.16363636363636" y="53.279999999999994" width="2" height="46.720000000000006" id="tests-vaccines-21"></rect></g><g><rect x="118.6" y="53.12428571428571" width="2" height="46.87571428571429" id="tests-vaccines-22"></rect></g><g><rect x="115.03636363636363" y="52.504642857142855" width="2" height="47.495357142857145" id="tests-vaccines-23"></rect></g><g><rect x="111.47272727272728" y="52.86214285714286" width="2" height="47.13785714285714" id="tests-vaccines-24"></rect></g><g><rect x="107.90909090909089" y="84.24428571428571" width="2" height="15.75571428571429" id="tests-vaccines-25"></rect></g><g><rect x="104.34545454545456" y="66.37107142857143" width="2" height="33.628928571428574" id="tests-vaccines-26"></rect></g><g><rect x="100.78181818181817" y="35.313928571428576" width="2" height="64.68607142857142" id="tests-vaccines-27"></rect></g><g><rect x="97.21818181818183" y="45.184642857142855" width="2" height="54.815357142857145" id="tests-vaccines-28"></rect></g><g><rect x="93.65454545454546" y="42.75071428571429" width="2" height="57.24928571428571" id="tests-vaccines-29"></rect></g><g><rect x="90.09090909090911" y="41.99892857142857" width="2" height="58.00107142857143" id="tests-vaccines-30"></rect></g><g><rect x="86.52727272727273" y="50.72678571428572" width="2" height="49.27321428571428" id="tests-vaccines-31"></rect></g><g><rect x="82.96363636363637" y="80.80499999999999" width="2" height="19.195000000000007" id="tests-vaccines-32"></rect></g><g><rect x="79.4" y="58.895714285714284" width="2" height="41.104285714285716" id="tests-vaccines-33"></rect></g><g><rect x="75.83636363636364" y="19.991071428571427" width="2" height="80.00892857142857" id="tests-vaccines-34"></rect></g><g><rect x="72.27272727272727" y="31.742499999999996" width="2" height="68.25750000000001" id="tests-vaccines-35"></rect></g><g><rect x="68.70909090909092" y="29.266785714285714" width="2" height="70.73321428571428" id="tests-vaccines-36"></rect></g><g><rect x="65.14545454545454" y="27.76928571428572" width="2" height="72.23071428571428" id="tests-vaccines-37"></rect></g><g><rect x="61.58181818181818" y="32.24214285714285" width="2" height="67.75785714285715" id="tests-vaccines-38"></rect></g><g><rect x="58.018181818181816" y="77.19428571428571" width="2" height="22.805714285714288" id="tests-vaccines-39"></rect></g><g><rect x="54.454545454545446" y="46.3425" width="2" height="53.6575" id="tests-vaccines-40"></rect></g><g><rect x="50.89090909090908" y="3.417142857142852" width="2" height="96.58285714285715" id="tests-vaccines-41"></rect></g><g><rect x="47.32727272727273" y="16.856428571428573" width="2" height="83.14357142857142" id="tests-vaccines-42"></rect></g><g><rect x="43.76363636363636" y="20.098571428571432" width="2" height="79.90142857142857" id="tests-vaccines-43"></rect></g><g><rect x="40.199999999999996" y="21.516785714285714" width="2" height="78.48321428571428" id="tests-vaccines-44"></rect></g><g><rect x="36.636363636363626" y="27.637500000000003" width="2" height="72.3625" id="tests-vaccines-45"></rect></g><g><rect x="33.072727272727285" y="80.57321428571429" width="2" height="19.426785714285714" id="tests-vaccines-46"></rect></g><g><rect x="29.509090909090922" y="97.08642857142857" width="2" height="2.91357142857143" id="tests-vaccines-47"></rect></g><g><rect x="25.945454545454556" y="72.41535714285715" width="2" height="27.584642857142853" id="tests-vaccines-48"></rect></g><g><rect x="22.38181818181819" y="18.868571428571425" width="2" height="81.13142857142857" id="tests-vaccines-49"></rect></g><g><rect x="18.818181818181824" y="12.716785714285717" width="2" height="87.28321428571428" id="tests-vaccines-50"></rect></g><g><rect x="15.254545454545461" y="12.693571428571426" width="2" height="87.30642857142857" id="tests-vaccines-51"></rect></g><g><rect x="11.690909090909095" y="23.636785714285715" width="2" height="76.36321428571429" id="tests-vaccines-52"></rect></g><g><rect x="8.12727272727273" y="79.77321428571429" width="2" height="20.22678571428571" id="tests-vaccines-53"></rect></g><g><rect x="4.563636363636365" y="99.66392857142857" width="2" height="0.33607142857142946" id="tests-vaccines-54"></rect></g><g><rect x="1" y="83.46535714285714" width="2" height="16.534642857142856" id="tests-vaccines-55"></rect></g></g><g class="fg-line tests-vaccines" fill="none" stroke="#92c5de" stroke-width="2" stroke-linecap="round"><path d="M198,80.42704081632652L194.43636363636364,79.77520408163265L190.87272727272727,78.89872448979591L187.30909090909088,77.91857142857143L183.74545454545455,76.45454081632653L180.1818181818182,75.89367346938775L176.61818181818182,75.00188775510203L173.05454545454546,73.5025L169.49090909090907,72.40826530612246L165.92727272727274,71.32897959183673L162.36363636363637,70.1555612244898L158.8,68.61081632653061L155.23636363636365,68.23265306122448L151.6727272727273,67.12566326530613L148.1090909090909,64.95326530612245L144.54545454545453,63.02229591836734L140.9818181818182,61.23494897959183L137.41818181818184,59.45964285714286L133.85454545454544,58.22964285714285L130.29090909090908,57.883367346938776L126.72727272727273,57.60984693877551L123.16363636363636,56.81433673469387L119.6,55.65785714285714L116.03636363636363,54.175918367346945L112.47272727272728,52.67510204081633L108.90909090909089,52.37005102040817L105.34545454545456,51.878724489795914L101.78181818181817,50.81081632653061L98.21818181818183,48.62183673469388L94.65454545454546,46.7015306122449L91.09090909090911,44.77525510204082L87.52727272727273,42.74244897959183L83.96363636363637,40.10178571428571L80.4,39.58596938775511L76.83636363636364,37.79265306122449L73.27272727272727,35.42494897959183L69.70909090909092,33.298367346938775L66.14545454545454,31.988622448979598L62.58181818181818,31.095408163265315L59.018181818181816,30.437602040816326L55.454545454545446,30.92030612244897L51.89090909090908,38.16943877551021L48.32727272727273,48.02632653061225L44.76363636363636,48.31377551020408L41.199999999999996,47.25923469387755L37.636363636363626,45.998775510204084L34.072727272727285,45.427244897959184L30.509090909090922,45.31295918367346L26.945454545454556,45.68117346938776L23.38181818181819,47.25974489795918L19.818181818181824,47.6316836734694L16.25454545454546,46.885816326530616L12.690909090909095,45.711632653061216L9.12727272727273,43.92367346938776L5.563636363636365,43.06612244897959L2,35.68433673469388"></path></g></svg>