<svg meta="{&quot;DATA_PUBLISHED_DATE&quot;:&quot;2022-02-07&quot;,&quot;RENDER_DATE&quot;:&quot;2022-02-07&quot;,&quot;FIRST_DATE&quot;:&quot;2021-12-06&quot;,&quot;LAST_DATE&quot;:&quot;2022-01-30&quot;}" xmlns="http://www.w3.org/2000/svg" viewBox="0,0,200,100"><g transform="translate(0,0)"></g><g class="fg-bars tests-vaccines" fill="#00183f" stroke="none"><g><rect x="197" y="87.91933333333333" width="2" height="12.080666666666673" id="tests-vaccines-0"></rect></g><g><rect x="193.43636363636364" y="71.44333333333333" width="2" height="28.556666666666672" id="tests-vaccines-1"></rect></g><g><rect x="189.87272727272727" y="46.65866666666667" width="2" height="53.34133333333333" id="tests-vaccines-2"></rect></g><g><rect x="186.30909090909088" y="57.772" width="2" height="42.228" id="tests-vaccines-3"></rect></g><g><rect x="182.74545454545455" y="57.53733333333333" width="2" height="42.46266666666667" id="tests-vaccines-4"></rect></g><g><rect x="179.1818181818182" y="57.07233333333333" width="2" height="42.92766666666667" id="tests-vaccines-5"></rect></g><g><rect x="175.61818181818182" y="57.204" width="2" height="42.796" id="tests-vaccines-6"></rect></g><g><rect x="172.05454545454546" y="85.75033333333333" width="2" height="14.24966666666667" id="tests-vaccines-7"></rect></g><g><rect x="168.49090909090907" y="69.94533333333332" width="2" height="30.054666666666677" id="tests-vaccines-8"></rect></g><g><rect x="164.92727272727274" y="41.587666666666664" width="2" height="58.412333333333336" id="tests-vaccines-9"></rect></g><g><rect x="161.36363636363637" y="50.25299999999999" width="2" height="49.74700000000001" id="tests-vaccines-10"></rect></g><g><rect x="157.8" y="47.91266666666667" width="2" height="52.08733333333333" id="tests-vaccines-11"></rect></g><g><rect x="154.23636363636365" y="47.08733333333333" width="2" height="52.91266666666667" id="tests-vaccines-12"></rect></g><g><rect x="150.6727272727273" y="54.93866666666667" width="2" height="45.06133333333333" id="tests-vaccines-13"></rect></g><g><rect x="147.1090909090909" y="82.27933333333333" width="2" height="17.720666666666673" id="tests-vaccines-14"></rect></g><g><rect x="143.54545454545453" y="62.254999999999995" width="2" height="37.745000000000005" id="tests-vaccines-15"></rect></g><g><rect x="139.9818181818182" y="26.366999999999997" width="2" height="73.63300000000001" id="tests-vaccines-16"></rect></g><g><rect x="136.41818181818184" y="37.09066666666667" width="2" height="62.90933333333333" id="tests-vaccines-17"></rect></g><g><rect x="132.85454545454544" y="34.78666666666667" width="2" height="65.21333333333334" id="tests-vaccines-18"></rect></g><g><rect x="129.29090909090908" y="33.32033333333333" width="2" height="66.67966666666666" id="tests-vaccines-19"></rect></g><g><rect x="125.72727272727273" y="37.41733333333334" width="2" height="62.58266666666666" id="tests-vaccines-20"></rect></g><g><rect x="122.16363636363636" y="78.806" width="2" height="21.194000000000003" id="tests-vaccines-21"></rect></g><g><rect x="118.6" y="50.53933333333334" width="2" height="49.46066666666666" id="tests-vaccines-22"></rect></g><g><rect x="115.03636363636363" y="10.941666666666672" width="2" height="89.05833333333332" id="tests-vaccines-23"></rect></g><g><rect x="111.47272727272728" y="23.024666666666672" width="2" height="76.97533333333332" id="tests-vaccines-24"></rect></g><g><rect x="107.90909090909089" y="26.106666666666666" width="2" height="73.89333333333333" id="tests-vaccines-25"></rect></g><g><rect x="104.34545454545456" y="27.410999999999998" width="2" height="72.589" id="tests-vaccines-26"></rect></g><g><rect x="100.78181818181817" y="33.12533333333333" width="2" height="66.87466666666667" id="tests-vaccines-27"></rect></g><g><rect x="97.21818181818183" y="82.03733333333334" width="2" height="17.962666666666664" id="tests-vaccines-28"></rect></g><g><rect x="93.65454545454546" y="97.357" width="2" height="2.6430000000000007" id="tests-vaccines-29"></rect></g><g><rect x="90.09090909090911" y="74.51733333333334" width="2" height="25.48266666666666" id="tests-vaccines-30"></rect></g><g><rect x="86.52727272727273" y="25.012" width="2" height="74.988" id="tests-vaccines-31"></rect></g><g><rect x="82.96363636363637" y="19.45766666666666" width="2" height="80.54233333333335" id="tests-vaccines-32"></rect></g><g><rect x="79.4" y="19.373666666666665" width="2" height="80.62633333333333" id="tests-vaccines-33"></rect></g><g><rect x="75.83636363636364" y="29.39466666666667" width="2" height="70.60533333333333" id="tests-vaccines-34"></rect></g><g><rect x="72.27272727272727" y="81.308" width="2" height="18.691999999999993" id="tests-vaccines-35"></rect></g><g><rect x="68.70909090909092" y="99.69" width="2" height="0.3100000000000023" id="tests-vaccines-36"></rect></g><g><rect x="65.14545454545454" y="84.70533333333333" width="2" height="15.294666666666672" id="tests-vaccines-37"></rect></g><g><rect x="61.58181818181818" y="27.186999999999994" width="2" height="72.813" id="tests-vaccines-38"></rect></g><g><rect x="58.018181818181816" y="14.093333333333335" width="2" height="85.90666666666667" id="tests-vaccines-39"></rect></g><g><rect x="54.454545454545446" y="11.64466666666667" width="2" height="88.35533333333333" id="tests-vaccines-40"></rect></g><g><rect x="50.89090909090908" y="17.464000000000002" width="2" height="82.536" id="tests-vaccines-41"></rect></g><g><rect x="47.32727272727273" y="75.761" width="2" height="24.239000000000004" id="tests-vaccines-42"></rect></g><g><rect x="43.76363636363636" y="51.91933333333334" width="2" height="48.08066666666666" id="tests-vaccines-43"></rect></g><g><rect x="40.199999999999996" y="12.669333333333332" width="2" height="87.33066666666667" id="tests-vaccines-44"></rect></g><g><rect x="36.636363636363626" y="23.409999999999997" width="2" height="76.59" id="tests-vaccines-45"></rect></g><g><rect x="33.072727272727285" y="21.560333333333336" width="2" height="78.43966666666667" id="tests-vaccines-46"></rect></g><g><rect x="29.509090909090922" y="23.528666666666666" width="2" height="76.47133333333333" id="tests-vaccines-47"></rect></g><g><rect x="25.945454545454556" y="26.95833333333333" width="2" height="73.04166666666667" id="tests-vaccines-48"></rect></g><g><rect x="22.38181818181819" y="76.17833333333334" width="2" height="23.82166666666666" id="tests-vaccines-49"></rect></g><g><rect x="18.818181818181824" y="45.86966666666667" width="2" height="54.13033333333333" id="tests-vaccines-50"></rect></g><g><rect x="15.254545454545461" y="5.3170000000000055" width="2" height="94.68299999999999" id="tests-vaccines-51"></rect></g><g><rect x="11.690909090909095" y="14.825" width="2" height="85.175" id="tests-vaccines-52"></rect></g><g><rect x="8.12727272727273" y="12.004999999999999" width="2" height="87.995" id="tests-vaccines-53"></rect></g><g><rect x="4.563636363636365" y="12.224333333333337" width="2" height="87.77566666666667" id="tests-vaccines-54"></rect></g><g><rect x="1" y="18.576999999999998" width="2" height="81.423" id="tests-vaccines-55"></rect></g></g><g class="fg-line tests-vaccines" fill="none" stroke="#92c5de" stroke-width="2" stroke-linecap="round"><path d="M198,62.229571428571425L194.43636363636364,61.91971428571428L190.87272727272727,61.705714285714286L187.30909090909088,60.98128571428572L183.74545454545455,59.907142857142844L180.1818181818182,58.53219047619047L176.61818181818182,57.105761904761906L173.05454545454546,56.782142857142844L169.49090909090907,56.28628571428571L165.92727272727274,55.187666666666665L162.36363636363637,53.013285714285715L158.8,51.13295238095238L155.23636363636365,49.25780952380953L151.6727272727273,47.29109523809524L148.1090909090909,44.788047619047624L144.54545454545453,44.29185714285714L140.9818181818182,42.61819047619048L137.41818181818184,40.414571428571435L133.85454545454544,38.40514285714286L130.29090909090908,37.16514285714286L126.72727272727273,36.32095238095238L123.16363636363636,35.70780952380953L119.6,36.169428571428575L116.03636363636363,42.857666666666674L112.47272727272728,51.939904761904764L108.90909090909089,52.22380952380953L105.34545454545456,51.27395238095238L101.78181818181817,50.1257619047619L98.21818181818183,49.59280952380952L94.65454545454546,49.48861904761904L91.09090909090911,49.82190476190477L87.52727272727273,51.27733333333333L83.96363636363637,51.58804761904763L80.4,50.82171428571429L76.83636363636364,49.717571428571425L73.27272727272727,48.01319047619047L69.70909090909092,47.2207619047619L66.14545454545454,40.39638095238096L62.58181818181818,30.105523809523802L59.018181818181816,29.565952380952375L55.454545454545446,30.632666666666665L51.89090909090908,32.330380952380956L48.32727272727273,33.686714285714295L44.76363636363636,33.74633333333333L41.199999999999996,32.88209523809523L37.636363636363626,31.8317619047619L34.072727272727285,30.605333333333327L30.509090909090922,29.240285714285708L26.945454545454556,27.62538095238095L23.38181818181819,26.428047619047625L19.818181818181824,25.818523809523807L16.25454545454546,24.7357619047619L12.690909090909095,22.91833333333333L9.12727272727273,21.569476190476188L5.563636363636365,20.940619047619048L2,21.61409523809523"></path></g></svg>