<svg meta="{&quot;DATA_PUBLISHED_DATE&quot;:&quot;2022-03-03&quot;,&quot;RENDER_DATE&quot;:&quot;2022-03-03&quot;,&quot;FIRST_DATE&quot;:&quot;2021-12-30&quot;,&quot;LAST_DATE&quot;:&quot;2022-02-23&quot;}" xmlns="http://www.w3.org/2000/svg" viewBox="0,0,200,100"><g transform="translate(0,0)"></g><g class="fg-bars tests-vaccines" fill="#00183f" stroke="none"><g><rect x="197" y="81.25535714285715" width="2" height="18.74464285714285" id="tests-vaccines-0"></rect></g><g><rect x="193.43636363636364" y="80.84142857142858" width="2" height="19.15857142857142" id="tests-vaccines-1"></rect></g><g><rect x="189.87272727272727" y="85.58857142857143" width="2" height="14.411428571428573" id="tests-vaccines-2"></rect></g><g><rect x="186.30909090909088" y="92.47107142857143" width="2" height="7.528928571428565" id="tests-vaccines-3"></rect></g><g><rect x="182.74545454545455" y="84.29678571428572" width="2" height="15.703214285714282" id="tests-vaccines-4"></rect></g><g><rect x="179.1818181818182" y="70.5592857142857" width="2" height="29.440714285714293" id="tests-vaccines-5"></rect></g><g><rect x="175.61818181818182" y="78.64535714285714" width="2" height="21.354642857142863" id="tests-vaccines-6"></rect></g><g><rect x="172.05454545454546" y="78.90642857142858" width="2" height="21.093571428571423" id="tests-vaccines-7"></rect></g><g><rect x="168.49090909090907" y="79.67392857142856" width="2" height="20.32607142857144" id="tests-vaccines-8"></rect></g><g><rect x="164.92727272727274" y="82.22892857142857" width="2" height="17.77107142857143" id="tests-vaccines-9"></rect></g><g><rect x="161.36363636363637" y="93.14642857142857" width="2" height="6.853571428571428" id="tests-vaccines-10"></rect></g><g><rect x="157.8" y="82.01392857142858" width="2" height="17.98607142857142" id="tests-vaccines-11"></rect></g><g><rect x="154.23636363636365" y="65.96321428571427" width="2" height="34.03678571428573" id="tests-vaccines-12"></rect></g><g><rect x="150.6727272727273" y="74.0525" width="2" height="25.947500000000005" id="tests-vaccines-13"></rect></g><g><rect x="147.1090909090909" y="72.75035714285714" width="2" height="27.24964285714286" id="tests-vaccines-14"></rect></g><g><rect x="143.54545454545453" y="73.025" width="2" height="26.974999999999994" id="tests-vaccines-15"></rect></g><g><rect x="139.9818181818182" y="72.18857142857142" width="2" height="27.81142857142858" id="tests-vaccines-16"></rect></g><g><rect x="136.41818181818184" y="89.29964285714286" width="2" height="10.700357142857143" id="tests-vaccines-17"></rect></g><g><rect x="132.85454545454544" y="75.91714285714286" width="2" height="24.082857142857137" id="tests-vaccines-18"></rect></g><g><rect x="129.29090909090908" y="55.83642857142856" width="2" height="44.16357142857144" id="tests-vaccines-19"></rect></g><g><rect x="125.72727272727273" y="66.71785714285714" width="2" height="33.28214285714286" id="tests-vaccines-20"></rect></g><g><rect x="122.16363636363636" y="65.56035714285716" width="2" height="34.43964285714284" id="tests-vaccines-21"></rect></g><g><rect x="118.6" y="64.86821428571429" width="2" height="35.13178571428571" id="tests-vaccines-22"></rect></g><g><rect x="115.03636363636363" y="61.39714285714286" width="2" height="38.60285714285714" id="tests-vaccines-23"></rect></g><g><rect x="111.47272727272728" y="86.66071428571429" width="2" height="13.339285714285708" id="tests-vaccines-24"></rect></g><g><rect x="107.90909090909089" y="68.2467857142857" width="2" height="31.753214285714293" id="tests-vaccines-25"></rect></g><g><rect x="104.34545454545456" y="40.714285714285715" width="2" height="59.285714285714285" id="tests-vaccines-26"></rect></g><g><rect x="100.78181818181817" y="53.2025" width="2" height="46.7975" id="tests-vaccines-27"></rect></g><g><rect x="97.21818181818183" y="52.95535714285714" width="2" height="47.04464285714286" id="tests-vaccines-28"></rect></g><g><rect x="93.65454545454546" y="52.369285714285716" width="2" height="47.630714285714284" id="tests-vaccines-29"></rect></g><g><rect x="90.09090909090911" y="52.68964285714286" width="2" height="47.31035714285714" id="tests-vaccines-30"></rect></g><g><rect x="86.52727272727273" y="84.16678571428571" width="2" height="15.833214285714291" id="tests-vaccines-31"></rect></g><g><rect x="82.96363636363637" y="66.16892857142858" width="2" height="33.83107142857142" id="tests-vaccines-32"></rect></g><g><rect x="79.4" y="35.17964285714286" width="2" height="64.82035714285715" id="tests-vaccines-33"></rect></g><g><rect x="75.83636363636364" y="45.11714285714285" width="2" height="54.88285714285715" id="tests-vaccines-34"></rect></g><g><rect x="72.27272727272727" y="42.66571428571429" width="2" height="57.33428571428571" id="tests-vaccines-35"></rect></g><g><rect x="68.70909090909092" y="41.92142857142858" width="2" height="58.07857142857142" id="tests-vaccines-36"></rect></g><g><rect x="65.14545454545454" y="50.64785714285714" width="2" height="49.35214285714286" id="tests-vaccines-37"></rect></g><g><rect x="61.58181818181818" y="80.60000000000001" width="2" height="19.39999999999999" id="tests-vaccines-38"></rect></g><g><rect x="58.018181818181816" y="58.8025" width="2" height="41.1975" id="tests-vaccines-39"></rect></g><g><rect x="54.454545454545446" y="19.84607142857143" width="2" height="80.15392857142857" id="tests-vaccines-40"></rect></g><g><rect x="50.89090909090908" y="31.586071428571426" width="2" height="68.41392857142857" id="tests-vaccines-41"></rect></g><g><rect x="47.32727272727273" y="29.036071428571432" width="2" height="70.96392857142857" id="tests-vaccines-42"></rect></g><g><rect x="43.76363636363636" y="27.605" width="2" height="72.395" id="tests-vaccines-43"></rect></g><g><rect x="40.199999999999996" y="31.87214285714286" width="2" height="68.12785714285714" id="tests-vaccines-44"></rect></g><g><rect x="36.636363636363626" y="77.16214285714285" width="2" height="22.837857142857146" id="tests-vaccines-45"></rect></g><g><rect x="33.072727272727285" y="46.14178571428571" width="2" height="53.85821428571429" id="tests-vaccines-46"></rect></g><g><rect x="29.509090909090922" y="3.0164285714285755" width="2" height="96.98357142857142" id="tests-vaccines-47"></rect></g><g><rect x="25.945454545454556" y="16.546428571428574" width="2" height="83.45357142857142" id="tests-vaccines-48"></rect></g><g><rect x="22.38181818181819" y="19.839285714285715" width="2" height="80.16071428571428" id="tests-vaccines-49"></rect></g><g><rect x="18.818181818181824" y="21.354285714285716" width="2" height="78.64571428571429" id="tests-vaccines-50"></rect></g><g><rect x="15.254545454545461" y="27.415" width="2" height="72.58500000000001" id="tests-vaccines-51"></rect></g><g><rect x="11.690909090909095" y="80.53357142857142" width="2" height="19.46642857142858" id="tests-vaccines-52"></rect></g><g><rect x="8.12727272727273" y="97.06321428571428" width="2" height="2.936785714285719" id="tests-vaccines-53"></rect></g><g><rect x="4.563636363636365" y="72.33000000000001" width="2" height="27.669999999999987" id="tests-vaccines-54"></rect></g><g><rect x="1" y="18.64214285714286" width="2" height="81.35785714285714" id="tests-vaccines-55"></rect></g></g><g class="fg-line tests-vaccines" fill="none" stroke="#92c5de" stroke-width="2" stroke-linecap="round"><path d="M198,81.95112244897959L194.43636363636364,81.6155612244898L190.87272727272727,81.44877551020409L187.30909090909088,80.96882653061225L183.74545454545455,81.06530612244897L180.1818181818182,80.73918367346938L176.61818181818182,80.08260204081633L173.05454545454546,79.42647959183672L169.49090909090907,78.54704081632653L165.92727272727274,77.59719387755102L162.36363636363637,76.16285714285715L158.8,75.61331632653061L155.23636363636365,74.74234693877551L151.6727272727273,73.29566326530612L148.1090909090909,72.24785714285714L144.54545454545453,71.22071428571428L140.9818181818182,70.05545918367346L137.41818181818184,68.51382653061225L133.85454545454544,68.13683673469389L130.29090909090908,67.04107142857143L126.72727272727273,64.88076530612246L123.16363636363636,62.949999999999996L119.6,61.1492857142857L116.03636363636363,59.36372448979592L112.47272727272728,58.119795918367345L108.90909090909089,57.76352040816326L105.34545454545456,57.46668367346939L101.78181818181817,56.67602040816326L98.21818181818183,55.5209693877551L94.65454545454546,54.05102040816326L91.09090909090911,52.5584693877551L87.52727272727273,52.26678571428571L83.96363636363637,51.75724489795919L80.4,50.70489795918367L76.83636363636364,48.51438775510204L73.27272727272727,46.58137755102041L69.70909090909092,44.63428571428572L66.14545454545454,42.58908163265307L62.58181818181818,39.90683673469388L59.018181818181816,39.41571428571429L55.454545454545446,37.60704081632653L51.89090909090908,35.20280612244897L48.32727272727273,33.05428571428571L44.76363636363636,31.740459183673465L41.199999999999996,30.847500000000004L37.636363636363626,30.210765306122454L34.072727272727285,30.69239795918367L30.509090909090922,37.96688775510204L26.945454545454556,47.86882653061225L23.38181818181819,48.168214285714285L19.818181818181824,47.125306122448976L16.25454545454546,45.8736224489796L12.690909090909095,45.311173469387754L9.12727272727273,45.19913265306123L5.563636363636365,45.570204081632646L2,47.157040816326536"></path></g></svg>