<svg meta="{&quot;DATA_PUBLISHED_DATE&quot;:&quot;2023-01-12&quot;,&quot;RENDER_DATE&quot;:&quot;2023-01-12&quot;,&quot;FIRST_DATE&quot;:&quot;2022-11-09&quot;,&quot;LAST_DATE&quot;:&quot;2023-01-03&quot;}" xmlns="http://www.w3.org/2000/svg" viewBox="0,0,200,100"><g transform="translate(0,0)"></g><g class="fg-bars cases-ep" fill="#00183f" stroke="none"><g><rect x="197" y="56.39375" width="2" height="43.60625" id="cases-ep-0"></rect></g><g><rect x="193.43636363636364" y="67.1875" width="2" height="32.8125" id="cases-ep-1"></rect></g><g><rect x="189.87272727272727" y="85.39375" width="2" height="14.606250000000003" id="cases-ep-2"></rect></g><g><rect x="186.30909090909088" y="77.8375" width="2" height="22.162499999999994" id="cases-ep-3"></rect></g><g><rect x="182.74545454545455" y="60.09375" width="2" height="39.90625" id="cases-ep-4"></rect></g><g><rect x="179.1818181818182" y="54.10625" width="2" height="45.89375" id="cases-ep-5"></rect></g><g><rect x="175.61818181818182" y="47.63125" width="2" height="52.36875" id="cases-ep-6"></rect></g><g><rect x="172.05454545454546" y="41.131249999999994" width="2" height="58.868750000000006" id="cases-ep-7"></rect></g><g><rect x="168.49090909090907" y="56.325" width="2" height="43.675" id="cases-ep-8"></rect></g><g><rect x="164.92727272727274" y="83.16250000000001" width="2" height="16.83749999999999" id="cases-ep-9"></rect></g><g><rect x="161.36363636363637" y="75.97500000000001" width="2" height="24.02499999999999" id="cases-ep-10"></rect></g><g><rect x="157.8" y="58.54375" width="2" height="41.45625" id="cases-ep-11"></rect></g><g><rect x="154.23636363636365" y="53.50625" width="2" height="46.49375" id="cases-ep-12"></rect></g><g><rect x="150.6727272727273" y="51.025" width="2" height="48.975" id="cases-ep-13"></rect></g><g><rect x="147.1090909090909" y="47.050000000000004" width="2" height="52.949999999999996" id="cases-ep-14"></rect></g><g><rect x="143.54545454545453" y="42.2125" width="2" height="57.7875" id="cases-ep-15"></rect></g><g><rect x="139.9818181818182" y="72.59375" width="2" height="27.40625" id="cases-ep-16"></rect></g><g><rect x="136.41818181818184" y="69.35" width="2" height="30.650000000000006" id="cases-ep-17"></rect></g><g><rect x="132.85454545454544" y="57.475" width="2" height="42.525" id="cases-ep-18"></rect></g><g><rect x="129.29090909090908" y="53.74375" width="2" height="46.25625" id="cases-ep-19"></rect></g><g><rect x="125.72727272727273" y="49.38125" width="2" height="50.61875" id="cases-ep-20"></rect></g><g><rect x="122.16363636363636" y="45.16250000000001" width="2" height="54.83749999999999" id="cases-ep-21"></rect></g><g><rect x="118.6" y="35.943749999999994" width="2" height="64.05625" id="cases-ep-22"></rect></g><g><rect x="115.03636363636363" y="70.09375" width="2" height="29.90625" id="cases-ep-23"></rect></g><g><rect x="111.47272727272728" y="66.2125" width="2" height="33.787499999999994" id="cases-ep-24"></rect></g><g><rect x="107.90909090909089" y="50.331250000000004" width="2" height="49.668749999999996" id="cases-ep-25"></rect></g><g><rect x="104.34545454545456" y="47.543749999999996" width="2" height="52.456250000000004" id="cases-ep-26"></rect></g><g><rect x="100.78181818181817" y="43.462500000000006" width="2" height="56.537499999999994" id="cases-ep-27"></rect></g><g><rect x="97.21818181818183" y="37.456250000000004" width="2" height="62.543749999999996" id="cases-ep-28"></rect></g><g><rect x="93.65454545454546" y="27.012499999999996" width="2" height="72.98750000000001" id="cases-ep-29"></rect></g><g><rect x="90.09090909090911" y="63.85000000000001" width="2" height="36.14999999999999" id="cases-ep-30"></rect></g><g><rect x="86.52727272727273" y="61.575" width="2" height="38.425" id="cases-ep-31"></rect></g><g><rect x="82.96363636363637" y="44.48125" width="2" height="55.51875" id="cases-ep-32"></rect></g><g><rect x="79.4" y="37.03125000000001" width="2" height="62.96874999999999" id="cases-ep-33"></rect></g><g><rect x="75.83636363636364" y="32.19375" width="2" height="67.80625" id="cases-ep-34"></rect></g><g><rect x="72.27272727272727" y="25.275000000000002" width="2" height="74.725" id="cases-ep-35"></rect></g><g><rect x="68.70909090909092" y="10.39375" width="2" height="89.60625" id="cases-ep-36"></rect></g><g><rect x="65.14545454545454" y="56.25" width="2" height="43.75" id="cases-ep-37"></rect></g><g><rect x="61.58181818181818" y="58.2875" width="2" height="41.7125" id="cases-ep-38"></rect></g><g><rect x="58.018181818181816" y="53.318749999999994" width="2" height="46.681250000000006" id="cases-ep-39"></rect></g><g><rect x="54.454545454545446" y="79.9875" width="2" height="20.012500000000003" id="cases-ep-40"></rect></g><g><rect x="50.89090909090908" y="53.681250000000006" width="2" height="46.318749999999994" id="cases-ep-41"></rect></g><g><rect x="47.32727272727273" y="52.1875" width="2" height="47.8125" id="cases-ep-42"></rect></g><g><rect x="43.76363636363636" y="48.41875" width="2" height="51.58125" id="cases-ep-43"></rect></g><g><rect x="40.199999999999996" y="74.55000000000001" width="2" height="25.44999999999999" id="cases-ep-44"></rect></g><g><rect x="36.636363636363626" y="74.56875000000001" width="2" height="25.43124999999999" id="cases-ep-45"></rect></g><g><rect x="33.072727272727285" y="63.80625" width="2" height="36.19375" id="cases-ep-46"></rect></g><g><rect x="29.509090909090922" y="63.5375" width="2" height="36.4625" id="cases-ep-47"></rect></g><g><rect x="25.945454545454556" y="64.0125" width="2" height="35.9875" id="cases-ep-48"></rect></g><g><rect x="22.38181818181819" y="62.31249999999999" width="2" height="37.68750000000001" id="cases-ep-49"></rect></g><g><rect x="18.818181818181824" y="58.71875" width="2" height="41.28125" id="cases-ep-50"></rect></g><g><rect x="15.254545454545461" y="79.94375000000001" width="2" height="20.05624999999999" id="cases-ep-51"></rect></g><g><rect x="11.690909090909095" y="80.48124999999999" width="2" height="19.51875000000001" id="cases-ep-52"></rect></g><g><rect x="8.12727272727273" y="75.51875" width="2" height="24.481250000000003" id="cases-ep-53"></rect></g><g><rect x="4.563636363636365" y="71.99375" width="2" height="28.006249999999994" id="cases-ep-54"></rect></g><g><rect x="1" y="71.11874999999999" width="2" height="28.88125000000001" id="cases-ep-55"></rect></g></g><g class="fg-line cases-ep" fill="none" stroke="#92c5de" stroke-width="2" stroke-linecap="round"><path d="M198,64.09196428571428L194.43636363636364,61.91160714285715L190.87272727272727,60.35982142857142L187.30909090909088,60.04107142857143L183.74545454545455,59.775L180.1818181818182,59.55357142857143L176.61818181818182,59.46785714285714L173.05454545454546,59.95267857142858L169.49090909090907,60.79821428571428L165.92727272727274,58.78214285714285L162.36363636363637,57.27232142857142L158.8,56.325892857142854L155.23636363636365,56.17321428571429L151.6727272727273,56.207142857142856L148.1090909090909,55.972321428571426L144.54545454545453,55.702678571428564L140.9818181818182,54.80714285714286L137.41818181818184,54.449999999999996L133.85454545454544,54.00178571428571L130.29090909090908,52.98125L126.72727272727273,52.09553571428571L123.16363636363636,51.24999999999999L119.6,50.14910714285714L116.03636363636363,48.87321428571428L112.47272727272728,47.981249999999996L108.90909090909089,47.31875L105.34545454545456,46.48303571428571L101.78181818181817,44.981249999999996L98.21818181818183,43.371428571428574L94.65454545454546,41.631249999999994L91.09090909090911,39.25714285714286L87.52727272727273,38.171428571428564L83.96363636363637,37.701785714285705L80.4,38.96428571428571L76.83636363636364,45.10089285714286L73.27272727272727,48.17053571428571L69.70909090909092,52.015178571428564L66.14545454545454,57.44732142857143L62.58181818181818,60.06160714285714L59.018181818181816,62.387499999999996L55.454545454545446,63.88571428571428L51.89090909090908,61.535714285714285L48.32727272727273,63.01160714285714L44.76363636363636,64.45803571428573L41.199999999999996,65.92946428571429L37.636363636363626,66.7L34.072727272727285,67.54464285714286L30.509090909090922,69.21785714285714L26.945454545454556,70.42589285714286L23.38181818181819,71.44107142857143L19.818181818181824,72.78660714285714L16.25454545454546,73.83392857142856L12.690909090909095,74.16517857142857L9.12727272727273,74.50357142857142L5.563636363636365,74.74107142857143L2,75.38214285714287"></path></g></svg>