<svg about="DATA_PUBLISHED_DATE:2021-09-26,RENDER_DATE:2021-09-26" xmlns="http://www.w3.org/2000/svg" viewBox="0,0,200,100"><g transform="translate(0,0)"></g><g class="fg-bars death-date" fill="#00183f" stroke="none"><g><rect x="197" y="19.999999999999996" width="2" height="80" id="death-date-0"></rect></g><g><rect x="193.43636363636364" y="18.333333333333336" width="2" height="81.66666666666666" id="death-date-1"></rect></g><g><rect x="189.87272727272727" y="23.33333333333333" width="2" height="76.66666666666667" id="death-date-2"></rect></g><g><rect x="186.30909090909088" y="31.666666666666664" width="2" height="68.33333333333334" id="death-date-3"></rect></g><g><rect x="182.74545454545455" y="2.500000000000002" width="2" height="97.5" id="death-date-4"></rect></g><g><rect x="179.1818181818182" y="9.999999999999998" width="2" height="90" id="death-date-5"></rect></g><g><rect x="175.61818181818182" y="9.999999999999998" width="2" height="90" id="death-date-6"></rect></g><g><rect x="172.05454545454546" y="13.33333333333333" width="2" height="86.66666666666667" id="death-date-7"></rect></g><g><rect x="168.49090909090907" y="10.833333333333329" width="2" height="89.16666666666667" id="death-date-8"></rect></g><g><rect x="164.92727272727274" y="27.500000000000004" width="2" height="72.5" id="death-date-9"></rect></g><g><rect x="161.36363636363637" y="25" width="2" height="75" id="death-date-10"></rect></g><g><rect x="157.8" y="23.33333333333333" width="2" height="76.66666666666667" id="death-date-11"></rect></g><g><rect x="154.23636363636365" y="24.16666666666667" width="2" height="75.83333333333333" id="death-date-12"></rect></g><g><rect x="150.6727272727273" y="24.16666666666667" width="2" height="75.83333333333333" id="death-date-13"></rect></g><g><rect x="147.1090909090909" y="30.000000000000004" width="2" height="70" id="death-date-14"></rect></g><g><rect x="143.54545454545453" y="14.166666666666671" width="2" height="85.83333333333333" id="death-date-15"></rect></g><g><rect x="139.9818181818182" y="11.66666666666667" width="2" height="88.33333333333333" id="death-date-16"></rect></g><g><rect x="136.41818181818184" y="39.16666666666667" width="2" height="60.83333333333333" id="death-date-17"></rect></g><g><rect x="132.85454545454544" y="40" width="2" height="60" id="death-date-18"></rect></g><g><rect x="129.29090909090908" y="9.166666666666668" width="2" height="90.83333333333333" id="death-date-19"></rect></g><g><rect x="125.72727272727273" y="39.16666666666667" width="2" height="60.83333333333333" id="death-date-20"></rect></g><g><rect x="122.16363636363636" y="42.50000000000001" width="2" height="57.49999999999999" id="death-date-21"></rect></g><g><rect x="118.6" y="42.50000000000001" width="2" height="57.49999999999999" id="death-date-22"></rect></g><g><rect x="115.03636363636363" y="42.50000000000001" width="2" height="57.49999999999999" id="death-date-23"></rect></g><g><rect x="111.47272727272728" y="41.666666666666664" width="2" height="58.333333333333336" id="death-date-24"></rect></g><g><rect x="107.90909090909089" y="55.00000000000001" width="2" height="44.99999999999999" id="death-date-25"></rect></g><g><rect x="104.34545454545456" y="53.333333333333336" width="2" height="46.666666666666664" id="death-date-26"></rect></g><g><rect x="100.78181818181817" y="60" width="2" height="40" id="death-date-27"></rect></g><g><rect x="97.21818181818183" y="63.33333333333333" width="2" height="36.66666666666667" id="death-date-28"></rect></g><g><rect x="93.65454545454546" y="58.33333333333333" width="2" height="41.66666666666667" id="death-date-29"></rect></g><g><rect x="90.09090909090911" y="57.49999999999999" width="2" height="42.50000000000001" id="death-date-30"></rect></g><g><rect x="86.52727272727273" y="73.33333333333334" width="2" height="26.666666666666657" id="death-date-31"></rect></g><g><rect x="82.96363636363637" y="60" width="2" height="40" id="death-date-32"></rect></g><g><rect x="79.4" y="80" width="2" height="20" id="death-date-33"></rect></g><g><rect x="75.83636363636364" y="71.66666666666667" width="2" height="28.33333333333333" id="death-date-34"></rect></g><g><rect x="72.27272727272727" y="72.5" width="2" height="27.5" id="death-date-35"></rect></g><g><rect x="68.70909090909092" y="73.33333333333334" width="2" height="26.666666666666657" id="death-date-36"></rect></g><g><rect x="65.14545454545454" y="78.33333333333333" width="2" height="21.66666666666667" id="death-date-37"></rect></g><g><rect x="61.58181818181818" y="78.33333333333333" width="2" height="21.66666666666667" id="death-date-38"></rect></g><g><rect x="58.018181818181816" y="80.83333333333333" width="2" height="19.16666666666667" id="death-date-39"></rect></g><g><rect x="54.454545454545446" y="70.83333333333333" width="2" height="29.16666666666667" id="death-date-40"></rect></g><g><rect x="50.89090909090908" y="75.83333333333333" width="2" height="24.16666666666667" id="death-date-41"></rect></g><g><rect x="47.32727272727273" y="83.33333333333334" width="2" height="16.666666666666657" id="death-date-42"></rect></g><g><rect x="43.76363636363636" y="78.33333333333333" width="2" height="21.66666666666667" id="death-date-43"></rect></g><g><rect x="40.199999999999996" y="80" width="2" height="20" id="death-date-44"></rect></g><g><rect x="36.636363636363626" y="90.83333333333333" width="2" height="9.166666666666671" id="death-date-45"></rect></g><g><rect x="33.072727272727285" y="81.66666666666667" width="2" height="18.33333333333333" id="death-date-46"></rect></g><g><rect x="29.509090909090922" y="85" width="2" height="15" id="death-date-47"></rect></g><g><rect x="25.945454545454556" y="80.83333333333333" width="2" height="19.16666666666667" id="death-date-48"></rect></g><g><rect x="22.38181818181819" y="89.16666666666666" width="2" height="10.833333333333343" id="death-date-49"></rect></g><g><rect x="18.818181818181824" y="85.83333333333334" width="2" height="14.166666666666657" id="death-date-50"></rect></g><g><rect x="15.254545454545461" y="85" width="2" height="15" id="death-date-51"></rect></g><g><rect x="11.690909090909095" y="86.66666666666667" width="2" height="13.333333333333329" id="death-date-52"></rect></g><g><rect x="8.12727272727273" y="85" width="2" height="15" id="death-date-53"></rect></g><g><rect x="4.563636363636365" y="85.83333333333334" width="2" height="14.166666666666657" id="death-date-54"></rect></g><g><rect x="1" y="87.5" width="2" height="12.5" id="death-date-55"></rect></g></g><g class="fg-line death-date" fill="none" stroke="#92c5de" stroke-width="2" stroke-linecap="round"><path d="M198,16.547619047619055L194.43636363636364,15.595238095238095L190.87272727272727,14.523809523809527L187.30909090909088,15.11904761904762L183.74545454545455,14.166666666666671L180.1818181818182,17.14285714285714L176.61818181818182,19.166666666666664L173.05454545454546,21.190476190476193L169.49090909090907,23.571428571428577L165.92727272727274,24.04761904761905L162.36363636363637,21.785714285714285L158.8,23.809523809523803L155.23636363636365,26.190476190476197L151.6727272727273,24.04761904761905L148.1090909090909,26.190476190476197L144.54545454545453,27.976190476190478L140.9818181818182,32.02380952380952L137.41818181818184,36.42857142857142L133.85454545454544,36.78571428571428L130.29090909090908,38.92857142857142L126.72727272727273,45.23809523809524L123.16363636363636,48.21428571428571L119.6,51.19047619047619L116.03636363636363,53.45238095238096L112.47272727272728,55.595238095238095L108.90909090909089,60.11904761904763L105.34545454545456,60.83333333333334L101.78181818181817,64.64285714285714L98.21818181818183,66.30952380952381L94.65454545454546,67.61904761904762L91.09090909090911,69.76190476190476L87.52727272727273,72.73809523809524L83.96363636363637,73.45238095238096L80.4,76.42857142857142L76.83636363636364,75.11904761904762L73.27272727272727,75.71428571428571L69.70909090909092,77.26190476190476L66.14545454545454,77.97619047619048L62.58181818181818,78.21428571428571L59.018181818181816,80L55.454545454545446,80.11904761904762L51.89090909090908,82.14285714285714L48.32727272727273,82.85714285714285L44.76363636363636,83.69047619047619L41.199999999999996,84.76190476190476L37.636363636363626,85.47619047619048L34.072727272727285,84.88095238095238L30.509090909090922,85.35714285714285L26.945454545454556,85.47619047619048L23.38181818181819,86.42857142857143L19.818181818181824,86.07142857142858L16.25454545454546,86.30952380952381L12.690909090909095,86.78571428571429L9.12727272727273,87.73809523809524L5.563636363636365,88.33333333333333L2,88.69047619047619"></path></g></svg>