<svg meta="{&quot;DATA_PUBLISHED_DATE&quot;:&quot;2022-02-28&quot;,&quot;RENDER_DATE&quot;:&quot;2022-02-28&quot;,&quot;FIRST_DATE&quot;:&quot;2021-12-12&quot;,&quot;LAST_DATE&quot;:&quot;2022-02-05&quot;}" xmlns="http://www.w3.org/2000/svg" viewBox="0,0,200,100"><g transform="translate(0,0)"></g><g class="fg-bars death-date" fill="#00183f" stroke="none"><g><rect x="197" y="35" width="2" height="65" id="death-date-0"></rect></g><g><rect x="193.43636363636364" y="23.33333333333333" width="2" height="76.66666666666667" id="death-date-1"></rect></g><g><rect x="189.87272727272727" y="31.666666666666664" width="2" height="68.33333333333334" id="death-date-2"></rect></g><g><rect x="186.30909090909088" y="22.083333333333332" width="2" height="77.91666666666667" id="death-date-3"></rect></g><g><rect x="182.74545454545455" y="14.166666666666671" width="2" height="85.83333333333333" id="death-date-4"></rect></g><g><rect x="179.1818181818182" y="21.250000000000004" width="2" height="78.75" id="death-date-5"></rect></g><g><rect x="175.61818181818182" y="6.666666666666665" width="2" height="93.33333333333333" id="death-date-6"></rect></g><g><rect x="172.05454545454546" y="7.916666666666671" width="2" height="92.08333333333333" id="death-date-7"></rect></g><g><rect x="168.49090909090907" y="22.083333333333332" width="2" height="77.91666666666667" id="death-date-8"></rect></g><g><rect x="164.92727272727274" y="15.833333333333332" width="2" height="84.16666666666667" id="death-date-9"></rect></g><g><rect x="161.36363636363637" y="19.999999999999996" width="2" height="80" id="death-date-10"></rect></g><g><rect x="157.8" y="17.500000000000004" width="2" height="82.5" id="death-date-11"></rect></g><g><rect x="154.23636363636365" y="32.91666666666667" width="2" height="67.08333333333333" id="death-date-12"></rect></g><g><rect x="150.6727272727273" y="12.916666666666664" width="2" height="87.08333333333334" id="death-date-13"></rect></g><g><rect x="147.1090909090909" y="19.999999999999996" width="2" height="80" id="death-date-14"></rect></g><g><rect x="143.54545454545453" y="13.33333333333333" width="2" height="86.66666666666667" id="death-date-15"></rect></g><g><rect x="139.9818181818182" y="18.333333333333336" width="2" height="81.66666666666666" id="death-date-16"></rect></g><g><rect x="136.41818181818184" y="11.66666666666667" width="2" height="88.33333333333333" id="death-date-17"></rect></g><g><rect x="132.85454545454544" y="24.16666666666667" width="2" height="75.83333333333333" id="death-date-18"></rect></g><g><rect x="129.29090909090908" y="28.749999999999996" width="2" height="71.25" id="death-date-19"></rect></g><g><rect x="125.72727272727273" y="27.500000000000004" width="2" height="72.5" id="death-date-20"></rect></g><g><rect x="122.16363636363636" y="27.500000000000004" width="2" height="72.5" id="death-date-21"></rect></g><g><rect x="118.6" y="35.416666666666664" width="2" height="64.58333333333334" id="death-date-22"></rect></g><g><rect x="115.03636363636363" y="37.083333333333336" width="2" height="62.916666666666664" id="death-date-23"></rect></g><g><rect x="111.47272727272728" y="31.25" width="2" height="68.75" id="death-date-24"></rect></g><g><rect x="107.90909090909089" y="35.83333333333333" width="2" height="64.16666666666667" id="death-date-25"></rect></g><g><rect x="104.34545454545456" y="46.666666666666664" width="2" height="53.333333333333336" id="death-date-26"></rect></g><g><rect x="100.78181818181817" y="57.08333333333333" width="2" height="42.91666666666667" id="death-date-27"></rect></g><g><rect x="97.21818181818183" y="48.75000000000001" width="2" height="51.24999999999999" id="death-date-28"></rect></g><g><rect x="93.65454545454546" y="57.08333333333333" width="2" height="42.91666666666667" id="death-date-29"></rect></g><g><rect x="90.09090909090911" y="52.08333333333333" width="2" height="47.91666666666667" id="death-date-30"></rect></g><g><rect x="86.52727272727273" y="53.75" width="2" height="46.25" id="death-date-31"></rect></g><g><rect x="82.96363636363637" y="60" width="2" height="40" id="death-date-32"></rect></g><g><rect x="79.4" y="61.25000000000001" width="2" height="38.74999999999999" id="death-date-33"></rect></g><g><rect x="75.83636363636364" y="70.41666666666666" width="2" height="29.583333333333343" id="death-date-34"></rect></g><g><rect x="72.27272727272727" y="68.75" width="2" height="31.25" id="death-date-35"></rect></g><g><rect x="68.70909090909092" y="67.5" width="2" height="32.5" id="death-date-36"></rect></g><g><rect x="65.14545454545454" y="76.25" width="2" height="23.75" id="death-date-37"></rect></g><g><rect x="61.58181818181818" y="72.91666666666667" width="2" height="27.08333333333333" id="death-date-38"></rect></g><g><rect x="58.018181818181816" y="80.41666666666667" width="2" height="19.58333333333333" id="death-date-39"></rect></g><g><rect x="54.454545454545446" y="69.16666666666667" width="2" height="30.83333333333333" id="death-date-40"></rect></g><g><rect x="50.89090909090908" y="78.75" width="2" height="21.25" id="death-date-41"></rect></g><g><rect x="47.32727272727273" y="76.25" width="2" height="23.75" id="death-date-42"></rect></g><g><rect x="43.76363636363636" y="73.75" width="2" height="26.25" id="death-date-43"></rect></g><g><rect x="40.199999999999996" y="72.5" width="2" height="27.5" id="death-date-44"></rect></g><g><rect x="36.636363636363626" y="80.41666666666667" width="2" height="19.58333333333333" id="death-date-45"></rect></g><g><rect x="33.072727272727285" y="76.66666666666666" width="2" height="23.333333333333343" id="death-date-46"></rect></g><g><rect x="29.509090909090922" y="73.33333333333334" width="2" height="26.666666666666657" id="death-date-47"></rect></g><g><rect x="25.945454545454556" y="71.25" width="2" height="28.75" id="death-date-48"></rect></g><g><rect x="22.38181818181819" y="78.75" width="2" height="21.25" id="death-date-49"></rect></g><g><rect x="18.818181818181824" y="75" width="2" height="25" id="death-date-50"></rect></g><g><rect x="15.254545454545461" y="70.41666666666666" width="2" height="29.583333333333343" id="death-date-51"></rect></g><g><rect x="11.690909090909095" y="72.5" width="2" height="27.5" id="death-date-52"></rect></g><g><rect x="8.12727272727273" y="73.33333333333334" width="2" height="26.666666666666657" id="death-date-53"></rect></g><g><rect x="4.563636363636365" y="75" width="2" height="25" id="death-date-54"></rect></g><g><rect x="1" y="77.91666666666667" width="2" height="22.08333333333333" id="death-date-55"></rect></g></g><g class="fg-line death-date" fill="none" stroke="#92c5de" stroke-width="2" stroke-linecap="round"><path d="M198,22.023809523809522L194.43636363636364,18.154761904761905L190.87272727272727,17.976190476190478L187.30909090909088,15.714285714285714L183.74545454545455,15.416666666666668L180.1818181818182,15.892857142857142L176.61818181818182,17.559523809523803L173.05454545454546,18.452380952380953L169.49090909090907,20.178571428571423L165.92727272727274,18.928571428571427L162.36363636363637,19.285714285714285L158.8,18.095238095238088L155.23636363636365,19.047619047619047L151.6727272727273,18.452380952380953L148.1090909090909,20.535714285714278L144.54545454545453,21.607142857142858L140.9818181818182,24.761904761904752L137.41818181818184,27.440476190476193L133.85454545454544,30.23809523809524L130.29090909090908,31.904761904761912L126.72727272727273,34.464285714285715L123.16363636363636,38.6904761904762L119.6,41.726190476190474L116.03636363636363,44.82142857142858L112.47272727272728,46.964285714285715L108.90909090909089,50.17857142857143L105.34545454545456,53.63095238095238L101.78181818181817,55.714285714285715L98.21818181818183,57.61904761904761L94.65454545454546,60.476190476190474L91.09090909090911,61.964285714285715L87.52727272727273,65.41666666666667L83.96363636363637,68.15476190476191L80.4,71.07142857142857L76.83636363636364,72.20238095238096L73.27272727272727,73.39285714285715L69.70909090909092,74.46428571428572L66.14545454545454,75.35714285714286L62.58181818181818,74.82142857142857L59.018181818181816,75.89285714285714L55.454545454545446,75.35714285714286L51.89090909090908,75.95238095238095L48.32727272727273,74.88095238095238L44.76363636363636,75.23809523809524L41.199999999999996,75.41666666666667L37.636363636363626,75.11904761904762L34.072727272727285,73.98809523809524L30.509090909090922,73.51190476190477L26.945454545454556,73.75L23.38181818181819,74.70238095238095L19.818181818181824,74.3452380952381L16.25454545454546,74.88095238095238L12.690909090909095,75.59523809523809L9.12727272727273,76.36904761904762L5.563636363636365,76.30952380952381L2,77.02380952380952"></path></g></svg>