<svg meta="{&quot;DATA_PUBLISHED_DATE&quot;:&quot;2022-04-01&quot;,&quot;RENDER_DATE&quot;:&quot;2022-04-01&quot;,&quot;FIRST_DATE&quot;:&quot;2022-01-27&quot;,&quot;LAST_DATE&quot;:&quot;2022-03-23&quot;}" xmlns="http://www.w3.org/2000/svg" viewBox="0,0,200,100"><g transform="translate(0,0)"></g><g class="fg-bars cases-ep" fill="#00183f" stroke="none"><g><rect x="197" y="95.2688888888889" width="2" height="4.731111111111105" id="cases-ep-0"></rect></g><g><rect x="193.43636363636364" y="93.36888888888889" width="2" height="6.63111111111111" id="cases-ep-1"></rect></g><g><rect x="189.87272727272727" y="94.35333333333334" width="2" height="5.646666666666661" id="cases-ep-2"></rect></g><g><rect x="186.30909090909088" y="97.42888888888889" width="2" height="2.571111111111108" id="cases-ep-3"></rect></g><g><rect x="182.74545454545455" y="97.35777777777777" width="2" height="2.6422222222222302" id="cases-ep-4"></rect></g><g><rect x="179.1818181818182" y="95.71111111111111" width="2" height="4.288888888888891" id="cases-ep-5"></rect></g><g><rect x="175.61818181818182" y="95.06444444444443" width="2" height="4.935555555555567" id="cases-ep-6"></rect></g><g><rect x="172.05454545454546" y="94.74222222222221" width="2" height="5.25777777777779" id="cases-ep-7"></rect></g><g><rect x="168.49090909090907" y="94.40666666666667" width="2" height="5.593333333333334" id="cases-ep-8"></rect></g><g><rect x="164.92727272727274" y="93.72666666666667" width="2" height="6.273333333333326" id="cases-ep-9"></rect></g><g><rect x="161.36363636363637" y="97.26444444444444" width="2" height="2.735555555555564" id="cases-ep-10"></rect></g><g><rect x="157.8" y="96.72888888888889" width="2" height="3.271111111111111" id="cases-ep-11"></rect></g><g><rect x="154.23636363636365" y="94.94666666666667" width="2" height="5.0533333333333275" id="cases-ep-12"></rect></g><g><rect x="150.6727272727273" y="94.38222222222223" width="2" height="5.617777777777775" id="cases-ep-13"></rect></g><g><rect x="147.1090909090909" y="93.38222222222223" width="2" height="6.617777777777775" id="cases-ep-14"></rect></g><g><rect x="143.54545454545453" y="92.75777777777779" width="2" height="7.24222222222221" id="cases-ep-15"></rect></g><g><rect x="139.9818181818182" y="91.59333333333333" width="2" height="8.406666666666666" id="cases-ep-16"></rect></g><g><rect x="136.41818181818184" y="96.07111111111111" width="2" height="3.928888888888892" id="cases-ep-17"></rect></g><g><rect x="132.85454545454544" y="95.44444444444444" width="2" height="4.555555555555557" id="cases-ep-18"></rect></g><g><rect x="129.29090909090908" y="93.07111111111112" width="2" height="6.928888888888878" id="cases-ep-19"></rect></g><g><rect x="125.72727272727273" y="92.04444444444444" width="2" height="7.955555555555563" id="cases-ep-20"></rect></g><g><rect x="122.16363636363636" y="91.15555555555555" width="2" height="8.844444444444449" id="cases-ep-21"></rect></g><g><rect x="118.6" y="89.61555555555556" width="2" height="10.38444444444444" id="cases-ep-22"></rect></g><g><rect x="115.03636363636363" y="88.35777777777778" width="2" height="11.642222222222216" id="cases-ep-23"></rect></g><g><rect x="111.47272727272728" y="94.76666666666667" width="2" height="5.233333333333334" id="cases-ep-24"></rect></g><g><rect x="107.90909090909089" y="94.05111111111111" width="2" height="5.948888888888888" id="cases-ep-25"></rect></g><g><rect x="104.34545454545456" y="89.43555555555555" width="2" height="10.564444444444447" id="cases-ep-26"></rect></g><g><rect x="100.78181818181817" y="88.60222222222222" width="2" height="11.397777777777776" id="cases-ep-27"></rect></g><g><rect x="97.21818181818183" y="87.61777777777777" width="2" height="12.382222222222225" id="cases-ep-28"></rect></g><g><rect x="93.65454545454546" y="84.18222222222222" width="2" height="15.817777777777778" id="cases-ep-29"></rect></g><g><rect x="90.09090909090911" y="88.14666666666666" width="2" height="11.853333333333339" id="cases-ep-30"></rect></g><g><rect x="86.52727272727273" y="92.03555555555556" width="2" height="7.964444444444439" id="cases-ep-31"></rect></g><g><rect x="82.96363636363637" y="90.72222222222223" width="2" height="9.277777777777771" id="cases-ep-32"></rect></g><g><rect x="79.4" y="84.37777777777778" width="2" height="15.62222222222222" id="cases-ep-33"></rect></g><g><rect x="75.83636363636364" y="81.99555555555555" width="2" height="18.004444444444445" id="cases-ep-34"></rect></g><g><rect x="72.27272727272727" y="79.2" width="2" height="20.799999999999997" id="cases-ep-35"></rect></g><g><rect x="68.70909090909092" y="75.8488888888889" width="2" height="24.151111111111106" id="cases-ep-36"></rect></g><g><rect x="65.14545454545454" y="71.49555555555555" width="2" height="28.504444444444445" id="cases-ep-37"></rect></g><g><rect x="61.58181818181818" y="87.69111111111111" width="2" height="12.308888888888887" id="cases-ep-38"></rect></g><g><rect x="58.018181818181816" y="84.18444444444444" width="2" height="15.815555555555562" id="cases-ep-39"></rect></g><g><rect x="54.454545454545446" y="70.29777777777777" width="2" height="29.702222222222233" id="cases-ep-40"></rect></g><g><rect x="50.89090909090908" y="68.7311111111111" width="2" height="31.268888888888895" id="cases-ep-41"></rect></g><g><rect x="47.32727272727273" y="64.31777777777779" width="2" height="35.68222222222221" id="cases-ep-42"></rect></g><g><rect x="43.76363636363636" y="60.428888888888885" width="2" height="39.571111111111115" id="cases-ep-43"></rect></g><g><rect x="40.199999999999996" y="50.50222222222223" width="2" height="49.49777777777777" id="cases-ep-44"></rect></g><g><rect x="36.636363636363626" y="78.26888888888888" width="2" height="21.73111111111112" id="cases-ep-45"></rect></g><g><rect x="33.072727272727285" y="74.12444444444444" width="2" height="25.875555555555565" id="cases-ep-46"></rect></g><g><rect x="29.509090909090922" y="51.83333333333333" width="2" height="48.16666666666667" id="cases-ep-47"></rect></g><g><rect x="25.945454545454556" y="47.18444444444444" width="2" height="52.81555555555556" id="cases-ep-48"></rect></g><g><rect x="22.38181818181819" y="39.79555555555555" width="2" height="60.20444444444445" id="cases-ep-49"></rect></g><g><rect x="18.818181818181824" y="27.891111111111112" width="2" height="72.10888888888888" id="cases-ep-50"></rect></g><g><rect x="15.254545454545461" y="15.004444444444442" width="2" height="84.99555555555555" id="cases-ep-51"></rect></g><g><rect x="11.690909090909095" y="65.75777777777778" width="2" height="34.242222222222225" id="cases-ep-52"></rect></g><g><rect x="8.12727272727273" y="53.60222222222222" width="2" height="46.39777777777778" id="cases-ep-53"></rect></g><g><rect x="4.563636363636365" y="14.02888888888889" width="2" height="85.97111111111111" id="cases-ep-54"></rect></g><g><rect x="1" y="2.211111111111108" width="2" height="97.78888888888889" id="cases-ep-55"></rect></g></g><g class="fg-line cases-ep" fill="none" stroke="#92c5de" stroke-width="2" stroke-linecap="round"><path d="M198,95.50761904761906L194.43636363636364,95.43238095238095L190.87272727272727,95.58063492063492L187.30909090909088,95.49111111111111L183.74545454545455,95.46761904761905L180.1818181818182,95.37777777777778L176.61818181818182,95.26857142857142L173.05454545454546,95.1711111111111L169.49090909090907,94.97682539682539L165.92727272727274,94.74126984126984L162.36363636363637,94.43650793650794L158.8,94.26603174603174L155.23636363636365,94.08253968253968L151.6727272727273,93.81460317460318L148.1090909090909,93.48063492063491L144.54545454545453,93.16253968253967L140.9818181818182,92.7136507936508L137.41818181818184,92.25142857142858L133.85454545454544,92.06507936507936L130.29090909090908,91.86603174603174L126.72727272727273,91.34666666666666L123.16363636363636,90.85492063492063L119.6,90.34952380952382L116.03636363636363,89.57333333333334L112.47272727272728,89.5431746031746L108.90909090909089,89.15301587301587L105.34545454545456,88.67746031746032L101.78181818181817,87.95492063492063L98.21818181818183,87.0111111111111L94.65454545454546,85.80857142857144L91.09090909090911,84.61809523809524L87.52727272727273,82.23936507936507L83.96363636363637,81.61873015873016L80.4,80.6847619047619L76.83636363636364,78.67333333333333L73.27272727272727,76.7784126984127L69.70909090909092,74.65238095238095L66.14545454545454,72.44952380952381L62.58181818181818,69.4504761904762L59.018181818181816,68.10444444444444L55.454545454545446,66.66730158730158L51.89090909090908,64.02952380952381L48.32727272727273,60.951428571428565L44.76363636363636,57.44825396825397L41.199999999999996,52.800000000000004L37.636363636363626,47.72888888888889L34.072727272727285,45.941587301587305L30.509090909090922,43.009841269841274L26.945454545454556,37.609206349206346L23.38181818181819,31.18444444444445L19.818181818181824,23.38984126984127L16.25454545454546,14.736507936507937L12.690909090909095,4.637460317460318L9.12727272727273,0.5946031746031699L5.563636363636365,-5.364126984126982L2,-17.472698412698406"></path></g></svg>