<svg meta="{&quot;DATA_PUBLISHED_DATE&quot;:&quot;2022-08-30&quot;,&quot;RENDER_DATE&quot;:&quot;2022-08-30&quot;,&quot;FIRST_DATE&quot;:&quot;2022-06-27&quot;,&quot;LAST_DATE&quot;:&quot;2022-08-21&quot;}" xmlns="http://www.w3.org/2000/svg" viewBox="0,0,200,100"><g transform="translate(0,0)"></g><g class="fg-bars cases-ep" fill="#00183f" stroke="none"><g><rect x="197" y="82.33928571428571" width="2" height="17.660714285714292" id="cases-ep-0"></rect></g><g><rect x="193.43636363636364" y="79.825" width="2" height="20.174999999999997" id="cases-ep-1"></rect></g><g><rect x="189.87272727272727" y="71.05357142857143" width="2" height="28.94642857142857" id="cases-ep-2"></rect></g><g><rect x="186.30909090909088" y="68.68928571428572" width="2" height="31.310714285714283" id="cases-ep-3"></rect></g><g><rect x="182.74545454545455" y="65.91071428571429" width="2" height="34.08928571428571" id="cases-ep-4"></rect></g><g><rect x="179.1818181818182" y="61.84285714285714" width="2" height="38.15714285714286" id="cases-ep-5"></rect></g><g><rect x="175.61818181818182" y="58.224999999999994" width="2" height="41.775000000000006" id="cases-ep-6"></rect></g><g><rect x="172.05454545454546" y="78.81071428571428" width="2" height="21.189285714285717" id="cases-ep-7"></rect></g><g><rect x="168.49090909090907" y="77.20357142857142" width="2" height="22.796428571428578" id="cases-ep-8"></rect></g><g><rect x="164.92727272727274" y="66.64285714285714" width="2" height="33.35714285714286" id="cases-ep-9"></rect></g><g><rect x="161.36363636363637" y="63.78214285714285" width="2" height="36.21785714285715" id="cases-ep-10"></rect></g><g><rect x="157.8" y="60.05357142857143" width="2" height="39.94642857142857" id="cases-ep-11"></rect></g><g><rect x="154.23636363636365" y="56.53928571428571" width="2" height="43.46071428571429" id="cases-ep-12"></rect></g><g><rect x="150.6727272727273" y="48.61071428571429" width="2" height="51.38928571428571" id="cases-ep-13"></rect></g><g><rect x="147.1090909090909" y="74.96428571428572" width="2" height="25.035714285714278" id="cases-ep-14"></rect></g><g><rect x="143.54545454545453" y="71.975" width="2" height="28.025000000000006" id="cases-ep-15"></rect></g><g><rect x="139.9818181818182" y="59.07142857142858" width="2" height="40.92857142857142" id="cases-ep-16"></rect></g><g><rect x="136.41818181818184" y="56.63571428571428" width="2" height="43.36428571428572" id="cases-ep-17"></rect></g><g><rect x="132.85454545454544" y="51.40714285714285" width="2" height="48.59285714285715" id="cases-ep-18"></rect></g><g><rect x="129.29090909090908" y="45.78928571428571" width="2" height="54.21071428571429" id="cases-ep-19"></rect></g><g><rect x="125.72727272727273" y="38.29285714285714" width="2" height="61.70714285714286" id="cases-ep-20"></rect></g><g><rect x="122.16363636363636" y="71.23214285714286" width="2" height="28.76785714285714" id="cases-ep-21"></rect></g><g><rect x="118.6" y="67.17857142857142" width="2" height="32.821428571428584" id="cases-ep-22"></rect></g><g><rect x="115.03636363636363" y="51.13214285714286" width="2" height="48.86785714285714" id="cases-ep-23"></rect></g><g><rect x="111.47272727272728" y="46.703571428571436" width="2" height="53.296428571428564" id="cases-ep-24"></rect></g><g><rect x="107.90909090909089" y="40.989285714285714" width="2" height="59.010714285714286" id="cases-ep-25"></rect></g><g><rect x="104.34545454545456" y="34.017857142857146" width="2" height="65.98214285714286" id="cases-ep-26"></rect></g><g><rect x="100.78181818181817" y="24.582142857142852" width="2" height="75.41785714285714" id="cases-ep-27"></rect></g><g><rect x="97.21818181818183" y="65.025" width="2" height="34.974999999999994" id="cases-ep-28"></rect></g><g><rect x="93.65454545454546" y="59.9392857142857" width="2" height="40.0607142857143" id="cases-ep-29"></rect></g><g><rect x="90.09090909090911" y="39.142857142857146" width="2" height="60.857142857142854" id="cases-ep-30"></rect></g><g><rect x="86.52727272727273" y="37.278571428571425" width="2" height="62.721428571428575" id="cases-ep-31"></rect></g><g><rect x="82.96363636363637" y="31.025000000000002" width="2" height="68.975" id="cases-ep-32"></rect></g><g><rect x="79.4" y="25.049999999999994" width="2" height="74.95" id="cases-ep-33"></rect></g><g><rect x="75.83636363636364" y="16.61071428571429" width="2" height="83.3892857142857" id="cases-ep-34"></rect></g><g><rect x="72.27272727272727" y="60.975" width="2" height="39.025" id="cases-ep-35"></rect></g><g><rect x="68.70909090909092" y="54.27857142857142" width="2" height="45.72142857142858" id="cases-ep-36"></rect></g><g><rect x="65.14545454545454" y="33.207142857142856" width="2" height="66.79285714285714" id="cases-ep-37"></rect></g><g><rect x="61.58181818181818" y="29.37142857142857" width="2" height="70.62857142857143" id="cases-ep-38"></rect></g><g><rect x="58.018181818181816" y="24.74642857142857" width="2" height="75.25357142857143" id="cases-ep-39"></rect></g><g><rect x="54.454545454545446" y="20.54285714285714" width="2" height="79.45714285714286" id="cases-ep-40"></rect></g><g><rect x="50.89090909090908" y="13.303571428571425" width="2" height="86.69642857142857" id="cases-ep-41"></rect></g><g><rect x="47.32727272727273" y="58.63571428571428" width="2" height="41.36428571428572" id="cases-ep-42"></rect></g><g><rect x="43.76363636363636" y="52.35357142857142" width="2" height="47.64642857142858" id="cases-ep-43"></rect></g><g><rect x="40.199999999999996" y="28.31071428571429" width="2" height="71.68928571428572" id="cases-ep-44"></rect></g><g><rect x="36.636363636363626" y="24.83214285714286" width="2" height="75.16785714285714" id="cases-ep-45"></rect></g><g><rect x="33.072727272727285" y="18.325000000000003" width="2" height="81.675" id="cases-ep-46"></rect></g><g><rect x="29.509090909090922" y="3.485714285714281" width="2" height="96.51428571428572" id="cases-ep-47"></rect></g><g><rect x="25.945454545454556" y="64.725" width="2" height="35.275000000000006" id="cases-ep-48"></rect></g><g><rect x="22.38181818181819" y="65.20714285714287" width="2" height="34.79285714285713" id="cases-ep-49"></rect></g><g><rect x="18.818181818181824" y="59.425" width="2" height="40.575" id="cases-ep-50"></rect></g><g><rect x="15.254545454545461" y="36.332142857142856" width="2" height="63.667857142857144" id="cases-ep-51"></rect></g><g><rect x="11.690909090909095" y="35.385714285714286" width="2" height="64.61428571428571" id="cases-ep-52"></rect></g><g><rect x="8.12727272727273" y="29.47857142857143" width="2" height="70.52142857142857" id="cases-ep-53"></rect></g><g><rect x="4.563636363636365" y="24.91428571428571" width="2" height="75.08571428571429" id="cases-ep-54"></rect></g><g><rect x="1" y="19.44285714285714" width="2" height="80.55714285714286" id="cases-ep-55"></rect></g></g><g class="fg-line cases-ep" fill="none" stroke="#92c5de" stroke-width="2" stroke-linecap="round"><path d="M198,69.69795918367348L194.43636363636364,69.19387755102039L190.87272727272727,68.81938775510204L187.30909090909088,68.1892857142857L183.74545454545455,67.48826530612246L180.1818181818182,66.6515306122449L176.61818181818182,65.89387755102041L173.05454545454546,64.5204081632653L169.49090909090907,63.97091836734694L165.92727272727274,63.223979591836745L162.36363636363637,62.14234693877552L158.8,61.121428571428574L155.23636363636365,59.88622448979592L151.6727272727273,58.35051020408163L148.1090909090909,56.87653061224489L144.54545454545453,56.34336734693876L140.9818181818182,55.65816326530613L137.41818181818184,54.523979591836735L133.85454545454544,53.10510204081632L130.29090909090908,51.616836734693884L126.72727272727273,49.935204081632655L123.16363636363636,47.97653061224489L119.6,47.08979591836735L116.03636363636363,46.05561224489796L112.47272727272728,44.34285714285714L108.90909090909089,42.99642857142857L105.34545454545456,41.57295918367346L101.78181818181817,40.291836734693874L98.21818181818183,39.1530612244898L94.65454545454546,38.57448979591837L91.09090909090911,37.76581632653062L87.52727272727273,36.917857142857144L83.96363636363637,35.78826530612245L80.4,34.89132653061225L76.83636363636364,34.24744897959183L73.27272727272727,33.775L69.70909090909092,33.44081632653062L66.14545454545454,33.16581632653062L62.58181818181818,32.46632653061224L59.018181818181816,31.817857142857143L55.454545454545446,30.900510204081645L51.89090909090908,28.46377551020408L48.32727272727273,35.80969387755102L44.76363636363636,36.7484693877551L41.199999999999996,37.75867346938776L37.636363636363626,38.904591836734696L34.072727272727285,40.412244897959184L30.509090909090922,42.00561224489796L26.945454545454556,45.06683673469388L23.38181818181819,38.59795918367347L19.818181818181824,38.075L16.25454545454546,37.94744897959183L12.690909090909095,38.72755102040817L9.12727272727273,39.21377551020407L5.563636363636365,40.20357142857143L2,41.02755102040817"></path></g></svg>