<svg meta="{&quot;DATA_PUBLISHED_DATE&quot;:&quot;2022-11-23&quot;,&quot;RENDER_DATE&quot;:&quot;2022-11-24&quot;,&quot;FIRST_DATE&quot;:&quot;2022-09-21&quot;,&quot;LAST_DATE&quot;:&quot;2022-11-15&quot;}" xmlns="http://www.w3.org/2000/svg" viewBox="0,0,200,100"><g transform="translate(0,0)"></g><g class="fg-bars tests-vaccines" fill="#00183f" stroke="none"><g><rect x="197" y="43.62692307692308" width="2" height="56.37307692307692" id="tests-vaccines-0"></rect></g><g><rect x="193.43636363636364" y="42.48" width="2" height="57.52" id="tests-vaccines-1"></rect></g><g><rect x="189.87272727272727" y="84.28230769230768" width="2" height="15.717692307692317" id="tests-vaccines-2"></rect></g><g><rect x="186.30909090909088" y="69.14" width="2" height="30.86" id="tests-vaccines-3"></rect></g><g><rect x="182.74545454545455" y="25.017692307692307" width="2" height="74.9823076923077" id="tests-vaccines-4"></rect></g><g><rect x="179.1818181818182" y="38.77461538461539" width="2" height="61.22538461538461" id="tests-vaccines-5"></rect></g><g><rect x="175.61818181818182" y="42.01846153846154" width="2" height="57.98153846153846" id="tests-vaccines-6"></rect></g><g><rect x="172.05454545454546" y="47.956923076923076" width="2" height="52.043076923076924" id="tests-vaccines-7"></rect></g><g><rect x="168.49090909090907" y="39.776153846153846" width="2" height="60.223846153846154" id="tests-vaccines-8"></rect></g><g><rect x="164.92727272727274" y="83.15846153846154" width="2" height="16.841538461538462" id="tests-vaccines-9"></rect></g><g><rect x="161.36363636363637" y="63.721538461538465" width="2" height="36.278461538461535" id="tests-vaccines-10"></rect></g><g><rect x="157.8" y="17.621538461538467" width="2" height="82.37846153846154" id="tests-vaccines-11"></rect></g><g><rect x="154.23636363636365" y="37.79692307692307" width="2" height="62.20307692307693" id="tests-vaccines-12"></rect></g><g><rect x="150.6727272727273" y="33.63076923076923" width="2" height="66.36923076923077" id="tests-vaccines-13"></rect></g><g><rect x="147.1090909090909" y="38.245384615384616" width="2" height="61.754615384615384" id="tests-vaccines-14"></rect></g><g><rect x="143.54545454545453" y="40.29692307692307" width="2" height="59.70307692307693" id="tests-vaccines-15"></rect></g><g><rect x="139.9818181818182" y="82.64538461538461" width="2" height="17.354615384615386" id="tests-vaccines-16"></rect></g><g><rect x="136.41818181818184" y="62.85076923076923" width="2" height="37.14923076923077" id="tests-vaccines-17"></rect></g><g><rect x="132.85454545454544" y="11.01461538461539" width="2" height="88.98538461538462" id="tests-vaccines-18"></rect></g><g><rect x="129.29090909090908" y="26.85923076923077" width="2" height="73.14076923076922" id="tests-vaccines-19"></rect></g><g><rect x="125.72727272727273" y="20.409999999999997" width="2" height="79.59" id="tests-vaccines-20"></rect></g><g><rect x="122.16363636363636" y="27.996923076923075" width="2" height="72.00307692307692" id="tests-vaccines-21"></rect></g><g><rect x="118.6" y="25.92692307692308" width="2" height="74.07307692307691" id="tests-vaccines-22"></rect></g><g><rect x="115.03636363636363" y="81.32461538461538" width="2" height="18.675384615384615" id="tests-vaccines-23"></rect></g><g><rect x="111.47272727272728" y="59.519999999999996" width="2" height="40.480000000000004" id="tests-vaccines-24"></rect></g><g><rect x="107.90909090909089" y="7.71615384615385" width="2" height="92.28384615384616" id="tests-vaccines-25"></rect></g><g><rect x="104.34545454545456" y="26.042307692307688" width="2" height="73.95769230769231" id="tests-vaccines-26"></rect></g><g><rect x="100.78181818181817" y="22.185384615384617" width="2" height="77.81461538461538" id="tests-vaccines-27"></rect></g><g><rect x="97.21818181818183" y="27.402307692307694" width="2" height="72.59769230769231" id="tests-vaccines-28"></rect></g><g><rect x="93.65454545454546" y="22.863846153846158" width="2" height="77.13615384615385" id="tests-vaccines-29"></rect></g><g><rect x="90.09090909090911" y="80.34153846153846" width="2" height="19.658461538461538" id="tests-vaccines-30"></rect></g><g><rect x="86.52727272727273" y="60.11769230769231" width="2" height="39.88230769230769" id="tests-vaccines-31"></rect></g><g><rect x="82.96363636363637" y="5.220769230769228" width="2" height="94.77923076923076" id="tests-vaccines-32"></rect></g><g><rect x="79.4" y="25.744615384615386" width="2" height="74.25538461538461" id="tests-vaccines-33"></rect></g><g><rect x="75.83636363636364" y="21.534615384615385" width="2" height="78.46538461538461" id="tests-vaccines-34"></rect></g><g><rect x="72.27272727272727" y="26.721538461538465" width="2" height="73.27846153846153" id="tests-vaccines-35"></rect></g><g><rect x="68.70909090909092" y="24.561538461538458" width="2" height="75.43846153846154" id="tests-vaccines-36"></rect></g><g><rect x="65.14545454545454" y="79.38846153846154" width="2" height="20.61153846153846" id="tests-vaccines-37"></rect></g><g><rect x="61.58181818181818" y="59.065384615384616" width="2" height="40.934615384615384" id="tests-vaccines-38"></rect></g><g><rect x="58.018181818181816" y="7.5023076923076975" width="2" height="92.4976923076923" id="tests-vaccines-39"></rect></g><g><rect x="54.454545454545446" y="26.526923076923083" width="2" height="73.47307692307692" id="tests-vaccines-40"></rect></g><g><rect x="50.89090909090908" y="22.234615384615385" width="2" height="77.76538461538462" id="tests-vaccines-41"></rect></g><g><rect x="47.32727272727273" y="29.953076923076928" width="2" height="70.04692307692306" id="tests-vaccines-42"></rect></g><g><rect x="43.76363636363636" y="26.6" width="2" height="73.4" id="tests-vaccines-43"></rect></g><g><rect x="40.199999999999996" y="80.06076923076924" width="2" height="19.93923076923076" id="tests-vaccines-44"></rect></g><g><rect x="36.636363636363626" y="62.56538461538461" width="2" height="37.43461538461539" id="tests-vaccines-45"></rect></g><g><rect x="33.072727272727285" y="13.028461538461533" width="2" height="86.97153846153847" id="tests-vaccines-46"></rect></g><g><rect x="29.509090909090922" y="30.259230769230772" width="2" height="69.74076923076923" id="tests-vaccines-47"></rect></g><g><rect x="25.945454545454556" y="27.313076923076917" width="2" height="72.68692307692308" id="tests-vaccines-48"></rect></g><g><rect x="22.38181818181819" y="32.52538461538461" width="2" height="67.47461538461539" id="tests-vaccines-49"></rect></g><g><rect x="18.818181818181824" y="28.076923076923077" width="2" height="71.92307692307692" id="tests-vaccines-50"></rect></g><g><rect x="15.254545454545461" y="79.69769230769231" width="2" height="20.302307692307693" id="tests-vaccines-51"></rect></g><g><rect x="11.690909090909095" y="60.824615384615385" width="2" height="39.175384615384615" id="tests-vaccines-52"></rect></g><g><rect x="8.12727272727273" y="9.671538461538464" width="2" height="90.32846153846154" id="tests-vaccines-53"></rect></g><g><rect x="4.563636363636365" y="30.29384615384615" width="2" height="69.70615384615385" id="tests-vaccines-54"></rect></g><g><rect x="1" y="28.540769230769236" width="2" height="71.45923076923077" id="tests-vaccines-55"></rect></g></g><g class="fg-line tests-vaccines" fill="none" stroke="#92c5de" stroke-width="2" stroke-linecap="round"><path d="M198,49.33428571428572L194.43636363636364,49.95285714285714L190.87272727272727,49.566593406593405L187.30909090909088,49.40604395604395L183.74545454545455,48.63197802197803L180.1818181818182,47.57538461538462L176.61818181818182,47.43571428571428L173.05454545454546,46.237472527472534L169.49090909090907,44.85010989010989L165.92727272727274,44.924505494505496L162.36363636363637,44.8512087912088L158.8,44.72681318681319L155.23636363636365,43.782967032967036L151.6727272727273,42.22043956043956L148.1090909090909,40.331758241758244L144.54545454545453,38.8676923076923L140.9818181818182,36.81483516483516L137.41818181818184,36.62615384615384L133.85454545454544,36.15032967032966L130.29090909090908,35.67912087912089L126.72727272727273,35.56241758241758L123.16363636363636,35.816043956043956L119.6,35.7310989010989L116.03636363636363,35.293516483516484L112.47272727272728,35.153076923076924L108.90909090909089,35.23846153846154L105.34545454545456,34.88197802197802L101.78181818181817,34.83945054945055L98.21818181818183,34.74648351648351L94.65454545454546,34.64923076923077L91.09090909090911,34.89175824175824L87.52727272727273,34.75560439560439L83.96363636363637,34.605274725274725L80.4,34.9312087912088L76.83636363636364,35.042967032967034L73.27272727272727,35.14296703296703L69.70909090909092,35.60461538461539L66.14545454545454,35.895824175824174L62.58181818181818,35.99186813186813L59.018181818181816,36.49186813186813L55.454545454545446,37.28131868131869L51.89090909090908,37.814505494505504L48.32727272727273,38.54L44.76363636363636,38.90747252747253L41.199999999999996,39.11846153846154L37.636363636363626,39.066593406593405L34.072727272727285,38.817912087912084L30.509090909090922,38.338351648351654L26.945454545454556,38.3432967032967L23.38181818181819,38.51868131868132L19.818181818181824,38.95813186813187L16.25454545454546,39.889120879120874L12.690909090909095,40.2389010989011L9.12727272727273,40.970989010989015L5.563636363636365,42.71142857142858L2,44.03538461538462"></path></g></svg>