<svg meta="{&quot;DATA_PUBLISHED_DATE&quot;:&quot;2022-02-04&quot;,&quot;RENDER_DATE&quot;:&quot;2022-02-07&quot;,&quot;FIRST_DATE&quot;:&quot;2021-11-18&quot;,&quot;LAST_DATE&quot;:&quot;2022-01-12&quot;}" xmlns="http://www.w3.org/2000/svg" viewBox="0,0,200,100"><g transform="translate(0,0)"></g><g class="fg-bars death-date" fill="#00183f" stroke="none"><g><rect x="197" y="9.230769230769232" width="2" height="90.76923076923077" id="death-date-0"></rect></g><g><rect x="193.43636363636364" y="3.8461538461538436" width="2" height="96.15384615384616" id="death-date-1"></rect></g><g><rect x="189.87272727272727" y="16.92307692307692" width="2" height="83.07692307692308" id="death-date-2"></rect></g><g><rect x="186.30909090909088" y="31.538461538461537" width="2" height="68.46153846153847" id="death-date-3"></rect></g><g><rect x="182.74545454545455" y="21.53846153846154" width="2" height="78.46153846153845" id="death-date-4"></rect></g><g><rect x="179.1818181818182" y="36.15384615384616" width="2" height="63.84615384615384" id="death-date-5"></rect></g><g><rect x="175.61818181818182" y="23.076923076923073" width="2" height="76.92307692307693" id="death-date-6"></rect></g><g><rect x="172.05454545454546" y="28.46153846153846" width="2" height="71.53846153846155" id="death-date-7"></rect></g><g><rect x="168.49090909090907" y="33.84615384615385" width="2" height="66.15384615384616" id="death-date-8"></rect></g><g><rect x="164.92727272727274" y="36.92307692307693" width="2" height="63.07692307692307" id="death-date-9"></rect></g><g><rect x="161.36363636363637" y="50" width="2" height="50" id="death-date-10"></rect></g><g><rect x="157.8" y="51.53846153846153" width="2" height="48.46153846153847" id="death-date-11"></rect></g><g><rect x="154.23636363636365" y="47.692307692307686" width="2" height="52.307692307692314" id="death-date-12"></rect></g><g><rect x="150.6727272727273" y="58.46153846153845" width="2" height="41.53846153846155" id="death-date-13"></rect></g><g><rect x="147.1090909090909" y="54.61538461538462" width="2" height="45.38461538461538" id="death-date-14"></rect></g><g><rect x="143.54545454545453" y="68.46153846153847" width="2" height="31.538461538461533" id="death-date-15"></rect></g><g><rect x="139.9818181818182" y="48.46153846153847" width="2" height="51.53846153846153" id="death-date-16"></rect></g><g><rect x="136.41818181818184" y="63.07692307692307" width="2" height="36.92307692307693" id="death-date-17"></rect></g><g><rect x="132.85454545454544" y="57.692307692307686" width="2" height="42.307692307692314" id="death-date-18"></rect></g><g><rect x="129.29090909090908" y="55.38461538461539" width="2" height="44.61538461538461" id="death-date-19"></rect></g><g><rect x="125.72727272727273" y="54.61538461538462" width="2" height="45.38461538461538" id="death-date-20"></rect></g><g><rect x="122.16363636363636" y="64.61538461538461" width="2" height="35.38461538461539" id="death-date-21"></rect></g><g><rect x="118.6" y="60" width="2" height="40" id="death-date-22"></rect></g><g><rect x="115.03636363636363" y="54.61538461538462" width="2" height="45.38461538461538" id="death-date-23"></rect></g><g><rect x="111.47272727272728" y="52.3076923076923" width="2" height="47.6923076923077" id="death-date-24"></rect></g><g><rect x="107.90909090909089" y="62.30769230769231" width="2" height="37.69230769230769" id="death-date-25"></rect></g><g><rect x="104.34545454545456" y="57.692307692307686" width="2" height="42.307692307692314" id="death-date-26"></rect></g><g><rect x="100.78181818181817" y="46.92307692307692" width="2" height="53.07692307692308" id="death-date-27"></rect></g><g><rect x="97.21818181818183" y="53.07692307692308" width="2" height="46.92307692307692" id="death-date-28"></rect></g><g><rect x="93.65454545454546" y="50.76923076923077" width="2" height="49.23076923076923" id="death-date-29"></rect></g><g><rect x="90.09090909090911" y="53.84615384615385" width="2" height="46.15384615384615" id="death-date-30"></rect></g><g><rect x="86.52727272727273" y="60" width="2" height="40" id="death-date-31"></rect></g><g><rect x="82.96363636363637" y="59.23076923076923" width="2" height="40.76923076923077" id="death-date-32"></rect></g><g><rect x="79.4" y="63.07692307692307" width="2" height="36.92307692307693" id="death-date-33"></rect></g><g><rect x="75.83636363636364" y="57.692307692307686" width="2" height="42.307692307692314" id="death-date-34"></rect></g><g><rect x="72.27272727272727" y="59.23076923076923" width="2" height="40.76923076923077" id="death-date-35"></rect></g><g><rect x="68.70909090909092" y="51.53846153846153" width="2" height="48.46153846153847" id="death-date-36"></rect></g><g><rect x="65.14545454545454" y="66.92307692307693" width="2" height="33.076923076923066" id="death-date-37"></rect></g><g><rect x="61.58181818181818" y="58.46153846153845" width="2" height="41.53846153846155" id="death-date-38"></rect></g><g><rect x="58.018181818181816" y="49.23076923076923" width="2" height="50.76923076923077" id="death-date-39"></rect></g><g><rect x="54.454545454545446" y="53.07692307692308" width="2" height="46.92307692307692" id="death-date-40"></rect></g><g><rect x="50.89090909090908" y="48.46153846153847" width="2" height="51.53846153846153" id="death-date-41"></rect></g><g><rect x="47.32727272727273" y="52.3076923076923" width="2" height="47.6923076923077" id="death-date-42"></rect></g><g><rect x="43.76363636363636" y="62.30769230769231" width="2" height="37.69230769230769" id="death-date-43"></rect></g><g><rect x="40.199999999999996" y="44.61538461538461" width="2" height="55.38461538461539" id="death-date-44"></rect></g><g><rect x="36.636363636363626" y="62.30769230769231" width="2" height="37.69230769230769" id="death-date-45"></rect></g><g><rect x="33.072727272727285" y="61.53846153846154" width="2" height="38.46153846153846" id="death-date-46"></rect></g><g><rect x="29.509090909090922" y="52.3076923076923" width="2" height="47.6923076923077" id="death-date-47"></rect></g><g><rect x="25.945454545454556" y="60" width="2" height="40" id="death-date-48"></rect></g><g><rect x="22.38181818181819" y="55.38461538461539" width="2" height="44.61538461538461" id="death-date-49"></rect></g><g><rect x="18.818181818181824" y="45.38461538461539" width="2" height="54.61538461538461" id="death-date-50"></rect></g><g><rect x="15.254545454545461" y="49.23076923076923" width="2" height="50.76923076923077" id="death-date-51"></rect></g><g><rect x="11.690909090909095" y="48.46153846153847" width="2" height="51.53846153846153" id="death-date-52"></rect></g><g><rect x="8.12727272727273" y="50" width="2" height="50" id="death-date-53"></rect></g><g><rect x="4.563636363636365" y="39.23076923076923" width="2" height="60.76923076923077" id="death-date-54"></rect></g><g><rect x="1" y="49.23076923076923" width="2" height="50.76923076923077" id="death-date-55"></rect></g></g><g class="fg-line death-date" fill="none" stroke="#92c5de" stroke-width="2" stroke-linecap="round"><path d="M198,20.329670329670336L194.43636363636364,23.076923076923073L190.87272727272727,27.362637362637365L187.30909090909088,30.219780219780223L183.74545454545455,32.857142857142854L180.1818181818182,37.142857142857146L176.61818181818182,38.791208791208796L173.05454545454546,43.84615384615385L169.49090909090907,47.58241758241759L165.92727272727274,52.52747252747252L162.36363636363637,54.17582417582418L158.8,56.043956043956044L155.23636363636365,56.92307692307692L151.6727272727273,58.021978021978015L148.1090909090909,57.47252747252747L144.54545454545453,58.90109890109889L140.9818181818182,57.692307692307686L137.41818181818184,58.57142857142858L133.85454545454544,57.03296703296703L130.29090909090908,57.692307692307686L126.72727272727273,58.021978021978015L123.16363636363636,56.92307692307692L119.6,55.27472527472528L116.03636363636363,53.95604395604396L112.47272727272728,53.84615384615385L108.90909090909089,54.94505494505495L105.34545454545456,54.505494505494504L101.78181818181817,55.27472527472528L98.21818181818183,56.81318681318681L94.65454545454546,57.692307692307686L91.09090909090911,57.802197802197796L87.52727272727273,59.67032967032967L83.96363636363637,59.45054945054945L80.4,58.021978021978015L76.83636363636364,56.59340659340659L73.27272727272727,55.27472527472528L69.70909090909092,54.285714285714285L66.14545454545454,55.824175824175825L62.58181818181818,52.63736263736264L59.018181818181816,53.18681318681319L55.454545454545446,54.94505494505495L51.89090909090908,54.83516483516484L48.32727272727273,56.48351648351648L44.76363636363636,56.92307692307692L41.199999999999996,54.505494505494504L37.636363636363626,55.16483516483517L34.072727272727285,53.18681318681319L30.509090909090922,51.53846153846153L26.945454545454556,49.67032967032967L23.38181818181819,48.131868131868124L19.818181818181824,46.043956043956044L16.25454545454546,47.802197802197796L12.690909090909095,46.26373626373626L9.12727272727273,46.26373626373626L5.563636363636365,47.03296703296703L2,47.91208791208792"></path></g></svg>