<svg about="DATA_PUBLISHED_DATE:2022-01-21,RENDER_DATE:2022-01-21" xmlns="http://www.w3.org/2000/svg" viewBox="0,0,200,100"><g transform="translate(0,0)"></g><g class="fg-bars cases-ep" fill="#00183f" stroke="none"><g><rect x="197" y="28.898124999999997" width="2" height="71.101875" id="cases-ep-0"></rect></g><g><rect x="193.43636363636364" y="22.869375" width="2" height="77.130625" id="cases-ep-1"></rect></g><g><rect x="189.87272727272727" y="19.401875" width="2" height="80.598125" id="cases-ep-2"></rect></g><g><rect x="186.30909090909088" y="68.87" width="2" height="31.129999999999995" id="cases-ep-3"></rect></g><g><rect x="182.74545454545455" y="55.962500000000006" width="2" height="44.037499999999994" id="cases-ep-4"></rect></g><g><rect x="179.1818181818182" y="20.487500000000004" width="2" height="79.51249999999999" id="cases-ep-5"></rect></g><g><rect x="175.61818181818182" y="15.527500000000005" width="2" height="84.4725" id="cases-ep-6"></rect></g><g><rect x="172.05454545454546" y="8.366249999999997" width="2" height="91.63375" id="cases-ep-7"></rect></g><g><rect x="168.49090909090907" y="7.713749999999997" width="2" height="92.28625" id="cases-ep-8"></rect></g><g><rect x="164.92727272727274" y="18.549375" width="2" height="81.450625" id="cases-ep-9"></rect></g><g><rect x="161.36363636363637" y="67.85375" width="2" height="32.146249999999995" id="cases-ep-10"></rect></g><g><rect x="157.8" y="82.00874999999999" width="2" height="17.991250000000008" id="cases-ep-11"></rect></g><g><rect x="154.23636363636365" y="68.5625" width="2" height="31.4375" id="cases-ep-12"></rect></g><g><rect x="150.6727272727273" y="48.73499999999999" width="2" height="51.26500000000001" id="cases-ep-13"></rect></g><g><rect x="147.1090909090909" y="46.697500000000005" width="2" height="53.302499999999995" id="cases-ep-14"></rect></g><g><rect x="143.54545454545453" y="47.129374999999996" width="2" height="52.870625000000004" id="cases-ep-15"></rect></g><g><rect x="139.9818181818182" y="55.15687499999999" width="2" height="44.84312500000001" id="cases-ep-16"></rect></g><g><rect x="136.41818181818184" y="78.94125" width="2" height="21.058750000000003" id="cases-ep-17"></rect></g><g><rect x="132.85454545454544" y="91.608125" width="2" height="8.391874999999999" id="cases-ep-18"></rect></g><g><rect x="129.29090909090908" y="86.983125" width="2" height="13.016874999999999" id="cases-ep-19"></rect></g><g><rect x="125.72727272727273" y="80.506875" width="2" height="19.493125000000006" id="cases-ep-20"></rect></g><g><rect x="122.16363636363636" y="80.83" width="2" height="19.17" id="cases-ep-21"></rect></g><g><rect x="118.6" y="83.47375" width="2" height="16.526250000000005" id="cases-ep-22"></rect></g><g><rect x="115.03636363636363" y="85.9475" width="2" height="14.052499999999995" id="cases-ep-23"></rect></g><g><rect x="111.47272727272728" y="93.560625" width="2" height="6.439374999999998" id="cases-ep-24"></rect></g><g><rect x="107.90909090909089" y="94.045" width="2" height="5.954999999999998" id="cases-ep-25"></rect></g><g><rect x="104.34545454545456" y="93.15875" width="2" height="6.841250000000002" id="cases-ep-26"></rect></g><g><rect x="100.78181818181817" y="93.698125" width="2" height="6.3018749999999955" id="cases-ep-27"></rect></g><g><rect x="97.21818181818183" y="93.77" width="2" height="6.230000000000004" id="cases-ep-28"></rect></g><g><rect x="93.65454545454546" y="94.83687499999999" width="2" height="5.163125000000008" id="cases-ep-29"></rect></g><g><rect x="90.09090909090911" y="94.50375" width="2" height="5.496250000000003" id="cases-ep-30"></rect></g><g><rect x="86.52727272727273" y="97.28125" width="2" height="2.71875" id="cases-ep-31"></rect></g><g><rect x="82.96363636363637" y="97.36875" width="2" height="2.6312499999999943" id="cases-ep-32"></rect></g><g><rect x="79.4" y="96.40875" width="2" height="3.5912500000000023" id="cases-ep-33"></rect></g><g><rect x="75.83636363636364" y="96.4175" width="2" height="3.582499999999996" id="cases-ep-34"></rect></g><g><rect x="72.27272727272727" y="95.965" width="2" height="4.034999999999997" id="cases-ep-35"></rect></g><g><rect x="68.70909090909092" y="95.93312499999999" width="2" height="4.06687500000001" id="cases-ep-36"></rect></g><g><rect x="65.14545454545454" y="95.378125" width="2" height="4.621875000000003" id="cases-ep-37"></rect></g><g><rect x="61.58181818181818" y="97.589375" width="2" height="2.410624999999996" id="cases-ep-38"></rect></g><g><rect x="58.018181818181816" y="97.405625" width="2" height="2.5943749999999994" id="cases-ep-39"></rect></g><g><rect x="54.454545454545446" y="96.1625" width="2" height="3.8375000000000057" id="cases-ep-40"></rect></g><g><rect x="50.89090909090908" y="96.0525" width="2" height="3.947500000000005" id="cases-ep-41"></rect></g><g><rect x="47.32727272727273" y="95.326875" width="2" height="4.673124999999999" id="cases-ep-42"></rect></g><g><rect x="43.76363636363636" y="95.5775" width="2" height="4.422499999999999" id="cases-ep-43"></rect></g><g><rect x="40.199999999999996" y="94.83125" width="2" height="5.168750000000003" id="cases-ep-44"></rect></g><g><rect x="36.636363636363626" y="97.2475" width="2" height="2.7524999999999977" id="cases-ep-45"></rect></g><g><rect x="33.072727272727285" y="97.361875" width="2" height="2.6381250000000023" id="cases-ep-46"></rect></g><g><rect x="29.509090909090922" y="97.285" width="2" height="2.7150000000000034" id="cases-ep-47"></rect></g><g><rect x="25.945454545454556" y="98.57187499999999" width="2" height="1.4281250000000085" id="cases-ep-48"></rect></g><g><rect x="22.38181818181819" y="97.0925" width="2" height="2.907499999999999" id="cases-ep-49"></rect></g><g><rect x="18.818181818181824" y="96.9775" width="2" height="3.0224999999999937" id="cases-ep-50"></rect></g><g><rect x="15.254545454545461" y="96.74625" width="2" height="3.2537499999999966" id="cases-ep-51"></rect></g><g><rect x="11.690909090909095" y="98.15937500000001" width="2" height="1.8406249999999886" id="cases-ep-52"></rect></g><g><rect x="8.12727272727273" y="97.96187499999999" width="2" height="2.038125000000008" id="cases-ep-53"></rect></g><g><rect x="4.563636363636365" y="97.141875" width="2" height="2.858125000000001" id="cases-ep-54"></rect></g><g><rect x="1" y="97.08687499999999" width="2" height="2.913125000000008" id="cases-ep-55"></rect></g></g><g class="fg-line cases-ep" fill="none" stroke="#92c5de" stroke-width="2" stroke-linecap="round"><path d="M198,33.145267857142855L194.43636363636364,30.212142857142855L190.87272727272727,28.04705357142857L187.30909090909088,27.925267857142856L183.74545454545455,27.780089285714283L180.1818181818182,31.500982142857147L176.61818181818182,38.36883928571429L173.05454545454546,43.112767857142856L169.49090909090907,48.588660714285716L165.92727272727274,54.219464285714295L162.36363636363637,59.44910714285714L158.8,61.03303571428571L155.23636363636365,62.404375L151.6727272727273,65.03589285714287L148.1090909090909,69.57473214285714L144.54545454545453,74.45080357142857L140.9818181818182,79.64285714285715L137.41818181818184,84.04151785714285L133.85454545454544,86.13L130.29090909090908,86.478125L126.72727272727273,87.36035714285715L123.16363636363636,89.24482142857143L119.6,91.09339285714285L116.03636363636363,92.71669642857144L112.47272727272728,93.93901785714286L108.90909090909089,94.47053571428572L105.34545454545456,94.94535714285715L101.78181818181817,95.40964285714286L98.21818181818183,95.798125L94.65454545454546,96.11169642857142L91.09090909090911,96.26830357142858L87.52727272727273,96.3932142857143L83.96363636363637,96.43723214285714L80.4,96.4425L76.83636363636364,96.40732142857142L73.27272727272727,96.35517857142857L69.70909090909092,96.26401785714286L66.14545454545454,96.21321428571429L62.58181818181818,96.13508928571429L59.018181818181816,96.08624999999999L55.454545454545446,96.08L51.89090909090908,96.24035714285715L48.32727272727273,96.60026785714287L44.76363636363636,96.85249999999999L41.199999999999996,97.0525L37.636363636363626,97.32607142857142L34.072727272727285,97.4563392857143L30.509090909090922,97.54205357142857L26.945454545454556,97.52160714285715L23.38181818181819,97.30946428571428L19.818181818181824,97.26625L16.25454545454546,97.21589285714286L12.690909090909095,97.11205357142858L9.12727272727273,97.08589285714285L5.563636363636365,97.07098214285715L2,97.02508928571429"></path></g></svg>