<svg meta="{&quot;DATA_PUBLISHED_DATE&quot;:&quot;2022-03-28&quot;,&quot;RENDER_DATE&quot;:&quot;2022-03-28&quot;,&quot;FIRST_DATE&quot;:&quot;2022-01-24&quot;,&quot;LAST_DATE&quot;:&quot;2022-03-20&quot;}" xmlns="http://www.w3.org/2000/svg" viewBox="0,0,200,100"><g transform="translate(0,0)"></g><g class="fg-bars tests-vaccines" fill="#00183f" stroke="none"><g><rect x="197" y="94.06166666666667" width="2" height="5.938333333333333" id="tests-vaccines-0"></rect></g><g><rect x="193.43636363636364" y="87.49333333333334" width="2" height="12.50666666666666" id="tests-vaccines-1"></rect></g><g><rect x="189.87272727272727" y="77.23777777777778" width="2" height="22.76222222222222" id="tests-vaccines-2"></rect></g><g><rect x="186.30909090909088" y="83.68111111111112" width="2" height="16.31888888888888" id="tests-vaccines-3"></rect></g><g><rect x="182.74545454545455" y="83.11833333333334" width="2" height="16.88166666666666" id="tests-vaccines-4"></rect></g><g><rect x="179.1818181818182" y="83.25444444444445" width="2" height="16.745555555555555" id="tests-vaccines-5"></rect></g><g><rect x="175.61818181818182" y="83.56833333333333" width="2" height="16.431666666666672" id="tests-vaccines-6"></rect></g><g><rect x="172.05454545454546" y="93.62777777777778" width="2" height="6.37222222222222" id="tests-vaccines-7"></rect></g><g><rect x="168.49090909090907" y="86.49111111111111" width="2" height="13.50888888888889" id="tests-vaccines-8"></rect></g><g><rect x="164.92727272727274" y="76.74388888888889" width="2" height="23.25611111111111" id="tests-vaccines-9"></rect></g><g><rect x="161.36363636363637" y="81.71833333333333" width="2" height="18.281666666666666" id="tests-vaccines-10"></rect></g><g><rect x="157.8" y="80.70833333333334" width="2" height="19.291666666666657" id="tests-vaccines-11"></rect></g><g><rect x="154.23636363636365" y="81.82555555555555" width="2" height="18.174444444444447" id="tests-vaccines-12"></rect></g><g><rect x="150.6727272727273" y="81.24333333333334" width="2" height="18.75666666666666" id="tests-vaccines-13"></rect></g><g><rect x="147.1090909090909" y="92.805" width="2" height="7.194999999999993" id="tests-vaccines-14"></rect></g><g><rect x="143.54545454545453" y="84.25888888888889" width="2" height="15.74111111111111" id="tests-vaccines-15"></rect></g><g><rect x="139.9818181818182" y="69.98666666666666" width="2" height="30.013333333333335" id="tests-vaccines-16"></rect></g><g><rect x="136.41818181818184" y="77.92666666666666" width="2" height="22.073333333333338" id="tests-vaccines-17"></rect></g><g><rect x="132.85454545454544" y="76.13499999999999" width="2" height="23.86500000000001" id="tests-vaccines-18"></rect></g><g><rect x="129.29090909090908" y="73.36722222222222" width="2" height="26.632777777777775" id="tests-vaccines-19"></rect></g><g><rect x="125.72727272727273" y="68.44" width="2" height="31.560000000000002" id="tests-vaccines-20"></rect></g><g><rect x="122.16363636363636" y="89.225" width="2" height="10.775000000000006" id="tests-vaccines-21"></rect></g><g><rect x="118.6" y="78.60277777777777" width="2" height="21.397222222222226" id="tests-vaccines-22"></rect></g><g><rect x="115.03636363636363" y="59.38333333333333" width="2" height="40.61666666666667" id="tests-vaccines-23"></rect></g><g><rect x="111.47272727272728" y="70.32444444444444" width="2" height="29.67555555555556" id="tests-vaccines-24"></rect></g><g><rect x="107.90909090909089" y="70.41277777777778" width="2" height="29.587222222222223" id="tests-vaccines-25"></rect></g><g><rect x="104.34545454545456" y="69.89611111111111" width="2" height="30.10388888888889" id="tests-vaccines-26"></rect></g><g><rect x="100.78181818181817" y="77.27888888888889" width="2" height="22.721111111111114" id="tests-vaccines-27"></rect></g><g><rect x="97.21818181818183" y="88.2388888888889" width="2" height="11.761111111111106" id="tests-vaccines-28"></rect></g><g><rect x="93.65454545454546" y="75.28277777777778" width="2" height="24.71722222222222" id="tests-vaccines-29"></rect></g><g><rect x="90.09090909090911" y="53.64833333333333" width="2" height="46.35166666666667" id="tests-vaccines-30"></rect></g><g><rect x="86.52727272727273" y="66.38777777777779" width="2" height="33.612222222222215" id="tests-vaccines-31"></rect></g><g><rect x="82.96363636363637" y="66.77444444444444" width="2" height="33.22555555555556" id="tests-vaccines-32"></rect></g><g><rect x="79.4" y="68.03444444444445" width="2" height="31.965555555555554" id="tests-vaccines-33"></rect></g><g><rect x="75.83636363636364" y="72.07611111111112" width="2" height="27.923888888888882" id="tests-vaccines-34"></rect></g><g><rect x="72.27272727272727" y="89.25722222222223" width="2" height="10.742777777777775" id="tests-vaccines-35"></rect></g><g><rect x="68.70909090909092" y="71.80055555555556" width="2" height="28.19944444444444" id="tests-vaccines-36"></rect></g><g><rect x="65.14545454545454" y="46.324444444444445" width="2" height="53.675555555555555" id="tests-vaccines-37"></rect></g><g><rect x="61.58181818181818" y="59.26777777777779" width="2" height="40.73222222222221" id="tests-vaccines-38"></rect></g><g><rect x="58.018181818181816" y="57.18055555555556" width="2" height="42.81944444444444" id="tests-vaccines-39"></rect></g><g><rect x="54.454545454545446" y="57.63666666666667" width="2" height="42.36333333333333" id="tests-vaccines-40"></rect></g><g><rect x="50.89090909090908" y="56.3" width="2" height="43.7" id="tests-vaccines-41"></rect></g><g><rect x="47.32727272727273" y="83.21499999999999" width="2" height="16.78500000000001" id="tests-vaccines-42"></rect></g><g><rect x="43.76363636363636" y="62.113888888888894" width="2" height="37.886111111111106" id="tests-vaccines-43"></rect></g><g><rect x="40.199999999999996" y="30.752222222222226" width="2" height="69.24777777777777" id="tests-vaccines-44"></rect></g><g><rect x="36.636363636363626" y="47.815" width="2" height="52.185" id="tests-vaccines-45"></rect></g><g><rect x="33.072727272727285" y="45.99666666666666" width="2" height="54.00333333333334" id="tests-vaccines-46"></rect></g><g><rect x="29.509090909090922" y="44.93388888888889" width="2" height="55.06611111111111" id="tests-vaccines-47"></rect></g><g><rect x="25.945454545454556" y="39.66722222222222" width="2" height="60.33277777777778" id="tests-vaccines-48"></rect></g><g><rect x="22.38181818181819" y="79.07166666666667" width="2" height="20.928333333333327" id="tests-vaccines-49"></rect></g><g><rect x="18.818181818181824" y="50.22277777777777" width="2" height="49.77722222222223" id="tests-vaccines-50"></rect></g><g><rect x="15.254545454545461" y="7.208333333333339" width="2" height="92.79166666666666" id="tests-vaccines-51"></rect></g><g><rect x="11.690909090909095" y="26.846111111111114" width="2" height="73.15388888888889" id="tests-vaccines-52"></rect></g><g><rect x="8.12727272727273" y="26.39944444444444" width="2" height="73.60055555555556" id="tests-vaccines-53"></rect></g><g><rect x="4.563636363636365" y="25.686666666666667" width="2" height="74.31333333333333" id="tests-vaccines-54"></rect></g><g><rect x="1" y="26.200000000000003" width="2" height="73.8" id="tests-vaccines-55"></rect></g></g><g class="fg-line tests-vaccines" fill="none" stroke="#92c5de" stroke-width="2" stroke-linecap="round"><path d="M198,84.63071428571428L194.43636363636364,84.56873015873016L190.87272727272727,84.42555555555555L187.30909090909088,84.355L183.74545454545455,84.07460317460318L180.1818181818182,83.73031746031747L176.61818181818182,83.52619047619048L173.05454545454546,83.19404761904762L169.49090909090907,83.07650793650794L165.92727272727274,82.75761904761904L162.36363636363637,81.79230158730158L158.8,81.25063492063492L155.23636363636365,80.59730158730159L151.6727272727273,79.38896825396824L148.1090909090909,77.55992063492063L144.54545454545453,77.04849206349206L140.9818181818182,76.24047619047619L137.41818181818184,74.72571428571429L133.85454545454544,73.63968253968254L130.29090909090908,72.82222222222222L126.72727272727273,72.3263492063492L123.16363636363636,73.58904761904762L119.6,73.4481746031746L116.03636363636363,72.9738888888889L112.47272727272728,72.15460317460318L108.90909090909089,71.59222222222222L105.34545454545456,71.07246031746031L101.78181818181817,70.80650793650793L98.21818181818183,70.06325396825397L94.65454545454546,70.20873015873016L91.09090909090911,69.71126984126984L87.52727272727273,68.66499999999999L83.96363636363637,67.64785714285715L80.4,66.27730158730158L76.83636363636364,64.79190476190476L73.27272727272727,62.53817460317461L69.70909090909092,61.675000000000004L66.14545454545454,60.29119047619047L62.58181818181818,58.066587301587305L59.018181818181816,56.430476190476185L55.454545454545446,54.83277777777778L51.89090909090908,53.01809523809524L48.32727272727273,50.64198412698413L44.76363636363636,50.05007936507937L41.199999999999996,48.351349206349205L37.636363636363626,44.98793650793651L34.072727272727285,41.99238095238095L30.509090909090922,39.19277777777778L26.945454545454556,36.44317460317461L23.38181818181819,34.51928571428572L19.818181818181824,33.965634920634926L16.25454545454546,33.50650793650794L12.690909090909095,32.283968253968254L9.12727272727273,30.49142857142858L5.563636363636365,28.2279365079365L2,25.88539682539682"></path></g></svg>