<svg about="DATA_PUBLISHED_DATE:2021-11-05,RENDER_DATE:2021-11-05" xmlns="http://www.w3.org/2000/svg" viewBox="0,0,200,100"><g transform="translate(0,0)"></g><g class="fg-bars tests-vaccines" fill="#00183f" stroke="none"><g><rect x="197" y="3.1133333333333346" width="2" height="96.88666666666667" id="tests-vaccines-0"></rect></g><g><rect x="193.43636363636364" y="2.5277777777777732" width="2" height="97.47222222222223" id="tests-vaccines-1"></rect></g><g><rect x="189.87272727272727" y="3.4572222222222226" width="2" height="96.54277777777777" id="tests-vaccines-2"></rect></g><g><rect x="186.30909090909088" y="11.70944444444444" width="2" height="88.29055555555556" id="tests-vaccines-3"></rect></g><g><rect x="182.74545454545455" y="74.31833333333333" width="2" height="25.681666666666672" id="tests-vaccines-4"></rect></g><g><rect x="179.1818181818182" y="49.995" width="2" height="50.005" id="tests-vaccines-5"></rect></g><g><rect x="175.61818181818182" y="12.07111111111111" width="2" height="87.92888888888889" id="tests-vaccines-6"></rect></g><g><rect x="172.05454545454546" y="47.776111111111106" width="2" height="52.223888888888894" id="tests-vaccines-7"></rect></g><g><rect x="168.49090909090907" y="49.94499999999999" width="2" height="50.05500000000001" id="tests-vaccines-8"></rect></g><g><rect x="164.92727272727274" y="48.08722222222222" width="2" height="51.91277777777778" id="tests-vaccines-9"></rect></g><g><rect x="161.36363636363637" y="45.91277777777778" width="2" height="54.08722222222222" id="tests-vaccines-10"></rect></g><g><rect x="157.8" y="83.3711111111111" width="2" height="16.628888888888895" id="tests-vaccines-11"></rect></g><g><rect x="154.23636363636365" y="68.08722222222222" width="2" height="31.912777777777777" id="tests-vaccines-12"></rect></g><g><rect x="150.6727272727273" y="31.606666666666673" width="2" height="68.39333333333333" id="tests-vaccines-13"></rect></g><g><rect x="147.1090909090909" y="45.31666666666667" width="2" height="54.68333333333333" id="tests-vaccines-14"></rect></g><g><rect x="143.54545454545453" y="45.897222222222226" width="2" height="54.102777777777774" id="tests-vaccines-15"></rect></g><g><rect x="139.9818181818182" y="42.55777777777779" width="2" height="57.44222222222221" id="tests-vaccines-16"></rect></g><g><rect x="136.41818181818184" y="41.67388888888889" width="2" height="58.32611111111111" id="tests-vaccines-17"></rect></g><g><rect x="132.85454545454544" y="80.57944444444445" width="2" height="19.420555555555552" id="tests-vaccines-18"></rect></g><g><rect x="129.29090909090908" y="64.50777777777779" width="2" height="35.49222222222221" id="tests-vaccines-19"></rect></g><g><rect x="125.72727272727273" y="22.45222222222222" width="2" height="77.54777777777778" id="tests-vaccines-20"></rect></g><g><rect x="122.16363636363636" y="36.317777777777785" width="2" height="63.682222222222215" id="tests-vaccines-21"></rect></g><g><rect x="118.6" y="40.64055555555556" width="2" height="59.35944444444444" id="tests-vaccines-22"></rect></g><g><rect x="115.03636363636363" y="39.175555555555555" width="2" height="60.824444444444445" id="tests-vaccines-23"></rect></g><g><rect x="111.47272727272728" y="39.422777777777775" width="2" height="60.577222222222225" id="tests-vaccines-24"></rect></g><g><rect x="107.90909090909089" y="79.09222222222222" width="2" height="20.90777777777778" id="tests-vaccines-25"></rect></g><g><rect x="104.34545454545456" y="62.96277777777778" width="2" height="37.03722222222222" id="tests-vaccines-26"></rect></g><g><rect x="100.78181818181817" y="20.80833333333333" width="2" height="79.19166666666666" id="tests-vaccines-27"></rect></g><g><rect x="97.21818181818183" y="27.575000000000006" width="2" height="72.425" id="tests-vaccines-28"></rect></g><g><rect x="93.65454545454546" y="29.084444444444447" width="2" height="70.91555555555556" id="tests-vaccines-29"></rect></g><g><rect x="90.09090909090911" y="28.666111111111114" width="2" height="71.33388888888888" id="tests-vaccines-30"></rect></g><g><rect x="86.52727272727273" y="34.35055555555555" width="2" height="65.64944444444444" id="tests-vaccines-31"></rect></g><g><rect x="82.96363636363637" y="78.28166666666667" width="2" height="21.718333333333334" id="tests-vaccines-32"></rect></g><g><rect x="79.4" y="60.81055555555556" width="2" height="39.18944444444444" id="tests-vaccines-33"></rect></g><g><rect x="75.83636363636364" y="40.11277777777777" width="2" height="59.88722222222223" id="tests-vaccines-34"></rect></g><g><rect x="72.27272727272727" y="60.16444444444444" width="2" height="39.83555555555556" id="tests-vaccines-35"></rect></g><g><rect x="68.70909090909092" y="60.06222222222222" width="2" height="39.93777777777778" id="tests-vaccines-36"></rect></g><g><rect x="65.14545454545454" y="58.87" width="2" height="41.13" id="tests-vaccines-37"></rect></g><g><rect x="61.58181818181818" y="55.54111111111111" width="2" height="44.45888888888889" id="tests-vaccines-38"></rect></g><g><rect x="58.018181818181816" y="81.81333333333333" width="2" height="18.186666666666667" id="tests-vaccines-39"></rect></g><g><rect x="54.454545454545446" y="68.35666666666667" width="2" height="31.64333333333333" id="tests-vaccines-40"></rect></g><g><rect x="50.89090909090908" y="46.626111111111115" width="2" height="53.373888888888885" id="tests-vaccines-41"></rect></g><g><rect x="47.32727272727273" y="54.235" width="2" height="45.765" id="tests-vaccines-42"></rect></g><g><rect x="43.76363636363636" y="55.65" width="2" height="44.35" id="tests-vaccines-43"></rect></g><g><rect x="40.199999999999996" y="55.19444444444444" width="2" height="44.80555555555556" id="tests-vaccines-44"></rect></g><g><rect x="36.636363636363626" y="53.056666666666665" width="2" height="46.943333333333335" id="tests-vaccines-45"></rect></g><g><rect x="33.072727272727285" y="80.34555555555556" width="2" height="19.654444444444437" id="tests-vaccines-46"></rect></g><g><rect x="29.509090909090922" y="64.90333333333334" width="2" height="35.096666666666664" id="tests-vaccines-47"></rect></g><g><rect x="25.945454545454556" y="39.94888888888889" width="2" height="60.05111111111111" id="tests-vaccines-48"></rect></g><g><rect x="22.38181818181819" y="50.71222222222222" width="2" height="49.28777777777778" id="tests-vaccines-49"></rect></g><g><rect x="18.818181818181824" y="50.33166666666666" width="2" height="49.66833333333334" id="tests-vaccines-50"></rect></g><g><rect x="15.254545454545461" y="45.116666666666674" width="2" height="54.883333333333326" id="tests-vaccines-51"></rect></g><g><rect x="11.690909090909095" y="89.19666666666667" width="2" height="10.803333333333327" id="tests-vaccines-52"></rect></g><g><rect x="8.12727272727273" y="78.80444444444444" width="2" height="21.195555555555558" id="tests-vaccines-53"></rect></g><g><rect x="4.563636363636365" y="64.35944444444445" width="2" height="35.64055555555555" id="tests-vaccines-54"></rect></g><g><rect x="1" y="34.20666666666666" width="2" height="65.79333333333334" id="tests-vaccines-55"></rect></g></g><g class="fg-line tests-vaccines" fill="none" stroke="#92c5de" stroke-width="2" stroke-linecap="round"><path d="M198,22.456031746031734L194.43636363636364,28.836428571428574L190.87272727272727,35.61031746031746L187.30909090909088,41.98603174603175L183.74545454545455,46.87222222222223L180.1818181818182,48.165476190476184L176.61818181818182,50.75007936507936L173.05454545454546,53.540873015873025L169.49090909090907,53.189523809523806L165.92727272727274,52.61126984126984L162.36363636363637,51.8213492063492L158.8,51.21579365079365L155.23636363636365,50.81698412698413L151.6727272727273,50.305634920634915L148.1090909090909,48.997857142857136L144.54545454545453,47.71230158730159L140.9818181818182,46.9613492063492L137.41818181818184,46.47817460317461L133.85454545454544,46.1565873015873L130.29090909090908,45.944126984126974L126.72727272727273,45.7234126984127L123.16363636363636,45.488571428571426L119.6,44.23960317460317L116.03636363636363,42.58873015873016L112.47272727272728,41.08738095238095L108.90909090909089,40.36277777777778L105.34545454545456,40.24698412698413L101.78181818181817,39.93952380952381L98.21818181818183,42.69730158730158L94.65454545454546,47.352936507936505L91.09090909090911,51.77833333333333L87.52727272727273,56.0931746031746L83.96363636363637,59.120396825396824L80.4,59.62492063492064L76.83636363636364,60.7029365079365L73.27272727272727,61.63341269841269L69.70909090909092,60.7863492063492L66.14545454545454,60.15603174603174L62.58181818181818,59.63095238095239L59.018181818181816,59.276031746031755L55.454545454545446,59.0663492063492L51.89090909090908,58.57301587301586L48.32727272727273,57.61912698412698L44.76363636363636,57.11587301587302L41.199999999999996,56.35611111111112L37.636363636363626,54.916428571428575L34.072727272727285,60.07928571428571L30.509090909090922,59.85912698412699L26.945454545454556,59.78142857142858L23.38181818181819,58.96111111111111L19.818181818181824,58.51253968253969L16.25454545454546,57.84936507936508L12.690909090909095,57.67523809523809L9.12727272727273,51.12984126984127L5.563636363636365,50.77452380952381L2,49.682698412698414"></path></g></svg>