<svg about="DATA_PUBLISHED_DATE:2021-11-03,RENDER_DATE:2021-11-03" xmlns="http://www.w3.org/2000/svg" viewBox="0,0,200,100"><g transform="translate(0,0)"></g><g class="fg-bars cases-ep" fill="#00183f" stroke="none"><g><rect x="197" y="54.86153846153846" width="2" height="45.13846153846154" id="cases-ep-0"></rect></g><g><rect x="193.43636363636364" y="78.50769230769231" width="2" height="21.49230769230769" id="cases-ep-1"></rect></g><g><rect x="189.87272727272727" y="74.53846153846153" width="2" height="25.461538461538467" id="cases-ep-2"></rect></g><g><rect x="186.30909090909088" y="58.661538461538456" width="2" height="41.338461538461544" id="cases-ep-3"></rect></g><g><rect x="182.74545454545455" y="57.9" width="2" height="42.1" id="cases-ep-4"></rect></g><g><rect x="179.1818181818182" y="55.130769230769225" width="2" height="44.869230769230775" id="cases-ep-5"></rect></g><g><rect x="175.61818181818182" y="53.93076923076923" width="2" height="46.06923076923077" id="cases-ep-6"></rect></g><g><rect x="172.05454545454546" y="47.9" width="2" height="52.1" id="cases-ep-7"></rect></g><g><rect x="168.49090909090907" y="73.86153846153847" width="2" height="26.138461538461527" id="cases-ep-8"></rect></g><g><rect x="164.92727272727274" y="73.15384615384615" width="2" height="26.846153846153854" id="cases-ep-9"></rect></g><g><rect x="161.36363636363637" y="60.56153846153847" width="2" height="39.43846153846153" id="cases-ep-10"></rect></g><g><rect x="157.8" y="60.3" width="2" height="39.7" id="cases-ep-11"></rect></g><g><rect x="154.23636363636365" y="57.37692307692308" width="2" height="42.62307692307692" id="cases-ep-12"></rect></g><g><rect x="150.6727272727273" y="56.02307692307693" width="2" height="43.97692307692307" id="cases-ep-13"></rect></g><g><rect x="147.1090909090909" y="56.16923076923077" width="2" height="43.83076923076923" id="cases-ep-14"></rect></g><g><rect x="143.54545454545453" y="75.46153846153845" width="2" height="24.538461538461547" id="cases-ep-15"></rect></g><g><rect x="139.9818181818182" y="73.6076923076923" width="2" height="26.392307692307696" id="cases-ep-16"></rect></g><g><rect x="136.41818181818184" y="60.815384615384616" width="2" height="39.184615384615384" id="cases-ep-17"></rect></g><g><rect x="132.85454545454544" y="59.73076923076923" width="2" height="40.26923076923077" id="cases-ep-18"></rect></g><g><rect x="129.29090909090908" y="54.430769230769236" width="2" height="45.569230769230764" id="cases-ep-19"></rect></g><g><rect x="125.72727272727273" y="52.807692307692314" width="2" height="47.192307692307686" id="cases-ep-20"></rect></g><g><rect x="122.16363636363636" y="48.5" width="2" height="51.5" id="cases-ep-21"></rect></g><g><rect x="118.6" y="74.42307692307692" width="2" height="25.57692307692308" id="cases-ep-22"></rect></g><g><rect x="115.03636363636363" y="72.21538461538461" width="2" height="27.784615384615392" id="cases-ep-23"></rect></g><g><rect x="111.47272727272728" y="56.699999999999996" width="2" height="43.300000000000004" id="cases-ep-24"></rect></g><g><rect x="107.90909090909089" y="56.076923076923066" width="2" height="43.923076923076934" id="cases-ep-25"></rect></g><g><rect x="104.34545454545456" y="52.830769230769235" width="2" height="47.169230769230765" id="cases-ep-26"></rect></g><g><rect x="100.78181818181817" y="48.676923076923075" width="2" height="51.323076923076925" id="cases-ep-27"></rect></g><g><rect x="97.21818181818183" y="41.93076923076923" width="2" height="58.06923076923077" id="cases-ep-28"></rect></g><g><rect x="93.65454545454546" y="71.53846153846153" width="2" height="28.461538461538467" id="cases-ep-29"></rect></g><g><rect x="90.09090909090911" y="67.87692307692308" width="2" height="32.12307692307692" id="cases-ep-30"></rect></g><g><rect x="86.52727272727273" y="53.123076923076916" width="2" height="46.876923076923084" id="cases-ep-31"></rect></g><g><rect x="82.96363636363637" y="50.53846153846153" width="2" height="49.46153846153847" id="cases-ep-32"></rect></g><g><rect x="79.4" y="43.63076923076923" width="2" height="56.36923076923077" id="cases-ep-33"></rect></g><g><rect x="75.83636363636364" y="42.7" width="2" height="57.3" id="cases-ep-34"></rect></g><g><rect x="72.27272727272727" y="33.06153846153846" width="2" height="66.93846153846154" id="cases-ep-35"></rect></g><g><rect x="68.70909090909092" y="68.43846153846154" width="2" height="31.56153846153846" id="cases-ep-36"></rect></g><g><rect x="65.14545454545454" y="62.60769230769231" width="2" height="37.39230769230769" id="cases-ep-37"></rect></g><g><rect x="61.58181818181818" y="44.138461538461534" width="2" height="55.861538461538466" id="cases-ep-38"></rect></g><g><rect x="58.018181818181816" y="39.746153846153845" width="2" height="60.253846153846155" id="cases-ep-39"></rect></g><g><rect x="54.454545454545446" y="32.599999999999994" width="2" height="67.4" id="cases-ep-40"></rect></g><g><rect x="50.89090909090908" y="27.97692307692308" width="2" height="72.02307692307693" id="cases-ep-41"></rect></g><g><rect x="47.32727272727273" y="20.615384615384613" width="2" height="79.38461538461539" id="cases-ep-42"></rect></g><g><rect x="43.76363636363636" y="59.361538461538466" width="2" height="40.638461538461534" id="cases-ep-43"></rect></g><g><rect x="40.199999999999996" y="52.5076923076923" width="2" height="47.4923076923077" id="cases-ep-44"></rect></g><g><rect x="36.636363636363626" y="28.892307692307696" width="2" height="71.1076923076923" id="cases-ep-45"></rect></g><g><rect x="33.072727272727285" y="22.269230769230774" width="2" height="77.73076923076923" id="cases-ep-46"></rect></g><g><rect x="29.509090909090922" y="13.615384615384619" width="2" height="86.38461538461539" id="cases-ep-47"></rect></g><g><rect x="25.945454545454556" y="5.41538461538461" width="2" height="94.58461538461539" id="cases-ep-48"></rect></g><g><rect x="22.38181818181819" y="49.353846153846156" width="2" height="50.646153846153844" id="cases-ep-49"></rect></g><g><rect x="18.818181818181824" y="59.16923076923077" width="2" height="40.83076923076923" id="cases-ep-50"></rect></g><g><rect x="15.254545454545461" y="48.64615384615385" width="2" height="51.35384615384615" id="cases-ep-51"></rect></g><g><rect x="11.690909090909095" y="23.869230769230764" width="2" height="76.13076923076923" id="cases-ep-52"></rect></g><g><rect x="8.12727272727273" y="16.40769230769231" width="2" height="83.59230769230768" id="cases-ep-53"></rect></g><g><rect x="4.563636363636365" y="2.061538461538459" width="2" height="97.93846153846154" id="cases-ep-54"></rect></g><g><rect x="1" y="6.346153846153846" width="2" height="93.65384615384616" id="cases-ep-55"></rect></g></g><g class="fg-line cases-ep" fill="none" stroke="#92c5de" stroke-width="2" stroke-linecap="round"><path d="M198,61.932967032967035L194.43636363636364,60.93846153846154L190.87272727272727,60.27472527472527L187.30909090909088,60.07692307692307L183.74545454545455,60.34835164835165L180.1818181818182,60.691208791208794L176.61818181818182,61.01208791208791L173.05454545454546,61.31098901098901L169.49090909090907,62.49230769230769L165.92727272727274,62.72087912087911L162.36363636363637,62.78571428571429L158.8,62.82197802197802L155.23636363636365,62.74065934065934L151.6727272727273,62.31978021978022L148.1090909090909,61.86043956043956L144.54545454545453,60.764835164835176L140.9818181818182,60.61648351648352L137.41818181818184,60.417582417582416L133.85454545454544,59.82967032967033L130.29090909090908,59.30769230769231L126.72727272727273,59.079120879120886L123.16363636363636,58.48901098901098L119.6,57.55054945054945L116.03636363636363,57.13846153846154L112.47272727272728,56.51868131868132L108.90909090909089,56.00769230769232L105.34545454545456,55.216483516483514L101.78181818181817,53.902197802197804L98.21818181818183,53.04835164835164L94.65454545454546,51.78131868131868L91.09090909090911,51.33846153846153L87.52727272727273,50.585714285714275L83.96363636363637,49.3021978021978L80.4,47.76043956043956L76.83636363636364,46.18461538461538L73.27272727272727,44.081318681318685L69.70909090909092,42.3032967032967L66.14545454545454,41.0065934065934L62.58181818181818,39.563736263736274L59.018181818181816,37.385714285714286L55.454545454545446,34.88901098901099L51.89090909090908,32.17692307692308L48.32727272727273,28.95384615384615L44.76363636363636,33.05934065934066L41.199999999999996,33.03186813186812L37.636363636363626,32.48021978021978L34.072727272727285,31.762637362637356L30.509090909090922,30.925274725274722L26.945454545454556,29.274725274725277L23.38181818181819,29.40769230769231L19.818181818181824,22.1901098901099L16.25454545454546,20.843956043956048L12.690909090909095,19.68681318681318L9.12727272727273,18.297802197802206L5.563636363636365,16.704395604395607L2,15.828571428571436"></path></g></svg>