<svg viewBox="0,0,200,100"><g transform="translate(0,0)"></g><g class="fg-bars tests-vaccines"><g><rect x="200" y="19.589999999999996" width="2" height="80.41" id="tests-vaccines-0"></rect></g><g><rect x="196.36363636363637" y="34.12307692307692" width="2" height="65.87692307692308" id="tests-vaccines-1"></rect></g><g><rect x="192.72727272727272" y="33.262307692307694" width="2" height="66.7376923076923" id="tests-vaccines-2"></rect></g><g><rect x="189.0909090909091" y="26.456153846153853" width="2" height="73.54384615384615" id="tests-vaccines-3"></rect></g><g><rect x="185.45454545454544" y="85.43307692307692" width="2" height="14.566923076923075" id="tests-vaccines-4"></rect></g><g><rect x="181.8181818181818" y="71.25" width="2" height="28.75" id="tests-vaccines-5"></rect></g><g><rect x="178.1818181818182" y="51.76307692307692" width="2" height="48.23692307692308" id="tests-vaccines-6"></rect></g><g><rect x="174.54545454545456" y="11.550000000000004" width="2" height="88.44999999999999" id="tests-vaccines-7"></rect></g><g><rect x="170.9090909090909" y="29.428461538461537" width="2" height="70.57153846153847" id="tests-vaccines-8"></rect></g><g><rect x="167.27272727272728" y="27.61076923076923" width="2" height="72.38923076923078" id="tests-vaccines-9"></rect></g><g><rect x="163.63636363636363" y="24.643846153846148" width="2" height="75.35615384615386" id="tests-vaccines-10"></rect></g><g><rect x="160" y="23.549230769230768" width="2" height="76.45076923076923" id="tests-vaccines-11"></rect></g><g><rect x="156.36363636363637" y="67.42" width="2" height="32.58" id="tests-vaccines-12"></rect></g><g><rect x="152.72727272727275" y="40.826153846153844" width="2" height="59.173846153846156" id="tests-vaccines-13"></rect></g><g><rect x="149.0909090909091" y="2.886923076923076" width="2" height="97.11307692307692" id="tests-vaccines-14"></rect></g><g><rect x="145.45454545454547" y="20.658461538461538" width="2" height="79.34153846153846" id="tests-vaccines-15"></rect></g><g><rect x="141.8181818181818" y="21.590769230769236" width="2" height="78.40923076923076" id="tests-vaccines-16"></rect></g><g><rect x="138.1818181818182" y="18.64461538461538" width="2" height="81.35538461538462" id="tests-vaccines-17"></rect></g><g><rect x="134.54545454545453" y="19.06923076923077" width="2" height="80.93076923076923" id="tests-vaccines-18"></rect></g><g><rect x="130.9090909090909" y="67.86" width="2" height="32.14" id="tests-vaccines-19"></rect></g><g><rect x="127.27272727272727" y="42.26230769230769" width="2" height="57.73769230769231" id="tests-vaccines-20"></rect></g><g><rect x="123.63636363636363" y="3.3938461538461584" width="2" height="96.60615384615384" id="tests-vaccines-21"></rect></g><g><rect x="120" y="22.40692307692308" width="2" height="77.59307692307692" id="tests-vaccines-22"></rect></g><g><rect x="116.36363636363636" y="21.96461538461538" width="2" height="78.03538461538461" id="tests-vaccines-23"></rect></g><g><rect x="112.72727272727275" y="22.05384615384616" width="2" height="77.94615384615383" id="tests-vaccines-24"></rect></g><g><rect x="109.09090909090908" y="25.72692307692308" width="2" height="74.27307692307693" id="tests-vaccines-25"></rect></g><g><rect x="105.45454545454547" y="69.82153846153847" width="2" height="30.178461538461534" id="tests-vaccines-26"></rect></g><g><rect x="101.81818181818181" y="44.419230769230765" width="2" height="55.580769230769235" id="tests-vaccines-27"></rect></g><g><rect x="98.18181818181819" y="14.719999999999999" width="2" height="85.28" id="tests-vaccines-28"></rect></g><g><rect x="94.54545454545456" y="32.433846153846154" width="2" height="67.56615384615384" id="tests-vaccines-29"></rect></g><g><rect x="90.90909090909092" y="35.94307692307692" width="2" height="64.05692307692308" id="tests-vaccines-30"></rect></g><g><rect x="87.27272727272728" y="29.96461538461539" width="2" height="70.03538461538461" id="tests-vaccines-31"></rect></g><g><rect x="83.63636363636364" y="32.607692307692304" width="2" height="67.3923076923077" id="tests-vaccines-32"></rect></g><g><rect x="80" y="73.14153846153846" width="2" height="26.85846153846154" id="tests-vaccines-33"></rect></g><g><rect x="76.36363636363637" y="50.85615384615385" width="2" height="49.14384615384615" id="tests-vaccines-34"></rect></g><g><rect x="72.72727272727273" y="19.63153846153847" width="2" height="80.36846153846153" id="tests-vaccines-35"></rect></g><g><rect x="69.0909090909091" y="33.702307692307684" width="2" height="66.29769230769232" id="tests-vaccines-36"></rect></g><g><rect x="65.45454545454545" y="35.40230769230769" width="2" height="64.59769230769231" id="tests-vaccines-37"></rect></g><g><rect x="61.81818181818181" y="31.25461538461538" width="2" height="68.74538461538462" id="tests-vaccines-38"></rect></g><g><rect x="58.18181818181818" y="38.61" width="2" height="61.39" id="tests-vaccines-39"></rect></g><g><rect x="54.54545454545454" y="76.81153846153846" width="2" height="23.18846153846154" id="tests-vaccines-40"></rect></g><g><rect x="50.90909090909091" y="54.12461538461538" width="2" height="45.87538461538462" id="tests-vaccines-41"></rect></g><g><rect x="47.272727272727266" y="26.064615384615387" width="2" height="73.9353846153846" id="tests-vaccines-42"></rect></g><g><rect x="43.636363636363626" y="37.457692307692305" width="2" height="62.542307692307695" id="tests-vaccines-43"></rect></g><g><rect x="39.99999999999999" y="35.395384615384614" width="2" height="64.60461538461539" id="tests-vaccines-44"></rect></g><g><rect x="36.36363636363635" y="34.72" width="2" height="65.28" id="tests-vaccines-45"></rect></g><g><rect x="32.72727272727274" y="44.73538461538461" width="2" height="55.26461538461539" id="tests-vaccines-46"></rect></g><g><rect x="29.0909090909091" y="80.31076923076922" width="2" height="19.689230769230775" id="tests-vaccines-47"></rect></g><g><rect x="25.454545454545464" y="56.89923076923077" width="2" height="43.10076923076923" id="tests-vaccines-48"></rect></g><g><rect x="21.818181818181827" y="29.512307692307694" width="2" height="70.4876923076923" id="tests-vaccines-49"></rect></g><g><rect x="18.181818181818187" y="40.42153846153846" width="2" height="59.57846153846154" id="tests-vaccines-50"></rect></g><g><rect x="14.54545454545455" y="40.6876923076923" width="2" height="59.3123076923077" id="tests-vaccines-51"></rect></g><g><rect x="10.909090909090914" y="39.09" width="2" height="60.91" id="tests-vaccines-52"></rect></g><g><rect x="7.272727272727275" y="46.69538461538462" width="2" height="53.30461538461538" id="tests-vaccines-53"></rect></g><g><rect x="3.6363636363636376" y="79.61" width="2" height="20.39" id="tests-vaccines-54"></rect></g><g><rect x="0" y="57.39692307692308" width="2" height="42.60307692307692" id="tests-vaccines-55"></rect></g></g><g class="fg-line tests-vaccines"><path d="M200,45.982527472527465L196.36363636363637,44.83395604395605L192.72727272727272,44.163296703296695L189.0909090909091,43.355934065934065L185.45454545454544,43.097032967032966L181.8181818181818,34.25648351648351L178.1818181818182,33.70934065934066L174.54545454545456,32.14692307692307L170.9090909090909,30.909340659340657L167.27272727272728,29.65648351648351L163.63636363636363,28.796483516483505L160,27.93945054945055L156.36363636363637,27.299450549450544L152.72727272727275,27.362307692307695L149.0909090909091,27.567472527472525L145.45454545454547,27.639890109890107L141.8181818181818,27.889670329670334L138.1818181818182,27.943076923076926L134.54545454545453,28.43010989010989L130.9090909090909,29.381208791208792L127.27272727272727,29.661428571428573L123.63636363636363,29.96956043956044L120,31.587582417582418L116.36363636363636,33.02L112.72727272727275,35.01692307692308L109.09090909090908,36.14703296703296L105.45454545454547,37.129999999999995L101.81818181818181,37.60428571428572L98.18181818181819,38.52384615384615L94.54545454545456,39.22549450549451L90.90909090909092,39.406703296703306L87.27272727272728,39.32945054945055L83.63636363636364,39.51373626373626L80,40.3712087912088L76.36363636363637,40.8954945054945L72.72727272727273,41.36241758241758L69.0909090909091,42.28142857142857L65.45454545454545,42.81791208791208L61.81818181818181,42.816923076923075L58.18181818181818,43.31197802197803L54.54545454545454,44.18703296703297L50.90909090909091,44.68692307692308L47.272727272727266,45.0832967032967L43.636363636363626,45.575824175824174L39.99999999999999,45.99923076923077L36.36363636363635,46.75527472527473L32.72727272727274,47.37956043956043L29.0909090909091,47.65956043956044L25.454545454545464,47.559450549450546L21.818181818181827,47.63054945054945L18.181818181818187,48.318681318681314L14.54545454545455,49.09252747252747L10.909090909090914,49.90725274725275L7.272727272727275,50.64857142857142L3.6363636363636376,50.76956043956044L0,51.00626373626373"></path></g></svg>