<svg meta="{&quot;DATA_PUBLISHED_DATE&quot;:&quot;2023-06-01&quot;,&quot;RENDER_DATE&quot;:&quot;2023-06-01&quot;,&quot;FIRST_DATE&quot;:&quot;2023-03-14&quot;,&quot;LAST_DATE&quot;:&quot;2023-05-08&quot;}" xmlns="http://www.w3.org/2000/svg" viewBox="0,0,200,100"><g transform="translate(0,0)"></g><g class="fg-bars death-date" fill="#00183f" stroke="none"><g><rect x="197" y="75" width="2" height="25" id="death-date-0"></rect></g><g><rect x="193.43636363636364" y="62.5" width="2" height="37.5" id="death-date-1"></rect></g><g><rect x="189.87272727272727" y="75" width="2" height="25" id="death-date-2"></rect></g><g><rect x="186.30909090909088" y="58.33333333333333" width="2" height="41.66666666666667" id="death-date-3"></rect></g><g><rect x="182.74545454545455" y="66.66666666666667" width="2" height="33.33333333333333" id="death-date-4"></rect></g><g><rect x="179.1818181818182" y="54.16666666666667" width="2" height="45.83333333333333" id="death-date-5"></rect></g><g><rect x="175.61818181818182" y="75" width="2" height="25" id="death-date-6"></rect></g><g><rect x="172.05454545454546" y="70.83333333333333" width="2" height="29.16666666666667" id="death-date-7"></rect></g><g><rect x="168.49090909090907" y="50" width="2" height="50" id="death-date-8"></rect></g><g><rect x="164.92727272727274" y="50" width="2" height="50" id="death-date-9"></rect></g><g><rect x="161.36363636363637" y="75" width="2" height="25" id="death-date-10"></rect></g><g><rect x="157.8" y="41.666666666666664" width="2" height="58.333333333333336" id="death-date-11"></rect></g><g><rect x="154.23636363636365" y="75" width="2" height="25" id="death-date-12"></rect></g><g><rect x="150.6727272727273" y="29.166666666666664" width="2" height="70.83333333333334" id="death-date-13"></rect></g><g><rect x="147.1090909090909" y="45.833333333333336" width="2" height="54.166666666666664" id="death-date-14"></rect></g><g><rect x="143.54545454545453" y="54.16666666666667" width="2" height="45.83333333333333" id="death-date-15"></rect></g><g><rect x="139.9818181818182" y="41.666666666666664" width="2" height="58.333333333333336" id="death-date-16"></rect></g><g><rect x="136.41818181818184" y="50" width="2" height="50" id="death-date-17"></rect></g><g><rect x="132.85454545454544" y="70.83333333333333" width="2" height="29.16666666666667" id="death-date-18"></rect></g><g><rect x="129.29090909090908" y="45.833333333333336" width="2" height="54.166666666666664" id="death-date-19"></rect></g><g><rect x="125.72727272727273" y="41.666666666666664" width="2" height="58.333333333333336" id="death-date-20"></rect></g><g><rect x="122.16363636363636" y="45.833333333333336" width="2" height="54.166666666666664" id="death-date-21"></rect></g><g><rect x="118.6" y="37.5" width="2" height="62.5" id="death-date-22"></rect></g><g><rect x="115.03636363636363" y="58.33333333333333" width="2" height="41.66666666666667" id="death-date-23"></rect></g><g><rect x="111.47272727272728" y="54.16666666666667" width="2" height="45.83333333333333" id="death-date-24"></rect></g><g><rect x="107.90909090909089" y="58.33333333333333" width="2" height="41.66666666666667" id="death-date-25"></rect></g><g><rect x="104.34545454545456" y="66.66666666666667" width="2" height="33.33333333333333" id="death-date-26"></rect></g><g><rect x="100.78181818181817" y="50" width="2" height="50" id="death-date-27"></rect></g><g><rect x="97.21818181818183" y="45.833333333333336" width="2" height="54.166666666666664" id="death-date-28"></rect></g><g><rect x="93.65454545454546" y="41.666666666666664" width="2" height="58.333333333333336" id="death-date-29"></rect></g><g><rect x="90.09090909090911" y="45.833333333333336" width="2" height="54.166666666666664" id="death-date-30"></rect></g><g><rect x="86.52727272727273" y="62.5" width="2" height="37.5" id="death-date-31"></rect></g><g><rect x="82.96363636363637" y="16.666666666666664" width="2" height="83.33333333333334" id="death-date-32"></rect></g><g><rect x="79.4" y="50" width="2" height="50" id="death-date-33"></rect></g><g><rect x="75.83636363636364" y="58.33333333333333" width="2" height="41.66666666666667" id="death-date-34"></rect></g><g><rect x="72.27272727272727" y="37.5" width="2" height="62.5" id="death-date-35"></rect></g><g><rect x="68.70909090909092" y="37.5" width="2" height="62.5" id="death-date-36"></rect></g><g><rect x="65.14545454545454" y="45.833333333333336" width="2" height="54.166666666666664" id="death-date-37"></rect></g><g><rect x="61.58181818181818" y="29.166666666666664" width="2" height="70.83333333333334" id="death-date-38"></rect></g><g><rect x="58.018181818181816" y="16.666666666666664" width="2" height="83.33333333333334" id="death-date-39"></rect></g><g><rect x="54.454545454545446" y="41.666666666666664" width="2" height="58.333333333333336" id="death-date-40"></rect></g><g><rect x="50.89090909090908" y="41.666666666666664" width="2" height="58.333333333333336" id="death-date-41"></rect></g><g><rect x="47.32727272727273" y="45.833333333333336" width="2" height="54.166666666666664" id="death-date-42"></rect></g><g><rect x="43.76363636363636" y="37.5" width="2" height="62.5" id="death-date-43"></rect></g><g><rect x="40.199999999999996" y="16.666666666666664" width="2" height="83.33333333333334" id="death-date-44"></rect></g><g><rect x="36.636363636363626" y="41.666666666666664" width="2" height="58.333333333333336" id="death-date-45"></rect></g><g><rect x="33.072727272727285" y="37.5" width="2" height="62.5" id="death-date-46"></rect></g><g><rect x="29.509090909090922" y="50" width="2" height="50" id="death-date-47"></rect></g><g><rect x="25.945454545454556" y="54.16666666666667" width="2" height="45.83333333333333" id="death-date-48"></rect></g><g><rect x="22.38181818181819" y="25" width="2" height="75" id="death-date-49"></rect></g><g><rect x="18.818181818181824" y="37.5" width="2" height="62.5" id="death-date-50"></rect></g><g><rect x="15.254545454545461" y="16.666666666666664" width="2" height="83.33333333333334" id="death-date-51"></rect></g><g><rect x="11.690909090909095" y="12.5" width="2" height="87.5" id="death-date-52"></rect></g><g><rect x="8.12727272727273" y="0" width="2" height="100" id="death-date-53"></rect></g><g><rect x="4.563636363636365" y="29.166666666666664" width="2" height="70.83333333333334" id="death-date-54"></rect></g><g><rect x="1" y="20.833333333333336" width="2" height="79.16666666666666" id="death-date-55"></rect></g></g><g class="fg-line death-date" fill="none" stroke="#92c5de" stroke-width="2" stroke-linecap="round"><path d="M198,66.66666666666667L194.43636363636364,66.07142857142858L190.87272727272727,64.28571428571428L187.30909090909088,60.71428571428572L183.74545454545455,63.095238095238095L180.1818181818182,59.52380952380953L176.61818181818182,62.5L173.05454545454546,55.952380952380956L169.49090909090907,52.38095238095237L165.92727272727274,52.97619047619047L162.36363636363637,51.78571428571428L158.8,48.21428571428571L155.23636363636365,52.38095238095237L151.6727272727273,48.21428571428571L148.1090909090909,50L144.54545454545453,50L140.9818181818182,47.61904761904761L137.41818181818184,50L133.85454545454544,50.595238095238095L130.29090909090908,48.8095238095238L126.72727272727273,51.78571428571428L123.16363636363636,52.97619047619047L119.6,52.97619047619047L116.03636363636363,53.571428571428584L112.47272727272728,51.78571428571428L108.90909090909089,52.97619047619047L105.34545454545456,47.023809523809526L101.78181818181817,44.64285714285714L98.21818181818183,45.833333333333336L94.65454545454546,44.64285714285714L91.09090909090911,44.047619047619044L87.52727272727273,44.047619047619044L83.96363636363637,39.28571428571429L80.4,39.28571428571429L76.83636363636364,38.095238095238095L73.27272727272727,35.71428571428571L69.70909090909092,36.904761904761905L66.14545454545454,36.904761904761905L62.58181818181818,32.73809523809524L59.018181818181816,34.523809523809526L55.454545454545446,37.5L51.89090909090908,38.6904761904762L48.32727272727273,40.476190476190474L44.76363636363636,37.5L41.199999999999996,37.5L37.636363636363626,37.5L34.072727272727285,33.333333333333336L30.509090909090922,27.976190476190478L26.945454545454556,25L23.38181818181819,20.238095238095244L19.818181818181824,11.309523809523814L16.25454545454546,11.309523809523814L12.690909090909095,14.28571428571428L9.12727272727273,9.523809523809524L5.563636363636365,9.523809523809524L2,1.7857142857142794"></path></g></svg>