<svg meta="{&quot;DATA_PUBLISHED_DATE&quot;:&quot;2022-07-19&quot;,&quot;RENDER_DATE&quot;:&quot;2022-07-19&quot;,&quot;FIRST_DATE&quot;:&quot;2022-05-02&quot;,&quot;LAST_DATE&quot;:&quot;2022-06-26&quot;}" xmlns="http://www.w3.org/2000/svg" viewBox="0,0,200,100"><g transform="translate(0,0)"></g><g class="fg-bars death-date" fill="#00183f" stroke="none"><g><rect x="197" y="36.66666666666667" width="2" height="63.33333333333333" id="death-date-0"></rect></g><g><rect x="193.43636363636364" y="53.333333333333336" width="2" height="46.666666666666664" id="death-date-1"></rect></g><g><rect x="189.87272727272727" y="26.66666666666667" width="2" height="73.33333333333333" id="death-date-2"></rect></g><g><rect x="186.30909090909088" y="9.999999999999998" width="2" height="90" id="death-date-3"></rect></g><g><rect x="182.74545454545455" y="16.666666666666664" width="2" height="83.33333333333334" id="death-date-4"></rect></g><g><rect x="179.1818181818182" y="36.66666666666667" width="2" height="63.33333333333333" id="death-date-5"></rect></g><g><rect x="175.61818181818182" y="26.66666666666667" width="2" height="73.33333333333333" id="death-date-6"></rect></g><g><rect x="172.05454545454546" y="23.33333333333333" width="2" height="76.66666666666667" id="death-date-7"></rect></g><g><rect x="168.49090909090907" y="26.66666666666667" width="2" height="73.33333333333333" id="death-date-8"></rect></g><g><rect x="164.92727272727274" y="13.33333333333333" width="2" height="86.66666666666667" id="death-date-9"></rect></g><g><rect x="161.36363636363637" y="3.3333333333333326" width="2" height="96.66666666666667" id="death-date-10"></rect></g><g><rect x="157.8" y="16.666666666666664" width="2" height="83.33333333333334" id="death-date-11"></rect></g><g><rect x="154.23636363636365" y="30.000000000000004" width="2" height="70" id="death-date-12"></rect></g><g><rect x="150.6727272727273" y="53.333333333333336" width="2" height="46.666666666666664" id="death-date-13"></rect></g><g><rect x="147.1090909090909" y="19.999999999999996" width="2" height="80" id="death-date-14"></rect></g><g><rect x="143.54545454545453" y="9.999999999999998" width="2" height="90" id="death-date-15"></rect></g><g><rect x="139.9818181818182" y="9.999999999999998" width="2" height="90" id="death-date-16"></rect></g><g><rect x="136.41818181818184" y="13.33333333333333" width="2" height="86.66666666666667" id="death-date-17"></rect></g><g><rect x="132.85454545454544" y="33.333333333333336" width="2" height="66.66666666666666" id="death-date-18"></rect></g><g><rect x="129.29090909090908" y="43.333333333333336" width="2" height="56.666666666666664" id="death-date-19"></rect></g><g><rect x="125.72727272727273" y="30.000000000000004" width="2" height="70" id="death-date-20"></rect></g><g><rect x="122.16363636363636" y="36.66666666666667" width="2" height="63.33333333333333" id="death-date-21"></rect></g><g><rect x="118.6" y="46.666666666666664" width="2" height="53.333333333333336" id="death-date-22"></rect></g><g><rect x="115.03636363636363" y="33.333333333333336" width="2" height="66.66666666666666" id="death-date-23"></rect></g><g><rect x="111.47272727272728" y="30.000000000000004" width="2" height="70" id="death-date-24"></rect></g><g><rect x="107.90909090909089" y="43.333333333333336" width="2" height="56.666666666666664" id="death-date-25"></rect></g><g><rect x="104.34545454545456" y="60" width="2" height="40" id="death-date-26"></rect></g><g><rect x="100.78181818181817" y="36.66666666666667" width="2" height="63.33333333333333" id="death-date-27"></rect></g><g><rect x="97.21818181818183" y="23.33333333333333" width="2" height="76.66666666666667" id="death-date-28"></rect></g><g><rect x="93.65454545454546" y="40" width="2" height="60" id="death-date-29"></rect></g><g><rect x="90.09090909090911" y="46.666666666666664" width="2" height="53.333333333333336" id="death-date-30"></rect></g><g><rect x="86.52727272727273" y="56.666666666666664" width="2" height="43.333333333333336" id="death-date-31"></rect></g><g><rect x="82.96363636363637" y="43.333333333333336" width="2" height="56.666666666666664" id="death-date-32"></rect></g><g><rect x="79.4" y="9.999999999999998" width="2" height="90" id="death-date-33"></rect></g><g><rect x="75.83636363636364" y="56.666666666666664" width="2" height="43.333333333333336" id="death-date-34"></rect></g><g><rect x="72.27272727272727" y="53.333333333333336" width="2" height="46.666666666666664" id="death-date-35"></rect></g><g><rect x="68.70909090909092" y="36.66666666666667" width="2" height="63.33333333333333" id="death-date-36"></rect></g><g><rect x="65.14545454545454" y="40" width="2" height="60" id="death-date-37"></rect></g><g><rect x="61.58181818181818" y="43.333333333333336" width="2" height="56.666666666666664" id="death-date-38"></rect></g><g><rect x="58.018181818181816" y="43.333333333333336" width="2" height="56.666666666666664" id="death-date-39"></rect></g><g><rect x="54.454545454545446" y="53.333333333333336" width="2" height="46.666666666666664" id="death-date-40"></rect></g><g><rect x="50.89090909090908" y="63.33333333333333" width="2" height="36.66666666666667" id="death-date-41"></rect></g><g><rect x="47.32727272727273" y="9.999999999999998" width="2" height="90" id="death-date-42"></rect></g><g><rect x="43.76363636363636" y="43.333333333333336" width="2" height="56.666666666666664" id="death-date-43"></rect></g><g><rect x="40.199999999999996" y="33.333333333333336" width="2" height="66.66666666666666" id="death-date-44"></rect></g><g><rect x="36.636363636363626" y="66.66666666666667" width="2" height="33.33333333333333" id="death-date-45"></rect></g><g><rect x="33.072727272727285" y="66.66666666666667" width="2" height="33.33333333333333" id="death-date-46"></rect></g><g><rect x="29.509090909090922" y="33.333333333333336" width="2" height="66.66666666666666" id="death-date-47"></rect></g><g><rect x="25.945454545454556" y="60" width="2" height="40" id="death-date-48"></rect></g><g><rect x="22.38181818181819" y="43.333333333333336" width="2" height="56.666666666666664" id="death-date-49"></rect></g><g><rect x="18.818181818181824" y="66.66666666666667" width="2" height="33.33333333333333" id="death-date-50"></rect></g><g><rect x="15.254545454545461" y="56.666666666666664" width="2" height="43.333333333333336" id="death-date-51"></rect></g><g><rect x="11.690909090909095" y="80" width="2" height="20" id="death-date-52"></rect></g><g><rect x="8.12727272727273" y="63.33333333333333" width="2" height="36.66666666666667" id="death-date-53"></rect></g><g><rect x="4.563636363636365" y="70" width="2" height="30" id="death-date-54"></rect></g><g><rect x="1" y="63.33333333333333" width="2" height="36.66666666666667" id="death-date-55"></rect></g></g><g class="fg-line death-date" fill="none" stroke="#92c5de" stroke-width="2" stroke-linecap="round"><path d="M198,29.52380952380953L194.43636363636364,27.61904761904762L190.87272727272727,23.809523809523803L187.30909090909088,21.904761904761905L183.74545454545455,20.952380952380945L180.1818181818182,20.952380952380945L176.61818181818182,19.999999999999996L173.05454545454546,23.809523809523803L169.49090909090907,23.33333333333333L165.92727272727274,20.952380952380945L162.36363636363637,20.47619047619047L158.8,21.904761904761905L155.23636363636365,24.285714285714278L151.6727272727273,26.190476190476197L148.1090909090909,22.857142857142854L144.54545454545453,25.238095238095248L140.9818181818182,30.476190476190478L137.41818181818184,33.80952380952381L133.85454545454544,36.1904761904762L130.29090909090908,37.61904761904762L126.72727272727273,40L123.16363636363636,40.95238095238095L119.6,39.04761904761905L116.03636363636363,38.095238095238095L112.47272727272728,40L108.90909090909089,43.80952380952381L105.34545454545456,43.80952380952381L101.78181818181817,36.66666666666667L98.21818181818183,39.523809523809526L94.65454545454546,43.80952380952381L91.09090909090911,43.333333333333336L87.52727272727273,42.38095238095239L83.96363636363637,40.476190476190474L80.4,40.476190476190474L76.83636363636364,46.666666666666664L73.27272727272727,47.61904761904761L69.70909090909092,41.42857142857142L66.14545454545454,42.38095238095239L62.58181818181818,41.42857142857142L59.018181818181816,44.76190476190476L55.454545454545446,48.09523809523809L51.89090909090908,45.23809523809524L48.32727272727273,44.76190476190476L44.76363636363636,49.523809523809526L41.199999999999996,52.85714285714286L37.636363636363626,56.19047619047619L34.072727272727285,58.09523809523809L30.509090909090922,57.61904761904761L26.945454545454556,62.857142857142854L23.38181818181819,63.33333333333333L19.818181818181824,66.66666666666667L16.25454545454546,64.28571428571429L12.690909090909095,63.8095238095238L9.12727272727273,61.42857142857143L5.563636363636365,60.952380952380956L2,60.952380952380956"></path></g></svg>