<svg about="DATA_PUBLISHED_DATE:2021-12-15,RENDER_DATE:2021-12-15" xmlns="http://www.w3.org/2000/svg" viewBox="0,0,200,100"><g transform="translate(0,0)"></g><g class="fg-bars death-date" fill="#00183f" stroke="none"><g><rect x="197" y="63.33333333333333" width="2" height="36.66666666666667" id="death-date-0"></rect></g><g><rect x="193.43636363636364" y="70" width="2" height="30" id="death-date-1"></rect></g><g><rect x="189.87272727272727" y="61.66666666666667" width="2" height="38.33333333333333" id="death-date-2"></rect></g><g><rect x="186.30909090909088" y="48.33333333333333" width="2" height="51.66666666666667" id="death-date-3"></rect></g><g><rect x="182.74545454545455" y="59.166666666666664" width="2" height="40.833333333333336" id="death-date-4"></rect></g><g><rect x="179.1818181818182" y="53.333333333333336" width="2" height="46.666666666666664" id="death-date-5"></rect></g><g><rect x="175.61818181818182" y="63.33333333333333" width="2" height="36.66666666666667" id="death-date-6"></rect></g><g><rect x="172.05454545454546" y="50.83333333333333" width="2" height="49.16666666666667" id="death-date-7"></rect></g><g><rect x="168.49090909090907" y="56.666666666666664" width="2" height="43.333333333333336" id="death-date-8"></rect></g><g><rect x="164.92727272727274" y="66.66666666666667" width="2" height="33.33333333333333" id="death-date-9"></rect></g><g><rect x="161.36363636363637" y="55.00000000000001" width="2" height="44.99999999999999" id="death-date-10"></rect></g><g><rect x="157.8" y="42.50000000000001" width="2" height="57.49999999999999" id="death-date-11"></rect></g><g><rect x="154.23636363636365" y="55.00000000000001" width="2" height="44.99999999999999" id="death-date-12"></rect></g><g><rect x="150.6727272727273" y="40" width="2" height="60" id="death-date-13"></rect></g><g><rect x="147.1090909090909" y="47.5" width="2" height="52.5" id="death-date-14"></rect></g><g><rect x="143.54545454545453" y="37.5" width="2" height="62.5" id="death-date-15"></rect></g><g><rect x="139.9818181818182" y="48.33333333333333" width="2" height="51.66666666666667" id="death-date-16"></rect></g><g><rect x="136.41818181818184" y="52.5" width="2" height="47.5" id="death-date-17"></rect></g><g><rect x="132.85454545454544" y="52.5" width="2" height="47.5" id="death-date-18"></rect></g><g><rect x="129.29090909090908" y="44.166666666666664" width="2" height="55.833333333333336" id="death-date-19"></rect></g><g><rect x="125.72727272727273" y="49.16666666666667" width="2" height="50.83333333333333" id="death-date-20"></rect></g><g><rect x="122.16363636363636" y="44.99999999999999" width="2" height="55.00000000000001" id="death-date-21"></rect></g><g><rect x="118.6" y="50.83333333333333" width="2" height="49.16666666666667" id="death-date-22"></rect></g><g><rect x="115.03636363636363" y="44.166666666666664" width="2" height="55.833333333333336" id="death-date-23"></rect></g><g><rect x="111.47272727272728" y="50.83333333333333" width="2" height="49.16666666666667" id="death-date-24"></rect></g><g><rect x="107.90909090909089" y="44.99999999999999" width="2" height="55.00000000000001" id="death-date-25"></rect></g><g><rect x="104.34545454545456" y="53.333333333333336" width="2" height="46.666666666666664" id="death-date-26"></rect></g><g><rect x="100.78181818181817" y="50" width="2" height="50" id="death-date-27"></rect></g><g><rect x="97.21818181818183" y="49.16666666666667" width="2" height="50.83333333333333" id="death-date-28"></rect></g><g><rect x="93.65454545454546" y="50" width="2" height="50" id="death-date-29"></rect></g><g><rect x="90.09090909090911" y="45.833333333333336" width="2" height="54.166666666666664" id="death-date-30"></rect></g><g><rect x="86.52727272727273" y="40.833333333333336" width="2" height="59.166666666666664" id="death-date-31"></rect></g><g><rect x="82.96363636363637" y="17.500000000000004" width="2" height="82.5" id="death-date-32"></rect></g><g><rect x="79.4" y="48.33333333333333" width="2" height="51.66666666666667" id="death-date-33"></rect></g><g><rect x="75.83636363636364" y="49.16666666666667" width="2" height="50.83333333333333" id="death-date-34"></rect></g><g><rect x="72.27272727272727" y="46.666666666666664" width="2" height="53.333333333333336" id="death-date-35"></rect></g><g><rect x="68.70909090909092" y="40" width="2" height="60" id="death-date-36"></rect></g><g><rect x="65.14545454545454" y="39.16666666666667" width="2" height="60.83333333333333" id="death-date-37"></rect></g><g><rect x="61.58181818181818" y="50" width="2" height="50" id="death-date-38"></rect></g><g><rect x="58.018181818181816" y="42.50000000000001" width="2" height="57.49999999999999" id="death-date-39"></rect></g><g><rect x="54.454545454545446" y="53.333333333333336" width="2" height="46.666666666666664" id="death-date-40"></rect></g><g><rect x="50.89090909090908" y="44.99999999999999" width="2" height="55.00000000000001" id="death-date-41"></rect></g><g><rect x="47.32727272727273" y="43.333333333333336" width="2" height="56.666666666666664" id="death-date-42"></rect></g><g><rect x="43.76363636363636" y="35.83333333333333" width="2" height="64.16666666666667" id="death-date-43"></rect></g><g><rect x="40.199999999999996" y="41.666666666666664" width="2" height="58.333333333333336" id="death-date-44"></rect></g><g><rect x="36.636363636363626" y="35.83333333333333" width="2" height="64.16666666666667" id="death-date-45"></rect></g><g><rect x="33.072727272727285" y="22.499999999999996" width="2" height="77.5" id="death-date-46"></rect></g><g><rect x="29.509090909090922" y="9.166666666666668" width="2" height="90.83333333333333" id="death-date-47"></rect></g><g><rect x="25.945454545454556" y="18.333333333333336" width="2" height="81.66666666666666" id="death-date-48"></rect></g><g><rect x="22.38181818181819" y="36.66666666666667" width="2" height="63.33333333333333" id="death-date-49"></rect></g><g><rect x="18.818181818181824" y="30.833333333333336" width="2" height="69.16666666666666" id="death-date-50"></rect></g><g><rect x="15.254545454545461" y="5.833333333333335" width="2" height="94.16666666666667" id="death-date-51"></rect></g><g><rect x="11.690909090909095" y="23.33333333333333" width="2" height="76.66666666666667" id="death-date-52"></rect></g><g><rect x="8.12727272727273" y="30.833333333333336" width="2" height="69.16666666666666" id="death-date-53"></rect></g><g><rect x="4.563636363636365" y="15.000000000000002" width="2" height="85" id="death-date-54"></rect></g><g><rect x="1" y="20.833333333333336" width="2" height="79.16666666666666" id="death-date-55"></rect></g></g><g class="fg-line death-date" fill="none" stroke="#92c5de" stroke-width="2" stroke-linecap="round"><path d="M198,59.88095238095238L194.43636363636364,58.09523809523809L190.87272727272727,56.19047619047619L187.30909090909088,56.904761904761905L183.74545454545455,57.857142857142854L180.1818181818182,55.47619047619048L176.61818181818182,55.714285714285715L173.05454545454546,52.38095238095237L169.49090909090907,51.9047619047619L165.92727272727274,49.16666666666667L162.36363636363637,46.54761904761905L158.8,46.19047619047619L155.23636363636365,47.61904761904761L151.6727272727273,46.07142857142858L148.1090909090909,47.38095238095238L144.54545454545453,47.023809523809526L140.9818181818182,48.92857142857143L137.41818181818184,48.33333333333333L133.85454545454544,48.09523809523809L130.29090909090908,47.023809523809526L126.72727272727273,48.33333333333333L123.16363636363636,48.452380952380956L119.6,49.04761904761904L116.03636363636363,48.92857142857143L112.47272727272728,49.16666666666667L108.90909090909089,47.738095238095234L105.34545454545456,43.80952380952381L101.78181818181817,43.09523809523809L98.21818181818183,42.97619047619048L94.65454545454546,42.61904761904761L91.09090909090911,41.19047619047619L87.52727272727273,40.23809523809524L83.96363636363637,41.54761904761906L80.4,45.11904761904761L76.83636363636364,45.833333333333336L73.27272727272727,45.23809523809524L69.70909090909092,44.76190476190476L66.14545454545454,44.166666666666664L62.58181818181818,44.52380952380952L59.018181818181816,42.50000000000001L55.454545454545446,39.642857142857146L51.89090909090908,33.333333333333336L48.32727272727273,29.52380952380953L44.76363636363636,28.57142857142858L41.199999999999996,27.857142857142858L37.636363636363626,22.738095238095248L34.072727272727285,20.952380952380945L30.509090909090922,22.142857142857142L26.945454545454556,22.97619047619047L23.38181818181819,23.33333333333333L19.818181818181824,20.833333333333336L16.25454545454546,19.880952380952387L12.690909090909095,19.64285714285714L9.12727272727273,17.976190476190478L5.563636363636365,13.809523809523805L2,11.071428571428577"></path></g></svg>