<svg meta="{&quot;DATA_PUBLISHED_DATE&quot;:&quot;2022-08-19&quot;,&quot;RENDER_DATE&quot;:&quot;2022-08-19&quot;,&quot;FIRST_DATE&quot;:&quot;2022-06-02&quot;,&quot;LAST_DATE&quot;:&quot;2022-07-27&quot;}" xmlns="http://www.w3.org/2000/svg" viewBox="0,0,200,100"><g transform="translate(0,0)"></g><g class="fg-bars death-date" fill="#00183f" stroke="none"><g><rect x="197" y="32.72727272727273" width="2" height="67.27272727272728" id="death-date-0"></rect></g><g><rect x="193.43636363636364" y="40" width="2" height="60" id="death-date-1"></rect></g><g><rect x="189.87272727272727" y="5.454545454545457" width="2" height="94.54545454545455" id="death-date-2"></rect></g><g><rect x="186.30909090909088" y="34.54545454545455" width="2" height="65.45454545454545" id="death-date-3"></rect></g><g><rect x="182.74545454545455" y="50.90909090909091" width="2" height="49.09090909090909" id="death-date-4"></rect></g><g><rect x="179.1818181818182" y="25.454545454545453" width="2" height="74.54545454545455" id="death-date-5"></rect></g><g><rect x="175.61818181818182" y="49.09090909090909" width="2" height="50.90909090909091" id="death-date-6"></rect></g><g><rect x="172.05454545454546" y="1.8181818181818188" width="2" height="98.18181818181819" id="death-date-7"></rect></g><g><rect x="168.49090909090907" y="18.181818181818176" width="2" height="81.81818181818183" id="death-date-8"></rect></g><g><rect x="164.92727272727274" y="27.27272727272727" width="2" height="72.72727272727273" id="death-date-9"></rect></g><g><rect x="161.36363636363637" y="21.818181818181813" width="2" height="78.18181818181819" id="death-date-10"></rect></g><g><rect x="157.8" y="40" width="2" height="60" id="death-date-11"></rect></g><g><rect x="154.23636363636365" y="34.54545454545455" width="2" height="65.45454545454545" id="death-date-12"></rect></g><g><rect x="150.6727272727273" y="32.72727272727273" width="2" height="67.27272727272728" id="death-date-13"></rect></g><g><rect x="147.1090909090909" y="43.63636363636364" width="2" height="56.36363636363636" id="death-date-14"></rect></g><g><rect x="143.54545454545453" y="23.636363636363633" width="2" height="76.36363636363637" id="death-date-15"></rect></g><g><rect x="139.9818181818182" y="34.54545454545455" width="2" height="65.45454545454545" id="death-date-16"></rect></g><g><rect x="136.41818181818184" y="38.18181818181819" width="2" height="61.81818181818181" id="death-date-17"></rect></g><g><rect x="132.85454545454544" y="21.818181818181813" width="2" height="78.18181818181819" id="death-date-18"></rect></g><g><rect x="129.29090909090908" y="7.272727272727275" width="2" height="92.72727272727272" id="death-date-19"></rect></g><g><rect x="125.72727272727273" y="50.90909090909091" width="2" height="49.09090909090909" id="death-date-20"></rect></g><g><rect x="122.16363636363636" y="25.454545454545453" width="2" height="74.54545454545455" id="death-date-21"></rect></g><g><rect x="118.6" y="45.45454545454546" width="2" height="54.54545454545454" id="death-date-22"></rect></g><g><rect x="115.03636363636363" y="25.454545454545453" width="2" height="74.54545454545455" id="death-date-23"></rect></g><g><rect x="111.47272727272728" y="25.454545454545453" width="2" height="74.54545454545455" id="death-date-24"></rect></g><g><rect x="107.90909090909089" y="16.36363636363637" width="2" height="83.63636363636363" id="death-date-25"></rect></g><g><rect x="104.34545454545456" y="41.81818181818182" width="2" height="58.18181818181818" id="death-date-26"></rect></g><g><rect x="100.78181818181817" y="36.36363636363637" width="2" height="63.63636363636363" id="death-date-27"></rect></g><g><rect x="97.21818181818183" y="45.45454545454546" width="2" height="54.54545454545454" id="death-date-28"></rect></g><g><rect x="93.65454545454546" y="47.27272727272728" width="2" height="52.72727272727272" id="death-date-29"></rect></g><g><rect x="90.09090909090911" y="52.727272727272734" width="2" height="47.272727272727266" id="death-date-30"></rect></g><g><rect x="86.52727272727273" y="50.90909090909091" width="2" height="49.09090909090909" id="death-date-31"></rect></g><g><rect x="82.96363636363637" y="60" width="2" height="40" id="death-date-32"></rect></g><g><rect x="79.4" y="43.63636363636364" width="2" height="56.36363636363636" id="death-date-33"></rect></g><g><rect x="75.83636363636364" y="40" width="2" height="60" id="death-date-34"></rect></g><g><rect x="72.27272727272727" y="32.72727272727273" width="2" height="67.27272727272728" id="death-date-35"></rect></g><g><rect x="68.70909090909092" y="52.727272727272734" width="2" height="47.272727272727266" id="death-date-36"></rect></g><g><rect x="65.14545454545454" y="50.90909090909091" width="2" height="49.09090909090909" id="death-date-37"></rect></g><g><rect x="61.58181818181818" y="49.09090909090909" width="2" height="50.90909090909091" id="death-date-38"></rect></g><g><rect x="58.018181818181816" y="50.90909090909091" width="2" height="49.09090909090909" id="death-date-39"></rect></g><g><rect x="54.454545454545446" y="34.54545454545455" width="2" height="65.45454545454545" id="death-date-40"></rect></g><g><rect x="50.89090909090908" y="45.45454545454546" width="2" height="54.54545454545454" id="death-date-41"></rect></g><g><rect x="47.32727272727273" y="50.90909090909091" width="2" height="49.09090909090909" id="death-date-42"></rect></g><g><rect x="43.76363636363636" y="61.81818181818181" width="2" height="38.18181818181819" id="death-date-43"></rect></g><g><rect x="40.199999999999996" y="74.54545454545455" width="2" height="25.454545454545453" id="death-date-44"></rect></g><g><rect x="36.636363636363626" y="52.727272727272734" width="2" height="47.272727272727266" id="death-date-45"></rect></g><g><rect x="33.072727272727285" y="47.27272727272728" width="2" height="52.72727272727272" id="death-date-46"></rect></g><g><rect x="29.509090909090922" y="49.09090909090909" width="2" height="50.90909090909091" id="death-date-47"></rect></g><g><rect x="25.945454545454556" y="49.09090909090909" width="2" height="50.90909090909091" id="death-date-48"></rect></g><g><rect x="22.38181818181819" y="61.81818181818181" width="2" height="38.18181818181819" id="death-date-49"></rect></g><g><rect x="18.818181818181824" y="63.63636363636363" width="2" height="36.36363636363637" id="death-date-50"></rect></g><g><rect x="15.254545454545461" y="58.18181818181818" width="2" height="41.81818181818182" id="death-date-51"></rect></g><g><rect x="11.690909090909095" y="65.45454545454545" width="2" height="34.54545454545455" id="death-date-52"></rect></g><g><rect x="8.12727272727273" y="67.27272727272727" width="2" height="32.727272727272734" id="death-date-53"></rect></g><g><rect x="4.563636363636365" y="63.63636363636363" width="2" height="36.36363636363637" id="death-date-54"></rect></g><g><rect x="1" y="61.81818181818181" width="2" height="38.18181818181819" id="death-date-55"></rect></g></g><g class="fg-line death-date" fill="none" stroke="#92c5de" stroke-width="2" stroke-linecap="round"><path d="M198,34.02597402597402L194.43636363636364,29.61038961038961L190.87272727272727,26.49350649350649L187.30909090909088,29.61038961038961L183.74545454545455,27.79220779220779L180.1818181818182,26.233766233766243L176.61818181818182,27.532467532467543L173.05454545454546,25.19480519480519L169.49090909090907,31.16883116883118L165.92727272727274,31.948051948051948L162.36363636363637,32.987012987012996L158.8,35.324675324675326L155.23636363636365,32.72727272727273L151.6727272727273,28.83116883116883L148.1090909090909,31.428571428571427L144.54545454545453,28.83116883116883L140.9818181818182,31.948051948051948L137.41818181818184,30.649350649350648L133.85454545454544,28.83116883116883L130.29090909090908,28.05194805194805L126.72727272727273,32.987012987012996L123.16363636363636,30.909090909090907L119.6,33.76623376623377L116.03636363636363,34.02597402597402L112.47272727272728,37.92207792207791L108.90909090909089,41.55844155844155L105.34545454545456,47.79220779220778L101.78181818181817,48.051948051948045L98.21818181818183,48.57142857142858L94.65454545454546,46.753246753246756L91.09090909090911,47.53246753246753L87.52727272727273,47.27272727272728L83.96363636363637,47.01298701298702L80.4,45.714285714285715L76.83636363636364,44.415584415584405L73.27272727272727,45.1948051948052L69.70909090909092,47.79220779220778L66.14545454545454,49.09090909090909L62.58181818181818,52.467532467532465L59.018181818181816,52.98701298701298L55.454545454545446,52.467532467532465L51.89090909090908,54.54545454545454L48.32727272727273,55.064935064935064L44.76363636363636,56.62337662337662L41.199999999999996,56.88311688311688L37.636363636363626,54.54545454545454L34.072727272727285,56.363636363636374L30.509090909090922,59.22077922077922L26.945454545454556,61.298701298701296L23.38181818181819,63.11688311688313L19.818181818181824,63.896103896103895L16.25454545454546,65.71428571428571L12.690909090909095,66.49350649350649L9.12727272727273,64.67532467532469L5.563636363636365,64.41558441558442L2,65.1948051948052"></path></g></svg>