<svg about="DATA_PUBLISHED_DATE:2021-11-17,RENDER_DATE:2021-11-17" xmlns="http://www.w3.org/2000/svg" viewBox="0,0,200,100"><g transform="translate(0,0)"></g><g class="fg-bars cases-ep" fill="#00183f" stroke="none"><g><rect x="197" y="44.46" width="2" height="55.54" id="cases-ep-0"></rect></g><g><rect x="193.43636363636364" y="73.28" width="2" height="26.72" id="cases-ep-1"></rect></g><g><rect x="189.87272727272727" y="70.34" width="2" height="29.659999999999997" id="cases-ep-2"></rect></g><g><rect x="186.30909090909088" y="51.07999999999999" width="2" height="48.92000000000001" id="cases-ep-3"></rect></g><g><rect x="182.74545454545455" y="44.37" width="2" height="55.63" id="cases-ep-4"></rect></g><g><rect x="179.1818181818182" y="40.75" width="2" height="59.25" id="cases-ep-5"></rect></g><g><rect x="175.61818181818182" y="38.93" width="2" height="61.07" id="cases-ep-6"></rect></g><g><rect x="172.05454545454546" y="30.479999999999997" width="2" height="69.52000000000001" id="cases-ep-7"></rect></g><g><rect x="168.49090909090907" y="68.31" width="2" height="31.689999999999998" id="cases-ep-8"></rect></g><g><rect x="164.92727272727274" y="63.349999999999994" width="2" height="36.650000000000006" id="cases-ep-9"></rect></g><g><rect x="161.36363636363637" y="47.199999999999996" width="2" height="52.800000000000004" id="cases-ep-10"></rect></g><g><rect x="157.8" y="42.2" width="2" height="57.8" id="cases-ep-11"></rect></g><g><rect x="154.23636363636365" y="36.06" width="2" height="63.94" id="cases-ep-12"></rect></g><g><rect x="150.6727272727273" y="33.52" width="2" height="66.47999999999999" id="cases-ep-13"></rect></g><g><rect x="147.1090909090909" y="28.759999999999998" width="2" height="71.24000000000001" id="cases-ep-14"></rect></g><g><rect x="143.54545454545453" y="65.31" width="2" height="34.69" id="cases-ep-15"></rect></g><g><rect x="139.9818181818182" y="60.56" width="2" height="39.44" id="cases-ep-16"></rect></g><g><rect x="136.41818181818184" y="41.1" width="2" height="58.9" id="cases-ep-17"></rect></g><g><rect x="132.85454545454544" y="41.74" width="2" height="58.26" id="cases-ep-18"></rect></g><g><rect x="129.29090909090908" y="38.27" width="2" height="61.73" id="cases-ep-19"></rect></g><g><rect x="125.72727272727273" y="37.029999999999994" width="2" height="62.970000000000006" id="cases-ep-20"></rect></g><g><rect x="122.16363636363636" y="30.310000000000002" width="2" height="69.69" id="cases-ep-21"></rect></g><g><rect x="118.6" y="64.74" width="2" height="35.260000000000005" id="cases-ep-22"></rect></g><g><rect x="115.03636363636363" y="64.17999999999999" width="2" height="35.82000000000001" id="cases-ep-23"></rect></g><g><rect x="111.47272727272728" y="47.92999999999999" width="2" height="52.07000000000001" id="cases-ep-24"></rect></g><g><rect x="107.90909090909089" y="47.84" width="2" height="52.16" id="cases-ep-25"></rect></g><g><rect x="104.34545454545456" y="44.279999999999994" width="2" height="55.720000000000006" id="cases-ep-26"></rect></g><g><rect x="100.78181818181817" y="42.290000000000006" width="2" height="57.709999999999994" id="cases-ep-27"></rect></g><g><rect x="97.21818181818183" y="42.67999999999999" width="2" height="57.32000000000001" id="cases-ep-28"></rect></g><g><rect x="93.65454545454546" y="67.48" width="2" height="32.519999999999996" id="cases-ep-29"></rect></g><g><rect x="90.09090909090911" y="65.27000000000001" width="2" height="34.72999999999999" id="cases-ep-30"></rect></g><g><rect x="86.52727272727273" y="48.73" width="2" height="51.27" id="cases-ep-31"></rect></g><g><rect x="82.96363636363637" y="47.4" width="2" height="52.6" id="cases-ep-32"></rect></g><g><rect x="79.4" y="40.459999999999994" width="2" height="59.540000000000006" id="cases-ep-33"></rect></g><g><rect x="75.83636363636364" y="38.22" width="2" height="61.78" id="cases-ep-34"></rect></g><g><rect x="72.27272727272727" y="32.54" width="2" height="67.46000000000001" id="cases-ep-35"></rect></g><g><rect x="68.70909090909092" y="66.43" width="2" height="33.56999999999999" id="cases-ep-36"></rect></g><g><rect x="65.14545454545454" y="63.55" width="2" height="36.45" id="cases-ep-37"></rect></g><g><rect x="61.58181818181818" y="43.169999999999995" width="2" height="56.830000000000005" id="cases-ep-38"></rect></g><g><rect x="58.018181818181816" y="42.559999999999995" width="2" height="57.440000000000005" id="cases-ep-39"></rect></g><g><rect x="54.454545454545446" y="38.28" width="2" height="61.72" id="cases-ep-40"></rect></g><g><rect x="50.89090909090908" y="33.040000000000006" width="2" height="66.96" id="cases-ep-41"></rect></g><g><rect x="47.32727272727273" y="24.350000000000005" width="2" height="75.64999999999999" id="cases-ep-42"></rect></g><g><rect x="43.76363636363636" y="62.81" width="2" height="37.19" id="cases-ep-43"></rect></g><g><rect x="40.199999999999996" y="58.15" width="2" height="41.85" id="cases-ep-44"></rect></g><g><rect x="36.636363636363626" y="38.99" width="2" height="61.01" id="cases-ep-45"></rect></g><g><rect x="33.072727272727285" y="35.49" width="2" height="64.50999999999999" id="cases-ep-46"></rect></g><g><rect x="29.509090909090922" y="26.729999999999997" width="2" height="73.27000000000001" id="cases-ep-47"></rect></g><g><rect x="25.945454545454556" y="25.449999999999996" width="2" height="74.55000000000001" id="cases-ep-48"></rect></g><g><rect x="22.38181818181819" y="12.39" width="2" height="87.61" id="cases-ep-49"></rect></g><g><rect x="18.818181818181824" y="58.92999999999999" width="2" height="41.07000000000001" id="cases-ep-50"></rect></g><g><rect x="15.254545454545461" y="51.41" width="2" height="48.59" id="cases-ep-51"></rect></g><g><rect x="11.690909090909095" y="27.390000000000004" width="2" height="72.61" id="cases-ep-52"></rect></g><g><rect x="8.12727272727273" y="21.640000000000004" width="2" height="78.36" id="cases-ep-53"></rect></g><g><rect x="4.563636363636365" y="12.460000000000004" width="2" height="87.53999999999999" id="cases-ep-54"></rect></g><g><rect x="1" y="6.210000000000004" width="2" height="93.78999999999999" id="cases-ep-55"></rect></g></g><g class="fg-line cases-ep" fill="none" stroke="#92c5de" stroke-width="2" stroke-linecap="round"><path d="M198,51.887142857142855L194.43636363636364,49.89L190.87272727272727,49.18L187.30909090909088,48.18142857142856L183.74545454545455,47.62714285714286L180.1818181818182,47.317142857142855L176.61818181818182,46.64714285714285L173.05454545454546,45.87428571428571L169.49090909090907,45.628571428571426L165.92727272727274,45.199999999999996L162.36363636363637,44.80142857142857L158.8,43.93L155.23636363636365,43.864285714285714L151.6727272727273,44.18L148.1090909090909,44.68142857142857L144.54545454545453,44.902857142857144L140.9818181818182,44.82142857142857L137.41818181818184,45.33857142857143L133.85454545454544,46.31428571428572L130.29090909090908,47.18571428571428L126.72727272727273,48.04428571428572L123.16363636363636,48.79571428571429L119.6,50.562857142857155L116.03636363636363,50.95428571428571L112.47272727272728,51.11L108.90909090909089,51.22428571428572L105.34545454545456,51.161428571428566L101.78181818181817,50.61571428571428L98.21818181818183,50.03428571428572L94.65454545454546,48.58571428571429L91.09090909090911,48.43571428571428L87.52727272727273,48.19L83.96363636363637,47.395714285714284L80.4,46.70428571428572L76.83636363636364,46.392857142857146L73.27272727272727,45.65285714285715L69.70909090909092,44.48285714285715L66.14545454545454,43.965714285714284L62.58181818181818,43.19428571428572L59.018181818181816,42.597142857142856L55.454545454545446,41.58714285714286L51.89090909090908,39.937142857142845L48.32727272727273,38.85285714285715L44.76363636363636,37.144285714285715L41.199999999999996,36.59L37.636363636363626,35.62714285714286L34.072727272727285,33.97L30.509090909090922,31.99142857142857L26.945454545454556,29.952857142857148L23.38181818181819,27.204285714285714L19.818181818181824,24.981428571428566L16.25454545454546,23.29L12.690909090909095,21.39428571428571L9.12727272727273,18.572857142857146L5.563636363636365,15.321428571428564L2,11.794285714285701"></path></g></svg>