<svg about="DATA_PUBLISHED_DATE:2022-01-14,RENDER_DATE:2022-01-14" xmlns="http://www.w3.org/2000/svg" viewBox="0,0,200,100"><g transform="translate(0,0)"></g><g class="fg-bars tests-vaccines" fill="#00183f" stroke="none"><g><rect x="197" y="36.56885714285715" width="2" height="63.43114285714285" id="tests-vaccines-0"></rect></g><g><rect x="193.43636363636364" y="38.983999999999995" width="2" height="61.016000000000005" id="tests-vaccines-1"></rect></g><g><rect x="189.87272727272727" y="39.67828571428571" width="2" height="60.32171428571429" id="tests-vaccines-2"></rect></g><g><rect x="186.30909090909088" y="44.48028571428571" width="2" height="55.51971428571429" id="tests-vaccines-3"></rect></g><g><rect x="182.74545454545455" y="84.98028571428571" width="2" height="15.019714285714286" id="tests-vaccines-4"></rect></g><g><rect x="179.1818181818182" y="97.82828571428571" width="2" height="2.1717142857142875" id="tests-vaccines-5"></rect></g><g><rect x="175.61818181818182" y="78.84885714285714" width="2" height="21.151142857142858" id="tests-vaccines-6"></rect></g><g><rect x="172.05454545454546" y="37.49457142857143" width="2" height="62.50542857142857" id="tests-vaccines-7"></rect></g><g><rect x="168.49090909090907" y="32.605714285714285" width="2" height="67.39428571428572" id="tests-vaccines-8"></rect></g><g><rect x="164.92727272727274" y="31.893428571428572" width="2" height="68.10657142857143" id="tests-vaccines-9"></rect></g><g><rect x="161.36363636363637" y="40.34571428571429" width="2" height="59.65428571428571" id="tests-vaccines-10"></rect></g><g><rect x="157.8" y="84.30685714285714" width="2" height="15.69314285714286" id="tests-vaccines-11"></rect></g><g><rect x="154.23636363636365" y="99.74571428571429" width="2" height="0.25428571428571445" id="tests-vaccines-12"></rect></g><g><rect x="150.6727272727273" y="87.17885714285714" width="2" height="12.82114285714286" id="tests-vaccines-13"></rect></g><g><rect x="147.1090909090909" y="38.450571428571436" width="2" height="61.549428571428564" id="tests-vaccines-14"></rect></g><g><rect x="143.54545454545453" y="27.373142857142863" width="2" height="72.62685714285713" id="tests-vaccines-15"></rect></g><g><rect x="139.9818181818182" y="25.19971428571428" width="2" height="74.80028571428572" id="tests-vaccines-16"></rect></g><g><rect x="136.41818181818184" y="30.23457142857143" width="2" height="69.76542857142857" id="tests-vaccines-17"></rect></g><g><rect x="132.85454545454544" y="79.44885714285715" width="2" height="20.55114285714285" id="tests-vaccines-18"></rect></g><g><rect x="129.29090909090908" y="59.25628571428572" width="2" height="40.74371428571428" id="tests-vaccines-19"></rect></g><g><rect x="125.72727272727273" y="26.091142857142856" width="2" height="73.90885714285714" id="tests-vaccines-20"></rect></g><g><rect x="122.16363636363636" y="35.18228571428571" width="2" height="64.81771428571429" id="tests-vaccines-21"></rect></g><g><rect x="118.6" y="33.632285714285715" width="2" height="66.36771428571429" id="tests-vaccines-22"></rect></g><g><rect x="115.03636363636363" y="35.55628571428572" width="2" height="64.44371428571428" id="tests-vaccines-23"></rect></g><g><rect x="111.47272727272728" y="38.133428571428574" width="2" height="61.866571428571426" id="tests-vaccines-24"></rect></g><g><rect x="107.90909090909089" y="80.01742857142857" width="2" height="19.982571428571433" id="tests-vaccines-25"></rect></g><g><rect x="104.34545454545456" y="53.96914285714285" width="2" height="46.03085714285715" id="tests-vaccines-26"></rect></g><g><rect x="100.78181818181817" y="19.62314285714286" width="2" height="80.37685714285715" id="tests-vaccines-27"></rect></g><g><rect x="97.21818181818183" y="27.615714285714287" width="2" height="72.38428571428571" id="tests-vaccines-28"></rect></g><g><rect x="93.65454545454546" y="25.25342857142857" width="2" height="74.74657142857143" id="tests-vaccines-29"></rect></g><g><rect x="90.09090909090911" y="25.39257142857143" width="2" height="74.60742857142857" id="tests-vaccines-30"></rect></g><g><rect x="86.52727272727273" y="30.664857142857137" width="2" height="69.33514285714287" id="tests-vaccines-31"></rect></g><g><rect x="82.96363636363637" y="76.29914285714285" width="2" height="23.700857142857146" id="tests-vaccines-32"></rect></g><g><rect x="79.4" y="47.63457142857143" width="2" height="52.36542857142857" id="tests-vaccines-33"></rect></g><g><rect x="75.83636363636364" y="8.918285714285712" width="2" height="91.08171428571428" id="tests-vaccines-34"></rect></g><g><rect x="72.27272727272727" y="19.504857142857148" width="2" height="80.49514285714285" id="tests-vaccines-35"></rect></g><g><rect x="68.70909090909092" y="21.414571428571428" width="2" height="78.58542857142857" id="tests-vaccines-36"></rect></g><g><rect x="65.14545454545454" y="29.21057142857143" width="2" height="70.78942857142857" id="tests-vaccines-37"></rect></g><g><rect x="61.58181818181818" y="38.856" width="2" height="61.144" id="tests-vaccines-38"></rect></g><g><rect x="58.018181818181816" y="81.53685714285714" width="2" height="18.463142857142856" id="tests-vaccines-39"></rect></g><g><rect x="54.454545454545446" y="67.21857142857142" width="2" height="32.78142857142858" id="tests-vaccines-40"></rect></g><g><rect x="50.89090909090908" y="56.228" width="2" height="43.772" id="tests-vaccines-41"></rect></g><g><rect x="47.32727272727273" y="98.57914285714286" width="2" height="1.4208571428571446" id="tests-vaccines-42"></rect></g><g><rect x="43.76363636363636" y="41.27314285714285" width="2" height="58.72685714285715" id="tests-vaccines-43"></rect></g><g><rect x="40.199999999999996" y="30.128571428571426" width="2" height="69.87142857142857" id="tests-vaccines-44"></rect></g><g><rect x="36.636363636363626" y="33.26457142857143" width="2" height="66.73542857142857" id="tests-vaccines-45"></rect></g><g><rect x="33.072727272727285" y="78.79285714285714" width="2" height="21.207142857142856" id="tests-vaccines-46"></rect></g><g><rect x="29.509090909090922" y="54.946000000000005" width="2" height="45.053999999999995" id="tests-vaccines-47"></rect></g><g><rect x="25.945454545454556" y="22.600857142857144" width="2" height="77.39914285714286" id="tests-vaccines-48"></rect></g><g><rect x="22.38181818181819" y="34.695428571428565" width="2" height="65.30457142857144" id="tests-vaccines-49"></rect></g><g><rect x="18.818181818181824" y="33.55885714285714" width="2" height="66.44114285714286" id="tests-vaccines-50"></rect></g><g><rect x="15.254545454545461" y="35.125142857142855" width="2" height="64.87485714285714" id="tests-vaccines-51"></rect></g><g><rect x="11.690909090909095" y="40.767428571428574" width="2" height="59.232571428571426" id="tests-vaccines-52"></rect></g><g><rect x="8.12727272727273" y="79.43914285714287" width="2" height="20.56085714285713" id="tests-vaccines-53"></rect></g><g><rect x="4.563636363636365" y="57.14885714285713" width="2" height="42.85114285714287" id="tests-vaccines-54"></rect></g><g><rect x="1" y="25.461714285714287" width="2" height="74.5382857142857" id="tests-vaccines-55"></rect></g></g><g class="fg-line tests-vaccines" fill="none" stroke="#92c5de" stroke-width="2" stroke-linecap="round"><path d="M198,60.19555102040817L194.43636363636364,60.32779591836734L190.87272727272727,59.41661224489796L187.30909090909088,58.30448979591837L183.74545454545455,57.71383673469388L180.1818181818182,57.61763265306122L176.61818181818182,57.89155102040817L173.05454545454546,59.08155102040816L169.49090909090907,59.21812244897959L165.92727272727274,58.47061224489796L162.36363636363637,57.514367346938776L158.8,56.069918367346936L155.23636363636365,55.37591836734694L151.6727272727273,49.59171428571428L148.1090909090909,40.86489795918368L144.54545454545453,40.398L140.9818181818182,41.29216326530612L137.41818181818184,42.77167346938775L133.85454545454544,43.90008163265306L130.29090909090908,43.981306122448984L126.72727272727273,43.226L123.16363636363636,42.30199999999999L119.6,41.221061224489794L116.03636363636363,40.024081632653065L112.47272727272728,38.5721224489796L108.90909090909089,37.50518367346939L105.34545454545456,36.974L101.78181818181817,36.06906122448979L98.21818181818183,34.539795918367346L94.65454545454546,33.38110204081632L91.09090909090911,32.83269387755102L87.52727272727273,33.378122448979596L83.96363636363637,34.54828571428571L80.4,35.296530612244894L76.83636363636364,38.094244897959186L73.27272727272727,44.85277551020408L69.70909090909092,56.149102040816324L66.14545454545454,58.986040816326536L62.58181818181818,59.117183673469384L59.018181818181816,58.3184081632653L55.454545454545446,57.92640816326531L51.89090909090908,56.173183673469396L48.32727272727273,51.369306122448975L44.76363636363636,42.2430612244898L41.199999999999996,41.141020408163264L37.636363636363626,41.85481632653061L34.072727272727285,42.926653061224485L30.509090909090922,43.01897959183674L26.945454545454556,43.333673469387755L23.38181818181819,43.74236734693877L19.818181818181824,44.12440816326531L16.25454545454546,44.34755102040816L12.690909090909095,44.698367346938774L9.12727272727273,44.958571428571425L5.563636363636365,45.11714285714285L2,45.98155102040816"></path></g></svg>