<svg meta="{&quot;DATA_PUBLISHED_DATE&quot;:&quot;2022-05-10&quot;,&quot;RENDER_DATE&quot;:&quot;2022-05-10&quot;,&quot;FIRST_DATE&quot;:&quot;2022-02-21&quot;,&quot;LAST_DATE&quot;:&quot;2022-04-17&quot;}" xmlns="http://www.w3.org/2000/svg" viewBox="0,0,200,100"><g transform="translate(0,0)"></g><g class="fg-bars death-date" fill="#00183f" stroke="none"><g><rect x="197" y="91.66666666666666" width="2" height="8.333333333333343" id="death-date-0"></rect></g><g><rect x="193.43636363636364" y="90" width="2" height="10" id="death-date-1"></rect></g><g><rect x="189.87272727272727" y="88.33333333333333" width="2" height="11.666666666666671" id="death-date-2"></rect></g><g><rect x="186.30909090909088" y="89.16666666666666" width="2" height="10.833333333333343" id="death-date-3"></rect></g><g><rect x="182.74545454545455" y="90.83333333333333" width="2" height="9.166666666666671" id="death-date-4"></rect></g><g><rect x="179.1818181818182" y="93.33333333333333" width="2" height="6.666666666666671" id="death-date-5"></rect></g><g><rect x="175.61818181818182" y="86.66666666666667" width="2" height="13.333333333333329" id="death-date-6"></rect></g><g><rect x="172.05454545454546" y="94.16666666666667" width="2" height="5.833333333333329" id="death-date-7"></rect></g><g><rect x="168.49090909090907" y="93.33333333333333" width="2" height="6.666666666666671" id="death-date-8"></rect></g><g><rect x="164.92727272727274" y="87.5" width="2" height="12.5" id="death-date-9"></rect></g><g><rect x="161.36363636363637" y="88.33333333333333" width="2" height="11.666666666666671" id="death-date-10"></rect></g><g><rect x="157.8" y="82.5" width="2" height="17.5" id="death-date-11"></rect></g><g><rect x="154.23636363636365" y="84.16666666666667" width="2" height="15.833333333333329" id="death-date-12"></rect></g><g><rect x="150.6727272727273" y="89.16666666666666" width="2" height="10.833333333333343" id="death-date-13"></rect></g><g><rect x="147.1090909090909" y="88.33333333333333" width="2" height="11.666666666666671" id="death-date-14"></rect></g><g><rect x="143.54545454545453" y="86.66666666666667" width="2" height="13.333333333333329" id="death-date-15"></rect></g><g><rect x="139.9818181818182" y="87.5" width="2" height="12.5" id="death-date-16"></rect></g><g><rect x="136.41818181818184" y="85" width="2" height="15" id="death-date-17"></rect></g><g><rect x="132.85454545454544" y="83.33333333333334" width="2" height="16.666666666666657" id="death-date-18"></rect></g><g><rect x="129.29090909090908" y="84.16666666666667" width="2" height="15.833333333333329" id="death-date-19"></rect></g><g><rect x="125.72727272727273" y="83.33333333333334" width="2" height="16.666666666666657" id="death-date-20"></rect></g><g><rect x="122.16363636363636" y="83.33333333333334" width="2" height="16.666666666666657" id="death-date-21"></rect></g><g><rect x="118.6" y="81.66666666666667" width="2" height="18.33333333333333" id="death-date-22"></rect></g><g><rect x="115.03636363636363" y="75.83333333333333" width="2" height="24.16666666666667" id="death-date-23"></rect></g><g><rect x="111.47272727272728" y="88.33333333333333" width="2" height="11.666666666666671" id="death-date-24"></rect></g><g><rect x="107.90909090909089" y="82.5" width="2" height="17.5" id="death-date-25"></rect></g><g><rect x="104.34545454545456" y="79.16666666666666" width="2" height="20.833333333333343" id="death-date-26"></rect></g><g><rect x="100.78181818181817" y="74.16666666666667" width="2" height="25.83333333333333" id="death-date-27"></rect></g><g><rect x="97.21818181818183" y="73.33333333333334" width="2" height="26.666666666666657" id="death-date-28"></rect></g><g><rect x="93.65454545454546" y="81.66666666666667" width="2" height="18.33333333333333" id="death-date-29"></rect></g><g><rect x="90.09090909090911" y="73.33333333333334" width="2" height="26.666666666666657" id="death-date-30"></rect></g><g><rect x="86.52727272727273" y="68.33333333333333" width="2" height="31.66666666666667" id="death-date-31"></rect></g><g><rect x="82.96363636363637" y="74.16666666666667" width="2" height="25.83333333333333" id="death-date-32"></rect></g><g><rect x="79.4" y="74.16666666666667" width="2" height="25.83333333333333" id="death-date-33"></rect></g><g><rect x="75.83636363636364" y="75" width="2" height="25" id="death-date-34"></rect></g><g><rect x="72.27272727272727" y="70" width="2" height="30" id="death-date-35"></rect></g><g><rect x="68.70909090909092" y="65.83333333333333" width="2" height="34.16666666666667" id="death-date-36"></rect></g><g><rect x="65.14545454545454" y="59.166666666666664" width="2" height="40.833333333333336" id="death-date-37"></rect></g><g><rect x="61.58181818181818" y="54.16666666666667" width="2" height="45.83333333333333" id="death-date-38"></rect></g><g><rect x="58.018181818181816" y="55.00000000000001" width="2" height="44.99999999999999" id="death-date-39"></rect></g><g><rect x="54.454545454545446" y="54.16666666666667" width="2" height="45.83333333333333" id="death-date-40"></rect></g><g><rect x="50.89090909090908" y="54.16666666666667" width="2" height="45.83333333333333" id="death-date-41"></rect></g><g><rect x="47.32727272727273" y="50" width="2" height="50" id="death-date-42"></rect></g><g><rect x="43.76363636363636" y="46.666666666666664" width="2" height="53.333333333333336" id="death-date-43"></rect></g><g><rect x="40.199999999999996" y="54.16666666666667" width="2" height="45.83333333333333" id="death-date-44"></rect></g><g><rect x="36.636363636363626" y="36.66666666666667" width="2" height="63.33333333333333" id="death-date-45"></rect></g><g><rect x="33.072727272727285" y="48.33333333333333" width="2" height="51.66666666666667" id="death-date-46"></rect></g><g><rect x="29.509090909090922" y="36.66666666666667" width="2" height="63.33333333333333" id="death-date-47"></rect></g><g><rect x="25.945454545454556" y="31.666666666666664" width="2" height="68.33333333333334" id="death-date-48"></rect></g><g><rect x="22.38181818181819" y="41.666666666666664" width="2" height="58.333333333333336" id="death-date-49"></rect></g><g><rect x="18.818181818181824" y="32.49999999999999" width="2" height="67.5" id="death-date-50"></rect></g><g><rect x="15.254545454545461" y="23.33333333333333" width="2" height="76.66666666666667" id="death-date-51"></rect></g><g><rect x="11.690909090909095" y="33.333333333333336" width="2" height="66.66666666666666" id="death-date-52"></rect></g><g><rect x="8.12727272727273" y="11.66666666666667" width="2" height="88.33333333333333" id="death-date-53"></rect></g><g><rect x="4.563636363636365" y="9.999999999999998" width="2" height="90" id="death-date-54"></rect></g><g><rect x="1" y="1.6666666666666718" width="2" height="98.33333333333333" id="death-date-55"></rect></g></g><g class="fg-line death-date" fill="none" stroke="#92c5de" stroke-width="2" stroke-linecap="round"><path d="M198,90L194.43636363636364,90.35714285714286L190.87272727272727,90.83333333333333L187.30909090909088,90.71428571428571L183.74545454545455,90.5952380952381L180.1818181818182,89.40476190476191L176.61818181818182,88.09523809523809L173.05454545454546,88.45238095238095L169.49090909090907,87.61904761904762L165.92727272727274,86.66666666666667L162.36363636363637,86.66666666666667L158.8,86.19047619047619L155.23636363636365,86.30952380952381L151.6727272727273,86.30952380952381L148.1090909090909,85.47619047619048L144.54545454545453,84.76190476190476L140.9818181818182,84.04761904761905L137.41818181818184,82.38095238095238L133.85454545454544,82.85714285714285L130.29090909090908,82.73809523809523L126.72727272727273,82.02380952380952L123.16363636363636,80.71428571428572L119.6,79.28571428571428L116.03636363636363,79.28571428571428L112.47272727272728,78.92857142857143L108.90909090909089,76.07142857142857L105.34545454545456,74.88095238095238L101.78181818181817,74.16666666666667L98.21818181818183,74.28571428571429L94.65454545454546,73.80952380952381L91.09090909090911,71.54761904761904L87.52727272727273,69.52380952380952L83.96363636363637,67.5L80.4,64.76190476190476L76.83636363636364,61.904761904761905L73.27272727272727,58.92857142857143L69.70909090909092,56.07142857142857L66.14545454545454,53.333333333333336L62.58181818181818,52.61904761904762L59.018181818181816,50.11904761904762L55.454545454545446,49.16666666666667L51.89090909090908,46.666666666666664L48.32727272727273,43.452380952380956L44.76363636363636,42.26190476190476L41.199999999999996,40.23809523809524L37.636363636363626,35.83333333333333L34.072727272727285,35.357142857142854L30.509090909090922,30.119047619047613L26.945454545454556,26.309523809523803L23.38181818181819,22.023809523809522L19.818181818181824,15.357142857142858L16.25454545454546,12.261904761904752L12.690909090909095,7.499999999999996L9.12727272727273,-1.9047619047619202L5.563636363636365,-6.190476190476191L2,-9.642857142857153"></path></g></svg>