<svg about="DATA_PUBLISHED_DATE:2021-10-31,RENDER_DATE:2021-10-31" xmlns="http://www.w3.org/2000/svg" viewBox="0,0,200,100"><g transform="translate(0,0)"></g><g class="fg-bars death-date" fill="#00183f" stroke="none"><g><rect x="197" y="48.75000000000001" width="2" height="51.24999999999999" id="death-date-0"></rect></g><g><rect x="193.43636363636364" y="55.00000000000001" width="2" height="44.99999999999999" id="death-date-1"></rect></g><g><rect x="189.87272727272727" y="62.5" width="2" height="37.5" id="death-date-2"></rect></g><g><rect x="186.30909090909088" y="58.12500000000001" width="2" height="41.87499999999999" id="death-date-3"></rect></g><g><rect x="182.74545454545455" y="44.99999999999999" width="2" height="55.00000000000001" id="death-date-4"></rect></g><g><rect x="179.1818181818182" y="53.75" width="2" height="46.25" id="death-date-5"></rect></g><g><rect x="175.61818181818182" y="58.12500000000001" width="2" height="41.87499999999999" id="death-date-6"></rect></g><g><rect x="172.05454545454546" y="48.12499999999999" width="2" height="51.87500000000001" id="death-date-7"></rect></g><g><rect x="168.49090909090907" y="49.375" width="2" height="50.625" id="death-date-8"></rect></g><g><rect x="164.92727272727274" y="46.25" width="2" height="53.75" id="death-date-9"></rect></g><g><rect x="161.36363636363637" y="51.87500000000001" width="2" height="48.12499999999999" id="death-date-10"></rect></g><g><rect x="157.8" y="36.875" width="2" height="63.125" id="death-date-11"></rect></g><g><rect x="154.23636363636365" y="39.37500000000001" width="2" height="60.62499999999999" id="death-date-12"></rect></g><g><rect x="150.6727272727273" y="35.62499999999999" width="2" height="64.375" id="death-date-13"></rect></g><g><rect x="147.1090909090909" y="28.125" width="2" height="71.875" id="death-date-14"></rect></g><g><rect x="143.54545454545453" y="46.25" width="2" height="53.75" id="death-date-15"></rect></g><g><rect x="139.9818181818182" y="34.375" width="2" height="65.625" id="death-date-16"></rect></g><g><rect x="136.41818181818184" y="47.5" width="2" height="52.5" id="death-date-17"></rect></g><g><rect x="132.85454545454544" y="26.249999999999996" width="2" height="73.75" id="death-date-18"></rect></g><g><rect x="129.29090909090908" y="30.625000000000004" width="2" height="69.375" id="death-date-19"></rect></g><g><rect x="125.72727272727273" y="30.625000000000004" width="2" height="69.375" id="death-date-20"></rect></g><g><rect x="122.16363636363636" y="30.000000000000004" width="2" height="70" id="death-date-21"></rect></g><g><rect x="118.6" y="38.125" width="2" height="61.875" id="death-date-22"></rect></g><g><rect x="115.03636363636363" y="22.499999999999996" width="2" height="77.5" id="death-date-23"></rect></g><g><rect x="111.47272727272728" y="33.75" width="2" height="66.25" id="death-date-24"></rect></g><g><rect x="107.90909090909089" y="26.249999999999996" width="2" height="73.75" id="death-date-25"></rect></g><g><rect x="104.34545454545456" y="10.624999999999996" width="2" height="89.375" id="death-date-26"></rect></g><g><rect x="100.78181818181817" y="15.625" width="2" height="84.375" id="death-date-27"></rect></g><g><rect x="97.21818181818183" y="24.375000000000004" width="2" height="75.625" id="death-date-28"></rect></g><g><rect x="93.65454545454546" y="26.249999999999996" width="2" height="73.75" id="death-date-29"></rect></g><g><rect x="90.09090909090911" y="21.875" width="2" height="78.125" id="death-date-30"></rect></g><g><rect x="86.52727272727273" y="15.625" width="2" height="84.375" id="death-date-31"></rect></g><g><rect x="82.96363636363637" y="35.62499999999999" width="2" height="64.375" id="death-date-32"></rect></g><g><rect x="79.4" y="19.374999999999996" width="2" height="80.625" id="death-date-33"></rect></g><g><rect x="75.83636363636364" y="12.5" width="2" height="87.5" id="death-date-34"></rect></g><g><rect x="72.27272727272727" y="28.125" width="2" height="71.875" id="death-date-35"></rect></g><g><rect x="68.70909090909092" y="23.750000000000004" width="2" height="76.25" id="death-date-36"></rect></g><g><rect x="65.14545454545454" y="29.374999999999996" width="2" height="70.625" id="death-date-37"></rect></g><g><rect x="61.58181818181818" y="37.5" width="2" height="62.5" id="death-date-38"></rect></g><g><rect x="58.018181818181816" y="15.625" width="2" height="84.375" id="death-date-39"></rect></g><g><rect x="54.454545454545446" y="26.249999999999996" width="2" height="73.75" id="death-date-40"></rect></g><g><rect x="50.89090909090908" y="21.875" width="2" height="78.125" id="death-date-41"></rect></g><g><rect x="47.32727272727273" y="23.750000000000004" width="2" height="76.25" id="death-date-42"></rect></g><g><rect x="43.76363636363636" y="25.624999999999996" width="2" height="74.375" id="death-date-43"></rect></g><g><rect x="40.199999999999996" y="36.25000000000001" width="2" height="63.74999999999999" id="death-date-44"></rect></g><g><rect x="36.636363636363626" y="35" width="2" height="65" id="death-date-45"></rect></g><g><rect x="33.072727272727285" y="33.12500000000001" width="2" height="66.875" id="death-date-46"></rect></g><g><rect x="29.509090909090922" y="40.625" width="2" height="59.375" id="death-date-47"></rect></g><g><rect x="25.945454545454556" y="38.125" width="2" height="61.875" id="death-date-48"></rect></g><g><rect x="22.38181818181819" y="43.125" width="2" height="56.875" id="death-date-49"></rect></g><g><rect x="18.818181818181824" y="30.625000000000004" width="2" height="69.375" id="death-date-50"></rect></g><g><rect x="15.254545454545461" y="30.625000000000004" width="2" height="69.375" id="death-date-51"></rect></g><g><rect x="11.690909090909095" y="55.00000000000001" width="2" height="44.99999999999999" id="death-date-52"></rect></g><g><rect x="8.12727272727273" y="51.87500000000001" width="2" height="48.12499999999999" id="death-date-53"></rect></g><g><rect x="4.563636363636365" y="29.374999999999996" width="2" height="70.625" id="death-date-54"></rect></g><g><rect x="1" y="50.625" width="2" height="49.375" id="death-date-55"></rect></g></g><g class="fg-line death-date" fill="none" stroke="#92c5de" stroke-width="2" stroke-linecap="round"><path d="M198,54.46428571428571L194.43636363636364,54.37499999999999L190.87272727272727,53.57142857142857L187.30909090909088,51.24999999999999L183.74545454545455,50.357142857142854L180.1818181818182,49.19642857142856L176.61818181818182,47.14285714285714L173.05454545454546,43.92857142857143L169.49090909090907,41.07142857142857L165.92727272727274,40.625L162.36363636363637,38.92857142857144L158.8,38.30357142857144L155.23636363636365,36.78571428571429L151.6727272727273,35.53571428571429L148.1090909090909,34.82142857142857L144.54545454545453,35.08928571428571L140.9818181818182,33.92857142857143L137.41818181818184,32.232142857142854L133.85454545454544,30.267857142857146L130.29090909090908,30.267857142857146L126.72727272727273,27.41071428571429L123.16363636363636,25.267857142857142L119.6,24.464285714285715L116.03636363636363,22.76785714285714L112.47272727272728,22.678571428571438L108.90909090909089,20.089285714285708L105.34545454545456,21.42857142857143L101.78181818181817,22.678571428571438L98.21818181818183,22.232142857142854L94.65454545454546,22.76785714285714L91.09090909090911,22.410714285714285L87.52727272727273,23.48214285714285L83.96363636363637,26.60714285714285L80.4,23.750000000000004L76.83636363636364,24.732142857142858L73.27272727272727,26.07142857142857L69.70909090909092,25.44642857142857L66.14545454545454,25.71428571428571L62.58181818181818,26.696428571428566L59.018181818181816,26.339285714285708L55.454545454545446,28.83928571428571L51.89090909090908,30.892857142857146L48.32727272727273,33.21428571428571L44.76363636363636,35.982142857142854L41.199999999999996,36.69642857142856L37.636363636363626,35.892857142857146L34.072727272727285,38.74999999999999L30.509090909090922,41.42857142857144L26.945454545454556,39.82142857142856L23.38181818181819,41.607142857142854L19.818181818181824,43.392857142857146L16.25454545454546,46.60714285714286L12.690909090909095,50.17857142857143L9.12727272727273,50.357142857142854L5.563636363636365,52.05357142857143L2,57.232142857142854"></path></g></svg>