<svg about="DATA_PUBLISHED_DATE:2021-12-01,RENDER_DATE:2021-12-01" xmlns="http://www.w3.org/2000/svg" viewBox="0,0,200,100"><g transform="translate(0,0)"></g><g class="fg-bars cases-ep" fill="#00183f" stroke="none"><g><rect x="197" y="46.1875" width="2" height="53.8125" id="cases-ep-0"></rect></g><g><rect x="193.43636363636364" y="72.0375" width="2" height="27.962500000000006" id="cases-ep-1"></rect></g><g><rect x="189.87272727272727" y="67.4125" width="2" height="32.587500000000006" id="cases-ep-2"></rect></g><g><rect x="186.30909090909088" y="49.7" width="2" height="50.3" id="cases-ep-3"></rect></g><g><rect x="182.74545454545455" y="47.475" width="2" height="52.525" id="cases-ep-4"></rect></g><g><rect x="179.1818181818182" y="40.9625" width="2" height="59.0375" id="cases-ep-5"></rect></g><g><rect x="175.61818181818182" y="36.787499999999994" width="2" height="63.212500000000006" id="cases-ep-6"></rect></g><g><rect x="172.05454545454546" y="23.4" width="2" height="76.6" id="cases-ep-7"></rect></g><g><rect x="168.49090909090907" y="61.087500000000006" width="2" height="38.912499999999994" id="cases-ep-8"></rect></g><g><rect x="164.92727272727274" y="58.087500000000006" width="2" height="41.912499999999994" id="cases-ep-9"></rect></g><g><rect x="161.36363636363637" y="37.9375" width="2" height="62.0625" id="cases-ep-10"></rect></g><g><rect x="157.8" y="46.68750000000001" width="2" height="53.31249999999999" id="cases-ep-11"></rect></g><g><rect x="154.23636363636365" y="30.874999999999996" width="2" height="69.125" id="cases-ep-12"></rect></g><g><rect x="150.6727272727273" y="27.537500000000005" width="2" height="72.46249999999999" id="cases-ep-13"></rect></g><g><rect x="147.1090909090909" y="18.15" width="2" height="81.85" id="cases-ep-14"></rect></g><g><rect x="143.54545454545453" y="57.574999999999996" width="2" height="42.425000000000004" id="cases-ep-15"></rect></g><g><rect x="139.9818181818182" y="54.925000000000004" width="2" height="45.074999999999996" id="cases-ep-16"></rect></g><g><rect x="136.41818181818184" y="31.562500000000004" width="2" height="68.4375" id="cases-ep-17"></rect></g><g><rect x="132.85454545454544" y="25.5" width="2" height="74.5" id="cases-ep-18"></rect></g><g><rect x="129.29090909090908" y="21.075" width="2" height="78.925" id="cases-ep-19"></rect></g><g><rect x="125.72727272727273" y="20.062500000000007" width="2" height="79.9375" id="cases-ep-20"></rect></g><g><rect x="122.16363636363636" y="8.999999999999996" width="2" height="91" id="cases-ep-21"></rect></g><g><rect x="118.6" y="56.8125" width="2" height="43.1875" id="cases-ep-22"></rect></g><g><rect x="115.03636363636363" y="51.1625" width="2" height="48.8375" id="cases-ep-23"></rect></g><g><rect x="111.47272727272728" y="30.2125" width="2" height="69.7875" id="cases-ep-24"></rect></g><g><rect x="107.90909090909089" y="24.837500000000002" width="2" height="75.1625" id="cases-ep-25"></rect></g><g><rect x="104.34545454545456" y="18.899999999999995" width="2" height="81.10000000000001" id="cases-ep-26"></rect></g><g><rect x="100.78181818181817" y="16.000000000000004" width="2" height="84" id="cases-ep-27"></rect></g><g><rect x="97.21818181818183" y="10.412500000000001" width="2" height="89.5875" id="cases-ep-28"></rect></g><g><rect x="93.65454545454546" y="55.9125" width="2" height="44.0875" id="cases-ep-29"></rect></g><g><rect x="90.09090909090911" y="49.8625" width="2" height="50.1375" id="cases-ep-30"></rect></g><g><rect x="86.52727272727273" y="25.975000000000005" width="2" height="74.02499999999999" id="cases-ep-31"></rect></g><g><rect x="82.96363636363637" y="26.5875" width="2" height="73.4125" id="cases-ep-32"></rect></g><g><rect x="79.4" y="22.550000000000004" width="2" height="77.44999999999999" id="cases-ep-33"></rect></g><g><rect x="75.83636363636364" y="20.962499999999995" width="2" height="79.03750000000001" id="cases-ep-34"></rect></g><g><rect x="72.27272727272727" y="12.575000000000003" width="2" height="87.425" id="cases-ep-35"></rect></g><g><rect x="68.70909090909092" y="55.662499999999994" width="2" height="44.337500000000006" id="cases-ep-36"></rect></g><g><rect x="65.14545454545454" y="54.949999999999996" width="2" height="45.050000000000004" id="cases-ep-37"></rect></g><g><rect x="61.58181818181818" y="34.5375" width="2" height="65.4625" id="cases-ep-38"></rect></g><g><rect x="58.018181818181816" y="34.575" width="2" height="65.425" id="cases-ep-39"></rect></g><g><rect x="54.454545454545446" y="30.262500000000003" width="2" height="69.7375" id="cases-ep-40"></rect></g><g><rect x="50.89090909090908" y="28.000000000000004" width="2" height="72" id="cases-ep-41"></rect></g><g><rect x="47.32727272727273" y="28.075000000000006" width="2" height="71.925" id="cases-ep-42"></rect></g><g><rect x="43.76363636363636" y="59.2125" width="2" height="40.7875" id="cases-ep-43"></rect></g><g><rect x="40.199999999999996" y="56.512499999999996" width="2" height="43.487500000000004" id="cases-ep-44"></rect></g><g><rect x="36.636363636363626" y="35.8125" width="2" height="64.1875" id="cases-ep-45"></rect></g><g><rect x="33.072727272727285" y="34.162499999999994" width="2" height="65.8375" id="cases-ep-46"></rect></g><g><rect x="29.509090909090922" y="25.575000000000003" width="2" height="74.425" id="cases-ep-47"></rect></g><g><rect x="25.945454545454556" y="22.650000000000002" width="2" height="77.35" id="cases-ep-48"></rect></g><g><rect x="22.38181818181819" y="15.575000000000006" width="2" height="84.425" id="cases-ep-49"></rect></g><g><rect x="18.818181818181824" y="57.975" width="2" height="42.025" id="cases-ep-50"></rect></g><g><rect x="15.254545454545461" y="54.29999999999999" width="2" height="45.70000000000001" id="cases-ep-51"></rect></g><g><rect x="11.690909090909095" y="29.012499999999996" width="2" height="70.98750000000001" id="cases-ep-52"></rect></g><g><rect x="8.12727272727273" y="28.1875" width="2" height="71.8125" id="cases-ep-53"></rect></g><g><rect x="4.563636363636365" y="22.924999999999997" width="2" height="77.075" id="cases-ep-54"></rect></g><g><rect x="1" y="16.137500000000003" width="2" height="83.8625" id="cases-ep-55"></rect></g></g><g class="fg-line cases-ep" fill="none" stroke="#92c5de" stroke-width="2" stroke-linecap="round"><path d="M198,51.50892857142857L194.43636363636364,48.253571428571426L190.87272727272727,46.68928571428571L187.30909090909088,45.357142857142854L183.74545454545455,43.676785714285714L180.1818181818182,43.56428571428571L176.61818181818182,42.1232142857143L173.05454545454546,40.80178571428571L169.49090909090907,40.051785714285714L165.92727272727274,39.55L162.36363636363637,39.09821428571429L158.8,38.1875L155.23636363636365,35.16071428571429L151.6727272727273,33.760714285714286L148.1090909090909,32.69285714285714L144.54545454545453,31.385714285714283L140.9818181818182,31.276785714285715L137.41818181818184,30.739285714285714L133.85454545454544,30.546428571428564L130.29090909090908,30.451785714285705L126.72727272727273,30.14107142857143L123.16363636363636,29.560714285714283L119.6,29.762500000000003L116.03636363636363,29.63392857142857L112.47272727272728,29.448214285714293L108.90909090909089,28.84285714285715L105.34545454545456,29.09285714285714L101.78181818181817,29.614285714285714L98.21818181818183,30.323214285714283L94.65454545454546,30.632142857142853L91.09090909090911,30.596428571428568L87.52727272727273,31.323214285714286L83.96363636363637,32.546428571428564L80.4,33.6875L76.83636363636364,34.78928571428571L73.27272727272727,35.794642857142854L69.70909090909092,38.00892857142857L66.14545454545454,38.51607142857143L62.58181818181818,38.73928571428571L59.018181818181816,38.921428571428564L55.454545454545446,38.8625L51.89090909090908,38.192857142857136L48.32727272727273,37.42857142857143L44.76363636363636,35.642857142857146L41.199999999999996,35.46607142857143L37.636363636363626,35.150000000000006L34.072727272727285,34.17857142857144L30.509090909090922,33.325L26.945454545454556,32.94642857142856L23.38181818181819,32.016071428571436L19.818181818181824,30.530357142857145L16.25454545454546,29.885714285714293L12.690909090909095,28.921428571428564L9.12727272727273,28.142857142857146L5.563636363636365,26.900000000000002L2,24.821428571428573"></path></g></svg>