<svg meta="{&quot;DATA_PUBLISHED_DATE&quot;:&quot;2022-06-14&quot;,&quot;RENDER_DATE&quot;:&quot;2022-06-14&quot;,&quot;FIRST_DATE&quot;:&quot;2022-04-11&quot;,&quot;LAST_DATE&quot;:&quot;2022-06-05&quot;}" xmlns="http://www.w3.org/2000/svg" viewBox="0,0,200,100"><g transform="translate(0,0)"></g><g class="fg-bars cases-ep" fill="#00183f" stroke="none"><g><rect x="197" y="63.741666666666674" width="2" height="36.258333333333326" id="cases-ep-0"></rect></g><g><rect x="193.43636363636364" y="58.62499999999999" width="2" height="41.37500000000001" id="cases-ep-1"></rect></g><g><rect x="189.87272727272727" y="34.46666666666667" width="2" height="65.53333333333333" id="cases-ep-2"></rect></g><g><rect x="186.30909090909088" y="27.137500000000003" width="2" height="72.8625" id="cases-ep-3"></rect></g><g><rect x="182.74545454545455" y="16.945833333333336" width="2" height="83.05416666666666" id="cases-ep-4"></rect></g><g><rect x="179.1818181818182" y="1.5541666666666676" width="2" height="98.44583333333333" id="cases-ep-5"></rect></g><g><rect x="175.61818181818182" y="65.55" width="2" height="34.45" id="cases-ep-6"></rect></g><g><rect x="172.05454545454546" y="68.2375" width="2" height="31.762500000000003" id="cases-ep-7"></rect></g><g><rect x="168.49090909090907" y="63.775000000000006" width="2" height="36.224999999999994" id="cases-ep-8"></rect></g><g><rect x="164.92727272727274" y="41.30833333333334" width="2" height="58.69166666666666" id="cases-ep-9"></rect></g><g><rect x="161.36363636363637" y="35.662499999999994" width="2" height="64.3375" id="cases-ep-10"></rect></g><g><rect x="157.8" y="29.19166666666667" width="2" height="70.80833333333334" id="cases-ep-11"></rect></g><g><rect x="154.23636363636365" y="24.74166666666666" width="2" height="75.25833333333334" id="cases-ep-12"></rect></g><g><rect x="150.6727272727273" y="19.20833333333334" width="2" height="80.79166666666666" id="cases-ep-13"></rect></g><g><rect x="147.1090909090909" y="64.52916666666665" width="2" height="35.470833333333346" id="cases-ep-14"></rect></g><g><rect x="143.54545454545453" y="63.083333333333336" width="2" height="36.916666666666664" id="cases-ep-15"></rect></g><g><rect x="139.9818181818182" y="42.025" width="2" height="57.975" id="cases-ep-16"></rect></g><g><rect x="136.41818181818184" y="39.670833333333334" width="2" height="60.329166666666666" id="cases-ep-17"></rect></g><g><rect x="132.85454545454544" y="34.699999999999996" width="2" height="65.30000000000001" id="cases-ep-18"></rect></g><g><rect x="129.29090909090908" y="32.9" width="2" height="67.1" id="cases-ep-19"></rect></g><g><rect x="125.72727272727273" y="27.85833333333333" width="2" height="72.14166666666667" id="cases-ep-20"></rect></g><g><rect x="122.16363636363636" y="67.59583333333333" width="2" height="32.40416666666667" id="cases-ep-21"></rect></g><g><rect x="118.6" y="67.15" width="2" height="32.849999999999994" id="cases-ep-22"></rect></g><g><rect x="115.03636363636363" y="52.73749999999999" width="2" height="47.26250000000001" id="cases-ep-23"></rect></g><g><rect x="111.47272727272728" y="52.425" width="2" height="47.575" id="cases-ep-24"></rect></g><g><rect x="107.90909090909089" y="50.737500000000004" width="2" height="49.262499999999996" id="cases-ep-25"></rect></g><g><rect x="104.34545454545456" y="50.53333333333334" width="2" height="49.46666666666666" id="cases-ep-26"></rect></g><g><rect x="100.78181818181817" y="46.94166666666667" width="2" height="53.05833333333333" id="cases-ep-27"></rect></g><g><rect x="97.21818181818183" y="75.01666666666667" width="2" height="24.983333333333334" id="cases-ep-28"></rect></g><g><rect x="93.65454545454546" y="73.81666666666666" width="2" height="26.183333333333337" id="cases-ep-29"></rect></g><g><rect x="90.09090909090911" y="63.05416666666667" width="2" height="36.94583333333333" id="cases-ep-30"></rect></g><g><rect x="86.52727272727273" y="61.45" width="2" height="38.55" id="cases-ep-31"></rect></g><g><rect x="82.96363636363637" y="59.56666666666667" width="2" height="40.43333333333333" id="cases-ep-32"></rect></g><g><rect x="79.4" y="58.94166666666667" width="2" height="41.05833333333333" id="cases-ep-33"></rect></g><g><rect x="75.83636363636364" y="57.233333333333334" width="2" height="42.766666666666666" id="cases-ep-34"></rect></g><g><rect x="72.27272727272727" y="78.77916666666667" width="2" height="21.22083333333333" id="cases-ep-35"></rect></g><g><rect x="68.70909090909092" y="80.04583333333332" width="2" height="19.95416666666668" id="cases-ep-36"></rect></g><g><rect x="65.14545454545454" y="72.94583333333333" width="2" height="27.054166666666674" id="cases-ep-37"></rect></g><g><rect x="61.58181818181818" y="70.95416666666668" width="2" height="29.04583333333332" id="cases-ep-38"></rect></g><g><rect x="58.018181818181816" y="69.40416666666667" width="2" height="30.59583333333333" id="cases-ep-39"></rect></g><g><rect x="54.454545454545446" y="68.77499999999999" width="2" height="31.22500000000001" id="cases-ep-40"></rect></g><g><rect x="50.89090909090908" y="67.47916666666667" width="2" height="32.52083333333333" id="cases-ep-41"></rect></g><g><rect x="47.32727272727273" y="85.10833333333333" width="2" height="14.891666666666666" id="cases-ep-42"></rect></g><g><rect x="43.76363636363636" y="85.0125" width="2" height="14.987499999999997" id="cases-ep-43"></rect></g><g><rect x="40.199999999999996" y="78.64166666666667" width="2" height="21.358333333333334" id="cases-ep-44"></rect></g><g><rect x="36.636363636363626" y="77.36666666666667" width="2" height="22.633333333333326" id="cases-ep-45"></rect></g><g><rect x="33.072727272727285" y="76.725" width="2" height="23.275000000000006" id="cases-ep-46"></rect></g><g><rect x="29.509090909090922" y="75.63333333333333" width="2" height="24.366666666666674" id="cases-ep-47"></rect></g><g><rect x="25.945454545454556" y="73.97916666666666" width="2" height="26.020833333333343" id="cases-ep-48"></rect></g><g><rect x="22.38181818181819" y="90.30416666666666" width="2" height="9.69583333333334" id="cases-ep-49"></rect></g><g><rect x="18.818181818181824" y="88.92916666666667" width="2" height="11.070833333333326" id="cases-ep-50"></rect></g><g><rect x="15.254545454545461" y="84.86666666666667" width="2" height="15.133333333333326" id="cases-ep-51"></rect></g><g><rect x="11.690909090909095" y="84.53333333333333" width="2" height="15.466666666666669" id="cases-ep-52"></rect></g><g><rect x="8.12727272727273" y="83.45833333333333" width="2" height="16.54166666666667" id="cases-ep-53"></rect></g><g><rect x="4.563636363636365" y="82.95833333333333" width="2" height="17.04166666666667" id="cases-ep-54"></rect></g><g><rect x="1" y="81.55833333333334" width="2" height="18.441666666666663" id="cases-ep-55"></rect></g></g><g class="fg-line cases-ep" fill="none" stroke="#92c5de" stroke-width="2" stroke-linecap="round"><path d="M198,38.28869047619048L194.43636363636364,38.93095238095238L190.87272727272727,39.666666666666664L187.30909090909088,40.64404761904762L183.74545454545455,41.86190476190477L180.1818181818182,43.611309523809524L176.61818181818182,46.923809523809524L173.05454545454546,40.30357142857143L169.49090909090907,39.773809523809526L165.92727272727274,39.675000000000004L162.36363636363637,39.77738095238096L158.8,40.349999999999994L155.23636363636365,41.13690476190476L151.6727272727273,42.30238095238096L148.1090909090909,43.538095238095245L144.54545454545453,43.97619047619047L140.9818181818182,44.557142857142864L137.41818181818184,46.087500000000006L133.85454545454544,47.909523809523805L130.29090909090908,50.20059523809523L126.72727272727273,52.71964285714286L123.16363636363636,55.445833333333326L119.6,56.50595238095237L116.03636363636363,57.458333333333336L112.47272727272728,58.93214285714286L108.90909090909089,60.22142857142857L105.34545454545456,61.4827380952381L101.78181818181817,62.683928571428574L98.21818181818183,64.15416666666667L94.65454545454546,64.69166666666666L91.09090909090911,65.58154761904763L87.52727272727273,66.99464285714285L83.96363636363637,68.35238095238095L80.4,69.7577380952381L76.83636363636364,71.1625L73.27272727272727,72.62619047619047L69.70909090909092,73.53035714285714L66.14545454545454,74.23988095238096L62.58181818181818,75.05357142857143L59.018181818181816,75.96964285714284L55.454545454545446,77.01547619047619L51.89090909090908,77.9952380952381L48.32727272727273,78.92380952380952L44.76363636363636,79.66607142857143L41.199999999999996,80.22559523809524L37.636363636363626,81.11488095238096L34.072727272727285,82.13869047619048L30.509090909090922,83.10059523809524L26.945454545454556,84.14702380952382L23.38181818181819,85.2297619047619L19.818181818181824,85.3047619047619L16.25454545454546,85.6654761904762L12.690909090909095,86.07440476190476L9.12727272727273,86.46309523809524L5.563636363636365,86.79880952380952L2,87.23214285714286"></path></g></svg>