<svg meta="{&quot;DATA_PUBLISHED_DATE&quot;:&quot;2022-02-11&quot;,&quot;RENDER_DATE&quot;:&quot;2022-02-13&quot;,&quot;FIRST_DATE&quot;:&quot;2021-11-25&quot;,&quot;LAST_DATE&quot;:&quot;2022-01-19&quot;}" xmlns="http://www.w3.org/2000/svg" viewBox="0,0,200,100"><g transform="translate(0,0)"></g><g class="fg-bars death-date" fill="#00183f" stroke="none"><g><rect x="197" y="2.2222222222222254" width="2" height="97.77777777777777" id="death-date-0"></rect></g><g><rect x="193.43636363636364" y="17.777777777777782" width="2" height="82.22222222222221" id="death-date-1"></rect></g><g><rect x="189.87272727272727" y="21.111111111111114" width="2" height="78.88888888888889" id="death-date-2"></rect></g><g><rect x="186.30909090909088" y="16.666666666666664" width="2" height="83.33333333333334" id="death-date-3"></rect></g><g><rect x="182.74545454545455" y="16.666666666666664" width="2" height="83.33333333333334" id="death-date-4"></rect></g><g><rect x="179.1818181818182" y="26.111111111111107" width="2" height="73.88888888888889" id="death-date-5"></rect></g><g><rect x="175.61818181818182" y="25.555555555555554" width="2" height="74.44444444444444" id="death-date-6"></rect></g><g><rect x="172.05454545454546" y="19.444444444444443" width="2" height="80.55555555555556" id="death-date-7"></rect></g><g><rect x="168.49090909090907" y="22.777777777777775" width="2" height="77.22222222222223" id="death-date-8"></rect></g><g><rect x="164.92727272727274" y="33.88888888888889" width="2" height="66.11111111111111" id="death-date-9"></rect></g><g><rect x="161.36363636363637" y="48.88888888888889" width="2" height="51.11111111111111" id="death-date-10"></rect></g><g><rect x="157.8" y="36.111111111111114" width="2" height="63.888888888888886" id="death-date-11"></rect></g><g><rect x="154.23636363636365" y="50.55555555555556" width="2" height="49.44444444444444" id="death-date-12"></rect></g><g><rect x="150.6727272727273" y="41.11111111111111" width="2" height="58.88888888888889" id="death-date-13"></rect></g><g><rect x="147.1090909090909" y="45.55555555555556" width="2" height="54.44444444444444" id="death-date-14"></rect></g><g><rect x="143.54545454545453" y="50" width="2" height="50" id="death-date-15"></rect></g><g><rect x="139.9818181818182" y="52.77777777777778" width="2" height="47.22222222222222" id="death-date-16"></rect></g><g><rect x="136.41818181818184" y="62.22222222222222" width="2" height="37.77777777777778" id="death-date-17"></rect></g><g><rect x="132.85454545454544" y="61.66666666666667" width="2" height="38.33333333333333" id="death-date-18"></rect></g><g><rect x="129.29090909090908" y="61.111111111111114" width="2" height="38.888888888888886" id="death-date-19"></rect></g><g><rect x="125.72727272727273" y="69.44444444444444" width="2" height="30.555555555555557" id="death-date-20"></rect></g><g><rect x="122.16363636363636" y="66.11111111111111" width="2" height="33.888888888888886" id="death-date-21"></rect></g><g><rect x="118.6" y="75" width="2" height="25" id="death-date-22"></rect></g><g><rect x="115.03636363636363" y="61.66666666666667" width="2" height="38.33333333333333" id="death-date-23"></rect></g><g><rect x="111.47272727272728" y="72.77777777777779" width="2" height="27.222222222222214" id="death-date-24"></rect></g><g><rect x="107.90909090909089" y="69.44444444444444" width="2" height="30.555555555555557" id="death-date-25"></rect></g><g><rect x="104.34545454545456" y="67.77777777777779" width="2" height="32.222222222222214" id="death-date-26"></rect></g><g><rect x="100.78181818181817" y="66.11111111111111" width="2" height="33.888888888888886" id="death-date-27"></rect></g><g><rect x="97.21818181818183" y="74.44444444444444" width="2" height="25.555555555555557" id="death-date-28"></rect></g><g><rect x="93.65454545454546" y="71.11111111111111" width="2" height="28.888888888888886" id="death-date-29"></rect></g><g><rect x="90.09090909090911" y="66.66666666666667" width="2" height="33.33333333333333" id="death-date-30"></rect></g><g><rect x="86.52727272727273" y="65.55555555555556" width="2" height="34.44444444444444" id="death-date-31"></rect></g><g><rect x="82.96363636363637" y="72.22222222222221" width="2" height="27.777777777777786" id="death-date-32"></rect></g><g><rect x="79.4" y="69.44444444444444" width="2" height="30.555555555555557" id="death-date-33"></rect></g><g><rect x="75.83636363636364" y="61.111111111111114" width="2" height="38.888888888888886" id="death-date-34"></rect></g><g><rect x="72.27272727272727" y="66.11111111111111" width="2" height="33.888888888888886" id="death-date-35"></rect></g><g><rect x="68.70909090909092" y="64.44444444444444" width="2" height="35.55555555555556" id="death-date-36"></rect></g><g><rect x="65.14545454545454" y="66.66666666666667" width="2" height="33.33333333333333" id="death-date-37"></rect></g><g><rect x="61.58181818181818" y="71.11111111111111" width="2" height="28.888888888888886" id="death-date-38"></rect></g><g><rect x="58.018181818181816" y="70" width="2" height="30" id="death-date-39"></rect></g><g><rect x="54.454545454545446" y="72.77777777777779" width="2" height="27.222222222222214" id="death-date-40"></rect></g><g><rect x="50.89090909090908" y="69.44444444444444" width="2" height="30.555555555555557" id="death-date-41"></rect></g><g><rect x="47.32727272727273" y="70.55555555555554" width="2" height="29.444444444444457" id="death-date-42"></rect></g><g><rect x="43.76363636363636" y="65" width="2" height="35" id="death-date-43"></rect></g><g><rect x="40.199999999999996" y="75.55555555555556" width="2" height="24.444444444444443" id="death-date-44"></rect></g><g><rect x="36.636363636363626" y="70" width="2" height="30" id="death-date-45"></rect></g><g><rect x="33.072727272727285" y="63.33333333333333" width="2" height="36.66666666666667" id="death-date-46"></rect></g><g><rect x="29.509090909090922" y="64.44444444444444" width="2" height="35.55555555555556" id="death-date-47"></rect></g><g><rect x="25.945454545454556" y="62.77777777777778" width="2" height="37.22222222222222" id="death-date-48"></rect></g><g><rect x="22.38181818181819" y="65.55555555555556" width="2" height="34.44444444444444" id="death-date-49"></rect></g><g><rect x="18.818181818181824" y="72.77777777777779" width="2" height="27.222222222222214" id="death-date-50"></rect></g><g><rect x="15.254545454545461" y="59.44444444444444" width="2" height="40.55555555555556" id="death-date-51"></rect></g><g><rect x="11.690909090909095" y="72.22222222222221" width="2" height="27.777777777777786" id="death-date-52"></rect></g><g><rect x="8.12727272727273" y="72.22222222222221" width="2" height="27.777777777777786" id="death-date-53"></rect></g><g><rect x="4.563636363636365" y="65.55555555555556" width="2" height="34.44444444444444" id="death-date-54"></rect></g><g><rect x="1" y="71.11111111111111" width="2" height="28.888888888888886" id="death-date-55"></rect></g></g><g class="fg-line death-date" fill="none" stroke="#92c5de" stroke-width="2" stroke-linecap="round"><path d="M198,18.01587301587301L194.43636363636364,20.47619047619048L190.87272727272727,21.190476190476193L187.30909090909088,23.015873015873012L183.74545454545455,27.61904761904762L180.1818181818182,30.39682539682539L176.61818181818182,33.88888888888889L173.05454545454546,36.111111111111114L169.49090909090907,39.841269841269835L165.92727272727274,43.73015873015873L162.36363636363637,46.42857142857143L158.8,48.33333333333333L155.23636363636365,51.98412698412697L151.6727272727273,53.4920634920635L148.1090909090909,57.53968253968254L144.54545454545453,60.47619047619048L140.9818181818182,64.04761904761905L137.41818181818184,65.31746031746032L133.85454545454544,66.82539682539684L130.29090909090908,67.93650793650794L126.72727272727273,68.88888888888889L123.16363636363636,68.41269841269842L119.6,69.6031746031746L116.03636363636363,69.04761904761905L112.47272727272728,69.76190476190476L108.90909090909089,68.73015873015873L105.34545454545456,69.12698412698413L101.78181818181817,69.36507936507937L98.21818181818183,68.65079365079364L94.65454545454546,67.46031746031747L91.09090909090911,66.50793650793652L87.52727272727273,66.50793650793652L83.96363636363637,67.3015873015873L80.4,66.98412698412699L76.83636363636364,67.46031746031747L73.27272727272727,68.65079365079364L69.70909090909092,69.28571428571428L66.14545454545454,69.36507936507937L62.58181818181818,70.63492063492063L59.018181818181816,70.47619047619047L55.454545454545446,69.52380952380952L51.89090909090908,68.33333333333333L48.32727272727273,67.38095238095238L44.76363636363636,66.66666666666667L41.199999999999996,67.77777777777779L37.636363636363626,65.47619047619048L34.072727272727285,65.7936507936508L30.509090909090922,67.06349206349206L26.945454545454556,67.22222222222223L23.38181818181819,68.41269841269842L19.818181818181824,68.73015873015873L16.25454545454546,66.98412698412699L12.690909090909095,67.46031746031747L9.12727272727273,65.95238095238095L5.563636363636365,64.76190476190476L2,63.33333333333333"></path></g></svg>