<svg meta="{&quot;DATA_PUBLISHED_DATE&quot;:&quot;2022-06-24&quot;,&quot;RENDER_DATE&quot;:&quot;2022-06-24&quot;,&quot;FIRST_DATE&quot;:&quot;2022-04-21&quot;,&quot;LAST_DATE&quot;:&quot;2022-06-15&quot;}" xmlns="http://www.w3.org/2000/svg" viewBox="0,0,200,100"><g transform="translate(0,0)"></g><g class="fg-bars cases-ep" fill="#00183f" stroke="none"><g><rect x="197" y="35.14166666666667" width="2" height="64.85833333333332" id="cases-ep-0"></rect></g><g><rect x="193.43636363636364" y="32.445833333333326" width="2" height="67.55416666666667" id="cases-ep-1"></rect></g><g><rect x="189.87272727272727" y="25.637500000000003" width="2" height="74.3625" id="cases-ep-2"></rect></g><g><rect x="186.30909090909088" y="65.16666666666666" width="2" height="34.83333333333334" id="cases-ep-3"></rect></g><g><rect x="182.74545454545455" y="60.65416666666666" width="2" height="39.34583333333334" id="cases-ep-4"></rect></g><g><rect x="179.1818181818182" y="37.175000000000004" width="2" height="62.824999999999996" id="cases-ep-5"></rect></g><g><rect x="175.61818181818182" y="35.262499999999996" width="2" height="64.73750000000001" id="cases-ep-6"></rect></g><g><rect x="172.05454545454546" y="27.46666666666666" width="2" height="72.53333333333333" id="cases-ep-7"></rect></g><g><rect x="168.49090909090907" y="22.850000000000005" width="2" height="77.14999999999999" id="cases-ep-8"></rect></g><g><rect x="164.92727272727274" y="14.016666666666666" width="2" height="85.98333333333333" id="cases-ep-9"></rect></g><g><rect x="161.36363636363637" y="60.67916666666666" width="2" height="39.32083333333334" id="cases-ep-10"></rect></g><g><rect x="157.8" y="56.49999999999999" width="2" height="43.50000000000001" id="cases-ep-11"></rect></g><g><rect x="154.23636363636365" y="32.733333333333334" width="2" height="67.26666666666667" id="cases-ep-12"></rect></g><g><rect x="150.6727272727273" y="25.675000000000004" width="2" height="74.32499999999999" id="cases-ep-13"></rect></g><g><rect x="147.1090909090909" y="14.8625" width="2" height="85.1375" id="cases-ep-14"></rect></g><g><rect x="143.54545454545453" y="1.0791666666666644" width="2" height="98.92083333333333" id="cases-ep-15"></rect></g><g><rect x="139.9818181818182" y="64.34166666666667" width="2" height="35.65833333333333" id="cases-ep-16"></rect></g><g><rect x="136.41818181818184" y="67.45416666666667" width="2" height="32.545833333333334" id="cases-ep-17"></rect></g><g><rect x="132.85454545454544" y="63.29166666666667" width="2" height="36.70833333333333" id="cases-ep-18"></rect></g><g><rect x="129.29090909090908" y="41.104166666666664" width="2" height="58.895833333333336" id="cases-ep-19"></rect></g><g><rect x="125.72727272727273" y="35.62499999999999" width="2" height="64.375" id="cases-ep-20"></rect></g><g><rect x="122.16363636363636" y="28.96666666666666" width="2" height="71.03333333333333" id="cases-ep-21"></rect></g><g><rect x="118.6" y="24.7375" width="2" height="75.2625" id="cases-ep-22"></rect></g><g><rect x="115.03636363636363" y="19.366666666666667" width="2" height="80.63333333333333" id="cases-ep-23"></rect></g><g><rect x="111.47272727272728" y="63.94583333333333" width="2" height="36.05416666666667" id="cases-ep-24"></rect></g><g><rect x="107.90909090909089" y="62.75416666666666" width="2" height="37.24583333333334" id="cases-ep-25"></rect></g><g><rect x="104.34545454545456" y="42.17916666666667" width="2" height="57.82083333333333" id="cases-ep-26"></rect></g><g><rect x="100.78181818181817" y="39.44166666666666" width="2" height="60.55833333333334" id="cases-ep-27"></rect></g><g><rect x="97.21818181818183" y="34.704166666666666" width="2" height="65.29583333333333" id="cases-ep-28"></rect></g><g><rect x="93.65454545454546" y="32.84166666666667" width="2" height="67.15833333333333" id="cases-ep-29"></rect></g><g><rect x="90.09090909090911" y="28.145833333333336" width="2" height="71.85416666666666" id="cases-ep-30"></rect></g><g><rect x="86.52727272727273" y="67.2625" width="2" height="32.7375" id="cases-ep-31"></rect></g><g><rect x="82.96363636363637" y="66.72083333333335" width="2" height="33.279166666666654" id="cases-ep-32"></rect></g><g><rect x="79.4" y="52.479166666666664" width="2" height="47.520833333333336" id="cases-ep-33"></rect></g><g><rect x="75.83636363636364" y="52.16666666666667" width="2" height="47.83333333333333" id="cases-ep-34"></rect></g><g><rect x="72.27272727272727" y="50.37499999999999" width="2" height="49.62500000000001" id="cases-ep-35"></rect></g><g><rect x="68.70909090909092" y="50.11666666666667" width="2" height="49.88333333333333" id="cases-ep-36"></rect></g><g><rect x="65.14545454545454" y="46.612500000000004" width="2" height="53.387499999999996" id="cases-ep-37"></rect></g><g><rect x="61.58181818181818" y="74.6625" width="2" height="25.337500000000006" id="cases-ep-38"></rect></g><g><rect x="58.018181818181816" y="73.75833333333333" width="2" height="26.241666666666674" id="cases-ep-39"></rect></g><g><rect x="54.454545454545446" y="62.89583333333333" width="2" height="37.10416666666667" id="cases-ep-40"></rect></g><g><rect x="50.89090909090908" y="61.1" width="2" height="38.9" id="cases-ep-41"></rect></g><g><rect x="47.32727272727273" y="59.233333333333334" width="2" height="40.766666666666666" id="cases-ep-42"></rect></g><g><rect x="43.76363636363636" y="58.675" width="2" height="41.325" id="cases-ep-43"></rect></g><g><rect x="40.199999999999996" y="56.84166666666667" width="2" height="43.15833333333333" id="cases-ep-44"></rect></g><g><rect x="36.636363636363626" y="78.35416666666667" width="2" height="21.64583333333333" id="cases-ep-45"></rect></g><g><rect x="33.072727272727285" y="80.00833333333334" width="2" height="19.99166666666666" id="cases-ep-46"></rect></g><g><rect x="29.509090909090922" y="72.925" width="2" height="27.075000000000003" id="cases-ep-47"></rect></g><g><rect x="25.945454545454556" y="70.87916666666668" width="2" height="29.120833333333323" id="cases-ep-48"></rect></g><g><rect x="22.38181818181819" y="69.17083333333333" width="2" height="30.829166666666666" id="cases-ep-49"></rect></g><g><rect x="18.818181818181824" y="68.76249999999999" width="2" height="31.23750000000001" id="cases-ep-50"></rect></g><g><rect x="15.254545454545461" y="67.4625" width="2" height="32.537499999999994" id="cases-ep-51"></rect></g><g><rect x="11.690909090909095" y="84.99583333333334" width="2" height="15.004166666666663" id="cases-ep-52"></rect></g><g><rect x="8.12727272727273" y="84.97916666666667" width="2" height="15.020833333333329" id="cases-ep-53"></rect></g><g><rect x="4.563636363636365" y="78.75" width="2" height="21.25" id="cases-ep-54"></rect></g><g><rect x="1" y="77.25833333333334" width="2" height="22.74166666666666" id="cases-ep-55"></rect></g></g><g class="fg-line cases-ep" fill="none" stroke="#92c5de" stroke-width="2" stroke-linecap="round"><path d="M198,41.64047619047619L194.43636363636364,40.54404761904762L190.87272727272727,39.17321428571429L187.30909090909088,37.51309523809524L183.74545454545455,36.87202380952381L180.1818181818182,36.278571428571425L176.61818181818182,35.644047619047626L173.05454545454546,34.27440476190476L169.49090909090907,32.47380952380953L165.92727272727274,29.363690476190474L162.36363636363637,36.552976190476194L158.8,37.520833333333336L155.23636363636365,38.49107142857143L151.6727272727273,39.68690476190476L148.1090909090909,41.108333333333334L144.54545454545453,43.12321428571428L140.9818181818182,46.5029761904762L137.41818181818184,40.07797619047619L133.85454545454544,39.57678571428571L130.29090909090908,39.5L126.72727272727273,39.65357142857143L123.16363636363636,40.19880952380953L119.6,41.018452380952375L116.03636363636363,42.17619047619048L112.47272727272728,43.43035714285715L108.90909090909089,43.90416666666667L105.34545454545456,44.47083333333334L101.78181818181817,45.94226190476191L98.21818181818183,47.76011904761904L94.65454545454546,49.99880952380953L91.09090909090911,52.46666666666666L87.52727272727273,55.1047619047619L83.96363636363637,56.161904761904765L80.4,57.1672619047619L76.83636363636364,58.65535714285714L73.27272727272727,59.93154761904762L69.70909090909092,61.19702380952381L66.14545454545454,62.419642857142854L62.58181818181818,63.88095238095237L59.018181818181816,64.40833333333333L55.454545454545446,65.30119047619047L51.89090909090908,66.73392857142856L48.32727272727273,68.13095238095238L44.76363636363636,69.55059523809524L41.199999999999996,70.99166666666666L37.636363636363626,72.50892857142857L34.072727272727285,73.4577380952381L30.509090909090922,74.16785714285714L26.945454545454556,75L23.38181818181819,75.91130952380952L19.818181818181824,76.96904761904761L16.25454545454546,77.94583333333334L12.690909090909095,78.86666666666666L9.12727272727273,79.59940476190476L5.563636363636365,80.15238095238095L2,81.03392857142858"></path></g></svg>