<svg meta="{&quot;DATA_PUBLISHED_DATE&quot;:&quot;2023-01-26&quot;,&quot;RENDER_DATE&quot;:&quot;2023-01-26&quot;,&quot;FIRST_DATE&quot;:&quot;2022-11-23&quot;,&quot;LAST_DATE&quot;:&quot;2023-01-17&quot;}" xmlns="http://www.w3.org/2000/svg" viewBox="0,0,200,100"><g transform="translate(0,0)"></g><g class="fg-bars cases-ep" fill="#00183f" stroke="none"><g><rect x="197" y="79.41875" width="2" height="20.581249999999997" id="cases-ep-0"></rect></g><g><rect x="193.43636363636364" y="84" width="2" height="16" id="cases-ep-1"></rect></g><g><rect x="189.87272727272727" y="89.39375000000001" width="2" height="10.606249999999989" id="cases-ep-2"></rect></g><g><rect x="186.30909090909088" y="88.71875" width="2" height="11.28125" id="cases-ep-3"></rect></g><g><rect x="182.74545454545455" y="81.85" width="2" height="18.150000000000006" id="cases-ep-4"></rect></g><g><rect x="179.1818181818182" y="80.15" width="2" height="19.849999999999994" id="cases-ep-5"></rect></g><g><rect x="175.61818181818182" y="77.70625" width="2" height="22.293750000000003" id="cases-ep-6"></rect></g><g><rect x="172.05454545454546" y="77.3875" width="2" height="22.612499999999997" id="cases-ep-7"></rect></g><g><rect x="168.49090909090907" y="71.60625" width="2" height="28.393749999999997" id="cases-ep-8"></rect></g><g><rect x="164.92727272727274" y="84.225" width="2" height="15.775000000000006" id="cases-ep-9"></rect></g><g><rect x="161.36363636363637" y="81.27499999999999" width="2" height="18.72500000000001" id="cases-ep-10"></rect></g><g><rect x="157.8" y="70.53125" width="2" height="29.46875" id="cases-ep-11"></rect></g><g><rect x="154.23636363636365" y="70.25" width="2" height="29.75" id="cases-ep-12"></rect></g><g><rect x="150.6727272727273" y="65.29374999999999" width="2" height="34.70625000000001" id="cases-ep-13"></rect></g><g><rect x="147.1090909090909" y="55.175" width="2" height="44.825" id="cases-ep-14"></rect></g><g><rect x="143.54545454545453" y="66.10000000000001" width="2" height="33.89999999999999" id="cases-ep-15"></rect></g><g><rect x="139.9818181818182" y="83.375" width="2" height="16.625" id="cases-ep-16"></rect></g><g><rect x="136.41818181818184" y="76.8375" width="2" height="23.162499999999994" id="cases-ep-17"></rect></g><g><rect x="132.85454545454544" y="59.13125" width="2" height="40.86875" id="cases-ep-18"></rect></g><g><rect x="129.29090909090908" y="53.1875" width="2" height="46.8125" id="cases-ep-19"></rect></g><g><rect x="125.72727272727273" y="46.84374999999999" width="2" height="53.15625000000001" id="cases-ep-20"></rect></g><g><rect x="122.16363636363636" y="39.88125" width="2" height="60.11875" id="cases-ep-21"></rect></g><g><rect x="118.6" y="55.425000000000004" width="2" height="44.574999999999996" id="cases-ep-22"></rect></g><g><rect x="115.03636363636363" y="82.46875" width="2" height="17.53125" id="cases-ep-23"></rect></g><g><rect x="111.47272727272728" y="75.43124999999999" width="2" height="24.56875000000001" id="cases-ep-24"></rect></g><g><rect x="107.90909090909089" y="58.087500000000006" width="2" height="41.912499999999994" id="cases-ep-25"></rect></g><g><rect x="104.34545454545456" y="53.25" width="2" height="46.75" id="cases-ep-26"></rect></g><g><rect x="100.78181818181817" y="50.675000000000004" width="2" height="49.324999999999996" id="cases-ep-27"></rect></g><g><rect x="97.21818181818183" y="46.8125" width="2" height="53.1875" id="cases-ep-28"></rect></g><g><rect x="93.65454545454546" y="42.0625" width="2" height="57.9375" id="cases-ep-29"></rect></g><g><rect x="90.09090909090911" y="72.4625" width="2" height="27.537499999999994" id="cases-ep-30"></rect></g><g><rect x="86.52727272727273" y="69.32499999999999" width="2" height="30.67500000000001" id="cases-ep-31"></rect></g><g><rect x="82.96363636363637" y="57.087500000000006" width="2" height="42.912499999999994" id="cases-ep-32"></rect></g><g><rect x="79.4" y="53.29375" width="2" height="46.70625" id="cases-ep-33"></rect></g><g><rect x="75.83636363636364" y="49.0125" width="2" height="50.9875" id="cases-ep-34"></rect></g><g><rect x="72.27272727272727" y="44.95" width="2" height="55.05" id="cases-ep-35"></rect></g><g><rect x="68.70909090909092" y="35.662499999999994" width="2" height="64.3375" id="cases-ep-36"></rect></g><g><rect x="65.14545454545454" y="69.95" width="2" height="30.049999999999997" id="cases-ep-37"></rect></g><g><rect x="61.58181818181818" y="66.15625" width="2" height="33.84375" id="cases-ep-38"></rect></g><g><rect x="58.018181818181816" y="50.14375" width="2" height="49.85625" id="cases-ep-39"></rect></g><g><rect x="54.454545454545446" y="47.45" width="2" height="52.55" id="cases-ep-40"></rect></g><g><rect x="50.89090909090908" y="43.256249999999994" width="2" height="56.743750000000006" id="cases-ep-41"></rect></g><g><rect x="47.32727272727273" y="37.262499999999996" width="2" height="62.737500000000004" id="cases-ep-42"></rect></g><g><rect x="43.76363636363636" y="26.8" width="2" height="73.2" id="cases-ep-43"></rect></g><g><rect x="40.199999999999996" y="63.7625" width="2" height="36.2375" id="cases-ep-44"></rect></g><g><rect x="36.636363636363626" y="61.525000000000006" width="2" height="38.474999999999994" id="cases-ep-45"></rect></g><g><rect x="33.072727272727285" y="44.4375" width="2" height="55.5625" id="cases-ep-46"></rect></g><g><rect x="29.509090909090922" y="36.9875" width="2" height="63.0125" id="cases-ep-47"></rect></g><g><rect x="25.945454545454556" y="31.999999999999996" width="2" height="68" id="cases-ep-48"></rect></g><g><rect x="22.38181818181819" y="25.162499999999998" width="2" height="74.8375" id="cases-ep-49"></rect></g><g><rect x="18.818181818181824" y="10.062499999999996" width="2" height="89.9375" id="cases-ep-50"></rect></g><g><rect x="15.254545454545461" y="55.98125" width="2" height="44.01875" id="cases-ep-51"></rect></g><g><rect x="11.690909090909095" y="58.20624999999999" width="2" height="41.79375000000001" id="cases-ep-52"></rect></g><g><rect x="8.12727272727273" y="53.275000000000006" width="2" height="46.724999999999994" id="cases-ep-53"></rect></g><g><rect x="4.563636363636365" y="79.9625" width="2" height="20.037499999999994" id="cases-ep-54"></rect></g><g><rect x="1" y="53.56875" width="2" height="46.43125" id="cases-ep-55"></rect></g></g><g class="fg-line cases-ep" fill="none" stroke="#92c5de" stroke-width="2" stroke-linecap="round"><path d="M198,83.03392857142858L194.43636363636364,82.74375L190.87272727272727,80.97321428571429L187.30909090909088,80.23482142857144L183.74545454545455,79.17142857142856L180.1818181818182,77.55446428571429L176.61818181818182,76.14017857142858L173.05454545454546,74.36696428571427L169.49090909090907,71.19375L165.92727272727274,70.40714285714286L162.36363636363637,70.28571428571428L158.8,69.65178571428572L155.23636363636365,68.02321428571429L151.6727272727273,65.58571428571427L148.1090909090909,62.949999999999996L144.54545454545453,60.76517857142858L140.9818181818182,59.24017857142857L137.41818181818184,59.11071428571428L133.85454545454544,58.909821428571426L130.29090909090908,58.76071428571428L126.72727272727273,58.769642857142856L123.16363636363636,59.31696428571429L119.6,60.30714285714285L116.03636363636363,58.398214285714275L112.47272727272728,56.96875L108.90909090909089,56.09642857142858L105.34545454545456,55.95357142857142L101.78181818181817,55.95982142857143L98.21818181818183,55.72232142857143L94.65454545454546,55.456250000000004L91.09090909090911,54.541964285714286L87.52727272727273,54.18303571428571L83.96363636363637,53.730357142857144L80.4,52.738392857142856L76.83636363636364,51.903571428571425L73.27272727272727,51.08125L69.70909090909092,49.98303571428572L66.14545454545454,48.71696428571429L62.58181818181818,47.83303571428571L59.018181818181816,47.171428571428564L55.454545454545446,46.356249999999996L51.89090909090908,44.86160714285714L48.32727272727273,43.25357142857143L44.76363636363636,41.525L41.199999999999996,39.13392857142857L37.636363636363626,38.02232142857144L34.072727272727285,37.54821428571429L30.509090909090922,38.81071428571429L26.945454545454556,44.95L23.38181818181819,48.03125L19.818181818181824,51.878571428571426L16.25454545454546,57.359821428571436L12.690909090909095,59.973214285714285L9.12727272727273,62.299107142857146L5.563636363636365,63.78839285714286L2,61.4375"></path></g></svg>