<svg meta="{&quot;DATA_PUBLISHED_DATE&quot;:&quot;2023-04-13&quot;,&quot;RENDER_DATE&quot;:&quot;2023-04-13&quot;,&quot;FIRST_DATE&quot;:&quot;2023-02-08&quot;,&quot;LAST_DATE&quot;:&quot;2023-04-04&quot;}" xmlns="http://www.w3.org/2000/svg" viewBox="0,0,200,100"><g transform="translate(0,0)"></g><g class="fg-bars cases-ep" fill="#00183f" stroke="none"><g><rect x="197" y="64.17500000000001" width="2" height="35.82499999999999" id="cases-ep-0"></rect></g><g><rect x="193.43636363636364" y="56.82499999999999" width="2" height="43.17500000000001" id="cases-ep-1"></rect></g><g><rect x="189.87272727272727" y="77.025" width="2" height="22.974999999999994" id="cases-ep-2"></rect></g><g><rect x="186.30909090909088" y="74.25" width="2" height="25.75" id="cases-ep-3"></rect></g><g><rect x="182.74545454545455" y="65.05000000000001" width="2" height="34.94999999999999" id="cases-ep-4"></rect></g><g><rect x="179.1818181818182" y="61.275" width="2" height="38.725" id="cases-ep-5"></rect></g><g><rect x="175.61818181818182" y="60.62499999999999" width="2" height="39.37500000000001" id="cases-ep-6"></rect></g><g><rect x="172.05454545454546" y="60.224999999999994" width="2" height="39.775000000000006" id="cases-ep-7"></rect></g><g><rect x="168.49090909090907" y="56.875" width="2" height="43.125" id="cases-ep-8"></rect></g><g><rect x="164.92727272727274" y="75.625" width="2" height="24.375" id="cases-ep-9"></rect></g><g><rect x="161.36363636363637" y="75.52499999999999" width="2" height="24.47500000000001" id="cases-ep-10"></rect></g><g><rect x="157.8" y="63.050000000000004" width="2" height="36.949999999999996" id="cases-ep-11"></rect></g><g><rect x="154.23636363636365" y="59.8" width="2" height="40.2" id="cases-ep-12"></rect></g><g><rect x="150.6727272727273" y="59.5" width="2" height="40.5" id="cases-ep-13"></rect></g><g><rect x="147.1090909090909" y="55.15" width="2" height="44.85" id="cases-ep-14"></rect></g><g><rect x="143.54545454545453" y="48.150000000000006" width="2" height="51.849999999999994" id="cases-ep-15"></rect></g><g><rect x="139.9818181818182" y="72.475" width="2" height="27.525000000000006" id="cases-ep-16"></rect></g><g><rect x="136.41818181818184" y="68.575" width="2" height="31.424999999999997" id="cases-ep-17"></rect></g><g><rect x="132.85454545454544" y="54.85" width="2" height="45.15" id="cases-ep-18"></rect></g><g><rect x="129.29090909090908" y="50.35000000000001" width="2" height="49.64999999999999" id="cases-ep-19"></rect></g><g><rect x="125.72727272727273" y="49.625" width="2" height="50.375" id="cases-ep-20"></rect></g><g><rect x="122.16363636363636" y="46.550000000000004" width="2" height="53.449999999999996" id="cases-ep-21"></rect></g><g><rect x="118.6" y="29.15" width="2" height="70.85" id="cases-ep-22"></rect></g><g><rect x="115.03636363636363" y="64.55" width="2" height="35.45" id="cases-ep-23"></rect></g><g><rect x="111.47272727272728" y="61.475" width="2" height="38.525" id="cases-ep-24"></rect></g><g><rect x="107.90909090909089" y="45.425000000000004" width="2" height="54.574999999999996" id="cases-ep-25"></rect></g><g><rect x="104.34545454545456" y="38.525" width="2" height="61.475" id="cases-ep-26"></rect></g><g><rect x="100.78181818181817" y="37.5" width="2" height="62.5" id="cases-ep-27"></rect></g><g><rect x="97.21818181818183" y="35.775" width="2" height="64.225" id="cases-ep-28"></rect></g><g><rect x="93.65454545454546" y="24.424999999999997" width="2" height="75.575" id="cases-ep-29"></rect></g><g><rect x="90.09090909090911" y="61.6" width="2" height="38.4" id="cases-ep-30"></rect></g><g><rect x="86.52727272727273" y="57.550000000000004" width="2" height="42.449999999999996" id="cases-ep-31"></rect></g><g><rect x="82.96363636363637" y="38.575" width="2" height="61.425" id="cases-ep-32"></rect></g><g><rect x="79.4" y="33.375" width="2" height="66.625" id="cases-ep-33"></rect></g><g><rect x="75.83636363636364" y="29.874999999999996" width="2" height="70.125" id="cases-ep-34"></rect></g><g><rect x="72.27272727272727" y="22.575" width="2" height="77.425" id="cases-ep-35"></rect></g><g><rect x="68.70909090909092" y="17.674999999999997" width="2" height="82.325" id="cases-ep-36"></rect></g><g><rect x="65.14545454545454" y="54.25" width="2" height="45.75" id="cases-ep-37"></rect></g><g><rect x="61.58181818181818" y="54.974999999999994" width="2" height="45.025000000000006" id="cases-ep-38"></rect></g><g><rect x="58.018181818181816" y="33.45" width="2" height="66.55" id="cases-ep-39"></rect></g><g><rect x="54.454545454545446" y="23.150000000000006" width="2" height="76.85" id="cases-ep-40"></rect></g><g><rect x="50.89090909090908" y="17.674999999999997" width="2" height="82.325" id="cases-ep-41"></rect></g><g><rect x="47.32727272727273" y="1.2249999999999983" width="2" height="98.775" id="cases-ep-42"></rect></g><g><rect x="43.76363636363636" y="24.175" width="2" height="75.825" id="cases-ep-43"></rect></g><g><rect x="40.199999999999996" y="48.824999999999996" width="2" height="51.175000000000004" id="cases-ep-44"></rect></g><g><rect x="36.636363636363626" y="49.050000000000004" width="2" height="50.949999999999996" id="cases-ep-45"></rect></g><g><rect x="33.072727272727285" y="27.400000000000002" width="2" height="72.6" id="cases-ep-46"></rect></g><g><rect x="29.509090909090922" y="22.35" width="2" height="77.65" id="cases-ep-47"></rect></g><g><rect x="25.945454545454556" y="18.200000000000006" width="2" height="81.8" id="cases-ep-48"></rect></g><g><rect x="22.38181818181819" y="16.549999999999997" width="2" height="83.45" id="cases-ep-49"></rect></g><g><rect x="18.818181818181824" y="4.800000000000004" width="2" height="95.19999999999999" id="cases-ep-50"></rect></g><g><rect x="15.254545454545461" y="48.724999999999994" width="2" height="51.275000000000006" id="cases-ep-51"></rect></g><g><rect x="11.690909090909095" y="45.574999999999996" width="2" height="54.425000000000004" id="cases-ep-52"></rect></g><g><rect x="8.12727272727273" y="22.324999999999996" width="2" height="77.67500000000001" id="cases-ep-53"></rect></g><g><rect x="4.563636363636365" y="20.075" width="2" height="79.925" id="cases-ep-54"></rect></g><g><rect x="1" y="12.675000000000002" width="2" height="87.325" id="cases-ep-55"></rect></g></g><g class="fg-line cases-ep" fill="none" stroke="#92c5de" stroke-width="2" stroke-linecap="round"><path d="M198,65.60357142857143L194.43636363636364,65.03928571428573L190.87272727272727,65.04642857142858L187.30909090909088,64.84642857142858L183.74545454545455,65.02857142857144L180.1818181818182,64.74285714285715L176.61818181818182,64.53214285714286L173.05454545454546,64.37142857142857L169.49090909090907,63.64642857142857L165.92727272727274,62.4L162.36363636363637,61.949999999999996L158.8,60.957142857142856L155.23636363636365,59.785714285714285L151.6727272727273,58.43571428571428L148.1090909090909,57.02499999999999L144.54545454545453,55.79642857142857L140.9818181818182,53.082142857142856L137.41818181818184,51.95000000000001L133.85454545454544,50.93571428571428L130.29090909090908,49.589285714285715L126.72727272727273,47.9L123.16363636363636,46.16785714285715L119.6,44.628571428571426L116.03636363636363,43.953571428571436L112.47272727272728,43.53214285714285L108.90909090909089,42.971428571428575L105.34545454545456,41.99285714285714L101.78181818181817,41.25714285714286L98.21818181818183,40.167857142857144L94.65454545454546,38.28214285714285L91.09090909090911,37.31785714285715L87.52727272727273,36.26785714285714L83.96363636363637,35.9L80.4,35.16785714285714L76.83636363636364,33.707142857142856L73.27272727272727,31.96428571428571L69.70909090909092,28.914285714285715L66.14545454545454,29.84285714285715L62.58181818181818,29.067857142857147L59.018181818181816,28.221428571428564L55.454545454545446,27.357142857142858L51.89090909090908,27.242857142857147L48.32727272727273,27.31785714285715L44.76363636363636,29.507142857142853L41.199999999999996,26.73928571428571L37.636363636363626,26.724999999999998L34.072727272727285,26.228571428571435L30.509090909090922,25.503571428571437L26.945454545454556,25.178571428571427L23.38181818181819,24.389285714285712L19.818181818181824,23.65357142857143L16.25454545454546,22.239285714285707L12.690909090909095,21.864285714285714L9.12727272727273,21.932142857142857L5.563636363636365,22.45357142857143L2,22.664285714285715"></path></g></svg>