<svg about="DATA_PUBLISHED_DATE:2021-11-21,RENDER_DATE:2021-11-21" xmlns="http://www.w3.org/2000/svg" viewBox="0,0,200,100"><g transform="translate(0,0)"></g><g class="fg-bars tests-vaccines" fill="#00183f" stroke="none"><g><rect x="197" y="45.61346153846154" width="2" height="54.38653846153846" id="tests-vaccines-0"></rect></g><g><rect x="193.43636363636364" y="4.478076923076923" width="2" height="95.52192307692307" id="tests-vaccines-1"></rect></g><g><rect x="189.87272727272727" y="19.810384615384613" width="2" height="80.1896153846154" id="tests-vaccines-2"></rect></g><g><rect x="186.30909090909088" y="16.60846153846154" width="2" height="83.39153846153846" id="tests-vaccines-3"></rect></g><g><rect x="182.74545454545455" y="18.997692307692304" width="2" height="81.0023076923077" id="tests-vaccines-4"></rect></g><g><rect x="179.1818181818182" y="25.127692307692307" width="2" height="74.87230769230769" id="tests-vaccines-5"></rect></g><g><rect x="175.61818181818182" y="75.03961538461539" width="2" height="24.960384615384612" id="tests-vaccines-6"></rect></g><g><rect x="172.05454545454546" y="52.53038461538462" width="2" height="47.46961538461538" id="tests-vaccines-7"></rect></g><g><rect x="168.49090909090907" y="9.266153846153847" width="2" height="90.73384615384616" id="tests-vaccines-8"></rect></g><g><rect x="164.92727272727274" y="26.096538461538465" width="2" height="73.90346153846153" id="tests-vaccines-9"></rect></g><g><rect x="161.36363636363637" y="28.900769230769228" width="2" height="71.09923076923077" id="tests-vaccines-10"></rect></g><g><rect x="157.8" y="28.652307692307687" width="2" height="71.34769230769231" id="tests-vaccines-11"></rect></g><g><rect x="154.23636363636365" y="32.950769230769225" width="2" height="67.04923076923077" id="tests-vaccines-12"></rect></g><g><rect x="150.6727272727273" y="80.6873076923077" width="2" height="19.312692307692302" id="tests-vaccines-13"></rect></g><g><rect x="147.1090909090909" y="60.81615384615384" width="2" height="39.18384615384616" id="tests-vaccines-14"></rect></g><g><rect x="143.54545454545453" y="16.943076923076926" width="2" height="83.05692307692307" id="tests-vaccines-15"></rect></g><g><rect x="139.9818181818182" y="30.69538461538461" width="2" height="69.30461538461539" id="tests-vaccines-16"></rect></g><g><rect x="136.41818181818184" y="30.561153846153843" width="2" height="69.43884615384616" id="tests-vaccines-17"></rect></g><g><rect x="132.85454545454544" y="31.373846153846152" width="2" height="68.62615384615384" id="tests-vaccines-18"></rect></g><g><rect x="129.29090909090908" y="37.60653846153846" width="2" height="62.39346153846154" id="tests-vaccines-19"></rect></g><g><rect x="125.72727272727273" y="81.86769230769231" width="2" height="18.13230769230769" id="tests-vaccines-20"></rect></g><g><rect x="122.16363636363636" y="64.62769230769231" width="2" height="35.372307692307686" id="tests-vaccines-21"></rect></g><g><rect x="118.6" y="37.91307692307693" width="2" height="62.08692307692307" id="tests-vaccines-22"></rect></g><g><rect x="115.03636363636363" y="63.185" width="2" height="36.815" id="tests-vaccines-23"></rect></g><g><rect x="111.47272727272728" y="64.64576923076923" width="2" height="35.35423076923077" id="tests-vaccines-24"></rect></g><g><rect x="107.90909090909089" y="63.46115384615385" width="2" height="36.53884615384615" id="tests-vaccines-25"></rect></g><g><rect x="104.34545454545456" y="61.933076923076925" width="2" height="38.066923076923075" id="tests-vaccines-26"></rect></g><g><rect x="100.78181818181817" y="88.29346153846154" width="2" height="11.706538461538457" id="tests-vaccines-27"></rect></g><g><rect x="97.21818181818183" y="77.43346153846153" width="2" height="22.56653846153847" id="tests-vaccines-28"></rect></g><g><rect x="93.65454545454546" y="51.7926923076923" width="2" height="48.2073076923077" id="tests-vaccines-29"></rect></g><g><rect x="90.09090909090911" y="61.496153846153845" width="2" height="38.503846153846155" id="tests-vaccines-30"></rect></g><g><rect x="86.52727272727273" y="61.99153846153847" width="2" height="38.00846153846153" id="tests-vaccines-31"></rect></g><g><rect x="82.96363636363637" y="59.57538461538461" width="2" height="40.42461538461539" id="tests-vaccines-32"></rect></g><g><rect x="79.4" y="59.00692307692308" width="2" height="40.99307692307692" id="tests-vaccines-33"></rect></g><g><rect x="75.83636363636364" y="86.34846153846154" width="2" height="13.651538461538465" id="tests-vaccines-34"></rect></g><g><rect x="72.27272727272727" y="74.97500000000001" width="2" height="25.02499999999999" id="tests-vaccines-35"></rect></g><g><rect x="68.70909090909092" y="45.32961538461539" width="2" height="54.67038461538461" id="tests-vaccines-36"></rect></g><g><rect x="65.14545454545454" y="55.24923076923076" width="2" height="44.75076923076924" id="tests-vaccines-37"></rect></g><g><rect x="61.58181818181818" y="58.24307692307693" width="2" height="41.75692307692307" id="tests-vaccines-38"></rect></g><g><rect x="58.018181818181816" y="57.25038461538461" width="2" height="42.74961538461539" id="tests-vaccines-39"></rect></g><g><rect x="54.454545454545446" y="57.45884615384615" width="2" height="42.54115384615385" id="tests-vaccines-40"></rect></g><g><rect x="50.89090909090908" y="85.31346153846154" width="2" height="14.686538461538461" id="tests-vaccines-41"></rect></g><g><rect x="47.32727272727273" y="73.94807692307693" width="2" height="26.051923076923075" id="tests-vaccines-42"></rect></g><g><rect x="43.76363636363636" y="44.315000000000005" width="2" height="55.684999999999995" id="tests-vaccines-43"></rect></g><g><rect x="40.199999999999996" y="49.35615384615385" width="2" height="50.64384615384615" id="tests-vaccines-44"></rect></g><g><rect x="36.636363636363626" y="50.44307692307692" width="2" height="49.55692307692308" id="tests-vaccines-45"></rect></g><g><rect x="33.072727272727285" y="50.26384615384616" width="2" height="49.73615384615384" id="tests-vaccines-46"></rect></g><g><rect x="29.509090909090922" y="54.35038461538462" width="2" height="45.64961538461538" id="tests-vaccines-47"></rect></g><g><rect x="25.945454545454556" y="84.86461538461538" width="2" height="15.135384615384623" id="tests-vaccines-48"></rect></g><g><rect x="22.38181818181819" y="72.7823076923077" width="2" height="27.217692307692303" id="tests-vaccines-49"></rect></g><g><rect x="18.818181818181824" y="58.37576923076924" width="2" height="41.62423076923076" id="tests-vaccines-50"></rect></g><g><rect x="15.254545454545461" y="72.33307692307692" width="2" height="27.666923076923084" id="tests-vaccines-51"></rect></g><g><rect x="11.690909090909095" y="72.27461538461539" width="2" height="27.725384615384613" id="tests-vaccines-52"></rect></g><g><rect x="8.12727272727273" y="71.43076923076923" width="2" height="28.56923076923077" id="tests-vaccines-53"></rect></g><g><rect x="4.563636363636365" y="69.15461538461538" width="2" height="30.845384615384617" id="tests-vaccines-54"></rect></g><g><rect x="1" y="87.38384615384615" width="2" height="12.61615384615385" id="tests-vaccines-55"></rect></g></g><g class="fg-line tests-vaccines" fill="none" stroke="#92c5de" stroke-width="2" stroke-linecap="round"><path d="M198,29.38219780219781L194.43636363636364,30.370329670329667L190.87272727272727,31.054340659340664L187.30909090909088,31.95236263736264L183.74545454545455,33.70840659340659L180.1818181818182,35.08763736263736L176.61818181818182,36.20521978021978L173.05454545454546,37.01203296703297L169.49090909090907,38.195714285714274L165.92727272727274,39.292417582417585L162.36363636363637,39.94939560439561L158.8,40.18659340659341L155.23636363636365,40.575384615384614L151.6727272727273,41.24049450549451L148.1090909090909,41.40912087912088L144.54545454545453,41.95362637362637L140.9818181818182,44.949340659340656L137.41818181818184,49.590714285714284L133.85454545454544,54.45994505494506L130.29090909090908,59.04384615384615L126.72727272727273,62.519065934065935L123.16363636363636,63.437032967032955L119.6,65.26642857142858L116.03636363636363,67.24923076923078L112.47272727272728,67.00796703296703L108.90909090909089,66.62879120879121L105.34545454545456,66.07368131868132L101.78181818181817,65.65565934065934L98.21818181818183,65.3778021978022L94.65454545454546,65.0265934065934L91.09090909090911,64.1032967032967L87.52727272727273,63.21087912087913L83.96363636363637,62.67538461538462L80.4,62.34324175824175L76.83636363636364,62.122087912087906L73.27272727272727,61.974230769230765L69.70909090909092,61.82752747252748L66.14545454545454,61.682582417582424L62.58181818181818,60.84071428571429L59.018181818181816,59.72642857142858L55.454545454545446,58.72835164835165L51.89090909090908,58.28428571428572L48.32727272727273,58.22016483516484L44.76363636363636,58.053626373626365L41.199999999999996,60.06230769230769L37.636363636363626,63.34472527472528L34.072727272727285,66.46351648351649L30.509090909090922,69.48736263736264L26.945454545454556,71.60225274725275L23.38181818181819,71.96214285714287L19.818181818181824,72.7165934065934L16.25454545454546,73.36890109890109L12.690909090909095,72.78467032967033L9.12727272727273,72.3462087912088L5.563636363636365,71.9867032967033L2,71.74252747252747"></path></g></svg>