<svg about="DATA_PUBLISHED_DATE:2021-10-28,RENDER_DATE:2021-10-28" xmlns="http://www.w3.org/2000/svg" viewBox="0,0,200,100"><g transform="translate(0,0)"></g><g class="fg-bars cases-ep" fill="#00183f" stroke="none"><g><rect x="197" y="60.91428571428572" width="2" height="39.08571428571428" id="cases-ep-0"></rect></g><g><rect x="193.43636363636364" y="55.364285714285714" width="2" height="44.635714285714286" id="cases-ep-1"></rect></g><g><rect x="189.87272727272727" y="78.70714285714286" width="2" height="21.292857142857144" id="cases-ep-2"></rect></g><g><rect x="186.30909090909088" y="76.82857142857142" width="2" height="23.171428571428578" id="cases-ep-3"></rect></g><g><rect x="182.74545454545455" y="64.34285714285714" width="2" height="35.65714285714286" id="cases-ep-4"></rect></g><g><rect x="179.1818181818182" y="63.85000000000001" width="2" height="36.14999999999999" id="cases-ep-5"></rect></g><g><rect x="175.61818181818182" y="61.035714285714285" width="2" height="38.964285714285715" id="cases-ep-6"></rect></g><g><rect x="172.05454545454546" y="59.650000000000006" width="2" height="40.349999999999994" id="cases-ep-7"></rect></g><g><rect x="168.49090909090907" y="59.85" width="2" height="40.15" id="cases-ep-8"></rect></g><g><rect x="164.92727272727274" y="77.93571428571428" width="2" height="22.064285714285717" id="cases-ep-9"></rect></g><g><rect x="161.36363636363637" y="75.55714285714285" width="2" height="24.44285714285715" id="cases-ep-10"></rect></g><g><rect x="157.8" y="63.70714285714285" width="2" height="36.29285714285715" id="cases-ep-11"></rect></g><g><rect x="154.23636363636365" y="62.364285714285714" width="2" height="37.635714285714286" id="cases-ep-12"></rect></g><g><rect x="150.6727272727273" y="57.64285714285714" width="2" height="42.35714285714286" id="cases-ep-13"></rect></g><g><rect x="147.1090909090909" y="56.27142857142857" width="2" height="43.72857142857143" id="cases-ep-14"></rect></g><g><rect x="143.54545454545453" y="52.31428571428572" width="2" height="47.68571428571428" id="cases-ep-15"></rect></g><g><rect x="139.9818181818182" y="76.70714285714286" width="2" height="23.292857142857144" id="cases-ep-16"></rect></g><g><rect x="136.41818181818184" y="74.58571428571427" width="2" height="25.414285714285725" id="cases-ep-17"></rect></g><g><rect x="132.85454545454544" y="60.199999999999996" width="2" height="39.800000000000004" id="cases-ep-18"></rect></g><g><rect x="129.29090909090908" y="59.32142857142857" width="2" height="40.67857142857143" id="cases-ep-19"></rect></g><g><rect x="125.72727272727273" y="56.32857142857143" width="2" height="43.67142857142857" id="cases-ep-20"></rect></g><g><rect x="122.16363636363636" y="52.51428571428571" width="2" height="47.48571428571429" id="cases-ep-21"></rect></g><g><rect x="118.6" y="46.278571428571425" width="2" height="53.721428571428575" id="cases-ep-22"></rect></g><g><rect x="115.03636363636363" y="73.70714285714286" width="2" height="26.292857142857144" id="cases-ep-23"></rect></g><g><rect x="111.47272727272728" y="70.27857142857144" width="2" height="29.72142857142856" id="cases-ep-24"></rect></g><g><rect x="107.90909090909089" y="56.45714285714285" width="2" height="43.54285714285715" id="cases-ep-25"></rect></g><g><rect x="104.34545454545456" y="54.128571428571426" width="2" height="45.871428571428574" id="cases-ep-26"></rect></g><g><rect x="100.78181818181817" y="47.650000000000006" width="2" height="52.349999999999994" id="cases-ep-27"></rect></g><g><rect x="97.21818181818183" y="46.85" width="2" height="53.15" id="cases-ep-28"></rect></g><g><rect x="93.65454545454546" y="37.949999999999996" width="2" height="62.050000000000004" id="cases-ep-29"></rect></g><g><rect x="90.09090909090911" y="70.71428571428571" width="2" height="29.285714285714292" id="cases-ep-30"></rect></g><g><rect x="86.52727272727273" y="65.35" width="2" height="34.650000000000006" id="cases-ep-31"></rect></g><g><rect x="82.96363636363637" y="48.285714285714285" width="2" height="51.714285714285715" id="cases-ep-32"></rect></g><g><rect x="79.4" y="44.05" width="2" height="55.95" id="cases-ep-33"></rect></g><g><rect x="75.83636363636364" y="37.357142857142854" width="2" height="62.642857142857146" id="cases-ep-34"></rect></g><g><rect x="72.27272727272727" y="33.278571428571425" width="2" height="66.72142857142858" id="cases-ep-35"></rect></g><g><rect x="68.70909090909092" y="26.335714285714285" width="2" height="73.66428571428571" id="cases-ep-36"></rect></g><g><rect x="65.14545454545454" y="62.378571428571426" width="2" height="37.621428571428574" id="cases-ep-37"></rect></g><g><rect x="61.58181818181818" y="55.89999999999999" width="2" height="44.10000000000001" id="cases-ep-38"></rect></g><g><rect x="58.018181818181816" y="33.99285714285715" width="2" height="66.00714285714285" id="cases-ep-39"></rect></g><g><rect x="54.454545454545446" y="27.86428571428572" width="2" height="72.13571428571427" id="cases-ep-40"></rect></g><g><rect x="50.89090909090908" y="19.83571428571429" width="2" height="80.16428571428571" id="cases-ep-41"></rect></g><g><rect x="47.32727272727273" y="12.257142857142856" width="2" height="87.74285714285715" id="cases-ep-42"></rect></g><g><rect x="43.76363636363636" y="53.035714285714285" width="2" height="46.964285714285715" id="cases-ep-43"></rect></g><g><rect x="40.199999999999996" y="62.085714285714275" width="2" height="37.914285714285725" id="cases-ep-44"></rect></g><g><rect x="36.636363636363626" y="52.35000000000001" width="2" height="47.64999999999999" id="cases-ep-45"></rect></g><g><rect x="33.072727272727285" y="29.57142857142857" width="2" height="70.42857142857143" id="cases-ep-46"></rect></g><g><rect x="29.509090909090922" y="22.42142857142857" width="2" height="77.57857142857142" id="cases-ep-47"></rect></g><g><rect x="25.945454545454556" y="9.12857142857143" width="2" height="90.87142857142857" id="cases-ep-48"></rect></g><g><rect x="22.38181818181819" y="13.042857142857144" width="2" height="86.95714285714286" id="cases-ep-49"></rect></g><g><rect x="18.818181818181824" y="6.035714285714288" width="2" height="93.96428571428571" id="cases-ep-50"></rect></g><g><rect x="15.254545454545461" y="53.38571428571428" width="2" height="46.61428571428572" id="cases-ep-51"></rect></g><g><rect x="11.690909090909095" y="44.77142857142857" width="2" height="55.22857142857143" id="cases-ep-52"></rect></g><g><rect x="8.12727272727273" y="20.185714285714283" width="2" height="79.81428571428572" id="cases-ep-53"></rect></g><g><rect x="4.563636363636365" y="11.835714285714282" width="2" height="88.16428571428571" id="cases-ep-54"></rect></g><g><rect x="1" y="3.4642857142857197" width="2" height="96.53571428571428" id="cases-ep-55"></rect></g></g><g class="fg-line cases-ep" fill="none" stroke="#92c5de" stroke-width="2" stroke-linecap="round"><path d="M198,65.86326530612246L194.43636363636364,65.6826530612245L190.87272727272727,66.32346938775511L187.30909090909088,66.21326530612245L183.74545454545455,66.03163265306122L180.1818181818182,65.94081632653061L176.61818181818182,65.72857142857143L173.05454545454546,65.24387755102042L169.49090909090907,64.76122448979591L165.92727272727274,63.68469387755103L162.36363636363637,63.50918367346938L158.8,63.37040816326531L155.23636363636365,62.869387755102046L151.6727272727273,62.43469387755103L148.1090909090909,62.246938775510195L144.54545454545453,61.71020408163266L140.9818181818182,60.847959183673474L137.41818181818184,60.419387755102036L133.85454545454544,59.80408163265306L130.29090909090908,59.269387755102045L126.72727272727273,58.52755102040816L123.16363636363636,57.287755102040826L119.6,56.47857142857142L116.03636363636363,55.28877551020408L112.47272727272728,54.861224489795916L108.90909090909089,54.15714285714286L105.34545454545456,52.98979591836734L101.78181818181817,51.550000000000004L98.21818181818183,50.07959183673469L94.65454545454546,48.14081632653061L91.09090909090911,46.481632653061226L87.52727272727273,45.29081632653062L83.96363636363637,43.94081632653061L80.4,41.898979591836735L76.83636363636364,39.586734693877546L73.27272727272727,37.083673469387755L69.70909090909092,34.08061224489796L66.14545454545454,37.89489795918367L62.58181818181818,37.85306122448979L59.018181818181816,37.34591836734693L55.454545454545446,36.71428571428571L51.89090909090908,35.93673469387755L48.32727272727273,34.40714285714286L44.76363636363636,34.51938775510205L41.199999999999996,27.805102040816333L37.636363636363626,26.562244897959186L34.072727272727285,25.479591836734695L30.509090909090922,24.13877551020408L26.945454545454556,22.6265306122449L23.38181818181819,21.817346938775508L19.818181818181824,20.020408163265312L16.25454545454546,17.931632653061214L12.690909090909095,16.968367346938784L9.12727272727273,15.856122448979592L5.563636363636365,13.66122448979592L2,12.15408163265307"></path></g></svg>