<svg meta="{&quot;DATA_PUBLISHED_DATE&quot;:&quot;2022-05-03&quot;,&quot;RENDER_DATE&quot;:&quot;2022-05-03&quot;,&quot;FIRST_DATE&quot;:&quot;2022-02-28&quot;,&quot;LAST_DATE&quot;:&quot;2022-04-24&quot;}" xmlns="http://www.w3.org/2000/svg" viewBox="0,0,200,100"><g transform="translate(0,0)"></g><g class="fg-bars cases-ep" fill="#00183f" stroke="none"><g><rect x="197" y="52.01538461538462" width="2" height="47.98461538461538" id="cases-ep-0"></rect></g><g><rect x="193.43636363636364" y="49.69230769230769" width="2" height="50.30769230769231" id="cases-ep-1"></rect></g><g><rect x="189.87272727272727" y="25.323076923076925" width="2" height="74.67692307692307" id="cases-ep-2"></rect></g><g><rect x="186.30909090909088" y="19.753846153846155" width="2" height="80.24615384615385" id="cases-ep-3"></rect></g><g><rect x="182.74545454545455" y="16.384615384615387" width="2" height="83.61538461538461" id="cases-ep-4"></rect></g><g><rect x="179.1818181818182" y="12.50769230769231" width="2" height="87.49230769230769" id="cases-ep-5"></rect></g><g><rect x="175.61818181818182" y="6.092307692307697" width="2" height="93.9076923076923" id="cases-ep-6"></rect></g><g><rect x="172.05454545454546" y="65.75384615384615" width="2" height="34.246153846153845" id="cases-ep-7"></rect></g><g><rect x="168.49090909090907" y="60.107692307692304" width="2" height="39.892307692307696" id="cases-ep-8"></rect></g><g><rect x="164.92727272727274" y="45.33846153846154" width="2" height="54.66153846153846" id="cases-ep-9"></rect></g><g><rect x="161.36363636363637" y="43.87692307692308" width="2" height="56.12307692307692" id="cases-ep-10"></rect></g><g><rect x="157.8" y="39.52307692307693" width="2" height="60.47692307692307" id="cases-ep-11"></rect></g><g><rect x="154.23636363636365" y="37.8" width="2" height="62.2" id="cases-ep-12"></rect></g><g><rect x="150.6727272727273" y="33.92307692307692" width="2" height="66.07692307692308" id="cases-ep-13"></rect></g><g><rect x="147.1090909090909" y="67.10769230769232" width="2" height="32.89230769230768" id="cases-ep-14"></rect></g><g><rect x="143.54545454545453" y="69.10769230769232" width="2" height="30.892307692307682" id="cases-ep-15"></rect></g><g><rect x="139.9818181818182" y="55.72307692307692" width="2" height="44.27692307692308" id="cases-ep-16"></rect></g><g><rect x="136.41818181818184" y="53.76923076923077" width="2" height="46.23076923076923" id="cases-ep-17"></rect></g><g><rect x="132.85454545454544" y="48.50769230769231" width="2" height="51.49230769230769" id="cases-ep-18"></rect></g><g><rect x="129.29090909090908" y="49.46153846153846" width="2" height="50.53846153846154" id="cases-ep-19"></rect></g><g><rect x="125.72727272727273" y="42.6" width="2" height="57.4" id="cases-ep-20"></rect></g><g><rect x="122.16363636363636" y="73.93846153846152" width="2" height="26.061538461538476" id="cases-ep-21"></rect></g><g><rect x="118.6" y="74.83076923076923" width="2" height="25.169230769230765" id="cases-ep-22"></rect></g><g><rect x="115.03636363636363" y="60.55384615384616" width="2" height="39.44615384615384" id="cases-ep-23"></rect></g><g><rect x="111.47272727272728" y="63.030769230769224" width="2" height="36.969230769230776" id="cases-ep-24"></rect></g><g><rect x="107.90909090909089" y="59.87692307692307" width="2" height="40.12307692307693" id="cases-ep-25"></rect></g><g><rect x="104.34545454545456" y="58.323076923076925" width="2" height="41.676923076923075" id="cases-ep-26"></rect></g><g><rect x="100.78181818181817" y="56.30769230769231" width="2" height="43.69230769230769" id="cases-ep-27"></rect></g><g><rect x="97.21818181818183" y="76.64615384615385" width="2" height="23.35384615384615" id="cases-ep-28"></rect></g><g><rect x="93.65454545454546" y="77.84615384615384" width="2" height="22.15384615384616" id="cases-ep-29"></rect></g><g><rect x="90.09090909090911" y="69.52307692307691" width="2" height="30.476923076923086" id="cases-ep-30"></rect></g><g><rect x="86.52727272727273" y="64.61538461538461" width="2" height="35.38461538461539" id="cases-ep-31"></rect></g><g><rect x="82.96363636363637" y="65.46153846153845" width="2" height="34.53846153846155" id="cases-ep-32"></rect></g><g><rect x="79.4" y="53.26153846153846" width="2" height="46.73846153846154" id="cases-ep-33"></rect></g><g><rect x="75.83636363636364" y="58.215384615384615" width="2" height="41.784615384615385" id="cases-ep-34"></rect></g><g><rect x="72.27272727272727" y="80.16923076923077" width="2" height="19.830769230769235" id="cases-ep-35"></rect></g><g><rect x="68.70909090909092" y="80.89230769230768" width="2" height="19.107692307692318" id="cases-ep-36"></rect></g><g><rect x="65.14545454545454" y="69.6" width="2" height="30.400000000000006" id="cases-ep-37"></rect></g><g><rect x="61.58181818181818" y="64.70769230769231" width="2" height="35.29230769230769" id="cases-ep-38"></rect></g><g><rect x="58.018181818181816" y="62.41538461538462" width="2" height="37.58461538461538" id="cases-ep-39"></rect></g><g><rect x="54.454545454545446" y="59.87692307692307" width="2" height="40.12307692307693" id="cases-ep-40"></rect></g><g><rect x="50.89090909090908" y="55.72307692307692" width="2" height="44.27692307692308" id="cases-ep-41"></rect></g><g><rect x="47.32727272727273" y="80.52307692307691" width="2" height="19.476923076923086" id="cases-ep-42"></rect></g><g><rect x="43.76363636363636" y="77.26153846153846" width="2" height="22.738461538461536" id="cases-ep-43"></rect></g><g><rect x="40.199999999999996" y="64.75384615384615" width="2" height="35.246153846153845" id="cases-ep-44"></rect></g><g><rect x="36.636363636363626" y="61.16923076923078" width="2" height="38.83076923076922" id="cases-ep-45"></rect></g><g><rect x="33.072727272727285" y="53.87692307692308" width="2" height="46.12307692307692" id="cases-ep-46"></rect></g><g><rect x="29.509090909090922" y="49.276923076923076" width="2" height="50.723076923076924" id="cases-ep-47"></rect></g><g><rect x="25.945454545454556" y="40.52307692307693" width="2" height="59.47692307692307" id="cases-ep-48"></rect></g><g><rect x="22.38181818181819" y="72.39999999999999" width="2" height="27.60000000000001" id="cases-ep-49"></rect></g><g><rect x="18.818181818181824" y="68.46153846153847" width="2" height="31.538461538461533" id="cases-ep-50"></rect></g><g><rect x="15.254545454545461" y="52.292307692307695" width="2" height="47.707692307692305" id="cases-ep-51"></rect></g><g><rect x="11.690909090909095" y="45.215384615384615" width="2" height="54.784615384615385" id="cases-ep-52"></rect></g><g><rect x="8.12727272727273" y="39.15384615384615" width="2" height="60.84615384615385" id="cases-ep-53"></rect></g><g><rect x="4.563636363636365" y="28.446153846153845" width="2" height="71.55384615384615" id="cases-ep-54"></rect></g><g><rect x="1" y="19.892307692307686" width="2" height="80.10769230769232" id="cases-ep-55"></rect></g></g><g class="fg-line cases-ep" fill="none" stroke="#92c5de" stroke-width="2" stroke-linecap="round"><path d="M198,25.967032967032967L194.43636363636364,27.92967032967033L190.87272727272727,29.41758241758241L187.30909090909088,32.27692307692308L183.74545454545455,35.723076923076924L180.1818181818182,39.028571428571425L176.61818181818182,42.64175824175824L173.05454545454546,46.617582417582426L169.49090909090907,46.81098901098901L165.92727272727274,48.09670329670329L162.36363636363637,49.58021978021978L158.8,50.99340659340659L155.23636363636365,52.276923076923076L151.6727272727273,53.942857142857136L148.1090909090909,55.18241758241758L144.54545454545453,56.15824175824176L140.9818181818182,56.97582417582419L137.41818181818184,57.66593406593407L133.85454545454544,58.98901098901099L130.29090909090908,60.613186813186815L126.72727272727273,61.87912087912088L123.16363636363636,63.83736263736264L119.6,64.22417582417582L116.03636363636363,64.65494505494505L112.47272727272728,65.93626373626374L108.90909090909089,66.16263736263737L105.34545454545456,66.96043956043955L101.78181818181817,66.23736263736264L98.21818181818183,66.50989010989011L94.65454545454546,67.0131868131868L91.09090909090911,67.44835164835166L87.52727272727273,67.45934065934065L83.96363636363637,67.47252747252747L80.4,67.03736263736263L76.83636363636364,67.98241758241758L73.27272727272727,67.62637362637362L69.70909090909092,67.67692307692307L66.14545454545454,67.15824175824176L62.58181818181818,66.46593406593406L59.018181818181816,65.96043956043955L55.454545454545446,64.74065934065935L51.89090909090908,63.22637362637362L48.32727272727273,61.05494505494505L44.76363636363636,59.8945054945055L41.199999999999996,58.637362637362635L37.636363636363626,56.85714285714285L34.072727272727285,54.57802197802197L30.509090909090922,52.47472527472527L26.945454545454556,49.49890109890111L23.38181818181819,46.551648351648346L19.818181818181824,45.29230769230769L16.25454545454546,43.8989010989011L12.690909090909095,40.221978021978025L9.12727272727273,36.75384615384616L5.563636363636365,33.189010989010995L2,27.72747252747253"></path></g></svg>