<svg meta="{&quot;DATA_PUBLISHED_DATE&quot;:&quot;2022-06-28&quot;,&quot;RENDER_DATE&quot;:&quot;2022-06-28&quot;,&quot;FIRST_DATE&quot;:&quot;2022-04-25&quot;,&quot;LAST_DATE&quot;:&quot;2022-06-19&quot;}" xmlns="http://www.w3.org/2000/svg" viewBox="0,0,200,100"><g transform="translate(0,0)"></g><g class="fg-bars cases-ep" fill="#00183f" stroke="none"><g><rect x="197" y="65.19166666666666" width="2" height="34.80833333333334" id="cases-ep-0"></rect></g><g><rect x="193.43636363636364" y="59.92916666666667" width="2" height="40.07083333333333" id="cases-ep-1"></rect></g><g><rect x="189.87272727272727" y="40.608333333333334" width="2" height="59.391666666666666" id="cases-ep-2"></rect></g><g><rect x="186.30909090909088" y="37.9" width="2" height="62.1" id="cases-ep-3"></rect></g><g><rect x="182.74545454545455" y="33.10833333333333" width="2" height="66.89166666666668" id="cases-ep-4"></rect></g><g><rect x="179.1818181818182" y="30.462500000000002" width="2" height="69.5375" id="cases-ep-5"></rect></g><g><rect x="175.61818181818182" y="23.729166666666668" width="2" height="76.27083333333333" id="cases-ep-6"></rect></g><g><rect x="172.05454545454546" y="64.19166666666666" width="2" height="35.80833333333334" id="cases-ep-7"></rect></g><g><rect x="168.49090909090907" y="59.99166666666667" width="2" height="40.00833333333333" id="cases-ep-8"></rect></g><g><rect x="164.92727272727274" y="36.58749999999999" width="2" height="63.41250000000001" id="cases-ep-9"></rect></g><g><rect x="161.36363636363637" y="34.7875" width="2" height="65.2125" id="cases-ep-10"></rect></g><g><rect x="157.8" y="27.0625" width="2" height="72.9375" id="cases-ep-11"></rect></g><g><rect x="154.23636363636365" y="22.554166666666664" width="2" height="77.44583333333334" id="cases-ep-12"></rect></g><g><rect x="150.6727272727273" y="13.775000000000004" width="2" height="86.225" id="cases-ep-13"></rect></g><g><rect x="147.1090909090909" y="60.570833333333326" width="2" height="39.429166666666674" id="cases-ep-14"></rect></g><g><rect x="143.54545454545453" y="56.3" width="2" height="43.7" id="cases-ep-15"></rect></g><g><rect x="139.9818181818182" y="32.62083333333333" width="2" height="67.37916666666666" id="cases-ep-16"></rect></g><g><rect x="136.41818181818184" y="25.649999999999995" width="2" height="74.35000000000001" id="cases-ep-17"></rect></g><g><rect x="132.85454545454544" y="14.766666666666662" width="2" height="85.23333333333333" id="cases-ep-18"></rect></g><g><rect x="129.29090909090908" y="1.1208333333333376" width="2" height="98.87916666666666" id="cases-ep-19"></rect></g><g><rect x="125.72727272727273" y="64.3375" width="2" height="35.662499999999994" id="cases-ep-20"></rect></g><g><rect x="122.16363636363636" y="67.4375" width="2" height="32.5625" id="cases-ep-21"></rect></g><g><rect x="118.6" y="63.28333333333334" width="2" height="36.71666666666666" id="cases-ep-22"></rect></g><g><rect x="115.03636363636363" y="41.15416666666667" width="2" height="58.84583333333333" id="cases-ep-23"></rect></g><g><rect x="111.47272727272728" y="35.662499999999994" width="2" height="64.3375" id="cases-ep-24"></rect></g><g><rect x="107.90909090909089" y="28.962500000000002" width="2" height="71.0375" id="cases-ep-25"></rect></g><g><rect x="104.34545454545456" y="24.679166666666664" width="2" height="75.32083333333334" id="cases-ep-26"></rect></g><g><rect x="100.78181818181817" y="19.34166666666667" width="2" height="80.65833333333333" id="cases-ep-27"></rect></g><g><rect x="97.21818181818183" y="63.92916666666666" width="2" height="36.07083333333334" id="cases-ep-28"></rect></g><g><rect x="93.65454545454546" y="62.737500000000004" width="2" height="37.262499999999996" id="cases-ep-29"></rect></g><g><rect x="90.09090909090911" y="42.15416666666667" width="2" height="57.84583333333333" id="cases-ep-30"></rect></g><g><rect x="86.52727272727273" y="39.425" width="2" height="60.575" id="cases-ep-31"></rect></g><g><rect x="82.96363636363637" y="34.69583333333334" width="2" height="65.30416666666666" id="cases-ep-32"></rect></g><g><rect x="79.4" y="32.829166666666666" width="2" height="67.17083333333333" id="cases-ep-33"></rect></g><g><rect x="75.83636363636364" y="28.125" width="2" height="71.875" id="cases-ep-34"></rect></g><g><rect x="72.27272727272727" y="67.25416666666666" width="2" height="32.74583333333334" id="cases-ep-35"></rect></g><g><rect x="68.70909090909092" y="66.71249999999999" width="2" height="33.28750000000001" id="cases-ep-36"></rect></g><g><rect x="65.14545454545454" y="52.4625" width="2" height="47.5375" id="cases-ep-37"></rect></g><g><rect x="61.58181818181818" y="52.170833333333334" width="2" height="47.829166666666666" id="cases-ep-38"></rect></g><g><rect x="58.018181818181816" y="50.34583333333333" width="2" height="49.65416666666667" id="cases-ep-39"></rect></g><g><rect x="54.454545454545446" y="50.10416666666666" width="2" height="49.89583333333334" id="cases-ep-40"></rect></g><g><rect x="50.89090909090908" y="46.62500000000001" width="2" height="53.37499999999999" id="cases-ep-41"></rect></g><g><rect x="47.32727272727273" y="74.6625" width="2" height="25.337500000000006" id="cases-ep-42"></rect></g><g><rect x="43.76363636363636" y="73.77083333333334" width="2" height="26.229166666666657" id="cases-ep-43"></rect></g><g><rect x="40.199999999999996" y="62.88333333333333" width="2" height="37.11666666666667" id="cases-ep-44"></rect></g><g><rect x="36.636363636363626" y="61.108333333333334" width="2" height="38.891666666666666" id="cases-ep-45"></rect></g><g><rect x="33.072727272727285" y="59.2375" width="2" height="40.7625" id="cases-ep-46"></rect></g><g><rect x="29.509090909090922" y="58.675" width="2" height="41.325" id="cases-ep-47"></rect></g><g><rect x="25.945454545454556" y="56.837500000000006" width="2" height="43.162499999999994" id="cases-ep-48"></rect></g><g><rect x="22.38181818181819" y="78.35416666666667" width="2" height="21.64583333333333" id="cases-ep-49"></rect></g><g><rect x="18.818181818181824" y="80.01666666666667" width="2" height="19.983333333333334" id="cases-ep-50"></rect></g><g><rect x="15.254545454545461" y="72.925" width="2" height="27.075000000000003" id="cases-ep-51"></rect></g><g><rect x="11.690909090909095" y="70.88333333333333" width="2" height="29.116666666666674" id="cases-ep-52"></rect></g><g><rect x="8.12727272727273" y="69.19166666666668" width="2" height="30.808333333333323" id="cases-ep-53"></rect></g><g><rect x="4.563636363636365" y="68.76666666666667" width="2" height="31.233333333333334" id="cases-ep-54"></rect></g><g><rect x="1" y="67.45833333333333" width="2" height="32.54166666666667" id="cases-ep-55"></rect></g></g><g class="fg-line cases-ep" fill="none" stroke="#92c5de" stroke-width="2" stroke-linecap="round"><path d="M198,41.561309523809534L194.43636363636364,41.418452380952374L190.87272727272727,41.42738095238096L187.30909090909088,40.8529761904762L183.74545454545455,40.40833333333333L180.1818181818182,39.54464285714286L176.61818181818182,38.41488095238096L173.05454545454546,36.99285714285714L169.49090909090907,36.47559523809524L165.92727272727274,35.948214285714286L162.36363636363637,35.38154761904762L158.8,34.07619047619047L155.23636363636365,32.31964285714286L151.6727272727273,29.257738095238082L148.1090909090909,36.48095238095238L144.54545454545453,37.46190476190476L140.9818181818182,38.45952380952381L137.41818181818184,39.67857142857143L133.85454545454544,41.10892857142857L130.29090909090908,43.13690476190476L126.72727272727273,46.50238095238095L123.16363636363636,40.07440476190476L119.6,39.573214285714286L116.03636363636363,39.49523809523809L112.47272727272728,39.63809523809524L108.90909090909089,40.17559523809524L105.34545454545456,40.99464285714286L101.78181818181817,42.15892857142857L98.21818181818183,43.41369047619047L94.65454545454546,43.888690476190476L91.09090909090911,44.456547619047626L87.52727272727273,45.92916666666667L83.96363636363637,47.75L80.4,49.98571428571429L76.83636363636364,52.453571428571436L73.27272727272727,55.09642857142857L69.70909090909092,56.1547619047619L66.14545454545454,57.16309523809524L62.58181818181818,58.65178571428571L59.018181818181816,59.92857142857143L55.454545454545446,61.19880952380953L51.89090909090908,62.42321428571429L48.32727272727273,63.88214285714287L44.76363636363636,64.4095238095238L41.199999999999996,65.30178571428571L37.636363636363626,66.73630952380952L34.072727272727285,68.1327380952381L30.509090909090922,69.5547619047619L26.945454545454556,70.99642857142857L23.38181818181819,72.51369047619048L19.818181818181824,73.46249999999999L16.25454545454546,74.17142857142858L12.690909090909095,75.00059523809523L9.12727272727273,75.90714285714286L5.563636363636365,76.96309523809524L2,77.93928571428572"></path></g></svg>