<svg about="DATA_PUBLISHED_DATE:2022-01-11,RENDER_DATE:2022-01-11" xmlns="http://www.w3.org/2000/svg" viewBox="0,0,200,100"><g transform="translate(0,0)"></g><g class="fg-bars death-date" fill="#00183f" stroke="none"><g><rect x="197" y="48.88888888888889" width="2" height="51.11111111111111" id="death-date-0"></rect></g><g><rect x="193.43636363636364" y="58.88888888888889" width="2" height="41.11111111111111" id="death-date-1"></rect></g><g><rect x="189.87272727272727" y="52.222222222222214" width="2" height="47.777777777777786" id="death-date-2"></rect></g><g><rect x="186.30909090909088" y="33.333333333333336" width="2" height="66.66666666666666" id="death-date-3"></rect></g><g><rect x="182.74545454545455" y="47.77777777777777" width="2" height="52.22222222222223" id="death-date-4"></rect></g><g><rect x="179.1818181818182" y="38.888888888888886" width="2" height="61.111111111111114" id="death-date-5"></rect></g><g><rect x="175.61818181818182" y="43.333333333333336" width="2" height="56.666666666666664" id="death-date-6"></rect></g><g><rect x="172.05454545454546" y="54.44444444444445" width="2" height="45.55555555555555" id="death-date-7"></rect></g><g><rect x="168.49090909090907" y="48.88888888888889" width="2" height="51.11111111111111" id="death-date-8"></rect></g><g><rect x="164.92727272727274" y="53.333333333333336" width="2" height="46.666666666666664" id="death-date-9"></rect></g><g><rect x="161.36363636363637" y="45.55555555555556" width="2" height="54.44444444444444" id="death-date-10"></rect></g><g><rect x="157.8" y="47.77777777777777" width="2" height="52.22222222222223" id="death-date-11"></rect></g><g><rect x="154.23636363636365" y="34.44444444444444" width="2" height="65.55555555555556" id="death-date-12"></rect></g><g><rect x="150.6727272727273" y="58.88888888888889" width="2" height="41.11111111111111" id="death-date-13"></rect></g><g><rect x="147.1090909090909" y="50" width="2" height="50" id="death-date-14"></rect></g><g><rect x="143.54545454545453" y="31.11111111111111" width="2" height="68.88888888888889" id="death-date-15"></rect></g><g><rect x="139.9818181818182" y="42.22222222222223" width="2" height="57.77777777777777" id="death-date-16"></rect></g><g><rect x="136.41818181818184" y="27.77777777777778" width="2" height="72.22222222222223" id="death-date-17"></rect></g><g><rect x="132.85454545454544" y="38.888888888888886" width="2" height="61.111111111111114" id="death-date-18"></rect></g><g><rect x="129.29090909090908" y="53.333333333333336" width="2" height="46.666666666666664" id="death-date-19"></rect></g><g><rect x="125.72727272727273" y="26.66666666666667" width="2" height="73.33333333333333" id="death-date-20"></rect></g><g><rect x="122.16363636363636" y="48.88888888888889" width="2" height="51.11111111111111" id="death-date-21"></rect></g><g><rect x="118.6" y="50" width="2" height="50" id="death-date-22"></rect></g><g><rect x="115.03636363636363" y="36.66666666666667" width="2" height="63.33333333333333" id="death-date-23"></rect></g><g><rect x="111.47272727272728" y="46.666666666666664" width="2" height="53.333333333333336" id="death-date-24"></rect></g><g><rect x="107.90909090909089" y="42.22222222222223" width="2" height="57.77777777777777" id="death-date-25"></rect></g><g><rect x="104.34545454545456" y="25.555555555555554" width="2" height="74.44444444444444" id="death-date-26"></rect></g><g><rect x="100.78181818181817" y="31.11111111111111" width="2" height="68.88888888888889" id="death-date-27"></rect></g><g><rect x="97.21818181818183" y="32.22222222222222" width="2" height="67.77777777777777" id="death-date-28"></rect></g><g><rect x="93.65454545454546" y="35.55555555555555" width="2" height="64.44444444444446" id="death-date-29"></rect></g><g><rect x="90.09090909090911" y="12.222222222222223" width="2" height="87.77777777777777" id="death-date-30"></rect></g><g><rect x="86.52727272727273" y="32.22222222222222" width="2" height="67.77777777777777" id="death-date-31"></rect></g><g><rect x="82.96363636363637" y="18.88888888888889" width="2" height="81.11111111111111" id="death-date-32"></rect></g><g><rect x="79.4" y="41.11111111111111" width="2" height="58.88888888888889" id="death-date-33"></rect></g><g><rect x="75.83636363636364" y="16.666666666666664" width="2" height="83.33333333333334" id="death-date-34"></rect></g><g><rect x="72.27272727272727" y="32.22222222222222" width="2" height="67.77777777777777" id="death-date-35"></rect></g><g><rect x="68.70909090909092" y="36.66666666666667" width="2" height="63.33333333333333" id="death-date-36"></rect></g><g><rect x="65.14545454545454" y="25.555555555555554" width="2" height="74.44444444444444" id="death-date-37"></rect></g><g><rect x="61.58181818181818" y="9.999999999999998" width="2" height="90" id="death-date-38"></rect></g><g><rect x="58.018181818181816" y="30.000000000000004" width="2" height="70" id="death-date-39"></rect></g><g><rect x="54.454545454545446" y="9.999999999999998" width="2" height="90" id="death-date-40"></rect></g><g><rect x="50.89090909090908" y="25.555555555555554" width="2" height="74.44444444444444" id="death-date-41"></rect></g><g><rect x="47.32727272727273" y="9.999999999999998" width="2" height="90" id="death-date-42"></rect></g><g><rect x="43.76363636363636" y="24.444444444444446" width="2" height="75.55555555555556" id="death-date-43"></rect></g><g><rect x="40.199999999999996" y="28.888888888888886" width="2" height="71.11111111111111" id="death-date-44"></rect></g><g><rect x="36.636363636363626" y="30.000000000000004" width="2" height="70" id="death-date-45"></rect></g><g><rect x="33.072727272727285" y="22.22222222222222" width="2" height="77.77777777777777" id="death-date-46"></rect></g><g><rect x="29.509090909090922" y="23.33333333333333" width="2" height="76.66666666666667" id="death-date-47"></rect></g><g><rect x="25.945454545454556" y="23.33333333333333" width="2" height="76.66666666666667" id="death-date-48"></rect></g><g><rect x="22.38181818181819" y="33.333333333333336" width="2" height="66.66666666666666" id="death-date-49"></rect></g><g><rect x="18.818181818181824" y="21.111111111111114" width="2" height="78.88888888888889" id="death-date-50"></rect></g><g><rect x="15.254545454545461" y="31.11111111111111" width="2" height="68.88888888888889" id="death-date-51"></rect></g><g><rect x="11.690909090909095" y="26.66666666666667" width="2" height="73.33333333333333" id="death-date-52"></rect></g><g><rect x="8.12727272727273" y="35.55555555555555" width="2" height="64.44444444444446" id="death-date-53"></rect></g><g><rect x="4.563636363636365" y="30.000000000000004" width="2" height="70" id="death-date-54"></rect></g><g><rect x="1" y="31.11111111111111" width="2" height="68.88888888888889" id="death-date-55"></rect></g></g><g class="fg-line death-date" fill="none" stroke="#92c5de" stroke-width="2" stroke-linecap="round"><path d="M198,46.19047619047619L194.43636363636364,46.98412698412698L190.87272727272727,45.55555555555556L187.30909090909088,45.714285714285715L183.74545454545455,47.460317460317455L180.1818181818182,47.460317460317455L176.61818181818182,46.82539682539682L173.05454545454546,49.04761904761905L169.49090909090907,48.412698412698404L165.92727272727274,45.87301587301587L162.36363636363637,44.285714285714285L158.8,41.74603174603174L155.23636363636365,40.476190476190474L151.6727272727273,43.17460317460318L148.1090909090909,38.57142857142857L144.54545454545453,38.41269841269841L140.9818181818182,41.11111111111111L137.41818181818184,40.317460317460316L133.85454545454544,43.01587301587302L130.29090909090908,43.492063492063494L126.72727272727273,39.52380952380952L123.16363636363636,40.15873015873016L119.6,37.77777777777778L116.03636363636363,35.71428571428572L112.47272727272728,32.22222222222222L108.90909090909089,30.15873015873016L105.34545454545456,26.82539682539682L101.78181818181817,29.047619047619055L98.21818181818183,26.984126984126988L94.65454545454546,26.984126984126988L91.09090909090911,27.142857142857146L87.52727272727273,29.047619047619055L83.96363636363637,25.87301587301588L80.4,27.46031746031745L76.83636363636364,23.015873015873012L73.27272727272727,24.28571428571429L69.70909090909092,21.111111111111114L66.14545454545454,19.365079365079364L62.58181818181818,19.84126984126985L59.018181818181816,22.698412698412696L55.454545454545446,21.58730158730159L51.89090909090908,23.492063492063487L48.32727272727273,23.17460317460318L44.76363636363636,26.507936507936513L41.199999999999996,26.03174603174604L37.636363636363626,26.349206349206344L34.072727272727285,25.87301587301588L30.509090909090922,27.77777777777778L26.945454545454556,28.730158730158738L23.38181818181819,29.841269841269835L19.818181818181824,29.52380952380952L16.25454545454546,30.15873015873016L12.690909090909095,27.936507936507937L9.12727272727273,22.22222222222222L5.563636363636365,21.269841269841262L2,21.269841269841262"></path></g></svg>