<svg meta="{&quot;DATA_PUBLISHED_DATE&quot;:&quot;2023-02-09&quot;,&quot;RENDER_DATE&quot;:&quot;2023-02-16&quot;,&quot;FIRST_DATE&quot;:&quot;2022-12-07&quot;,&quot;LAST_DATE&quot;:&quot;2023-01-31&quot;}" xmlns="http://www.w3.org/2000/svg" viewBox="0,0,200,100"><g transform="translate(0,0)"></g><g class="fg-bars cases-ep" fill="#00183f" stroke="none"><g><rect x="197" y="70.74545454545455" width="2" height="29.25454545454545" id="cases-ep-0"></rect></g><g><rect x="193.43636363636364" y="68.89090909090909" width="2" height="31.10909090909091" id="cases-ep-1"></rect></g><g><rect x="189.87272727272727" y="84.78181818181818" width="2" height="15.218181818181819" id="cases-ep-2"></rect></g><g><rect x="186.30909090909088" y="82.86363636363636" width="2" height="17.13636363636364" id="cases-ep-3"></rect></g><g><rect x="182.74545454545455" y="75.54545454545455" width="2" height="24.454545454545453" id="cases-ep-4"></rect></g><g><rect x="179.1818181818182" y="76.03636363636363" width="2" height="23.96363636363637" id="cases-ep-5"></rect></g><g><rect x="175.61818181818182" y="73.42727272727274" width="2" height="26.572727272727263" id="cases-ep-6"></rect></g><g><rect x="172.05454545454546" y="72.22727272727273" width="2" height="27.772727272727266" id="cases-ep-7"></rect></g><g><rect x="168.49090909090907" y="71.6" width="2" height="28.400000000000006" id="cases-ep-8"></rect></g><g><rect x="164.92727272727274" y="84.67272727272727" width="2" height="15.327272727272728" id="cases-ep-9"></rect></g><g><rect x="161.36363636363637" y="84.51818181818182" width="2" height="15.481818181818184" id="cases-ep-10"></rect></g><g><rect x="157.8" y="77.46363636363635" width="2" height="22.536363636363646" id="cases-ep-11"></rect></g><g><rect x="154.23636363636365" y="75.62727272727273" width="2" height="24.372727272727275" id="cases-ep-12"></rect></g><g><rect x="150.6727272727273" y="73.2909090909091" width="2" height="26.709090909090904" id="cases-ep-13"></rect></g><g><rect x="147.1090909090909" y="68.68181818181817" width="2" height="31.318181818181827" id="cases-ep-14"></rect></g><g><rect x="143.54545454545453" y="75.71818181818182" width="2" height="24.28181818181818" id="cases-ep-15"></rect></g><g><rect x="139.9818181818182" y="83.47272727272727" width="2" height="16.52727272727273" id="cases-ep-16"></rect></g><g><rect x="136.41818181818184" y="82.45454545454545" width="2" height="17.545454545454547" id="cases-ep-17"></rect></g><g><rect x="132.85454545454544" y="72.88181818181818" width="2" height="27.118181818181824" id="cases-ep-18"></rect></g><g><rect x="129.29090909090908" y="70.85454545454546" width="2" height="29.14545454545454" id="cases-ep-19"></rect></g><g><rect x="125.72727272727273" y="66.61818181818182" width="2" height="33.381818181818176" id="cases-ep-20"></rect></g><g><rect x="122.16363636363636" y="65.97272727272727" width="2" height="34.02727272727273" id="cases-ep-21"></rect></g><g><rect x="118.6" y="56.98181818181818" width="2" height="43.01818181818182" id="cases-ep-22"></rect></g><g><rect x="115.03636363636363" y="75.80909090909091" width="2" height="24.190909090909088" id="cases-ep-23"></rect></g><g><rect x="111.47272727272728" y="71.48181818181818" width="2" height="28.518181818181816" id="cases-ep-24"></rect></g><g><rect x="107.90909090909089" y="55.89999999999999" width="2" height="44.10000000000001" id="cases-ep-25"></rect></g><g><rect x="104.34545454545456" y="55.49090909090909" width="2" height="44.50909090909091" id="cases-ep-26"></rect></g><g><rect x="100.78181818181817" y="47.74545454545455" width="2" height="52.25454545454545" id="cases-ep-27"></rect></g><g><rect x="97.21818181818183" y="33.3" width="2" height="66.7" id="cases-ep-28"></rect></g><g><rect x="93.65454545454546" y="49.79090909090908" width="2" height="50.20909090909092" id="cases-ep-29"></rect></g><g><rect x="90.09090909090911" y="75.17272727272727" width="2" height="24.827272727272728" id="cases-ep-30"></rect></g><g><rect x="86.52727272727273" y="65.65454545454546" width="2" height="34.345454545454544" id="cases-ep-31"></rect></g><g><rect x="82.96363636363637" y="39.090909090909086" width="2" height="60.909090909090914" id="cases-ep-32"></rect></g><g><rect x="79.4" y="31.027272727272724" width="2" height="68.97272727272727" id="cases-ep-33"></rect></g><g><rect x="75.83636363636364" y="21.527272727272727" width="2" height="78.47272727272727" id="cases-ep-34"></rect></g><g><rect x="72.27272727272727" y="11.281818181818181" width="2" height="88.71818181818182" id="cases-ep-35"></rect></g><g><rect x="68.70909090909092" y="34.83636363636363" width="2" height="65.16363636363637" id="cases-ep-36"></rect></g><g><rect x="65.14545454545454" y="74.34545454545454" width="2" height="25.654545454545456" id="cases-ep-37"></rect></g><g><rect x="61.58181818181818" y="63.93636363636364" width="2" height="36.06363636363636" id="cases-ep-38"></rect></g><g><rect x="58.018181818181816" y="38.35454545454545" width="2" height="61.64545454545455" id="cases-ep-39"></rect></g><g><rect x="54.454545454545446" y="31.19090909090909" width="2" height="68.80909090909091" id="cases-ep-40"></rect></g><g><rect x="50.89090909090908" y="27.409090909090907" width="2" height="72.5909090909091" id="cases-ep-41"></rect></g><g><rect x="47.32727272727273" y="21.763636363636362" width="2" height="78.23636363636363" id="cases-ep-42"></rect></g><g><rect x="43.76363636363636" y="14.81818181818182" width="2" height="85.18181818181819" id="cases-ep-43"></rect></g><g><rect x="40.199999999999996" y="59.48181818181818" width="2" height="40.51818181818182" id="cases-ep-44"></rect></g><g><rect x="36.636363636363626" y="54.96363636363637" width="2" height="45.03636363636363" id="cases-ep-45"></rect></g><g><rect x="33.072727272727285" y="36.95454545454545" width="2" height="63.04545454545455" id="cases-ep-46"></rect></g><g><rect x="29.509090909090922" y="31.490909090909092" width="2" height="68.5090909090909" id="cases-ep-47"></rect></g><g><rect x="25.945454545454556" y="25.5" width="2" height="74.5" id="cases-ep-48"></rect></g><g><rect x="22.38181818181819" y="19.172727272727276" width="2" height="80.82727272727273" id="cases-ep-49"></rect></g><g><rect x="18.818181818181824" y="6.06363636363636" width="2" height="93.93636363636364" id="cases-ep-50"></rect></g><g><rect x="15.254545454545461" y="56.10909090909091" width="2" height="43.89090909090909" id="cases-ep-51"></rect></g><g><rect x="11.690909090909095" y="50.67272727272727" width="2" height="49.32727272727273" id="cases-ep-52"></rect></g><g><rect x="8.12727272727273" y="27.363636363636367" width="2" height="72.63636363636363" id="cases-ep-53"></rect></g><g><rect x="4.563636363636365" y="23.390909090909094" width="2" height="76.60909090909091" id="cases-ep-54"></rect></g><g><rect x="1" y="17.19090909090909" width="2" height="82.80909090909091" id="cases-ep-55"></rect></g></g><g class="fg-line cases-ep" fill="none" stroke="#92c5de" stroke-width="2" stroke-linecap="round"><path d="M198,76.04155844155844L194.43636363636364,76.25324675324676L190.87272727272727,76.64025974025974L187.30909090909088,76.62467532467532L183.74545454545455,76.86103896103896L180.1818181818182,77.13506493506493L176.61818181818182,77.07662337662337L173.05454545454546,77.05714285714286L169.49090909090907,76.55064935064935L165.92727272727274,77.13896103896104L162.36363636363637,76.96753246753248L158.8,76.67272727272727L155.23636363636365,76.01818181818182L151.6727272727273,75.33636363636363L148.1090909090909,74.38311688311688L144.54545454545453,73.99610389610389L140.9818181818182,71.31948051948052L137.41818181818184,70.22467532467532L133.85454545454544,68.65714285714286L130.29090909090908,66.23116883116883L126.72727272727273,64.03636363636363L123.16363636363636,61.34025974025974L119.6,56.67272727272727L116.03636363636363,55.645454545454555L112.47272727272728,55.554545454545455L108.90909090909089,54.72207792207793L105.34545454545456,52.32077922077922L101.78181818181817,48.82597402597403L98.21818181818183,45.080519480519484L94.65454545454546,41.935064935064936L91.09090909090911,39.7987012987013L87.52727272727273,39.680519480519486L83.96363636363637,39.435064935064936L80.4,39.32987012987014L76.83636363636364,39.35324675324675L73.27272727272727,40.19350649350649L69.70909090909092,41.69090909090909L66.14545454545454,38.831168831168824L62.58181818181818,36.70779220779221L59.018181818181816,35.42597402597403L55.454545454545446,35.225974025974025L51.89090909090908,35.26883116883117L48.32727272727273,34.99610389610389L44.76363636363636,34.625974025974024L41.199999999999996,33.37532467532468L37.636363636363626,32.8935064935065L34.072727272727285,32.28051948051949L30.509090909090922,30.91038961038961L26.945454545454556,29.753246753246753L23.38181818181819,28.566233766233772L19.818181818181824,27.067532467532473L16.25454545454546,25.28181818181818L12.690909090909095,24.01428571428572L9.12727272727273,23.06103896103897L5.563636363636365,21.9L2,19.75064935064936"></path></g></svg>