<svg meta="{&quot;DATA_PUBLISHED_DATE&quot;:&quot;2022-05-17&quot;,&quot;RENDER_DATE&quot;:&quot;2022-05-17&quot;,&quot;FIRST_DATE&quot;:&quot;2022-03-14&quot;,&quot;LAST_DATE&quot;:&quot;2022-05-08&quot;}" xmlns="http://www.w3.org/2000/svg" viewBox="0,0,200,100"><g transform="translate(0,0)"></g><g class="fg-bars cases-ep" fill="#00183f" stroke="none"><g><rect x="197" y="48.18" width="2" height="51.82" id="cases-ep-0"></rect></g><g><rect x="193.43636363636364" y="43.510000000000005" width="2" height="56.489999999999995" id="cases-ep-1"></rect></g><g><rect x="189.87272727272727" y="16.549999999999997" width="2" height="83.45" id="cases-ep-2"></rect></g><g><rect x="186.30909090909088" y="10.840000000000005" width="2" height="89.16" id="cases-ep-3"></rect></g><g><rect x="182.74545454545455" y="5.4300000000000015" width="2" height="94.57" id="cases-ep-4"></rect></g><g><rect x="179.1818181818182" y="4.130000000000001" width="2" height="95.87" id="cases-ep-5"></rect></g><g><rect x="175.61818181818182" y="0.5199999999999982" width="2" height="99.48" id="cases-ep-6"></rect></g><g><rect x="172.05454545454546" y="50.760000000000005" width="2" height="49.239999999999995" id="cases-ep-7"></rect></g><g><rect x="168.49090909090907" y="53" width="2" height="47" id="cases-ep-8"></rect></g><g><rect x="164.92727272727274" y="35.79" width="2" height="64.21000000000001" id="cases-ep-9"></rect></g><g><rect x="161.36363636363637" y="30.86" width="2" height="69.14" id="cases-ep-10"></rect></g><g><rect x="157.8" y="27.1" width="2" height="72.9" id="cases-ep-11"></rect></g><g><rect x="154.23636363636365" y="26.029999999999998" width="2" height="73.97" id="cases-ep-12"></rect></g><g><rect x="150.6727272727273" y="22.470000000000002" width="2" height="77.53" id="cases-ep-13"></rect></g><g><rect x="147.1090909090909" y="64.51" width="2" height="35.489999999999995" id="cases-ep-14"></rect></g><g><rect x="143.54545454545453" y="64.26" width="2" height="35.739999999999995" id="cases-ep-15"></rect></g><g><rect x="139.9818181818182" y="49.09" width="2" height="50.91" id="cases-ep-16"></rect></g><g><rect x="136.41818181818184" y="45.96" width="2" height="54.04" id="cases-ep-17"></rect></g><g><rect x="132.85454545454544" y="44.199999999999996" width="2" height="55.800000000000004" id="cases-ep-18"></rect></g><g><rect x="129.29090909090908" y="42.06999999999999" width="2" height="57.93000000000001" id="cases-ep-19"></rect></g><g><rect x="125.72727272727273" y="37.96000000000001" width="2" height="62.03999999999999" id="cases-ep-20"></rect></g><g><rect x="122.16363636363636" y="76.86" width="2" height="23.14" id="cases-ep-21"></rect></g><g><rect x="118.6" y="73.57000000000001" width="2" height="26.429999999999993" id="cases-ep-22"></rect></g><g><rect x="115.03636363636363" y="63.93" width="2" height="36.07" id="cases-ep-23"></rect></g><g><rect x="111.47272727272728" y="63.09" width="2" height="36.91" id="cases-ep-24"></rect></g><g><rect x="107.90909090909089" y="60.33" width="2" height="39.67" id="cases-ep-25"></rect></g><g><rect x="104.34545454545456" y="59.4" width="2" height="40.6" id="cases-ep-26"></rect></g><g><rect x="100.78181818181817" y="56.13" width="2" height="43.87" id="cases-ep-27"></rect></g><g><rect x="97.21818181818183" y="78.08" width="2" height="21.92" id="cases-ep-28"></rect></g><g><rect x="93.65454545454546" y="79.58000000000001" width="2" height="20.419999999999987" id="cases-ep-29"></rect></g><g><rect x="90.09090909090911" y="70.76" width="2" height="29.239999999999995" id="cases-ep-30"></rect></g><g><rect x="86.52727272727273" y="69.44" width="2" height="30.560000000000002" id="cases-ep-31"></rect></g><g><rect x="82.96363636363637" y="66.14999999999999" width="2" height="33.85000000000001" id="cases-ep-32"></rect></g><g><rect x="79.4" y="66.71000000000001" width="2" height="33.28999999999999" id="cases-ep-33"></rect></g><g><rect x="75.83636363636364" y="62.27" width="2" height="37.73" id="cases-ep-34"></rect></g><g><rect x="72.27272727272727" y="82.72" width="2" height="17.28" id="cases-ep-35"></rect></g><g><rect x="68.70909090909092" y="82.88" width="2" height="17.120000000000005" id="cases-ep-36"></rect></g><g><rect x="65.14545454545454" y="73.63" width="2" height="26.370000000000005" id="cases-ep-37"></rect></g><g><rect x="61.58181818181818" y="75.68" width="2" height="24.319999999999993" id="cases-ep-38"></rect></g><g><rect x="58.018181818181816" y="73.6" width="2" height="26.400000000000006" id="cases-ep-39"></rect></g><g><rect x="54.454545454545446" y="72.73" width="2" height="27.269999999999996" id="cases-ep-40"></rect></g><g><rect x="50.89090909090908" y="71.34" width="2" height="28.659999999999997" id="cases-ep-41"></rect></g><g><rect x="47.32727272727273" y="84.53" width="2" height="15.469999999999999" id="cases-ep-42"></rect></g><g><rect x="43.76363636363636" y="85.50999999999999" width="2" height="14.490000000000009" id="cases-ep-43"></rect></g><g><rect x="40.199999999999996" y="80.03" width="2" height="19.97" id="cases-ep-44"></rect></g><g><rect x="36.636363636363626" y="77.18" width="2" height="22.819999999999993" id="cases-ep-45"></rect></g><g><rect x="33.072727272727285" y="77.53" width="2" height="22.47" id="cases-ep-46"></rect></g><g><rect x="29.509090909090922" y="69.67999999999999" width="2" height="30.320000000000007" id="cases-ep-47"></rect></g><g><rect x="25.945454545454556" y="72.81" width="2" height="27.189999999999998" id="cases-ep-48"></rect></g><g><rect x="22.38181818181819" y="86.98" width="2" height="13.019999999999996" id="cases-ep-49"></rect></g><g><rect x="18.818181818181824" y="87.6" width="2" height="12.400000000000006" id="cases-ep-50"></rect></g><g><rect x="15.254545454545461" y="80.1" width="2" height="19.900000000000006" id="cases-ep-51"></rect></g><g><rect x="11.690909090909095" y="76.98" width="2" height="23.019999999999996" id="cases-ep-52"></rect></g><g><rect x="8.12727272727273" y="75.42" width="2" height="24.58" id="cases-ep-53"></rect></g><g><rect x="4.563636363636365" y="73.71" width="2" height="26.290000000000006" id="cases-ep-54"></rect></g><g><rect x="1" y="71.05" width="2" height="28.950000000000003" id="cases-ep-55"></rect></g></g><g class="fg-line cases-ep" fill="none" stroke="#92c5de" stroke-width="2" stroke-linecap="round"><path d="M198,18.451428571428576L194.43636363636364,18.820000000000004L190.87272727272727,20.175714285714285L187.30909090909088,22.92428571428572L183.74545454545455,25.784285714285716L180.1818181818182,28.879999999999995L176.61818181818182,32.00857142857143L173.05454545454546,35.144285714285715L169.49090909090907,37.10857142857144L165.92727272727274,38.717142857142846L162.36363636363637,40.61714285714285L158.8,42.77428571428572L155.23636363636365,45.21714285714285L151.6727272727273,47.508571428571436L148.1090909090909,49.721428571428575L144.54545454545453,51.48571428571429L140.9818181818182,52.81571428571428L137.41818181818184,54.93571428571429L133.85454545454544,57.38285714285715L130.29090909090908,59.68714285714285L126.72727272727273,62.16285714285714L123.16363636363636,64.75857142857141L119.6,64.93285714285715L116.03636363636363,65.79142857142857L112.47272727272728,66.76714285714286L108.90909090909089,67.6742857142857L105.34545454545456,68.50571428571428L101.78181818181817,69.55L98.21818181818183,70.42714285714287L94.65454545454546,71.09L91.09090909090911,71.56142857142858L87.52727272727273,71.97142857142858L83.96363636363637,72.86285714285714L80.4,73.92714285714285L76.83636363636364,74.78714285714285L73.27272727272727,76.08285714285714L69.70909090909092,76.34142857142857L66.14545454545454,76.71714285714286L62.58181818181818,77.63142857142857L59.018181818181816,77.84571428571428L55.454545454545446,78.40714285714286L51.89090909090908,77.97142857142858L48.32727272727273,78.18142857142858L44.76363636363636,78.53142857142858L41.199999999999996,78.83L37.636363636363626,78.84L34.072727272727285,78.81142857142858L30.509090909090922,78.51L26.945454545454556,79.08571428571427L23.38181818181819,78.83428571428571L19.818181818181824,78.88142857142857L16.25454545454546,78.53857142857143L12.690909090909095,78.10714285714286L9.12727272727273,77.77714285714285L5.563636363636365,77.00571428571429L2,76.04857142857142"></path></g></svg>