<svg about="DATA_PUBLISHED_DATE:2022-01-31,RENDER_DATE:2022-01-31" xmlns="http://www.w3.org/2000/svg" viewBox="0,0,200,100"><g transform="translate(0,0)"></g><g class="fg-bars cases-ep" fill="#00183f" stroke="none"><g><rect x="197" y="77.125625" width="2" height="22.874375" id="cases-ep-0"></rect></g><g><rect x="193.43636363636364" y="53.803749999999994" width="2" height="46.196250000000006" id="cases-ep-1"></rect></g><g><rect x="189.87272727272727" y="45.433125" width="2" height="54.566875" id="cases-ep-2"></rect></g><g><rect x="186.30909090909088" y="39.0025" width="2" height="60.9975" id="cases-ep-3"></rect></g><g><rect x="182.74545454545455" y="27.170000000000005" width="2" height="72.83" id="cases-ep-4"></rect></g><g><rect x="179.1818181818182" y="51.541250000000005" width="2" height="48.458749999999995" id="cases-ep-5"></rect></g><g><rect x="175.61818181818182" y="76.76" width="2" height="23.239999999999995" id="cases-ep-6"></rect></g><g><rect x="172.05454545454546" y="65.3325" width="2" height="34.667500000000004" id="cases-ep-7"></rect></g><g><rect x="168.49090909090907" y="36.57812499999999" width="2" height="63.42187500000001" id="cases-ep-8"></rect></g><g><rect x="164.92727272727274" y="30.862500000000004" width="2" height="69.13749999999999" id="cases-ep-9"></rect></g><g><rect x="161.36363636363637" y="24.384375000000002" width="2" height="75.615625" id="cases-ep-10"></rect></g><g><rect x="157.8" y="19.010000000000005" width="2" height="80.99" id="cases-ep-11"></rect></g><g><rect x="154.23636363636365" y="15.454374999999999" width="2" height="84.545625" id="cases-ep-12"></rect></g><g><rect x="150.6727272727273" y="67.11625" width="2" height="32.883750000000006" id="cases-ep-13"></rect></g><g><rect x="147.1090909090909" y="54.21750000000001" width="2" height="45.78249999999999" id="cases-ep-14"></rect></g><g><rect x="143.54545454545453" y="18.143750000000004" width="2" height="81.85624999999999" id="cases-ep-15"></rect></g><g><rect x="139.9818181818182" y="13.444374999999997" width="2" height="86.555625" id="cases-ep-16"></rect></g><g><rect x="136.41818181818184" y="6.847499999999995" width="2" height="93.1525" id="cases-ep-17"></rect></g><g><rect x="132.85454545454544" y="6.248750000000003" width="2" height="93.75125" id="cases-ep-18"></rect></g><g><rect x="129.29090909090908" y="17.451874999999994" width="2" height="82.548125" id="cases-ep-19"></rect></g><g><rect x="125.72727272727273" y="67.255625" width="2" height="32.744375000000005" id="cases-ep-20"></rect></g><g><rect x="122.16363636363636" y="81.474375" width="2" height="18.525625000000005" id="cases-ep-21"></rect></g><g><rect x="118.6" y="68.21249999999999" width="2" height="31.78750000000001" id="cases-ep-22"></rect></g><g><rect x="115.03636363636363" y="48.283750000000005" width="2" height="51.716249999999995" id="cases-ep-23"></rect></g><g><rect x="111.47272727272728" y="45.90375" width="2" height="54.09625" id="cases-ep-24"></rect></g><g><rect x="107.90909090909089" y="46.33875" width="2" height="53.66125" id="cases-ep-25"></rect></g><g><rect x="104.34545454545456" y="54.54749999999999" width="2" height="45.45250000000001" id="cases-ep-26"></rect></g><g><rect x="100.78181818181817" y="78.71249999999999" width="2" height="21.28750000000001" id="cases-ep-27"></rect></g><g><rect x="97.21818181818183" y="91.45375" width="2" height="8.54625" id="cases-ep-28"></rect></g><g><rect x="93.65454545454546" y="86.80624999999999" width="2" height="13.193750000000009" id="cases-ep-29"></rect></g><g><rect x="90.09090909090911" y="80.325" width="2" height="19.674999999999997" id="cases-ep-30"></rect></g><g><rect x="86.52727272727273" y="80.62125" width="2" height="19.378749999999997" id="cases-ep-31"></rect></g><g><rect x="82.96363636363637" y="83.316875" width="2" height="16.683125000000004" id="cases-ep-32"></rect></g><g><rect x="79.4" y="85.84937500000001" width="2" height="14.150624999999991" id="cases-ep-33"></rect></g><g><rect x="75.83636363636364" y="93.47375" width="2" height="6.5262500000000045" id="cases-ep-34"></rect></g><g><rect x="72.27272727272727" y="94.03375" width="2" height="5.966250000000002" id="cases-ep-35"></rect></g><g><rect x="68.70909090909092" y="93.144375" width="2" height="6.855625000000003" id="cases-ep-36"></rect></g><g><rect x="65.14545454545454" y="93.68875" width="2" height="6.311250000000001" id="cases-ep-37"></rect></g><g><rect x="61.58181818181818" y="93.76187499999999" width="2" height="6.238125000000011" id="cases-ep-38"></rect></g><g><rect x="58.018181818181816" y="94.829375" width="2" height="5.170625000000001" id="cases-ep-39"></rect></g><g><rect x="54.454545454545446" y="94.483125" width="2" height="5.516874999999999" id="cases-ep-40"></rect></g><g><rect x="50.89090909090908" y="97.28125" width="2" height="2.71875" id="cases-ep-41"></rect></g><g><rect x="47.32727272727273" y="97.369375" width="2" height="2.630624999999995" id="cases-ep-42"></rect></g><g><rect x="43.76363636363636" y="96.40062499999999" width="2" height="3.599375000000009" id="cases-ep-43"></rect></g><g><rect x="40.199999999999996" y="96.41125000000001" width="2" height="3.5887499999999903" id="cases-ep-44"></rect></g><g><rect x="36.636363636363626" y="95.943125" width="2" height="4.056875000000005" id="cases-ep-45"></rect></g><g><rect x="33.072727272727285" y="95.916875" width="2" height="4.0831249999999955" id="cases-ep-46"></rect></g><g><rect x="29.509090909090922" y="95.36125" width="2" height="4.638750000000002" id="cases-ep-47"></rect></g><g><rect x="25.945454545454556" y="97.584375" width="2" height="2.4156250000000057" id="cases-ep-48"></rect></g><g><rect x="22.38181818181819" y="97.395" width="2" height="2.605000000000004" id="cases-ep-49"></rect></g><g><rect x="18.818181818181824" y="96.156875" width="2" height="3.8431250000000006" id="cases-ep-50"></rect></g><g><rect x="15.254545454545461" y="96.050625" width="2" height="3.9493750000000034" id="cases-ep-51"></rect></g><g><rect x="11.690909090909095" y="95.3075" width="2" height="4.6924999999999955" id="cases-ep-52"></rect></g><g><rect x="8.12727272727273" y="95.57187499999999" width="2" height="4.4281250000000085" id="cases-ep-53"></rect></g><g><rect x="4.563636363636365" y="94.8225" width="2" height="5.177499999999995" id="cases-ep-54"></rect></g><g><rect x="1" y="97.24312499999999" width="2" height="2.756875000000008" id="cases-ep-55"></rect></g></g><g class="fg-line cases-ep" fill="none" stroke="#92c5de" stroke-width="2" stroke-linecap="round"><path d="M198,52.97660714285715L194.43636363636364,51.291875L190.87272727272727,48.83107142857143L187.30909090909088,46.74955357142857L183.74545454545455,44.661249999999995L180.1818181818182,43.495535714285715L176.61818181818182,38.34026785714285L173.05454545454546,36.96258928571429L169.49090909090907,35.37473214285715L165.92727272727274,32.74125L162.36363636363637,30.252946428571438L158.8,27.74767857142857L155.23636363636365,25.924642857142853L151.6727272727273,26.21L148.1090909090909,26.22991071428572L144.54545454545453,30.123750000000005L140.9818181818182,37.27642857142857L137.41818181818184,42.253482142857145L133.85454545454544,47.83294642857143L130.29090909090908,53.560089285714284L126.72727272727273,58.85946428571429L123.16363636363636,60.49616071428572L119.6,61.92178571428572L116.03636363636363,64.5780357142857L112.47272727272728,69.15535714285714L108.90909090909089,74.115L105.34545454545456,79.39758928571429L101.78181818181817,83.86928571428571L98.21818181818183,85.97803571428571L94.65454545454546,86.34660714285715L91.09090909090911,87.25205357142856L87.52727272727273,89.16116071428571L83.96363636363637,91.03839285714285L80.4,92.68303571428571L76.83636363636364,93.91642857142857L73.27272727272727,94.46035714285715L69.70909090909092,94.936875L66.14545454545454,95.40205357142857L62.58181818181818,95.79098214285715L59.018181818181816,96.10258928571429L55.454545454545446,96.25794642857143L51.89090909090908,96.38339285714285L48.32727272727273,96.42669642857142L44.76363636363636,96.43035714285715L41.199999999999996,96.39553571428571L37.636363636363626,96.34401785714286L34.072727272727285,96.25321428571428L30.509090909090922,96.20392857142858L26.945454545454556,96.1269642857143L23.38181818181819,96.07821428571428L19.818181818181824,96.07348214285715L16.25454545454546,96.23392857142858L12.690909090909095,96.59357142857144L9.12727272727273,96.84821428571428L5.563636363636365,97.04892857142858L2,97.323125"></path></g></svg>