<svg meta="{&quot;DATA_PUBLISHED_DATE&quot;:&quot;2022-03-11&quot;,&quot;RENDER_DATE&quot;:&quot;2022-03-13&quot;,&quot;FIRST_DATE&quot;:&quot;2022-01-06&quot;,&quot;LAST_DATE&quot;:&quot;2022-03-02&quot;}" xmlns="http://www.w3.org/2000/svg" viewBox="0,0,200,100"><g transform="translate(0,0)"></g><g class="fg-bars cases-ep" fill="#00183f" stroke="none"><g><rect x="197" y="97.695" width="2" height="2.305000000000007" id="cases-ep-0"></rect></g><g><rect x="193.43636363636364" y="97.275625" width="2" height="2.724374999999995" id="cases-ep-1"></rect></g><g><rect x="189.87272727272727" y="96.878125" width="2" height="3.121875000000003" id="cases-ep-2"></rect></g><g><rect x="186.30909090909088" y="98.60375" width="2" height="1.3962499999999949" id="cases-ep-3"></rect></g><g><rect x="182.74545454545455" y="98.383125" width="2" height="1.6168749999999932" id="cases-ep-4"></rect></g><g><rect x="179.1818181818182" y="97.10499999999999" width="2" height="2.8950000000000102" id="cases-ep-5"></rect></g><g><rect x="175.61818181818182" y="96.88624999999999" width="2" height="3.1137500000000102" id="cases-ep-6"></rect></g><g><rect x="172.05454545454546" y="96.564375" width="2" height="3.4356250000000017" id="cases-ep-7"></rect></g><g><rect x="168.49090909090907" y="95.598125" width="2" height="4.401875000000004" id="cases-ep-8"></rect></g><g><rect x="164.92727272727274" y="96.689375" width="2" height="3.3106250000000017" id="cases-ep-9"></rect></g><g><rect x="161.36363636363637" y="97.766875" width="2" height="2.233125000000001" id="cases-ep-10"></rect></g><g><rect x="157.8" y="97.358125" width="2" height="2.641874999999999" id="cases-ep-11"></rect></g><g><rect x="154.23636363636365" y="95.59062499999999" width="2" height="4.409375000000011" id="cases-ep-12"></rect></g><g><rect x="150.6727272727273" y="94.875" width="2" height="5.125" id="cases-ep-13"></rect></g><g><rect x="147.1090909090909" y="94.00625000000001" width="2" height="5.9937499999999915" id="cases-ep-14"></rect></g><g><rect x="143.54545454545453" y="93.099375" width="2" height="6.900625000000005" id="cases-ep-15"></rect></g><g><rect x="139.9818181818182" y="91.8825" width="2" height="8.117500000000007" id="cases-ep-16"></rect></g><g><rect x="136.41818181818184" y="96.60562499999999" width="2" height="3.394375000000011" id="cases-ep-17"></rect></g><g><rect x="132.85454545454544" y="95.57187499999999" width="2" height="4.4281250000000085" id="cases-ep-18"></rect></g><g><rect x="129.29090909090908" y="91.395625" width="2" height="8.604375000000005" id="cases-ep-19"></rect></g><g><rect x="125.72727272727273" y="91.174375" width="2" height="8.825625000000002" id="cases-ep-20"></rect></g><g><rect x="122.16363636363636" y="89.849375" width="2" height="10.150625000000005" id="cases-ep-21"></rect></g><g><rect x="118.6" y="88.80562499999999" width="2" height="11.194375000000008" id="cases-ep-22"></rect></g><g><rect x="115.03636363636363" y="86.015625" width="2" height="13.984375" id="cases-ep-23"></rect></g><g><rect x="111.47272727272728" y="94.025625" width="2" height="5.974374999999995" id="cases-ep-24"></rect></g><g><rect x="107.90909090909089" y="92.705625" width="2" height="7.294375000000002" id="cases-ep-25"></rect></g><g><rect x="104.34545454545456" y="86.33875" width="2" height="13.661249999999995" id="cases-ep-26"></rect></g><g><rect x="100.78181818181817" y="84.95125" width="2" height="15.048749999999998" id="cases-ep-27"></rect></g><g><rect x="97.21818181818183" y="82.8175" width="2" height="17.182500000000005" id="cases-ep-28"></rect></g><g><rect x="93.65454545454546" y="79.5675" width="2" height="20.432500000000005" id="cases-ep-29"></rect></g><g><rect x="90.09090909090911" y="75.74875" width="2" height="24.25125" id="cases-ep-30"></rect></g><g><rect x="86.52727272727273" y="90.630625" width="2" height="9.369375000000005" id="cases-ep-31"></rect></g><g><rect x="82.96363636363637" y="87.10375" width="2" height="12.896249999999995" id="cases-ep-32"></rect></g><g><rect x="79.4" y="75.9425" width="2" height="24.057500000000005" id="cases-ep-33"></rect></g><g><rect x="75.83636363636364" y="72.550625" width="2" height="27.449375000000003" id="cases-ep-34"></rect></g><g><rect x="72.27272727272727" y="67.5925" width="2" height="32.4075" id="cases-ep-35"></rect></g><g><rect x="68.70909090909092" y="62.510625" width="2" height="37.489375" id="cases-ep-36"></rect></g><g><rect x="65.14545454545454" y="56.14" width="2" height="43.86" id="cases-ep-37"></rect></g><g><rect x="61.58181818181818" y="82.535625" width="2" height="17.464375000000004" id="cases-ep-38"></rect></g><g><rect x="58.018181818181816" y="75.305" width="2" height="24.694999999999993" id="cases-ep-39"></rect></g><g><rect x="54.454545454545446" y="51.790000000000006" width="2" height="48.209999999999994" id="cases-ep-40"></rect></g><g><rect x="50.89090909090908" y="43.94375" width="2" height="56.05625" id="cases-ep-41"></rect></g><g><rect x="47.32727272727273" y="37.094375" width="2" height="62.905625" id="cases-ep-42"></rect></g><g><rect x="43.76363636363636" y="25.298125000000006" width="2" height="74.701875" id="cases-ep-43"></rect></g><g><rect x="40.199999999999996" y="49.565625000000004" width="2" height="50.434374999999996" id="cases-ep-44"></rect></g><g><rect x="36.636363636363626" y="75.51" width="2" height="24.489999999999995" id="cases-ep-45"></rect></g><g><rect x="33.072727272727285" y="64.1375" width="2" height="35.8625" id="cases-ep-46"></rect></g><g><rect x="29.509090909090922" y="35.638124999999995" width="2" height="64.361875" id="cases-ep-47"></rect></g><g><rect x="25.945454545454556" y="29.400625" width="2" height="70.599375" id="cases-ep-48"></rect></g><g><rect x="22.38181818181819" y="22.050625" width="2" height="77.949375" id="cases-ep-49"></rect></g><g><rect x="18.818181818181824" y="17.157500000000002" width="2" height="82.8425" id="cases-ep-50"></rect></g><g><rect x="15.254545454545461" y="13.748749999999998" width="2" height="86.25125" id="cases-ep-51"></rect></g><g><rect x="11.690909090909095" y="65.91625" width="2" height="34.083749999999995" id="cases-ep-52"></rect></g><g><rect x="8.12727272727273" y="53.17875000000001" width="2" height="46.82124999999999" id="cases-ep-53"></rect></g><g><rect x="4.563636363636365" y="17.440624999999997" width="2" height="82.559375" id="cases-ep-54"></rect></g><g><rect x="1" y="12.386874999999996" width="2" height="87.613125" id="cases-ep-55"></rect></g></g><g class="fg-line cases-ep" fill="none" stroke="#92c5de" stroke-width="2" stroke-linecap="round"><path d="M198,97.54669642857144L194.43636363636364,97.38517857142858L190.87272727272727,97.14553571428571L187.30909090909088,97.11857142857143L183.74545454545455,96.99901785714286L180.1818181818182,96.85258928571429L176.61818181818182,96.63625L173.05454545454546,96.34892857142857L169.49090909090907,95.98348214285714L165.92727272727274,95.62651785714286L162.36363636363637,94.93982142857142L158.8,94.77392857142857L155.23636363636365,94.51875L151.6727272727273,93.91946428571428L148.1090909090909,93.39080357142858L144.54545454545453,92.7969642857143L140.9818181818182,92.18357142857143L137.41818181818184,91.34544642857144L133.85454545454544,90.976875L130.29090909090908,90.56741071428571L126.72727272727273,89.845L123.16363636363636,88.95598214285714L119.6,87.95142857142856L116.03636363636363,86.63169642857143L112.47272727272728,85.165L108.90909090909089,84.68L105.34545454545456,83.87973214285715L101.78181818181817,82.39455357142857L98.21818181818183,80.6230357142857L94.65454545454546,78.44803571428571L91.09090909090911,76.01133928571429L87.52727272727273,73.21008928571429L83.96363636363637,72.05366071428571L80.4,70.368125L76.83636363636364,66.91776785714285L73.27272727272727,62.83107142857143L69.70909090909092,58.47419642857143L66.14545454545454,53.158125L62.58181818181818,52.21892857142857L59.018181818181816,51.215267857142855L55.454545454545446,49.61991071428572L51.89090909090908,47.3125L48.32727272727273,45.23491071428572L44.76363636363636,43.08580357142857L41.199999999999996,41.922857142857154L37.636363636363626,36.80616071428572L34.072727272727285,35.435625L30.509090909090922,33.870089285714286L26.945454545454556,31.27044642857143L23.38181818181819,28.83991071428571L19.818181818181824,26.38223214285714L16.25454545454546,24.46669642857143L12.690909090909095,24.5475L9.12727272727273,24.450089285714284L5.563636363636365,28.27098214285715L2,35.25669642857143"></path></g></svg>