<svg about="DATA_PUBLISHED_DATE:2021-12-14,RENDER_DATE:2021-12-14" xmlns="http://www.w3.org/2000/svg" viewBox="0,0,200,100"><g transform="translate(0,0)"></g><g class="fg-bars tests-vaccines" fill="#00183f" stroke="none"><g><rect x="197" y="33.48457142857143" width="2" height="66.51542857142857" id="tests-vaccines-0"></rect></g><g><rect x="193.43636363636364" y="77.71571428571428" width="2" height="22.284285714285716" id="tests-vaccines-1"></rect></g><g><rect x="189.87272727272727" y="50.18857142857143" width="2" height="49.81142857142857" id="tests-vaccines-2"></rect></g><g><rect x="186.30909090909088" y="12.822857142857147" width="2" height="87.17714285714285" id="tests-vaccines-3"></rect></g><g><rect x="182.74545454545455" y="22.72828571428571" width="2" height="77.2717142857143" id="tests-vaccines-4"></rect></g><g><rect x="179.1818181818182" y="24.13685714285714" width="2" height="75.86314285714286" id="tests-vaccines-5"></rect></g><g><rect x="175.61818181818182" y="31.543428571428567" width="2" height="68.45657142857144" id="tests-vaccines-6"></rect></g><g><rect x="172.05454545454546" y="40.154857142857146" width="2" height="59.845142857142854" id="tests-vaccines-7"></rect></g><g><rect x="168.49090909090907" y="81.78057142857142" width="2" height="18.21942857142858" id="tests-vaccines-8"></rect></g><g><rect x="164.92727272727274" y="67.72714285714285" width="2" height="32.27285714285715" id="tests-vaccines-9"></rect></g><g><rect x="161.36363636363637" y="56.846" width="2" height="43.154" id="tests-vaccines-10"></rect></g><g><rect x="157.8" y="98.62342857142858" width="2" height="1.376571428571424" id="tests-vaccines-11"></rect></g><g><rect x="154.23636363636365" y="42.04" width="2" height="57.96" id="tests-vaccines-12"></rect></g><g><rect x="150.6727272727273" y="31.032285714285713" width="2" height="68.9677142857143" id="tests-vaccines-13"></rect></g><g><rect x="147.1090909090909" y="34.42628571428571" width="2" height="65.57371428571429" id="tests-vaccines-14"></rect></g><g><rect x="143.54545454545453" y="79.318" width="2" height="20.682000000000002" id="tests-vaccines-15"></rect></g><g><rect x="139.9818181818182" y="55.538" width="2" height="44.462" id="tests-vaccines-16"></rect></g><g><rect x="136.41818181818184" y="23.714285714285708" width="2" height="76.28571428571429" id="tests-vaccines-17"></rect></g><g><rect x="132.85454545454544" y="35.74885714285714" width="2" height="64.25114285714287" id="tests-vaccines-18"></rect></g><g><rect x="129.29090909090908" y="34.39" width="2" height="65.61" id="tests-vaccines-19"></rect></g><g><rect x="125.72727272727273" y="35.84857142857143" width="2" height="64.15142857142857" id="tests-vaccines-20"></rect></g><g><rect x="122.16363636363636" y="41.468" width="2" height="58.532" id="tests-vaccines-21"></rect></g><g><rect x="118.6" y="79.81" width="2" height="20.189999999999998" id="tests-vaccines-22"></rect></g><g><rect x="115.03636363636363" y="57.786" width="2" height="42.214" id="tests-vaccines-23"></rect></g><g><rect x="111.47272727272728" y="26.418857142857142" width="2" height="73.58114285714285" id="tests-vaccines-24"></rect></g><g><rect x="107.90909090909089" y="38.25057142857143" width="2" height="61.74942857142857" id="tests-vaccines-25"></rect></g><g><rect x="104.34545454545456" y="35.66085714285714" width="2" height="64.33914285714286" id="tests-vaccines-26"></rect></g><g><rect x="100.78181818181817" y="38.086" width="2" height="61.914" id="tests-vaccines-27"></rect></g><g><rect x="97.21818181818183" y="42.94885714285714" width="2" height="57.05114285714286" id="tests-vaccines-28"></rect></g><g><rect x="93.65454545454546" y="80.77057142857143" width="2" height="19.22942857142857" id="tests-vaccines-29"></rect></g><g><rect x="90.09090909090911" y="63.412" width="2" height="36.588" id="tests-vaccines-30"></rect></g><g><rect x="86.52727272727273" y="30.730857142857136" width="2" height="69.26914285714287" id="tests-vaccines-31"></rect></g><g><rect x="82.96363636363637" y="43.70171428571429" width="2" height="56.29828571428571" id="tests-vaccines-32"></rect></g><g><rect x="79.4" y="46.000571428571426" width="2" height="53.999428571428574" id="tests-vaccines-33"></rect></g><g><rect x="75.83636363636364" y="45.891999999999996" width="2" height="54.108000000000004" id="tests-vaccines-34"></rect></g><g><rect x="72.27272727272727" y="49.220571428571425" width="2" height="50.779428571428575" id="tests-vaccines-35"></rect></g><g><rect x="68.70909090909092" y="85.524" width="2" height="14.475999999999999" id="tests-vaccines-36"></rect></g><g><rect x="65.14545454545454" y="70.54400000000001" width="2" height="29.45599999999999" id="tests-vaccines-37"></rect></g><g><rect x="61.58181818181818" y="37.649428571428565" width="2" height="62.350571428571435" id="tests-vaccines-38"></rect></g><g><rect x="58.018181818181816" y="48.050000000000004" width="2" height="51.949999999999996" id="tests-vaccines-39"></rect></g><g><rect x="54.454545454545446" y="47.99485714285714" width="2" height="52.00514285714286" id="tests-vaccines-40"></rect></g><g><rect x="50.89090909090908" y="48.60628571428571" width="2" height="51.39371428571429" id="tests-vaccines-41"></rect></g><g><rect x="47.32727272727273" y="53.424285714285716" width="2" height="46.575714285714284" id="tests-vaccines-42"></rect></g><g><rect x="43.76363636363636" y="86.45971428571428" width="2" height="13.540285714285716" id="tests-vaccines-43"></rect></g><g><rect x="40.199999999999996" y="73.55085714285714" width="2" height="26.44914285714286" id="tests-vaccines-44"></rect></g><g><rect x="36.636363636363626" y="53.57228571428572" width="2" height="46.42771428571428" id="tests-vaccines-45"></rect></g><g><rect x="33.072727272727285" y="72.43828571428573" width="2" height="27.561714285714274" id="tests-vaccines-46"></rect></g><g><rect x="29.509090909090922" y="73.51714285714286" width="2" height="26.482857142857142" id="tests-vaccines-47"></rect></g><g><rect x="25.945454545454556" y="72.65457142857143" width="2" height="27.34542857142857" id="tests-vaccines-48"></rect></g><g><rect x="22.38181818181819" y="71.51828571428571" width="2" height="28.48171428571429" id="tests-vaccines-49"></rect></g><g><rect x="18.818181818181824" y="91.27714285714286" width="2" height="8.722857142857137" id="tests-vaccines-50"></rect></g><g><rect x="15.254545454545461" y="83.17314285714286" width="2" height="16.826857142857136" id="tests-vaccines-51"></rect></g><g><rect x="11.690909090909095" y="63.97085714285714" width="2" height="36.02914285714286" id="tests-vaccines-52"></rect></g><g><rect x="8.12727272727273" y="71.23228571428571" width="2" height="28.76771428571429" id="tests-vaccines-53"></rect></g><g><rect x="4.563636363636365" y="71.55742857142857" width="2" height="28.442571428571426" id="tests-vaccines-54"></rect></g><g><rect x="1" y="69.7762857142857" width="2" height="30.223714285714294" id="tests-vaccines-55"></rect></g></g><g class="fg-line tests-vaccines" fill="none" stroke="#92c5de" stroke-width="2" stroke-linecap="round"><path d="M198,36.088612244897966L194.43636363636364,37.04151020408163L190.87272727272727,37.62220408163266L187.30909090909088,40.12771428571429L183.74545454545455,46.41673469387755L180.1818181818182,57.25889795918368L176.61818181818182,59.81648979591837L173.05454545454546,59.7434693877551L169.49090909090907,58.92510204081633L165.92727272727274,58.573306122448976L162.36363636363637,56.831999999999994L158.8,52.098897959183674L155.23636363636365,43.1168163265306L151.6727272727273,42.02395918367346L148.1090909090909,42.712L144.54545454545453,43.71795918367346L140.9818181818182,43.78824489795918L137.41818181818184,44.109387755102034L133.85454545454544,44.495755102040825L130.29090909090908,44.853142857142856L126.72727272727273,45.03469387755102L123.16363636363636,45.35432653061224L119.6,45.56587755102041L116.03636363636363,45.703102040816326L112.47272727272728,46.50681632653061L108.90909090909089,47.122816326530604L105.34545454545456,47.901551020408164L101.78181818181817,49.37865306122448L98.21818181818183,50.49379591836735L94.65454545454546,51.38975510204082L91.09090909090911,52.06881632653061L87.52727272727273,53.08767346938775L83.96363636363637,54.07604081632653L80.4,54.697224489795914L76.83636363636364,54.982122448979595L73.27272727272727,55.36987755102041L69.70909090909092,55.970408163265304L66.14545454545454,56.104081632653056L62.58181818181818,56.533632653061225L59.018181818181816,58.808326530612256L55.454545454545446,62.29236734693877L51.89090909090908,65.93840816326531L48.32727272727273,69.3738775510204L44.76363636363636,71.95873469387755L41.199999999999996,72.64693877551021L37.636363636363626,74.02155102040815L34.072727272727285,75.5070612244898L30.509090909090922,75.33477551020408L26.945454545454556,75.05481632653061L23.38181818181819,74.64363265306122L19.818181818181824,74.3469387755102L16.25454545454546,74.13926530612245L12.690909090909095,73.87534693877551L9.12727272727273,73.19375510204081L5.563636363636365,72.52000000000001L2,72.11967346938776"></path></g></svg>