<svg about="DATA_PUBLISHED_DATE:2021-11-02,RENDER_DATE:2021-11-02" xmlns="http://www.w3.org/2000/svg" viewBox="0,0,200,100"><g transform="translate(0,0)"></g><g class="fg-bars cases-ep" fill="#00183f" stroke="none"><g><rect x="197" y="80.70714285714286" width="2" height="19.292857142857144" id="cases-ep-0"></rect></g><g><rect x="193.43636363636364" y="76.65714285714286" width="2" height="23.34285714285714" id="cases-ep-1"></rect></g><g><rect x="189.87272727272727" y="62.02857142857143" width="2" height="37.97142857142857" id="cases-ep-2"></rect></g><g><rect x="186.30909090909088" y="61.05714285714286" width="2" height="38.94285714285714" id="cases-ep-3"></rect></g><g><rect x="182.74545454545455" y="58.578571428571436" width="2" height="41.421428571428564" id="cases-ep-4"></rect></g><g><rect x="179.1818181818182" y="57.292857142857144" width="2" height="42.707142857142856" id="cases-ep-5"></rect></g><g><rect x="175.61818181818182" y="51.74285714285713" width="2" height="48.25714285714287" id="cases-ep-6"></rect></g><g><rect x="172.05454545454546" y="75.8" width="2" height="24.200000000000003" id="cases-ep-7"></rect></g><g><rect x="168.49090909090907" y="75.10714285714286" width="2" height="24.89285714285714" id="cases-ep-8"></rect></g><g><rect x="164.92727272727274" y="63.4" width="2" height="36.6" id="cases-ep-9"></rect></g><g><rect x="161.36363636363637" y="63.18571428571429" width="2" height="36.81428571428571" id="cases-ep-10"></rect></g><g><rect x="157.8" y="60.5" width="2" height="39.5" id="cases-ep-11"></rect></g><g><rect x="154.23636363636365" y="59.16428571428571" width="2" height="40.83571428571429" id="cases-ep-12"></rect></g><g><rect x="150.6727272727273" y="59.32142857142857" width="2" height="40.67857142857143" id="cases-ep-13"></rect></g><g><rect x="147.1090909090909" y="77.23571428571428" width="2" height="22.76428571428572" id="cases-ep-14"></rect></g><g><rect x="143.54545454545453" y="75.50714285714287" width="2" height="24.492857142857133" id="cases-ep-15"></rect></g><g><rect x="139.9818181818182" y="63.642857142857146" width="2" height="36.357142857142854" id="cases-ep-16"></rect></g><g><rect x="136.41818181818184" y="62.614285714285714" width="2" height="37.385714285714286" id="cases-ep-17"></rect></g><g><rect x="132.85454545454544" y="57.699999999999996" width="2" height="42.300000000000004" id="cases-ep-18"></rect></g><g><rect x="129.29090909090908" y="56.207142857142856" width="2" height="43.792857142857144" id="cases-ep-19"></rect></g><g><rect x="125.72727272727273" y="52.207142857142856" width="2" height="47.792857142857144" id="cases-ep-20"></rect></g><g><rect x="122.16363636363636" y="76.25714285714285" width="2" height="23.742857142857147" id="cases-ep-21"></rect></g><g><rect x="118.6" y="74.2" width="2" height="25.799999999999997" id="cases-ep-22"></rect></g><g><rect x="115.03636363636363" y="59.77857142857144" width="2" height="40.22142857142856" id="cases-ep-23"></rect></g><g><rect x="111.47272727272728" y="59.13571428571429" width="2" height="40.86428571428571" id="cases-ep-24"></rect></g><g><rect x="107.90909090909089" y="56.19285714285714" width="2" height="43.80714285714286" id="cases-ep-25"></rect></g><g><rect x="104.34545454545456" y="52.36428571428571" width="2" height="47.63571428571429" id="cases-ep-26"></rect></g><g><rect x="100.78181818181817" y="46.12142857142857" width="2" height="53.87857142857143" id="cases-ep-27"></rect></g><g><rect x="97.21818181818183" y="73.61428571428573" width="2" height="26.385714285714272" id="cases-ep-28"></rect></g><g><rect x="93.65454545454546" y="70.21428571428572" width="2" height="29.785714285714278" id="cases-ep-29"></rect></g><g><rect x="90.09090909090911" y="56.49999999999999" width="2" height="43.50000000000001" id="cases-ep-30"></rect></g><g><rect x="86.52727272727273" y="54.10714285714286" width="2" height="45.89285714285714" id="cases-ep-31"></rect></g><g><rect x="82.96363636363637" y="47.68571428571428" width="2" height="52.31428571428572" id="cases-ep-32"></rect></g><g><rect x="79.4" y="46.785714285714285" width="2" height="53.214285714285715" id="cases-ep-33"></rect></g><g><rect x="75.83636363636364" y="37.9" width="2" height="62.1" id="cases-ep-34"></rect></g><g><rect x="72.27272727272727" y="70.68571428571428" width="2" height="29.314285714285717" id="cases-ep-35"></rect></g><g><rect x="68.70909090909092" y="65.27857142857142" width="2" height="34.721428571428575" id="cases-ep-36"></rect></g><g><rect x="65.14545454545454" y="48.12857142857143" width="2" height="51.87142857142857" id="cases-ep-37"></rect></g><g><rect x="61.58181818181818" y="44.07142857142857" width="2" height="55.92857142857143" id="cases-ep-38"></rect></g><g><rect x="58.018181818181816" y="37.40714285714286" width="2" height="62.59285714285714" id="cases-ep-39"></rect></g><g><rect x="54.454545454545446" y="33.107142857142854" width="2" height="66.89285714285714" id="cases-ep-40"></rect></g><g><rect x="50.89090909090908" y="26.3" width="2" height="73.7" id="cases-ep-41"></rect></g><g><rect x="47.32727272727273" y="62.278571428571425" width="2" height="37.721428571428575" id="cases-ep-42"></rect></g><g><rect x="43.76363636363636" y="55.87857142857142" width="2" height="44.12142857142858" id="cases-ep-43"></rect></g><g><rect x="40.199999999999996" y="33.971428571428575" width="2" height="66.02857142857142" id="cases-ep-44"></rect></g><g><rect x="36.636363636363626" y="27.814285714285713" width="2" height="72.18571428571428" id="cases-ep-45"></rect></g><g><rect x="33.072727272727285" y="19.799999999999997" width="2" height="80.2" id="cases-ep-46"></rect></g><g><rect x="29.509090909090922" y="12.19285714285714" width="2" height="87.80714285714286" id="cases-ep-47"></rect></g><g><rect x="25.945454545454556" y="52.98571428571428" width="2" height="47.01428571428572" id="cases-ep-48"></rect></g><g><rect x="22.38181818181819" y="62.085714285714275" width="2" height="37.914285714285725" id="cases-ep-49"></rect></g><g><rect x="18.818181818181824" y="52.31428571428572" width="2" height="47.68571428571428" id="cases-ep-50"></rect></g><g><rect x="15.254545454545461" y="29.47142857142857" width="2" height="70.52857142857142" id="cases-ep-51"></rect></g><g><rect x="11.690909090909095" y="22.40714285714286" width="2" height="77.59285714285714" id="cases-ep-52"></rect></g><g><rect x="8.12727272727273" y="9.078571428571426" width="2" height="90.92142857142858" id="cases-ep-53"></rect></g><g><rect x="4.563636363636365" y="13.035714285714285" width="2" height="86.96428571428572" id="cases-ep-54"></rect></g><g><rect x="1" y="6.035714285714288" width="2" height="93.96428571428571" id="cases-ep-55"></rect></g></g><g class="fg-line cases-ep" fill="none" stroke="#92c5de" stroke-width="2" stroke-linecap="round"><path d="M198,64.0091836734694L194.43636363636364,63.30816326530613L190.87272727272727,63.08673469387755L187.30909090909088,63.282653061224494L183.74545454545455,63.586734693877546L180.1818181818182,63.86122448979592L176.61818181818182,64.12857142857142L173.05454545454546,65.21122448979591L169.49090909090907,65.41632653061225L165.92727272727274,65.47346938775512L162.36363636363637,65.50816326530612L158.8,65.42653061224489L155.23636363636365,65.0265306122449L151.6727272727273,64.60408163265305L148.1090909090909,63.58775510204082L144.54545454545453,63.447959183673476L140.9818181818182,63.26122448979592L137.41818181818184,62.70918367346939L133.85454545454544,62.21224489795918L130.29090909090908,61.9969387755102L126.72727272727273,61.447959183673476L123.16363636363636,60.57857142857143L119.6,60.20102040816327L116.03636363636363,59.63163265306122L112.47272727272728,59.16326530612246L108.90909090909089,58.444897959183685L105.34545454545456,57.22959183673469L101.78181818181817,56.43265306122449L98.21818181818183,55.25816326530612L94.65454545454546,54.839795918367344L91.09090909090911,54.13469387755102L87.52727272727273,52.93877551020408L83.96363636363637,51.50510204081633L80.4,50.03673469387755L76.83636363636364,48.08265306122449L73.27272727272727,46.42551020408163L69.70909090909092,45.224489795918366L66.14545454545454,43.88163265306122L62.58181818181818,41.85918367346939L59.018181818181816,39.53673469387755L55.454545454545446,37.02142857142857L51.89090909090908,34.03367346938776L48.32727272727273,37.84591836734693L44.76363636363636,37.818367346938786L41.199999999999996,37.309183673469384L37.636363636363626,36.66632653061224L34.072727272727285,35.8938775510204L30.509090909090922,34.36224489795918L26.945454545454556,34.4826530612245L23.38181818181819,27.775510204081645L19.818181818181824,26.523469387755092L16.25454545454546,25.447959183673476L12.690909090909095,24.13469387755103L9.12727272727273,22.630612244897954L5.563636363636365,21.809183673469377L2,20.00612244897959"></path></g></svg>