<svg meta="{&quot;DATA_PUBLISHED_DATE&quot;:&quot;2022-12-08&quot;,&quot;RENDER_DATE&quot;:&quot;2022-12-15&quot;,&quot;FIRST_DATE&quot;:&quot;2022-10-05&quot;,&quot;LAST_DATE&quot;:&quot;2022-11-29&quot;}" xmlns="http://www.w3.org/2000/svg" viewBox="0,0,200,100"><g transform="translate(0,0)"></g><g class="fg-bars cases-ep" fill="#00183f" stroke="none"><g><rect x="197" y="18.428571428571427" width="2" height="81.57142857142857" id="cases-ep-0"></rect></g><g><rect x="193.43636363636364" y="1.4857142857142902" width="2" height="98.5142857142857" id="cases-ep-1"></rect></g><g><rect x="189.87272727272727" y="55.614285714285714" width="2" height="44.385714285714286" id="cases-ep-2"></rect></g><g><rect x="186.30909090909088" y="56.32142857142857" width="2" height="43.67857142857143" id="cases-ep-3"></rect></g><g><rect x="182.74545454545455" y="49.41428571428571" width="2" height="50.58571428571429" id="cases-ep-4"></rect></g><g><rect x="179.1818181818182" y="79.41428571428571" width="2" height="20.58571428571429" id="cases-ep-5"></rect></g><g><rect x="175.61818181818182" y="49.09285714285714" width="2" height="50.90714285714286" id="cases-ep-6"></rect></g><g><rect x="172.05454545454546" y="46.68571428571428" width="2" height="53.31428571428572" id="cases-ep-7"></rect></g><g><rect x="168.49090909090907" y="42.607142857142854" width="2" height="57.392857142857146" id="cases-ep-8"></rect></g><g><rect x="164.92727272727274" y="71.79285714285714" width="2" height="28.207142857142856" id="cases-ep-9"></rect></g><g><rect x="161.36363636363637" y="71.39285714285715" width="2" height="28.607142857142847" id="cases-ep-10"></rect></g><g><rect x="157.8" y="58.864285714285714" width="2" height="41.135714285714286" id="cases-ep-11"></rect></g><g><rect x="154.23636363636365" y="58.80000000000001" width="2" height="41.19999999999999" id="cases-ep-12"></rect></g><g><rect x="150.6727272727273" y="59.45" width="2" height="40.55" id="cases-ep-13"></rect></g><g><rect x="147.1090909090909" y="57.47857142857142" width="2" height="42.52142857142858" id="cases-ep-14"></rect></g><g><rect x="143.54545454545453" y="53.31428571428572" width="2" height="46.68571428571428" id="cases-ep-15"></rect></g><g><rect x="139.9818181818182" y="77.36428571428571" width="2" height="22.635714285714286" id="cases-ep-16"></rect></g><g><rect x="136.41818181818184" y="77.97857142857143" width="2" height="22.021428571428572" id="cases-ep-17"></rect></g><g><rect x="132.85454545454544" y="72.47142857142856" width="2" height="27.52857142857144" id="cases-ep-18"></rect></g><g><rect x="129.29090909090908" y="68.41428571428571" width="2" height="31.58571428571429" id="cases-ep-19"></rect></g><g><rect x="125.72727272727273" y="67.33571428571429" width="2" height="32.66428571428571" id="cases-ep-20"></rect></g><g><rect x="122.16363636363636" y="67.94285714285715" width="2" height="32.05714285714285" id="cases-ep-21"></rect></g><g><rect x="118.6" y="61.364285714285714" width="2" height="38.635714285714286" id="cases-ep-22"></rect></g><g><rect x="115.03636363636363" y="79.89285714285714" width="2" height="20.10714285714286" id="cases-ep-23"></rect></g><g><rect x="111.47272727272728" y="80.56428571428572" width="2" height="19.435714285714283" id="cases-ep-24"></rect></g><g><rect x="107.90909090909089" y="73.95" width="2" height="26.049999999999997" id="cases-ep-25"></rect></g><g><rect x="104.34545454545456" y="73.35000000000001" width="2" height="26.64999999999999" id="cases-ep-26"></rect></g><g><rect x="100.78181818181817" y="72.12142857142857" width="2" height="27.878571428571433" id="cases-ep-27"></rect></g><g><rect x="97.21818181818183" y="69.72142857142858" width="2" height="30.278571428571425" id="cases-ep-28"></rect></g><g><rect x="93.65454545454546" y="70.99285714285715" width="2" height="29.007142857142853" id="cases-ep-29"></rect></g><g><rect x="90.09090909090911" y="85.07857142857142" width="2" height="14.921428571428578" id="cases-ep-30"></rect></g><g><rect x="86.52727272727273" y="84.75714285714285" width="2" height="15.242857142857147" id="cases-ep-31"></rect></g><g><rect x="82.96363636363637" y="79.21428571428571" width="2" height="20.785714285714292" id="cases-ep-32"></rect></g><g><rect x="79.4" y="78.47857142857143" width="2" height="21.521428571428572" id="cases-ep-33"></rect></g><g><rect x="75.83636363636364" y="78.12857142857142" width="2" height="21.87142857142858" id="cases-ep-34"></rect></g><g><rect x="72.27272727272727" y="77.3" width="2" height="22.700000000000003" id="cases-ep-35"></rect></g><g><rect x="68.70909090909092" y="75.22857142857143" width="2" height="24.771428571428572" id="cases-ep-36"></rect></g><g><rect x="65.14545454545454" y="87.45" width="2" height="12.549999999999997" id="cases-ep-37"></rect></g><g><rect x="61.58181818181818" y="87" width="2" height="13" id="cases-ep-38"></rect></g><g><rect x="58.018181818181816" y="81.89285714285714" width="2" height="18.10714285714286" id="cases-ep-39"></rect></g><g><rect x="54.454545454545446" y="80.02142857142857" width="2" height="19.978571428571428" id="cases-ep-40"></rect></g><g><rect x="50.89090909090908" y="79.46428571428572" width="2" height="20.535714285714278" id="cases-ep-41"></rect></g><g><rect x="47.32727272727273" y="77.75" width="2" height="22.25" id="cases-ep-42"></rect></g><g><rect x="43.76363636363636" y="74.85" width="2" height="25.150000000000006" id="cases-ep-43"></rect></g><g><rect x="40.199999999999996" y="87.63571428571429" width="2" height="12.364285714285714" id="cases-ep-44"></rect></g><g><rect x="36.636363636363626" y="86.57857142857142" width="2" height="13.421428571428578" id="cases-ep-45"></rect></g><g><rect x="33.072727272727285" y="81.60714285714286" width="2" height="18.39285714285714" id="cases-ep-46"></rect></g><g><rect x="29.509090909090922" y="80.42142857142858" width="2" height="19.578571428571422" id="cases-ep-47"></rect></g><g><rect x="25.945454545454556" y="78.73571428571428" width="2" height="21.26428571428572" id="cases-ep-48"></rect></g><g><rect x="22.38181818181819" y="77.4" width="2" height="22.599999999999994" id="cases-ep-49"></rect></g><g><rect x="18.818181818181824" y="75.11428571428571" width="2" height="24.885714285714286" id="cases-ep-50"></rect></g><g><rect x="15.254545454545461" y="86.57857142857142" width="2" height="13.421428571428578" id="cases-ep-51"></rect></g><g><rect x="11.690909090909095" y="85.19285714285714" width="2" height="14.807142857142864" id="cases-ep-52"></rect></g><g><rect x="8.12727272727273" y="80.02142857142857" width="2" height="19.978571428571428" id="cases-ep-53"></rect></g><g><rect x="4.563636363636365" y="79.47857142857143" width="2" height="20.521428571428572" id="cases-ep-54"></rect></g><g><rect x="1" y="77.32142857142857" width="2" height="22.67857142857143" id="cases-ep-55"></rect></g></g><g class="fg-line cases-ep" fill="none" stroke="#92c5de" stroke-width="2" stroke-linecap="round"><path d="M198,44.2530612244898L194.43636363636364,48.28979591836735L190.87272727272727,54.16428571428571L187.30909090909088,56.47551020408164L183.74545454545455,58.62857142857143L180.1818181818182,59.978571428571435L176.61818181818182,57.03367346938775L173.05454545454546,58.513265306122456L169.49090909090907,60.05510204081632L165.92727272727274,61.584693877551025L162.36363636363637,62.38061224489796L158.8,63.32142857142857L155.23636363636365,65.26530612244899L151.6727272727273,66.63877551020408L148.1090909090909,67.76530612244898L144.54545454545453,69.26020408163265L140.9818181818182,70.41020408163266L137.41818181818184,70.77142857142857L133.85454545454544,71.14081632653063L130.29090909090908,71.35204081632654L126.72727272727273,72.05714285714286L123.16363636363636,72.7408163265306L119.6,72.99489795918367L116.03636363636363,74.3704081632653L112.47272727272728,75.11122448979592L108.90909090909089,75.71020408163265L105.34545454545456,76.46224489795918L101.78181818181817,77.19489795918368L98.21818181818183,78.0530612244898L94.65454545454546,79.13571428571429L91.09090909090911,79.7408163265306L87.52727272727273,80.07959183673469L83.96363636363637,80.4L80.4,80.78265306122448L76.83636363636364,81.0030612244898L73.27272727272727,81.1938775510204L69.70909090909092,81.25816326530612L66.14545454545454,81.20408163265306L62.58181818181818,81.23061224489796L59.018181818181816,81.17040816326531L55.454545454545446,81.12959183673469L51.89090909090908,81.18673469387755L48.32727272727273,81.08265306122449L44.76363636363636,81.0326530612245L41.199999999999996,81.07040816326531L37.636363636363626,80.91938775510204L34.072727272727285,80.72142857142856L30.509090909090922,80.49489795918367L26.945454545454556,80.36020408163266L23.38181818181819,80.15816326530613L19.818181818181824,79.80714285714285L16.25454545454546,79.25L12.690909090909095,79.05102040816327L9.12727272727273,78.69183673469388L5.563636363636365,78.2704081632653L2,77.70408163265306"></path></g></svg>