<svg meta="{&quot;DATA_PUBLISHED_DATE&quot;:&quot;2022-10-06&quot;,&quot;RENDER_DATE&quot;:&quot;2022-10-06&quot;,&quot;FIRST_DATE&quot;:&quot;2022-08-03&quot;,&quot;LAST_DATE&quot;:&quot;2022-09-27&quot;}" xmlns="http://www.w3.org/2000/svg" viewBox="0,0,200,100"><g transform="translate(0,0)"></g><g class="fg-bars cases-ep" fill="#00183f" stroke="none"><g><rect x="197" y="76.1625" width="2" height="23.837500000000006" id="cases-ep-0"></rect></g><g><rect x="193.43636363636364" y="72.64999999999999" width="2" height="27.35000000000001" id="cases-ep-1"></rect></g><g><rect x="189.87272727272727" y="86.65625" width="2" height="13.34375" id="cases-ep-2"></rect></g><g><rect x="186.30909090909088" y="84.95625" width="2" height="15.043750000000003" id="cases-ep-3"></rect></g><g><rect x="182.74545454545455" y="79.41875" width="2" height="20.581249999999997" id="cases-ep-4"></rect></g><g><rect x="179.1818181818182" y="77.68125" width="2" height="22.318749999999994" id="cases-ep-5"></rect></g><g><rect x="175.61818181818182" y="76.5125" width="2" height="23.487499999999997" id="cases-ep-6"></rect></g><g><rect x="172.05454545454546" y="74.20625000000001" width="2" height="25.79374999999999" id="cases-ep-7"></rect></g><g><rect x="168.49090909090907" y="70.61874999999999" width="2" height="29.38125000000001" id="cases-ep-8"></rect></g><g><rect x="164.92727272727274" y="84.85625" width="2" height="15.143749999999997" id="cases-ep-9"></rect></g><g><rect x="161.36363636363637" y="82.99375" width="2" height="17.006249999999994" id="cases-ep-10"></rect></g><g><rect x="157.8" y="76.375" width="2" height="23.625" id="cases-ep-11"></rect></g><g><rect x="154.23636363636365" y="75.15" width="2" height="24.849999999999994" id="cases-ep-12"></rect></g><g><rect x="150.6727272727273" y="72.69375" width="2" height="27.306250000000006" id="cases-ep-13"></rect></g><g><rect x="147.1090909090909" y="69.15" width="2" height="30.849999999999994" id="cases-ep-14"></rect></g><g><rect x="143.54545454545453" y="64.93124999999999" width="2" height="35.06875000000001" id="cases-ep-15"></rect></g><g><rect x="139.9818181818182" y="81.27499999999999" width="2" height="18.72500000000001" id="cases-ep-16"></rect></g><g><rect x="136.41818181818184" y="79.83125" width="2" height="20.168750000000003" id="cases-ep-17"></rect></g><g><rect x="132.85454545454544" y="70.20625" width="2" height="29.793750000000003" id="cases-ep-18"></rect></g><g><rect x="129.29090909090908" y="67.39999999999999" width="2" height="32.60000000000001" id="cases-ep-19"></rect></g><g><rect x="125.72727272727273" y="63.21875" width="2" height="36.78125" id="cases-ep-20"></rect></g><g><rect x="122.16363636363636" y="51.73749999999999" width="2" height="48.26250000000001" id="cases-ep-21"></rect></g><g><rect x="118.6" y="79.41875" width="2" height="20.581249999999997" id="cases-ep-22"></rect></g><g><rect x="115.03636363636363" y="80.36875" width="2" height="19.631249999999994" id="cases-ep-23"></rect></g><g><rect x="111.47272727272728" y="77.9375" width="2" height="22.0625" id="cases-ep-24"></rect></g><g><rect x="107.90909090909089" y="66.375" width="2" height="33.625" id="cases-ep-25"></rect></g><g><rect x="104.34545454545456" y="61.731249999999996" width="2" height="38.268750000000004" id="cases-ep-26"></rect></g><g><rect x="100.78181818181817" y="57.550000000000004" width="2" height="42.449999999999996" id="cases-ep-27"></rect></g><g><rect x="97.21818181818183" y="52.33749999999999" width="2" height="47.66250000000001" id="cases-ep-28"></rect></g><g><rect x="93.65454545454546" y="44.15625" width="2" height="55.84375" id="cases-ep-29"></rect></g><g><rect x="90.09090909090911" y="72.28125000000001" width="2" height="27.718749999999986" id="cases-ep-30"></rect></g><g><rect x="86.52727272727273" y="70.1375" width="2" height="29.862499999999997" id="cases-ep-31"></rect></g><g><rect x="82.96363636363637" y="54.41875" width="2" height="45.58125" id="cases-ep-32"></rect></g><g><rect x="79.4" y="52.73125000000001" width="2" height="47.26874999999999" id="cases-ep-33"></rect></g><g><rect x="75.83636363636364" y="47.45" width="2" height="52.55" id="cases-ep-34"></rect></g><g><rect x="72.27272727272727" y="40.94375" width="2" height="59.05625" id="cases-ep-35"></rect></g><g><rect x="68.70909090909092" y="31.43125" width="2" height="68.56875" id="cases-ep-36"></rect></g><g><rect x="65.14545454545454" y="66.35625" width="2" height="33.64375" id="cases-ep-37"></rect></g><g><rect x="61.58181818181818" y="62.41875" width="2" height="37.58125" id="cases-ep-38"></rect></g><g><rect x="58.018181818181816" y="47.881249999999994" width="2" height="52.118750000000006" id="cases-ep-39"></rect></g><g><rect x="54.454545454545446" y="43.7375" width="2" height="56.2625" id="cases-ep-40"></rect></g><g><rect x="50.89090909090908" y="38.5625" width="2" height="61.4375" id="cases-ep-41"></rect></g><g><rect x="47.32727272727273" y="31.775" width="2" height="68.225" id="cases-ep-42"></rect></g><g><rect x="43.76363636363636" y="25.349999999999994" width="2" height="74.65" id="cases-ep-43"></rect></g><g><rect x="40.199999999999996" y="61.706250000000004" width="2" height="38.293749999999996" id="cases-ep-44"></rect></g><g><rect x="36.636363636363626" y="58.98125000000001" width="2" height="41.01874999999999" id="cases-ep-45"></rect></g><g><rect x="33.072727272727285" y="40.275000000000006" width="2" height="59.724999999999994" id="cases-ep-46"></rect></g><g><rect x="29.509090909090922" y="35.74375" width="2" height="64.25625" id="cases-ep-47"></rect></g><g><rect x="25.945454545454556" y="29.418750000000003" width="2" height="70.58125" id="cases-ep-48"></rect></g><g><rect x="22.38181818181819" y="23.375" width="2" height="76.625" id="cases-ep-49"></rect></g><g><rect x="18.818181818181824" y="9.468750000000004" width="2" height="90.53125" id="cases-ep-50"></rect></g><g><rect x="15.254545454545461" y="55.356249999999996" width="2" height="44.643750000000004" id="cases-ep-51"></rect></g><g><rect x="11.690909090909095" y="50.324999999999996" width="2" height="49.675000000000004" id="cases-ep-52"></rect></g><g><rect x="8.12727272727273" y="27.456250000000004" width="2" height="72.54374999999999" id="cases-ep-53"></rect></g><g><rect x="4.563636363636365" y="23.562499999999996" width="2" height="76.4375" id="cases-ep-54"></rect></g><g><rect x="1" y="14.506249999999998" width="2" height="85.49375" id="cases-ep-55"></rect></g></g><g class="fg-line cases-ep" fill="none" stroke="#92c5de" stroke-width="2" stroke-linecap="round"><path d="M198,79.14821428571427L194.43636363636364,78.86875L190.87272727272727,78.57857142857144L187.30909090909088,78.32142857142857L183.74545454545455,78.04107142857143L180.1818181818182,77.60625L176.61818181818182,77.24464285714285L173.05454545454546,76.69910714285714L169.49090909090907,75.97678571428571L165.92727272727274,75.16428571428571L162.36363636363637,74.65267857142857L158.8,74.20089285714285L155.23636363636365,73.31964285714285L151.6727272727273,72.2125L148.1090909090909,70.85892857142856L144.54545454545453,68.37142857142857L140.9818181818182,70.44107142857143L137.41818181818184,70.31160714285714L133.85454545454544,70.04107142857143L130.29090909090908,69.49375L126.72727272727273,68.68392857142858L123.16363636363636,67.87410714285714L119.6,67.95982142857142L116.03636363636363,62.92232142857143L112.47272727272728,61.76696428571429L108.90909090909089,60.652678571428574L105.34545454545456,58.944642857142846L101.78181818181817,57.65892857142858L98.21818181818183,56.21607142857143L94.65454545454546,54.58839285714285L91.09090909090911,52.770535714285714L87.52727272727273,51.924107142857146L83.96363636363637,50.82142857142857L80.4,49.887499999999996L76.83636363636364,48.60267857142857L73.27272727272727,47.33303571428571L69.70909090909092,46.02321428571429L66.14545454545454,45.15446428571429L62.58181818181818,44.490178571428565L59.018181818181816,43.99910714285714L55.454545454545446,42.912499999999994L51.89090909090908,41.77053571428571L48.32727272727273,40.46428571428571L44.76363636363636,39.264285714285705L41.199999999999996,36.99553571428571L37.636363636363626,36.08839285714286L34.072727272727285,34.85178571428571L30.509090909090922,33.020535714285714L26.945454545454556,31.28035714285714L23.38181818181819,29.15L19.818181818181824,26.463392857142853L16.25454545454546,23.685714285714287L12.690909090909095,22.740178571428572L9.12727272727273,21.585714285714285L5.563636363636365,19.578571428571433L2,17.097321428571433"></path></g></svg>