<svg meta="{&quot;DATA_PUBLISHED_DATE&quot;:&quot;2022-03-09&quot;,&quot;RENDER_DATE&quot;:&quot;2022-03-09&quot;,&quot;FIRST_DATE&quot;:&quot;2021-12-21&quot;,&quot;LAST_DATE&quot;:&quot;2022-02-14&quot;}" xmlns="http://www.w3.org/2000/svg" viewBox="0,0,200,100"><g transform="translate(0,0)"></g><g class="fg-bars death-date" fill="#00183f" stroke="none"><g><rect x="197" y="55.769230769230774" width="2" height="44.230769230769226" id="death-date-0"></rect></g><g><rect x="193.43636363636364" y="56.15384615384615" width="2" height="43.84615384615385" id="death-date-1"></rect></g><g><rect x="189.87272727272727" y="55.769230769230774" width="2" height="44.230769230769226" id="death-date-2"></rect></g><g><rect x="186.30909090909088" y="47.692307692307686" width="2" height="52.307692307692314" id="death-date-3"></rect></g><g><rect x="182.74545454545455" y="49.23076923076923" width="2" height="50.76923076923077" id="death-date-4"></rect></g><g><rect x="179.1818181818182" y="37.69230769230769" width="2" height="62.30769230769231" id="death-date-5"></rect></g><g><rect x="175.61818181818182" y="28.46153846153846" width="2" height="71.53846153846155" id="death-date-6"></rect></g><g><rect x="172.05454545454546" y="38.84615384615384" width="2" height="61.15384615384616" id="death-date-7"></rect></g><g><rect x="168.49090909090907" y="40.38461538461539" width="2" height="59.61538461538461" id="death-date-8"></rect></g><g><rect x="164.92727272727274" y="28.846153846153843" width="2" height="71.15384615384616" id="death-date-9"></rect></g><g><rect x="161.36363636363637" y="22.307692307692307" width="2" height="77.6923076923077" id="death-date-10"></rect></g><g><rect x="157.8" y="27.30769230769231" width="2" height="72.6923076923077" id="death-date-11"></rect></g><g><rect x="154.23636363636365" y="18.846153846153847" width="2" height="81.15384615384616" id="death-date-12"></rect></g><g><rect x="150.6727272727273" y="12.307692307692308" width="2" height="87.6923076923077" id="death-date-13"></rect></g><g><rect x="147.1090909090909" y="19.615384615384613" width="2" height="80.38461538461539" id="death-date-14"></rect></g><g><rect x="143.54545454545453" y="6.538461538461537" width="2" height="93.46153846153847" id="death-date-15"></rect></g><g><rect x="139.9818181818182" y="8.461538461538465" width="2" height="91.53846153846153" id="death-date-16"></rect></g><g><rect x="136.41818181818184" y="22.307692307692307" width="2" height="77.6923076923077" id="death-date-17"></rect></g><g><rect x="132.85454545454544" y="16.153846153846153" width="2" height="83.84615384615384" id="death-date-18"></rect></g><g><rect x="129.29090909090908" y="22.69230769230769" width="2" height="77.3076923076923" id="death-date-19"></rect></g><g><rect x="125.72727272727273" y="18.461538461538463" width="2" height="81.53846153846153" id="death-date-20"></rect></g><g><rect x="122.16363636363636" y="31.92307692307692" width="2" height="68.07692307692308" id="death-date-21"></rect></g><g><rect x="118.6" y="14.230769230769235" width="2" height="85.76923076923076" id="death-date-22"></rect></g><g><rect x="115.03636363636363" y="21.153846153846157" width="2" height="78.84615384615384" id="death-date-23"></rect></g><g><rect x="111.47272727272728" y="15.769230769230768" width="2" height="84.23076923076923" id="death-date-24"></rect></g><g><rect x="107.90909090909089" y="19.999999999999996" width="2" height="80" id="death-date-25"></rect></g><g><rect x="104.34545454545456" y="15.769230769230768" width="2" height="84.23076923076923" id="death-date-26"></rect></g><g><rect x="100.78181818181817" y="24.615384615384617" width="2" height="75.38461538461539" id="death-date-27"></rect></g><g><rect x="97.21818181818183" y="33.07692307692308" width="2" height="66.92307692307692" id="death-date-28"></rect></g><g><rect x="93.65454545454546" y="30.76923076923077" width="2" height="69.23076923076923" id="death-date-29"></rect></g><g><rect x="90.09090909090911" y="30.384615384615387" width="2" height="69.61538461538461" id="death-date-30"></rect></g><g><rect x="86.52727272727273" y="39.23076923076923" width="2" height="60.76923076923077" id="death-date-31"></rect></g><g><rect x="82.96363636363637" y="39.23076923076923" width="2" height="60.76923076923077" id="death-date-32"></rect></g><g><rect x="79.4" y="34.61538461538461" width="2" height="65.38461538461539" id="death-date-33"></rect></g><g><rect x="75.83636363636364" y="38.07692307692307" width="2" height="61.92307692307693" id="death-date-34"></rect></g><g><rect x="72.27272727272727" y="48.46153846153847" width="2" height="51.53846153846153" id="death-date-35"></rect></g><g><rect x="68.70909090909092" y="57.30769230769231" width="2" height="42.69230769230769" id="death-date-36"></rect></g><g><rect x="65.14545454545454" y="49.61538461538461" width="2" height="50.38461538461539" id="death-date-37"></rect></g><g><rect x="61.58181818181818" y="56.53846153846154" width="2" height="43.46153846153846" id="death-date-38"></rect></g><g><rect x="58.018181818181816" y="54.61538461538462" width="2" height="45.38461538461538" id="death-date-39"></rect></g><g><rect x="54.454545454545446" y="53.07692307692308" width="2" height="46.92307692307692" id="death-date-40"></rect></g><g><rect x="50.89090909090908" y="62.69230769230769" width="2" height="37.30769230769231" id="death-date-41"></rect></g><g><rect x="47.32727272727273" y="62.30769230769231" width="2" height="37.69230769230769" id="death-date-42"></rect></g><g><rect x="43.76363636363636" y="71.92307692307692" width="2" height="28.07692307692308" id="death-date-43"></rect></g><g><rect x="40.199999999999996" y="68.46153846153847" width="2" height="31.538461538461533" id="death-date-44"></rect></g><g><rect x="36.636363636363626" y="68.46153846153847" width="2" height="31.538461538461533" id="death-date-45"></rect></g><g><rect x="33.072727272727285" y="76.15384615384615" width="2" height="23.846153846153854" id="death-date-46"></rect></g><g><rect x="29.509090909090922" y="73.07692307692308" width="2" height="26.92307692307692" id="death-date-47"></rect></g><g><rect x="25.945454545454556" y="80.38461538461539" width="2" height="19.615384615384613" id="death-date-48"></rect></g><g><rect x="22.38181818181819" y="70.76923076923076" width="2" height="29.23076923076924" id="death-date-49"></rect></g><g><rect x="18.818181818181824" y="79.23076923076923" width="2" height="20.769230769230774" id="death-date-50"></rect></g><g><rect x="15.254545454545461" y="76.92307692307692" width="2" height="23.07692307692308" id="death-date-51"></rect></g><g><rect x="11.690909090909095" y="75" width="2" height="25" id="death-date-52"></rect></g><g><rect x="8.12727272727273" y="73.46153846153847" width="2" height="26.538461538461533" id="death-date-53"></rect></g><g><rect x="4.563636363636365" y="80.38461538461539" width="2" height="19.615384615384613" id="death-date-54"></rect></g><g><rect x="1" y="77.3076923076923" width="2" height="22.692307692307693" id="death-date-55"></rect></g></g><g class="fg-line death-date" fill="none" stroke="#92c5de" stroke-width="2" stroke-linecap="round"><path d="M198,47.25274725274725L194.43636363636364,44.83516483516484L190.87272727272727,42.582417582417584L187.30909090909088,38.736263736263744L183.74545454545455,35.10989010989011L180.1818181818182,31.978021978021975L176.61818181818182,29.28571428571428L173.05454545454546,26.97802197802197L169.49090909090907,24.230769230769234L165.92727272727274,19.395604395604394L162.36363636363637,16.483516483516482L158.8,16.483516483516482L155.23636363636365,14.890109890109892L151.6727272727273,15.43956043956044L148.1090909090909,16.318681318681318L144.54545454545453,18.07692307692308L140.9818181818182,19.175824175824175L137.41818181818184,20.989010989010993L133.85454545454544,20.05494505494505L130.29090909090908,20.60439560439561L126.72727272727273,19.615384615384613L123.16363636363636,20.49450549450549L119.6,20.659340659340664L116.03636363636363,23.02197802197803L112.47272727272728,24.340659340659343L108.90909090909089,27.692307692307693L105.34545454545456,30.43956043956044L101.78181818181817,33.131868131868124L98.21818181818183,35.05494505494505L94.65454545454546,37.252747252747255L91.09090909090911,41.043956043956044L87.52727272727273,43.79120879120879L83.96363636363637,46.26373626373626L80.4,48.46153846153847L76.83636363636364,51.098901098901095L73.27272727272727,54.61538461538462L69.70909090909092,56.59340659340659L66.14545454545454,58.68131868131867L62.58181818181818,61.37362637362638L59.018181818181816,63.07692307692307L55.454545454545446,66.15384615384615L51.89090909090908,69.01098901098901L48.32727272727273,71.53846153846153L44.76363636363636,72.74725274725274L41.199999999999996,73.79120879120879L37.636363636363626,75L34.072727272727285,75.93406593406593L30.509090909090922,75.54945054945054L26.945454545454556,76.59340659340658L23.38181818181819,76.15384615384615L19.818181818181824,76.86813186813185L16.25454545454546,75.87912087912088L12.690909090909095,76.20879120879121L9.12727272727273,76.37362637362637L5.563636363636365,76.0989010989011L2,75.27472527472527"></path></g></svg>