<svg meta="{&quot;DATA_PUBLISHED_DATE&quot;:&quot;2022-02-10&quot;,&quot;RENDER_DATE&quot;:&quot;2022-02-10&quot;,&quot;FIRST_DATE&quot;:&quot;2021-12-08&quot;,&quot;LAST_DATE&quot;:&quot;2022-02-01&quot;}" xmlns="http://www.w3.org/2000/svg" viewBox="0,0,200,100"><g transform="translate(0,0)"></g><g class="fg-bars cases-ep" fill="#00183f" stroke="none"><g><rect x="197" y="80.71875" width="2" height="19.28125" id="cases-ep-0"></rect></g><g><rect x="193.43636363636364" y="76.265625" width="2" height="23.734375" id="cases-ep-1"></rect></g><g><rect x="189.87272727272727" y="91.21187499999999" width="2" height="8.788125000000008" id="cases-ep-2"></rect></g><g><rect x="186.30909090909088" y="87.42687500000001" width="2" height="12.57312499999999" id="cases-ep-3"></rect></g><g><rect x="182.74545454545455" y="76.100625" width="2" height="23.899375000000006" id="cases-ep-4"></rect></g><g><rect x="179.1818181818182" y="72.6325" width="2" height="27.367500000000007" id="cases-ep-5"></rect></g><g><rect x="175.61818181818182" y="67.66875" width="2" height="32.33125" id="cases-ep-6"></rect></g><g><rect x="172.05454545454546" y="62.843125" width="2" height="37.156875" id="cases-ep-7"></rect></g><g><rect x="168.49090909090907" y="56.92125" width="2" height="43.07875" id="cases-ep-8"></rect></g><g><rect x="164.92727272727274" y="83.08250000000001" width="2" height="16.91749999999999" id="cases-ep-9"></rect></g><g><rect x="161.36363636363637" y="75.594375" width="2" height="24.405625" id="cases-ep-10"></rect></g><g><rect x="157.8" y="51.974374999999995" width="2" height="48.025625000000005" id="cases-ep-11"></rect></g><g><rect x="154.23636363636365" y="43.910625" width="2" height="56.089375" id="cases-ep-12"></rect></g><g><rect x="150.6727272727273" y="37.444374999999994" width="2" height="62.555625000000006" id="cases-ep-13"></rect></g><g><rect x="147.1090909090909" y="25.406249999999996" width="2" height="74.59375" id="cases-ep-14"></rect></g><g><rect x="143.54545454545453" y="50.118125" width="2" height="49.881875" id="cases-ep-15"></rect></g><g><rect x="139.9818181818182" y="75.948125" width="2" height="24.051874999999995" id="cases-ep-16"></rect></g><g><rect x="136.41818181818184" y="64.14500000000001" width="2" height="35.85499999999999" id="cases-ep-17"></rect></g><g><rect x="132.85454545454544" y="35.29624999999999" width="2" height="64.70375000000001" id="cases-ep-18"></rect></g><g><rect x="129.29090909090908" y="29.445624999999996" width="2" height="70.55437500000001" id="cases-ep-19"></rect></g><g><rect x="125.72727272727273" y="22.485625" width="2" height="77.514375" id="cases-ep-20"></rect></g><g><rect x="122.16363636363636" y="17.590625000000003" width="2" height="82.409375" id="cases-ep-21"></rect></g><g><rect x="118.6" y="14.130624999999997" width="2" height="85.869375" id="cases-ep-22"></rect></g><g><rect x="115.03636363636363" y="66.70812500000001" width="2" height="33.29187499999999" id="cases-ep-23"></rect></g><g><rect x="111.47272727272728" y="53.643125000000005" width="2" height="46.356874999999995" id="cases-ep-24"></rect></g><g><rect x="107.90909090909089" y="17.423750000000005" width="2" height="82.57624999999999" id="cases-ep-25"></rect></g><g><rect x="104.34545454545456" y="12.82875" width="2" height="87.17125" id="cases-ep-26"></rect></g><g><rect x="100.78181818181817" y="6.0799999999999965" width="2" height="93.92" id="cases-ep-27"></rect></g><g><rect x="97.21818181818183" y="4.874374999999997" width="2" height="95.125625" id="cases-ep-28"></rect></g><g><rect x="93.65454545454546" y="15.911249999999999" width="2" height="84.08875" id="cases-ep-29"></rect></g><g><rect x="90.09090909090911" y="66.1775" width="2" height="33.822500000000005" id="cases-ep-30"></rect></g><g><rect x="86.52727272727273" y="80.85875" width="2" height="19.14125" id="cases-ep-31"></rect></g><g><rect x="82.96363636363637" y="67.001875" width="2" height="32.998125" id="cases-ep-32"></rect></g><g><rect x="79.4" y="47.39" width="2" height="52.61" id="cases-ep-33"></rect></g><g><rect x="75.83636363636364" y="45.06375" width="2" height="54.93625" id="cases-ep-34"></rect></g><g><rect x="72.27272727272727" y="45.805625000000006" width="2" height="54.194374999999994" id="cases-ep-35"></rect></g><g><rect x="68.70909090909092" y="54.06187499999999" width="2" height="45.93812500000001" id="cases-ep-36"></rect></g><g><rect x="65.14545454545454" y="78.29" width="2" height="21.709999999999994" id="cases-ep-37"></rect></g><g><rect x="61.58181818181818" y="91.258125" width="2" height="8.741874999999993" id="cases-ep-38"></rect></g><g><rect x="58.018181818181816" y="86.58250000000001" width="2" height="13.41749999999999" id="cases-ep-39"></rect></g><g><rect x="54.454545454545446" y="80.091875" width="2" height="19.908125" id="cases-ep-40"></rect></g><g><rect x="50.89090909090908" y="80.39625000000001" width="2" height="19.60374999999999" id="cases-ep-41"></rect></g><g><rect x="47.32727272727273" y="83.145625" width="2" height="16.854375000000005" id="cases-ep-42"></rect></g><g><rect x="43.76363636363636" y="85.71124999999999" width="2" height="14.288750000000007" id="cases-ep-43"></rect></g><g><rect x="40.199999999999996" y="93.38374999999999" width="2" height="6.616250000000008" id="cases-ep-44"></rect></g><g><rect x="36.636363636363626" y="93.978125" width="2" height="6.021874999999994" id="cases-ep-45"></rect></g><g><rect x="33.072727272727285" y="93.0925" width="2" height="6.907499999999999" id="cases-ep-46"></rect></g><g><rect x="29.509090909090922" y="93.653125" width="2" height="6.346874999999997" id="cases-ep-47"></rect></g><g><rect x="25.945454545454556" y="93.72749999999999" width="2" height="6.272500000000008" id="cases-ep-48"></rect></g><g><rect x="22.38181818181819" y="94.795625" width="2" height="5.204374999999999" id="cases-ep-49"></rect></g><g><rect x="18.818181818181824" y="94.46" width="2" height="5.540000000000006" id="cases-ep-50"></rect></g><g><rect x="15.254545454545461" y="97.271875" width="2" height="2.7281250000000057" id="cases-ep-51"></rect></g><g><rect x="11.690909090909095" y="97.35374999999999" width="2" height="2.646250000000009" id="cases-ep-52"></rect></g><g><rect x="8.12727272727273" y="96.38250000000001" width="2" height="3.6174999999999926" id="cases-ep-53"></rect></g><g><rect x="4.563636363636365" y="96.391875" width="2" height="3.608125000000001" id="cases-ep-54"></rect></g><g><rect x="1" y="95.92625" width="2" height="4.073750000000004" id="cases-ep-55"></rect></g></g><g class="fg-line cases-ep" fill="none" stroke="#92c5de" stroke-width="2" stroke-linecap="round"><path d="M198,78.86071428571428L194.43636363636364,76.30705357142857L190.87272727272727,73.54357142857143L187.30909090909088,72.38223214285715L183.74545454545455,70.69187500000001L180.1818181818182,67.24526785714286L176.61818181818182,63.14214285714286L173.05454545454546,58.824374999999996L169.49090909090907,53.47625L165.92727272727274,52.504375L162.36363636363637,51.48517857142857L158.8,49.84955357142857L155.23636363636365,47.46696428571428L151.6727272727273,45.400535714285716L148.1090909090909,43.26357142857143L144.54545454545453,42.14705357142857L140.9818181818182,37.00598214285715L137.41818181818184,35.68598214285714L133.85454545454544,34.18571428571428L130.29090909090908,31.632499999999997L126.72727272727273,29.25866071428571L123.16363636363636,26.915L119.6,25.098392857142848L116.03636363636363,25.352767857142855L112.47272727272728,25.276964285714286L108.90909090909089,29.164910714285718L105.34545454545456,36.2475L101.78181818181817,41.184821428571425L98.21818181818183,46.753928571428574L94.65454545454546,52.60125L91.09090909090911,58.051339285714285L87.52727272727273,59.78169642857143L83.96363636363637,61.26732142857143L80.4,64.06455357142858L76.83636363636364,68.73625L73.27272727272727,73.78375L69.70909090909092,79.11803571428571L66.14545454545454,83.639375L62.58181818181818,85.795625L59.018181818181816,86.18419642857143L55.454545454545446,87.11419642857143L51.89090909090908,89.05151785714285L48.32727272727273,90.95598214285714L44.76363636363636,92.62026785714286L41.199999999999996,93.87008928571429L37.636363636363626,94.42553571428572L34.072727272727285,94.90776785714286L30.509090909090922,95.37776785714286L26.945454545454556,95.76901785714286L23.38181818181819,96.083125L19.818181818181824,96.24008928571428L16.25454545454546,96.36571428571429L12.690909090909095,96.4088392857143L9.12727272727273,96.41348214285715L5.563636363636365,96.37785714285714L2,96.32714285714286"></path></g></svg>