<svg meta="{&quot;DATA_PUBLISHED_DATE&quot;:&quot;2023-06-15&quot;,&quot;RENDER_DATE&quot;:&quot;2023-06-15&quot;,&quot;FIRST_DATE&quot;:&quot;2023-04-13&quot;,&quot;LAST_DATE&quot;:&quot;2023-06-07&quot;}" xmlns="http://www.w3.org/2000/svg" viewBox="0,0,200,100"><g transform="translate(0,0)"></g><g class="fg-bars tests-vaccines" fill="#00183f" stroke="none"><g><rect x="197" y="52.68181818181819" width="2" height="47.31818181818181" id="tests-vaccines-0"></rect></g><g><rect x="193.43636363636364" y="51.163636363636364" width="2" height="48.836363636363636" id="tests-vaccines-1"></rect></g><g><rect x="189.87272727272727" y="51.14090909090909" width="2" height="48.85909090909091" id="tests-vaccines-2"></rect></g><g><rect x="186.30909090909088" y="88.47727272727272" width="2" height="11.52272727272728" id="tests-vaccines-3"></rect></g><g><rect x="182.74545454545455" y="82.43636363636364" width="2" height="17.563636363636363" id="tests-vaccines-4"></rect></g><g><rect x="179.1818181818182" y="45.831818181818186" width="2" height="54.168181818181814" id="tests-vaccines-5"></rect></g><g><rect x="175.61818181818182" y="47.877272727272725" width="2" height="52.122727272727275" id="tests-vaccines-6"></rect></g><g><rect x="172.05454545454546" y="44.42272727272727" width="2" height="55.57727272727273" id="tests-vaccines-7"></rect></g><g><rect x="168.49090909090907" y="39.77272727272727" width="2" height="60.22727272727273" id="tests-vaccines-8"></rect></g><g><rect x="164.92727272727274" y="97.43181818181819" width="2" height="2.568181818181813" id="tests-vaccines-9"></rect></g><g><rect x="161.36363636363637" y="87.52272727272728" width="2" height="12.47727272727272" id="tests-vaccines-10"></rect></g><g><rect x="157.8" y="80.02727272727273" width="2" height="19.97272727272727" id="tests-vaccines-11"></rect></g><g><rect x="154.23636363636365" y="38.55" width="2" height="61.45" id="tests-vaccines-12"></rect></g><g><rect x="150.6727272727273" y="43.79090909090909" width="2" height="56.20909090909091" id="tests-vaccines-13"></rect></g><g><rect x="147.1090909090909" y="42.40454545454545" width="2" height="57.59545454545455" id="tests-vaccines-14"></rect></g><g><rect x="143.54545454545453" y="44.45454545454546" width="2" height="55.54545454545454" id="tests-vaccines-15"></rect></g><g><rect x="139.9818181818182" y="42.900000000000006" width="2" height="57.099999999999994" id="tests-vaccines-16"></rect></g><g><rect x="136.41818181818184" y="87.72272727272727" width="2" height="12.277272727272731" id="tests-vaccines-17"></rect></g><g><rect x="132.85454545454544" y="77.00909090909092" width="2" height="22.990909090909085" id="tests-vaccines-18"></rect></g><g><rect x="129.29090909090908" y="37.3" width="2" height="62.7" id="tests-vaccines-19"></rect></g><g><rect x="125.72727272727273" y="36.409090909090914" width="2" height="63.590909090909086" id="tests-vaccines-20"></rect></g><g><rect x="122.16363636363636" y="39.55909090909091" width="2" height="60.44090909090909" id="tests-vaccines-21"></rect></g><g><rect x="118.6" y="35.85909090909091" width="2" height="64.14090909090909" id="tests-vaccines-22"></rect></g><g><rect x="115.03636363636363" y="40.93636363636364" width="2" height="59.06363636363636" id="tests-vaccines-23"></rect></g><g><rect x="111.47272727272728" y="89.32272727272728" width="2" height="10.677272727272722" id="tests-vaccines-24"></rect></g><g><rect x="107.90909090909089" y="76.55454545454545" width="2" height="23.445454545454552" id="tests-vaccines-25"></rect></g><g><rect x="104.34545454545456" y="25.222727272727276" width="2" height="74.77727272727273" id="tests-vaccines-26"></rect></g><g><rect x="100.78181818181817" y="26.068181818181824" width="2" height="73.93181818181817" id="tests-vaccines-27"></rect></g><g><rect x="97.21818181818183" y="21.059090909090905" width="2" height="78.94090909090909" id="tests-vaccines-28"></rect></g><g><rect x="93.65454545454546" y="17.454545454545457" width="2" height="82.54545454545455" id="tests-vaccines-29"></rect></g><g><rect x="90.09090909090911" y="15.336363636363636" width="2" height="84.66363636363636" id="tests-vaccines-30"></rect></g><g><rect x="86.52727272727273" y="78.56818181818181" width="2" height="21.431818181818187" id="tests-vaccines-31"></rect></g><g><rect x="82.96363636363637" y="61.418181818181814" width="2" height="38.581818181818186" id="tests-vaccines-32"></rect></g><g><rect x="79.4" y="7.245454545454544" width="2" height="92.75454545454545" id="tests-vaccines-33"></rect></g><g><rect x="75.83636363636364" y="13.495454545454544" width="2" height="86.50454545454545" id="tests-vaccines-34"></rect></g><g><rect x="72.27272727272727" y="17.77727272727273" width="2" height="82.22272727272727" id="tests-vaccines-35"></rect></g><g><rect x="68.70909090909092" y="23.090909090909093" width="2" height="76.9090909090909" id="tests-vaccines-36"></rect></g><g><rect x="65.14545454545454" y="30.113636363636363" width="2" height="69.88636363636364" id="tests-vaccines-37"></rect></g><g><rect x="61.58181818181818" y="91.47727272727273" width="2" height="8.522727272727266" id="tests-vaccines-38"></rect></g><g><rect x="58.018181818181816" y="87.79090909090908" width="2" height="12.209090909090918" id="tests-vaccines-39"></rect></g><g><rect x="54.454545454545446" y="21.76818181818182" width="2" height="78.23181818181818" id="tests-vaccines-40"></rect></g><g><rect x="50.89090909090908" y="28.53181818181818" width="2" height="71.46818181818182" id="tests-vaccines-41"></rect></g><g><rect x="47.32727272727273" y="34.42727272727273" width="2" height="65.57272727272726" id="tests-vaccines-42"></rect></g><g><rect x="43.76363636363636" y="38.41818181818182" width="2" height="61.58181818181818" id="tests-vaccines-43"></rect></g><g><rect x="40.199999999999996" y="39.05" width="2" height="60.95" id="tests-vaccines-44"></rect></g><g><rect x="36.636363636363626" y="80.95" width="2" height="19.049999999999997" id="tests-vaccines-45"></rect></g><g><rect x="33.072727272727285" y="69.66818181818182" width="2" height="30.33181818181818" id="tests-vaccines-46"></rect></g><g><rect x="29.509090909090922" y="39.222727272727276" width="2" height="60.777272727272724" id="tests-vaccines-47"></rect></g><g><rect x="25.945454545454556" y="53.66818181818183" width="2" height="46.33181818181817" id="tests-vaccines-48"></rect></g><g><rect x="22.38181818181819" y="68.61818181818182" width="2" height="31.381818181818176" id="tests-vaccines-49"></rect></g><g><rect x="18.818181818181824" y="69.33636363636364" width="2" height="30.663636363636357" id="tests-vaccines-50"></rect></g><g><rect x="15.254545454545461" y="70.13636363636364" width="2" height="29.86363636363636" id="tests-vaccines-51"></rect></g><g><rect x="11.690909090909095" y="92.89090909090909" width="2" height="7.109090909090909" id="tests-vaccines-52"></rect></g><g><rect x="8.12727272727273" y="86.89545454545454" width="2" height="13.104545454545459" id="tests-vaccines-53"></rect></g><g><rect x="4.563636363636365" y="60.331818181818186" width="2" height="39.668181818181814" id="tests-vaccines-54"></rect></g><g><rect x="1" y="65.97272727272727" width="2" height="34.02727272727273" id="tests-vaccines-55"></rect></g></g><g class="fg-line tests-vaccines" fill="none" stroke="#92c5de" stroke-width="2" stroke-linecap="round"><path d="M198,59.944155844155844L194.43636363636364,58.76428571428571L190.87272727272727,57.137012987012994L187.30909090909088,63.74999999999999L183.74545454545455,63.61363636363636L180.1818181818182,63.26948051948052L176.61818181818182,62.229220779220775L173.05454545454546,61.64545454545455L169.49090909090907,61.35714285714287L165.92727272727274,62.02597402597403L162.36363636363637,54.23571428571429L158.8,54.26428571428572L155.23636363636365,53.83311688311688L151.6727272727273,53.654545454545456L148.1090909090909,52.6L144.54545454545453,52.19350649350649L140.9818181818182,50.96558441558441L137.41818181818184,50.685064935064936L133.85454545454544,50.913636363636364L130.29090909090908,50.84870129870129L126.72727272727273,49.12337662337662L123.16363636363636,47.646103896103895L119.6,45.00324675324675L116.03636363636363,42.374025974025976L112.47272727272728,38.71688311688312L108.90909090909089,37.18051948051948L105.34545454545456,35.018181818181816L101.78181818181817,32.45L98.21818181818183,30.653896103896106L94.65454545454546,30.185064935064943L91.09090909090911,30.99025974025974L87.52727272727273,33.101298701298695L83.96363636363637,34.945454545454545L80.4,38.71298701298701L76.83636363636364,40.78766233766233L73.27272727272727,42.93571428571429L69.70909090909092,45.31428571428572L66.14545454545454,47.5038961038961L62.58181818181818,48.78051948051948L59.018181818181816,47.27662337662337L55.454545454545446,44.68766233766234L51.89090909090908,47.18116883116883L48.32727272727273,50.77207792207792L44.76363636363636,55.65649350649351L41.199999999999996,60.07337662337662L37.636363636363626,64.51428571428572L34.072727272727285,66.22012987012987L30.509090909090922,68.68116883116883L26.945454545454556,71.69675324675325L23.38181818181819,73.45454545454547L19.818181818181824,72.87207792207792L16.25454545454546,72.33181818181818L12.690909090909095,71.64805194805194L9.12727272727273,72.01623376623377L5.563636363636365,71.45129870129871L2,71.8051948051948"></path></g></svg>