<svg meta="{&quot;DATA_PUBLISHED_DATE&quot;:&quot;2022-02-22&quot;,&quot;RENDER_DATE&quot;:&quot;2022-02-22&quot;,&quot;FIRST_DATE&quot;:&quot;2021-12-21&quot;,&quot;LAST_DATE&quot;:&quot;2022-02-14&quot;}" xmlns="http://www.w3.org/2000/svg" viewBox="0,0,200,100"><g transform="translate(0,0)"></g><g class="fg-bars tests-vaccines" fill="#00183f" stroke="none"><g><rect x="197" y="82.63571428571427" width="2" height="17.364285714285728" id="tests-vaccines-0"></rect></g><g><rect x="193.43636363636364" y="93.255" width="2" height="6.7450000000000045" id="tests-vaccines-1"></rect></g><g><rect x="189.87272727272727" y="82.45535714285714" width="2" height="17.54464285714286" id="tests-vaccines-2"></rect></g><g><rect x="186.30909090909088" y="66.91107142857142" width="2" height="33.08892857142858" id="tests-vaccines-3"></rect></g><g><rect x="182.74545454545455" y="74.71607142857142" width="2" height="25.283928571428575" id="tests-vaccines-4"></rect></g><g><rect x="179.1818181818182" y="73.52499999999999" width="2" height="26.47500000000001" id="tests-vaccines-5"></rect></g><g><rect x="175.61818181818182" y="73.74071428571429" width="2" height="26.25928571428571" id="tests-vaccines-6"></rect></g><g><rect x="172.05454545454546" y="72.80678571428571" width="2" height="27.19321428571429" id="tests-vaccines-7"></rect></g><g><rect x="168.49090909090907" y="89.45214285714286" width="2" height="10.54785714285714" id="tests-vaccines-8"></rect></g><g><rect x="164.92727272727274" y="76.53642857142857" width="2" height="23.463571428571427" id="tests-vaccines-9"></rect></g><g><rect x="161.36363636363637" y="56.90857142857143" width="2" height="43.09142857142857" id="tests-vaccines-10"></rect></g><g><rect x="157.8" y="67.46428571428571" width="2" height="32.53571428571429" id="tests-vaccines-11"></rect></g><g><rect x="154.23636363636365" y="66.00785714285713" width="2" height="33.992142857142866" id="tests-vaccines-12"></rect></g><g><rect x="150.6727272727273" y="65.22392857142857" width="2" height="34.77607142857143" id="tests-vaccines-13"></rect></g><g><rect x="147.1090909090909" y="61.605357142857144" width="2" height="38.394642857142856" id="tests-vaccines-14"></rect></g><g><rect x="143.54545454545453" y="86.67857142857143" width="2" height="13.32142857142857" id="tests-vaccines-15"></rect></g><g><rect x="139.9818181818182" y="68.52714285714285" width="2" height="31.47285714285715" id="tests-vaccines-16"></rect></g><g><rect x="136.41818181818184" y="41.31392857142857" width="2" height="58.68607142857143" id="tests-vaccines-17"></rect></g><g><rect x="132.85454545454544" y="53.61821428571428" width="2" height="46.38178571428572" id="tests-vaccines-18"></rect></g><g><rect x="129.29090909090908" y="53.45964285714287" width="2" height="46.54035714285713" id="tests-vaccines-19"></rect></g><g><rect x="125.72727272727273" y="52.84464285714285" width="2" height="47.15535714285715" id="tests-vaccines-20"></rect></g><g><rect x="122.16363636363636" y="53.05214285714286" width="2" height="46.94785714285714" id="tests-vaccines-21"></rect></g><g><rect x="118.6" y="84.34714285714286" width="2" height="15.652857142857144" id="tests-vaccines-22"></rect></g><g><rect x="115.03636363636363" y="66.80035714285715" width="2" height="33.19964285714285" id="tests-vaccines-23"></rect></g><g><rect x="111.47272727272728" y="35.551071428571426" width="2" height="64.44892857142858" id="tests-vaccines-24"></rect></g><g><rect x="107.90909090909089" y="45.308214285714286" width="2" height="54.691785714285714" id="tests-vaccines-25"></rect></g><g><rect x="104.34545454545456" y="42.847500000000004" width="2" height="57.152499999999996" id="tests-vaccines-26"></rect></g><g><rect x="100.78181818181817" y="42.050357142857145" width="2" height="57.949642857142855" id="tests-vaccines-27"></rect></g><g><rect x="97.21818181818183" y="50.78607142857143" width="2" height="49.21392857142857" id="tests-vaccines-28"></rect></g><g><rect x="93.65454545454546" y="80.84142857142858" width="2" height="19.15857142857142" id="tests-vaccines-29"></rect></g><g><rect x="90.09090909090911" y="59.059285714285714" width="2" height="40.940714285714286" id="tests-vaccines-30"></rect></g><g><rect x="86.52727272727273" y="20.188571428571432" width="2" height="79.81142857142856" id="tests-vaccines-31"></rect></g><g><rect x="82.96363636363637" y="31.906071428571426" width="2" height="68.09392857142858" id="tests-vaccines-32"></rect></g><g><rect x="79.4" y="29.439999999999998" width="2" height="70.56" id="tests-vaccines-33"></rect></g><g><rect x="75.83636363636364" y="27.980357142857137" width="2" height="72.01964285714286" id="tests-vaccines-34"></rect></g><g><rect x="72.27272727272727" y="32.385" width="2" height="67.61500000000001" id="tests-vaccines-35"></rect></g><g><rect x="68.70909090909092" y="77.24142857142857" width="2" height="22.75857142857143" id="tests-vaccines-36"></rect></g><g><rect x="65.14545454545454" y="46.49107142857143" width="2" height="53.50892857142857" id="tests-vaccines-37"></rect></g><g><rect x="61.58181818181818" y="3.6907142857142805" width="2" height="96.30928571428572" id="tests-vaccines-38"></rect></g><g><rect x="58.018181818181816" y="16.976785714285715" width="2" height="83.02321428571429" id="tests-vaccines-39"></rect></g><g><rect x="54.454545454545446" y="20.20535714285714" width="2" height="79.79464285714286" id="tests-vaccines-40"></rect></g><g><rect x="50.89090909090908" y="21.662499999999994" width="2" height="78.3375" id="tests-vaccines-41"></rect></g><g><rect x="47.32727272727273" y="27.81392857142857" width="2" height="72.18607142857144" id="tests-vaccines-42"></rect></g><g><rect x="43.76363636363636" y="80.59535714285715" width="2" height="19.404642857142846" id="tests-vaccines-43"></rect></g><g><rect x="40.199999999999996" y="97.10357142857143" width="2" height="2.8964285714285722" id="tests-vaccines-44"></rect></g><g><rect x="36.636363636363626" y="72.47285714285714" width="2" height="27.527142857142863" id="tests-vaccines-45"></rect></g><g><rect x="33.072727272727285" y="18.952500000000004" width="2" height="81.0475" id="tests-vaccines-46"></rect></g><g><rect x="29.509090909090922" y="12.80714285714286" width="2" height="87.19285714285714" id="tests-vaccines-47"></rect></g><g><rect x="25.945454545454556" y="12.834642857142853" width="2" height="87.16535714285715" id="tests-vaccines-48"></rect></g><g><rect x="22.38181818181819" y="23.698928571428567" width="2" height="76.30107142857143" id="tests-vaccines-49"></rect></g><g><rect x="18.818181818181824" y="79.78285714285714" width="2" height="20.21714285714286" id="tests-vaccines-50"></rect></g><g><rect x="15.254545454545461" y="99.66464285714287" width="2" height="0.33535714285713425" id="tests-vaccines-51"></rect></g><g><rect x="11.690909090909095" y="83.51142857142857" width="2" height="16.488571428571433" id="tests-vaccines-52"></rect></g><g><rect x="8.12727272727273" y="21.514999999999993" width="2" height="78.48500000000001" id="tests-vaccines-53"></rect></g><g><rect x="4.563636363636365" y="7.587142857142859" width="2" height="92.41285714285713" id="tests-vaccines-54"></rect></g><g><rect x="1" y="4.641428571428574" width="2" height="95.35857142857142" id="tests-vaccines-55"></rect></g></g><g class="fg-line tests-vaccines" fill="none" stroke="#92c5de" stroke-width="2" stroke-linecap="round"><path d="M198,78.17698979591836L194.43636363636364,76.77285714285715L190.87272727272727,76.2295918367347L187.30909090909088,75.3840306122449L183.74545454545455,73.95510204081633L180.1818181818182,72.91913265306123L176.61818181818182,71.84525510204082L173.05454545454546,70.62857142857143L169.49090909090907,69.02836734693878L165.92727272727274,68.63214285714285L162.36363636363637,67.48795918367347L158.8,65.26015306122449L155.23636363636365,63.282142857142865L151.6727272727273,61.48954081632654L148.1090909090909,59.72107142857143L144.54545454545453,58.49918367346939L140.9818181818182,58.166122448979586L137.41818181818184,57.9194387755102L133.85454545454544,57.09617346938776L130.29090909090908,55.909030612244905L126.72727272727273,54.39301020408163L123.16363636363636,52.85096938775511L119.6,52.52724489795918L116.03636363636363,52.026428571428575L112.47272727272728,50.92056122448979L108.90909090909089,48.725918367346935L105.34545454545456,46.81132653061225L101.78181818181817,44.89596938775511L98.21818181818183,42.88596938775511L94.65454545454546,40.257244897959175L91.09090909090911,39.74295918367346L87.52727272727273,37.9475L83.96363636363637,35.59066326530612L80.4,33.457908163265316L76.83636363636364,32.138673469387754L73.27272727272727,31.236122448979597L69.70909090909092,30.583112244897958L66.14545454545454,31.06224489795918L62.58181818181818,38.29260204081633L59.018181818181816,48.1186224489796L55.454545454545446,48.40086734693878L51.89090909090908,47.343979591836735L48.32727272727273,46.08285714285715L44.76363636363636,45.495L41.199999999999996,45.37892857142857L37.636363636363626,45.74479591836735L34.072727272727285,47.321734693877545L30.509090909090922,47.687806122448976L26.945454545454556,46.94209183673469L23.38181818181819,45.771632653061225L19.818181818181824,43.98061224489796L16.25454545454546,43.127295918367345L12.690909090909095,35.75443877551021L9.12727272727273,24.671275510204083L5.563636363636365,24.10056122448979L2,25.237551020408166"></path></g></svg>