<svg meta="{&quot;DATA_PUBLISHED_DATE&quot;:&quot;2022-03-29&quot;,&quot;RENDER_DATE&quot;:&quot;2022-03-29&quot;,&quot;FIRST_DATE&quot;:&quot;2022-01-25&quot;,&quot;LAST_DATE&quot;:&quot;2022-03-21&quot;}" xmlns="http://www.w3.org/2000/svg" viewBox="0,0,200,100"><g transform="translate(0,0)"></g><g class="fg-bars tests-vaccines" fill="#00183f" stroke="none"><g><rect x="197" y="83.71388888888889" width="2" height="16.28611111111111" id="tests-vaccines-0"></rect></g><g><rect x="193.43636363636364" y="94.06" width="2" height="5.939999999999998" id="tests-vaccines-1"></rect></g><g><rect x="189.87272727272727" y="87.49277777777777" width="2" height="12.507222222222225" id="tests-vaccines-2"></rect></g><g><rect x="186.30909090909088" y="77.23555555555556" width="2" height="22.764444444444436" id="tests-vaccines-3"></rect></g><g><rect x="182.74545454545455" y="83.68055555555556" width="2" height="16.319444444444443" id="tests-vaccines-4"></rect></g><g><rect x="179.1818181818182" y="83.1211111111111" width="2" height="16.878888888888895" id="tests-vaccines-5"></rect></g><g><rect x="175.61818181818182" y="83.2461111111111" width="2" height="16.753888888888895" id="tests-vaccines-6"></rect></g><g><rect x="172.05454545454546" y="83.57" width="2" height="16.430000000000007" id="tests-vaccines-7"></rect></g><g><rect x="168.49090909090907" y="93.62611111111111" width="2" height="6.373888888888885" id="tests-vaccines-8"></rect></g><g><rect x="164.92727272727274" y="86.49166666666666" width="2" height="13.50833333333334" id="tests-vaccines-9"></rect></g><g><rect x="161.36363636363637" y="76.74277777777777" width="2" height="23.257222222222225" id="tests-vaccines-10"></rect></g><g><rect x="157.8" y="81.72500000000001" width="2" height="18.27499999999999" id="tests-vaccines-11"></rect></g><g><rect x="154.23636363636365" y="80.70944444444444" width="2" height="19.290555555555557" id="tests-vaccines-12"></rect></g><g><rect x="150.6727272727273" y="81.825" width="2" height="18.174999999999997" id="tests-vaccines-13"></rect></g><g><rect x="147.1090909090909" y="81.24333333333334" width="2" height="18.75666666666666" id="tests-vaccines-14"></rect></g><g><rect x="143.54545454545453" y="92.805" width="2" height="7.194999999999993" id="tests-vaccines-15"></rect></g><g><rect x="139.9818181818182" y="84.25944444444444" width="2" height="15.74055555555556" id="tests-vaccines-16"></rect></g><g><rect x="136.41818181818184" y="69.99222222222222" width="2" height="30.007777777777775" id="tests-vaccines-17"></rect></g><g><rect x="132.85454545454544" y="77.92777777777778" width="2" height="22.072222222222223" id="tests-vaccines-18"></rect></g><g><rect x="129.29090909090908" y="76.13666666666667" width="2" height="23.86333333333333" id="tests-vaccines-19"></rect></g><g><rect x="125.72727272727273" y="73.36611111111111" width="2" height="26.63388888888889" id="tests-vaccines-20"></rect></g><g><rect x="122.16363636363636" y="68.43944444444445" width="2" height="31.560555555555553" id="tests-vaccines-21"></rect></g><g><rect x="118.6" y="89.22444444444444" width="2" height="10.775555555555556" id="tests-vaccines-22"></rect></g><g><rect x="115.03636363636363" y="78.60444444444444" width="2" height="21.39555555555556" id="tests-vaccines-23"></rect></g><g><rect x="111.47272727272728" y="59.39388888888889" width="2" height="40.60611111111111" id="tests-vaccines-24"></rect></g><g><rect x="107.90909090909089" y="70.33166666666666" width="2" height="29.668333333333337" id="tests-vaccines-25"></rect></g><g><rect x="104.34545454545456" y="70.41944444444445" width="2" height="29.58055555555555" id="tests-vaccines-26"></rect></g><g><rect x="100.78181818181817" y="69.8938888888889" width="2" height="30.106111111111105" id="tests-vaccines-27"></rect></g><g><rect x="97.21818181818183" y="77.27999999999999" width="2" height="22.720000000000013" id="tests-vaccines-28"></rect></g><g><rect x="93.65454545454546" y="88.2388888888889" width="2" height="11.761111111111106" id="tests-vaccines-29"></rect></g><g><rect x="90.09090909090911" y="75.28166666666667" width="2" height="24.718333333333334" id="tests-vaccines-30"></rect></g><g><rect x="86.52727272727273" y="53.647222222222226" width="2" height="46.352777777777774" id="tests-vaccines-31"></rect></g><g><rect x="82.96363636363637" y="66.39888888888889" width="2" height="33.60111111111111" id="tests-vaccines-32"></rect></g><g><rect x="79.4" y="66.77666666666666" width="2" height="33.22333333333334" id="tests-vaccines-33"></rect></g><g><rect x="75.83636363636364" y="68.03888888888889" width="2" height="31.96111111111111" id="tests-vaccines-34"></rect></g><g><rect x="72.27272727272727" y="72.07833333333333" width="2" height="27.921666666666667" id="tests-vaccines-35"></rect></g><g><rect x="68.70909090909092" y="89.25722222222223" width="2" height="10.742777777777775" id="tests-vaccines-36"></rect></g><g><rect x="65.14545454545454" y="71.78777777777779" width="2" height="28.21222222222221" id="tests-vaccines-37"></rect></g><g><rect x="61.58181818181818" y="46.330000000000005" width="2" height="53.669999999999995" id="tests-vaccines-38"></rect></g><g><rect x="58.018181818181816" y="59.26777777777779" width="2" height="40.73222222222221" id="tests-vaccines-39"></rect></g><g><rect x="54.454545454545446" y="57.18222222222222" width="2" height="42.81777777777778" id="tests-vaccines-40"></rect></g><g><rect x="50.89090909090908" y="57.64333333333334" width="2" height="42.35666666666666" id="tests-vaccines-41"></rect></g><g><rect x="47.32727272727273" y="56.29944444444445" width="2" height="43.70055555555555" id="tests-vaccines-42"></rect></g><g><rect x="43.76363636363636" y="83.21499999999999" width="2" height="16.78500000000001" id="tests-vaccines-43"></rect></g><g><rect x="40.199999999999996" y="62.11277777777777" width="2" height="37.88722222222223" id="tests-vaccines-44"></rect></g><g><rect x="36.636363636363626" y="30.765555555555558" width="2" height="69.23444444444445" id="tests-vaccines-45"></rect></g><g><rect x="33.072727272727285" y="47.82555555555555" width="2" height="52.17444444444445" id="tests-vaccines-46"></rect></g><g><rect x="29.509090909090922" y="45.99166666666667" width="2" height="54.00833333333333" id="tests-vaccines-47"></rect></g><g><rect x="25.945454545454556" y="44.94166666666667" width="2" height="55.05833333333333" id="tests-vaccines-48"></rect></g><g><rect x="22.38181818181819" y="39.67722222222222" width="2" height="60.32277777777778" id="tests-vaccines-49"></rect></g><g><rect x="18.818181818181824" y="79.07222222222222" width="2" height="20.927777777777777" id="tests-vaccines-50"></rect></g><g><rect x="15.254545454545461" y="50.22666666666667" width="2" height="49.77333333333333" id="tests-vaccines-51"></rect></g><g><rect x="11.690909090909095" y="7.227777777777778" width="2" height="92.77222222222223" id="tests-vaccines-52"></rect></g><g><rect x="8.12727272727273" y="26.840555555555557" width="2" height="73.15944444444445" id="tests-vaccines-53"></rect></g><g><rect x="4.563636363636365" y="26.405" width="2" height="73.595" id="tests-vaccines-54"></rect></g><g><rect x="1" y="25.694444444444443" width="2" height="74.30555555555556" id="tests-vaccines-55"></rect></g></g><g class="fg-line tests-vaccines" fill="none" stroke="#92c5de" stroke-width="2" stroke-linecap="round"><path d="M198,84.65L194.43636363636364,84.62944444444445L190.87272727272727,84.56746031746032L187.30909090909088,84.42444444444445L183.74545454545455,84.3540476190476L180.1818181818182,84.07468253968254L176.61818181818182,83.73015873015873L173.05454545454546,83.52714285714285L169.49090909090907,83.1947619047619L165.92727272727274,83.07746031746032L162.36363636363637,82.75857142857143L158.8,81.79420634920635L155.23636363636365,81.25174603174602L151.6727272727273,80.59849206349206L148.1090909090909,79.39007936507936L144.54545454545453,77.56095238095237L140.9818181818182,77.04944444444445L137.41818181818184,76.2415873015873L133.85454545454544,74.72753968253969L130.29090909090908,73.64238095238096L126.72727272727273,72.82563492063491L123.16363636363636,72.32960317460318L119.6,73.59253968253968L116.03636363636363,73.45174603174603L112.47272727272728,72.9770634920635L108.90909090909089,72.15611111111112L105.34545454545456,71.5942857142857L101.78181818181817,71.07388888888889L98.21818181818183,70.80888888888889L94.65454545454546,70.06579365079365L91.09090909090911,70.21126984126984L87.52727272727273,69.71214285714285L83.96363636363637,68.6668253968254L80.4,67.64809523809522L76.83636363636364,66.27746031746031L73.27272727272727,64.79238095238095L69.70909090909092,62.53825396825397L66.14545454545454,61.67507936507937L62.58181818181818,60.2929365079365L59.018181818181816,58.06944444444444L55.454545454545446,56.43484126984127L51.89090909090908,54.83619047619048L48.32727272727273,53.02166666666667L44.76363636363636,50.647063492063495L41.199999999999996,50.05523809523809L37.636363636363626,48.35722222222222L34.072727272727285,44.99468253968254L30.509090909090922,41.9968253968254L26.945454545454556,39.198730158730164L23.38181818181819,36.44912698412698L19.818181818181824,34.52499999999999L16.25454545454546,33.97198412698413L12.690909090909095,33.51412698412698L9.12727272727273,32.29063492063492L5.563636363636365,30.499206349206354L2,28.235634920634922"></path></g></svg>