<svg about="DATA_PUBLISHED_DATE:2021-12-13,RENDER_DATE:2021-12-13" xmlns="http://www.w3.org/2000/svg" viewBox="0,0,200,100"><g transform="translate(0,0)"></g><g class="fg-bars cases-ep" fill="#00183f" stroke="none"><g><rect x="197" y="56.537499999999994" width="2" height="43.462500000000006" id="cases-ep-0"></rect></g><g><rect x="193.43636363636364" y="31.374999999999996" width="2" height="68.625" id="cases-ep-1"></rect></g><g><rect x="189.87272727272727" y="26.875000000000004" width="2" height="73.125" id="cases-ep-2"></rect></g><g><rect x="186.30909090909088" y="12.962499999999999" width="2" height="87.0375" id="cases-ep-3"></rect></g><g><rect x="182.74545454545455" y="14.5625" width="2" height="85.4375" id="cases-ep-4"></rect></g><g><rect x="179.1818181818182" y="0.40000000000000036" width="2" height="99.6" id="cases-ep-5"></rect></g><g><rect x="175.61818181818182" y="47.62499999999999" width="2" height="52.37500000000001" id="cases-ep-6"></rect></g><g><rect x="172.05454545454546" y="49.050000000000004" width="2" height="50.949999999999996" id="cases-ep-7"></rect></g><g><rect x="168.49090909090907" y="47.262499999999996" width="2" height="52.737500000000004" id="cases-ep-8"></rect></g><g><rect x="164.92727272727274" y="72.55" width="2" height="27.450000000000003" id="cases-ep-9"></rect></g><g><rect x="161.36363636363637" y="43.074999999999996" width="2" height="56.925000000000004" id="cases-ep-10"></rect></g><g><rect x="157.8" y="40.512499999999996" width="2" height="59.487500000000004" id="cases-ep-11"></rect></g><g><rect x="154.23636363636365" y="35.699999999999996" width="2" height="64.30000000000001" id="cases-ep-12"></rect></g><g><rect x="150.6727272727273" y="63.7625" width="2" height="36.2375" id="cases-ep-13"></rect></g><g><rect x="147.1090909090909" y="59.8875" width="2" height="40.1125" id="cases-ep-14"></rect></g><g><rect x="143.54545454545453" y="43.137499999999996" width="2" height="56.862500000000004" id="cases-ep-15"></rect></g><g><rect x="139.9818181818182" y="42.125" width="2" height="57.875" id="cases-ep-16"></rect></g><g><rect x="136.41818181818184" y="36.025" width="2" height="63.975" id="cases-ep-17"></rect></g><g><rect x="132.85454545454544" y="32.675" width="2" height="67.325" id="cases-ep-18"></rect></g><g><rect x="129.29090909090908" y="20.7875" width="2" height="79.2125" id="cases-ep-19"></rect></g><g><rect x="125.72727272727273" y="59.775" width="2" height="40.225" id="cases-ep-20"></rect></g><g><rect x="122.16363636363636" y="57.3375" width="2" height="42.6625" id="cases-ep-21"></rect></g><g><rect x="118.6" y="36.724999999999994" width="2" height="63.275000000000006" id="cases-ep-22"></rect></g><g><rect x="115.03636363636363" y="46.375" width="2" height="53.625" id="cases-ep-23"></rect></g><g><rect x="111.47272727272728" y="30.425" width="2" height="69.575" id="cases-ep-24"></rect></g><g><rect x="107.90909090909089" y="26.837500000000002" width="2" height="73.1625" id="cases-ep-25"></rect></g><g><rect x="104.34545454545456" y="17.549999999999997" width="2" height="82.45" id="cases-ep-26"></rect></g><g><rect x="100.78181818181817" y="56.962500000000006" width="2" height="43.037499999999994" id="cases-ep-27"></rect></g><g><rect x="97.21818181818183" y="54.462500000000006" width="2" height="45.537499999999994" id="cases-ep-28"></rect></g><g><rect x="93.65454545454546" y="31.25" width="2" height="68.75" id="cases-ep-29"></rect></g><g><rect x="90.09090909090911" y="25.175000000000004" width="2" height="74.82499999999999" id="cases-ep-30"></rect></g><g><rect x="86.52727272727273" y="20.2875" width="2" height="79.7125" id="cases-ep-31"></rect></g><g><rect x="82.96363636363637" y="19.437499999999996" width="2" height="80.5625" id="cases-ep-32"></rect></g><g><rect x="79.4" y="8.337499999999999" width="2" height="91.6625" id="cases-ep-33"></rect></g><g><rect x="75.83636363636364" y="56.60000000000001" width="2" height="43.39999999999999" id="cases-ep-34"></rect></g><g><rect x="72.27272727272727" y="50.98750000000001" width="2" height="49.01249999999999" id="cases-ep-35"></rect></g><g><rect x="68.70909090909092" y="29.849999999999998" width="2" height="70.15" id="cases-ep-36"></rect></g><g><rect x="65.14545454545454" y="24.550000000000004" width="2" height="75.44999999999999" id="cases-ep-37"></rect></g><g><rect x="61.58181818181818" y="18.825000000000003" width="2" height="81.175" id="cases-ep-38"></rect></g><g><rect x="58.018181818181816" y="15.800000000000002" width="2" height="84.2" id="cases-ep-39"></rect></g><g><rect x="54.454545454545446" y="10.237499999999999" width="2" height="89.7625" id="cases-ep-40"></rect></g><g><rect x="50.89090909090908" y="55.65" width="2" height="44.35" id="cases-ep-41"></rect></g><g><rect x="47.32727272727273" y="49.625" width="2" height="50.375" id="cases-ep-42"></rect></g><g><rect x="43.76363636363636" y="25.687499999999996" width="2" height="74.3125" id="cases-ep-43"></rect></g><g><rect x="40.199999999999996" y="26.575000000000003" width="2" height="73.425" id="cases-ep-44"></rect></g><g><rect x="36.636363636363626" y="22.487500000000004" width="2" height="77.51249999999999" id="cases-ep-45"></rect></g><g><rect x="33.072727272727285" y="20.85" width="2" height="79.15" id="cases-ep-46"></rect></g><g><rect x="29.509090909090922" y="12.462499999999999" width="2" height="87.5375" id="cases-ep-47"></rect></g><g><rect x="25.945454545454556" y="55.65" width="2" height="44.35" id="cases-ep-48"></rect></g><g><rect x="22.38181818181819" y="54.8125" width="2" height="45.1875" id="cases-ep-49"></rect></g><g><rect x="18.818181818181824" y="34.475" width="2" height="65.525" id="cases-ep-50"></rect></g><g><rect x="15.254545454545461" y="34.45" width="2" height="65.55" id="cases-ep-51"></rect></g><g><rect x="11.690909090909095" y="30.225" width="2" height="69.775" id="cases-ep-52"></rect></g><g><rect x="8.12727272727273" y="27.762500000000003" width="2" height="72.2375" id="cases-ep-53"></rect></g><g><rect x="4.563636363636365" y="27.900000000000002" width="2" height="72.1" id="cases-ep-54"></rect></g><g><rect x="1" y="59.087500000000006" width="2" height="40.912499999999994" id="cases-ep-55"></rect></g></g><g class="fg-line cases-ep" fill="none" stroke="#92c5de" stroke-width="2" stroke-linecap="round"><path d="M198,27.191071428571433L194.43636363636364,26.121428571428563L190.87272727272727,28.391071428571436L187.30909090909088,34.916071428571435L183.74545454545455,39.21785714285715L180.1818181818182,42.925000000000004L176.61818181818182,47.96785714285714L173.05454545454546,50.27321428571428L169.49090909090907,51.82142857142858L165.92727272727274,51.23214285714286L162.36363636363637,46.885714285714286L158.8,45.87857142857143L155.23636363636365,44.75892857142857L151.6727272727273,42.62857142857144L148.1090909090909,42.05892857142857L144.54545454545453,41.69464285714286L140.9818181818182,40.77857142857143L137.41818181818184,41.38571428571429L133.85454545454544,40.58571428571429L130.29090909090908,39.75178571428572L126.72727272727273,39.28928571428572L123.16363636363636,38.887499999999996L119.6,38.47678571428571L116.03636363636363,37.69464285714286L112.47272727272728,34.666071428571435L108.90909090909089,33.21785714285714L105.34545454545456,32.160714285714285L101.78181818181817,30.84464285714286L98.21818181818183,30.792857142857144L94.65454545454546,30.296428571428567L91.09090909090911,30.096428571428568L87.52727272727273,30.007142857142853L83.96363636363637,29.798214285714288L80.4,29.278571428571432L76.83636363636364,29.549999999999997L73.27272727272727,29.414285714285715L69.70909090909092,29.21964285714286L66.14545454545454,28.625L62.58181818181818,28.914285714285715L59.018181818181816,29.437500000000007L55.454545454545446,30.158928571428568L51.89090909090908,30.476785714285715L48.32727272727273,30.476785714285715L44.76363636363636,31.21785714285714L41.199999999999996,32.47321428571429L37.636363636363626,33.59821428571429L34.072727272727285,34.703571428571436L30.509090909090922,35.69107142857143L26.945454545454556,37.896428571428565L23.38181818181819,38.387499999999996L19.818181818181824,38.61785714285715L16.25454545454546,38.800000000000004L12.690909090909095,38.75357142857143L9.12727272727273,38.089285714285715L5.563636363636365,37.357142857142854L2,35.59107142857143"></path></g></svg>