<svg about="DATA_PUBLISHED_DATE:2021-10-19,RENDER_DATE:2021-10-20" xmlns="http://www.w3.org/2000/svg" viewBox="0,0,200,100"><g transform="translate(0,0)"></g><g class="fg-bars tests-vaccines" fill="#00183f" stroke="none"><g><rect x="197" y="39.83375" width="2" height="60.16625" id="tests-vaccines-0"></rect></g><g><rect x="193.43636363636364" y="79.975625" width="2" height="20.024375000000006" id="tests-vaccines-1"></rect></g><g><rect x="189.87272727272727" y="62.943125" width="2" height="37.056875" id="tests-vaccines-2"></rect></g><g><rect x="186.30909090909088" y="19.773125000000004" width="2" height="80.22687499999999" id="tests-vaccines-3"></rect></g><g><rect x="182.74545454545455" y="33.963125000000005" width="2" height="66.036875" id="tests-vaccines-4"></rect></g><g><rect x="179.1818181818182" y="38.464375" width="2" height="61.535625" id="tests-vaccines-5"></rect></g><g><rect x="175.61818181818182" y="33.263125" width="2" height="66.736875" id="tests-vaccines-6"></rect></g><g><rect x="172.05454545454546" y="32.80125" width="2" height="67.19874999999999" id="tests-vaccines-7"></rect></g><g><rect x="168.49090909090907" y="76.703125" width="2" height="23.296875" id="tests-vaccines-8"></rect></g><g><rect x="164.92727272727274" y="58.81375" width="2" height="41.18625" id="tests-vaccines-9"></rect></g><g><rect x="161.36363636363637" y="11.906874999999994" width="2" height="88.093125" id="tests-vaccines-10"></rect></g><g><rect x="157.8" y="19.696250000000003" width="2" height="80.30375" id="tests-vaccines-11"></rect></g><g><rect x="154.23636363636365" y="21.396875000000005" width="2" height="78.60312499999999" id="tests-vaccines-12"></rect></g><g><rect x="150.6727272727273" y="20.744375000000005" width="2" height="79.255625" id="tests-vaccines-13"></rect></g><g><rect x="147.1090909090909" y="27.163125" width="2" height="72.83687499999999" id="tests-vaccines-14"></rect></g><g><rect x="143.54545454545453" y="75.91687499999999" width="2" height="24.08312500000001" id="tests-vaccines-15"></rect></g><g><rect x="139.9818181818182" y="56.623749999999994" width="2" height="43.376250000000006" id="tests-vaccines-16"></rect></g><g><rect x="136.41818181818184" y="33.70375" width="2" height="66.29625" id="tests-vaccines-17"></rect></g><g><rect x="132.85454545454544" y="55.95187500000001" width="2" height="44.04812499999999" id="tests-vaccines-18"></rect></g><g><rect x="129.29090909090908" y="55.791250000000005" width="2" height="44.208749999999995" id="tests-vaccines-19"></rect></g><g><rect x="125.72727272727273" y="54.406875" width="2" height="45.593125" id="tests-vaccines-20"></rect></g><g><rect x="122.16363636363636" y="50.560625" width="2" height="49.439375" id="tests-vaccines-21"></rect></g><g><rect x="118.6" y="79.7525" width="2" height="20.247500000000002" id="tests-vaccines-22"></rect></g><g><rect x="115.03636363636363" y="64.8425" width="2" height="35.1575" id="tests-vaccines-23"></rect></g><g><rect x="111.47272727272728" y="40.774375" width="2" height="59.225625" id="tests-vaccines-24"></rect></g><g><rect x="107.90909090909089" y="49.21124999999999" width="2" height="50.78875000000001" id="tests-vaccines-25"></rect></g><g><rect x="104.34545454545456" y="50.7675" width="2" height="49.2325" id="tests-vaccines-26"></rect></g><g><rect x="100.78181818181817" y="50.30187500000001" width="2" height="49.69812499999999" id="tests-vaccines-27"></rect></g><g><rect x="97.21818181818183" y="47.77625" width="2" height="52.22375" id="tests-vaccines-28"></rect></g><g><rect x="93.65454545454546" y="78.176875" width="2" height="21.823125000000005" id="tests-vaccines-29"></rect></g><g><rect x="90.09090909090911" y="61.095" width="2" height="38.905" id="tests-vaccines-30"></rect></g><g><rect x="86.52727272727273" y="33.448750000000004" width="2" height="66.55125" id="tests-vaccines-31"></rect></g><g><rect x="82.96363636363637" y="45.485625" width="2" height="54.514375" id="tests-vaccines-32"></rect></g><g><rect x="79.4" y="45.055625" width="2" height="54.944375" id="tests-vaccines-33"></rect></g><g><rect x="75.83636363636364" y="39.20875" width="2" height="60.79125" id="tests-vaccines-34"></rect></g><g><rect x="72.27272727272727" y="88.045625" width="2" height="11.954374999999999" id="tests-vaccines-35"></rect></g><g><rect x="68.70909090909092" y="76.47874999999999" width="2" height="23.52125000000001" id="tests-vaccines-36"></rect></g><g><rect x="65.14545454545454" y="60.51" width="2" height="39.49" id="tests-vaccines-37"></rect></g><g><rect x="61.58181818181818" y="27.1625" width="2" height="72.8375" id="tests-vaccines-38"></rect></g><g><rect x="58.018181818181816" y="41.911874999999995" width="2" height="58.088125000000005" id="tests-vaccines-39"></rect></g><g><rect x="54.454545454545446" y="39.889375" width="2" height="60.110625" id="tests-vaccines-40"></rect></g><g><rect x="50.89090909090908" y="37.400625" width="2" height="62.599375" id="tests-vaccines-41"></rect></g><g><rect x="47.32727272727273" y="36.638749999999995" width="2" height="63.361250000000005" id="tests-vaccines-42"></rect></g><g><rect x="43.76363636363636" y="73.40124999999999" width="2" height="26.59875000000001" id="tests-vaccines-43"></rect></g><g><rect x="40.199999999999996" y="51.385625000000005" width="2" height="48.614374999999995" id="tests-vaccines-44"></rect></g><g><rect x="36.636363636363626" y="19.883125" width="2" height="80.116875" id="tests-vaccines-45"></rect></g><g><rect x="33.072727272727285" y="34.942499999999995" width="2" height="65.0575" id="tests-vaccines-46"></rect></g><g><rect x="29.509090909090922" y="35.810624999999995" width="2" height="64.18937500000001" id="tests-vaccines-47"></rect></g><g><rect x="25.945454545454556" y="33.363125000000004" width="2" height="66.636875" id="tests-vaccines-48"></rect></g><g><rect x="22.38181818181819" y="33.784375" width="2" height="66.215625" id="tests-vaccines-49"></rect></g><g><rect x="18.818181818181824" y="73.756875" width="2" height="26.243125000000006" id="tests-vaccines-50"></rect></g><g><rect x="15.254545454545461" y="52.61125" width="2" height="47.38875" id="tests-vaccines-51"></rect></g><g><rect x="11.690909090909095" y="20.777500000000003" width="2" height="79.2225" id="tests-vaccines-52"></rect></g><g><rect x="8.12727272727273" y="36.4425" width="2" height="63.5575" id="tests-vaccines-53"></rect></g><g><rect x="4.563636363636365" y="36.269375000000004" width="2" height="63.730624999999996" id="tests-vaccines-54"></rect></g><g><rect x="1" y="36.100624999999994" width="2" height="63.899375000000006" id="tests-vaccines-55"></rect></g></g><g class="fg-line tests-vaccines" fill="none" stroke="#92c5de" stroke-width="2" stroke-linecap="round"><path d="M198,44.03089285714286L194.43636363636364,43.02625L190.87272727272727,42.55875L187.30909090909088,41.96883928571429L183.74545454545455,40.84508928571429L180.1818181818182,38.80696428571429L176.61818181818182,36.368750000000006L173.05454545454546,34.580357142857146L169.49090909090907,33.77491071428571L165.92727272727274,33.66258928571428L162.36363636363637,33.34973214285715L158.8,36.46357142857143L155.23636363636365,41.64294642857143L151.6727272727273,46.55642857142857L148.1090909090909,51.36535714285715L144.54545454545453,54.70785714285715L140.9818181818182,55.255803571428565L137.41818181818184,56.42991071428571L133.85454545454544,57.440000000000005L130.29090909090908,56.47705357142857L126.72727272727273,55.759375L123.16363636363636,55.17294642857142L119.6,54.775178571428576L116.03636363636363,54.550089285714286L112.47272727272728,54.01473214285715L108.90909090909089,52.968214285714275L105.34545454545456,52.43598214285714L101.78181818181817,51.62L98.21818181818183,50.03526785714285L94.65454545454546,55.78803571428572L91.09090909090911,55.54544642857143L87.52727272727273,55.46187499999999L83.96363636363637,54.56383928571429L80.4,54.05330357142857L76.83636363636364,53.31526785714284L73.27272727272727,53.056964285714294L69.70909090909092,45.713125L66.14545454545454,45.27348214285715L62.58181818181818,43.97L59.018181818181816,42.93008928571428L55.454545454545446,41.93446428571428L51.89090909090908,41.35178571428572L48.32727272727273,40.77499999999999L44.76363636363636,40.36723214285715L41.199999999999996,40.418035714285715L37.636363636363626,40.59312499999999L34.072727272727285,40.72089285714286L30.509090909090922,40.935178571428565L26.945454545454556,41.00071428571428L23.38181818181819,41.39178571428571L19.818181818181824,42.17205357142857L16.25454545454546,42.30241071428572L12.690909090909095,42.55651785714285L9.12727272727273,43.89098214285715L5.563636363636365,45.08098214285715L2,46.71107142857143"></path></g></svg>