<svg meta="{&quot;DATA_PUBLISHED_DATE&quot;:&quot;2022-08-16&quot;,&quot;RENDER_DATE&quot;:&quot;2022-08-16&quot;,&quot;FIRST_DATE&quot;:&quot;2022-06-13&quot;,&quot;LAST_DATE&quot;:&quot;2022-08-07&quot;}" xmlns="http://www.w3.org/2000/svg" viewBox="0,0,200,100"><g transform="translate(0,0)"></g><g class="fg-bars cases-ep" fill="#00183f" stroke="none"><g><rect x="197" y="76.95714285714286" width="2" height="23.042857142857144" id="cases-ep-0"></rect></g><g><rect x="193.43636363636364" y="73.31071428571428" width="2" height="26.689285714285717" id="cases-ep-1"></rect></g><g><rect x="189.87272727272727" y="60.28214285714286" width="2" height="39.71785714285714" id="cases-ep-2"></rect></g><g><rect x="186.30909090909088" y="57.62142857142858" width="2" height="42.37857142857142" id="cases-ep-3"></rect></g><g><rect x="182.74545454545455" y="52.21785714285714" width="2" height="47.78214285714286" id="cases-ep-4"></rect></g><g><rect x="179.1818181818182" y="46.34642857142857" width="2" height="53.65357142857143" id="cases-ep-5"></rect></g><g><rect x="175.61818181818182" y="39.449999999999996" width="2" height="60.550000000000004" id="cases-ep-6"></rect></g><g><rect x="172.05454545454546" y="72.05" width="2" height="27.950000000000003" id="cases-ep-7"></rect></g><g><rect x="168.49090909090907" y="67.51785714285714" width="2" height="32.48214285714286" id="cases-ep-8"></rect></g><g><rect x="164.92727272727274" y="51.53214285714286" width="2" height="48.46785714285714" id="cases-ep-9"></rect></g><g><rect x="161.36363636363637" y="49.45" width="2" height="50.55" id="cases-ep-10"></rect></g><g><rect x="157.8" y="41.264285714285705" width="2" height="58.735714285714295" id="cases-ep-11"></rect></g><g><rect x="154.23636363636365" y="34.16785714285714" width="2" height="65.83214285714286" id="cases-ep-12"></rect></g><g><rect x="150.6727272727273" y="24.864285714285717" width="2" height="75.13571428571429" id="cases-ep-13"></rect></g><g><rect x="147.1090909090909" y="65.22142857142856" width="2" height="34.77857142857144" id="cases-ep-14"></rect></g><g><rect x="143.54545454545453" y="59.960714285714275" width="2" height="40.039285714285725" id="cases-ep-15"></rect></g><g><rect x="139.9818181818182" y="39.15" width="2" height="60.85" id="cases-ep-16"></rect></g><g><rect x="136.41818181818184" y="37.575" width="2" height="62.425" id="cases-ep-17"></rect></g><g><rect x="132.85454545454544" y="31.246428571428574" width="2" height="68.75357142857143" id="cases-ep-18"></rect></g><g><rect x="129.29090909090908" y="25.275000000000002" width="2" height="74.725" id="cases-ep-19"></rect></g><g><rect x="125.72727272727273" y="16.882142857142856" width="2" height="83.11785714285715" id="cases-ep-20"></rect></g><g><rect x="122.16363636363636" y="61.121428571428574" width="2" height="38.878571428571426" id="cases-ep-21"></rect></g><g><rect x="118.6" y="54.30357142857143" width="2" height="45.69642857142857" id="cases-ep-22"></rect></g><g><rect x="115.03636363636363" y="33.378571428571426" width="2" height="66.62142857142857" id="cases-ep-23"></rect></g><g><rect x="111.47272727272728" y="29.492857142857144" width="2" height="70.50714285714285" id="cases-ep-24"></rect></g><g><rect x="107.90909090909089" y="24.964285714285715" width="2" height="75.03571428571428" id="cases-ep-25"></rect></g><g><rect x="104.34545454545456" y="20.73571428571429" width="2" height="79.2642857142857" id="cases-ep-26"></rect></g><g><rect x="100.78181818181817" y="13.332142857142859" width="2" height="86.66785714285714" id="cases-ep-27"></rect></g><g><rect x="97.21818181818183" y="58.74285714285714" width="2" height="41.25714285714286" id="cases-ep-28"></rect></g><g><rect x="93.65454545454546" y="52.403571428571425" width="2" height="47.596428571428575" id="cases-ep-29"></rect></g><g><rect x="90.09090909090911" y="28.374999999999993" width="2" height="71.625" id="cases-ep-30"></rect></g><g><rect x="86.52727272727273" y="24.917857142857148" width="2" height="75.08214285714286" id="cases-ep-31"></rect></g><g><rect x="82.96363636363637" y="18.353571428571424" width="2" height="81.64642857142857" id="cases-ep-32"></rect></g><g><rect x="79.4" y="3.5392857142857115" width="2" height="96.46071428571429" id="cases-ep-33"></rect></g><g><rect x="75.83636363636364" y="64.88214285714285" width="2" height="35.11785714285715" id="cases-ep-34"></rect></g><g><rect x="72.27272727272727" y="65.33571428571429" width="2" height="34.66428571428571" id="cases-ep-35"></rect></g><g><rect x="68.70909090909092" y="59.60357142857142" width="2" height="40.39642857142858" id="cases-ep-36"></rect></g><g><rect x="65.14545454545454" y="36.46071428571429" width="2" height="63.53928571428571" id="cases-ep-37"></rect></g><g><rect x="61.58181818181818" y="35.43214285714286" width="2" height="64.56785714285715" id="cases-ep-38"></rect></g><g><rect x="58.018181818181816" y="29.58928571428572" width="2" height="70.41071428571428" id="cases-ep-39"></rect></g><g><rect x="54.454545454545446" y="25.03214285714286" width="2" height="74.96785714285714" id="cases-ep-40"></rect></g><g><rect x="50.89090909090908" y="19.53571428571429" width="2" height="80.46428571428571" id="cases-ep-41"></rect></g><g><rect x="47.32727272727273" y="61.596428571428575" width="2" height="38.403571428571425" id="cases-ep-42"></rect></g><g><rect x="43.76363636363636" y="58.610714285714295" width="2" height="41.389285714285705" id="cases-ep-43"></rect></g><g><rect x="40.199999999999996" y="41.88214285714286" width="2" height="58.11785714285714" id="cases-ep-44"></rect></g><g><rect x="36.636363636363626" y="38.83571428571428" width="2" height="61.16428571428572" id="cases-ep-45"></rect></g><g><rect x="33.072727272727285" y="36.457142857142856" width="2" height="63.542857142857144" id="cases-ep-46"></rect></g><g><rect x="29.509090909090922" y="30.70357142857143" width="2" height="69.29642857142858" id="cases-ep-47"></rect></g><g><rect x="25.945454545454556" y="34.95357142857143" width="2" height="65.04642857142858" id="cases-ep-48"></rect></g><g><rect x="22.38181818181819" y="66.80714285714286" width="2" height="33.192857142857136" id="cases-ep-49"></rect></g><g><rect x="18.818181818181824" y="63.171428571428564" width="2" height="36.828571428571436" id="cases-ep-50"></rect></g><g><rect x="15.254545454545461" y="46.917857142857144" width="2" height="53.082142857142856" id="cases-ep-51"></rect></g><g><rect x="11.690909090909095" y="45.40714285714286" width="2" height="54.59285714285714" id="cases-ep-52"></rect></g><g><rect x="8.12727272727273" y="41.63214285714286" width="2" height="58.36785714285714" id="cases-ep-53"></rect></g><g><rect x="4.563636363636365" y="39.81071428571429" width="2" height="60.18928571428571" id="cases-ep-54"></rect></g><g><rect x="1" y="33.90714285714286" width="2" height="66.09285714285714" id="cases-ep-55"></rect></g></g><g class="fg-line cases-ep" fill="none" stroke="#92c5de" stroke-width="2" stroke-linecap="round"><path d="M198,58.0265306122449L194.43636363636364,57.32551020408163L190.87272727272727,56.497959183673466L187.30909090909088,55.247959183673466L183.74545454545455,54.080612244897964L180.1818181818182,52.51581632653062L176.61818181818182,50.77602040816327L173.05454545454546,48.69234693877551L169.49090909090907,47.71683673469388L165.92727272727274,46.637244897959185L162.36363636363637,44.868367346938776L158.8,43.1719387755102L155.23636363636365,41.740816326530606L151.6727272727273,40.470408163265304L148.1090909090909,39.33010204081633L144.54545454545453,38.74438775510205L140.9818181818182,37.93622448979592L137.41818181818184,37.11173469387755L133.85454545454544,35.957142857142856L130.29090909090908,35.05969387755103L126.72727272727273,34.41122448979592L123.16363636363636,33.904081632653075L119.6,33.56428571428572L116.03636363636363,33.292857142857144L112.47272727272728,32.57806122448979L108.90909090909089,31.924489795918365L105.34545454545456,30.980102040816327L101.78181818181817,28.523469387755096L98.21818181818183,35.887755102040806L94.65454545454546,36.829591836734686L91.09090909090911,37.858163265306125L87.52727272727273,39.01326530612245L83.96363636363637,40.515306122448976L80.4,42.12040816326531L76.83636363636364,45.190816326530616L73.27272727272727,38.71275510204081L69.70909090909092,38.17857142857143L66.14545454545454,38.03673469387755L62.58181818181818,38.811224489795926L59.018181818181816,39.297448979591834L55.454545454545446,40.27857142857143L51.89090909090908,41.08877551020408L48.32727272727273,43.29132653061225L44.76363636363636,44.03571428571429L41.199999999999996,44.687244897959175L37.636363636363626,45.40663265306123L34.072727272727285,46.34540816326531L30.509090909090922,47.08469387755102L26.945454545454556,48.385714285714286L23.38181818181819,48.23622448979592L19.818181818181824,48.430612244897965L16.25454545454546,48.659183673469386L12.690909090909095,48.400510204081634L9.12727272727273,48.13367346938775L5.563636363636365,47.45204081632654L2,46.44285714285714"></path></g></svg>