<svg about="DATA_PUBLISHED_DATE:2021-09-28,RENDER_DATE:2021-09-28" xmlns="http://www.w3.org/2000/svg" viewBox="0,0,200,100"><g transform="translate(0,0)"></g><g class="fg-bars cases-ep" fill="#00183f" stroke="none"><g><rect x="197" y="81.69999999999999" width="2" height="18.30000000000001" id="cases-ep-0"></rect></g><g><rect x="193.43636363636364" y="76.87777777777778" width="2" height="23.12222222222222" id="cases-ep-1"></rect></g><g><rect x="189.87272727272727" y="63.111111111111114" width="2" height="36.888888888888886" id="cases-ep-2"></rect></g><g><rect x="186.30909090909088" y="58.75" width="2" height="41.25" id="cases-ep-3"></rect></g><g><rect x="182.74545454545455" y="53.24444444444445" width="2" height="46.75555555555555" id="cases-ep-4"></rect></g><g><rect x="179.1818181818182" y="49.6888888888889" width="2" height="50.3111111111111" id="cases-ep-5"></rect></g><g><rect x="175.61818181818182" y="43.733333333333334" width="2" height="56.266666666666666" id="cases-ep-6"></rect></g><g><rect x="172.05454545454546" y="71.98333333333333" width="2" height="28.016666666666666" id="cases-ep-7"></rect></g><g><rect x="168.49090909090907" y="66.73333333333333" width="2" height="33.266666666666666" id="cases-ep-8"></rect></g><g><rect x="164.92727272727274" y="49.577777777777776" width="2" height="50.422222222222224" id="cases-ep-9"></rect></g><g><rect x="161.36363636363637" y="44.705555555555556" width="2" height="55.294444444444444" id="cases-ep-10"></rect></g><g><rect x="157.8" y="38.12777777777778" width="2" height="61.87222222222222" id="cases-ep-11"></rect></g><g><rect x="154.23636363636365" y="32.29444444444445" width="2" height="67.70555555555555" id="cases-ep-12"></rect></g><g><rect x="150.6727272727273" y="64.33333333333333" width="2" height="35.66666666666667" id="cases-ep-13"></rect></g><g><rect x="147.1090909090909" y="71.4388888888889" width="2" height="28.561111111111103" id="cases-ep-14"></rect></g><g><rect x="143.54545454545453" y="63.416666666666664" width="2" height="36.583333333333336" id="cases-ep-15"></rect></g><g><rect x="139.9818181818182" y="45.83888888888888" width="2" height="54.16111111111112" id="cases-ep-16"></rect></g><g><rect x="136.41818181818184" y="40.20555555555556" width="2" height="59.79444444444444" id="cases-ep-17"></rect></g><g><rect x="132.85454545454544" y="30.361111111111118" width="2" height="69.63888888888889" id="cases-ep-18"></rect></g><g><rect x="129.29090909090908" y="32.266666666666666" width="2" height="67.73333333333333" id="cases-ep-19"></rect></g><g><rect x="125.72727272727273" y="27.022222222222226" width="2" height="72.97777777777777" id="cases-ep-20"></rect></g><g><rect x="122.16363636363636" y="64.34444444444445" width="2" height="35.65555555555555" id="cases-ep-21"></rect></g><g><rect x="118.6" y="57.53888888888889" width="2" height="42.46111111111111" id="cases-ep-22"></rect></g><g><rect x="115.03636363636363" y="38.31111111111111" width="2" height="61.68888888888889" id="cases-ep-23"></rect></g><g><rect x="111.47272727272728" y="31.561111111111106" width="2" height="68.4388888888889" id="cases-ep-24"></rect></g><g><rect x="107.90909090909089" y="25.322222222222223" width="2" height="74.67777777777778" id="cases-ep-25"></rect></g><g><rect x="104.34545454545456" y="23.177777777777774" width="2" height="76.82222222222222" id="cases-ep-26"></rect></g><g><rect x="100.78181818181817" y="15.91111111111111" width="2" height="84.08888888888889" id="cases-ep-27"></rect></g><g><rect x="97.21818181818183" y="58.711111111111116" width="2" height="41.288888888888884" id="cases-ep-28"></rect></g><g><rect x="93.65454545454546" y="51.2" width="2" height="48.8" id="cases-ep-29"></rect></g><g><rect x="90.09090909090911" y="26.5" width="2" height="73.5" id="cases-ep-30"></rect></g><g><rect x="86.52727272727273" y="23.483333333333334" width="2" height="76.51666666666667" id="cases-ep-31"></rect></g><g><rect x="82.96363636363637" y="17.272222222222222" width="2" height="82.72777777777777" id="cases-ep-32"></rect></g><g><rect x="79.4" y="15.361111111111114" width="2" height="84.63888888888889" id="cases-ep-33"></rect></g><g><rect x="75.83636363636364" y="12.027777777777782" width="2" height="87.97222222222221" id="cases-ep-34"></rect></g><g><rect x="72.27272727272727" y="55.06111111111112" width="2" height="44.93888888888888" id="cases-ep-35"></rect></g><g><rect x="68.70909090909092" y="47.18888888888889" width="2" height="52.81111111111111" id="cases-ep-36"></rect></g><g><rect x="65.14545454545454" y="24.22777777777778" width="2" height="75.77222222222221" id="cases-ep-37"></rect></g><g><rect x="61.58181818181818" y="19.466666666666665" width="2" height="80.53333333333333" id="cases-ep-38"></rect></g><g><rect x="58.018181818181816" y="14.855555555555554" width="2" height="85.14444444444445" id="cases-ep-39"></rect></g><g><rect x="54.454545454545446" y="10.922222222222222" width="2" height="89.07777777777778" id="cases-ep-40"></rect></g><g><rect x="50.89090909090908" y="10.338888888888887" width="2" height="89.66111111111111" id="cases-ep-41"></rect></g><g><rect x="47.32727272727273" y="52.38333333333334" width="2" height="47.61666666666666" id="cases-ep-42"></rect></g><g><rect x="43.76363636363636" y="46.644444444444446" width="2" height="53.355555555555554" id="cases-ep-43"></rect></g><g><rect x="40.199999999999996" y="28.800000000000004" width="2" height="71.19999999999999" id="cases-ep-44"></rect></g><g><rect x="36.636363636363626" y="23.69444444444444" width="2" height="76.30555555555556" id="cases-ep-45"></rect></g><g><rect x="33.072727272727285" y="22.344444444444445" width="2" height="77.65555555555555" id="cases-ep-46"></rect></g><g><rect x="29.509090909090922" y="20.699999999999996" width="2" height="79.30000000000001" id="cases-ep-47"></rect></g><g><rect x="25.945454545454556" y="22.444444444444443" width="2" height="77.55555555555556" id="cases-ep-48"></rect></g><g><rect x="22.38181818181819" y="53.40555555555555" width="2" height="46.59444444444445" id="cases-ep-49"></rect></g><g><rect x="18.818181818181824" y="53.16666666666667" width="2" height="46.83333333333333" id="cases-ep-50"></rect></g><g><rect x="15.254545454545461" y="38.788888888888884" width="2" height="61.211111111111116" id="cases-ep-51"></rect></g><g><rect x="11.690909090909095" y="34.99444444444444" width="2" height="65.00555555555556" id="cases-ep-52"></rect></g><g><rect x="8.12727272727273" y="34.62777777777778" width="2" height="65.37222222222222" id="cases-ep-53"></rect></g><g><rect x="4.563636363636365" y="38.00555555555556" width="2" height="61.99444444444444" id="cases-ep-54"></rect></g><g><rect x="1" y="35.34444444444445" width="2" height="64.65555555555555" id="cases-ep-55"></rect></g></g><g class="fg-line cases-ep" fill="none" stroke="#92c5de" stroke-width="2" stroke-linecap="round"><path d="M198,61.01507936507936L194.43636363636364,59.62698412698413L190.87272727272727,58.17777777777777L187.30909090909088,56.244444444444454L183.74545454545455,54.23809523809524L180.1818181818182,52.07857142857143L176.61818181818182,49.59365079365079L173.05454545454546,52.536507936507945L169.49090909090907,52.45873015873017L165.92727272727274,51.98492063492064L162.36363636363637,51.45079365079365L158.8,50.8079365079365L155.23636363636365,49.698412698412696L151.6727272727273,49.69444444444444L148.1090909090909,44.36428571428572L144.54545454545453,43.35079365079365L140.9818181818182,42.51111111111111L137.41818181818184,41.43571428571428L133.85454545454544,40.200793650793656L130.29090909090908,39.48095238095238L126.72727272727273,38.182539682539684L123.16363636363636,36.595238095238095L119.6,35.790476190476184L116.03636363636363,34.88492063492063L112.47272727272728,33.19761904761906L108.90909090909089,32.04365079365079L105.34545454545456,30.893650793650796L101.78181818181817,29.77698412698413L98.21818181818183,29.22222222222223L94.65454545454546,28.700793650793656L91.09090909090911,28.127777777777773L87.52727272727273,27.803174603174607L83.96363636363637,27.229365079365074L80.4,26.884126984126986L76.83636363636364,26.249999999999996L73.27272727272727,26.008730158730163L69.70909090909092,25.62619047619048L66.14545454545454,25.548412698412704L62.58181818181818,26.201587301587303L59.018181818181816,26.80555555555556L55.454545454545446,27.875396825396827L51.89090909090908,29.272222222222222L48.32727272727273,31.001587301587296L44.76363636363636,31.147619047619056L41.199999999999996,32.079365079365076L37.636363636363626,33.506349206349206L34.072727272727285,35.12063492063492L30.509090909090922,36.875396825396834L26.945454545454556,39.347619047619055L23.38181818181819,41.19047619047619L19.818181818181824,42.79761904761905L16.25454545454546,44.17539682539683L12.690909090909095,46.55079365079365L9.12727272727273,49.28730158730159L5.563636363636365,51.71190476190476L2,53.999206349206354"></path></g></svg>