<svg meta="{&quot;DATA_PUBLISHED_DATE&quot;:&quot;2022-08-19&quot;,&quot;RENDER_DATE&quot;:&quot;2022-08-19&quot;,&quot;FIRST_DATE&quot;:&quot;2022-06-16&quot;,&quot;LAST_DATE&quot;:&quot;2022-08-10&quot;}" xmlns="http://www.w3.org/2000/svg" viewBox="0,0,200,100"><g transform="translate(0,0)"></g><g class="fg-bars cases-ep" fill="#00183f" stroke="none"><g><rect x="197" y="60.81071428571428" width="2" height="39.18928571428572" id="cases-ep-0"></rect></g><g><rect x="193.43636363636364" y="57.135714285714286" width="2" height="42.864285714285714" id="cases-ep-1"></rect></g><g><rect x="189.87272727272727" y="49.97142857142857" width="2" height="50.02857142857143" id="cases-ep-2"></rect></g><g><rect x="186.30909090909088" y="76.18928571428572" width="2" height="23.810714285714283" id="cases-ep-3"></rect></g><g><rect x="182.74545454545455" y="72.93928571428572" width="2" height="27.060714285714283" id="cases-ep-4"></rect></g><g><rect x="179.1818181818182" y="60.010714285714286" width="2" height="39.989285714285714" id="cases-ep-5"></rect></g><g><rect x="175.61818181818182" y="57.24642857142857" width="2" height="42.75357142857143" id="cases-ep-6"></rect></g><g><rect x="172.05454545454546" y="51.878571428571426" width="2" height="48.121428571428574" id="cases-ep-7"></rect></g><g><rect x="168.49090909090907" y="46.07857142857142" width="2" height="53.92142857142858" id="cases-ep-8"></rect></g><g><rect x="164.92727272727274" y="38.89642857142858" width="2" height="61.10357142857142" id="cases-ep-9"></rect></g><g><rect x="161.36363636363637" y="71.59285714285714" width="2" height="28.40714285714286" id="cases-ep-10"></rect></g><g><rect x="157.8" y="67.27499999999999" width="2" height="32.72500000000001" id="cases-ep-11"></rect></g><g><rect x="154.23636363636365" y="51.41428571428571" width="2" height="48.58571428571429" id="cases-ep-12"></rect></g><g><rect x="150.6727272727273" y="49.275000000000006" width="2" height="50.724999999999994" id="cases-ep-13"></rect></g><g><rect x="147.1090909090909" y="41.267857142857146" width="2" height="58.732142857142854" id="cases-ep-14"></rect></g><g><rect x="143.54545454545453" y="34.12500000000001" width="2" height="65.875" id="cases-ep-15"></rect></g><g><rect x="139.9818181818182" y="24.635714285714283" width="2" height="75.36428571428571" id="cases-ep-16"></rect></g><g><rect x="136.41818181818184" y="65.05357142857142" width="2" height="34.946428571428584" id="cases-ep-17"></rect></g><g><rect x="132.85454545454544" y="59.885714285714286" width="2" height="40.114285714285714" id="cases-ep-18"></rect></g><g><rect x="129.29090909090908" y="39.089285714285715" width="2" height="60.910714285714285" id="cases-ep-19"></rect></g><g><rect x="125.72727272727273" y="37.33571428571428" width="2" height="62.66428571428572" id="cases-ep-20"></rect></g><g><rect x="122.16363636363636" y="31.05" width="2" height="68.95" id="cases-ep-21"></rect></g><g><rect x="118.6" y="25.18571428571429" width="2" height="74.81428571428572" id="cases-ep-22"></rect></g><g><rect x="115.03636363636363" y="16.807142857142853" width="2" height="83.19285714285715" id="cases-ep-23"></rect></g><g><rect x="111.47272727272728" y="61.03214285714286" width="2" height="38.96785714285714" id="cases-ep-24"></rect></g><g><rect x="107.90909090909089" y="54.27142857142857" width="2" height="45.72857142857143" id="cases-ep-25"></rect></g><g><rect x="104.34545454545456" y="33.285714285714285" width="2" height="66.71428571428572" id="cases-ep-26"></rect></g><g><rect x="100.78181818181817" y="29.460714285714285" width="2" height="70.53928571428571" id="cases-ep-27"></rect></g><g><rect x="97.21818181818183" y="24.86785714285714" width="2" height="75.13214285714287" id="cases-ep-28"></rect></g><g><rect x="93.65454545454546" y="20.585714285714285" width="2" height="79.41428571428571" id="cases-ep-29"></rect></g><g><rect x="90.09090909090911" y="13.357142857142856" width="2" height="86.64285714285714" id="cases-ep-30"></rect></g><g><rect x="86.52727272727273" y="58.707142857142856" width="2" height="41.292857142857144" id="cases-ep-31"></rect></g><g><rect x="82.96363636363637" y="52.37499999999999" width="2" height="47.62500000000001" id="cases-ep-32"></rect></g><g><rect x="79.4" y="28.414285714285715" width="2" height="71.58571428571429" id="cases-ep-33"></rect></g><g><rect x="75.83636363636364" y="24.907142857142862" width="2" height="75.09285714285714" id="cases-ep-34"></rect></g><g><rect x="72.27272727272727" y="18.36428571428571" width="2" height="81.63571428571429" id="cases-ep-35"></rect></g><g><rect x="68.70909090909092" y="3.5499999999999976" width="2" height="96.45" id="cases-ep-36"></rect></g><g><rect x="65.14545454545454" y="64.79642857142858" width="2" height="35.20357142857142" id="cases-ep-37"></rect></g><g><rect x="61.58181818181818" y="65.26071428571429" width="2" height="34.739285714285714" id="cases-ep-38"></rect></g><g><rect x="58.018181818181816" y="59.52857142857143" width="2" height="40.47142857142857" id="cases-ep-39"></rect></g><g><rect x="54.454545454545446" y="36.385714285714286" width="2" height="63.614285714285714" id="cases-ep-40"></rect></g><g><rect x="50.89090909090908" y="35.464285714285715" width="2" height="64.53571428571428" id="cases-ep-41"></rect></g><g><rect x="47.32727272727273" y="29.560714285714283" width="2" height="70.43928571428572" id="cases-ep-42"></rect></g><g><rect x="43.76363636363636" y="24.996428571428574" width="2" height="75.00357142857143" id="cases-ep-43"></rect></g><g><rect x="40.199999999999996" y="19.50357142857143" width="2" height="80.49642857142857" id="cases-ep-44"></rect></g><g><rect x="36.636363636363626" y="61.56785714285714" width="2" height="38.43214285714286" id="cases-ep-45"></rect></g><g><rect x="33.072727272727285" y="58.592857142857135" width="2" height="41.407142857142865" id="cases-ep-46"></rect></g><g><rect x="29.509090909090922" y="41.86428571428571" width="2" height="58.13571428571429" id="cases-ep-47"></rect></g><g><rect x="25.945454545454556" y="38.82857142857142" width="2" height="61.17142857142858" id="cases-ep-48"></rect></g><g><rect x="22.38181818181819" y="36.425" width="2" height="63.575" id="cases-ep-49"></rect></g><g><rect x="18.818181818181824" y="30.735714285714288" width="2" height="69.2642857142857" id="cases-ep-50"></rect></g><g><rect x="15.254545454545461" y="34.95" width="2" height="65.05" id="cases-ep-51"></rect></g><g><rect x="11.690909090909095" y="66.76785714285714" width="2" height="33.23214285714286" id="cases-ep-52"></rect></g><g><rect x="8.12727272727273" y="63.15714285714286" width="2" height="36.84285714285714" id="cases-ep-53"></rect></g><g><rect x="4.563636363636365" y="46.90357142857143" width="2" height="53.09642857142857" id="cases-ep-54"></rect></g><g><rect x="1" y="45.364285714285714" width="2" height="54.635714285714286" id="cases-ep-55"></rect></g></g><g class="fg-line cases-ep" fill="none" stroke="#92c5de" stroke-width="2" stroke-linecap="round"><path d="M198,62.04336734693878L194.43636363636364,60.76734693877551L190.87272727272727,59.18775510204082L187.30909090909088,57.60561224489796L183.74545454545455,56.94897959183673L180.1818181818182,56.139795918367355L176.61818181818182,54.911734693877555L173.05454545454546,53.772959183673464L169.49090909090907,52.25714285714286L165.92727272727274,50.54948979591837L162.36363636363637,48.51224489795918L158.8,47.5780612244898L155.23636363636365,46.522448979591836L151.6727272727273,44.76173469387755L148.1090909090909,43.05612244897959L144.54545454545453,41.59642857142857L140.9818181818182,40.31938775510204L137.41818181818184,39.20102040816327L133.85454545454544,38.626530612244906L130.29090909090908,37.82448979591836L126.72727272727273,36.99540816326531L123.16363636363636,35.87040816326531L119.6,34.987244897959194L116.03636363636363,34.330102040816335L112.47272727272728,33.83724489795918L108.90909090909089,33.505102040816325L105.34545454545456,33.23418367346939L101.78181818181817,32.53826530612245L98.21818181818183,31.887755102040817L94.65454545454546,30.958673469387755L91.09090909090911,28.525L87.52727272727273,35.873469387755094L83.96363636363637,36.80969387755102L80.4,37.83163265306122L76.83636363636364,38.97040816326531L73.27272727272727,40.47857142857143L69.70909090909092,42.078061224489794L66.14545454545454,45.141836734693875L62.58181818181818,38.67142857142857L59.018181818181816,38.14387755102041L55.454545454545446,38.01020408163265L51.89090909090908,38.79285714285714L48.32727272727273,39.2734693877551L44.76363636363636,40.25408163265307L41.199999999999996,41.07397959183674L37.636363636363626,43.280612244897966L34.072727272727285,44.02346938775511L30.509090909090922,44.67551020408164L26.945454545454556,45.3954081632653L23.38181818181819,46.32908163265306L19.818181818181824,47.06887755102041L16.25454545454546,48.36020408163265L12.690909090909095,48.202551020408166L9.12727272727273,48.400510204081634L5.563636363636365,48.62806122448979L2,48.36683673469388"></path></g></svg>