<svg meta="{&quot;DATA_PUBLISHED_DATE&quot;:&quot;2022-07-12&quot;,&quot;RENDER_DATE&quot;:&quot;2022-07-12&quot;,&quot;FIRST_DATE&quot;:&quot;2022-05-09&quot;,&quot;LAST_DATE&quot;:&quot;2022-07-03&quot;}" xmlns="http://www.w3.org/2000/svg" viewBox="0,0,200,100"><g transform="translate(0,0)"></g><g class="fg-bars cases-ep" fill="#00183f" stroke="none"><g><rect x="197" y="64.75" width="2" height="35.25" id="cases-ep-0"></rect></g><g><rect x="193.43636363636364" y="55.98333333333334" width="2" height="44.01666666666666" id="cases-ep-1"></rect></g><g><rect x="189.87272727272727" y="29.03333333333333" width="2" height="70.96666666666667" id="cases-ep-2"></rect></g><g><rect x="186.30909090909088" y="26.412500000000005" width="2" height="73.58749999999999" id="cases-ep-3"></rect></g><g><rect x="182.74545454545455" y="20.041666666666668" width="2" height="79.95833333333333" id="cases-ep-4"></rect></g><g><rect x="179.1818181818182" y="14.537500000000003" width="2" height="85.46249999999999" id="cases-ep-5"></rect></g><g><rect x="175.61818181818182" y="7.84583333333333" width="2" height="92.15416666666667" id="cases-ep-6"></rect></g><g><rect x="172.05454545454546" y="56.225" width="2" height="43.775" id="cases-ep-7"></rect></g><g><rect x="168.49090909090907" y="52.50416666666666" width="2" height="47.49583333333334" id="cases-ep-8"></rect></g><g><rect x="164.92727272727274" y="32.825" width="2" height="67.175" id="cases-ep-9"></rect></g><g><rect x="161.36363636363637" y="29.15833333333333" width="2" height="70.84166666666667" id="cases-ep-10"></rect></g><g><rect x="157.8" y="26.40416666666666" width="2" height="73.59583333333333" id="cases-ep-11"></rect></g><g><rect x="154.23636363636365" y="19.566666666666666" width="2" height="80.43333333333334" id="cases-ep-12"></rect></g><g><rect x="150.6727272727273" y="24.9625" width="2" height="75.0375" id="cases-ep-13"></rect></g><g><rect x="147.1090909090909" y="61.62083333333334" width="2" height="38.37916666666666" id="cases-ep-14"></rect></g><g><rect x="143.54545454545453" y="57.233333333333334" width="2" height="42.766666666666666" id="cases-ep-15"></rect></g><g><rect x="139.9818181818182" y="38.37916666666666" width="2" height="61.62083333333334" id="cases-ep-16"></rect></g><g><rect x="136.41818181818184" y="36.791666666666664" width="2" height="63.208333333333336" id="cases-ep-17"></rect></g><g><rect x="132.85454545454544" y="32.358333333333334" width="2" height="67.64166666666667" id="cases-ep-18"></rect></g><g><rect x="129.29090909090908" y="30.125" width="2" height="69.875" id="cases-ep-19"></rect></g><g><rect x="125.72727272727273" y="23.26666666666667" width="2" height="76.73333333333333" id="cases-ep-20"></rect></g><g><rect x="122.16363636363636" y="62.94166666666668" width="2" height="37.05833333333332" id="cases-ep-21"></rect></g><g><rect x="118.6" y="58.84583333333333" width="2" height="41.15416666666667" id="cases-ep-22"></rect></g><g><rect x="115.03636363636363" y="35.6375" width="2" height="64.3625" id="cases-ep-23"></rect></g><g><rect x="111.47272727272728" y="34.08333333333333" width="2" height="65.91666666666667" id="cases-ep-24"></rect></g><g><rect x="107.90909090909089" y="26.445833333333336" width="2" height="73.55416666666666" id="cases-ep-25"></rect></g><g><rect x="104.34545454545456" y="21.84583333333333" width="2" height="78.15416666666667" id="cases-ep-26"></rect></g><g><rect x="100.78181818181817" y="13.12916666666667" width="2" height="86.87083333333334" id="cases-ep-27"></rect></g><g><rect x="97.21818181818183" y="60.19583333333334" width="2" height="39.80416666666666" id="cases-ep-28"></rect></g><g><rect x="93.65454545454546" y="55.98333333333334" width="2" height="44.01666666666666" id="cases-ep-29"></rect></g><g><rect x="90.09090909090911" y="31.991666666666664" width="2" height="68.00833333333334" id="cases-ep-30"></rect></g><g><rect x="86.52727272727273" y="25.187499999999996" width="2" height="74.8125" id="cases-ep-31"></rect></g><g><rect x="82.96363636363637" y="14.120833333333337" width="2" height="85.87916666666666" id="cases-ep-32"></rect></g><g><rect x="79.4" y="0.5791666666666639" width="2" height="99.42083333333333" id="cases-ep-33"></rect></g><g><rect x="75.83636363636364" y="64.18333333333332" width="2" height="35.81666666666668" id="cases-ep-34"></rect></g><g><rect x="72.27272727272727" y="67.2625" width="2" height="32.7375" id="cases-ep-35"></rect></g><g><rect x="68.70909090909092" y="63.1625" width="2" height="36.8375" id="cases-ep-36"></rect></g><g><rect x="65.14545454545454" y="41.02083333333333" width="2" height="58.97916666666667" id="cases-ep-37"></rect></g><g><rect x="61.58181818181818" y="35.45" width="2" height="64.55" id="cases-ep-38"></rect></g><g><rect x="58.018181818181816" y="28.741666666666667" width="2" height="71.25833333333333" id="cases-ep-39"></rect></g><g><rect x="54.454545454545446" y="24.379166666666663" width="2" height="75.62083333333334" id="cases-ep-40"></rect></g><g><rect x="50.89090909090908" y="18.904166666666665" width="2" height="81.09583333333333" id="cases-ep-41"></rect></g><g><rect x="47.32727272727273" y="63.80833333333334" width="2" height="36.19166666666666" id="cases-ep-42"></rect></g><g><rect x="43.76363636363636" y="62.583333333333336" width="2" height="37.416666666666664" id="cases-ep-43"></rect></g><g><rect x="40.199999999999996" y="41.90833333333334" width="2" height="58.09166666666666" id="cases-ep-44"></rect></g><g><rect x="36.636363636363626" y="38.99166666666667" width="2" height="61.00833333333333" id="cases-ep-45"></rect></g><g><rect x="33.072727272727285" y="34.34166666666667" width="2" height="65.65833333333333" id="cases-ep-46"></rect></g><g><rect x="29.509090909090922" y="32.49999999999999" width="2" height="67.5" id="cases-ep-47"></rect></g><g><rect x="25.945454545454556" y="27.749999999999996" width="2" height="72.25" id="cases-ep-48"></rect></g><g><rect x="22.38181818181819" y="67.14583333333333" width="2" height="32.85416666666667" id="cases-ep-49"></rect></g><g><rect x="18.818181818181824" y="66.61666666666667" width="2" height="33.383333333333326" id="cases-ep-50"></rect></g><g><rect x="15.254545454545461" y="52.275000000000006" width="2" height="47.724999999999994" id="cases-ep-51"></rect></g><g><rect x="11.690909090909095" y="51.974999999999994" width="2" height="48.025000000000006" id="cases-ep-52"></rect></g><g><rect x="8.12727272727273" y="50.31250000000001" width="2" height="49.68749999999999" id="cases-ep-53"></rect></g><g><rect x="4.563636363636365" y="50.05416666666667" width="2" height="49.94583333333333" id="cases-ep-54"></rect></g><g><rect x="1" y="46.49583333333334" width="2" height="53.50416666666666" id="cases-ep-55"></rect></g></g><g class="fg-line cases-ep" fill="none" stroke="#92c5de" stroke-width="2" stroke-linecap="round"><path d="M198,31.229166666666664L194.43636363636364,30.011309523809526L190.87272727272727,29.514285714285716L187.30909090909088,30.055952380952387L183.74545454545455,30.448214285714283L180.1818181818182,31.35714285714286L176.61818181818182,32.07559523809523L173.05454545454546,34.520833333333336L169.49090909090907,35.291666666666664L165.92727272727274,35.967261904761905L162.36363636363637,36.76071428571429L158.8,37.851190476190474L155.23636363636365,38.701785714285705L151.6727272727273,40.210119047619045L148.1090909090909,39.96785714285714L144.54545454545453,40.15654761904762L140.9818181818182,40.38690476190476L137.41818181818184,39.99523809523809L133.85454545454544,39.608333333333334L130.29090909090908,38.76369047619047L126.72727272727273,37.58095238095238L123.16363636363636,36.132738095238096L119.6,35.74047619047619L116.03636363636363,35.33154761904762L112.47272727272728,34.81071428571428L108.90909090909089,33.539880952380955L105.34545454545456,31.77916666666667L101.78181818181817,28.74107142857142L98.21818181818183,36.03452380952381L94.65454545454546,37.044047619047625L91.09090909090911,38.06964285714286L87.52727272727273,39.35952380952381L83.96363636363637,40.82559523809523L80.4,42.91428571428572L76.83636363636364,46.31428571428571L73.27272727272727,39.84583333333334L69.70909090909092,39.35238095238096L66.14545454545454,39.26964285714286L62.58181818181818,39.396428571428565L59.018181818181816,39.90238095238096L55.454545454545446,40.702380952380956L51.89090909090908,41.862500000000004L48.32727272727273,43.12619047619047L44.76363636363636,43.6029761904762L41.199999999999996,44.17916666666667L37.636363636363626,45.66011904761904L34.072727272727285,47.514880952380956L30.509090909090922,49.79642857142858L26.945454545454556,52.30416666666666L23.38181818181819,54.982142857142854L19.818181818181824,56.05535714285714L16.25454545454546,57.07619047619048L12.690909090909095,58.58809523809524L9.12727272727273,59.888690476190476L5.563636363636365,61.15595238095237L2,62.37738095238095"></path></g></svg>