<svg about="DATA_PUBLISHED_DATE:2022-02-02,RENDER_DATE:2022-02-02" xmlns="http://www.w3.org/2000/svg" viewBox="0,0,200,100"><g transform="translate(0,0)"></g><g class="fg-bars cases-ep" fill="#00183f" stroke="none"><g><rect x="197" y="58.288125" width="2" height="41.711875" id="cases-ep-0"></rect></g><g><rect x="193.43636363636364" y="83.9025" width="2" height="16.097499999999997" id="cases-ep-1"></rect></g><g><rect x="189.87272727272727" y="76.390625" width="2" height="23.609375" id="cases-ep-2"></rect></g><g><rect x="186.30909090909088" y="53.054375" width="2" height="46.945625" id="cases-ep-3"></rect></g><g><rect x="182.74545454545455" y="44.871249999999996" width="2" height="55.128750000000004" id="cases-ep-4"></rect></g><g><rect x="179.1818181818182" y="38.538125" width="2" height="61.461875" id="cases-ep-5"></rect></g><g><rect x="175.61818181818182" y="26.890625" width="2" height="73.109375" id="cases-ep-6"></rect></g><g><rect x="172.05454545454546" y="51.361250000000005" width="2" height="48.638749999999995" id="cases-ep-7"></rect></g><g><rect x="168.49090909090907" y="76.67500000000001" width="2" height="23.32499999999999" id="cases-ep-8"></rect></g><g><rect x="164.92727272727274" y="65.28625" width="2" height="34.713750000000005" id="cases-ep-9"></rect></g><g><rect x="161.36363636363637" y="36.504999999999995" width="2" height="63.495000000000005" id="cases-ep-10"></rect></g><g><rect x="157.8" y="30.735" width="2" height="69.265" id="cases-ep-11"></rect></g><g><rect x="154.23636363636365" y="24.2625" width="2" height="75.7375" id="cases-ep-12"></rect></g><g><rect x="150.6727272727273" y="18.918124999999996" width="2" height="81.081875" id="cases-ep-13"></rect></g><g><rect x="147.1090909090909" y="15.371250000000003" width="2" height="84.62875" id="cases-ep-14"></rect></g><g><rect x="143.54545454545453" y="67.10437499999999" width="2" height="32.89562500000001" id="cases-ep-15"></rect></g><g><rect x="139.9818181818182" y="54.13875" width="2" height="45.86125" id="cases-ep-16"></rect></g><g><rect x="136.41818181818184" y="18.109375000000007" width="2" height="81.890625" id="cases-ep-17"></rect></g><g><rect x="132.85454545454544" y="13.398125000000006" width="2" height="86.60187499999999" id="cases-ep-18"></rect></g><g><rect x="129.29090909090908" y="6.72625" width="2" height="93.27375" id="cases-ep-19"></rect></g><g><rect x="125.72727272727273" y="6.124375000000004" width="2" height="93.875625" id="cases-ep-20"></rect></g><g><rect x="122.16363636363636" y="17.374374999999997" width="2" height="82.625625" id="cases-ep-21"></rect></g><g><rect x="118.6" y="67.208125" width="2" height="32.791875000000005" id="cases-ep-22"></rect></g><g><rect x="115.03636363636363" y="81.459375" width="2" height="18.540625000000006" id="cases-ep-23"></rect></g><g><rect x="111.47272727272728" y="68.179375" width="2" height="31.820625000000007" id="cases-ep-24"></rect></g><g><rect x="107.90909090909089" y="48.19" width="2" height="51.81" id="cases-ep-25"></rect></g><g><rect x="104.34545454545456" y="45.82625" width="2" height="54.17375" id="cases-ep-26"></rect></g><g><rect x="100.78181818181817" y="46.286875" width="2" height="53.713125" id="cases-ep-27"></rect></g><g><rect x="97.21818181818183" y="54.49125" width="2" height="45.50875" id="cases-ep-28"></rect></g><g><rect x="93.65454545454546" y="78.7075" width="2" height="21.292500000000004" id="cases-ep-29"></rect></g><g><rect x="90.09090909090911" y="91.45" width="2" height="8.549999999999997" id="cases-ep-30"></rect></g><g><rect x="86.52727272727273" y="86.79187499999999" width="2" height="13.20812500000001" id="cases-ep-31"></rect></g><g><rect x="82.96363636363637" y="80.31875" width="2" height="19.681250000000006" id="cases-ep-32"></rect></g><g><rect x="79.4" y="80.60249999999999" width="2" height="19.397500000000008" id="cases-ep-33"></rect></g><g><rect x="75.83636363636364" y="83.30625" width="2" height="16.693749999999994" id="cases-ep-34"></rect></g><g><rect x="72.27272727272727" y="85.841875" width="2" height="14.158124999999998" id="cases-ep-35"></rect></g><g><rect x="68.70909090909092" y="93.469375" width="2" height="6.530625000000001" id="cases-ep-36"></rect></g><g><rect x="65.14545454545454" y="94.031875" width="2" height="5.968125000000001" id="cases-ep-37"></rect></g><g><rect x="61.58181818181818" y="93.144375" width="2" height="6.855625000000003" id="cases-ep-38"></rect></g><g><rect x="58.018181818181816" y="93.6875" width="2" height="6.3125" id="cases-ep-39"></rect></g><g><rect x="54.454545454545446" y="93.76187499999999" width="2" height="6.238125000000011" id="cases-ep-40"></rect></g><g><rect x="50.89090909090908" y="94.8275" width="2" height="5.172499999999999" id="cases-ep-41"></rect></g><g><rect x="47.32727272727273" y="94.479375" width="2" height="5.5206249999999955" id="cases-ep-42"></rect></g><g><rect x="43.76363636363636" y="97.28125" width="2" height="2.71875" id="cases-ep-43"></rect></g><g><rect x="40.199999999999996" y="97.36749999999999" width="2" height="2.6325000000000074" id="cases-ep-44"></rect></g><g><rect x="36.636363636363626" y="96.39875" width="2" height="3.601249999999993" id="cases-ep-45"></rect></g><g><rect x="33.072727272727285" y="96.409375" width="2" height="3.590625000000003" id="cases-ep-46"></rect></g><g><rect x="29.509090909090922" y="95.940625" width="2" height="4.059375000000003" id="cases-ep-47"></rect></g><g><rect x="25.945454545454556" y="95.915625" width="2" height="4.084374999999994" id="cases-ep-48"></rect></g><g><rect x="22.38181818181819" y="95.360625" width="2" height="4.639375000000001" id="cases-ep-49"></rect></g><g><rect x="18.818181818181824" y="97.58250000000001" width="2" height="2.4174999999999898" id="cases-ep-50"></rect></g><g><rect x="15.254545454545461" y="97.395625" width="2" height="2.6043750000000045" id="cases-ep-51"></rect></g><g><rect x="11.690909090909095" y="96.15625" width="2" height="3.84375" id="cases-ep-52"></rect></g><g><rect x="8.12727272727273" y="96.049375" width="2" height="3.9506250000000023" id="cases-ep-53"></rect></g><g><rect x="4.563636363636365" y="95.306875" width="2" height="4.693124999999995" id="cases-ep-54"></rect></g><g><rect x="1" y="95.57124999999999" width="2" height="4.428750000000008" id="cases-ep-55"></rect></g></g><g class="fg-line cases-ep" fill="none" stroke="#92c5de" stroke-width="2" stroke-linecap="round"><path d="M198,54.56223214285715L194.43636363636364,53.57267857142857L190.87272727272727,52.54017857142856L187.30909090909088,50.95383928571429L183.74545454545455,48.589642857142856L180.1818181818182,46.57017857142856L176.61818181818182,44.53080357142857L173.05454545454546,43.391875L169.49090909090907,38.25044642857143L165.92727272727274,36.88321428571428L162.36363636363637,35.29071428571429L158.8,32.662767857142846L155.23636363636365,30.186071428571427L151.6727272727273,27.680892857142858L148.1090909090909,25.853214285714287L144.54545454545453,26.139374999999998L140.9818181818182,26.15419642857143L137.41818181818184,30.05714285714285L133.85454545454544,37.21L130.29090909090908,42.18026785714285L126.72727272727273,47.76598214285714L123.16363636363636,53.50348214285714L119.6,58.80589285714286L116.03636363636363,60.448660714285715L112.47272727272728,61.87589285714286L108.90909090909089,64.53482142857143L105.34545454545456,69.12464285714286L101.78181818181817,74.09267857142858L98.21818181818183,79.38116071428571L94.65454545454546,83.85982142857142L91.09090909090911,85.96866071428572L87.52727272727273,86.3375L83.96363636363637,87.24499999999999L80.4,89.15482142857142L76.83636363636364,91.03473214285714L73.27272727272727,92.680625L69.70909090909092,93.91455357142857L66.14545454545454,94.45910714285715L62.58181818181818,94.935625L59.018181818181816,95.40053571428572L55.454545454545446,95.78937499999999L51.89090909090908,96.100625L48.32727272727273,96.25607142857143L44.76363636363636,96.38196428571429L41.199999999999996,96.42500000000001L37.636363636363626,96.42901785714287L34.072727272727285,96.394375L30.509090909090922,96.34294642857142L26.945454545454556,96.25241071428572L23.38181818181819,96.2032142857143L19.818181818181824,96.125625L16.25454545454546,96.076875L12.690909090909095,96.07169642857143L9.12727272727273,96.23205357142857L5.563636363636365,96.591875L2,96.84669642857143"></path></g></svg>