<svg about="DATA_PUBLISHED_DATE:2021-11-09,RENDER_DATE:2021-11-09" xmlns="http://www.w3.org/2000/svg" viewBox="0,0,200,100"><g transform="translate(0,0)"></g><g class="fg-bars cases-ep" fill="#00183f" stroke="none"><g><rect x="197" y="79.60769230769232" width="2" height="20.392307692307682" id="cases-ep-0"></rect></g><g><rect x="193.43636363636364" y="74.75384615384615" width="2" height="25.246153846153845" id="cases-ep-1"></rect></g><g><rect x="189.87272727272727" y="61.669230769230765" width="2" height="38.330769230769235" id="cases-ep-2"></rect></g><g><rect x="186.30909090909088" y="57.21538461538462" width="2" height="42.78461538461538" id="cases-ep-3"></rect></g><g><rect x="182.74545454545455" y="52.25384615384616" width="2" height="47.74615384615384" id="cases-ep-4"></rect></g><g><rect x="179.1818181818182" y="49.92307692307693" width="2" height="50.07692307692307" id="cases-ep-5"></rect></g><g><rect x="175.61818181818182" y="46.361538461538466" width="2" height="53.638461538461534" id="cases-ep-6"></rect></g><g><rect x="172.05454545454546" y="74.14615384615384" width="2" height="25.853846153846163" id="cases-ep-7"></rect></g><g><rect x="168.49090909090907" y="70.0923076923077" width="2" height="29.9076923076923" id="cases-ep-8"></rect></g><g><rect x="164.92727272727274" y="55.17692307692308" width="2" height="44.82307692307692" id="cases-ep-9"></rect></g><g><rect x="161.36363636363637" y="55.5923076923077" width="2" height="44.4076923076923" id="cases-ep-10"></rect></g><g><rect x="157.8" y="52.784615384615385" width="2" height="47.215384615384615" id="cases-ep-11"></rect></g><g><rect x="154.23636363636365" y="51.676923076923075" width="2" height="48.323076923076925" id="cases-ep-12"></rect></g><g><rect x="150.6727272727273" y="46.815384615384616" width="2" height="53.184615384615384" id="cases-ep-13"></rect></g><g><rect x="147.1090909090909" y="73.16153846153846" width="2" height="26.838461538461544" id="cases-ep-14"></rect></g><g><rect x="143.54545454545453" y="72.67692307692309" width="2" height="27.32307692307691" id="cases-ep-15"></rect></g><g><rect x="139.9818181818182" y="60.14615384615385" width="2" height="39.85384615384615" id="cases-ep-16"></rect></g><g><rect x="136.41818181818184" y="60.03076923076923" width="2" height="39.96923076923077" id="cases-ep-17"></rect></g><g><rect x="132.85454545454544" y="57.30769230769231" width="2" height="42.69230769230769" id="cases-ep-18"></rect></g><g><rect x="129.29090909090908" y="55.784615384615385" width="2" height="44.215384615384615" id="cases-ep-19"></rect></g><g><rect x="125.72727272727273" y="56.00000000000001" width="2" height="43.99999999999999" id="cases-ep-20"></rect></g><g><rect x="122.16363636363636" y="75.23846153846154" width="2" height="24.761538461538464" id="cases-ep-21"></rect></g><g><rect x="118.6" y="73.43846153846154" width="2" height="26.56153846153846" id="cases-ep-22"></rect></g><g><rect x="115.03636363636363" y="60.699999999999996" width="2" height="39.300000000000004" id="cases-ep-23"></rect></g><g><rect x="111.47272727272728" y="59.599999999999994" width="2" height="40.400000000000006" id="cases-ep-24"></rect></g><g><rect x="107.90909090909089" y="54.276923076923076" width="2" height="45.723076923076924" id="cases-ep-25"></rect></g><g><rect x="104.34545454545456" y="52.59230769230769" width="2" height="47.40769230769231" id="cases-ep-26"></rect></g><g><rect x="100.78181818181817" y="48.14615384615385" width="2" height="51.85384615384615" id="cases-ep-27"></rect></g><g><rect x="97.21818181818183" y="74.26153846153846" width="2" height="25.738461538461536" id="cases-ep-28"></rect></g><g><rect x="93.65454545454546" y="72.00769230769231" width="2" height="27.99230769230769" id="cases-ep-29"></rect></g><g><rect x="90.09090909090911" y="56.33846153846154" width="2" height="43.66153846153846" id="cases-ep-30"></rect></g><g><rect x="86.52727272727273" y="55.89230769230768" width="2" height="44.10769230769232" id="cases-ep-31"></rect></g><g><rect x="82.96363636363637" y="52.63846153846154" width="2" height="47.36153846153846" id="cases-ep-32"></rect></g><g><rect x="79.4" y="48.53076923076923" width="2" height="51.46923076923077" id="cases-ep-33"></rect></g><g><rect x="75.83636363636364" y="41.84615384615385" width="2" height="58.15384615384615" id="cases-ep-34"></rect></g><g><rect x="72.27272727272727" y="71.44615384615385" width="2" height="28.553846153846152" id="cases-ep-35"></rect></g><g><rect x="68.70909090909092" y="67.85384615384615" width="2" height="32.14615384615385" id="cases-ep-36"></rect></g><g><rect x="65.14545454545454" y="53.138461538461534" width="2" height="46.861538461538466" id="cases-ep-37"></rect></g><g><rect x="61.58181818181818" y="50.47692307692307" width="2" height="49.52307692307693" id="cases-ep-38"></rect></g><g><rect x="58.018181818181816" y="43.65384615384615" width="2" height="56.34615384615385" id="cases-ep-39"></rect></g><g><rect x="54.454545454545446" y="42.70769230769231" width="2" height="57.29230769230769" id="cases-ep-40"></rect></g><g><rect x="50.89090909090908" y="32.62307692307692" width="2" height="67.37692307692308" id="cases-ep-41"></rect></g><g><rect x="47.32727272727273" y="68.43076923076923" width="2" height="31.56923076923077" id="cases-ep-42"></rect></g><g><rect x="43.76363636363636" y="62.630769230769225" width="2" height="37.369230769230775" id="cases-ep-43"></rect></g><g><rect x="40.199999999999996" y="44.138461538461534" width="2" height="55.861538461538466" id="cases-ep-44"></rect></g><g><rect x="36.636363636363626" y="39.70769230769231" width="2" height="60.29230769230769" id="cases-ep-45"></rect></g><g><rect x="33.072727272727285" y="32.66153846153846" width="2" height="67.33846153846153" id="cases-ep-46"></rect></g><g><rect x="29.509090909090922" y="27.938461538461535" width="2" height="72.06153846153846" id="cases-ep-47"></rect></g><g><rect x="25.945454545454556" y="20.57692307692308" width="2" height="79.42307692307692" id="cases-ep-48"></rect></g><g><rect x="22.38181818181819" y="59.353846153846156" width="2" height="40.646153846153844" id="cases-ep-49"></rect></g><g><rect x="18.818181818181824" y="52.42307692307693" width="2" height="47.57692307692307" id="cases-ep-50"></rect></g><g><rect x="15.254545454545461" y="28.90769230769231" width="2" height="71.09230769230768" id="cases-ep-51"></rect></g><g><rect x="11.690909090909095" y="22.292307692307688" width="2" height="77.70769230769231" id="cases-ep-52"></rect></g><g><rect x="8.12727272727273" y="13.66153846153846" width="2" height="86.33846153846154" id="cases-ep-53"></rect></g><g><rect x="4.563636363636365" y="5.292307692307697" width="2" height="94.7076923076923" id="cases-ep-54"></rect></g><g><rect x="1" y="49.26923076923077" width="2" height="50.73076923076923" id="cases-ep-55"></rect></g></g><g class="fg-line cases-ep" fill="none" stroke="#92c5de" stroke-width="2" stroke-linecap="round"><path d="M198,60.254945054945054L194.43636363636364,59.47472527472527L190.87272727272727,58.80879120879121L187.30909090909088,57.88131868131868L183.74545454545455,57.64945054945054L180.1818181818182,57.72527472527473L176.61818181818182,57.97582417582417L173.05454545454546,58.04065934065934L169.49090909090907,57.9L165.92727272727274,58.26923076923076L162.36363636363637,58.979120879120885L158.8,59.613186813186815L155.23636363636365,60.25934065934065L151.6727272727273,60.84615384615384L148.1090909090909,62.15824175824176L144.54545454545453,62.45494505494506L140.9818181818182,62.56373626373627L137.41818181818184,62.642857142857146L133.85454545454544,62.581318681318685L130.29090909090908,62.14835164835165L126.72727272727273,61.69230769230769L123.16363636363636,60.57032967032967L119.6,60.43076923076923L116.03636363636363,60.22637362637362L112.47272727272728,59.60329670329671L108.90909090909089,59.07362637362637L105.34545454545456,58.839560439560444L101.78181818181817,58.259340659340666L98.21818181818183,57.35934065934065L94.65454545454546,56.95714285714286L91.09090909090911,56.36373626373627L87.52727272727273,55.90659340659341L83.96363636363637,55.13296703296704L80.4,53.84945054945055L76.83636363636364,53.01758241758242L73.27272727272727,51.7L69.70909090909092,51.26923076923077L66.14545454545454,50.523076923076914L62.58181818181818,49.23736263736264L59.018181818181816,47.6989010989011L55.454545454545446,46.12857142857143L51.89090909090908,44.01868131868132L48.32727272727273,42.29780219780219L44.76363636363636,41.0010989010989L41.199999999999996,39.542857142857144L37.636363636363626,37.36703296703296L34.072727272727285,34.879120879120876L30.509090909090922,32.16483516483516L26.945454545454556,28.92967032967033L23.38181818181819,33.02857142857143L19.818181818181824,32.9967032967033L16.25454545454546,32.449450549450546L12.690909090909095,31.72087912087912L9.12727272727273,30.86923076923077L5.563636363636365,29.197802197802204L2,29.34285714285715"></path></g></svg>