<svg meta="{&quot;DATA_PUBLISHED_DATE&quot;:&quot;2022-05-27&quot;,&quot;RENDER_DATE&quot;:&quot;2022-05-27&quot;,&quot;FIRST_DATE&quot;:&quot;2022-03-10&quot;,&quot;LAST_DATE&quot;:&quot;2022-05-04&quot;}" xmlns="http://www.w3.org/2000/svg" viewBox="0,0,200,100"><g transform="translate(0,0)"></g><g class="fg-bars death-date" fill="#00183f" stroke="none"><g><rect x="197" y="85" width="2" height="15" id="death-date-0"></rect></g><g><rect x="193.43636363636364" y="90" width="2" height="10" id="death-date-1"></rect></g><g><rect x="189.87272727272727" y="83.33333333333334" width="2" height="16.666666666666657" id="death-date-2"></rect></g><g><rect x="186.30909090909088" y="88.33333333333333" width="2" height="11.666666666666671" id="death-date-3"></rect></g><g><rect x="182.74545454545455" y="78.33333333333333" width="2" height="21.66666666666667" id="death-date-4"></rect></g><g><rect x="179.1818181818182" y="83.33333333333334" width="2" height="16.666666666666657" id="death-date-5"></rect></g><g><rect x="175.61818181818182" y="90" width="2" height="10" id="death-date-6"></rect></g><g><rect x="172.05454545454546" y="85" width="2" height="15" id="death-date-7"></rect></g><g><rect x="168.49090909090907" y="91.66666666666666" width="2" height="8.333333333333343" id="death-date-8"></rect></g><g><rect x="164.92727272727274" y="75" width="2" height="25" id="death-date-9"></rect></g><g><rect x="161.36363636363637" y="75" width="2" height="25" id="death-date-10"></rect></g><g><rect x="157.8" y="85" width="2" height="15" id="death-date-11"></rect></g><g><rect x="154.23636363636365" y="83.33333333333334" width="2" height="16.666666666666657" id="death-date-12"></rect></g><g><rect x="150.6727272727273" y="86.66666666666667" width="2" height="13.333333333333329" id="death-date-13"></rect></g><g><rect x="147.1090909090909" y="76.66666666666666" width="2" height="23.333333333333343" id="death-date-14"></rect></g><g><rect x="143.54545454545453" y="83.33333333333334" width="2" height="16.666666666666657" id="death-date-15"></rect></g><g><rect x="139.9818181818182" y="76.66666666666666" width="2" height="23.333333333333343" id="death-date-16"></rect></g><g><rect x="136.41818181818184" y="76.66666666666666" width="2" height="23.333333333333343" id="death-date-17"></rect></g><g><rect x="132.85454545454544" y="78.33333333333333" width="2" height="21.66666666666667" id="death-date-18"></rect></g><g><rect x="129.29090909090908" y="73.33333333333334" width="2" height="26.666666666666657" id="death-date-19"></rect></g><g><rect x="125.72727272727273" y="76.66666666666666" width="2" height="23.333333333333343" id="death-date-20"></rect></g><g><rect x="122.16363636363636" y="80" width="2" height="20" id="death-date-21"></rect></g><g><rect x="118.6" y="85" width="2" height="15" id="death-date-22"></rect></g><g><rect x="115.03636363636363" y="68.33333333333333" width="2" height="31.66666666666667" id="death-date-23"></rect></g><g><rect x="111.47272727272728" y="85" width="2" height="15" id="death-date-24"></rect></g><g><rect x="107.90909090909089" y="86.66666666666667" width="2" height="13.333333333333329" id="death-date-25"></rect></g><g><rect x="104.34545454545456" y="73.33333333333334" width="2" height="26.666666666666657" id="death-date-26"></rect></g><g><rect x="100.78181818181817" y="75" width="2" height="25" id="death-date-27"></rect></g><g><rect x="97.21818181818183" y="60" width="2" height="40" id="death-date-28"></rect></g><g><rect x="93.65454545454546" y="65" width="2" height="35" id="death-date-29"></rect></g><g><rect x="90.09090909090911" y="78.33333333333333" width="2" height="21.66666666666667" id="death-date-30"></rect></g><g><rect x="86.52727272727273" y="76.66666666666666" width="2" height="23.333333333333343" id="death-date-31"></rect></g><g><rect x="82.96363636363637" y="71.66666666666667" width="2" height="28.33333333333333" id="death-date-32"></rect></g><g><rect x="79.4" y="73.33333333333334" width="2" height="26.666666666666657" id="death-date-33"></rect></g><g><rect x="75.83636363636364" y="68.33333333333333" width="2" height="31.66666666666667" id="death-date-34"></rect></g><g><rect x="72.27272727272727" y="66.66666666666667" width="2" height="33.33333333333333" id="death-date-35"></rect></g><g><rect x="68.70909090909092" y="68.33333333333333" width="2" height="31.66666666666667" id="death-date-36"></rect></g><g><rect x="65.14545454545454" y="63.33333333333333" width="2" height="36.66666666666667" id="death-date-37"></rect></g><g><rect x="61.58181818181818" y="66.66666666666667" width="2" height="33.33333333333333" id="death-date-38"></rect></g><g><rect x="58.018181818181816" y="60" width="2" height="40" id="death-date-39"></rect></g><g><rect x="54.454545454545446" y="48.33333333333333" width="2" height="51.66666666666667" id="death-date-40"></rect></g><g><rect x="50.89090909090908" y="75" width="2" height="25" id="death-date-41"></rect></g><g><rect x="47.32727272727273" y="63.33333333333333" width="2" height="36.66666666666667" id="death-date-42"></rect></g><g><rect x="43.76363636363636" y="56.666666666666664" width="2" height="43.333333333333336" id="death-date-43"></rect></g><g><rect x="40.199999999999996" y="40" width="2" height="60" id="death-date-44"></rect></g><g><rect x="36.636363636363626" y="43.333333333333336" width="2" height="56.666666666666664" id="death-date-45"></rect></g><g><rect x="33.072727272727285" y="63.33333333333333" width="2" height="36.66666666666667" id="death-date-46"></rect></g><g><rect x="29.509090909090922" y="44.99999999999999" width="2" height="55.00000000000001" id="death-date-47"></rect></g><g><rect x="25.945454545454556" y="31.666666666666664" width="2" height="68.33333333333334" id="death-date-48"></rect></g><g><rect x="22.38181818181819" y="48.33333333333333" width="2" height="51.66666666666667" id="death-date-49"></rect></g><g><rect x="18.818181818181824" y="46.666666666666664" width="2" height="53.333333333333336" id="death-date-50"></rect></g><g><rect x="15.254545454545461" y="50" width="2" height="50" id="death-date-51"></rect></g><g><rect x="11.690909090909095" y="35" width="2" height="65" id="death-date-52"></rect></g><g><rect x="8.12727272727273" y="31.666666666666664" width="2" height="68.33333333333334" id="death-date-53"></rect></g><g><rect x="4.563636363636365" y="11.66666666666667" width="2" height="88.33333333333333" id="death-date-54"></rect></g><g><rect x="1" y="6.666666666666665" width="2" height="93.33333333333333" id="death-date-55"></rect></g></g><g class="fg-line death-date" fill="none" stroke="#92c5de" stroke-width="2" stroke-linecap="round"><path d="M198,85.47619047619048L194.43636363636364,85.47619047619048L190.87272727272727,85.71428571428572L187.30909090909088,84.52380952380952L183.74545454545455,82.61904761904762L180.1818181818182,83.57142857142857L176.61818181818182,83.57142857142857L173.05454545454546,83.0952380952381L169.49090909090907,81.9047619047619L165.92727272727274,80.71428571428572L162.36363636363637,80.95238095238095L158.8,81.19047619047619L155.23636363636365,80.23809523809524L151.6727272727273,78.80952380952381L148.1090909090909,77.38095238095238L144.54545454545453,77.85714285714286L140.9818181818182,78.0952380952381L137.41818181818184,76.9047619047619L133.85454545454544,78.0952380952381L130.29090909090908,79.28571428571428L126.72727272727273,79.28571428571428L123.16363636363636,79.04761904761905L119.6,76.19047619047619L116.03636363636363,73.33333333333334L112.47272727272728,74.76190476190476L108.90909090909089,73.57142857142858L105.34545454545456,71.42857142857143L101.78181818181817,71.42857142857143L98.21818181818183,70.47619047619047L94.65454545454546,71.42857142857143L91.09090909090911,71.9047619047619L87.52727272727273,69.76190476190476L83.96363636363637,68.33333333333333L80.4,66.66666666666667L76.83636363636364,63.095238095238095L73.27272727272727,64.04761904761904L69.70909090909092,63.57142857142857L66.14545454545454,61.904761904761905L62.58181818181818,58.57142857142856L59.018181818181816,55.23809523809524L55.454545454545446,55.714285714285715L51.89090909090908,55.23809523809524L48.32727272727273,49.04761904761904L44.76363636363636,46.904761904761905L41.199999999999996,45.47619047619047L37.636363636363626,46.904761904761905L34.072727272727285,45.714285714285715L30.509090909090922,41.19047619047619L26.945454545454556,36.42857142857142L23.38181818181819,32.85714285714286L19.818181818181824,26.428571428571423L16.25454545454546,20.71428571428572L12.690909090909095,14.761904761904754L9.12727272727273,9.761904761904761L5.563636363636365,3.809523809523807L2,2.619047619047621"></path></g></svg>