<svg meta="{&quot;DATA_PUBLISHED_DATE&quot;:&quot;2023-03-16&quot;,&quot;RENDER_DATE&quot;:&quot;2023-03-16&quot;,&quot;FIRST_DATE&quot;:&quot;2022-12-27&quot;,&quot;LAST_DATE&quot;:&quot;2023-02-20&quot;}" xmlns="http://www.w3.org/2000/svg" viewBox="0,0,200,100"><g transform="translate(0,0)"></g><g class="fg-bars death-date" fill="#00183f" stroke="none"><g><rect x="197" y="82.85714285714285" width="2" height="17.142857142857153" id="death-date-0"></rect></g><g><rect x="193.43636363636364" y="72.85714285714286" width="2" height="27.14285714285714" id="death-date-1"></rect></g><g><rect x="189.87272727272727" y="70" width="2" height="30" id="death-date-2"></rect></g><g><rect x="186.30909090909088" y="82.85714285714285" width="2" height="17.142857142857153" id="death-date-3"></rect></g><g><rect x="182.74545454545455" y="70" width="2" height="30" id="death-date-4"></rect></g><g><rect x="179.1818181818182" y="74.28571428571429" width="2" height="25.714285714285708" id="death-date-5"></rect></g><g><rect x="175.61818181818182" y="68.57142857142857" width="2" height="31.42857142857143" id="death-date-6"></rect></g><g><rect x="172.05454545454546" y="78.57142857142857" width="2" height="21.42857142857143" id="death-date-7"></rect></g><g><rect x="168.49090909090907" y="80" width="2" height="20" id="death-date-8"></rect></g><g><rect x="164.92727272727274" y="75.71428571428571" width="2" height="24.285714285714292" id="death-date-9"></rect></g><g><rect x="161.36363636363637" y="68.57142857142857" width="2" height="31.42857142857143" id="death-date-10"></rect></g><g><rect x="157.8" y="68.57142857142857" width="2" height="31.42857142857143" id="death-date-11"></rect></g><g><rect x="154.23636363636365" y="71.42857142857143" width="2" height="28.57142857142857" id="death-date-12"></rect></g><g><rect x="150.6727272727273" y="71.42857142857143" width="2" height="28.57142857142857" id="death-date-13"></rect></g><g><rect x="147.1090909090909" y="62.857142857142854" width="2" height="37.142857142857146" id="death-date-14"></rect></g><g><rect x="143.54545454545453" y="68.57142857142857" width="2" height="31.42857142857143" id="death-date-15"></rect></g><g><rect x="139.9818181818182" y="70" width="2" height="30" id="death-date-16"></rect></g><g><rect x="136.41818181818184" y="75.71428571428571" width="2" height="24.285714285714292" id="death-date-17"></rect></g><g><rect x="132.85454545454544" y="67.14285714285715" width="2" height="32.85714285714285" id="death-date-18"></rect></g><g><rect x="129.29090909090908" y="74.28571428571429" width="2" height="25.714285714285708" id="death-date-19"></rect></g><g><rect x="125.72727272727273" y="52.85714285714286" width="2" height="47.14285714285714" id="death-date-20"></rect></g><g><rect x="122.16363636363636" y="70" width="2" height="30" id="death-date-21"></rect></g><g><rect x="118.6" y="68.57142857142857" width="2" height="31.42857142857143" id="death-date-22"></rect></g><g><rect x="115.03636363636363" y="62.857142857142854" width="2" height="37.142857142857146" id="death-date-23"></rect></g><g><rect x="111.47272727272728" y="61.42857142857143" width="2" height="38.57142857142857" id="death-date-24"></rect></g><g><rect x="107.90909090909089" y="50" width="2" height="50" id="death-date-25"></rect></g><g><rect x="104.34545454545456" y="58.57142857142856" width="2" height="41.42857142857144" id="death-date-26"></rect></g><g><rect x="100.78181818181817" y="45.714285714285715" width="2" height="54.285714285714285" id="death-date-27"></rect></g><g><rect x="97.21818181818183" y="51.42857142857142" width="2" height="48.57142857142858" id="death-date-28"></rect></g><g><rect x="93.65454545454546" y="62.857142857142854" width="2" height="37.142857142857146" id="death-date-29"></rect></g><g><rect x="90.09090909090911" y="57.14285714285714" width="2" height="42.85714285714286" id="death-date-30"></rect></g><g><rect x="86.52727272727273" y="45.714285714285715" width="2" height="54.285714285714285" id="death-date-31"></rect></g><g><rect x="82.96363636363637" y="57.14285714285714" width="2" height="42.85714285714286" id="death-date-32"></rect></g><g><rect x="79.4" y="48.57142857142858" width="2" height="51.42857142857142" id="death-date-33"></rect></g><g><rect x="75.83636363636364" y="47.14285714285714" width="2" height="52.85714285714286" id="death-date-34"></rect></g><g><rect x="72.27272727272727" y="41.42857142857142" width="2" height="58.57142857142858" id="death-date-35"></rect></g><g><rect x="68.70909090909092" y="40" width="2" height="60" id="death-date-36"></rect></g><g><rect x="65.14545454545454" y="40" width="2" height="60" id="death-date-37"></rect></g><g><rect x="61.58181818181818" y="35.71428571428571" width="2" height="64.28571428571429" id="death-date-38"></rect></g><g><rect x="58.018181818181816" y="22.857142857142854" width="2" height="77.14285714285714" id="death-date-39"></rect></g><g><rect x="54.454545454545446" y="51.42857142857142" width="2" height="48.57142857142858" id="death-date-40"></rect></g><g><rect x="50.89090909090908" y="27.142857142857146" width="2" height="72.85714285714286" id="death-date-41"></rect></g><g><rect x="47.32727272727273" y="32.85714285714286" width="2" height="67.14285714285714" id="death-date-42"></rect></g><g><rect x="43.76363636363636" y="57.14285714285714" width="2" height="42.85714285714286" id="death-date-43"></rect></g><g><rect x="40.199999999999996" y="50" width="2" height="50" id="death-date-44"></rect></g><g><rect x="36.636363636363626" y="14.28571428571429" width="2" height="85.71428571428571" id="death-date-45"></rect></g><g><rect x="33.072727272727285" y="18.571428571428573" width="2" height="81.42857142857143" id="death-date-46"></rect></g><g><rect x="29.509090909090922" y="25.71428571428571" width="2" height="74.28571428571429" id="death-date-47"></rect></g><g><rect x="25.945454545454556" y="31.428571428571427" width="2" height="68.57142857142857" id="death-date-48"></rect></g><g><rect x="22.38181818181819" y="40" width="2" height="60" id="death-date-49"></rect></g><g><rect x="18.818181818181824" y="37.142857142857146" width="2" height="62.857142857142854" id="death-date-50"></rect></g><g><rect x="15.254545454545461" y="40" width="2" height="60" id="death-date-51"></rect></g><g><rect x="11.690909090909095" y="5.714285714285716" width="2" height="94.28571428571428" id="death-date-52"></rect></g><g><rect x="8.12727272727273" y="30.000000000000004" width="2" height="70" id="death-date-53"></rect></g><g><rect x="4.563636363636365" y="28.57142857142857" width="2" height="71.42857142857143" id="death-date-54"></rect></g><g><rect x="1" y="14.28571428571429" width="2" height="85.71428571428571" id="death-date-55"></rect></g></g><g class="fg-line death-date" fill="none" stroke="#92c5de" stroke-width="2" stroke-linecap="round"><path d="M198,74.48979591836735L194.43636363636364,73.87755102040816L190.87272727272727,74.89795918367346L187.30909090909088,75.71428571428571L183.74545454545455,73.67346938775509L180.1818181818182,73.46938775510203L176.61818181818182,73.06122448979592L173.05454545454546,73.46938775510203L169.49090909090907,71.22448979591837L165.92727272727274,69.59183673469389L162.36363636363637,68.77551020408164L158.8,69.79591836734693L155.23636363636365,69.59183673469389L151.6727272727273,70L148.1090909090909,67.3469387755102L144.54545454545453,68.36734693877551L140.9818181818182,68.36734693877551L137.41818181818184,67.3469387755102L133.85454545454544,65.3061224489796L130.29090909090908,62.857142857142854L126.72727272727273,60.61224489795918L123.16363636363636,59.591836734693885L119.6,56.938775510204074L116.03636363636363,56.122448979591844L112.47272727272728,55.306122448979586L108.90909090909089,53.06122448979592L105.34545454545456,54.08163265306122L101.78181818181817,52.65306122448978L98.21818181818183,52.85714285714286L94.65454545454546,51.42857142857142L91.09090909090911,48.16326530612245L87.52727272727273,45.714285714285715L83.96363636363637,44.285714285714285L80.4,39.38775510204081L76.83636363636364,39.795918367346935L73.27272727272727,36.93877551020408L69.70909090909092,35.71428571428571L66.14545454545454,38.163265306122454L62.58181818181818,39.59183673469388L59.018181818181816,36.53061224489795L55.454545454545446,35.91836734693879L51.89090909090908,32.244897959183675L48.32727272727273,32.85714285714286L44.76363636363636,33.87755102040817L41.199999999999996,31.020408163265312L37.636363636363626,29.591836734693878L34.072727272727285,28.367346938775505L30.509090909090922,30.000000000000004L26.945454545454556,30.408163265306122L23.38181818181819,27.95918367346939L19.818181818181824,25.510204081632647L16.25454545454546,21.42857142857143L12.690909090909095,19.183673469387763L9.12727272727273,19.795918367346932L5.563636363636365,20.81632653061224L2,17.959183673469383"></path></g></svg>