<svg about="DATA_PUBLISHED_DATE:2021-10-23,RENDER_DATE:2021-10-23" xmlns="http://www.w3.org/2000/svg" viewBox="0,0,200,100"><g transform="translate(0,0)"></g><g class="fg-bars tests-vaccines" fill="#00183f" stroke="none"><g><rect x="197" y="28.71" width="2" height="71.28999999999999" id="tests-vaccines-0"></rect></g><g><rect x="193.43636363636364" y="42.878125" width="2" height="57.121875" id="tests-vaccines-1"></rect></g><g><rect x="189.87272727272727" y="43.08625000000001" width="2" height="56.91374999999999" id="tests-vaccines-2"></rect></g><g><rect x="186.30909090909088" y="37.466875" width="2" height="62.533125" id="tests-vaccines-3"></rect></g><g><rect x="182.74545454545455" y="35.26625" width="2" height="64.73375" id="tests-vaccines-4"></rect></g><g><rect x="179.1818181818182" y="78.3425" width="2" height="21.6575" id="tests-vaccines-5"></rect></g><g><rect x="175.61818181818182" y="60.36625" width="2" height="39.63375" id="tests-vaccines-6"></rect></g><g><rect x="172.05454545454546" y="14.008750000000003" width="2" height="85.99125" id="tests-vaccines-7"></rect></g><g><rect x="168.49090909090907" y="29.128750000000004" width="2" height="70.87125" id="tests-vaccines-8"></rect></g><g><rect x="164.92727272727274" y="33.941874999999996" width="2" height="66.058125" id="tests-vaccines-9"></rect></g><g><rect x="161.36363636363637" y="32.03125" width="2" height="67.96875" id="tests-vaccines-10"></rect></g><g><rect x="157.8" y="32.25" width="2" height="67.75" id="tests-vaccines-11"></rect></g><g><rect x="154.23636363636365" y="76.57499999999999" width="2" height="23.42500000000001" id="tests-vaccines-12"></rect></g><g><rect x="150.6727272727273" y="58.588125000000005" width="2" height="41.411874999999995" id="tests-vaccines-13"></rect></g><g><rect x="147.1090909090909" y="11.498750000000001" width="2" height="88.50125" id="tests-vaccines-14"></rect></g><g><rect x="143.54545454545453" y="19.284374999999997" width="2" height="80.715625" id="tests-vaccines-15"></rect></g><g><rect x="139.9818181818182" y="21.004999999999995" width="2" height="78.995" id="tests-vaccines-16"></rect></g><g><rect x="136.41818181818184" y="20.431874999999998" width="2" height="79.56812500000001" id="tests-vaccines-17"></rect></g><g><rect x="132.85454545454544" y="26.956875000000004" width="2" height="73.043125" id="tests-vaccines-18"></rect></g><g><rect x="129.29090909090908" y="75.84124999999999" width="2" height="24.158750000000012" id="tests-vaccines-19"></rect></g><g><rect x="125.72727272727273" y="56.512499999999996" width="2" height="43.487500000000004" id="tests-vaccines-20"></rect></g><g><rect x="122.16363636363636" y="33.506875" width="2" height="66.49312499999999" id="tests-vaccines-21"></rect></g><g><rect x="118.6" y="55.817499999999995" width="2" height="44.182500000000005" id="tests-vaccines-22"></rect></g><g><rect x="115.03636363636363" y="55.706875" width="2" height="44.293125" id="tests-vaccines-23"></rect></g><g><rect x="111.47272727272728" y="54.310625" width="2" height="45.689375" id="tests-vaccines-24"></rect></g><g><rect x="107.90909090909089" y="50.368125000000006" width="2" height="49.631874999999994" id="tests-vaccines-25"></rect></g><g><rect x="104.34545454545456" y="79.61875" width="2" height="20.381249999999994" id="tests-vaccines-26"></rect></g><g><rect x="100.78181818181817" y="64.509375" width="2" height="35.490624999999994" id="tests-vaccines-27"></rect></g><g><rect x="97.21818181818183" y="40.200625" width="2" height="59.799375" id="tests-vaccines-28"></rect></g><g><rect x="93.65454545454546" y="48.780625" width="2" height="51.219375" id="tests-vaccines-29"></rect></g><g><rect x="90.09090909090911" y="50.322500000000005" width="2" height="49.677499999999995" id="tests-vaccines-30"></rect></g><g><rect x="86.52727272727273" y="49.801249999999996" width="2" height="50.198750000000004" id="tests-vaccines-31"></rect></g><g><rect x="82.96363636363637" y="47.340625" width="2" height="52.659375" id="tests-vaccines-32"></rect></g><g><rect x="79.4" y="77.9275" width="2" height="22.072500000000005" id="tests-vaccines-33"></rect></g><g><rect x="75.83636363636364" y="60.59187500000001" width="2" height="39.40812499999999" id="tests-vaccines-34"></rect></g><g><rect x="72.27272727272727" y="32.645625" width="2" height="67.354375" id="tests-vaccines-35"></rect></g><g><rect x="68.70909090909092" y="44.768750000000004" width="2" height="55.231249999999996" id="tests-vaccines-36"></rect></g><g><rect x="65.14545454545454" y="44.28125000000001" width="2" height="55.71874999999999" id="tests-vaccines-37"></rect></g><g><rect x="61.58181818181818" y="38.402499999999996" width="2" height="61.597500000000004" id="tests-vaccines-38"></rect></g><g><rect x="58.018181818181816" y="87.88625" width="2" height="12.113749999999996" id="tests-vaccines-39"></rect></g><g><rect x="54.454545454545446" y="76.19125" width="2" height="23.808750000000003" id="tests-vaccines-40"></rect></g><g><rect x="50.89090909090908" y="59.98187500000001" width="2" height="40.01812499999999" id="tests-vaccines-41"></rect></g><g><rect x="47.32727272727273" y="26.138125000000002" width="2" height="73.861875" id="tests-vaccines-42"></rect></g><g><rect x="43.76363636363636" y="41.175625000000004" width="2" height="58.824374999999996" id="tests-vaccines-43"></rect></g><g><rect x="40.199999999999996" y="39.0525" width="2" height="60.9475" id="tests-vaccines-44"></rect></g><g><rect x="36.636363636363626" y="37.001875" width="2" height="62.998125" id="tests-vaccines-45"></rect></g><g><rect x="33.072727272727285" y="36.5725" width="2" height="63.4275" id="tests-vaccines-46"></rect></g><g><rect x="29.509090909090922" y="73.3825" width="2" height="26.617500000000007" id="tests-vaccines-47"></rect></g><g><rect x="25.945454545454556" y="51.354375" width="2" height="48.645625" id="tests-vaccines-48"></rect></g><g><rect x="22.38181818181819" y="19.79875" width="2" height="80.20125" id="tests-vaccines-49"></rect></g><g><rect x="18.818181818181824" y="34.889375" width="2" height="65.110625" id="tests-vaccines-50"></rect></g><g><rect x="15.254545454545461" y="35.78" width="2" height="64.22" id="tests-vaccines-51"></rect></g><g><rect x="11.690909090909095" y="33.330625000000005" width="2" height="66.669375" id="tests-vaccines-52"></rect></g><g><rect x="8.12727272727273" y="33.720625000000005" width="2" height="66.27937499999999" id="tests-vaccines-53"></rect></g><g><rect x="4.563636363636365" y="73.73937500000001" width="2" height="26.26062499999999" id="tests-vaccines-54"></rect></g><g><rect x="1" y="52.5875" width="2" height="47.4125" id="tests-vaccines-55"></rect></g></g><g class="fg-line tests-vaccines" fill="none" stroke="#92c5de" stroke-width="2" stroke-linecap="round"><path d="M198,46.588035714285716L194.43636363636364,44.487857142857145L190.87272727272727,42.52366071428572L187.30909090909088,41.21732142857143L183.74545454545455,40.440803571428575L180.1818181818182,40.00991071428571L176.61818181818182,39.75741071428571L173.05454545454546,39.50339285714285L169.49090909090907,39.14482142857143L165.92727272727274,37.738482142857144L162.36363636363637,35.89035714285714L158.8,34.233303571428564L155.23636363636365,33.47714285714285L151.6727272727273,33.372321428571425L148.1090909090909,33.075803571428565L144.54545454545453,36.21982142857143L140.9818181818182,41.43883928571428L137.41818181818184,46.39625000000001L133.85454545454544,51.23607142857143L130.29090909090908,54.580535714285716L126.72727272727273,55.12017857142857L123.16363636363636,56.262589285714284L119.6,57.21883928571428L116.03636363636363,56.21357142857143L112.47272727272728,55.444375L108.90909090909089,54.80017857142857L105.34545454545456,54.36767857142857L101.78181818181817,54.12607142857143L98.21818181818183,53.566428571428574L94.65454545454546,52.48714285714286L91.09090909090911,51.914017857142845L87.52727272727273,51.05098214285715L83.96363636363637,49.42258928571428L80.4,55.21482142857144L76.83636363636364,54.96678571428571L73.27272727272727,54.879642857142855L69.70909090909092,53.949999999999996L66.14545454545454,53.43669642857143L62.58181818181818,52.689732142857146L59.018181818181816,52.48964285714286L55.454545454545446,45.159107142857145L51.89090909090908,44.75785714285715L48.32727272727273,43.525357142857146L44.76363636363636,42.619732142857146L41.199999999999996,41.721696428571434L37.636363636363626,41.25419642857143L34.072727272727285,40.729732142857145L30.509090909090922,40.32232142857143L26.945454545454556,40.373303571428565L23.38181818181819,40.549464285714286L19.818181818181824,40.68214285714286L16.25454545454546,40.89874999999999L12.690909090909095,40.96535714285715L9.12727272727273,41.35741071428571L5.563636363636365,42.13910714285715L2,42.269375"></path></g></svg>