<svg meta="{&quot;DATA_PUBLISHED_DATE&quot;:&quot;2022-07-29&quot;,&quot;RENDER_DATE&quot;:&quot;2022-07-29&quot;,&quot;FIRST_DATE&quot;:&quot;2022-05-26&quot;,&quot;LAST_DATE&quot;:&quot;2022-07-20&quot;}" xmlns="http://www.w3.org/2000/svg" viewBox="0,0,200,100"><g transform="translate(0,0)"></g><g class="fg-bars cases-ep" fill="#00183f" stroke="none"><g><rect x="197" y="35.260714285714286" width="2" height="64.73928571428571" id="cases-ep-0"></rect></g><g><rect x="193.43636363636364" y="27.83928571428571" width="2" height="72.16071428571429" id="cases-ep-1"></rect></g><g><rect x="189.87272727272727" y="18.885714285714283" width="2" height="81.11428571428571" id="cases-ep-2"></rect></g><g><rect x="186.30909090909088" y="62.86785714285714" width="2" height="37.13214285714286" id="cases-ep-3"></rect></g><g><rect x="182.74545454545455" y="55.767857142857146" width="2" height="44.232142857142854" id="cases-ep-4"></rect></g><g><rect x="179.1818181818182" y="34.82857142857143" width="2" height="65.17142857142858" id="cases-ep-5"></rect></g><g><rect x="175.61818181818182" y="30.657142857142862" width="2" height="69.34285714285714" id="cases-ep-6"></rect></g><g><rect x="172.05454545454546" y="25.953571428571433" width="2" height="74.04642857142856" id="cases-ep-7"></rect></g><g><rect x="168.49090909090907" y="21.425000000000004" width="2" height="78.57499999999999" id="cases-ep-8"></rect></g><g><rect x="164.92727272727274" y="13.900000000000002" width="2" height="86.1" id="cases-ep-9"></rect></g><g><rect x="161.36363636363637" y="59.425" width="2" height="40.575" id="cases-ep-10"></rect></g><g><rect x="157.8" y="52.68928571428572" width="2" height="47.31071428571428" id="cases-ep-11"></rect></g><g><rect x="154.23636363636365" y="28.87857142857143" width="2" height="71.12142857142857" id="cases-ep-12"></rect></g><g><rect x="150.6727272727273" y="25.22142857142857" width="2" height="74.77857142857142" id="cases-ep-13"></rect></g><g><rect x="147.1090909090909" y="18.767857142857146" width="2" height="81.23214285714286" id="cases-ep-14"></rect></g><g><rect x="143.54545454545453" y="4.025" width="2" height="95.975" id="cases-ep-15"></rect></g><g><rect x="139.9818181818182" y="65.425" width="2" height="34.575" id="cases-ep-16"></rect></g><g><rect x="136.41818181818184" y="65.64642857142857" width="2" height="34.35357142857143" id="cases-ep-17"></rect></g><g><rect x="132.85454545454544" y="59.960714285714275" width="2" height="40.039285714285725" id="cases-ep-18"></rect></g><g><rect x="129.29090909090908" y="36.93571428571428" width="2" height="63.06428571428572" id="cases-ep-19"></rect></g><g><rect x="125.72727272727273" y="35.60714285714286" width="2" height="64.39285714285714" id="cases-ep-20"></rect></g><g><rect x="122.16363636363636" y="29.98571428571428" width="2" height="70.01428571428572" id="cases-ep-21"></rect></g><g><rect x="118.6" y="25.292857142857137" width="2" height="74.70714285714286" id="cases-ep-22"></rect></g><g><rect x="115.03636363636363" y="19.846428571428575" width="2" height="80.15357142857142" id="cases-ep-23"></rect></g><g><rect x="111.47272727272728" y="61.7" width="2" height="38.3" id="cases-ep-24"></rect></g><g><rect x="107.90909090909089" y="58.739285714285714" width="2" height="41.260714285714286" id="cases-ep-25"></rect></g><g><rect x="104.34545454545456" y="41.97142857142857" width="2" height="58.02857142857143" id="cases-ep-26"></rect></g><g><rect x="100.78181818181817" y="38.91428571428571" width="2" height="61.08571428571429" id="cases-ep-27"></rect></g><g><rect x="97.21818181818183" y="36.56428571428572" width="2" height="63.43571428571428" id="cases-ep-28"></rect></g><g><rect x="93.65454545454546" y="30.746428571428574" width="2" height="69.25357142857143" id="cases-ep-29"></rect></g><g><rect x="90.09090909090911" y="35.203571428571436" width="2" height="64.79642857142856" id="cases-ep-30"></rect></g><g><rect x="86.52727272727273" y="66.91071428571429" width="2" height="33.08928571428571" id="cases-ep-31"></rect></g><g><rect x="82.96363636363637" y="63.18928571428572" width="2" height="36.81071428571428" id="cases-ep-32"></rect></g><g><rect x="79.4" y="46.94642857142857" width="2" height="53.05357142857143" id="cases-ep-33"></rect></g><g><rect x="75.83636363636364" y="45.53571428571429" width="2" height="54.46428571428571" id="cases-ep-34"></rect></g><g><rect x="72.27272727272727" y="41.78928571428572" width="2" height="58.21071428571428" id="cases-ep-35"></rect></g><g><rect x="68.70909090909092" y="39.99642857142857" width="2" height="60.00357142857143" id="cases-ep-36"></rect></g><g><rect x="65.14545454545454" y="34.075" width="2" height="65.925" id="cases-ep-37"></rect></g><g><rect x="61.58181818181818" y="68.24285714285713" width="2" height="31.757142857142867" id="cases-ep-38"></rect></g><g><rect x="58.018181818181816" y="64.83571428571429" width="2" height="35.16428571428571" id="cases-ep-39"></rect></g><g><rect x="54.454545454545446" y="45.18214285714286" width="2" height="54.81785714285714" id="cases-ep-40"></rect></g><g><rect x="50.89090909090908" y="43.68571428571428" width="2" height="56.31428571428572" id="cases-ep-41"></rect></g><g><rect x="47.32727272727273" y="36.957142857142856" width="2" height="63.042857142857144" id="cases-ep-42"></rect></g><g><rect x="43.76363636363636" y="32.78928571428571" width="2" height="67.21071428571429" id="cases-ep-43"></rect></g><g><rect x="40.199999999999996" y="24.889285714285712" width="2" height="75.1107142857143" id="cases-ep-44"></rect></g><g><rect x="36.636363636363626" y="65.49642857142857" width="2" height="34.50357142857143" id="cases-ep-45"></rect></g><g><rect x="33.072727272727285" y="62.07142857142858" width="2" height="37.92857142857142" id="cases-ep-46"></rect></g><g><rect x="29.509090909090922" y="41.47142857142857" width="2" height="58.52857142857143" id="cases-ep-47"></rect></g><g><rect x="25.945454545454556" y="35.542857142857144" width="2" height="64.45714285714286" id="cases-ep-48"></rect></g><g><rect x="22.38181818181819" y="26.01785714285715" width="2" height="73.98214285714285" id="cases-ep-49"></rect></g><g><rect x="18.818181818181824" y="14.467857142857143" width="2" height="85.53214285714286" id="cases-ep-50"></rect></g><g><rect x="15.254545454545461" y="69.21071428571427" width="2" height="30.789285714285725" id="cases-ep-51"></rect></g><g><rect x="11.690909090909095" y="71.83571428571429" width="2" height="28.16428571428571" id="cases-ep-52"></rect></g><g><rect x="8.12727272727273" y="68.25357142857142" width="2" height="31.74642857142858" id="cases-ep-53"></rect></g><g><rect x="4.563636363636365" y="49.42857142857143" width="2" height="50.57142857142857" id="cases-ep-54"></rect></g><g><rect x="1" y="44.59642857142857" width="2" height="55.40357142857143" id="cases-ep-55"></rect></g></g><g class="fg-line cases-ep" fill="none" stroke="#92c5de" stroke-width="2" stroke-linecap="round"><path d="M198,38.015306122448976L194.43636363636364,36.68571428571429L190.87272727272727,35.769387755102045L187.30909090909088,35.05714285714285L183.74545454545455,34.56530612244898L180.1818181818182,34.125510204081635L176.61818181818182,33.27551020408164L173.05454545454546,32.49897959183674L169.49090909090907,31.47244897959184L165.92727272727274,28.986734693877548L162.36363636363637,36.34744897959183L158.8,37.23622448979592L155.23636363636365,38.275000000000006L151.6727272727273,39.42602040816327L148.1090909090909,40.90969387755102L144.54545454545453,42.512244897959185L140.9818181818182,45.55051020408163L137.41818181818184,39.03928571428571L133.85454545454544,38.475510204081644L130.29090909090908,38.30102040816327L126.72727272727273,39.02040816326531L123.16363636363636,39.49285714285714L119.6,40.4326530612245L116.03636363636363,41.211734693877546L112.47272727272728,43.40561224489796L108.90909090909089,44.15L105.34545454545456,44.785714285714285L101.78181818181817,45.496428571428574L98.21818181818183,46.442346938775515L94.65454545454546,47.18877551020408L91.09090909090911,48.51020408163266L87.52727272727273,48.34897959183674L83.96363636363637,48.53928571428572L80.4,48.77448979591836L76.83636363636364,48.522448979591836L73.27272727272727,48.25816326530612L69.70909090909092,47.567857142857136L66.14545454545454,46.53826530612245L62.58181818181818,45.22602040816326L59.018181818181816,44.83367346938775L55.454545454545446,44.43877551020409L51.89090909090908,43.90867346938775L48.32727272727273,42.74540816326531L44.76363636363636,41.18265306122449L41.199999999999996,38.56530612244897L37.636363636363626,44.8969387755102L34.072727272727285,45.80255102040817L30.509090909090922,46.68571428571428L26.945454545454556,47.82244897959183L23.38181818181819,49.11581632653061L19.818181818181824,50.9545918367347L16.25454545454546,53.912244897959184L12.690909090909095,48.373979591836736L9.12727272727273,47.96326530612245L5.563636363636365,47.913265306122454L2,48.01887755102041"></path></g></svg>