<svg meta="{&quot;DATA_PUBLISHED_DATE&quot;:&quot;2022-06-10&quot;,&quot;RENDER_DATE&quot;:&quot;2022-06-10&quot;,&quot;FIRST_DATE&quot;:&quot;2022-04-07&quot;,&quot;LAST_DATE&quot;:&quot;2022-06-01&quot;}" xmlns="http://www.w3.org/2000/svg" viewBox="0,0,200,100"><g transform="translate(0,0)"></g><g class="fg-bars cases-ep" fill="#00183f" stroke="none"><g><rect x="197" y="19.74583333333333" width="2" height="80.25416666666666" id="cases-ep-0"></rect></g><g><rect x="193.43636363636364" y="3.5250000000000004" width="2" height="96.475" id="cases-ep-1"></rect></g><g><rect x="189.87272727272727" y="67.34166666666667" width="2" height="32.65833333333333" id="cases-ep-2"></rect></g><g><rect x="186.30909090909088" y="69.32499999999999" width="2" height="30.67500000000001" id="cases-ep-3"></rect></g><g><rect x="182.74545454545455" y="64.50833333333334" width="2" height="35.49166666666666" id="cases-ep-4"></rect></g><g><rect x="179.1818181818182" y="41.84583333333334" width="2" height="58.15416666666666" id="cases-ep-5"></rect></g><g><rect x="175.61818181818182" y="36.175000000000004" width="2" height="63.824999999999996" id="cases-ep-6"></rect></g><g><rect x="172.05454545454546" y="29.566666666666663" width="2" height="70.43333333333334" id="cases-ep-7"></rect></g><g><rect x="168.49090909090907" y="25.075000000000003" width="2" height="74.925" id="cases-ep-8"></rect></g><g><rect x="164.92727272727274" y="19.55416666666666" width="2" height="80.44583333333334" id="cases-ep-9"></rect></g><g><rect x="161.36363636363637" y="64.74583333333334" width="2" height="35.25416666666666" id="cases-ep-10"></rect></g><g><rect x="157.8" y="63.27916666666666" width="2" height="36.72083333333334" id="cases-ep-11"></rect></g><g><rect x="154.23636363636365" y="42.266666666666666" width="2" height="57.733333333333334" id="cases-ep-12"></rect></g><g><rect x="150.6727272727273" y="39.8625" width="2" height="60.1375" id="cases-ep-13"></rect></g><g><rect x="147.1090909090909" y="34.74583333333333" width="2" height="65.25416666666666" id="cases-ep-14"></rect></g><g><rect x="143.54545454545453" y="32.91666666666667" width="2" height="67.08333333333333" id="cases-ep-15"></rect></g><g><rect x="139.9818181818182" y="27.941666666666663" width="2" height="72.05833333333334" id="cases-ep-16"></rect></g><g><rect x="136.41818181818184" y="67.64166666666667" width="2" height="32.358333333333334" id="cases-ep-17"></rect></g><g><rect x="132.85454545454544" y="67.19999999999999" width="2" height="32.80000000000001" id="cases-ep-18"></rect></g><g><rect x="129.29090909090908" y="52.7625" width="2" height="47.2375" id="cases-ep-19"></rect></g><g><rect x="125.72727272727273" y="52.39583333333333" width="2" height="47.60416666666667" id="cases-ep-20"></rect></g><g><rect x="122.16363636363636" y="50.78750000000001" width="2" height="49.21249999999999" id="cases-ep-21"></rect></g><g><rect x="118.6" y="50.545833333333334" width="2" height="49.454166666666666" id="cases-ep-22"></rect></g><g><rect x="115.03636363636363" y="46.9375" width="2" height="53.0625" id="cases-ep-23"></rect></g><g><rect x="111.47272727272728" y="75.03333333333333" width="2" height="24.96666666666667" id="cases-ep-24"></rect></g><g><rect x="107.90909090909089" y="73.84166666666667" width="2" height="26.15833333333333" id="cases-ep-25"></rect></g><g><rect x="104.34545454545456" y="63.07083333333333" width="2" height="36.92916666666667" id="cases-ep-26"></rect></g><g><rect x="100.78181818181817" y="61.45" width="2" height="38.55" id="cases-ep-27"></rect></g><g><rect x="97.21818181818183" y="59.56250000000001" width="2" height="40.43749999999999" id="cases-ep-28"></rect></g><g><rect x="93.65454545454546" y="58.95" width="2" height="41.05" id="cases-ep-29"></rect></g><g><rect x="90.09090909090911" y="57.233333333333334" width="2" height="42.766666666666666" id="cases-ep-30"></rect></g><g><rect x="86.52727272727273" y="78.79166666666666" width="2" height="21.208333333333343" id="cases-ep-31"></rect></g><g><rect x="82.96363636363637" y="80.05416666666667" width="2" height="19.945833333333326" id="cases-ep-32"></rect></g><g><rect x="79.4" y="72.95416666666667" width="2" height="27.045833333333334" id="cases-ep-33"></rect></g><g><rect x="75.83636363636364" y="70.94583333333333" width="2" height="29.054166666666674" id="cases-ep-34"></rect></g><g><rect x="72.27272727272727" y="69.43333333333334" width="2" height="30.566666666666663" id="cases-ep-35"></rect></g><g><rect x="68.70909090909092" y="68.79166666666667" width="2" height="31.20833333333333" id="cases-ep-36"></rect></g><g><rect x="65.14545454545454" y="67.47916666666667" width="2" height="32.52083333333333" id="cases-ep-37"></rect></g><g><rect x="61.58181818181818" y="85.1125" width="2" height="14.887500000000003" id="cases-ep-38"></rect></g><g><rect x="58.018181818181816" y="85.00833333333333" width="2" height="14.991666666666674" id="cases-ep-39"></rect></g><g><rect x="54.454545454545446" y="78.6375" width="2" height="21.362499999999997" id="cases-ep-40"></rect></g><g><rect x="50.89090909090908" y="77.375" width="2" height="22.625" id="cases-ep-41"></rect></g><g><rect x="47.32727272727273" y="76.725" width="2" height="23.275000000000006" id="cases-ep-42"></rect></g><g><rect x="43.76363636363636" y="75.625" width="2" height="24.375" id="cases-ep-43"></rect></g><g><rect x="40.199999999999996" y="73.97916666666666" width="2" height="26.020833333333343" id="cases-ep-44"></rect></g><g><rect x="36.636363636363626" y="90.30416666666666" width="2" height="9.69583333333334" id="cases-ep-45"></rect></g><g><rect x="33.072727272727285" y="88.91666666666667" width="2" height="11.083333333333329" id="cases-ep-46"></rect></g><g><rect x="29.509090909090922" y="84.84583333333333" width="2" height="15.154166666666669" id="cases-ep-47"></rect></g><g><rect x="25.945454545454556" y="84.55416666666666" width="2" height="15.44583333333334" id="cases-ep-48"></rect></g><g><rect x="22.38181818181819" y="83.45416666666667" width="2" height="16.545833333333334" id="cases-ep-49"></rect></g><g><rect x="18.818181818181824" y="82.96666666666667" width="2" height="17.03333333333333" id="cases-ep-50"></rect></g><g><rect x="15.254545454545461" y="81.6125" width="2" height="18.387500000000003" id="cases-ep-51"></rect></g><g><rect x="11.690909090909095" y="90.84166666666667" width="2" height="9.158333333333331" id="cases-ep-52"></rect></g><g><rect x="8.12727272727273" y="91.4625" width="2" height="8.537499999999994" id="cases-ep-53"></rect></g><g><rect x="4.563636363636365" y="87.7375" width="2" height="12.262500000000003" id="cases-ep-54"></rect></g><g><rect x="1" y="87.25" width="2" height="12.75" id="cases-ep-55"></rect></g></g><g class="fg-line cases-ep" fill="none" stroke="#92c5de" stroke-width="2" stroke-linecap="round"><path d="M198,43.20952380952381L194.43636363636364,44.6125L190.87272727272727,47.69107142857143L187.30909090909088,40.86428571428571L183.74545454545455,40.210119047619045L180.1818181818182,40.034523809523805L176.61818181818182,40.09464285714286L173.05454545454546,40.621428571428574L169.49090909090907,41.36130952380953L165.92727272727274,42.481547619047625L162.36363636363637,43.679761904761904L158.8,44.09345238095238L155.23636363636365,44.653571428571425L151.6727272727273,46.15297619047619L148.1090909090909,47.94345238095238L144.54545454545453,50.23511904761904L140.9818181818182,52.75357142857142L137.41818181818184,55.4672619047619L133.85454545454544,56.523214285714296L130.29090909090908,57.47202380952381L126.72727272727273,58.94464285714286L123.16363636363636,60.238095238095234L119.6,61.49166666666667L116.03636363636363,62.69226190476191L112.47272727272728,64.16309523809524L108.90909090909089,64.7L105.34545454545456,65.5875L101.78181818181817,66.99940476190476L98.21818181818183,68.35595238095237L94.65454545454546,69.76607142857144L91.09090909090911,71.17202380952381L87.52727272727273,72.63571428571429L83.96363636363637,73.53869047619048L80.4,74.24642857142857L76.83636363636364,75.05833333333334L73.27272727272727,75.97678571428573L69.70909090909092,77.01845238095238L66.14545454545454,77.99464285714286L62.58181818181818,78.92321428571428L59.018181818181816,79.66488095238095L55.454545454545446,80.22321428571428L51.89090909090908,81.11011904761905L48.32727272727273,82.13571428571429L44.76363636363636,83.0970238095238L41.199999999999996,84.14583333333333L37.636363636363626,85.23630952380952L34.072727272727285,85.31309523809524L30.509090909090922,85.67678571428571L26.945454545454556,86.08988095238095L23.38181818181819,86.47500000000001L19.818181818181824,86.81071428571428L16.25454545454546,87.2422619047619L12.690909090909095,87.60654761904762L9.12727272727273,87.8827380952381L5.563636363636365,88.07857142857142L2,88.25178571428572"></path></g></svg>