<svg viewBox="0,0,200,100"><g transform="translate(0,0)"></g><g class="fg-bars pos-rate"><g><rect x="200" y="32.72727272727273" width="2" height="67.27272727272728" id="pos-rate-0"></rect></g><g><rect x="196.36363636363637" y="19.999999999999996" width="2" height="80" id="pos-rate-1"></rect></g><g><rect x="192.72727272727272" y="22.72727272727273" width="2" height="77.27272727272727" id="pos-rate-2"></rect></g><g><rect x="189.0909090909091" y="26.363636363636367" width="2" height="73.63636363636363" id="pos-rate-3"></rect></g><g><rect x="185.45454545454544" y="20.90909090909091" width="2" height="79.0909090909091" id="pos-rate-4"></rect></g><g><rect x="181.8181818181818" y="28.181818181818187" width="2" height="71.81818181818181" id="pos-rate-5"></rect></g><g><rect x="178.1818181818182" y="9.090909090909093" width="2" height="90.9090909090909" id="pos-rate-6"></rect></g><g><rect x="174.54545454545456" y="6.36363636363636" width="2" height="93.63636363636364" id="pos-rate-7"></rect></g><g><rect x="170.9090909090909" y="36.36363636363637" width="2" height="63.63636363636363" id="pos-rate-8"></rect></g><g><rect x="167.27272727272728" y="37.272727272727266" width="2" height="62.727272727272734" id="pos-rate-9"></rect></g><g><rect x="163.63636363636363" y="3.6363636363636376" width="2" height="96.36363636363636" id="pos-rate-10"></rect></g><g><rect x="160" y="38.18181818181819" width="2" height="61.81818181818181" id="pos-rate-11"></rect></g><g><rect x="156.36363636363637" y="38.18181818181819" width="2" height="61.81818181818181" id="pos-rate-12"></rect></g><g><rect x="152.72727272727275" y="36.36363636363637" width="2" height="63.63636363636363" id="pos-rate-13"></rect></g><g><rect x="149.0909090909091" y="40" width="2" height="60" id="pos-rate-14"></rect></g><g><rect x="145.45454545454547" y="38.18181818181819" width="2" height="61.81818181818181" id="pos-rate-15"></rect></g><g><rect x="141.8181818181818" y="51.81818181818182" width="2" height="48.18181818181818" id="pos-rate-16"></rect></g><g><rect x="138.1818181818182" y="50" width="2" height="50" id="pos-rate-17"></rect></g><g><rect x="134.54545454545453" y="60.909090909090914" width="2" height="39.090909090909086" id="pos-rate-18"></rect></g><g><rect x="130.9090909090909" y="60" width="2" height="40" id="pos-rate-19"></rect></g><g><rect x="127.27272727272727" y="54.54545454545454" width="2" height="45.45454545454546" id="pos-rate-20"></rect></g><g><rect x="123.63636363636363" y="53.63636363636364" width="2" height="46.36363636363636" id="pos-rate-21"></rect></g><g><rect x="120" y="70.9090909090909" width="2" height="29.090909090909093" id="pos-rate-22"></rect></g><g><rect x="116.36363636363636" y="57.27272727272727" width="2" height="42.72727272727273" id="pos-rate-23"></rect></g><g><rect x="112.72727272727275" y="77.27272727272727" width="2" height="22.727272727272734" id="pos-rate-24"></rect></g><g><rect x="109.09090909090908" y="69.0909090909091" width="2" height="30.909090909090907" id="pos-rate-25"></rect></g><g><rect x="105.45454545454547" y="71.81818181818183" width="2" height="28.181818181818173" id="pos-rate-26"></rect></g><g><rect x="101.81818181818181" y="70.9090909090909" width="2" height="29.090909090909093" id="pos-rate-27"></rect></g><g><rect x="98.18181818181819" y="76.36363636363637" width="2" height="23.636363636363626" id="pos-rate-28"></rect></g><g><rect x="94.54545454545456" y="75.45454545454545" width="2" height="24.545454545454547" id="pos-rate-29"></rect></g><g><rect x="90.90909090909092" y="80" width="2" height="20" id="pos-rate-30"></rect></g><g><rect x="87.27272727272728" y="68.18181818181819" width="2" height="31.818181818181813" id="pos-rate-31"></rect></g><g><rect x="83.63636363636364" y="74.54545454545455" width="2" height="25.454545454545453" id="pos-rate-32"></rect></g><g><rect x="80" y="80.9090909090909" width="2" height="19.090909090909093" id="pos-rate-33"></rect></g><g><rect x="76.36363636363637" y="77.27272727272727" width="2" height="22.727272727272734" id="pos-rate-34"></rect></g><g><rect x="72.72727272727273" y="78.18181818181819" width="2" height="21.818181818181813" id="pos-rate-35"></rect></g><g><rect x="69.0909090909091" y="90.9090909090909" width="2" height="9.090909090909093" id="pos-rate-36"></rect></g><g><rect x="65.45454545454545" y="80.9090909090909" width="2" height="19.090909090909093" id="pos-rate-37"></rect></g><g><rect x="61.81818181818181" y="84.54545454545455" width="2" height="15.454545454545453" id="pos-rate-38"></rect></g><g><rect x="58.18181818181818" y="79.0909090909091" width="2" height="20.909090909090907" id="pos-rate-39"></rect></g><g><rect x="54.54545454545454" y="88.18181818181819" width="2" height="11.818181818181813" id="pos-rate-40"></rect></g><g><rect x="50.90909090909091" y="84.54545454545455" width="2" height="15.454545454545453" id="pos-rate-41"></rect></g><g><rect x="47.272727272727266" y="83.63636363636364" width="2" height="16.36363636363636" id="pos-rate-42"></rect></g><g><rect x="43.636363636363626" y="86.36363636363636" width="2" height="13.63636363636364" id="pos-rate-43"></rect></g><g><rect x="39.99999999999999" y="83.63636363636364" width="2" height="16.36363636363636" id="pos-rate-44"></rect></g><g><rect x="36.36363636363635" y="84.54545454545455" width="2" height="15.454545454545453" id="pos-rate-45"></rect></g><g><rect x="32.72727272727274" y="86.36363636363636" width="2" height="13.63636363636364" id="pos-rate-46"></rect></g><g><rect x="29.0909090909091" y="85.45454545454545" width="2" height="14.545454545454547" id="pos-rate-47"></rect></g><g><rect x="25.454545454545464" y="86.36363636363636" width="2" height="13.63636363636364" id="pos-rate-48"></rect></g><g><rect x="21.818181818181827" y="87.27272727272728" width="2" height="12.72727272727272" id="pos-rate-49"></rect></g><g><rect x="18.181818181818187" y="92.72727272727272" width="2" height="7.2727272727272805" id="pos-rate-50"></rect></g><g><rect x="14.54545454545455" y="88.18181818181819" width="2" height="11.818181818181813" id="pos-rate-51"></rect></g><g><rect x="10.909090909090914" y="87.27272727272728" width="2" height="12.72727272727272" id="pos-rate-52"></rect></g><g><rect x="7.272727272727275" y="87.27272727272728" width="2" height="12.72727272727272" id="pos-rate-53"></rect></g><g><rect x="3.6363636363636376" y="84.54545454545455" width="2" height="15.454545454545453" id="pos-rate-54"></rect></g><g><rect x="0" y="90.9090909090909" width="2" height="9.090909090909093" id="pos-rate-55"></rect></g></g><g class="fg-line pos-rate"><path d="M200,22.857142857142854L196.36363636363637,19.090909090909093L192.72727272727272,21.42857142857143L189.0909090909091,23.50649350649351L185.45454545454544,20.259740259740266L181.8181818181818,22.72727272727273L178.1818181818182,24.155844155844154L174.54545454545456,28.05194805194805L170.9090909090909,32.857142857142854L167.27272727272728,33.11688311688312L163.63636363636363,35.19480519480519L160,41.81818181818182L156.36363636363637,45.064935064935064L152.72727272727275,48.18181818181818L149.0909090909091,50.779220779220765L145.45454545454547,52.727272727272734L141.8181818181818,57.40259740259741L138.1818181818182,58.18181818181818L134.54545454545453,62.077922077922075L130.9090909090909,63.246753246753244L127.27272727272727,64.93506493506493L123.63636363636363,67.27272727272727L120,70.51948051948051L116.36363636363636,71.16883116883118L112.72727272727275,74.41558441558442L109.09090909090908,73.11688311688312L105.45454545454547,73.8961038961039L101.81818181818181,75.1948051948052L98.18181818181819,76.1038961038961L94.54545454545456,76.36363636363637L90.90909090909092,78.57142857142857L87.27272727272728,78.70129870129871L83.63636363636364,81.03896103896105L80,81.68831168831169L76.36363636363637,82.72727272727273L72.72727272727273,83.76623376623377L69.0909090909091,84.54545454545455L65.45454545454545,83.8961038961039L61.81818181818181,84.28571428571429L58.18181818181818,84.28571428571429L54.54545454545454,85.32467532467533L50.90909090909091,84.93506493506493L47.272727272727266,85.1948051948052L43.636363636363626,85.71428571428572L39.99999999999999,86.62337662337663L36.36363636363635,87.27272727272728L32.72727272727274,87.66233766233766L29.0909090909091,87.79220779220779L25.454545454545464,87.66233766233766L21.818181818181827,88.31168831168831L18.181818181818187,88.44155844155844L14.54545454545455,88.05194805194805L10.909090909090914,87.79220779220779L7.272727272727275,88.18181818181819L3.6363636363636376,88.57142857142857L0,90"></path></g></svg>