<svg meta="{&quot;DATA_PUBLISHED_DATE&quot;:&quot;2022-02-15&quot;,&quot;RENDER_DATE&quot;:&quot;2022-02-15&quot;,&quot;FIRST_DATE&quot;:&quot;2021-12-14&quot;,&quot;LAST_DATE&quot;:&quot;2022-02-07&quot;}" xmlns="http://www.w3.org/2000/svg" viewBox="0,0,200,100"><g transform="translate(0,0)"></g><g class="fg-bars tests-vaccines" fill="#00183f" stroke="none"><g><rect x="197" y="73.06357142857142" width="2" height="26.93642857142858" id="tests-vaccines-0"></rect></g><g><rect x="193.43636363636364" y="89.5442857142857" width="2" height="10.455714285714294" id="tests-vaccines-1"></rect></g><g><rect x="189.87272727272727" y="76.66535714285713" width="2" height="23.334642857142867" id="tests-vaccines-2"></rect></g><g><rect x="186.30909090909088" y="57.22642857142857" width="2" height="42.77357142857143" id="tests-vaccines-3"></rect></g><g><rect x="182.74545454545455" y="67.65" width="2" height="32.349999999999994" id="tests-vaccines-4"></rect></g><g><rect x="179.1818181818182" y="66.54071428571429" width="2" height="33.45928571428571" id="tests-vaccines-5"></rect></g><g><rect x="175.61818181818182" y="65.81107142857144" width="2" height="34.18892857142856" id="tests-vaccines-6"></rect></g><g><rect x="172.05454545454546" y="62.26785714285714" width="2" height="37.73214285714286" id="tests-vaccines-7"></rect></g><g><rect x="168.49090909090907" y="86.92714285714285" width="2" height="13.072857142857146" id="tests-vaccines-8"></rect></g><g><rect x="164.92727272727274" y="69.11964285714285" width="2" height="30.88035714285715" id="tests-vaccines-9"></rect></g><g><rect x="161.36363636363637" y="42.356071428571425" width="2" height="57.643928571428575" id="tests-vaccines-10"></rect></g><g><rect x="157.8" y="54.31285714285714" width="2" height="45.68714285714286" id="tests-vaccines-11"></rect></g><g><rect x="154.23636363636365" y="54.214285714285715" width="2" height="45.785714285714285" id="tests-vaccines-12"></rect></g><g><rect x="150.6727272727273" y="53.18821428571429" width="2" height="46.81178571428571" id="tests-vaccines-13"></rect></g><g><rect x="147.1090909090909" y="53.27535714285714" width="2" height="46.72464285714286" id="tests-vaccines-14"></rect></g><g><rect x="143.54545454545453" y="84.45214285714286" width="2" height="15.54785714285714" id="tests-vaccines-15"></rect></g><g><rect x="139.9818181818182" y="67.07642857142856" width="2" height="32.923571428571435" id="tests-vaccines-16"></rect></g><g><rect x="136.41818181818184" y="35.96928571428572" width="2" height="64.03071428571428" id="tests-vaccines-17"></rect></g><g><rect x="132.85454545454544" y="45.583928571428565" width="2" height="54.416071428571435" id="tests-vaccines-18"></rect></g><g><rect x="129.29090909090908" y="43.138571428571424" width="2" height="56.861428571428576" id="tests-vaccines-19"></rect></g><g><rect x="125.72727272727273" y="42.236785714285716" width="2" height="57.763214285714284" id="tests-vaccines-20"></rect></g><g><rect x="122.16363636363636" y="51.05857142857143" width="2" height="48.94142857142857" id="tests-vaccines-21"></rect></g><g><rect x="118.6" y="80.8875" width="2" height="19.112499999999997" id="tests-vaccines-22"></rect></g><g><rect x="115.03636363636363" y="59.27357142857144" width="2" height="40.72642857142856" id="tests-vaccines-23"></rect></g><g><rect x="111.47272727272728" y="20.483571428571423" width="2" height="79.51642857142858" id="tests-vaccines-24"></rect></g><g><rect x="107.90909090909089" y="32.06428571428571" width="2" height="67.93571428571428" id="tests-vaccines-25"></rect></g><g><rect x="104.34545454545456" y="29.65607142857143" width="2" height="70.34392857142856" id="tests-vaccines-26"></rect></g><g><rect x="100.78181818181817" y="28.21892857142857" width="2" height="71.78107142857144" id="tests-vaccines-27"></rect></g><g><rect x="97.21818181818183" y="32.574999999999996" width="2" height="67.42500000000001" id="tests-vaccines-28"></rect></g><g><rect x="93.65454545454546" y="77.25357142857143" width="2" height="22.746428571428567" id="tests-vaccines-29"></rect></g><g><rect x="90.09090909090911" y="46.74035714285715" width="2" height="53.25964285714285" id="tests-vaccines-30"></rect></g><g><rect x="86.52727272727273" y="4.013571428571428" width="2" height="95.98642857142858" id="tests-vaccines-31"></rect></g><g><rect x="82.96363636363637" y="17.191071428571426" width="2" height="82.80892857142857" id="tests-vaccines-32"></rect></g><g><rect x="79.4" y="20.404999999999994" width="2" height="79.595" id="tests-vaccines-33"></rect></g><g><rect x="75.83636363636364" y="21.85785714285714" width="2" height="78.14214285714286" id="tests-vaccines-34"></rect></g><g><rect x="72.27272727272727" y="28.027500000000003" width="2" height="71.9725" id="tests-vaccines-35"></rect></g><g><rect x="68.70909090909092" y="80.63928571428572" width="2" height="19.36071428571428" id="tests-vaccines-36"></rect></g><g><rect x="65.14545454545454" y="97.13035714285714" width="2" height="2.869642857142864" id="tests-vaccines-37"></rect></g><g><rect x="61.58181818181818" y="72.53642857142857" width="2" height="27.463571428571427" id="tests-vaccines-38"></rect></g><g><rect x="58.018181818181816" y="19.331785714285708" width="2" height="80.6682142857143" id="tests-vaccines-39"></rect></g><g><rect x="54.454545454545446" y="13.128928571428567" width="2" height="86.87107142857144" id="tests-vaccines-40"></rect></g><g><rect x="50.89090909090908" y="13.026785714285715" width="2" height="86.97321428571428" id="tests-vaccines-41"></rect></g><g><rect x="47.32727272727273" y="23.87392857142857" width="2" height="76.12607142857144" id="tests-vaccines-42"></rect></g><g><rect x="43.76363636363636" y="79.93392857142857" width="2" height="20.066071428571433" id="tests-vaccines-43"></rect></g><g><rect x="40.199999999999996" y="99.66535714285715" width="2" height="0.33464285714285325" id="tests-vaccines-44"></rect></g><g><rect x="36.636363636363626" y="83.52857142857142" width="2" height="16.471428571428575" id="tests-vaccines-45"></rect></g><g><rect x="33.072727272727285" y="21.66892857142857" width="2" height="78.33107142857143" id="tests-vaccines-46"></rect></g><g><rect x="29.509090909090922" y="7.736071428571433" width="2" height="92.26392857142856" id="tests-vaccines-47"></rect></g><g><rect x="25.945454545454556" y="4.8825" width="2" height="95.1175" id="tests-vaccines-48"></rect></g><g><rect x="22.38181818181819" y="11.310714285714285" width="2" height="88.68928571428572" id="tests-vaccines-49"></rect></g><g><rect x="18.818181818181824" y="73.86464285714285" width="2" height="26.135357142857146" id="tests-vaccines-50"></rect></g><g><rect x="15.254545454545461" y="48.29642857142857" width="2" height="51.70357142857143" id="tests-vaccines-51"></rect></g><g><rect x="11.690909090909095" y="6.110000000000005" width="2" height="93.89" id="tests-vaccines-52"></rect></g><g><rect x="8.12727272727273" y="17.767500000000002" width="2" height="82.2325" id="tests-vaccines-53"></rect></g><g><rect x="4.563636363636365" y="15.66642857142857" width="2" height="84.33357142857143" id="tests-vaccines-54"></rect></g><g><rect x="1" y="17.859642857142855" width="2" height="82.14035714285714" id="tests-vaccines-55"></rect></g></g><g class="fg-line tests-vaccines" fill="none" stroke="#92c5de" stroke-width="2" stroke-linecap="round"><path d="M198,70.92877551020409L194.43636363636364,69.38653061224488L190.87272727272727,69.01265306122448L187.30909090909088,67.93469387755103L183.74545454545455,65.81035714285714L180.1818181818182,63.90505102040815L176.61818181818182,62.14413265306122L173.05454545454546,60.34086734693878L169.49090909090907,59.056224489795916L165.92727272727274,58.70265306122449L162.36363636363637,58.41076530612245L158.8,57.49836734693877L155.23636363636365,56.25137755102041L151.6727272727273,54.669132653061226L148.1090909090909,53.104642857142856L144.54545454545453,52.78795918367347L140.9818181818182,52.27872448979591L137.41818181818184,51.1640306122449L133.85454545454544,48.95178571428571L130.29090909090908,47.020408163265316L126.72727272727273,45.09433673469388L123.16363636363636,43.09178571428571L119.6,40.45127551020408L116.03636363636363,39.932142857142864L112.47272727272728,38.14168367346939L108.90909090909089,35.78882653061225L105.34545454545456,33.664081632653065L101.78181818181817,32.342499999999994L98.21818181818183,31.433775510204075L94.65454545454546,30.784132653061224L91.09090909090911,31.26780612244897L87.52727272727273,38.4663775510204L83.96363636363637,48.25535714285715L80.4,48.561173469387754L76.83636363636364,47.52173469387755L73.27272727272727,46.26015306122449L69.70909090909092,45.666785714285716L66.14545454545454,45.56602040816327L62.58181818181818,45.92816326530612L59.018181818181816,47.49846938775511L55.454545454545446,47.83234693877551L51.89090909090908,47.06193877551021L48.32727272727273,45.8984693877551L44.76363636363636,44.10372448979592L41.199999999999996,43.236683673469386L37.636363636363626,35.898265306122454L34.072727272727285,24.8384693877551L30.509090909090922,24.2811224489796L26.945454545454556,25.414030612244897L23.38181818181819,27.267908163265307L19.818181818181824,28.749591836734687L16.25454545454546,28.80913265306122L12.690909090909095,27.897142857142853L9.12727272727273,26.77801020408164L5.563636363636365,25.45954081632653L2,24.013928571428565"></path></g></svg>