<svg meta="{&quot;DATA_PUBLISHED_DATE&quot;:&quot;2022-02-09&quot;,&quot;RENDER_DATE&quot;:&quot;2022-02-09&quot;,&quot;FIRST_DATE&quot;:&quot;2021-12-07&quot;,&quot;LAST_DATE&quot;:&quot;2022-01-31&quot;}" xmlns="http://www.w3.org/2000/svg" viewBox="0,0,200,100"><g transform="translate(0,0)"></g><g class="fg-bars cases-ep" fill="#00183f" stroke="none"><g><rect x="197" y="76.36562500000001" width="2" height="23.63437499999999" id="cases-ep-0"></rect></g><g><rect x="193.43636363636364" y="91.281875" width="2" height="8.718125" id="cases-ep-1"></rect></g><g><rect x="189.87272727272727" y="87.484375" width="2" height="12.515625" id="cases-ep-2"></rect></g><g><rect x="186.30909090909088" y="76.15562499999999" width="2" height="23.844375000000014" id="cases-ep-3"></rect></g><g><rect x="182.74545454545455" y="72.659375" width="2" height="27.340625000000003" id="cases-ep-4"></rect></g><g><rect x="179.1818181818182" y="67.683125" width="2" height="32.316874999999996" id="cases-ep-5"></rect></g><g><rect x="175.61818181818182" y="62.84937500000001" width="2" height="37.15062499999999" id="cases-ep-6"></rect></g><g><rect x="172.05454545454546" y="56.961875000000006" width="2" height="43.038124999999994" id="cases-ep-7"></rect></g><g><rect x="168.49090909090907" y="83.109375" width="2" height="16.890625" id="cases-ep-8"></rect></g><g><rect x="164.92727272727274" y="75.628125" width="2" height="24.371875000000003" id="cases-ep-9"></rect></g><g><rect x="161.36363636363637" y="52.056875000000005" width="2" height="47.943124999999995" id="cases-ep-10"></rect></g><g><rect x="157.8" y="43.974999999999994" width="2" height="56.025000000000006" id="cases-ep-11"></rect></g><g><rect x="154.23636363636365" y="37.613125000000004" width="2" height="62.386874999999996" id="cases-ep-12"></rect></g><g><rect x="150.6727272727273" y="25.573124999999997" width="2" height="74.426875" id="cases-ep-13"></rect></g><g><rect x="147.1090909090909" y="50.20625000000001" width="2" height="49.79374999999999" id="cases-ep-14"></rect></g><g><rect x="143.54545454545453" y="76.044375" width="2" height="23.955624999999998" id="cases-ep-15"></rect></g><g><rect x="139.9818181818182" y="64.263125" width="2" height="35.736875" id="cases-ep-16"></rect></g><g><rect x="136.41818181818184" y="35.383750000000006" width="2" height="64.61625" id="cases-ep-17"></rect></g><g><rect x="132.85454545454544" y="29.51625" width="2" height="70.48375" id="cases-ep-18"></rect></g><g><rect x="129.29090909090908" y="22.556874999999998" width="2" height="77.44312500000001" id="cases-ep-19"></rect></g><g><rect x="125.72727272727273" y="17.737499999999994" width="2" height="82.2625" id="cases-ep-20"></rect></g><g><rect x="122.16363636363636" y="14.234999999999998" width="2" height="85.765" id="cases-ep-21"></rect></g><g><rect x="118.6" y="66.73" width="2" height="33.269999999999996" id="cases-ep-22"></rect></g><g><rect x="115.03636363636363" y="53.64875" width="2" height="46.35125" id="cases-ep-23"></rect></g><g><rect x="111.47272727272728" y="17.49125" width="2" height="82.50874999999999" id="cases-ep-24"></rect></g><g><rect x="107.90909090909089" y="12.906249999999996" width="2" height="87.09375" id="cases-ep-25"></rect></g><g><rect x="104.34545454545456" y="6.195625000000005" width="2" height="93.804375" id="cases-ep-26"></rect></g><g><rect x="100.78181818181817" y="4.947500000000005" width="2" height="95.0525" id="cases-ep-27"></rect></g><g><rect x="97.21818181818183" y="15.946249999999996" width="2" height="84.05375000000001" id="cases-ep-28"></rect></g><g><rect x="93.65454545454546" y="66.181875" width="2" height="33.818124999999995" id="cases-ep-29"></rect></g><g><rect x="90.09090909090911" y="80.89625000000001" width="2" height="19.10374999999999" id="cases-ep-30"></rect></g><g><rect x="86.52727272727273" y="67.041875" width="2" height="32.958124999999995" id="cases-ep-31"></rect></g><g><rect x="82.96363636363637" y="47.431875" width="2" height="52.568125" id="cases-ep-32"></rect></g><g><rect x="79.4" y="45.12437500000001" width="2" height="54.87562499999999" id="cases-ep-33"></rect></g><g><rect x="75.83636363636364" y="45.83437500000001" width="2" height="54.16562499999999" id="cases-ep-34"></rect></g><g><rect x="72.27272727272727" y="54.059999999999995" width="2" height="45.940000000000005" id="cases-ep-35"></rect></g><g><rect x="68.70909090909092" y="78.296875" width="2" height="21.703125" id="cases-ep-36"></rect></g><g><rect x="65.14545454545454" y="91.26375" width="2" height="8.736249999999998" id="cases-ep-37"></rect></g><g><rect x="61.58181818181818" y="86.58437500000001" width="2" height="13.415624999999991" id="cases-ep-38"></rect></g><g><rect x="58.018181818181816" y="80.095" width="2" height="19.905" id="cases-ep-39"></rect></g><g><rect x="54.454545454545446" y="80.39375" width="2" height="19.606250000000003" id="cases-ep-40"></rect></g><g><rect x="50.89090909090908" y="83.145" width="2" height="16.855000000000004" id="cases-ep-41"></rect></g><g><rect x="47.32727272727273" y="85.7125" width="2" height="14.287499999999994" id="cases-ep-42"></rect></g><g><rect x="43.76363636363636" y="93.38374999999999" width="2" height="6.616250000000008" id="cases-ep-43"></rect></g><g><rect x="40.199999999999996" y="93.978125" width="2" height="6.021874999999994" id="cases-ep-44"></rect></g><g><rect x="36.636363636363626" y="93.0925" width="2" height="6.907499999999999" id="cases-ep-45"></rect></g><g><rect x="33.072727272727285" y="93.653125" width="2" height="6.346874999999997" id="cases-ep-46"></rect></g><g><rect x="29.509090909090922" y="93.72625" width="2" height="6.273750000000007" id="cases-ep-47"></rect></g><g><rect x="25.945454545454556" y="94.795625" width="2" height="5.204374999999999" id="cases-ep-48"></rect></g><g><rect x="22.38181818181819" y="94.45875000000001" width="2" height="5.541249999999991" id="cases-ep-49"></rect></g><g><rect x="18.818181818181824" y="97.271875" width="2" height="2.7281250000000057" id="cases-ep-50"></rect></g><g><rect x="15.254545454545461" y="97.35312499999999" width="2" height="2.6468750000000085" id="cases-ep-51"></rect></g><g><rect x="11.690909090909095" y="96.38125" width="2" height="3.6187500000000057" id="cases-ep-52"></rect></g><g><rect x="8.12727272727273" y="96.390625" width="2" height="3.609375" id="cases-ep-53"></rect></g><g><rect x="4.563636363636365" y="95.925625" width="2" height="4.074375000000003" id="cases-ep-54"></rect></g><g><rect x="1" y="95.895" width="2" height="4.105000000000004" id="cases-ep-55"></rect></g></g><g class="fg-line cases-ep" fill="none" stroke="#92c5de" stroke-width="2" stroke-linecap="round"><path d="M198,76.35419642857143L194.43636363636364,73.58223214285714L190.87272727272727,72.41473214285715L187.30909090909088,70.72098214285714L183.74545454545455,67.27830357142857L180.1818181818182,63.180535714285725L176.61818181818182,58.884821428571435L173.05454545454546,53.559642857142855L169.49090909090907,52.59455357142857L165.92727272727274,51.58526785714286L162.36363636363637,49.961696428571436L158.8,47.579821428571435L155.23636363636365,45.51428571428572L151.6727272727273,43.363392857142856L148.1090909090909,42.24401785714286L144.54545454545453,37.105267857142856L140.9818181818182,35.77464285714286L137.41818181818184,34.25830357142857L133.85454545454544,31.702232142857145L130.29090909090908,29.329375000000002L126.72727272727273,26.992053571428563L123.16363636363636,25.164910714285714L119.6,25.409375L116.03636363636363,25.331071428571427L112.47272727272728,29.223571428571425L108.90909090909089,36.30223214285715L105.34545454545456,41.23446428571429L101.78181818181817,46.79571428571428L98.21818181818183,52.636696428571426L94.65454545454546,58.08151785714286L91.09090909090911,59.812232142857134L87.52727272727273,61.29330357142857L83.96363636363637,64.08508928571428L80.4,68.75125L76.83636363636364,73.78973214285713L73.27272727272727,79.11982142857143L69.70909090909092,83.64160714285714L66.14545454545454,85.796875L62.58181818181818,86.18464285714286L59.018181818181816,87.114375L55.454545454545446,89.05125000000001L51.89090909090908,90.95589285714286L48.32727272727273,92.62026785714286L44.76363636363636,93.86973214285715L41.199999999999996,94.42517857142857L37.636363636363626,94.90732142857144L34.072727272727285,95.37714285714286L30.509090909090922,95.76821428571428L26.945454545454556,96.08241071428571L23.38181818181819,96.23946428571428L19.818181818181824,96.36535714285715L16.25454545454546,96.40839285714286L12.690909090909095,96.413125L9.12727272727273,96.37767857142858L5.563636363636365,96.32714285714286L2,96.23616071428572"></path></g></svg>