<svg about="DATA_PUBLISHED_DATE:2021-10-03,RENDER_DATE:2021-10-03" xmlns="http://www.w3.org/2000/svg" viewBox="0,0,200,100"><g transform="translate(0,0)"></g><g class="fg-bars tests-vaccines" fill="#00183f" stroke="none"><g><rect x="197" y="48.005384615384614" width="2" height="51.994615384615386" id="tests-vaccines-0"></rect></g><g><rect x="193.43636363636364" y="19.520000000000003" width="2" height="80.47999999999999" id="tests-vaccines-1"></rect></g><g><rect x="189.87272727272727" y="46.353846153846156" width="2" height="53.646153846153844" id="tests-vaccines-2"></rect></g><g><rect x="186.30909090909088" y="46.18615384615384" width="2" height="53.81384615384616" id="tests-vaccines-3"></rect></g><g><rect x="182.74545454545455" y="44.573076923076925" width="2" height="55.426923076923075" id="tests-vaccines-4"></rect></g><g><rect x="179.1818181818182" y="39.821538461538466" width="2" height="60.178461538461534" id="tests-vaccines-5"></rect></g><g><rect x="175.61818181818182" y="75.22846153846154" width="2" height="24.771538461538455" id="tests-vaccines-6"></rect></g><g><rect x="172.05454545454546" y="56.99769230769232" width="2" height="43.00230769230768" id="tests-vaccines-7"></rect></g><g><rect x="168.49090909090907" y="27.81769230769231" width="2" height="72.18230769230769" id="tests-vaccines-8"></rect></g><g><rect x="164.92727272727274" y="38.213076923076926" width="2" height="61.786923076923074" id="tests-vaccines-9"></rect></g><g><rect x="161.36363636363637" y="39.92461538461538" width="2" height="60.07538461538462" id="tests-vaccines-10"></rect></g><g><rect x="157.8" y="39.39538461538461" width="2" height="60.60461538461539" id="tests-vaccines-11"></rect></g><g><rect x="154.23636363636365" y="36.283846153846156" width="2" height="63.716153846153844" id="tests-vaccines-12"></rect></g><g><rect x="150.6727272727273" y="73.23615384615385" width="2" height="26.763846153846146" id="tests-vaccines-13"></rect></g><g><rect x="147.1090909090909" y="52.42153846153846" width="2" height="47.57846153846154" id="tests-vaccines-14"></rect></g><g><rect x="143.54545454545453" y="18.597692307692306" width="2" height="81.40230769230769" id="tests-vaccines-15"></rect></g><g><rect x="139.9818181818182" y="33.32692307692307" width="2" height="66.67307692307693" id="tests-vaccines-16"></rect></g><g><rect x="136.41818181818184" y="32.72461538461538" width="2" height="67.27538461538461" id="tests-vaccines-17"></rect></g><g><rect x="132.85454545454544" y="25.696923076923074" width="2" height="74.30307692307693" id="tests-vaccines-18"></rect></g><g><rect x="129.29090909090908" y="85.35846153846154" width="2" height="14.64153846153846" id="tests-vaccines-19"></rect></g><g><rect x="125.72727272727273" y="71.14692307692307" width="2" height="28.853076923076927" id="tests-vaccines-20"></rect></g><g><rect x="122.16363636363636" y="51.56307692307692" width="2" height="48.43692307692308" id="tests-vaccines-21"></rect></g><g><rect x="118.6" y="10.796153846153844" width="2" height="89.20384615384616" id="tests-vaccines-22"></rect></g><g><rect x="115.03636363636363" y="28.935384615384617" width="2" height="71.06461538461538" id="tests-vaccines-23"></rect></g><g><rect x="111.47272727272728" y="26.916153846153847" width="2" height="73.08384615384615" id="tests-vaccines-24"></rect></g><g><rect x="107.90909090909089" y="23.810769230769235" width="2" height="76.18923076923076" id="tests-vaccines-25"></rect></g><g><rect x="104.34545454545456" y="22.94076923076923" width="2" height="77.05923076923077" id="tests-vaccines-26"></rect></g><g><rect x="100.78181818181817" y="67.34692307692308" width="2" height="32.653076923076924" id="tests-vaccines-27"></rect></g><g><rect x="97.21818181818183" y="40.348461538461535" width="2" height="59.651538461538465" id="tests-vaccines-28"></rect></g><g><rect x="93.65454545454546" y="1.7061538461538461" width="2" height="98.29384615384615" id="tests-vaccines-29"></rect></g><g><rect x="90.09090909090911" y="20.18923076923077" width="2" height="79.81076923076922" id="tests-vaccines-30"></rect></g><g><rect x="86.52727272727273" y="21.24615384615385" width="2" height="78.75384615384615" id="tests-vaccines-31"></rect></g><g><rect x="82.96363636363637" y="18.21384615384616" width="2" height="81.78615384615384" id="tests-vaccines-32"></rect></g><g><rect x="79.4" y="18.709230769230768" width="2" height="81.29076923076923" id="tests-vaccines-33"></rect></g><g><rect x="75.83636363636364" y="67.81076923076922" width="2" height="32.189230769230775" id="tests-vaccines-34"></rect></g><g><rect x="72.27272727272727" y="41.90076923076923" width="2" height="58.09923076923077" id="tests-vaccines-35"></rect></g><g><rect x="68.70909090909092" y="2.8184615384615364" width="2" height="97.18153846153847" id="tests-vaccines-36"></rect></g><g><rect x="65.14545454545454" y="21.96307692307692" width="2" height="78.03692307692307" id="tests-vaccines-37"></rect></g><g><rect x="61.58181818181818" y="21.75846153846154" width="2" height="78.24153846153845" id="tests-vaccines-38"></rect></g><g><rect x="58.018181818181816" y="21.55076923076923" width="2" height="78.44923076923077" id="tests-vaccines-39"></rect></g><g><rect x="54.454545454545446" y="25.383846153846157" width="2" height="74.61615384615385" id="tests-vaccines-40"></rect></g><g><rect x="50.89090909090908" y="68.89615384615384" width="2" height="31.103846153846163" id="tests-vaccines-41"></rect></g><g><rect x="47.32727272727273" y="44.09461538461539" width="2" height="55.90538461538461" id="tests-vaccines-42"></rect></g><g><rect x="43.76363636363636" y="14.237692307692306" width="2" height="85.7623076923077" id="tests-vaccines-43"></rect></g><g><rect x="40.199999999999996" y="32.230769230769226" width="2" height="67.76923076923077" id="tests-vaccines-44"></rect></g><g><rect x="36.636363636363626" y="35.77923076923077" width="2" height="64.22076923076924" id="tests-vaccines-45"></rect></g><g><rect x="33.072727272727285" y="29.79307692307692" width="2" height="70.20692307692308" id="tests-vaccines-46"></rect></g><g><rect x="29.509090909090922" y="32.42538461538461" width="2" height="67.57461538461538" id="tests-vaccines-47"></rect></g><g><rect x="25.945454545454556" y="73.07307692307691" width="2" height="26.92692307692309" id="tests-vaccines-48"></rect></g><g><rect x="22.38181818181819" y="50.752307692307696" width="2" height="49.247692307692304" id="tests-vaccines-49"></rect></g><g><rect x="18.818181818181824" y="19.378461538461533" width="2" height="80.62153846153846" id="tests-vaccines-50"></rect></g><g><rect x="15.254545454545461" y="33.437692307692316" width="2" height="66.56230769230768" id="tests-vaccines-51"></rect></g><g><rect x="11.690909090909095" y="34.778461538461535" width="2" height="65.22153846153847" id="tests-vaccines-52"></rect></g><g><rect x="8.12727272727273" y="31.12538461538461" width="2" height="68.8746153846154" id="tests-vaccines-53"></rect></g><g><rect x="4.563636363636365" y="38.43461538461539" width="2" height="61.56538461538461" id="tests-vaccines-54"></rect></g><g><rect x="1" y="76.76384615384615" width="2" height="23.236153846153854" id="tests-vaccines-55"></rect></g></g><g class="fg-line tests-vaccines" fill="none" stroke="#92c5de" stroke-width="2" stroke-linecap="round"><path d="M198,45.66978021978022L194.43636363636364,46.95439560439561L190.87272727272727,48.13978021978023L187.30909090909088,46.976813186813196L183.74545454545455,46.08230769230769L180.1818181818182,45.34263736263736L176.61818181818182,44.83725274725274L173.05454545454546,44.55263736263736L169.49090909090907,43.8989010989011L165.92727272727274,42.58175824175824L162.36363636363637,41.88373626373626L158.8,40.855164835164835L155.23636363636365,38.89824175824176L151.6727272727273,45.9089010989011L148.1090909090909,45.610439560439566L144.54545454545453,45.487802197802196L140.9818181818182,44.3732967032967L137.41818181818184,43.745934065934065L133.85454545454544,42.91615384615385L130.29090909090908,42.6467032967033L126.72727272727273,33.729890109890114L123.16363636363636,33.18703296703297L119.6,31.584945054945045L116.03636363636363,30.28637362637362L112.47272727272728,29.03692307692308L108.90909090909089,28.22692307692307L105.34545454545456,27.42736263736264L101.78181818181817,26.82285714285715L98.21818181818183,26.889120879120874L94.65454545454546,27.110879120879115L91.09090909090911,27.269780219780227L87.52727272727273,27.523186813186808L83.96363636363637,27.596373626373627L80.4,28.073076923076922L76.83636363636364,29.026593406593413L73.27272727272727,29.18164835164835L69.70909090909092,29.495054945054953L66.14545454545454,31.126373626373628L62.58181818181818,32.59318681318681L59.018181818181816,34.59615384615384L55.454545454545446,35.77362637362638L51.89090909090908,36.779560439560434L48.32727272727273,37.37626373626374L44.76363636363636,38.32736263736264L41.199999999999996,39.06175824175824L37.636363636363626,39.23417582417582L34.072727272727285,39.0912087912088L30.509090909090922,39.28153846153846L26.945454545454556,40.14L23.38181818181819,40.667252747252746L19.818181818181824,41.13241758241758L16.25454545454546,42.05604395604395L12.690909090909095,42.60186813186812L9.12727272727273,42.662637362637355L5.563636363636365,43.15571428571429L2,44.03571428571428"></path></g></svg>