<svg meta="{&quot;DATA_PUBLISHED_DATE&quot;:&quot;2022-04-05&quot;,&quot;RENDER_DATE&quot;:&quot;2022-04-05&quot;,&quot;FIRST_DATE&quot;:&quot;2022-01-17&quot;,&quot;LAST_DATE&quot;:&quot;2022-03-13&quot;}" xmlns="http://www.w3.org/2000/svg" viewBox="0,0,200,100"><g transform="translate(0,0)"></g><g class="fg-bars death-date" fill="#00183f" stroke="none"><g><rect x="197" y="88.84615384615384" width="2" height="11.15384615384616" id="death-date-0"></rect></g><g><rect x="193.43636363636364" y="88.07692307692308" width="2" height="11.92307692307692" id="death-date-1"></rect></g><g><rect x="189.87272727272727" y="87.3076923076923" width="2" height="12.692307692307693" id="death-date-2"></rect></g><g><rect x="186.30909090909088" y="84.61538461538461" width="2" height="15.384615384615387" id="death-date-3"></rect></g><g><rect x="182.74545454545455" y="83.46153846153847" width="2" height="16.538461538461533" id="death-date-4"></rect></g><g><rect x="179.1818181818182" y="82.3076923076923" width="2" height="17.692307692307693" id="death-date-5"></rect></g><g><rect x="175.61818181818182" y="85.38461538461539" width="2" height="14.615384615384613" id="death-date-6"></rect></g><g><rect x="172.05454545454546" y="79.61538461538463" width="2" height="20.384615384615373" id="death-date-7"></rect></g><g><rect x="168.49090909090907" y="78.46153846153847" width="2" height="21.538461538461533" id="death-date-8"></rect></g><g><rect x="164.92727272727274" y="82.3076923076923" width="2" height="17.692307692307693" id="death-date-9"></rect></g><g><rect x="161.36363636363637" y="77.6923076923077" width="2" height="22.307692307692307" id="death-date-10"></rect></g><g><rect x="157.8" y="79.23076923076923" width="2" height="20.769230769230774" id="death-date-11"></rect></g><g><rect x="154.23636363636365" y="75.76923076923077" width="2" height="24.230769230769226" id="death-date-12"></rect></g><g><rect x="150.6727272727273" y="70.76923076923076" width="2" height="29.23076923076924" id="death-date-13"></rect></g><g><rect x="147.1090909090909" y="77.6923076923077" width="2" height="22.307692307692307" id="death-date-14"></rect></g><g><rect x="143.54545454545453" y="71.15384615384616" width="2" height="28.84615384615384" id="death-date-15"></rect></g><g><rect x="139.9818181818182" y="71.53846153846153" width="2" height="28.461538461538467" id="death-date-16"></rect></g><g><rect x="136.41818181818184" y="72.69230769230771" width="2" height="27.307692307692292" id="death-date-17"></rect></g><g><rect x="132.85454545454544" y="63.07692307692307" width="2" height="36.92307692307693" id="death-date-18"></rect></g><g><rect x="129.29090909090908" y="61.53846153846154" width="2" height="38.46153846153846" id="death-date-19"></rect></g><g><rect x="125.72727272727273" y="59.23076923076923" width="2" height="40.76923076923077" id="death-date-20"></rect></g><g><rect x="122.16363636363636" y="53.84615384615385" width="2" height="46.15384615384615" id="death-date-21"></rect></g><g><rect x="118.6" y="61.53846153846154" width="2" height="38.46153846153846" id="death-date-22"></rect></g><g><rect x="115.03636363636363" y="55.769230769230774" width="2" height="44.230769230769226" id="death-date-23"></rect></g><g><rect x="111.47272727272728" y="46.92307692307692" width="2" height="53.07692307692308" id="death-date-24"></rect></g><g><rect x="107.90909090909089" y="49.61538461538461" width="2" height="50.38461538461539" id="death-date-25"></rect></g><g><rect x="104.34545454545456" y="51.153846153846146" width="2" height="48.846153846153854" id="death-date-26"></rect></g><g><rect x="100.78181818181817" y="43.84615384615385" width="2" height="56.15384615384615" id="death-date-27"></rect></g><g><rect x="97.21818181818183" y="42.307692307692314" width="2" height="57.692307692307686" id="death-date-28"></rect></g><g><rect x="93.65454545454546" y="38.84615384615384" width="2" height="61.15384615384616" id="death-date-29"></rect></g><g><rect x="90.09090909090911" y="30.76923076923077" width="2" height="69.23076923076923" id="death-date-30"></rect></g><g><rect x="86.52727272727273" y="35.76923076923077" width="2" height="64.23076923076923" id="death-date-31"></rect></g><g><rect x="82.96363636363637" y="21.53846153846154" width="2" height="78.46153846153845" id="death-date-32"></rect></g><g><rect x="79.4" y="16.538461538461537" width="2" height="83.46153846153847" id="death-date-33"></rect></g><g><rect x="75.83636363636364" y="28.076923076923077" width="2" height="71.92307692307692" id="death-date-34"></rect></g><g><rect x="72.27272727272727" y="30.76923076923077" width="2" height="69.23076923076923" id="death-date-35"></rect></g><g><rect x="68.70909090909092" y="18.461538461538463" width="2" height="81.53846153846153" id="death-date-36"></rect></g><g><rect x="65.14545454545454" y="7.307692307692304" width="2" height="92.6923076923077" id="death-date-37"></rect></g><g><rect x="61.58181818181818" y="18.846153846153847" width="2" height="81.15384615384616" id="death-date-38"></rect></g><g><rect x="58.018181818181816" y="9.999999999999998" width="2" height="90" id="death-date-39"></rect></g><g><rect x="54.454545454545446" y="1.1538461538461497" width="2" height="98.84615384615385" id="death-date-40"></rect></g><g><rect x="50.89090909090908" y="11.153846153846159" width="2" height="88.84615384615384" id="death-date-41"></rect></g><g><rect x="47.32727272727273" y="3.076923076923077" width="2" height="96.92307692307692" id="death-date-42"></rect></g><g><rect x="43.76363636363636" y="3.4615384615384603" width="2" height="96.53846153846153" id="death-date-43"></rect></g><g><rect x="40.199999999999996" y="13.461538461538458" width="2" height="86.53846153846155" id="death-date-44"></rect></g><g><rect x="36.636363636363626" y="8.846153846153848" width="2" height="91.15384615384615" id="death-date-45"></rect></g><g><rect x="33.072727272727285" y="15.769230769230768" width="2" height="84.23076923076923" id="death-date-46"></rect></g><g><rect x="29.509090909090922" y="12.692307692307692" width="2" height="87.3076923076923" id="death-date-47"></rect></g><g><rect x="25.945454545454556" y="26.923076923076927" width="2" height="73.07692307692307" id="death-date-48"></rect></g><g><rect x="22.38181818181819" y="7.692307692307687" width="2" height="92.3076923076923" id="death-date-49"></rect></g><g><rect x="18.818181818181824" y="16.538461538461537" width="2" height="83.46153846153847" id="death-date-50"></rect></g><g><rect x="15.254545454545461" y="9.999999999999998" width="2" height="90" id="death-date-51"></rect></g><g><rect x="11.690909090909095" y="15.000000000000002" width="2" height="85" id="death-date-52"></rect></g><g><rect x="8.12727272727273" y="10.384615384615381" width="2" height="89.61538461538461" id="death-date-53"></rect></g><g><rect x="4.563636363636365" y="19.23076923076923" width="2" height="80.76923076923077" id="death-date-54"></rect></g><g><rect x="1" y="28.46153846153846" width="2" height="71.53846153846155" id="death-date-55"></rect></g></g><g class="fg-line death-date" fill="none" stroke="#92c5de" stroke-width="2" stroke-linecap="round"><path d="M198,85.71428571428571L194.43636363636364,84.3956043956044L190.87272727272727,83.02197802197801L187.30909090909088,82.3076923076923L183.74545454545455,81.31868131868131L180.1818181818182,80.71428571428572L176.61818181818182,79.78021978021978L173.05454545454546,77.6923076923077L169.49090909090907,77.41758241758242L165.92727272727274,76.37362637362637L162.36363636363637,74.83516483516483L158.8,74.12087912087912L155.23636363636365,71.81318681318682L151.6727272727273,69.78021978021978L148.1090909090909,68.13186813186813L144.54545454545453,64.72527472527473L140.9818181818182,63.35164835164835L137.41818181818184,61.0989010989011L133.85454545454544,57.417582417582416L130.29090909090908,55.494505494505496L126.72727272727273,54.01098901098902L123.16363636363636,51.8131868131868L119.6,50.16483516483517L116.03636363636363,46.92307692307692L112.47272727272728,43.35164835164835L108.90909090909089,41.758241758241766L105.34545454545456,37.747252747252745L101.78181818181817,32.802197802197796L98.21818181818183,30.54945054945054L94.65454545454546,28.901098901098898L91.09090909090911,25.989010989010996L87.52727272727273,22.637362637362635L83.96363636363637,20.219780219780226L80.4,18.571428571428573L76.83636363636364,16.373626373626383L73.27272727272727,13.95604395604395L69.70909090909092,9.999999999999998L66.14545454545454,7.857142857142851L62.58181818181818,8.736263736263739L59.018181818181816,7.307692307692304L55.454545454545446,8.131868131868124L51.89090909090908,9.78021978021978L48.32727272727273,12.032967032967035L44.76363636363636,12.692307692307692L41.199999999999996,14.560439560439564L37.636363636363626,14.065934065934071L34.072727272727285,14.945054945054947L30.509090909090922,14.17582417582418L26.945454545454556,15.109890109890111L23.38181818181819,15.32967032967033L19.818181818181824,17.96703296703297L16.25454545454546,19.395604395604394L12.690909090909095,23.186813186813183L9.12727272727273,26.04395604395605L5.563636363636365,28.956043956043953L2,31.483516483516482"></path></g></svg>