<svg meta="{&quot;DATA_PUBLISHED_DATE&quot;:&quot;2022-10-13&quot;,&quot;RENDER_DATE&quot;:&quot;2022-10-13&quot;,&quot;FIRST_DATE&quot;:&quot;2022-08-11&quot;,&quot;LAST_DATE&quot;:&quot;2022-10-05&quot;}" xmlns="http://www.w3.org/2000/svg" viewBox="0,0,200,100"><g transform="translate(0,0)"></g><g class="fg-bars tests-vaccines" fill="#00183f" stroke="none"><g><rect x="197" y="18.370833333333337" width="2" height="81.62916666666666" id="tests-vaccines-0"></rect></g><g><rect x="193.43636363636364" y="25.5575" width="2" height="74.4425" id="tests-vaccines-1"></rect></g><g><rect x="189.87272727272727" y="21.435000000000002" width="2" height="78.565" id="tests-vaccines-2"></rect></g><g><rect x="186.30909090909088" y="78.5625" width="2" height="21.4375" id="tests-vaccines-3"></rect></g><g><rect x="182.74545454545455" y="60.18416666666666" width="2" height="39.81583333333334" id="tests-vaccines-4"></rect></g><g><rect x="179.1818181818182" y="7.191666666666663" width="2" height="92.80833333333334" id="tests-vaccines-5"></rect></g><g><rect x="175.61818181818182" y="25.675000000000004" width="2" height="74.32499999999999" id="tests-vaccines-6"></rect></g><g><rect x="172.05454545454546" y="22.44083333333333" width="2" height="77.55916666666667" id="tests-vaccines-7"></rect></g><g><rect x="168.49090909090907" y="27.84833333333333" width="2" height="72.15166666666667" id="tests-vaccines-8"></rect></g><g><rect x="164.92727272727274" y="22.91166666666666" width="2" height="77.08833333333334" id="tests-vaccines-9"></rect></g><g><rect x="161.36363636363637" y="78.10583333333334" width="2" height="21.894166666666663" id="tests-vaccines-10"></rect></g><g><rect x="157.8" y="58.11833333333334" width="2" height="41.88166666666666" id="tests-vaccines-11"></rect></g><g><rect x="154.23636363636365" y="3.0433333333333312" width="2" height="96.95666666666666" id="tests-vaccines-12"></rect></g><g><rect x="150.6727272727273" y="25.069166666666664" width="2" height="74.93083333333334" id="tests-vaccines-13"></rect></g><g><rect x="147.1090909090909" y="23.165000000000003" width="2" height="76.835" id="tests-vaccines-14"></rect></g><g><rect x="143.54545454545453" y="30.865" width="2" height="69.135" id="tests-vaccines-15"></rect></g><g><rect x="139.9818181818182" y="29.457500000000003" width="2" height="70.54249999999999" id="tests-vaccines-16"></rect></g><g><rect x="136.41818181818184" y="80.78083333333333" width="2" height="19.219166666666666" id="tests-vaccines-17"></rect></g><g><rect x="132.85454545454544" y="63.339999999999996" width="2" height="36.660000000000004" id="tests-vaccines-18"></rect></g><g><rect x="129.29090909090908" y="15.926666666666666" width="2" height="84.07333333333334" id="tests-vaccines-19"></rect></g><g><rect x="125.72727272727273" y="34.99666666666666" width="2" height="65.00333333333333" id="tests-vaccines-20"></rect></g><g><rect x="122.16363636363636" y="32.65583333333333" width="2" height="67.34416666666667" id="tests-vaccines-21"></rect></g><g><rect x="118.6" y="40.274166666666666" width="2" height="59.725833333333334" id="tests-vaccines-22"></rect></g><g><rect x="115.03636363636363" y="36.065000000000005" width="2" height="63.934999999999995" id="tests-vaccines-23"></rect></g><g><rect x="111.47272727272728" y="79.78916666666666" width="2" height="20.21083333333334" id="tests-vaccines-24"></rect></g><g><rect x="107.90909090909089" y="67.01916666666668" width="2" height="32.98083333333332" id="tests-vaccines-25"></rect></g><g><rect x="104.34545454545456" y="38.854166666666664" width="2" height="61.145833333333336" id="tests-vaccines-26"></rect></g><g><rect x="100.78181818181817" y="60.54666666666666" width="2" height="39.45333333333334" id="tests-vaccines-27"></rect></g><g><rect x="97.21818181818183" y="60.339999999999996" width="2" height="39.660000000000004" id="tests-vaccines-28"></rect></g><g><rect x="93.65454545454546" y="76.84583333333333" width="2" height="23.15416666666667" id="tests-vaccines-29"></rect></g><g><rect x="90.09090909090911" y="99.00750000000001" width="2" height="0.9924999999999926" id="tests-vaccines-30"></rect></g><g><rect x="86.52727272727273" y="94.405" width="2" height="5.594999999999999" id="tests-vaccines-31"></rect></g><g><rect x="82.96363636363637" y="92.05166666666666" width="2" height="7.948333333333338" id="tests-vaccines-32"></rect></g><g><rect x="79.4" y="89.3625" width="2" height="10.637500000000003" id="tests-vaccines-33"></rect></g><g><rect x="75.83636363636364" y="91.13333333333333" width="2" height="8.866666666666674" id="tests-vaccines-34"></rect></g><g><rect x="72.27272727272727" y="86.42833333333333" width="2" height="13.571666666666673" id="tests-vaccines-35"></rect></g><g><rect x="68.70909090909092" y="83.75916666666667" width="2" height="16.240833333333327" id="tests-vaccines-36"></rect></g><g><rect x="65.14545454545454" y="84.39416666666666" width="2" height="15.605833333333337" id="tests-vaccines-37"></rect></g><g><rect x="61.58181818181818" y="95.50583333333333" width="2" height="4.494166666666672" id="tests-vaccines-38"></rect></g><g><rect x="58.018181818181816" y="89.93916666666667" width="2" height="10.060833333333335" id="tests-vaccines-39"></rect></g><g><rect x="54.454545454545446" y="77.61333333333333" width="2" height="22.38666666666667" id="tests-vaccines-40"></rect></g><g><rect x="50.89090909090908" y="81.90083333333334" width="2" height="18.09916666666666" id="tests-vaccines-41"></rect></g><g><rect x="47.32727272727273" y="80.80416666666666" width="2" height="19.19583333333334" id="tests-vaccines-42"></rect></g><g><rect x="43.76363636363636" y="81.24416666666667" width="2" height="18.755833333333328" id="tests-vaccines-43"></rect></g><g><rect x="40.199999999999996" y="81.54083333333332" width="2" height="18.459166666666675" id="tests-vaccines-44"></rect></g><g><rect x="36.636363636363626" y="95.34" width="2" height="4.659999999999997" id="tests-vaccines-45"></rect></g><g><rect x="33.072727272727285" y="89.2625" width="2" height="10.737499999999997" id="tests-vaccines-46"></rect></g><g><rect x="29.509090909090922" y="73.61500000000001" width="2" height="26.38499999999999" id="tests-vaccines-47"></rect></g><g><rect x="25.945454545454556" y="78.53916666666667" width="2" height="21.460833333333326" id="tests-vaccines-48"></rect></g><g><rect x="22.38181818181819" y="77.83083333333335" width="2" height="22.169166666666655" id="tests-vaccines-49"></rect></g><g><rect x="18.818181818181824" y="78.02416666666667" width="2" height="21.975833333333327" id="tests-vaccines-50"></rect></g><g><rect x="15.254545454545461" y="77.42083333333333" width="2" height="22.579166666666666" id="tests-vaccines-51"></rect></g><g><rect x="11.690909090909095" y="94.01083333333334" width="2" height="5.989166666666662" id="tests-vaccines-52"></rect></g><g><rect x="8.12727272727273" y="86.18916666666667" width="2" height="13.810833333333335" id="tests-vaccines-53"></rect></g><g><rect x="4.563636363636365" y="68.48333333333333" width="2" height="31.516666666666666" id="tests-vaccines-54"></rect></g><g><rect x="1" y="79.88916666666667" width="2" height="20.110833333333332" id="tests-vaccines-55"></rect></g></g><g class="fg-line tests-vaccines" fill="none" stroke="#92c5de" stroke-width="2" stroke-linecap="round"><path d="M198,33.85380952380953L194.43636363636364,34.4352380952381L190.87272727272727,34.762499999999996L187.30909090909088,34.973452380952374L183.74545454545455,34.90821428571429L180.1818181818182,34.61309523809524L176.61818181818182,34.0204761904762L173.05454545454546,33.933928571428574L169.49090909090907,34.03738095238096L165.92727272727274,34.468333333333334L162.36363636363637,35.40345238095238L158.8,35.78559523809525L155.23636363636365,36.53154761904762L151.6727272727273,38.3720238095238L148.1090909090909,39.790238095238095L144.54545454545453,41.14607142857143L140.9818181818182,42.490238095238084L137.41818181818184,43.43416666666666L133.85454545454544,43.292500000000004L130.29090909090908,43.818095238095246L126.72727272727273,47.093452380952385L123.16363636363636,50.743452380952384L119.6,54.69833333333334L116.03636363636363,59.92285714285715L112.47272727272728,68.91464285714287L108.90909090909089,71.00261904761905L105.34545454545456,74.57869047619047L101.78181818181817,81.79416666666667L98.21818181818183,86.16369047619048L94.65454545454546,89.89059523809524L91.09090909090911,90.8782142857143L87.52727272727273,88.79059523809524L83.96363636363637,88.94785714285715L80.4,88.64607142857143L76.83636363636364,86.96761904761905L73.27272727272727,85.64869047619048L69.70909090909092,84.8452380952381L66.14545454545454,84.48595238095238L62.58181818181818,84.07833333333333L59.018181818181816,84.05464285714285L55.454545454545446,83.95797619047619L51.89090909090908,83.38678571428572L48.32727272727273,82.90654761904761L44.76363636363636,82.48178571428572L41.199999999999996,82.02178571428571L37.636363636363626,81.43321428571429L34.072727272727285,81.24333333333334L30.509090909090922,80.80428571428571L26.945454545454556,80.07119047619048L23.38181818181819,80.26404761904762L19.818181818181824,80.63488095238095L16.25454545454546,79.91309523809524L12.690909090909095,79.33452380952382L9.12727272727273,79.18928571428572L5.563636363636365,78.8627380952381L2,78.39023809523809"></path></g></svg>