<svg meta="{&quot;DATA_PUBLISHED_DATE&quot;:&quot;2022-07-22&quot;,&quot;RENDER_DATE&quot;:&quot;2022-07-22&quot;,&quot;FIRST_DATE&quot;:&quot;2022-05-05&quot;,&quot;LAST_DATE&quot;:&quot;2022-06-29&quot;}" xmlns="http://www.w3.org/2000/svg" viewBox="0,0,200,100"><g transform="translate(0,0)"></g><g class="fg-bars death-date" fill="#00183f" stroke="none"><g><rect x="197" y="19.999999999999996" width="2" height="80" id="death-date-0"></rect></g><g><rect x="193.43636363636364" y="9.999999999999998" width="2" height="90" id="death-date-1"></rect></g><g><rect x="189.87272727272727" y="23.33333333333333" width="2" height="76.66666666666667" id="death-date-2"></rect></g><g><rect x="186.30909090909088" y="26.66666666666667" width="2" height="73.33333333333333" id="death-date-3"></rect></g><g><rect x="182.74545454545455" y="43.333333333333336" width="2" height="56.666666666666664" id="death-date-4"></rect></g><g><rect x="179.1818181818182" y="16.666666666666664" width="2" height="83.33333333333334" id="death-date-5"></rect></g><g><rect x="175.61818181818182" y="9.999999999999998" width="2" height="90" id="death-date-6"></rect></g><g><rect x="172.05454545454546" y="0" width="2" height="100" id="death-date-7"></rect></g><g><rect x="168.49090909090907" y="23.33333333333333" width="2" height="76.66666666666667" id="death-date-8"></rect></g><g><rect x="164.92727272727274" y="26.66666666666667" width="2" height="73.33333333333333" id="death-date-9"></rect></g><g><rect x="161.36363636363637" y="19.999999999999996" width="2" height="80" id="death-date-10"></rect></g><g><rect x="157.8" y="23.33333333333333" width="2" height="76.66666666666667" id="death-date-11"></rect></g><g><rect x="154.23636363636365" y="13.33333333333333" width="2" height="86.66666666666667" id="death-date-12"></rect></g><g><rect x="150.6727272727273" y="3.3333333333333326" width="2" height="96.66666666666667" id="death-date-13"></rect></g><g><rect x="147.1090909090909" y="16.666666666666664" width="2" height="83.33333333333334" id="death-date-14"></rect></g><g><rect x="143.54545454545453" y="30.000000000000004" width="2" height="70" id="death-date-15"></rect></g><g><rect x="139.9818181818182" y="53.333333333333336" width="2" height="46.666666666666664" id="death-date-16"></rect></g><g><rect x="136.41818181818184" y="16.666666666666664" width="2" height="83.33333333333334" id="death-date-17"></rect></g><g><rect x="132.85454545454544" y="16.666666666666664" width="2" height="83.33333333333334" id="death-date-18"></rect></g><g><rect x="129.29090909090908" y="9.999999999999998" width="2" height="90" id="death-date-19"></rect></g><g><rect x="125.72727272727273" y="9.999999999999998" width="2" height="90" id="death-date-20"></rect></g><g><rect x="122.16363636363636" y="33.333333333333336" width="2" height="66.66666666666666" id="death-date-21"></rect></g><g><rect x="118.6" y="40" width="2" height="60" id="death-date-22"></rect></g><g><rect x="115.03636363636363" y="26.66666666666667" width="2" height="73.33333333333333" id="death-date-23"></rect></g><g><rect x="111.47272727272728" y="36.66666666666667" width="2" height="63.33333333333333" id="death-date-24"></rect></g><g><rect x="107.90909090909089" y="46.666666666666664" width="2" height="53.333333333333336" id="death-date-25"></rect></g><g><rect x="104.34545454545456" y="33.333333333333336" width="2" height="66.66666666666666" id="death-date-26"></rect></g><g><rect x="100.78181818181817" y="30.000000000000004" width="2" height="70" id="death-date-27"></rect></g><g><rect x="97.21818181818183" y="43.333333333333336" width="2" height="56.666666666666664" id="death-date-28"></rect></g><g><rect x="93.65454545454546" y="60" width="2" height="40" id="death-date-29"></rect></g><g><rect x="90.09090909090911" y="36.66666666666667" width="2" height="63.33333333333333" id="death-date-30"></rect></g><g><rect x="86.52727272727273" y="16.666666666666664" width="2" height="83.33333333333334" id="death-date-31"></rect></g><g><rect x="82.96363636363637" y="40" width="2" height="60" id="death-date-32"></rect></g><g><rect x="79.4" y="46.666666666666664" width="2" height="53.333333333333336" id="death-date-33"></rect></g><g><rect x="75.83636363636364" y="56.666666666666664" width="2" height="43.333333333333336" id="death-date-34"></rect></g><g><rect x="72.27272727272727" y="40" width="2" height="60" id="death-date-35"></rect></g><g><rect x="68.70909090909092" y="9.999999999999998" width="2" height="90" id="death-date-36"></rect></g><g><rect x="65.14545454545454" y="56.666666666666664" width="2" height="43.333333333333336" id="death-date-37"></rect></g><g><rect x="61.58181818181818" y="53.333333333333336" width="2" height="46.666666666666664" id="death-date-38"></rect></g><g><rect x="58.018181818181816" y="33.333333333333336" width="2" height="66.66666666666666" id="death-date-39"></rect></g><g><rect x="54.454545454545446" y="40" width="2" height="60" id="death-date-40"></rect></g><g><rect x="50.89090909090908" y="43.333333333333336" width="2" height="56.666666666666664" id="death-date-41"></rect></g><g><rect x="47.32727272727273" y="43.333333333333336" width="2" height="56.666666666666664" id="death-date-42"></rect></g><g><rect x="43.76363636363636" y="53.333333333333336" width="2" height="46.666666666666664" id="death-date-43"></rect></g><g><rect x="40.199999999999996" y="63.33333333333333" width="2" height="36.66666666666667" id="death-date-44"></rect></g><g><rect x="36.636363636363626" y="9.999999999999998" width="2" height="90" id="death-date-45"></rect></g><g><rect x="33.072727272727285" y="43.333333333333336" width="2" height="56.666666666666664" id="death-date-46"></rect></g><g><rect x="29.509090909090922" y="33.333333333333336" width="2" height="66.66666666666666" id="death-date-47"></rect></g><g><rect x="25.945454545454556" y="66.66666666666667" width="2" height="33.33333333333333" id="death-date-48"></rect></g><g><rect x="22.38181818181819" y="66.66666666666667" width="2" height="33.33333333333333" id="death-date-49"></rect></g><g><rect x="18.818181818181824" y="33.333333333333336" width="2" height="66.66666666666666" id="death-date-50"></rect></g><g><rect x="15.254545454545461" y="60" width="2" height="40" id="death-date-51"></rect></g><g><rect x="11.690909090909095" y="43.333333333333336" width="2" height="56.666666666666664" id="death-date-52"></rect></g><g><rect x="8.12727272727273" y="66.66666666666667" width="2" height="33.33333333333333" id="death-date-53"></rect></g><g><rect x="4.563636363636365" y="56.666666666666664" width="2" height="43.333333333333336" id="death-date-54"></rect></g><g><rect x="1" y="80" width="2" height="20" id="death-date-55"></rect></g></g><g class="fg-line death-date" fill="none" stroke="#92c5de" stroke-width="2" stroke-linecap="round"><path d="M198,21.42857142857142L194.43636363636364,18.571428571428573L190.87272727272727,20.47619047619047L187.30909090909088,20.952380952380945L183.74545454545455,19.999999999999996L180.1818181818182,17.14285714285714L176.61818181818182,16.666666666666664L173.05454545454546,15.714285714285714L169.49090909090907,18.095238095238088L165.92727272727274,19.047619047619047L162.36363636363637,22.857142857142854L158.8,22.38095238095238L155.23636363636365,21.42857142857142L151.6727272727273,20.952380952380945L148.1090909090909,21.904761904761905L144.54545454545453,24.285714285714278L140.9818181818182,25.714285714285722L137.41818181818184,21.904761904761905L133.85454545454544,24.761904761904752L130.29090909090908,29.047619047619055L126.72727272727273,32.38095238095239L123.16363636363636,35.23809523809525L119.6,36.66666666666667L116.03636363636363,39.523809523809526L112.47272727272728,40.95238095238095L108.90909090909089,38.095238095238095L105.34545454545456,37.142857142857146L101.78181818181817,39.04761904761905L98.21818181818183,42.85714285714286L94.65454545454546,42.38095238095239L91.09090909090911,35.23809523809525L87.52727272727273,38.095238095238095L83.96363636363637,43.333333333333336L80.4,42.38095238095239L76.83636363636364,41.42857142857142L73.27272727272727,39.523809523809526L69.70909090909092,40L66.14545454545454,46.19047619047619L62.58181818181818,47.14285714285714L59.018181818181816,40.95238095238095L55.454545454545446,42.38095238095239L51.89090909090908,41.42857142857142L48.32727272727273,44.76190476190476L44.76363636363636,48.09523809523809L41.199999999999996,45.23809523809524L37.636363636363626,44.76190476190476L34.072727272727285,49.523809523809526L30.509090909090922,52.85714285714286L26.945454545454556,56.19047619047619L23.38181818181819,58.09523809523809L19.818181818181824,57.61904761904761L16.25454545454546,62.857142857142854L12.690909090909095,63.33333333333333L9.12727272727273,66.66666666666667L5.563636363636365,64.28571428571429L2,63.8095238095238"></path></g></svg>