<svg about="DATA_PUBLISHED_DATE:2021-11-10,RENDER_DATE:2021-11-10" xmlns="http://www.w3.org/2000/svg" viewBox="0,0,200,100"><g transform="translate(0,0)"></g><g class="fg-bars tests-vaccines" fill="#00183f" stroke="none"><g><rect x="197" y="16.651363636363637" width="2" height="83.34863636363636" id="tests-vaccines-0"></rect></g><g><rect x="193.43636363636364" y="21.612727272727273" width="2" height="78.38727272727273" id="tests-vaccines-1"></rect></g><g><rect x="189.87272727272727" y="77.46045454545455" width="2" height="22.539545454545447" id="tests-vaccines-2"></rect></g><g><rect x="186.30909090909088" y="54.83090909090909" width="2" height="45.16909090909091" id="tests-vaccines-3"></rect></g><g><rect x="182.74545454545455" y="4.154090909090913" width="2" height="95.84590909090909" id="tests-vaccines-4"></rect></g><g><rect x="179.1818181818182" y="20.094090909090912" width="2" height="79.90590909090909" id="tests-vaccines-5"></rect></g><g><rect x="175.61818181818182" y="19.756818181818183" width="2" height="80.24318181818182" id="tests-vaccines-6"></rect></g><g><rect x="172.05454545454546" y="20.301363636363632" width="2" height="79.69863636363637" id="tests-vaccines-7"></rect></g><g><rect x="168.49090909090907" y="27.286818181818184" width="2" height="72.71318181818182" id="tests-vaccines-8"></rect></g><g><rect x="164.92727272727274" y="78.79045454545455" width="2" height="21.20954545454545" id="tests-vaccines-9"></rect></g><g><rect x="161.36363636363637" y="58.816818181818185" width="2" height="41.183181818181815" id="tests-vaccines-10"></rect></g><g><rect x="157.8" y="27.665454545454548" width="2" height="72.33454545454545" id="tests-vaccines-11"></rect></g><g><rect x="154.23636363636365" y="57.03409090909091" width="2" height="42.96590909090909" id="tests-vaccines-12"></rect></g><g><rect x="150.6727272727273" y="58.75772727272728" width="2" height="41.24227272727272" id="tests-vaccines-13"></rect></g><g><rect x="147.1090909090909" y="57.268181818181816" width="2" height="42.731818181818184" id="tests-vaccines-14"></rect></g><g><rect x="143.54545454545453" y="55.44318181818182" width="2" height="44.55681818181818" id="tests-vaccines-15"></rect></g><g><rect x="139.9818181818182" y="86.29727272727273" width="2" height="13.702727272727273" id="tests-vaccines-16"></rect></g><g><rect x="136.41818181818184" y="73.75" width="2" height="26.25" id="tests-vaccines-17"></rect></g><g><rect x="132.85454545454544" y="43.753181818181815" width="2" height="56.246818181818185" id="tests-vaccines-18"></rect></g><g><rect x="129.29090909090908" y="54.967727272727274" width="2" height="45.032272727272726" id="tests-vaccines-19"></rect></g><g><rect x="125.72727272727273" y="55.53454545454546" width="2" height="44.46545454545454" id="tests-vaccines-20"></rect></g><g><rect x="122.16363636363636" y="52.760909090909095" width="2" height="47.239090909090905" id="tests-vaccines-21"></rect></g><g><rect x="118.6" y="52.035909090909094" width="2" height="47.964090909090906" id="tests-vaccines-22"></rect></g><g><rect x="115.03636363636363" y="83.97590909090908" width="2" height="16.024090909090916" id="tests-vaccines-23"></rect></g><g><rect x="111.47272727272728" y="70.74636363636364" width="2" height="29.25363636363636" id="tests-vaccines-24"></rect></g><g><rect x="107.90909090909089" y="35.657272727272726" width="2" height="64.34272727272727" id="tests-vaccines-25"></rect></g><g><rect x="104.34545454545456" y="47.198181818181816" width="2" height="52.801818181818184" id="tests-vaccines-26"></rect></g><g><rect x="100.78181818181817" y="50.72681818181819" width="2" height="49.27318181818181" id="tests-vaccines-27"></rect></g><g><rect x="97.21818181818183" y="49.51545454545454" width="2" height="50.48454545454546" id="tests-vaccines-28"></rect></g><g><rect x="93.65454545454546" y="49.77181818181818" width="2" height="50.22818181818182" id="tests-vaccines-29"></rect></g><g><rect x="90.09090909090911" y="82.63090909090909" width="2" height="17.369090909090914" id="tests-vaccines-30"></rect></g><g><rect x="86.52727272727273" y="69.21090909090908" width="2" height="30.789090909090916" id="tests-vaccines-31"></rect></g><g><rect x="82.96363636363637" y="34.281363636363636" width="2" height="65.71863636363636" id="tests-vaccines-32"></rect></g><g><rect x="79.4" y="40.154545454545456" width="2" height="59.845454545454544" id="tests-vaccines-33"></rect></g><g><rect x="75.83636363636364" y="41.385000000000005" width="2" height="58.614999999999995" id="tests-vaccines-34"></rect></g><g><rect x="72.27272727272727" y="41.11363636363636" width="2" height="58.88636363636364" id="tests-vaccines-35"></rect></g><g><rect x="68.70909090909092" y="45.928636363636365" width="2" height="54.071363636363635" id="tests-vaccines-36"></rect></g><g><rect x="65.14545454545454" y="82.02318181818183" width="2" height="17.976818181818174" id="tests-vaccines-37"></rect></g><g><rect x="61.58181818181818" y="67.71909090909091" width="2" height="32.28090909090909" id="tests-vaccines-38"></rect></g><g><rect x="58.018181818181816" y="50.69590909090908" width="2" height="49.30409090909092" id="tests-vaccines-39"></rect></g><g><rect x="54.454545454545446" y="67.18590909090909" width="2" height="32.81409090909091" id="tests-vaccines-40"></rect></g><g><rect x="50.89090909090908" y="67.06909090909092" width="2" height="32.93090909090908" id="tests-vaccines-41"></rect></g><g><rect x="47.32727272727273" y="66.05772727272728" width="2" height="33.94227272727272" id="tests-vaccines-42"></rect></g><g><rect x="43.76363636363636" y="63.606818181818184" width="2" height="36.393181818181816" id="tests-vaccines-43"></rect></g><g><rect x="40.199999999999996" y="85.11090909090909" width="2" height="14.88909090909091" id="tests-vaccines-44"></rect></g><g><rect x="36.636363636363626" y="74.10136363636364" width="2" height="25.898636363636356" id="tests-vaccines-45"></rect></g><g><rect x="33.072727272727285" y="56.29500000000001" width="2" height="43.70499999999999" id="tests-vaccines-46"></rect></g><g><rect x="29.509090909090922" y="62.53999999999999" width="2" height="37.46000000000001" id="tests-vaccines-47"></rect></g><g><rect x="25.945454545454556" y="63.6859090909091" width="2" height="36.3140909090909" id="tests-vaccines-48"></rect></g><g><rect x="22.38181818181819" y="63.32181818181818" width="2" height="36.67818181818182" id="tests-vaccines-49"></rect></g><g><rect x="18.818181818181824" y="61.57863636363636" width="2" height="38.42136363636364" id="tests-vaccines-50"></rect></g><g><rect x="15.254545454545461" y="83.91545454545455" width="2" height="16.08454545454545" id="tests-vaccines-51"></rect></g><g><rect x="11.690909090909095" y="71.275" width="2" height="28.724999999999994" id="tests-vaccines-52"></rect></g><g><rect x="8.12727272727273" y="50.846363636363634" width="2" height="49.153636363636366" id="tests-vaccines-53"></rect></g><g><rect x="4.563636363636365" y="59.647727272727266" width="2" height="40.352272727272734" id="tests-vaccines-54"></rect></g><g><rect x="1" y="59.34818181818182" width="2" height="40.65181818181818" id="tests-vaccines-55"></rect></g></g><g class="fg-line tests-vaccines" fill="none" stroke="#92c5de" stroke-width="2" stroke-linecap="round"><path d="M198,30.65149350649351L194.43636363636364,31.17292207792208L190.87272727272727,31.983506493506496L187.30909090909088,32.1735064935065L183.74545454545455,32.742922077922074L180.1818181818182,36.10168831168832L176.61818181818182,41.37883116883116L173.05454545454546,46.95038961038961L169.49090909090907,52.23136363636364L165.92727272727274,56.253701298701294L162.36363636363637,57.32610389610389L158.8,59.45941558441559L155.23636363636365,61.75766233766233L151.6727272727273,61.462467532467535L148.1090909090909,61.002012987012975L144.54545454545453,60.358116883116885L140.9818181818182,59.871363636363625L137.41818181818184,59.539740259740256L133.85454545454544,59.110649350649346L130.29090909090908,57.954090909090915L126.72727272727273,56.84415584415584L123.16363636363636,56.15733766233766L119.6,55.693701298701306L116.03636363636363,55.37025974025974L112.47272727272728,55.17811688311689L108.90909090909089,54.958766233766234L105.34545454545456,54.762207792207796L101.78181818181817,53.75597402597403L98.21818181818183,52.42142857142858L94.65454545454546,51.221168831168825L91.09090909090911,50.67214285714285L87.52727272727273,50.585324675324685L83.96363636363637,50.37220779220779L80.4,52.71714285714286L76.83636363636364,56.57876623376623L73.27272727272727,60.24792207792207L69.70909090909092,63.81136363636364L66.14545454545454,66.33681818181817L62.58181818181818,66.77792207792209L59.018181818181816,67.68967532467532L55.454545454545446,68.48954545454545L51.89090909090908,67.82584415584417L48.32727272727273,67.34253246753246L44.76363636363636,66.95168831168832L41.199999999999996,66.66194805194804L37.636363636363626,66.49116883116884L34.072727272727285,66.0874025974026L30.509090909090922,65.30902597402597L26.945454545454556,64.89584415584415L23.38181818181819,64.27616883116883L19.818181818181824,63.09818181818182L16.25454545454546,67.32318181818182L12.690909090909095,67.14285714285715L9.12727272727273,67.07954545454545L5.563636363636365,66.40902597402598L2,66.04448051948052"></path></g></svg>