<svg meta="{&quot;DATA_PUBLISHED_DATE&quot;:&quot;2022-03-18&quot;,&quot;RENDER_DATE&quot;:&quot;2022-03-18&quot;,&quot;FIRST_DATE&quot;:&quot;2022-01-13&quot;,&quot;LAST_DATE&quot;:&quot;2022-03-09&quot;}" xmlns="http://www.w3.org/2000/svg" viewBox="0,0,200,100"><g transform="translate(0,0)"></g><g class="fg-bars cases-ep" fill="#00183f" stroke="none"><g><rect x="197" y="97.70916666666668" width="2" height="2.2908333333333246" id="cases-ep-0"></rect></g><g><rect x="193.43636363636364" y="97.46916666666667" width="2" height="2.5308333333333337" id="cases-ep-1"></rect></g><g><rect x="189.87272727272727" y="97.00833333333333" width="2" height="2.9916666666666742" id="cases-ep-2"></rect></g><g><rect x="186.30909090909088" y="98.62333333333333" width="2" height="1.3766666666666652" id="cases-ep-3"></rect></g><g><rect x="182.74545454545455" y="98.3725" width="2" height="1.6274999999999977" id="cases-ep-4"></rect></g><g><rect x="179.1818181818182" y="97.46833333333333" width="2" height="2.5316666666666663" id="cases-ep-5"></rect></g><g><rect x="175.61818181818182" y="97.1025" width="2" height="2.8974999999999937" id="cases-ep-6"></rect></g><g><rect x="172.05454545454546" y="96.76166666666667" width="2" height="3.2383333333333297" id="cases-ep-7"></rect></g><g><rect x="168.49090909090907" y="96.18583333333333" width="2" height="3.814166666666665" id="cases-ep-8"></rect></g><g><rect x="164.92727272727274" y="95.69833333333332" width="2" height="4.3016666666666765" id="cases-ep-9"></rect></g><g><rect x="161.36363636363637" y="98.06666666666666" width="2" height="1.9333333333333371" id="cases-ep-10"></rect></g><g><rect x="157.8" y="97.79166666666667" width="2" height="2.2083333333333286" id="cases-ep-11"></rect></g><g><rect x="154.23636363636365" y="96.07833333333333" width="2" height="3.921666666666667" id="cases-ep-12"></rect></g><g><rect x="150.6727272727273" y="95.8" width="2" height="4.200000000000003" id="cases-ep-13"></rect></g><g><rect x="147.1090909090909" y="95.38333333333333" width="2" height="4.616666666666674" id="cases-ep-14"></rect></g><g><rect x="143.54545454545453" y="94.10000000000001" width="2" height="5.8999999999999915" id="cases-ep-15"></rect></g><g><rect x="139.9818181818182" y="95.58" width="2" height="4.420000000000002" id="cases-ep-16"></rect></g><g><rect x="136.41818181818184" y="97.03916666666666" width="2" height="2.9608333333333405" id="cases-ep-17"></rect></g><g><rect x="132.85454545454544" y="96.52583333333334" width="2" height="3.4741666666666617" id="cases-ep-18"></rect></g><g><rect x="129.29090909090908" y="94.16416666666667" width="2" height="5.835833333333326" id="cases-ep-19"></rect></g><g><rect x="125.72727272727273" y="93.25750000000001" width="2" height="6.742499999999993" id="cases-ep-20"></rect></g><g><rect x="122.16363636363636" y="92.20916666666666" width="2" height="7.790833333333339" id="cases-ep-21"></rect></g><g><rect x="118.6" y="90.97416666666666" width="2" height="9.025833333333338" id="cases-ep-22"></rect></g><g><rect x="115.03636363636363" y="89.34083333333334" width="2" height="10.659166666666664" id="cases-ep-23"></rect></g><g><rect x="111.47272727272728" y="95.41666666666667" width="2" height="4.583333333333329" id="cases-ep-24"></rect></g><g><rect x="107.90909090909089" y="94.10166666666666" width="2" height="5.8983333333333405" id="cases-ep-25"></rect></g><g><rect x="104.34545454545456" y="88.58416666666666" width="2" height="11.415833333333339" id="cases-ep-26"></rect></g><g><rect x="100.78181818181817" y="88.30333333333333" width="2" height="11.696666666666673" id="cases-ep-27"></rect></g><g><rect x="97.21818181818183" y="86.64916666666667" width="2" height="13.350833333333327" id="cases-ep-28"></rect></g><g><rect x="93.65454545454546" y="85.195" width="2" height="14.805000000000007" id="cases-ep-29"></rect></g><g><rect x="90.09090909090911" y="81.55666666666667" width="2" height="18.443333333333328" id="cases-ep-30"></rect></g><g><rect x="86.52727272727273" y="91.89500000000001" width="2" height="8.10499999999999" id="cases-ep-31"></rect></g><g><rect x="82.96363636363637" y="90.19" width="2" height="9.810000000000002" id="cases-ep-32"></rect></g><g><rect x="79.4" y="81.8575" width="2" height="18.1425" id="cases-ep-33"></rect></g><g><rect x="75.83636363636364" y="80.06416666666667" width="2" height="19.935833333333335" id="cases-ep-34"></rect></g><g><rect x="72.27272727272727" y="77.38416666666666" width="2" height="22.61583333333334" id="cases-ep-35"></rect></g><g><rect x="68.70909090909092" y="72.87833333333333" width="2" height="27.12166666666667" id="cases-ep-36"></rect></g><g><rect x="65.14545454545454" y="67.9875" width="2" height="32.0125" id="cases-ep-37"></rect></g><g><rect x="61.58181818181818" y="87.36166666666666" width="2" height="12.638333333333335" id="cases-ep-38"></rect></g><g><rect x="58.018181818181816" y="82.77083333333333" width="2" height="17.22916666666667" id="cases-ep-39"></rect></g><g><rect x="54.454545454545446" y="68.05" width="2" height="31.950000000000003" id="cases-ep-40"></rect></g><g><rect x="50.89090909090908" y="63.52916666666666" width="2" height="36.47083333333334" id="cases-ep-41"></rect></g><g><rect x="47.32727272727273" y="57.14083333333333" width="2" height="42.85916666666667" id="cases-ep-42"></rect></g><g><rect x="43.76363636363636" y="50.3775" width="2" height="49.6225" id="cases-ep-43"></rect></g><g><rect x="40.199999999999996" y="41.82833333333333" width="2" height="58.17166666666667" id="cases-ep-44"></rect></g><g><rect x="36.636363636363626" y="76.59833333333333" width="2" height="23.40166666666667" id="cases-ep-45"></rect></g><g><rect x="33.072727272727285" y="67.01583333333335" width="2" height="32.98416666666665" id="cases-ep-46"></rect></g><g><rect x="29.509090909090922" y="36.07666666666667" width="2" height="63.92333333333333" id="cases-ep-47"></rect></g><g><rect x="25.945454545454556" y="25.699166666666663" width="2" height="74.30083333333334" id="cases-ep-48"></rect></g><g><rect x="22.38181818181819" y="16.403333333333336" width="2" height="83.59666666666666" id="cases-ep-49"></rect></g><g><rect x="18.818181818181824" y="1.0508333333333342" width="2" height="98.94916666666667" id="cases-ep-50"></rect></g><g><rect x="15.254545454545461" y="32.94583333333333" width="2" height="67.05416666666667" id="cases-ep-51"></rect></g><g><rect x="11.690909090909095" y="66.72583333333333" width="2" height="33.27416666666667" id="cases-ep-52"></rect></g><g><rect x="8.12727272727273" y="51.845000000000006" width="2" height="48.154999999999994" id="cases-ep-53"></rect></g><g><rect x="4.563636363636365" y="14.17166666666667" width="2" height="85.82833333333333" id="cases-ep-54"></rect></g><g><rect x="1" y="5.9283333333333355" width="2" height="94.07166666666666" id="cases-ep-55"></rect></g></g><g class="fg-line cases-ep" fill="none" stroke="#92c5de" stroke-width="2" stroke-linecap="round"><path d="M198,97.67904761904762L194.43636363636364,97.54369047619048L190.87272727272727,97.36035714285714L187.30909090909088,97.17321428571428L183.74545454545455,97.09369047619047L180.1818181818182,97.01071428571429L176.61818181818182,96.81214285714286L173.05454545454546,96.62607142857142L169.49090909090907,96.42916666666666L165.92727272727274,96.13119047619048L162.36363636363637,96.11428571428571L158.8,95.9675L155.23636363636365,95.78666666666666L151.6727272727273,95.51321428571428L148.1090909090909,95.15L144.54545454545453,94.69654761904762L140.9818181818182,94.25L137.41818181818184,93.35869047619047L133.85454545454544,93.12690476190475L130.29090909090908,92.78059523809524L126.72727272727273,91.98345238095239L123.16363636363636,91.27571428571429L119.6,90.48142857142857L116.03636363636363,89.65583333333333L112.47272727272728,88.54380952380953L108.90909090909089,88.04071428571429L105.34545454545456,87.48190476190476L101.78181818181817,86.5209523809524L98.21818181818183,85.34392857142858L94.65454545454546,84.02035714285714L91.09090909090911,82.26083333333334L87.52727272727273,80.32238095238095L83.96363636363637,79.67476190476191L80.4,78.61488095238094L76.83636363636364,76.64238095238095L73.27272727272727,74.28023809523809L69.70909090909092,71.38833333333334L66.14545454545454,68.17392857142856L62.58181818181818,64.43690476190476L59.018181818181816,62.89928571428571L55.454545454545446,60.64857142857143L51.89090909090908,56.08095238095239L48.32727272727273,50.67666666666666L44.76363636363636,44.8570238095238L41.199999999999996,37.81035714285714L37.636363636363626,36.54142857142858L34.072727272727285,35.131071428571424L30.509090909090922,32.96380952380953L26.945454545454556,29.834523809523805L23.38181818181819,27.010119047619042L19.818181818181824,24.072380952380957L16.25454545454546,22.339047619047626L12.690909090909095,15.346190476190468L9.12727272727273,13.50809523809524L5.563636363636365,11.37595238095238L2,7.778809523809526"></path></g></svg>