<svg meta="{&quot;DATA_PUBLISHED_DATE&quot;:&quot;2022-06-03&quot;,&quot;RENDER_DATE&quot;:&quot;2022-06-03&quot;,&quot;FIRST_DATE&quot;:&quot;2022-03-31&quot;,&quot;LAST_DATE&quot;:&quot;2022-05-25&quot;}" xmlns="http://www.w3.org/2000/svg" viewBox="0,0,200,100"><g transform="translate(0,0)"></g><g class="fg-bars cases-ep" fill="#00183f" stroke="none"><g><rect x="197" y="18.42" width="2" height="81.58" id="cases-ep-0"></rect></g><g><rect x="193.43636363636364" y="13.815" width="2" height="86.185" id="cases-ep-1"></rect></g><g><rect x="189.87272727272727" y="6.440000000000001" width="2" height="93.56" id="cases-ep-2"></rect></g><g><rect x="186.30909090909088" y="59.655" width="2" height="40.345" id="cases-ep-3"></rect></g><g><rect x="182.74545454545455" y="57.365" width="2" height="42.635" id="cases-ep-4"></rect></g><g><rect x="179.1818181818182" y="32.125" width="2" height="67.875" id="cases-ep-5"></rect></g><g><rect x="175.61818181818182" y="28.900000000000002" width="2" height="71.1" id="cases-ep-6"></rect></g><g><rect x="172.05454545454546" y="22.750000000000004" width="2" height="77.25" id="cases-ep-7"></rect></g><g><rect x="168.49090909090907" y="20.135" width="2" height="79.865" id="cases-ep-8"></rect></g><g><rect x="164.92727272727274" y="14.049999999999995" width="2" height="85.95" id="cases-ep-9"></rect></g><g><rect x="161.36363636363637" y="61.660000000000004" width="2" height="38.339999999999996" id="cases-ep-10"></rect></g><g><rect x="157.8" y="61.025" width="2" height="38.975" id="cases-ep-11"></rect></g><g><rect x="154.23636363636365" y="43.69" width="2" height="56.31" id="cases-ep-12"></rect></g><g><rect x="150.6727272727273" y="43.120000000000005" width="2" height="56.879999999999995" id="cases-ep-13"></rect></g><g><rect x="147.1090909090909" y="41.105000000000004" width="2" height="58.894999999999996" id="cases-ep-14"></rect></g><g><rect x="143.54545454545453" y="40.905" width="2" height="59.095" id="cases-ep-15"></rect></g><g><rect x="139.9818181818182" y="36.5" width="2" height="63.5" id="cases-ep-16"></rect></g><g><rect x="136.41818181818184" y="70.185" width="2" height="29.814999999999998" id="cases-ep-17"></rect></g><g><rect x="132.85454545454544" y="68.78999999999999" width="2" height="31.210000000000008" id="cases-ep-18"></rect></g><g><rect x="129.29090909090908" y="55.93" width="2" height="44.07" id="cases-ep-19"></rect></g><g><rect x="125.72727272727273" y="53.839999999999996" width="2" height="46.160000000000004" id="cases-ep-20"></rect></g><g><rect x="122.16363636363636" y="51.51" width="2" height="48.49" id="cases-ep-21"></rect></g><g><rect x="118.6" y="50.974999999999994" width="2" height="49.025000000000006" id="cases-ep-22"></rect></g><g><rect x="115.03636363636363" y="48.870000000000005" width="2" height="51.129999999999995" id="cases-ep-23"></rect></g><g><rect x="111.47272727272728" y="74.725" width="2" height="25.275000000000006" id="cases-ep-24"></rect></g><g><rect x="107.90909090909089" y="76.14" width="2" height="23.86" id="cases-ep-25"></rect></g><g><rect x="104.34545454545456" y="67.58999999999999" width="2" height="32.41000000000001" id="cases-ep-26"></rect></g><g><rect x="100.78181818181817" y="65.19500000000001" width="2" height="34.80499999999999" id="cases-ep-27"></rect></g><g><rect x="97.21818181818183" y="63.33" width="2" height="36.67" id="cases-ep-28"></rect></g><g><rect x="93.65454545454546" y="62.64000000000001" width="2" height="37.35999999999999" id="cases-ep-29"></rect></g><g><rect x="90.09090909090911" y="61.03000000000001" width="2" height="38.96999999999999" id="cases-ep-30"></rect></g><g><rect x="86.52727272727273" y="82.185" width="2" height="17.814999999999998" id="cases-ep-31"></rect></g><g><rect x="82.96363636363637" y="82.085" width="2" height="17.915000000000006" id="cases-ep-32"></rect></g><g><rect x="79.4" y="74.38" width="2" height="25.620000000000005" id="cases-ep-33"></rect></g><g><rect x="75.83636363636364" y="72.885" width="2" height="27.114999999999995" id="cases-ep-34"></rect></g><g><rect x="72.27272727272727" y="72.085" width="2" height="27.915000000000006" id="cases-ep-35"></rect></g><g><rect x="68.70909090909092" y="70.845" width="2" height="29.155" id="cases-ep-36"></rect></g><g><rect x="65.14545454545454" y="68.78999999999999" width="2" height="31.210000000000008" id="cases-ep-37"></rect></g><g><rect x="61.58181818181818" y="88.385" width="2" height="11.614999999999995" id="cases-ep-38"></rect></g><g><rect x="58.018181818181816" y="86.695" width="2" height="13.305000000000007" id="cases-ep-39"></rect></g><g><rect x="54.454545454545446" y="81.845" width="2" height="18.155" id="cases-ep-40"></rect></g><g><rect x="50.89090909090908" y="81.47999999999999" width="2" height="18.52000000000001" id="cases-ep-41"></rect></g><g><rect x="47.32727272727273" y="80.16499999999999" width="2" height="19.835000000000008" id="cases-ep-42"></rect></g><g><rect x="43.76363636363636" y="79.63" width="2" height="20.370000000000005" id="cases-ep-43"></rect></g><g><rect x="40.199999999999996" y="77.985" width="2" height="22.015" id="cases-ep-44"></rect></g><g><rect x="36.636363636363626" y="89.02" width="2" height="10.980000000000004" id="cases-ep-45"></rect></g><g><rect x="33.072727272727285" y="89.77" width="2" height="10.230000000000004" id="cases-ep-46"></rect></g><g><rect x="29.509090909090922" y="85.3" width="2" height="14.700000000000003" id="cases-ep-47"></rect></g><g><rect x="25.945454545454556" y="84.72500000000001" width="2" height="15.274999999999991" id="cases-ep-48"></rect></g><g><rect x="22.38181818181819" y="82.98" width="2" height="17.019999999999996" id="cases-ep-49"></rect></g><g><rect x="18.818181818181824" y="83.225" width="2" height="16.775000000000006" id="cases-ep-50"></rect></g><g><rect x="15.254545454545461" y="81.015" width="2" height="18.985" id="cases-ep-51"></rect></g><g><rect x="11.690909090909095" y="91.33" width="2" height="8.670000000000002" id="cases-ep-52"></rect></g><g><rect x="8.12727272727273" y="91.43" width="2" height="8.569999999999993" id="cases-ep-53"></rect></g><g><rect x="4.563636363636365" y="86.8" width="2" height="13.200000000000003" id="cases-ep-54"></rect></g><g><rect x="1" y="87.8" width="2" height="12.200000000000003" id="cases-ep-55"></rect></g></g><g class="fg-line cases-ep" fill="none" stroke="#92c5de" stroke-width="2" stroke-linecap="round"><path d="M198,30.959999999999997L194.43636363636364,31.578571428571433L190.87272727272727,32.48142857142857L187.30909090909088,33.56857142857144L183.74545454545455,33.855000000000004L180.1818181818182,34.37785714285715L176.61818181818182,36.029999999999994L173.05454545454546,38.06142857142857L169.49090909090907,40.68357142857143L165.92727272727274,43.65071428571429L162.36363636363637,46.85785714285715L158.8,48.07571428571429L155.23636363636365,49.185L151.6727272727273,50.93357142857143L148.1090909090909,52.465L144.54545454545453,53.951428571428565L140.9818181818182,55.39000000000001L137.41818181818184,57.15714285714285L133.85454545454544,57.80571428571428L130.29090909090908,58.85571428571428L126.72727272727273,60.52142857142857L123.16363636363636,62.143571428571434L119.6,63.83214285714286L116.03636363636363,65.49857142857142L112.47272727272728,67.2357142857143L108.90909090909089,68.30142857142857L105.34545454545456,69.15071428571429L101.78181818181817,70.12071428571429L98.21818181818183,71.21928571428572L94.65454545454546,72.47L91.09090909090911,73.64214285714286L87.52727272727273,74.7507142857143L83.96363636363637,75.63642857142857L80.4,76.295L76.83636363636364,77.36142857142858L73.27272727272727,78.58928571428572L69.70909090909092,79.74357142857143L66.14545454545454,80.99857142857144L62.58181818181818,82.31214285714286L59.018181818181816,82.40285714285714L55.454545454545446,82.84214285714286L51.89090909090908,83.33571428571429L48.32727272727273,83.79928571428572L44.76363636363636,84.20142857142856L41.199999999999996,84.71499999999999L37.636363636363626,85.14785714285715L34.072727272727285,85.47785714285713L30.509090909090922,85.715L26.945454545454556,85.92928571428571L23.38181818181819,86.36857142857143L19.818181818181824,86.91857142857143L16.25454545454546,87.36714285714285L12.690909090909095,88.03214285714286L9.12727272727273,88.17142857142856L5.563636363636365,88.36428571428571L2,88.82285714285713"></path></g></svg>