<svg about="DATA_PUBLISHED_DATE:2021-10-26,RENDER_DATE:2021-10-26" xmlns="http://www.w3.org/2000/svg" viewBox="0,0,200,100"><g transform="translate(0,0)"></g><g class="fg-bars tests-vaccines" fill="#00183f" stroke="none"><g><rect x="197" y="40.043125" width="2" height="59.956875" id="tests-vaccines-0"></rect></g><g><rect x="193.43636363636364" y="81.53" width="2" height="18.47" id="tests-vaccines-1"></rect></g><g><rect x="189.87272727272727" y="64.4425" width="2" height="35.557500000000005" id="tests-vaccines-2"></rect></g><g><rect x="186.30909090909088" y="23.958124999999995" width="2" height="76.041875" id="tests-vaccines-3"></rect></g><g><rect x="182.74545454545455" y="39.324375" width="2" height="60.675625" id="tests-vaccines-4"></rect></g><g><rect x="179.1818181818182" y="39.795625" width="2" height="60.204375" id="tests-vaccines-5"></rect></g><g><rect x="175.61818181818182" y="36.354375000000005" width="2" height="63.645624999999995" id="tests-vaccines-6"></rect></g><g><rect x="172.05454545454546" y="34.868750000000006" width="2" height="65.13125" id="tests-vaccines-7"></rect></g><g><rect x="168.49090909090907" y="78.280625" width="2" height="21.719375" id="tests-vaccines-8"></rect></g><g><rect x="164.92727272727274" y="60.25625" width="2" height="39.74375" id="tests-vaccines-9"></rect></g><g><rect x="161.36363636363637" y="13.578749999999996" width="2" height="86.42125" id="tests-vaccines-10"></rect></g><g><rect x="157.8" y="28.932500000000005" width="2" height="71.0675" id="tests-vaccines-11"></rect></g><g><rect x="154.23636363636365" y="33.726875" width="2" height="66.273125" id="tests-vaccines-12"></rect></g><g><rect x="150.6727272727273" y="31.925000000000004" width="2" height="68.07499999999999" id="tests-vaccines-13"></rect></g><g><rect x="147.1090909090909" y="32.191250000000004" width="2" height="67.80875" id="tests-vaccines-14"></rect></g><g><rect x="143.54545454545453" y="76.5675" width="2" height="23.432500000000005" id="tests-vaccines-15"></rect></g><g><rect x="139.9818181818182" y="58.55312500000001" width="2" height="41.44687499999999" id="tests-vaccines-16"></rect></g><g><rect x="136.41818181818184" y="11.385000000000002" width="2" height="88.615" id="tests-vaccines-17"></rect></g><g><rect x="132.85454545454544" y="19.233124999999994" width="2" height="80.766875" id="tests-vaccines-18"></rect></g><g><rect x="129.29090909090908" y="20.942499999999995" width="2" height="79.0575" id="tests-vaccines-19"></rect></g><g><rect x="125.72727272727273" y="20.380624999999995" width="2" height="79.619375" id="tests-vaccines-20"></rect></g><g><rect x="122.16363636363636" y="26.903750000000002" width="2" height="73.09625" id="tests-vaccines-21"></rect></g><g><rect x="118.6" y="75.8325" width="2" height="24.167500000000004" id="tests-vaccines-22"></rect></g><g><rect x="115.03636363636363" y="56.223124999999996" width="2" height="43.776875000000004" id="tests-vaccines-23"></rect></g><g><rect x="111.47272727272728" y="32.933749999999996" width="2" height="67.06625" id="tests-vaccines-24"></rect></g><g><rect x="107.90909090909089" y="55.36749999999999" width="2" height="44.63250000000001" id="tests-vaccines-25"></rect></g><g><rect x="104.34545454545456" y="55.25625000000001" width="2" height="44.74374999999999" id="tests-vaccines-26"></rect></g><g><rect x="100.78181818181817" y="53.863125000000004" width="2" height="46.136874999999996" id="tests-vaccines-27"></rect></g><g><rect x="97.21818181818183" y="50.125" width="2" height="49.875" id="tests-vaccines-28"></rect></g><g><rect x="93.65454545454546" y="79.569375" width="2" height="20.430625000000006" id="tests-vaccines-29"></rect></g><g><rect x="90.09090909090911" y="64.4525" width="2" height="35.5475" id="tests-vaccines-30"></rect></g><g><rect x="86.52727272727273" y="40.129375" width="2" height="59.870625" id="tests-vaccines-31"></rect></g><g><rect x="82.96363636363637" y="48.721875000000004" width="2" height="51.278124999999996" id="tests-vaccines-32"></rect></g><g><rect x="79.4" y="50.283125000000005" width="2" height="49.716874999999995" id="tests-vaccines-33"></rect></g><g><rect x="75.83636363636364" y="49.753125" width="2" height="50.246875" id="tests-vaccines-34"></rect></g><g><rect x="72.27272727272727" y="47.31125" width="2" height="52.68875" id="tests-vaccines-35"></rect></g><g><rect x="68.70909090909092" y="77.911875" width="2" height="22.088125000000005" id="tests-vaccines-36"></rect></g><g><rect x="65.14545454545454" y="60.55625" width="2" height="39.44375" id="tests-vaccines-37"></rect></g><g><rect x="61.58181818181818" y="32.552499999999995" width="2" height="67.4475" id="tests-vaccines-38"></rect></g><g><rect x="58.018181818181816" y="44.681875000000005" width="2" height="55.318124999999995" id="tests-vaccines-39"></rect></g><g><rect x="54.454545454545446" y="44.248125" width="2" height="55.751875" id="tests-vaccines-40"></rect></g><g><rect x="50.89090909090908" y="38.370625000000004" width="2" height="61.629374999999996" id="tests-vaccines-41"></rect></g><g><rect x="47.32727272727273" y="87.875625" width="2" height="12.124375" id="tests-vaccines-42"></rect></g><g><rect x="43.76363636363636" y="76.173125" width="2" height="23.826875" id="tests-vaccines-43"></rect></g><g><rect x="40.199999999999996" y="59.955625" width="2" height="40.044375" id="tests-vaccines-44"></rect></g><g><rect x="36.636363636363626" y="26.095625" width="2" height="73.904375" id="tests-vaccines-45"></rect></g><g><rect x="33.072727272727285" y="41.129375" width="2" height="58.870625" id="tests-vaccines-46"></rect></g><g><rect x="29.509090909090922" y="39.025625" width="2" height="60.974375" id="tests-vaccines-47"></rect></g><g><rect x="25.945454545454556" y="36.973124999999996" width="2" height="63.026875000000004" id="tests-vaccines-48"></rect></g><g><rect x="22.38181818181819" y="36.373124999999995" width="2" height="63.626875000000005" id="tests-vaccines-49"></rect></g><g><rect x="18.818181818181824" y="73.38125" width="2" height="26.618750000000006" id="tests-vaccines-50"></rect></g><g><rect x="15.254545454545461" y="51.348749999999995" width="2" height="48.651250000000005" id="tests-vaccines-51"></rect></g><g><rect x="11.690909090909095" y="19.79375" width="2" height="80.20625" id="tests-vaccines-52"></rect></g><g><rect x="8.12727272727273" y="34.881874999999994" width="2" height="65.118125" id="tests-vaccines-53"></rect></g><g><rect x="4.563636363636365" y="35.774375000000006" width="2" height="64.225625" id="tests-vaccines-54"></rect></g><g><rect x="1" y="33.3225" width="2" height="66.67750000000001" id="tests-vaccines-55"></rect></g></g><g class="fg-line tests-vaccines" fill="none" stroke="#92c5de" stroke-width="2" stroke-linecap="round"><path d="M198,46.49258928571428L194.43636363636364,45.75339285714285L190.87272727272727,45.28919642857143L187.30909090909088,44.691160714285715L183.74545454545455,43.208392857142854L180.1818181818182,41.723839285714284L176.61818181818182,40.856875L173.05454545454546,40.22410714285714L169.49090909090907,39.84160714285715L165.92727272727274,39.596875L162.36363636363637,39.353571428571435L158.8,39.04017857142858L155.23636363636365,37.65455357142857L151.6727272727273,35.82821428571429L148.1090909090909,34.17901785714286L144.54545454545453,33.42366071428572L140.9818181818182,33.31866071428572L137.41818181818184,32.985803571428576L133.85454545454544,36.06419642857143L130.29090909090908,41.22625L126.72727272727273,46.128214285714286L123.16363636363636,50.911428571428566L119.6,54.228750000000005L116.03636363636363,54.76258928571429L112.47272727272728,55.93821428571428L108.90909090909089,56.96616071428571L105.34545454545456,56.016785714285724L101.78181818181817,55.30633928571429L98.21818181818183,54.719196428571436L94.65454545454546,54.31723214285715L91.09090909090911,54.080446428571435L87.52727272727273,53.52383928571429L83.96363636363637,52.441428571428574L80.4,51.86428571428572L76.83636363636364,51.00214285714285L73.27272727272727,49.376071428571436L69.70909090909092,55.17098214285714L66.14545454545454,54.92258928571429L62.58181818181818,54.83678571428572L59.018181818181816,53.91437500000001L55.454545454545446,53.406875L51.89090909090908,52.66080357142857L48.32727272727273,52.46116071428572L44.76363636363636,45.10366071428572L41.199999999999996,44.70482142857143L37.636363636363626,43.47526785714285L34.072727272727285,42.574999999999996L30.509090909090922,41.6825L26.945454545454556,41.21803571428572L23.38181818181819,40.69651785714286L19.818181818181824,40.31669642857143L16.25454545454546,40.36767857142857L12.690909090909095,40.544017857142855L9.12727272727273,40.674910714285716L5.563636363636365,40.89133928571429L2,40.957410714285714"></path></g></svg>