<svg about="DATA_PUBLISHED_DATE:2021-11-23,RENDER_DATE:2021-11-23" xmlns="http://www.w3.org/2000/svg" viewBox="0,0,200,100"><g transform="translate(0,0)"></g><g class="fg-bars tests-vaccines" fill="#00183f" stroke="none"><g><rect x="197" y="23.581923076923072" width="2" height="76.41807692307692" id="tests-vaccines-0"></rect></g><g><rect x="193.43636363636364" y="73.75423076923077" width="2" height="26.245769230769227" id="tests-vaccines-1"></rect></g><g><rect x="189.87272727272727" y="45.427692307692304" width="2" height="54.572307692307696" id="tests-vaccines-2"></rect></g><g><rect x="186.30909090909088" y="4.508846153846157" width="2" height="95.49115384615385" id="tests-vaccines-3"></rect></g><g><rect x="182.74545454545455" y="19.739230769230765" width="2" height="80.26076923076923" id="tests-vaccines-4"></rect></g><g><rect x="179.1818181818182" y="16.348461538461535" width="2" height="83.65153846153846" id="tests-vaccines-5"></rect></g><g><rect x="175.61818181818182" y="18.83961538461538" width="2" height="81.16038461538461" id="tests-vaccines-6"></rect></g><g><rect x="172.05454545454546" y="25.260000000000005" width="2" height="74.74" id="tests-vaccines-7"></rect></g><g><rect x="168.49090909090907" y="75.0276923076923" width="2" height="24.972307692307695" id="tests-vaccines-8"></rect></g><g><rect x="164.92727272727274" y="52.735" width="2" height="47.265" id="tests-vaccines-9"></rect></g><g><rect x="161.36363636363637" y="9.137692307692301" width="2" height="90.8623076923077" id="tests-vaccines-10"></rect></g><g><rect x="157.8" y="25.928076923076926" width="2" height="74.07192307692307" id="tests-vaccines-11"></rect></g><g><rect x="154.23636363636365" y="28.768461538461544" width="2" height="71.23153846153846" id="tests-vaccines-12"></rect></g><g><rect x="150.6727272727273" y="28.554999999999996" width="2" height="71.44500000000001" id="tests-vaccines-13"></rect></g><g><rect x="147.1090909090909" y="32.8373076923077" width="2" height="67.16269230769231" id="tests-vaccines-14"></rect></g><g><rect x="143.54545454545453" y="80.67807692307693" width="2" height="19.32192307692307" id="tests-vaccines-15"></rect></g><g><rect x="139.9818181818182" y="60.73192307692308" width="2" height="39.26807692307692" id="tests-vaccines-16"></rect></g><g><rect x="136.41818181818184" y="16.83269230769231" width="2" height="83.16730769230769" id="tests-vaccines-17"></rect></g><g><rect x="132.85454545454544" y="30.615000000000002" width="2" height="69.38499999999999" id="tests-vaccines-18"></rect></g><g><rect x="129.29090909090908" y="30.524615384615384" width="2" height="69.47538461538461" id="tests-vaccines-19"></rect></g><g><rect x="125.72727272727273" y="31.32807692307692" width="2" height="68.67192307692308" id="tests-vaccines-20"></rect></g><g><rect x="122.16363636363636" y="37.585" width="2" height="62.415" id="tests-vaccines-21"></rect></g><g><rect x="118.6" y="81.8623076923077" width="2" height="18.137692307692305" id="tests-vaccines-22"></rect></g><g><rect x="115.03636363636363" y="64.57076923076923" width="2" height="35.42923076923077" id="tests-vaccines-23"></rect></g><g><rect x="111.47272727272728" y="37.87615384615385" width="2" height="62.12384615384615" id="tests-vaccines-24"></rect></g><g><rect x="107.90909090909089" y="63.16653846153846" width="2" height="36.83346153846154" id="tests-vaccines-25"></rect></g><g><rect x="104.34545454545456" y="64.59615384615385" width="2" height="35.403846153846146" id="tests-vaccines-26"></rect></g><g><rect x="100.78181818181817" y="63.42692307692308" width="2" height="36.57307692307692" id="tests-vaccines-27"></rect></g><g><rect x="97.21818181818183" y="61.92076923076924" width="2" height="38.07923076923076" id="tests-vaccines-28"></rect></g><g><rect x="93.65454545454546" y="88.29115384615385" width="2" height="11.708846153846153" id="tests-vaccines-29"></rect></g><g><rect x="90.09090909090911" y="77.43192307692308" width="2" height="22.568076923076916" id="tests-vaccines-30"></rect></g><g><rect x="86.52727272727273" y="51.74423076923077" width="2" height="48.25576923076923" id="tests-vaccines-31"></rect></g><g><rect x="82.96363636363637" y="61.46884615384616" width="2" height="38.53115384615384" id="tests-vaccines-32"></rect></g><g><rect x="79.4" y="61.970384615384624" width="2" height="38.029615384615376" id="tests-vaccines-33"></rect></g><g><rect x="75.83636363636364" y="59.56423076923076" width="2" height="40.43576923076924" id="tests-vaccines-34"></rect></g><g><rect x="72.27272727272727" y="58.99923076923077" width="2" height="41.00076923076923" id="tests-vaccines-35"></rect></g><g><rect x="68.70909090909092" y="86.34115384615384" width="2" height="13.658846153846156" id="tests-vaccines-36"></rect></g><g><rect x="65.14545454545454" y="74.96346153846154" width="2" height="25.036538461538456" id="tests-vaccines-37"></rect></g><g><rect x="61.58181818181818" y="45.31423076923077" width="2" height="54.68576923076923" id="tests-vaccines-38"></rect></g><g><rect x="58.018181818181816" y="55.177692307692304" width="2" height="44.822307692307696" id="tests-vaccines-39"></rect></g><g><rect x="54.454545454545446" y="58.22923076923077" width="2" height="41.77076923076923" id="tests-vaccines-40"></rect></g><g><rect x="50.89090909090908" y="57.20884615384616" width="2" height="42.79115384615384" id="tests-vaccines-41"></rect></g><g><rect x="47.32727272727273" y="57.426923076923075" width="2" height="42.573076923076925" id="tests-vaccines-42"></rect></g><g><rect x="43.76363636363636" y="85.30076923076923" width="2" height="14.699230769230766" id="tests-vaccines-43"></rect></g><g><rect x="40.199999999999996" y="73.94192307692308" width="2" height="26.058076923076925" id="tests-vaccines-44"></rect></g><g><rect x="36.636363636363626" y="44.28384615384615" width="2" height="55.71615384615385" id="tests-vaccines-45"></rect></g><g><rect x="33.072727272727285" y="49.3423076923077" width="2" height="50.6576923076923" id="tests-vaccines-46"></rect></g><g><rect x="29.509090909090922" y="50.42307692307693" width="2" height="49.57692307692307" id="tests-vaccines-47"></rect></g><g><rect x="25.945454545454556" y="50.24230769230768" width="2" height="49.75769230769232" id="tests-vaccines-48"></rect></g><g><rect x="22.38181818181819" y="54.339230769230774" width="2" height="45.660769230769226" id="tests-vaccines-49"></rect></g><g><rect x="18.818181818181824" y="84.8573076923077" width="2" height="15.1426923076923" id="tests-vaccines-50"></rect></g><g><rect x="15.254545454545461" y="72.73192307692308" width="2" height="27.26807692307692" id="tests-vaccines-51"></rect></g><g><rect x="11.690909090909095" y="58.356153846153845" width="2" height="41.643846153846155" id="tests-vaccines-52"></rect></g><g><rect x="8.12727272727273" y="72.32884615384616" width="2" height="27.671153846153842" id="tests-vaccines-53"></rect></g><g><rect x="4.563636363636365" y="72.2626923076923" width="2" height="27.737307692307695" id="tests-vaccines-54"></rect></g><g><rect x="1" y="71.41999999999999" width="2" height="28.580000000000013" id="tests-vaccines-55"></rect></g></g><g class="fg-line tests-vaccines" fill="none" stroke="#92c5de" stroke-width="2" stroke-linecap="round"><path d="M198,28.885714285714283L194.43636363636364,29.12543956043957L190.87272727272727,29.307362637362644L187.30909090909088,30.351263736263732L183.74545454545455,31.012527472527474L180.1818181818182,31.89664835164835L176.61818181818182,33.67093406593406L173.05454545454546,35.058846153846154L169.49090909090907,36.14131868131868L165.92727272727274,36.94851648351649L162.36363636363637,38.090934065934064L158.8,39.190219780219785L155.23636363636365,39.85978021978023L151.6727272727273,40.11065934065934L148.1090909090909,40.50681318681318L144.54545454545453,41.18505494505496L140.9818181818182,41.35423076923077L137.41818181818184,41.902637362637364L133.85454545454544,44.90884615384615L130.29090909090908,49.55906593406593L126.72727272727273,54.42642857142857L123.16363636363636,59.01197802197802L119.6,62.48851648351648L116.03636363636363,63.406923076923086L112.47272727272728,65.24423076923077L108.90909090909089,67.22538461538461L105.34545454545456,66.98285714285714L101.78181818181817,66.60774725274725L98.21818181818183,66.05593406593407L94.65454545454546,65.63857142857144L91.09090909090911,65.36L87.52727272727273,65.00736263736265L83.96363636363637,64.0887912087912L80.4,63.19005494505494L76.83636363636364,62.6556043956044L73.27272727272727,62.31912087912088L69.70909090909092,62.094505494505505L66.14545454545454,61.94587912087912L62.58181818181818,61.79994505494506L59.018181818181816,61.652747252747254L55.454545454545446,60.81912087912088L51.89090909090908,59.70395604395604L48.32727272727273,58.70873626373627L44.76363636363636,58.26763736263736L41.199999999999996,58.20428571428571L37.636363636363626,58.03142857142858L34.072727272727285,60.04175824175824L30.509090909090922,63.325549450549445L26.945454545454556,66.44549450549451L23.38181818181819,69.47087912087912L19.818181818181824,71.58626373626373L16.25454545454546,71.94697802197803L12.690909090909095,72.70791208791209L9.12727272727273,73.35934065934066L5.563636363636365,72.77390109890109L2,72.3360989010989"></path></g></svg>