<svg meta="{&quot;DATA_PUBLISHED_DATE&quot;:&quot;2022-12-01&quot;,&quot;RENDER_DATE&quot;:&quot;2022-12-08&quot;,&quot;FIRST_DATE&quot;:&quot;2022-09-28&quot;,&quot;LAST_DATE&quot;:&quot;2022-11-22&quot;}" xmlns="http://www.w3.org/2000/svg" viewBox="0,0,200,100"><g transform="translate(0,0)"></g><g class="fg-bars cases-ep" fill="#00183f" stroke="none"><g><rect x="197" y="12.5" width="2" height="87.5" id="cases-ep-0"></rect></g><g><rect x="193.43636363636364" y="7.025000000000004" width="2" height="92.975" id="cases-ep-1"></rect></g><g><rect x="189.87272727272727" y="55.525000000000006" width="2" height="44.474999999999994" id="cases-ep-2"></rect></g><g><rect x="186.30909090909088" y="53.1625" width="2" height="46.8375" id="cases-ep-3"></rect></g><g><rect x="182.74545454545455" y="31.137499999999996" width="2" height="68.86250000000001" id="cases-ep-4"></rect></g><g><rect x="179.1818181818182" y="30.837499999999995" width="2" height="69.16250000000001" id="cases-ep-5"></rect></g><g><rect x="175.61818181818182" y="31.499999999999993" width="2" height="68.5" id="cases-ep-6"></rect></g><g><rect x="172.05454545454546" y="27.3875" width="2" height="72.6125" id="cases-ep-7"></rect></g><g><rect x="168.49090909090907" y="20.587500000000002" width="2" height="79.4125" id="cases-ep-8"></rect></g><g><rect x="164.92727272727274" y="62.0125" width="2" height="37.9875" id="cases-ep-9"></rect></g><g><rect x="161.36363636363637" y="61.9" width="2" height="38.1" id="cases-ep-10"></rect></g><g><rect x="157.8" y="52.4375" width="2" height="47.5625" id="cases-ep-11"></rect></g><g><rect x="154.23636363636365" y="45.2625" width="2" height="54.7375" id="cases-ep-12"></rect></g><g><rect x="150.6727272727273" y="43.65" width="2" height="56.35" id="cases-ep-13"></rect></g><g><rect x="147.1090909090909" y="44.3875" width="2" height="55.6125" id="cases-ep-14"></rect></g><g><rect x="143.54545454545453" y="33.025000000000006" width="2" height="66.975" id="cases-ep-15"></rect></g><g><rect x="139.9818181818182" y="65.05000000000001" width="2" height="34.94999999999999" id="cases-ep-16"></rect></g><g><rect x="136.41818181818184" y="66.16250000000001" width="2" height="33.83749999999999" id="cases-ep-17"></rect></g><g><rect x="132.85454545454544" y="54.7125" width="2" height="45.2875" id="cases-ep-18"></rect></g><g><rect x="129.29090909090908" y="54.0625" width="2" height="45.9375" id="cases-ep-19"></rect></g><g><rect x="125.72727272727273" y="51.5125" width="2" height="48.4875" id="cases-ep-20"></rect></g><g><rect x="122.16363636363636" y="47.599999999999994" width="2" height="52.400000000000006" id="cases-ep-21"></rect></g><g><rect x="118.6" y="49.8625" width="2" height="50.1375" id="cases-ep-22"></rect></g><g><rect x="115.03636363636363" y="73.96249999999999" width="2" height="26.03750000000001" id="cases-ep-23"></rect></g><g><rect x="111.47272727272728" y="73.41250000000001" width="2" height="26.58749999999999" id="cases-ep-24"></rect></g><g><rect x="107.90909090909089" y="64.0125" width="2" height="35.9875" id="cases-ep-25"></rect></g><g><rect x="104.34545454545456" y="62.67499999999999" width="2" height="37.32500000000001" id="cases-ep-26"></rect></g><g><rect x="100.78181818181817" y="61.9625" width="2" height="38.0375" id="cases-ep-27"></rect></g><g><rect x="97.21818181818183" y="60.5" width="2" height="39.5" id="cases-ep-28"></rect></g><g><rect x="93.65454545454546" y="56.974999999999994" width="2" height="43.025000000000006" id="cases-ep-29"></rect></g><g><rect x="90.09090909090911" y="78.075" width="2" height="21.924999999999997" id="cases-ep-30"></rect></g><g><rect x="86.52727272727273" y="77.3125" width="2" height="22.6875" id="cases-ep-31"></rect></g><g><rect x="82.96363636363637" y="68.425" width="2" height="31.575000000000003" id="cases-ep-32"></rect></g><g><rect x="79.4" y="65.0375" width="2" height="34.962500000000006" id="cases-ep-33"></rect></g><g><rect x="75.83636363636364" y="64.07499999999999" width="2" height="35.92500000000001" id="cases-ep-34"></rect></g><g><rect x="72.27272727272727" y="61.175000000000004" width="2" height="38.824999999999996" id="cases-ep-35"></rect></g><g><rect x="68.70909090909092" y="56.06249999999999" width="2" height="43.93750000000001" id="cases-ep-36"></rect></g><g><rect x="65.14545454545454" y="78.4125" width="2" height="21.587500000000006" id="cases-ep-37"></rect></g><g><rect x="61.58181818181818" y="76.4875" width="2" height="23.512500000000003" id="cases-ep-38"></rect></g><g><rect x="58.018181818181816" y="67.83749999999999" width="2" height="32.16250000000001" id="cases-ep-39"></rect></g><g><rect x="54.454545454545446" y="65.775" width="2" height="34.224999999999994" id="cases-ep-40"></rect></g><g><rect x="50.89090909090908" y="62.8" width="2" height="37.2" id="cases-ep-41"></rect></g><g><rect x="47.32727272727273" y="60.575" width="2" height="39.425" id="cases-ep-42"></rect></g><g><rect x="43.76363636363636" y="56.49999999999999" width="2" height="43.50000000000001" id="cases-ep-43"></rect></g><g><rect x="40.199999999999996" y="76.53750000000001" width="2" height="23.46249999999999" id="cases-ep-44"></rect></g><g><rect x="36.636363636363626" y="74.08749999999999" width="2" height="25.91250000000001" id="cases-ep-45"></rect></g><g><rect x="33.072727272727285" y="65.1125" width="2" height="34.8875" id="cases-ep-46"></rect></g><g><rect x="29.509090909090922" y="64.05000000000001" width="2" height="35.94999999999999" id="cases-ep-47"></rect></g><g><rect x="25.945454545454556" y="60.375" width="2" height="39.625" id="cases-ep-48"></rect></g><g><rect x="22.38181818181819" y="56.175" width="2" height="43.825" id="cases-ep-49"></rect></g><g><rect x="18.818181818181824" y="49.650000000000006" width="2" height="50.349999999999994" id="cases-ep-50"></rect></g><g><rect x="15.254545454545461" y="74.15" width="2" height="25.849999999999994" id="cases-ep-51"></rect></g><g><rect x="11.690909090909095" y="69.7" width="2" height="30.299999999999997" id="cases-ep-52"></rect></g><g><rect x="8.12727272727273" y="59.8875" width="2" height="40.1125" id="cases-ep-53"></rect></g><g><rect x="4.563636363636365" y="57.137499999999996" width="2" height="42.862500000000004" id="cases-ep-54"></rect></g><g><rect x="1" y="51.025" width="2" height="48.975" id="cases-ep-55"></rect></g></g><g class="fg-line cases-ep" fill="none" stroke="#92c5de" stroke-width="2" stroke-linecap="round"><path d="M198,31.669642857142854L194.43636363636364,33.79642857142857L190.87272727272727,35.733928571428564L187.30909090909088,36.66071428571429L183.74545454545455,37.90892857142857L180.1818181818182,40.95178571428571L176.61818181818182,43.012499999999996L173.05454545454546,44.7482142857143L169.49090909090907,47.17678571428571L165.92727272727274,48.95357142857143L162.36363636363637,49.387499999999996L158.8,49.996428571428574L155.23636363636365,50.32142857142857L151.6727272727273,51.57857142857143L148.1090909090909,52.70178571428572L144.54545454545453,53.160714285714285L140.9818181818182,55.566071428571426L137.41818181818184,56.839285714285715L133.85454545454544,57.875L130.29090909090908,59.20357142857142L126.72727272727273,60.433928571428574L123.16363636363636,61.926785714285714L119.6,63.76964285714286L116.03636363636363,64.78571428571429L112.47272727272728,65.37321428571428L108.90909090909089,65.93035714285715L105.34545454545456,66.56071428571428L101.78181818181817,66.89821428571429L98.21818181818183,67.19999999999999L94.65454545454546,67.29642857142856L91.09090909090911,67.16607142857143L87.52727272727273,67.21428571428572L83.96363636363637,67.09642857142856L80.4,67.0125L76.83636363636364,67.11785714285713L73.27272727272727,66.93571428571428L69.70909090909092,66.85L66.14545454545454,66.9125L62.58181818181818,66.64464285714286L59.018181818181816,66.30178571428571L55.454545454545446,65.9125L51.89090909090908,65.66607142857143L48.32727272727273,65.31964285714285L44.76363636363636,64.69107142857142L41.199999999999996,63.71249999999999L37.636363636363626,63.37142857142857L34.072727272727285,62.74464285714285L30.509090909090922,61.99821428571428L26.945454545454556,61.010714285714286L23.38181818181819,59.675L19.818181818181824,58.70892857142857L16.25454545454546,57.46249999999999L12.690909090909095,56.88392857142857L9.12727272727273,56.61964285714285L5.563636363636365,56.14107142857143L2,55.664285714285725"></path></g></svg>