<svg about="DATA_PUBLISHED_DATE:2022-01-25,RENDER_DATE:2022-01-25" xmlns="http://www.w3.org/2000/svg" viewBox="0,0,200,100"><g transform="translate(0,0)"></g><g class="fg-bars tests-vaccines" fill="#00183f" stroke="none"><g><rect x="197" y="62.04828571428571" width="2" height="37.95171428571429" id="tests-vaccines-0"></rect></g><g><rect x="193.43636363636364" y="85.09057142857142" width="2" height="14.909428571428577" id="tests-vaccines-1"></rect></g><g><rect x="189.87272727272727" y="68.39" width="2" height="31.61" id="tests-vaccines-2"></rect></g><g><rect x="186.30909090909088" y="38.51599999999999" width="2" height="61.48400000000001" id="tests-vaccines-3"></rect></g><g><rect x="182.74545454545455" y="47.35542857142857" width="2" height="52.64457142857143" id="tests-vaccines-4"></rect></g><g><rect x="179.1818181818182" y="45.314571428571426" width="2" height="54.685428571428574" id="tests-vaccines-5"></rect></g><g><rect x="175.61818181818182" y="44.214285714285715" width="2" height="55.785714285714285" id="tests-vaccines-6"></rect></g><g><rect x="172.05454545454546" y="47.548857142857145" width="2" height="52.451142857142855" id="tests-vaccines-7"></rect></g><g><rect x="168.49090909090907" y="82.31114285714285" width="2" height="17.688857142857145" id="tests-vaccines-8"></rect></g><g><rect x="164.92727272727274" y="58.83885714285715" width="2" height="41.16114285714285" id="tests-vaccines-9"></rect></g><g><rect x="161.36363636363637" y="25.64657142857143" width="2" height="74.35342857142857" id="tests-vaccines-10"></rect></g><g><rect x="157.8" y="35.54228571428572" width="2" height="64.45771428571427" id="tests-vaccines-11"></rect></g><g><rect x="154.23636363636365" y="37.708" width="2" height="62.292" id="tests-vaccines-12"></rect></g><g><rect x="150.6727272727273" y="38.394285714285715" width="2" height="61.605714285714285" id="tests-vaccines-13"></rect></g><g><rect x="147.1090909090909" y="43.21285714285714" width="2" height="56.78714285714286" id="tests-vaccines-14"></rect></g><g><rect x="143.54545454545453" y="84.708" width="2" height="15.292000000000002" id="tests-vaccines-15"></rect></g><g><rect x="139.9818181818182" y="97.77085714285714" width="2" height="2.229142857142861" id="tests-vaccines-16"></rect></g><g><rect x="136.41818181818184" y="78.28" width="2" height="21.72" id="tests-vaccines-17"></rect></g><g><rect x="132.85454545454544" y="36.15085714285714" width="2" height="63.84914285714286" id="tests-vaccines-18"></rect></g><g><rect x="129.29090909090908" y="31.39628571428571" width="2" height="68.60371428571429" id="tests-vaccines-19"></rect></g><g><rect x="125.72727272727273" y="31.342000000000002" width="2" height="68.658" id="tests-vaccines-20"></rect></g><g><rect x="122.16363636363636" y="39.85714285714286" width="2" height="60.14285714285714" id="tests-vaccines-21"></rect></g><g><rect x="118.6" y="84.03228571428572" width="2" height="15.96771428571428" id="tests-vaccines-22"></rect></g><g><rect x="115.03636363636363" y="99.73971428571429" width="2" height="0.2602857142857147" id="tests-vaccines-23"></rect></g><g><rect x="111.47272727272728" y="87.07228571428571" width="2" height="12.927714285714288" id="tests-vaccines-24"></rect></g><g><rect x="107.90909090909089" y="38.07371428571429" width="2" height="61.92628571428571" id="tests-vaccines-25"></rect></g><g><rect x="104.34545454545456" y="26.97628571428572" width="2" height="73.02371428571428" id="tests-vaccines-26"></rect></g><g><rect x="100.78181818181817" y="24.90485714285714" width="2" height="75.09514285714286" id="tests-vaccines-27"></rect></g><g><rect x="97.21818181818183" y="29.90571428571429" width="2" height="70.09428571428572" id="tests-vaccines-28"></rect></g><g><rect x="93.65454545454546" y="79.28228571428572" width="2" height="20.71771428571428" id="tests-vaccines-29"></rect></g><g><rect x="90.09090909090911" y="59.11942857142858" width="2" height="40.88057142857142" id="tests-vaccines-30"></rect></g><g><rect x="86.52727272727273" y="25.562571428571424" width="2" height="74.43742857142857" id="tests-vaccines-31"></rect></g><g><rect x="82.96363636363637" y="34.847142857142856" width="2" height="65.15285714285714" id="tests-vaccines-32"></rect></g><g><rect x="79.4" y="33.352000000000004" width="2" height="66.648" id="tests-vaccines-33"></rect></g><g><rect x="75.83636363636364" y="35.205714285714286" width="2" height="64.7942857142857" id="tests-vaccines-34"></rect></g><g><rect x="72.27272727272727" y="37.82885714285714" width="2" height="62.17114285714286" id="tests-vaccines-35"></rect></g><g><rect x="68.70909090909092" y="79.76114285714286" width="2" height="20.238857142857142" id="tests-vaccines-36"></rect></g><g><rect x="65.14545454545454" y="53.85771428571429" width="2" height="46.14228571428571" id="tests-vaccines-37"></rect></g><g><rect x="61.58181818181818" y="19.26657142857143" width="2" height="80.73342857142856" id="tests-vaccines-38"></rect></g><g><rect x="58.018181818181816" y="27.386857142857146" width="2" height="72.61314285714286" id="tests-vaccines-39"></rect></g><g><rect x="54.454545454545446" y="24.956" width="2" height="75.044" id="tests-vaccines-40"></rect></g><g><rect x="50.89090909090908" y="25.065428571428573" width="2" height="74.93457142857143" id="tests-vaccines-41"></rect></g><g><rect x="47.32727272727273" y="30.468285714285713" width="2" height="69.53171428571429" id="tests-vaccines-42"></rect></g><g><rect x="43.76363636363636" y="76.10971428571429" width="2" height="23.89028571428571" id="tests-vaccines-43"></rect></g><g><rect x="40.199999999999996" y="47.264571428571436" width="2" height="52.735428571428564" id="tests-vaccines-44"></rect></g><g><rect x="36.636363636363626" y="8.442285714285713" width="2" height="91.55771428571428" id="tests-vaccines-45"></rect></g><g><rect x="33.072727272727285" y="19.220285714285712" width="2" height="80.77971428571429" id="tests-vaccines-46"></rect></g><g><rect x="29.509090909090922" y="21.18" width="2" height="78.82" id="tests-vaccines-47"></rect></g><g><rect x="25.945454545454556" y="29.052" width="2" height="70.94800000000001" id="tests-vaccines-48"></rect></g><g><rect x="22.38181818181819" y="38.62485714285714" width="2" height="61.37514285714286" id="tests-vaccines-49"></rect></g><g><rect x="18.818181818181824" y="81.51485714285714" width="2" height="18.48514285714286" id="tests-vaccines-50"></rect></g><g><rect x="15.254545454545461" y="67.17571428571428" width="2" height="32.82428571428572" id="tests-vaccines-51"></rect></g><g><rect x="11.690909090909095" y="56.13428571428572" width="2" height="43.86571428571428" id="tests-vaccines-52"></rect></g><g><rect x="8.12727272727273" y="98.57485714285714" width="2" height="1.425142857142859" id="tests-vaccines-53"></rect></g><g><rect x="4.563636363636365" y="41.133428571428574" width="2" height="58.866571428571426" id="tests-vaccines-54"></rect></g><g><rect x="1" y="29.940285714285718" width="2" height="70.05971428571428" id="tests-vaccines-55"></rect></g></g><g class="fg-line tests-vaccines" fill="none" stroke="#92c5de" stroke-width="2" stroke-linecap="round"><path d="M198,55.84702040816326L194.43636363636364,53.775673469387755L190.87272727272727,53.37861224489796L187.30909090909088,52.014163265306124L183.74545454545455,50.175673469387746L180.1818181818182,48.488081632653056L176.61818181818182,47.401428571428575L173.05454545454546,46.57L169.49090909090907,45.95057142857143L165.92727272727274,46.29297959183673L162.36363636363637,51.854693877551014L158.8,59.37375510204082L155.23636363636365,59.460693877551016L151.6727272727273,58.55902040816326L148.1090909090909,57.55155102040816L144.54545454545453,57.072163265306116L140.9818181818182,56.975632653061226L137.41818181818184,57.256897959183675L133.85454545454544,58.51293877551021L130.29090909090908,58.78763265306123L126.72727272727273,58.15620408163266L123.16363636363636,57.236612244897955L119.6,55.814979591836746L116.03636363636363,55.1364081632653L112.47272727272728,49.333510204081634L108.90909090909089,40.54640816326531L105.34545454545456,40.085469387755104L101.78181818181817,40.99628571428572L98.21818181818183,42.467836734693876L94.65454545454546,43.599714285714285L91.09090909090911,43.668122448979595L87.52727272727273,42.916448979591834L83.96363636363637,42.01702040816326L80.4,40.95126530612245L76.83636363636364,39.75183673469388L73.27272727272727,38.303224489795916L69.70909090909092,37.251714285714286L66.14545454545454,36.730081632653054L62.58181818181818,35.78820408163266L59.018181818181816,34.24187755102041L55.454545454545446,33.075224489795914L51.89090909090908,32.53579591836735L48.32727272727273,33.10530612244897L44.76363636363636,34.2705306122449L41.199999999999996,35.042693877551024L37.636363636363626,37.887142857142855L34.072727272727285,44.70028571428571L30.509090909090922,56.0366530612245L26.945454545454556,58.88714285714285L23.38181818181819,59.01404081632653L19.818181818181824,58.227265306122455L16.25454545454546,57.83306122448979L12.690909090909095,56.07367346938775L9.12727272727273,51.25004081632654L5.563636363636365,42.099877551020406L2,41.00191836734693"></path></g></svg>