<svg meta="{&quot;DATA_PUBLISHED_DATE&quot;:&quot;2022-04-22&quot;,&quot;RENDER_DATE&quot;:&quot;2022-04-22&quot;,&quot;FIRST_DATE&quot;:&quot;2022-02-17&quot;,&quot;LAST_DATE&quot;:&quot;2022-04-13&quot;}" xmlns="http://www.w3.org/2000/svg" viewBox="0,0,200,100"><g transform="translate(0,0)"></g><g class="fg-bars cases-ep" fill="#00183f" stroke="none"><g><rect x="197" y="59.17777777777778" width="2" height="40.82222222222222" id="cases-ep-0"></rect></g><g><rect x="193.43636363636364" y="58.55555555555556" width="2" height="41.44444444444444" id="cases-ep-1"></rect></g><g><rect x="189.87272727272727" y="54.98888888888889" width="2" height="45.01111111111111" id="cases-ep-2"></rect></g><g><rect x="186.30909090909088" y="78.08888888888889" width="2" height="21.91111111111111" id="cases-ep-3"></rect></g><g><rect x="182.74545454545455" y="78.72222222222223" width="2" height="21.27777777777777" id="cases-ep-4"></rect></g><g><rect x="179.1818181818182" y="68.95555555555555" width="2" height="31.04444444444445" id="cases-ep-5"></rect></g><g><rect x="175.61818181818182" y="67.12222222222222" width="2" height="32.87777777777778" id="cases-ep-6"></rect></g><g><rect x="172.05454545454546" y="63.24444444444444" width="2" height="36.75555555555556" id="cases-ep-7"></rect></g><g><rect x="168.49090909090907" y="63.93333333333333" width="2" height="36.06666666666667" id="cases-ep-8"></rect></g><g><rect x="164.92727272727274" y="59.00000000000001" width="2" height="40.99999999999999" id="cases-ep-9"></rect></g><g><rect x="161.36363636363637" y="81.27777777777779" width="2" height="18.722222222222214" id="cases-ep-10"></rect></g><g><rect x="157.8" y="82" width="2" height="18" id="cases-ep-11"></rect></g><g><rect x="154.23636363636365" y="71.64444444444445" width="2" height="28.355555555555554" id="cases-ep-12"></rect></g><g><rect x="150.6727272727273" y="73.32222222222222" width="2" height="26.677777777777777" id="cases-ep-13"></rect></g><g><rect x="147.1090909090909" y="71.10000000000001" width="2" height="28.89999999999999" id="cases-ep-14"></rect></g><g><rect x="143.54545454545453" y="70.01111111111112" width="2" height="29.98888888888888" id="cases-ep-15"></rect></g><g><rect x="139.9818181818182" y="68.5" width="2" height="31.5" id="cases-ep-16"></rect></g><g><rect x="136.41818181818184" y="83.15555555555557" width="2" height="16.844444444444434" id="cases-ep-17"></rect></g><g><rect x="132.85454545454544" y="84.1" width="2" height="15.900000000000006" id="cases-ep-18"></rect></g><g><rect x="129.29090909090908" y="78.0111111111111" width="2" height="21.988888888888894" id="cases-ep-19"></rect></g><g><rect x="125.72727272727273" y="74.73333333333333" width="2" height="25.266666666666666" id="cases-ep-20"></rect></g><g><rect x="122.16363636363636" y="75.16666666666667" width="2" height="24.83333333333333" id="cases-ep-21"></rect></g><g><rect x="118.6" y="66.5" width="2" height="33.5" id="cases-ep-22"></rect></g><g><rect x="115.03636363636363" y="70.16666666666667" width="2" height="29.83333333333333" id="cases-ep-23"></rect></g><g><rect x="111.47272727272728" y="85.8" width="2" height="14.200000000000003" id="cases-ep-24"></rect></g><g><rect x="107.90909090909089" y="86.36666666666667" width="2" height="13.633333333333326" id="cases-ep-25"></rect></g><g><rect x="104.34545454545456" y="78.07777777777778" width="2" height="21.922222222222217" id="cases-ep-26"></rect></g><g><rect x="100.78181818181817" y="74.5111111111111" width="2" height="25.488888888888894" id="cases-ep-27"></rect></g><g><rect x="97.21818181818183" y="72.83333333333333" width="2" height="27.16666666666667" id="cases-ep-28"></rect></g><g><rect x="93.65454545454546" y="71.04444444444444" width="2" height="28.955555555555563" id="cases-ep-29"></rect></g><g><rect x="90.09090909090911" y="68.15555555555555" width="2" height="31.84444444444445" id="cases-ep-30"></rect></g><g><rect x="86.52727272727273" y="85.91111111111111" width="2" height="14.088888888888889" id="cases-ep-31"></rect></g><g><rect x="82.96363636363637" y="83.55555555555556" width="2" height="16.444444444444443" id="cases-ep-32"></rect></g><g><rect x="79.4" y="74.53333333333335" width="2" height="25.466666666666654" id="cases-ep-33"></rect></g><g><rect x="75.83636363636364" y="71.97777777777779" width="2" height="28.02222222222221" id="cases-ep-34"></rect></g><g><rect x="72.27272727272727" y="66.67777777777778" width="2" height="33.32222222222222" id="cases-ep-35"></rect></g><g><rect x="68.70909090909092" y="63.37777777777778" width="2" height="36.62222222222222" id="cases-ep-36"></rect></g><g><rect x="65.14545454545454" y="57.01111111111111" width="2" height="42.98888888888889" id="cases-ep-37"></rect></g><g><rect x="61.58181818181818" y="80.06666666666666" width="2" height="19.933333333333337" id="cases-ep-38"></rect></g><g><rect x="58.018181818181816" y="77.22222222222223" width="2" height="22.77777777777777" id="cases-ep-39"></rect></g><g><rect x="54.454545454545446" y="65.5" width="2" height="34.5" id="cases-ep-40"></rect></g><g><rect x="50.89090909090908" y="60.43333333333334" width="2" height="39.56666666666666" id="cases-ep-41"></rect></g><g><rect x="47.32727272727273" y="56.03333333333333" width="2" height="43.96666666666667" id="cases-ep-42"></rect></g><g><rect x="43.76363636363636" y="48.31111111111112" width="2" height="51.68888888888888" id="cases-ep-43"></rect></g><g><rect x="40.199999999999996" y="42.14444444444444" width="2" height="57.85555555555556" id="cases-ep-44"></rect></g><g><rect x="36.636363636363626" y="73.67777777777778" width="2" height="26.322222222222223" id="cases-ep-45"></rect></g><g><rect x="33.072727272727285" y="70.17777777777778" width="2" height="29.822222222222223" id="cases-ep-46"></rect></g><g><rect x="29.509090909090922" y="46.95555555555555" width="2" height="53.04444444444445" id="cases-ep-47"></rect></g><g><rect x="25.945454545454556" y="42.833333333333336" width="2" height="57.166666666666664" id="cases-ep-48"></rect></g><g><rect x="22.38181818181819" y="37.955555555555556" width="2" height="62.044444444444444" id="cases-ep-49"></rect></g><g><rect x="18.818181818181824" y="20.666666666666668" width="2" height="79.33333333333333" id="cases-ep-50"></rect></g><g><rect x="15.254545454545461" y="40.87777777777778" width="2" height="59.12222222222222" id="cases-ep-51"></rect></g><g><rect x="11.690909090909095" y="60.099999999999994" width="2" height="39.900000000000006" id="cases-ep-52"></rect></g><g><rect x="8.12727272727273" y="53.58888888888889" width="2" height="46.41111111111111" id="cases-ep-53"></rect></g><g><rect x="4.563636363636365" y="21.777777777777775" width="2" height="78.22222222222223" id="cases-ep-54"></rect></g><g><rect x="1" y="10.311111111111115" width="2" height="89.68888888888888" id="cases-ep-55"></rect></g></g><g class="fg-line cases-ep" fill="none" stroke="#92c5de" stroke-width="2" stroke-linecap="round"><path d="M198,66.51587301587301L194.43636363636364,67.0968253968254L190.87272727272727,67.86507936507937L187.30909090909088,68.43809523809524L183.74545454545455,68.89365079365079L180.1818181818182,69.36190476190475L176.61818181818182,69.74603174603176L173.05454545454546,70.63174603174602L169.49090909090907,71.75396825396825L165.92727272727274,72.62222222222222L162.36363636363637,73.9793650793651L158.8,74.24761904761905L155.23636363636365,74.54761904761904L151.6727272727273,75.45714285714286L148.1090909090909,75.65873015873017L144.54545454545453,76.23968253968255L140.9818181818182,75.73809523809524L137.41818181818184,75.97619047619048L133.85454545454544,76.35396825396825L130.29090909090908,76.67777777777778L126.72727272727273,76.68730158730158L123.16363636363636,76.65555555555555L119.6,76.32222222222222L116.03636363636363,76.97142857142858L112.47272727272728,76.68412698412699L108.90909090909089,76.7L105.34545454545456,76.2984126984127L101.78181818181817,75.79206349206349L98.21818181818183,75.43015873015872L94.65454545454546,74.55079365079365L91.09090909090911,73.45555555555556L87.52727272727273,71.86349206349206L83.96363636363637,71.02857142857142L80.4,70.12380952380953L76.83636363636364,68.83333333333333L73.27272727272727,67.18412698412699L69.70909090909092,65.66349206349207L66.14545454545454,63.51111111111112L62.58181818181818,61.38730158730159L59.018181818181816,60.47460317460318L55.454545454545446,59.46825396825397L51.89090909090908,56.819047619047616L48.32727272727273,54.304761904761904L44.76363636363636,51.72222222222223L41.199999999999996,47.773015873015865L37.636363636363626,47.592063492063495L34.072727272727285,45.652380952380945L30.509090909090922,43.28253968253969L26.945454545454556,39.68571428571428L23.38181818181819,35.03968253968254L19.818181818181824,29.080952380952386L16.25454545454546,23.28730158730159L12.690909090909095,11.485714285714277L9.12727272727273,8.431746031746034L5.563636363636365,3.8523809523809627L2,-5.298412698412691"></path></g></svg>