<svg about="DATA_PUBLISHED_DATE:2021-10-11,RENDER_DATE:2021-10-11" xmlns="http://www.w3.org/2000/svg" viewBox="0,0,200,100"><g transform="translate(0,0)"></g><g class="fg-bars cases-ep" fill="#00183f" stroke="none"><g><rect x="197" y="82.96666666666667" width="2" height="17.03333333333333" id="cases-ep-0"></rect></g><g><rect x="193.43636363636364" y="72.59444444444445" width="2" height="27.40555555555555" id="cases-ep-1"></rect></g><g><rect x="189.87272727272727" y="69.97777777777779" width="2" height="30.02222222222221" id="cases-ep-2"></rect></g><g><rect x="186.30909090909088" y="67.48888888888888" width="2" height="32.51111111111112" id="cases-ep-3"></rect></g><g><rect x="182.74545454545455" y="64.41111111111111" width="2" height="35.58888888888889" id="cases-ep-4"></rect></g><g><rect x="179.1818181818182" y="59.6111111111111" width="2" height="40.3888888888889" id="cases-ep-5"></rect></g><g><rect x="175.61818181818182" y="80.25555555555556" width="2" height="19.74444444444444" id="cases-ep-6"></rect></g><g><rect x="172.05454545454546" y="77.52222222222223" width="2" height="22.477777777777774" id="cases-ep-7"></rect></g><g><rect x="168.49090909090907" y="66.66666666666667" width="2" height="33.33333333333333" id="cases-ep-8"></rect></g><g><rect x="164.92727272727274" y="64.90555555555555" width="2" height="35.09444444444445" id="cases-ep-9"></rect></g><g><rect x="161.36363636363637" y="59.983333333333334" width="2" height="40.016666666666666" id="cases-ep-10"></rect></g><g><rect x="157.8" y="58.9" width="2" height="41.1" id="cases-ep-11"></rect></g><g><rect x="154.23636363636365" y="52.40555555555555" width="2" height="47.59444444444445" id="cases-ep-12"></rect></g><g><rect x="150.6727272727273" y="77.46666666666667" width="2" height="22.53333333333333" id="cases-ep-13"></rect></g><g><rect x="147.1090909090909" y="73.23888888888888" width="2" height="26.76111111111112" id="cases-ep-14"></rect></g><g><rect x="143.54545454545453" y="60.07777777777778" width="2" height="39.92222222222222" id="cases-ep-15"></rect></g><g><rect x="139.9818181818182" y="56.96111111111111" width="2" height="43.03888888888889" id="cases-ep-16"></rect></g><g><rect x="136.41818181818184" y="51.52777777777777" width="2" height="48.47222222222223" id="cases-ep-17"></rect></g><g><rect x="132.85454545454544" y="48.46666666666667" width="2" height="51.53333333333333" id="cases-ep-18"></rect></g><g><rect x="129.29090909090908" y="43.03888888888889" width="2" height="56.96111111111111" id="cases-ep-19"></rect></g><g><rect x="125.72727272727273" y="71.03333333333333" width="2" height="28.96666666666667" id="cases-ep-20"></rect></g><g><rect x="122.16363636363636" y="65.99444444444444" width="2" height="34.00555555555556" id="cases-ep-21"></rect></g><g><rect x="118.6" y="49.088888888888896" width="2" height="50.911111111111104" id="cases-ep-22"></rect></g><g><rect x="115.03636363636363" y="44.333333333333336" width="2" height="55.666666666666664" id="cases-ep-23"></rect></g><g><rect x="111.47272727272728" y="37.949999999999996" width="2" height="62.050000000000004" id="cases-ep-24"></rect></g><g><rect x="107.90909090909089" y="32.233333333333334" width="2" height="67.76666666666667" id="cases-ep-25"></rect></g><g><rect x="104.34545454545456" y="63.70555555555555" width="2" height="36.29444444444445" id="cases-ep-26"></rect></g><g><rect x="100.78181818181817" y="70.77777777777779" width="2" height="29.222222222222214" id="cases-ep-27"></rect></g><g><rect x="97.21818181818183" y="63.18333333333334" width="2" height="36.81666666666666" id="cases-ep-28"></rect></g><g><rect x="93.65454545454546" y="45.66111111111111" width="2" height="54.33888888888889" id="cases-ep-29"></rect></g><g><rect x="90.09090909090911" y="40.077777777777776" width="2" height="59.922222222222224" id="cases-ep-30"></rect></g><g><rect x="86.52727272727273" y="29.888888888888886" width="2" height="70.11111111111111" id="cases-ep-31"></rect></g><g><rect x="82.96363636363637" y="32.172222222222224" width="2" height="67.82777777777778" id="cases-ep-32"></rect></g><g><rect x="79.4" y="26.816666666666666" width="2" height="73.18333333333334" id="cases-ep-33"></rect></g><g><rect x="75.83636363636364" y="63.91111111111112" width="2" height="36.08888888888888" id="cases-ep-34"></rect></g><g><rect x="72.27272727272727" y="57.205555555555556" width="2" height="42.794444444444444" id="cases-ep-35"></rect></g><g><rect x="68.70909090909092" y="38.088888888888896" width="2" height="61.911111111111104" id="cases-ep-36"></rect></g><g><rect x="65.14545454545454" y="31.45" width="2" height="68.55" id="cases-ep-37"></rect></g><g><rect x="61.58181818181818" y="24.93888888888889" width="2" height="75.0611111111111" id="cases-ep-38"></rect></g><g><rect x="58.018181818181816" y="22.72222222222222" width="2" height="77.27777777777777" id="cases-ep-39"></rect></g><g><rect x="54.454545454545446" y="15.57777777777778" width="2" height="84.42222222222222" id="cases-ep-40"></rect></g><g><rect x="50.89090909090908" y="58.611111111111114" width="2" height="41.388888888888886" id="cases-ep-41"></rect></g><g><rect x="47.32727272727273" y="51.11666666666667" width="2" height="48.88333333333333" id="cases-ep-42"></rect></g><g><rect x="43.76363636363636" y="26.088888888888885" width="2" height="73.91111111111111" id="cases-ep-43"></rect></g><g><rect x="40.199999999999996" y="23.238888888888887" width="2" height="76.76111111111112" id="cases-ep-44"></rect></g><g><rect x="36.636363636363626" y="17.055555555555557" width="2" height="82.94444444444444" id="cases-ep-45"></rect></g><g><rect x="33.072727272727285" y="14.394444444444442" width="2" height="85.60555555555555" id="cases-ep-46"></rect></g><g><rect x="29.509090909090922" y="10.89444444444444" width="2" height="89.10555555555555" id="cases-ep-47"></rect></g><g><rect x="25.945454545454556" y="54.87777777777778" width="2" height="45.12222222222222" id="cases-ep-48"></rect></g><g><rect x="22.38181818181819" y="47.00555555555555" width="2" height="52.99444444444445" id="cases-ep-49"></rect></g><g><rect x="18.818181818181824" y="23.950000000000003" width="2" height="76.05" id="cases-ep-50"></rect></g><g><rect x="15.254545454545461" y="19.355555555555558" width="2" height="80.64444444444445" id="cases-ep-51"></rect></g><g><rect x="11.690909090909095" y="14.611111111111107" width="2" height="85.38888888888889" id="cases-ep-52"></rect></g><g><rect x="8.12727272727273" y="10.76111111111111" width="2" height="89.2388888888889" id="cases-ep-53"></rect></g><g><rect x="4.563636363636365" y="10.022222222222222" width="2" height="89.97777777777777" id="cases-ep-54"></rect></g><g><rect x="1" y="52.26666666666666" width="2" height="47.73333333333334" id="cases-ep-55"></rect></g></g><g class="fg-line cases-ep" fill="none" stroke="#92c5de" stroke-width="2" stroke-linecap="round"><path d="M198,71.0436507936508L194.43636363636364,70.26587301587301L190.87272727272727,69.41904761904763L187.30909090909088,68.69444444444444L183.74545454545455,67.62222222222223L180.1818181818182,66.83492063492064L176.61818181818182,65.80555555555556L173.05454545454546,65.40714285714286L169.49090909090907,64.79523809523809L165.92727272727274,63.853968253968254L162.36363636363637,62.71904761904762L158.8,61.51111111111112L155.23636363636365,60.02063492063492L151.6727272727273,58.68253968253969L148.1090909090909,57.76349206349207L144.54545454545453,56.72857142857143L140.9818181818182,55.158730158730165L137.41818181818184,53.35476190476191L133.85454545454544,51.415079365079364L130.29090909090908,49.09603174603174L126.72727272727273,52.04841269841269L123.16363636363636,52.01190476190476L119.6,51.610317460317454L116.03636363636363,51.12063492063492L112.47272727272728,50.51269841269841L108.90909090909089,49.361111111111114L105.34545454545456,49.35238095238095L101.78181818181817,44.082539682539675L98.21818181818183,43.101587301587294L94.65454545454546,42.247619047619054L91.09090909090911,41.165873015873025L87.52727272727273,39.93333333333333L83.96363636363637,39.22619047619048L80.4,37.87619047619047L76.83636363636364,36.270634920634926L73.27272727272727,35.51349206349206L69.70909090909092,34.64365079365079L66.14545454545454,32.929365079365084L62.58181818181818,31.75634920634921L59.018181818181816,30.63015873015873L55.454545454545446,29.440476190476183L51.89090909090908,28.77142857142857L48.32727272727273,28.23809523809524L44.76363636363636,27.65079365079365L41.199999999999996,27.345238095238088L37.636363636363626,26.790476190476188L34.072727272727285,26.441269841269833L30.509090909090922,25.922222222222224L26.945454545454556,25.797619047619047L23.38181818181819,25.424603174603167L19.818181818181824,25.369841269841274L16.25454545454546,26.054761904761904L12.690909090909095,26.59285714285714L9.12727272727273,27.6920634920635L5.563636363636365,29.101587301587294L2,30.856349206349208"></path></g></svg>