<svg about="DATA_PUBLISHED_DATE:2021-10-12,RENDER_DATE:2021-10-12" xmlns="http://www.w3.org/2000/svg" viewBox="0,0,200,100"><g transform="translate(0,0)"></g><g class="fg-bars death-date" fill="#00183f" stroke="none"><g><rect x="197" y="55.00000000000001" width="2" height="44.99999999999999" id="death-date-0"></rect></g><g><rect x="193.43636363636364" y="37.142857142857146" width="2" height="62.857142857142854" id="death-date-1"></rect></g><g><rect x="189.87272727272727" y="38.57142857142857" width="2" height="61.42857142857143" id="death-date-2"></rect></g><g><rect x="186.30909090909088" y="32.14285714285714" width="2" height="67.85714285714286" id="death-date-3"></rect></g><g><rect x="182.74545454545455" y="35.71428571428571" width="2" height="64.28571428571429" id="death-date-4"></rect></g><g><rect x="179.1818181818182" y="36.42857142857143" width="2" height="63.57142857142857" id="death-date-5"></rect></g><g><rect x="175.61818181818182" y="25" width="2" height="75" id="death-date-6"></rect></g><g><rect x="172.05454545454546" y="33.57142857142858" width="2" height="66.42857142857142" id="death-date-7"></rect></g><g><rect x="168.49090909090907" y="30.714285714285715" width="2" height="69.28571428571428" id="death-date-8"></rect></g><g><rect x="164.92727272727274" y="15.000000000000002" width="2" height="85" id="death-date-9"></rect></g><g><rect x="161.36363636363637" y="21.42857142857143" width="2" height="78.57142857142857" id="death-date-10"></rect></g><g><rect x="157.8" y="25" width="2" height="75" id="death-date-11"></rect></g><g><rect x="154.23636363636365" y="22.142857142857142" width="2" height="77.85714285714286" id="death-date-12"></rect></g><g><rect x="150.6727272727273" y="19.999999999999996" width="2" height="80" id="death-date-13"></rect></g><g><rect x="147.1090909090909" y="12.142857142857144" width="2" height="87.85714285714286" id="death-date-14"></rect></g><g><rect x="143.54545454545453" y="33.57142857142858" width="2" height="66.42857142857142" id="death-date-15"></rect></g><g><rect x="139.9818181818182" y="15.714285714285714" width="2" height="84.28571428571429" id="death-date-16"></rect></g><g><rect x="136.41818181818184" y="9.999999999999998" width="2" height="90" id="death-date-17"></rect></g><g><rect x="132.85454545454544" y="23.571428571428577" width="2" height="76.42857142857142" id="death-date-18"></rect></g><g><rect x="129.29090909090908" y="21.42857142857143" width="2" height="78.57142857142857" id="death-date-19"></rect></g><g><rect x="125.72727272727273" y="25.71428571428571" width="2" height="74.28571428571429" id="death-date-20"></rect></g><g><rect x="122.16363636363636" y="32.14285714285714" width="2" height="67.85714285714286" id="death-date-21"></rect></g><g><rect x="118.6" y="6.428571428571428" width="2" height="93.57142857142857" id="death-date-22"></rect></g><g><rect x="115.03636363636363" y="18.571428571428573" width="2" height="81.42857142857143" id="death-date-23"></rect></g><g><rect x="111.47272727272728" y="19.285714285714285" width="2" height="80.71428571428572" id="death-date-24"></rect></g><g><rect x="107.90909090909089" y="18.571428571428573" width="2" height="81.42857142857143" id="death-date-25"></rect></g><g><rect x="104.34545454545456" y="19.285714285714285" width="2" height="80.71428571428572" id="death-date-26"></rect></g><g><rect x="100.78181818181817" y="30.714285714285715" width="2" height="69.28571428571428" id="death-date-27"></rect></g><g><rect x="97.21818181818183" y="32.14285714285714" width="2" height="67.85714285714286" id="death-date-28"></rect></g><g><rect x="93.65454545454546" y="27.857142857142858" width="2" height="72.14285714285714" id="death-date-29"></rect></g><g><rect x="90.09090909090911" y="35" width="2" height="65" id="death-date-30"></rect></g><g><rect x="86.52727272727273" y="32.14285714285714" width="2" height="67.85714285714286" id="death-date-31"></rect></g><g><rect x="82.96363636363637" y="36.42857142857143" width="2" height="63.57142857142857" id="death-date-32"></rect></g><g><rect x="79.4" y="23.571428571428577" width="2" height="76.42857142857142" id="death-date-33"></rect></g><g><rect x="75.83636363636364" y="23.571428571428577" width="2" height="76.42857142857142" id="death-date-34"></rect></g><g><rect x="72.27272727272727" y="48.57142857142858" width="2" height="51.42857142857142" id="death-date-35"></rect></g><g><rect x="68.70909090909092" y="45.714285714285715" width="2" height="54.285714285714285" id="death-date-36"></rect></g><g><rect x="65.14545454545454" y="19.999999999999996" width="2" height="80" id="death-date-37"></rect></g><g><rect x="61.58181818181818" y="47.14285714285714" width="2" height="52.85714285714286" id="death-date-38"></rect></g><g><rect x="58.018181818181816" y="49.28571428571429" width="2" height="50.71428571428571" id="death-date-39"></rect></g><g><rect x="54.454545454545446" y="49.28571428571429" width="2" height="50.71428571428571" id="death-date-40"></rect></g><g><rect x="50.89090909090908" y="50" width="2" height="50" id="death-date-41"></rect></g><g><rect x="47.32727272727273" y="50" width="2" height="50" id="death-date-42"></rect></g><g><rect x="43.76363636363636" y="60" width="2" height="40" id="death-date-43"></rect></g><g><rect x="40.199999999999996" y="60.71428571428572" width="2" height="39.28571428571428" id="death-date-44"></rect></g><g><rect x="36.636363636363626" y="63.57142857142857" width="2" height="36.42857142857143" id="death-date-45"></rect></g><g><rect x="33.072727272727285" y="66.42857142857143" width="2" height="33.57142857142857" id="death-date-46"></rect></g><g><rect x="29.509090909090922" y="62.857142857142854" width="2" height="37.142857142857146" id="death-date-47"></rect></g><g><rect x="25.945454545454556" y="62.142857142857146" width="2" height="37.857142857142854" id="death-date-48"></rect></g><g><rect x="22.38181818181819" y="77.14285714285715" width="2" height="22.857142857142847" id="death-date-49"></rect></g><g><rect x="18.818181818181824" y="65" width="2" height="35" id="death-date-50"></rect></g><g><rect x="15.254545454545461" y="81.42857142857143" width="2" height="18.57142857142857" id="death-date-51"></rect></g><g><rect x="11.690909090909095" y="75.71428571428571" width="2" height="24.285714285714292" id="death-date-52"></rect></g><g><rect x="8.12727272727273" y="76.42857142857142" width="2" height="23.571428571428584" id="death-date-53"></rect></g><g><rect x="4.563636363636365" y="76.42857142857142" width="2" height="23.571428571428584" id="death-date-54"></rect></g><g><rect x="1" y="81.42857142857143" width="2" height="18.57142857142857" id="death-date-55"></rect></g></g><g class="fg-line death-date" fill="none" stroke="#92c5de" stroke-width="2" stroke-linecap="round"><path d="M198,37.142857142857146L194.43636363636364,34.08163265306122L190.87272727272727,33.16326530612245L187.30909090909088,29.79591836734693L183.74545454545455,28.265306122448976L180.1818181818182,26.73469387755102L176.61818181818182,24.693877551020403L173.05454545454546,23.97959183673469L169.49090909090907,20.918367346938783L165.92727272727274,21.3265306122449L162.36363636363637,21.42857142857143L158.8,19.795918367346932L155.23636363636365,19.591836734693878L151.6727272727273,19.48979591836735L148.1090909090909,20.30612244897959L144.54545454545453,23.163265306122447L140.9818181818182,19.285714285714285L137.41818181818184,19.69387755102041L133.85454545454544,21.0204081632653L130.29090909090908,20.30612244897959L126.72727272727273,19.999999999999996L123.16363636363636,20.71428571428572L119.6,20.71428571428572L116.03636363636363,23.77551020408164L112.47272727272728,26.122448979591837L108.90909090909089,27.95918367346939L105.34545454545456,30.51020408163265L101.78181818181817,31.122448979591834L98.21818181818183,30.102040816326525L94.65454545454546,32.44897959183673L91.09090909090911,35L87.52727272727273,32.85714285714286L83.96363636363637,35L80.4,36.836734693877546L76.83636363636364,40.51020408163265L73.27272727272727,44.285714285714285L69.70909090909092,44.48979591836735L66.14545454545454,46.53061224489795L62.58181818181818,52.34693877551021L59.018181818181816,54.69387755102041L55.454545454545446,57.14285714285714L51.89090909090908,59.081632653061234L48.32727272727273,60.816326530612244L44.76363636363636,64.6938775510204L41.199999999999996,65.40816326530611L37.636363636363626,68.36734693877551L34.072727272727285,70.10204081632654L30.509090909090922,71.53061224489797L26.945454545454556,73.46938775510203L23.38181818181819,76.22448979591837L19.818181818181824,76.63265306122449L16.25454545454546,79.18367346938776L12.690909090909095,78.16326530612245L9.12727272727273,78.6734693877551L5.563636363636365,80.10204081632652L2,80.81632653061224"></path></g></svg>