<svg meta="{&quot;DATA_PUBLISHED_DATE&quot;:&quot;2022-09-22&quot;,&quot;RENDER_DATE&quot;:&quot;2022-09-22&quot;,&quot;FIRST_DATE&quot;:&quot;2022-07-21&quot;,&quot;LAST_DATE&quot;:&quot;2022-09-14&quot;}" xmlns="http://www.w3.org/2000/svg" viewBox="0,0,200,100"><g transform="translate(0,0)"></g><g class="fg-bars tests-vaccines" fill="#00183f" stroke="none"><g><rect x="197" y="1.3437499999999991" width="2" height="98.65625" id="tests-vaccines-0"></rect></g><g><rect x="193.43636363636364" y="11.5425" width="2" height="88.4575" id="tests-vaccines-1"></rect></g><g><rect x="189.87272727272727" y="5.113749999999994" width="2" height="94.88625" id="tests-vaccines-2"></rect></g><g><rect x="186.30909090909088" y="70.0325" width="2" height="29.9675" id="tests-vaccines-3"></rect></g><g><rect x="182.74545454545455" y="51.30874999999999" width="2" height="48.69125000000001" id="tests-vaccines-4"></rect></g><g><rect x="179.1818181818182" y="9.402500000000003" width="2" height="90.5975" id="tests-vaccines-5"></rect></g><g><rect x="175.61818181818182" y="41.571250000000006" width="2" height="58.428749999999994" id="tests-vaccines-6"></rect></g><g><rect x="172.05454545454546" y="40.88125" width="2" height="59.11875" id="tests-vaccines-7"></rect></g><g><rect x="168.49090909090907" y="65.51625" width="2" height="34.48375" id="tests-vaccines-8"></rect></g><g><rect x="164.92727272727274" y="98.53625000000001" width="2" height="1.4637499999999903" id="tests-vaccines-9"></rect></g><g><rect x="161.36363636363637" y="91.64750000000001" width="2" height="8.352499999999992" id="tests-vaccines-10"></rect></g><g><rect x="157.8" y="88.13875" width="2" height="11.861249999999998" id="tests-vaccines-11"></rect></g><g><rect x="154.23636363636365" y="84.3725" width="2" height="15.627499999999998" id="tests-vaccines-12"></rect></g><g><rect x="150.6727272727273" y="86.85499999999999" width="2" height="13.14500000000001" id="tests-vaccines-13"></rect></g><g><rect x="147.1090909090909" y="79.74625" width="2" height="20.253749999999997" id="tests-vaccines-14"></rect></g><g><rect x="143.54545454545453" y="75.79374999999999" width="2" height="24.20625000000001" id="tests-vaccines-15"></rect></g><g><rect x="139.9818181818182" y="76.64375" width="2" height="23.356250000000003" id="tests-vaccines-16"></rect></g><g><rect x="136.41818181818184" y="93.2775" width="2" height="6.722499999999997" id="tests-vaccines-17"></rect></g><g><rect x="132.85454545454544" y="84.995" width="2" height="15.004999999999995" id="tests-vaccines-18"></rect></g><g><rect x="129.29090909090908" y="66.63875" width="2" height="33.36125" id="tests-vaccines-19"></rect></g><g><rect x="125.72727272727273" y="72.9325" width="2" height="27.067499999999995" id="tests-vaccines-20"></rect></g><g><rect x="122.16363636363636" y="71.27749999999999" width="2" height="28.72250000000001" id="tests-vaccines-21"></rect></g><g><rect x="118.6" y="71.985" width="2" height="28.015" id="tests-vaccines-22"></rect></g><g><rect x="115.03636363636363" y="72.35249999999999" width="2" height="27.647500000000008" id="tests-vaccines-23"></rect></g><g><rect x="111.47272727272728" y="93.03125" width="2" height="6.96875" id="tests-vaccines-24"></rect></g><g><rect x="107.90909090909089" y="83.9575" width="2" height="16.042500000000004" id="tests-vaccines-25"></rect></g><g><rect x="104.34545454545456" y="60.612500000000004" width="2" height="39.387499999999996" id="tests-vaccines-26"></rect></g><g><rect x="100.78181818181817" y="67.87625" width="2" height="32.12375" id="tests-vaccines-27"></rect></g><g><rect x="97.21818181818183" y="66.85125000000001" width="2" height="33.14874999999999" id="tests-vaccines-28"></rect></g><g><rect x="93.65454545454546" y="67.10125000000001" width="2" height="32.89874999999999" id="tests-vaccines-29"></rect></g><g><rect x="90.09090909090911" y="66.16875" width="2" height="33.83125" id="tests-vaccines-30"></rect></g><g><rect x="86.52727272727273" y="91.02625" width="2" height="8.973749999999995" id="tests-vaccines-31"></rect></g><g><rect x="82.96363636363637" y="79.3225" width="2" height="20.677499999999995" id="tests-vaccines-32"></rect></g><g><rect x="79.4" y="52.92" width="2" height="47.08" id="tests-vaccines-33"></rect></g><g><rect x="75.83636363636364" y="69.93875" width="2" height="30.06125" id="tests-vaccines-34"></rect></g><g><rect x="72.27272727272727" y="70.78375" width="2" height="29.216250000000002" id="tests-vaccines-35"></rect></g><g><rect x="68.70909090909092" y="59.50625000000001" width="2" height="40.49374999999999" id="tests-vaccines-36"></rect></g><g><rect x="65.14545454545454" y="60.14125" width="2" height="39.85875" id="tests-vaccines-37"></rect></g><g><rect x="61.58181818181818" y="89.49625" width="2" height="10.503749999999997" id="tests-vaccines-38"></rect></g><g><rect x="58.018181818181816" y="75.88000000000001" width="2" height="24.11999999999999" id="tests-vaccines-39"></rect></g><g><rect x="54.454545454545446" y="47.91125" width="2" height="52.08875" id="tests-vaccines-40"></rect></g><g><rect x="50.89090909090908" y="55.92125" width="2" height="44.07875" id="tests-vaccines-41"></rect></g><g><rect x="47.32727272727273" y="54.4925" width="2" height="45.5075" id="tests-vaccines-42"></rect></g><g><rect x="43.76363636363636" y="55.267500000000005" width="2" height="44.732499999999995" id="tests-vaccines-43"></rect></g><g><rect x="40.199999999999996" y="57.31125" width="2" height="42.68875" id="tests-vaccines-44"></rect></g><g><rect x="36.636363636363626" y="88.79875" width="2" height="11.201250000000002" id="tests-vaccines-45"></rect></g><g><rect x="33.072727272727285" y="72.71875" width="2" height="27.28125" id="tests-vaccines-46"></rect></g><g><rect x="29.509090909090922" y="37.996249999999996" width="2" height="62.003750000000004" id="tests-vaccines-47"></rect></g><g><rect x="25.945454545454556" y="47.71875" width="2" height="52.28125" id="tests-vaccines-48"></rect></g><g><rect x="22.38181818181819" y="46.38250000000001" width="2" height="53.61749999999999" id="tests-vaccines-49"></rect></g><g><rect x="18.818181818181824" y="44.82000000000001" width="2" height="55.17999999999999" id="tests-vaccines-50"></rect></g><g><rect x="15.254545454545461" y="46.60875" width="2" height="53.39125" id="tests-vaccines-51"></rect></g><g><rect x="11.690909090909095" y="84.6325" width="2" height="15.367500000000007" id="tests-vaccines-52"></rect></g><g><rect x="8.12727272727273" y="63.731249999999996" width="2" height="36.268750000000004" id="tests-vaccines-53"></rect></g><g><rect x="4.563636363636365" y="24.033749999999998" width="2" height="75.96625" id="tests-vaccines-54"></rect></g><g><rect x="1" y="37.8775" width="2" height="62.1225" id="tests-vaccines-55"></rect></g></g><g class="fg-line tests-vaccines" fill="none" stroke="#92c5de" stroke-width="2" stroke-linecap="round"><path d="M198,27.18785714285714L194.43636363636364,32.83607142857144L190.87272727272727,40.54660714285715L187.30909090909088,53.89267857142856L183.74545454545455,56.98053571428572L180.1818181818182,62.24196428571429L176.61818181818182,72.95196428571428L173.05454545454546,79.42107142857142L169.49090909090907,84.97321428571429L165.92727272727274,86.44142857142857L162.36363636363637,83.31392857142858L158.8,83.5467857142857L155.23636363636365,83.09767857142857L151.6727272727273,80.56428571428572L148.1090909090909,78.57535714285714L144.54545454545453,77.36553571428571L140.9818181818182,76.82142857142857L137.41818181818184,76.20839285714285L133.85454545454544,76.17321428571428L130.29090909090908,76.02499999999999L126.72727272727273,75.16410714285713L123.16363636363636,74.44178571428571L119.6,73.80946428571428L116.03636363636363,73.11178571428572L112.47272727272728,72.22839285714286L108.90909090909089,71.94196428571429L105.34545454545456,71.27982142857144L101.78181818181817,70.18089285714287L98.21818181818183,70.47553571428571L94.65454545454546,71.03732142857142L91.09090909090911,69.95232142857142L87.52727272727273,69.09125L83.96363636363637,68.87267857142858L80.4,68.38089285714287L76.83636363636364,67.66535714285715L73.27272727272727,65.66285714285713L69.70909090909092,63.33553571428572L66.14545454545454,62.73L62.58181818181818,62.325714285714284L59.018181818181816,62.22607142857143L55.454545454545446,61.774464285714295L51.89090909090908,60.35803571428572L48.32727272727273,59.186249999999994L44.76363636363636,58.02767857142857L41.199999999999996,56.53517857142857L37.636363636363626,55.00625L34.072727272727285,54.41107142857143L30.509090909090922,53.12714285714285L26.945454545454556,51.1325L23.38181818181819,49.72660714285715L19.818181818181824,48.85071428571428L16.25454545454546,47.83821428571429L12.690909090909095,46.65339285714285L9.12727272727273,46.05892857142857L5.563636363636365,45.63196428571429L2,45.10857142857143"></path></g></svg>