<svg meta="{&quot;DATA_PUBLISHED_DATE&quot;:&quot;2023-03-09&quot;,&quot;RENDER_DATE&quot;:&quot;2023-03-09&quot;,&quot;FIRST_DATE&quot;:&quot;2023-01-05&quot;,&quot;LAST_DATE&quot;:&quot;2023-03-01&quot;}" xmlns="http://www.w3.org/2000/svg" viewBox="0,0,200,100"><g transform="translate(0,0)"></g><g class="fg-bars tests-vaccines" fill="#00183f" stroke="none"><g><rect x="197" y="78.51" width="2" height="21.489999999999995" id="tests-vaccines-0"></rect></g><g><rect x="193.43636363636364" y="77.188" width="2" height="22.811999999999998" id="tests-vaccines-1"></rect></g><g><rect x="189.87272727272727" y="77.964" width="2" height="22.036" id="tests-vaccines-2"></rect></g><g><rect x="186.30909090909088" y="94.84" width="2" height="5.159999999999997" id="tests-vaccines-3"></rect></g><g><rect x="182.74545454545455" y="89.172" width="2" height="10.828000000000003" id="tests-vaccines-4"></rect></g><g><rect x="179.1818181818182" y="74.122" width="2" height="25.878" id="tests-vaccines-5"></rect></g><g><rect x="175.61818181818182" y="76.128" width="2" height="23.872" id="tests-vaccines-6"></rect></g><g><rect x="172.05454545454546" y="77.288" width="2" height="22.712000000000003" id="tests-vaccines-7"></rect></g><g><rect x="168.49090909090907" y="76.622" width="2" height="23.378" id="tests-vaccines-8"></rect></g><g><rect x="164.92727272727274" y="85.25" width="2" height="14.75" id="tests-vaccines-9"></rect></g><g><rect x="161.36363636363637" y="94.554" width="2" height="5.445999999999998" id="tests-vaccines-10"></rect></g><g><rect x="157.8" y="88.73400000000001" width="2" height="11.265999999999991" id="tests-vaccines-11"></rect></g><g><rect x="154.23636363636365" y="69.916" width="2" height="30.084000000000003" id="tests-vaccines-12"></rect></g><g><rect x="150.6727272727273" y="75.764" width="2" height="24.236000000000004" id="tests-vaccines-13"></rect></g><g><rect x="147.1090909090909" y="75.262" width="2" height="24.738" id="tests-vaccines-14"></rect></g><g><rect x="143.54545454545453" y="78.72" width="2" height="21.28" id="tests-vaccines-15"></rect></g><g><rect x="139.9818181818182" y="75.806" width="2" height="24.194000000000003" id="tests-vaccines-16"></rect></g><g><rect x="136.41818181818184" y="94.624" width="2" height="5.376000000000005" id="tests-vaccines-17"></rect></g><g><rect x="132.85454545454544" y="85.572" width="2" height="14.427999999999997" id="tests-vaccines-18"></rect></g><g><rect x="129.29090909090908" y="66.90400000000001" width="2" height="33.09599999999999" id="tests-vaccines-19"></rect></g><g><rect x="125.72727272727273" y="71.202" width="2" height="28.798000000000002" id="tests-vaccines-20"></rect></g><g><rect x="122.16363636363636" y="71.634" width="2" height="28.366" id="tests-vaccines-21"></rect></g><g><rect x="118.6" y="72.316" width="2" height="27.683999999999997" id="tests-vaccines-22"></rect></g><g><rect x="115.03636363636363" y="70.39800000000001" width="2" height="29.60199999999999" id="tests-vaccines-23"></rect></g><g><rect x="111.47272727272728" y="97.492" width="2" height="2.5079999999999956" id="tests-vaccines-24"></rect></g><g><rect x="107.90909090909089" y="91.85799999999999" width="2" height="8.14200000000001" id="tests-vaccines-25"></rect></g><g><rect x="104.34545454545456" y="60.978" width="2" height="39.022" id="tests-vaccines-26"></rect></g><g><rect x="100.78181818181817" y="68.428" width="2" height="31.572000000000003" id="tests-vaccines-27"></rect></g><g><rect x="97.21818181818183" y="67.24799999999999" width="2" height="32.75200000000001" id="tests-vaccines-28"></rect></g><g><rect x="93.65454545454546" y="66.8" width="2" height="33.2" id="tests-vaccines-29"></rect></g><g><rect x="90.09090909090911" y="68.06400000000001" width="2" height="31.935999999999993" id="tests-vaccines-30"></rect></g><g><rect x="86.52727272727273" y="91.672" width="2" height="8.328000000000003" id="tests-vaccines-31"></rect></g><g><rect x="82.96363636363637" y="82.824" width="2" height="17.176000000000002" id="tests-vaccines-32"></rect></g><g><rect x="79.4" y="57.55200000000001" width="2" height="42.44799999999999" id="tests-vaccines-33"></rect></g><g><rect x="75.83636363636364" y="64.46600000000001" width="2" height="35.53399999999999" id="tests-vaccines-34"></rect></g><g><rect x="72.27272727272727" y="61.956" width="2" height="38.044" id="tests-vaccines-35"></rect></g><g><rect x="68.70909090909092" y="63.684000000000005" width="2" height="36.315999999999995" id="tests-vaccines-36"></rect></g><g><rect x="65.14545454545454" y="63.864" width="2" height="36.136" id="tests-vaccines-37"></rect></g><g><rect x="61.58181818181818" y="91.372" width="2" height="8.628" id="tests-vaccines-38"></rect></g><g><rect x="58.018181818181816" y="80.41" width="2" height="19.590000000000003" id="tests-vaccines-39"></rect></g><g><rect x="54.454545454545446" y="49.26199999999999" width="2" height="50.73800000000001" id="tests-vaccines-40"></rect></g><g><rect x="50.89090909090908" y="56.230000000000004" width="2" height="43.769999999999996" id="tests-vaccines-41"></rect></g><g><rect x="47.32727272727273" y="55.04599999999999" width="2" height="44.95400000000001" id="tests-vaccines-42"></rect></g><g><rect x="43.76363636363636" y="52.434000000000005" width="2" height="47.565999999999995" id="tests-vaccines-43"></rect></g><g><rect x="40.199999999999996" y="75.38" width="2" height="24.620000000000005" id="tests-vaccines-44"></rect></g><g><rect x="36.636363636363626" y="85.234" width="2" height="14.766000000000005" id="tests-vaccines-45"></rect></g><g><rect x="33.072727272727285" y="72.044" width="2" height="27.956000000000003" id="tests-vaccines-46"></rect></g><g><rect x="29.509090909090922" y="30.322000000000003" width="2" height="69.678" id="tests-vaccines-47"></rect></g><g><rect x="25.945454545454556" y="42.312000000000005" width="2" height="57.687999999999995" id="tests-vaccines-48"></rect></g><g><rect x="22.38181818181819" y="43.044000000000004" width="2" height="56.955999999999996" id="tests-vaccines-49"></rect></g><g><rect x="18.818181818181824" y="48.414" width="2" height="51.586" id="tests-vaccines-50"></rect></g><g><rect x="15.254545454545461" y="41.48" width="2" height="58.52" id="tests-vaccines-51"></rect></g><g><rect x="11.690909090909095" y="81.4" width="2" height="18.599999999999994" id="tests-vaccines-52"></rect></g><g><rect x="8.12727272727273" y="60.220000000000006" width="2" height="39.779999999999994" id="tests-vaccines-53"></rect></g><g><rect x="4.563636363636365" y="9.160000000000002" width="2" height="90.84" id="tests-vaccines-54"></rect></g><g><rect x="1" y="32.95" width="2" height="67.05" id="tests-vaccines-55"></rect></g></g><g class="fg-line tests-vaccines" fill="none" stroke="#92c5de" stroke-width="2" stroke-linecap="round"><path d="M198,81.132L194.43636363636364,80.95742857142857L190.87272727272727,80.87657142857142L187.30909090909088,81.91742857142857L183.74545454545455,81.87657142857144L180.1818181818182,81.814L176.61818181818182,81.21314285714286L173.05454545454546,81.16114285714286L169.49090909090907,80.87171428571429L165.92727272727274,81.17142857142858L162.36363636363637,79.82228571428571L158.8,79.83228571428572L155.23636363636365,79.38057142857143L151.6727272727273,78.95028571428571L148.1090909090909,78.29857142857144L144.54545454545453,77.78028571428571L140.9818181818182,76.86542857142857L137.41818181818184,76.09285714285714L133.85454545454544,76.50257142857143L130.29090909090908,77.40057142857142L126.72727272727273,76.554L123.16363636363636,76.15771428571428L119.6,75.53114285714287L116.03636363636363,74.74314285714286L112.47272727272728,74.40971428571427L108.90909090909089,73.57828571428571L105.34545454545456,72.28771428571429L101.78181818181817,71.79828571428571L98.21818181818183,71.23228571428571L94.65454545454546,70.47628571428571L91.09090909090911,70.03114285714285L87.52727272727273,69.43114285714286L83.96363636363637,69.38828571428571L80.4,69.04342857142858L76.83636363636364,67.85914285714286L73.27272727272727,66.68257142857144L69.70909090909092,65.69542857142856L66.14545454545454,64.08828571428572L62.58181818181818,65.73342857142856L59.018181818181816,64.85657142857143L55.454545454545446,63.66142857142858L51.89090909090908,60.95571428571429L48.32727272727273,58.96742857142857L44.76363636363636,57.25285714285715L41.199999999999996,56.67857142857142L37.636363636363626,51.83571428571428L34.072727272727285,51.288L30.509090909090922,49.59885714285714L26.945454545454556,46.575714285714284L23.38181818181819,45.23828571428572L19.818181818181824,43.56257142857143L16.25454545454546,39.324000000000005L12.690909090909095,43.51285714285714L9.12727272727273,45.92514285714285L5.563636363636365,48.96771428571428L2,49.92228571428572"></path></g></svg>