<svg meta="{&quot;DATA_PUBLISHED_DATE&quot;:&quot;2022-03-07&quot;,&quot;RENDER_DATE&quot;:&quot;2022-03-07&quot;,&quot;FIRST_DATE&quot;:&quot;2022-01-03&quot;,&quot;LAST_DATE&quot;:&quot;2022-02-27&quot;}" xmlns="http://www.w3.org/2000/svg" viewBox="0,0,200,100"><g transform="translate(0,0)"></g><g class="fg-bars tests-vaccines" fill="#00183f" stroke="none"><g><rect x="197" y="93.17571428571428" width="2" height="6.824285714285722" id="tests-vaccines-0"></rect></g><g><rect x="193.43636363636364" y="86.48285714285714" width="2" height="13.517142857142858" id="tests-vaccines-1"></rect></g><g><rect x="189.87272727272727" y="74.25928571428571" width="2" height="25.74071428571429" id="tests-vaccines-2"></rect></g><g><rect x="186.30909090909088" y="81.18892857142856" width="2" height="18.811071428571438" id="tests-vaccines-3"></rect></g><g><rect x="182.74545454545455" y="81.1825" width="2" height="18.817499999999995" id="tests-vaccines-4"></rect></g><g><rect x="179.1818181818182" y="80.78464285714287" width="2" height="19.21535714285713" id="tests-vaccines-5"></rect></g><g><rect x="175.61818181818182" y="85.55357142857143" width="2" height="14.44642857142857" id="tests-vaccines-6"></rect></g><g><rect x="172.05454545454546" y="92.46928571428572" width="2" height="7.530714285714282" id="tests-vaccines-7"></rect></g><g><rect x="168.49090909090907" y="84.23785714285714" width="2" height="15.762142857142862" id="tests-vaccines-8"></rect></g><g><rect x="164.92727272727274" y="70.51785714285714" width="2" height="29.48214285714286" id="tests-vaccines-9"></rect></g><g><rect x="161.36363636363637" y="78.59892857142857" width="2" height="21.401071428571427" id="tests-vaccines-10"></rect></g><g><rect x="157.8" y="78.85892857142858" width="2" height="21.141071428571422" id="tests-vaccines-11"></rect></g><g><rect x="154.23636363636365" y="79.64464285714286" width="2" height="20.355357142857144" id="tests-vaccines-12"></rect></g><g><rect x="150.6727272727273" y="82.19928571428572" width="2" height="17.800714285714278" id="tests-vaccines-13"></rect></g><g><rect x="147.1090909090909" y="93.14535714285714" width="2" height="6.8546428571428635" id="tests-vaccines-14"></rect></g><g><rect x="143.54545454545453" y="82.00178571428572" width="2" height="17.998214285714283" id="tests-vaccines-15"></rect></g><g><rect x="139.9818181818182" y="65.86571428571429" width="2" height="34.13428571428571" id="tests-vaccines-16"></rect></g><g><rect x="136.41818181818184" y="74.01071428571429" width="2" height="25.989285714285714" id="tests-vaccines-17"></rect></g><g><rect x="132.85454545454544" y="72.73285714285714" width="2" height="27.267142857142858" id="tests-vaccines-18"></rect></g><g><rect x="129.29090909090908" y="72.98928571428571" width="2" height="27.010714285714286" id="tests-vaccines-19"></rect></g><g><rect x="125.72727272727273" y="72.15821428571428" width="2" height="27.84178571428572" id="tests-vaccines-20"></rect></g><g><rect x="122.16363636363636" y="89.29249999999999" width="2" height="10.70750000000001" id="tests-vaccines-21"></rect></g><g><rect x="118.6" y="75.88000000000001" width="2" height="24.11999999999999" id="tests-vaccines-22"></rect></g><g><rect x="115.03636363636363" y="55.7825" width="2" height="44.2175" id="tests-vaccines-23"></rect></g><g><rect x="111.47272727272728" y="66.69035714285714" width="2" height="33.30964285714286" id="tests-vaccines-24"></rect></g><g><rect x="107.90909090909089" y="65.51464285714286" width="2" height="34.48535714285714" id="tests-vaccines-25"></rect></g><g><rect x="104.34545454545456" y="64.83178571428572" width="2" height="35.168214285714285" id="tests-vaccines-26"></rect></g><g><rect x="100.78181818181817" y="61.31928571428571" width="2" height="38.68071428571429" id="tests-vaccines-27"></rect></g><g><rect x="97.21818181818183" y="86.65321428571428" width="2" height="13.346785714285716" id="tests-vaccines-28"></rect></g><g><rect x="93.65454545454546" y="68.21571428571428" width="2" height="31.784285714285716" id="tests-vaccines-29"></rect></g><g><rect x="90.09090909090911" y="40.607142857142854" width="2" height="59.392857142857146" id="tests-vaccines-30"></rect></g><g><rect x="86.52727272727273" y="53.12464285714286" width="2" height="46.87535714285714" id="tests-vaccines-31"></rect></g><g><rect x="82.96363636363637" y="52.89464285714286" width="2" height="47.10535714285714" id="tests-vaccines-32"></rect></g><g><rect x="79.4" y="52.33392857142858" width="2" height="47.66607142857142" id="tests-vaccines-33"></rect></g><g><rect x="75.83636363636364" y="52.63821428571429" width="2" height="47.36178571428571" id="tests-vaccines-34"></rect></g><g><rect x="72.27272727272727" y="84.16392857142857" width="2" height="15.83607142857143" id="tests-vaccines-35"></rect></g><g><rect x="68.70909090909092" y="66.13178571428571" width="2" height="33.86821428571429" id="tests-vaccines-36"></rect></g><g><rect x="65.14545454545454" y="35.07142857142858" width="2" height="64.92857142857142" id="tests-vaccines-37"></rect></g><g><rect x="61.58181818181818" y="45.04" width="2" height="54.96" id="tests-vaccines-38"></rect></g><g><rect x="58.018181818181816" y="42.63285714285714" width="2" height="57.36714285714286" id="tests-vaccines-39"></rect></g><g><rect x="54.454545454545446" y="41.8675" width="2" height="58.1325" id="tests-vaccines-40"></rect></g><g><rect x="50.89090909090908" y="50.589285714285715" width="2" height="49.410714285714285" id="tests-vaccines-41"></rect></g><g><rect x="47.32727272727273" y="80.54285714285714" width="2" height="19.457142857142856" id="tests-vaccines-42"></rect></g><g><rect x="43.76363636363636" y="58.705000000000005" width="2" height="41.294999999999995" id="tests-vaccines-43"></rect></g><g><rect x="40.199999999999996" y="19.778928571428565" width="2" height="80.22107142857143" id="tests-vaccines-44"></rect></g><g><rect x="36.636363636363626" y="31.38142857142857" width="2" height="68.61857142857143" id="tests-vaccines-45"></rect></g><g><rect x="33.072727272727285" y="28.925" width="2" height="71.075" id="tests-vaccines-46"></rect></g><g><rect x="29.509090909090922" y="27.538928571428567" width="2" height="72.46107142857143" id="tests-vaccines-47"></rect></g><g><rect x="25.945454545454556" y="31.77642857142857" width="2" height="68.22357142857143" id="tests-vaccines-48"></rect></g><g><rect x="22.38181818181819" y="77.15928571428572" width="2" height="22.840714285714284" id="tests-vaccines-49"></rect></g><g><rect x="18.818181818181824" y="46.07821428571428" width="2" height="53.92178571428572" id="tests-vaccines-50"></rect></g><g><rect x="15.254545454545461" y="2.908571428571427" width="2" height="97.09142857142858" id="tests-vaccines-51"></rect></g><g><rect x="11.690909090909095" y="16.40678571428571" width="2" height="83.59321428571428" id="tests-vaccines-52"></rect></g><g><rect x="8.12727272727273" y="19.73892857142857" width="2" height="80.26107142857143" id="tests-vaccines-53"></rect></g><g><rect x="4.563636363636365" y="21.302500000000002" width="2" height="78.69749999999999" id="tests-vaccines-54"></rect></g><g><rect x="1" y="27.339999999999996" width="2" height="72.66" id="tests-vaccines-55"></rect></g></g><g class="fg-line tests-vaccines" fill="none" stroke="#92c5de" stroke-width="2" stroke-linecap="round"><path d="M198,83.2325L194.43636363636364,83.13158163265307L190.87272727272727,82.81086734693878L187.30909090909088,82.2763775510204L183.74545454545455,81.90637755102041L180.1818181818182,81.5744387755102L176.61818181818182,81.41158163265307L173.05454545454546,80.93239795918367L169.49090909090907,81.02897959183673L165.92727272727274,80.70954081632652L162.36363636363637,80.04494897959184L158.8,79.38948979591837L155.23636363636365,78.51433673469388L151.6727272727273,77.56357142857144L148.1090909090909,76.12913265306122L144.54545454545453,75.57872448979592L140.9818181818182,74.70418367346939L137.41818181818184,73.26372448979592L133.85454545454544,72.21795918367346L130.29090909090908,71.18678571428572L126.72727272727273,70.02142857142857L123.16363636363636,68.47301020408163L119.6,68.0959693877551L116.03636363636363,67.00107142857144L112.47272727272728,64.83316326530613L108.90909090909089,62.89520408163265L105.34545454545456,61.09234693877551L101.78181818181817,59.30693877551021L98.21818181818183,58.066785714285714L94.65454545454546,57.71117346938775L91.09090909090911,57.413469387755114L87.52727272727273,56.62265306122449L83.96363636363637,55.46770408163266L80.4,54.001734693877545L76.83636363636364,52.506530612244894L73.27272727272727,52.21382653061224L69.70909090909092,51.69653061224489L66.14545454545454,50.6355612244898L62.58181818181818,48.450918367346944L59.018181818181816,46.49969387755103L55.454545454545446,44.541428571428575L51.89090909090908,42.49448979591837L48.32727272727273,39.806938775510204L44.76363636363636,39.32357142857143L41.199999999999996,37.519744897959185L37.636363636363626,35.10969387755103L34.072727272727285,32.97045918367347L30.509090909090922,31.658163265306115L26.945454545454556,30.767244897959177L23.38181818181819,30.133469387755106L19.818181818181824,30.61326530612245L16.25454545454546,37.89494897959184L12.690909090909095,47.806275510204074L9.12727272727273,48.11632653061224L5.563636363636365,47.083418367346944L2,45.83071428571428"></path></g></svg>