<svg about="DATA_PUBLISHED_DATE:2021-10-17,RENDER_DATE:2021-10-17" xmlns="http://www.w3.org/2000/svg" viewBox="0,0,200,100"><g transform="translate(0,0)"></g><g class="fg-bars tests-vaccines" fill="#00183f" stroke="none"><g><rect x="197" y="63.03062500000001" width="2" height="36.96937499999999" id="tests-vaccines-0"></rect></g><g><rect x="193.43636363636364" y="19.97875" width="2" height="80.02125" id="tests-vaccines-1"></rect></g><g><rect x="189.87272727272727" y="34.112500000000004" width="2" height="65.88749999999999" id="tests-vaccines-2"></rect></g><g><rect x="186.30909090909088" y="38.5475" width="2" height="61.4525" id="tests-vaccines-3"></rect></g><g><rect x="182.74545454545455" y="36.482499999999995" width="2" height="63.517500000000005" id="tests-vaccines-4"></rect></g><g><rect x="179.1818181818182" y="33.448750000000004" width="2" height="66.55125" id="tests-vaccines-5"></rect></g><g><rect x="175.61818181818182" y="76.749375" width="2" height="23.250625" id="tests-vaccines-6"></rect></g><g><rect x="172.05454545454546" y="58.89187499999999" width="2" height="41.10812500000001" id="tests-vaccines-7"></rect></g><g><rect x="168.49090909090907" y="12.02375" width="2" height="87.97625" id="tests-vaccines-8"></rect></g><g><rect x="164.92727272727274" y="19.778125000000003" width="2" height="80.221875" id="tests-vaccines-9"></rect></g><g><rect x="161.36363636363637" y="21.513749999999998" width="2" height="78.48625" id="tests-vaccines-10"></rect></g><g><rect x="157.8" y="20.813125" width="2" height="79.186875" id="tests-vaccines-11"></rect></g><g><rect x="154.23636363636365" y="27.341249999999995" width="2" height="72.65875" id="tests-vaccines-12"></rect></g><g><rect x="150.6727272727273" y="75.92625" width="2" height="24.073750000000004" id="tests-vaccines-13"></rect></g><g><rect x="147.1090909090909" y="56.64" width="2" height="43.36" id="tests-vaccines-14"></rect></g><g><rect x="143.54545454545453" y="33.762499999999996" width="2" height="66.23750000000001" id="tests-vaccines-15"></rect></g><g><rect x="139.9818181818182" y="55.99125" width="2" height="44.00875" id="tests-vaccines-16"></rect></g><g><rect x="136.41818181818184" y="55.81937500000001" width="2" height="44.18062499999999" id="tests-vaccines-17"></rect></g><g><rect x="132.85454545454544" y="54.4225" width="2" height="45.5775" id="tests-vaccines-18"></rect></g><g><rect x="129.29090909090908" y="50.585625" width="2" height="49.414375" id="tests-vaccines-19"></rect></g><g><rect x="125.72727272727273" y="79.758125" width="2" height="20.241874999999993" id="tests-vaccines-20"></rect></g><g><rect x="122.16363636363636" y="64.85375" width="2" height="35.146249999999995" id="tests-vaccines-21"></rect></g><g><rect x="118.6" y="40.795625" width="2" height="59.204375" id="tests-vaccines-22"></rect></g><g><rect x="115.03636363636363" y="49.234375" width="2" height="50.765625" id="tests-vaccines-23"></rect></g><g><rect x="111.47272727272728" y="50.790625" width="2" height="49.209375" id="tests-vaccines-24"></rect></g><g><rect x="107.90909090909089" y="50.323125000000005" width="2" height="49.676874999999995" id="tests-vaccines-25"></rect></g><g><rect x="104.34545454545456" y="47.804375" width="2" height="52.195625" id="tests-vaccines-26"></rect></g><g><rect x="100.78181818181817" y="78.18" width="2" height="21.819999999999993" id="tests-vaccines-27"></rect></g><g><rect x="97.21818181818183" y="61.103125000000006" width="2" height="38.896874999999994" id="tests-vaccines-28"></rect></g><g><rect x="93.65454545454546" y="33.467499999999994" width="2" height="66.5325" id="tests-vaccines-29"></rect></g><g><rect x="90.09090909090911" y="45.496875" width="2" height="54.503125" id="tests-vaccines-30"></rect></g><g><rect x="86.52727272727273" y="45.069375" width="2" height="54.930625" id="tests-vaccines-31"></rect></g><g><rect x="82.96363636363637" y="39.254374999999996" width="2" height="60.745625000000004" id="tests-vaccines-32"></rect></g><g><rect x="79.4" y="88.05499999999999" width="2" height="11.945000000000007" id="tests-vaccines-33"></rect></g><g><rect x="75.83636363636364" y="76.480625" width="2" height="23.519374999999997" id="tests-vaccines-34"></rect></g><g><rect x="72.27272727272727" y="60.51625000000001" width="2" height="39.48374999999999" id="tests-vaccines-35"></rect></g><g><rect x="68.70909090909092" y="27.18625" width="2" height="72.81375" id="tests-vaccines-36"></rect></g><g><rect x="65.14545454545454" y="41.927499999999995" width="2" height="58.072500000000005" id="tests-vaccines-37"></rect></g><g><rect x="61.58181818181818" y="39.911874999999995" width="2" height="60.088125000000005" id="tests-vaccines-38"></rect></g><g><rect x="58.018181818181816" y="37.408125000000005" width="2" height="62.591874999999995" id="tests-vaccines-39"></rect></g><g><rect x="54.454545454545446" y="36.661875" width="2" height="63.338125" id="tests-vaccines-40"></rect></g><g><rect x="50.89090909090908" y="73.404375" width="2" height="26.595625" id="tests-vaccines-41"></rect></g><g><rect x="47.32727272727273" y="51.3925" width="2" height="48.6075" id="tests-vaccines-42"></rect></g><g><rect x="43.76363636363636" y="19.905625000000004" width="2" height="80.094375" id="tests-vaccines-43"></rect></g><g><rect x="40.199999999999996" y="34.951875" width="2" height="65.048125" id="tests-vaccines-44"></rect></g><g><rect x="36.636363636363626" y="35.8425" width="2" height="64.1575" id="tests-vaccines-45"></rect></g><g><rect x="33.072727272727285" y="33.374375" width="2" height="66.625625" id="tests-vaccines-46"></rect></g><g><rect x="29.509090909090922" y="33.78875" width="2" height="66.21125" id="tests-vaccines-47"></rect></g><g><rect x="25.945454545454556" y="73.760625" width="2" height="26.239374999999995" id="tests-vaccines-48"></rect></g><g><rect x="22.38181818181819" y="52.615" width="2" height="47.385" id="tests-vaccines-49"></rect></g><g><rect x="18.818181818181824" y="20.7875" width="2" height="79.2125" id="tests-vaccines-50"></rect></g><g><rect x="15.254545454545461" y="36.4475" width="2" height="63.5525" id="tests-vaccines-51"></rect></g><g><rect x="11.690909090909095" y="36.2825" width="2" height="63.7175" id="tests-vaccines-52"></rect></g><g><rect x="8.12727272727273" y="36.1075" width="2" height="63.8925" id="tests-vaccines-53"></rect></g><g><rect x="4.563636363636365" y="39.25375" width="2" height="60.74625" id="tests-vaccines-54"></rect></g><g><rect x="1" y="74.671875" width="2" height="25.328125" id="tests-vaccines-55"></rect></g></g><g class="fg-line tests-vaccines" fill="none" stroke="#92c5de" stroke-width="2" stroke-linecap="round"><path d="M198,43.19285714285714L194.43636363636364,42.60160714285715L190.87272727272727,41.465178571428574L187.30909090909088,39.417410714285715L183.74545454545455,36.984017857142845L180.1818181818182,34.745535714285715L176.61818181818182,33.87303571428571L173.05454545454546,33.75544642857143L169.49090909090907,33.433749999999996L165.92727272727274,36.53928571428572L162.36363636363637,41.71258928571429L158.8,46.613392857142856L155.23636363636365,51.41473214285715L151.6727272727273,54.735357142857154L148.1090909090909,55.28276785714286L144.54545454545453,56.456160714285716L140.9818181818182,57.46089285714285L137.41818181818184,56.495625000000004L133.85454545454544,55.777232142857144L130.29090909090908,55.191607142857144L126.72727272727273,54.79428571428572L123.16363636363636,54.568839285714276L119.6,54.03303571428572L116.03636363636363,52.986160714285724L112.47272727272728,52.45223214285715L108.90909090909089,51.63491071428572L105.34545454545456,50.05366071428572L101.78181818181817,55.803749999999994L98.21818181818183,55.56098214285714L94.65454545454546,55.477142857142844L91.09090909090911,54.57982142857143L87.52727272727273,54.06991071428572L83.96363636363637,53.333125L80.4,53.069374999999994L76.83636363636364,45.7275L73.27272727272727,45.28803571428571L69.70909090909092,43.98464285714285L66.14545454545454,42.94455357142857L62.58181818181818,41.948035714285716L59.018181818181816,41.36669642857144L55.454545454545446,40.790446428571435L51.89090909090908,40.38L48.32727272727273,40.43089285714285L44.76363636363636,40.605535714285715L41.199999999999996,40.731517857142855L37.636363636363626,40.94517857142856L34.072727272727285,41.00803571428572L30.509090909090922,41.39848214285715L26.945454545454556,42.17919642857143L23.38181818181819,42.309375L19.818181818181824,42.56401785714286L16.25454545454546,43.89794642857143L12.690909090909095,45.091339285714284L9.12727272727273,46.721875000000004L5.563636363636365,47.68116071428572L2,48.49464285714286"></path></g></svg>