<svg meta="{&quot;DATA_PUBLISHED_DATE&quot;:&quot;2023-02-16&quot;,&quot;RENDER_DATE&quot;:&quot;2023-02-23&quot;,&quot;FIRST_DATE&quot;:&quot;2022-12-14&quot;,&quot;LAST_DATE&quot;:&quot;2023-02-07&quot;}" xmlns="http://www.w3.org/2000/svg" viewBox="0,0,200,100"><g transform="translate(0,0)"></g><g class="fg-bars cases-ep" fill="#00183f" stroke="none"><g><rect x="197" y="66.3" width="2" height="33.7" id="cases-ep-0"></rect></g><g><rect x="193.43636363636364" y="60.58" width="2" height="39.42" id="cases-ep-1"></rect></g><g><rect x="189.87272727272727" y="80.44" width="2" height="19.560000000000002" id="cases-ep-2"></rect></g><g><rect x="186.30909090909088" y="80" width="2" height="20" id="cases-ep-3"></rect></g><g><rect x="182.74545454545455" y="71.96000000000001" width="2" height="28.039999999999992" id="cases-ep-4"></rect></g><g><rect x="179.1818181818182" y="70.12" width="2" height="29.879999999999995" id="cases-ep-5"></rect></g><g><rect x="175.61818181818182" y="68.11" width="2" height="31.89" id="cases-ep-6"></rect></g><g><rect x="172.05454545454546" y="66.68" width="2" height="33.31999999999999" id="cases-ep-7"></rect></g><g><rect x="168.49090909090907" y="64.53" width="2" height="35.47" id="cases-ep-8"></rect></g><g><rect x="164.92727272727274" y="81.67" width="2" height="18.33" id="cases-ep-9"></rect></g><g><rect x="161.36363636363637" y="80.47" width="2" height="19.53" id="cases-ep-10"></rect></g><g><rect x="157.8" y="72.32000000000001" width="2" height="27.679999999999993" id="cases-ep-11"></rect></g><g><rect x="154.23636363636365" y="73.07000000000001" width="2" height="26.929999999999993" id="cases-ep-12"></rect></g><g><rect x="150.6727272727273" y="70.22999999999999" width="2" height="29.77000000000001" id="cases-ep-13"></rect></g><g><rect x="147.1090909090909" y="68.93" width="2" height="31.069999999999993" id="cases-ep-14"></rect></g><g><rect x="143.54545454545453" y="68.31" width="2" height="31.689999999999998" id="cases-ep-15"></rect></g><g><rect x="139.9818181818182" y="83.03" width="2" height="16.97" id="cases-ep-16"></rect></g><g><rect x="136.41818181818184" y="82.69999999999999" width="2" height="17.30000000000001" id="cases-ep-17"></rect></g><g><rect x="132.85454545454544" y="75.11" width="2" height="24.89" id="cases-ep-18"></rect></g><g><rect x="129.29090909090908" y="72.88" width="2" height="27.120000000000005" id="cases-ep-19"></rect></g><g><rect x="125.72727272727273" y="70.19999999999999" width="2" height="29.80000000000001" id="cases-ep-20"></rect></g><g><rect x="122.16363636363636" y="65.10000000000001" width="2" height="34.89999999999999" id="cases-ep-21"></rect></g><g><rect x="118.6" y="73.19" width="2" height="26.810000000000002" id="cases-ep-22"></rect></g><g><rect x="115.03636363636363" y="81.47" width="2" height="18.53" id="cases-ep-23"></rect></g><g><rect x="111.47272727272728" y="80.49" width="2" height="19.510000000000005" id="cases-ep-24"></rect></g><g><rect x="107.90909090909089" y="69.83" width="2" height="30.17" id="cases-ep-25"></rect></g><g><rect x="104.34545454545456" y="67.58999999999999" width="2" height="32.41000000000001" id="cases-ep-26"></rect></g><g><rect x="100.78181818181817" y="62.85000000000001" width="2" height="37.14999999999999" id="cases-ep-27"></rect></g><g><rect x="97.21818181818183" y="62.45" width="2" height="37.55" id="cases-ep-28"></rect></g><g><rect x="93.65454545454546" y="52.62" width="2" height="47.38" id="cases-ep-29"></rect></g><g><rect x="90.09090909090911" y="73.31" width="2" height="26.689999999999998" id="cases-ep-30"></rect></g><g><rect x="86.52727272727273" y="68.5" width="2" height="31.5" id="cases-ep-31"></rect></g><g><rect x="82.96363636363637" y="51.03" width="2" height="48.97" id="cases-ep-32"></rect></g><g><rect x="79.4" y="50.78" width="2" height="49.22" id="cases-ep-33"></rect></g><g><rect x="75.83636363636364" y="42.290000000000006" width="2" height="57.709999999999994" id="cases-ep-34"></rect></g><g><rect x="72.27272727272727" y="26.529999999999998" width="2" height="73.47" id="cases-ep-35"></rect></g><g><rect x="68.70909090909092" y="44.720000000000006" width="2" height="55.279999999999994" id="cases-ep-36"></rect></g><g><rect x="65.14545454545454" y="72.61999999999999" width="2" height="27.38000000000001" id="cases-ep-37"></rect></g><g><rect x="61.58181818181818" y="62.22" width="2" height="37.78" id="cases-ep-38"></rect></g><g><rect x="58.018181818181816" y="32.99999999999999" width="2" height="67" id="cases-ep-39"></rect></g><g><rect x="54.454545454545446" y="23.970000000000002" width="2" height="76.03" id="cases-ep-40"></rect></g><g><rect x="50.89090909090908" y="13.490000000000002" width="2" height="86.50999999999999" id="cases-ep-41"></rect></g><g><rect x="47.32727272727273" y="2.190000000000003" width="2" height="97.81" id="cases-ep-42"></rect></g><g><rect x="43.76363636363636" y="28.259999999999998" width="2" height="71.74000000000001" id="cases-ep-43"></rect></g><g><rect x="40.199999999999996" y="71.67" width="2" height="28.33" id="cases-ep-44"></rect></g><g><rect x="36.636363636363626" y="60.07" width="2" height="39.93" id="cases-ep-45"></rect></g><g><rect x="33.072727272727285" y="32.08" width="2" height="67.92" id="cases-ep-46"></rect></g><g><rect x="29.509090909090922" y="24.080000000000002" width="2" height="75.92" id="cases-ep-47"></rect></g><g><rect x="25.945454545454556" y="19.85" width="2" height="80.15" id="cases-ep-48"></rect></g><g><rect x="22.38181818181819" y="13.819999999999999" width="2" height="86.18" id="cases-ep-49"></rect></g><g><rect x="18.818181818181824" y="6.000000000000005" width="2" height="94" id="cases-ep-50"></rect></g><g><rect x="15.254545454545461" y="55.190000000000005" width="2" height="44.809999999999995" id="cases-ep-51"></rect></g><g><rect x="11.690909090909095" y="50.23" width="2" height="49.77" id="cases-ep-52"></rect></g><g><rect x="8.12727272727273" y="30.310000000000002" width="2" height="69.69" id="cases-ep-53"></rect></g><g><rect x="4.563636363636365" y="24.329999999999995" width="2" height="75.67" id="cases-ep-54"></rect></g><g><rect x="1" y="17.959999999999997" width="2" height="82.04" id="cases-ep-55"></rect></g></g><g class="fg-line cases-ep" fill="none" stroke="#92c5de" stroke-width="2" stroke-linecap="round"><path d="M198,71.07285714285713L194.43636363636364,71.12714285714286L190.87272727272727,71.69142857142857L187.30909090909088,71.86714285714287L183.74545454545455,71.93428571428572L180.1818181818182,71.98571428571428L176.61818181818182,72.40714285714286L173.05454545454546,72.71000000000001L169.49090909090907,73.03142857142856L165.92727272727274,73.57142857142858L162.36363636363637,73.76571428571428L158.8,74.08428571428571L155.23636363636365,74.48285714285714L151.6727272727273,74.4557142857143L148.1090909090909,74.45142857142856L144.54545454545453,73.9042857142857L140.9818181818182,74.60142857142857L137.41818181818184,74.37857142857143L133.85454545454544,74.06285714285714L130.29090909090908,73.30857142857144L126.72727272727273,72.55285714285714L123.16363636363636,71.50285714285714L119.6,71.12428571428572L116.03636363636363,68.18571428571428L112.47272727272728,67.02L108.90909090909089,65.30714285714285L105.34545454545456,62.621428571428574L101.78181818181817,60.220000000000006L98.21818181818183,57.28285714285715L94.65454545454546,52.15142857142857L91.09090909090911,51.02285714285715L87.52727272727273,50.92428571428571L83.96363636363637,50.02714285714285L80.4,47.451428571428565L76.83636363636364,43.62142857142857L73.27272727272727,39.50714285714285L69.70909090909092,36.029999999999994L66.14545454545454,33.67857142857144L62.58181818181818,33.54285714285715L59.018181818181816,33.23571428571428L55.454545454545446,33.10428571428572L51.89090909090908,33.120000000000005L48.32727272727273,34.02857142857143L44.76363636363636,35.69L41.199999999999996,32.50999999999999L37.636363636363626,30.155714285714286L34.072727272727285,28.749999999999996L30.509090909090922,28.497142857142855L26.945454545454556,28.53285714285715L23.38181818181819,28.262857142857143L19.818181818181824,27.82714285714285L16.25454545454546,26.470000000000006L12.690909090909095,25.974285714285717L9.12727272727273,25.319999999999997L5.563636363636365,23.847142857142856L2,22.59714285714285"></path></g></svg>