<svg meta="{&quot;DATA_PUBLISHED_DATE&quot;:&quot;2022-04-29&quot;,&quot;RENDER_DATE&quot;:&quot;2022-04-29&quot;,&quot;FIRST_DATE&quot;:&quot;2022-02-24&quot;,&quot;LAST_DATE&quot;:&quot;2022-04-20&quot;}" xmlns="http://www.w3.org/2000/svg" viewBox="0,0,200,100"><g transform="translate(0,0)"></g><g class="fg-bars cases-ep" fill="#00183f" stroke="none"><g><rect x="197" y="12.549999999999994" width="2" height="87.45" id="cases-ep-0"></rect></g><g><rect x="193.43636363636364" y="9.966666666666669" width="2" height="90.03333333333333" id="cases-ep-1"></rect></g><g><rect x="189.87272727272727" y="2.316666666666667" width="2" height="97.68333333333334" id="cases-ep-2"></rect></g><g><rect x="186.30909090909088" y="64.98333333333332" width="2" height="35.01666666666668" id="cases-ep-3"></rect></g><g><rect x="182.74545454545455" y="58.233333333333334" width="2" height="41.766666666666666" id="cases-ep-4"></rect></g><g><rect x="179.1818181818182" y="41.78333333333333" width="2" height="58.21666666666667" id="cases-ep-5"></rect></g><g><rect x="175.61818181818182" y="39.75" width="2" height="60.25" id="cases-ep-6"></rect></g><g><rect x="172.05454545454546" y="35.150000000000006" width="2" height="64.85" id="cases-ep-7"></rect></g><g><rect x="168.49090909090907" y="33.15" width="2" height="66.85" id="cases-ep-8"></rect></g><g><rect x="164.92727272727274" y="28.749999999999996" width="2" height="71.25" id="cases-ep-9"></rect></g><g><rect x="161.36363636363637" y="64.65" width="2" height="35.349999999999994" id="cases-ep-10"></rect></g><g><rect x="157.8" y="66.7" width="2" height="33.3" id="cases-ep-11"></rect></g><g><rect x="154.23636363636365" y="52.18333333333334" width="2" height="47.81666666666666" id="cases-ep-12"></rect></g><g><rect x="150.6727272727273" y="50.03333333333333" width="2" height="49.96666666666667" id="cases-ep-13"></rect></g><g><rect x="147.1090909090909" y="44.333333333333336" width="2" height="55.666666666666664" id="cases-ep-14"></rect></g><g><rect x="143.54545454545453" y="45.333333333333336" width="2" height="54.666666666666664" id="cases-ep-15"></rect></g><g><rect x="139.9818181818182" y="37.983333333333334" width="2" height="62.016666666666666" id="cases-ep-16"></rect></g><g><rect x="136.41818181818184" y="71.81666666666666" width="2" height="28.183333333333337" id="cases-ep-17"></rect></g><g><rect x="132.85454545454544" y="72.8" width="2" height="27.200000000000003" id="cases-ep-18"></rect></g><g><rect x="129.29090909090908" y="57.35" width="2" height="42.65" id="cases-ep-19"></rect></g><g><rect x="125.72727272727273" y="59.96666666666667" width="2" height="40.03333333333333" id="cases-ep-20"></rect></g><g><rect x="122.16363636363636" y="56.60000000000001" width="2" height="43.39999999999999" id="cases-ep-21"></rect></g><g><rect x="118.6" y="54.91666666666667" width="2" height="45.08333333333333" id="cases-ep-22"></rect></g><g><rect x="115.03636363636363" y="52.68333333333332" width="2" height="47.31666666666668" id="cases-ep-23"></rect></g><g><rect x="111.47272727272728" y="74.73333333333333" width="2" height="25.266666666666666" id="cases-ep-24"></rect></g><g><rect x="107.90909090909089" y="76.1" width="2" height="23.900000000000006" id="cases-ep-25"></rect></g><g><rect x="104.34545454545456" y="66.98333333333333" width="2" height="33.016666666666666" id="cases-ep-26"></rect></g><g><rect x="100.78181818181817" y="61.650000000000006" width="2" height="38.349999999999994" id="cases-ep-27"></rect></g><g><rect x="97.21818181818183" y="62.56666666666666" width="2" height="37.43333333333334" id="cases-ep-28"></rect></g><g><rect x="93.65454545454546" y="49.35000000000001" width="2" height="50.64999999999999" id="cases-ep-29"></rect></g><g><rect x="90.09090909090911" y="54.71666666666667" width="2" height="45.28333333333333" id="cases-ep-30"></rect></g><g><rect x="86.52727272727273" y="78.5" width="2" height="21.5" id="cases-ep-31"></rect></g><g><rect x="82.96363636363637" y="79.31666666666666" width="2" height="20.683333333333337" id="cases-ep-32"></rect></g><g><rect x="79.4" y="67.06666666666668" width="2" height="32.93333333333332" id="cases-ep-33"></rect></g><g><rect x="75.83636363636364" y="61.76666666666666" width="2" height="38.23333333333334" id="cases-ep-34"></rect></g><g><rect x="72.27272727272727" y="59.28333333333333" width="2" height="40.71666666666667" id="cases-ep-35"></rect></g><g><rect x="68.70909090909092" y="56.58333333333334" width="2" height="43.41666666666666" id="cases-ep-36"></rect></g><g><rect x="65.14545454545454" y="52.05" width="2" height="47.95" id="cases-ep-37"></rect></g><g><rect x="61.58181818181818" y="78.91666666666667" width="2" height="21.08333333333333" id="cases-ep-38"></rect></g><g><rect x="58.018181818181816" y="75.36666666666667" width="2" height="24.633333333333326" id="cases-ep-39"></rect></g><g><rect x="54.454545454545446" y="61.8" width="2" height="38.2" id="cases-ep-40"></rect></g><g><rect x="50.89090909090908" y="57.91666666666666" width="2" height="42.08333333333334" id="cases-ep-41"></rect></g><g><rect x="47.32727272727273" y="50.03333333333333" width="2" height="49.96666666666667" id="cases-ep-42"></rect></g><g><rect x="43.76363636363636" y="45.116666666666674" width="2" height="54.883333333333326" id="cases-ep-43"></rect></g><g><rect x="40.199999999999996" y="35.6" width="2" height="64.4" id="cases-ep-44"></rect></g><g><rect x="36.636363636363626" y="70.11666666666667" width="2" height="29.883333333333326" id="cases-ep-45"></rect></g><g><rect x="33.072727272727285" y="65.83333333333333" width="2" height="34.16666666666667" id="cases-ep-46"></rect></g><g><rect x="29.509090909090922" y="48.3" width="2" height="51.7" id="cases-ep-47"></rect></g><g><rect x="25.945454545454556" y="40.65" width="2" height="59.35" id="cases-ep-48"></rect></g><g><rect x="22.38181818181819" y="34.06666666666667" width="2" height="65.93333333333334" id="cases-ep-49"></rect></g><g><rect x="18.818181818181824" y="22.450000000000003" width="2" height="77.55" id="cases-ep-50"></rect></g><g><rect x="15.254545454545461" y="13.216666666666665" width="2" height="86.78333333333333" id="cases-ep-51"></rect></g><g><rect x="11.690909090909095" y="60.53333333333333" width="2" height="39.46666666666667" id="cases-ep-52"></rect></g><g><rect x="8.12727272727273" y="55.233333333333334" width="2" height="44.766666666666666" id="cases-ep-53"></rect></g><g><rect x="4.563636363636365" y="20.466666666666665" width="2" height="79.53333333333333" id="cases-ep-54"></rect></g><g><rect x="1" y="14.349999999999996" width="2" height="85.65" id="cases-ep-55"></rect></g></g><g class="fg-line cases-ep" fill="none" stroke="#92c5de" stroke-width="2" stroke-linecap="round"><path d="M198,32.797619047619044L194.43636363636364,36.02619047619048L190.87272727272727,39.338095238095235L187.30909090909088,43.114285714285714L183.74545454545455,43.06666666666666L180.1818181818182,44.27619047619047L176.61818181818182,45.76190476190476L173.05454545454546,47.230952380952374L169.49090909090907,48.542857142857144L165.92727272727274,50.28333333333334L162.36363636363637,51.602380952380955L158.8,52.62619047619048L155.23636363636365,53.49761904761905L151.6727272727273,54.23571428571429L148.1090909090909,55.654761904761905L144.54545454545453,57.40714285714286L140.9818181818182,58.77619047619047L137.41818181818184,60.87619047619047L133.85454545454544,61.29285714285715L130.29090909090908,61.76428571428572L126.72727272727273,63.14047619047619L123.16363636363636,63.38095238095238L119.6,64.23333333333333L116.03636363636363,63.43809523809524L112.47272727272728,63.72857142857142L108.90909090909089,64.26666666666667L105.34545454545456,64.72619047619048L101.78181818181817,64.73809523809524L98.21818181818183,64.7547619047619L94.65454545454546,64.28571428571429L91.09090909090911,65.31904761904762L87.52727272727273,64.93809523809524L83.96363636363637,64.99761904761905L80.4,64.43333333333334L76.83636363636364,63.68095238095237L73.27272727272727,63.13095238095238L69.70909090909092,61.8095238095238L66.14545454545454,60.171428571428564L62.58181818181818,57.82142857142857L59.018181818181816,56.56428571428571L55.454545454545446,55.202380952380956L51.89090909090908,53.273809523809526L48.32727272727273,50.807142857142864L44.76363636363636,48.52619047619048L41.199999999999996,45.28809523809524L37.636363636363626,42.09047619047619L34.072727272727285,40.721428571428575L30.509090909090922,39.20714285714286L26.945454545454556,35.230952380952374L23.38181818181819,31.473809523809525L19.818181818181824,27.604761904761908L16.25454545454546,21.69523809523809L12.690909090909095,21.426190476190477L9.12727272727273,18.51666666666667L5.563636363636365,14.969047619047615L2,9.576190476190472"></path></g></svg>