<svg meta="{&quot;DATA_PUBLISHED_DATE&quot;:&quot;2022-06-24&quot;,&quot;RENDER_DATE&quot;:&quot;2022-06-24&quot;,&quot;FIRST_DATE&quot;:&quot;2022-04-22&quot;,&quot;LAST_DATE&quot;:&quot;2022-06-16&quot;}" xmlns="http://www.w3.org/2000/svg" viewBox="0,0,200,100"><g transform="translate(0,0)"></g><g class="fg-bars tests-vaccines" fill="#00183f" stroke="none"><g><rect x="197" y="48.368750000000006" width="2" height="51.631249999999994" id="tests-vaccines-0"></rect></g><g><rect x="193.43636363636364" y="46.3525" width="2" height="53.6475" id="tests-vaccines-1"></rect></g><g><rect x="189.87272727272727" y="48.394999999999996" width="2" height="51.605000000000004" id="tests-vaccines-2"></rect></g><g><rect x="186.30909090909088" y="47.463750000000005" width="2" height="52.536249999999995" id="tests-vaccines-3"></rect></g><g><rect x="182.74545454545455" y="83.52625" width="2" height="16.473749999999995" id="tests-vaccines-4"></rect></g><g><rect x="179.1818181818182" y="67.27624999999999" width="2" height="32.72375000000001" id="tests-vaccines-5"></rect></g><g><rect x="175.61818181818182" y="29.947500000000005" width="2" height="70.0525" id="tests-vaccines-6"></rect></g><g><rect x="172.05454545454546" y="42.2475" width="2" height="57.7525" id="tests-vaccines-7"></rect></g><g><rect x="168.49090909090907" y="39.386250000000004" width="2" height="60.613749999999996" id="tests-vaccines-8"></rect></g><g><rect x="164.92727272727274" y="39.625" width="2" height="60.375" id="tests-vaccines-9"></rect></g><g><rect x="161.36363636363637" y="36.53875" width="2" height="63.46125" id="tests-vaccines-10"></rect></g><g><rect x="157.8" y="79.25375" width="2" height="20.746250000000003" id="tests-vaccines-11"></rect></g><g><rect x="154.23636363636365" y="56.72874999999999" width="2" height="43.27125000000001" id="tests-vaccines-12"></rect></g><g><rect x="150.6727272727273" y="17.046249999999997" width="2" height="82.95375" id="tests-vaccines-13"></rect></g><g><rect x="147.1090909090909" y="32.028749999999995" width="2" height="67.97125" id="tests-vaccines-14"></rect></g><g><rect x="143.54545454545453" y="28.574999999999996" width="2" height="71.42500000000001" id="tests-vaccines-15"></rect></g><g><rect x="139.9818181818182" y="21.816250000000004" width="2" height="78.18375" id="tests-vaccines-16"></rect></g><g><rect x="136.41818181818184" y="95.6475" width="2" height="4.352500000000006" id="tests-vaccines-17"></rect></g><g><rect x="132.85454545454544" y="74.82625" width="2" height="25.17375" id="tests-vaccines-18"></rect></g><g><rect x="129.29090909090908" y="54.905" width="2" height="45.095" id="tests-vaccines-19"></rect></g><g><rect x="125.72727272727273" y="5.762500000000004" width="2" height="94.2375" id="tests-vaccines-20"></rect></g><g><rect x="122.16363636363636" y="27.986250000000002" width="2" height="72.01375" id="tests-vaccines-21"></rect></g><g><rect x="118.6" y="23.785" width="2" height="76.215" id="tests-vaccines-22"></rect></g><g><rect x="115.03636363636363" y="23.65625" width="2" height="76.34375" id="tests-vaccines-23"></rect></g><g><rect x="111.47272727272728" y="22.3525" width="2" height="77.64750000000001" id="tests-vaccines-24"></rect></g><g><rect x="107.90909090909089" y="72.17375" width="2" height="27.82625" id="tests-vaccines-25"></rect></g><g><rect x="104.34545454545456" y="49.480000000000004" width="2" height="50.519999999999996" id="tests-vaccines-26"></rect></g><g><rect x="100.78181818181817" y="5.463750000000001" width="2" height="94.53625" id="tests-vaccines-27"></rect></g><g><rect x="97.21818181818183" y="24.35125" width="2" height="75.64875" id="tests-vaccines-28"></rect></g><g><rect x="93.65454545454546" y="27.962500000000002" width="2" height="72.0375" id="tests-vaccines-29"></rect></g><g><rect x="90.09090909090911" y="30.542499999999993" width="2" height="69.45750000000001" id="tests-vaccines-30"></rect></g><g><rect x="86.52727272727273" y="30.8975" width="2" height="69.10249999999999" id="tests-vaccines-31"></rect></g><g><rect x="82.96363636363637" y="78.28375" width="2" height="21.716250000000002" id="tests-vaccines-32"></rect></g><g><rect x="79.4" y="57.868750000000006" width="2" height="42.131249999999994" id="tests-vaccines-33"></rect></g><g><rect x="75.83636363636364" y="13.037500000000001" width="2" height="86.9625" id="tests-vaccines-34"></rect></g><g><rect x="72.27272727272727" y="24.19" width="2" height="75.81" id="tests-vaccines-35"></rect></g><g><rect x="68.70909090909092" y="24.980000000000004" width="2" height="75.02" id="tests-vaccines-36"></rect></g><g><rect x="65.14545454545454" y="29.451249999999995" width="2" height="70.54875000000001" id="tests-vaccines-37"></rect></g><g><rect x="61.58181818181818" y="30.661249999999995" width="2" height="69.33875" id="tests-vaccines-38"></rect></g><g><rect x="58.018181818181816" y="84.0025" width="2" height="15.997500000000002" id="tests-vaccines-39"></rect></g><g><rect x="54.454545454545446" y="62.004999999999995" width="2" height="37.995000000000005" id="tests-vaccines-40"></rect></g><g><rect x="50.89090909090908" y="13.87625" width="2" height="86.12375" id="tests-vaccines-41"></rect></g><g><rect x="47.32727272727273" y="25.98625" width="2" height="74.01375" id="tests-vaccines-42"></rect></g><g><rect x="43.76363636363636" y="26.068749999999994" width="2" height="73.93125" id="tests-vaccines-43"></rect></g><g><rect x="40.199999999999996" y="26.4725" width="2" height="73.5275" id="tests-vaccines-44"></rect></g><g><rect x="36.636363636363626" y="26.7775" width="2" height="73.2225" id="tests-vaccines-45"></rect></g><g><rect x="33.072727272727285" y="77.49249999999999" width="2" height="22.507500000000007" id="tests-vaccines-46"></rect></g><g><rect x="29.509090909090922" y="56.404999999999994" width="2" height="43.595000000000006" id="tests-vaccines-47"></rect></g><g><rect x="25.945454545454556" y="4.202499999999998" width="2" height="95.7975" id="tests-vaccines-48"></rect></g><g><rect x="22.38181818181819" y="16.830000000000002" width="2" height="83.17" id="tests-vaccines-49"></rect></g><g><rect x="18.818181818181824" y="17.674999999999997" width="2" height="82.325" id="tests-vaccines-50"></rect></g><g><rect x="15.254545454545461" y="18.96" width="2" height="81.03999999999999" id="tests-vaccines-51"></rect></g><g><rect x="11.690909090909095" y="19.704999999999995" width="2" height="80.295" id="tests-vaccines-52"></rect></g><g><rect x="8.12727272727273" y="76.43625" width="2" height="23.56375" id="tests-vaccines-53"></rect></g><g><rect x="4.563636363636365" y="53.015" width="2" height="46.985" id="tests-vaccines-54"></rect></g><g><rect x="1" y="18.9925" width="2" height="81.0075" id="tests-vaccines-55"></rect></g></g><g class="fg-line tests-vaccines" fill="none" stroke="#92c5de" stroke-width="2" stroke-linecap="round"><path d="M198,53.047142857142845L194.43636363636364,52.17267857142858L190.87272727272727,51.177499999999995L187.30909090909088,49.92464285714286L183.74545454545455,48.36392857142857L180.1818181818182,47.753571428571426L176.61818181818182,46.24678571428572L173.05454545454546,44.403749999999995L169.49090909090907,42.94392857142857L165.92727272727274,41.39946428571428L162.36363636363637,38.85535714285715L158.8,47.299464285714286L155.23636363636365,46.666964285714286L151.6727272727273,46.40642857142857L148.1090909090909,44.794464285714284L144.54545454545453,44.21696428571429L140.9818181818182,43.532678571428576L137.41818181818184,43.79553571428572L133.85454545454544,33.324821428571425L130.29090909090908,32.94589285714286L126.72727272727273,32.17089285714285L123.16363636363636,32.128214285714286L119.6,31.608928571428574L116.03636363636363,32.20571428571428L112.47272727272728,33.18946428571429L108.90909090909089,34.410178571428574L105.34545454545456,35.28303571428572L101.78181818181817,36.481428571428566L98.21818181818183,37.56339285714285L94.65454545454546,37.54035714285715L91.09090909090911,37.114285714285714L87.52727272727273,36.958392857142854L83.96363636363637,36.92464285714286L80.4,37.74160714285715L76.83636363636364,38.3325L73.27272727272727,38.45232142857144L69.70909090909092,38.70892857142857L66.14545454545454,38.864464285714284L62.58181818181818,38.43892857142856L59.018181818181816,37.88410714285715L55.454545454545446,36.954107142857154L51.89090909090908,36.15410714285715L48.32727272727273,34.77214285714285L44.76363636363636,33.464107142857145L41.199999999999996,32.265L37.636363636363626,31.191785714285714L34.072727272727285,30.18142857142857L30.509090909090922,30.030535714285712L26.945454545454556,29.546249999999997L23.38181818181819,31.659107142857145L19.818181818181824,30.815000000000005L16.25454545454546,29.646785714285716L12.690909090909095,27.67803571428572L9.12727272727273,25.56464285714285L5.563636363636365,27.127321428571427L2,26.69946428571428"></path></g></svg>