<svg meta="{&quot;DATA_PUBLISHED_DATE&quot;:&quot;2022-05-10&quot;,&quot;RENDER_DATE&quot;:&quot;2022-05-10&quot;,&quot;FIRST_DATE&quot;:&quot;2022-03-08&quot;,&quot;LAST_DATE&quot;:&quot;2022-05-02&quot;}" xmlns="http://www.w3.org/2000/svg" viewBox="0,0,200,100"><g transform="translate(0,0)"></g><g class="fg-bars tests-vaccines" fill="#00183f" stroke="none"><g><rect x="197" y="42.22" width="2" height="57.78" id="tests-vaccines-0"></rect></g><g><rect x="193.43636363636364" y="82.249" width="2" height="17.751000000000005" id="tests-vaccines-1"></rect></g><g><rect x="189.87272727272727" y="65.697" width="2" height="34.303" id="tests-vaccines-2"></rect></g><g><rect x="186.30909090909088" y="29.832000000000004" width="2" height="70.16799999999999" id="tests-vaccines-3"></rect></g><g><rect x="182.74545454545455" y="34.95399999999999" width="2" height="65.046" id="tests-vaccines-4"></rect></g><g><rect x="179.1818181818182" y="39.013" width="2" height="60.987" id="tests-vaccines-5"></rect></g><g><rect x="175.61818181818182" y="39.581" width="2" height="60.419" id="tests-vaccines-6"></rect></g><g><rect x="172.05454545454546" y="40.431" width="2" height="59.569" id="tests-vaccines-7"></rect></g><g><rect x="168.49090909090907" y="83.07100000000001" width="2" height="16.928999999999988" id="tests-vaccines-8"></rect></g><g><rect x="164.92727272727274" y="65.169" width="2" height="34.831" id="tests-vaccines-9"></rect></g><g><rect x="161.36363636363637" y="41.747" width="2" height="58.253" id="tests-vaccines-10"></rect></g><g><rect x="157.8" y="34.583" width="2" height="65.417" id="tests-vaccines-11"></rect></g><g><rect x="154.23636363636365" y="29.569999999999997" width="2" height="70.43" id="tests-vaccines-12"></rect></g><g><rect x="150.6727272727273" y="29.457" width="2" height="70.543" id="tests-vaccines-13"></rect></g><g><rect x="147.1090909090909" y="29.244999999999997" width="2" height="70.755" id="tests-vaccines-14"></rect></g><g><rect x="143.54545454545453" y="91.413" width="2" height="8.587000000000003" id="tests-vaccines-15"></rect></g><g><rect x="139.9818181818182" y="62.647000000000006" width="2" height="37.352999999999994" id="tests-vaccines-16"></rect></g><g><rect x="136.41818181818184" y="19.942000000000004" width="2" height="80.05799999999999" id="tests-vaccines-17"></rect></g><g><rect x="132.85454545454544" y="26.600999999999996" width="2" height="73.399" id="tests-vaccines-18"></rect></g><g><rect x="129.29090909090908" y="23.982000000000003" width="2" height="76.018" id="tests-vaccines-19"></rect></g><g><rect x="125.72727272727273" y="20.733999999999998" width="2" height="79.266" id="tests-vaccines-20"></rect></g><g><rect x="122.16363636363636" y="23.665000000000003" width="2" height="76.335" id="tests-vaccines-21"></rect></g><g><rect x="118.6" y="75.40599999999999" width="2" height="24.59400000000001" id="tests-vaccines-22"></rect></g><g><rect x="115.03636363636363" y="55.419" width="2" height="44.581" id="tests-vaccines-23"></rect></g><g><rect x="111.47272727272728" y="13.937999999999995" width="2" height="86.06200000000001" id="tests-vaccines-24"></rect></g><g><rect x="107.90909090909089" y="25.366" width="2" height="74.634" id="tests-vaccines-25"></rect></g><g><rect x="104.34545454545456" y="25.299000000000007" width="2" height="74.701" id="tests-vaccines-26"></rect></g><g><rect x="100.78181818181817" y="24.367000000000004" width="2" height="75.633" id="tests-vaccines-27"></rect></g><g><rect x="97.21818181818183" y="23.912999999999997" width="2" height="76.087" id="tests-vaccines-28"></rect></g><g><rect x="93.65454545454546" y="73.959" width="2" height="26.040999999999997" id="tests-vaccines-29"></rect></g><g><rect x="90.09090909090911" y="53.725" width="2" height="46.275" id="tests-vaccines-30"></rect></g><g><rect x="86.52727272727273" y="8.821000000000002" width="2" height="91.179" id="tests-vaccines-31"></rect></g><g><rect x="82.96363636363637" y="26.612000000000002" width="2" height="73.388" id="tests-vaccines-32"></rect></g><g><rect x="79.4" y="38.87199999999999" width="2" height="61.12800000000001" id="tests-vaccines-33"></rect></g><g><rect x="75.83636363636364" y="68.181" width="2" height="31.819000000000003" id="tests-vaccines-34"></rect></g><g><rect x="72.27272727272727" y="74.006" width="2" height="25.994" id="tests-vaccines-35"></rect></g><g><rect x="68.70909090909092" y="89.863" width="2" height="10.137" id="tests-vaccines-36"></rect></g><g><rect x="65.14545454545454" y="80.544" width="2" height="19.456000000000003" id="tests-vaccines-37"></rect></g><g><rect x="61.58181818181818" y="62.88199999999999" width="2" height="37.11800000000001" id="tests-vaccines-38"></rect></g><g><rect x="58.018181818181816" y="71.025" width="2" height="28.974999999999994" id="tests-vaccines-39"></rect></g><g><rect x="54.454545454545446" y="69.974" width="2" height="30.025999999999996" id="tests-vaccines-40"></rect></g><g><rect x="50.89090909090908" y="70.872" width="2" height="29.128" id="tests-vaccines-41"></rect></g><g><rect x="47.32727272727273" y="68.461" width="2" height="31.539" id="tests-vaccines-42"></rect></g><g><rect x="43.76363636363636" y="88.389" width="2" height="11.611000000000004" id="tests-vaccines-43"></rect></g><g><rect x="40.199999999999996" y="75.913" width="2" height="24.087000000000003" id="tests-vaccines-44"></rect></g><g><rect x="36.636363636363626" y="56.614999999999995" width="2" height="43.385000000000005" id="tests-vaccines-45"></rect></g><g><rect x="33.072727272727285" y="68.815" width="2" height="31.185000000000002" id="tests-vaccines-46"></rect></g><g><rect x="29.509090909090922" y="67.765" width="2" height="32.235" id="tests-vaccines-47"></rect></g><g><rect x="25.945454545454556" y="67.957" width="2" height="32.043000000000006" id="tests-vaccines-48"></rect></g><g><rect x="22.38181818181819" y="68.77" width="2" height="31.230000000000004" id="tests-vaccines-49"></rect></g><g><rect x="18.818181818181824" y="87.759" width="2" height="12.241" id="tests-vaccines-50"></rect></g><g><rect x="15.254545454545461" y="74.18100000000001" width="2" height="25.81899999999999" id="tests-vaccines-51"></rect></g><g><rect x="11.690909090909095" y="55.906" width="2" height="44.094" id="tests-vaccines-52"></rect></g><g><rect x="8.12727272727273" y="65.329" width="2" height="34.67100000000001" id="tests-vaccines-53"></rect></g><g><rect x="4.563636363636365" y="63.61" width="2" height="36.39" id="tests-vaccines-54"></rect></g><g><rect x="1" y="65.618" width="2" height="34.382000000000005" id="tests-vaccines-55"></rect></g></g><g class="fg-line tests-vaccines" fill="none" stroke="#92c5de" stroke-width="2" stroke-linecap="round"><path d="M198,47.64942857142857L194.43636363636364,47.393857142857144L190.87272727272727,47.51128571428572L187.30909090909088,47.43585714285714L183.74545454545455,49.138000000000005L180.1818181818182,49.085L176.61818181818182,47.736000000000004L173.05454545454546,46.289714285714275L169.49090909090907,44.691714285714276L165.92727272727274,45.883428571428574L162.36363636363637,45.52314285714285L158.8,42.40814285714285L155.23636363636365,41.267857142857146L151.6727272727273,40.46957142857143L148.1090909090909,39.22342857142858L144.54545454545453,38.42628571428571L140.9818181818182,36.13957142857143L137.41818181818184,35.107L133.85454545454544,34.24928571428572L130.29090909090908,34.072857142857146L126.72727272727273,34.260999999999996L123.16363636363636,34.78L119.6,34.815428571428576L116.03636363636363,34.608714285714285L112.47272727272728,34.366714285714295L108.90909090909089,33.63571428571429L105.34545454545456,33.81371428571429L101.78181818181817,35.75271428571428L98.21818181818183,42.011857142857146L94.65454545454546,49.168L91.09090909090911,51.44L87.52727272727273,55.271285714285725L83.96363636363637,62.994285714285716L80.4,69.339L76.83636363636364,73.78214285714286L73.27272727272727,74.16657142857143L69.70909090909092,73.37442857142858L66.14545454545454,73.16385714285714L62.58181818181818,72.50228571428572L59.018181818181816,71.607L55.454545454545446,71.2912857142857L51.89090909090908,70.97571428571429L48.32727272727273,70.5592857142857L44.76363636363636,70.60342857142857L41.199999999999996,70.51342857142858L37.636363636363626,70.266L34.072727272727285,70.1647142857143L30.509090909090922,69.66671428571429L26.945454545454556,69.07314285714286L23.38181818181819,68.73899999999999L19.818181818181824,68.13757142857142L16.25454545454546,67.92014285714285L12.690909090909095,67.32985714285714L9.12727272727273,65.59285714285714L5.563636363636365,64.59457142857144L2,63.38428571428572"></path></g></svg>