<svg meta="{&quot;DATA_PUBLISHED_DATE&quot;:&quot;2022-07-29&quot;,&quot;RENDER_DATE&quot;:&quot;2022-08-02&quot;,&quot;FIRST_DATE&quot;:&quot;2022-05-27&quot;,&quot;LAST_DATE&quot;:&quot;2022-07-21&quot;}" xmlns="http://www.w3.org/2000/svg" viewBox="0,0,200,100"><g transform="translate(0,0)"></g><g class="fg-bars tests-vaccines" fill="#00183f" stroke="none"><g><rect x="197" y="39.231249999999996" width="2" height="60.768750000000004" id="tests-vaccines-0"></rect></g><g><rect x="193.43636363636364" y="41.26375" width="2" height="58.73625" id="tests-vaccines-1"></rect></g><g><rect x="189.87272727272727" y="38.307500000000005" width="2" height="61.692499999999995" id="tests-vaccines-2"></rect></g><g><rect x="186.30909090909088" y="38.93124999999999" width="2" height="61.06875000000001" id="tests-vaccines-3"></rect></g><g><rect x="182.74545454545455" y="80.50125" width="2" height="19.49875" id="tests-vaccines-4"></rect></g><g><rect x="179.1818181818182" y="61.092499999999994" width="2" height="38.907500000000006" id="tests-vaccines-5"></rect></g><g><rect x="175.61818181818182" y="21.4225" width="2" height="78.5775" id="tests-vaccines-6"></rect></g><g><rect x="172.05454545454546" y="36.185" width="2" height="63.815" id="tests-vaccines-7"></rect></g><g><rect x="168.49090909090907" y="38.62" width="2" height="61.38" id="tests-vaccines-8"></rect></g><g><rect x="164.92727272727274" y="45.86125" width="2" height="54.13875" id="tests-vaccines-9"></rect></g><g><rect x="161.36363636363637" y="49.458749999999995" width="2" height="50.541250000000005" id="tests-vaccines-10"></rect></g><g><rect x="157.8" y="85.02374999999999" width="2" height="14.976250000000007" id="tests-vaccines-11"></rect></g><g><rect x="154.23636363636365" y="67.79625" width="2" height="32.20375" id="tests-vaccines-12"></rect></g><g><rect x="150.6727272727273" y="35.786249999999995" width="2" height="64.21375" id="tests-vaccines-13"></rect></g><g><rect x="147.1090909090909" y="48.39125" width="2" height="51.60875" id="tests-vaccines-14"></rect></g><g><rect x="143.54545454545453" y="48.83" width="2" height="51.17" id="tests-vaccines-15"></rect></g><g><rect x="139.9818181818182" y="49.006249999999994" width="2" height="50.993750000000006" id="tests-vaccines-16"></rect></g><g><rect x="136.41818181818184" y="98.09" width="2" height="1.9099999999999966" id="tests-vaccines-17"></rect></g><g><rect x="132.85454545454544" y="88.2275" width="2" height="11.772499999999994" id="tests-vaccines-18"></rect></g><g><rect x="129.29090909090908" y="75.4" width="2" height="24.599999999999994" id="tests-vaccines-19"></rect></g><g><rect x="125.72727272727273" y="40.95375" width="2" height="59.04625" id="tests-vaccines-20"></rect></g><g><rect x="122.16363636363636" y="48.4425" width="2" height="51.5575" id="tests-vaccines-21"></rect></g><g><rect x="118.6" y="49.2175" width="2" height="50.7825" id="tests-vaccines-22"></rect></g><g><rect x="115.03636363636363" y="49.7925" width="2" height="50.2075" id="tests-vaccines-23"></rect></g><g><rect x="111.47272727272728" y="50.24875" width="2" height="49.75125" id="tests-vaccines-24"></rect></g><g><rect x="107.90909090909089" y="84.89750000000001" width="2" height="15.102499999999992" id="tests-vaccines-25"></rect></g><g><rect x="104.34545454545456" y="64.93124999999999" width="2" height="35.06875000000001" id="tests-vaccines-26"></rect></g><g><rect x="100.78181818181817" y="35.02375" width="2" height="64.97625" id="tests-vaccines-27"></rect></g><g><rect x="97.21818181818183" y="46.48875" width="2" height="53.51125" id="tests-vaccines-28"></rect></g><g><rect x="93.65454545454546" y="47.53375" width="2" height="52.46625" id="tests-vaccines-29"></rect></g><g><rect x="90.09090909090911" y="51.45375" width="2" height="48.54625" id="tests-vaccines-30"></rect></g><g><rect x="86.52727272727273" y="53.456250000000004" width="2" height="46.543749999999996" id="tests-vaccines-31"></rect></g><g><rect x="82.96363636363637" y="87.94125000000001" width="2" height="12.05874999999999" id="tests-vaccines-32"></rect></g><g><rect x="79.4" y="72.4075" width="2" height="27.5925" id="tests-vaccines-33"></rect></g><g><rect x="75.83636363636364" y="37.457499999999996" width="2" height="62.542500000000004" id="tests-vaccines-34"></rect></g><g><rect x="72.27272727272727" y="47.6925" width="2" height="52.3075" id="tests-vaccines-35"></rect></g><g><rect x="68.70909090909092" y="45.655" width="2" height="54.345" id="tests-vaccines-36"></rect></g><g><rect x="65.14545454545454" y="47.89" width="2" height="52.11" id="tests-vaccines-37"></rect></g><g><rect x="61.58181818181818" y="47.165" width="2" height="52.835" id="tests-vaccines-38"></rect></g><g><rect x="58.018181818181816" y="83.4275" width="2" height="16.572500000000005" id="tests-vaccines-39"></rect></g><g><rect x="54.454545454545446" y="67.09" width="2" height="32.91" id="tests-vaccines-40"></rect></g><g><rect x="50.89090909090908" y="29.372500000000002" width="2" height="70.6275" id="tests-vaccines-41"></rect></g><g><rect x="47.32727272727273" y="41.74375" width="2" height="58.25625" id="tests-vaccines-42"></rect></g><g><rect x="43.76363636363636" y="38.80875" width="2" height="61.19125" id="tests-vaccines-43"></rect></g><g><rect x="40.199999999999996" y="39.24625" width="2" height="60.75375" id="tests-vaccines-44"></rect></g><g><rect x="36.636363636363626" y="36.29125" width="2" height="63.70875" id="tests-vaccines-45"></rect></g><g><rect x="33.072727272727285" y="79.12875" width="2" height="20.871250000000003" id="tests-vaccines-46"></rect></g><g><rect x="29.509090909090922" y="56.5225" width="2" height="43.4775" id="tests-vaccines-47"></rect></g><g><rect x="25.945454545454556" y="16.51125" width="2" height="83.48875" id="tests-vaccines-48"></rect></g><g><rect x="22.38181818181819" y="31.558750000000003" width="2" height="68.44125" id="tests-vaccines-49"></rect></g><g><rect x="18.818181818181824" y="28.054999999999996" width="2" height="71.94500000000001" id="tests-vaccines-50"></rect></g><g><rect x="15.254545454545461" y="21.596249999999994" width="2" height="78.40375" id="tests-vaccines-51"></rect></g><g><rect x="11.690909090909095" y="95.5725" width="2" height="4.427499999999995" id="tests-vaccines-52"></rect></g><g><rect x="8.12727272727273" y="74.73625" width="2" height="25.26375" id="tests-vaccines-53"></rect></g><g><rect x="4.563636363636365" y="54.60499999999999" width="2" height="45.39500000000001" id="tests-vaccines-54"></rect></g><g><rect x="1" y="5.403749999999996" width="2" height="94.59625" id="tests-vaccines-55"></rect></g></g><g class="fg-line tests-vaccines" fill="none" stroke="#92c5de" stroke-width="2" stroke-linecap="round"><path d="M198,45.82142857142857L194.43636363636364,45.38625L190.87272727272727,45.00857142857143L187.30909090909088,46.08767857142857L183.74545454545455,47.59160714285715L180.1818181818182,48.23767857142857L176.61818181818182,49.19535714285714L173.05454545454546,51.247321428571425L169.49090909090907,52.99107142857142L165.92727272727274,54.449642857142855L162.36363636363637,54.89892857142857L158.8,61.846250000000005L155.23636363636365,62.30392857142857L151.6727272727273,63.39017857142857L148.1090909090909,64.12839285714286L144.54545454545453,64.13571428571429L140.9818181818182,64.19107142857143L137.41818181818184,64.30339285714285L133.85454545454544,57.46892857142857L130.29090909090908,56.99321428571429L126.72727272727273,55.49767857142858L123.16363636363636,54.65053571428571L119.6,54.371428571428574L116.03636363636363,54.130892857142854L112.47272727272728,54.36821428571428L108.90909090909089,54.826428571428565L105.34545454545456,55.26125L101.78181818181817,56.32928571428572L98.21818181818183,56.676964285714284L94.65454545454546,56.84892857142857L91.09090909090911,56.580535714285716L87.52727272727273,56.07142857142857L83.96363636363637,55.17267857142857L80.4,54.52785714285715L76.83636363636364,53.76821428571428L73.27272727272727,52.613214285714285L69.70909090909092,51.763392857142854L66.14545454545454,50.785357142857144L62.58181818181818,49.550535714285715L59.018181818181816,47.99714285714285L55.454545454545446,47.38303571428572L51.89090909090908,45.87339285714286L48.32727272727273,44.03607142857143L44.76363636363636,42.58107142857143L41.199999999999996,41.04482142857143L37.636363636363626,38.52339285714286L34.072727272727285,46.99214285714285L30.509090909090922,46.364642857142854L26.945454545454556,46.090714285714284L23.38181818181819,44.50392857142857L19.818181818181824,43.93857142857143L16.25454545454546,43.28196428571428L12.690909090909095,43.53928571428571L9.12727272727273,33.051428571428566L5.563636363636365,32.67178571428572L2,31.905535714285715"></path></g></svg>