<svg meta="{&quot;DATA_PUBLISHED_DATE&quot;:&quot;2022-10-27&quot;,&quot;RENDER_DATE&quot;:&quot;2022-10-27&quot;,&quot;FIRST_DATE&quot;:&quot;2022-08-25&quot;,&quot;LAST_DATE&quot;:&quot;2022-10-19&quot;}" xmlns="http://www.w3.org/2000/svg" viewBox="0,0,200,100"><g transform="translate(0,0)"></g><g class="fg-bars tests-vaccines" fill="#00183f" stroke="none"><g><rect x="197" y="23.65769230769231" width="2" height="76.34230769230768" id="tests-vaccines-0"></rect></g><g><rect x="193.43636363636364" y="28.38384615384615" width="2" height="71.61615384615385" id="tests-vaccines-1"></rect></g><g><rect x="189.87272727272727" y="23.556153846153848" width="2" height="76.44384615384615" id="tests-vaccines-2"></rect></g><g><rect x="186.30909090909088" y="80.46692307692308" width="2" height="19.53307692307692" id="tests-vaccines-3"></rect></g><g><rect x="182.74545454545455" y="60.723076923076924" width="2" height="39.276923076923076" id="tests-vaccines-4"></rect></g><g><rect x="179.1818181818182" y="6.094615384615388" width="2" height="93.9053846153846" id="tests-vaccines-5"></rect></g><g><rect x="175.61818181818182" y="26.74923076923077" width="2" height="73.25076923076924" id="tests-vaccines-6"></rect></g><g><rect x="172.05454545454546" y="22.286153846153844" width="2" height="77.71384615384616" id="tests-vaccines-7"></rect></g><g><rect x="168.49090909090907" y="27.77615384615385" width="2" height="72.22384615384615" id="tests-vaccines-8"></rect></g><g><rect x="164.92727272727274" y="25.219230769230773" width="2" height="74.78076923076922" id="tests-vaccines-9"></rect></g><g><rect x="161.36363636363637" y="79.49076923076923" width="2" height="20.50923076923077" id="tests-vaccines-10"></rect></g><g><rect x="157.8" y="59.24230769230769" width="2" height="40.75769230769231" id="tests-vaccines-11"></rect></g><g><rect x="154.23636363636365" y="8.53384615384616" width="2" height="91.46615384615384" id="tests-vaccines-12"></rect></g><g><rect x="150.6727272727273" y="27.010769230769228" width="2" height="72.98923076923077" id="tests-vaccines-13"></rect></g><g><rect x="147.1090909090909" y="23.318461538461545" width="2" height="76.68153846153845" id="tests-vaccines-14"></rect></g><g><rect x="143.54545454545453" y="30.61538461538461" width="2" height="69.38461538461539" id="tests-vaccines-15"></rect></g><g><rect x="139.9818181818182" y="26.97307692307692" width="2" height="73.02692307692308" id="tests-vaccines-16"></rect></g><g><rect x="136.41818181818184" y="80.12" width="2" height="19.879999999999995" id="tests-vaccines-17"></rect></g><g><rect x="132.85454545454544" y="62.91923076923077" width="2" height="37.08076923076923" id="tests-vaccines-18"></rect></g><g><rect x="129.29090909090908" y="13.771538461538457" width="2" height="86.22846153846154" id="tests-vaccines-19"></rect></g><g><rect x="125.72727272727273" y="30.789999999999996" width="2" height="69.21000000000001" id="tests-vaccines-20"></rect></g><g><rect x="122.16363636363636" y="27.657692307692304" width="2" height="72.3423076923077" id="tests-vaccines-21"></rect></g><g><rect x="118.6" y="32.864615384615384" width="2" height="67.13538461538462" id="tests-vaccines-22"></rect></g><g><rect x="115.03636363636363" y="28.44923076923077" width="2" height="71.55076923076923" id="tests-vaccines-23"></rect></g><g><rect x="111.47272727272728" y="79.73" width="2" height="20.269999999999996" id="tests-vaccines-24"></rect></g><g><rect x="107.90909090909089" y="60.96538461538461" width="2" height="39.03461538461539" id="tests-vaccines-25"></rect></g><g><rect x="104.34545454545456" y="9.985384615384618" width="2" height="90.01461538461538" id="tests-vaccines-26"></rect></g><g><rect x="100.78181818181817" y="30.488461538461543" width="2" height="69.51153846153846" id="tests-vaccines-27"></rect></g><g><rect x="97.21818181818183" y="28.73" width="2" height="71.27" id="tests-vaccines-28"></rect></g><g><rect x="93.65454545454546" y="35.88" width="2" height="64.12" id="tests-vaccines-29"></rect></g><g><rect x="90.09090909090911" y="34.64" width="2" height="65.36" id="tests-vaccines-30"></rect></g><g><rect x="86.52727272727273" y="82.19076923076923" width="2" height="17.809230769230766" id="tests-vaccines-31"></rect></g><g><rect x="82.96363636363637" y="66.02153846153847" width="2" height="33.97846153846153" id="tests-vaccines-32"></rect></g><g><rect x="79.4" y="22.004615384615388" width="2" height="77.99538461538461" id="tests-vaccines-33"></rect></g><g><rect x="75.83636363636364" y="39.71230769230769" width="2" height="60.28769230769231" id="tests-vaccines-34"></rect></g><g><rect x="72.27272727272727" y="37.62615384615384" width="2" height="62.37384615384616" id="tests-vaccines-35"></rect></g><g><rect x="68.70909090909092" y="44.72846153846154" width="2" height="55.27153846153846" id="tests-vaccines-36"></rect></g><g><rect x="65.14545454545454" y="40.84615384615384" width="2" height="59.15384615384616" id="tests-vaccines-37"></rect></g><g><rect x="61.58181818181818" y="81.33153846153847" width="2" height="18.66846153846153" id="tests-vaccines-38"></rect></g><g><rect x="58.018181818181816" y="69.52538461538462" width="2" height="30.474615384615376" id="tests-vaccines-39"></rect></g><g><rect x="54.454545454545446" y="43.44692307692307" width="2" height="56.55307692307693" id="tests-vaccines-40"></rect></g><g><rect x="50.89090909090908" y="63.498461538461534" width="2" height="36.501538461538466" id="tests-vaccines-41"></rect></g><g><rect x="47.32727272727273" y="63.334615384615375" width="2" height="36.665384615384625" id="tests-vaccines-42"></rect></g><g><rect x="43.76363636363636" y="78.59307692307692" width="2" height="21.40692307692308" id="tests-vaccines-43"></rect></g><g><rect x="40.199999999999996" y="99.07615384615384" width="2" height="0.9238461538461564" id="tests-vaccines-44"></rect></g><g><rect x="36.636363636363626" y="94.82230769230769" width="2" height="5.177692307692311" id="tests-vaccines-45"></rect></g><g><rect x="33.072727272727285" y="92.65" width="2" height="7.349999999999994" id="tests-vaccines-46"></rect></g><g><rect x="29.509090909090922" y="90.11769230769231" width="2" height="9.882307692307691" id="tests-vaccines-47"></rect></g><g><rect x="25.945454545454556" y="91.76153846153846" width="2" height="8.238461538461536" id="tests-vaccines-48"></rect></g><g><rect x="22.38181818181819" y="87.44846153846154" width="2" height="12.551538461538456" id="tests-vaccines-49"></rect></g><g><rect x="18.818181818181824" y="84.99" width="2" height="15.010000000000005" id="tests-vaccines-50"></rect></g><g><rect x="15.254545454545461" y="85.58" width="2" height="14.420000000000002" id="tests-vaccines-51"></rect></g><g><rect x="11.690909090909095" y="95.84769230769231" width="2" height="4.152307692307687" id="tests-vaccines-52"></rect></g><g><rect x="8.12727272727273" y="90.70076923076923" width="2" height="9.299230769230775" id="tests-vaccines-53"></rect></g><g><rect x="4.563636363636365" y="79.29615384615386" width="2" height="20.703846153846143" id="tests-vaccines-54"></rect></g><g><rect x="1" y="83.26615384615384" width="2" height="16.73384615384616" id="tests-vaccines-55"></rect></g></g><g class="fg-line tests-vaccines" fill="none" stroke="#92c5de" stroke-width="2" stroke-linecap="round"><path d="M198,35.661648351648346L194.43636363636364,35.46571428571428L190.87272727272727,35.3789010989011L187.30909090909088,35.61648351648351L183.74545454545455,35.47703296703296L180.1818181818182,35.2654945054945L176.61818181818182,35.613956043956044L173.05454545454546,35.65131868131869L169.49090909090907,35.7987912087912L165.92727272727274,36.204395604395614L162.36363636363637,36.45494505494506L158.8,36.54483516483516L155.23636363636365,37.07010989010989L151.6727272727273,37.818351648351644L148.1090909090909,38.35824175824176L144.54545454545453,38.97813186813187L140.9818181818182,39.29945054945054L137.41818181818184,39.51032967032967L133.85454545454544,39.45461538461539L130.29090909090908,39.1754945054945L126.72727272727273,38.63461538461539L123.16363636363636,38.59153846153846L119.6,38.744725274725276L116.03636363636363,39.1754945054945L112.47272727272728,40.059890109890105L108.90909090909089,40.41142857142857L105.34545454545456,41.13373626373627L101.78181818181817,42.850769230769224L98.21818181818183,44.168461538461536L94.65454545454546,45.43934065934066L91.09090909090911,46.70340659340659L87.52727272727273,47.589999999999996L83.96363636363637,47.46725274725274L80.4,47.9678021978022L76.83636363636364,51.03098901098902L73.27272727272727,54.42901098901098L69.70909090909092,58.10164835164835L66.14545454545454,62.93945054945056L62.58181818181818,71.25802197802199L59.018181818181816,73.18527472527472L55.454545454545446,76.48879120879121L51.89090909090908,83.15604395604396L48.32727272727273,87.19362637362637L44.76363636363636,90.63846153846154L41.199999999999996,91.55230769230769L37.636363636363626,89.62428571428572L34.072727272727285,89.77076923076923L30.509090909090922,89.49230769230769L26.945454545454556,87.94637362637363L23.38181818181819,86.73274725274726L19.818181818181824,85.99021978021977L16.25454545454546,85.65648351648352L12.690909090909095,85.27868131868132L9.12727272727273,85.25692307692307L5.563636363636365,85.16835164835165L2,84.64153846153846"></path></g></svg>