<svg meta="{&quot;DATA_PUBLISHED_DATE&quot;:&quot;2022-04-15&quot;,&quot;RENDER_DATE&quot;:&quot;2022-04-15&quot;,&quot;FIRST_DATE&quot;:&quot;2022-02-10&quot;,&quot;LAST_DATE&quot;:&quot;2022-04-06&quot;}" xmlns="http://www.w3.org/2000/svg" viewBox="0,0,200,100"><g transform="translate(0,0)"></g><g class="fg-bars cases-ep" fill="#00183f" stroke="none"><g><rect x="197" y="80.31875" width="2" height="19.681250000000006" id="cases-ep-0"></rect></g><g><rect x="193.43636363636364" y="80.72500000000001" width="2" height="19.27499999999999" id="cases-ep-1"></rect></g><g><rect x="189.87272727272727" y="77.95" width="2" height="22.049999999999997" id="cases-ep-2"></rect></g><g><rect x="186.30909090909088" y="89.98125" width="2" height="10.018749999999997" id="cases-ep-3"></rect></g><g><rect x="182.74545454545455" y="90.225" width="2" height="9.775000000000006" id="cases-ep-4"></rect></g><g><rect x="179.1818181818182" y="84.39999999999999" width="2" height="15.600000000000009" id="cases-ep-5"></rect></g><g><rect x="175.61818181818182" y="84.9375" width="2" height="15.0625" id="cases-ep-6"></rect></g><g><rect x="172.05454545454546" y="83.76875" width="2" height="16.231250000000003" id="cases-ep-7"></rect></g><g><rect x="168.49090909090907" y="83.33749999999999" width="2" height="16.66250000000001" id="cases-ep-8"></rect></g><g><rect x="164.92727272727274" y="82.5" width="2" height="17.5" id="cases-ep-9"></rect></g><g><rect x="161.36363636363637" y="90.64999999999999" width="2" height="9.350000000000009" id="cases-ep-10"></rect></g><g><rect x="157.8" y="91.14999999999999" width="2" height="8.850000000000009" id="cases-ep-11"></rect></g><g><rect x="154.23636363636365" y="87.64375" width="2" height="12.356250000000003" id="cases-ep-12"></rect></g><g><rect x="150.6727272727273" y="85.76875" width="2" height="14.231250000000003" id="cases-ep-13"></rect></g><g><rect x="147.1090909090909" y="86.08125" width="2" height="13.918750000000003" id="cases-ep-14"></rect></g><g><rect x="143.54545454545453" y="81.19375" width="2" height="18.806250000000006" id="cases-ep-15"></rect></g><g><rect x="139.9818181818182" y="83.2125" width="2" height="16.787499999999994" id="cases-ep-16"></rect></g><g><rect x="136.41818181818184" y="92.0875" width="2" height="7.912499999999994" id="cases-ep-17"></rect></g><g><rect x="132.85454545454544" y="92.33125" width="2" height="7.668750000000003" id="cases-ep-18"></rect></g><g><rect x="129.29090909090908" y="87.66874999999999" width="2" height="12.331250000000011" id="cases-ep-19"></rect></g><g><rect x="125.72727272727273" y="85.65" width="2" height="14.349999999999994" id="cases-ep-20"></rect></g><g><rect x="122.16363636363636" y="84.7375" width="2" height="15.262500000000003" id="cases-ep-21"></rect></g><g><rect x="118.6" y="83.7625" width="2" height="16.237499999999997" id="cases-ep-22"></rect></g><g><rect x="115.03636363636363" y="82.25" width="2" height="17.75" id="cases-ep-23"></rect></g><g><rect x="111.47272727272728" y="92.06875" width="2" height="7.931250000000006" id="cases-ep-24"></rect></g><g><rect x="107.90909090909089" y="90.7625" width="2" height="9.237499999999997" id="cases-ep-25"></rect></g><g><rect x="104.34545454545456" y="85.69375000000001" width="2" height="14.306249999999991" id="cases-ep-26"></rect></g><g><rect x="100.78181818181817" y="84.24374999999999" width="2" height="15.756250000000009" id="cases-ep-27"></rect></g><g><rect x="97.21818181818183" y="81.21875" width="2" height="18.78125" id="cases-ep-28"></rect></g><g><rect x="93.65454545454546" y="79.36875" width="2" height="20.631249999999994" id="cases-ep-29"></rect></g><g><rect x="90.09090909090911" y="75.8" width="2" height="24.200000000000003" id="cases-ep-30"></rect></g><g><rect x="86.52727272727273" y="88.79375" width="2" height="11.206249999999997" id="cases-ep-31"></rect></g><g><rect x="82.96363636363637" y="87.1625" width="2" height="12.837500000000006" id="cases-ep-32"></rect></g><g><rect x="79.4" y="80.60000000000001" width="2" height="19.39999999999999" id="cases-ep-33"></rect></g><g><rect x="75.83636363636364" y="77.61875" width="2" height="22.381249999999994" id="cases-ep-34"></rect></g><g><rect x="72.27272727272727" y="75.11875" width="2" height="24.881249999999994" id="cases-ep-35"></rect></g><g><rect x="68.70909090909092" y="70.9" width="2" height="29.099999999999994" id="cases-ep-36"></rect></g><g><rect x="65.14545454545454" y="67.35625" width="2" height="32.64375" id="cases-ep-37"></rect></g><g><rect x="61.58181818181818" y="85.19375" width="2" height="14.806250000000006" id="cases-ep-38"></rect></g><g><rect x="58.018181818181816" y="83.21875" width="2" height="16.78125" id="cases-ep-39"></rect></g><g><rect x="54.454545454545446" y="70.18124999999999" width="2" height="29.81875000000001" id="cases-ep-40"></rect></g><g><rect x="50.89090909090908" y="67.83125" width="2" height="32.16875" id="cases-ep-41"></rect></g><g><rect x="47.32727272727273" y="65.14375" width="2" height="34.85625" id="cases-ep-42"></rect></g><g><rect x="43.76363636363636" y="55.34375" width="2" height="44.65625" id="cases-ep-43"></rect></g><g><rect x="40.199999999999996" y="66.71249999999999" width="2" height="33.28750000000001" id="cases-ep-44"></rect></g><g><rect x="36.636363636363626" y="77.53125" width="2" height="22.46875" id="cases-ep-45"></rect></g><g><rect x="33.072727272727285" y="73.9" width="2" height="26.099999999999994" id="cases-ep-46"></rect></g><g><rect x="29.509090909090922" y="56.05" width="2" height="43.95" id="cases-ep-47"></rect></g><g><rect x="25.945454545454556" y="49.61875" width="2" height="50.38125" id="cases-ep-48"></rect></g><g><rect x="22.38181818181819" y="41.631249999999994" width="2" height="58.368750000000006" id="cases-ep-49"></rect></g><g><rect x="18.818181818181824" y="32.45" width="2" height="67.55" id="cases-ep-50"></rect></g><g><rect x="15.254545454545461" y="20.05625" width="2" height="79.94375" id="cases-ep-51"></rect></g><g><rect x="11.690909090909095" y="65.53750000000001" width="2" height="34.46249999999999" id="cases-ep-52"></rect></g><g><rect x="8.12727272727273" y="55.825" width="2" height="44.175" id="cases-ep-53"></rect></g><g><rect x="4.563636363636365" y="19.887500000000003" width="2" height="80.1125" id="cases-ep-54"></rect></g><g><rect x="1" y="11.962499999999999" width="2" height="88.0375" id="cases-ep-55"></rect></g></g><g class="fg-line cases-ep" fill="none" stroke="#92c5de" stroke-width="2" stroke-linecap="round"><path d="M198,84.07678571428572L194.43636363636364,84.56964285714285L190.87272727272727,84.94285714285714L187.30909090909088,85.59285714285714L183.74545454545455,85.68839285714286L180.1818181818182,85.82053571428571L176.61818181818182,86.28392857142858L173.05454545454546,86.40267857142857L169.49090909090907,86.7330357142857L165.92727272727274,86.42678571428571L162.36363636363637,86.52857142857142L158.8,86.73392857142858L155.23636363636365,86.90267857142857L151.6727272727273,86.90625L148.1090909090909,86.88928571428572L144.54545454545453,86.69732142857143L140.9818181818182,87.06428571428572L137.41818181818184,86.92678571428571L133.85454545454544,86.92410714285714L130.29090909090908,86.7L126.72727272727273,86.41785714285714L123.16363636363636,86.21696428571428L119.6,85.71428571428572L116.03636363636363,85.08660714285713L112.47272727272728,84.16517857142858L108.90909090909089,83.69732142857143L105.34545454545456,83.18303571428571L101.78181818181817,82.45535714285714L98.21818181818183,81.50892857142857L94.65454545454546,80.6375L91.09090909090911,79.42767857142857L87.52727272727273,78.22142857142858L83.96363636363637,77.70714285714287L80.4,77.14375L76.83636363636364,75.65535714285714L73.27272727272727,74.25714285714285L69.70909090909092,72.83214285714286L66.14545454545454,70.60982142857142L62.58181818181818,70.51785714285714L59.018181818181816,69.42321428571428L55.454545454545446,68.09196428571428L51.89090909090908,66.07321428571429L48.32727272727273,63.471428571428575L44.76363636363636,60.112500000000004L41.199999999999996,56.84196428571428L37.636363636363626,50.17678571428572L34.072727272727285,48.46339285714285L30.509090909090922,45.881249999999994L26.945454545454556,40.71517857142857L23.38181818181819,35.33571428571429L19.818181818181824,29.353571428571435L16.25454545454546,23.141071428571436L12.690909090909095,14.672321428571433L9.12727272727273,10.890178571428565L5.563636363636365,6.839285714285714L2,-1.0080357142857155"></path></g></svg>