<svg meta="{&quot;DATA_PUBLISHED_DATE&quot;:&quot;2023-11-17&quot;,&quot;RENDER_DATE&quot;:&quot;2023-12-22&quot;,&quot;FIRST_DATE&quot;:&quot;2023-09-17&quot;,&quot;LAST_DATE&quot;:&quot;2023-11-11&quot;}" xmlns="http://www.w3.org/2000/svg" viewBox="0,0,200,100"><g transform="translate(0,0)"></g><g class="fg-bars admissions-count" fill="#00183f" stroke="none"><g><rect x="197" y="33.75" width="2" height="66.25" id="admissions-count-0"></rect></g><g><rect x="193.43636363636364" y="32.25" width="2" height="67.75" id="admissions-count-1"></rect></g><g><rect x="189.87272727272727" y="40" width="2" height="60" id="admissions-count-2"></rect></g><g><rect x="186.30909090909088" y="40" width="2" height="60" id="admissions-count-3"></rect></g><g><rect x="182.74545454545455" y="39.24999999999999" width="2" height="60.75000000000001" id="admissions-count-4"></rect></g><g><rect x="179.1818181818182" y="45.49999999999999" width="2" height="54.50000000000001" id="admissions-count-5"></rect></g><g><rect x="175.61818181818182" y="39.5" width="2" height="60.5" id="admissions-count-6"></rect></g><g><rect x="172.05454545454546" y="35.75000000000001" width="2" height="64.25" id="admissions-count-7"></rect></g><g><rect x="168.49090909090907" y="40" width="2" height="60" id="admissions-count-8"></rect></g><g><rect x="164.92727272727274" y="38" width="2" height="62" id="admissions-count-9"></rect></g><g><rect x="161.36363636363637" y="39.75" width="2" height="60.25" id="admissions-count-10"></rect></g><g><rect x="157.8" y="39" width="2" height="61" id="admissions-count-11"></rect></g><g><rect x="154.23636363636365" y="44.25" width="2" height="55.75" id="admissions-count-12"></rect></g><g><rect x="150.6727272727273" y="52.25" width="2" height="47.75" id="admissions-count-13"></rect></g><g><rect x="147.1090909090909" y="42.50000000000001" width="2" height="57.49999999999999" id="admissions-count-14"></rect></g><g><rect x="143.54545454545453" y="50.5" width="2" height="49.5" id="admissions-count-15"></rect></g><g><rect x="139.9818181818182" y="44.75" width="2" height="55.25" id="admissions-count-16"></rect></g><g><rect x="136.41818181818184" y="47" width="2" height="53" id="admissions-count-17"></rect></g><g><rect x="132.85454545454544" y="42.25" width="2" height="57.75" id="admissions-count-18"></rect></g><g><rect x="129.29090909090908" y="40.25" width="2" height="59.75" id="admissions-count-19"></rect></g><g><rect x="125.72727272727273" y="36.75000000000001" width="2" height="63.24999999999999" id="admissions-count-20"></rect></g><g><rect x="122.16363636363636" y="32.75" width="2" height="67.25" id="admissions-count-21"></rect></g><g><rect x="118.6" y="25.749999999999996" width="2" height="74.25" id="admissions-count-22"></rect></g><g><rect x="115.03636363636363" y="34.25" width="2" height="65.75" id="admissions-count-23"></rect></g><g><rect x="111.47272727272728" y="22.499999999999996" width="2" height="77.5" id="admissions-count-24"></rect></g><g><rect x="107.90909090909089" y="32.25" width="2" height="67.75" id="admissions-count-25"></rect></g><g><rect x="104.34545454545456" y="34.25" width="2" height="65.75" id="admissions-count-26"></rect></g><g><rect x="100.78181818181817" y="41" width="2" height="59" id="admissions-count-27"></rect></g><g><rect x="97.21818181818183" y="39.5" width="2" height="60.5" id="admissions-count-28"></rect></g><g><rect x="93.65454545454546" y="39" width="2" height="61" id="admissions-count-29"></rect></g><g><rect x="90.09090909090911" y="29.25" width="2" height="70.75" id="admissions-count-30"></rect></g><g><rect x="86.52727272727273" y="36.25000000000001" width="2" height="63.74999999999999" id="admissions-count-31"></rect></g><g><rect x="82.96363636363637" y="33.5" width="2" height="66.5" id="admissions-count-32"></rect></g><g><rect x="79.4" y="45.75" width="2" height="54.25" id="admissions-count-33"></rect></g><g><rect x="75.83636363636364" y="27.500000000000004" width="2" height="72.5" id="admissions-count-34"></rect></g><g><rect x="72.27272727272727" y="34" width="2" height="66" id="admissions-count-35"></rect></g><g><rect x="68.70909090909092" y="17.25" width="2" height="82.75" id="admissions-count-36"></rect></g><g><rect x="65.14545454545454" y="27.500000000000004" width="2" height="72.5" id="admissions-count-37"></rect></g><g><rect x="61.58181818181818" y="31.499999999999993" width="2" height="68.5" id="admissions-count-38"></rect></g><g><rect x="58.018181818181816" y="13.249999999999995" width="2" height="86.75" id="admissions-count-39"></rect></g><g><rect x="54.454545454545446" y="43.99999999999999" width="2" height="56.00000000000001" id="admissions-count-40"></rect></g><g><rect x="50.89090909090908" y="30.25" width="2" height="69.75" id="admissions-count-41"></rect></g><g><rect x="47.32727272727273" y="26" width="2" height="74" id="admissions-count-42"></rect></g><g><rect x="43.76363636363636" y="26.249999999999996" width="2" height="73.75" id="admissions-count-43"></rect></g><g><rect x="40.199999999999996" y="23.5" width="2" height="76.5" id="admissions-count-44"></rect></g><g><rect x="36.636363636363626" y="9.499999999999996" width="2" height="90.5" id="admissions-count-45"></rect></g><g><rect x="33.072727272727285" y="18.25" width="2" height="81.75" id="admissions-count-46"></rect></g><g><rect x="29.509090909090922" y="16.249999999999996" width="2" height="83.75" id="admissions-count-47"></rect></g><g><rect x="25.945454545454556" y="26.249999999999996" width="2" height="73.75" id="admissions-count-48"></rect></g><g><rect x="22.38181818181819" y="18.25" width="2" height="81.75" id="admissions-count-49"></rect></g><g><rect x="18.818181818181824" y="6.499999999999995" width="2" height="93.5" id="admissions-count-50"></rect></g><g><rect x="15.254545454545461" y="15.249999999999996" width="2" height="84.75" id="admissions-count-51"></rect></g><g><rect x="11.690909090909095" y="7.9999999999999964" width="2" height="92" id="admissions-count-52"></rect></g><g><rect x="8.12727272727273" y="1.0000000000000009" width="2" height="99" id="admissions-count-53"></rect></g><g><rect x="4.563636363636365" y="10.250000000000004" width="2" height="89.75" id="admissions-count-54"></rect></g><g><rect x="1" y="4.249999999999998" width="2" height="95.75" id="admissions-count-55"></rect></g></g><g class="fg-line admissions-count" fill="none" stroke="#92c5de" stroke-width="2" stroke-linecap="round"><path d="M198,38.607142857142854L194.43636363636364,38.89285714285715L190.87272727272727,40L187.30909090909088,39.714285714285715L183.74545454545455,39.67857142857143L180.1818181818182,39.642857142857146L176.61818181818182,39.464285714285715L173.05454545454546,41.28571428571428L169.49090909090907,42.25L165.92727272727274,43.75L162.36363636363637,44.714285714285715L158.8,45.75L155.23636363636365,46.21428571428572L151.6727272727273,45.64285714285714L148.1090909090909,43.42857142857143L144.54545454545453,42.035714285714285L140.9818181818182,38.5L137.41818181818184,37L133.85454545454544,33.5L130.29090909090908,32.07142857142857L126.72727272727273,31.214285714285705L123.16363636363636,31.821428571428566L119.6,32.7857142857143L116.03636363636363,34.67857142857142L112.47272727272728,33.964285714285715L108.90909090909089,35.92857142857143L105.34545454545456,36.10714285714285L101.78181818181817,37.74999999999999L98.21818181818183,35.82142857142857L94.65454545454546,35.03571428571429L91.09090909090911,31.928571428571427L87.52727272727273,31.678571428571434L83.96363636363637,31.000000000000007L80.4,28.107142857142865L76.83636363636364,27.857142857142858L73.27272727272727,28.249999999999996L69.70909090909092,27.10714285714286L66.14545454545454,28.392857142857142L62.58181818181818,27.821428571428577L59.018181818181816,24.678571428571427L55.454545454545446,25.39285714285714L51.89090909090908,21.42857142857143L48.32727272727273,20.85714285714286L44.76363636363636,19.75L41.199999999999996,16.928571428571427L37.636363636363626,15.749999999999996L34.072727272727285,15.535714285714297L30.509090909090922,13.071428571428568L26.945454545454556,12.214285714285712L23.38181818181819,9.071428571428575L19.818181818181824,8.535714285714292L16.25454545454546,7.678571428571434L12.690909090909095,5.000000000000004L9.12727272727273,3.107142857142864L5.563636363636365,2.6071428571428634L2,3.392857142857142"></path></g></svg>