<?xml version="1.0" encoding="utf-8"?>
<!-- Generator: Adobe Illustrator 25.4.1, SVG Export Plug-In . SVG Version: 6.00 Build 0)  -->
<svg version="1.1" id="Layer_1" xmlns="http://www.w3.org/2000/svg" xmlns:xlink="http://www.w3.org/1999/xlink" x="0px" y="0px"
	 width="14400px" height="14400px" viewBox="0 0 14400 14400" style="enable-background:new 0 0 14400 14400;" xml:space="preserve"
	>
<style type="text/css">
	.st0{fill:#003D9D;}
	.st1{fill:#FF8000;}
	.st2{fill:#FFFFFF;}
</style>
<rect x="7154.3" y="7163.6" class="st0" width="77" height="73"/>
<g>
	<path class="st1" d="M7183.9,7219.4h6.2l-12.5-27.5l-13.5,27.5l6.1,0l1.7-3.7h10.4L7183.9,7219.4z M7173.8,7211.5l3.5-7.7l3.2,7.7
		H7173.8z"/>
	<polygon class="st1" points="7191.2,7219.4 7205.3,7219.4 7205.3,7214.4 7197,7214.4 7197,7192.3 7191.2,7192.3 	"/>
	<polygon class="st1" points="7206.5,7219.4 7220.6,7219.4 7220.6,7214.4 7212.3,7214.4 7212.3,7192.3 7206.5,7192.3 	"/>
</g>
<g>
	<path class="st2" d="M7176.7,7188.2h1.7l-3.4-7.6l-3.7,7.6l1.7,0l0.5-1h2.9L7176.7,7188.2z M7173.9,7186l1-2.1l0.9,2.1H7173.9z"/>
	<path class="st2" d="M7218.4,7188.2h1.7l-3.4-7.6l-3.7,7.6l1.7,0l0.5-1h2.9L7218.4,7188.2z M7215.7,7186l1-2.1l0.9,2.1H7215.7z"/>
	<g>
		<path class="st1" d="M7202.8,7183c0-0.6-0.2-1.2-0.8-1.7c-0.6-0.5-1.4-0.5-1.8-0.5c-0.4,0-2.3,0-2.3,0v7.4h1.5v-3l0.8,0l1.2,2.9
			h1.7l-1.4-3.2C7202.7,7184.4,7202.8,7183.6,7202.8,7183z M7200.4,7183.9c-0.5,0-1,0-1,0v-1.9c0,0,0.6,0,0.9,0c0.5,0,1,0.2,1,0.9
			C7201.3,7183.6,7200.9,7183.9,7200.4,7183.9z"/>
		<polygon class="st2" points="7208.9,7185.1 7203.6,7180.5 7203.6,7188.1 7205.1,7188.1 7205.1,7183.8 7210.4,7188.4 
			7210.4,7180.8 7208.9,7180.8 		"/>
		<rect x="7211.1" y="7180.8" class="st2" width="1.6" height="7.4"/>
	</g>
	<polygon class="st2" points="7178.7,7188.1 7182.5,7188.1 7182.5,7186.8 7180.2,7186.8 7180.2,7180.8 7178.7,7180.8 	"/>
	<rect x="7183" y="7180.8" class="st2" width="1.6" height="7.4"/>
	<polygon class="st1" points="7189.4,7182.1 7189.4,7180.8 7185.3,7180.8 7185.3,7188.1 7186.9,7188.1 7186.9,7184.9 7188.9,7184.9 
		7188.9,7183.6 7186.9,7183.6 7186.9,7182.1 	"/>
	<g>
		<path class="st1" d="M7193.4,7180.6c-2.1,0-3.8,1.7-3.8,3.8s1.7,3.8,3.8,3.8s3.8-1.7,3.8-3.8S7195.5,7180.6,7193.4,7180.6z
			 M7193.4,7186.8c-1.3,0-2.4-1.1-2.4-2.4s1.1-2.4,2.4-2.4c1.3,0,2.3,1.1,2.3,2.4S7194.7,7186.8,7193.4,7186.8z"/>
	</g>
	<g>
		<path class="st2" d="M7168.6,7186.9c-1.3,0-2.4-1.1-2.4-2.4c0-1.3,1.1-2.4,2.4-2.4c0.8,0,1.5,0.4,1.9,0.9l1.1-0.9
			c-0.7-0.9-1.8-1.5-3-1.5c-2.1,0-3.8,1.7-3.8,3.8s1.7,3.8,3.8,3.8c1.2,0,2.3-0.6,3-1.4l-1-1
			C7170.1,7186.5,7169.4,7186.9,7168.6,7186.9z"/>
	</g>
</g>
</svg>
